<svg xmlns="http://www.w3.org/2000/svg" width="400" height="401" fill="none" viewBox="0 0 400 401"><path fill="#DADADA" d="M335.681 319.75H52.271l-8.712-5.19V94.727h279.333l12.789 8.341V319.75Z"/><path fill="#222" d="M337.164 321.047H51.9l-9.824-5.561V93.429h281.001l13.902 8.897v218.721h.185Zm-284.522-2.78h281.557V103.809l-11.863-7.6H45.042v217.609l7.6 4.449Z"/><path fill="#fff" d="M335.681 103.066H52.271v216.683h283.41V103.066Z"/><path fill="#222" d="M335.681 321.046H52.271c-.742 0-1.483-.556-1.483-1.482V103.067c0-.742.556-1.483 1.483-1.483h283.41c.741 0 1.483.556 1.483 1.483v216.497c0 .926-.742 1.482-1.483 1.482Zm-281.928-2.78h280.631V104.364H53.754v213.902Z"/><path fill="#444" d="M318.628 120.676H69.323v187.766h249.305V120.676Z"/><path fill="#222" d="M320.111 309.739H68.026V119.378H320.11v190.361Zm-249.305-2.78h246.525V122.158H70.806v184.801ZM52.27 104.92c-.37 0-.926-.185-1.297-.556l-8.712-8.34c-.741-.742-.741-1.854 0-2.596.742-.741 1.854-.741 2.595 0l8.712 8.341c.741.742.741 1.854 0 2.595-.185.371-.741.556-1.298.556ZM193.513 115.301a3.337 3.337 0 1 0-.002-6.674 3.337 3.337 0 0 0 .002 6.674Z"/><path fill="#fff" d="m248.564 168.498-90.455-34.291-62.836 34.291v89.713l36.886 34.291h160.519v-89.898l-44.114-34.106Z"/><path fill="#DADADA" d="M193.513 292.502h99.166l-36.701-34.291h-62.465v34.291Z"/><path fill="#FF3158" d="M280.074 291.946h-11.121l-35.774-33.179 10.936-.556 35.959 33.735ZM226.321 275.634l-11.122.186-18.35-17.053 10.936-.556 18.536 17.423Z"/><path fill="#222" d="M214.828 276.376c-.185 0-.37 0-.556-.186l-17.979-16.682a.895.895 0 0 1 0-1.297.895.895 0 0 1 1.297 0l17.98 16.682a.895.895 0 0 1 0 1.297c-.371 0-.556.186-.742.186Z"/><path fill="#222" d="M226.321 276.561h-10.936c-.556 0-.927-.371-.927-.927s.371-.927.927-.927h10.936c.556 0 .927.371.927.927s-.556.927-.927.927Z"/><path fill="#FF3158" d="m246.71 282.122-12.234.185-25.393-23.54 10.936-.556 26.691 23.911Z"/><path fill="#222" d="M234.106 282.863c-.186 0-.371 0-.556-.185l-25.023-23.17a.895.895 0 0 1 0-1.297.895.895 0 0 1 1.297 0l25.023 23.169a.896.896 0 0 1 0 1.298c-.37 0-.556.185-.741.185Z"/><path fill="#222" d="M230.955 268.405h-11.863c-.556 0-.927-.37-.927-.926 0-.557.371-.927.927-.927h11.863c.556 0 .926.37.926.927 0 .556-.556.926-.926.926ZM246.71 283.049h-12.233c-.556 0-.927-.371-.927-.927s.371-.927.927-.927h12.233c.556 0 .927.371.927.927s-.556.927-.927.927Z"/><path fill="#FF3158" d="M268.397 291.946h-10.936l-35.96-33.179 10.937-.556 35.959 33.735Z"/><path fill="#222" d="M257.461 293.058c-.186 0-.371 0-.556-.186l-35.959-33.364a.895.895 0 0 1 0-1.297.895.895 0 0 1 1.297 0l35.959 33.364a.895.895 0 0 1 0 1.297c-.37 0-.556.186-.741.186Z"/><path fill="#FF3158" d="M291.752 291.946h-10.936l-35.96-33.179 11.122-.556 35.774 33.735Z"/><path fill="#F5F4F3" d="M162.743 252.464h-24.652v-55.792l24.652-13.531v69.323ZM190.176 220.397l-18.535-17.238v49.305h18.535v-32.067ZM200 252.465h61.724v-62.651L200 168.498v83.967Z"/><path fill="#DADADA" d="M132.159 258.211v34.291h61.353l-36.7-34.291h-24.653Z"/><path fill="#DADADA" d="M165.709 258.211h18.536v25.579l-18.536-17.238v-8.341Z"/><path fill="#222" d="M256.719 174.985h-1.853v83.411h1.853v-83.411Z"/><path fill="#222" d="m256.521 257.575-1.26 1.36 36.84 34.147 1.26-1.359-36.84-34.148ZM283.225 260.621c-.185 0-.371 0-.556-.186l-18.536-17.238c-.185-.185-.37-.371-.37-.741v-33.365c0-.37.185-.741.556-.926.37-.186.741 0 .927.185l18.535 17.238c.186.186.371.371.371.742v33.364c0 .371-.185.741-.556.927h-.371Zm-17.794-18.536 16.682 15.57V226.7l-16.682-15.57v30.955ZM192.957 293.057l-9.268-8.526c-.186-.186-.371-.371-.371-.742V226.7l-16.682-15.57v55.421c0 .371-.185.742-.556.927-.371.185-.742 0-.927-.185l-8.897-8.341c-.185-.186-.371-.371-.371-.742v-69.323h1.854v68.767l7.043 6.673v-55.422c0-.37.186-.741.556-.927.371-.185.742 0 .927.186l18.536 17.238c.185.185.371.371.371.741v57.09l9.082 8.341-1.297 1.483Z"/><path fill="#222" d="M194.44 168.498h-1.854v124.004h1.854V168.498ZM265.15 225.144l-1.26 1.36 18.629 17.258 1.26-1.36-18.629-17.258Z"/><path fill="#222" d="M273.958 250.981c-.557 0-.927-.37-.927-.927v-32.622c0-.556.37-.927.927-.927.556 0 .926.371.926.927v32.622c-.185.371-.556.927-.926.927ZM255.793 257.284h-62.28v1.854h62.28v-1.854ZM184.245 257.284h-18.536v1.854h18.536v-1.854ZM156.626 257.284h-24.467v1.854h24.467v-1.854Z"/><path fill="#DADADA" d="m248.564 168.498-90.455-34.291-62.836 34.291 36.886 34.106 61.91-34.106 98.609 34.106-44.114-34.106Z"/><path fill="#222" d="m95.978 167.678-1.26 1.359 36.83 34.163 1.26-1.359-36.83-34.163Z"/><path fill="#222" d="M132.159 292.501c-.556 0-.927-.37-.927-.926v-89.898c0-.371.186-.557.556-.742l61.91-34.106c.185-.185.556-.185.741 0l98.795 34.106c.556.185.742.742.556 1.112-.185.556-.741.742-1.112.556l-98.239-34.105-60.982 33.735v89.342c-.371.37-.742.926-1.298.926Z"/><path fill="#222" d="M292.678 293.428H132.159c-.185 0-.37 0-.556-.185l-36.886-34.106c-.185-.185-.37-.371-.37-.741v-89.898c0-.371.185-.742.556-.742l62.65-34.291c.186-.185.556-.185.742 0l90.454 34.106s.185 0 .185.185l44.301 33.179c.185.185.37.371.37.741v90.825c0 .556-.37.927-.927.927Zm-160.148-1.853h159.222v-89.342l-43.745-32.809-89.898-34.105L96.2 169.054v88.971l36.33 33.55Z"/><path fill="#222" d="M239.296 237.451h-33.735c-.556 0-.927-.371-.927-.927v-33.735c0-.556.371-.927.927-.927h33.735c.556 0 .926.371.926.927v33.735c0 .556-.37.927-.926.927Zm-32.809-1.854h31.882v-31.881h-31.882v31.881Z"/><path fill="#222" d="M223.355 202.604h-1.854v33.92h1.854v-33.92Z"/><path fill="#222" d="M239.295 218.729h-33.734v1.854h33.734v-1.854ZM280.816 293.058c-.186 0-.371 0-.556-.186l-35.96-33.364a.897.897 0 0 1 0-1.297.896.896 0 0 1 1.298 0l35.959 33.364a.895.895 0 0 1 0 1.297c-.185 0-.556.186-.741.186ZM269.138 293.058c-.185 0-.371 0-.556-.186l-35.959-33.364a.895.895 0 0 1 0-1.297.895.895 0 0 1 1.297 0l35.959 33.364a.895.895 0 0 1 0 1.297c-.37 0-.556.186-.741.186Z"/><path fill="#FF3158" d="M141.242 277.488v-12.604l6.487 6.117v12.604l-6.487-6.117Z"/><path fill="#222" d="M147.729 284.531c-.185 0-.37 0-.556-.185l-6.487-6.117c-.186-.185-.371-.371-.371-.741v-12.605c0-.37.185-.741.556-.926.371-.186.741 0 .927.185l6.487 6.117c.186.185.371.371.371.741v12.604c0 .371-.185.742-.556.927h-.371Zm-5.375-7.414 4.634 4.449v-10.195l-4.634-4.449v10.195Z"/><path fill="#FF3158" d="M176.089 271h-28.36v12.604h28.36V271Z"/><path fill="#222" d="M176.274 284.531H147.73c-.557 0-.927-.371-.927-.927V271c0-.556.37-.927.927-.927h28.359c.556 0 .927.371.927.927v12.604c.185.556-.371.927-.742.927Zm-27.618-1.853h26.506v-10.751h-26.506v10.751Z"/><path fill="#FF3158" d="M141.242 264.883h28.545l6.488 6.117H147.73l-6.488-6.117Z"/><path fill="#222" d="M176.274 271.927H147.73c-.186 0-.557 0-.557-.186l-6.487-6.117c-.185-.185-.371-.741-.185-.926.185-.371.556-.556.926-.556h28.36c.185 0 .556 0 .556.185l6.488 6.117c.185.185.37.741.185.927-.185.37-.371.556-.742.556Zm-28.174-1.854h25.765l-4.449-4.263h-25.764l4.448 4.263Z"/><path fill="#DADADA" d="M150.88 258.581V266.737h4.449v-5.005h5.375v5.005h4.449V258.581H150.88Z"/><path fill="#222" d="M165.153 267.664h-4.449c-.556 0-.926-.371-.926-.927v-4.078h-3.522v4.078c0 .556-.371.927-.927.927h-4.449c-.556 0-.926-.371-.926-.927v-8.156c0-.556.37-.927.926-.927h14.458c.556 0 .927.371.927.927v8.156c-.185.556-.556.927-1.112.927Zm-3.522-1.854h2.595v-6.302h-12.604v6.302h2.595v-4.078c0-.556.371-.927.927-.927h5.375c.556 0 .927.371.927.927v4.078h.185ZM250.973 276.561h-10.936c-.556 0-.927-.371-.927-.927s.371-.927.927-.927h10.936c.556 0 .927.371.927.927s-.556.927-.927.927ZM273.216 276.561h-9.268c-.556 0-.927-.371-.927-.927s.371-.927.927-.927h9.268c.556 0 .927.371.927.927s-.371.927-.927.927ZM253.197 268.405h-10.009c-.556 0-.927-.37-.927-.926 0-.557.371-.927.927-.927h10.009c.556 0 .927.37.927.927 0 .556-.371.926-.927.926ZM269.323 283.049h-10.009c-.556 0-.927-.371-.927-.927s.371-.927.927-.927h10.009c.556 0 .927.371.927.927s-.371.927-.927.927Z"/><path fill="#fff" d="M318.628 175.542c33.372 0 60.426-27.054 60.426-60.426 0-33.373-27.054-60.426-60.426-60.426-33.373 0-60.426 27.053-60.426 60.426 0 33.372 27.053 60.426 60.426 60.426Z"/><path fill="#222" d="M318.628 177.025c-34.106 0-61.724-27.804-61.724-61.724s27.804-61.724 61.724-61.724 61.724 27.804 61.724 61.724-27.618 61.724-61.724 61.724Zm0-120.853c-32.623 0-58.943 26.506-58.943 58.944 0 32.437 26.506 58.943 58.943 58.943 32.438 0 58.944-26.506 58.944-58.943 0-32.438-26.321-58.944-58.944-58.944Z"/><path fill="#222" d="m326.042 89.907-43.373 27.247c-.556.371-.927.927-.927 1.483v22.058l44.857-28.175h25.393v1.298l-24.467 14.828c-.556.371-.926.927-.926 1.669v10.38H355.7V91.019c0-.741-.742-1.483-1.483-1.483H327.34c-.371 0-.927.186-1.298.37Z"/></svg>