<svg xmlns="http://www.w3.org/2000/svg" width="400" height="400" fill="none" viewBox="0 0 400 400"><path fill="#DADADA" d="M377.624 324.364H150.532l-91.54-53.629v-14.609l217.106-2.589 101.526 59.731v11.096Z"/><path fill="#222" d="M379.103 325.659H150.162l-.37-.185-92.28-53.999v-16.829h1.295l217.476-2.404 102.82 60.287v13.13Zm-228.201-2.774h225.242v-8.877l-100.601-59.177-215.441 2.404v12.575l90.8 53.075Z"/><path fill="#fff" d="M377.624 313.269H150.532l-84.513-49.376h227.093l84.512 49.376Z"/><path fill="#222" d="M377.624 314.748H150.532c-.185 0-.555 0-.74-.185L65.28 265.002c-.555-.37-.74-.924-.555-1.479.185-.555.74-1.11 1.295-1.11h227.092c.185 0 .554 0 .739.185l84.513 49.561c.554.37.739.925.554 1.48-.185.739-.739 1.109-1.294 1.109Zm-226.722-2.774h221.544l-79.889-46.787H71.013l79.889 46.787Z"/><path fill="#222" d="M150.532 325.844c-.74 0-1.48-.555-1.48-1.48v-11.096c0-.739.555-1.479 1.48-1.479.924 0 1.479.555 1.479 1.479v11.096c0 .74-.74 1.48-1.479 1.48Z"/><path fill="#DADADA" d="m286.084 257.235-220.065 6.658-7.027-4.069V83.588h223.763l10.356 6.657-7.027 166.99Z"/><path fill="#222" d="m65.65 265.187-7.952-4.623V82.294H283.31l11.281 7.211v.74l-7.027 168.285h-1.295l-220.62 6.657Zm-5.363-6.287 5.917 3.513 218.401-6.657 6.842-164.771-9.246-5.918H60.287V258.9Z"/><path fill="#fff" d="M293.112 90.245H66.019v173.648h227.093V90.245Z"/><path fill="#222" d="M293.111 265.187H66.02c-.74 0-1.48-.555-1.48-1.479V90.245c0-.74.555-1.48 1.48-1.48h227.09c.74 0 1.48.555 1.48 1.48v173.648c-.185.739-.74 1.294-1.48 1.294Zm-225.797-2.774h224.318V91.724H67.314v170.689Z"/><path fill="#444" d="M279.427 104.485H79.704v150.531h199.723V104.485Z"/><path fill="#222" d="M280.721 256.311H78.225V103.005H280.72v153.306Zm-199.722-2.774h196.948V105.779H80.999v147.758ZM66.02 92.094c-.37 0-.925-.185-1.295-.554l-7.027-6.658c-.74-.74-.74-1.85 0-2.589.74-.74 1.85-.74 2.589 0l7.027 6.657c.74.74.74 1.85 0 2.59-.37.37-.924.554-1.294.554Z"/><path fill="#444" d="m304.207 286.824-14.239-8.322H270.55l14.425 8.322h19.232Zm-48.451 0-14.24-8.322h-21.081l14.424 8.322h20.897Zm-1.665-17.938 12.945 7.582h19.418l-12.945-7.582h-19.418Zm26.815 17.938-14.424-8.322h-20.897l14.239 8.322h21.082Zm-77.115-17.938 13.13 7.582h21.082l-13.13-7.582h-21.082Zm25.15 0 13.13 7.582h20.897l-12.945-7.582h-21.082Zm-50.115 0 13.13 7.582h20.897l-12.945-7.582h-21.082Zm1.849 17.938-14.424-8.322h-21.082l14.424 8.322h21.082Zm50.116 0-14.425-8.322h-20.897l14.24 8.322h21.082Zm-108.738-8.322 14.054 8.322h19.418l-14.24-8.322h-19.232Zm83.587 8.322-14.239-8.322h-21.082l14.424 8.322h20.897Zm-51.965-17.938 13.13 7.582h21.082l-13.13-7.582h-21.082Zm145.354 28.479-14.609-8.507h-21.082l14.609 8.507h21.082Zm-25.15 0-14.61-8.507h-20.896l14.609 8.507h20.897Zm-24.966 0-14.609-8.507h-21.082l14.609 8.507h21.082Zm73.232 0-14.424-8.507h-19.233l14.61 8.507h19.047Zm-216.551-28.479 12.945 7.582h19.233l-13.13-7.582h-19.048Zm23.116 0 13.13 7.582h20.897l-12.945-7.582H128.71Zm70.088 28.479-14.609-8.507h-21.082l14.609 8.507h21.082Zm24.965 0-14.609-8.507h-20.897l14.609 8.507h20.897Zm-50.115 0-14.609-8.507h-19.418l14.425 8.507h19.602Z"/><path fill="#222" d="M179.195 99.861a2.589 2.589 0 1 0 0-5.177 2.589 2.589 0 0 0 0 5.177Z"/><path fill="#fff" d="m223.208 142.58-72.491-27.37-50.301 27.37v72.122l29.589 27.369h128.71v-72.122l-35.507-27.369Z"/><path fill="#DADADA" d="M179.195 242.071h79.519l-29.588-27.369h-49.931v27.369Z"/><path fill="#FF3158" d="M248.359 241.701h-8.692l-28.849-26.629 8.877-.37 28.664 26.999Zm-43.088-13.129-8.692.184-14.794-13.684 8.691-.37 14.795 13.87Z"/><path fill="#222" d="M196.209 229.311c-.185 0-.37 0-.555-.185l-14.424-13.315a.893.893 0 0 1 0-1.294.893.893 0 0 1 1.294 0l14.424 13.315c.37.37.37.924 0 1.294-.369 0-.554.185-.739.185Z"/><path fill="#222" d="M205.27 229.496h-8.876c-.555 0-.925-.37-.925-.925 0-.554.37-.924.925-.924h8.876c.555 0 .925.37.925.924 0 .555-.37.925-.925.925Z"/><path fill="#FF3158" d="m221.729 233.75-9.801.184-20.342-18.862 8.692-.37 21.451 19.048Z"/><path fill="#222" d="M211.558 234.489c-.185 0-.37 0-.555-.185l-20.157-18.493a.893.893 0 0 1 0-1.294.894.894 0 0 1 1.295 0l20.157 18.493c.37.37.37.924 0 1.294-.185.185-.555.185-.74.185Z"/><path fill="#222" d="M208.969 222.839h-9.431c-.555 0-.925-.37-.925-.925s.37-.925.925-.925h9.431c.555 0 .925.37.925.925s-.37.925-.925.925Zm12.76 11.835h-9.801c-.555 0-.925-.37-.925-.925 0-.554.37-.924.925-.924h9.801c.555 0 .925.37.925.924 0 .555-.555.925-.925.925Z"/><path fill="#FF3158" d="M239.112 241.701h-8.876l-28.849-26.629 8.876-.37 28.849 26.999Z"/><path fill="#222" d="M230.236 242.626c-.185 0-.37 0-.555-.185l-28.849-26.63a.893.893 0 0 1 0-1.294.894.894 0 0 1 1.295 0l28.848 26.63c.37.369.37.924 0 1.294-.185 0-.369.185-.739.185Z"/><path fill="#FF3158" d="M257.79 241.701h-8.692l-28.848-26.629 8.876-.37 28.664 26.999Z"/><path fill="#F5F4F3" d="M154.415 209.894h-19.787v-44.568l19.787-10.911v55.479Zm22.007-25.705-14.98-13.685v39.39h14.98v-25.705Zm7.766 25.705h49.561v-50.116l-49.561-17.198v67.314Z"/><path fill="#DADADA" d="M130.004 214.702v27.369h49.191l-29.588-27.369h-19.603Z"/><path fill="#DADADA" d="M156.819 214.702h14.795v20.527l-14.795-13.87v-6.657Z"/><path fill="#222" d="M230.051 147.758h-1.849v66.759h1.849v-66.759Z"/><path fill="#222" d="m229.74 213.945-1.257 1.356 29.567 27.401 1.257-1.356-29.567-27.401Zm21.208 2.791c-.185 0-.37 0-.555-.185l-14.979-13.869c-.185-.185-.37-.37-.37-.74v-26.815c0-.37.185-.739.555-.924.37-.185.739 0 .924.185l14.98 13.869c.184.185.369.37.369.74v26.814c0 .37-.185.74-.554.925h-.37Zm-14.055-15.164 13.13 12.02v-24.225l-13.13-12.021v24.226Zm-58.437 41.239-7.397-6.842c-.185-.185-.37-.37-.37-.74v-45.677l-13.13-12.021v44.013c0 .37-.185.74-.555.925-.37.185-.739 0-.924-.185l-7.213-6.658c-.185-.185-.369-.369-.369-.739v-55.479h1.849v55.109l5.363 4.993v-44.383c0-.37.185-.74.555-.925.369-.184.739 0 .924.185l14.979 13.87c.185.185.37.37.37.74v45.677l7.212 6.657-1.294 1.48Z"/><path fill="#222" d="M180.12 142.58h-1.849v99.306h1.849V142.58Zm56.554 45.264-1.256 1.357 14.927 13.818 1.256-1.357-14.927-13.818Z"/><path fill="#222" d="M243.551 208.969c-.555 0-.925-.37-.925-.925V181.97c0-.555.37-.925.925-.925.554 0 .924.37.924.925v26.074c0 .555-.555.925-.924.925Zm-14.425 4.808h-49.931v1.849h49.931v-1.849Zm-57.327 0h-14.98v1.849h14.98v-1.849Zm-22.192 0h-19.603v1.849h19.603v-1.849Z"/><path fill="#DADADA" d="m223.208 142.58-72.491-27.37-50.301 27.37 29.589 27.369 49.56-27.369 79.15 27.369-35.507-27.369Z"/><path fill="#222" d="m101.128 142.008-1.257 1.357 29.571 27.401 1.257-1.356-29.571-27.402Z"/><path fill="#222" d="M130.005 242.256c-.555 0-.925-.37-.925-.924v-72.123c0-.369.185-.554.555-.739l49.561-27.37c.185-.185.554-.185.739 0l78.965 27.37c.555.185.739.739.555 1.109-.185.37-.74.74-1.11.555l-78.779-27.184-48.637 26.814v71.383c0 .554-.554 1.109-.924 1.109Z"/><path fill="#222" d="M258.53 242.996H130.004c-.185 0-.369 0-.554-.185l-29.589-27.369c-.185-.185-.37-.37-.37-.74V142.58c0-.37.185-.74.555-.74l50.301-27.369c.184-.185.554-.185.739 0l72.492 27.369s.185 0 .185.185l35.506 26.63c.185.185.37.37.37.739v72.862c-.185.37-.555.74-1.109.74Zm-128.156-1.849H257.79v-71.383l-34.952-26.26-72.122-27.184-49.376 26.815v71.012l29.034 27Z"/><path fill="#222" d="M215.811 198.058h-26.999c-.555 0-.925-.37-.925-.924v-27c0-.555.37-.925.925-.925h26.999c.555 0 .925.37.925.925v27c0 .554-.37.924-.925.924Zm-26.075-1.849h25.151v-25.15h-25.151v25.15Z"/><path fill="#222" d="M203.236 169.949h-1.849v27.185h1.849v-27.185Z"/><path fill="#222" d="M215.812 182.894h-27v1.849h27v-1.849Zm33.286 59.732c-.184 0-.369 0-.554-.185l-28.849-26.63a.893.893 0 0 1 0-1.294.893.893 0 0 1 1.294 0l28.849 26.63c.37.369.37.924 0 1.294-.185 0-.555.185-.74.185Zm-9.431 0c-.185 0-.37 0-.554-.185l-28.849-26.63a.893.893 0 0 1 0-1.294.893.893 0 0 1 1.294 0l28.849 26.63c.37.369.37.924 0 1.294-.37 0-.555.185-.74.185Z"/><path fill="#FF3158" d="M137.217 230.051V219.88l5.178 4.993v9.986l-5.178-4.808Z"/><path fill="#222" d="M142.395 235.784c-.185 0-.37 0-.555-.185l-5.178-4.993c-.185-.185-.37-.37-.37-.74v-10.171c0-.37.185-.74.555-.925.37-.185.739 0 .924.185l5.178 4.993c.185.185.37.37.37.74v9.986c0 .37-.185.74-.555.925 0 .185-.184.185-.369.185Zm-4.254-6.103 3.329 3.144v-7.582l-3.329-3.144v7.582Z"/><path fill="#FF3158" d="M165.141 224.873h-22.746v9.986h22.746v-9.986Z"/><path fill="#222" d="M165.326 235.784h-22.931c-.555 0-.925-.37-.925-.925v-9.986c0-.555.37-.925.925-.925h22.746c.555 0 .925.37.925.925v9.986c.185.555-.37.925-.74.925Zm-22.007-1.85h20.897v-8.136h-20.897v8.136Z"/><path fill="#FF3158" d="M137.217 219.88h22.931l4.993 4.993h-22.746l-5.178-4.993Z"/><path fill="#222" d="M165.326 225.798h-22.931c-.185 0-.555 0-.555-.185l-5.178-4.993c-.185-.185-.37-.74-.185-.925.185-.185.555-.555.925-.555h22.746c.185 0 .555 0 .555.185l5.178 4.993c.185.185.369.74.185.925-.185.37-.37.555-.74.555Zm-22.561-1.85h20.157l-3.329-3.144h-19.972l3.144 3.144Z"/><path fill="#DADADA" d="M144.799 214.887v6.472h3.698v-3.883h4.439v3.883h3.513v-6.472h-11.65Z"/><path fill="#222" d="M156.449 222.284h-3.513c-.555 0-.925-.37-.925-.925V218.4h-2.589v2.959c0 .555-.37.925-.925.925h-3.513c-.555 0-.925-.37-.925-.925v-6.472c0-.555.37-.925.925-.925h11.465c.555 0 .925.37.925.925v6.472c0 .555-.37.925-.925.925Zm-2.774-1.849h1.665v-4.624h-9.617v4.624h1.665v-2.959c0-.555.37-.925.924-.925h4.439c.554 0 .924.37.924.925v2.959Zm71.383 9.061h-8.692c-.555 0-.925-.37-.925-.925 0-.554.37-.924.925-.924h8.877c.554 0 .924.37.924.924 0 .555-.555.925-1.109.925Zm17.938 0h-7.582c-.555 0-.925-.37-.925-.925 0-.554.37-.924.925-.924h7.582c.555 0 .925.37.925.924 0 .555-.37.925-.925.925Zm-16.089-6.657h-7.952c-.555 0-.925-.37-.925-.925s.37-.925.925-.925h7.952c.555 0 .924.37.924.925s-.369.925-.924.925Zm12.945 11.835h-8.137c-.555 0-.924-.37-.924-.925 0-.554.369-.924.924-.924h8.137c.555 0 .925.37.925.924 0 .555-.37.925-.925.925Z"/><path fill="#fff" d="M69.533 283.865c26.759 0 48.451-21.692 48.451-48.451s-21.692-48.451-48.451-48.451c-26.76 0-48.452 21.692-48.452 48.451s21.693 48.451 48.452 48.451Z"/><path fill="#222" d="M69.533 285.344c-27.37 0-49.746-22.376-49.746-49.745 0-27.37 22.376-49.746 49.746-49.746s49.746 22.376 49.746 49.746c0 27.369-22.377 49.745-49.746 49.745Zm0-96.902c-25.89 0-46.972 21.082-46.972 46.972s21.082 46.972 46.972 46.972 46.972-20.897 46.972-46.972c0-26.075-21.082-46.972-46.972-46.972Z"/><path fill="#222" d="m75.45 215.257-34.766 21.821c-.37.185-.74.74-.74 1.295v17.753l35.876-22.562h20.343v.925L76.56 246.325c-.555.369-.74.739-.74 1.294v8.322h23.301v-39.945c0-.554-.554-1.109-1.11-1.109H76.376c-.37 0-.74.185-.924.37Z"/><path fill="#DADADA" d="m233.01 131.299 78.04 21.822 7.212-3.514V80.444l-77.67-21.452-7.582 3.329v68.978Z"/><path fill="#222" d="M311.05 154.415h-.37l-78.04-21.821a1.391 1.391 0 0 1-.925-1.295V62.136c0-.555.37-1.11.74-1.295l7.397-3.328c.37-.185.555-.185.925 0l77.67 21.451c.554.185.924.74.924 1.295v69.163c0 .555-.369 1.11-.739 1.295l-7.213 3.328c.185.37-.184.37-.369.37Zm-76.561-24.225 76.561 21.451 5.917-2.774V81.553l-76.19-21.081-6.103 2.773v66.945h-.185Z"/><path fill="#fff" d="m233.01 131.299 5.733 1.48 5.547 12.575 6.843-9.062 59.917 16.829V83.772l-78.04-21.451v68.978Z"/><path fill="#222" d="M311.05 154.415h-.37l-58.992-16.458-6.473 8.321c-.37.37-.74.555-1.294.555-.555 0-.925-.37-1.11-.74l-5.178-11.835-4.993-1.479a1.391 1.391 0 0 1-.925-1.295V62.136c0-.37.185-.925.555-1.11.37-.184.74-.37 1.295-.184l78.039 21.451c.555.185 1.11.74 1.11 1.295v69.348c0 .37-.185.924-.555 1.109-.37.185-.74.37-1.109.37Zm-59.917-19.417h.37l58.067 16.273V84.697l-75.266-20.712v66.205l4.624 1.294c.369.185.739.37.924.74l4.438 10.356 5.548-7.212c.555-.185.925-.37 1.295-.37Z"/><path fill="#222" d="M299.954 94.314h-.555L241.331 78.04c-.924-.185-1.479-1.295-1.294-2.22.185-.924 1.294-1.479 2.219-1.294L300.324 90.8c.924.185 1.479 1.294 1.294 2.219-.185.74-.925 1.294-1.664 1.294Zm0 10.91h-.555L241.331 88.95c-.924-.184-1.479-1.294-1.294-2.219.185-.924 1.294-1.48 2.219-1.294l58.068 16.273c.924.185 1.479 1.295 1.294 2.22-.185.739-.925 1.294-1.664 1.294Zm0 10.171h-.555l-58.068-16.273c-.924-.185-1.479-1.295-1.294-2.22.185-.924 1.294-1.479 2.219-1.294l58.068 16.274c.924.185 1.479 1.294 1.294 2.219-.185.739-.925 1.294-1.664 1.294Zm-14.055 6.843h-.555l-44.013-12.206c-.924-.184-1.479-1.294-1.294-2.219.185-.924 1.294-1.479 2.219-1.294l44.013 12.205c.925.185 1.479 1.295 1.294 2.219-.184.74-.924 1.295-1.664 1.295Zm-9.061 7.582h-.555l-34.952-9.801c-.924-.185-1.479-1.295-1.294-2.22.185-.924 1.294-1.479 2.219-1.294l34.951 9.801c.925.185 1.48 1.295 1.295 2.219-.185.74-.925 1.295-1.664 1.295Z"/></svg>