<svg xmlns="http://www.w3.org/2000/svg" width="400" height="400" fill="none" viewBox="0 0 400 400"><path fill="#fff" d="M59.547 223.763h149.607c4.438 0 8.137 3.699 8.137 8.137v95.423c0 4.439-3.699 8.137-8.137 8.137H59.547c-4.438 0-8.137-3.698-8.137-8.137V231.9c0-4.438 3.699-8.137 8.137-8.137Z"/><path fill="#222" d="M209.154 336.94H59.547c-5.178 0-9.431-4.254-9.431-9.432v-95.423c0-5.178 4.253-9.431 9.431-9.431h149.607c5.178 0 9.431 4.253 9.431 9.431v95.423c.185 5.178-4.068 9.432-9.431 9.432ZM59.547 225.243a6.63 6.63 0 0 0-6.657 6.657v95.423a6.63 6.63 0 0 0 6.657 6.658h149.607a6.63 6.63 0 0 0 6.658-6.658V231.9a6.63 6.63 0 0 0-6.658-6.657H59.547Z"/><path fill="#DADADA" d="M309.385 87.656H74.341v230.236h235.044V87.656Z"/><path fill="#222" d="M310.68 319.371H73.047V86.361H310.68v233.01Zm-234.86-2.774h232.271V89.135H75.821v227.462Z"/><path fill="#DADADA" d="M184.928 59.917h149.607c4.439 0 8.137 3.698 8.137 8.137v95.423c0 4.438-3.698 8.136-8.137 8.136H184.928c-4.438 0-8.136-3.698-8.136-8.136V68.054c0-4.439 3.698-8.137 8.136-8.137Z"/><path fill="#222" d="M334.535 173.093H184.928c-5.178 0-9.431-4.253-9.431-9.431V68.054c0-5.178 4.253-9.432 9.431-9.432h149.607c5.178 0 9.432 4.254 9.432 9.432v95.423c0 5.363-4.254 9.616-9.432 9.616ZM184.928 61.396a6.63 6.63 0 0 0-6.657 6.658v95.423a6.63 6.63 0 0 0 6.657 6.657h149.607a6.63 6.63 0 0 0 6.658-6.657V68.054a6.63 6.63 0 0 0-6.658-6.658H184.928Z"/><path fill="#fff" d="M317.522 80.259H82.478v230.236h235.044V80.259Z"/><path fill="#fff" d="M82.663 80.259h234.489c.185 0 .185.185.185.185v229.681c0 .185-.185.185-.185.185H82.663c-.185 0-.185-.185-.185-.185V80.444c0-.185 0-.185.185-.185Z"/><path fill="#FF3158" d="M317.522 79.52H82.478v230.235h235.044V79.519Z"/><path fill="#222" d="M317.522 311.789H82.478c-.74 0-1.48-.555-1.48-1.479V80.259c0-.74.555-1.48 1.48-1.48h235.044c.74 0 1.479.555 1.479 1.48v230.236c-.185.739-.739 1.294-1.479 1.294Zm-233.75-2.774h232.27V81.553H83.772v227.462Z"/><path fill="#fff" d="M247.619 138.141c10.356 0 18.863-8.506 18.863-18.862 0-10.356-8.507-18.863-18.863-18.863s-18.863 8.507-18.863 18.863 8.322 18.862 18.863 18.862ZM272.214 193.805V191.956c0-.37 0-.555-.185-.74 0-.185 0-.37-.184-.37 0-.185-.185-.555-.185-.74 0-.184-.185-.369-.185-.369-.185-.185-.185-.37-.185-.74 0-.185-.185-.37-.185-.37-.185-.185-.185-.37-.37-.555-.185-.185-.185-.37-.37-.555-.185-.184-.185-.369-.37-.554-.185-.185-.185-.37-.37-.37-.185-.185-.185-.37-.369-.555l-.37-.37-.37-.37-.37-.37c-.185-.184-.37-.369-.555-.369l-.37-.37c-.185-.185-.37-.37-.554-.37-.185 0-.185-.185-.37-.185-.185-.185-.37-.185-.555-.37-.185 0-.185-.185-.37-.185-.185-.185-.37-.185-.74-.37-.185 0-.37-.185-.37-.185-.184 0-.369-.185-.739-.185-.185 0-.37-.184-.555-.184-.185 0-.37-.185-.555-.185-.185 0-.37 0-.555-.185H258.53l-37.726 2.219 21.082-24.411c1.11-.924 2.034-2.219 2.589-3.513 2.959-6.103.37-13.315-5.548-16.274l-49.745-28.479c-1.85-.925-3.699-1.295-5.548-1.295-3.144 0-6.473 1.11-8.877 3.514l-24.965 21.452c-4.808 4.808-4.808 12.39 0 17.198s12.39 4.808 17.198 0l17.753-15.349 14.425 8.322-24.411 28.479.37.37c-12.39 1.294-23.671 6.657-32.547 14.794l14.424 14.424c6.657-5.732 15.164-9.061 24.411-9.061 20.712 0 37.355 16.828 37.355 37.355 0 9.432-3.514 17.938-9.061 24.411l14.424 14.424c9.431-10.356 15.164-23.855 15.164-39.02 0-8.506-1.849-16.458-5.178-23.67l12.575-.74-2.959 44.198c0 6.657 5.363 12.205 12.206 12.205 6.842 0 12.205-5.363 12.205-12.205l3.699-55.664v-1.109l.369-.555c0 .185 0 .185 0 0ZM202.682 262.229c-5.918 4.068-13.315 6.472-21.082 6.472-20.712 0-37.356-16.828-37.356-37.356 0-7.767 2.404-14.979 6.473-21.081l-14.61-14.61c-7.767 9.801-12.39 22.192-12.39 35.691 0 31.993 25.89 57.883 57.883 57.883 13.5 0 25.89-4.623 35.691-12.39l-14.609-14.609Z"/><path fill="#fff" d="M247.619 139.066c10.356 0 18.863-8.507 18.863-18.863s-8.507-18.862-18.863-18.862-18.863 8.506-18.863 18.862c0 10.356 8.322 18.863 18.863 18.863Z"/><path fill="#222" d="M247.619 140.545c-11.096 0-20.342-9.061-20.342-20.342 0-11.095 9.061-20.157 20.342-20.157 11.096 0 20.157 9.062 20.157 20.157 0 11.096-9.061 20.342-20.157 20.342Zm0-37.725c-9.616 0-17.568 7.767-17.568 17.383 0 9.617 7.767 17.569 17.568 17.569 9.616 0 17.383-7.767 17.383-17.569 0-9.616-7.767-17.383-17.383-17.383Z"/><path fill="#fff" d="M272.215 194.73v-1.85c0-.37 0-.554-.185-.739 0-.185 0-.37-.185-.37 0-.185-.185-.555-.185-.74 0-.185-.185-.37-.185-.37-.185-.185-.185-.37-.185-.74 0-.184-.185-.369-.185-.369-.185-.185-.185-.37-.37-.555-.185-.185-.185-.37-.369-.555-.185-.185-.185-.37-.37-.555-.185-.185-.185-.37-.37-.37-.185-.185-.185-.369-.37-.554l-.37-.37-.37-.37-.37-.37c-.184-.185-.369-.37-.554-.37l-.37-.37c-.185-.185-.37-.37-.555-.37-.185 0-.185-.184-.37-.184-.185-.185-.37-.185-.555-.37-.185 0-.185-.185-.369-.185-.185-.185-.37-.185-.74-.37-.185 0-.37-.185-.37-.185-.185 0-.37-.185-.74-.185-.185 0-.37-.185-.555-.185-.184 0-.369-.185-.554-.185-.185 0-.37 0-.555-.185h-3.329l-37.725 2.219 21.082-24.41c1.109-.925 2.034-2.219 2.589-3.514 2.958-6.102.369-13.315-5.548-16.274l-49.746-28.478c-1.849-.925-3.699-1.295-5.548-1.295-3.144 0-6.472 1.11-8.876 3.514l-24.966 21.451c-4.808 4.808-4.808 12.391 0 17.199 4.808 4.808 12.39 4.808 17.199 0l17.753-15.349 14.424 8.321-24.41 28.479.369.37c-12.39 1.295-23.67 6.658-32.547 14.795l14.424 14.424c6.658-5.733 15.165-9.062 24.411-9.062 20.712 0 37.356 16.829 37.356 37.356 0 9.431-3.514 17.938-9.062 24.41l14.424 14.425c9.432-10.356 15.165-23.856 15.165-39.02 0-8.507-1.85-16.459-5.178-23.671l12.575-.74-2.959 44.198c0 6.658 5.363 12.206 12.205 12.206s12.205-5.363 12.205-12.206l3.699-55.663v-1.11l.37-.554c0 .185 0 .185 0 0Z"/><path fill="#222" d="M224.318 272.769a1.41 1.41 0 0 1-.924-.369l-14.425-14.425c-.555-.555-.555-1.294 0-1.849 5.733-6.473 8.877-14.979 8.877-23.486 0-19.787-16.089-36.061-36.061-36.061-8.692 0-17.014 3.144-23.486 8.877-.555.554-1.295.369-1.849 0l-14.425-14.425a1.413 1.413 0 0 1-.37-.925c0-.369.185-.739.37-.924 9.062-8.137 19.972-13.315 31.808-14.979v-.185l23.301-27-12.021-6.842-17.013 14.609c-5.178 5.178-13.87 5.178-19.048 0-5.363-5.363-5.363-13.869 0-19.232l24.966-21.267c2.589-2.589 6.102-3.884 9.801-3.884 2.219 0 4.253.37 6.288 1.295l49.745 28.479c6.658 3.329 9.432 11.465 6.103 18.123-.74 1.479-1.665 2.774-2.959 3.883l-18.863 21.822 34.582-2.034h2.034l1.295.185c.185 0 .369 0 .739.184.185 0 .555.185.74.185.185 0 .37 0 .555.185l1.109.37c.37.185.555.185.925.37 0 0 .37.185.555.185l.37.185c.185 0 .185.185.37.185.184 0 .184.185.369.185.37.185.555.37.74.555l.37.184.555.555.924.925.37.37c.185.185.37.37.37.555l.37.554c.185.37.37.37.37.555.185.185.185.37.37.555.185.185.185.37.37.74 0 .185.184.369.184.554l.37 1.11c0 .185.185.37.185.555l.185.37v.185c0 .369.185.554.185.924v3.699l-3.698 55.663c0 7.397-6.103 13.5-13.5 13.5s-13.5-6.103-13.5-13.5l2.959-42.718-9.062.555c2.959 7.212 4.439 14.609 4.439 22.376a59.152 59.152 0 0 1-15.534 39.944c-.74-.369-1.11-.185-1.48-.185Zm-12.575-16.088 12.575 12.575c8.877-10.171 13.685-23.301 13.685-36.986 0-7.952-1.664-15.904-4.993-23.116-.185-.37-.185-.925 0-1.294.185-.37.74-.555 1.109-.74l12.576-.74c.369 0 .739.185 1.109.37.37.37.37.74.37 1.11l-2.959 44.197c0 5.918 4.808 10.726 10.726 10.726 5.918 0 10.726-4.808 10.726-10.726l3.698-55.848V193.435c0-.185 0-.37-.185-.555l-.184-.739c0-.185 0-.185-.185-.37l-.37-1.11c0-.185-.185-.185-.185-.37s-.185-.369-.185-.554c-.185-.185-.185-.37-.185-.37-.185-.185-.185-.37-.37-.37l-.37-.37-.37-.37c0-.185-.185-.185-.369-.37l-.74-.739c-.185-.185-.37-.37-.555-.37l-.185-.185-.185-.185c-.185-.185-.37-.185-.555-.37-.185 0-.185-.185-.369-.185l-.185-.185c-.185 0-.185-.185-.37-.185h-.185c-.37-.185-.555-.185-.74-.37l-1.109-.369h-.37c-.185 0-.37-.185-.555-.185h-.555l-1.294-.185h-1.665l-37.91 2.219c-.555 0-1.11-.185-1.295-.74-.184-.555-.184-1.109.185-1.479l21.082-24.411c1.11-1.109 1.85-2.034 2.404-3.329 2.589-5.363.37-11.835-4.993-14.424l-49.745-28.479c-1.48-.74-3.144-1.11-4.994-1.11-3.143 0-5.917 1.11-7.951 3.144l-24.041 21.267c-4.069 4.068-4.069 10.911 0 15.164a10.825 10.825 0 0 0 15.349 0l17.938-15.349c.37-.37 1.11-.37 1.664-.185l14.425 8.322c.37.185.554.555.739.925.185.369 0 .739-.369 1.109l-23.671 27.554v.74c-.185.555-.555.925-1.11.925-11.465 1.294-22.006 5.918-30.698 13.5l12.575 12.575c6.843-5.548 15.534-8.692 24.411-8.692 21.451 0 38.835 17.383 38.835 38.835a39.765 39.765 0 0 1-8.877 24.226Z"/><path fill="#fff" d="M202.681 263.153c-5.918 4.068-13.315 6.473-21.082 6.473-20.712 0-37.355-16.829-37.355-37.356 0-7.767 2.404-14.979 6.472-21.082l-14.609-14.609c-7.767 9.801-12.39 22.191-12.39 35.691 0 31.993 25.89 57.883 57.882 57.883 13.5 0 25.89-4.624 35.692-12.391l-14.61-14.609Z"/><path fill="#222" d="M181.599 291.632c-32.732 0-59.177-26.63-59.177-59.177 0-13.315 4.439-26.075 12.575-36.431.185-.37.555-.555.925-.555s.74.185 1.11.37l14.609 14.609c.555.555.555 1.295.185 1.85-4.068 5.917-6.288 12.945-6.288 20.342 0 19.787 16.089 36.061 36.061 36.061 7.213 0 14.24-2.219 20.343-6.288.554-.37 1.294-.37 1.849.185l14.609 14.61c.37.369.37.739.37 1.109s-.185.74-.555.925c-10.541 7.952-23.116 12.39-36.616 12.39Zm-45.307-92.834c-7.212 9.801-11.096 21.267-11.096 33.472 0 31.068 25.335 56.403 56.403 56.403 12.206 0 23.856-3.883 33.472-11.096l-12.76-12.76c-6.287 4.069-13.499 6.103-20.896 6.103-21.452 0-38.835-17.383-38.835-38.835 0-7.397 2.034-14.609 6.102-20.897l-12.39-12.39Z"/></svg>