<svg xmlns="http://www.w3.org/2000/svg" width="400" height="400" fill="none" viewBox="0 0 400 400"><path fill="#fff" d="M59.547 223.764h149.607c4.439 0 8.137 3.698 8.137 8.137v95.423c0 4.438-3.698 8.136-8.137 8.136H59.547c-4.438 0-8.137-3.698-8.137-8.136v-95.423c0-4.439 3.699-8.137 8.137-8.137Z"/><path fill="#222" d="M209.154 336.939H59.547c-5.178 0-9.431-4.253-9.431-9.431v-95.423c0-5.178 4.253-9.431 9.431-9.431h149.607c5.178 0 9.432 4.253 9.432 9.431v95.423c.185 5.178-4.069 9.431-9.432 9.431ZM59.547 225.243a6.63 6.63 0 0 0-6.657 6.657v95.423a6.63 6.63 0 0 0 6.657 6.657h149.607a6.63 6.63 0 0 0 6.658-6.657V231.9a6.63 6.63 0 0 0-6.658-6.657H59.547Z"/><path fill="#444" d="M309.385 87.657H74.341v230.236h235.044V87.657Z"/><path fill="#222" d="M310.68 319.372H73.047V86.362H310.68v233.01Zm-234.86-2.774h232.271V89.136H75.821v227.462Z"/><path fill="#DADADA" d="M184.929 59.918h149.607c4.438 0 8.136 3.698 8.136 8.137v95.423c0 4.438-3.698 8.136-8.136 8.136H184.929c-4.439 0-8.137-3.698-8.137-8.136V68.055c0-4.439 3.698-8.137 8.137-8.137Z"/><path fill="#222" d="M334.535 173.093H184.928c-5.178 0-9.431-4.253-9.431-9.431V68.054c0-5.178 4.253-9.431 9.431-9.431h149.607c5.178 0 9.432 4.253 9.432 9.43v95.424c0 5.363-4.254 9.616-9.432 9.616ZM184.928 61.397a6.63 6.63 0 0 0-6.657 6.657v95.423a6.63 6.63 0 0 0 6.657 6.657h149.607a6.63 6.63 0 0 0 6.658-6.657V68.054a6.63 6.63 0 0 0-6.658-6.657H184.928Z"/><path fill="#fff" d="M317.522 80.259H82.479v230.236h235.043V80.259Z"/><path fill="#fff" d="M82.663 80.259h234.49c.185 0 .185.185.185.185v229.681c0 .185-.185.185-.185.185H82.663c-.184 0-.184-.185-.184-.185V80.444c0-.185 0-.185.184-.185Z"/><path fill="#FF3158" d="M317.522 79.52H82.479v230.235h235.043V79.519Z"/><path fill="#222" d="M317.522 311.789H82.478c-.74 0-1.479-.555-1.479-1.479V80.259c0-.74.555-1.48 1.48-1.48h235.043c.74 0 1.48.555 1.48 1.48v230.236c-.185.739-.74 1.294-1.48 1.294Zm-233.75-2.774h232.271V81.553H83.773v227.462Z"/><path fill="#fff" d="M247.619 138.141c10.356 0 18.863-8.507 18.863-18.863s-8.507-18.862-18.863-18.862-18.862 8.506-18.862 18.862c0 10.356 8.321 18.863 18.862 18.863ZM272.215 193.805V191.956c0-.37 0-.555-.185-.74 0-.185 0-.37-.185-.37 0-.185-.185-.555-.185-.74 0-.184-.185-.369-.185-.369-.185-.185-.185-.37-.185-.74 0-.185-.185-.37-.185-.37-.185-.185-.185-.37-.37-.555-.185-.185-.185-.37-.369-.555-.185-.184-.185-.369-.37-.554-.185-.185-.185-.37-.37-.37-.185-.185-.185-.37-.37-.555l-.37-.37-.37-.37-.37-.37c-.184-.184-.369-.369-.554-.369l-.37-.37c-.185-.185-.37-.37-.555-.37-.185 0-.185-.185-.37-.185-.185-.185-.37-.185-.555-.37-.185 0-.185-.185-.369-.185-.185-.185-.37-.185-.74-.37-.185 0-.37-.185-.37-.185-.185 0-.37-.185-.74-.185-.185 0-.37-.184-.555-.184-.184 0-.369-.185-.554-.185-.185 0-.37 0-.555-.185h-3.329l-37.725 2.219 21.082-24.411c1.109-.924 2.034-2.219 2.589-3.513 2.958-6.103.369-13.315-5.548-16.274l-49.746-28.479c-1.849-.925-3.699-1.295-5.548-1.295-3.144 0-6.472 1.11-8.876 3.514l-24.966 21.452c-4.808 4.808-4.808 12.39 0 17.198s12.39 4.808 17.199 0l17.753-15.349 14.424 8.322-24.41 28.479.369.37c-12.39 1.294-23.67 6.657-32.547 14.794l14.424 14.424c6.658-5.732 15.165-9.061 24.411-9.061 20.712 0 37.356 16.828 37.356 37.355 0 9.432-3.514 17.938-9.062 24.411l14.424 14.424c9.432-10.356 15.165-23.855 15.165-39.02 0-8.506-1.85-16.458-5.178-23.67l12.575-.74-2.959 44.198c0 6.657 5.363 12.205 12.205 12.205s12.205-5.363 12.205-12.205l3.699-55.664v-1.109l.37-.555c0 .185 0 .185 0 0ZM202.681 262.228c-5.917 4.068-13.314 6.473-21.081 6.473-20.712 0-37.356-16.829-37.356-37.356 0-7.767 2.404-14.979 6.473-21.082l-14.61-14.609c-7.767 9.801-12.39 22.191-12.39 35.691 0 31.993 25.89 57.883 57.883 57.883 13.499 0 25.89-4.624 35.691-12.391l-14.61-14.609Z"/><path fill="#fff" d="M247.62 139.066c10.356 0 18.862-8.506 18.862-18.862 0-10.356-8.506-18.863-18.862-18.863-10.356 0-18.863 8.507-18.863 18.863s8.322 18.862 18.863 18.862Z"/><path fill="#222" d="M247.619 140.546c-11.095 0-20.342-9.062-20.342-20.342 0-11.096 9.062-20.158 20.342-20.158 11.096 0 20.157 9.062 20.157 20.158 0 11.095-9.061 20.342-20.157 20.342Zm0-37.726c-9.616 0-17.568 7.767-17.568 17.384 0 9.616 7.767 17.568 17.568 17.568 9.616 0 17.383-7.767 17.383-17.568 0-9.617-7.767-17.384-17.383-17.384Z"/><path fill="#fff" d="M272.215 194.73v-1.849c0-.37 0-.555-.185-.74 0-.185 0-.37-.185-.37 0-.185-.185-.555-.185-.74 0-.185-.185-.37-.185-.37-.185-.185-.185-.369-.185-.739 0-.185-.184-.37-.184-.37-.185-.185-.185-.37-.37-.555-.185-.185-.185-.37-.37-.555-.185-.185-.185-.37-.37-.555-.185-.184-.185-.369-.37-.369-.185-.185-.185-.37-.37-.555l-.37-.37-.369-.37-.37-.37c-.185-.185-.37-.37-.555-.37l-.37-.369c-.185-.185-.37-.37-.555-.37-.185 0-.185-.185-.37-.185-.185-.185-.369-.185-.554-.37-.185 0-.185-.185-.37-.185-.185-.185-.37-.185-.74-.37-.185 0-.37-.185-.37-.185-.185 0-.37-.185-.74-.185-.184 0-.369-.185-.554-.185-.185 0-.37-.185-.555-.185-.185 0-.37 0-.555-.185h-3.329l-37.725 2.22 21.082-24.411c1.109-.925 2.034-2.219 2.589-3.514 2.959-6.102.37-13.314-5.548-16.273l-49.746-28.479c-1.849-.925-3.698-1.295-5.548-1.295-3.143 0-6.472 1.11-8.876 3.514l-24.965 21.452c-4.809 4.808-4.809 12.39 0 17.198 4.808 4.808 12.39 4.808 17.198 0l17.753-15.349 14.424 8.322-24.41 28.479.37.369c-12.39 1.295-23.671 6.658-32.548 14.795l14.425 14.424c6.657-5.733 15.164-9.061 24.41-9.061 20.712 0 37.356 16.828 37.356 37.355 0 9.432-3.514 17.938-9.062 24.411l14.425 14.424c9.431-10.356 15.164-23.856 15.164-39.02 0-8.506-1.849-16.458-5.178-23.671l12.575-.739-2.959 44.198c0 6.657 5.363 12.205 12.205 12.205 6.843 0 12.206-5.363 12.206-12.205l3.698-55.664v-1.109l.37-.555c0 .185 0 .185 0 0Z"/><path fill="#222" d="M224.318 272.77c-.369 0-.739-.185-.924-.37l-14.425-14.425c-.554-.554-.554-1.294 0-1.849 5.733-6.472 8.877-14.979 8.877-23.486 0-19.787-16.089-36.061-36.061-36.061-8.692 0-17.013 3.144-23.486 8.877-.555.555-1.294.37-1.849 0l-14.425-14.425a1.41 1.41 0 0 1-.369-.924c0-.37.184-.74.369-.925 9.062-8.137 19.973-13.315 31.808-14.979v-.185l23.301-27-12.02-6.842-17.014 14.609c-5.178 5.178-13.869 5.178-19.047 0-5.363-5.363-5.363-13.869 0-19.232l24.965-21.267c2.589-2.589 6.103-3.883 9.801-3.883 2.219 0 4.254.369 6.288 1.294l49.745 28.479c6.658 3.329 9.432 11.466 6.103 18.123-.74 1.479-1.664 2.774-2.959 3.884l-18.862 21.821 34.581-2.034h2.034l1.295.185c.185 0 .37 0 .74.185.185 0 .554.185.739.185.185 0 .37 0 .555.185l1.11.369c.369.185.554.185.924.37 0 0 .37.185.555.185l.37.185c.185 0 .185.185.37.185s.185.185.37.185c.37.185.554.37.739.555l.37.185.555.554.925.925.369.37c.185.185.37.37.37.555l.37.555c.185.369.37.369.37.554.185.185.185.37.37.555.185.185.185.37.37.74 0 .185.185.37.185.555l.37 1.109c0 .185.184.37.184.555l.185.37v.185c0 .37.185.555.185.924V197.134l-3.698 55.663c0 7.398-6.103 13.5-13.5 13.5s-13.5-6.102-13.5-13.5l2.959-42.718-9.061.555c2.958 7.212 4.438 14.609 4.438 22.376a59.157 59.157 0 0 1-15.534 39.945c-.74-.37-1.11-.185-1.48-.185Zm-12.575-16.089 12.575 12.575c8.877-10.171 13.685-23.301 13.685-36.986 0-7.952-1.664-15.903-4.993-23.116a1.578 1.578 0 0 1 0-1.294c.185-.37.74-.555 1.11-.74l12.575-.74c.37 0 .74.185 1.109.37.37.37.37.74.37 1.11l-2.959 44.198c0 5.917 4.809 10.726 10.726 10.726 5.918 0 10.726-4.809 10.726-10.726l3.699-55.849V193.435c0-.185 0-.369-.185-.554l-.185-.74c0-.185 0-.185-.185-.37l-.37-1.11c0-.184-.185-.184-.185-.369s-.185-.37-.185-.555c-.185-.185-.185-.37-.185-.37-.185-.185-.185-.37-.37-.37l-.37-.37-.369-.37c0-.185-.185-.185-.37-.369l-.74-.74c-.185-.185-.37-.37-.555-.37l-.185-.185-.185-.185c-.185-.185-.369-.185-.554-.37-.185 0-.185-.185-.37-.185l-.185-.185c-.185 0-.185-.185-.37-.185h-.185c-.37-.184-.555-.184-.74-.369l-1.109-.37h-.37c-.185 0-.37-.185-.555-.185h-.555l-1.294-.185h-1.664l-37.911 2.219c-.555 0-1.109-.185-1.294-.74-.185-.554-.185-1.109.185-1.479l21.081-24.411c1.11-1.109 1.85-2.034 2.405-3.328 2.589-5.363.369-11.836-4.994-14.425l-49.745-28.479c-1.48-.739-3.144-1.109-4.993-1.109-3.144 0-5.918 1.109-7.952 3.144l-24.041 21.266c-4.068 4.069-4.068 10.911 0 15.164a10.825 10.825 0 0 0 15.349 0l17.938-15.349c.37-.37 1.11-.37 1.665-.185l14.424 8.322c.37.185.555.555.74.925.185.37 0 .74-.37 1.109l-23.671 27.555v.739c-.185.555-.555.925-1.11.925-11.465 1.295-22.006 5.918-30.698 13.5l12.575 12.575c6.843-5.548 15.534-8.692 24.411-8.692 21.452 0 38.835 17.384 38.835 38.835a39.763 39.763 0 0 1-8.877 24.226Z"/><path fill="#fff" d="M202.681 263.154c-5.917 4.068-13.314 6.472-21.081 6.472-20.712 0-37.356-16.828-37.356-37.355 0-7.767 2.404-14.98 6.473-21.082l-14.61-14.61c-7.767 9.802-12.39 22.192-12.39 35.692 0 31.992 25.89 57.882 57.883 57.882 13.499 0 25.89-4.623 35.691-12.39l-14.61-14.609Z"/><path fill="#222" d="M181.6 291.632c-32.733 0-59.177-26.629-59.177-59.177 0-13.314 4.438-26.074 12.575-36.43.185-.37.555-.555.924-.555.37 0 .74.185 1.11.37l14.609 14.609c.555.555.555 1.294.185 1.849-4.068 5.918-6.287 12.945-6.287 20.342 0 19.788 16.088 36.061 36.061 36.061 7.212 0 14.239-2.219 20.342-6.287.555-.37 1.294-.37 1.849.185l14.609 14.609c.37.37.37.74.37 1.11 0 .369-.185.739-.555.924-10.54 7.952-23.116 12.39-36.615 12.39Zm-45.308-92.834c-7.212 9.802-11.095 21.267-11.095 33.472 0 31.068 25.335 56.404 56.403 56.404 12.205 0 23.855-3.884 33.472-11.096l-12.76-12.76c-6.288 4.068-13.5 6.102-20.897 6.102-21.452 0-38.835-17.383-38.835-38.834 0-7.398 2.034-14.61 6.102-20.897l-12.39-12.391Z"/></svg>