<?xml version="1.0" encoding="UTF-8" standalone="no"?>
<svg
   width="512"
   height="256"
   viewBox="0 0 512 256"
   fill="none"
   version="1.1"
   id="svg16"
   xmlns="http://www.w3.org/2000/svg"
   xmlns:svg="http://www.w3.org/2000/svg">
  <defs
     id="defs16" />
  <path
     opacity="1"
     d="M 16.676233,116.99987 H 7.5144206 l 0.057829,-6.76311 h 9.1039834 c 2.273628,0 4.190752,-0.51023 5.75143,-1.53186 1.560677,-1.03998 2.736024,-2.55289 3.526042,-4.53755 0.809193,-1.98466 1.213821,-4.38306 1.213821,-7.196328 v -2.052018 c 0,-2.15797 -0.231199,-4.055857 -0.693595,-5.6936 -0.44316,-1.637804 -1.10793,-3.015405 -1.99425,-4.132923 -0.886319,-1.117577 -1.974952,-1.955715 -3.265898,-2.514475 -1.290888,-0.578055 -2.774558,-0.867024 -4.450836,-0.867024 H 7.3409922 v -6.791939 h 9.4219548 c 2.813091,0 5.385336,0.481752 7.716734,1.445137 2.350694,0.944089 4.383418,2.302454 6.098287,4.075093 1.71481,1.77264 3.034642,3.892077 3.959494,6.358369 0.944148,2.446999 1.416194,5.173376 1.416194,8.179191 v 1.994189 c 0,2.986698 -0.472046,5.713018 -1.416194,8.178898 -0.924852,2.46647 -2.244684,4.58608 -3.959494,6.35884 -1.695574,1.75322 -3.728356,3.11165 -6.098287,4.07468 -2.350635,0.94409 -4.951823,1.41643 -7.803448,1.41643 z M 12.427711,74.919043 V 116.99987 H 3.7572163 V 74.919043 Z m 41.923558,42.659117 c -2.427702,0 -4.604968,-0.38533 -6.531739,-1.15658 -1.926771,-0.78961 -3.564575,-1.87812 -4.913291,-3.26555 -1.329479,-1.38742 -2.350694,-2.99622 -3.063585,-4.8264 -0.712892,-1.8497 -1.069337,-3.81542 -1.069337,-5.89597 v -1.15599 c 0,-2.37023 0.337149,-4.537846 1.011507,-6.503151 0.674418,-1.965304 1.637803,-3.670525 2.890217,-5.115604 1.27165,-1.445078 2.813091,-2.553008 4.624263,-3.323669 1.811173,-0.790017 3.853544,-1.184995 6.127112,-1.184995 2.2158,0 4.181104,0.366094 5.89615,1.098281 1.714751,0.732187 3.150123,1.772639 4.306115,3.121355 1.175525,1.348776 2.061608,2.967224 2.65884,4.855462 0.597233,1.869002 0.896145,3.949901 0.896145,6.242591 v 3.46857 H 42.328184 v -5.54929 h 16.676233 v -0.635829 c 0,-1.15611 -0.211902,-2.186914 -0.635824,-3.09247 -0.404628,-0.924854 -1.021157,-1.657041 -1.849707,-2.196562 -0.82849,-0.539464 -1.888237,-0.809255 -3.179184,-0.809255 -1.098222,0 -2.042371,0.240847 -2.832328,0.72254 -0.790016,0.481693 -1.43549,1.15611 -1.93642,2.023134 -0.481692,0.867024 -0.847786,1.888239 -1.098281,3.063586 -0.231198,1.156046 -0.346797,2.427876 -0.346797,3.815306 v 1.15599 c 0,1.25247 0.173428,2.40846 0.520226,3.46798 0.366094,1.05951 0.876672,1.97519 1.531793,2.74585 0.674358,0.77066 1.483611,1.36789 2.4277,1.7917 0.963387,0.4238 2.052019,0.6357 3.2659,0.6357 1.502908,0 2.899806,-0.28885 4.190751,-0.86714 1.310361,-0.59723 2.43735,-1.49279 3.38144,-2.68784 l 4.046267,4.39312 c -0.65524,0.94409 -1.550793,1.84971 -2.687844,2.71685 -1.117517,0.86714 -2.466471,1.57979 -4.046268,2.13855 -1.579914,0.53982 -3.381438,0.80973 -5.404572,0.80973 z M 80.75488,116.99987 H 72.372904 V 82.953748 c 0,-2.369931 0.46287,-4.36418 1.387427,-5.982687 0.94409,-1.637744 2.26404,-2.870861 3.959849,-3.699411 C 79.434931,72.423923 81.467535,72 83.817993,72 c 0.771253,0 1.512911,0.05783 2.225566,0.173429 0.713246,0.0963 1.406367,0.221549 2.08114,0.375682 l -0.08701,6.271656 c -0.365797,-0.0963 -0.751127,-0.163722 -1.155991,-0.202314 -0.404272,-0.03854 -0.876612,-0.05777 -1.415838,-0.05777 -1.002098,0 -1.859768,0.173428 -2.572423,0.520226 -0.693714,0.32756 -1.223469,0.818902 -1.589859,1.473964 -0.365797,0.655121 -0.548697,1.454727 -0.548697,2.398876 z M 86.99771,85.728306 V 91.62422 H 67.719933 v -5.895914 z m 21.08546,23.786324 V 85.728306 h 8.32338 v 31.271564 h -7.8321 z m 0.92455,-6.41626 2.45641,-0.058 c 0,2.08114 -0.24032,4.01727 -0.72212,5.80896 -0.48181,1.77276 -1.20453,3.31408 -2.16756,4.62456 -0.96362,1.29095 -2.17763,2.30252 -3.642,3.0347 -1.46437,0.71266 -3.18859,1.06958 -5.173249,1.06958 -1.522381,0 -2.928755,-0.2125 -4.219699,-0.6363 -1.271414,-0.44274 -2.369991,-1.12699 -3.294548,-2.05155 -0.905615,-0.94468 -1.618862,-2.14861 -2.139146,-3.61299 -0.500753,-1.48331 -0.751129,-3.26613 -0.751129,-5.34668 V 85.728306 h 8.323378 v 20.259754 c 0,0.92514 0.105949,1.70528 0.318444,2.34157 0.230849,0.63571 0.548696,1.156 0.95356,1.56027 0.404276,0.40486 0.87661,0.69371 1.415849,0.86714 0.55875,0.17343 1.17551,0.26044 1.84969,0.26044 1.71535,0 3.06371,-0.34686 4.04628,-1.04057 1.00209,-0.69372 1.70528,-1.6378 2.11014,-2.83227 0.4238,-1.214 0.6357,-2.56295 0.6357,-4.04627 z m 20.30533,-10.549297 v 24.450797 h -8.32397 V 85.728306 h 7.83268 z m 9.42196,-7.023081 -0.14443,7.716734 c -0.40487,-0.05782 -0.89614,-0.106009 -1.47443,-0.144543 -0.55877,-0.05777 -1.06899,-0.08665 -1.53186,-0.08665 -1.17493,0 -2.19597,0.154132 -3.06311,0.462397 -0.8482,0.289027 -1.56086,0.722539 -2.13915,1.300594 -0.55876,0.577996 -0.98256,1.281299 -1.27141,2.109789 -0.26991,0.828549 -0.4238,1.772637 -0.46228,2.832507 l -1.67627,-0.52035 c 0,-2.023129 0.20184,-3.882483 0.6067,-5.578056 0.40486,-1.71481 0.99203,-3.208069 1.76329,-4.47972 0.7896,-1.271709 1.75322,-2.254332 2.88968,-2.947986 1.13705,-0.693654 2.43747,-1.040452 3.90184,-1.040452 0.46227,0 0.93462,0.03854 1.41643,0.115599 0.48181,0.05783 0.87661,0.144544 1.185,0.260142 z m 10.30507,6.878596 v 24.595282 h -8.32397 V 85.728306 h 7.80369 z m -1.21399,7.861512 h -2.25398 c 0,-2.312395 0.29832,-4.393358 0.89555,-6.243064 0.59724,-1.868943 1.43538,-3.458564 2.51441,-4.768748 1.07905,-1.329479 2.36052,-2.341046 3.84384,-3.034701 1.50285,-0.71289 3.17913,-1.069336 5.02883,-1.069336 1.46438,0 2.80386,0.211961 4.01786,0.635825 1.21341,0.423923 2.25397,1.098281 3.12111,2.023133 0.88609,0.924854 1.56086,2.148382 2.02314,3.670526 0.48181,1.522145 0.72272,3.381499 0.72272,5.578001 v 19.942134 h -8.38138 V 97.028852 c 0,-1.387309 -0.19297,-2.466294 -0.57829,-3.237014 -0.38534,-0.770721 -0.95357,-1.310184 -1.70529,-1.618508 -0.73218,-0.327501 -1.6378,-0.491281 -2.71685,-0.491281 -1.11752,0 -2.0906,0.22155 -2.91868,0.66471 -0.80973,0.44316 -1.48391,1.059748 -2.02313,1.849705 -0.52029,0.770721 -0.91568,1.676278 -1.185,2.716788 -0.26992,1.040453 -0.40486,2.157968 -0.40486,3.352848 z m 33.25326,-14.537794 v 31.271564 h -8.35298 V 85.728306 Z m -8.87267,-8.150305 c 0,-1.213821 0.42381,-2.215799 1.27142,-3.005756 0.8476,-0.789958 1.98466,-1.184937 3.41056,-1.184937 1.40636,0 2.53335,0.394979 3.38155,1.184937 0.86655,0.789957 1.30042,1.791935 1.30042,3.005756 0,1.21388 -0.43387,2.215799 -1.30042,3.005816 -0.8482,0.789957 -1.97519,1.184936 -3.38155,1.184936 -1.4259,0 -2.56296,-0.394979 -3.41056,-1.184936 -0.84761,-0.790017 -1.27142,-1.791936 -1.27142,-3.005816 z m 30.88268,30.780039 c 0,-0.59723 -0.17343,-1.13645 -0.52029,-1.61826 -0.34685,-0.48182 -0.99203,-0.92456 -1.93611,-1.32942 -0.92515,-0.42381 -2.26405,-0.80914 -4.01727,-1.156 -1.5798,-0.34685 -3.05423,-0.78072 -4.42212,-1.30041 -1.34896,-0.53982 -2.5239,-1.185 -3.52599,-1.93672 -0.98256,-0.75113 -1.75322,-1.6378 -2.31199,-2.6589 -0.55875,-1.04051 -0.83814,-2.225446 -0.83814,-3.554926 0,-1.310183 0.27939,-2.543359 0.83814,-3.69941 0.57771,-1.156051 1.39691,-2.177267 2.45642,-3.063586 1.07904,-0.905557 2.38952,-1.608859 3.93084,-2.109788 1.56086,-0.520226 3.31408,-0.780369 5.26027,-0.780369 2.71626,0 5.04777,0.433512 6.99395,1.300594 1.96513,0.867024 3.46798,2.061608 4.50855,3.583812 1.06011,1.502849 1.58986,3.217718 1.58986,5.144489 h -8.32397 c 0,-0.809253 -0.17343,-1.531792 -0.52028,-2.167618 -0.32733,-0.655121 -0.84761,-1.165699 -1.56027,-1.531793 -0.69372,-0.385389 -1.59933,-0.578055 -2.71684,-0.578055 -0.92515,0 -1.72482,0.163781 -2.399,0.491341 -0.67418,0.308265 -1.19447,0.732187 -1.56086,1.27165 -0.34685,0.520226 -0.52028,1.098281 -0.52028,1.734107 0,0.481693 0.0965,0.915204 0.28945,1.300594 0.21189,0.366094 0.54869,0.703243 1.01155,1.011567 0.46229,0.308265 1.05952,0.597292 1.7917,0.867023 0.75172,0.250495 1.67628,0.481698 2.77427,0.693658 2.25456,0.46239 4.26823,1.06933 6.04099,1.82105 1.77216,0.73219 3.17912,1.7337 4.2191,3.0057 1.04057,1.25247 1.56086,2.89975 1.56086,4.94182 0,1.38743 -0.30838,2.65884 -0.92456,3.81543 -0.61676,1.15599 -1.50285,2.16756 -2.65884,3.0347 -1.15658,0.84761 -2.54342,1.51232 -4.16228,1.99413 -1.59933,0.46228 -3.4005,0.69371 -5.40469,0.69371 -2.90922,0 -5.37569,-0.52028 -7.39883,-1.56085 -2.00359,-1.04057 -3.52597,-2.36052 -4.56595,-3.95985 -1.02163,-1.61827 -1.53186,-3.27502 -1.53186,-4.97083 h 7.89011 c 0.0385,1.13705 0.32732,2.05214 0.86714,2.74585 0.55875,0.69312 1.26195,1.19447 2.10955,1.50285 0.86715,0.30838 1.80176,0.46228 2.80327,0.46228 1.07904,0 1.97519,-0.14443 2.68784,-0.43328 0.71324,-0.30838 1.25247,-0.71324 1.61886,-1.21399 0.38533,-0.52029 0.5777,-1.11752 0.5777,-1.7923 z m 19.84305,-35.7511 v 44.39293 h -8.32397 V 72.60694 Z m -1.185,27.65916 h -2.28357 c 0.0195,-2.17756 0.30839,-4.181397 0.86714,-6.011807 0.55876,-1.849705 1.35842,-3.448975 2.399,-4.797691 1.04057,-1.368013 2.28298,-2.427761 3.72842,-3.179185 1.46437,-0.751425 3.08264,-1.127166 4.8554,-1.127166 1.54132,0 2.93822,0.221609 4.19069,0.664769 1.27141,0.423864 2.36052,1.117518 3.26613,2.080904 0.92456,0.944089 1.63721,2.186855 2.13856,3.728296 0.50075,1.54144 0.75113,3.410383 0.75113,5.606945 v 19.768705 h -8.38139 V 97.173336 c 0,-1.38725 -0.20243,-2.475883 -0.6067,-3.265899 -0.38533,-0.809254 -0.95357,-1.377601 -1.70529,-1.705162 -0.73218,-0.346857 -1.6378,-0.520226 -2.71684,-0.520226 -1.19446,0 -2.2155,0.22155 -3.06371,0.66471 -0.82807,0.44316 -1.49278,1.059748 -1.99412,1.849705 -0.50076,0.770721 -0.86714,1.676278 -1.09799,2.716788 -0.23144,1.040453 -0.34686,2.157968 -0.34686,3.352848 z m 38.8598,17.31206 c -2.4274,0 -4.60503,-0.38533 -6.53168,-1.15658 -1.92665,-0.78961 -3.56446,-1.87812 -4.91341,-3.26555 -1.32942,-1.38742 -2.35046,-2.99622 -3.06371,-4.8264 -0.71265,-1.8497 -1.06898,-3.81542 -1.06898,-5.89597 v -1.15599 c 0,-2.37023 0.3368,-4.537846 1.01157,-6.503151 0.67418,-1.965304 1.6378,-3.670525 2.89028,-5.115604 1.27141,-1.445078 2.81274,-2.553008 4.62396,-3.323669 1.81123,-0.790017 3.85391,-1.184995 6.12741,-1.184995 2.21551,0 4.18063,0.366094 5.89597,1.098281 1.71476,0.732187 3.15012,1.772639 4.30612,3.121355 1.17553,1.348776 2.06161,2.967224 2.65884,4.855462 0.59723,1.869002 0.89615,3.949901 0.89615,6.242591 v 3.46857 h -24.85531 v -5.54929 h 16.67576 v -0.635829 c 0,-1.15611 -0.2119,-2.186914 -0.63571,-3.09247 -0.40427,-0.924854 -1.02104,-1.657041 -1.8497,-2.196562 -0.82808,-0.539464 -1.88818,-0.809255 -3.17913,-0.809255 -1.09799,0 -2.04207,0.240847 -2.83226,0.72254 -0.7902,0.481693 -1.43538,1.15611 -1.93613,2.023134 -0.48182,0.867024 -0.8482,1.888239 -1.09858,3.063586 -0.23143,1.156046 -0.34685,2.427876 -0.34685,3.815306 v 1.15599 c 0,1.25247 0.17342,2.40846 0.52028,3.46798 0.36639,1.05951 0.87661,1.97519 1.53185,2.74585 0.67418,0.77066 1.48332,1.36789 2.4274,1.7917 0.96363,0.4238 2.05215,0.6357 3.26614,0.6357 1.50286,0 2.89975,-0.28885 4.1907,-0.86714 1.31048,-0.59723 2.43747,-1.49279 3.38155,-2.68784 l 4.04627,4.39312 c -0.65523,0.94409 -1.5508,1.84971 -2.68784,2.71685 -1.11752,0.86714 -2.46647,1.57979 -4.04627,2.13855 -1.5798,0.53982 -3.38155,0.80973 -5.40469,0.80973 z m 34.26483,-7.39882 v -37.5724 h 8.38138 v 44.39293 h -7.54324 z m -19.76906,-8.43939 v -0.6073 c 0,-2.38899 0.26991,-4.556606 0.80972,-6.502674 0.53923,-1.965305 1.32943,-3.65123 2.36941,-5.057775 1.04057,-1.406546 2.32204,-2.495179 3.84442,-3.265899 1.52179,-0.770721 3.25607,-1.156051 5.20226,-1.156051 1.83017,0 3.4295,0.38533 4.79739,1.156051 1.38744,0.77072 2.56296,1.869001 3.52599,3.294783 0.98256,1.406547 1.77276,3.073235 2.36999,5.000006 0.59724,1.907535 1.0311,3.998089 1.30042,6.271719 v 1.32942 c -0.26932,2.17703 -0.70318,4.20016 -1.30042,6.0694 -0.59723,1.86864 -1.38743,3.50645 -2.36999,4.91341 -0.96303,1.38683 -2.13855,2.46588 -3.52599,3.23654 -1.38742,0.77125 -3.00569,1.15658 -4.8554,1.15658 -1.94618,0 -3.67988,-0.39539 -5.20226,-1.18499 -1.50284,-0.7902 -2.77485,-1.89825 -3.81482,-3.32415 -1.02164,-1.42531 -1.80177,-3.10217 -2.341,-5.02883 -0.53981,-1.92665 -0.80972,-4.02673 -0.80972,-6.30024 z m 8.32397,-0.6073 v 0.6073 c 0,1.29094 0.0965,2.49488 0.28885,3.6124 0.2119,1.11752 0.54929,2.11014 1.01156,2.97728 0.48182,0.84761 1.09859,1.51232 1.84971,1.99413 0.77066,0.46228 1.70528,0.69372 2.80327,0.69372 1.4259,0 2.60143,-0.31845 3.52657,-0.95415 0.92455,-0.65524 1.62775,-1.5508 2.10955,-2.68785 0.50076,-1.13646 0.7902,-2.44694 0.86715,-3.93025 v -3.78642 c -0.058,-1.21382 -0.23144,-2.302398 -0.52029,-3.265843 -0.26991,-0.982622 -0.67418,-1.820761 -1.214,-2.514415 -0.52028,-0.693655 -1.17552,-1.233118 -1.96513,-1.618507 -0.77066,-0.385331 -1.68574,-0.577996 -2.74584,-0.577996 -1.07905,0 -2.00361,0.250435 -2.77427,0.751424 -0.77066,0.481693 -1.3969,1.146404 -1.87871,1.99419 -0.46227,0.847787 -0.80913,1.849705 -1.04057,3.005816 -0.21189,1.136751 -0.31785,2.369751 -0.31785,3.699171 z m 46.44862,7.77468 6.50267,-23.179024 h 5.28868 l -1.70469,9.103984 -6.50327,22.16758 h -4.42153 z m -3.29514,-23.179024 4.65297,23.150024 0.43387,8.12154 h -5.20226 L 318.5459,85.728306 Z m 21.04047,22.774754 4.53755,-22.774754 h 8.06353 l -7.9191,31.271564 h -5.17326 z m -5.23127,-22.774754 6.47428,23.005604 0.89555,8.26596 h -4.45054 l -6.50327,-22.138636 -1.64727,-9.132928 z m 29.03358,0 v 31.271564 h -8.35239 V 85.728306 Z m -8.87267,-8.150305 c 0,-1.213821 0.42381,-2.215799 1.27141,-3.005756 0.84761,-0.789958 1.98466,-1.184937 3.41057,-1.184937 1.40636,0 2.53335,0.394979 3.38155,1.184937 0.86714,0.789957 1.30042,1.791935 1.30042,3.005756 0,1.21388 -0.43328,2.215799 -1.30042,3.005816 -0.8482,0.789957 -1.97519,1.184936 -3.38155,1.184936 -1.42591,0 -2.56296,-0.394979 -3.41057,-1.184936 -0.8476,-0.790017 -1.27141,-1.791936 -1.27141,-3.005816 z m 29.29341,8.150305 v 5.895914 h -18.2082 v -5.895914 z m -13.69966,-7.716734 h 8.32398 v 29.566338 c 0,0.90562 0.11541,1.59933 0.34685,2.08114 0.25038,0.48122 0.61618,0.81861 1.09799,1.01157 0.4818,0.17343 1.08851,0.25985 1.8207,0.25985 0.52028,0 0.98315,-0.0189 1.38742,-0.058 0.42381,-0.0574 0.78073,-0.11542 1.06958,-0.17343 l 0.029,6.12741 c -0.71325,0.23143 -1.48391,0.41433 -2.31258,0.54929 -0.82807,0.13495 -1.74375,0.20243 -2.74526,0.20243 -1.83077,0 -3.4301,-0.29891 -4.79798,-0.89615 -1.34837,-0.61676 -2.38894,-1.59933 -3.12113,-2.94828 -0.73219,-1.34836 -1.09857,-3.12112 -1.09857,-5.31768 z m 24.78487,-5.404632 v 44.39293 h -8.32337 V 72.60694 Z m -1.185,27.65916 h -2.28297 c 0.0195,-2.17756 0.30838,-4.181397 0.86714,-6.011807 0.55876,-1.849705 1.35842,-3.448975 2.39899,-4.797691 1.03998,-1.368013 2.28298,-2.427761 3.72783,-3.179185 1.46437,-0.751425 3.08323,-1.127166 4.85599,-1.127166 1.54132,0 2.93822,0.221609 4.19069,0.664769 1.27141,0.423864 2.35993,1.117518 3.26554,2.080904 0.92516,0.944089 1.63781,2.186855 2.13915,3.728296 0.50076,1.54144 0.75113,3.410383 0.75113,5.606945 v 19.768705 h -8.38138 V 97.173336 c 0,-1.38725 -0.20243,-2.475883 -0.60671,-3.265899 -0.38592,-0.809254 -0.95415,-1.377601 -1.70528,-1.705162 -0.73219,-0.346857 -1.6378,-0.520226 -2.71685,-0.520226 -1.19446,0 -2.21609,0.22155 -3.0637,0.66471 -0.82867,0.44316 -1.49338,1.059748 -1.99413,1.849705 -0.50075,0.770721 -0.86715,1.676278 -1.09857,2.716788 -0.23085,1.040453 -0.34687,2.157968 -0.34687,3.352848 z M 456.8056,82.11561 445.36052,116.99987 H 436.141 l 15.63577,-42.080827 h 5.86697 z m 9.50838,34.88426 -11.4735,-34.88426 -0.92515,-7.196567 h 5.92498 l 15.72219,42.080827 z m -0.52029,-15.66479 v 6.79212 h -22.22487 v -6.79212 z m 21.11447,-26.416037 v 42.080827 h -8.64123 V 74.919043 Z"
     fill="#ffffff"
     id="path1"
     style="stroke-width:5.91906" />
  <g
     style="mix-blend-mode:overlay"
     opacity="1"
     id="g16"
     transform="matrix(5.9190572,0,0,5.9190572,0,40.052126)">
    <path
       d="m 20.3947,29.3863 v -3.4357 l -0.0924,-1.9828 0.0731,-0.0156 0.7892,1.7685 1.8555,3.4513 1.8555,-3.4513 0.793,-1.7685 0.0693,0.0156 -0.0924,1.9828 v 3.4357 h 1.9786 v -8.4686 h -2.2365 l -2.3521,4.5849 h -0.027 L 20.6526,20.9177 H 18.416 v 8.4686 z"
       fill="#f5f4f3"
       id="path2" />
    <path
       d="m 78.6816,27.2398 c 0,1.4023 0.7469,2.1425 2.1596,2.1425 h 1.2204 v -1.7335 h -1.3281 v -3.6967 h 1.4397 v -1.6984 h -1.5976 v -1.6399 h -1.8901 v 6.626 z"
       fill="#f5f4f3"
       id="path3" />
    <path
       d="m 78.1295,22.2537 c 0,0 -0.0308,0 -0.3349,0 -1.1587,0 -1.7092,0.7907 -1.8824,1.3361 -0.0308,0 -0.0693,0 -0.0693,0 v -1.3361 h -2.048 v 7.1324 h 2.048 c 0,0 0,-3.946 0,-4.059 0,-0.4207 0.1578,-0.7167 0.358,-0.9076 0.3426,-0.335 1.074,-0.4324 1.9286,-0.4324 0,-0.7051 0,-1.7334 0,-1.7334 z"
       fill="#f5f4f3"
       id="path4" />
    <path
       d="m 57.8698,22.2537 c 0,0 -0.0308,0 -0.335,0 -1.1587,0 -1.7092,0.7907 -1.8824,1.3361 -0.0308,0 -0.0693,0 -0.0693,0 v -1.3361 h -2.0479 v 7.1324 h 2.0479 c 0,0 0,-3.946 0,-4.059 0,-0.4207 0.1579,-0.7167 0.358,-0.9076 0.3426,-0.335 1.0741,-0.4324 1.9287,-0.4324 0,-0.7051 0,-1.7334 0,-1.7334 z"
       fill="#f5f4f3"
       id="path5" />
    <path
       d="m 45.8789,25.9231 c 0,-2.3255 1.2203,-3.8408 3.4069,-3.8408 2.4098,0 3.3799,1.7646 3.3799,3.7551 v 0.6155 H 48 v 0.0701 c 0,0.8258 0.4389,1.4023 1.6053,1.4023 0.8584,0 1.3281,-0.4051 1.7862,-0.8842 l 1.0239,1.2894 c -0.6505,0.7557 -1.7169,1.2192 -3.045,1.2192 -2.2327,0.0039 -3.4915,-1.2738 -3.4915,-3.6266 z m 2.1173,-0.7985 v 0.1129 h 2.5484 v -0.1246 c 0,-0.896 -0.4004,-1.4997 -1.2203,-1.4997 -0.82,0 -1.3281,0.5998 -1.3281,1.5114 z"
       fill="#f5f4f3"
       id="path6" />
    <path
       d="m 66.1113,25.9231 c 0,-2.3684 1.2742,-3.8408 3.4069,-3.8408 2.1326,0 3.4068,1.4724 3.4068,3.8408 0,2.3684 -1.2742,3.6305 -3.4068,3.6305 -2.1365,0 -3.4069,-1.2621 -3.4069,-3.6305 z m 4.6772,0.5337 V 25.183 c 0,-0.9232 -0.4696,-1.4569 -1.2742,-1.4569 -0.8045,0 -1.2742,0.5337 -1.2742,1.4569 v 1.2738 c 0,0.9232 0.4697,1.4569 1.2742,1.4569 0.8046,0 1.2742,-0.5337 1.2742,-1.4569 z"
       fill="#f5f4f3"
       id="path7" />
    <path
       d="m 43.9313,20.6138 h -1.8401 v 0.8531 c 0,0.5064 -0.1655,0.7829 -0.7198,0.7829 h -0.512 v 1.6984 h 1.024 v 3.2877 c 0,1.4024 0.7468,2.1425 2.1596,2.1425 h 1.2203 v -1.7335 h -1.3281 v -3.6967 h 1.4397 v -1.6984 h -1.4397 v -1.636 z"
       fill="#f5f4f3"
       id="path8" />
    <path
       d="m 38.8298,20.6138 h -1.8401 v 0.8531 c 0,0.5064 -0.1656,0.7829 -0.7199,0.7829 h -0.512 v 1.6984 h 1.024 v 3.2877 c 0,1.4024 0.7468,2.1425 2.1596,2.1425 h 1.2203 v -1.7335 h -1.3281 v -3.6967 h 1.4397 v -1.6984 h -1.4397 v -1.636 z"
       fill="#f5f4f3"
       id="path9" />
    <path
       d="m 62.5944,22.0823 c -0.9432,0 -1.7439,0.5882 -1.9518,1.4023 h -0.0693 v -1.2348 h -2.0479 v 9.2788 h 2.0479 v -3.3773 h 0.0693 c 0.2079,0.7985 1.0125,1.4023 1.9518,1.4023 1.84,0 2.7986,-1.1335 2.7986,-3.6305 -0.0039,-2.493 -0.9586,-3.8408 -2.7986,-3.8408 z m 0.6621,4.4875 c 0,0.9232 -0.5697,1.3049 -1.3435,1.3049 -0.7738,0 -1.3435,-0.4051 -1.3435,-1.079 V 24.848 c 0,-0.6739 0.5697,-1.079 1.3435,-1.079 0.7738,0 1.3435,0.6038 1.3435,1.527 z"
       fill="#f5f4f3"
       id="path10" />
    <path
       d="m 34.4645,29.3861 c -0.7353,0 -1.2588,-0.5064 -1.3858,-1.2894 H 32.994 c -0.2233,0.9544 -1.024,1.4569 -2.1327,1.4569 -1.4551,0 -2.2558,-0.8687 -2.2558,-2.1424 0,-1.5543 1.1895,-2.2983 3.1143,-2.2983 h 1.151 v -0.2376 c 0,-0.7129 -0.3465,-1.1648 -1.2049,-1.1648 -0.8161,0 -1.2473,0.4207 -1.563,0.8687 l -1.2203,-1.0946 c 0.5813,-0.8687 1.4128,-1.4023 2.9372,-1.4023 2.048,0 3.1028,0.9543 3.1028,2.6917 v 2.8748 h 0.6775 v 1.7334 H 34.4645 Z M 32.8746,27.158 v -0.8687 h -0.997 c -0.7892,0 -1.2049,0.296 -1.2049,0.8258 v 0.2104 c 0,0.5336 0.3464,0.7829 0.9547,0.7829 0.6775,0 1.2472,-0.2804 1.2472,-0.9504 z"
       fill="#f5f4f3"
       id="path11" />
    <path
       d="M 11.8374,18 6.9061,19.3984 1.97097,18 0,18.5609 V 31.4391 L 1.97482,32 6.90995,30.6016 11.8451,32 13.8199,31.4391 V 18.5609 Z M 9.86641,27.6099 6.9061,26.7724 3.94579,27.6099 v -5.2198 l 2.96031,0.8375 2.96031,-0.8375 z"
       fill="#b7babb"
       id="path12" />
    <path
       d="m 6.9061,20.5165 v 2.7112 L 1.97097,21.8293 V 31.9962 L 0,31.4392 V 18.561 Z"
       fill="#ffffff"
       id="path13" />
    <path
       d="M 9.86656,28.7281 6.90625,27.8867 v 2.7111 l 4.93125,1.3985 v -10.167 l -1.97094,0.561 z"
       fill="#ffffff"
       id="path14" />
    <path
       d="M 11.8374,18 13.8122,18.5609 6.9061,20.5164 0,18.5609 1.97097,18 6.9061,19.3984 Z"
       fill="#999999"
       id="path15" />
    <path
       d="M 6.90562,26.7686 9.86593,27.61 v 1.1179 L 6.90562,27.8865 3.94531,28.7279 V 27.61 Z"
       fill="#999999"
       id="path16" />
  </g>
</svg>
