<svg xmlns="http://www.w3.org/2000/svg" width="400" height="401" fill="none" viewBox="0 0 400 401"><path fill="#444" d="M313.985 208.909c-.345 0 6.21-11.285 6.21-18.09 0-16.775-16.295-30.375-36.4-30.375-3.17 0-6.235.375-9.165 1.01.265-1.975.415-3.975.415-6.01 0-29.53-28.68-53.465-64.065-53.465s-62.88 22.985-64.01 51.685c-7.79-7.3-19.105-11.925-31.745-11.925-23.49 0-40.73 15.975-42.535 35.5-.625 6.74 1.015 16.215 2.79 20.125-4.24-1.56-8.92-2.44-13.855-2.44-19.02 0-30.905 12.375-29.45 27.985 1.13 12.115 10.43 21.015 29.45 21.015h252.36c14.015 0 25.38-7.835 25.38-17.505 0-9.67-11.36-17.505-25.38-17.505v-.005Z"/><path fill="#222" d="M313.985 245.305H61.625c-25.95 0-30.205-15.575-30.83-22.27-.7-7.515 1.58-14.575 6.415-19.885 5.65-6.2 14.32-9.61 24.415-9.61 3.975 0 7.865.545 11.6 1.63-1.425-4.855-2.435-12.44-1.915-18.055.925-10 5.76-19.23 13.61-25.995 8.06-6.94 18.82-10.765 30.305-10.765s22.38 3.775 30.555 10.435c1.325-13.24 8.26-25.51 19.745-34.805 12.255-9.925 28.4-15.39 45.45-15.39 36.09 0 65.445 24.605 65.445 54.85 0 1.395-.07 2.83-.21 4.285a44.222 44.222 0 0 1 7.575-.67c20.835 0 37.785 14.25 37.785 31.76 0 5.39-3.665 13-5.495 16.76 13.78.76 24.665 8.915 24.665 18.835 0 10.415-12.005 18.89-26.765 18.89h.01Zm-252.36-49c-9.305 0-17.25 3.095-22.365 8.71-4.305 4.725-6.33 11.035-5.705 17.765 1.17 12.555 11.4 19.76 28.07 19.76h252.36c13.23 0 23.995-7.23 23.995-16.12s-10.765-16.12-23.995-16.12c-.475 0-.93-.25-1.185-.655-.45-.715-.27-1.085.725-3.13 1.58-3.25 5.285-10.87 5.285-15.69 0-15.985-15.71-28.995-35.015-28.995-2.895 0-5.88.33-8.875.98a1.384 1.384 0 0 1-1.665-1.535c.265-1.985.4-3.94.4-5.825 0-28.72-28.12-52.08-62.68-52.08-16.42 0-31.945 5.245-43.71 14.77-11.665 9.445-18.385 22.085-18.915 35.585-.02.54-.355 1.02-.86 1.225-.5.205-1.075.1-1.47-.27-7.835-7.34-19.06-11.555-30.795-11.555-10.82 0-20.94 3.585-28.5 10.09-7.305 6.29-11.8 14.87-12.66 24.15-.585 6.335.955 15.645 2.67 19.425.23.51.135 1.105-.245 1.515-.38.41-.965.55-1.49.355a38.69 38.69 0 0 0-13.375-2.355Z"/><path fill="#fff" d="M305.495 208.909c-.345 0 6.21-11.285 6.21-18.09 0-16.775-16.295-30.375-36.4-30.375-3.17 0-6.235.375-9.165 1.01.265-1.975.415-3.975.415-6.01 0-29.53-28.68-53.465-64.065-53.465s-62.88 22.985-64.01 51.685c-7.79-7.3-19.105-11.925-31.745-11.925-23.49 0-40.73 15.975-42.535 35.5-.625 6.74 1.015 16.215 2.79 20.125-4.24-1.56-8.92-2.44-13.855-2.44-19.02 0-30.905 12.375-29.45 27.985 1.13 12.115 10.43 21.015 29.45 21.015h252.36c14.015 0 25.38-7.835 25.38-17.505 0-9.67-11.36-17.505-25.38-17.505v-.005Z"/><path fill="#222" d="M305.495 245.305H53.14c-25.95 0-30.205-15.575-30.83-22.27-.7-7.515 1.58-14.575 6.415-19.885 5.645-6.2 14.315-9.61 24.41-9.61 3.975 0 7.865.545 11.6 1.63-1.425-4.855-2.435-12.44-1.915-18.055.925-10 5.76-19.23 13.61-25.995 8.06-6.94 18.82-10.765 30.305-10.765s22.38 3.775 30.555 10.435c1.325-13.24 8.26-25.51 19.745-34.805 12.255-9.925 28.4-15.39 45.45-15.39 36.09 0 65.45 24.605 65.45 54.85 0 1.395-.07 2.83-.21 4.285a44.222 44.222 0 0 1 7.575-.67c20.835 0 37.785 14.25 37.785 31.76 0 5.39-3.665 12.995-5.495 16.76 13.78.76 24.665 8.915 24.665 18.835 0 10.415-12.005 18.89-26.765 18.89h.005Zm-252.355-49c-9.305 0-17.25 3.095-22.365 8.71-4.305 4.725-6.33 11.035-5.705 17.765 1.17 12.555 11.4 19.76 28.07 19.76H305.5c13.23 0 23.995-7.23 23.995-16.12S318.73 210.3 305.5 210.3c-.475 0-.93-.25-1.185-.655-.445-.715-.27-1.085.725-3.125 1.58-3.25 5.285-10.87 5.285-15.69 0-15.985-15.71-28.995-35.015-28.995-2.895 0-5.88.33-8.875.98a1.384 1.384 0 0 1-1.665-1.535c.265-1.985.4-3.945.4-5.825 0-28.72-28.12-52.08-62.68-52.08-16.42 0-31.945 5.245-43.71 14.77-11.665 9.445-18.385 22.085-18.915 35.585-.02.54-.355 1.02-.86 1.225-.5.205-1.075.1-1.47-.27-7.835-7.34-19.06-11.555-30.795-11.555-10.82 0-20.94 3.585-28.5 10.09-7.305 6.29-11.8 14.87-12.66 24.15-.585 6.335.955 15.64 2.67 19.425.23.51.135 1.105-.245 1.515-.38.41-.965.55-1.49.355a38.69 38.69 0 0 0-13.375-2.355v-.005Z"/><path fill="#FF3158" d="m153.695 218.394-3.63-12.055H133.14l-3.63 12.055h-11.185l16.705-50.695h13.655l16.485 50.695h-11.475Zm-11.985-40.675h-.365l-5.59 19.25h11.62l-5.665-19.25ZM171.495 218.394v-50.695h23.97c2.37 0 4.505.4 6.39 1.2 1.89.8 3.495 1.9 4.83 3.305 1.33 1.405 2.36 3.11 3.085 5.12.725 2.01 1.09 4.2 1.09 6.57s-.365 4.625-1.09 6.61c-.725 1.985-1.755 3.68-3.085 5.085-1.33 1.405-2.94 2.505-4.83 3.305-1.89.8-4.02 1.2-6.39 1.2h-12.93v18.305h-11.04v-.005Zm11.04-27.89h11.62c1.645 0 2.94-.425 3.885-1.27.945-.845 1.415-2.095 1.415-3.74v-3.195c0-1.645-.47-2.895-1.415-3.74-.945-.845-2.24-1.27-3.885-1.27h-11.62v13.22-.005ZM216.354 218.394v-8.79h6.535v-33.12h-6.535v-8.79h24.115v8.79h-6.535v33.12h6.535v8.79h-24.115Z"/><path fill="#444" d="m280.16 285.674 89.745 24.996 7.105-5.966V234.13l-89.375-24.776-7.475 5.88v70.44Z"/><path fill="#222" d="M369.905 312.055a1.32 1.32 0 0 1-.37-.05L279.79 287.01a1.382 1.382 0 0 1-1.015-1.335v-70.44c0-.425.195-.825.53-1.09l7.475-5.88c.345-.27.8-.365 1.225-.245l89.375 24.775c.6.165 1.015.71 1.015 1.335v70.575c0 .41-.18.795-.495 1.06l-7.105 5.97c-.25.21-.57.325-.89.325v-.005Zm-88.36-27.43 88.025 24.52 6.055-5.085v-68.875L287.94 210.88l-6.395 5.03v68.72-.005Z"/><path fill="#F5F4F3" d="m280.16 285.674 89.745 24.995v-70.715l-89.745-24.72v70.44Z"/><path fill="#222" d="M369.905 312.055a1.32 1.32 0 0 1-.37-.05L279.79 287.01a1.382 1.382 0 0 1-1.015-1.335v-70.44c0-.43.2-.84.545-1.1.345-.26.79-.35 1.205-.235l89.745 24.72c.6.165 1.015.71 1.015 1.335v70.715c0 .435-.205.84-.545 1.105-.245.185-.54.28-.835.28Zm-88.36-27.43 86.975 24.225v-67.84l-86.975-23.96v67.575Z"/><path fill="#222" d="M357.05 251.845c-.165 0-.33-.02-.495-.07L289.75 233.17a1.853 1.853 0 0 1-1.285-2.275 1.849 1.849 0 0 1 2.275-1.285l66.805 18.605a1.845 1.845 0 0 1-.49 3.625l-.005.005ZM357.05 261.151c-.165 0-.33-.02-.495-.07l-66.805-18.605a1.853 1.853 0 0 1-1.285-2.275 1.849 1.849 0 0 1 2.275-1.285l66.805 18.605a1.845 1.845 0 0 1-.49 3.625l-.005.005ZM357.05 270.45c-.165 0-.33-.02-.495-.07l-66.805-18.605a1.853 1.853 0 0 1-1.285-2.275 1.849 1.849 0 0 1 2.275-1.285l66.805 18.605a1.845 1.845 0 0 1-.49 3.625l-.005.005ZM357.05 279.756c-.165 0-.33-.02-.495-.07l-66.805-18.605a1.853 1.853 0 0 1-1.285-2.275 1.849 1.849 0 0 1 2.275-1.285l66.805 18.605a1.845 1.845 0 0 1-.49 3.625l-.005.005ZM357.05 289.06c-.165 0-.33-.02-.495-.07l-66.805-18.605a1.853 1.853 0 0 1-1.285-2.275 1.849 1.849 0 0 1 2.275-1.285l66.805 18.605a1.845 1.845 0 0 1-.49 3.625l-.005.005ZM376.137 233.1l-7.107 5.826 1.756 2.142 7.107-5.826-1.756-2.142Z"/></svg>