<svg xmlns="http://www.w3.org/2000/svg" width="400" height="400" fill="none" viewBox="0 0 400 400"><path fill="#fff" d="M338.26 295.46h-7.38v-2.77h7.38v2.77Zm-14.765 0h-7.38v-2.77h7.38v2.77Zm-14.765 0h-7.38v-2.77h7.38v2.77Zm-14.765 0h-7.38v-2.77h7.38v2.77Zm-14.765 0h-7.38v-2.77h7.38v2.77Zm-14.765 0h-7.38v-2.77h7.38v2.77Zm-14.765 0h-7.38v-2.77h7.38v2.77Zm-14.765 0h-7.38v-2.77h7.38v2.77Zm-14.765 0h-7.38v-2.77h7.38v2.77Zm-14.765 0h-7.38v-2.77h7.38v2.77Zm-14.765 0h-7.38v-2.77h7.38v2.77Zm-14.765 0h-7.38v-2.77h7.38v2.77Zm-14.765 0h-7.38v-2.77h7.38v2.77Zm-14.765 0h-7.38v-2.77h7.38v2.77Zm-14.765 0h-7.38v-2.77h7.38v2.77Zm-14.765 0h-7.38v-2.77h7.38v2.77Zm-14.765 0h-7.38v-2.77h7.38v2.77Zm-14.765 0h-7.38v-2.77h7.38v2.77Zm-14.765 0h-7.38v-2.77h7.38v2.77Zm-14.765 0h-7.38v-2.77h7.38v2.77Zm-10.365-.215c-2.63-.38-5.13-1.25-7.425-2.59l1.395-2.395a17.718 17.718 0 0 0 6.425 2.24l-.395 2.74v.005Zm298.505-.11-.485-2.725c2.26-.405 4.4-1.235 6.35-2.46l1.475 2.345a20.583 20.583 0 0 1-7.335 2.84h-.005Zm-311.85-7.645a20.59 20.59 0 0 1-3.575-7.005l2.66-.765a17.842 17.842 0 0 0 3.095 6.065l-2.18 1.705Zm324.925-.555-2.24-1.63a17.782 17.782 0 0 0 2.89-6.165l2.685.675a20.444 20.444 0 0 1-3.34 7.12h.005ZM32.4 272.795h-2.77v-7.38h2.77v7.38Zm330.5-.65h-2.77v-7.38h2.77v7.38ZM32.4 258.03h-2.77v-7.38h2.77v7.38Zm330.5-.65h-2.77V250h2.77v7.38ZM32.4 243.265h-2.77v-7.38h2.77v7.38Zm330.5-.65h-2.77v-7.38h2.77v7.38ZM32.4 228.5h-2.77v-7.38h2.77v7.38Zm330.5-.65h-2.77v-7.38h2.77v7.38ZM32.4 213.735h-2.77v-7.38h2.77v7.38Zm330.5-.65h-2.77v-7.38h2.77v7.38ZM32.4 198.97h-2.77v-7.38h2.77v7.38Zm330.5-.65h-2.77v-7.38h2.77v7.38ZM32.4 184.205h-2.77v-7.38h2.77v7.38Zm330.5-.65h-2.77v-7.38h2.77v7.38ZM32.4 169.44h-2.77v-7.38h2.77v7.38Zm330.5-.65h-2.77v-7.38h2.77v7.38ZM32.4 154.675h-2.77v-7.38h2.77v7.38Zm330.5-.65h-2.77v-7.38h2.77v7.38ZM32.4 139.91h-2.77v-4.9c0-.88.055-1.77.17-2.65l2.745.35c-.095.76-.145 1.535-.145 2.3v4.9Zm330.5-.65h-2.77v-4.25c0-.975-.08-1.945-.23-2.895l2.73-.445c.175 1.095.265 2.215.265 3.34v4.25h.005ZM34.68 126.25l-2.415-1.355a20.78 20.78 0 0 1 5.075-6.005l1.74 2.15a17.973 17.973 0 0 0-4.4 5.205v.005Zm322.865-.525a17.925 17.925 0 0 0-4.57-5.055l1.67-2.21a20.728 20.728 0 0 1 5.27 5.83l-2.37 1.435Zm-312.455-7.88-.805-2.65c1.955-.595 3.995-.9 6.06-.9h1.64v2.77h-1.64c-1.79 0-3.555.265-5.25.78h-.005Zm301.775-.165a18.152 18.152 0 0 0-4.675-.615h-2.295v-2.77h2.295c1.825 0 3.64.24 5.39.71l-.715 2.675Zm-14.35-.615h-7.38v-2.77h7.38v2.77Zm-14.765 0h-7.38v-2.77h7.38v2.77Zm-14.765 0h-7.38v-2.77h7.38v2.77Zm-14.765 0h-7.38v-2.77h7.38v2.77Zm-14.765 0h-7.38v-2.77h7.38v2.77Zm-14.765 0h-7.38v-2.77h7.38v2.77Zm-14.765 0h-7.38v-2.77h7.38v2.77Zm-14.765 0h-7.38v-2.77h7.38v2.77Zm-14.765 0h-7.38v-2.77h7.38v2.77Zm-14.765 0h-7.38v-2.77h7.38v2.77Zm-14.765 0h-7.38v-2.77h7.38v2.77Zm-14.765 0h-7.38v-2.77h7.38v2.77Zm-14.765 0h-7.38v-2.77h7.38v2.77Zm-14.765 0h-7.38v-2.77h7.38v2.77Zm-14.765 0h-7.38v-2.77h7.38v2.77Zm-14.765 0h-7.38v-2.77h7.38v2.77Zm-14.765 0h-7.38v-2.77h7.38v2.77Zm-14.765 0h-7.38v-2.77h7.38v2.77Zm-14.765 0h-7.38v-2.77h7.38v2.77Z"/><path fill="#DADADA" d="M138.235 180 23.68 211.905l-8.48-6.185v-90.09l114.085-31.625 8.95 6.075V180Z"/><path fill="#222" d="M23.68 213.29c-.29 0-.575-.09-.815-.265l-8.485-6.185a1.39 1.39 0 0 1-.57-1.12v-90.09c0-.62.415-1.17 1.015-1.335L128.91 82.67c.39-.11.81-.04 1.145.19l8.955 6.075c.38.26.605.685.605 1.145v89.915a1.39 1.39 0 0 1-1.015 1.335L24.045 213.235a1.32 1.32 0 0 1-.37.05l.005.005Zm-7.1-8.275 7.375 5.375 112.895-31.445v-88.13l-7.815-5.305-112.45 31.175v88.33h-.005Z"/><path fill="#F5F4F3" d="M138.235 180 23.68 211.905V121.64l114.555-31.56V180Z"/><path fill="#222" d="M23.68 213.29a1.378 1.378 0 0 1-1.38-1.38v-90.27c0-.625.415-1.17 1.015-1.335L137.87 88.75a1.37 1.37 0 0 1 1.205.235c.345.26.545.67.545 1.1V180a1.39 1.39 0 0 1-1.015 1.335L24.05 213.24a1.32 1.32 0 0 1-.37.05Zm1.385-90.595v87.39L136.85 178.95V91.9L25.065 122.69v.005Z"/><path fill="#222" d="M37.23 135.015a1.847 1.847 0 0 1-.49-3.625l90.25-25.135c.985-.275 2 .3 2.275 1.285.275.98-.3 2-1.285 2.275L37.73 134.95c-.165.045-.33.07-.495.07l-.005-.005ZM37.23 146.235a1.847 1.847 0 0 1-.49-3.625l90.25-25.135c.985-.275 2 .3 2.275 1.285.275.98-.3 2-1.285 2.275L37.73 146.17c-.165.045-.33.07-.495.07l-.005-.005ZM37.23 157.455a1.847 1.847 0 0 1-.49-3.625l90.25-25.135c.985-.275 2 .3 2.275 1.285.275.98-.3 2-1.285 2.275L37.73 157.39c-.165.045-.33.07-.495.07l-.005-.005ZM37.23 168.675a1.847 1.847 0 0 1-.49-3.625l90.25-25.135c.985-.275 2 .3 2.275 1.285.275.98-.3 2-1.285 2.275L37.73 168.61c-.165.045-.33.07-.495.07l-.005-.005ZM37.23 179.845a1.847 1.847 0 0 1-.49-3.625l90.25-25.135c.985-.275 2 .3 2.275 1.285.275.98-.3 2-1.285 2.275L37.73 179.78c-.165.045-.33.07-.495.07l-.005-.005ZM16.002 114.501l-1.601 2.261 8.484 6.007 1.6-2.261-8.483-6.007Z"/><path fill="#444" d="M325.32 229.315c-.325 0 5.86-10.65 5.86-17.07 0-15.835-15.38-28.67-34.355-28.67a40.4 40.4 0 0 0-8.65.955c.25-1.86.39-3.755.39-5.67 0-27.87-27.07-50.46-60.46-50.46s-59.345 21.69-60.41 48.78c-7.355-6.89-18.035-11.255-29.96-11.255-22.17 0-38.44 15.075-40.145 33.505-.59 6.365.96 15.305 2.635 18.99a37.925 37.925 0 0 0-13.075-2.3c-17.95 0-29.165 11.68-27.795 26.41 1.065 11.435 9.845 19.835 27.795 19.835h238.175c13.23 0 23.95-7.395 23.95-16.52s-10.725-16.52-23.95-16.52l-.005-.01Z"/><path fill="#222" d="M325.32 263.74H87.145c-17.29 0-27.925-7.685-29.175-21.09-.665-7.115 1.495-13.8 6.075-18.83 5.345-5.865 13.55-9.095 23.1-9.095 3.71 0 7.34.505 10.835 1.5-1.325-4.595-2.255-11.68-1.77-16.935.875-9.46 5.445-18.19 12.87-24.585 7.62-6.56 17.795-10.175 28.65-10.175 10.855 0 21.06 3.535 28.775 9.775 1.285-12.46 7.835-24.005 18.65-32.76 11.58-9.375 26.835-14.54 42.945-14.54 34.1 0 61.845 23.26 61.845 51.845 0 1.29-.06 2.61-.185 3.95a41.7 41.7 0 0 1 7.065-.62c19.705 0 35.74 13.48 35.74 30.055 0 5.055-3.4 12.155-5.145 15.75 12.99.76 23.235 8.47 23.235 17.845 0 9.875-11.365 17.905-25.335 17.905v.005ZM87.145 217.495c-8.76 0-16.235 2.91-21.05 8.195-4.05 4.445-5.955 10.375-5.365 16.705 1.1 11.805 10.73 18.58 26.415 18.58H325.32c12.445 0 22.57-6.79 22.57-15.14 0-8.35-10.125-15.14-22.57-15.14-.475 0-.93-.25-1.185-.655-.445-.71-.275-1.065.68-3.025 1.49-3.065 4.98-10.24 4.98-14.775 0-15.045-14.79-27.285-32.97-27.285-2.725 0-5.54.31-8.36.92-.44.1-.9-.03-1.23-.335a1.388 1.388 0 0 1-.435-1.2c.25-1.87.38-3.715.38-5.485 0-27.06-26.5-49.075-59.08-49.075-15.48 0-30.115 4.945-41.205 13.925-10.995 8.9-17.325 20.81-17.825 33.525-.02.54-.355 1.02-.86 1.225-.5.205-1.075.1-1.47-.27-7.38-6.915-17.955-10.88-29.015-10.88-10.195 0-19.725 3.375-26.845 9.505-6.88 5.925-11.115 14-11.92 22.74-.55 5.965.9 14.735 2.515 18.29.23.51.135 1.105-.245 1.515-.38.41-.97.55-1.49.355-4.005-1.47-8.24-2.215-12.595-2.215Z"/><path fill="#fff" d="M317.31 229.315c-.325 0 5.86-10.65 5.86-17.07 0-15.835-15.38-28.67-34.355-28.67a40.4 40.4 0 0 0-8.65.955c.25-1.86.39-3.755.39-5.67 0-27.87-27.07-50.46-60.46-50.46s-59.345 21.69-60.41 48.78c-7.355-6.89-18.035-11.255-29.96-11.255-22.17 0-38.44 15.075-40.145 33.505-.59 6.365.96 15.305 2.635 18.99a37.925 37.925 0 0 0-13.075-2.3c-17.95 0-29.165 11.68-27.795 26.41 1.065 11.435 9.845 19.835 27.795 19.835h238.175c13.23 0 23.95-7.395 23.95-16.52s-10.725-16.52-23.95-16.52l-.005-.01Z"/><path fill="#222" d="M317.31 263.74H79.135c-17.29 0-27.925-7.685-29.175-21.09-.665-7.115 1.495-13.8 6.075-18.83 5.345-5.865 13.55-9.095 23.1-9.095 3.71 0 7.34.505 10.835 1.5-1.325-4.595-2.255-11.68-1.77-16.935.875-9.46 5.445-18.19 12.87-24.585 7.62-6.56 17.795-10.175 28.65-10.175 10.855 0 21.06 3.535 28.775 9.775 1.285-12.46 7.835-24.005 18.65-32.76 11.58-9.375 26.835-14.54 42.945-14.54 34.1 0 61.845 23.26 61.845 51.845 0 1.29-.06 2.61-.185 3.95a41.7 41.7 0 0 1 7.065-.62c19.705 0 35.74 13.48 35.74 30.055 0 5.055-3.4 12.155-5.145 15.75 12.99.76 23.235 8.47 23.235 17.845 0 9.875-11.365 17.905-25.335 17.905v.005ZM79.135 217.495c-8.76 0-16.235 2.91-21.05 8.195-4.05 4.445-5.955 10.375-5.365 16.705 1.1 11.805 10.73 18.58 26.415 18.58H317.31c12.445 0 22.57-6.79 22.57-15.14 0-8.35-10.125-15.14-22.57-15.14-.475 0-.93-.25-1.185-.655-.445-.71-.275-1.065.68-3.025 1.49-3.065 4.98-10.24 4.98-14.775 0-15.045-14.79-27.285-32.97-27.285-2.725 0-5.54.31-8.36.92-.44.1-.9-.03-1.23-.335a1.388 1.388 0 0 1-.435-1.2c.25-1.87.38-3.715.38-5.485 0-27.06-26.5-49.075-59.08-49.075-15.48 0-30.115 4.945-41.205 13.925-10.995 8.9-17.325 20.81-17.825 33.525-.02.54-.355 1.02-.86 1.225-.5.205-1.075.1-1.47-.27-7.38-6.915-17.955-10.88-29.015-10.88-10.195 0-19.725 3.375-26.845 9.505-6.88 5.925-11.115 14-11.92 22.74-.55 5.965.9 14.735 2.515 18.29.23.51.135 1.105-.245 1.515-.38.41-.97.55-1.49.355-4.005-1.47-8.24-2.215-12.595-2.215Z"/><path fill="#FF3158" d="m174.04 238.265-3.425-11.38h-15.97l-3.43 11.38H140.66l15.765-47.845h12.885l15.56 47.845h-10.83Zm-11.31-38.385h-.345l-5.28 18.165h10.965l-5.345-18.165h.005ZM190.84 238.265V190.42h22.62c2.24 0 4.25.38 6.03 1.13 1.78.755 3.3 1.795 4.56 3.12 1.255 1.325 2.23 2.935 2.915 4.835.685 1.895 1.03 3.965 1.03 6.2 0 2.235-.345 4.365-1.03 6.24s-1.655 3.475-2.915 4.8c-1.255 1.325-2.775 2.365-4.56 3.12-1.78.755-3.795 1.13-6.03 1.13h-12.2v17.275h-10.42v-.005Zm10.42-26.32h10.97c1.555 0 2.775-.4 3.665-1.2.89-.8 1.335-1.975 1.335-3.53V204.2c0-1.555-.445-2.73-1.335-3.53-.89-.8-2.115-1.2-3.665-1.2h-10.97v12.475ZM233.175 238.265v-8.295h6.17v-31.26h-6.17v-8.295h22.76v8.295h-6.17v31.26h6.17v8.295h-22.76Z"/><path fill="#DADADA" d="m293.396 301.765 84.7 23.59 6.705-5.63v-66.61l-84.35-23.38-7.055 5.55v66.48Z"/><path fill="#222" d="M378.096 326.74a1.32 1.32 0 0 1-.37-.05l-84.7-23.59a1.382 1.382 0 0 1-1.015-1.335v-66.48c0-.425.195-.825.53-1.09l7.055-5.55c.345-.27.8-.365 1.225-.245l84.35 23.38c.6.165 1.015.71 1.015 1.335v66.605c0 .41-.18.795-.495 1.06l-6.71 5.635c-.25.21-.57.325-.89.325h.005Zm-83.315-26.025 82.985 23.115 5.655-4.75v-64.91l-82.66-22.915-5.975 4.7v64.76h-.005Z"/><path fill="#F5F4F3" d="m293.396 301.765 84.7 23.59v-66.74l-84.7-23.33v66.48Z"/><path fill="#222" d="M378.096 326.74a1.32 1.32 0 0 1-.37-.05l-84.7-23.59a1.382 1.382 0 0 1-1.015-1.335v-66.48c0-.43.2-.84.545-1.1.345-.26.79-.345 1.205-.235l84.7 23.33c.6.165 1.015.71 1.015 1.335v66.74c0 .435-.2.84-.545 1.1-.245.185-.54.28-.835.28v.005Zm-83.315-26.025 81.93 22.82V259.67l-81.93-22.57v63.615Z"/><path fill="#222" d="M365.965 269.94c-.165 0-.33-.02-.495-.07l-63.05-17.56a1.853 1.853 0 0 1-1.285-2.275 1.853 1.853 0 0 1 2.275-1.285l63.05 17.56a1.845 1.845 0 0 1-.49 3.625l-.005.005ZM365.965 278.72c-.165 0-.33-.02-.495-.07l-63.05-17.56a1.853 1.853 0 0 1-1.285-2.275 1.853 1.853 0 0 1 2.275-1.285l63.05 17.56a1.845 1.845 0 0 1-.49 3.625l-.005.005ZM365.965 287.5c-.165 0-.33-.02-.495-.07l-63.05-17.56a1.853 1.853 0 0 1-1.285-2.275 1.849 1.849 0 0 1 2.275-1.285l63.05 17.56a1.845 1.845 0 0 1-.49 3.625l-.005.005ZM365.965 296.28c-.165 0-.33-.02-.495-.07l-63.05-17.56a1.853 1.853 0 0 1-1.285-2.275 1.853 1.853 0 0 1 2.275-1.285l63.05 17.56a1.845 1.845 0 0 1-.49 3.625l-.005.005ZM365.965 305.06c-.165 0-.33-.02-.495-.07l-63.05-17.56a1.853 1.853 0 0 1-1.285-2.275 1.849 1.849 0 0 1 2.275-1.285l63.05 17.56a1.845 1.845 0 0 1-.49 3.625l-.005.005ZM383.922 252.032l-6.708 5.5 1.756 2.142 6.708-5.5-1.756-2.142Z"/></svg>