<svg xmlns="http://www.w3.org/2000/svg" width="400" height="400" fill="none" viewBox="0 0 400 400"><path fill="#DADADA" d="M331.995 156.22H94.145v175.985h237.85V156.22Z"/><path fill="#222" d="M325.59 328.78H87.74c-.765 0-1.385-.62-1.385-1.385V151.41c0-.765.62-1.385 1.385-1.385h237.85c.765 0 1.385.62 1.385 1.385v175.985c0 .765-.62 1.385-1.385 1.385Zm-236.465-2.77h235.08V152.795H89.125V326.01Z"/><path fill="#444" d="M235.495 80.255H56.7v228.83h178.795V80.255Z"/><path fill="#fff" d="M243.675 73.835H67.6v227.2h176.075v-227.2Z"/><path fill="#222" d="M243.675 302.425H67.6c-.765 0-1.385-.62-1.385-1.385V73.835c0-.765.62-1.385 1.385-1.385h176.075c.765 0 1.385.62 1.385 1.385v227.2c0 .765-.62 1.385-1.385 1.385v.005Zm-174.69-2.77H242.29V75.22H68.985v224.435Z"/><path fill="#222" d="M227.56 130.16H82.695v7.38H227.56v-7.38ZM227.56 160.58H82.695v7.385H227.56v-7.385ZM227.56 99.745H82.695v7.38H227.56v-7.38ZM227.56 191H82.695v7.385H227.56V191ZM227.56 221.415H82.695v7.385H227.56v-7.385ZM191.465 251.835H82.695v7.385h108.77v-7.385Z"/><path fill="#fff" d="M252.69 64.825H76.615v227.2H252.69v-227.2Z"/><path fill="#222" d="M252.69 293.41H76.615c-.765 0-1.385-.62-1.385-1.385v-227.2c0-.765.62-1.385 1.385-1.385H252.69c.765 0 1.385.62 1.385 1.385v227.2c0 .765-.62 1.385-1.385 1.385ZM78 290.64h173.305V66.21H78v224.435-.005Z"/><path fill="#222" d="M236.575 164.05H91.71v3.69h144.865v-3.69ZM236.575 189.355H91.71v3.69h144.865v-3.69ZM236.575 138.75H91.71v3.69h144.865v-3.69ZM236.575 214.66H91.71v3.69h144.865v-3.69ZM236.575 239.96H91.71v3.69h144.865v-3.69ZM186.165 265.265H91.71v3.69h94.455v-3.69Z"/><path fill="#DADADA" d="M225.66 84.02h-25.18v56.575h25.18V84.02Z"/><path fill="#222" d="M227.505 142.44h-28.87V82.175h28.87v60.265Zm-25.18-3.69h21.49V85.865h-21.49v52.885Z"/><path fill="#DADADA" d="M177.295 103.01h-25.18v37.585h25.18V103.01Z"/><path fill="#222" d="M179.145 142.44h-28.87v-41.275h28.87v41.275Zm-25.18-3.69h21.49v-33.89h-21.49v33.89Z"/><path fill="#DADADA" d="M128.935 120.23h-25.18v20.365h25.18V120.23Z"/><path fill="#222" d="M130.78 142.44h-28.87v-24.055h28.87v24.055Zm-25.18-3.69h21.49v-16.675H105.6v16.675Z"/><path fill="#F5F4F3" d="M218.49 264.985c27.573 0 49.925-22.352 49.925-49.925 0-27.573-22.352-49.925-49.925-49.925-27.573 0-49.925 22.352-49.925 49.925 0 27.573 22.352 49.925 49.925 49.925Z"/><path fill="#222" d="M218.49 265.91c-28.035 0-50.845-22.81-50.845-50.845s22.81-50.845 50.845-50.845 50.845 22.81 50.845 50.845-22.81 50.845-50.845 50.845Zm0-99.845c-27.02 0-49 21.98-49 49s21.98 49 49 49 49-21.98 49-49-21.98-49-49-49Z"/><path fill="#FF3158" d="m183.896 214.89 9.4-8.905 18.589 19.79 33.006-37.28 8.19 9.9-41.196 46.02-27.989-29.525Z"/><path fill="#222" d="M211.885 245.8c-.38 0-.745-.155-1.005-.43l-27.99-29.525a1.39 1.39 0 0 1 .05-1.96l9.4-8.905c.27-.255.625-.375.99-.38.37.01.715.165.97.435l17.55 18.68 31.995-36.145c.265-.295.64-.465 1.035-.465h.025c.405.005.785.19 1.045.5l8.19 9.9c.435.53.42 1.295-.035 1.805l-41.195 46.02c-.26.29-.625.455-1.01.46h-.02l.005.01Zm-26.03-30.855 26.005 27.43 39.395-44.01-6.4-7.735-31.93 36.07a1.385 1.385 0 0 1-2.045.03l-17.64-18.775-7.385 6.995v-.005Z"/><path fill="#FF3158" d="M268.09 170.2c-24.765-27.395-67.045-29.525-94.435-4.76-27.39 24.76-29.52 67.04-4.76 94.43 24.765 27.395 67.045 29.525 94.435 4.76 27.39-24.76 29.52-67.04 4.76-94.43Zm-16.025 81.975c-20.51 18.54-52.17 16.945-70.71-3.565-18.545-20.51-16.95-52.17 3.56-70.71 20.51-18.545 52.17-16.945 70.71 3.565 18.545 20.51 16.95 52.165-3.56 70.71Z"/><path fill="#222" d="M218.52 283.245c-18.635 0-37.205-7.565-50.66-22.45-25.235-27.915-23.055-71.15 4.86-96.385s71.155-23.055 96.39 4.86 23.055 71.15-4.86 96.385c-13.035 11.785-29.41 17.59-45.735 17.59h.005Zm-.065-133.655c-15.665 0-31.37 5.57-43.88 16.875-26.78 24.21-28.87 65.695-4.66 92.475 24.215 26.78 65.7 28.875 92.48 4.66 26.78-24.21 28.87-65.695 4.66-92.475-12.905-14.275-30.725-21.54-48.605-21.54l.005.005Zm.095 116.895c-.88 0-1.765-.02-2.65-.065-13.725-.69-26.36-6.69-35.575-16.88-9.22-10.195-13.915-23.365-13.22-37.095.69-13.725 6.685-26.36 16.88-35.575 10.195-9.215 23.37-13.905 37.095-13.22 13.725.695 26.36 6.69 35.575 16.885 9.215 10.195 13.915 23.365 13.22 37.09-.69 13.725-6.685 26.36-16.88 35.575-9.535 8.62-21.68 13.285-34.44 13.285h-.005Zm-.125-100.13c-12.075 0-23.565 4.415-32.585 12.57-9.645 8.72-15.32 20.67-15.975 33.66-.655 12.985 3.79 25.45 12.51 35.095 8.72 9.645 20.675 15.32 33.66 15.975 12.985.655 25.45-3.785 35.095-12.505s15.32-20.675 15.97-33.66c.655-12.985-3.79-25.45-12.51-35.095-8.72-9.645-20.675-15.32-33.66-15.975-.84-.04-1.675-.065-2.51-.065h.005Z"/><path fill="#444" d="m267.73 260.347-9.162 8.281 16.084 17.794 9.162-8.281-16.084-17.794Z"/><path fill="#222" d="m274.55 288.35-17.94-19.845 11.215-10.14 17.94 19.845-11.215 10.14Zm-14.03-19.65 14.23 15.74 7.105-6.425-14.23-15.74-7.105 6.425Z"/><path fill="#444" d="m290.85 272.019-23.295 21.056 44.867 49.637 23.294-21.055-44.866-49.638Z"/><path fill="#222" d="M312.425 344.065c-.38 0-.755-.155-1.025-.455l-44.87-49.635a1.38 1.38 0 0 1 .1-1.955l23.295-21.055a1.386 1.386 0 0 1 1.955.1l44.87 49.635c.245.27.375.63.355 1-.02.365-.18.71-.455.955l-23.295 21.055c-.265.24-.595.355-.93.355Zm-42.915-50.92 43.015 47.58 21.24-19.2-43.015-47.58-21.24 19.2Z"/></svg>