<svg xmlns="http://www.w3.org/2000/svg" width="400" height="401" fill="none" viewBox="0 0 400 401"><path fill="#222" d="M240.84 81.675H74.685V294.33H240.84V81.675Z"/><path fill="#fff" d="M248.44 75.71H84.815v211.14H248.44V75.71Z"/><path fill="#222" d="M248.445 288.235H84.815c-.765 0-1.385-.62-1.385-1.385V75.71c0-.765.62-1.385 1.385-1.385h163.63c.765 0 1.385.62 1.385 1.385v211.14c0 .765-.62 1.385-1.385 1.385ZM86.2 285.465h160.86V77.095H86.2V285.47v-.005Z"/><path fill="#222" d="M233.47 127.789H98.845v7.385H233.47v-7.385ZM233.47 156.06H98.845v7.385H233.47v-7.385ZM233.47 99.524H98.845v7.385H233.47v-7.385ZM233.47 184.33H98.845v7.385H233.47v-7.385ZM233.47 212.594H98.845v7.385H233.47v-7.385ZM199.93 240.864H98.845v7.385H199.93v-7.385Z"/><path fill="#fff" d="M256.815 67.335H93.19v211.14h163.625V67.335Z"/><path fill="#222" d="M256.82 279.86H93.19c-.765 0-1.385-.62-1.385-1.385V67.335c0-.765.62-1.385 1.385-1.385h163.625c.765 0 1.385.62 1.385 1.385v211.14c0 .765-.62 1.385-1.385 1.385h.005Zm-162.245-2.77h160.86V68.72H94.575v208.375-.005Z"/><path fill="#222" d="M241.845 159.415H107.22v3.69h134.625v-3.69ZM241.845 182.93H107.22v3.69h134.625v-3.69ZM241.845 135.9H107.22v3.69h134.625v-3.69ZM241.845 206.445H107.22v3.69h134.625v-3.69ZM241.845 229.96H107.22v3.69h134.625v-3.69ZM195 253.475h-87.78v3.69H195v-3.69Z"/><path fill="#DADADA" d="M231.705 85.17h-23.4v52.575h23.4V85.17Z"/><path fill="#222" d="M233.55 139.595h-27.09v-56.27h27.09v56.27Zm-23.4-3.69h19.71V87.02h-19.71v48.885Z"/><path fill="#DADADA" d="M186.76 102.82h-23.4v34.925h23.4V102.82Z"/><path fill="#222" d="M188.606 139.596h-27.09v-38.62h27.09v38.62Zm-23.4-3.69h19.71v-31.235h-19.71v31.235Z"/><path fill="#DADADA" d="M141.815 118.819h-23.4v18.925h23.4v-18.925Z"/><path fill="#222" d="M143.66 139.594h-27.09v-22.615h27.09v22.615Zm-23.4-3.69h19.71v-15.235h-19.71v15.235Z"/><path fill="#F5F4F3" d="M225.04 253.345c25.623 0 46.395-20.772 46.395-46.395 0-25.624-20.772-46.395-46.395-46.395-25.623 0-46.395 20.771-46.395 46.395 0 25.623 20.772 46.395 46.395 46.395Z"/><path fill="#222" d="M225.04 254.27c-26.09 0-47.315-21.225-47.315-47.315 0-26.09 21.225-47.315 47.315-47.315 26.09 0 47.315 21.225 47.315 47.315 0 26.09-21.225 47.315-47.315 47.315Zm0-92.79c-25.075 0-45.47 20.4-45.47 45.47s20.4 45.47 45.47 45.47 45.47-20.4 45.47-45.47-20.4-45.47-45.47-45.47Z"/><path fill="#FF3158" d="m192.891 206.79 8.735-8.275 17.275 18.39 30.67-34.645 7.615 9.2-38.285 42.77-26.01-27.44Z"/><path fill="#222" d="M218.9 235.615c-.38 0-.745-.155-1.005-.43l-26.01-27.435a1.369 1.369 0 0 1-.38-.99c.01-.37.165-.715.43-.97l8.735-8.275c.265-.25.63-.37.99-.38.37.01.715.17.97.435l16.235 17.285 29.665-33.51c.265-.295.64-.465 1.035-.465h.025c.405.005.785.19 1.045.5l7.61 9.2c.435.53.42 1.295-.035 1.805l-38.28 42.765c-.26.29-.625.455-1.01.46h-.02v.005Zm-24.055-28.77 24.025 25.34 36.485-40.76-5.82-7.035-29.595 33.435c-.26.29-.625.46-1.015.465a1.466 1.466 0 0 1-1.03-.435L201.57 200.48l-6.72 6.365h-.005Z"/><path fill="#FF3158" d="M271.13 165.26c-23.015-25.46-62.305-27.44-87.76-4.425-25.45 23.01-27.435 62.305-4.425 87.755 23.015 25.46 62.305 27.44 87.76 4.425 25.45-23.01 27.435-62.305 4.425-87.755Zm-14.89 76.18c-19.06 17.23-48.485 15.745-65.715-3.315-17.235-19.06-15.755-48.485 3.31-65.715 19.06-17.235 48.485-15.745 65.715 3.315 17.235 19.06 15.75 48.48-3.31 65.715Z"/><path fill="#222" d="M225.115 270.445c-1.09 0-2.18-.025-3.27-.085-16.945-.855-32.54-8.255-43.92-20.845-11.375-12.585-17.17-28.845-16.315-45.79.855-16.945 8.255-32.54 20.84-43.92 25.98-23.485 66.23-21.46 89.715 4.52 11.375 12.585 17.17 28.845 16.315 45.79-.855 16.945-8.255 32.54-20.84 43.92-11.775 10.645-26.765 16.405-42.52 16.405l-.005.005Zm-.105-124.24c-14.535 0-29.105 5.165-40.71 15.66-12.035 10.88-19.115 25.795-19.93 42.005-.815 16.205 4.725 31.76 15.605 43.795 10.885 12.04 25.8 19.12 42.005 19.935 16.205.815 31.76-4.725 43.8-15.61 12.035-10.88 19.115-25.795 19.93-42.005.815-16.205-4.725-31.76-15.605-43.795-11.975-13.245-28.505-19.985-45.095-19.985Zm.085 108.63c-.82 0-1.645-.02-2.47-.06-12.78-.645-24.545-6.23-33.125-15.72-8.585-9.495-12.955-21.76-12.31-34.54.645-12.78 6.225-24.545 15.72-33.125 9.495-8.585 21.755-12.96 34.54-12.31 12.78.645 24.545 6.23 33.125 15.72 17.715 19.595 16.19 49.95-3.41 67.67-8.88 8.025-20.19 12.37-32.07 12.37v-.005Zm-.115-93.055c-11.2 0-21.85 4.095-30.215 11.655-8.945 8.085-14.205 19.17-14.81 31.21-.605 12.04 3.515 23.6 11.6 32.545 8.085 8.945 19.17 14.205 31.21 14.81 12.04.615 23.6-3.51 32.545-11.595 18.465-16.695 19.905-45.295 3.21-63.76-8.085-8.945-19.17-14.205-31.215-14.815a45.44 45.44 0 0 0-2.33-.06l.005.01Z"/><path fill="#444" d="m270.793 249.036-8.513 7.694 14.947 16.536 8.513-7.694-14.947-16.536Z"/><path fill="#222" d="m277.13 275.195-16.805-18.59 10.565-9.555 16.805 18.59-10.565 9.555Zm-12.895-18.39 13.09 14.48 6.46-5.84-13.09-14.48-6.46 5.84Z"/><path fill="#444" d="m292.282 259.882-21.648 19.567 41.695 46.129 21.648-19.567-41.695-46.129Z"/><path fill="#222" d="M312.335 326.93c-.38 0-.755-.155-1.025-.455l-41.7-46.125a1.379 1.379 0 0 1-.355-1c.02-.37.18-.71.455-.955l21.645-19.57c.27-.245.62-.385 1-.355.365.02.71.18.955.455l41.7 46.125c.245.27.375.63.355 1-.02.37-.18.71-.455.955l-21.645 19.57c-.265.24-.595.355-.93.355Zm-39.745-47.41 39.84 44.07 19.595-17.71-39.84-44.07-19.595 17.71Z"/></svg>