<svg xmlns="http://www.w3.org/2000/svg" width="400" height="401" fill="none" viewBox="0 0 400 401"><path fill="#DADADA" d="M332.35 156.085H93.88V332.53h238.47V156.085Z"/><path fill="#222" d="M325.93 329.095H87.455c-.765 0-1.385-.62-1.385-1.385V151.265c0-.765.62-1.385 1.385-1.385h238.47c.765 0 1.385.62 1.385 1.385V327.71c0 .765-.62 1.385-1.385 1.385h.005Zm-237.09-2.77h235.705V152.65H88.84v173.675Z"/><path fill="#222" d="M235.59 79.925H56.33v229.43h179.26V79.925Z"/><path fill="#fff" d="M243.8 73.49H67.265v227.8H243.8V73.49Z"/><path fill="#222" d="M243.8 302.67H67.265c-.765 0-1.385-.62-1.385-1.385V73.49c0-.765.62-1.385 1.385-1.385H243.8c.765 0 1.385.62 1.385 1.385v227.8c0 .765-.62 1.385-1.385 1.385v-.005ZM68.65 299.9h173.765V74.87H68.645V299.9h.005Z"/><path fill="#222" d="M227.64 129.97H82.395v7.38H227.64v-7.38ZM227.64 160.47H82.395v7.385H227.64v-7.385ZM227.64 99.475H82.395v7.38H227.64v-7.38ZM227.64 190.965H82.395v7.385H227.64v-7.385ZM227.64 221.465H82.395v7.385H227.64v-7.385ZM191.455 251.96H82.395v7.385h109.06v-7.385Z"/><path fill="#fff" d="M252.835 64.45H76.3v227.8h176.535V64.45Z"/><path fill="#222" d="M252.835 293.635H76.3c-.765 0-1.385-.62-1.385-1.385V64.45c0-.765.62-1.385 1.385-1.385h176.535c.765 0 1.385.62 1.385 1.385v227.8c0 .765-.62 1.385-1.385 1.385Zm-175.15-2.77H251.45V65.835H77.685v225.03Z"/><path fill="#222" d="M236.68 163.945H91.435v3.69H236.68v-3.69ZM236.68 189.315H91.435v3.69H236.68v-3.69ZM236.68 138.575H91.435v3.69H236.68v-3.69ZM236.68 214.685H91.435v3.69H236.68v-3.69ZM236.68 240.055H91.435v3.69H236.68v-3.69ZM186.14 265.425H91.435v3.69h94.705v-3.69Z"/><path fill="#DADADA" d="M225.735 83.695H200.49v56.725h25.245V83.695Z"/><path fill="#222" d="M227.585 142.265h-28.94V81.85h28.94v60.415Zm-25.245-3.69h21.555V85.54H202.34v53.035Z"/><path fill="#DADADA" d="M177.245 102.735H152v37.68h25.245v-37.68Z"/><path fill="#222" d="M179.095 142.265h-28.94V100.89h28.94v41.375Zm-25.245-3.69h21.555v-33.99H153.85v33.99Z"/><path fill="#DADADA" d="M128.755 120H103.51v20.42h25.245V120Z"/><path fill="#222" d="M130.605 142.265h-28.94v-24.11h28.94v24.11Zm-25.245-3.69h21.555v-16.73H105.36v16.73Z"/><path fill="#F5F4F3" d="M218.545 265.135c27.644 0 50.055-22.41 50.055-50.055 0-27.644-22.411-50.055-50.055-50.055-27.645 0-50.055 22.411-50.055 50.055 0 27.645 22.41 50.055 50.055 50.055Z"/><path fill="#222" d="M218.545 266.06c-28.11 0-50.98-22.87-50.98-50.98 0-28.11 22.87-50.98 50.98-50.98 28.11 0 50.98 22.87 50.98 50.98 0 28.11-22.87 50.98-50.98 50.98Zm0-100.11c-27.09 0-49.13 22.04-49.13 49.13 0 27.09 22.04 49.13 49.13 49.13 27.09 0 49.13-22.04 49.13-49.13 0-27.09-22.04-49.13-49.13-49.13Z"/><path fill="#FF3158" d="m183.865 214.91 9.425-8.93 18.635 19.845 33.09-37.38 8.215 9.925-41.305 46.14-28.06-29.6Z"/><path fill="#222" d="M211.925 245.895c-.38 0-.745-.155-1.005-.43l-28.06-29.6a1.39 1.39 0 0 1 .05-1.96l9.425-8.93c.27-.255.625-.375.99-.38.37.01.715.165.97.435l17.6 18.735 32.085-36.24c.27-.305.655-.5 1.06-.465.405.005.785.19 1.045.5l8.21 9.925c.435.53.42 1.295-.035 1.805l-41.3 46.14c-.26.29-.625.455-1.01.46h-.02l-.005.005ZM185.82 214.96l26.075 27.505L251.4 198.33l-6.42-7.765-32.015 36.165c-.26.29-.625.46-1.015.465a1.36 1.36 0 0 1-1.03-.435l-17.69-18.83-7.41 7.02v.01Z"/><path fill="#FF3158" d="M268.275 170.105c-24.83-27.465-67.22-29.605-94.685-4.775-27.46 24.825-29.595 67.22-4.775 94.68 24.83 27.465 67.22 29.605 94.685 4.775 27.46-24.825 29.595-67.22 4.775-94.68Zm-16.065 82.19c-20.565 18.59-52.31 16.99-70.9-3.575-18.595-20.565-16.995-52.31 3.57-70.895 20.565-18.595 52.31-16.99 70.9 3.575 18.595 20.565 16.995 52.3-3.57 70.895Z"/><path fill="#222" d="M218.625 283.475c-1.17 0-2.345-.03-3.525-.09-18.25-.92-35.055-8.895-47.31-22.45-25.3-27.985-23.115-71.335 4.87-96.635 27.985-25.3 71.34-23.115 96.64 4.87 25.3 27.985 23.115 71.335-4.87 96.635-12.68 11.465-28.83 17.67-45.805 17.67Zm-.11-134.04c-15.705 0-31.455 5.585-43.995 16.92-26.855 24.275-28.95 65.87-4.675 92.725 11.76 13.01 27.885 20.66 45.395 21.545 17.515.88 34.325-5.11 47.335-16.87 26.85-24.275 28.945-65.87 4.675-92.725-12.94-14.315-30.81-21.595-48.735-21.595Zm.095 117.2c-.885 0-1.77-.02-2.66-.065-13.76-.695-26.425-6.705-35.665-16.925-9.24-10.22-13.95-23.425-13.255-37.19.695-13.76 6.705-26.425 16.925-35.665 10.22-9.24 23.425-13.955 37.19-13.25 13.76.695 26.425 6.705 35.665 16.925 9.24 10.22 13.95 23.425 13.255 37.185-.695 13.76-6.705 26.425-16.925 35.665-9.56 8.64-21.735 13.315-34.53 13.315v.005Zm-.125-100.395c-12.11 0-23.625 4.425-32.675 12.605-9.67 8.74-15.36 20.73-16.015 33.75-.655 13.02 3.8 25.52 12.545 35.19 8.74 9.67 20.73 15.36 33.75 16.015 13.02.655 25.52-3.795 35.19-12.54 9.67-8.745 15.36-20.73 16.015-33.75.655-13.02-3.8-25.52-12.545-35.19-8.745-9.67-20.73-15.36-33.75-16.02a52.98 52.98 0 0 0-2.52-.065l.005.005Z"/><path fill="#444" d="m267.912 260.484-9.184 8.301 16.127 17.842 9.184-8.302-16.127-17.841Z"/><path fill="#222" d="M274.755 288.555 256.77 268.66l11.24-10.16 17.985 19.895-11.24 10.16ZM260.68 268.86l14.27 15.785 7.13-6.445-14.27-15.785-7.13 6.445Z"/><path fill="#444" d="m291.093 272.192-23.354 21.109 44.985 49.767 23.353-21.109-44.984-49.767Z"/><path fill="#222" d="M312.73 344.42c-.38 0-.755-.155-1.025-.455L266.72 294.2a1.38 1.38 0 0 1 .1-1.955l23.355-21.11a1.384 1.384 0 0 1 1.955.1L337.115 321c.245.27.375.63.355 1-.02.365-.18.71-.455.955l-23.355 21.11c-.265.24-.595.355-.93.355Zm-43.03-51.05 43.13 47.71 21.3-19.255-43.13-47.71-21.3 19.255Z"/></svg>