<svg xmlns="http://www.w3.org/2000/svg" width="400" height="400" fill="none" viewBox="0 0 400 400"><path fill="#444" d="M181.5 299.45c0 2.6-2.1 4.75-4.75 4.75h-50.9c-2.85 0-5.15-2.3-5.15-5.15 0-2.85 2.3-5.15 5.15-5.15 1.45 0 2.75.6 3.7 1.55v-.25c0-5 4.05-9.05 9.05-9.05 1.5 0 2.9.35 4.15 1 1.9-7.3 8.55-12.7 16.4-12.7 9.35 0 16.95 7.6 16.95 16.95 0 1.15-.1 2.3-.35 3.4.35-.05.7-.1 1.05-.1 2.6 0 4.7 2.15 4.7 4.75ZM298.65 117.7c0 4.5-3.65 8.15-8.15 8.15h-63.85c-4.5 0-8.15-3.65-8.15-8.15s3.65-8.15 8.15-8.15c.6 0 1.2.05 1.75.2-.25-1.2-.4-2.45-.4-3.75 0-10.3 8.35-18.6 18.6-18.6 9 0 16.55 6.4 18.25 14.9 2.15-1.8 4.95-2.9 7.95-2.9 6.75 0 12.25 5.4 12.4 12.1a8.01 8.01 0 0 1 5.2-1.9c4.6-.05 8.25 3.6 8.25 8.1Z"/><path fill="#D9D9D9" d="M173.55 128.75h-6.25a2.56 2.56 0 0 1-2.55-2.55V87.65c0-1.7-1.65-2.95-3.3-2.45l-18.7 5.45c-1.1.3-1.85 1.3-1.85 2.45v33.1c0 1.4-1.15 2.55-2.55 2.55h-16.5a2.56 2.56 0 0 1-2.55-2.55V87.65c0-1.7-1.65-2.95-3.3-2.45l-18.7 5.45c-1.1.3-1.85 1.3-1.85 2.45v33.1c0 1.4-1.15 2.55-2.55 2.55H75.3a2.56 2.56 0 0 0-2.55 2.55v13.85c0 1.1-.7 2.05-1.75 2.45-1.65.55-3.4-.65-3.4-2.45V120.2c0-1.7-1.65-2.95-3.3-2.45l-18.7 5.45c-1.1.3-1.85 1.3-1.85 2.45v29.75c0 1.05-.65 2.05-1.65 2.4L28.2 163c-1 .35-1.65 1.35-1.65 2.4v56.7c0 .7.3 1.4.8 1.9l24.35 22.55c.45.45 1.1.7 1.75.7h135.7c1.4 0 2.55-1.15 2.55-2.55v-99.9c0-.75-.3-1.45-.9-1.95l-15.55-13.45c-.5-.4-1.1-.65-1.7-.65Z"/><path fill="#fff" d="M88.75 176.55 52.4 189l-21.75-15.85v45.9l65.3.4c1 0 1.95.4 2.65 1.05l6.65 6.05 17.6 16.3v-66.3h-34.1Z"/><path fill="#FF0052" d="M174.5 209.15h-34.3v38.1h34.3v-38.1Z"/><path fill="#222" d="M51 190.95v-8.45l37.5-12.85h35.9v8.3H89l-38 13Zm2.8-6.5v2.6l34.75-11.9h33.15v-2.75H89l-35.2 12.05ZM191.65 150.5H87.35v-8.25h104.3V145H90.15v2.75h101.5v2.75ZM175.9 248.6h-37.05v-40.85h37.05v40.85Zm-34.3-2.75h31.55V210.5H141.6v35.35Z"/><path fill="#222" d="M158.7 209.15h-2.75v38.1h2.75v-38.1ZM141.6 248.6h-19.9V147.75h19.9V248.6Zm-17.15-2.75h14.4V150.5h-14.4v95.35Z"/><path fill="#222" d="M124.45 172.4H104.5v-24.65h19.9v24.65h.05Zm-17.15-2.75h14.4V150.5h-14.4v19.15Z"/><path fill="#222" d="M107.3 172.4H87.4v-24.65h19.9v24.65Zm-17.15-2.75h14.35V150.5H90.1v19.15h.05ZM158.75 210.5h-19.9v-62.75h19.9v62.75Zm-17.15-2.75H156V150.5h-14.4v57.25Z"/><path fill="#222" d="M175.9 210.5H156v-62.75h19.9v62.75Zm-17.15-2.75h14.4V150.5h-14.4v57.25Z"/><path fill="#222" d="M193.049 248.6h-19.9V147.75h19.9V248.6Zm-17.15-2.75h14.4V150.5h-14.4v95.35ZM124.45 248.6h-70.5c-1.35 0-2.65-.5-3.65-1.45L26.85 225.4c-1.1-1-1.7-2.45-1.7-3.95v-58.8l47.15-16.9.95 2.6-45.3 16.25v56.9c0 .75.3 1.4.85 1.9l23.45 21.75c.5.45 1.1.7 1.8.7h67.7v-67.9h-7.25v-2.75h9.95v73.4Z"/><path fill="#222" d="M53.8 247.251H51v-63.1l-25.35-19.4 1.7-2.2 26.45 20.25v64.45ZM90.15 176.55h-2.8V144.2L71.8 129.8l1.9-2.05L90.15 143v33.55Z"/><path fill="#222" d="m87.8 172.051-16.45-15.25v-24.05c0-2.95 2.4-5.4 5.4-5.4h97.15c1.45 0 2.9.55 3.95 1.55l13.45 12.45c1.1 1 1.7 2.45 1.7 3.95v5.35h-2.75v-5.35c0-.75-.3-1.45-.85-1.9l-13.4-12.45c-.55-.55-1.3-.8-2.1-.8H76.75c-1.45 0-2.6 1.15-2.6 2.6v22.8l15.55 14.45-1.9 2.05ZM187.65 248.601h-90.5v-2.75h90.5c1.45 0 2.6-1.15 2.6-2.6v-72.2H193v72.2c.05 2.95-2.4 5.35-5.35 5.35ZM98.55 176.551H95.8v46.65h2.75v-46.65Z"/><path fill="#222" d="m122.1 248.251-24.75-22.95c-.5-.45-1.1-.7-1.8-.7h-68.6v-2.75H95.6c1.35 0 2.65.5 3.65 1.45l24.75 22.95-1.9 2ZM27.33 168.921l-1.674 2.182 25.868 19.84 1.673-2.182-25.868-19.84ZM73.677 134.15l-1.87 2.017 16.023 14.856 1.87-2.017-16.023-14.856Z"/><path fill="#D9D9D9" d="m95.2 90.95.35 43.05c0 2.65 5.4 4.75 12 4.75 6.15 0 11.25-1.85 11.95-4.2.05-.2.1-.35.1-.55l-.35-49.2"/><path fill="#222" d="M107.55 140.1c-8.8 0-13.4-3.1-13.4-6.15L93.8 90.9h2.75l.35 43.05c0 1.15 3.75 3.4 10.65 3.4 6.2 0 10.2-1.9 10.6-3.2 0-.05.05-.1.05-.15l-.35-49.2h2.75l.35 49.2c0 .35-.05.65-.15.95-1.05 3.55-7.6 5.15-13.25 5.15Z"/><path fill="#444" d="M119.15 83.85c.05.2.1.35.1.55 0 2.5-4.5 5.8-10.6 7.65-6.6 2-12.55 1.6-13.35-.9-.05-.2-.1-.35-.1-.55 0-2.5 4.5-5.75 10.6-7.65 6.6-2 12.6-1.6 13.35.9Z"/><path fill="#D9D9D9" d="m43.75 124.75.15 43.05c0 2.65 5.55 5.8 12.1 4.75 6.9-1.1 11.95-5.25 11.95-9.6 0-4.3-.25-44.4-.25-44.4"/><path fill="#222" d="M53.4 174.15c-4.05 0-7.3-1.45-9-2.9-1.25-1.05-1.9-2.25-1.9-3.5l-.15-43.05h2.75l.15 43.05c0 .3.25.8.95 1.35 1.75 1.5 5.4 2.7 9.6 2.05 6.15-1 10.75-4.5 10.75-8.25 0-4.25-.25-43.95-.25-44.4h2.75c0 .4.25 40.15.25 44.4 0 5.15-5.5 9.75-13.1 10.95-.95.25-1.9.3-2.8.3Z"/><path fill="#444" d="M67.6 117.7c.05.2.1.35.1.55 0 2.5-4.5 5.8-10.6 7.65-6.6 2-12.45 1.6-13.25-.9-.05-.2-.1-.35-.1-.55 0-2.5 4.4-5.75 10.5-7.65 6.6-2.05 12.6-1.65 13.35.9Z"/><path fill="#D9D9D9" d="m140.85 90.95.35 43.05c0 2.65 5.4 4.75 12 4.75 6.15 0 11.25-1.85 11.95-4.2.05-.2.1-.35.1-.55l-.35-49.2"/><path fill="#222" d="M153.2 140.1c-8.8 0-13.4-3.1-13.4-6.15l-.35-43.05h2.75l.35 43.05c0 1.15 3.75 3.4 10.65 3.4 6.2 0 10.2-1.9 10.6-3.2 0-.05.05-.1.05-.15l-.35-49.2h2.75l.35 49.2c0 .35-.05.65-.15.95-1.05 3.55-7.65 5.15-13.25 5.15Z"/><path fill="#444" d="M164.8 83.85c.05.2.1.35.1.55 0 2.5-4.5 5.8-10.6 7.65-6.6 2-12.55 1.6-13.35-.9-.05-.2-.1-.35-.1-.55 0-2.5 4.5-5.75 10.6-7.65 6.6-2 12.55-1.6 13.35.9Z"/><path fill="#fff" d="M232.601 258.25v-8.45l6.2-2.1.9 2.6h-.05l-4.3 1.5v2.6l2.85-.95.9 2.6-6.5 2.2Zm11-3.8-.9-2.6 15.15-5.2.9 2.6-15.15 5.2Zm.6-5.7-.9-2.6 15.15-5.2.9 2.6-15.15 5.2Zm19.1-1-.9-2.6 7.7-2.65h8.35v2.75h-7.85l-7.3 2.5Zm35.95-2.5h-16.05l.05-2.75h16.05v2.75h-.05Zm-35.35-3.15-.95-2.75 7.1-2.45h9v2.75h-8.5l-6.65 2.25v.2Zm36-2.4-16.05-.05.05-2.75h16.05v2.8h-.05ZM373.25 217.8H357.2v-2.75h16.05v2.75Zm-20.8 0H336.4v-2.75h16.05v2.75Zm-20.8 0H315.6v-2.75h16v2.75h.05Zm-20.8 0H294.8v-2.75h16.05v2.75Zm-20.8 0H274l.05-2.75h16.05v2.75h-.05Zm-18.3-2.5H269v-5.8h13v2.75h-10.2v3.05h-.05Zm101.05-3h-2.85v-2.75h2.85v2.75Zm-7.6 0h-16.05v-2.75h16.05v2.75Zm-20.8 0h-16.05v-2.75h16v2.75h.05Zm-20.85 0H307.5v-2.75h16v2.75h.05Zm-20.8 0H286.7l.05-2.75h16.05v2.75h-.05ZM351.801 277.5h-25.7v2.75h25.7v-2.75Z"/><path fill="#fff" d="m288.901 238.351-2.8-.05v-16h2.8v16.05Z"/><path fill="#fff" d="m288.901 236.601-2.8-.05v-16h2.8v16.05ZM323.15 314.551h-2.75v-16.05h2.75v16.05Zm0-20.8h-2.75v-16.05h2.75v16.05Zm0-20.85h-2.75v-16h2.75v16Zm0-20.8-2.75-.05v-16h2.75v16.05Zm0-20.8h-2.75v-10.75h2.75v10.75ZM340.3 314.55h-2.75V303.8h2.75v10.75Zm0-15.55h-2.75v-16.05h2.75V299Zm0-20.8-2.75-.05v-16h2.75v16.05Zm0-20.8h-2.75v-16.05h2.75v16.05Zm0-20.8-2.75-.05V220.5h2.75v16.1ZM357.45 314.55h-2.75V303.8h2.75v10.75Zm0-15.55h-2.75v-16.05h2.75V299Zm0-20.8-2.75-.05v-16h2.75v16.05Zm0-20.8h-2.75v-16h2.75v16Zm0-20.8-2.75-.05V220.5h2.75v16.1ZM235.35 314.551h-2.75v-16.05h2.75v16.05Zm0-20.8h-2.75v-16.05h2.75v16.05Zm0-20.85h-2.75v-16h2.75v16Zm0-20.8h-2.75v-.65l-11.1-8.55 1.7-2.2 12.2 9.35v2.05h-.05Zm-17.65-12.05-10.5-8.05 1.7-2.2 10.45 8-1.65 2.25ZM271.75 243.9H269v-16.05l2.75.05v16Zm0-20.85H269V211.5l-2.4-2.2 1.85-2 3.3 3.05v12.7Zm-8.7-17-8.75-8.1 1.9-2.05 8.75 8.1-1.9 2.05ZM280.15 285.9h-2.75v-16.05h2.75v16.05Zm0-20.8-2.75-.05V249h2.75v16.1Z"/><path fill="#fff" d="m302.25 314.2-11.75-10.9 1.85-2 11.75 10.9-1.85 2ZM287 300.05l-8.05-7.45c-.5-.45-1.1-.7-1.8-.7l-2.1-.05v-2.75h2.05c1.35 0 2.65.5 3.65 1.45l8.05 7.45-1.8 2.05Zm-16.65-8.15-16.05-.05.05-2.75h16.05v2.8h-.05Zm-20.8 0-16.05-.05v-2.75h16v2.8h.05Zm-20.8 0-16.05-.05.05-2.75h16.05v2.8h-.05ZM233.15 258.25l-12.75-9.75 1.7-2.2 12.7 9.75-1.65 2.2Zm-16.5-12.7-9.4-7.2 1.7-2.2 9.4 7.2-1.7 2.2ZM258.107 204.045l-1.87 2.017 10.303 9.552 1.87-2.016-10.303-9.553ZM289.15 207.4c-2.65 0-5.05-.3-7.1-.85-2.1-.55-3.8-1.4-4.95-2.45-.9-.8-1.4-1.85-1.4-2.85v-1.45h2.75v1.45c0 .25.15.5.5.85.45.45 1.25.9 2.15 1.25 2.05.8 4.95 1.3 7.95 1.3h.8l.05 2.75h-.75Zm5.8-.35-.6-2.95v-.25l.05.2c1.55-.3 2.9-.8 3.9-1.35.95-.55 1.4-1.1 1.45-1.35 0-.05.05-.1.05-.15l-.05-7.8h2.75l.05 7.75c0 .3-.05.65-.15.95-.35 1.15-1.25 2.1-2.75 3-1.25.7-2.85 1.25-4.7 1.65v.3Zm-19.25-12-.1-16.05h2.75l.1 16.05h-2.75Zm24-6.35-.1-16.05h2.75l.1 16.05h-2.75Zm-24.15-14.45-.1-16.05h2.75l.1 16.05h-2.75Zm24-6.35-.1-15.9h2.75l.1 15.9h-2.75Z"/><path fill="#fff" d="M282.45 162.001c-1.5 0-2.8-.15-3.85-.5-1.3-.4-2.15-1.05-2.7-1.95l2.4-1.45v.05c.1.15.4.45 1.2.7.75.25 1.8.4 3 .4 1.7 0 3.7-.25 5.75-.75v.05l.65 2.65c-2.3.5-4.5.8-6.45.8Zm10.35-2.05-1-2.6c2.3-.9 4.35-2 5.75-3.15 1.3-1 1.95-2.1 1.85-2.5v-.25c-.05-.1-.25-.45-1-.7-.75-.3-1.9-.45-3.2-.45h-.05c-.75 0-1.55.05-2.4.15l-.35-2.75c.95-.1 1.9-.15 2.75-.15 1.7 0 3.1.2 4.25.65.95.35 2.2 1.1 2.65 2.5.1.3.15.65.15.95-.05 2-1.5 3.5-2.9 4.65-1.65 1.4-3.9 2.6-6.5 3.65Zm-13.7-3.65-2.05-1.9c2.05-2.15 5.6-4.1 9.9-5.45.45-.15.9-.25 1.3-.35l.7 2.65c-.4.1-.8.25-1.2.35-3.6 1.05-7 2.9-8.65 4.7ZM234.55 241.45c-2.1 0-4.1-.4-5.85-1.05-1.65-.65-3-1.6-3.95-2.65-.7-.85-1.05-1.7-1.05-2.6v-1.45h2.75v1.45c0 .15.1.5.4.85.35.45.95.9 1.6 1.25 1.6.9 3.8 1.45 6.05 1.45.8 0 1.55-.05 2.35-.2.15 0 .3-.05.45-.1h.05l.5 2.7h-.05c-.2.05-.35.05-.5.1-.9.15-1.85.25-2.75.25Zm8.15-1.8-1.1-2.55c1.9-.85 3.45-1.95 4.5-3.2 1-1.2 1.55-2.45 1.55-3.65v-4.85h2.75v4.8c0 1.9-.75 3.8-2.2 5.45-1.3 1.6-3.2 2.95-5.5 4Zm-19.05-10.75-.1-16.05h2.75v.05l.1 16h-2.75Zm23.95-8.25c0-4-.05-9.1-.1-16.05v-.05h2.75V208c.05 4.4.05 8.85.05 12.6l-2.7.05Zm-24.1-12.6-.1-16.05h2.75l.1 16.05h-2.75Zm24-8.25-.05-12.05v-1.9h2.75s.05 6.15.1 13.9v.05h-2.8Z"/><path fill="#fff" d="M230.401 195.85c-1.5 0-2.8-.15-3.85-.5-1.3-.4-2.15-1.05-2.7-1.95l2.4-1.45v.05c.1.15.4.45 1.2.7.75.25 1.8.4 3 .4h.05c1.7 0 3.7-.25 5.7-.75v.05l.65 2.65c-2.3.5-4.5.8-6.45.8Zm10.35-2.1-1-2.6c2.3-.9 4.35-2 5.75-3.15 1.3-1 1.9-2.1 1.85-2.5v-.15c0-.1-.15-.45-1-.75-.75-.3-1.9-.45-3.2-.45h-.05c-.75 0-1.55.05-2.4.15h-.05v-.05l-.35-2.7c.95-.1 1.9-.15 2.75-.15 1.7 0 3.1.2 4.25.65.95.35 2.2 1.1 2.65 2.5.1.3.15.65.15.95-.05 2-1.5 3.45-2.9 4.65-1.6 1.35-3.85 2.6-6.45 3.6Zm-13.7-3.65-2.05-1.9h.05c2.05-2.15 5.6-4.1 9.9-5.45.45-.15.85-.25 1.3-.35h.05l.7 2.65c-.4.1-.8.2-1.2.35-3.7 1.1-7.1 2.95-8.75 4.7ZM334.749 207.4c-2.65 0-5.05-.3-7.1-.85-2.1-.55-3.8-1.4-4.95-2.45-.9-.8-1.4-1.85-1.4-2.85v-1.45h2.75v1.45c0 .25.15.5.5.85.45.45 1.25.9 2.15 1.25 2.05.8 5 1.3 7.95 1.3h.75l.05 2.75h-.7Zm5.85-.35-.6-2.95v-.2l.05.2c1.55-.3 2.95-.8 3.9-1.35.95-.5 1.4-1.1 1.45-1.35v-.15l-.05-7.8h2.75l.05 7.75c0 .3-.05.65-.15.95-.35 1.15-1.25 2.1-2.75 3-1.25.7-2.85 1.25-4.7 1.65v.25h.05Zm-19.3-12-.1-16.05h2.75l.1 16.05h-2.75Zm24-6.35-.1-16.05h2.75l.1 16.05h-2.75Zm-24.15-14.45-.1-16.05h2.75l.1 16.05h-2.75Zm24-6.35-.1-15.9h2.75l.1 15.9h-2.75Z"/><path fill="#fff" d="m328.299 162-.05-2.75c2.1-.05 4.65-.45 7.15-1.2 1.35-.4 2.65-.9 3.85-1.45h.05l1.15 2.5c-1.3.6-2.75 1.15-4.2 1.6-2.8.8-5.5 1.3-7.95 1.3Zm-4.4-.6c-1-.4-2.25-1.1-2.7-2.55-.1-.3-.15-.65-.15-.95.05-1.35.7-2.55 2.1-3.95 1.2-1.15 2.85-2.2 4.8-3.2l1.2 2.5c-1.7.85-3.15 1.8-4.1 2.7-.9.85-1.3 1.65-1.25 1.95v.15c.05.1.15.45 1 .75l-.9 2.6Zm20.2-4.45-1.6-2.25c1.8-1.25 2.6-2.6 2.55-3v-.15c-.05-.1-.2-.4-.95-.7-.75-.3-1.85-.45-3.05-.5h-.25c-2.15 0-4.75.45-7.35 1.2-.2.05-.45.15-.75.25l-.85-2.6h.05c.25-.1.5-.15.8-.25 2.85-.9 5.7-1.35 8.15-1.35h.25c1.65.05 2.95.25 4.05.7.95.35 2.15 1.1 2.55 2.5.1.3.15.65.15.95-.1 2.25-1.95 3.9-3.75 5.2ZM308.8 315.901l-.15-.05v-2.75h.1v2.8h.05Zm-4.9 0-16.05-.05.05-2.75h16.05v2.8h-.05Zm-20.8 0-16.05-.05v-2.75h16v2.8h.05Zm-20.8 0-16.05-.05v-2.75h16.05v2.8Zm-20.8 0h-5.95c-1.35 0-2.65-.5-3.65-1.45l-5.2-4.85 1.85-2 5.2 4.8c.5.45 1.1.7 1.8.7h5.95v2.8Zm-18.3-9.5-11.8-10.9 1.85-2 11.75 10.9-1.8 2Zm-15.4-14.35c-.7-.95-1.1-2.1-1.1-3.25v-13.45l2.75.05v13.4c0 .55.2 1.1.55 1.6l-2.2 1.65Zm1.7-21.5h-2.75v-16h2.75v16Zm0-20.8h-2.75v-16.05l2.75.05v16Zm.9-18.2-.95-2.6 15.1-5.4.95 2.6-15.1 5.4ZM249.5 217.55l-.95-2.6 5.35-1.95.9 2.6-5.3 1.95Z"/><path fill="#fff" d="M356.1 315.9h-16.05l.05-2.75h16.05v2.75h-.05Zm-20.8 0h-16.05v-2.75h16v2.75h.05Zm-20.8 0h-11.25v-7.55H306v4.8h8.5v2.75Zm-8.5-12.35h-2.75v-16H306v16Zm0-20.8-2.75-.05v-16.05H306v16.1Zm0-20.8h-2.75V245.9l2.75.05v16Zm0-20.8h-2.75v-16H306v16Z"/><path fill="#fff" d="M367.65 315.9v-2.75h1.8c1.45 0 2.6-1.2 2.6-2.6v-7.9h2.75v7.9c0 2.95-2.4 5.4-5.4 5.4l-1.75-.05Zm-4.75 0-6.85-.05v-2.75h6.8v2.8h.05Zm9.15-18.1-.05-16.05h2.75l.05 16.05h-2.75ZM372 277l-.05-16.05h2.75l.05 16.05H372Zm-.05-20.8-.05-16.05h2.75l.05 16.05h-2.75Zm-.05-20.8-.05-16.05h2.75l.05 16.05h-2.75Zm2.7-20.8h-2.75v-1.95c0-.75-.3-1.45-.85-1.9l-7.9-7.35 1.85-2 7.9 7.3c1.1 1 1.75 2.45 1.75 3.95v1.95Zm-15-14.45-2.2-2c-.5-.45-1.1-.7-1.8-.7h-10.1v-2.75h10.05c1.35 0 2.65.5 3.65 1.45l2.2 2-1.8 2ZM323.9 194.65h-17.85v2.75h17.85v-2.75ZM269.4 239.35l-11.75-10.9 1.85-2 11.75 10.9-1.85 2Zm-15.25-14.15-1.2-1.15V208.5h2.75v14.35l.35.3-1.9 2.05Zm1.55-21.45h-2.75v-3.65c0-2.95 2.4-5.4 5.4-5.4h6.1v2.75h-6.05c-1.45 0-2.6 1.2-2.6 2.6v3.7h-.1Zm22.55-6.3h-9.05l.05-2.75h9.05v2.75h-.05ZM273.65 134.3H242.1c-4.2 0-7.6-3.4-7.6-7.6v-19.1c0-4.2 3.4-7.6 7.6-7.6h31.55c4.2 0 7.6 3.4 7.6 7.6v19.1c0 4.2-3.4 7.6-7.6 7.6Zm-31.55-31.5c-2.65 0-4.8 2.15-4.8 4.8v19.1c0 2.65 2.15 4.8 4.8 4.8h31.55c2.65 0 4.8-2.15 4.8-4.8v-19.1c0-2.65-2.15-4.8-4.8-4.8H242.1Z"/><path fill="#fff" d="M251.851 127.8v-20.05l16.6 10.05-16.6 10Zm2.75-15.15v10.25l8.5-5.15-8.5-5.1ZM235.9 115.75h-83.55v2.75h83.55v-2.75ZM334.75 176.65H332V124c0-2.65-2.15-4.8-4.8-4.8h-47.3v-2.75h47.3c4.2 0 7.6 3.4 7.6 7.6v52.6h-.05Z"/><path fill="#FF0052" d="M333.35 154a4 4 0 1 0 0-8 4 4 0 0 0 0 8Z"/><path fill="#fff" d="M333.35 155.4c-3 0-5.4-2.4-5.4-5.4 0-3 2.4-5.4 5.4-5.4 3 0 5.4 2.4 5.4 5.4 0 3-2.4 5.4-5.4 5.4Zm0-8.05c-1.45 0-2.65 1.2-2.65 2.65s1.2 2.65 2.65 2.65 2.65-1.2 2.65-2.65-1.2-2.65-2.65-2.65Z"/><path fill="#FF0052" d="M333.35 184.75a4 4 0 1 0 0-8 4 4 0 0 0 0 8Z"/><path fill="#fff" d="M333.35 186.15c-3 0-5.4-2.4-5.4-5.4 0-3 2.4-5.4 5.4-5.4 3 0 5.4 2.4 5.4 5.4 0 3-2.4 5.4-5.4 5.4Zm0-8.05c-1.45 0-2.65 1.2-2.65 2.65s1.2 2.65 2.65 2.65 2.65-1.2 2.65-2.65-1.2-2.65-2.65-2.65Z"/><path fill="#FF0052" d="M311.95 121.15a4 4 0 1 0 0-8 4 4 0 0 0 0 8Z"/><path fill="#fff" d="M311.95 122.55c-3 0-5.4-2.4-5.4-5.4 0-3 2.4-5.4 5.4-5.4 3 0 5.4 2.4 5.4 5.4 0 3-2.4 5.4-5.4 5.4Zm0-8c-1.45 0-2.65 1.2-2.65 2.65s1.2 2.65 2.65 2.65 2.65-1.2 2.65-2.65c0-1.5-1.2-2.65-2.65-2.65Z"/><path fill="#FF0052" d="M205.2 121.15a4 4 0 1 0 0-8 4 4 0 0 0 0 8Z"/><path fill="#fff" d="M205.2 122.55c-3 0-5.4-2.4-5.4-5.4 0-3 2.4-5.4 5.4-5.4 3 0 5.4 2.4 5.4 5.4 0 3-2.45 5.4-5.4 5.4Zm0-8c-1.45 0-2.65 1.2-2.65 2.65s1.2 2.65 2.65 2.65 2.65-1.2 2.65-2.65c-.05-1.5-1.2-2.65-2.65-2.65Z"/><path fill="#FF0052" d="M152.35 121.15a4 4 0 1 0 0-8 4 4 0 0 0 0 8Z"/><path fill="#fff" d="M152.35 122.55c-3 0-5.4-2.4-5.4-5.4 0-3 2.4-5.4 5.4-5.4 3 0 5.4 2.4 5.4 5.4 0 3-2.4 5.4-5.4 5.4Zm0-8c-1.45 0-2.65 1.2-2.65 2.65s1.2 2.65 2.65 2.65 2.65-1.2 2.65-2.65c0-1.5-1.2-2.65-2.65-2.65ZM143 319.6l-4.4-24.9-4.4 6.2H85.85c-4.2 0-7.6-3.4-7.6-7.6v-52.75H81v52.75c0 2.65 2.15 4.8 4.8 4.8h46.9l7.4-10.4 3.45 19.45 8.25-29.45 6.95 30.25 5.9-19.9 6.9 10.1h78.15v2.75h-79.55l-4.45-6.5-7.2 24.45-6.9-29.9-8.6 30.65Z"/><path fill="#FF0052" d="M193.15 303.5a4 4 0 1 0 0-8 4 4 0 0 0 0 8Z"/><path fill="#fff" d="M193.15 304.85c-3 0-5.4-2.4-5.4-5.4 0-3 2.4-5.4 5.4-5.4 3 0 5.4 2.4 5.4 5.4 0 3-2.4 5.4-5.4 5.4Zm0-8c-1.45 0-2.65 1.2-2.65 2.65s1.2 2.65 2.65 2.65 2.65-1.2 2.65-2.65-1.2-2.65-2.65-2.65Z"/><path fill="#FF0052" d="M109.5 303.5a4 4 0 1 0 0-8 4 4 0 0 0 0 8Z"/><path fill="#fff" d="M109.5 304.85c-3 0-5.4-2.4-5.4-5.4 0-3 2.4-5.4 5.4-5.4 3 0 5.4 2.4 5.4 5.4 0 3-2.45 5.4-5.4 5.4Zm0-8c-1.45 0-2.65 1.2-2.65 2.65s1.2 2.65 2.65 2.65 2.65-1.2 2.65-2.65-1.2-2.65-2.65-2.65Z"/><path fill="#FF0052" d="M257.774 300.118a4 4 0 1 0-7.896-1.282 4 4 0 0 0 7.896 1.282Z"/><path fill="#fff" d="M253.799 304.85c-3 0-5.4-2.4-5.4-5.4 0-3 2.4-5.4 5.4-5.4 3 0 5.4 2.4 5.4 5.4 0 3-2.45 5.4-5.4 5.4Zm0-8c-1.45 0-2.65 1.2-2.65 2.65s1.2 2.65 2.65 2.65 2.65-1.2 2.65-2.65c-.05-1.45-1.2-2.65-2.65-2.65Z"/><path fill="#FF0052" d="M79.65 275.15a4 4 0 1 0 0-8 4 4 0 0 0 0 8Z"/><path fill="#fff" d="M79.65 276.5c-3 0-5.4-2.4-5.4-5.4 0-3 2.4-5.4 5.4-5.4 3 0 5.4 2.4 5.4 5.4 0 3-2.4 5.4-5.4 5.4Zm0-8c-1.45 0-2.65 1.2-2.65 2.65s1.2 2.65 2.65 2.65 2.65-1.2 2.65-2.65-1.2-2.65-2.65-2.65Z"/><path fill="#FF0052" d="M79.65 239.55a4 4 0 1 0 0-8 4 4 0 0 0 0 8Z"/><path fill="#fff" d="M79.65 240.95c-3 0-5.4-2.4-5.4-5.4 0-3 2.4-5.4 5.4-5.4 3 0 5.4 2.4 5.4 5.4 0 3-2.4 5.4-5.4 5.4Zm0-8c-1.45 0-2.65 1.2-2.65 2.65s1.2 2.65 2.65 2.65 2.65-1.2 2.65-2.65-1.2-2.65-2.65-2.65ZM209.5 236.6h-2.75v-2.85c0-2.25 1.45-4.3 3.55-5.05l14.25-5.1.95 2.6-14.25 5.1a2.584 2.584 0 0 0-1.75 2.45v2.85Z"/><path fill="#222" d="M100.85 94.75c-.4 0-.8 0-1.2-.05-4.2-.3-5.4-2.1-5.7-3.15-.1-.3-.15-.65-.15-.95 0-3.7 6-7.25 11.6-8.95 3.35-1 6.65-1.5 9.35-1.3 4.2.3 5.4 2.1 5.7 3.15.1.3.15.65.15.95 0 3.75-6 7.25-11.6 8.95-2.85.85-5.7 1.35-8.15 1.35Zm12.7-11.7c-2.15 0-4.7.4-7.35 1.2-6.2 1.9-9.65 4.95-9.65 6.35v.15c.15.45 1.2 1.05 3.25 1.2 2.35.15 5.3-.25 8.35-1.2 6.2-1.9 9.65-4.95 9.65-6.35v-.15c-.15-.45-1.2-1.05-3.25-1.2h-1ZM49.35 128.55c-.4 0-.8 0-1.15-.05-4.2-.3-5.35-2.1-5.65-3.15-.1-.3-.15-.65-.15-.95 0-3.75 5.95-7.25 11.5-8.95 3.35-1 6.65-1.5 9.35-1.3 4.2.3 5.4 2.1 5.7 3.15.1.3.15.65.15.95 0 3.75-6 7.25-11.6 8.95-2.9.9-5.75 1.35-8.15 1.35ZM62 116.9c-2.15 0-4.7.4-7.35 1.2-6.15 1.9-9.55 4.95-9.55 6.35v.15c.15.5 1.2 1.05 3.2 1.2 2.3.15 5.25-.25 8.3-1.2 6.2-1.9 9.65-4.95 9.65-6.35v-.15c-.15-.45-1.2-1.05-3.25-1.2h-1ZM146.5 94.75c-.4 0-.8 0-1.2-.05-4.2-.3-5.4-2.1-5.7-3.15-.1-.3-.15-.65-.15-.95 0-3.7 6-7.25 11.6-8.95 3.35-1 6.65-1.5 9.35-1.3 4.2.3 5.4 2.1 5.7 3.15.1.3.15.65.15.95 0 3.75-6 7.25-11.6 8.95-2.85.85-5.7 1.35-8.15 1.35Zm12.7-11.7c-2.15 0-4.7.4-7.35 1.2-6.2 1.9-9.65 4.95-9.65 6.35v.15c.15.45 1.2 1.05 3.25 1.2 2.35.15 5.3-.25 8.35-1.2 6.2-1.9 9.65-4.95 9.65-6.35v-.15c-.15-.45-1.2-1.05-3.25-1.2h-1Z"/></svg>