<svg xmlns="http://www.w3.org/2000/svg" width="401" height="401" fill="none" viewBox="0 0 401 401"><path fill="#D9D9D9" d="M299.05 111.7c0 4.5-3.65 8.15-8.15 8.15h-63.85c-4.5 0-8.15-3.65-8.15-8.15s3.65-8.15 8.15-8.15c.6 0 1.2.05 1.75.2-.25-1.2-.4-2.45-.4-3.75 0-10.3 8.35-18.6 18.6-18.6 9 0 16.55 6.4 18.25 14.9 2.15-1.8 4.95-2.9 7.95-2.9 6.75 0 12.25 5.4 12.4 12.1a8.01 8.01 0 0 1 5.2-1.9c4.6-.05 8.25 3.6 8.25 8.1ZM370.4 202.1h-97L260.25 190h17.25l.05 5.2c0 2.65 5.4 4.75 12 4.75 6.15 0 11.25-1.85 11.95-4.2.05-.2.1-.35.1-.55l-.05-5.2h21.6l.05 5.2c0 2.65 5.4 4.75 12 4.75 6.15 0 11.25-1.85 11.95-4.2.05-.2.1-.35.1-.55l-.05-5.2h10.85l12.35 12.1ZM356.65 277.45H326.8v31.05h29.85v-31.05ZM269.35 238l-34.95 13.1-25.9-19.45v46.25l70 .4 26.55 23.15V238h-35.7ZM181.95 293.45c0 2.6-2.1 4.75-4.75 4.75h-50.9c-2.85 0-5.15-2.3-5.15-5.15 0-2.85 2.3-5.15 5.15-5.15 1.45 0 2.75.6 3.7 1.55v-.25c0-5 4.05-9.05 9.05-9.05 1.5 0 2.9.35 4.15 1 1.9-7.3 8.55-12.7 16.4-12.7 9.35 0 16.95 7.6 16.95 16.95 0 1.15-.1 2.3-.35 3.4.35-.05.7-.1 1.05-.1 2.55 0 4.7 2.1 4.7 4.75ZM89.2 170.55 52.8 183l-21.75-15.85v45.9l65.3.4c1 0 1.95.4 2.65 1.05l6.65 6.05 17.6 16.3v-66.3H89.2Z"/><path fill="#FF0052" d="M174.95 203.1h-34.3v38.1h34.3v-38.1Z"/><path fill="#222" d="M51.45 184.95v-8.45l37.5-12.85h35.9v8.3H89.4l-37.95 13Zm2.75-6.5v2.6l34.75-11.9h33.15v-2.75H89.4l-35.2 12.05ZM192.05 144.5H87.8v-8.3h104.25v2.8H90.55v2.75h101.5v2.75ZM176.3 242.6h-37.05v-40.85h37.05v40.85Zm-34.3-2.8h31.55v-35.3H142v35.3Z"/><path fill="#222" d="M159.15 203.1h-2.75v38.1h2.75v-38.1ZM142 242.6h-19.9V141.75H142V242.6Zm-17.15-2.8h14.4v-95.3h-14.4v95.3Z"/><path fill="#222" d="M124.85 166.4h-19.9v-24.65h19.9v24.65Zm-17.15-2.75h14.4V144.5h-14.4v19.15Z"/><path fill="#222" d="M107.7 166.4H87.8v-24.65h19.9v24.65Zm-17.15-2.75h14.4V144.5h-14.4v19.15ZM159.15 204.5h-19.9v-62.75h19.9v62.75ZM142 201.75h14.4V144.5H142v57.25Z"/><path fill="#222" d="M176.3 204.5h-19.9v-62.75h19.9v62.75Zm-17.15-2.75h14.4V144.5h-14.4v57.25Z"/><path fill="#222" d="M176.3 241.2h-2.75v-99.45h18.5v2.75H176.3v96.7ZM124.85 242.6H54.4c-1.35 0-2.65-.5-3.65-1.45L27.3 219.4c-1.1-1-1.7-2.45-1.7-3.95v-58.8l47.15-16.9.95 2.6-45.3 16.25v56.85c0 .75.3 1.45.85 1.9L52.7 239.1c.5.45 1.1.7 1.8.7h67.7v-67.85H115v-2.75h9.95v73.4h-.1Z"/><path fill="#222" d="M54.2 241.2h-2.75v-63.05L26.1 158.7l1.7-2.2 26.4 20.3v64.4ZM90.55 170.55H87.8V138.2l-15.55-14.45 1.85-2L90.55 137v33.55Z"/><path fill="#222" d="M88.25 166.05 71.8 150.8v-24.05c0-2.95 2.4-5.4 5.4-5.4h97.15c1.45 0 2.9.55 3.95 1.55l13.45 12.45c1.1 1 1.7 2.45 1.7 3.95v5.35h-2.75v-5.35c0-.75-.3-1.45-.85-1.9l-13.45-12.45c-.55-.55-1.3-.8-2.1-.8H77.2c-1.45 0-2.6 1.15-2.6 2.6v22.8L90.15 164l-1.9 2.05Z"/><path fill="#222" d="M188.05 242.6h-90.5v-2.75h90.5c1.45 0 2.6-1.15 2.6-2.6v-92.5h2.75v92.5c.05 2.9-2.35 5.35-5.35 5.35ZM98.95 170.55H96.2v46.65h2.75v-46.65Z"/><path fill="#222" d="M122.55 242.2 97.8 219.25c-.5-.45-1.1-.7-1.8-.7H27.4v-2.75H96c1.35 0 2.65.5 3.65 1.45l24.75 22.95-1.85 2ZM27.785 162.895l-1.673 2.182 25.868 19.84 1.674-2.182-25.869-19.84ZM74.097 128.092l-1.87 2.017 16.023 14.856 1.87-2.017-16.023-14.856Z"/><path fill="#D9D9D9" d="m95.65 84.9.35 43.05c0 2.65 5.4 4.75 12 4.75 6.15 0 11.25-1.85 11.95-4.2.05-.2.1-.35.1-.55l-.35-49.2"/><path fill="#222" d="M108 134.1c-8.8 0-13.4-3.1-13.4-6.15l-.35-43.05H97l.35 43.05c0 1.15 3.75 3.4 10.65 3.4 6.2 0 10.2-1.9 10.6-3.2 0-.05.05-.1.05-.15l-.35-49.2h2.75l.35 49.2c0 .35-.05.65-.15.95-1.05 3.5-7.65 5.15-13.25 5.15Z"/><path fill="#444" d="M119.6 77.85c.05.2.1.35.1.55 0 2.5-4.5 5.8-10.6 7.65-6.6 2-12.55 1.6-13.35-.9-.05-.2-.1-.35-.1-.55 0-2.5 4.5-5.75 10.6-7.65 6.6-2.05 12.55-1.65 13.35.9Z"/><path fill="#D9D9D9" d="m44.2 118.75.15 43.05c0 2.65 5.55 5.8 12.1 4.75 6.9-1.1 11.95-5.25 11.95-9.6 0-4.3-.25-44.4-.25-44.4"/><path fill="#222" d="M53.8 168.15c-4.05 0-7.3-1.45-9-2.9-1.25-1.05-1.9-2.25-1.9-3.5l-.15-43.05h2.75l.15 43.05c0 .3.25.8.95 1.35 1.75 1.5 5.4 2.7 9.6 2.05 6.15-1 10.75-4.5 10.75-8.25 0-4.25-.25-43.95-.25-44.4h2.75c0 .4.25 40.15.25 44.4 0 5.15-5.5 9.75-13.1 10.95-.95.2-1.9.3-2.8.3Z"/><path fill="#222" d="M68.05 111.65c.05.2.1.35.1.55 0 2.5-4.5 5.8-10.6 7.65-6.6 2-12.45 1.6-13.25-.9-.05-.2-.1-.35-.1-.55 0-2.5 4.4-5.75 10.5-7.65 6.6-2 12.55-1.6 13.35.9Z"/><path fill="#222" d="M49.8 122.55c-3.45 0-6.15-.95-6.85-3.15-.1-.3-.15-.65-.15-.95 0-3.75 5.95-7.25 11.5-8.95 6.6-2 13.85-2.05 15.05 1.85.1.3.15.65.15.95 0 3.75-6 7.25-11.6 8.95-2.75.8-5.65 1.3-8.1 1.3Zm12.65-11.7c-1.9 0-4.4.35-7.35 1.25-6.15 1.9-9.55 4.95-9.55 6.35v.15c.35 1.1 4.7 2.05 11.5 0 6.2-1.9 9.65-4.95 9.65-6.35v-.15c-.2-.65-1.7-1.25-4.25-1.25Z"/><path fill="#D9D9D9" d="m141.25 84.9.35 43.05c0 2.65 5.4 4.75 12 4.75 6.15 0 11.25-1.85 11.95-4.2.05-.2.1-.35.1-.55l-.35-49.2"/><path fill="#222" d="M153.6 134.1c-8.8 0-13.4-3.1-13.4-6.15l-.35-43.05h2.75l.35 43.05c0 1.15 3.75 3.4 10.65 3.4 6.2 0 10.2-1.9 10.6-3.2 0-.05.05-.1.05-.15l-.35-49.2h2.75L167 128c0 .35-.05.65-.15.95-1.05 3.5-7.6 5.15-13.25 5.15Z"/><path fill="#444" d="M165.2 77.85c.05.2.1.35.1.55 0 2.5-4.5 5.8-10.6 7.65-6.6 2-12.55 1.6-13.35-.9-.05-.2-.1-.35-.1-.55 0-2.5 4.5-5.75 10.6-7.65 6.6-2.05 12.6-1.65 13.35.9Z"/><path fill="#222" d="M233 252.2v-8.45l6.2-2.1.9 2.6-4.3 1.5v2.6l2.85-.95.9 2.6-6.55 2.2Zm11.05-3.75-.9-2.6 15.15-5.2.901 2.6h-.051l-15.1 5.2Zm.55-5.75-.9-2.6 15.15-5.2.9 2.6-15.15 5.2Zm19.101-1-.901-2.6 7.7-2.65h8.35v2.75H271l-7.299 2.5Zm36-2.5H283.65v-2.75h16.051v2.75Zm-35.351-3.1-.95-2.75 7.1-2.45h9v2.75H271l-6.65 2.3v.15Zm35.95-2.4-16.05-.05v-2.75h16.05v2.8ZM373.7 211.8h-16.05v-2.75h16.05v2.75Zm-20.8 0h-16.05v-2.75h16v2.75h.05Zm-20.85 0H316v-2.75h16v2.75h.05Zm-20.8 0H295.2l.05-2.75h16.05v2.75h-.05Zm-20.8 0H274.4v-2.75h16v2.75h.05Zm-18.3-2.5h-2.75v-5.8h13v2.75h-10.2v3.05h-.05Zm101.1-3.05h-2.85v-2.75l2.85.05v2.7Zm-7.65 0h-16.05v-2.75h16v2.75h.05Zm-20.8 0h-16.05v-2.75h16v2.75h.05Zm-20.8 0h-16.05l.05-2.75h16v2.75Zm-20.8 0h-16.05v-2.75h16.05v2.75ZM352.201 271.45H326.5v2.75h25.701v-2.75Z"/><path fill="#222" d="M289.3 232.3h-2.75v-16.05l2.75.05v16Z"/><path fill="#222" d="m289.3 230.6-2.75-.05V214.5l2.75.05v16.05ZM323.6 308.5l-2.75-.05V292.4h2.75v16.1Zm0-20.8h-2.75v-16.05h2.75v16.05Zm0-20.8h-2.75v-16h2.75v16Zm0-20.8h-2.75v-16.05h2.75v16.05Zm0-20.8h-2.75v-10.8h2.75v10.8ZM340.75 308.5H338v-10.75l2.75.05v10.7Zm0-15.5H338v-16.05h2.75V293Zm0-20.8-2.75-.05v-16h2.75v16.05Zm0-20.8H338v-16h2.75v16Zm0-20.8-2.75-.05V214.5h2.75v16.1ZM357.9 308.5l-2.75-.05V297.7l2.75.05v10.75Zm0-15.5h-2.75v-16.05h2.75V293Zm0-20.8-2.75-.05v-16h2.75v16.05Zm0-20.8h-2.75v-16h2.75v16Zm0-20.8-2.75-.05V214.5h2.75v16.1ZM235.8 308.5H233v-16.05h2.75v16.05h.05Zm0-20.8h-2.75v-16.05h2.75v16.05Zm0-20.8h-2.75v-16h2.75v16Zm0-20.8h-2.75v-.65l-11.1-8.55 1.7-2.2 12.2 9.35v2.05h-.05ZM218.15 234l-10.5-8.05 1.7-2.2 10.45 8-1.65 2.25ZM272.15 237.85h-2.75V221.8l2.75.05v16Zm0-20.8h-2.75V205.5l-2.4-2.2 1.85-2 3.25 3.05v12.7h.05Zm-8.65-17-8.75-8.1 1.9-2.05 8.75 8.1-1.9 2.05ZM280.55 279.9h-2.75v-16.05h2.75v16.05Zm0-20.8-2.75-.05V243h2.75v16.1Z"/><path fill="#222" d="m302.7 308.15-11.8-10.9 1.85-2 11.75 10.9-1.8 2Zm-15.25-14.1-8.05-7.45c-.5-.45-1.1-.7-1.8-.7l-2.1-.05v-2.75h2.05c1.35 0 2.65.5 3.65 1.45l8.05 7.45-1.8 2.05Zm-16.7-8.2-16.05-.05v-2.75h16.05v2.8Zm-20.8 0-16.05-.05.05-2.75H250v2.8h-.05Zm-20.8 0-16.05-.05v-2.75h16.05v2.8ZM233.6 252.2l-12.75-9.75 1.7-2.2 12.7 9.75-1.65 2.2Zm-16.5-12.65-9.4-7.2 1.7-2.2 9.4 7.2-1.7 2.2ZM258.563 198.022l-1.87 2.016 10.303 9.553 1.869-2.017-10.302-9.552ZM289.55 201.4c-2.65 0-5-.3-7.1-.85-2.1-.55-3.8-1.4-4.95-2.45-.9-.8-1.4-1.85-1.4-2.85v-1.45h2.75v1.45c0 .25.15.5.5.85.45.45 1.25.9 2.15 1.25 2.05.8 4.95 1.3 7.95 1.3h.8l.05 2.75h-.75Zm5.8-.6-.55-2.7v-.2l.05.2c1.55-.3 2.95-.8 3.9-1.35.95-.55 1.4-1.1 1.45-1.35v-.15l-.05-7.8h2.75l.05 7.75c0 .3-.05.65-.15.95-.35 1.2-1.25 2.1-2.75 3-1.2.75-2.8 1.3-4.7 1.65Zm-19.25-11.75L276 173h2.75l.1 16.05h-2.75Zm24-6.35-.1-16.05h2.75l.1 16.05h-2.75Zm-24.15-14.45-.1-16.05h2.75l.1 16.05h-2.75Zm24-6.35-.1-15.9h2.75l.1 15.9h-2.75Z"/><path fill="#222" d="M282.85 156c-1.55 0-2.8-.15-3.85-.5-1.3-.4-2.15-1.05-2.7-1.95l2.4-1.45v.05c.1.15.45.45 1.2.7.75.25 1.85.4 3 .4 1.7 0 3.7-.25 5.7-.75v.05l.65 2.65c-2.25.5-4.45.8-6.4.8Zm10.35-2.1-1-2.6h.05c2.3-.9 4.35-2 5.75-3.15 1.3-1 1.9-2.1 1.85-2.5v-.15c0-.1-.15-.45-1-.75-.75-.3-1.9-.45-3.2-.45h-.05c-.75 0-1.55.05-2.4.15h-.05l-.35-2.75c.95-.1 1.9-.15 2.75-.15 1.7 0 3.1.2 4.25.65.95.35 2.2 1.1 2.65 2.5.1.3.15.65.15.95-.05 2-1.5 3.5-2.9 4.65-1.6 1.35-3.85 2.6-6.5 3.6Zm-13.7-3.65-2-1.9c2.05-2.15 5.6-4.1 9.9-5.45.45-.15.85-.25 1.3-.4l.7 2.65h-.05c-.45.1-.8.25-1.2.35-3.6 1.15-7 3-8.65 4.75ZM234.951 235.4c-2.1 0-4.1-.4-5.85-1.05-1.65-.65-3-1.6-3.95-2.7-.7-.85-1.05-1.7-1.05-2.6v-1.45h2.75v1.45c0 .15.1.5.4.85.35.45.9.9 1.6 1.25 1.6.9 3.8 1.45 6.05 1.45.75 0 1.55-.05 2.35-.2.15 0 .3-.05.45-.1l.5 2.7c-.15.05-.35.05-.5.1-.9.25-1.8.3-2.75.3Zm8.25-1.7-1.15-2.6.05-.05c1.85-.85 3.4-1.95 4.5-3.15 1-1.2 1.55-2.45 1.55-3.65v-4.8h2.75v4.8c0 1.9-.75 3.8-2.2 5.45-1.35 1.55-3.25 2.9-5.45 3.9v.1h-.05Zm-19.1-10.85-.1-16.05h2.75v.05l.1 16h-2.75Zm23.95-8.25c0-4.75-.05-10.55-.1-16.05v-.05h2.75c.05 5.5.05 11.3.1 16.05l-2.75.05Zm-24.15-12.55-.1-16.05h2.75l.1 16.05h-2.75Zm24-8.3-.05-7.75c-.05-4.65-.05-6.15-.05-6.15h2.75s.05 6.15.1 13.9v.05l-2.75-.05Z"/><path fill="#222" d="M230.851 189.8c-1.5 0-2.8-.15-3.85-.5-1.3-.4-2.15-1.05-2.7-1.95l2.4-1.45v.05c.1.15.4.45 1.2.7.75.25 1.8.4 3 .4h.05c1.7 0 3.7-.25 5.7-.75h.05l.65 2.65h-.05c-2.3.6-4.55.85-6.45.85Zm10.3-2.05-1-2.6c2.3-.9 4.35-2 5.75-3.15 1.3-1 1.9-2.1 1.85-2.5v-.2c0-.1-.15-.45-1-.75-.75-.3-1.95-.45-3.2-.45h-.05c-.75 0-1.55.05-2.4.15l-.35-2.75c.95-.1 1.9-.15 2.75-.15 1.7 0 3.1.2 4.25.65.95.35 2.2 1.1 2.65 2.5.1.3.15.6.15.95-.05 2-1.5 3.45-2.9 4.65-1.6 1.4-3.85 2.65-6.5 3.65Zm-13.65-3.7-2-1.9c2.05-2.15 5.6-4.1 9.9-5.45.4-.1.85-.25 1.3-.35l.7 2.65c-.4.1-.8.2-1.2.35-3.65 1.1-7.1 2.95-8.7 4.7ZM335.201 201.4c-2.65 0-5.001-.3-7.051-.85-2.1-.55-3.799-1.4-4.949-2.45-.9-.8-1.401-1.85-1.401-2.85v-1.45h2.8v1.45c0 .25.15.5.5.85.45.45 1.25.9 2.15 1.25 2.05.8 4.951 1.3 7.951 1.3h.75l.049 2.75h-.799Zm5.799-.6-.549-2.7c1.549-.3 2.949-.8 3.899-1.35.95-.55 1.4-1.1 1.45-1.35v-.15l-.05-7.8h2.75l.05 7.75c0 .3-.05.65-.15.95-.35 1.2-1.249 2.1-2.699 3-1.25.75-2.801 1.3-4.701 1.65Zm-19.25-11.75-.1-16.05h2.75l.1 16-2.75.05Zm24-6.35-.1-16.05h2.75l.1 16.05h-2.75Zm-24.15-14.45-.1-16.05h2.75l.1 16.05h-2.75Zm24-6.35-.1-15.9h2.75l.1 15.9h-2.75Z"/><path fill="#222" d="m328.7 156-.05-2.75c2.1-.05 4.65-.45 7.15-1.2 1.35-.4 2.65-.9 3.85-1.5l1.15 2.5c-1.3.6-2.75 1.15-4.25 1.6-2.65.85-5.4 1.3-7.85 1.35Zm-4.4-.65c-1-.4-2.25-1.1-2.7-2.55-.1-.3-.15-.65-.15-1 .05-1.35.7-2.55 2.1-3.95 1.2-1.15 2.8-2.2 4.8-3.2l1.2 2.5c-1.7.8-3.15 1.8-4.15 2.7-.9.85-1.3 1.65-1.25 1.95v.15c0 .1.15.45 1 .75l-.85 2.65Zm20.25-4.4-1.6-2.25c1.8-1.25 2.6-2.6 2.55-3v-.15c-.05-.1-.2-.4-.95-.7-.7-.3-1.85-.45-3.05-.5h-.2c-2.15 0-4.75.45-7.35 1.2-.2.05-.45.15-.7.25v-.05l-.85-2.6c.25-.1.5-.15.8-.25 2.85-.9 5.7-1.35 8.15-1.35h.25c1.6.05 2.95.25 4.05.7.95.35 2.15 1.1 2.55 2.5.1.3.15.65.15.95-.2 2.25-2 3.9-3.8 5.25ZM309.25 309.9h-.15l.05-2.75h.1v2.75Zm-4.9 0H288.3v-2.75h16v2.75h.05Zm-20.8 0H267.5l.05-2.75h16v2.75Zm-20.8 0H246.7v-2.75h16.05v2.75Zm-20.8 0H236c-1.35 0-2.65-.5-3.65-1.45l-5.15-4.8v-.05l1.85-2 5.2 4.8c.5.45 1.1.7 1.8.7H242v2.8h-.05Zm-18.35-9.5-11.75-10.9 1.85-2 11.75 10.9-1.85 2ZM208.25 286c-.7-.95-1.1-2.1-1.1-3.25V269.3l2.75.05v13.4c0 .55.2 1.15.55 1.6l-2.2 1.65Zm1.65-21.45h-2.75v-16h2.75v16Zm0-20.8h-2.75V227.7l2.75.05v16Zm.9-18.2-.95-2.6L225 217.5l.95 2.6-15.15 5.45ZM254.307 206.967l-5.365 1.925.929 2.588 5.365-1.925-.929-2.588Z"/><path fill="#222" d="M356.55 309.9H340.5v-2.75h16v2.75h.05Zm-20.8 0H319.7l.05-2.75h16.05v2.75h-.05Zm-20.8 0H303.7l.05-7.55h2.75v4.8h8.5v2.75h-.05Zm-8.5-12.35h-2.75V281.5h2.75v16.05Zm0-20.8-2.75-.05v-16.05h2.75v16.1Zm0-20.8h-2.75v-16h2.75v16Zm0-20.8h-2.75V219.1h2.75v16.05Z"/><path fill="#222" d="M369.9 309.9h-1.85v-2.75h1.8c1.45 0 2.601-1.2 2.601-2.6v-7.9h2.75v7.95c.1 2.85-2.301 5.25-5.301 5.3Zm-6.55 0h-6.85v-2.75h6.8v2.75h.05Zm9.15-18.1-.049-16.05h2.75l.049 16.05h-2.75Zm-.049-20.8-.051-16.05h2.75l.051 16.05h-2.75Zm-.051-20.8-.05-16.05h2.75l.05 16.05h-2.75Zm-.1-20.8-.05-16.05H375l.05 16.05h-2.75Zm2.75-20.8h-2.75v-1.95c0-.75-.3-1.45-.849-1.9l-7.901-7.3h-.05v-.05l1.85-2 7.9 7.3c1.1 1 1.75 2.45 1.75 3.95v1.95h.05Zm-15-14.45-2.2-2c-.5-.45-1.1-.7-1.8-.7H346v-2.75h10.05c1.35 0 2.651.5 3.651 1.45l2.199 2-1.85 2ZM324.35 188.65H306.5v2.75h17.85v-2.75ZM269.85 233.35l-11.75-10.9 1.85-2 11.75 10.9-1.85 2ZM254.6 219.2l-1.2-1.15v-15.6h2.75v14.35l.35.3-1.9 2.1Zm1.55-21.5-2.75-.05V194c0-2.95 2.4-5.4 5.4-5.4h6.1v2.75h-6.05c-1.45 0-2.6 1.2-2.6 2.6v3.75h-.1Zm22.5-6.3h-9.05v-2.75h9.05v2.75ZM274.05 128.25H242.5c-4.2 0-7.6-3.4-7.6-7.6v-19.1c0-4.2 3.4-7.6 7.6-7.6h31.55c4.2 0 7.6 3.4 7.6 7.6v19.1c0 4.2-3.4 7.6-7.6 7.6Zm-31.5-31.45c-2.65 0-4.8 2.15-4.8 4.8v19.1c0 2.65 2.15 4.8 4.8 4.8h31.55c2.65 0 4.8-2.15 4.8-4.8v-19.1c0-2.65-2.15-4.8-4.8-4.8h-31.55Z"/><path fill="#222" d="M252.25 121.8v-20.05l16.6 10.05-16.6 10Zm2.8-15.15v10.25l8.5-5.15-8.5-5.1ZM236.35 109.75H152.8v2.75h83.55v-2.75ZM335.15 170.65h-2.75v-52.7c0-2.65-2.15-4.8-4.8-4.8h-47.3v-2.75h47.3c4.2 0 7.6 3.4 7.6 7.6v52.65h-.05Z"/><path fill="#FF0052" d="M333.8 147.95a4 4 0 1 0 0-8 4 4 0 0 0 0 8Z"/><path fill="#222" d="M333.8 149.35c-3 0-5.4-2.4-5.4-5.4 0-3 2.4-5.4 5.4-5.4 3 0 5.4 2.4 5.4 5.4 0 3-2.45 5.4-5.4 5.4Zm0-8c-1.45 0-2.65 1.2-2.65 2.65s1.2 2.65 2.65 2.65 2.65-1.2 2.65-2.65c-.05-1.5-1.2-2.65-2.65-2.65Z"/><path fill="#FF0052" d="M333.8 178.7a4 4 0 1 0 0-8 4 4 0 0 0 0 8Z"/><path fill="#222" d="M333.8 180.1c-3 0-5.4-2.4-5.4-5.4 0-3 2.4-5.4 5.4-5.4 3 0 5.4 2.4 5.4 5.4 0 3-2.45 5.4-5.4 5.4Zm0-8c-1.45 0-2.65 1.2-2.65 2.65s1.2 2.65 2.65 2.65 2.65-1.2 2.65-2.65c-.05-1.5-1.2-2.65-2.65-2.65Z"/><path fill="#FF0052" d="M312.4 115.15a4 4 0 1 0 0-8 4 4 0 0 0 0 8Z"/><path fill="#222" d="M312.4 116.55c-3 0-5.4-2.4-5.4-5.4 0-3 2.4-5.4 5.4-5.4 3 0 5.4 2.4 5.4 5.4 0 3-2.45 5.4-5.4 5.4Zm0-8.05c-1.45 0-2.65 1.2-2.65 2.65s1.2 2.65 2.65 2.65 2.65-1.2 2.65-2.65-1.2-2.65-2.65-2.65Z"/><path fill="#FF0052" d="M205.6 115.15a4 4 0 1 0 0-8 4 4 0 0 0 0 8Z"/><path fill="#222" d="M205.6 116.55c-3 0-5.4-2.4-5.4-5.4 0-3 2.4-5.4 5.4-5.4 3 0 5.4 2.4 5.4 5.4 0 3-2.4 5.4-5.4 5.4Zm0-8.05c-1.45 0-2.65 1.2-2.65 2.65s1.2 2.65 2.65 2.65 2.65-1.2 2.65-2.65-1.2-2.65-2.65-2.65Z"/><path fill="#FF0052" d="M152.8 115.15a4 4 0 1 0 0-8 4 4 0 0 0 0 8Z"/><path fill="#222" d="M152.8 116.55c-3 0-5.4-2.4-5.4-5.4 0-3 2.4-5.4 5.4-5.4 3 0 5.4 2.4 5.4 5.4 0 3-2.4 5.4-5.4 5.4Zm0-8.05c-1.45 0-2.65 1.2-2.65 2.65s1.2 2.65 2.65 2.65 2.65-1.2 2.65-2.65-1.2-2.65-2.65-2.65ZM143.45 313.55l-4.4-24.9-4.4 6.2H86.3c-4.2 0-7.6-3.4-7.6-7.6V234.5h2.75v52.75c0 2.65 2.15 4.8 4.8 4.8h46.9l7.4-10.4L144 301.1l8.25-29.45 6.95 30.25 5.9-19.9 6.9 10.1h78.15v2.75H170.6l-4.45-6.5-7.2 24.45-6.9-29.95-8.6 30.7Z"/><path fill="#FF0052" d="M193.6 297.45a4 4 0 1 0 0-8 4 4 0 0 0 0 8Z"/><path fill="#222" d="M193.6 298.85c-3 0-5.4-2.4-5.4-5.4 0-3 2.4-5.4 5.4-5.4 3 0 5.4 2.45 5.4 5.4s-2.45 5.4-5.4 5.4Zm0-8c-1.45 0-2.65 1.2-2.65 2.65s1.2 2.65 2.65 2.65 2.65-1.2 2.65-2.65-1.2-2.65-2.65-2.65Z"/><path fill="#FF0052" d="M109.9 297.45a4 4 0 1 0 0-8 4 4 0 0 0 0 8Z"/><path fill="#222" d="M109.9 298.85c-3 0-5.4-2.4-5.4-5.4 0-3 2.4-5.4 5.4-5.4 3 0 5.4 2.4 5.4 5.4 0 3-2.4 5.4-5.4 5.4Zm0-8c-1.45 0-2.65 1.2-2.65 2.65s1.2 2.65 2.65 2.65 2.65-1.2 2.65-2.65-1.2-2.65-2.65-2.65Z"/><path fill="#FF0052" d="M254.2 297.45a4 4 0 1 0 0-8 4 4 0 0 0 0 8Z"/><path fill="#222" d="M254.2 298.85c-3 0-5.4-2.4-5.4-5.4 0-3 2.4-5.4 5.4-5.4 3 0 5.4 2.4 5.4 5.4 0 3-2.4 5.4-5.4 5.4Zm0-8c-1.45 0-2.65 1.2-2.65 2.65s1.2 2.65 2.65 2.65 2.65-1.2 2.65-2.65-1.2-2.65-2.65-2.65Z"/><path fill="#FF0052" d="M80.1 269.1a4 4 0 1 0 0-8 4 4 0 0 0 0 8Z"/><path fill="#222" d="M80.1 270.5c-3 0-5.4-2.4-5.4-5.4 0-3 2.4-5.4 5.4-5.4 3 0 5.4 2.4 5.4 5.4 0 3-2.45 5.4-5.4 5.4Zm0-8c-1.45 0-2.65 1.2-2.65 2.65s1.2 2.65 2.65 2.65 2.65-1.2 2.65-2.65c0-1.5-1.2-2.65-2.65-2.65Z"/><path fill="#FF0052" d="M80.1 233.55a4 4 0 1 0 0-8 4 4 0 0 0 0 8Z"/><path fill="#222" d="M80.1 234.95c-3 0-5.4-2.4-5.4-5.4 0-3 2.4-5.4 5.4-5.4 3 0 5.4 2.4 5.4 5.4 0 3-2.45 5.4-5.4 5.4Zm0-8.05c-1.45 0-2.65 1.2-2.65 2.65s1.2 2.65 2.65 2.65 2.65-1.2 2.65-2.65-1.2-2.65-2.65-2.65ZM209.9 230.55h-2.75v-2.85c0-2.25 1.45-4.3 3.55-5.05l14.25-5.1.95 2.6-14.25 5.1a2.584 2.584 0 0 0-1.75 2.45v2.85ZM119.6 77.85c.05.2.1.35.1.55 0 2.5-4.5 5.8-10.6 7.65-6.6 2-12.55 1.6-13.35-.9-.05-.2-.1-.35-.1-.55 0-2.5 4.5-5.75 10.6-7.65 6.6-2.05 12.55-1.65 13.35.9Z"/><path fill="#222" d="M101.25 88.7c-3.45 0-6.2-.95-6.85-3.15-.1-.3-.15-.65-.15-.95 0-3.7 6-7.25 11.6-8.95 6.6-2 13.85-2.05 15.05 1.85.1.3.15.65.15.95 0 3.75-6 7.25-11.6 8.95-2.8.8-5.7 1.3-8.2 1.3ZM114 77c-1.9 0-4.4.35-7.35 1.25-6.2 1.9-9.65 4.95-9.65 6.35v.15c.35 1.1 4.75 2.1 11.6 0 6.2-1.9 9.65-4.95 9.65-6.35v-.15c-.2-.65-1.7-1.25-4.25-1.25ZM49.8 122.55c-3.45 0-6.15-.95-6.85-3.15-.1-.3-.15-.65-.15-.95 0-3.75 5.95-7.25 11.5-8.95 6.6-2 13.85-2.05 15.05 1.85.1.3.15.65.15.95 0 3.75-6 7.25-11.6 8.95-2.75.8-5.65 1.3-8.1 1.3Zm12.65-11.7c-1.9 0-4.4.35-7.35 1.25-6.15 1.9-9.55 4.95-9.55 6.35v.15c.35 1.1 4.7 2.05 11.5 0 6.2-1.9 9.65-4.95 9.65-6.35v-.15c-.2-.65-1.7-1.25-4.25-1.25ZM165.2 77.85c.05.2.1.35.1.55 0 2.5-4.5 5.8-10.6 7.65-6.6 2-12.55 1.6-13.35-.9-.05-.2-.1-.35-.1-.55 0-2.5 4.5-5.75 10.6-7.65 6.6-2.05 12.6-1.65 13.35.9Z"/><path fill="#222" d="M146.9 88.7c-3.45 0-6.2-.95-6.85-3.15-.1-.3-.15-.65-.15-.95 0-3.7 6-7.25 11.6-8.95 6.6-2 13.85-2.05 15.05 1.85.1.3.15.65.15.95 0 3.75-6 7.25-11.6 8.95-2.8.8-5.7 1.3-8.2 1.3ZM159.6 77c-1.9 0-4.4.35-7.35 1.25-6.2 1.9-9.65 4.95-9.65 6.35v.15c.35 1.1 4.75 2.1 11.6 0 6.2-1.9 9.65-4.95 9.65-6.35v-.15c-.15-.65-1.7-1.25-4.25-1.25Z"/><path fill="#D9D9D9" d="M89.2 170.55 52.8 183l-21.75-15.85v45.9l65.3.4c1 0 1.95.4 2.65 1.05l6.65 6.05 17.6 16.3v-66.3H89.2Z"/><path fill="#FF0052" d="M174.95 203.1h-34.3v38.1h34.3v-38.1Z"/><path fill="#222" d="M51.45 184.95v-8.45l37.5-12.85h35.9v8.3H89.4l-37.95 13Zm2.75-6.5v2.6l34.75-11.9h33.15v-2.75H89.4l-35.2 12.05ZM192.05 144.5H87.8v-8.3h104.25v2.8H90.55v2.75h101.5v2.75ZM176.3 242.6h-37.05v-40.85h37.05v40.85Zm-34.3-2.8h31.55v-35.3H142v35.3Z"/><path fill="#222" d="M159.15 203.1h-2.75v38.1h2.75v-38.1ZM142 242.6h-19.9V141.75H142V242.6Zm-17.15-2.8h14.4v-95.3h-14.4v95.3Z"/><path fill="#222" d="M124.85 166.4h-19.9v-24.65h19.9v24.65Zm-17.15-2.75h14.4V144.5h-14.4v19.15Z"/><path fill="#222" d="M107.7 166.4H87.8v-24.65h19.9v24.65Zm-17.15-2.75h14.4V144.5h-14.4v19.15ZM159.15 204.5h-19.9v-62.75h19.9v62.75ZM142 201.75h14.4V144.5H142v57.25Z"/><path fill="#222" d="M176.3 204.5h-19.9v-62.75h19.9v62.75Zm-17.15-2.75h14.4V144.5h-14.4v57.25Z"/><path fill="#222" d="M176.3 241.2h-2.75v-99.45h18.5v2.75H176.3v96.7ZM124.85 242.6H54.4c-1.35 0-2.65-.5-3.65-1.45L27.3 219.4c-1.1-1-1.7-2.45-1.7-3.95v-58.8l47.15-16.9.95 2.6-45.3 16.25v56.85c0 .75.3 1.45.85 1.9L52.7 239.1c.5.45 1.1.7 1.8.7h67.7v-67.85H115v-2.75h9.95v73.4h-.1Z"/><path fill="#222" d="M54.2 241.2h-2.75v-63.05L26.1 158.7l1.7-2.2 26.4 20.3v64.4ZM90.55 170.55H87.8V138.2l-15.55-14.45 1.85-2L90.55 137v33.55Z"/><path fill="#222" d="M88.25 166.05 71.8 150.8v-24.05c0-2.95 2.4-5.4 5.4-5.4h97.15c1.45 0 2.9.55 3.95 1.55l13.45 12.45c1.1 1 1.7 2.45 1.7 3.95v5.35h-2.75v-5.35c0-.75-.3-1.45-.85-1.9l-13.45-12.45c-.55-.55-1.3-.8-2.1-.8H77.2c-1.45 0-2.6 1.15-2.6 2.6v22.8L90.15 164l-1.9 2.05Z"/><path fill="#222" d="M188.05 242.6h-90.5v-2.75h90.5c1.45 0 2.6-1.15 2.6-2.6v-92.5h2.75v92.5c.05 2.9-2.35 5.35-5.35 5.35ZM98.95 170.55H96.2v46.65h2.75v-46.65Z"/><path fill="#222" d="M122.55 242.2 97.8 219.25c-.5-.45-1.1-.7-1.8-.7H27.4v-2.75H96c1.35 0 2.65.5 3.65 1.45l24.75 22.95-1.85 2ZM27.785 162.895l-1.673 2.182 25.868 19.84 1.674-2.182-25.869-19.84ZM74.097 128.092l-1.87 2.017 16.023 14.856 1.87-2.017-16.023-14.856Z"/><path fill="#D9D9D9" d="m95.65 84.9.35 43.05c0 2.65 5.4 4.75 12 4.75 6.15 0 11.25-1.85 11.95-4.2.05-.2.1-.35.1-.55l-.35-49.2"/><path fill="#222" d="M108 134.1c-8.8 0-13.4-3.1-13.4-6.15l-.35-43.05H97l.35 43.05c0 1.15 3.75 3.4 10.65 3.4 6.2 0 10.2-1.9 10.6-3.2 0-.05.05-.1.05-.15l-.35-49.2h2.75l.35 49.2c0 .35-.05.65-.15.95-1.05 3.5-7.65 5.15-13.25 5.15Z"/><path fill="#444" d="M119.6 77.85c.05.2.1.35.1.55 0 2.5-4.5 5.8-10.6 7.65-6.6 2-12.55 1.6-13.35-.9-.05-.2-.1-.35-.1-.55 0-2.5 4.5-5.75 10.6-7.65 6.6-2.05 12.55-1.65 13.35.9Z"/><path fill="#D9D9D9" d="m44.2 118.75.15 43.05c0 2.65 5.55 5.8 12.1 4.75 6.9-1.1 11.95-5.25 11.95-9.6 0-4.3-.25-44.4-.25-44.4"/><path fill="#222" d="M53.8 168.15c-4.05 0-7.3-1.45-9-2.9-1.25-1.05-1.9-2.25-1.9-3.5l-.15-43.05h2.75l.15 43.05c0 .3.25.8.95 1.35 1.75 1.5 5.4 2.7 9.6 2.05 6.15-1 10.75-4.5 10.75-8.25 0-4.25-.25-43.95-.25-44.4h2.75c0 .4.25 40.15.25 44.4 0 5.15-5.5 9.75-13.1 10.95-.95.2-1.9.3-2.8.3Z"/><path fill="#222" d="M68.05 111.65c.05.2.1.35.1.55 0 2.5-4.5 5.8-10.6 7.65-6.6 2-12.45 1.6-13.25-.9-.05-.2-.1-.35-.1-.55 0-2.5 4.4-5.75 10.5-7.65 6.6-2 12.55-1.6 13.35.9Z"/><path fill="#222" d="M49.8 122.55c-3.45 0-6.15-.95-6.85-3.15-.1-.3-.15-.65-.15-.95 0-3.75 5.95-7.25 11.5-8.95 6.6-2 13.85-2.05 15.05 1.85.1.3.15.65.15.95 0 3.75-6 7.25-11.6 8.95-2.75.8-5.65 1.3-8.1 1.3Zm12.65-11.7c-1.9 0-4.4.35-7.35 1.25-6.15 1.9-9.55 4.95-9.55 6.35v.15c.35 1.1 4.7 2.05 11.5 0 6.2-1.9 9.65-4.95 9.65-6.35v-.15c-.2-.65-1.7-1.25-4.25-1.25Z"/><path fill="#D9D9D9" d="m141.25 84.9.35 43.05c0 2.65 5.4 4.75 12 4.75 6.15 0 11.25-1.85 11.95-4.2.05-.2.1-.35.1-.55l-.35-49.2"/><path fill="#222" d="M153.6 134.1c-8.8 0-13.4-3.1-13.4-6.15l-.35-43.05h2.75l.35 43.05c0 1.15 3.75 3.4 10.65 3.4 6.2 0 10.2-1.9 10.6-3.2 0-.05.05-.1.05-.15l-.35-49.2h2.75L167 128c0 .35-.05.65-.15.95-1.05 3.5-7.6 5.15-13.25 5.15Z"/><path fill="#444" d="M165.2 77.85c.05.2.1.35.1.55 0 2.5-4.5 5.8-10.6 7.65-6.6 2-12.55 1.6-13.35-.9-.05-.2-.1-.35-.1-.55 0-2.5 4.5-5.75 10.6-7.65 6.6-2.05 12.6-1.65 13.35.9Z"/><path fill="#222" d="M119.6 77.85c.05.2.1.35.1.55 0 2.5-4.5 5.8-10.6 7.65-6.6 2-12.55 1.6-13.35-.9-.05-.2-.1-.35-.1-.55 0-2.5 4.5-5.75 10.6-7.65 6.6-2.05 12.55-1.65 13.35.9Z"/><path fill="#222" d="M101.25 88.7c-3.45 0-6.2-.95-6.85-3.15-.1-.3-.15-.65-.15-.95 0-3.7 6-7.25 11.6-8.95 6.6-2 13.85-2.05 15.05 1.85.1.3.15.65.15.95 0 3.75-6 7.25-11.6 8.95-2.8.8-5.7 1.3-8.2 1.3ZM114 77c-1.9 0-4.4.35-7.35 1.25-6.2 1.9-9.65 4.95-9.65 6.35v.15c.35 1.1 4.75 2.1 11.6 0 6.2-1.9 9.65-4.95 9.65-6.35v-.15c-.2-.65-1.7-1.25-4.25-1.25ZM49.8 122.55c-3.45 0-6.15-.95-6.85-3.15-.1-.3-.15-.65-.15-.95 0-3.75 5.95-7.25 11.5-8.95 6.6-2 13.85-2.05 15.05 1.85.1.3.15.65.15.95 0 3.75-6 7.25-11.6 8.95-2.75.8-5.65 1.3-8.1 1.3Zm12.65-11.7c-1.9 0-4.4.35-7.35 1.25-6.15 1.9-9.55 4.95-9.55 6.35v.15c.35 1.1 4.7 2.05 11.5 0 6.2-1.9 9.65-4.95 9.65-6.35v-.15c-.2-.65-1.7-1.25-4.25-1.25ZM165.2 77.85c.05.2.1.35.1.55 0 2.5-4.5 5.8-10.6 7.65-6.6 2-12.55 1.6-13.35-.9-.05-.2-.1-.35-.1-.55 0-2.5 4.5-5.75 10.6-7.65 6.6-2.05 12.6-1.65 13.35.9Z"/><path fill="#222" d="M146.9 88.7c-3.45 0-6.2-.95-6.85-3.15-.1-.3-.15-.65-.15-.95 0-3.7 6-7.25 11.6-8.95 6.6-2 13.85-2.05 15.05 1.85.1.3.15.65.15.95 0 3.75-6 7.25-11.6 8.95-2.8.8-5.7 1.3-8.2 1.3ZM159.6 77c-1.9 0-4.4.35-7.35 1.25-6.2 1.9-9.65 4.95-9.65 6.35v.15c.35 1.1 4.75 2.1 11.6 0 6.2-1.9 9.65-4.95 9.65-6.35v-.15c-.15-.65-1.7-1.25-4.25-1.25Z"/></svg>