<svg xmlns="http://www.w3.org/2000/svg" width="400" height="400" fill="none" viewBox="0 0 400 400"><path fill="#444" d="m319.741 269.625 22.376 1.295c1.85.185 3.514-1.11 4.069-2.959l15.164-58.252c.555-1.85-.37-3.699-2.034-4.624l-23.671-11.465c-.74-12.02-3.514-22.746-7.397-33.472-.555-1.295-.185-2.774.739-3.884l15.165-18.123c1.294-1.479 1.294-3.513 0-4.993l-37.726-46.971c-1.109-1.48-3.328-1.85-4.993-1.11l-20.342 10.54c-1.294.74-2.774.556-4.068-.184-9.062-5.918-18.678-10.541-29.034-14.055-1.295-.37-2.404-1.664-2.589-2.959l-4.253-21.636c-.37-1.85-2.035-3.144-3.884-3.144h-60.472c-1.849 0-3.513 1.295-3.883 3.144l-4.253 21.636c-.37 1.48-1.295 2.59-2.589 2.96-10.356 3.513-20.158 8.136-29.034 14.054-1.295.74-2.774.925-4.069.185l-20.342-10.541c-1.664-.925-3.698-.37-4.993 1.11l-37.725 46.971a4.16 4.16 0 0 0 0 4.993l15.164 18.123c.925 1.11 1.11 2.589.74 3.884-3.884 10.726-6.473 22.006-7.213 33.842l-23.67 11.465c-1.665.74-2.59 2.774-2.035 4.624l15.165 58.252c.554 1.849 2.219 3.144 4.068 2.959l22.561-1.295c1.48-.185 2.774.555 3.514 1.85 5.548 8.876 12.39 17.013 19.787 24.225 1.11.925 1.48 2.404 1.11 3.884l-5.733 22.191c-.555 1.849.37 3.699 2.219 4.623l54.369 26.075c1.664.74 3.699.37 4.993-1.109l14.425-19.233c.924-1.109 2.219-1.664 3.698-1.479 4.623.554 9.432.739 14.24.739s9.616-.369 14.239-.739c1.48-.185 2.774.37 3.699 1.479l14.424 19.233c1.11 1.479 3.144 2.034 4.993 1.109l54.369-26.075c1.664-.739 2.589-2.774 2.034-4.623l-5.732-22.191c-.37-1.48 0-2.959 1.109-3.884 7.582-7.397 14.425-15.534 20.157-24.595.185-1.295 1.48-2.034 3.144-1.85Z"/><path fill="#222" d="M171.613 354.693c-.739 0-1.664-.185-2.404-.555l-54.369-26.075c-2.219-1.11-3.513-3.699-2.958-6.103l5.732-22.191c.185-.925 0-1.849-.739-2.589-7.582-7.397-14.425-15.534-20.157-24.596-.555-.739-1.48-1.294-2.405-1.294l-22.191 1.479c-2.589.185-4.808-1.479-5.548-4.068L51.41 210.448c-.555-2.404.555-4.993 2.959-6.102L77.3 193.25c.925-11.281 3.144-22.376 7.212-33.472.37-.925.185-1.849-.37-2.589l-15.164-18.123c-1.664-2.034-1.664-4.808 0-6.842l37.726-46.972c1.664-2.034 4.438-2.59 6.657-1.48l20.342 10.541c.925.37 1.849.37 2.589-.184 9.062-5.918 19.048-10.726 29.404-14.24.924-.37 1.479-1.11 1.664-2.034l4.253-21.637c.555-2.589 2.774-4.253 5.178-4.253h60.287c2.589 0 4.808 1.85 5.178 4.253l4.253 21.637c.185.924.925 1.664 1.665 2.034 10.356 3.514 20.342 8.322 29.403 14.24.74.554 1.85.554 2.589.184l20.343-10.54c2.219-1.11 4.993-.555 6.657 1.479l37.725 46.972c1.665 2.034 1.48 4.808 0 6.842l-15.164 18.123c-.555.74-.74 1.664-.37 2.589 4.254 11.651 6.658 22.191 7.397 33.102l22.932 11.096c2.219 1.11 3.513 3.698 2.774 6.103l-15.165 58.252c-.554 2.404-2.958 4.068-5.547 4.068l-22.932-1.294c-.739.185-1.479.555-1.849 1.294-5.733 9.062-12.575 17.569-20.342 24.966-.74.739-.925 1.664-.74 2.589l5.733 22.191c.555 2.404-.555 4.993-2.774 6.103l-54.369 26.075c-2.404 1.109-5.178.37-6.657-1.665l-14.425-19.232a2.406 2.406 0 0 0-2.404-.925c-4.993.555-9.801.74-14.424.74-4.623 0-9.431-.185-14.424-.74a2.408 2.408 0 0 0-2.405.925l-14.424 19.047c-.555 1.48-2.219 2.22-3.699 2.22Zm-76.745-85.992c1.85 0 3.514.924 4.439 2.589 5.547 8.691 12.205 16.828 19.602 24.041a4.98 4.98 0 0 1 1.479 5.178l-5.732 22.191c-.37 1.109.184 2.404 1.479 2.959l54.369 26.075c1.109.554 2.404.185 3.144-.74l14.424-19.048c1.11-1.479 2.959-2.219 4.808-2.034 4.808.555 9.617.74 14.055.74 4.438 0 9.246-.185 14.054-.74 1.85-.185 3.699.555 4.808 2.034l14.425 19.048c.74.925 2.034 1.294 3.144.74l54.369-26.075c1.109-.555 1.664-1.85 1.294-2.959l-5.733-22.191a4.98 4.98 0 0 1 1.48-5.178c7.582-7.213 14.239-15.534 19.787-24.411 1.11-1.664 2.774-2.589 4.808-2.589l.74.185 21.821 1.294c1.295 0 2.405-.739 2.589-1.849l15.165-58.252c.369-1.295-.185-2.404-1.295-2.959l-24.41-11.836v-.739c-.74-10.911-3.144-21.452-7.398-33.102a5.165 5.165 0 0 1 .925-5.363l15.164-18.123c.74-.925.74-2.404 0-3.329l-37.355-47.342c-.74-.924-2.219-1.294-3.144-.74l-20.342 10.541c-1.665.925-3.699.74-5.363-.184-8.877-5.733-18.493-10.541-28.849-13.87-1.849-.555-3.144-2.22-3.514-4.069l-4.253-21.636c-.185-1.295-1.294-2.034-2.589-2.034h-60.472c-1.294 0-2.219.924-2.589 2.034l-4.068 21.636c-.37 1.85-1.664 3.33-3.514 4.069-10.171 3.329-19.787 8.137-28.848 13.87-1.665 1.11-3.699 1.11-5.363.184l-20.342-10.54c-1.11-.555-2.405-.37-3.329.74l-37.725 46.971c-.74.925-.74 2.404 0 3.329l15.164 18.123a5.162 5.162 0 0 1 .924 5.363c-4.068 11.28-6.287 22.191-7.212 33.472v.739l-24.41 11.836c-1.11.555-1.665 1.849-1.48 2.959l15.164 58.252c.37 1.295 1.48 2.034 2.59 1.849l22.56-1.294c.37.185.37.185.555.185Z"/><path fill="#DADADA" d="m314.008 262.413 22.377 1.295c1.849.185 3.513-1.11 4.068-2.959l15.164-58.252c.555-1.85-.37-3.699-2.034-4.624l-23.671-11.465c-.74-12.021-3.514-22.746-7.397-33.472-.555-1.295-.185-2.774.74-3.884l15.164-18.123c1.294-1.479 1.294-3.513 0-4.993l-37.726-46.972c-1.109-1.479-3.328-1.849-4.993-1.11l-20.342 10.542c-1.294.74-2.774.555-4.068-.185-9.062-5.918-18.678-10.541-29.034-14.055-1.294-.37-2.404-1.664-2.589-2.959l-4.253-21.636c-.37-1.85-2.034-3.144-3.884-3.144h-60.286c-1.85 0-3.514 1.294-3.884 3.144l-4.253 21.636c-.37 1.48-1.295 2.59-2.589 2.96a129.61 129.61 0 0 0-29.219 14.239c-1.294.74-2.774.924-4.068.185L106.889 78.04c-1.665-.925-3.699-.37-4.993 1.11l-37.54 46.786a4.16 4.16 0 0 0 0 4.993l15.163 18.123c.925 1.11 1.11 2.589.74 3.884-3.884 10.726-6.473 22.006-7.212 33.842l-23.671 11.465c-1.664.74-2.59 2.774-2.034 4.623l15.164 58.253c.555 1.849 2.219 3.144 4.068 2.959l22.561-1.295c1.48-.185 2.774.555 3.514 1.849 5.548 8.877 12.39 17.014 19.787 24.226 1.11.925 1.48 2.404 1.11 3.884l-5.733 22.191c-.555 1.849.37 3.699 2.219 4.623l54.184 26.26a4.3 4.3 0 0 0 4.993-1.11l14.425-19.232c.924-1.11 2.219-1.665 3.698-1.48 4.624.555 9.432.74 14.24.74s9.616-.37 14.239-.74c1.48-.185 2.774.37 3.699 1.48l14.424 19.232c1.11 1.48 3.144 2.035 4.993 1.11l54.369-26.075c1.665-.74 2.589-2.774 2.035-4.623l-5.733-22.192c-.37-1.479 0-2.958 1.109-3.883 7.582-7.397 14.425-15.534 20.158-24.596.369-1.294 1.664-2.034 3.143-2.034Z"/><path fill="#222" d="M165.881 347.665c-.74 0-1.665-.185-2.404-.554l-54.369-26.075c-2.219-1.11-3.514-3.699-2.959-6.103l5.733-22.191c.185-.925 0-1.85-.74-2.589-7.582-7.398-14.424-15.534-20.157-24.596-.555-.74-1.48-1.294-2.404-1.294l-22.007 1.294c-2.589.185-4.808-1.479-5.548-4.068l-15.164-58.253c-.74-2.404.555-4.993 2.774-6.102l22.931-11.096c.925-11.281 3.144-22.376 7.213-33.472.37-.925.184-1.849-.37-2.589l-15.164-18.123c-1.665-2.034-1.665-4.808 0-6.842L100.97 78.04c1.664-2.034 4.438-2.59 6.657-1.48l20.342 10.541c.74.37 1.85.37 2.589-.185 9.062-5.917 19.048-10.725 29.404-14.24.925-.369 1.479-1.109 1.664-2.033l4.254-21.637c.554-2.589 2.774-4.253 5.178-4.253h60.286c2.589 0 4.808 1.849 5.178 4.253l4.254 21.637c.185.924.924 1.664 1.664 2.034 10.356 3.513 20.342 8.322 29.404 14.24.739.554 1.849.554 2.589.184l20.342-10.54c2.219-1.11 4.993-.555 6.657 1.479l37.726 46.972c1.664 2.034 1.479 4.808 0 6.842l-15.165 18.123c-.554.74-.739 1.664-.369 2.589 4.253 11.65 6.657 22.191 7.397 33.102l22.931 11.096c2.219 1.109 3.513 3.698 2.774 6.102l-15.164 58.253c-.555 2.404-2.959 4.068-5.548 4.068l-22.931-1.294c-.74.185-1.48.555-1.85 1.294-5.732 9.062-12.575 17.568-20.342 24.966-.739.739-.924 1.664-.739 2.589l5.732 22.191c.555 2.404-.554 4.993-2.774 6.103l-54.369 26.075c-2.404 1.109-5.178.369-6.657-1.665l-14.424-19.232a2.408 2.408 0 0 0-2.404-.925c-4.993.555-9.802.74-14.425.74-4.623 0-9.431-.185-14.424-.74a2.406 2.406 0 0 0-2.404.925l-14.425 19.047c-.37 1.665-2.034 2.404-3.698 2.404Zm-76.746-86.176c1.85 0 3.514.924 4.439 2.589 5.548 8.691 12.205 16.828 19.602 24.04a4.981 4.981 0 0 1 1.48 5.178l-5.733 22.192c-.37 1.109.185 2.404 1.479 2.959l54.369 26.075c1.11.554 2.404.184 3.144-.74l14.424-19.048c1.11-1.479 2.959-2.404 4.808-2.034 4.809.555 9.617.74 14.055.74 4.438 0 9.246-.185 14.055-.74 1.849-.185 3.698.555 4.808 2.034l14.424 19.048c.74.924 2.034 1.294 3.144.74l54.369-26.075c1.109-.555 1.664-1.85 1.479-2.959l-5.732-22.192a4.979 4.979 0 0 1 1.479-5.178c7.582-7.212 14.239-15.534 19.787-24.41a5.814 5.814 0 0 1 4.808-2.589l.74.185 21.822 1.294c1.294 0 2.404-.739 2.589-1.849l15.164-58.252c.37-1.295-.185-2.405-1.295-2.959l-24.41-11.836v-.739c-.74-10.911-3.144-21.452-7.397-33.103-.74-1.849-.37-3.883.924-5.363l15.164-18.122c.74-.925.74-2.405 0-3.329l-37.54-47.342c-.74-.924-2.219-1.294-3.144-.74l-20.342 10.541c-1.664.925-3.699.74-5.363-.185-8.876-5.732-18.678-10.54-28.849-13.87-1.849-.554-3.144-2.218-3.513-4.068l-4.254-21.451c-.185-1.295-1.294-2.034-2.589-2.034h-60.286c-1.295 0-2.22.924-2.589 2.034l-4.254 21.636c-.37 1.85-1.664 3.329-3.513 4.069-10.171 3.328-19.788 8.137-28.849 13.87-1.665 1.109-3.699 1.109-5.363.184l-20.342-10.54c-1.11-.555-2.404-.37-3.329.74l-37.54 46.786c-.74.925-.74 2.404 0 3.329l15.164 18.123a5.162 5.162 0 0 1 .924 5.363c-4.068 11.28-6.287 22.191-7.212 33.472v.739l-24.41 11.836c-1.11.554-1.665 1.849-1.48 2.959l15.164 58.252c.37 1.295 1.48 2.034 2.59 1.849l22.56-1.294c.186.185.37.185.37.185Z"/><path fill="#FF3158" d="M201.387 295.7c54.948 0 99.491-44.543 99.491-99.491s-44.543-99.492-99.491-99.492-99.491 44.544-99.491 99.492c0 54.948 44.543 99.491 99.491 99.491Z"/><path fill="#222" d="M201.387 297.18c-55.663 0-100.971-45.308-100.971-100.971 0-55.664 45.308-100.971 100.971-100.971 55.663 0 100.971 45.307 100.971 100.971 0 55.663-45.308 100.971-100.971 100.971Zm0-199.168c-54.184 0-98.197 44.013-98.197 98.197 0 54.184 44.013 98.197 98.197 98.197 54.184 0 98.197-44.013 98.197-98.197 0-54.184-44.013-98.197-98.197-98.197Z"/><path fill="#fff" d="M201.387 276.098c44.121 0 79.889-35.768 79.889-79.889 0-44.122-35.768-79.889-79.889-79.889-44.122 0-79.889 35.767-79.889 79.889 0 44.121 35.767 79.889 79.889 79.889Z"/><path fill="#222" d="M201.387 277.392c-44.753 0-81.369-36.43-81.369-81.368 0-44.753 36.431-81.368 81.369-81.368 44.753 0 81.368 36.43 81.368 81.368 0 44.938-36.615 81.368-81.368 81.368Zm0-159.778c-43.273 0-78.595 35.137-78.595 78.595 0 43.273 35.137 78.594 78.595 78.594 43.273 0 78.594-35.136 78.594-78.594 0-43.273-35.321-78.595-78.594-78.595Z"/><path fill="#444" d="m264.078 165.141-76.561 76.561-48.451-45.308 17.014-12.575 31.437 28.294 61.027-61.026 15.534 14.054Z"/><path fill="#222" d="M187.517 242.996a1.41 1.41 0 0 1-.924-.37l-48.452-45.307c-.369-.37-.369-.74-.369-1.11 0-.37.185-.74.554-1.109l17.014-12.576c.555-.369 1.294-.369 1.664 0l30.513 27.37 60.102-60.102c.555-.555 1.295-.555 1.849 0l15.534 14.055c.37.185.37.554.37.924s-.185.74-.37.925l-76.56 76.56c-.185.555-.555.74-.925.74Zm-46.232-46.417 46.232 43.088 74.526-74.526-13.499-12.205-60.102 60.102c-.555.554-1.295.554-1.849 0l-30.698-27.555-14.61 11.096Z"/></svg>