<svg xmlns="http://www.w3.org/2000/svg" width="400" height="400" fill="none" viewBox="0 0 400 400"><path fill="#444" d="M269.645 71.68H49.165v282.18h220.48V71.68Z"/><path fill="#fff" d="M279.736 61.89H62.611v280.175h217.125V61.89Z"/><path fill="#222" d="M281.126 343.455H61.221V60.5h219.905v282.955Zm-217.125-2.78h214.35V63.28H64.001v277.395Z"/><path fill="#fff" d="M290.85 50.775H73.725V330.95H290.85V50.775Z"/><path fill="#222" d="M292.24 332.34H72.335V49.385H292.24V332.34Zm-217.125-2.78h214.35V52.165H75.115V329.56Z"/><path fill="#fff" d="M122.315 279.28h-30.37v27.38h30.37v-27.38Z"/><path fill="#222" d="M123.705 308.05h-33.15v-30.16h33.15v30.16Zm-30.37-2.78h27.595v-24.605H93.335v24.605Z"/><path fill="#F5F4F3" d="M272.8 274.535H143.85v27.38H272.8v-27.38Z"/><path fill="#222" d="M266.95 308.05h-129.7v-30.16h129.7v30.16Zm-126.925-2.78H264.17v-24.605H140.025v24.605Z"/><path fill="#fff" d="M122.315 236.52h-30.37v27.38h30.37v-27.38Z"/><path fill="#222" d="M123.705 265.29h-33.15v-30.16h33.15v30.16Zm-30.37-2.78h27.595v-24.605H93.335v24.605Z"/><path fill="#F5F4F3" d="M272.8 231.775H143.85v27.38H272.8v-27.38Z"/><path fill="#222" d="M266.95 265.29h-129.7v-30.16h129.7v30.16Zm-126.925-2.78H264.17v-24.605H140.025v24.605Z"/><path fill="#fff" d="m157.85 88.005-14.835-14.25v66.22H121.17l-27.445-26.36v75.845l27.47 25.13v-.055l.015.055h149.64V88.005h-113Z"/><path fill="#DADADA" d="m173.96 144.68-52.47.89-23.315-21.295v60.12l71.68.445 8.345 7.625 18.86 17.5V144.68h-23.1ZM160.491 95.115v38.965l-14.055-13.03V82.08l14.055 13.035Z"/><path fill="#FF3158" d="M252.455 173.735H215.67v40.86h36.785v-40.86ZM169.51 188.85H93.725l27.765 25.74h75.785l-27.765-25.74Z"/><path fill="#222" d="M197.275 146.07H121.49a1.39 1.39 0 0 1-1.39-1.39v-5.93c0-.765.62-1.39 1.39-1.39h75.785c.765 0 1.39.62 1.39 1.39v5.93c0 .765-.62 1.39-1.39 1.39Zm-74.395-2.78h73.01v-3.15h-73.01v3.15ZM270.85 95.83H160.49a1.39 1.39 0 0 1-1.39-1.39v-5.93c0-.765.62-1.39 1.39-1.39h110.36c.765 0 1.39.62 1.39 1.39v5.93c0 .765-.62 1.39-1.39 1.39Zm-108.97-2.78h107.58V89.9H161.88v3.15ZM252.454 215.98h-36.785a1.39 1.39 0 0 1-1.39-1.39v-40.86c0-.765.62-1.39 1.39-1.39h36.785c.765 0 1.39.62 1.39 1.39v40.86c0 .765-.62 1.39-1.39 1.39Zm-35.395-2.78h34.01v-38.08h-34.01v38.08Z"/><path fill="#222" d="M235.455 173.735h-2.78v40.86h2.78v-40.86ZM215.67 215.98h-18.395a1.39 1.39 0 0 1-1.39-1.39V94.44c0-.765.62-1.39 1.39-1.39h18.395c.765 0 1.39.62 1.39 1.39v120.15c0 .765-.62 1.39-1.39 1.39Zm-17.005-2.78h15.615V95.83h-15.615V213.2Z"/><path fill="#222" d="M197.275 140.14H178.88a1.39 1.39 0 0 1-1.39-1.39V94.44c0-.765.62-1.39 1.39-1.39h18.395c.765 0 1.39.62 1.39 1.39v44.31c0 .765-.62 1.39-1.39 1.39Zm-17.005-2.78h15.615V95.83H180.27v41.53Z"/><path fill="#222" d="M178.885 140.14H160.49a1.39 1.39 0 0 1-1.39-1.39V94.44c0-.765.62-1.39 1.39-1.39h18.395c.765 0 1.39.62 1.39 1.39v44.31c0 .765-.62 1.39-1.39 1.39Zm-17.005-2.78h15.615V95.83H161.88v41.53ZM234.064 175.125h-18.395a1.39 1.39 0 0 1-1.39-1.39V94.44c0-.765.62-1.39 1.39-1.39h18.395c.765 0 1.39.62 1.39 1.39v79.29c0 .765-.62 1.39-1.39 1.39v.005Zm-17.005-2.78h15.615V95.83h-15.615v76.515Z"/><path fill="#222" d="M252.455 175.125H234.06a1.39 1.39 0 0 1-1.39-1.39V94.44c0-.765.62-1.39 1.39-1.39h18.395c.765 0 1.39.62 1.39 1.39v79.29c0 .765-.62 1.39-1.39 1.39v.005Zm-17.005-2.78h15.615V95.83H235.45v76.515Z"/><path fill="#222" d="M270.849 215.98h-18.395a1.39 1.39 0 0 1-1.39-1.39V94.44c0-.765.62-1.39 1.39-1.39h18.395c.765 0 1.39.62 1.39 1.39v120.15c0 .765-.62 1.39-1.39 1.39Zm-17.005-2.78h15.615V95.83h-15.615V213.2ZM197.275 215.98H121.49c-.35 0-.69-.13-.945-.37L92.78 189.865a1.385 1.385 0 0 1-.445-1.02v-75.84c0-.765.62-1.39 1.39-1.39h49.595v2.78H95.115v73.845l26.92 24.96h73.855v-67.135h-73.01v59.625h-2.78v-61.015c0-.765.62-1.39 1.39-1.39h75.785c.765 0 1.39.62 1.39 1.39v69.91c0 .765-.62 1.39-1.39 1.39v.005Z"/><path fill="#222" d="M122.879 214.59h-2.78v-75.235l-27.32-25.33 1.89-2.035 27.765 25.745c.285.265.445.63.445 1.02v75.84-.005ZM161.88 138.75h-2.78V89.12l-16.725-15.505 1.89-2.035 17.17 15.92c.285.265.445.63.445 1.02v50.24-.01Z"/><path fill="#222" d="m159.545 139.77-17.17-15.92a1.385 1.385 0 0 1-.445-1.02V72.59c0-.765.62-1.39 1.39-1.39h110.36c.35 0 .69.13.945.37l17.17 15.92-1.89 2.035-16.77-15.55H144.71v48.245l16.725 15.505-1.89 2.035v.01ZM270.85 215.98H169.51v-2.78h99.95v-74.45h2.78v75.84c0 .765-.62 1.39-1.39 1.39Z"/><path fill="#222" d="m170.457 187.849-1.891 2.038 27.765 25.747 1.89-2.039-27.764-25.746Z"/><path fill="#222" d="M169.51 190.235H93.725v-2.78h74.395v-42.78h2.78v44.17c0 .765-.62 1.39-1.39 1.39ZM94.669 118.815l-1.89 2.039 27.764 25.746 1.89-2.038-27.764-25.747ZM144.273 78.4l-1.89 2.039 17.169 15.921 1.89-2.038L144.273 78.4ZM253.68 72.595H143.32l17.17 15.92h110.36l-17.17-15.92ZM143.32 122.83v-9.825H93.725l2.295 2.13 25.47 23.615h39l-17.17-15.92Z"/><path fill="#fff" d="M284.55 258.205c-20.36 18.405-51.79 16.82-70.195-3.54-18.41-20.36-16.825-51.79 3.535-70.195 20.36-18.41 51.79-16.82 70.195 3.54 18.41 20.36 16.825 51.785-3.535 70.195Z"/><path fill="#222" d="M251.285 272.425c-.875 0-1.75-.02-2.635-.065-13.63-.685-26.175-6.64-35.325-16.765-9.155-10.12-13.815-23.205-13.13-36.835.685-13.63 6.64-26.175 16.76-35.325 10.12-9.155 23.2-13.81 36.835-13.125 13.63.69 26.175 6.64 35.325 16.765 9.155 10.12 13.815 23.2 13.13 36.83-.685 13.625-6.64 26.175-16.76 35.325-9.47 8.56-21.525 13.19-34.2 13.19v.005Zm-.125-99.4c-11.985 0-23.385 4.38-32.335 12.475-9.575 8.655-15.2 20.515-15.85 33.405-.65 12.89 3.76 25.26 12.415 34.83 8.65 9.575 20.515 15.2 33.405 15.85 12.885.65 25.26-3.755 34.83-12.41 9.575-8.655 15.2-20.52 15.85-33.405.65-12.885-3.76-25.255-12.415-34.825-8.655-9.575-20.515-15.205-33.405-15.855a52.105 52.105 0 0 0-2.495-.065Z"/><path fill="#DADADA" d="M300.455 176.825c-24.585-27.195-66.555-29.31-93.75-4.725-27.19 24.58-29.305 66.555-4.725 93.74 24.585 27.195 66.555 29.31 93.75 4.725 27.19-24.58 29.305-66.555 4.725-93.74ZM284.55 258.2c-20.36 18.405-51.79 16.82-70.195-3.54-18.41-20.36-16.825-51.79 3.535-70.195 20.36-18.41 51.79-16.82 70.195 3.54 18.41 20.36 16.825 51.785-3.535 70.195Z"/><path fill="#222" d="M251.255 289.065c-18.505 0-36.94-7.515-50.3-22.29C188.82 253.35 182.64 236 183.55 217.925c.91-18.075 8.805-34.715 22.23-46.85 13.425-12.14 30.78-18.325 48.855-17.41 18.075.91 34.715 8.81 46.855 22.235 25.055 27.715 22.89 70.65-4.825 95.705-12.94 11.7-29.2 17.465-45.41 17.465v-.005Zm-.11-132.715c-16.12 0-31.455 5.89-43.505 16.78-12.875 11.64-20.445 27.595-21.32 44.93s5.055 33.975 16.69 46.85c24.03 26.58 65.205 28.655 91.785 4.625s28.655-65.2 4.625-91.78c-11.64-12.875-27.6-20.45-44.935-21.325a68.248 68.248 0 0 0-3.35-.085l.01.005Zm.14 116.075c-.875 0-1.75-.02-2.635-.065-13.63-.685-26.175-6.64-35.325-16.765-9.155-10.12-13.815-23.205-13.13-36.835.685-13.63 6.64-26.175 16.76-35.325 10.12-9.155 23.2-13.81 36.835-13.125 13.63.69 26.175 6.64 35.325 16.765 18.89 20.895 17.26 53.265-3.635 72.155-9.47 8.56-21.525 13.19-34.2 13.19l.005.005Zm-.125-99.4c-11.985 0-23.385 4.38-32.335 12.475-9.575 8.655-15.2 20.515-15.85 33.405-.65 12.89 3.76 25.26 12.415 34.83 17.86 19.76 48.47 21.3 68.235 3.44 19.76-17.865 21.3-48.475 3.435-68.235-8.655-9.575-20.515-15.205-33.405-15.855a52.105 52.105 0 0 0-2.495-.065v.005Z"/><path fill="#222" d="m300.099 266.315-9.095 8.221 15.966 17.663 9.095-8.221-15.966-17.663ZM323.05 277.908l-23.124 20.902 45.209 50.016 23.123-20.902-45.208-50.016Z"/><path fill="#222" d="m345.045 350.75-47.075-52.075 25.185-22.765 47.075 52.075-25.185 22.765Zm-43.155-51.875 43.35 47.955 21.06-19.04-43.35-47.955-21.06 19.04Z"/><path fill="#FF3158" d="m213.43 211.085 13.515-12.805 26.735 28.46 56.375-60.62 11.78 14.24-68.155 73.185-40.25-42.46Z"/><path fill="#222" d="m253.69 255.57-42.22-44.535 15.535-14.72 26.67 28.39 56.44-60.69 13.565 16.395-69.995 75.16h.005Zm-38.295-44.43 38.275 40.375 66.315-71.21-9.99-12.08-56.31 60.545-26.795-28.525-11.495 10.89v.005Z"/></svg>