<svg xmlns="http://www.w3.org/2000/svg" width="401" height="400" fill="none" viewBox="0 0 401 400"><path fill="#222" d="M179.876 152.936h-7.397c-.74 0-1.48-.555-1.48-1.48 0-.924.555-1.479 1.48-1.479h5.917v-5.733c0-.74.555-1.479 1.48-1.479.924 0 1.479.554 1.479 1.479v7.397c0 .74-.739 1.295-1.479 1.295ZM158.239 152.936H144c-.74 0-1.48-.555-1.48-1.48 0-.739.555-1.479 1.48-1.479h14.239c.74 0 1.48.555 1.48 1.479-.185.925-.74 1.48-1.48 1.48Zm-28.664 0h-14.424c-.74 0-1.48-.555-1.48-1.48 0-.739.555-1.479 1.48-1.479h14.239c.74 0 1.48.555 1.48 1.479 0 .925-.555 1.48-1.295 1.48Zm-28.664 0H86.672c-.74 0-1.48-.555-1.48-1.48 0-.739.555-1.479 1.48-1.479h14.239c.74 0 1.48.555 1.48 1.479 0 .925-.74 1.48-1.48 1.48Zm-28.663 0h-14.24c-.74 0-1.48-.555-1.48-1.48 0-.739.555-1.479 1.48-1.479h14.24c.74 0 1.479.555 1.479 1.479 0 .925-.74 1.48-1.48 1.48ZM43.584 152.936h-7.398c-.74 0-1.479-.555-1.479-1.48v-7.397c0-.739.555-1.479 1.48-1.479.924 0 1.479.555 1.479 1.479v5.918h5.918c.74 0 1.48.555 1.48 1.479 0 .925-.74 1.48-1.48 1.48ZM36.187 130.744c-.74 0-1.48-.554-1.48-1.479v-14.794c0-.74.555-1.48 1.48-1.48.74 0 1.479.555 1.479 1.48v14.794c0 .74-.74 1.479-1.48 1.479Zm0-29.773c-.74 0-1.48-.555-1.48-1.48V84.698c0-.74.555-1.48 1.48-1.48.74 0 1.479.556 1.479 1.48v14.794c0 .925-.74 1.48-1.48 1.48ZM36.187 71.382c-.74 0-1.48-.554-1.48-1.48v-7.396c0-.74.555-1.48 1.48-1.48h7.397c.74 0 1.48.555 1.48 1.48 0 .924-.556 1.48-1.48 1.48h-5.918v5.917c0 .925-.74 1.48-1.48 1.48ZM158.054 63.985h-14.239c-.74 0-1.48-.555-1.48-1.48 0-.739.555-1.479 1.48-1.479h14.239c.74 0 1.48.555 1.48 1.48 0 .924-.555 1.48-1.48 1.48Zm-28.479 0h-14.424c-.74 0-1.479-.555-1.479-1.48 0-.739.554-1.479 1.479-1.479h14.239c.74 0 1.48.555 1.48 1.48 0 .924-.555 1.48-1.295 1.48Zm-28.664 0H86.672c-.74 0-1.48-.555-1.48-1.48 0-.739.555-1.479 1.48-1.479h14.239c.74 0 1.48.555 1.48 1.48-.185.924-.74 1.48-1.48 1.48Zm-28.663 0h-14.24c-.74 0-1.48-.555-1.48-1.48 0-.739.555-1.479 1.48-1.479h14.24c.74 0 1.479.555 1.479 1.48 0 .924-.74 1.48-1.48 1.48ZM179.876 71.382c-.74 0-1.48-.554-1.48-1.48v-5.917h-5.917c-.74 0-1.48-.555-1.48-1.48 0-.924.555-1.479 1.48-1.479h7.397c.74 0 1.479.555 1.479 1.48v7.397c0 .925-.739 1.48-1.479 1.48ZM179.876 130.744c-.74 0-1.48-.554-1.48-1.479v-14.794c0-.74.555-1.48 1.48-1.48.924 0 1.479.555 1.479 1.48v14.794c0 .74-.739 1.479-1.479 1.479Zm0-29.773c-.74 0-1.48-.555-1.48-1.48V84.698c0-.74.555-1.48 1.48-1.48.924 0 1.479.556 1.479 1.48v14.794c0 .925-.739 1.48-1.479 1.48ZM362.955 345.446h-7.397c-.74 0-1.48-.554-1.48-1.479s.555-1.48 1.48-1.48h5.917v-5.917c0-.74.555-1.48 1.48-1.48.925 0 1.479.555 1.479 1.48v7.397c0 .925-.739 1.479-1.479 1.479ZM341.133 345.446h-14.239c-.74 0-1.48-.555-1.48-1.479 0-.925.555-1.48 1.48-1.48h14.239c.74 0 1.48.555 1.48 1.48 0 .924-.555 1.479-1.48 1.479Zm-28.479 0H298.23c-.74 0-1.479-.555-1.479-1.479 0-.925.554-1.48 1.479-1.48h14.239c.74 0 1.48.555 1.48 1.48 0 .924-.555 1.479-1.295 1.479Zm-28.663 0h-14.24c-.74 0-1.479-.555-1.479-1.479 0-.925.554-1.48 1.479-1.48h14.24c.739 0 1.479.555 1.479 1.48 0 .924-.74 1.479-1.479 1.479Zm-28.664 0h-14.24c-.74 0-1.479-.555-1.479-1.479 0-.925.555-1.48 1.479-1.48h14.24c.739 0 1.479.555 1.479 1.48 0 .924-.74 1.479-1.479 1.479ZM226.663 345.446h-7.397c-.74 0-1.48-.554-1.48-1.479v-7.397c0-.74.555-1.48 1.48-1.48.924 0 1.479.555 1.479 1.48v5.917h5.918c.739 0 1.479.555 1.479 1.48 0 .925-.74 1.479-1.479 1.479ZM219.266 323.255c-.74 0-1.48-.555-1.48-1.48v-14.794c0-.74.555-1.48 1.48-1.48.924 0 1.479.555 1.479 1.48v14.794c0 .74-.74 1.48-1.479 1.48Zm0-29.774c-.74 0-1.48-.555-1.48-1.479v-14.795c0-.739.555-1.479 1.48-1.479.924 0 1.479.555 1.479 1.479v14.795c0 .924-.74 1.479-1.479 1.479ZM219.266 263.893c-.74 0-1.48-.555-1.48-1.48v-7.397c0-.74.555-1.479 1.48-1.479h7.397c.739 0 1.479.554 1.479 1.479s-.555 1.479-1.479 1.479h-5.918v5.918c0 .74-.74 1.48-1.479 1.48ZM341.133 256.495h-14.239c-.74 0-1.48-.554-1.48-1.479s.555-1.479 1.48-1.479h14.239c.74 0 1.48.554 1.48 1.479s-.74 1.479-1.48 1.479Zm-28.479 0H298.23c-.74 0-1.479-.554-1.479-1.479s.554-1.479 1.479-1.479h14.239c.74 0 1.48.554 1.48 1.479s-.555 1.479-1.295 1.479Zm-28.663 0h-14.24c-.74 0-1.479-.554-1.479-1.479s.554-1.479 1.479-1.479h14.24c.739 0 1.479.554 1.479 1.479s-.74 1.479-1.479 1.479Zm-28.664 0h-14.425c-.739 0-1.479-.554-1.479-1.479s.555-1.479 1.479-1.479h14.24c.739 0 1.479.554 1.479 1.479s-.555 1.479-1.294 1.479ZM362.955 263.893c-.74 0-1.48-.555-1.48-1.48v-5.918h-5.917c-.74 0-1.48-.554-1.48-1.479s.555-1.479 1.48-1.479h7.397c.74 0 1.479.554 1.479 1.479v7.397c0 .74-.739 1.48-1.479 1.48ZM362.955 323.255c-.74 0-1.48-.555-1.48-1.48v-14.794c0-.74.555-1.48 1.48-1.48.925 0 1.479.555 1.479 1.48v14.794c0 .74-.739 1.48-1.479 1.48Zm0-29.774c-.74 0-1.48-.555-1.48-1.479v-14.795c0-.739.555-1.479 1.48-1.479.925 0 1.479.555 1.479 1.479v14.795c0 .924-.739 1.479-1.479 1.479Z"/><path fill="#444" d="M353.154 92.094h-295.7v238.928h295.7V92.094Z"/><path fill="#fff" d="M342.983 78.04h-295.7v238.927h295.7V78.04Z"/><path fill="#222" d="M342.983 318.447h-295.7c-.74 0-1.48-.555-1.48-1.48V78.04c0-.74.555-1.48 1.48-1.48h295.7c.739 0 1.479.555 1.479 1.48v238.927c0 .925-.74 1.48-1.479 1.48Zm-294.221-2.774h292.926V79.519H48.762v236.154Z"/><path fill="#DADADA" d="M136.233 151.641H105.72v30.513h30.513v-30.513ZM173.403 151.641H142.89v30.513h30.513v-30.513ZM210.389 151.641h-30.513v30.513h30.513v-30.513ZM247.56 151.641h-30.514v30.513h30.514v-30.513ZM284.545 151.641h-30.513v30.513h30.513v-30.513ZM321.531 151.641h-30.513v30.513h30.513v-30.513ZM99.247 189.367H68.734v30.513h30.513v-30.513ZM136.233 189.367H105.72v30.513h30.513v-30.513ZM173.403 189.367H142.89v30.513h30.513v-30.513ZM210.389 189.367h-30.513v30.513h30.513v-30.513ZM247.56 189.367h-30.514v30.513h30.514v-30.513ZM284.545 189.367h-30.513v30.513h30.513v-30.513ZM321.531 189.367h-30.513v30.513h30.513v-30.513ZM99.247 227.092H68.734v30.513h30.513v-30.513ZM136.233 227.092H105.72v30.513h30.513v-30.513ZM173.403 227.092H142.89v30.513h30.513v-30.513ZM210.389 227.092h-30.513v30.513h30.513v-30.513ZM247.56 227.092h-30.514v30.513h30.514v-30.513ZM284.545 227.092h-30.513v30.513h30.513v-30.513ZM321.531 227.092h-30.513v30.513h30.513v-30.513ZM99.247 264.817H68.734v30.514h30.513v-30.514ZM136.233 264.817H105.72v30.514h30.513v-30.514ZM173.403 264.817H142.89v30.514h30.513v-30.514ZM210.389 264.817h-30.513v30.514h30.513v-30.514ZM247.56 264.817h-30.514v30.514h30.514v-30.514Z"/><path fill="#FF3158" d="M285.285 99.122H106.459v36.985h178.826V99.122Z"/><path fill="#222" d="M285.285 137.402H106.459c-.739 0-1.479-.555-1.479-1.48v-36.8c0-.74.555-1.48 1.479-1.48h178.826c.74 0 1.479.555 1.479 1.48v36.8c-.185.925-.739 1.48-1.479 1.48Zm-177.531-2.774h176.052v-34.027H107.754v34.027Z"/><path fill="#444" d="M316.908 117.614a9.246 9.246 0 0 0 0-18.492 9.246 9.246 0 1 0 0 18.492Z"/><path fill="#222" d="M316.908 118.909c-5.918 0-10.541-4.808-10.541-10.541 0-5.733 4.808-10.54 10.541-10.54 5.733 0 10.541 4.807 10.541 10.54 0 5.733-4.624 10.541-10.541 10.541Zm0-18.308c-4.254 0-7.767 3.514-7.767 7.767s3.513 7.767 7.767 7.767c4.253 0 7.767-3.514 7.767-7.767s-3.514-7.767-7.767-7.767Z"/><path fill="#444" d="M74.652 117.614a9.246 9.246 0 0 0 9.246-9.246 9.246 9.246 0 0 0-9.246-9.246 9.246 9.246 0 0 0-9.247 9.246 9.246 9.246 0 0 0 9.247 9.246Z"/><path fill="#222" d="M74.652 118.909c-5.918 0-10.541-4.808-10.541-10.541 0-5.733 4.808-10.54 10.54-10.54 5.733 0 10.541 4.807 10.541 10.54 0 5.733-4.623 10.541-10.54 10.541Zm0-18.308c-4.254 0-7.767 3.514-7.767 7.767s3.513 7.767 7.767 7.767c4.253 0 7.767-3.514 7.767-7.767s-3.33-7.767-7.767-7.767Z"/></svg>