<svg xmlns="http://www.w3.org/2000/svg" width="400" height="400" fill="none" viewBox="0 0 400 400"><path fill="#fff" d="M179.38 152.936h-7.397c-.739 0-1.479-.555-1.479-1.48 0-.924.555-1.479 1.479-1.479h5.918v-5.733c0-.74.555-1.479 1.479-1.479.925 0 1.48.554 1.48 1.479v7.397c0 .74-.74 1.295-1.48 1.295ZM157.744 152.936h-14.24c-.739 0-1.479-.555-1.479-1.48 0-.739.555-1.479 1.479-1.479h14.24c.74 0 1.479.555 1.479 1.479-.185.925-.739 1.48-1.479 1.48Zm-28.664 0h-14.425c-.739 0-1.479-.555-1.479-1.48 0-.739.555-1.479 1.479-1.479h14.24c.74 0 1.479.555 1.479 1.479 0 .925-.554 1.48-1.294 1.48Zm-28.664 0h-14.24c-.74 0-1.479-.555-1.479-1.48 0-.739.555-1.479 1.48-1.479h14.239c.74 0 1.479.555 1.479 1.479 0 .925-.739 1.48-1.479 1.48Zm-28.664 0h-14.24c-.74 0-1.479-.555-1.479-1.48 0-.739.555-1.479 1.48-1.479h14.24c.739 0 1.478.555 1.478 1.479 0 .925-.74 1.48-1.479 1.48ZM43.089 152.936H35.69c-.74 0-1.48-.555-1.48-1.48v-7.397c0-.739.556-1.479 1.48-1.479.925 0 1.48.555 1.48 1.479v5.918h5.918c.74 0 1.479.555 1.479 1.479 0 .925-.74 1.48-1.48 1.48ZM35.691 130.744c-.74 0-1.48-.554-1.48-1.479v-14.794c0-.74.556-1.48 1.48-1.48.925 0 1.48.555 1.48 1.48v14.794c0 .74-.74 1.479-1.48 1.479Zm0-29.773c-.74 0-1.48-.555-1.48-1.48V84.698c0-.74.556-1.48 1.48-1.48.925 0 1.48.556 1.48 1.48v14.794c0 .925-.74 1.48-1.48 1.48ZM35.691 71.382c-.74 0-1.48-.554-1.48-1.48v-7.396c0-.74.556-1.48 1.48-1.48h7.398c.74 0 1.479.555 1.479 1.48 0 .924-.555 1.48-1.48 1.48h-5.917v5.917c0 .925-.74 1.48-1.48 1.48ZM157.559 63.985h-14.24c-.739 0-1.479-.555-1.479-1.48 0-.739.555-1.479 1.479-1.479h14.24c.74 0 1.479.555 1.479 1.48 0 .924-.554 1.48-1.479 1.48Zm-28.479 0h-14.425c-.739 0-1.479-.555-1.479-1.48 0-.739.555-1.479 1.479-1.479h14.24c.74 0 1.479.555 1.479 1.48 0 .924-.554 1.48-1.294 1.48Zm-28.664 0h-14.24c-.74 0-1.479-.555-1.479-1.48 0-.739.555-1.479 1.48-1.479h14.239c.74 0 1.479.555 1.479 1.48-.184.924-.739 1.48-1.479 1.48Zm-28.664 0h-14.24c-.74 0-1.479-.555-1.479-1.48 0-.739.555-1.479 1.48-1.479h14.24c.739 0 1.478.555 1.478 1.48 0 .924-.74 1.48-1.479 1.48ZM179.38 71.382c-.739 0-1.479-.554-1.479-1.48v-5.917h-5.918c-.739 0-1.479-.555-1.479-1.48 0-.924.555-1.479 1.479-1.479h7.397c.74 0 1.48.555 1.48 1.48v7.397c0 .925-.74 1.48-1.48 1.48ZM179.381 130.744c-.74 0-1.48-.554-1.48-1.479v-14.794c0-.74.555-1.48 1.48-1.48.924 0 1.479.555 1.479 1.48v14.794c0 .74-.739 1.479-1.479 1.479Zm0-29.773c-.74 0-1.48-.555-1.48-1.48V84.698c0-.74.555-1.48 1.48-1.48.924 0 1.479.556 1.479 1.48v14.794c0 .925-.739 1.48-1.479 1.48ZM362.46 345.446h-7.398c-.739 0-1.479-.554-1.479-1.479s.555-1.48 1.479-1.48h5.918v-5.917c0-.74.555-1.48 1.48-1.48.924 0 1.479.555 1.479 1.48v7.397c0 .925-.74 1.479-1.479 1.479ZM340.638 345.446h-14.24c-.739 0-1.479-.555-1.479-1.479 0-.925.555-1.48 1.479-1.48h14.24c.74 0 1.479.555 1.479 1.48 0 .924-.554 1.479-1.479 1.479Zm-28.479 0h-14.424c-.74 0-1.48-.555-1.48-1.479 0-.925.555-1.48 1.48-1.48h14.239c.74 0 1.479.555 1.479 1.48 0 .924-.554 1.479-1.294 1.479Zm-28.664 0h-14.239c-.74 0-1.48-.555-1.48-1.479 0-.925.555-1.48 1.48-1.48h14.239c.74 0 1.48.555 1.48 1.48 0 .924-.74 1.479-1.48 1.479Zm-28.664 0h-14.239c-.74 0-1.48-.555-1.48-1.479 0-.925.555-1.48 1.48-1.48h14.239c.74 0 1.48.555 1.48 1.48 0 .924-.74 1.479-1.48 1.479ZM226.168 345.446h-7.398c-.739 0-1.479-.554-1.479-1.479v-7.397c0-.74.555-1.48 1.479-1.48.925 0 1.48.555 1.48 1.48v5.917h5.918c.739 0 1.479.555 1.479 1.48 0 .925-.74 1.479-1.479 1.479ZM218.77 323.255c-.739 0-1.479-.555-1.479-1.48v-14.794c0-.74.555-1.48 1.479-1.48.925 0 1.48.555 1.48 1.48v14.794c0 .74-.74 1.48-1.48 1.48Zm0-29.774c-.739 0-1.479-.555-1.479-1.479v-14.795c0-.739.555-1.479 1.479-1.479.925 0 1.48.555 1.48 1.479v14.795c0 .924-.74 1.479-1.48 1.479ZM218.77 263.893c-.739 0-1.479-.555-1.479-1.48v-7.397c0-.739.555-1.479 1.479-1.479h7.398c.739 0 1.479.555 1.479 1.479 0 .925-.555 1.48-1.479 1.48h-5.918v5.917c0 .74-.74 1.48-1.48 1.48ZM340.638 256.496h-14.239c-.74 0-1.48-.555-1.48-1.48 0-.924.555-1.479 1.48-1.479h14.239c.74 0 1.48.555 1.48 1.479 0 .925-.74 1.48-1.48 1.48Zm-28.479 0h-14.424c-.74 0-1.479-.555-1.479-1.48 0-.924.554-1.479 1.479-1.479h14.239c.74 0 1.48.555 1.48 1.479 0 .925-.555 1.48-1.295 1.48Zm-28.664 0h-14.239c-.74 0-1.479-.555-1.479-1.48 0-.924.554-1.479 1.479-1.479h14.239c.74 0 1.48.555 1.48 1.479 0 .925-.74 1.48-1.48 1.48Zm-28.663 0h-14.425c-.74 0-1.479-.555-1.479-1.48 0-.924.555-1.479 1.479-1.479h14.24c.739 0 1.479.555 1.479 1.479 0 .925-.555 1.48-1.294 1.48ZM362.46 263.893c-.74 0-1.48-.555-1.48-1.48v-5.917h-5.918c-.739 0-1.479-.555-1.479-1.48 0-.924.555-1.479 1.479-1.479h7.398c.739 0 1.479.555 1.479 1.479v7.397c0 .74-.74 1.48-1.479 1.48ZM362.46 323.255c-.74 0-1.48-.555-1.48-1.48v-14.794c0-.74.555-1.48 1.48-1.48.925 0 1.479.555 1.479 1.48v14.794c0 .74-.739 1.48-1.479 1.48Zm0-29.774c-.74 0-1.48-.555-1.48-1.479v-14.795c0-.739.555-1.479 1.48-1.479.925 0 1.479.555 1.479 1.479v14.795c0 .924-.739 1.479-1.479 1.479Z"/><path fill="#DADADA" d="M352.658 92.094h-295.7v238.928h295.7V92.094Z"/><path fill="#fff" d="M342.488 78.04h-295.7v238.927h295.7V78.04Z"/><path fill="#222" d="M342.487 318.447h-295.7c-.74 0-1.48-.555-1.48-1.48V78.04c0-.74.555-1.48 1.48-1.48h295.7c.74 0 1.48.555 1.48 1.48v238.927c0 .925-.74 1.48-1.48 1.48Zm-294.22-2.774h292.926V79.519H48.267v236.154Z"/><path fill="#DADADA" d="M135.738 151.641h-30.513v30.513h30.513v-30.513ZM172.908 151.641h-30.513v30.513h30.513v-30.513ZM209.894 151.641h-30.513v30.513h30.513v-30.513ZM247.064 151.641h-30.513v30.513h30.513v-30.513ZM284.05 151.641h-30.513v30.513h30.513v-30.513ZM321.036 151.641h-30.514v30.513h30.514v-30.513ZM98.751 189.367H68.238v30.513h30.513v-30.513ZM135.738 189.367h-30.513v30.513h30.513v-30.513ZM172.908 189.367h-30.513v30.513h30.513v-30.513ZM209.894 189.367h-30.513v30.513h30.513v-30.513ZM247.064 189.367h-30.513v30.513h30.513v-30.513ZM284.05 189.367h-30.513v30.513h30.513v-30.513ZM321.036 189.367h-30.514v30.513h30.514v-30.513ZM98.751 227.092H68.238v30.513h30.513v-30.513ZM135.738 227.092h-30.513v30.513h30.513v-30.513ZM172.908 227.092h-30.513v30.513h30.513v-30.513ZM209.894 227.092h-30.513v30.513h30.513v-30.513ZM247.064 227.092h-30.513v30.513h30.513v-30.513ZM284.05 227.092h-30.513v30.513h30.513v-30.513ZM321.036 227.092h-30.514v30.513h30.514v-30.513ZM98.751 264.817H68.238v30.514h30.513v-30.514ZM135.738 264.817h-30.513v30.514h30.513v-30.514ZM172.908 264.817h-30.513v30.514h30.513v-30.514ZM209.894 264.817h-30.513v30.514h30.513v-30.514ZM247.064 264.817h-30.513v30.514h30.513v-30.514Z"/><path fill="#FF3158" d="M284.79 99.122H105.964v36.985H284.79V99.122Z"/><path fill="#222" d="M284.79 137.402H105.964c-.74 0-1.48-.555-1.48-1.48v-36.8c0-.74.555-1.48 1.48-1.48H284.79c.739 0 1.479.555 1.479 1.48v36.8c-.185.925-.74 1.48-1.479 1.48Zm-177.532-2.774H283.31v-34.027H107.258v34.027Z"/><path fill="#444" d="M316.412 117.614a9.246 9.246 0 1 0 0-18.492 9.246 9.246 0 0 0 0 18.492Z"/><path fill="#222" d="M316.412 118.909c-5.918 0-10.541-4.808-10.541-10.541 0-5.733 4.808-10.54 10.541-10.54 5.733 0 10.541 4.807 10.541 10.54 0 5.733-4.623 10.541-10.541 10.541Zm0-18.308c-4.253 0-7.767 3.514-7.767 7.767s3.514 7.767 7.767 7.767 7.767-3.514 7.767-7.767-3.514-7.767-7.767-7.767Z"/><path fill="#444" d="M74.157 117.614a9.246 9.246 0 0 0 9.246-9.246 9.246 9.246 0 0 0-9.246-9.246 9.246 9.246 0 0 0-9.247 9.246 9.246 9.246 0 0 0 9.247 9.246Z"/><path fill="#222" d="M74.156 118.909c-5.918 0-10.54-4.808-10.54-10.541 0-5.733 4.807-10.54 10.54-10.54 5.733 0 10.541 4.807 10.541 10.54 0 5.733-4.623 10.541-10.54 10.541Zm0-18.308c-4.253 0-7.767 3.514-7.767 7.767s3.514 7.767 7.767 7.767 7.767-3.514 7.767-7.767-3.329-7.767-7.767-7.767Z"/></svg>