<svg xmlns="http://www.w3.org/2000/svg" width="400" height="400" fill="none" viewBox="0 0 400 400"><path fill="#DADADA" d="m158.113 179.565 55.849 52.89h159.223l-55.848-52.89H158.113Z"/><path fill="#222" d="M377.069 228.941H217.845a1.41 1.41 0 0 1-.924-.37l-55.849-53.074c-.37-.37-.554-.925-.37-1.48.185-.554.74-.924 1.295-.924H321.22c.37 0 .74.185.925.37l55.848 52.889c.37.37.555.925.37 1.48-.185.739-.74 1.109-1.294 1.109ZM218.4 226.167h155.155l-52.89-50.115H165.511l52.889 50.115Z"/><path fill="#fff" d="M310.679 106.149 261.488 76.93l-53.444 29.219v76.375l31.438 29.034h102.635v-76.375l-31.438-29.034Z"/><path fill="#DADADA" d="m291.632 106.149 19.047 10.541v65.834h-19.047v-76.375Z"/><path fill="#FF3158" d="M250.577 211.188V168.47c0-8.137 6.473-14.61 14.609-14.61 8.137 0 14.61 6.473 14.61 14.61v42.718"/><path fill="#222" d="M310.68 184.004c-.74 0-1.48-.555-1.48-1.48v-64.91c0-.739.555-1.479 1.48-1.479.924 0 1.479.555 1.479 1.479v64.91c0 .74-.74 1.48-1.479 1.48Z"/><path fill="#222" d="M342.117 213.038c-.369 0-.739-.185-.924-.37l-31.438-29.034a1.45 1.45 0 0 1 0-2.034 1.45 1.45 0 0 1 2.034 0l31.438 29.033c.555.555.555 1.48 0 2.035-.37.185-.74.37-1.11.37ZM291.632 213.037c-.74 0-1.48-.554-1.48-1.479V106.149c0-.74.555-1.48 1.48-1.48.924 0 1.479.555 1.479 1.48v105.594c0 .74-.74 1.294-1.479 1.294Z"/><path fill="#222" d="M310.679 184.004h-19.047c-.74 0-1.48-.555-1.48-1.48 0-.924.555-1.479 1.48-1.479h19.047c.74 0 1.48.555 1.48 1.479 0 .925-.74 1.48-1.48 1.48ZM239.482 136.477c-.37 0-.74-.185-.925-.37l-31.438-29.033a1.452 1.452 0 0 1 0-2.035 1.452 1.452 0 0 1 2.034 0l31.438 29.034a1.45 1.45 0 0 1 0 2.034c-.37.37-.739.37-1.109.37Z"/><path fill="#222" d="M239.481 213.037c-.739 0-1.479-.554-1.479-1.479v-76.375c0-.555.185-.925.74-1.295l52.704-29.034c.37-.185.925-.185 1.295 0l50.115 29.034c.74.37.925 1.295.555 1.849-.37.74-1.294.925-1.849.555l-49.376-28.664-51.225 28.294v75.636c-.185.925-.74 1.479-1.48 1.479Z"/><path fill="#222" d="M342.117 213.037H239.481c-.37 0-.739-.185-.924-.369l-31.438-29.034c-.37-.185-.37-.555-.37-.925v-76.56c0-.555.37-.925.74-1.295l53.259-29.033c.37-.185.925-.185 1.295 0l49.375 29.033.185.185 31.438 29.034c.37.185.37.555.37 1.11v76.56c0 .74-.555 1.294-1.294 1.294Zm-102.081-2.774h100.786v-74.526l-30.883-28.479-48.451-28.663-51.965 28.294v75.08l30.513 28.294Z"/><path fill="#222" d="M279.796 212.668c-.74 0-1.479-.555-1.479-1.48V168.47c0-7.212-5.918-13.13-13.13-13.13-7.212 0-13.315 5.918-13.315 13.13v42.718c0 .74-.555 1.48-1.48 1.48-.924 0-1.479-.555-1.479-1.48V168.47c0-8.877 7.212-15.904 16.089-15.904 8.876 0 15.904 7.212 15.904 15.904v42.718c.185.74-.37 1.48-1.11 1.48Z"/><path fill="#222" d="M271.475 189.367a4.068 4.068 0 1 0 0-8.137 4.068 4.068 0 0 0 0 8.137Z"/><path fill="#FF3158" d="M94.313 224.133c-.74-.185-1.48-.185-2.219.37-4.993 3.329-10.91 5.178-17.198 5.178s-12.206-1.849-17.199-5.178c-.74-.37-1.48-.555-2.219-.37-19.417 6.288-33.102 22.931-33.102 49.191l.555 17.384c0 1.479 1.11 2.589 2.589 2.589h99.861c1.479 0 2.589-1.11 2.589-2.589l-.555-17.199c-.185-26.445-13.869-43.088-33.102-49.376Z"/><path fill="#222" d="M125.196 294.406H25.335c-2.22 0-3.884-1.849-3.884-3.883l-.555-17.199c0-24.965 12.39-43.458 34.027-50.485 1.11-.37 2.404-.185 3.514.555 4.993 3.143 10.54 4.993 16.459 4.993 5.917 0 11.465-1.665 16.458-4.809.925-.739 2.22-.924 3.329-.554 21.637 7.027 33.842 25.52 33.842 50.485l.555 17.198c0 2.035-1.665 3.699-3.884 3.699Zm-68.978-69.163h-.37c-20.342 6.657-31.993 24.225-31.993 47.896l.555 17.199c0 .739.555 1.109 1.11 1.109h99.861c.74 0 1.11-.555 1.11-1.109l-.555-17.199c0-23.671-11.651-41.239-31.993-47.896-.37-.185-.74 0-1.11.185-5.362 3.513-11.465 5.363-17.937 5.363-6.473 0-12.576-1.85-17.938-5.363-.37 0-.555-.185-.74-.185Z"/><path fill="#DADADA" d="M74.896 229.681c17.362 0 31.438-14.075 31.438-31.438s-14.076-31.438-31.438-31.438c-17.363 0-31.438 14.075-31.438 31.438s14.075 31.438 31.438 31.438Z"/><path fill="#222" d="M74.895 230.975c-18.123 0-32.732-14.609-32.732-32.732 0-18.123 14.61-32.732 32.732-32.732 18.123 0 32.733 14.609 32.733 32.732 0 18.123-14.794 32.732-32.733 32.732Zm0-62.69c-16.458 0-29.958 13.499-29.958 29.958 0 16.459 13.5 29.958 29.958 29.958 16.459 0 29.959-13.499 29.959-29.958 0-16.459-13.5-29.958-29.959-29.958Z"/><path fill="#fff" d="M185.297 246.694h16.274c3.144 0 5.733-2.959 5.178-6.287l-8.692-67.129c-.369-3.329-3.143-5.733-6.287-5.733h-16.089c-3.144 0-5.733 2.959-5.178 6.287l8.692 67.499c.37 3.144 2.959 5.363 6.102 5.363Z"/><path fill="#DADADA" d="m203.05 236.523-8.691-67.129c0-.369-.185-.924-.37-1.294-.925-2.589-3.329-4.438-5.918-4.438h-16.089c-2.404 0-4.438 1.664-5.178 4.068-.184.74-.369 1.479-.184 2.219l8.691 67.499c.37 2.404 1.849 4.438 4.069 5.178.554.185 1.294.37 2.034.37h16.274c3.328-.185 5.917-3.144 5.362-6.473Zm-15.903-16.273c-4.624 0-7.952-6.103-9.247-16.644-.555-5.178-.74-12.205 2.034-15.349.925-1.109 2.22-1.664 3.699-1.664 3.144 0 5.548 2.774 7.397 7.582.925 2.404 1.48 5.363 2.034 8.876.555 5.178.74 12.206-2.034 15.349-1.109 1.11-2.404 1.665-3.883 1.85.185-.185 0-.185 0 0Z"/><path fill="#444" d="M200.277 255.571h-11.65l-2.404-8.877h13.684l.37 8.877Z"/><path fill="#222" d="M200.277 257.05h-11.65c-.555 0-1.11-.37-1.295-.924l-2.404-8.877c-.185-.37 0-.925.185-1.109.185-.37.74-.555 1.11-.555h13.499c.74 0 1.295.554 1.295 1.294l.37 8.877c0 .37-.185.739-.37.924 0 .185-.37.37-.74.37Zm-10.541-2.774h9.062l-.37-6.102h-10.541l1.849 6.102Z"/><path fill="#222" d="M201.572 248.174h-16.274c-3.698 0-6.842-2.774-7.397-6.658l-8.692-67.499c-.184-2.034.37-4.068 1.665-5.547 1.294-1.48 3.144-2.22 4.993-2.22h16.089c3.883 0 7.212 2.959 7.767 7.028l8.691 67.129c.185 2.034-.37 4.068-1.664 5.548-1.479 1.294-3.329 2.219-5.178 2.219Zm-25.705-79.15c-1.11 0-2.034.555-2.959 1.295-.74.925-1.11 2.034-.925 3.329l8.692 67.498c.37 2.405 2.219 4.254 4.623 4.254h16.274c1.11 0 2.034-.555 2.959-1.295.74-.924 1.109-2.034.924-3.328l-8.691-67.129c-.37-2.589-2.404-4.439-4.993-4.439h-15.904v-.185Z"/><path fill="#222" d="M191.328 222.502c3.236-.459 4.895-7.635 3.704-16.028-1.19-8.393-4.778-14.825-8.014-14.366-3.236.459-4.894 7.635-3.704 16.028 1.19 8.393 4.778 14.825 8.014 14.366Z"/><path fill="#222" d="M191.03 223.948c-4.438 0-7.767-7.582-8.877-15.534-.555-4.253-.555-8.322.185-11.465.74-3.699 2.404-5.733 4.623-6.103 2.22-.37 4.254 1.294 6.103 4.623 1.664 2.774 2.774 6.658 3.329 10.911 1.109 8.137-.185 16.828-4.808 17.568h-.555Zm-3.699-30.328c-.739.185-1.849 1.109-2.404 3.883-.555 2.774-.74 6.658-.185 10.541 1.11 8.507 4.439 13.315 6.288 13.13 1.849-.185 3.698-5.918 2.404-14.424-.555-3.884-1.664-7.397-2.959-9.986-1.294-2.404-2.404-3.144-3.144-3.144Z"/><path fill="#444" d="M125.565 167.73h51.04-.739c-3.144 0-5.733 2.959-5.178 6.288l8.691 67.498c.37 3.144 2.959 5.548 6.103 5.548h-51.595c-2.404 0-4.623-1.849-4.808-4.438l-8.877-68.793c-.37-3.144 2.219-6.103 5.363-6.103Z"/><path fill="#222" d="M185.297 248.174h-51.41c-3.143 0-5.732-2.404-6.287-5.548l-8.877-68.423c-.185-2.035.37-4.069 1.665-5.548 1.294-1.48 3.143-2.219 4.993-2.219h51.04c.74 0 1.294.554 1.294 1.294s-.554 1.295-1.294 1.295h-.74c-1.109 0-2.034.554-2.959 1.294-.739.925-1.109 2.034-.924 3.329l8.691 67.499c.37 2.404 2.219 4.253 4.623 4.253.74 0 1.295.555 1.295 1.294 0 .74-.37 1.48-1.11 1.48Zm-59.731-79.149c-1.11 0-2.035.554-2.774 1.294-.74.925-1.11 2.219-1.11 3.329l8.692 68.423c.185 1.85 1.664 3.144 3.513 3.144h45.678c-.925-1.11-1.48-2.404-1.665-3.883l-8.691-67.499c-.185-1.85.185-3.514 1.294-4.993h-44.937v.185Z"/><path fill="#444" d="M218.955 293.111h-4.438l-9.801-24.595h-5.548l4.068 24.595h-5.178l-4.068-24.595h-5.178l-9.247 24.595h-5.547l11.095-29.588h8.137l-1.109-6.473h5.178l.924 6.473h8.692l12.02 29.588Z"/><path fill="#444" d="M218.955 294.406h-4.438c-.555 0-1.11-.37-1.295-.925l-9.431-23.671h-2.959l3.884 22.931c0 .37 0 .74-.37 1.11-.185.37-.555.555-1.11.555h-5.178c-.739 0-1.294-.555-1.294-1.11l-3.884-23.486h-2.959l-9.061 23.671c-.185.555-.74.925-1.295.925h-5.547c-.37 0-.925-.185-1.11-.555-.185-.37-.37-.925-.185-1.295l11.096-29.588a1.39 1.39 0 0 1 1.294-.925h6.473l-.74-4.808c0-.37 0-.74.37-1.109.185-.37.555-.555 1.109-.555h5.178c.74 0 1.295.555 1.295 1.109l.925 5.178h7.397c.555 0 1.109.37 1.294.925l12.021 29.589c.185.369.185.924-.185 1.294-.37.555-.74.74-1.295.74Zm-3.513-2.774h1.479l-10.911-26.815h-7.582c-.74 0-1.294-.555-1.294-1.109l-.925-5.178h-2.404l.74 4.808c0 .37 0 .74-.37 1.109-.185.37-.555.555-1.11.555h-7.212l-9.986 26.815h2.589l9.061-23.671c.185-.555.74-.925 1.295-.925h5.178c.74 0 1.294.555 1.294 1.11l3.884 23.486h2.404l-3.884-22.931c0-.37 0-.74.37-1.11.185-.37.555-.555 1.11-.555h5.548c.554 0 1.109.37 1.294.925l9.432 23.486Z"/><path fill="#fff" d="M130.559 155.34c-.74 0-1.48-.555-1.48-1.48v-6.472c0-.74.555-1.48 1.48-1.48.924 0 1.479.555 1.479 1.48v6.472c-.185.925-.74 1.48-1.479 1.48ZM130.559 139.251c-.74 0-1.48-.555-1.48-1.48v-9.616c0-.739.555-1.479 1.48-1.479.924 0 1.479.555 1.479 1.479v9.616c-.185.925-.74 1.48-1.479 1.48ZM130.559 120.019c-.74 0-1.48-.555-1.48-1.48v-6.472c0-.74.555-1.48 1.48-1.48h6.472c.74 0 1.479.555 1.479 1.48 0 .924-.554 1.479-1.479 1.479h-5.178v5.178c0 .74-.555 1.295-1.294 1.295ZM178.27 113.546h-10.356c-.74 0-1.479-.555-1.479-1.479 0-.74.554-1.48 1.479-1.48h10.356c.74 0 1.479.555 1.479 1.48-.184.924-.739 1.479-1.479 1.479Zm-20.712 0h-10.356c-.74 0-1.479-.555-1.479-1.479 0-.74.554-1.48 1.479-1.48h10.356c.74 0 1.479.555 1.479 1.48 0 .924-.739 1.479-1.479 1.479ZM194.914 113.546h-6.473c-.739 0-1.479-.555-1.479-1.479 0-.925.555-1.48 1.479-1.48h6.473c.74 0 1.479.555 1.479 1.48 0 .924-.739 1.479-1.479 1.479ZM236.892 288.673h-6.472c-.74 0-1.48-.555-1.48-1.479 0-.925.555-1.48 1.48-1.48h6.472c.74 0 1.48.555 1.48 1.48 0 .924-.74 1.479-1.48 1.479ZM312.528 288.673h-12.575c-.74 0-1.479-.555-1.479-1.479 0-.925.554-1.48 1.479-1.48h12.575c.74 0 1.48.555 1.48 1.48 0 .924-.555 1.479-1.48 1.479Zm-25.15 0h-12.575c-.74 0-1.48-.555-1.48-1.479 0-.925.555-1.48 1.48-1.48h12.575c.74 0 1.479.555 1.479 1.48 0 .924-.739 1.479-1.479 1.479Zm-25.335 0h-12.575c-.74 0-1.48-.555-1.48-1.479 0-.925.555-1.48 1.48-1.48h12.575c.74 0 1.479.555 1.479 1.48 0 .924-.739 1.479-1.479 1.479ZM331.761 288.673h-6.472c-.74 0-1.479-.555-1.479-1.479 0-.925.554-1.48 1.479-1.48h5.178v-5.178c0-.74.555-1.479 1.479-1.479.925 0 1.48.554 1.48 1.479v6.473c-.37 1.109-.925 1.664-1.665 1.664ZM331.761 270.55c-.74 0-1.48-.555-1.48-1.479V257.42c0-.74.555-1.479 1.48-1.479.924 0 1.479.554 1.479 1.479v11.651c-.185.924-.74 1.479-1.479 1.479ZM331.761 247.434c-.74 0-1.48-.555-1.48-1.479v-6.473c0-.74.555-1.479 1.48-1.479.924 0 1.479.554 1.479 1.479v6.473c-.185.739-.74 1.479-1.479 1.479Z"/></svg>