<svg xmlns="http://www.w3.org/2000/svg" width="400" height="400" fill="none" viewBox="0 0 400 400"><path fill="#444" d="M344.33 209.61c7.925-13.97 12.51-30.085 12.51-47.295 0-53.06-43.015-96.07-96.07-96.07-27.965 0-53.065 12.025-70.62 31.095-13.905-10.775-31.305-17.25-50.26-17.25-45.41 0-82.225 36.815-82.225 82.225 0 19.895 7.07 38.14 18.83 52.36-15.76 12.815-25.85 32.34-25.85 54.24 0 38.595 31.29 69.88 69.88 69.88 19.08 0 36.355-7.665 48.96-20.055 13.59 27.06 41.525 45.675 73.87 45.675 44.905 0 81.37-35.82 82.575-80.44.035 0 .075.005.115.005 21.785 0 39.44-17.66 39.44-39.44 0-15.18-8.585-28.335-21.155-34.93Z"/><path fill="#F5F4F3" d="M334.621 199.625c7.925-13.97 12.51-30.085 12.51-47.295 0-53.06-43.015-96.07-96.07-96.07-27.965 0-53.065 12.025-70.62 31.095-13.905-10.775-31.305-17.25-50.26-17.25-45.41 0-82.226 36.815-82.226 82.225 0 19.895 7.07 38.14 18.83 52.36-15.76 12.815-25.85 32.34-25.85 54.24 0 38.595 31.29 69.88 69.881 69.88 19.08 0 36.355-7.665 48.96-20.055 13.59 27.06 41.525 45.675 73.87 45.675 44.905 0 81.37-35.82 82.575-80.44.035 0 .075.005.115.005 21.785 0 39.44-17.66 39.44-39.44 0-15.18-8.585-28.335-21.155-34.93Z"/><path fill="#222" d="M233.645 355.82c-15.88 0-31.34-4.46-44.71-12.905a84.508 84.508 0 0 1-29.54-31.87c-13.245 12.37-30.425 19.155-48.58 19.155-39.3 0-71.275-31.975-71.275-71.275 0-21.075 9.2-40.83 25.29-54.43-11.795-14.76-18.275-33.23-18.275-52.17 0-46.105 37.51-83.615 83.615-83.615 18.205 0 35.5 5.795 50.1 16.77 8.865-9.395 19.29-16.825 30.995-22.1 12.545-5.655 25.935-8.52 39.785-8.52 53.74 0 97.465 43.72 97.465 97.46 0 16.285-4.145 32.415-12 46.745 12.775 7.27 20.65 20.735 20.65 35.48 0 22.105-17.655 40.165-39.6 40.815-.915 21.47-9.86 41.515-25.27 56.565-15.77 15.4-36.6 23.885-58.65 23.885v.01Zm-73.87-48.455a1.39 1.39 0 0 1 1.245.77 81.773 81.773 0 0 0 29.4 32.435c12.925 8.16 27.87 12.475 43.225 12.475 21.32 0 41.455-8.2 56.705-23.09 15.215-14.855 23.905-34.745 24.48-55.995.02-.8.715-1.41 1.535-1.35 20.965-.015 38.02-17.08 38.02-38.05 0-14.18-7.82-27.095-20.41-33.7a1.407 1.407 0 0 1-.69-.84c-.105-.36-.06-.75.125-1.08 8.065-14.215 12.325-30.335 12.325-46.605 0-52.205-42.475-94.68-94.68-94.68-13.455 0-26.455 2.785-38.64 8.275-11.745 5.29-22.16 12.82-30.955 22.375-.49.53-1.305.6-1.875.155-14.32-11.095-31.405-16.96-49.41-16.96-44.575 0-80.835 36.26-80.835 80.835 0 18.76 6.575 37.04 18.51 51.475a1.398 1.398 0 0 1-.195 1.965c-16.1 13.09-25.335 32.465-25.335 53.16 0 37.765 30.725 68.49 68.49 68.49 18.05 0 35.09-6.98 47.985-19.655.26-.26.615-.4.975-.4l.005-.005Z"/><path fill="#222" d="M172.06 208.41c-.87 9.335-4.085 16.5-9.645 21.495-5.555 4.995-13.105 7.495-22.645 7.495-6.43 0-12.12-1.63-17.08-4.885-4.96-3.255-8.805-7.88-11.54-13.875-2.735-5.995-4.13-12.85-4.17-20.565v-14c0-7.715 1.345-14.61 4.045-20.685 2.695-6.075 6.54-10.775 11.54-14.095 4.995-3.32 10.735-4.98 17.205-4.98 9.455 0 16.985 2.49 22.585 7.465 5.6 4.975 8.835 12.11 9.705 21.405h-3.36c-.955-8.34-3.855-14.67-8.71-19.01-4.85-4.335-11.595-6.5-20.22-6.5-8.625 0-15.9 3.32-21.31 9.955-5.415 6.64-8.12 15.535-8.12 26.69v13.315c0 7.135 1.205 13.45 3.61 18.945 2.405 5.495 5.855 9.78 10.36 12.845 4.5 3.07 9.65 4.605 15.46 4.605 8.67 0 15.44-2.135 20.315-6.405 4.875-4.275 7.745-10.68 8.615-19.225h3.36v.01Z"/><path fill="#222" d="M139.771 237.865c-6.49 0-12.32-1.67-17.335-4.96-5.01-3.29-8.945-8.02-11.71-14.07-2.755-6.03-4.17-13.015-4.21-20.755v-14c0-7.745 1.375-14.765 4.085-20.875 2.72-6.13 6.66-10.94 11.71-14.29 5.05-3.355 10.925-5.055 17.46-5.055 9.53 0 17.23 2.55 22.89 7.585 5.665 5.03 8.98 12.335 9.86 21.705l.045.505h-4.285l-.045-.41c-.935-8.18-3.815-14.475-8.56-18.715-4.745-4.235-11.44-6.385-19.91-6.385s-15.655 3.29-20.95 9.785c-5.315 6.52-8.015 15.405-8.015 26.4v13.315c0 7.035 1.2 13.345 3.57 18.76 2.36 5.39 5.79 9.645 10.195 12.65 4.4 3 9.515 4.525 15.2 4.525 8.51 0 15.24-2.115 20.01-6.29 4.76-4.175 7.605-10.54 8.46-18.925l.04-.415h4.29l-.045.505c-.88 9.41-4.175 16.74-9.795 21.8-5.62 5.055-13.345 7.615-22.955 7.615v-.005Zm0-93.075c-6.35 0-12.05 1.65-16.945 4.9-4.9 3.25-8.725 7.925-11.375 13.895-2.655 5.985-4.005 12.885-4.005 20.495v14c.04 7.605 1.43 14.46 4.125 20.37 2.69 5.885 6.515 10.49 11.375 13.68 4.86 3.19 10.52 4.81 16.825 4.81 9.375 0 16.89-2.48 22.335-7.38 5.34-4.805 8.515-11.765 9.44-20.69h-2.43c-.93 8.42-3.865 14.85-8.725 19.11-4.94 4.33-11.88 6.52-20.62 6.52-5.875 0-11.165-1.575-15.725-4.685-4.555-3.105-8.095-7.49-10.525-13.045-2.42-5.53-3.645-11.965-3.645-19.13v-13.315c0-11.215 2.765-20.295 8.22-26.985 5.48-6.72 12.77-10.125 21.67-10.125 8.9 0 15.61 2.225 20.53 6.62 4.84 4.325 7.8 10.68 8.815 18.89h2.435c-.925-8.885-4.12-15.81-9.5-20.595-5.485-4.875-12.98-7.35-22.275-7.35v.01ZM251.755 197.645c0 7.84-1.4 14.775-4.2 20.81-2.8 6.035-6.795 10.7-11.975 14-5.185 3.295-11.16 4.945-17.92 4.945-10.2 0-18.455-3.63-24.76-10.89-6.305-7.255-9.455-17.05-9.455-29.365V184.08c0-7.795 1.4-14.72 4.2-20.78 2.8-6.055 6.8-10.735 12.005-14.03 5.205-3.295 11.165-4.945 17.885-4.945 6.72 0 12.745 1.65 17.95 4.945 5.205 3.295 9.22 7.985 12.04 14.06 2.82 6.075 4.23 12.995 4.23 20.75v13.565Zm-3.36-13.69c0-10.95-2.78-19.73-8.34-26.345-5.555-6.615-13.065-9.925-22.52-9.925s-16.775 3.29-22.335 9.86c-5.56 6.575-8.34 15.52-8.34 26.845v13.25c0 7.215 1.255 13.595 3.765 19.13 2.51 5.535 6.085 9.8 10.73 12.785 4.645 2.985 10.08 4.48 16.3 4.48 9.455 0 16.945-3.295 22.46-9.89 5.515-6.595 8.275-15.595 8.275-27v-13.19h.005Z"/><path fill="#222" d="M217.66 237.865c-10.295 0-18.745-3.715-25.11-11.05-6.35-7.31-9.57-17.29-9.57-29.67V184.08c0-7.825 1.425-14.885 4.24-20.975 2.825-6.11 6.925-10.895 12.18-14.225s11.36-5.02 18.135-5.02c6.775 0 12.94 1.69 18.2 5.02 5.255 3.33 9.365 8.13 12.21 14.26 2.835 6.11 4.275 13.155 4.275 20.945v13.565c0 7.87-1.425 14.94-4.245 21.005-2.825 6.085-6.91 10.865-12.15 14.195s-11.35 5.02-18.17 5.02l.005-.005Zm-.125-93.075c-6.6 0-12.535 1.64-17.64 4.875-5.105 3.235-9.085 7.885-11.835 13.835-2.76 5.965-4.155 12.895-4.155 20.585v13.065c0 6.085.79 11.615 2.34 16.44 1.55 4.81 3.905 9.06 7 12.625 6.18 7.12 14.395 10.73 24.41 10.73 6.64 0 12.585-1.64 17.67-4.875 5.085-3.235 9.06-7.88 11.805-13.8 2.76-5.945 4.155-12.88 4.155-20.615V184.09c0-7.65-1.41-14.565-4.19-20.555-2.77-5.965-6.76-10.63-11.865-13.865-5.11-3.235-11.065-4.875-17.7-4.875l.005-.005Zm.125 89.715c-6.285 0-11.85-1.53-16.55-4.55-4.7-3.025-8.37-7.39-10.9-12.985-2.525-5.575-3.805-12.075-3.805-19.325v-13.25c0-11.385 2.84-20.515 8.45-27.145 5.625-6.655 13.26-10.025 22.69-10.025 9.43 0 17.25 3.395 22.875 10.09 5.605 6.67 8.445 15.635 8.445 26.645v13.19c0 11.46-2.82 20.645-8.385 27.3-5.585 6.675-13.26 10.055-22.815 10.055h-.005Zm-.125-86.355c-9.145 0-16.54 3.265-21.98 9.7-5.46 6.46-8.23 15.39-8.23 26.545v13.25c0 7.115 1.255 13.49 3.725 18.94 2.46 5.43 6.01 9.66 10.56 12.585 4.55 2.925 9.95 4.405 16.05 4.405 9.27 0 16.705-3.27 22.105-9.725 5.42-6.48 8.165-15.465 8.165-26.705v-13.19c0-10.785-2.77-19.55-8.23-26.05-5.44-6.475-12.9-9.76-22.165-9.76v.005ZM297.171 243.875h-33.785v-2.68l18.045-18.41c3.275-3.2 5.68-6.005 7.215-8.42 1.535-2.415 2.3-4.68 2.3-6.8 0-3.205-1.015-5.75-3.045-7.64-2.035-1.89-5.06-2.835-9.085-2.835-4.23 0-7.53 1.085-9.895 3.255-2.365 2.17-3.545 5.025-3.545 8.57h-3.36c0-4.275 1.565-7.81 4.7-10.61 3.13-2.8 7.165-4.2 12.1-4.2s8.595 1.225 11.355 3.67c2.76 2.45 4.135 5.705 4.135 9.77 0 4.065-2.345 8.4-7.03 13.5l-4.105 4.355-15.615 15.49h29.615v2.985Z"/><path fill="#222" d="M297.636 244.34h-34.71v-3.335l18.175-18.545c3.24-3.17 5.645-5.97 7.155-8.34 1.48-2.325 2.23-4.53 2.23-6.55 0-3.05-.975-5.51-2.9-7.3-1.935-1.8-4.885-2.715-8.765-2.715-4.09 0-7.315 1.055-9.58 3.13-2.255 2.07-3.395 4.835-3.395 8.225v.465h-4.285v-.465c0-4.39 1.635-8.075 4.855-10.955 3.205-2.865 7.38-4.32 12.41-4.32s8.825 1.275 11.66 3.785c2.85 2.53 4.295 5.935 4.295 10.115 0 4.18-2.405 8.65-7.155 13.815l-4.11 4.36-14.83 14.71h28.955v3.915l-.005.005Zm-33.785-.925h32.855v-2.06h-30.275l16.415-16.285 4.095-4.345c4.58-4.985 6.905-9.42 6.905-13.18s-1.34-7.075-3.98-9.425c-2.66-2.36-6.375-3.555-11.045-3.555s-8.765 1.375-11.79 4.08c-2.9 2.595-4.425 5.89-4.54 9.8h2.435c.1-3.45 1.34-6.29 3.69-8.445 2.445-2.24 5.875-3.375 10.205-3.375s7.285.995 9.4 2.96c2.12 1.975 3.195 4.66 3.195 7.98 0 2.2-.8 4.57-2.375 7.045-1.545 2.43-3.995 5.29-7.285 8.5l-17.905 18.265V243.415Z"/><path fill="#DADADA" d="M248.275 324.21c6.475 0 11.725-5.25 11.725-11.725 0-6.476-5.25-11.725-11.725-11.725-6.476 0-11.725 5.249-11.725 11.725 0 6.475 5.249 11.725 11.725 11.725Z"/><path fill="#222" d="M243.875 329.295c-.74 0-1.495-.07-2.25-.21-6.53-1.235-10.83-7.555-9.595-14.08 1.235-6.53 7.555-10.83 14.08-9.595 6.53 1.235 10.83 7.555 9.595 14.08-1.095 5.775-6.16 9.805-11.835 9.805h.005Zm-.01-21.32c-4.365 0-8.26 3.105-9.1 7.545-.95 5.02 2.36 9.88 7.38 10.83 5.02.95 9.88-2.36 10.83-7.38.95-5.02-2.36-9.88-7.38-10.83a9.293 9.293 0 0 0-1.73-.165Z"/><path fill="#FF3158" d="M340.144 364.365c8.85 0 16.025-7.175 16.025-16.025 0-8.85-7.175-16.025-16.025-16.025-8.85 0-16.025 7.175-16.025 16.025 0 8.85 7.175 16.025 16.025 16.025Z"/><path fill="#222" d="M340.18 365.765c-1.09 0-2.185-.1-3.28-.31a17.299 17.299 0 0 1-11.15-7.305 17.308 17.308 0 0 1-2.72-13.05c.865-4.57 3.46-8.53 7.305-11.15a17.308 17.308 0 0 1 13.05-2.72c4.57.865 8.53 3.46 11.15 7.305a17.308 17.308 0 0 1 2.72 13.05l-1.365-.26 1.365.26a17.299 17.299 0 0 1-7.305 11.15 17.285 17.285 0 0 1-9.77 3.03Zm-.065-32.06c-2.91 0-5.755.87-8.21 2.545-3.23 2.2-5.41 5.53-6.14 9.37-.73 3.84.085 7.735 2.285 10.965 2.2 3.23 5.53 5.41 9.37 6.14 3.84.73 7.735-.085 10.965-2.285 3.23-2.2 5.41-5.53 6.14-9.37.73-3.84-.085-7.735-2.285-10.965-2.2-3.23-5.53-5.41-9.37-6.14-.92-.175-1.84-.26-2.755-.26Z"/><path fill="#FF3158" d="M139.521 54.48c8.85 0 16.025-7.175 16.025-16.025 0-8.85-7.175-16.025-16.025-16.025-8.85 0-16.025 7.175-16.025 16.025 0 8.85 7.175 16.025 16.025 16.025Z"/><path fill="#222" d="M139.531 55.875c-1.07 0-2.16-.1-3.25-.305a17.299 17.299 0 0 1-11.15-7.305 17.308 17.308 0 0 1-2.72-13.05c.865-4.57 3.46-8.53 7.305-11.15a17.308 17.308 0 0 1 13.05-2.72c4.57.865 8.53 3.46 11.15 7.305a17.308 17.308 0 0 1 2.72 13.05c-1.58 8.345-8.905 14.175-17.105 14.175Zm-.04-32.06c-2.91 0-5.755.87-8.21 2.545-3.23 2.2-5.41 5.53-6.14 9.37-.73 3.84.085 7.735 2.285 10.965 2.2 3.23 5.53 5.41 9.37 6.14 7.93 1.505 15.6-3.725 17.105-11.655.73-3.84-.085-7.735-2.285-10.965-2.2-3.23-5.53-5.41-9.37-6.14-.92-.175-1.84-.26-2.755-.26Z"/><path fill="#FF3158" d="M347.185 313.375a7.855 7.855 0 1 0 0-15.71 7.855 7.855 0 0 0 0 15.71Z"/><path fill="#222" d="M347.205 314.77c-.58 0-1.16-.055-1.74-.165-5.01-.95-8.315-5.795-7.365-10.805a9.177 9.177 0 0 1 3.88-5.92 9.19 9.19 0 0 1 6.93-1.445 9.177 9.177 0 0 1 5.92 3.88 9.19 9.19 0 0 1 1.445 6.93 9.177 9.177 0 0 1-3.88 5.92 9.179 9.179 0 0 1-5.19 1.61v-.005Zm-.02-15.715c-3.045 0-5.765 2.165-6.35 5.26a6.47 6.47 0 0 0 5.15 7.555 6.425 6.425 0 0 0 4.845-1.01 6.417 6.417 0 0 0 2.71-4.14 6.425 6.425 0 0 0-1.01-4.845 6.41 6.41 0 0 0-4.14-2.71 6.64 6.64 0 0 0-1.205-.115v.005Z"/><path fill="#FF3158" d="M175.509 64.315a7.855 7.855 0 1 0 0-15.71 7.855 7.855 0 0 0 0 15.71Z"/><path fill="#222" d="M175.53 65.71c-.58 0-1.16-.055-1.74-.165a9.177 9.177 0 0 1-5.92-3.88 9.19 9.19 0 0 1-1.445-6.93c.95-5.01 5.8-8.315 10.805-7.365a9.177 9.177 0 0 1 5.92 3.88 9.19 9.19 0 0 1 1.445 6.93 9.177 9.177 0 0 1-3.88 5.92 9.179 9.179 0 0 1-5.19 1.61h.005Zm-.02-15.715c-3.045 0-5.765 2.165-6.35 5.26a6.425 6.425 0 0 0 1.01 4.845 6.435 6.435 0 0 0 4.14 2.71 6.425 6.425 0 0 0 4.845-1.01 6.404 6.404 0 0 0 2.71-4.14 6.47 6.47 0 0 0-6.355-7.67v.005Z"/><path fill="#DADADA" d="M231.439 102.01a8.125 8.125 0 0 0 8.125-8.125 8.125 8.125 0 1 0-8.125 8.125ZM320.945 161.16h-.105a2.782 2.782 0 0 1-2.68-2.88c1.27-34.51-25.775-63.625-60.285-64.895a2.782 2.782 0 0 1 .2-5.56c37.58 1.385 67.025 33.08 65.64 70.655a2.784 2.784 0 0 1-2.78 2.68h.01Z"/><path fill="#222" d="M317.776 155.415h-.05a1.394 1.394 0 0 1-1.34-1.44c.63-17.09-5.435-33.4-17.075-45.93-11.64-12.53-27.46-19.775-44.55-20.405a1.394 1.394 0 0 1-1.34-1.44c.03-.77.665-1.365 1.44-1.34 17.83.655 34.34 8.215 46.485 21.29 12.145 13.075 18.47 30.095 17.815 47.925-.03.75-.645 1.34-1.39 1.34h.005Z"/><path fill="#DADADA" d="M85.595 291.49c-.545 0-1.095-.16-1.575-.49-9.77-6.73-16.335-16.86-18.485-28.525-2.15-11.665.37-23.47 7.095-33.24a2.785 2.785 0 0 1 3.87-.715 2.785 2.785 0 0 1 .715 3.87c-5.885 8.545-8.09 18.87-6.21 29.075 1.88 10.205 7.625 19.065 16.17 24.95a2.785 2.785 0 0 1 .715 3.87 2.778 2.778 0 0 1-2.295 1.205Z"/><path fill="#222" d="M85.814 293.52c-.27 0-.545-.08-.79-.245C65.49 279.82 60.54 252.98 73.99 233.445a1.385 1.385 0 0 1 1.935-.355c.635.435.79 1.3.355 1.935-6.095 8.85-8.38 19.55-6.43 30.12 1.95 10.57 7.9 19.75 16.75 25.845a1.39 1.39 0 0 1-.79 2.535l.005-.005ZM229.53 102.33a10.31 10.31 0 0 1-7.32-3.03c-2.015-2.02-3.035-4.555-3.035-7.32 0-2.765 1.075-5.365 3.035-7.32 4.035-4.035 10.605-4.035 14.645 0a10.288 10.288 0 0 1 3.035 7.32c0 2.765-1.075 5.365-3.035 7.32a10.492 10.492 0 0 1-7.32 3.03h-.005Zm0-17.925c-2.025 0-3.925.79-5.355 2.22a7.523 7.523 0 0 0-2.22 5.355c0 2.025.79 3.925 2.22 5.355a7.523 7.523 0 0 0 5.355 2.22c2.025 0 3.925-.79 5.355-2.22a7.523 7.523 0 0 0 2.22-5.355c0-2.025-.79-3.925-2.22-5.355a7.523 7.523 0 0 0-5.355-2.22Z"/><path fill="#FF3158" d="M69.34 163.655a6.145 6.145 0 1 0 0-12.29 6.145 6.145 0 0 0 0 12.29Z"/><path fill="#DADADA" d="M71.005 163.105a6.78 6.78 0 1 0-.001-13.56 6.78 6.78 0 0 0 0 13.56Z"/><path fill="#222" d="M71.015 164.49a8.18 8.18 0 0 1-6.67-3.43 8.13 8.13 0 0 1-1.4-6.095 8.102 8.102 0 0 1 3.32-5.295 8.13 8.13 0 0 1 6.095-1.4 8.102 8.102 0 0 1 5.295 3.32 8.13 8.13 0 0 1 1.4 6.095 8.102 8.102 0 0 1-3.32 5.295 8.124 8.124 0 0 1-4.725 1.51h.005Zm-.025-13.555a5.393 5.393 0 0 0-4.38 8.51 5.393 5.393 0 0 0 7.51 1.27 5.348 5.348 0 0 0 2.19-3.495 5.37 5.37 0 0 0-.92-4.02 5.336 5.336 0 0 0-3.495-2.19 5.586 5.586 0 0 0-.91-.075h.005Z"/></svg>