<svg xmlns="http://www.w3.org/2000/svg" width="400" height="400" fill="none" viewBox="0 0 400 400"><path fill="#444" d="m90.43 207.12-.555 26.629 19.417-26.629h142.58V55.848H37.91V207.12h52.52Z"/><path fill="#222" d="M89.875 235.229h-.37a1.39 1.39 0 0 1-.924-1.294l.37-25.336H37.91c-.74 0-1.48-.554-1.48-1.479V55.849c0-.74.554-1.48 1.48-1.48h213.961c.74 0 1.48.555 1.48 1.48V207.12c0 .74-.555 1.479-1.48 1.479H109.847l-18.862 26.075c-.185.37-.74.555-1.11.555Zm-50.67-29.404h51.04c.37 0 .74.185.924.37.185.185.37.555.37.925l-.37 22.191 16.829-23.116c.185-.37.74-.554 1.109-.554h141.286V57.143H39.205v148.682Z"/><path fill="#DADADA" d="m49.376 46.232-11.465 9.616h213.962l11.465-9.616H49.376Z"/><path fill="#222" d="M251.873 57.143H37.911a1.39 1.39 0 0 1-1.295-.925c-.185-.555 0-1.11.37-1.48l11.465-9.616c.185-.185.555-.37.925-.37h213.962c.555 0 1.11.37 1.295.925.185.555 0 1.11-.37 1.48l-11.466 9.616c-.37.37-.555.37-.924.37ZM41.794 54.369h209.524l8.137-6.843H49.931l-8.137 6.843Z"/><path fill="#DADADA" d="M251.873 55.848V207.12l11.465-9.617V46.232l-11.465 9.616Z"/><path fill="#222" d="M251.873 208.599c-.185 0-.37 0-.555-.185-.555-.185-.74-.74-.74-1.294V55.848c0-.37.185-.74.555-1.11l11.465-9.616c.37-.37.925-.37 1.48-.185.555.185.74.74.74 1.295v151.456c0 .37-.185.74-.555 1.11l-11.466 9.616c-.37 0-.555.185-.924.185Zm1.294-152.196V204.16l8.692-7.213V49.191l-8.692 7.212Z"/><path fill="#fff" d="M131.854 90.985V191.03l-19.417-16.644V72.862l19.417 18.123Z"/><path fill="#fff" d="M235.414 90.985h-103.56v100.231h103.56V90.985ZM216.736 72.862H112.437l19.417 18.123h104.3l-19.418-18.123Z"/><path fill="#DADADA" d="M131.854 98.382v86.546l-15.904-14.794V83.587l15.904 14.795Z"/><path fill="#FF0053" d="M215.441 144.799h-41.794v46.232h41.794v-46.232Z"/><path fill="#222" d="M237.633 98.937H130.56v-9.432h107.073v9.432Zm-104.3-2.774h101.526v-3.884H133.333v3.884ZM216.736 192.51h-44.383v-49.191h44.568v49.191h-.185Zm-41.609-2.774h39.02v-43.643h-39.02v43.643Z"/><path fill="#222" d="M195.839 144.799h-2.774v46.232h2.774v-46.232ZM174.942 97.642h-2.774v93.389h2.774V97.642Z"/><path fill="#222" d="M174.942 192.51h-23.485V96.163h23.67v96.347h-.185Zm-20.712-2.774h18.123V99.121H154.23v90.615Z"/><path fill="#222" d="M154.23 192.51h-23.67V96.163h23.67v96.347Zm-20.897-2.774h18.123V99.121h-18.123v90.615ZM195.839 146.093h-23.671v-49.93h23.671v49.93Zm-20.897-2.774h18.123V98.937h-18.123v44.382Z"/><path fill="#222" d="M216.736 146.093h-23.671v-49.93h23.671v49.93Zm-20.897-2.774h18.123V98.937h-18.123v44.382Z"/><path fill="#222" d="M237.633 192.51h-23.671V96.163h23.671v96.347Zm-20.897-2.774h18.123V99.121h-18.123v90.615ZM133.333 130.929h-2.774v-39.39l-19.047-17.568 1.849-2.219 19.972 18.493v40.684Z"/><path fill="#222" d="m130.929 192.695-19.787-18.493V71.382h106.149l19.787 18.493-1.849 2.034-19.048-17.753H113.916v98.937l19.048 17.568-2.035 2.034Z"/><path fill="#222" d="M237.633 192.51H132.039v-2.774h102.82v-58.807h2.774v61.581ZM113.399 79.652l-1.885 2.034 19.53 18.103 1.886-2.034-19.531-18.103Z"/><path fill="#FF3158" d="M59.732 65.464c1.48 0 2.774 1.295 2.774 2.774v101.896h-5.363V68.054c0-1.48 1.11-2.59 2.59-2.59Z"/><path fill="#222" d="M62.506 171.428h-5.363c-.74 0-1.48-.554-1.48-1.479V68.053c0-2.219 1.85-3.883 3.884-3.883 2.22 0 4.069 1.85 4.069 4.068v101.896c.184.555-.37 1.294-1.11 1.294Zm-3.884-2.774h2.404V68.238c0-.74-.554-1.294-1.294-1.294s-1.11.555-1.11 1.11v100.6Z"/><path fill="#FF3158" d="M89.32 65.464c1.48 0 2.774 1.295 2.774 2.774v101.896h-5.363V68.054c0-1.48 1.295-2.59 2.59-2.59Z"/><path fill="#222" d="M92.094 171.428h-5.363c-.74 0-1.479-.554-1.479-1.479V68.053c0-2.219 1.85-3.883 3.883-3.883 2.22 0 4.069 1.85 4.069 4.068v101.896c.37.555-.37 1.294-1.11 1.294Zm-3.883-2.774H90.8V68.238c0-.74-.555-1.294-1.295-1.294-.74 0-1.11.555-1.11 1.11v100.6h-.184Z"/><path fill="#FF3158" d="M86.731 123.347H62.506v4.808H86.73v-4.808Z"/><path fill="#222" d="M86.731 129.635H62.506c-.74 0-1.48-.555-1.48-1.48v-4.808c0-.74.555-1.479 1.48-1.479H86.73c.74 0 1.48.554 1.48 1.479v4.808c-.185.74-.74 1.48-1.48 1.48Zm-22.93-2.774h21.451v-2.034H63.8v2.034Z"/><path fill="#FF3158" d="M86.731 152.751H62.506v4.808H86.73v-4.808Z"/><path fill="#222" d="M86.731 158.853H62.506c-.74 0-1.48-.554-1.48-1.479v-4.808c0-.74.555-1.48 1.48-1.48H86.73c.74 0 1.48.555 1.48 1.48v4.808c-.185.925-.74 1.479-1.48 1.479Zm-22.93-2.774h21.451v-2.034H63.8v2.034Z"/><path fill="#FF3158" d="M57.698 169.949h4.438c1.295 0 2.404 1.11 2.404 2.404 0 1.295-1.11 2.404-2.404 2.404h-4.438c-1.294 0-2.404-1.109-2.404-2.404 0-1.294 1.11-2.404 2.404-2.404Z"/><path fill="#222" d="M61.951 176.237h-4.438c-2.034 0-3.884-1.665-3.884-3.884s1.665-3.883 3.884-3.883h4.438c2.034 0 3.884 1.664 3.884 3.883 0 2.219-1.665 3.884-3.884 3.884Zm-4.253-4.808c-.555 0-1.11.554-1.11 1.109 0 .555.555 1.11 1.11 1.11h4.438c.555 0 1.11-.555 1.11-1.11s-.555-1.109-1.11-1.109h-4.438Z"/><path fill="#FF3158" d="M87.286 169.949h4.439c1.294 0 2.404 1.11 2.404 2.404 0 1.295-1.11 2.404-2.404 2.404h-4.439c-1.294 0-2.404-1.109-2.404-2.404 0-1.294 1.11-2.404 2.404-2.404Z"/><path fill="#222" d="M91.54 176.237H87.1c-2.034 0-3.883-1.665-3.883-3.884s1.664-3.883 3.883-3.883h4.439c2.034 0 3.883 1.664 3.883 3.883 0 2.219-1.664 3.884-3.883 3.884Zm-4.254-4.808c-.555 0-1.11.554-1.11 1.109 0 .555.555 1.11 1.11 1.11h4.439c.554 0 1.109-.555 1.109-1.11s-.555-1.109-1.11-1.109h-4.438ZM63.15 127.77l-1.308 1.308 12.684 12.684 1.308-1.308L63.15 127.77Z"/><path fill="#222" d="M74.668 140.361 61.9 151.884l1.24 1.373 12.766-11.523-1.24-1.373ZM63.248 98.523l-1.307 1.309 12.172 12.152 1.306-1.308-12.17-12.153Z"/><path fill="#222" d="m73.92 110.565-12.17 12.152 1.307 1.309 12.17-12.153-1.308-1.308Z"/><path fill="#FF3158" d="M86.731 94.868H62.506v4.808H86.73v-4.808Z"/><path fill="#222" d="M86.731 101.156H62.506c-.74 0-1.48-.555-1.48-1.48v-4.808c0-.74.555-1.48 1.48-1.48H86.73c.74 0 1.48.555 1.48 1.48v4.808c-.185.74-.74 1.48-1.48 1.48Zm-22.93-2.774h21.451v-2.035H63.8v2.035ZM63.239 70.045l-1.308 1.308 12.161 12.16 1.308-1.307-12.161-12.161Z"/><path fill="#222" d="m86.102 70.073-24.19 24.191 1.307 1.308 24.19-24.191-1.307-1.308Z"/><path fill="#FF3158" d="M107.998 119.094h-23.67L63.43 98.751H87.1l20.897 20.343Z"/><path fill="#222" d="M107.998 120.388h-23.67c-.37 0-.74-.185-.925-.37L62.506 99.861c-.37-.37-.555-.925-.37-1.48a1.39 1.39 0 0 1 1.294-.924h23.671c.37 0 .74.185.925.37l20.897 20.157c.37.37.555.925.37 1.48-.185.554-.74.924-1.295.924Zm-23.116-2.774h19.788l-18.123-17.383H66.759l18.123 17.383Z"/><path fill="#FF3158" d="M107.998 147.758h-23.67L63.43 127.601H87.1l20.897 20.157Z"/><path fill="#222" d="M107.998 149.237h-23.67c-.37 0-.74-.185-.925-.37L62.506 128.71c-.37-.37-.555-.924-.37-1.479a1.39 1.39 0 0 1 1.294-.925h23.671c.37 0 .74.185.925.37l20.897 20.157c.37.37.555.925.37 1.48-.185.554-.74.924-1.295.924Zm-23.116-2.774h19.788L86.547 129.08H66.759l18.123 17.383Z"/><path fill="#FF3158" d="M107.998 176.791h-23.67L63.43 156.449H87.1l20.897 20.342Z"/><path fill="#222" d="M107.998 178.086h-23.67c-.37 0-.74-.185-.925-.37l-20.897-20.157c-.37-.37-.555-.925-.37-1.48.185-.554.74-.924 1.294-.924h23.671c.37 0 .74.185.925.37l20.897 20.157c.37.37.555.924.37 1.479-.185.555-.74.925-1.295.925Zm-23.116-2.774h19.788l-18.123-17.383H66.759l18.123 17.383Z"/><path fill="#FF3158" d="M76.19 84.882c1.48 0 2.775 1.294 2.775 2.774v101.71h-5.363V87.471c0-1.48 1.11-2.59 2.589-2.59Z"/><path fill="#222" d="M78.964 190.661h-5.362c-.74 0-1.48-.555-1.48-1.48V87.471c0-2.22 1.85-3.884 4.069-3.884s4.068 1.85 4.068 4.069v101.71c0 .74-.555 1.295-1.295 1.295Zm-4.068-2.774h2.589V87.656c0-.74-.555-1.295-1.294-1.295-.74 0-1.295.555-1.295 1.11v100.416Z"/><path fill="#FF3158" d="M105.779 84.882c1.479 0 2.774 1.294 2.774 2.774v101.71h-5.363V87.471c0-1.48 1.11-2.59 2.589-2.59Z"/><path fill="#222" d="M108.553 190.661h-5.363c-.74 0-1.48-.555-1.48-1.48V87.471c0-2.22 1.85-3.884 3.884-3.884 2.219 0 4.068 1.85 4.068 4.069v101.71c.185.74-.369 1.295-1.109 1.295Zm-4.069-2.774h2.589V87.656c0-.74-.554-1.295-1.294-1.295s-1.11.555-1.11 1.11v100.416h-.185Z"/><path fill="#FF3158" d="M103.19 142.765H78.964v4.808h24.226v-4.808Z"/><path fill="#222" d="M103.19 149.052H78.964c-.74 0-1.48-.555-1.48-1.479v-4.808c0-.74.556-1.48 1.48-1.48h24.226c.74 0 1.479.555 1.479 1.48v4.808c-.185.739-.739 1.479-1.479 1.479Zm-22.931-2.774h21.451v-2.034H80.259v2.034Z"/><path fill="#FF3158" d="M103.19 171.983H78.964v4.809h24.226v-4.809Z"/><path fill="#222" d="M103.19 178.271H78.964c-.74 0-1.48-.555-1.48-1.48v-4.808c0-.739.556-1.479 1.48-1.479h24.226c.74 0 1.479.555 1.479 1.479v4.808c-.185.925-.739 1.48-1.479 1.48Zm-22.931-2.774h21.451v-2.034H80.259v2.034Z"/><path fill="#FF3158" d="M74.156 189.367h4.438c1.295 0 2.405 1.109 2.405 2.404 0 1.294-1.11 2.404-2.405 2.404h-4.438c-1.294 0-2.404-1.11-2.404-2.404-.185-1.295.925-2.404 2.404-2.404Z"/><path fill="#222" d="M78.41 195.654H73.97c-2.034 0-3.883-1.664-3.883-3.883 0-2.219 1.664-3.884 3.883-3.884h4.439c2.034 0 3.883 1.665 3.883 3.884s-1.85 3.883-3.883 3.883Zm-4.439-4.993c-.554 0-1.11.555-1.11 1.11 0 .554.556 1.109 1.11 1.109h4.439c.555 0 1.11-.555 1.11-1.109 0-.555-.555-1.11-1.11-1.11H73.97Z"/><path fill="#FF3158" d="M103.745 189.367h4.438c1.295 0 2.404 1.109 2.404 2.404 0 1.294-1.109 2.404-2.404 2.404h-4.438c-1.295 0-2.404-1.11-2.404-2.404 0-1.295.924-2.404 2.404-2.404Z"/><path fill="#222" d="M107.998 195.654h-4.438c-2.034 0-3.884-1.664-3.884-3.883 0-2.219 1.665-3.884 3.884-3.884h4.438c2.034 0 3.884 1.665 3.884 3.884s-1.665 3.883-3.884 3.883Zm-4.253-4.993c-.555 0-1.11.555-1.11 1.11 0 .554.555 1.109 1.11 1.109h4.438c.555 0 1.11-.555 1.11-1.109 0-.555-.555-1.11-1.11-1.11h-4.438ZM79.612 146.968l-1.308 1.307 12.03 12.031 1.308-1.308-12.03-12.03Z"/><path fill="#222" d="m102.468 147.003-24.19 24.191 1.307 1.307 24.191-24.191-1.308-1.307ZM79.454 117.884l-1.308 1.307 12.152 12.169 1.309-1.306-12.153-12.17Z"/><path fill="#222" d="m102.442 117.795-24.191 24.191 1.308 1.307 24.191-24.191-1.308-1.307Z"/><path fill="#FF3158" d="M103.19 114.286H78.964v4.808h24.226v-4.808Z"/><path fill="#222" d="M103.19 120.573H78.964c-.74 0-1.48-.555-1.48-1.479v-4.808c0-.74.556-1.48 1.48-1.48h24.226c.74 0 1.479.555 1.479 1.48v4.808c-.185.739-.739 1.479-1.479 1.479Zm-22.931-2.774h21.451v-2.034H80.259v2.034ZM79.704 89.418l-1.308 1.308 12.03 12.03 1.308-1.308-12.03-12.03Z"/><path fill="#222" d="m102.56 89.452-24.19 24.192 1.307 1.307 24.191-24.19-1.308-1.309Z"/><path fill="#fff" d="m299.954 343.597 21.451 30.513v-30.513h37.911a8.682 8.682 0 0 0 8.691-8.692V192.51a8.68 8.68 0 0 0-8.691-8.691H155.71a8.682 8.682 0 0 0-8.692 8.691v142.395a8.682 8.682 0 0 0 8.692 8.692h144.244Z"/><path fill="#222" d="M321.406 375.404c-.37 0-.925-.185-1.11-.554l-21.082-29.774H155.71a9.944 9.944 0 0 1-9.986-9.986V192.695a9.944 9.944 0 0 1 9.986-9.986h203.606a9.944 9.944 0 0 1 9.986 9.986V335.09a9.944 9.944 0 0 1-9.986 9.986H322.7v29.034a1.39 1.39 0 0 1-.925 1.294h-.369ZM155.71 185.298c-4.069 0-7.212 3.329-7.212 7.212v142.395c0 4.068 3.328 7.212 7.212 7.212h144.244c.37 0 .925.185 1.109.555l19.048 26.815v-26.075c0-.74.555-1.48 1.479-1.48h37.911c4.068 0 7.212-3.328 7.212-7.212V192.325c0-4.068-3.329-7.212-7.212-7.212H155.71v.185Z"/><path fill="#FF3158" d="M289.413 286.639H186.408a14.916 14.916 0 0 0-14.979 14.979 14.916 14.916 0 0 0 14.979 14.979h103.005a14.916 14.916 0 0 0 14.979-14.979 14.916 14.916 0 0 0-14.979-14.979Z"/><path fill="#222" d="M281.831 325.474H178.826c-9.062 0-16.459-7.397-16.459-16.459 0-9.061 7.397-16.458 16.459-16.458h103.005c9.061 0 16.459 7.397 16.459 16.458 0 9.062-7.398 16.459-16.459 16.459Zm-103.005-29.958a13.654 13.654 0 0 0-13.685 13.684 13.654 13.654 0 0 0 13.685 13.685h103.005a13.654 13.654 0 0 0 13.685-13.685 13.654 13.654 0 0 0-13.685-13.684H178.826Z"/><path fill="#222" d="M186.038 309.2c0 2.959-2.404 5.178-5.178 5.178-2.959 0-5.178-2.219-5.178-5.178s2.219-5.178 5.178-5.178c2.774 0 5.178 2.219 5.178 5.178ZM203.236 309.2c0 2.959-2.404 5.178-5.178 5.178-2.958 0-5.178-2.219-5.178-5.178s2.22-5.178 5.178-5.178c2.959 0 5.178 2.219 5.178 5.178ZM220.62 309.2c0 2.959-2.404 5.178-5.178 5.178-2.959 0-5.178-2.219-5.178-5.178s2.219-5.178 5.178-5.178c2.774 0 5.178 2.219 5.178 5.178Z"/><path fill="#DADADA" d="M340.823 244.291H222.654a14.917 14.917 0 0 0-14.98 14.979 14.918 14.918 0 0 0 14.98 14.979h118.169a14.918 14.918 0 0 0 14.979-14.979 14.917 14.917 0 0 0-14.979-14.979Z"/><path fill="#222" d="M333.426 283.125h-118.17c-9.061 0-16.458-7.397-16.458-16.458 0-9.062 7.397-16.459 16.458-16.459h118.17c9.061 0 16.458 7.397 16.458 16.459 0 9.061-7.397 16.458-16.458 16.458Zm-118.17-29.958a13.653 13.653 0 0 0-13.684 13.685 13.653 13.653 0 0 0 13.684 13.684h118.17a13.653 13.653 0 0 0 13.684-13.684 13.653 13.653 0 0 0-13.684-13.685h-118.17Z"/><path fill="#DADADA" d="M273.324 197.688h-87.101a14.917 14.917 0 0 0-14.979 14.98 14.917 14.917 0 0 0 14.979 14.979h87.101a14.917 14.917 0 0 0 14.979-14.979c0-8.322-6.657-14.98-14.979-14.98Z"/><path fill="#222" d="M265.927 236.708h-87.101c-9.062 0-16.459-7.397-16.459-16.458 0-9.062 7.397-16.459 16.459-16.459h87.101c9.062 0 16.459 7.397 16.459 16.459 0 9.061-7.582 16.458-16.459 16.458Zm-87.101-29.958a13.654 13.654 0 0 0-13.685 13.685 13.654 13.654 0 0 0 13.685 13.684h87.101a13.654 13.654 0 0 0 13.685-13.684 13.654 13.654 0 0 0-13.685-13.685h-87.101Z"/></svg>