<svg xmlns="http://www.w3.org/2000/svg" width="400" height="400" fill="none" viewBox="0 0 400 400"><path fill="#fff" d="m123.02 213.98-18.69 26.47v-26.47H71.315a7.516 7.516 0 0 1-7.515-7.515v-118.8a7.516 7.516 0 0 1 7.515-7.515h177.07a7.516 7.516 0 0 1 7.515 7.515V206.47a7.516 7.516 0 0 1-7.515 7.515H123.02v-.005Z"/><path fill="#fff" d="M331.63 67.535h-88.415v59.63H313.2l7.945 10.065v-10.065h10.485v-59.63ZM267.28 318.255l13.725 19.43v-19.43h52.915V208.09H178.195v110.165h89.085Z"/><path fill="#DADADA" d="M248.436 62.315v12.62h5.17a7.516 7.516 0 0 1 7.515 7.515v39.5h57.305l7.94 10.065V121.95h10.485V62.315h-88.415Z"/><path fill="#FF3158" d="M243.215 127.165v-47H71.445a7.496 7.496 0 0 0-7.5 7.5V189.36h17.09v-52.405h-5.4v-42.45H175.6l22.085 31.095h21.55l20.85 27.56-.09.055v36.145h16.055v-62.195h-12.835Z"/><path fill="#DADADA" d="M126.225 245.255H74.3c-6.11 0-11.06 4.955-11.06 11.06s4.955 11.06 11.06 11.06h51.925c6.11 0 11.06-4.955 11.06-11.06s-4.955-11.06-11.06-11.06ZM150.205 307.61h-75.91c-6.11 0-11.06 4.955-11.06 11.06s4.955 11.06 11.06 11.06h75.91c6.11 0 11.06-4.955 11.06-11.06s-4.955-11.06-11.06-11.06Z"/><path fill="#222" d="M120.69 274.295H68.765c-6.86 0-12.445-5.585-12.445-12.445s5.585-12.445 12.445-12.445h51.925c6.86 0 12.445 5.585 12.445 12.445s-5.58 12.445-12.445 12.445ZM68.765 252.17c-5.335 0-9.68 4.34-9.68 9.68s4.34 9.68 9.68 9.68h51.925c5.335 0 9.68-4.34 9.68-9.68s-4.34-9.68-9.68-9.68H68.765ZM144.67 336.65H68.765c-6.86 0-12.445-5.585-12.445-12.445s5.585-12.445 12.445-12.445h75.91c6.86 0 12.445 5.585 12.445 12.445s-5.585 12.445-12.445 12.445h-.005Zm-75.91-22.125c-5.335 0-9.68 4.34-9.68 9.68s4.34 9.68 9.68 9.68h75.91c5.335 0 9.68-4.34 9.68-9.68s-4.34-9.68-9.68-9.68H68.76Z"/><path fill="#222" d="M74.07 324.205a3.82 3.82 0 0 1-3.815 3.815 3.792 3.792 0 0 1-3.815-3.815 3.792 3.792 0 0 1 3.815-3.815c2.08 0 3.815 1.735 3.815 3.815ZM86.825 324.205a3.82 3.82 0 0 1-3.815 3.815 3.792 3.792 0 0 1-3.815-3.815 3.792 3.792 0 0 1 3.815-3.815c2.08 0 3.815 1.735 3.815 3.815ZM99.575 324.205a3.82 3.82 0 0 1-3.815 3.815 3.792 3.792 0 0 1-3.815-3.815 3.792 3.792 0 0 1 3.815-3.815c2.08 0 3.815 1.735 3.815 3.815ZM281.005 339.07c-.44 0-.865-.21-1.13-.585L266.57 319.64H178.2a1.38 1.38 0 0 1-1.38-1.385V208.09c0-.765.62-1.38 1.38-1.38h155.72c.765 0 1.38.62 1.38 1.38v110.165c0 .765-.62 1.385-1.38 1.385h-51.535v18.05a1.39 1.39 0 0 1-1.385 1.385l.005-.005Zm-101.425-22.2h87.705c.45 0 .87.22 1.13.585l11.21 15.875v-15.075c0-.765.62-1.385 1.38-1.385h51.535v-107.4H179.58v107.4Z"/><path fill="#DADADA" d="m186.575 201.11-8.38 6.98H333.92l8.38-6.98H186.575Z"/><path fill="#222" d="M333.921 209.475H178.196c-.58 0-1.1-.365-1.3-.91-.2-.545-.03-1.16.415-1.535l8.38-6.985c.25-.205.56-.32.885-.32h155.72c.58 0 1.1.365 1.3.91.2.545.03 1.16-.415 1.535l-8.38 6.985c-.25.205-.56.32-.885.32h.005Zm-151.905-2.765h151.405l5.065-4.22H187.081l-5.065 4.22Z"/><path fill="#DADADA" d="M333.921 208.09v110.165l8.38-6.985V201.11l-8.38 6.98Z"/><path fill="#222" d="M333.921 319.635a1.384 1.384 0 0 1-1.38-1.38V208.09c0-.41.18-.8.495-1.06l8.38-6.985a1.382 1.382 0 0 1 2.265 1.06v110.16c0 .41-.18.8-.495 1.06l-8.38 6.985c-.255.21-.57.32-.885.32v.005Zm1.385-110.9V315.3l5.615-4.68V204.055l-5.615 4.68ZM321.146 138.615c-.415 0-.82-.185-1.085-.525l-7.525-9.54h-69.32a1.38 1.38 0 0 1-1.38-1.38V67.535c0-.765.62-1.38 1.38-1.38h88.415c.765 0 1.38.62 1.38 1.38v59.635c0 .765-.62 1.38-1.38 1.38h-9.105v8.68a1.38 1.38 0 0 1-1.385 1.38l.005.005Zm-76.55-12.83h68.605c.425 0 .825.195 1.085.525l5.475 6.935v-6.08c0-.765.62-1.38 1.38-1.38h9.105v-56.87h-85.65v56.87Z"/><path fill="#222" d="M104.331 241.835a1.38 1.38 0 0 1-1.385-1.385v-25.09H71.311c-4.905 0-8.895-3.99-8.895-8.895v-118.8c0-4.905 3.99-8.895 8.895-8.895h177.075c4.905 0 8.895 3.99 8.895 8.895V206.47c0 4.905-3.99 8.895-8.895 8.895H123.741l-18.28 25.885c-.265.375-.69.585-1.13.585Zm-33.015-160.3c-3.38 0-6.13 2.75-6.13 6.13V206.47c0 3.38 2.75 6.13 6.13 6.13h33.015c.765 0 1.385.62 1.385 1.38v22.115l16.18-22.915c.26-.365.68-.585 1.13-.585h125.36c3.38 0 6.13-2.75 6.13-6.13v-118.8c0-3.38-2.75-6.13-6.13-6.13H71.316Z"/><path fill="#222" d="M152.89 190.73a1.38 1.38 0 0 1-1.38-1.38V121.2a1.38 1.38 0 1 1 2.76 0v68.145c0 .765-.62 1.38-1.38 1.38v.005ZM227.945 190.73a1.38 1.38 0 0 1-1.38-1.38v-23.46c0-4.545-3.35-8.24-7.475-8.24s-7.475 3.695-7.475 8.24v23.46a1.38 1.38 0 1 1-2.76 0v-23.46c0-6.07 4.595-11.005 10.24-11.005 5.645 0 10.24 4.935 10.24 11.005v23.46c0 .765-.62 1.38-1.38 1.38h-.01Z"/><path fill="#222" d="M216.245 173.385a1.725 1.725 0 1 0 .001-3.45 1.725 1.725 0 0 0-.001 3.45ZM169.211 125.595v33.2h24.76l25.12-33.2h-49.88Z"/><path fill="#222" d="M193.971 160.175h-24.765a1.38 1.38 0 0 1-1.38-1.38v-33.2c0-.765.62-1.38 1.38-1.38h49.88c.525 0 1.005.295 1.24.765.235.47.18 1.03-.135 1.45l-25.115 33.2c-.26.345-.67.55-1.105.55v-.005Zm-23.38-2.765h22.695l23.025-30.435h-45.72v30.435Z"/><path fill="#222" d="M198.335 190.73a1.38 1.38 0 0 1-1.38-1.38v-36.135a1.38 1.38 0 1 1 2.76 0v36.135c0 .765-.62 1.38-1.38 1.38Z"/><path fill="#222" d="M244.196 160.175c-.42 0-.835-.19-1.105-.55l-24-31.74-24.015 31.74a1.38 1.38 0 1 1-2.205-1.665l25.115-33.2a1.385 1.385 0 0 1 2.21 0l25.105 33.2a1.38 1.38 0 0 1-1.1 2.215h-.005Z"/><path fill="#222" d="M239.847 190.73a1.38 1.38 0 0 1-1.38-1.38v-36.135a1.38 1.38 0 1 1 2.76 0v36.135c0 .765-.62 1.38-1.38 1.38ZM80.89 190.73c-.764 0-1.384-.62-1.384-1.38v-58.08c0-.765.62-1.38 1.385-1.38s1.385.62 1.385 1.38v58.08c0 .765-.62 1.38-1.385 1.38Z"/><path fill="#222" d="M75.505 94.505v42.45h67.785l32.165-42.45h-99.95Z"/><path fill="#222" d="M143.29 138.335H75.505c-.765 0-1.385-.62-1.385-1.38v-42.45c0-.765.62-1.38 1.385-1.38h99.95c.525 0 1.005.295 1.24.765.235.47.18 1.03-.135 1.45l-32.165 42.45c-.26.345-.67.545-1.1.545h-.005Zm-66.4-2.765h65.715l30.07-39.685h-95.79v39.685h.005Z"/><path fill="#222" d="M199.666 129.955c-.435 0-.86-.2-1.13-.58l-24.205-34.07a1.39 1.39 0 0 1 .325-1.93 1.39 1.39 0 0 1 1.93.325l24.205 34.07a1.39 1.39 0 0 1-.325 1.93 1.369 1.369 0 0 1-.8.255ZM173.556 190.73a1.38 1.38 0 0 1-1.38-1.38v-36.135a1.38 1.38 0 1 1 2.76 0v36.135c0 .765-.62 1.38-1.38 1.38ZM333.835 310.875H179.86a1.38 1.38 0 0 1-1.38-1.385c0-.765.62-1.385 1.38-1.385h153.975c.765 0 1.38.62 1.38 1.385s-.62 1.385-1.38 1.385ZM134.175 170.255h-19.64c-.765 0-1.385-.62-1.385-1.38v-20.76c0-.765.62-1.38 1.385-1.38h19.64c.765 0 1.38.62 1.38 1.38v20.76c0 .765-.62 1.38-1.38 1.38Zm-18.26-2.765h16.875v-17.995h-16.875v17.995Z"/><path fill="#222" d="M134.175 159.865h-19.64c-.765 0-1.385-.62-1.385-1.38 0-.76.62-1.38 1.385-1.38h19.64a1.38 1.38 0 1 1 0 2.76Z"/><path fill="#222" d="M124.356 170.255c-.765 0-1.385-.62-1.385-1.38v-20.76c0-.765.62-1.38 1.385-1.38s1.38.62 1.38 1.38v20.76c0 .765-.62 1.38-1.38 1.38Z"/><path fill="#DADADA" d="M188.15 276.435h-86.975c-6.11 0-11.06 4.955-11.06 11.06s4.955 11.06 11.06 11.06h86.98c6.11 0 11.06-4.955 11.06-11.06s-4.955-11.06-11.06-11.06h-.005Z"/><path fill="#222" d="M182.62 305.475H95.64c-6.86 0-12.445-5.585-12.445-12.445s5.58-12.445 12.445-12.445h86.98c6.86 0 12.445 5.585 12.445 12.445s-5.58 12.445-12.445 12.445ZM95.64 283.35c-5.335 0-9.68 4.34-9.68 9.68s4.34 9.68 9.68 9.68h86.98c5.335 0 9.68-4.34 9.68-9.68s-4.34-9.68-9.68-9.68H95.64ZM242.711 225.455l-43.885 39.91h36.24l43.885-39.91h-36.24Z"/><path fill="#222" d="M235.066 266.745h-36.24a1.381 1.381 0 0 1-.93-2.405l43.885-39.91c.255-.23.585-.36.93-.36h36.24a1.381 1.381 0 0 1 .93 2.405l-43.885 39.91c-.255.23-.585.36-.93.36Zm-32.665-2.765h32.13l40.845-37.145h-32.13l-40.845 37.145Z"/><path fill="#FF3158" d="m286.536 265.365-5.02-4.57v48.695h33.88v-44.125h-28.86Z"/><path fill="#222" d="M315.396 310.875h-33.88a1.38 1.38 0 0 1-1.38-1.385v-48.695a1.387 1.387 0 0 1 2.315-1.025l4.63 4.21h28.32c.765 0 1.38.62 1.38 1.385v44.13c0 .765-.62 1.385-1.38 1.385l-.005-.005Zm-32.5-2.765h31.115v-41.365h-27.475c-.345 0-.675-.13-.93-.36l-2.71-2.465v44.19Z"/><path fill="#fff" d="M307.241 285.76v9.295h-17.57V276.48h17.57v9.28Z"/><path fill="#222" d="M307.241 296.435h-17.57a1.38 1.38 0 0 1-1.38-1.385v-18.575c0-.765.62-1.385 1.38-1.385h17.57c.765 0 1.38.62 1.38 1.385v18.575c0 .765-.62 1.385-1.38 1.385Zm-16.19-2.765h14.805v-15.81h-14.805v15.81Z"/><path fill="#222" d="M307.241 287.145h-17.57a1.38 1.38 0 0 1-1.38-1.385c0-.765.62-1.385 1.38-1.385h17.57c.765 0 1.38.62 1.38 1.385s-.62 1.385-1.38 1.385Z"/><path fill="#222" d="M298.456 296.435a1.38 1.38 0 0 1-1.38-1.385v-18.575c0-.765.62-1.385 1.38-1.385.76 0 1.38.62 1.38 1.385v18.575c0 .765-.62 1.385-1.38 1.385ZM278.891 225.455l43.885 39.91h-36.24l-43.885-39.91h36.24Z"/><path fill="#222" d="M322.777 266.745h-36.24c-.345 0-.675-.13-.93-.36l-43.885-39.91a1.381 1.381 0 0 1 .93-2.405h36.24c.345 0 .675.13.93.36l43.885 39.91a1.381 1.381 0 0 1-.93 2.405Zm-35.705-2.765h32.13l-40.845-37.145h-32.13l40.845 37.145Z"/><path fill="#FF3158" d="m242.65 225.455-38.86 35.34v48.695h77.725v-48.695l-38.865-35.34Z"/><path fill="#222" d="M281.515 310.875H203.79a1.38 1.38 0 0 1-1.38-1.385v-48.695c0-.39.165-.76.45-1.025l38.86-35.34c.51-.465 1.355-.465 1.86 0l38.86 35.34c.29.26.45.635.45 1.025v48.695c0 .765-.62 1.385-1.38 1.385h.005Zm-76.34-2.765h74.96v-46.7l-37.48-34.085-37.48 34.085v46.7Z"/><path fill="#fff" d="M258.985 279.896c-4.375 0-7.92 3.845-7.92 8.61v20.985h15.845v-20.985c0-4.76-3.545-8.61-7.92-8.61h-.005Z"/><path fill="#222" d="M266.911 310.876h-15.845a1.38 1.38 0 0 1-1.38-1.385v-20.985c0-5.51 4.175-9.99 9.305-9.99s9.305 4.48 9.305 9.99v20.985c0 .765-.62 1.385-1.38 1.385h-.005Zm-14.46-2.765h13.08v-19.605c0-3.985-2.935-7.225-6.54-7.225s-6.54 3.24-6.54 7.225v19.605Z"/><path fill="#222" d="M256.44 295.21a1.54 1.54 0 1 0 .001-3.079 1.54 1.54 0 0 0-.001 3.079ZM255.895 190.73H63.8c-.765 0-1.385-.62-1.385-1.38 0-.76.62-1.38 1.385-1.38h192.095a1.38 1.38 0 1 1 0 2.76Z"/></svg>