<svg xmlns="http://www.w3.org/2000/svg" width="400" height="400" fill="none" viewBox="0 0 400 400"><path fill="#444" d="m87.471 219.325-.37 24.965 17.938-24.965h133.519V77.855H38.465v141.47h49.006Z"/><path fill="#222" d="M87.101 245.77h-.37a1.391 1.391 0 0 1-.924-1.295l.37-23.486H38.465c-.74 0-1.48-.554-1.48-1.479V77.855c0-.74.555-1.48 1.48-1.48h200.092c.74 0 1.48.555 1.48 1.48v141.47c0 .74-.555 1.48-1.48 1.48H105.779l-17.568 24.41c-.37.37-.74.555-1.11.555ZM39.76 218.031H87.47c.37 0 .74.185.925.369.185.185.37.555.37.925l-.37 20.527L103.93 218.4c.185-.369.739-.554 1.109-.554h132.039V79.149H39.759v138.882Z"/><path fill="#DADADA" d="m49.19 68.793-10.725 9.062h200.093l10.725-9.062H49.191Z"/><path fill="#222" d="M238.558 79.334H38.465a1.39 1.39 0 0 1-1.294-.924c-.185-.555 0-1.11.37-1.48l10.725-9.061c.185-.185.555-.37.925-.37h200.092c.555 0 1.11.37 1.295.925.185.554 0 1.11-.37 1.48l-10.726 9.06c-.37.186-.739.37-.924.37ZM42.164 76.561h195.654l7.397-6.288H49.745l-7.581 6.288Z"/><path fill="#DADADA" d="M238.558 77.855v141.47l10.725-8.876V68.793l-10.725 9.062Z"/><path fill="#222" d="M238.558 220.805c-.185 0-.37 0-.555-.185-.555-.185-.74-.74-.74-1.295V77.855c0-.37.185-.74.555-1.11l10.726-9.061c.37-.37.924-.37 1.479-.185s.74.74.74 1.294v141.471c0 .369-.185.739-.555 1.109l-10.726 8.877c-.37.37-.739.555-.924.555Zm1.294-142.21v137.771l7.952-6.657V71.937l-7.952 6.658Z"/><path fill="#F5F4F3" d="M162.552 171.059H66.205c-7.767 0-14.055 6.287-14.055 14.054s6.288 14.055 14.054 14.055h96.348c7.767 0 14.055-6.288 14.055-14.055 0-7.767-6.288-14.054-14.055-14.054Z"/><path fill="#222" d="M155.525 207.675H59.177a15.312 15.312 0 0 1-15.349-15.349 15.311 15.311 0 0 1 15.35-15.349h96.347a15.31 15.31 0 0 1 15.349 15.349 15.311 15.311 0 0 1-15.349 15.349Zm-96.348-28.109c-7.027 0-12.575 5.732-12.575 12.575 0 6.842 5.733 12.575 12.575 12.575h96.348c7.027 0 12.575-5.733 12.575-12.575 0-6.843-5.733-12.575-12.575-12.575H59.177Z"/><path fill="#222" d="M65.835 192.141c0 2.774-2.22 4.808-4.809 4.808-2.774 0-4.808-2.219-4.808-4.808s2.22-4.808 4.808-4.808c2.59 0 4.809 2.219 4.809 4.808ZM82.108 192.141c0 2.774-2.219 4.808-4.808 4.808-2.774 0-4.808-2.219-4.808-4.808s2.22-4.808 4.808-4.808c2.59 0 4.808 2.219 4.808 4.808ZM98.197 192.141c0 2.774-2.22 4.808-4.808 4.808-2.774 0-4.808-2.219-4.808-4.808s2.219-4.808 4.808-4.808 4.808 2.219 4.808 4.808Z"/><path fill="#F5F4F3" d="M210.633 131.484H100.231c-7.767 0-14.054 6.287-14.054 14.054s6.287 14.055 14.054 14.055h110.402c7.767 0 14.055-6.288 14.055-14.055 0-7.767-6.288-14.054-14.055-14.054Z"/><path fill="#222" d="M203.791 168.1H93.204a15.311 15.311 0 0 1-15.35-15.349 15.311 15.311 0 0 1 15.35-15.349h110.402a15.31 15.31 0 0 1 15.349 15.349c0 8.507-6.842 15.349-15.164 15.349ZM93.204 139.991c-7.027 0-12.575 5.733-12.575 12.575s5.732 12.575 12.575 12.575h110.402c7.027 0 12.575-5.733 12.575-12.575s-5.733-12.575-12.575-12.575H93.204Z"/><path fill="#FF3158" d="M147.573 88.026H66.204c-7.766 0-14.054 6.287-14.054 14.054s6.288 14.055 14.054 14.055h81.369c7.767 0 14.054-6.288 14.054-14.055 0-7.767-6.287-14.054-14.054-14.054Z"/><path fill="#222" d="M140.546 124.457H59.177a15.311 15.311 0 0 1-15.349-15.349c0-8.507 6.842-15.35 15.35-15.35h81.368a15.312 15.312 0 0 1 15.349 15.35 15.311 15.311 0 0 1-15.349 15.349Zm-81.369-28.11c-7.027 0-12.575 5.734-12.575 12.576 0 7.027 5.733 12.575 12.575 12.575h81.369c7.027 0 12.575-5.733 12.575-12.575 0-7.027-5.733-12.575-12.575-12.575H59.177Z"/><path fill="#fff" d="m297.365 312.714 20.157 28.479v-28.479h35.506c4.438 0 8.137-3.699 8.137-8.137V171.428c0-4.438-3.699-8.136-8.137-8.136H162.552c-4.438 0-8.137 3.698-8.137 8.136v133.149c0 4.438 3.699 8.137 8.137 8.137h134.813Z"/><path fill="#222" d="M317.522 342.672c-.37 0-.925-.185-1.11-.555l-19.602-27.924H162.552c-5.178 0-9.431-4.253-9.431-9.431V171.613c0-5.178 4.253-9.431 9.431-9.431h190.476c5.178 0 9.431 4.253 9.431 9.431v133.149c0 5.178-4.253 9.431-9.431 9.431h-34.212v27c0 .555-.369 1.109-.924 1.294-.185.185-.37.185-.37.185Zm-18.863-30.513 17.383 24.78v-24.04c0-.74.555-1.48 1.48-1.48h35.506a6.63 6.63 0 0 0 6.658-6.657V171.613a6.63 6.63 0 0 0-6.658-6.657H162.552a6.63 6.63 0 0 0-6.657 6.657v133.149a6.63 6.63 0 0 0 6.657 6.657h134.813c.554 0 .924.185 1.294.74Z"/><path fill="#FF3158" d="M287.379 259.455h-96.348c-7.767 0-14.055 6.287-14.055 14.054s6.288 14.055 14.055 14.055h96.348c7.767 0 14.054-6.288 14.054-14.055 0-7.767-6.287-14.054-14.054-14.054Z"/><path fill="#222" d="M280.536 296.07h-96.532a15.31 15.31 0 0 1-15.349-15.349 15.31 15.31 0 0 1 15.349-15.349h96.347a15.31 15.31 0 0 1 15.349 15.349c.185 8.322-6.842 15.349-15.164 15.349Zm-96.532-28.109c-7.028 0-12.576 5.733-12.576 12.575 0 7.027 5.733 12.575 12.576 12.575h96.347c7.028 0 12.575-5.732 12.575-12.575 0-7.027-5.732-12.575-12.575-12.575h-96.347Z"/><path fill="#222" d="M190.846 280.536c0 2.774-2.219 4.808-4.808 4.808-2.774 0-4.808-2.219-4.808-4.808s2.219-4.808 4.808-4.808 4.808 2.219 4.808 4.808ZM206.935 280.536c0 2.774-2.219 4.808-4.808 4.808-2.774 0-4.808-2.219-4.808-4.808s2.219-4.808 4.808-4.808 4.808 2.219 4.808 4.808ZM223.209 280.536c0 2.774-2.22 4.808-4.809 4.808-2.774 0-4.808-2.219-4.808-4.808s2.219-4.808 4.808-4.808 4.809 2.219 4.809 4.808Z"/><path fill="#DADADA" d="M335.645 219.88H225.243c-7.767 0-14.055 6.287-14.055 14.054s6.288 14.055 14.055 14.055h110.402c7.767 0 14.055-6.288 14.055-14.055 0-7.767-6.288-14.054-14.055-14.054Z"/><path fill="#222" d="M328.618 256.495H218.216a15.312 15.312 0 0 1-15.35-15.349 15.312 15.312 0 0 1 15.35-15.349h110.402a15.312 15.312 0 0 1 15.349 15.349 15.311 15.311 0 0 1-15.349 15.349Zm-110.402-28.109c-7.028 0-12.576 5.733-12.576 12.575 0 6.843 5.733 12.576 12.576 12.576h110.402c7.027 0 12.575-5.733 12.575-12.576 0-6.842-5.733-12.575-12.575-12.575H218.216Z"/><path fill="#DADADA" d="M272.584 176.422h-81.368c-7.767 0-14.055 6.287-14.055 14.054s6.288 14.055 14.055 14.055h81.368c7.767 0 14.055-6.288 14.055-14.055 0-7.767-6.473-14.054-14.055-14.054Z"/><path fill="#222" d="M265.372 212.852h-81.368a15.31 15.31 0 0 1-15.349-15.349 15.311 15.311 0 0 1 15.349-15.349h81.368a15.311 15.311 0 0 1 15.349 15.349 15.31 15.31 0 0 1-15.349 15.349Zm-81.368-27.924c-7.028 0-12.576 5.733-12.576 12.575 0 6.843 5.733 12.575 12.576 12.575h81.368c7.027 0 12.575-5.732 12.575-12.575 0-6.842-5.733-12.575-12.575-12.575h-81.368Z"/></svg>