<svg xmlns="http://www.w3.org/2000/svg" width="400" height="401" fill="none" viewBox="0 0 400 401"><path fill="#fff" d="M116.625 209.075 96.33 237.82v-28.745H60.485a8.154 8.154 0 0 1-8.155-8.155v-129a8.154 8.154 0 0 1 8.155-8.155h192.26a8.154 8.154 0 0 1 8.155 8.155v129a8.154 8.154 0 0 1-8.155 8.155h-136.12Z"/><path fill="#fff" d="m273.265 322.295 14.9 21.1v-21.1h57.455V202.68H176.535v119.615h96.73Z"/><path fill="#FF3158" d="m257.98 65.67-10.85-1.89H60.625a8.137 8.137 0 0 0-8.145 8.144v110.42h18.555v-56.9H65.17V79.349h108.54l23.98 33.765h23.395l22.635 29.92-.1.06v39.25h17.435v-67.535l-.15-42.89-2.92-6.25h-.005Z"/><path fill="#222" d="M288.165 344.78c-.44 0-.865-.21-1.13-.585L272.55 323.68h-96.015a1.38 1.38 0 0 1-1.38-1.385V202.68c0-.765.62-1.38 1.38-1.38H345.62c.765 0 1.38.62 1.38 1.38v119.615c0 .765-.62 1.385-1.38 1.385h-56.075v19.72a1.39 1.39 0 0 1-1.385 1.385l.005-.005ZM177.92 320.915h95.35c.45 0 .87.22 1.13.585l12.385 17.54v-16.745c0-.765.62-1.385 1.38-1.385h56.075V204.06H177.92V320.915Z"/><path fill="#DADADA" d="m185.635 195.1-9.1 7.58H345.62l9.1-7.58H185.635Z"/><path fill="#222" d="M345.62 204.065H176.535c-.58 0-1.1-.365-1.3-.91-.2-.545-.03-1.16.415-1.535l9.1-7.585c.25-.205.56-.32.885-.32H354.72c.58 0 1.1.365 1.3.91.2.545.03 1.16-.415 1.535l-9.1 7.585c-.25.205-.56.32-.885.32ZM180.355 201.3H345.12l5.78-4.82H186.135l-5.78 4.82Z"/><path fill="#DADADA" d="M345.62 202.681v119.615l9.1-7.58V195.101l-9.1 7.58Z"/><path fill="#222" d="M345.62 323.681a1.384 1.384 0 0 1-1.38-1.38V202.686c0-.41.18-.8.5-1.06l9.1-7.585a1.382 1.382 0 0 1 2.265 1.06v119.615c0 .41-.18.8-.5 1.06l-9.1 7.585c-.255.21-.565.32-.885.32Zm1.38-120.35v116.015l6.335-5.28V198.051l-6.335 5.28ZM96.33 239.2a1.38 1.38 0 0 1-1.385-1.385v-27.36h-34.46c-5.26 0-9.54-4.28-9.54-9.54V71.92c0-5.26 4.28-9.54 9.54-9.54h192.26c5.26 0 9.54 4.28 9.54 9.54v129c0 5.26-4.28 9.54-9.54 9.54H117.34l-19.88 28.16c-.265.375-.69.585-1.13.585v-.005ZM60.485 65.145a6.784 6.784 0 0 0-6.775 6.775v129a6.784 6.784 0 0 0 6.775 6.775h35.85c.765 0 1.38.62 1.38 1.38v24.39L115.5 208.28c.26-.365.68-.585 1.13-.585h136.115a6.784 6.784 0 0 0 6.775-6.775v-129a6.784 6.784 0 0 0-6.775-6.775H60.485Z"/><path fill="#222" d="M149.06 183.71a1.38 1.38 0 0 1-1.38-1.38v-73.995a1.38 1.38 0 1 1 2.76 0v73.995c0 .765-.62 1.38-1.38 1.38ZM230.555 183.71a1.38 1.38 0 0 1-1.38-1.38v-25.475c0-5-3.695-9.065-8.23-9.065s-8.235 4.065-8.235 9.065v25.475a1.38 1.38 0 1 1-2.76 0v-25.475c0-6.525 4.935-11.83 11-11.83s10.995 5.305 10.995 11.83v25.475c0 .765-.62 1.38-1.38 1.38h-.01Z"/><path fill="#222" d="M217.845 164.99a1.87 1.87 0 1 0 0-3.74 1.87 1.87 0 0 0 0 3.74ZM166.775 113.104v36.05h26.89l27.275-36.05h-54.165Z"/><path fill="#222" d="M193.665 150.535h-26.89a1.38 1.38 0 0 1-1.38-1.38v-36.05c0-.765.62-1.38 1.38-1.38h54.16c.525 0 1.005.295 1.24.765.235.47.18 1.03-.135 1.45l-27.27 36.05c-.26.345-.67.55-1.105.55v-.005Zm-25.505-2.765h24.82l25.18-33.285h-50v33.285Z"/><path fill="#222" d="M198.4 183.71a1.38 1.38 0 0 1-1.38-1.38v-39.235a1.38 1.38 0 1 1 2.76 0v39.235c0 .765-.62 1.38-1.38 1.38Z"/><path fill="#222" d="M193.665 150.536a1.38 1.38 0 0 1-1.105-2.215l27.275-36.05a1.385 1.385 0 0 1 2.21 0l27.255 36.05c.46.61.34 1.475-.27 1.935a1.38 1.38 0 0 1-1.935-.27l-4.625-6.125-21.53-28.465-26.17 34.59c-.27.36-.685.55-1.105.55Z"/><path fill="#222" d="M243.475 183.711a1.38 1.38 0 0 1-1.38-1.38v-39.235a1.38 1.38 0 1 1 2.76 0v39.235c0 .765-.62 1.38-1.38 1.38ZM70.88 183.71a1.38 1.38 0 0 1-1.38-1.38v-63.065a1.38 1.38 0 1 1 2.76 0v63.065c0 .765-.62 1.38-1.38 1.38Z"/><path fill="#222" d="M65.03 79.345v46.095h73.605l34.925-46.095H65.03Z"/><path fill="#222" d="M138.635 126.82H65.03a1.38 1.38 0 0 1-1.38-1.38V79.345c0-.765.62-1.38 1.38-1.38h108.53c.525 0 1.005.295 1.24.765.235.47.18 1.03-.135 1.45l-34.93 46.095c-.26.345-.67.545-1.1.545Zm-72.22-2.765h71.53l32.835-43.33H66.415v43.33Z"/><path fill="#222" d="M199.845 117.72c-.43 0-.86-.2-1.13-.58l-26.28-36.995a1.39 1.39 0 0 1 .325-1.93 1.39 1.39 0 0 1 1.93.325l26.28 36.995a1.39 1.39 0 0 1-.325 1.93c-.245.175-.52.255-.8.255ZM171.495 183.71a1.38 1.38 0 0 1-1.38-1.38v-39.235a1.38 1.38 0 1 1 2.76 0v39.235c0 .765-.62 1.38-1.38 1.38ZM345.53 314.165H178.34a1.38 1.38 0 0 1-1.38-1.385c0-.765.62-1.385 1.38-1.385h167.19c.765 0 1.38.62 1.38 1.385s-.62 1.385-1.38 1.385ZM128.74 161.475h-21.325a1.38 1.38 0 0 1-1.38-1.38V137.55c0-.765.62-1.38 1.38-1.38h21.325c.765 0 1.38.62 1.38 1.38v22.545c0 .765-.62 1.38-1.38 1.38Zm-19.945-2.765h18.56v-19.78h-18.56v19.78Z"/><path fill="#222" d="M128.74 150.196h-21.325a1.38 1.38 0 1 1 0-2.76h21.325a1.38 1.38 0 1 1 0 2.76Z"/><path fill="#222" d="M118.075 161.475a1.38 1.38 0 0 1-1.38-1.38V137.55a1.38 1.38 0 1 1 2.76 0v22.545c0 .765-.62 1.38-1.38 1.38ZM246.585 221.53l-47.65 43.335h39.345l47.65-43.335h-39.345Z"/><path fill="#222" d="M238.28 266.25h-39.35a1.381 1.381 0 0 1-.93-2.405l47.65-43.335c.255-.23.585-.36.93-.36h39.35a1.381 1.381 0 0 1 .93 2.405l-47.65 43.335c-.255.23-.585.36-.93.36Zm-35.775-2.765h35.24l44.61-40.57h-35.24l-44.61 40.57Z"/><path fill="#FF3158" d="m294.175 264.866-5.455-4.96v52.875h36.785v-47.915h-31.33Z"/><path fill="#222" d="M325.505 314.166h-36.79a1.38 1.38 0 0 1-1.38-1.385v-52.875a1.387 1.387 0 0 1 2.315-1.025l5.06 4.6h30.8c.765 0 1.38.62 1.38 1.385v47.915c0 .765-.62 1.385-1.38 1.385h-.005Zm-35.405-2.765h34.025v-45.15h-29.95c-.345 0-.675-.13-.93-.36l-3.14-2.855v48.365h-.005Z"/><path fill="#fff" d="M316.65 287.016v10.09h-19.075v-20.165h19.075v10.075Z"/><path fill="#222" d="M316.65 298.486h-19.08a1.38 1.38 0 0 1-1.38-1.385v-20.165c0-.765.62-1.385 1.38-1.385h19.08c.765 0 1.38.62 1.38 1.385v20.165c0 .765-.62 1.385-1.38 1.385Zm-17.695-2.765h16.315v-17.4h-16.315v17.4Z"/><path fill="#222" d="M316.65 288.396h-19.08a1.38 1.38 0 0 1-1.38-1.385c0-.765.62-1.385 1.38-1.385h19.08c.765 0 1.38.62 1.38 1.385s-.62 1.385-1.38 1.385Z"/><path fill="#222" d="M307.11 298.486a1.38 1.38 0 0 1-1.38-1.385v-20.165c0-.765.62-1.385 1.38-1.385.76 0 1.38.62 1.38 1.385v20.165c0 .765-.62 1.385-1.38 1.385ZM285.87 221.53l47.65 43.335h-39.345L246.52 221.53h39.35Z"/><path fill="#222" d="M333.52 266.25h-39.35c-.345 0-.675-.13-.93-.36l-47.65-43.335a1.381 1.381 0 0 1 .93-2.405h39.35c.345 0 .675.13.93.36l47.65 43.335a1.381 1.381 0 0 1-.93 2.405Zm-38.815-2.765h35.24l-44.61-40.57h-35.24l44.61 40.57Z"/><path fill="#FF3158" d="m246.52 221.531-42.195 38.375v52.875H288.72v-52.875l-42.2-38.375Z"/><path fill="#222" d="M288.72 314.166h-84.395a1.38 1.38 0 0 1-1.38-1.385v-52.875c0-.39.165-.76.45-1.025l42.195-38.375c.095-.085.2-.155.31-.215a1.377 1.377 0 0 1 1.55.215l42.195 38.375c.29.26.45.635.45 1.025v52.875c0 .765-.62 1.385-1.38 1.385h.005Zm-83.01-2.765h81.63v-50.88l-40.815-37.12-40.815 37.12v50.88Z"/><path fill="#fff" d="M264.26 280.646c-4.75 0-8.6 4.175-8.6 9.345v22.785h17.205v-22.785c0-5.17-3.85-9.345-8.6-9.345h-.005Z"/><path fill="#222" d="M272.86 314.166h-17.205a1.38 1.38 0 0 1-1.38-1.385v-22.785c0-5.915 4.48-10.73 9.985-10.73 5.505 0 9.985 4.815 9.985 10.73v22.785c0 .765-.62 1.385-1.38 1.385h-.005Zm-15.82-2.765h14.44v-21.405c0-4.39-3.24-7.965-7.22-7.965-3.98 0-7.22 3.575-7.22 7.965v21.405Z"/><path fill="#222" d="M261.495 297.276a1.675 1.675 0 1 0 0-3.35 1.675 1.675 0 0 0 0 3.35ZM260.9 183.71H52.325a1.38 1.38 0 1 1 0-2.76H260.9a1.38 1.38 0 1 1 0 2.76Z"/></svg>