<svg xmlns="http://www.w3.org/2000/svg" width="401" height="401" fill="none" viewBox="0 0 401 401"><path fill="#444" d="m195.48 260.11-47.745 82.7h95.49l-47.745-82.7Z"/><path fill="#DADADA" d="M326.885 64.665H29.635v221.74h297.25V64.665Z"/><path fill="#222" d="M240.49 340.395H145c-.495 0-.955-.265-1.205-.695-.25-.43-.25-.96 0-1.39l47.745-82.695c.25-.43.71-.695 1.205-.695.495 0 .955.265 1.205.695l47.745 82.695c.25.43.25.96 0 1.39-.25.43-.71.695-1.205.695Zm-93.08-2.78h90.67l-45.335-78.525-45.335 78.525Z"/><path fill="#fff" d="M346.045 73.33h-306.6v223.08h306.6V73.33Z"/><path fill="#222" d="M346.045 297.8h-306.6a1.39 1.39 0 0 1-1.39-1.39V73.33c0-.77.625-1.39 1.39-1.39h306.6c.77 0 1.39.625 1.39 1.39v223.08c0 .77-.625 1.39-1.39 1.39Zm-305.21-2.78h303.82V74.72H40.835V295.02Z"/><path fill="#444" d="M350.74 78.275H44.14v223.08h306.6V78.275Z"/><path fill="#fff" d="M326.89 91.165H58.6v187.41h268.29V91.165Z"/><path fill="#222" d="M326.89 279.965H58.6a1.39 1.39 0 0 1-1.39-1.39V91.165c0-.77.625-1.39 1.39-1.39h268.29c.77 0 1.39.625 1.39 1.39v187.41c0 .77-.625 1.39-1.39 1.39Zm-266.895-2.78h265.5V92.555H59.99V277.18l.005.005Z"/><path fill="#222" d="M346.045 297.8h-306.6a1.39 1.39 0 0 1-1.39-1.39V73.33c0-.77.625-1.39 1.39-1.39h306.6c.77 0 1.39.625 1.39 1.39v223.08c0 .77-.625 1.39-1.39 1.39Zm-305.21-2.78h303.82V74.72H40.835V295.02Z"/><path fill="#F5F4F3" d="M119.875 124.4h-31.05v31.05h31.05V124.4ZM119.875 171.775h-31.05v31.05h31.05v-31.05ZM119.875 219.15h-31.05v31.05h31.05v-31.05Z"/><path fill="#222" d="M114.79 151.516H83.74a1.39 1.39 0 0 1-1.39-1.39v-31.05c0-.77.625-1.39 1.39-1.39h31.05c.77 0 1.39.625 1.39 1.39v31.05c0 .77-.625 1.39-1.39 1.39Zm-29.66-2.78h28.27v-28.27H85.13v28.27Z"/><path fill="#DADADA" d="M304.25 124.4H132.345v31.05H304.25V124.4Z"/><path fill="#F5F4F3" d="M294.855 114.07H122.95v20.66h171.905v-20.66Z"/><path fill="#222" d="M299.005 151.516H127.76a1.39 1.39 0 0 1-1.39-1.39v-31.05c0-.77.625-1.39 1.39-1.39h171.245c.77 0 1.39.625 1.39 1.39v31.05c0 .77-.625 1.39-1.39 1.39Zm-169.855-2.78h168.465v-28.27H129.15v28.27ZM114.79 198.891H83.74a1.39 1.39 0 0 1-1.39-1.39v-31.05c0-.77.625-1.39 1.39-1.39h31.05c.77 0 1.39.625 1.39 1.39v31.05c0 .77-.625 1.39-1.39 1.39Zm-29.66-2.78h28.27v-28.27H85.13v28.27Z"/><path fill="#DADADA" d="M304.25 171.775H132.345v31.05H304.25v-31.05Z"/><path fill="#F5F4F3" d="M293.2 160.561H121.295v18.17H293.2v-18.17Z"/><path fill="#222" d="M299.005 198.891H127.76a1.39 1.39 0 0 1-1.39-1.39v-31.05c0-.77.625-1.39 1.39-1.39h171.245c.77 0 1.39.625 1.39 1.39v31.05c0 .77-.625 1.39-1.39 1.39Zm-169.855-2.78h168.465v-28.27H129.15v28.27ZM114.79 246.266H83.74a1.39 1.39 0 0 1-1.39-1.39v-31.05c0-.77.625-1.39 1.39-1.39h31.05c.77 0 1.39.625 1.39 1.39v31.05c0 .77-.625 1.39-1.39 1.39Zm-29.66-2.78h28.27v-28.27H85.13v28.27Z"/><path fill="#DADADA" d="M304.25 219.15H132.345v31.05H304.25v-31.05Z"/><path fill="#F5F4F3" d="M294.855 207.28H122.95v18.755h171.905V207.28Z"/><path fill="#222" d="M299.005 246.266H127.76a1.39 1.39 0 0 1-1.39-1.39v-31.05c0-.77.625-1.39 1.39-1.39h171.245c.77 0 1.39.625 1.39 1.39v31.05c0 .77-.625 1.39-1.39 1.39Zm-169.855-2.78h168.465v-28.27H129.15v28.27Z"/><path fill="#444" d="M315.715 171.375s-33.99 21.61-67.975 27.015c0 0 5.56 33.44 19.595 70.355 17.43 45.855 48.385 61.4 48.385 61.4s32.98-17.33 50.41-63.185c14.03-36.92 17.57-68.575 17.57-68.575-33.99-5.4-67.975-27.01-67.975-27.015l-.01.005Zm41.75 95.59c-14.78 40.405-41.75 53.745-41.75 53.745s-25.2-13.085-39.98-53.49c-11.9-32.53-17.675-62.605-17.675-62.605 28.83-4.76 57.655-23.8 57.655-23.8s28.83 19.04 57.655 23.8c0 0-4 29.82-15.9 62.35h-.005Z"/><path fill="#fff" d="M319.745 171.375s-33.99 21.61-67.975 27.015c0 0 5.56 33.44 19.595 70.355 17.43 45.855 48.385 61.4 48.385 61.4s32.98-17.33 50.41-63.185c14.03-36.92 17.57-68.575 17.57-68.575-33.99-5.4-67.975-27.01-67.975-27.015l-.01.005Zm41.75 95.59c-14.78 40.405-41.75 53.745-41.75 53.745s-25.2-13.085-39.98-53.49c-11.9-32.53-17.675-62.605-17.675-62.605 28.83-4.76 57.655-23.8 57.655-23.8s28.83 19.04 57.655 23.8c0 0-4 29.82-15.9 62.35h-.005Z"/><path fill="#fff" d="M361.495 266.964c-14.78 40.405-41.75 53.745-41.75 53.745s-25.2-13.085-39.98-53.49c-11.9-32.53-17.675-62.605-17.675-62.605 28.83-4.76 57.655-23.8 57.655-23.8s28.83 19.04 57.655 23.8c0 0-4 29.82-15.9 62.35h-.005Z"/><path fill="#FF3158" d="M319.745 173.31s-33.99 19.675-67.975 25.08c0 0 5.56 35.375 19.595 72.29 17.43 45.855 48.385 61.4 48.385 61.4s32.98-19.26 50.41-65.115c14.03-36.92 17.57-68.575 17.57-68.575-35.455-10.51-67.975-25.075-67.975-25.08h-.01Zm38.19 94.31c-14.78 40.405-38.19 49.77-38.19 49.77s-23.3-10.545-38.08-50.95c-11.9-32.53-16.835-59.63-16.835-59.63 28.83-4.76 54.915-24.06 54.915-24.06s26.09 19.3 54.915 24.06c0 0-4.82 28.28-16.72 60.81h-.005Z"/><path fill="#222" d="M319.745 331.54c-.215 0-.425-.05-.625-.15-.325-.165-8.045-4.095-18-13.75-9.15-8.875-21.965-24.475-31.06-48.4-13.92-36.625-19.61-70.285-19.665-70.625a1.39 1.39 0 0 1 1.155-1.6c33.32-5.295 67.11-26.6 67.45-26.815.47-.3 1.06-.285 1.51.01.87.55 34.255 21.53 67.43 26.8.735.115 1.245.79 1.165 1.53-.035.32-3.715 32.255-17.65 68.915-17.355 45.66-49.69 63.195-51.055 63.915-.205.11-.43.16-.65.16l-.005.01Zm-66.36-132.005c1.215 6.655 7.045 36.53 19.28 68.72 8.89 23.39 21.385 38.63 30.3 47.3 8.07 7.845 14.74 11.87 16.77 13.01 2.12-1.215 9.185-5.56 17.82-13.915 9.375-9.07 22.41-24.795 31.3-48.175 12.22-32.155 16.48-60.595 17.32-66.925-30.27-5.185-60.465-22.88-66.4-26.55-5.03 3.08-35.68 21.26-66.39 26.54v-.005Zm66.36 119.25c-.22 0-.44-.05-.64-.155-1-.52-24.645-13.155-38.745-51.71-11.245-30.735-16.84-59.56-16.895-59.845-.07-.37.01-.75.225-1.06.215-.31.545-.515.915-.575 26.84-4.43 54.105-22.28 54.375-22.46a1.402 1.402 0 0 1 1.535 0c.27.18 27.52 18.025 54.375 22.46.74.12 1.25.81 1.15 1.555-.04.285-3.96 28.91-15.22 59.68l-1.305-.48 1.305.48c-14.1 38.545-39.385 51.435-40.455 51.96a1.406 1.406 0 0 1-.615.145l-.005.005Zm-53.27-110.85c1.255 6.095 6.73 31.335 16.495 58.025 12.45 34.03 32.96 47.55 36.795 49.84 4.005-2.265 25.965-15.965 38.445-50.08 9.78-26.735 13.975-51.825 14.88-57.77-24.585-4.445-48.685-19.185-53.345-22.155-4.585 2.9-28.86 17.705-53.265 22.145l-.005-.005Z"/><path fill="#FF3158" d="m286.32 240.865 10.325-9.78 20.415 21.735 36.24-40.94 8.995 10.87-45.235 50.54-30.74-32.425Z"/><path fill="#222" d="M317.06 274.679c-.38 0-.745-.155-1.01-.435l-30.735-32.42a1.388 1.388 0 0 1 .055-1.965l10.32-9.78c.27-.255.615-.395.995-.38.37.01.72.17.975.44l19.37 20.62 35.23-39.8a1.4 1.4 0 0 1 1.065-.47c.405.005.79.19 1.05.505l8.995 10.875c.44.53.425 1.3-.035 1.815l-45.24 50.535c-.26.29-.63.46-1.015.465h-.02v-.005Zm-28.77-33.76 28.74 30.315 43.43-48.52-7.195-8.7-35.165 39.725c-.26.295-.63.465-1.02.47a1.376 1.376 0 0 1-1.035-.44l-19.46-20.715-8.295 7.86v.005Z"/></svg>