<svg xmlns="http://www.w3.org/2000/svg" width="400" height="400" fill="none" viewBox="0 0 400 400"><path fill="#444" d="M136.035 245.955 93.32 358.275l51.37-19.04 26.16 48.52 42.715-112.32-77.53-29.48Z"/><path fill="#444" d="m315.145 356.365-42.715-112.32-77.53 29.485 42.715 112.32 26.16-48.52 51.37 19.035Z"/><path fill="#fff" d="M127.37 242.31 84.66 354.63l51.365-19.035 26.16 48.52 42.715-112.32-77.53-29.485Z"/><path fill="#DADADA" d="m132.73 244.045-42.715 112.32 51.37-19.035 26.16 48.52 42.715-112.32-77.53-29.485Z"/><path fill="#222" d="M162.185 385.505c-.51 0-.98-.28-1.225-.73l-25.585-47.455-50.235 18.615a1.388 1.388 0 0 1-1.78-1.8l42.715-112.32a1.388 1.388 0 0 1 1.795-.805l77.53 29.485c.72.275 1.08 1.075.805 1.795L163.49 384.61a1.39 1.39 0 0 1-1.21.895h-.095Zm-26.16-51.3c.5 0 .975.27 1.225.73l24.72 45.845 41.14-108.175-74.93-28.495-41.13 108.155 48.495-17.97c.16-.06.32-.085.485-.085l-.005-.005Z"/><path fill="#fff" d="m305.16 354.63-42.715-112.32-77.525 29.485 42.71 112.32 26.165-48.52 51.365 19.035Z"/><path fill="#DADADA" d="m311.6 356.365-42.715-112.32-77.525 29.485 42.715 112.32 26.16-48.52 51.365 19.035Z"/><path fill="#222" d="M227.635 385.505h-.09a1.39 1.39 0 0 1-1.21-.895L183.62 272.29a1.389 1.389 0 0 1 .805-1.795l77.53-29.485c.72-.275 1.52.09 1.795.805l42.715 112.32a1.4 1.4 0 0 1-.31 1.475c-.385.39-.96.515-1.47.325L254.45 337.32l-25.585 47.455c-.245.45-.715.73-1.225.73h-.005ZM186.715 272.6l41.14 108.175 24.715-45.845a1.394 1.394 0 0 1 1.71-.645l48.495 17.97-41.13-108.155-74.93 28.495v.005Z"/><path fill="#444" d="M324.975 168.345c0 4.31-9.91 8.07-10.345 12.265-.445 4.28 8.47 10 7.595 14.135-.89 4.2-11.36 5.815-12.67 9.845-1.325 4.075 6.2 11.535 4.47 15.41-1.74 3.905-12.32 3.295-14.45 6.975-2.14 3.7 3.66 12.56 1.16 16-2.51 3.45-12.73.655-15.585 3.82-2.855 3.165.985 13.04-2.18 15.895-3.165 2.85-12.585-1.995-16.035.515-3.44 2.505-1.725 12.96-5.425 15.1-3.68 2.13-11.885-4.57-15.79-2.825-3.875 1.73-4.38 12.31-8.455 13.635-4.03 1.31-10.65-6.955-14.85-6.07-4.135.875-6.84 11.12-11.12 11.565-4.195.435-8.955-9.025-13.265-9.025-4.31 0-9.07 9.46-13.265 9.025-4.28-.445-6.985-10.69-11.12-11.565-4.2-.89-10.825 7.375-14.85 6.07-4.075-1.325-4.58-11.91-8.455-13.635-3.905-1.74-12.115 4.955-15.795 2.825-3.7-2.14-1.985-12.595-5.425-15.1-3.45-2.51-12.87 2.335-16.035-.515-3.165-2.855.675-12.73-2.18-15.895-2.85-3.165-13.07-.37-15.58-3.82-2.51-3.45 3.3-12.305 1.16-16-2.13-3.68-12.705-3.065-14.45-6.975-1.73-3.875 5.795-11.335 4.47-15.41-1.31-4.03-11.78-5.645-12.67-9.845-.875-4.135 8.04-9.855 7.595-14.135-.435-4.195-10.345-7.955-10.345-12.265 0-4.31 9.91-8.07 10.345-12.265.445-4.28-8.47-10-7.595-14.135.89-4.2 11.36-5.815 12.67-9.845 1.325-4.075-6.2-11.535-4.47-15.41 1.73-3.875 12.32-3.295 14.45-6.975 2.14-3.7-3.66-12.56-1.16-16 2.51-3.45 12.73-.655 15.585-3.82 2.855-3.165-.985-13.04 2.18-15.895 3.165-2.855 12.585 1.995 16.035-.515 3.44-2.505 1.725-12.96 5.425-15.1 3.68-2.13 11.885 4.57 15.79 2.825 3.875-1.73 4.38-12.31 8.455-13.635 4.03-1.31 10.65 6.955 14.85 6.07 4.135-.875 6.84-11.12 11.12-11.565 4.195-.435 8.955 9.025 13.265 9.025 4.31 0 9.07-9.46 13.265-9.025 4.28.445 6.985 10.69 11.12 11.565 4.2.89 10.825-7.375 14.85-6.07 4.075 1.325 4.58 11.91 8.455 13.635 3.905 1.74 12.115-4.955 15.795-2.825 3.68 2.13 1.985 12.595 5.425 15.1 3.45 2.51 12.87-2.335 16.035.515 3.165 2.855-.675 12.73 2.18 15.895 2.855 3.165 13.07.37 15.58 3.82 2.505 3.44-3.3 12.305-1.16 16 2.13 3.68 12.705 3.065 14.45 6.975 1.73 3.875-5.795 11.335-4.47 15.41 1.31 4.03 11.78 5.645 12.67 9.845.875 4.135-8.04 9.855-7.595 14.135.435 4.195 10.345 7.955 10.345 12.265Z"/><path fill="#fff" d="M324.1 151.74c0 4.48-10.3 8.39-10.755 12.75-.46 4.45 8.805 10.395 7.895 14.695-.925 4.365-11.81 6.045-13.17 10.235-1.375 4.235 6.445 11.99 4.645 16.02-1.81 4.06-12.81 3.43-15.02 7.25-2.21 3.82 3.805 13.06 1.205 16.635-2.61 3.585-13.235.685-16.2 3.97s1.025 13.56-2.265 16.525c-3.29 2.965-13.085-2.075-16.67.535-3.575 2.6-1.795 13.475-5.64 15.7-3.825 2.21-12.355-4.75-16.42-2.94-4.03 1.795-4.555 12.8-8.79 14.175-4.19 1.36-11.075-7.23-15.44-6.31-4.3.91-7.115 11.56-11.56 12.025-4.36.455-9.31-9.385-13.795-9.385-4.485 0-9.43 9.835-13.795 9.385-4.45-.46-7.26-11.115-11.56-12.025-4.3-.91-11.255 7.67-15.44 6.31-4.235-1.375-4.76-12.38-8.79-14.175-4.06-1.81-12.595 5.15-16.42 2.94-3.845-2.225-2.065-13.095-5.64-15.7-3.575-2.605-13.38 2.425-16.67-.535-3.295-2.965.7-13.235-2.265-16.525-2.965-3.29-13.59-.385-16.2-3.975-2.6-3.575 3.43-12.79 1.205-16.635-2.21-3.825-13.21-3.19-15.02-7.25-1.795-4.03 6.025-11.78 4.65-16.02-1.36-4.19-12.25-5.865-13.17-10.235-.91-4.3 8.36-10.245 7.895-14.695-.455-4.36-10.755-8.27-10.755-12.75s10.3-8.39 10.755-12.75c.46-4.45-8.805-10.395-7.895-14.695.925-4.365 11.81-6.045 13.17-10.235 1.375-4.235-6.445-11.99-4.645-16.02 1.81-4.06 12.81-3.43 15.02-7.25 2.225-3.845-3.805-13.06-1.205-16.635 2.61-3.585 13.235-.685 16.2-3.97 2.965-3.295-1.025-13.56 2.265-16.525 3.29-2.965 13.085 2.075 16.67-.535 3.575-2.6 1.795-13.475 5.64-15.7 3.825-2.21 12.355 4.75 16.42 2.94 4.03-1.795 4.555-12.8 8.79-14.175 4.19-1.36 11.075 7.23 15.44 6.31 4.3-.91 7.115-11.56 11.56-12.025 4.36-.455 9.31 9.385 13.795 9.385 4.485 0 9.43-9.835 13.795-9.385 4.45.46 7.26 11.115 11.56 12.025 4.365.925 11.255-7.67 15.44-6.31 4.235 1.375 4.76 12.38 8.79 14.175 4.06 1.81 12.595-5.15 16.42-2.94 3.845 2.225 2.065 13.095 5.64 15.7 3.585 2.61 13.38-2.425 16.67.535 3.295 2.965-.7 13.235 2.265 16.525 2.965 3.29 13.59.385 16.2 3.975 2.6 3.575-3.43 12.79-1.205 16.635 2.21 3.825 13.21 3.19 15.02 7.25 1.795 4.03-6.025 11.78-4.65 16.02 1.36 4.19 12.25 5.865 13.17 10.235.91 4.3-8.36 10.245-7.895 14.695.455 4.36 10.755 8.27 10.755 12.75Z"/><path fill="#DADADA" d="M323.09 163.41c0 4.38-10.075 8.2-10.515 12.465-.44 4.265 8.61 10.165 7.72 14.37-.905 4.27-11.55 5.91-12.88 10.005-1.345 4.145 6.3 11.725 4.545 15.665-1.77 3.97-12.525 3.35-14.69 7.09-2.175 3.76 3.72 12.77 1.175 16.27-2.555 3.51-12.945.67-15.84 3.885-2.9 3.22 1.005 13.26-2.215 16.16-3.215 2.9-12.795-2.03-16.3.525-3.495 2.545-1.755 13.175-5.515 15.35-3.74 2.165-12.085-4.645-16.055-2.875-3.94 1.755-4.45 12.515-8.595 13.86-4.095 1.33-10.83-7.07-15.1-6.17-4.205.89-6.955 11.305-11.305 11.755-4.265.445-9.105-9.175-13.485-9.175-4.38 0-9.22 9.62-13.485 9.175-4.35-.45-7.1-10.87-11.305-11.755-4.27-.905-11.005 7.5-15.1 6.17-4.145-1.345-4.655-12.105-8.595-13.86-3.97-1.77-12.315 5.035-16.055 2.875-3.76-2.175-2.015-12.805-5.515-15.35-3.51-2.555-13.085 2.375-16.3-.525-3.22-2.9.685-12.94-2.215-16.16-2.9-3.215-13.29-.375-15.84-3.885-2.545-3.495 3.35-12.51 1.175-16.265-2.165-3.74-12.92-3.12-14.69-7.09-1.755-3.94 5.89-11.52 4.545-15.665-1.33-4.095-11.975-5.735-12.88-10.005-.89-4.205 8.175-10.02 7.72-14.37-.445-4.265-10.515-8.085-10.515-12.465 0-4.38 10.075-8.2 10.515-12.465.45-4.35-8.61-10.165-7.72-14.37.905-4.27 11.55-5.91 12.88-10.005 1.345-4.145-6.3-11.725-4.545-15.665 1.77-3.97 12.525-3.35 14.69-7.09 2.175-3.76-3.72-12.77-1.175-16.27 2.555-3.51 12.945-.67 15.84-3.885 2.9-3.22-1.005-13.26 2.215-16.16 3.215-2.9 12.795 2.03 16.3-.525 3.495-2.545 1.755-13.175 5.515-15.35 3.74-2.165 12.085 4.645 16.055 2.875 3.94-1.755 4.45-12.515 8.595-13.86 4.095-1.33 10.83 7.07 15.1 6.17 4.205-.89 6.955-11.305 11.305-11.755 4.265-.445 9.105 9.175 13.485 9.175 4.38 0 9.22-9.62 13.485-9.175 4.35.45 7.1 10.87 11.305 11.755 4.27.905 11.005-7.5 15.1-6.17 4.145 1.345 4.655 12.105 8.595 13.86 3.97 1.77 12.315-5.035 16.055-2.875 3.76 2.175 2.015 12.805 5.515 15.35 3.51 2.555 13.085-2.375 16.3.525 3.22 2.9-.685 12.94 2.215 16.16 2.9 3.215 13.29.375 15.84 3.885 2.55 3.51-3.35 12.51-1.175 16.265 2.165 3.74 12.92 3.12 14.69 7.09 1.755 3.94-5.89 11.52-4.545 15.665 1.33 4.095 11.975 5.735 12.88 10.005.89 4.205-8.175 10.02-7.72 14.37.445 4.265 10.515 8.085 10.515 12.465Z"/><path fill="#222" d="M206.585 293.26c-2.715 0-5.225-2.575-7.655-5.07-1.965-2.02-4.195-4.305-5.805-4.305-1.61 0-3.84 2.285-5.805 4.305-2.565 2.63-5.21 5.35-8.095 5.05-2.95-.305-5.01-3.555-7-6.7-1.485-2.34-3.165-4.995-4.675-5.315-1.56-.33-4.21 1.435-6.545 2.995-3.065 2.045-6.23 4.16-9.005 3.26-2.81-.91-4.14-4.515-5.425-7.995-.965-2.61-2.055-5.565-3.48-6.2-1.45-.645-4.395.525-7 1.56-3.43 1.36-6.98 2.77-9.51 1.305-2.545-1.475-3.095-5.265-3.63-8.93-.4-2.76-.855-5.885-2.12-6.805-1.275-.93-4.4-.395-7.155.075-3.645.62-7.415 1.265-9.59-.7-2.18-1.965-1.935-5.78-1.695-9.475.18-2.785.385-5.945-.67-7.115-1.05-1.165-4.21-1.29-7-1.4-3.7-.145-7.525-.3-9.255-2.675-1.725-2.37-.695-6.045.305-9.605.755-2.695 1.61-5.745.82-7.115-.78-1.35-3.84-2.13-6.54-2.815-3.595-.915-7.31-1.855-8.51-4.55-1.19-2.665.585-6.045 2.295-9.31 1.3-2.48 2.78-5.295 2.29-6.81-.48-1.475-3.3-2.87-5.785-4.1-3.33-1.65-6.775-3.355-7.39-6.25-.6-2.845 1.83-5.77 4.185-8.595 1.8-2.16 3.835-4.61 3.67-6.205-.16-1.53-2.62-3.475-4.79-5.19-2.925-2.31-5.945-4.7-5.945-7.67 0-2.97 3.02-5.36 5.945-7.67 2.17-1.715 4.63-3.66 4.79-5.19.165-1.595-1.875-4.045-3.67-6.205-2.35-2.83-4.785-5.75-4.185-8.595.615-2.895 4.06-4.6 7.39-6.25 2.49-1.23 5.31-2.625 5.79-4.1.49-1.51-.985-4.325-2.285-6.81-1.715-3.265-3.485-6.645-2.295-9.31 1.2-2.69 4.915-3.635 8.51-4.55 2.7-.685 5.755-1.46 6.54-2.815.79-1.37-.065-4.42-.82-7.115-.995-3.555-2.025-7.235-.305-9.605 1.73-2.375 5.555-2.525 9.255-2.675 2.79-.11 5.95-.235 7-1.4 1.055-1.17.85-4.33.67-7.115-.24-3.69-.485-7.51 1.695-9.475 2.18-1.96 5.945-1.32 9.59-.7 2.755.47 5.875 1 7.155.075 1.265-.92 1.72-4.05 2.12-6.805.53-3.665 1.08-7.46 3.63-8.93 2.53-1.465 6.08-.055 9.51 1.305 2.6 1.035 5.55 2.205 7 1.56 1.42-.635 2.515-3.59 3.48-6.2 1.285-3.485 2.62-7.085 5.425-7.995 2.77-.9 5.94 1.215 9 3.26 2.335 1.56 4.98 3.325 6.54 2.995 1.51-.32 3.195-2.975 4.675-5.315 1.99-3.145 4.05-6.395 7-6.7 2.885-.3 5.535 2.42 8.095 5.05 1.965 2.02 4.195 4.305 5.805 4.305 1.61 0 3.84-2.285 5.805-4.305 2.565-2.63 5.215-5.35 8.095-5.05 2.95.305 5.01 3.56 7 6.7 1.485 2.34 3.165 4.995 4.675 5.315 1.565.33 4.21-1.435 6.545-2.995 3.065-2.045 6.23-4.16 9.005-3.26 2.81.91 4.14 4.515 5.425 7.995.965 2.61 2.055 5.565 3.48 6.2 1.445.645 4.395-.525 7-1.56 3.43-1.36 6.98-2.77 9.51-1.305 2.545 1.475 3.095 5.265 3.63 8.93.4 2.76.855 5.885 2.12 6.805 1.275.93 4.4.395 7.155-.075 3.645-.62 7.415-1.26 9.59.7 2.18 1.965 1.935 5.78 1.695 9.475-.18 2.785-.385 5.945.67 7.115 1.05 1.165 4.21 1.29 7 1.4 3.7.145 7.525.3 9.255 2.675 1.725 2.37.695 6.045-.305 9.605-.755 2.695-1.61 5.745-.82 7.115.78 1.35 3.84 2.13 6.54 2.815 3.595.915 7.31 1.855 8.51 4.55 1.19 2.665-.585 6.045-2.295 9.31-1.3 2.48-2.78 5.295-2.29 6.81.48 1.475 3.3 2.87 5.79 4.1 3.33 1.65 6.775 3.355 7.39 6.25.6 2.845-1.83 5.77-4.185 8.595-1.8 2.16-3.835 4.61-3.67 6.205.16 1.53 2.62 3.475 4.79 5.19 2.925 2.31 5.945 4.7 5.945 7.67 0 2.97-3.02 5.36-5.945 7.67-2.17 1.715-4.63 3.66-4.79 5.19-.165 1.595 1.875 4.045 3.67 6.205 2.35 2.83 4.785 5.75 4.185 8.595-.615 2.895-4.06 4.6-7.39 6.25-2.49 1.23-5.31 2.625-5.79 4.1-.49 1.51.985 4.325 2.285 6.81 1.715 3.265 3.485 6.645 2.295 9.31-1.2 2.69-4.915 3.635-8.51 4.55-2.7.685-5.755 1.46-6.54 2.815-.79 1.37.065 4.42.82 7.115.995 3.555 2.025 7.235.305 9.605-1.73 2.375-5.555 2.525-9.255 2.675-2.79.11-5.95.235-7 1.4-1.055 1.17-.85 4.33-.67 7.115.24 3.69.485 7.51-1.695 9.475-2.18 1.96-5.945 1.32-9.59.7-2.755-.47-5.88-1-7.155-.075-1.265.92-1.72 4.05-2.12 6.805-.53 3.665-1.08 7.46-3.63 8.93-2.53 1.465-6.08.055-9.51-1.305-2.6-1.035-5.55-2.205-7-1.56-1.42.635-2.515 3.59-3.48 6.2-1.285 3.485-2.62 7.085-5.425 7.995-2.77.9-5.94-1.215-9-3.26-2.335-1.56-4.98-3.325-6.54-2.995-1.51.32-3.195 2.975-4.675 5.315-1.99 3.145-4.05 6.395-7 6.7a4.326 4.326 0 0 1-.44.025l-.005-.005ZM193.12 281.1c2.785 0 5.335 2.615 7.8 5.145 2.005 2.055 4.275 4.385 5.815 4.225 1.61-.165 3.38-2.96 4.94-5.425 1.95-3.08 3.79-5.985 6.45-6.55 2.71-.57 5.735 1.45 8.66 3.405 2.395 1.6 5.11 3.41 6.6 2.93 1.525-.495 2.67-3.585 3.675-6.315 1.265-3.425 2.46-6.665 4.955-7.775 2.52-1.12 5.895.22 9.16 1.515 2.685 1.065 5.725 2.275 7.09 1.485 1.38-.8 1.85-4.05 2.27-6.925.5-3.465 1.02-7.045 3.235-8.655 2.225-1.62 5.8-1.01 9.255-.42 2.85.485 6.085 1.035 7.26-.025 1.18-1.065.97-4.34.78-7.225-.225-3.5-.46-7.115 1.38-9.155 1.835-2.04 5.455-2.18 8.955-2.32 2.895-.115 6.18-.245 7.115-1.53.93-1.28.045-4.435-.735-7.215-.945-3.38-1.925-6.875-.545-9.26 1.37-2.365 4.875-3.255 8.26-4.12 2.815-.715 6.005-1.525 6.655-2.985.64-1.435-.88-4.33-2.22-6.885-1.635-3.115-3.325-6.335-2.47-8.96.84-2.59 3.93-4.12 7.2-5.735 2.61-1.29 5.57-2.755 5.9-4.33.325-1.525-1.76-4.03-3.6-6.24-2.255-2.71-4.585-5.515-4.3-8.275.28-2.7 2.975-4.83 5.835-7.085 2.29-1.81 4.89-3.865 4.89-5.49s-2.595-3.68-4.89-5.49c-2.855-2.255-5.55-4.39-5.835-7.085-.285-2.76 2.045-5.565 4.3-8.275 1.84-2.21 3.925-4.715 3.6-6.24-.335-1.575-3.29-3.04-5.9-4.33-3.27-1.62-6.36-3.145-7.2-5.735-.855-2.625.835-5.845 2.47-8.96 1.34-2.555 2.86-5.45 2.22-6.885-.65-1.46-3.84-2.27-6.655-2.985-3.39-.86-6.895-1.75-8.26-4.12-1.38-2.385-.4-5.88.545-9.26.78-2.785 1.665-5.94.735-7.215-.935-1.285-4.22-1.415-7.115-1.53-3.5-.14-7.12-.28-8.955-2.32-1.84-2.04-1.605-5.66-1.38-9.155.185-2.89.4-6.165-.78-7.225-1.175-1.06-4.41-.51-7.26-.025-3.46.59-7.035 1.2-9.255-.42-2.215-1.61-2.735-5.195-3.235-8.655-.415-2.87-.885-6.125-2.27-6.925-1.365-.79-4.405.42-7.09 1.485-3.265 1.295-6.64 2.635-9.16 1.515-2.495-1.11-3.69-4.35-4.955-7.775-1.01-2.73-2.15-5.82-3.675-6.315-1.49-.485-4.205 1.33-6.6 2.93-2.93 1.955-5.955 3.975-8.665 3.405-2.66-.56-4.5-3.47-6.45-6.55-1.56-2.465-3.33-5.255-4.94-5.425-1.54-.16-3.815 2.17-5.815 4.225-2.465 2.53-5.015 5.145-7.8 5.145s-5.335-2.615-7.8-5.145c-2.005-2.055-4.27-4.38-5.815-4.225-1.61.165-3.38 2.96-4.94 5.425-1.95 3.08-3.79 5.985-6.45 6.55-2.71.57-5.735-1.45-8.66-3.405-2.395-1.6-5.11-3.41-6.6-2.93-1.525.495-2.67 3.585-3.675 6.315-1.265 3.425-2.46 6.665-4.955 7.775-2.52 1.125-5.895-.22-9.16-1.515-2.685-1.065-5.725-2.275-7.09-1.485-1.38.8-1.85 4.05-2.27 6.925-.5 3.465-1.02 7.045-3.235 8.655-2.225 1.62-5.8 1.01-9.255.42-2.85-.485-6.085-1.035-7.26.025-1.18 1.065-.97 4.34-.78 7.225.225 3.5.46 7.115-1.38 9.155-1.835 2.04-5.455 2.18-8.955 2.32-2.895.115-6.18.245-7.115 1.53-.93 1.28-.045 4.435.735 7.215.945 3.38 1.925 6.875.545 9.26-1.37 2.365-4.875 3.255-8.265 4.12-2.815.715-6.005 1.525-6.655 2.985-.64 1.435.88 4.33 2.22 6.885 1.635 3.115 3.325 6.335 2.47 8.96-.84 2.59-3.93 4.12-7.2 5.735-2.61 1.29-5.57 2.755-5.9 4.33-.325 1.525 1.76 4.03 3.6 6.24 2.255 2.71 4.585 5.515 4.3 8.275-.28 2.7-2.975 4.83-5.835 7.085-2.29 1.81-4.89 3.865-4.89 5.49s2.595 3.68 4.89 5.49c2.855 2.255 5.55 4.39 5.835 7.085.285 2.76-2.045 5.565-4.3 8.275-1.84 2.21-3.925 4.715-3.6 6.24.335 1.575 3.29 3.04 5.9 4.33 3.27 1.62 6.36 3.145 7.2 5.735.855 2.625-.835 5.845-2.47 8.96-1.34 2.555-2.86 5.45-2.22 6.885.65 1.46 3.84 2.27 6.655 2.985 3.39.86 6.895 1.75 8.26 4.12 1.38 2.385.4 5.88-.545 9.26-.78 2.785-1.665 5.94-.735 7.215.935 1.285 4.22 1.415 7.115 1.53 3.5.14 7.12.28 8.955 2.32 1.84 2.04 1.605 5.66 1.38 9.155-.185 2.89-.4 6.165.78 7.225 1.175 1.06 4.41.51 7.26.025 3.46-.59 7.035-1.2 9.255.42 2.215 1.61 2.735 5.195 3.235 8.655.415 2.87.885 6.125 2.27 6.925 1.365.79 4.405-.42 7.09-1.485 3.265-1.295 6.64-2.635 9.16-1.515 2.495 1.11 3.69 4.35 4.955 7.775 1.01 2.73 2.15 5.82 3.675 6.315 1.49.485 4.205-1.33 6.6-2.93 2.93-1.955 5.955-3.975 8.665-3.405 2.66.56 4.5 3.47 6.45 6.55 1.56 2.465 3.33 5.255 4.94 5.425 1.545.16 3.815-2.17 5.815-4.225 2.465-2.53 5.015-5.145 7.8-5.145h.005Z"/><path fill="#fff" d="M196.48 260.29c53.033 0 96.025-42.992 96.025-96.025 0-53.033-42.992-96.025-96.025-96.025-53.033 0-96.025 42.992-96.025 96.025 0 53.033 42.992 96.025 96.025 96.025Z"/><path fill="#222" d="M193.12 258.315c-53.715 0-97.415-43.7-97.415-97.415s43.7-97.415 97.415-97.415 97.415 43.7 97.415 97.415-43.7 97.415-97.415 97.415Zm0-192.045c-52.18 0-94.63 42.45-94.63 94.63 0 52.18 42.45 94.63 94.63 94.63 52.18 0 94.63-42.45 94.63-94.63 0-52.18-42.45-94.63-94.63-94.63Z"/><path fill="#222" d="M193.12 250.185c-49.23 0-89.28-40.05-89.28-89.28 0-49.23 40.05-89.28 89.28-89.28 49.23 0 89.28 40.05 89.28 89.28 0 49.23-40.05 89.28-89.28 89.28Zm0-175.78c-47.695 0-86.5 38.805-86.5 86.5s38.805 86.5 86.5 86.5 86.5-38.805 86.5-86.5-38.805-86.5-86.5-86.5Z"/><path fill="#fff" d="M306.03 114.99H80.21c-10.364 0-18.765 8.402-18.765 18.765v62.32c0 10.364 8.401 18.765 18.765 18.765h225.82c10.364 0 18.765-8.401 18.765-18.765v-62.32c0-10.363-8.401-18.765-18.765-18.765Z"/><path fill="#222" d="M306.03 216.23H80.215c-11.115 0-20.155-9.04-20.155-20.155v-62.32c0-11.115 9.045-20.155 20.155-20.155H306.03c11.115 0 20.155 9.04 20.155 20.155v62.32c0 11.115-9.04 20.155-20.155 20.155ZM80.215 116.38c-9.58 0-17.375 7.795-17.375 17.375v62.32c0 9.58 7.795 17.375 17.375 17.375H306.03c9.58 0 17.375-7.795 17.375-17.375v-62.32c0-9.58-7.795-17.375-17.375-17.375H80.215Z"/><path fill="#444" d="M310.97 118.295H82.305c-10.424 0-18.875 8.451-18.875 18.875v62.1c0 10.424 8.45 18.875 18.875 18.875H310.97c10.424 0 18.875-8.451 18.875-18.875v-62.1c0-10.424-8.451-18.875-18.875-18.875Z"/><path fill="#FF3158" d="M306.245 114.645H78c-10.284 0-18.62 8.336-18.62 18.62v60.29c0 10.284 8.336 18.62 18.62 18.62h228.245c10.283 0 18.62-8.336 18.62-18.62v-60.29c0-10.284-8.337-18.62-18.62-18.62Z"/><path fill="#222" d="M306.03 216.23H80.215c-11.115 0-20.155-9.04-20.155-20.155v-62.32c0-11.115 9.045-20.155 20.155-20.155H306.03c11.115 0 20.155 9.04 20.155 20.155v62.32c0 11.115-9.04 20.155-20.155 20.155ZM80.215 116.38c-9.58 0-17.375 7.795-17.375 17.375v62.32c0 9.58 7.795 17.375 17.375 17.375H306.03c9.58 0 17.375-7.795 17.375-17.375v-62.32c0-9.58-7.795-17.375-17.375-17.375H80.215Z"/><path fill="#fff" d="m106.765 125.755 9.23 18.7c.25.505.73.855 1.29.935l20.635 3c1.405.205 1.965 1.93.95 2.915l-14.93 14.555c-.405.395-.585.96-.49 1.515l3.525 20.55c.24 1.395-1.225 2.46-2.48 1.805l-18.455-9.705c-.5-.26-1.095-.26-1.59 0l-18.455 9.705c-1.255.66-2.72-.405-2.48-1.805l3.525-20.55a1.722 1.722 0 0 0-.49-1.515l-14.93-14.555c-1.015-.99-.455-2.715.95-2.915l20.635-3c.555-.08 1.04-.43 1.29-.935l9.23-18.7c.625-1.27 2.44-1.27 3.065 0h-.025ZM192.875 125.755l9.23 18.7c.25.505.73.855 1.29.935l20.635 3c1.405.205 1.965 1.93.95 2.915l-14.93 14.555c-.405.395-.585.96-.49 1.515l3.525 20.55c.24 1.395-1.225 2.46-2.48 1.805l-18.455-9.705c-.5-.26-1.095-.26-1.59 0l-18.455 9.705c-1.255.66-2.72-.405-2.48-1.805l3.525-20.55a1.722 1.722 0 0 0-.49-1.515l-14.93-14.555c-1.015-.99-.455-2.715.95-2.915l20.635-3c.555-.08 1.04-.43 1.29-.935l9.23-18.7c.625-1.27 2.44-1.27 3.065 0h-.025ZM278.985 125.755l9.23 18.7c.25.505.73.855 1.29.935l20.635 3c1.405.205 1.965 1.93.95 2.915l-14.93 14.555c-.405.395-.585.96-.49 1.515l3.525 20.55c.24 1.395-1.225 2.46-2.48 1.805l-18.455-9.705c-.5-.26-1.095-.26-1.59 0l-18.455 9.705c-1.255.66-2.72-.405-2.48-1.805l3.525-20.55a1.722 1.722 0 0 0-.49-1.515l-14.93-14.555c-1.015-.99-.455-2.715.95-2.915l20.635-3c.555-.08 1.04-.43 1.29-.935l9.23-18.7c.625-1.27 2.44-1.27 3.065 0h-.025Z"/><path fill="#F5F4F3" d="m110.325 129.315 9.23 18.7c.25.505.73.855 1.29.935l20.635 3c1.405.205 1.965 1.93.95 2.915L127.5 169.42c-.405.395-.585.96-.49 1.515l3.525 20.55c.24 1.395-1.225 2.46-2.48 1.805l-18.455-9.705c-.5-.26-1.095-.26-1.59 0l-18.455 9.705c-1.255.66-2.72-.405-2.48-1.805l3.525-20.55a1.722 1.722 0 0 0-.49-1.515l-14.93-14.555c-1.015-.99-.455-2.715.95-2.915l20.635-3c.555-.08 1.04-.43 1.29-.935l9.23-18.7c.625-1.27 2.44-1.27 3.065 0h-.025Z"/><path fill="#222" d="M125.285 191.32c-.495 0-.99-.12-1.445-.36l-18.455-9.705a.309.309 0 0 0-.295 0l-18.455 9.705a3.074 3.074 0 0 1-3.265-.235 3.09 3.09 0 0 1-1.235-3.035l3.525-20.55a.304.304 0 0 0-.09-.28l-14.93-14.555a3.092 3.092 0 0 1-.785-3.18 3.076 3.076 0 0 1 2.505-2.11l20.635-3a.313.313 0 0 0 .24-.175l9.23-18.7a3.082 3.082 0 0 1 2.78-1.73c1.19 0 2.255.66 2.78 1.73l9.23 18.7c.045.095.135.16.24.175l20.635 3c1.175.17 2.135.98 2.505 2.11a3.092 3.092 0 0 1-.785 3.18l-14.93 14.555a.318.318 0 0 0-.09.285l3.525 20.55c.2 1.17-.27 2.335-1.235 3.035a3.093 3.093 0 0 1-1.82.595l-.015-.005Zm-20.05-12.88c.495 0 .99.12 1.445.355l18.455 9.705c.115.06.23.055.335-.025a.29.29 0 0 0 .125-.31l-3.525-20.55a3.099 3.099 0 0 1 .89-2.745l14.93-14.555c.095-.09.12-.2.08-.325a.288.288 0 0 0-.26-.215l-20.635-3a3.093 3.093 0 0 1-2.335-1.695l-9.23-18.7c-.115-.235-.455-.235-.575 0l-9.23 18.7a3.093 3.093 0 0 1-2.335 1.695l-20.635 3a.306.306 0 0 0-.26.215.294.294 0 0 0 .08.325l14.93 14.555c.73.715 1.065 1.74.89 2.745l-3.525 20.55c-.02.13.02.235.125.31.105.08.22.085.335.025l18.455-9.705c.45-.235.95-.355 1.445-.355h.025Z"/><path fill="#F5F4F3" d="m196.435 129.315 9.23 18.7c.25.505.73.855 1.29.935l20.635 3c1.405.205 1.965 1.93.95 2.915l-14.93 14.555c-.405.395-.585.96-.49 1.515l3.525 20.55c.24 1.395-1.225 2.46-2.48 1.805l-18.455-9.705c-.5-.26-1.095-.26-1.59 0l-18.455 9.705c-1.255.66-2.72-.405-2.48-1.805l3.525-20.55a1.722 1.722 0 0 0-.49-1.515l-14.93-14.555c-1.015-.99-.455-2.715.95-2.915l20.635-3c.555-.08 1.04-.43 1.29-.935l9.23-18.7c.625-1.27 2.44-1.27 3.065 0h-.025Z"/><path fill="#222" d="M211.39 191.32c-.495 0-.99-.12-1.445-.36l-18.455-9.705a.309.309 0 0 0-.295 0l-18.455 9.705a3.075 3.075 0 0 1-3.265-.235 3.09 3.09 0 0 1-1.235-3.035l3.525-20.55a.304.304 0 0 0-.09-.28l-14.93-14.555a3.092 3.092 0 0 1-.785-3.18 3.076 3.076 0 0 1 2.505-2.11l20.635-3a.313.313 0 0 0 .24-.175l9.23-18.7a3.082 3.082 0 0 1 2.78-1.73c1.19 0 2.255.66 2.78 1.73l9.23 18.7c.045.095.135.16.24.175l20.635 3c1.175.17 2.135.98 2.505 2.11a3.092 3.092 0 0 1-.785 3.18l-14.93 14.555a.312.312 0 0 0-.09.28l3.525 20.55c.2 1.17-.27 2.335-1.235 3.035a3.093 3.093 0 0 1-1.82.595h-.015Zm-20.05-12.88c.495 0 .99.12 1.445.355l18.455 9.705c.115.06.23.055.335-.025a.29.29 0 0 0 .125-.31l-3.525-20.55a3.099 3.099 0 0 1 .89-2.745l14.93-14.555c.095-.09.12-.2.08-.325a.288.288 0 0 0-.26-.215l-20.635-3a3.093 3.093 0 0 1-2.335-1.695l-9.23-18.7c-.115-.235-.455-.235-.575 0l-9.23 18.7a3.093 3.093 0 0 1-2.335 1.695l-20.635 3a.306.306 0 0 0-.26.215.294.294 0 0 0 .08.325l14.93 14.555c.73.71 1.065 1.74.89 2.745l-3.525 20.55c-.02.13.02.235.125.31.105.075.22.085.335.025l18.455-9.705c.45-.235.945-.355 1.445-.355h.025Z"/><path fill="#F5F4F3" d="m282.545 129.315 9.23 18.7c.25.505.73.855 1.29.935l20.635 3c1.405.205 1.965 1.93.95 2.915l-14.93 14.555c-.405.395-.585.96-.49 1.515l3.525 20.55c.24 1.395-1.225 2.46-2.48 1.805l-18.455-9.705c-.5-.26-1.095-.26-1.59 0l-18.455 9.705c-1.255.66-2.72-.405-2.48-1.805l3.525-20.55a1.722 1.722 0 0 0-.49-1.515l-14.93-14.555c-1.015-.99-.455-2.715.95-2.915l20.635-3c.555-.08 1.04-.43 1.29-.935l9.23-18.7c.625-1.27 2.44-1.27 3.065 0h-.025Z"/><path fill="#222" d="M297.5 191.32c-.495 0-.99-.12-1.445-.36l-18.455-9.705a.309.309 0 0 0-.295 0l-18.455 9.705a3.075 3.075 0 0 1-3.265-.235 3.09 3.09 0 0 1-1.235-3.035l3.525-20.55a.304.304 0 0 0-.09-.28l-14.93-14.555a3.092 3.092 0 0 1-.785-3.18 3.076 3.076 0 0 1 2.505-2.11l20.635-3a.313.313 0 0 0 .24-.175l9.23-18.7a3.082 3.082 0 0 1 2.78-1.73c1.19 0 2.255.66 2.78 1.73l9.23 18.7c.045.095.135.16.24.175l20.635 3c1.175.17 2.135.98 2.505 2.11a3.092 3.092 0 0 1-.785 3.18l-14.93 14.555a.312.312 0 0 0-.09.28l3.525 20.55c.2 1.17-.27 2.335-1.235 3.035a3.093 3.093 0 0 1-1.82.595h-.015Zm-20.05-12.88c.495 0 .99.12 1.445.355l18.455 9.705c.115.06.23.055.335-.025a.29.29 0 0 0 .125-.31l-3.525-20.55a3.099 3.099 0 0 1 .89-2.745l14.93-14.555c.095-.09.12-.2.08-.325a.288.288 0 0 0-.26-.215l-20.635-3a3.093 3.093 0 0 1-2.335-1.695l-9.23-18.7c-.115-.235-.455-.235-.575 0l-9.23 18.7a3.093 3.093 0 0 1-2.335 1.695l-20.635 3a.306.306 0 0 0-.26.215.294.294 0 0 0 .08.325l14.93 14.555c.73.715 1.065 1.74.89 2.745l-3.525 20.55c-.02.13.02.235.125.31.105.075.22.085.335.025l18.455-9.705c.45-.235.95-.355 1.445-.355h.025Z"/></svg>