<svg xmlns="http://www.w3.org/2000/svg" width="400" height="400" fill="none" viewBox="0 0 400 400"><path fill="#DADADA" d="M56.015 245.58 184.9 319.99a29.52 29.52 0 0 0 29.525 0l128.885-74.41"/><path fill="#fff" d="M343.215 245.58 214.33 171.17a29.52 29.52 0 0 0-29.525 0L55.92 245.58"/><path fill="#fff" d="M198.955 42.455v123.74c-5.09 0-10.18 1.315-14.755 3.96L55.31 244.57V120.6l129.96-75.045a27.485 27.485 0 0 1 13.69-3.675v.575h-.005Z"/><path fill="#222" d="M181.66 257.015c-.48 0-.945-.25-1.2-.69a1.388 1.388 0 0 1 .505-1.89l13.33-7.695a1.388 1.388 0 0 1 1.89.505c.38.66.155 1.505-.505 1.89l-13.33 7.695c-.22.125-.455.185-.69.185Z"/><path fill="#FF3158" d="M198.84 41.88c4.72 0 9.44 1.23 13.69 3.675L342.49 120.6v123.97l-128.895-74.41a29.443 29.443 0 0 0-14.755-3.96V41.88Z"/><path fill="#222" d="M342.7 245.94c-.235 0-.47-.06-.69-.185l-128.885-74.41c-8.68-5.01-19.465-5.01-28.14 0l-80.19 46.3c-.66.38-1.505.155-1.89-.505a1.388 1.388 0 0 1 .505-1.89l80.19-46.3c9.53-5.505 21.375-5.505 30.905 0l128.885 74.41c.66.38.89 1.225.505 1.89-.255.445-.72.69-1.2.69h.005Z"/><path fill="#444" d="m325.745 268.12-111.93 64.625a29.52 29.52 0 0 1-29.525 0L72.36 268.12l-16.955 9.79 128.885 74.41a29.52 29.52 0 0 0 29.525 0L342.7 277.91l-16.955-9.79Z"/><path fill="#DADADA" d="M213.814 318.97a29.52 29.52 0 0 1-29.525 0L55.404 244.555v13.8l128.885 74.41a29.52 29.52 0 0 0 29.525 0l128.885-74.41v-13.8l-128.885 74.41v.005Z"/><path fill="#222" d="M199.049 338.09a30.869 30.869 0 0 1-15.455-4.13l-128.88-74.41a1.375 1.375 0 0 1-.69-1.195v-13.8c0-.495.265-.95.69-1.195.43-.245.955-.245 1.385 0l128.885 74.41c8.68 5.01 19.465 5.01 28.14 0l128.885-74.41c.43-.245.955-.245 1.385 0 .43.245.69.705.69 1.195v13.8c0 .495-.265.95-.69 1.195l-128.885 74.41a30.92 30.92 0 0 1-15.455 4.13h-.005ZM56.784 257.555 184.98 331.57c8.68 5.01 19.465 5.01 28.145 0l128.195-74.015V246.95l-126.81 73.215c-9.53 5.505-21.375 5.505-30.91 0L56.784 246.95v10.605Z"/><path fill="#222" d="M55.405 246.065a1.38 1.38 0 0 1-1.38-1.38v-124.1c0-.495.265-.95.69-1.195l129.96-75.035c8.87-5.12 19.885-5.12 28.755 0l129.96 75.035c.43.245.69.705.69 1.195v123.97a1.38 1.38 0 1 1-2.76 0v-123.17L212.045 46.75c-8.015-4.63-17.975-4.63-25.99 0l-129.27 74.635v123.3c0 .765-.62 1.38-1.38 1.38Z"/><path fill="#222" d="M199.05 166.59a1.38 1.38 0 0 1-1.38-1.38V42.445a1.38 1.38 0 1 1 2.76 0v122.76c0 .765-.62 1.38-1.38 1.38v.005ZM278.925 282.28c-.235 0-.47-.06-.69-.185l-143.02-82.57a1.38 1.38 0 0 1-.505-1.89 1.38 1.38 0 0 1 1.89-.505l143.02 82.57c.66.38.89 1.225.505 1.89-.255.445-.72.69-1.2.69ZM252.165 297.755c-.235 0-.47-.06-.69-.185l-70.54-40.725a1.38 1.38 0 0 1-.505-1.89 1.38 1.38 0 0 1 1.89-.505l70.54 40.725c.66.38.89 1.225.505 1.89-.255.445-.72.69-1.2.69ZM258.055 254.77c-.235 0-.47-.06-.69-.185L148.91 191.97a1.38 1.38 0 0 1-.505-1.89 1.38 1.38 0 0 1 1.89-.505L258.75 252.19c.66.38.89 1.225.505 1.89-.255.445-.72.69-1.2.69Z"/><path fill="#222" d="M195.63 234.12c-.48 0-.945-.25-1.2-.69a1.388 1.388 0 0 1 .505-1.89l13.33-7.695a1.388 1.388 0 0 1 1.89.505c.38.66.155 1.505-.505 1.89l-13.33 7.695c-.22.125-.455.185-.69.185ZM265.745 290.135c-.235 0-.47-.06-.69-.185L121.71 207.19a1.38 1.38 0 0 1-.505-1.89 1.38 1.38 0 0 1 1.89-.505l143.345 82.76c.66.38.89 1.225.505 1.89-.255.445-.72.69-1.2.69Z"/><path fill="#222" d="M221.04 264.32c-.48 0-.945-.25-1.2-.69a1.388 1.388 0 0 1 .505-1.89l13.33-7.695a1.388 1.388 0 0 1 1.89.505c.38.66.155 1.505-.505 1.89l-13.33 7.695c-.22.125-.455.185-.69.185ZM244.7 262.49c-.48 0-.945-.25-1.2-.69a1.388 1.388 0 0 1 .505-1.89l13.33-7.695a1.388 1.388 0 0 1 1.89.505c.38.66.155 1.505-.505 1.89l-13.33 7.695c-.22.125-.455.185-.69.185Z"/><path fill="#F5F4F3" d="m55.535 199.72 9.575-5.815 85.875 49.5v11.34l21.455 12.445v11.205l7.305 4.215v11.205l7.02 4.095v11.2l-9.5 5.775-121.73-70.2V199.72Z"/><path fill="#FF3158" d="m177.265 314.885-28.645-16.52V287.43l.06-.085 7.06 4.085 21.525 12.455v11ZM141.48 271.79v11.265l-.045.085-7.1-4.105-7.2-4.165.04-.085V263.52l7.12 4.125 7.185 4.145ZM162.965 272.96v11.225l-7.165-4.125-7.22-4.185.04-.06V264.73l.04-.06 14.305 8.27v.02Z"/><path fill="#FF3158" d="m148.66 264.67-.04.06v11.085l-.04.06-7.1-4.085-7.185-4.145.02-.02V256.4l7.165 4.125 7.18 4.145Z"/><path fill="#FF3158" d="m127.175 241.01 14.305 8.25v11.265l-7.165-4.125-14.3-8.27-14.345-8.27-7.145-4.125v-11.1l.125-.065 14.2 8.19 14.325 8.25ZM105.67 251.105l7.18 4.145v11.265l-.04.065-7.14-4.125-7.165-4.145.02-.065V246.98l7.145 4.125Z"/><path fill="#FF3158" d="m105.67 262.455 7.14 4.125 7.245 4.185-.065.105v10.895l-.04.06-28.605-16.475v-11.185l7.16 4.145 7.165 4.145ZM55.535 233.435l14.325 8.295 7.245 4.185-.085.12v10.9l-.06.1-21.425-12.35v-11.25Z"/><path fill="#FF3158" d="M84.205 238.71v11.265l-.02.045-7.08-4.105-7.245-4.185.02-.025V230.46l14.325 8.25Z"/><path fill="#FF3158" d="m69.8 219.135 14.34 8.29 7.205 4.165v11.225l-.02.02-7.12-4.125-14.325-8.25v-.02l-7.185-4.145V215.09l.025-.04 7.08 4.085Z"/><path fill="#FF3158" d="M69.88 207.99v11.02l-.08.125-7.08-4.085-7.185-4.145V199.72l14.345 8.27Z"/><path fill="#222" d="M162.815 274.12c-.235 0-.47-.06-.69-.185L54.715 211.9a1.38 1.38 0 0 1-.505-1.89 1.378 1.378 0 0 1 1.89-.505l107.41 62.035c.66.38.89 1.225.505 1.89-.255.445-.72.69-1.2.69ZM170.115 300.76a1.38 1.38 0 0 1-1.38-1.38v-10.39l-114.02-65.83a1.38 1.38 0 0 1-.505-1.89 1.38 1.38 0 0 1 1.89-.505l114.71 66.225c.43.245.69.705.69 1.195v11.19c0 .765-.62 1.38-1.38 1.38l-.005.005ZM177.13 316.055c-.235 0-.47-.06-.69-.185L54.715 245.68a1.38 1.38 0 0 1-.505-1.89 1.38 1.38 0 0 1 1.89-.505l121.725 70.195c.66.38.89 1.225.505 1.89-.255.445-.72.69-1.2.69v-.005Z"/><path fill="#222" d="M55.405 245.865a1.38 1.38 0 0 1-1.38-1.38V199.51c0-.495.265-.95.69-1.195l9.705-5.605a1.388 1.388 0 0 1 1.89.505c.38.66.155 1.505-.505 1.89l-9.015 5.205v44.175c0 .765-.62 1.38-1.38 1.38h-.005ZM62.565 249.94a1.38 1.38 0 0 1-1.38-1.38v-10.99a1.38 1.38 0 1 1 2.76 0v10.99c0 .765-.62 1.38-1.38 1.38Z"/><path fill="#222" d="M62.565 227.52a1.38 1.38 0 0 1-1.38-1.38v-11.255a1.38 1.38 0 1 1 2.76 0v11.255c0 .765-.62 1.38-1.38 1.38ZM76.885 258.105a1.38 1.38 0 0 1-1.38-1.38V245.84a1.38 1.38 0 1 1 2.76 0v10.885c0 .765-.62 1.38-1.38 1.38ZM76.885 235.45a1.38 1.38 0 0 1-1.38-1.38v-10.91a1.38 1.38 0 1 1 2.76 0v10.91c0 .765-.62 1.38-1.38 1.38ZM91.205 266.52a1.38 1.38 0 0 1-1.38-1.38v-11.19a1.38 1.38 0 1 1 2.76 0v11.19c0 .765-.62 1.38-1.38 1.38ZM91.205 243.99a1.38 1.38 0 0 1-1.38-1.38v-11.22a1.38 1.38 0 1 1 2.76 0v11.22c0 .765-.62 1.38-1.38 1.38ZM119.845 282.95a1.38 1.38 0 0 1-1.38-1.38v-10.905a1.38 1.38 0 1 1 2.76 0v10.905c0 .765-.62 1.38-1.38 1.38ZM119.845 260.53a1.38 1.38 0 0 1-1.38-1.38v-11.195a1.38 1.38 0 1 1 2.76 0v11.195c0 .765-.62 1.38-1.38 1.38ZM134.17 291.235a1.38 1.38 0 0 1-1.38-1.38v-11a1.38 1.38 0 1 1 2.76 0v11c0 .765-.62 1.38-1.38 1.38ZM134.17 268.805a1.38 1.38 0 0 1-1.38-1.38v-11.22a1.38 1.38 0 1 1 2.76 0v11.22c0 .765-.62 1.38-1.38 1.38ZM148.49 299.625a1.38 1.38 0 0 1-1.38-1.38v-11.03a1.38 1.38 0 1 1 2.76 0v11.03c0 .765-.62 1.38-1.38 1.38ZM148.49 276.995a1.38 1.38 0 0 1-1.38-1.38v-11.08a1.38 1.38 0 1 1 2.76 0v11.08c0 .765-.62 1.38-1.38 1.38ZM162.815 307.575a1.38 1.38 0 0 1-1.38-1.38v-10.76a1.38 1.38 0 1 1 2.76 0v10.76c0 .765-.62 1.38-1.38 1.38ZM162.815 285.335a1.38 1.38 0 0 1-1.38-1.38V272.82a1.38 1.38 0 1 1 2.76 0v11.135c0 .765-.62 1.38-1.38 1.38ZM105.525 274.58a1.38 1.38 0 0 1-1.38-1.38v-10.98a1.38 1.38 0 1 1 2.76 0v10.98c0 .765-.62 1.38-1.38 1.38ZM105.525 252.34a1.38 1.38 0 0 1-1.38-1.38v-11.315a1.38 1.38 0 1 1 2.76 0v11.315c0 .765-.62 1.38-1.38 1.38ZM69.75 242.885a1.38 1.38 0 0 1-1.38-1.38v-11.26a1.38 1.38 0 1 1 2.76 0v11.26c0 .765-.62 1.38-1.38 1.38ZM84.07 251.15a1.38 1.38 0 0 1-1.38-1.38v-11.26a1.38 1.38 0 1 1 2.76 0v11.26c0 .765-.62 1.38-1.38 1.38ZM98.39 259.42a1.38 1.38 0 0 1-1.38-1.38v-11.26a1.38 1.38 0 1 1 2.76 0v11.26c0 .765-.62 1.38-1.38 1.38ZM127.03 275.955a1.38 1.38 0 0 1-1.38-1.38v-11.26a1.38 1.38 0 1 1 2.76 0v11.26c0 .765-.62 1.38-1.38 1.38ZM127.03 253.235a1.38 1.38 0 0 1-1.38-1.38V240.76c0-.495.265-.95.69-1.195l9.285-5.36a1.388 1.388 0 0 1 1.89.505c.38.66.155 1.505-.505 1.89l-8.59 4.96v10.295c0 .765-.62 1.38-1.38 1.38h-.01ZM141.35 284.225a1.38 1.38 0 0 1-1.38-1.38v-11.26a1.38 1.38 0 1 1 2.76 0v11.26c0 .765-.62 1.38-1.38 1.38ZM155.67 292.49a1.38 1.38 0 0 1-1.38-1.38v-11.26a1.38 1.38 0 1 1 2.76 0v11.26c0 .765-.62 1.38-1.38 1.38ZM112.71 244.96a1.38 1.38 0 0 1-1.38-1.38v-11.1c0-.495.265-.95.69-1.195l9.23-5.33a1.388 1.388 0 0 1 1.89.505c.38.66.155 1.505-.505 1.89l-8.54 4.93v10.3c0 .765-.62 1.38-1.38 1.38h-.005ZM112.71 267.69a1.38 1.38 0 0 1-1.38-1.38v-11.26a1.38 1.38 0 1 1 2.76 0v11.26c0 .765-.62 1.38-1.38 1.38Z"/><path fill="#222" d="M141.34 250.435c-.235 0-.47-.06-.69-.185l-85.935-49.545a1.38 1.38 0 0 1-.505-1.89 1.38 1.38 0 0 1 1.89-.505l85.935 49.545c.66.38.89 1.225.505 1.89-.255.445-.72.69-1.2.69ZM177.13 316.055a1.38 1.38 0 0 1-1.38-1.38V304.47L54.71 234.415a1.386 1.386 0 0 1-.505-1.89 1.388 1.388 0 0 1 1.89-.505l121.725 70.455c.425.245.69.705.69 1.195v11c0 .765-.62 1.38-1.38 1.38v.005ZM150.98 244.79c-.235 0-.47-.06-.69-.185l-85.875-49.5a1.38 1.38 0 0 1-.505-1.89 1.38 1.38 0 0 1 1.89-.505l85.875 49.5c.66.38.89 1.225.505 1.89-.255.445-.72.69-1.2.69ZM162.815 285.335a1.375 1.375 0 0 1-1.38-1.38V272.75c0-.495.265-.95.69-1.195l9.625-5.56a1.397 1.397 0 0 1 1.385 0c.43.245.69.705.69 1.195v11.205c0 .495-.265.95-.69 1.195l-9.625 5.56a1.374 1.374 0 0 1-.69.185h-.005Zm1.38-11.785v8.01l6.86-3.965v-8.01l-6.86 3.965Z"/><path fill="#222" d="M179.745 283.995c-.235 0-.47-.06-.69-.185l-6.905-3.985a1.38 1.38 0 0 1-.505-1.89 1.38 1.38 0 0 1 1.89-.505l6.905 3.985c.66.38.89 1.225.505 1.89-.255.445-.72.69-1.2.69Z"/><path fill="#222" d="M170.115 300.76a1.375 1.375 0 0 1-1.38-1.38v-11.205c0-.495.265-.95.69-1.195l9.635-5.56c.43-.245.955-.245 1.385 0 .43.245.69.705.69 1.195v11.205c0 .495-.265.95-.69 1.195l-9.635 5.56a1.374 1.374 0 0 1-.69.185h-.005Zm1.38-11.785v8.01l6.87-3.965v-8.01l-6.87 3.965Z"/><path fill="#222" d="M186.76 299.29c-.235 0-.47-.06-.69-.185l-6.905-3.985a1.38 1.38 0 0 1-.505-1.89 1.38 1.38 0 0 1 1.89-.505l6.905 3.985c.66.38.89 1.225.505 1.89-.255.445-.72.69-1.2.69Z"/><path fill="#222" d="M177.13 316.055a1.375 1.375 0 0 1-1.38-1.38V303.47c0-.495.265-.95.69-1.195l9.635-5.56c.43-.245.955-.245 1.385 0 .43.245.69.705.69 1.195v11.205c0 .495-.265.95-.69 1.195l-9.635 5.56a1.374 1.374 0 0 1-.69.185h-.005Zm1.38-11.785v8.01l6.87-3.965v-8.01l-6.87 3.965ZM141.35 261.69a1.375 1.375 0 0 1-1.38-1.38v-11.34c0-.495.265-.95.69-1.195l9.635-5.56c.43-.245.955-.245 1.385 0 .43.245.69.705.69 1.195v11.34c0 .495-.265.95-.69 1.195l-9.635 5.56a1.374 1.374 0 0 1-.69.185h-.005Zm1.38-11.925v8.15l6.87-3.965v-8.15l-6.87 3.965Z"/><path fill="#222" d="M172.44 268.575c-.235 0-.47-.06-.69-.185l-21.605-12.475a1.38 1.38 0 0 1-.505-1.89 1.378 1.378 0 0 1 1.89-.505l21.605 12.475c.66.38.89 1.225.505 1.89-.255.445-.72.69-1.2.69ZM98.39 236.9a1.38 1.38 0 0 1-1.38-1.38v-11.1c0-.495.265-.95.69-1.195l9.23-5.33a1.388 1.388 0 0 1 1.89.505c.38.66.155 1.505-.505 1.89l-8.54 4.93v10.3c0 .765-.62 1.38-1.38 1.38h-.005ZM84.07 228.5a1.38 1.38 0 0 1-1.38-1.38v-11.1c0-.495.265-.95.69-1.195l9.23-5.33a1.388 1.388 0 0 1 1.89.505c.38.66.155 1.505-.505 1.89l-8.54 4.93v10.3c0 .765-.62 1.38-1.38 1.38h-.005ZM69.75 220.19a1.38 1.38 0 0 1-1.38-1.38v-11.1c0-.495.265-.95.69-1.195l9.23-5.33a1.388 1.388 0 0 1 1.89.505c.38.66.155 1.505-.505 1.89l-8.54 4.93v10.3c0 .765-.62 1.38-1.38 1.38h-.005Z"/><path fill="#444" d="M305.63 260.02v5.805l9.385-5.46v-5.595l-9.385 5.25Z"/><path fill="#222" d="M305.631 267.205a1.382 1.382 0 0 1-1.385-1.385v-5.8c0-.5.27-.96.705-1.205l9.385-5.255c.43-.24.95-.235 1.375.015.425.25.685.7.685 1.195v5.595c0 .49-.26.945-.685 1.195l-9.385 5.46c-.215.125-.455.19-.695.19v-.005Zm1.38-6.375v2.585l6.62-3.85v-2.44l-6.62 3.705Z"/><path fill="#444" d="m172.051 171.985-9.385 5.46 143.03 82.575 9.32-5.455-142.965-82.58Z"/><path fill="#222" d="M305.696 261.405c-.24 0-.475-.06-.69-.185l-143.025-82.575a1.38 1.38 0 0 1-.69-1.195c0-.495.26-.95.685-1.195l9.385-5.46c.43-.25.96-.25 1.385 0l142.965 82.575c.425.245.69.7.69 1.195 0 .495-.26.95-.685 1.195l-9.32 5.46c-.215.125-.455.19-.7.19v-.005Zm-140.27-83.965 140.265 80.98 6.575-3.85-140.21-80.985-6.63 3.855Z"/><path fill="#444" d="M162.666 177.445v5.8l143.03 82.58v-5.805l-143.03-82.575Z"/><path fill="#222" d="M305.696 267.205c-.24 0-.475-.06-.69-.185l-143.025-82.575a1.375 1.375 0 0 1-.69-1.195v-5.8c0-.495.265-.95.69-1.195.43-.245.955-.245 1.385 0l143.025 82.575c.43.245.69.705.69 1.195v5.8a1.38 1.38 0 0 1-1.38 1.38h-.005ZM164.051 182.45l140.26 80.98v-2.61l-140.26-80.98v2.61Z"/><path fill="#444" d="m309.786 132.975-9.395 5.335 5.23 2.955 9.395-5.335-5.23-2.955Z"/><path fill="#222" d="M305.621 142.65c-.235 0-.47-.06-.68-.18l-5.23-2.955a1.376 1.376 0 0 1-.7-1.2c0-.5.265-.96.7-1.205l9.395-5.335c.425-.24.94-.24 1.365 0l5.23 2.955c.435.245.7.705.7 1.2 0 .5-.265.96-.7 1.205l-9.395 5.335c-.21.12-.445.18-.685.18Zm-2.425-4.345 2.425 1.37 6.59-3.745-2.425-1.37-6.59 3.745Z"/><path fill="#444" d="M315.016 254.77V135.93l-9.395 5.335V260.09l9.395-5.32Z"/><path fill="#222" d="M305.621 261.47a1.384 1.384 0 0 1-1.38-1.385V141.26c0-.495.265-.955.7-1.2l9.395-5.335c.43-.245.955-.24 1.38.005.425.25.685.705.685 1.195V254.76c0 .5-.27.955-.7 1.205l-9.395 5.325c-.21.12-.445.18-.68.18h-.005Zm1.385-119.4v115.645l6.63-3.755V138.305l-6.63 3.765Z"/><path fill="#444" d="M300.391 138.31v118.62l5.23 2.955v-118.62l-5.23-2.955Z"/><path fill="#222" d="M305.621 261.27c-.235 0-.47-.06-.68-.18l-5.23-2.955a1.378 1.378 0 0 1-.7-1.205V138.31c0-.49.26-.945.685-1.195.425-.25.95-.25 1.375-.01l5.23 2.955c.435.245.7.705.7 1.205v118.62a1.387 1.387 0 0 1-1.38 1.385Zm-3.85-5.145 2.465 1.395V142.075l-2.465-1.395v115.445Z"/><path fill="#444" d="m263.876 106.395-9.395 5.335 5.23 2.96 9.395-5.335-5.23-2.96Z"/><path fill="#222" d="M259.711 116.07c-.235 0-.47-.06-.68-.18l-5.23-2.955a1.376 1.376 0 0 1-.7-1.2c0-.5.265-.96.7-1.205l9.395-5.335c.425-.24.94-.24 1.365 0l5.23 2.955c.435.245.7.705.7 1.2 0 .5-.265.96-.7 1.205l-9.395 5.335c-.21.12-.445.18-.685.18Zm-2.425-4.345 2.425 1.37 6.59-3.745-2.425-1.37-6.59 3.745Z"/><path fill="#444" d="M269.105 228.11V109.355l-9.395 5.335v118.745l9.395-5.325Z"/><path fill="#222" d="M259.711 234.815a1.384 1.384 0 0 1-1.38-1.385V114.69c0-.495.265-.955.7-1.2l9.395-5.335c.43-.245.955-.24 1.38.005.425.25.685.705.685 1.195V228.11c0 .5-.27.955-.7 1.205l-9.395 5.32c-.21.12-.445.18-.68.18h-.005Zm1.38-119.32V231.06l6.63-3.755V111.73l-6.63 3.765Z"/><path fill="#444" d="M254.481 111.73v118.725l5.23 2.96V114.69l-5.23-2.96Z"/><path fill="#222" d="M259.711 234.795c-.235 0-.47-.06-.68-.18l-5.23-2.955a1.378 1.378 0 0 1-.7-1.205V111.73c0-.49.26-.945.685-1.195.425-.25.95-.25 1.375-.01l5.23 2.955c.435.245.7.705.7 1.205V233.41a1.387 1.387 0 0 1-1.38 1.385Zm-3.85-5.145 2.465 1.395v-115.55l-2.465-1.395v115.55Z"/><path fill="#444" d="m217.961 79.82-9.39 5.335 5.23 2.96 9.395-5.335-5.235-2.96Z"/><path fill="#222" d="M213.801 89.495c-.235 0-.47-.06-.68-.18l-5.23-2.955a1.376 1.376 0 0 1-.7-1.2c0-.5.265-.96.7-1.205l9.395-5.335c.425-.24.94-.24 1.365 0l5.23 2.955c.435.245.7.705.7 1.2 0 .5-.265.96-.7 1.205l-9.395 5.335c-.21.12-.445.18-.685.18Zm-2.425-4.345 2.425 1.37 6.59-3.745-2.425-1.37-6.59 3.745Z"/><path fill="#444" d="M223.195 201.68V82.78l-9.395 5.335v118.89l9.395-5.325Z"/><path fill="#222" d="M213.8 208.385a1.384 1.384 0 0 1-1.38-1.385V88.115c0-.495.265-.955.7-1.2l9.395-5.335c.43-.245.955-.24 1.38.005.425.25.685.705.685 1.195v118.905c0 .5-.27.955-.7 1.205l-9.395 5.32c-.21.12-.445.18-.68.18l-.005-.005Zm1.385-119.47V204.63l6.63-3.755V85.155l-6.63 3.765v-.005Z"/><path fill="#444" d="M208.571 85.155v118.8l5.23 2.96v-118.8l-5.23-2.96Z"/><path fill="#222" d="M213.801 208.295c-.235 0-.47-.06-.68-.18l-5.23-2.955a1.378 1.378 0 0 1-.7-1.205v-118.8c0-.49.26-.945.685-1.195.425-.25.95-.25 1.375-.01l5.23 2.955c.435.245.7.705.7 1.205v118.8a1.387 1.387 0 0 1-1.38 1.385Zm-3.85-5.145 2.465 1.395V88.92l-2.465-1.395V203.15Z"/><path fill="#444" d="m172.051 53.245-9.39 5.53 5.23 2.76 9.39-5.335-5.23-2.955Z"/><path fill="#222" d="M167.891 62.92a1.4 1.4 0 0 1-.645-.16l-5.23-2.765a1.376 1.376 0 0 1-.735-1.19c-.01-.5.25-.97.68-1.225l9.395-5.53c.425-.25.95-.255 1.38-.01l5.23 2.955c.435.245.7.705.7 1.2 0 .5-.265.96-.7 1.205l-9.395 5.335c-.21.12-.445.18-.685.18l.005.005Zm-2.395-4.21 2.37 1.25 6.615-3.755-2.415-1.365-6.57 3.87Z"/><path fill="#444" d="m177.281 175.07.005-118.87-9.395 5.335V180.39l9.39-5.32Z"/><path fill="#222" d="M167.891 181.775a1.384 1.384 0 0 1-1.38-1.385V61.535c0-.495.265-.955.7-1.2L176.606 55c.43-.245.955-.24 1.38.005.425.25.685.705.685 1.195v118.865c0 .5-.27.955-.7 1.205l-9.395 5.32c-.21.12-.445.18-.68.18l-.005.005Zm1.385-119.43V178.02l6.63-3.755V58.575l-6.63 3.765v.005Z"/><path fill="#444" d="M162.661 58.775V177.4l5.23 2.955V61.535l-5.23-2.76Z"/><path fill="#222" d="M167.891 181.74c-.235 0-.47-.06-.68-.18l-5.23-2.955a1.378 1.378 0 0 1-.7-1.205V58.775a1.385 1.385 0 0 1 2.03-1.225l5.23 2.765c.455.24.735.71.735 1.225v118.82a1.387 1.387 0 0 1-1.38 1.385l-.005-.005Zm-3.85-5.145 2.465 1.395V62.37l-2.465-1.305v115.53Z"/><path fill="#444" d="m172.051 53.25-9.385 5.455 143.03 82.58 9.32-5.46L172.051 53.25Z"/><path fill="#222" d="M305.696 142.665c-.24 0-.475-.06-.69-.185l-143.03-82.575a1.38 1.38 0 0 1-.69-1.195c0-.495.26-.95.685-1.195l9.385-5.46c.43-.25.96-.25 1.385 0l142.965 82.575c.425.245.69.7.69 1.195 0 .495-.26.95-.685 1.195l-9.32 5.46c-.215.125-.455.19-.7.19l.005-.005ZM165.426 58.7l140.265 80.98 6.575-3.85-140.21-80.985-6.63 3.855Z"/><path fill="#444" d="M162.666 58.705v5.805l143.03 82.575v-5.8l-143.03-82.58Z"/><path fill="#222" d="M305.696 148.465c-.24 0-.475-.06-.69-.185l-143.03-82.575a1.375 1.375 0 0 1-.69-1.195v-5.8c0-.495.265-.95.69-1.195.43-.245.955-.245 1.385 0l143.025 82.575c.43.245.69.705.69 1.195v5.8a1.38 1.38 0 0 1-1.38 1.38ZM164.051 63.71l140.26 80.98v-2.61L164.051 61.1v2.61Z"/><path fill="#444" d="M305.695 141.285v5.8l9.32-5.46v-5.8l-9.32 5.46Z"/><path fill="#222" d="M305.695 148.465a1.382 1.382 0 0 1-1.385-1.385v-5.8c0-.49.26-.945.685-1.195l9.32-5.46a1.382 1.382 0 0 1 2.08 1.195v5.8c0 .49-.26.945-.685 1.195l-9.32 5.46c-.215.125-.455.19-.7.19h.005Zm1.38-6.39v2.595l6.555-3.84v-2.595l-6.555 3.84Z"/></svg>