<svg xmlns="http://www.w3.org/2000/svg" width="401" height="401" fill="none" viewBox="0 0 401 401"><path fill="#DADADA" d="M56.515 245.83 185.4 320.24a29.52 29.52 0 0 0 29.525 0l128.885-74.41"/><path fill="#fff" d="M343.715 245.83 214.83 171.42a29.52 29.52 0 0 0-29.525 0L56.42 245.83"/><path fill="#fff" d="M199.455 42.705v123.74c-5.09 0-10.18 1.315-14.755 3.96L55.81 244.82V120.85l129.96-75.045a27.485 27.485 0 0 1 13.69-3.675v.575h-.005Z"/><path fill="#222" d="M182.16 257.264c-.48 0-.945-.25-1.2-.69a1.388 1.388 0 0 1 .505-1.89l13.33-7.695a1.388 1.388 0 0 1 1.89.505c.38.66.155 1.505-.505 1.89l-13.33 7.695c-.22.125-.455.185-.69.185Z"/><path fill="#FF3158" d="M199.34 42.13c4.72 0 9.44 1.23 13.69 3.675l129.96 75.045v123.97l-128.895-74.41a29.443 29.443 0 0 0-14.755-3.96V42.13Z"/><path fill="#222" d="M343.2 246.19c-.235 0-.47-.06-.69-.185l-128.885-74.41c-8.68-5.01-19.465-5.01-28.14 0l-80.19 46.3c-.66.38-1.505.155-1.89-.505a1.388 1.388 0 0 1 .505-1.89l80.19-46.3c9.53-5.505 21.375-5.505 30.905 0l128.885 74.41c.66.38.89 1.225.505 1.89-.255.445-.72.69-1.2.69h.005Z"/><path fill="#444" d="m326.245 268.37-111.93 64.625a29.52 29.52 0 0 1-29.525 0L72.86 268.37l-16.955 9.79 128.885 74.41a29.52 29.52 0 0 0 29.525 0L343.2 278.16l-16.955-9.79Z"/><path fill="#DADADA" d="M214.315 319.22a29.52 29.52 0 0 1-29.525 0L55.905 244.805v13.8l128.885 74.41a29.52 29.52 0 0 0 29.525 0l128.885-74.41v-13.8l-128.885 74.41v.005Z"/><path fill="#222" d="M199.55 338.34a30.869 30.869 0 0 1-15.455-4.13L55.215 259.8a1.375 1.375 0 0 1-.69-1.195v-13.8c0-.495.265-.95.69-1.195.43-.245.955-.245 1.385 0l128.885 74.41c8.68 5.01 19.465 5.01 28.14 0l128.885-74.41c.43-.245.955-.245 1.385 0 .43.245.69.705.69 1.195v13.8c0 .495-.265.95-.69 1.195L215.01 334.21a30.92 30.92 0 0 1-15.455 4.13h-.005ZM57.285 257.805 185.48 331.82c8.68 5.01 19.465 5.01 28.145 0l128.195-74.015V247.2l-126.81 73.215c-9.53 5.505-21.375 5.505-30.91 0L57.285 247.2v10.605Z"/><path fill="#222" d="M55.905 246.315a1.38 1.38 0 0 1-1.38-1.38v-124.1c0-.495.265-.95.69-1.195l129.96-75.035c8.87-5.12 19.885-5.12 28.755 0l129.96 75.035c.43.245.69.705.69 1.195v123.97a1.38 1.38 0 1 1-2.76 0v-123.17L212.545 47c-8.015-4.63-17.975-4.63-25.99 0l-129.27 74.635v123.3c0 .765-.62 1.38-1.38 1.38Z"/><path fill="#222" d="M199.55 166.839a1.38 1.38 0 0 1-1.38-1.38V42.695a1.38 1.38 0 1 1 2.76 0v122.759c0 .765-.62 1.38-1.38 1.38v.005ZM279.425 282.53c-.235 0-.47-.06-.69-.185l-143.02-82.57a1.38 1.38 0 0 1-.505-1.89 1.38 1.38 0 0 1 1.89-.505l143.02 82.57c.66.38.89 1.225.505 1.89-.255.445-.72.69-1.2.69ZM252.665 298.005c-.235 0-.47-.06-.69-.185l-70.54-40.725a1.38 1.38 0 0 1-.505-1.89 1.38 1.38 0 0 1 1.89-.505l70.54 40.725c.66.38.89 1.225.505 1.89-.255.445-.72.69-1.2.69ZM258.555 255.02c-.235 0-.47-.06-.69-.185L149.41 192.22a1.38 1.38 0 0 1-.505-1.89 1.38 1.38 0 0 1 1.89-.505L259.25 252.44c.66.38.89 1.225.505 1.89-.255.445-.72.69-1.2.69Z"/><path fill="#222" d="M196.13 234.37c-.48 0-.945-.25-1.2-.69a1.388 1.388 0 0 1 .505-1.89l13.33-7.695a1.388 1.388 0 0 1 1.89.505c.38.66.155 1.505-.505 1.89l-13.33 7.695c-.22.125-.455.185-.69.185ZM266.245 290.384c-.235 0-.47-.06-.69-.185l-143.345-82.76a1.38 1.38 0 0 1-.505-1.89 1.38 1.38 0 0 1 1.89-.505l143.345 82.76c.66.38.89 1.225.505 1.89-.255.445-.72.69-1.2.69Z"/><path fill="#222" d="M221.54 264.57c-.48 0-.945-.25-1.2-.69a1.388 1.388 0 0 1 .505-1.89l13.33-7.695a1.388 1.388 0 0 1 1.89.505c.38.66.155 1.505-.505 1.89l-13.33 7.695c-.22.125-.455.185-.69.185ZM245.2 262.74c-.48 0-.945-.25-1.2-.69a1.388 1.388 0 0 1 .505-1.89l13.33-7.695a1.388 1.388 0 0 1 1.89.505c.38.66.155 1.505-.505 1.89l-13.33 7.695c-.22.125-.455.185-.69.185Z"/><path fill="#F5F4F3" d="m56.035 199.97 9.575-5.815 85.875 49.5v11.34l21.455 12.445v11.205l7.305 4.215v11.205l7.02 4.095v11.2l-9.5 5.775-121.73-70.2V199.97Z"/><path fill="#FF3158" d="m177.765 315.135-28.645-16.52V287.68l.06-.085 7.06 4.085 21.525 12.455v11ZM141.98 272.04v11.265l-.045.085-7.1-4.105-7.2-4.165.04-.085V263.77l7.12 4.125 7.185 4.145ZM163.465 273.21v11.225l-7.165-4.125-7.22-4.185.04-.06V264.98l.04-.06 14.305 8.27v.02Z"/><path fill="#FF3158" d="m149.16 264.92-.04.06v11.085l-.04.06-7.1-4.085-7.185-4.145.02-.02V256.65l7.165 4.125 7.18 4.145Z"/><path fill="#FF3158" d="m127.675 241.26 14.305 8.25v11.265l-7.165-4.125-14.3-8.27-14.345-8.27-7.145-4.125v-11.1l.125-.065 14.2 8.19 14.325 8.25ZM106.17 251.354l7.18 4.145v11.266l-.04.064-7.14-4.125-7.165-4.145.02-.065v-11.265l7.145 4.125Z"/><path fill="#FF3158" d="m106.17 262.705 7.14 4.125 7.245 4.185-.065.105v10.895l-.04.06L91.845 265.6v-11.185l7.16 4.145 7.165 4.145ZM56.035 233.685l14.325 8.295 7.245 4.185-.085.12v10.9l-.06.1-21.425-12.35v-11.25Z"/><path fill="#FF3158" d="M84.705 238.96v11.265l-.02.045-7.08-4.105-7.245-4.185.02-.025V230.71l14.325 8.25Z"/><path fill="#FF3158" d="m70.3 219.385 14.34 8.29 7.205 4.165v11.225l-.02.02-7.12-4.125-14.325-8.25v-.02l-7.185-4.145V215.34l.025-.04 7.08 4.085Z"/><path fill="#FF3158" d="M70.38 208.24v11.02l-.08.125-7.08-4.085-7.185-4.145V199.97l14.345 8.27Z"/><path fill="#222" d="M163.315 274.37c-.235 0-.47-.06-.69-.185L55.215 212.15a1.38 1.38 0 0 1-.505-1.89 1.378 1.378 0 0 1 1.89-.505l107.41 62.035c.66.38.89 1.225.505 1.89-.255.445-.72.69-1.2.69ZM170.615 301.01a1.38 1.38 0 0 1-1.38-1.38v-10.39l-114.02-65.83a1.38 1.38 0 0 1-.505-1.89 1.38 1.38 0 0 1 1.89-.505l114.71 66.225c.43.245.69.705.69 1.195v11.19c0 .765-.62 1.38-1.38 1.38l-.005.005ZM177.63 316.305c-.235 0-.47-.06-.69-.185L55.215 245.93a1.38 1.38 0 0 1-.505-1.89 1.38 1.38 0 0 1 1.89-.505l121.725 70.195c.66.38.89 1.225.505 1.89-.255.445-.72.69-1.2.69v-.005Z"/><path fill="#222" d="M55.905 246.115a1.38 1.38 0 0 1-1.38-1.38V199.76c0-.495.265-.95.69-1.195l9.705-5.605a1.388 1.388 0 0 1 1.89.505c.38.66.155 1.505-.505 1.89l-9.015 5.205v44.175c0 .765-.62 1.38-1.38 1.38h-.005ZM63.065 250.189a1.38 1.38 0 0 1-1.38-1.38v-10.99a1.38 1.38 0 1 1 2.76 0v10.99c0 .765-.62 1.38-1.38 1.38Z"/><path fill="#222" d="M63.065 227.77a1.38 1.38 0 0 1-1.38-1.38v-11.255a1.38 1.38 0 1 1 2.76 0v11.255c0 .765-.62 1.38-1.38 1.38ZM77.385 258.355a1.38 1.38 0 0 1-1.38-1.38V246.09a1.38 1.38 0 1 1 2.76 0v10.885c0 .765-.62 1.38-1.38 1.38ZM77.385 235.7a1.38 1.38 0 0 1-1.38-1.38v-10.91a1.38 1.38 0 1 1 2.76 0v10.91c0 .765-.62 1.38-1.38 1.38ZM91.705 266.77a1.38 1.38 0 0 1-1.38-1.38V254.2a1.38 1.38 0 1 1 2.76 0v11.19c0 .765-.62 1.38-1.38 1.38ZM91.705 244.24a1.38 1.38 0 0 1-1.38-1.38v-11.22a1.38 1.38 0 1 1 2.76 0v11.22c0 .765-.62 1.38-1.38 1.38ZM120.345 283.2a1.38 1.38 0 0 1-1.38-1.38v-10.905a1.38 1.38 0 1 1 2.76 0v10.905c0 .765-.62 1.38-1.38 1.38ZM120.345 260.78a1.38 1.38 0 0 1-1.38-1.38v-11.195a1.38 1.38 0 1 1 2.76 0V259.4c0 .765-.62 1.38-1.38 1.38ZM134.67 291.485a1.38 1.38 0 0 1-1.38-1.38v-11a1.38 1.38 0 1 1 2.76 0v11c0 .765-.62 1.38-1.38 1.38ZM134.67 269.055a1.38 1.38 0 0 1-1.38-1.38v-11.22a1.38 1.38 0 1 1 2.76 0v11.22c0 .765-.62 1.38-1.38 1.38ZM148.99 299.875a1.38 1.38 0 0 1-1.38-1.38v-11.03a1.38 1.38 0 1 1 2.76 0v11.03c0 .765-.62 1.38-1.38 1.38ZM148.99 277.245a1.38 1.38 0 0 1-1.38-1.38v-11.08a1.38 1.38 0 1 1 2.76 0v11.08c0 .765-.62 1.38-1.38 1.38ZM163.315 307.825a1.38 1.38 0 0 1-1.38-1.38v-10.76a1.38 1.38 0 1 1 2.76 0v10.76c0 .765-.62 1.38-1.38 1.38ZM163.315 285.584a1.38 1.38 0 0 1-1.38-1.38v-11.135a1.38 1.38 0 1 1 2.76 0v11.135c0 .765-.62 1.38-1.38 1.38ZM106.025 274.83a1.38 1.38 0 0 1-1.38-1.38v-10.98a1.38 1.38 0 1 1 2.76 0v10.98c0 .765-.62 1.38-1.38 1.38ZM106.025 252.59a1.38 1.38 0 0 1-1.38-1.38v-11.315a1.38 1.38 0 1 1 2.76 0v11.315c0 .765-.62 1.38-1.38 1.38ZM70.25 243.135a1.38 1.38 0 0 1-1.38-1.38v-11.26a1.38 1.38 0 1 1 2.76 0v11.26c0 .765-.62 1.38-1.38 1.38ZM84.57 251.4a1.38 1.38 0 0 1-1.38-1.38v-11.26a1.38 1.38 0 1 1 2.76 0v11.26c0 .765-.62 1.38-1.38 1.38ZM98.89 259.67a1.38 1.38 0 0 1-1.38-1.38v-11.26a1.38 1.38 0 1 1 2.76 0v11.26c0 .765-.62 1.38-1.38 1.38ZM127.53 276.205a1.38 1.38 0 0 1-1.38-1.38v-11.26a1.38 1.38 0 1 1 2.76 0v11.26c0 .765-.62 1.38-1.38 1.38ZM127.53 253.485a1.38 1.38 0 0 1-1.38-1.38V241.01c0-.495.265-.95.69-1.195l9.285-5.36a1.388 1.388 0 0 1 1.89.505c.38.66.155 1.505-.505 1.89l-8.59 4.96v10.295c0 .765-.62 1.38-1.38 1.38h-.01ZM141.85 284.475a1.38 1.38 0 0 1-1.38-1.38v-11.26a1.38 1.38 0 1 1 2.76 0v11.26c0 .765-.62 1.38-1.38 1.38ZM156.17 292.74a1.38 1.38 0 0 1-1.38-1.38V280.1a1.38 1.38 0 1 1 2.76 0v11.26c0 .765-.62 1.38-1.38 1.38ZM113.21 245.21a1.38 1.38 0 0 1-1.38-1.38v-11.1c0-.495.265-.95.69-1.195l9.23-5.33a1.388 1.388 0 0 1 1.89.505c.38.66.155 1.505-.505 1.89l-8.54 4.93v10.3c0 .765-.62 1.38-1.38 1.38h-.005ZM113.21 267.94a1.38 1.38 0 0 1-1.38-1.38V255.3a1.38 1.38 0 1 1 2.76 0v11.26c0 .765-.62 1.38-1.38 1.38Z"/><path fill="#222" d="M141.84 250.685c-.235 0-.47-.06-.69-.185l-85.935-49.545a1.38 1.38 0 0 1-.505-1.89 1.38 1.38 0 0 1 1.89-.505l85.935 49.545c.66.38.89 1.225.505 1.89-.255.445-.72.69-1.2.69ZM177.63 316.305a1.38 1.38 0 0 1-1.38-1.38V304.72L55.21 234.665a1.386 1.386 0 0 1-.505-1.89 1.388 1.388 0 0 1 1.89-.505l121.725 70.455c.425.245.69.705.69 1.195v11c0 .765-.62 1.38-1.38 1.38v.005ZM151.48 245.04c-.235 0-.47-.06-.69-.185l-85.875-49.5a1.38 1.38 0 0 1-.505-1.89 1.38 1.38 0 0 1 1.89-.505l85.875 49.5c.66.38.89 1.225.505 1.89-.255.445-.72.69-1.2.69ZM163.315 285.585a1.375 1.375 0 0 1-1.38-1.38V273c0-.495.265-.95.69-1.195l9.625-5.56a1.397 1.397 0 0 1 1.385 0c.43.245.69.705.69 1.195v11.205c0 .495-.265.95-.69 1.195l-9.625 5.56a1.374 1.374 0 0 1-.69.185h-.005Zm1.38-11.785v8.01l6.86-3.965v-8.01l-6.86 3.965Z"/><path fill="#222" d="M180.245 284.245c-.235 0-.47-.06-.69-.185l-6.905-3.985a1.38 1.38 0 0 1-.505-1.89 1.38 1.38 0 0 1 1.89-.505l6.905 3.985c.66.38.89 1.225.505 1.89-.255.445-.72.69-1.2.69Z"/><path fill="#222" d="M170.615 301.01a1.375 1.375 0 0 1-1.38-1.38v-11.205c0-.495.265-.95.69-1.195l9.635-5.56c.43-.245.955-.245 1.385 0 .43.245.69.705.69 1.195v11.205c0 .495-.265.95-.69 1.195l-9.635 5.56a1.374 1.374 0 0 1-.69.185h-.005Zm1.38-11.785v8.01l6.87-3.965v-8.01l-6.87 3.965Z"/><path fill="#222" d="M187.26 299.54c-.235 0-.47-.06-.69-.185l-6.905-3.985a1.38 1.38 0 0 1-.505-1.89 1.38 1.38 0 0 1 1.89-.505l6.905 3.985c.66.38.89 1.225.505 1.89-.255.445-.72.69-1.2.69Z"/><path fill="#222" d="M177.63 316.305a1.375 1.375 0 0 1-1.38-1.38V303.72c0-.495.265-.95.69-1.195l9.635-5.56c.43-.245.955-.245 1.385 0 .43.245.69.705.69 1.195v11.205c0 .495-.265.95-.69 1.195l-9.635 5.56a1.374 1.374 0 0 1-.69.185h-.005Zm1.38-11.785v8.01l6.87-3.965v-8.01l-6.87 3.965ZM141.85 261.94a1.375 1.375 0 0 1-1.38-1.38v-11.34c0-.495.265-.95.69-1.195l9.635-5.56c.43-.245.955-.245 1.385 0 .43.245.69.705.69 1.195V255c0 .495-.265.95-.69 1.195l-9.635 5.56a1.374 1.374 0 0 1-.69.185h-.005Zm1.38-11.925v8.15l6.87-3.965v-8.15l-6.87 3.965Z"/><path fill="#222" d="M172.94 268.825c-.235 0-.47-.06-.69-.185l-21.605-12.475a1.38 1.38 0 0 1-.505-1.89 1.378 1.378 0 0 1 1.89-.505l21.605 12.475c.66.38.89 1.225.505 1.89-.255.445-.72.69-1.2.69ZM98.89 237.15a1.38 1.38 0 0 1-1.38-1.38v-11.1c0-.495.265-.95.69-1.195l9.23-5.33a1.388 1.388 0 0 1 1.89.505c.38.66.155 1.505-.505 1.89l-8.54 4.93v10.3c0 .765-.62 1.38-1.38 1.38h-.005ZM84.57 228.75a1.38 1.38 0 0 1-1.38-1.38v-11.1c0-.495.265-.95.69-1.195l9.23-5.33a1.388 1.388 0 0 1 1.89.505c.38.66.155 1.505-.505 1.89l-8.54 4.93v10.3c0 .765-.62 1.38-1.38 1.38h-.005ZM70.25 220.44a1.38 1.38 0 0 1-1.38-1.38v-11.1c0-.495.265-.95.69-1.195l9.23-5.33a1.388 1.388 0 0 1 1.89.505c.38.66.155 1.505-.505 1.89l-8.54 4.93v10.3c0 .765-.62 1.38-1.38 1.38h-.005Z"/><path fill="#444" d="M306.13 260.27v5.805l9.385-5.46v-5.595l-9.385 5.25Z"/><path fill="#222" d="M306.13 267.455a1.382 1.382 0 0 1-1.385-1.385v-5.8c0-.5.27-.96.705-1.205l9.385-5.255c.43-.24.95-.235 1.375.015.425.25.685.7.685 1.195v5.595c0 .49-.26.945-.685 1.195l-9.385 5.46c-.215.125-.455.19-.695.19v-.005Zm1.38-6.375v2.585l6.62-3.85v-2.44l-6.62 3.705Z"/><path fill="#444" d="m172.55 172.235-9.385 5.46 143.03 82.575 9.32-5.455-142.965-82.58Z"/><path fill="#222" d="M306.195 261.655c-.24 0-.475-.06-.69-.185L162.48 178.895a1.38 1.38 0 0 1-.69-1.195c0-.495.26-.95.685-1.195l9.385-5.46c.43-.25.96-.25 1.385 0L316.21 253.62c.425.245.69.7.69 1.195 0 .495-.26.95-.685 1.195l-9.32 5.46c-.215.125-.455.19-.7.19v-.005Zm-140.27-83.965 140.265 80.98 6.575-3.85-140.21-80.985-6.63 3.855Z"/><path fill="#444" d="M163.165 177.695v5.8l143.03 82.58v-5.805l-143.03-82.575Z"/><path fill="#222" d="M306.195 267.455c-.24 0-.475-.06-.69-.185L162.48 184.695a1.375 1.375 0 0 1-.69-1.195v-5.8c0-.495.265-.95.69-1.195.43-.245.955-.245 1.385 0L306.89 259.08c.43.245.69.705.69 1.195v5.8a1.38 1.38 0 0 1-1.38 1.38h-.005ZM164.55 182.7l140.26 80.98v-2.61l-140.26-80.98v2.61Z"/><path fill="#444" d="m310.285 133.225-9.395 5.335 5.23 2.955 9.395-5.335-5.23-2.955Z"/><path fill="#222" d="M306.12 142.9c-.235 0-.47-.06-.68-.18l-5.23-2.955a1.376 1.376 0 0 1-.7-1.2c0-.5.265-.96.7-1.205l9.395-5.335c.425-.24.94-.24 1.365 0l5.23 2.955c.435.245.7.705.7 1.2 0 .5-.265.96-.7 1.205l-9.395 5.335c-.21.12-.445.18-.685.18Zm-2.425-4.345 2.425 1.37 6.59-3.745-2.425-1.37-6.59 3.745Z"/><path fill="#444" d="M315.515 255.02V136.18l-9.395 5.335V260.34l9.395-5.32Z"/><path fill="#222" d="M306.12 261.72a1.384 1.384 0 0 1-1.38-1.385V141.51c0-.495.265-.955.7-1.2l9.395-5.335c.43-.245.955-.24 1.38.005.425.25.685.705.685 1.195V255.01c0 .5-.27.955-.7 1.205l-9.395 5.325c-.21.12-.445.18-.68.18h-.005Zm1.385-119.4v115.645l6.63-3.755V138.555l-6.63 3.765Z"/><path fill="#444" d="M300.89 138.56v118.62l5.23 2.955v-118.62l-5.23-2.955Z"/><path fill="#222" d="M306.12 261.52c-.235 0-.47-.06-.68-.18l-5.23-2.955a1.378 1.378 0 0 1-.7-1.205V138.56c0-.49.26-.945.685-1.195.425-.25.95-.25 1.375-.01l5.23 2.955c.435.245.7.705.7 1.205v118.62a1.387 1.387 0 0 1-1.38 1.385Zm-3.85-5.145 2.465 1.395V142.325l-2.465-1.395v115.445Z"/><path fill="#444" d="m264.375 106.645-9.395 5.335 5.23 2.96 9.395-5.335-5.23-2.96Z"/><path fill="#222" d="M260.21 116.32c-.235 0-.47-.06-.68-.18l-5.23-2.955a1.376 1.376 0 0 1-.7-1.2c0-.5.265-.96.7-1.205l9.395-5.335c.425-.24.94-.24 1.365 0l5.23 2.955c.435.245.7.705.7 1.2 0 .5-.265.96-.7 1.205l-9.395 5.335c-.21.12-.445.18-.685.18Zm-2.425-4.345 2.425 1.37 6.59-3.745-2.425-1.37-6.59 3.745Z"/><path fill="#444" d="M269.605 228.36V109.605l-9.395 5.335v118.745l9.395-5.325Z"/><path fill="#222" d="M260.21 235.065a1.384 1.384 0 0 1-1.38-1.385V114.94c0-.495.265-.955.7-1.2l9.395-5.335c.43-.245.955-.24 1.38.005.425.25.685.705.685 1.195V228.36c0 .5-.27.955-.7 1.205l-9.395 5.32c-.21.12-.445.18-.68.18h-.005Zm1.38-119.32V231.31l6.63-3.755V111.98l-6.63 3.765Z"/><path fill="#444" d="M254.98 111.98v118.725l5.23 2.96V114.94l-5.23-2.96Z"/><path fill="#222" d="M260.21 235.045c-.235 0-.47-.06-.68-.18l-5.23-2.955a1.378 1.378 0 0 1-.7-1.205V111.98c0-.49.26-.945.685-1.195.425-.25.95-.25 1.375-.01l5.23 2.955c.435.245.7.705.7 1.205V233.66a1.387 1.387 0 0 1-1.38 1.385Zm-3.85-5.145 2.465 1.395v-115.55l-2.465-1.395V229.9Z"/><path fill="#444" d="m218.46 80.07-9.39 5.335 5.23 2.96 9.395-5.335-5.235-2.96Z"/><path fill="#222" d="M214.3 89.745c-.235 0-.47-.06-.68-.18l-5.23-2.955a1.376 1.376 0 0 1-.7-1.2c0-.5.265-.96.7-1.205l9.395-5.335c.425-.24.94-.24 1.365 0l5.23 2.955c.435.245.7.705.7 1.2 0 .5-.265.96-.7 1.205l-9.395 5.335c-.21.12-.445.18-.685.18Zm-2.425-4.345 2.425 1.37 6.59-3.745-2.425-1.37-6.59 3.745Z"/><path fill="#444" d="M223.695 201.93V83.03l-9.395 5.335v118.89l9.395-5.325Z"/><path fill="#222" d="M214.3 208.635a1.384 1.384 0 0 1-1.38-1.385V88.365c0-.495.265-.955.7-1.2l9.395-5.335c.43-.245.955-.24 1.38.005.425.25.685.705.685 1.195v118.905c0 .5-.27.955-.7 1.205l-9.395 5.32c-.21.12-.445.18-.68.18l-.005-.005Zm1.385-119.47V204.88l6.63-3.755V85.405l-6.63 3.765v-.005Z"/><path fill="#444" d="M209.07 85.405v118.8l5.23 2.96v-118.8l-5.23-2.96Z"/><path fill="#222" d="M214.3 208.545c-.235 0-.47-.06-.68-.18l-5.23-2.955a1.378 1.378 0 0 1-.7-1.205v-118.8c0-.49.26-.945.685-1.195.425-.25.95-.25 1.375-.01l5.23 2.955c.435.245.7.705.7 1.205v118.8a1.387 1.387 0 0 1-1.38 1.385Zm-3.85-5.145 2.465 1.395V89.17l-2.465-1.395V203.4Z"/><path fill="#444" d="m172.55 53.495-9.39 5.53 5.23 2.76 9.39-5.335-5.23-2.955Z"/><path fill="#222" d="M168.39 63.17a1.4 1.4 0 0 1-.645-.16l-5.23-2.765a1.376 1.376 0 0 1-.735-1.19c-.01-.5.25-.97.68-1.225l9.395-5.53c.425-.25.95-.255 1.38-.01l5.23 2.955c.435.245.7.705.7 1.2 0 .5-.265.96-.7 1.205l-9.395 5.335c-.21.12-.445.18-.685.18l.005.005Zm-2.395-4.21 2.37 1.25 6.615-3.755-2.415-1.365-6.57 3.87Z"/><path fill="#444" d="m177.78 175.32.005-118.87-9.395 5.335V180.64l9.39-5.32Z"/><path fill="#222" d="M168.39 182.025a1.384 1.384 0 0 1-1.38-1.385V61.785c0-.495.265-.955.7-1.2l9.395-5.335c.43-.245.955-.24 1.38.005.425.25.685.705.685 1.195v118.865c0 .5-.27.955-.7 1.205l-9.395 5.32c-.21.12-.445.18-.68.18l-.005.005Zm1.385-119.43V178.27l6.63-3.755V58.825l-6.63 3.765v.005Z"/><path fill="#444" d="M163.16 59.025V177.65l5.23 2.955V61.785l-5.23-2.76Z"/><path fill="#222" d="M168.39 181.99c-.235 0-.47-.06-.68-.18l-5.23-2.955a1.378 1.378 0 0 1-.7-1.205V59.025a1.385 1.385 0 0 1 2.03-1.225l5.23 2.765c.455.24.735.71.735 1.225v118.82a1.387 1.387 0 0 1-1.38 1.385l-.005-.005Zm-3.85-5.145 2.465 1.395V62.62l-2.465-1.305v115.53Z"/><path fill="#444" d="m172.55 53.5-9.385 5.455 143.03 82.58 9.32-5.46L172.55 53.5Z"/><path fill="#222" d="M306.195 142.915c-.24 0-.475-.06-.69-.185l-143.03-82.575a1.38 1.38 0 0 1-.69-1.195c0-.495.26-.95.685-1.195l9.385-5.46c.43-.25.96-.25 1.385 0l142.965 82.575c.425.245.69.7.69 1.195 0 .495-.26.95-.685 1.195l-9.32 5.46c-.215.125-.455.19-.7.19l.005-.005ZM165.925 58.95l140.265 80.98 6.575-3.85-140.21-80.985-6.63 3.855Z"/><path fill="#444" d="M163.165 58.955v5.805l143.03 82.575v-5.8l-143.03-82.58Z"/><path fill="#222" d="M306.195 148.715c-.24 0-.475-.06-.69-.185l-143.03-82.575a1.375 1.375 0 0 1-.69-1.195v-5.8c0-.495.265-.95.69-1.195.43-.245.955-.245 1.385 0l143.025 82.575c.43.245.69.705.69 1.195v5.8a1.38 1.38 0 0 1-1.38 1.38ZM164.55 63.96l140.26 80.98v-2.61L164.55 61.35v2.61Z"/><path fill="#444" d="M306.195 141.535v5.8l9.32-5.46v-5.8l-9.32 5.46Z"/><path fill="#222" d="M306.195 148.715a1.382 1.382 0 0 1-1.385-1.385v-5.8c0-.49.26-.945.685-1.195l9.32-5.46a1.382 1.382 0 0 1 2.08 1.195v5.8c0 .49-.26.945-.685 1.195l-9.32 5.46c-.215.125-.455.19-.7.19h.005Zm1.38-6.39v2.595l6.555-3.84v-2.595l-6.555 3.84Z"/></svg>