<svg xmlns="http://www.w3.org/2000/svg" width="400" height="401" fill="none" viewBox="0 0 400 401"><path fill="#fff" d="M200.935 44.015V167.84a29.434 29.434 0 0 0-14.765 3.965l-128.975 74.46v-124.05L187.24 47.12a27.452 27.452 0 0 1 13.695-3.675v.575-.005Z"/><path fill="#fff" d="M199.56 43.44c4.725 0 9.445 1.23 13.695 3.675L343.3 122.21v124.05L214.32 171.8a29.434 29.434 0 0 0-14.765-3.965V43.44h.005Z"/><path fill="#DADADA" d="m55.865 246.255 128.97 74.46a29.534 29.534 0 0 0 29.545 0l128.97-74.46"/><path fill="#fff" d="M343.26 246.26 214.29 171.8a29.534 29.534 0 0 0-29.545 0L55.77 246.26"/><path fill="#444" d="M326.805 269.835 214.8 334.5a29.534 29.534 0 0 1-29.545 0L73.25 269.835l-16.965 9.795 128.97 74.46a29.534 29.534 0 0 0 29.545 0l128.97-74.46-16.965-9.795Z"/><path fill="#222" d="M200.025 326.045a30.919 30.919 0 0 1-15.465-4.13L55.615 247.47a1.415 1.415 0 0 1-.36-.285 1.412 1.412 0 0 1-.355-.995 1.357 1.357 0 0 1 .455-.96c.075-.07.16-.13.25-.18L184.56 170.6c9.54-5.505 21.39-5.505 30.925 0l128.97 74.46c.43.245.69.705.69 1.195 0 .49-.265.95-.69 1.195l-128.97 74.46a30.905 30.905 0 0 1-15.465 4.13l.005.005Zm-140.98-79.79 126.9 73.265c8.685 5.015 19.475 5.015 28.16 0L341 246.255 214.1 172.99c-8.685-5.015-19.475-5.015-28.16 0L59.045 246.255Z"/><path fill="#DADADA" d="M214.8 320.72a29.534 29.534 0 0 1-29.545 0l-128.97-74.465v13.81l128.97 74.46a29.534 29.534 0 0 0 29.545 0l128.97-74.46v-13.81l-128.97 74.46v.005Z"/><path fill="#222" d="M200.025 339.855a30.919 30.919 0 0 1-15.465-4.13L55.59 261.26a1.375 1.375 0 0 1-.69-1.195v-13.81a1.38 1.38 0 0 1 2.07-1.195l128.97 74.46c8.685 5.015 19.475 5.015 28.16 0l.69 1.195-.69-1.195 128.97-74.46c.43-.245.955-.245 1.385 0 .43.245.69.705.69 1.195v13.81c0 .495-.265.95-.69 1.195l-128.97 74.46a30.905 30.905 0 0 1-15.465 4.13l.005.005Zm-142.36-80.59 128.28 74.06c8.685 5.015 19.475 5.015 28.16 0l128.28-74.06V248.65L215.49 321.915c-9.54 5.505-21.39 5.505-30.925 0l-126.9-73.265v10.615Z"/><path fill="#222" d="M343.77 247.64a1.38 1.38 0 0 1-1.38-1.38V123L213.03 48.315c-8.02-4.63-17.985-4.63-26.01 0L57.665 123v123.255c0 .765-.62 1.38-1.385 1.38s-1.385-.62-1.385-1.38v-124.05c0-.495.265-.95.69-1.195L185.64 45.92c8.875-5.125 19.9-5.125 28.775 0l130.05 75.085c.43.245.69.705.69 1.195v124.055c0 .765-.62 1.38-1.38 1.38l-.005.005Z"/><path fill="#222" d="M200.025 168.235a1.38 1.38 0 0 1-1.38-1.38V44.01a1.38 1.38 0 1 1 2.76 0v122.845c0 .765-.62 1.38-1.38 1.38Z"/><path fill="#444" d="M87.07 127.89v58.565l83.99-47.685V79.7l-83.99 48.19Z"/><path fill="#222" d="M87.07 187.835a1.384 1.384 0 0 1-1.38-1.385v-58.565c0-.495.265-.955.695-1.2l83.985-48.19c.43-.245.955-.245 1.38 0 .425.245.69.705.69 1.195v59.07c0 .495-.265.955-.7 1.2l-83.99 47.685c-.21.12-.445.18-.685.18l.005.01Zm1.385-59.15v55.39l81.22-46.115V82.08l-81.22 46.6v.005Z"/><path fill="#DADADA" d="m299.945 150.215 23.37 13.49v94.23l-23.37-13.49v-94.23Z"/><path fill="#222" d="M323.315 259.32c-.24 0-.475-.06-.69-.185l-23.37-13.495a1.375 1.375 0 0 1-.69-1.195v-94.23c0-.495.265-.95.69-1.195.43-.245.955-.245 1.385 0l23.37 13.495c.43.245.69.705.69 1.195v94.23a1.38 1.38 0 0 1-1.38 1.38h-.005Zm-21.985-15.675 20.605 11.895V164.5l-20.605-11.895v91.04Z"/><path fill="#DADADA" d="M323.315 163.705v94.235l20.225-11.625V155.95l-20.225 7.755Z"/><path fill="#222" d="M323.315 259.32a1.379 1.379 0 0 1-1.385-1.38v-94.23c0-.575.355-1.085.885-1.29l20.225-7.76a1.388 1.388 0 0 1 1.28.15c.375.26.6.685.6 1.14v90.365c0 .495-.265.95-.695 1.2L324 259.135c-.215.12-.45.185-.69.185h.005Zm1.38-94.665v90.89l17.46-10.035v-87.555l-17.46 6.695v.005Z"/><path fill="#222" d="M323.31 235.72c-.235 0-.47-.06-.69-.185l-23.37-13.495a1.38 1.38 0 0 1-.505-1.89 1.38 1.38 0 0 1 1.89-.505l23.37 13.495c.66.38.89 1.225.505 1.89-.255.445-.72.69-1.2.69ZM323.31 212.16c-.235 0-.47-.06-.69-.185l-23.37-13.495a1.38 1.38 0 0 1-.505-1.89 1.38 1.38 0 0 1 1.89-.505l23.37 13.495c.66.38.89 1.225.505 1.89-.255.445-.72.69-1.2.69ZM323.065 188.435c-.235 0-.47-.06-.69-.185l-23.035-13.3a1.38 1.38 0 0 1-.505-1.89 1.38 1.38 0 0 1 1.89-.505l23.035 13.3c.66.38.89 1.225.505 1.89-.255.445-.72.69-1.2.69ZM314.55 190.42c-.235 0-.47-.06-.69-.185l-5.84-3.375a1.38 1.38 0 0 1-.505-1.89 1.38 1.38 0 0 1 1.89-.505l5.84 3.375c.66.38.89 1.225.505 1.89-.255.445-.72.69-1.2.69ZM314.55 213.98c-.235 0-.47-.06-.69-.185l-5.84-3.375a1.38 1.38 0 0 1-.505-1.89 1.38 1.38 0 0 1 1.89-.505l5.84 3.375c.66.38.89 1.225.505 1.89-.255.445-.72.69-1.2.69ZM314.55 237.54c-.235 0-.47-.06-.69-.185l-5.84-3.375a1.38 1.38 0 0 1-.505-1.89 1.38 1.38 0 0 1 1.89-.505l5.84 3.375c.66.38.89 1.225.505 1.89-.255.445-.72.69-1.2.69Z"/><path fill="#DADADA" d="m320.17 142.455-20.225 7.76 23.37 13.49 20.225-7.755-23.37-13.495Z"/><path fill="#222" d="M323.315 165.09c-.24 0-.48-.06-.69-.185l-23.37-13.495a1.377 1.377 0 0 1-.685-1.305c.04-.53.385-.99.885-1.18l20.225-7.76c.39-.15.825-.115 1.185.095l23.37 13.495c.46.265.73.775.685 1.305-.04.53-.385.99-.885 1.18L323.81 165c-.16.06-.33.09-.495.09Zm-20.165-14.625 20.285 11.715 16.905-6.485-20.29-11.715-16.905 6.485h.005ZM314.55 166.905c-.235 0-.47-.06-.69-.185l-5.84-3.375a1.38 1.38 0 0 1-.505-1.89 1.38 1.38 0 0 1 1.89-.505l5.84 3.375c.66.38.89 1.225.505 1.89-.255.445-.72.69-1.2.69ZM242.115 110.845c-.56 0-1.09-.345-1.295-.9l-8.075-21.61-5.385 12.485c-.3.7-1.115 1.025-1.815.72a1.378 1.378 0 0 1-.72-1.815l6.745-15.64a1.384 1.384 0 0 1 2.565.065l9.28 24.83a1.386 1.386 0 0 1-1.295 1.87l-.005-.005Z"/><path fill="#fff" d="M218.785 95.806v30.955l30.635 17.39v-30.77l-30.635-17.575Z"/><path fill="#222" d="M249.42 145.535c-.235 0-.47-.06-.68-.18l-30.635-17.39a1.376 1.376 0 0 1-.7-1.2V95.81a1.38 1.38 0 0 1 2.07-1.195l30.635 17.575c.43.245.695.705.695 1.2v30.77a1.387 1.387 0 0 1-1.38 1.385l-.005-.01Zm-29.25-19.58 27.87 15.82V114.18l-27.87-15.99v27.765ZM280.065 124.785c-.6 0-1.15-.39-1.325-.995l-6.045-20.625-3.885 11.49a1.382 1.382 0 0 1-1.755.865 1.382 1.382 0 0 1-.865-1.755l5.29-15.64a1.38 1.38 0 0 1 1.34-.94 1.38 1.38 0 0 1 1.3.995l7.275 24.83a1.38 1.38 0 0 1-1.33 1.77v.005Z"/><path fill="#fff" d="M261.34 111.681v39.2l24.89 14.13v-39.05l-24.89-14.28Z"/><path fill="#222" d="M286.23 166.395c-.235 0-.47-.06-.68-.18l-24.89-14.13a1.376 1.376 0 0 1-.7-1.2v-39.2a1.38 1.38 0 0 1 2.07-1.195l24.89 14.28c.43.245.695.705.695 1.2v39.05a1.387 1.387 0 0 1-1.38 1.385l-.005-.01Zm-23.505-16.32 22.125 12.56V126.76l-22.125-12.695V150.075Z"/><path fill="#fff" d="M221.86 162.88v9.87a7.16 7.16 0 0 1-3.585 6.205l-6.835 3.945 4.26 2.13 6.835-3.945a7.171 7.171 0 0 0 3.585-6.205v-9.87l-4.26-2.13Z"/><path fill="#222" d="M215.7 186.415c-.21 0-.425-.05-.62-.145l-4.26-2.13a1.385 1.385 0 0 1-.075-2.435l6.835-3.945a5.797 5.797 0 0 0 2.89-5.01v-9.87a1.383 1.383 0 0 1 2-1.235l4.26 2.13c.47.235.765.715.765 1.235v9.87c0 3.045-1.64 5.88-4.275 7.405l-6.835 3.945c-.215.125-.45.185-.69.185h.005Zm-1.345-3.6 1.295.65 6.19-3.575a5.797 5.797 0 0 0 2.89-5.01v-9.015l-1.495-.745v7.63c0 3.045-1.64 5.88-4.275 7.405l-4.61 2.66h.005Z"/><path fill="#DADADA" d="M224.505 144.685c-5.54-3.195-10.03-.565-10.03 5.885v14.79l20.055 11.745V162.15c0-6.445-4.49-14.265-10.03-17.465h.005Z"/><path fill="#222" d="M234.535 178.485c-.24 0-.485-.065-.7-.19l-20.06-11.745c-.425-.25-.685-.7-.685-1.195v-14.79c0-3.65 1.3-6.41 3.66-7.77 2.335-1.35 5.335-1.105 8.445.69 6.01 3.47 10.72 11.665 10.72 18.66V177.1a1.382 1.382 0 0 1-1.385 1.385h.005Zm-18.675-13.92 17.295 10.125v-12.545c0-5.995-4.19-13.295-9.335-16.265-2.215-1.28-4.235-1.525-5.68-.69-1.465.845-2.275 2.755-2.275 5.38v13.995h-.005Z"/><path fill="#DADADA" d="m205.78 175.965-14.55 8.625c-2.145 1.27-2.115 4.39.05 5.62l14.575 8.28a5.998 5.998 0 0 0 6.02-.055l14.55-8.625c2.145-1.27 2.115-4.39-.05-5.62l-14.575-8.28a5.998 5.998 0 0 0-6.02.055Z"/><path fill="#222" d="M208.815 200.65c-1.26 0-2.515-.32-3.645-.96l-14.575-8.28a4.592 4.592 0 0 1-2.345-3.985 4.585 4.585 0 0 1 2.27-4.025l14.55-8.625a7.395 7.395 0 0 1 7.405-.07l14.575 8.28a4.592 4.592 0 0 1 2.345 3.985 4.585 4.585 0 0 1-2.27 4.025l-14.55 8.625a7.379 7.379 0 0 1-3.76 1.03Zm-2.33-23.5-14.55 8.625c-.59.35-.92.94-.915 1.625.005.685.35 1.27.945 1.605l14.575 8.28c1.435.815 3.21.8 4.63-.045l14.55-8.625c.59-.35.92-.94.915-1.625a1.814 1.814 0 0 0-.945-1.605l-14.575-8.28a4.616 4.616 0 0 0-4.63.045Z"/><path fill="#DADADA" d="m226.425 189.81-14.55 8.625a5.99 5.99 0 0 1-6.015.06l-14.575-8.28a3.22 3.22 0 0 1-1.645-2.795v4.61a3.22 3.22 0 0 0 1.645 2.795l14.575 8.28a5.99 5.99 0 0 0 6.015-.06l14.55-8.625a3.214 3.214 0 0 0 1.59-2.825v-4.61c.01 1.09-.52 2.19-1.59 2.825Z"/><path fill="#222" d="M208.82 205.265a7.346 7.346 0 0 1-3.645-.965l-14.575-8.28a4.592 4.592 0 0 1-2.345-3.985v-4.62c0-.76.615-1.38 1.375-1.38h.005c.76 0 1.375.61 1.38 1.37.005.685.35 1.27.945 1.605l14.575 8.28c.705.4 1.515.605 2.32.6.81-.005 1.61-.23 2.31-.645l14.55-8.625c.565-.335.905-.925.915-1.585v-.055c0-.76.615-1.38 1.375-1.38h.005c.76 0 1.375.61 1.38 1.37v4.62a4.58 4.58 0 0 1-2.27 4.015l-14.55 8.625a7.384 7.384 0 0 1-3.695 1.03h-.065l.01.005Zm-17.795-13.615v.375c.005.67.35 1.255.945 1.595l14.575 8.28c.705.4 1.505.61 2.32.6.81-.005 1.61-.23 2.31-.645l14.55-8.625c.59-.35.92-.94.915-1.625v-.315l-14.055 8.33a7.334 7.334 0 0 1-3.695 1.03 7.315 7.315 0 0 1-3.71-.965l-14.15-8.04-.005.005Z"/><path fill="#fff" d="M253.84 181.32v9.87a7.16 7.16 0 0 1-3.585 6.205l-6.835 3.945 4.26 2.13 6.835-3.945a7.171 7.171 0 0 0 3.585-6.205v-9.87l-4.26-2.13Z"/><path fill="#222" d="M247.68 204.85c-.21 0-.425-.05-.62-.145l-4.26-2.13a1.385 1.385 0 0 1-.075-2.435l6.835-3.945a5.797 5.797 0 0 0 2.89-5.01v-9.87a1.383 1.383 0 0 1 2-1.235l4.26 2.13c.47.235.765.715.765 1.235v9.87c0 3.045-1.64 5.88-4.275 7.405l-6.835 3.945c-.215.125-.45.185-.69.185h.005Zm-1.345-3.6 1.295.65 6.19-3.575a5.797 5.797 0 0 0 2.89-5.01V184.3l-1.495-.745v7.63c0 3.045-1.64 5.88-4.275 7.405l-4.61 2.66h.005Z"/><path fill="#DADADA" d="M256.485 163.12c-5.54-3.195-10.03-.565-10.03 5.885v14.79l20.055 11.745v-14.955c0-6.445-4.49-14.265-10.03-17.465h.005Z"/><path fill="#222" d="M266.515 196.92c-.24 0-.485-.065-.7-.19l-20.06-11.745c-.425-.25-.685-.7-.685-1.195V169c0-3.65 1.3-6.41 3.66-7.77 2.335-1.35 5.335-1.105 8.445.69 6.01 3.47 10.72 11.665 10.72 18.66v14.955a1.382 1.382 0 0 1-1.385 1.385h.005ZM247.84 183l17.295 10.125V180.58c0-5.995-4.19-13.295-9.335-16.265-2.215-1.28-4.235-1.525-5.68-.69-1.465.845-2.275 2.755-2.275 5.38V183h-.005Z"/><path fill="#DADADA" d="m237.76 194.399-14.55 8.625c-2.145 1.27-2.115 4.39.05 5.62l14.575 8.28a5.998 5.998 0 0 0 6.02-.055l14.55-8.625c2.145-1.27 2.115-4.39-.05-5.62l-14.575-8.28a5.998 5.998 0 0 0-6.02.055Z"/><path fill="#222" d="M240.8 219.09c-1.26 0-2.515-.32-3.645-.96l-14.575-8.28a4.592 4.592 0 0 1-2.345-3.985 4.585 4.585 0 0 1 2.27-4.025l14.55-8.625a7.395 7.395 0 0 1 7.405-.07l14.575 8.28a4.592 4.592 0 0 1 2.345 3.985 4.585 4.585 0 0 1-2.27 4.025l-14.55 8.625a7.379 7.379 0 0 1-3.76 1.03Zm-2.33-23.5-14.55 8.625c-.59.35-.92.94-.915 1.625.005.685.35 1.27.945 1.605l14.575 8.28c1.435.815 3.21.8 4.63-.045l14.55-8.625c.59-.35.92-.94.915-1.625a1.814 1.814 0 0 0-.945-1.605l-14.575-8.28a4.616 4.616 0 0 0-4.63.045Z"/><path fill="#DADADA" d="m258.405 208.245-14.55 8.625a5.99 5.99 0 0 1-6.015.06l-14.575-8.28a3.22 3.22 0 0 1-1.645-2.795v4.61a3.22 3.22 0 0 0 1.645 2.795l14.575 8.28a5.99 5.99 0 0 0 6.015-.06l14.55-8.625a3.214 3.214 0 0 0 1.59-2.825v-4.61c.01 1.09-.52 2.19-1.59 2.825Z"/><path fill="#222" d="M240.8 223.7a7.346 7.346 0 0 1-3.645-.965l-14.575-8.28a4.592 4.592 0 0 1-2.345-3.985v-4.62c0-.76.615-1.38 1.375-1.38h.005c.76 0 1.375.61 1.38 1.37.005.685.35 1.27.945 1.605l14.575 8.28c.705.4 1.51.61 2.32.6.81-.005 1.61-.23 2.31-.645l14.55-8.625c.565-.335.905-.925.915-1.58v-.055c0-.76.615-1.38 1.375-1.38h.005c.76 0 1.375.61 1.38 1.37v4.625a4.58 4.58 0 0 1-2.27 4.015l-14.55 8.625a7.334 7.334 0 0 1-3.695 1.03h-.065l.01-.005Zm-17.795-13.615v.375c.005.67.35 1.255.945 1.595l14.575 8.28c.705.4 1.51.605 2.32.6.81-.005 1.61-.23 2.31-.645l14.55-8.625c.59-.35.92-.94.915-1.625v-.315l-14.055 8.33a7.334 7.334 0 0 1-3.695 1.03 7.346 7.346 0 0 1-3.715-.965l-14.15-8.04v.005Z"/><path fill="#FF3158" d="M262.625 228.32v6.829c.16 7.42-4.455 12.905-13.82 18.455-18.195 10.785-47.425 10.45-65.29-.75l-47.875-27.2c-9.115-5.715-13.51-11.225-13.21-18.575v-6.475"/><path fill="#222" d="M216.915 262.829c-12.37 0-24.775-2.94-34.11-8.785l-47.85-27.185-.05-.03c-10.01-6.275-14.155-12.19-13.86-19.775v-6.445c0-.765.62-1.38 1.385-1.38s1.385.62 1.385 1.38v6.53c-.265 6.465 3.485 11.65 12.54 17.33l47.85 27.185.05.03c17.44 10.935 46.085 11.265 63.85.73 9.355-5.545 13.285-10.7 13.145-17.235v-6.859a1.38 1.38 0 1 1 2.76 0v6.829c.165 7.64-4.17 13.52-14.495 19.645-9.055 5.365-20.81 8.035-32.595 8.035h-.005Z"/><path fill="#FF3158" d="m249.405 208.675-47.875-27.2c-17.865-11.2-47.095-11.535-65.29-.75-18.195 10.785-18.465 28.61-.6 39.81l47.875 27.2c17.865 11.2 47.095 11.535 65.29.75 18.195-10.785 18.465-28.61.6-39.81Z"/><path fill="#222" d="M216.915 257.71c-12.37 0-24.77-2.94-34.11-8.785l-47.85-27.185-.05-.03c-9.045-5.67-13.97-13.2-13.87-21.205.1-8.035 5.25-15.485 14.5-20.97 18.555-11 48.475-10.66 66.705.75l47.85 27.185.05.03c9.045 5.67 13.97 13.2 13.87 21.205-.1 8.035-5.25 15.485-14.5 20.965-9.055 5.365-20.81 8.035-32.595 8.035v.005Zm-80.565-38.36 47.85 27.185.05.03c17.44 10.935 46.085 11.265 63.85.73 8.39-4.975 13.06-11.59 13.145-18.625.085-6.995-4.37-13.675-12.55-18.81l-47.85-27.185-.05-.03c-17.44-10.935-46.085-11.265-63.85-.73-8.39 4.975-13.06 11.585-13.145 18.625-.085 6.995 4.37 13.675 12.55 18.81Z"/><path fill="#DADADA" d="M210.35 261.17v30.91c0 .765 1.205 1.38 2.69 1.38 1.485 0 2.69-.62 2.69-1.38v-30.62c-1.8-.03-3.595-.135-5.38-.295v.005Z"/><path fill="#222" d="M213.04 294.845c-2.36 0-4.075-1.16-4.075-2.765v-30.91c0-.385.165-.755.45-1.02.285-.26.665-.39 1.055-.36 1.94.17 3.67.265 5.28.29.755.01 1.36.625 1.36 1.38v30.62c0 1.6-1.715 2.765-4.075 2.765h.005Zm-1.31-3.035c.21.115.66.27 1.31.27s1.1-.155 1.31-.27v-29c-.835-.03-1.705-.08-2.615-.145v29.145h-.005Z"/><path fill="#DADADA" d="M252.54 251.19v16.74c0 .765 1.205 1.38 2.69 1.38 1.485 0 2.69-.62 2.69-1.38v-21.315c-1.46 1.565-3.24 3.08-5.38 4.575Z"/><path fill="#222" d="M255.23 270.695c-2.36 0-4.075-1.16-4.075-2.765v-16.74c0-.45.22-.875.59-1.135 2.07-1.445 3.76-2.88 5.16-4.38a1.383 1.383 0 0 1 2.395.94v21.315c0 1.6-1.715 2.765-4.075 2.765h.005Zm-1.31-3.035c.21.115.66.27 1.31.27s1.1-.155 1.31-.27v-17.81c-.805.69-1.67 1.375-2.615 2.055v15.755h-.005Z"/><path fill="#DADADA" d="M127.12 218.905v24.685c0 .765 1.205 1.38 2.69 1.38 1.485 0 2.69-.62 2.69-1.38v-20.03c-2.145-1.535-3.92-3.075-5.38-4.655Z"/><path fill="#222" d="M129.81 246.355c-2.36 0-4.075-1.16-4.075-2.765v-24.685c0-.57.35-1.08.88-1.285.53-.21 1.135-.07 1.52.35 1.405 1.525 3.1 2.985 5.17 4.47.365.26.58.68.58 1.125v20.03c0 1.6-1.715 2.765-4.075 2.765v-.005Zm-1.31-3.035c.21.115.66.27 1.31.27s1.1-.155 1.31-.27v-19.055a39.251 39.251 0 0 1-2.615-2.095v21.15h-.005Z"/></svg>