<svg xmlns="http://www.w3.org/2000/svg" width="400" height="401" fill="none" viewBox="0 0 400 401"><path fill="#FF3158" d="M199.765 210.229c-54.205 0-98.15 33.101-98.15 97.536h196.3c0-64.435-43.945-97.536-98.15-97.536Z"/><path fill="#222" d="M299.295 309.15H100.23v-1.385c0-30.82 10.095-56.39 29.195-73.95 17.77-16.335 42.09-24.97 70.34-24.97s52.57 8.635 70.34 24.97c19.1 17.56 29.195 43.13 29.195 73.95v1.385h-.005Zm-196.29-2.77H296.52c-.295-29.405-10.065-53.765-28.295-70.525-17.25-15.855-40.925-24.24-68.465-24.24-27.54 0-51.215 8.38-68.465 24.24-18.23 16.76-27.995 41.12-28.295 70.525h.005Z"/><path fill="#F5F4F3" d="M199.875 226.02c32.35 0 58.575-26.225 58.575-58.575s-26.225-58.575-58.575-58.575-58.575 26.225-58.575 58.575 26.225 58.575 58.575 58.575Z"/><path fill="#222" d="M199.875 227.41c-33.065 0-59.96-26.9-59.96-59.96s26.9-59.96 59.96-59.96 59.96 26.9 59.96 59.96-26.9 59.96-59.96 59.96Zm0-117.155c-31.535 0-57.195 25.655-57.195 57.195s25.655 57.195 57.195 57.195 57.195-25.655 57.195-57.195-25.655-57.195-57.195-57.195Z"/><path fill="#222" d="M267.71 151.17h-2.77c0-30.905-29.24-56.05-65.175-56.05s-65.175 25.145-65.175 56.05h-2.77c0-32.43 30.48-58.814 67.945-58.814 37.465 0 67.945 26.384 67.945 58.814ZM225.085 220.44c-2.205 0-4.42-.18-6.63-.54l.445-2.73c11.515 1.885 23.2-1.56 32.905-9.685 9.765-8.175 16.355-20.105 18.56-33.585l2.73.445c-2.31 14.14-9.24 26.66-19.515 35.265-8.48 7.1-18.405 10.835-28.5 10.835l.005-.005Z"/><path fill="#222" d="M138.955 140.891h-14.39a3.88 3.88 0 0 0-3.88 3.88v40.81a3.88 3.88 0 0 0 3.88 3.88h14.39a3.88 3.88 0 0 0 3.88-3.88v-40.81a3.88 3.88 0 0 0-3.88-3.88ZM276.035 140.891h-14.39a3.88 3.88 0 0 0-3.88 3.88v40.81a3.88 3.88 0 0 0 3.88 3.88h14.39a3.88 3.88 0 0 0 3.88-3.88v-40.81a3.88 3.88 0 0 0-3.88-3.88Z"/><path fill="#222" d="M284.215 151.085h-8.595a2.315 2.315 0 0 0-2.315 2.315v24.365a2.316 2.316 0 0 0 2.315 2.315h8.595a2.315 2.315 0 0 0 2.315-2.315V153.4a2.314 2.314 0 0 0-2.315-2.315ZM222.78 206.689h-8.205c-6.829 0-12.365 5.536-12.365 12.365 0 6.829 5.536 12.365 12.365 12.365h8.205c6.829 0 12.365-5.536 12.365-12.365 0-6.829-5.536-12.365-12.365-12.365ZM124.98 151.085h-8.595a2.314 2.314 0 0 0-2.315 2.315v24.365a2.315 2.315 0 0 0 2.315 2.315h8.595a2.316 2.316 0 0 0 2.315-2.315V153.4a2.315 2.315 0 0 0-2.315-2.315Z"/></svg>