<svg xmlns="http://www.w3.org/2000/svg" width="400" height="400" fill="none" viewBox="0 0 400 400"><path fill="#DADADA" d="M330.87 96.23H137.425v114.555H330.87V96.23Z"/><path fill="#DADADA" d="M236.655 204.275H45.41v114.11h191.245v-114.11Z"/><path fill="#222" d="M238.035 319.765H44.025V202.89h194.01v116.875Zm-191.245-2.77h188.475v-111.34H46.795v111.34h-.005Z"/><path fill="#fff" d="M309.575 119.315H64.055V300.68h245.52V119.315Z"/><path fill="#222" d="M310.96 302.065H62.67V117.93h248.29v184.135Zm-245.52-2.77h242.755V120.7H65.44v178.6-.005Z"/><path fill="#DADADA" d="m377.865 274.225-6.52 3.895-109.325-20.995V175.37l6.52-3.89 109.325 18.145v84.6Z"/><path fill="#222" d="M371.345 279.505c-.085 0-.175-.01-.26-.025L261.76 258.485a1.387 1.387 0 0 1-1.125-1.36V175.37c0-.485.255-.94.675-1.19l6.52-3.895c.28-.17.615-.23.935-.175l109.325 18.15c.67.11 1.155.69 1.155 1.365v84.6c0 .485-.255.94-.675 1.19l-6.52 3.895c-.215.13-.46.195-.71.195h.005Zm-107.94-23.52 107.685 20.68 5.39-3.22v-82.64L268.81 172.93l-5.41 3.23v79.825h.005Z"/><path fill="#fff" d="M262.021 175.37v35.16l-13.755 7.965 13.755 13.63v25l109.325 20.995v-84.6l-109.325-18.15Z"/><path fill="#222" d="M371.345 279.505c-.085 0-.175-.01-.26-.025L261.76 258.485a1.387 1.387 0 0 1-1.125-1.36V232.7l-13.345-13.225a1.38 1.38 0 0 1 .28-2.18l13.065-7.565v-34.36a1.382 1.382 0 0 1 1.61-1.365l109.325 18.15c.67.11 1.155.69 1.155 1.365v84.6a1.38 1.38 0 0 1-1.38 1.38v.005Zm-107.94-23.52 106.56 20.46v-81.75l-106.56-17.69v33.525c0 .495-.265.95-.69 1.2l-12.19 7.055 12.47 12.355c.26.26.41.615.41.985v23.86Z"/><path fill="#222" d="m271.368 187.809-.604 3.64 88.862 14.759.605-3.64-88.863-14.759ZM271.37 201.348l-.604 3.64 88.862 14.759.605-3.64-88.863-14.759ZM271.372 214.891l-.604 3.64 88.862 14.759.605-3.64-88.863-14.759ZM271.369 228.428l-.604 3.64 88.862 14.759.605-3.64-88.863-14.759ZM271.368 241.967l-.604 3.64 48.895 8.121.604-3.64-48.895-8.121Z"/><path fill="#FF3158" d="M181.66 230.05c-38.69 0-70.05 23.625-70.05 69.61h140.1c0-45.99-31.365-69.61-70.05-69.61Z"/><path fill="#222" d="M253.096 301.045h-142.87v-1.385c0-22.11 7.25-40.46 20.965-53.07 12.755-11.725 30.21-17.925 50.47-17.925 20.26 0 37.715 6.2 50.47 17.925 13.715 12.61 20.965 30.96 20.965 53.07v1.385Zm-140.09-2.77h137.315c-.295-20.695-7.215-37.84-20.06-49.645-12.235-11.25-29.04-17.195-48.595-17.195s-36.36 5.945-48.595 17.195c-12.845 11.81-19.765 28.955-20.06 49.645h-.005Z"/><path fill="#DADADA" d="M181.741 241.32c23.088 0 41.805-18.717 41.805-41.805s-18.717-41.805-41.805-41.805c-23.089 0-41.805 18.717-41.805 41.805s18.716 41.805 41.805 41.805Z"/><path fill="#222" d="M181.741 242.705c-23.815 0-43.19-19.375-43.19-43.19 0-23.815 19.375-43.19 43.19-43.19 23.815 0 43.19 19.375 43.19 43.19 0 23.815-19.375 43.19-43.19 43.19Zm0-83.615c-22.29 0-40.425 18.135-40.425 40.425 0 22.29 18.135 40.425 40.425 40.425 22.29 0 40.425-18.135 40.425-40.425 0-22.29-18.135-40.425-40.425-40.425Z"/><path fill="#222" d="M230.551 187.895h-2.77c0-21.84-20.69-39.605-46.12-39.605-25.43 0-46.121 17.765-46.121 39.605h-2.769c0-23.365 21.93-42.375 48.89-42.375s48.89 19.01 48.89 42.375ZM199.736 237.735c-1.595 0-3.2-.13-4.8-.39l.445-2.73c8.1 1.325 16.33-1.1 23.17-6.825 6.895-5.775 11.555-14.205 13.11-23.73l2.73.445c-1.665 10.185-6.66 19.21-14.065 25.41-6.125 5.13-13.295 7.825-20.595 7.825l.005-.005Z"/><path fill="#222" d="M138.261 180.56h-10.27a2.77 2.77 0 0 0-2.77 2.77v29.125a2.77 2.77 0 0 0 2.77 2.77h10.27a2.77 2.77 0 0 0 2.77-2.77V183.33a2.77 2.77 0 0 0-2.77-2.77ZM236.101 180.56h-10.27a2.77 2.77 0 0 0-2.77 2.77v29.125a2.77 2.77 0 0 0 2.77 2.77h10.27a2.77 2.77 0 0 0 2.77-2.77V183.33a2.77 2.77 0 0 0-2.77-2.77Z"/><path fill="#222" d="M241.935 187.835H235.8a1.65 1.65 0 0 0-1.65 1.65v17.395c0 .911.739 1.65 1.65 1.65h6.135a1.65 1.65 0 0 0 1.65-1.65v-17.395a1.65 1.65 0 0 0-1.65-1.65ZM202.315 227.52H188a4.595 4.595 0 0 0-4.595 4.595v8.46A4.595 4.595 0 0 0 188 245.17h14.315a4.595 4.595 0 0 0 4.595-4.595v-8.46a4.595 4.595 0 0 0-4.595-4.595ZM128.285 187.835h-6.135a1.65 1.65 0 0 0-1.65 1.65v17.395c0 .911.739 1.65 1.65 1.65h6.135a1.65 1.65 0 0 0 1.65-1.65v-17.395a1.65 1.65 0 0 0-1.65-1.65Z"/><path fill="#F5F4F3" d="m33.32 188.125 6.766 3.435 69.095-9.315.07-82.47-6.65-3.6-69.835 3.76.555 88.19Z"/><path fill="#222" d="M40.086 192.945c-.215 0-.43-.05-.625-.15l-6.76-3.435a1.377 1.377 0 0 1-.755-1.225l-.555-88.19c0-.74.57-1.35 1.31-1.39l69.835-3.76c.255-.015.51.045.735.165l6.65 3.6c.445.24.725.71.725 1.22l-.07 82.47c0 .69-.515 1.28-1.2 1.37l-69.1 9.315c-.06.01-.125.01-.185.01h-.005Zm-5.385-5.67 5.625 2.855 67.47-9.095.065-80.435-5.58-3.02-68.125 3.67.545 86.025Z"/><path fill="#444" d="m40.085 191.56 69.095-9.315.07-82.47-69.42 3.855.255 87.93Z"/><path fill="#222" d="M40.085 192.945c-.33 0-.655-.12-.91-.34-.3-.26-.475-.64-.475-1.04l-.25-87.93c0-.735.57-1.345 1.305-1.385l69.42-3.86a1.389 1.389 0 0 1 1.465 1.38l-.07 82.47c0 .69-.515 1.28-1.2 1.37l-69.1 9.315c-.06.01-.125.01-.185.01v.01Zm1.135-88.005.245 85.035 66.335-8.945.065-79.795-66.645 3.705Z"/><path fill="#fff" d="m68.67 152.79-.02-11.405c4.01-.83 7.01-1.99 9-3.49 1.985-1.495 2.975-3.625 2.975-6.395v-1.035c0-1.88-.57-3.22-1.704-4.025-1.136-.805-2.61-1.065-4.43-.775-1.975.315-3.61 1.175-4.906 2.58-1.294 1.405-2.174 3.065-2.63 4.985l-9.395-2.285c.46-1.58 1.125-3.15 2-4.72.87-1.565 2.015-3.02 3.425-4.37 1.406-1.345 3.096-2.52 5.06-3.525 1.96-1 4.236-1.705 6.816-2.105 2.624-.41 5.02-.41 7.18 0 2.154.405 4.005 1.15 5.555 2.24 1.544 1.085 2.724 2.495 3.544 4.235.82 1.735 1.23 3.73 1.23 5.99 0 2.06-.345 3.985-1.035 5.77a17.85 17.85 0 0 1-2.825 4.86 18.993 18.993 0 0 1-4.184 3.78 21.77 21.77 0 0 1-5.035 2.495v5.335l-10.615 1.87-.005-.01Zm5.505 17.22c-2.43.455-4.165.23-5.21-.665-1.044-.9-1.57-2.14-1.57-3.73v-1.79c-.004-1.59.516-3.025 1.556-4.305 1.04-1.28 2.78-2.135 5.21-2.57 2.424-.435 4.15-.2 5.18.7 1.03.9 1.544 2.14 1.55 3.715v1.775c0 1.575-.51 3.005-1.535 4.275-1.03 1.275-2.75 2.14-5.175 2.59l-.005.005Z"/><path fill="#222" d="M39.83 105.015a1.35 1.35 0 0 1-.64-.16l-7.065-3.695a1.388 1.388 0 0 1-.585-1.87 1.387 1.387 0 0 1 1.87-.585l7.065 3.695a1.387 1.387 0 0 1-.645 2.615ZM371.35 194.905a1.384 1.384 0 0 1-.71-2.575l6.52-3.895a1.39 1.39 0 0 1 1.9.48 1.39 1.39 0 0 1-.48 1.9l-6.52 3.895c-.22.135-.465.195-.71.195Z"/></svg>