<svg xmlns="http://www.w3.org/2000/svg" width="400" height="400" fill="none" viewBox="0 0 400 400"><path fill="#DADADA" d="m35.495 214.045 11.885 5.07 85.075-11.465.085-101.54-14.845-6.68-82.2 4.385v110.23Z"/><path fill="#241F20" d="M47.38 220.5c-.185 0-.37-.04-.545-.11l-11.885-5.07c-.51-.215-.84-.72-.84-1.275v-110.23a1.38 1.38 0 0 1 1.31-1.38l82.2-4.385c.22-.01.44.03.64.12l14.845 6.675c.495.225.815.72.815 1.265l-.085 101.54c0 .695-.515 1.28-1.2 1.37L47.56 220.49c-.06.01-.125.015-.185.015l.005-.005Zm-10.5-7.37 10.695 4.565 83.5-11.255.085-99.435-13.72-6.17-80.55 4.295v108.005l-.01-.005Z"/><path fill="#F5F4F3" d="m47.38 219.115 85.074-11.465.085-101.54-85.47 4.75.31 108.255Z"/><path fill="#241F20" d="M47.38 220.5c-.33 0-.655-.12-.91-.34-.3-.26-.475-.64-.475-1.04l-.31-108.26c0-.735.57-1.345 1.305-1.385l85.47-4.75c.38-.015.75.115 1.03.375.275.26.435.625.43 1.005l-.085 101.54c0 .695-.515 1.28-1.2 1.37l-85.075 11.47c-.06.01-.125.015-.185.015h.005Zm1.08-108.335.3 105.365 82.31-11.1.08-98.865-82.695 4.595.005.005Z"/><path fill="#222" d="m82.575 171.385-.026-14.045c4.94-1.02 8.63-2.45 11.08-4.3 2.445-1.84 3.665-4.465 3.66-7.87v-1.275c0-2.315-.7-3.965-2.094-4.955-1.395-.995-3.215-1.31-5.455-.95-2.43.39-4.445 1.45-6.04 3.175-1.596 1.73-2.675 3.775-3.236 6.135l-11.57-2.815c.566-1.94 1.39-3.88 2.465-5.81 1.076-1.93 2.48-3.72 4.216-5.38 1.734-1.655 3.81-3.1 6.23-4.34 2.41-1.235 5.21-2.1 8.394-2.59 3.236-.5 6.18-.5 8.84 0 2.651.5 4.931 1.42 6.841 2.755 1.9 1.335 3.355 3.075 4.365 5.21 1.01 2.135 1.515 4.595 1.515 7.375 0 2.54-.425 4.905-1.275 7.1a21.92 21.92 0 0 1-3.48 5.985 23.266 23.266 0 0 1-5.155 4.655 26.635 26.635 0 0 1-6.2 3.07l.01 6.57-13.075 2.3h-.01Zm6.775 21.205c-2.99.56-5.13.285-6.415-.82-1.285-1.105-1.93-2.64-1.936-4.595v-2.2c-.004-1.955.63-3.725 1.916-5.3 1.28-1.575 3.42-2.63 6.41-3.165 2.984-.535 5.105-.245 6.38.865 1.27 1.11 1.904 2.635 1.904 4.575v2.185c0 1.94-.624 3.695-1.89 5.265-1.27 1.57-3.39 2.635-6.37 3.19Z"/><path fill="#241F20" d="M47.07 112.245a1.4 1.4 0 0 1-.72-.2L34.775 105a1.383 1.383 0 1 1 1.435-2.365l11.575 7.045a1.383 1.383 0 0 1-.72 2.565h.005Z"/><path fill="#DADADA" d="m369.74 282.745-11.315 6.76-118.55-22.765v-88.655l11.34-5.855 118.55 19.68-.025 90.835Z"/><path fill="#241F20" d="M358.425 290.89c-.085 0-.175-.01-.26-.025L239.615 268.1a1.387 1.387 0 0 1-1.125-1.36v-88.655c0-.52.29-.99.75-1.23l11.34-5.86c.265-.135.57-.185.86-.135l118.55 19.68c.67.11 1.16.69 1.16 1.365l-.025 90.84c0 .485-.255.94-.675 1.19l-11.315 6.755c-.215.13-.46.195-.71.195v.005ZM241.26 265.6l116.91 22.45 10.19-6.085.025-88.88-116.94-19.415-10.18 5.26v86.665l-.005.005Z"/><path fill="#fff" d="M239.875 178.085v38.13l-14.915 8.635 14.915 14.78v27.11l118.55 22.765v-91.74l-118.55-19.68Z"/><path fill="#241F20" d="M358.425 290.89c-.085 0-.175-.01-.26-.025L239.615 268.1a1.387 1.387 0 0 1-1.125-1.36v-26.535l-14.505-14.375a1.388 1.388 0 0 1-.4-1.16c.055-.43.305-.805.68-1.02l14.225-8.235v-37.33a1.382 1.382 0 0 1 1.61-1.365l118.55 19.68c.67.11 1.16.69 1.16 1.365V289.5a1.385 1.385 0 0 1-1.385 1.38v.01ZM241.26 265.6l115.78 22.23v-88.89l-115.78-19.22v36.495c0 .495-.265.95-.69 1.2l-13.35 7.73 13.63 13.505c.26.26.41.615.41.985V265.6Z"/><path fill="#241F20" d="M346.025 211.28c-.095 0-.19-.01-.29-.025l-96.36-15.995a1.75 1.75 0 0 1-1.44-2.015 1.75 1.75 0 0 1 2.015-1.44l96.36 15.995a1.752 1.752 0 0 1-.285 3.48ZM346.025 225.96c-.095 0-.19-.01-.29-.025l-96.36-15.995a1.75 1.75 0 0 1-1.44-2.015 1.75 1.75 0 0 1 2.015-1.44l96.36 15.995a1.752 1.752 0 0 1-.285 3.48ZM346.025 240.64c-.095 0-.19-.01-.29-.025l-96.36-15.995a1.75 1.75 0 0 1-1.44-2.015 1.75 1.75 0 0 1 2.015-1.44l96.36 15.995a1.752 1.752 0 0 1-.285 3.48ZM346.025 255.325c-.095 0-.19-.01-.29-.025l-96.36-15.995a1.75 1.75 0 0 1-1.44-2.015 1.75 1.75 0 0 1 2.015-1.44l96.36 15.995a1.752 1.752 0 0 1-.285 3.48ZM302.685 262.81c-.095 0-.19-.01-.29-.025l-53.02-8.8a1.75 1.75 0 0 1-1.44-2.015 1.75 1.75 0 0 1 2.015-1.44l53.02 8.8a1.752 1.752 0 0 1-.285 3.48ZM358.425 199.15a1.386 1.386 0 0 1-.635-2.615l11.34-5.86a1.384 1.384 0 1 1 1.27 2.46l-11.34 5.86c-.205.105-.42.155-.635.155Z"/><path fill="#FF3158" d="M163.913 216.454c-36.845 0-66.715 22.495-66.715 66.295h133.43c0-43.795-29.87-66.295-66.715-66.295Z"/><path fill="#241F20" d="M232.013 284.129H95.818v-1.385c0-21.075 6.91-38.57 19.985-50.59 12.16-11.18 28.795-17.09 48.11-17.09 19.315 0 35.95 5.91 48.11 17.09 13.075 12.02 19.985 29.515 19.985 50.59v1.385h.005Zm-133.415-2.77h130.635c-.295-19.66-6.875-35.945-19.08-47.165-11.64-10.7-27.63-16.36-46.235-16.36s-34.595 5.655-46.235 16.36c-12.205 11.22-18.79 27.505-19.08 47.165h-.005Z"/><path fill="#F5F4F3" d="M163.994 227.185c21.989 0 39.815-17.826 39.815-39.815 0-21.99-17.826-39.815-39.815-39.815-21.99 0-39.815 17.825-39.815 39.815 0 21.989 17.825 39.815 39.815 39.815Z"/><path fill="#241F20" d="M163.994 228.57c-22.72 0-41.2-18.48-41.2-41.2 0-22.72 18.48-41.2 41.2-41.2 22.72 0 41.2 18.48 41.2 41.2 0 22.72-18.48 41.2-41.2 41.2Zm0-79.63c-21.19 0-38.43 17.24-38.43 38.43s17.24 38.43 38.43 38.43 38.43-17.24 38.43-38.43-17.24-38.43-38.43-38.43Z"/><path fill="#241F20" d="M210.539 176.31h-2.77c0-20.76-19.675-37.655-43.855-37.655-24.18 0-43.855 16.89-43.855 37.655h-2.77c0-22.29 20.915-40.42 46.625-40.42s46.625 18.135 46.625 40.42ZM181.074 223.835c-1.5 0-3.01-.12-4.525-.37l.445-2.73c15.965 2.61 31.43-10.425 34.47-29.05l2.73.445c-3 18.385-17.35 31.7-33.125 31.7l.005.005Z"/><path fill="#241F20" d="M122.584 169.319h-9.785a2.635 2.635 0 0 0-2.635 2.635v27.74a2.635 2.635 0 0 0 2.635 2.635h9.785a2.635 2.635 0 0 0 2.635-2.635v-27.74a2.635 2.635 0 0 0-2.635-2.635ZM215.759 169.319h-9.785a2.635 2.635 0 0 0-2.635 2.635v27.74a2.635 2.635 0 0 0 2.635 2.635h9.785a2.635 2.635 0 0 0 2.635-2.635v-27.74a2.635 2.635 0 0 0-2.635-2.635Z"/><path fill="#241F20" d="M221.319 176.255h-5.84c-.87 0-1.575.705-1.575 1.575v16.555c0 .87.705 1.575 1.575 1.575h5.84c.87 0 1.575-.705 1.575-1.575V177.83c0-.87-.705-1.575-1.575-1.575ZM179.559 214.045h-5.575a8.405 8.405 0 1 0 0 16.81h5.575a8.405 8.405 0 1 0 0-16.81ZM113.084 176.255h-5.84c-.87 0-1.575.705-1.575 1.575v16.555c0 .87.705 1.575 1.575 1.575h5.84c.87 0 1.575-.705 1.575-1.575V177.83c0-.87-.705-1.575-1.575-1.575Z"/></svg>