<svg xmlns="http://www.w3.org/2000/svg" width="401" height="401" fill="none" viewBox="0 0 401 401"><path fill="#DADADA" d="M331.365 96.98H137.92v114.554h193.445V96.98Z"/><path fill="#444" d="M237.149 205.024H45.904v114.11H237.15v-114.11Z"/><path fill="#222" d="M238.529 320.515H44.519V203.64h194.01v116.875Zm-191.245-2.77H235.76v-111.34H47.289v111.34h-.005Z"/><path fill="#fff" d="M310.07 120.064H64.55v181.365h245.52V120.064Z"/><path fill="#222" d="M311.455 302.815H63.165V118.68h248.29v184.135Zm-245.52-2.77H308.69V121.45H65.935v178.6-.005Z"/><path fill="#444" d="m378.36 274.975-6.52 3.894-109.325-20.995v-81.755l6.52-3.89 109.325 18.145v84.601Z"/><path fill="#222" d="M371.839 280.255c-.085 0-.175-.01-.26-.025l-109.325-20.995a1.387 1.387 0 0 1-1.125-1.36V176.12c0-.485.255-.94.675-1.19l6.52-3.895c.28-.17.615-.23.935-.175l109.325 18.15c.67.11 1.155.69 1.155 1.365v84.6c0 .485-.255.94-.675 1.19l-6.52 3.895c-.215.13-.46.195-.71.195h.005Zm-107.94-23.52 107.685 20.68 5.39-3.22v-82.64l-107.67-17.875-5.41 3.23v79.825h.005Z"/><path fill="#fff" d="M262.514 176.12v35.16l-13.755 7.965 13.755 13.63v25l109.325 20.995v-84.6l-109.325-18.15Z"/><path fill="#222" d="M371.839 280.255c-.085 0-.175-.01-.26-.025l-109.325-20.995a1.387 1.387 0 0 1-1.125-1.36V233.45l-13.345-13.225a1.38 1.38 0 0 1 .28-2.18l13.065-7.565v-34.36a1.382 1.382 0 0 1 1.61-1.365l109.325 18.15c.67.11 1.155.69 1.155 1.365v84.6a1.38 1.38 0 0 1-1.38 1.38v.005Zm-107.94-23.52 106.56 20.46v-81.75l-106.56-17.69v33.525c0 .495-.265.95-.69 1.2l-12.19 7.055 12.47 12.355c.26.26.41.615.41.985v23.86Z"/><path fill="#222" d="m271.862 188.559-.604 3.64 88.862 14.759.605-3.64-88.863-14.759ZM271.864 202.097l-.604 3.64 88.862 14.759.605-3.64-88.863-14.759ZM271.867 215.641l-.605 3.64 88.863 14.759.604-3.64-88.862-14.759ZM271.864 229.178l-.605 3.64 88.863 14.759.604-3.64-88.862-14.759ZM271.862 242.717l-.604 3.64 48.895 8.121.604-3.64-48.895-8.121Z"/><path fill="#FF3158" d="M182.155 230.8c-38.69 0-70.05 23.625-70.05 69.61h140.1c0-45.99-31.365-69.61-70.05-69.61Z"/><path fill="#222" d="M253.59 301.795H110.72v-1.385c0-22.11 7.25-40.46 20.965-53.07 12.755-11.725 30.21-17.925 50.47-17.925 20.26 0 37.715 6.2 50.47 17.925 13.715 12.61 20.965 30.96 20.965 53.07v1.385Zm-140.09-2.77h137.315c-.295-20.695-7.215-37.84-20.06-49.645-12.235-11.25-29.04-17.195-48.595-17.195s-36.36 5.945-48.595 17.195c-12.845 11.81-19.765 28.955-20.06 49.645h-.005Z"/><path fill="#DADADA" d="M182.235 242.069c23.088 0 41.805-18.717 41.805-41.805s-18.717-41.805-41.805-41.805c-23.089 0-41.805 18.717-41.805 41.805s18.716 41.805 41.805 41.805Z"/><path fill="#222" d="M182.235 243.454c-23.815 0-43.19-19.375-43.19-43.19 0-23.815 19.375-43.19 43.19-43.19 23.815 0 43.19 19.375 43.19 43.19 0 23.815-19.375 43.19-43.19 43.19Zm0-83.615c-22.29 0-40.425 18.135-40.425 40.425 0 22.29 18.135 40.425 40.425 40.425 22.29 0 40.425-18.135 40.425-40.425 0-22.29-18.135-40.425-40.425-40.425Z"/><path fill="#222" d="M231.045 188.645h-2.77c0-21.84-20.69-39.605-46.12-39.605-25.43 0-46.12 17.765-46.12 39.605h-2.77c0-23.365 21.93-42.375 48.89-42.375s48.89 19.01 48.89 42.375ZM200.23 238.485c-1.595 0-3.2-.13-4.8-.39l.445-2.73c8.1 1.325 16.33-1.1 23.17-6.825 6.895-5.775 11.555-14.205 13.11-23.73l2.73.445c-1.665 10.185-6.66 19.21-14.065 25.41-6.125 5.13-13.295 7.825-20.595 7.825l.005-.005Z"/><path fill="#222" d="M138.755 181.31h-10.27a2.77 2.77 0 0 0-2.77 2.77v29.125a2.77 2.77 0 0 0 2.77 2.77h10.27a2.77 2.77 0 0 0 2.77-2.77V184.08a2.77 2.77 0 0 0-2.77-2.77ZM236.595 181.31h-10.27a2.77 2.77 0 0 0-2.77 2.77v29.125a2.77 2.77 0 0 0 2.77 2.77h10.27a2.771 2.771 0 0 0 2.77-2.77V184.08a2.77 2.77 0 0 0-2.77-2.77Z"/><path fill="#222" d="M242.43 188.584h-6.135a1.65 1.65 0 0 0-1.65 1.65v17.395c0 .912.739 1.65 1.65 1.65h6.135a1.65 1.65 0 0 0 1.65-1.65v-17.395a1.65 1.65 0 0 0-1.65-1.65ZM202.81 228.27h-14.315a4.595 4.595 0 0 0-4.595 4.595v8.46a4.595 4.595 0 0 0 4.595 4.595h14.315a4.595 4.595 0 0 0 4.595-4.595v-8.46a4.595 4.595 0 0 0-4.595-4.595ZM128.78 188.584h-6.135a1.65 1.65 0 0 0-1.65 1.65v17.395c0 .912.739 1.65 1.65 1.65h6.135a1.65 1.65 0 0 0 1.65-1.65v-17.395a1.65 1.65 0 0 0-1.65-1.65Z"/><path fill="#F5F4F3" d="m33.815 188.874 6.765 3.435 69.095-9.315.07-82.47-6.65-3.6-69.835 3.76.555 88.19Z"/><path fill="#222" d="M40.58 193.694c-.215 0-.43-.05-.625-.15l-6.76-3.435a1.377 1.377 0 0 1-.755-1.225l-.555-88.19c0-.74.57-1.35 1.31-1.39l69.835-3.76c.255-.015.51.045.735.165l6.65 3.6c.445.24.725.71.725 1.22l-.07 82.47c0 .69-.515 1.28-1.2 1.37l-69.1 9.315c-.06.01-.125.01-.185.01h-.005Zm-5.385-5.67 5.625 2.855 67.47-9.095.065-80.435-5.58-3.02L34.65 102l.545 86.025Z"/><path fill="#444" d="m40.58 192.309 69.095-9.315.07-82.47-69.42 3.855.255 87.93Z"/><path fill="#222" d="M40.58 193.695c-.33 0-.655-.12-.91-.34-.3-.26-.475-.64-.475-1.04l-.25-87.93c0-.735.57-1.345 1.305-1.385l69.42-3.86c.38-.02.75.115 1.03.375.275.26.435.625.435 1.005l-.07 82.47c0 .69-.515 1.28-1.2 1.37l-69.1 9.315c-.06.01-.125.01-.185.01v.01Zm1.135-88.005.245 85.035 66.335-8.945.065-79.795-66.645 3.705Z"/><path fill="#fff" d="m69.165 153.539-.02-11.405c4.01-.83 7.01-1.99 9-3.49 1.985-1.495 2.975-3.625 2.975-6.395v-1.035c0-1.88-.57-3.22-1.705-4.025-1.135-.805-2.61-1.065-4.43-.775-1.975.315-3.61 1.175-4.905 2.58-1.295 1.405-2.175 3.065-2.63 4.985l-9.395-2.284a22.76 22.76 0 0 1 2-4.721c.87-1.565 2.015-3.02 3.425-4.37 1.405-1.345 3.095-2.52 5.06-3.525 1.96-1 4.235-1.705 6.815-2.105 2.625-.41 5.02-.41 7.18 0 2.155.405 4.005 1.15 5.555 2.24 1.545 1.085 2.725 2.495 3.545 4.235.82 1.735 1.23 3.73 1.23 5.99 0 2.06-.345 3.986-1.035 5.771a17.85 17.85 0 0 1-2.825 4.86 18.993 18.993 0 0 1-4.185 3.78 21.766 21.766 0 0 1-5.035 2.494v5.335l-10.615 1.87-.005-.01Zm5.505 17.22c-2.43.455-4.165.23-5.21-.665-1.045-.9-1.57-2.14-1.57-3.73v-1.79c-.005-1.59.515-3.025 1.555-4.305 1.04-1.28 2.78-2.135 5.21-2.57 2.425-.435 4.15-.2 5.18.7 1.03.9 1.545 2.14 1.55 3.715v1.775c0 1.575-.51 3.005-1.535 4.275-1.03 1.275-2.75 2.14-5.175 2.59l-.005.005Z"/><path fill="#222" d="M40.325 105.765a1.35 1.35 0 0 1-.64-.16l-7.065-3.695a1.387 1.387 0 0 1-.585-1.87 1.387 1.387 0 0 1 1.87-.585l7.065 3.695a1.387 1.387 0 0 1-.645 2.615ZM371.845 195.655a1.384 1.384 0 0 1-.71-2.575l6.52-3.895a1.39 1.39 0 0 1 1.9.48 1.39 1.39 0 0 1-.48 1.9l-6.52 3.895c-.22.135-.465.195-.71.195Z"/></svg>