<svg xmlns="http://www.w3.org/2000/svg" width="401" height="401" fill="none" viewBox="0 0 401 401"><path fill="#DADADA" d="m206.096 263.8-49.05 84.9h98.05l-49-84.9Z"/><path fill="#444" d="M343.796 66.35h-305.2V294h305.2V66.35Z"/><path fill="#222" d="M255.096 349.4h-98.05c-.5 0-.95-.25-1.2-.7a1.4 1.4 0 0 1 0-1.4l49-84.9c.25-.45.7-.7 1.2-.7s.95.25 1.2.7l49 84.9c.25.45.25.95 0 1.4-.2.45-.65.7-1.15.7Zm-95.6-2.75h93.25l-46.6-80.75-46.65 80.75Z"/><path fill="#fff" d="M363.496 75.25h-314.8V304.3h314.8V75.25Z"/><path fill="#222" d="M363.496 305.65h-314.8c-.75 0-1.4-.6-1.4-1.4v-229c0-.75.6-1.4 1.4-1.4h314.8c.75 0 1.4.6 1.4 1.4V304.3c0 .75-.65 1.4-1.4 1.35Zm-313.45-2.75h312.05V76.65h-312l-.05 226.25Z"/><path fill="#DADADA" d="M372.946 82.45h-314.8V311.5h314.8V82.45Z"/><path fill="#fff" d="M343.795 93.55H68.345v192.4h275.45V93.55Z"/><path fill="#222" d="M343.796 287.35H68.346c-.75 0-1.4-.6-1.4-1.4V93.55c0-.75.6-1.4 1.4-1.4h275.45c.75 0 1.4.6 1.4 1.4v192.4c0 .8-.6 1.4-1.4 1.4Zm-274.05-2.75h272.7V94.95h-272.7V284.6Z"/><path fill="#222" d="M363.496 305.65h-314.8c-.75 0-1.4-.6-1.4-1.4v-229c0-.75.6-1.4 1.4-1.4h314.8c.75 0 1.4.6 1.4 1.4V304.3c0 .75-.65 1.4-1.4 1.35Zm-313.45-2.75h312.05V76.65h-312l-.05 226.25Z"/><path fill="#F5F4F3" d="M195.996 110.1H91.446v72.2h104.55v-72.2Z"/><path fill="#DADADA" d="M175.746 146.7h-75.5v11.5h75.5v-11.5ZM190.346 167.5h-75.5V179h75.5v-11.5ZM163.496 128.2h-75.5v11.5h75.5v-11.5ZM175.746 109.4h-75.5v11.5h75.5v-11.5Z"/><path fill="#F5F4F3" d="M322.796 200.3h-104.55v72.2h104.55v-72.2Z"/><path fill="#DADADA" d="M313.996 224.4h-75.5v11.5h75.5v-11.5ZM299.396 203.601h-75.5v11.5h75.5v-11.5ZM326.246 242.851h-75.5v11.5h75.5v-11.5ZM313.996 261.65h-75.5v11.5h75.5v-11.5ZM324.146 110.1h-111.75v72.2h111.75v-72.2Z"/><path fill="#F5F4F3" d="M231.346 125.75h-11.55v47.65h11.55v-47.65ZM310.396 101.95h-11.55v47.65h11.55v-47.65ZM252.446 132.75h-11.55v53.95h11.55v-53.95ZM273.746 102.899h-11.55v66h11.55v-66ZM293.846 132.75h-11.55v47.65h11.55v-47.65ZM329.896 141.45h-11.55v47.65h11.55v-47.65ZM195.946 197.6H87.996v74.55h107.95V197.6Z"/><path fill="#fff" d="M153.951 227.62c.55-7.741-5.279-14.461-13.019-15.011-7.74-.55-14.461 5.279-15.011 13.019-.55 7.74 5.279 14.46 13.019 15.011 7.74.55 14.461-5.279 15.011-13.019ZM113.346 264.7c6.627 0 12-5.372 12-12 0-6.627-5.373-12-12-12s-12 5.373-12 12c0 6.628 5.373 12 12 12Z"/><path fill="#DADADA" d="M111.646 237.55c9.831 0 17.8-7.969 17.8-17.8 0-9.83-7.969-17.8-17.8-17.8s-17.8 7.97-17.8 17.8c0 9.831 7.969 17.8 17.8 17.8ZM173.446 222.55a7.65 7.65 0 1 0 0-15.3 7.65 7.65 0 0 0 0 15.3ZM129.446 262.35a7.65 7.65 0 1 0 0-15.3 7.65 7.65 0 0 0 0 15.3ZM153.996 250.95c5.661 0 10.25-4.589 10.25-10.25s-4.589-10.25-10.25-10.25-10.25 4.589-10.25 10.25 4.589 10.25 10.25 10.25Z"/><path fill="#fff" d="M173.446 268.75c9.83 0 17.8-7.969 17.8-17.8 0-9.83-7.97-17.8-17.8-17.8-9.831 0-17.8 7.97-17.8 17.8 0 9.831 7.969 17.8 17.8 17.8Z"/><path fill="#fff" d="M133.146 160.101h136.15c1.8 0 3.25 1.45 3.25 3.25v93.7c0 1.8-1.45 3.25-3.25 3.25h-136.15c-1.8 0-3.25-1.45-3.25-3.25v-93.7c0-1.8 1.45-3.25 3.25-3.25Z"/><path fill="#444" d="M245.496 125.351c-.2-24.25-19.95-43.85-44.25-43.85s-44.05 19.6-44.25 43.85v34.75h18.15V126.701c.15-14.3 11.8-25.9 26.15-25.9 14.35 0 26 11.55 26.15 25.9v33.5h18.05v-34.85Z"/><path fill="#222" d="M245.496 161.501h-18.15c-.75 0-1.4-.6-1.4-1.4v-33.45c-.1-13.5-11.25-24.5-24.75-24.5s-24.6 11-24.75 24.5V160.101c0 .75-.6 1.4-1.4 1.4h-18.15c-.75 0-1.4-.6-1.4-1.4v-34.9c.15-12.05 4.95-23.4 13.5-31.9 8.6-8.55 20-13.25 32.15-13.25 12.15 0 23.55 4.7 32.15 13.25 8.55 8.5 13.35 19.8 13.5 31.85v34.95c.1.8-.55 1.4-1.3 1.4Zm-16.75-2.8h15.35v-33.35c-.1-11.35-4.6-22.05-12.7-30.05s-18.8-12.45-30.2-12.45c-11.4 0-22.1 4.4-30.2 12.45-8.1 8-12.6 18.7-12.7 30.05v33.35h15.35v-32.2c.2-15 12.5-27.2 27.5-27.2s27.3 12.15 27.5 27.15v.15l.1 32.1Z"/><path fill="#FF3158" d="M133.146 160.101h136.15c1.8 0 3.25 1.45 3.25 3.25v93.7c0 1.8-1.45 3.25-3.25 3.25h-136.15c-1.8 0-3.25-1.45-3.25-3.25v-93.7c0-1.8 1.45-3.25 3.25-3.25Z"/><path fill="#222" d="M269.246 261.7h-136.1c-2.55 0-4.65-2.1-4.65-4.65v-93.7c0-2.55 2.05-4.65 4.65-4.65h136.15c2.55 0 4.65 2.05 4.65 4.65v93.7c-.05 2.55-2.1 4.65-4.7 4.65Zm-136.1-100.2c-1 0-1.85.85-1.85 1.85v93.7c0 1 .85 1.85 1.85 1.85h136.15c1 0 1.85-.85 1.85-1.85v-93.7c0-1-.85-1.85-1.85-1.85h-136.15Z"/><path fill="#fff" d="M216.546 195.301c0-8.45-6.85-15.3-15.3-15.3-8.45 0-15.3 6.85-15.3 15.3 0 4.8 2.2 9.05 5.65 11.85v30.05h19.4v-30.05c3.35-2.8 5.55-7.1 5.55-11.85Z"/><path fill="#222" d="M210.896 238.601h-19.4c-.75 0-1.4-.6-1.4-1.4v-29.45c-3.6-3.2-5.65-7.7-5.65-12.5 0-9.2 7.5-16.7 16.7-16.7s16.7 7.5 16.7 16.7c0 4.8-2.05 9.35-5.65 12.5v29.45c.1.8-.55 1.4-1.3 1.4Zm-18-2.8h16.6v-28.7c0-.4.2-.8.5-1.05 3.25-2.65 5.1-6.6 5.1-10.8 0-7.7-6.25-13.95-13.95-13.95-7.7 0-13.95 6.25-13.95 13.95 0 4.2 1.85 8.1 5.1 10.8.3.25.5.65.5 1.05l.1 28.7Z"/><path fill="#fff" d="M216.846 195.301c0-9.65-7.8-15-17.45-15-9.65 0-17.45 7.8-17.45 17.45 0 5.45 2.5 10.3 6.4 13.5v28.85h22.1v-32.95c3.9-3.2 6.4-6.4 6.4-11.85Z"/><path fill="#222" d="M210.896 238.601h-19.4c-.75 0-1.4-.6-1.4-1.4v-29.45c-3.6-3.2-5.65-7.7-5.65-12.5 0-9.2 7.5-16.7 16.7-16.7s16.7 7.5 16.7 16.7c0 4.8-2.05 9.35-5.65 12.5v29.45c.1.8-.55 1.4-1.3 1.4Zm-18-2.8h16.6v-28.7c0-.4.2-.8.5-1.05 3.25-2.65 5.1-6.6 5.1-10.8 0-7.7-6.25-13.95-13.95-13.95-7.7 0-13.95 6.25-13.95 13.95 0 4.2 1.85 8.1 5.1 10.8.3.25.5.65.5 1.05l.1 28.7Z"/><path fill="#fff" d="m240.546 229.3 12.95-12.3 25.7 27.3 45.6-51.45 11.3 13.65-56.9 63.6-38.65-40.8Z"/><path fill="#444" d="m240.546 231 12.95-12.3 25.7 27.35 45.6-51.5 11.3 13.65-56.9 63.6-38.65-40.8Z"/><path fill="#222" d="M279.196 271.45c-.4 0-.75-.15-1-.45l-38.7-40.75c-.25-.25-.4-.6-.4-1s.15-.7.45-.95l13-12.3c.25-.25.6-.4 1-.4.35 0 .7.15 1 .45l24.65 26.25 44.6-50.35c.25-.3.65-.5 1.05-.45.4.05.8.2 1.05.5l11.3 13.7c.45.55.4 1.3-.05 1.8l-56.9 63.5c-.3.3-.65.45-1.05.45Zm-36.7-42.1 36.65 38.7 55.1-61.55-9.5-11.5-44.5 50.3c-.25.3-.65.45-1 .45-.4 0-.75-.15-1.05-.45l-24.75-26.3-10.95 10.35Z"/></svg>