<svg xmlns="http://www.w3.org/2000/svg" width="400" height="400" fill="none" viewBox="0 0 400 400"><path fill="#DADADA" d="M384.282 325.658h-246.14l-99.306-58.067v-15.904l235.229-2.589 110.217 64.725v11.835Z"/><path fill="#222" d="M384.282 327.138h-246.14c-.185 0-.554 0-.739-.185l-99.307-58.067c-.37-.185-.74-.74-.74-1.11v-15.904c0-.74.555-1.294 1.295-1.479l235.229-2.589c.185 0 .555 0 .739.185l110.033 64.725c.37.184.74.739.74 1.109v12.02c.184.555-.37 1.295-1.11 1.295Zm-245.77-2.774h244.291v-9.801l-109.108-64.17-233.565 2.589v13.684l98.382 57.698Z"/><path fill="#fff" d="M384.28 313.823H138.14l-91.724-53.629h246.14l91.724 53.629Z"/><path fill="#222" d="M384.281 315.117h-246.14c-.185 0-.555.001-.74-.184l-91.724-53.63c-.555-.369-.74-.924-.555-1.479.185-.555.74-1.11 1.295-1.11h246.139c.185 0 .555 0 .74.185l91.724 53.63c.555.369.74.924.555 1.479-.185.74-.74 1.109-1.294 1.109Zm-245.77-2.773h240.592l-86.917-50.856H51.595l86.916 50.856Z"/><path fill="#222" d="M138.142 327.138c-.74 0-1.48-.554-1.48-1.479v-12.02c0-.74.555-1.48 1.48-1.48.924 0 1.479.555 1.479 1.48v12.02c-.185.74-.74 1.479-1.479 1.479Z"/><path fill="#DADADA" d="M292.558 260.194H46.418l-7.582-4.438V64.91h242.441l11.281 7.212v188.072Z"/><path fill="#222" d="M292.558 261.489H46.418c-.185 0-.555 0-.74-.185l-7.582-4.438c-.37-.185-.74-.74-.74-1.11V64.91c0-.74.555-1.48 1.48-1.48h242.441c.185 0 .555 0 .74.186l11.28 7.212c.37.185.555.74.555 1.11v188.071c0 .925-.555 1.48-1.294 1.48Zm-245.77-2.774h244.29V72.862l-10.171-6.472H40.315v188.626l6.473 3.699Z"/><path fill="#fff" d="M292.557 72.122H46.417v188.072h246.14V72.122Z"/><path fill="#222" d="M292.557 261.489H46.417c-.74 0-1.48-.555-1.48-1.48V72.122c0-.74.555-1.48 1.48-1.48h246.14c.739 0 1.479.555 1.479 1.48v188.072c-.185.74-.74 1.295-1.479 1.295Zm-244.66-2.774h243.365V73.417H47.896v185.298Z"/><path fill="#DADADA" d="M277.761 87.286H61.21v163.107h216.551V87.286Z"/><path fill="#222" d="M277.762 251.687H61.211c-.74 0-1.48-.554-1.48-1.479V87.286c0-.74.555-1.48 1.48-1.48h216.551c.74 0 1.479.555 1.479 1.48v163.107c-.185.74-.739 1.294-1.479 1.294ZM62.69 248.913h213.777V88.765H62.69v160.148ZM46.417 73.416c-.37 0-.74-.185-.925-.37l-7.582-7.212a1.451 1.451 0 0 1 0-2.034 1.451 1.451 0 0 1 2.034 0l7.582 7.212c.555.555.555 1.48 0 2.034-.37.185-.74.37-1.11.37Z"/><path fill="#444" d="m304.577 284.975-15.349-9.062h-21.082l15.534 9.062h20.897ZM252.242 284.975l-15.718-9.062h-22.747l15.719 9.062h22.746ZM250.208 265.557l14.239 8.322h21.082l-14.054-8.322h-21.267ZM279.426 284.975l-15.719-9.062h-22.746l15.534 9.062h22.931ZM195.839 265.557l14.239 8.322h22.747l-14.24-8.322h-22.746ZM223.023 265.557l14.24 8.322h22.746l-14.239-8.322h-22.747ZM168.655 265.557l14.24 8.322h22.746l-14.055-8.322h-22.931ZM170.689 284.975l-15.534-9.062h-22.746l15.534 9.062h22.746ZM225.058 284.975l-15.534-9.062h-22.931l15.719 9.062h22.746ZM107.073 275.913l15.349 9.062h21.082l-15.534-9.062h-20.897ZM197.874 284.975l-15.534-9.062h-22.931l15.719 9.062h22.746ZM141.655 265.557l14.055 8.322h22.746l-14.055-8.322h-22.746ZM299.029 296.44l-15.904-9.246h-22.746l15.904 9.246h22.746ZM271.845 296.44l-15.904-9.246h-22.746l15.904 9.246h22.746ZM244.66 296.44l-15.904-9.246H206.01l15.904 9.246h22.746ZM323.994 296.44l-15.719-9.246h-20.712l15.904 9.246h20.527ZM89.32 265.557l14.055 8.322h20.712l-14.055-8.322H89.32ZM114.471 265.557l14.054 8.322h22.746l-14.054-8.322h-22.746ZM190.292 296.44l-15.904-9.246h-22.746l15.903 9.246h22.747ZM217.476 296.44l-15.904-9.246h-22.746l15.904 9.246h22.746ZM163.106 296.44l-15.719-9.246h-21.081l15.719 9.246h21.081Z"/><path fill="#222" d="M169.025 82.478a2.774 2.774 0 1 0 0-5.548 2.774 2.774 0 0 0 0 5.548Z"/><path fill="#FF3158" d="M74.156 227.647a6.103 6.103 0 1 0 0-12.206 6.103 6.103 0 0 0 0 12.206Z"/><path fill="#222" d="M74.156 229.126c-4.068 0-7.582-3.329-7.582-7.582s3.329-7.582 7.582-7.582c4.254 0 7.582 3.329 7.582 7.582s-3.513 7.582-7.582 7.582Zm0-12.39c-2.589 0-4.808 2.219-4.808 4.808s2.22 4.808 4.808 4.808c2.59 0 4.808-2.219 4.808-4.808s-2.219-4.808-4.808-4.808Z"/><path fill="#F5F4F3" d="M97.273 233.935a6.103 6.103 0 1 0-.001-12.206 6.103 6.103 0 0 0 0 12.206Z"/><path fill="#222" d="M97.272 235.414c-4.068 0-7.582-3.329-7.582-7.582s3.33-7.582 7.582-7.582c4.254 0 7.583 3.329 7.583 7.582s-3.329 7.582-7.583 7.582Zm0-12.39c-2.589 0-4.808 2.219-4.808 4.808s2.22 4.808 4.808 4.808c2.59 0 4.809-2.219 4.809-4.808s-2.22-4.808-4.809-4.808Z"/><path fill="#F5F4F3" d="M104.855 209.709a6.103 6.103 0 1 0-.002-12.206 6.103 6.103 0 0 0 .002 12.206Z"/><path fill="#222" d="M104.855 211.188c-4.069 0-7.583-3.329-7.583-7.582 0-4.068 3.329-7.582 7.583-7.582 4.253 0 7.582 3.329 7.582 7.582-.185 4.253-3.514 7.582-7.582 7.582Zm0-12.205c-2.589 0-4.809 2.219-4.809 4.808s2.22 4.808 4.809 4.808 4.808-2.219 4.808-4.808c-.185-2.774-2.219-4.808-4.808-4.808Z"/><path fill="#FF3158" d="M128.71 223.393a6.103 6.103 0 1 0 0-12.206 6.103 6.103 0 0 0 0 12.206Z"/><path fill="#222" d="M128.71 224.873c-4.068 0-7.582-3.329-7.582-7.582 0-4.069 3.329-7.583 7.582-7.583s7.582 3.329 7.582 7.583c0 4.068-3.329 7.582-7.582 7.582Zm0-12.391c-2.589 0-4.808 2.22-4.808 4.809s2.219 4.808 4.808 4.808 4.808-2.219 4.808-4.808-2.219-4.809-4.808-4.809Z"/><path fill="#DADADA" d="M130.56 193.989a6.102 6.102 0 0 0 0-12.205 6.102 6.102 0 1 0 0 12.205Z"/><path fill="#222" d="M130.56 195.284c-4.069 0-7.582-3.328-7.582-7.582 0-4.068 3.328-7.582 7.582-7.582 4.253 0 7.582 3.329 7.582 7.582 0 4.254-3.514 7.582-7.582 7.582Zm0-12.205c-2.589 0-4.809 2.219-4.809 4.808s2.22 4.808 4.809 4.808 4.808-2.219 4.808-4.808c0-2.774-2.219-4.808-4.808-4.808ZM91.17 228.572h-.37l-11.096-3.884c-.74-.185-1.11-1.109-.924-1.849.184-.74 1.11-1.11 1.849-.925l11.096 3.884c.74.185 1.11 1.109.924 1.849-.37.555-.924.925-1.48.925ZM99.492 223.393h-.37c-.74-.185-1.11-.924-.924-1.664l3.513-12.575c.185-.74.925-1.11 1.665-.925.739.185 1.109.925.924 1.665l-3.513 12.575c-.185.555-.74.924-1.295.924ZM123.347 215.627c-.185 0-.555 0-.74-.185l-12.76-8.322c-.554-.37-.739-1.294-.369-1.849.369-.555 1.294-.74 1.849-.37l12.76 8.322c.555.37.74 1.294.37 1.849-.185.37-.74.555-1.11.555Z"/><path fill="#222" d="M129.635 212.483c-.74 0-1.48-.74-1.48-1.479l.74-17.199c0-.739.555-1.294 1.479-1.294.74 0 1.295.739 1.295 1.479l-.74 17.199c0 .739-.555 1.294-1.294 1.294Z"/><path fill="#DADADA" d="M109.109 168.47c18.996 0 34.396-15.4 34.396-34.397s-15.4-34.397-34.396-34.397c-18.997 0-34.397 15.4-34.397 34.397s15.4 34.397 34.397 34.397Z"/><path fill="#222" d="M109.108 169.764c-19.602 0-35.691-16.089-35.691-35.691 0-19.602 16.089-35.691 35.691-35.691 19.603 0 35.691 16.089 35.691 35.691 0 19.602-16.088 35.691-35.691 35.691Zm0-68.608c-18.123 0-32.917 14.794-32.917 32.917s14.794 32.917 32.917 32.917 32.917-14.794 32.917-32.917-14.794-32.917-32.917-32.917Z"/><path fill="#222" d="M109.107 135.368c-.369 0-.924-.185-1.109-.555-.37-.555-.37-1.48.37-1.849l27.739-19.603c.555-.37 1.479-.37 1.849.37.37.555.37 1.479-.37 1.849l-27.739 19.603c-.185.185-.555.185-.74.185Z"/><path fill="#F5F4F3" d="M142.949 139.991c.37-2.035.555-3.884.555-5.918 0-7.397-2.404-14.24-6.287-19.787l-.37.185-27.74 19.602 33.842 5.918Z"/><path fill="#222" d="M142.95 141.47h-.185l-33.657-5.918a1.666 1.666 0 0 1-1.11-1.109c-.185-.555.185-1.11.555-1.48l28.109-19.787c.555-.37 1.48-.37 1.85.37 4.253 6.103 6.472 13.13 6.472 20.527a34.05 34.05 0 0 1-.555 6.103v.185c-.185.554-.739 1.109-1.479 1.109Zm-30.328-8.322 29.033 5.178c.185-1.479.37-2.959.37-4.438 0-6.288-1.849-12.575-5.178-17.753l-24.225 17.013Z"/><path fill="#222" d="m142.949 139.991-33.657-5.918s-.185 0-.185.185l7.398 33.287c13.499-2.959 24.04-13.869 26.444-27.554Z"/><path fill="#222" d="M116.504 168.84c-.555 0-1.294-.37-1.294-1.11l-7.397-33.287c-.185-.74.369-1.479.924-1.664.185-.185.555-.185.74 0l33.657 5.918c.37 0 .74.184.925.554.185.37.369.74.369 1.11-2.589 14.239-13.314 25.52-27.369 28.664-.37-.185-.37-.185-.555-.185Zm-5.548-33.102 6.658 30.143c11.835-3.144 20.897-12.76 23.671-24.78l-30.329-5.363Z"/><path fill="#FF3158" d="m100.785 100.786 8.322 33.287 24.78-17.568 3.144-2.034c-3.329-5.918-16.274-18.308-36.246-13.685Z"/><path fill="#222" d="M109.108 135.368h-.555a2.23 2.23 0 0 1-.925-.925l-8.321-33.287c0-.37 0-.74.185-1.11.184-.37.554-.555.924-.555 20.157-4.623 33.657 7.213 37.911 14.24.369.555.184 1.479-.37 1.849l-3.144 2.034-24.781 17.569c-.369.185-.554.185-.924.185Zm-6.658-33.657 7.398 29.958 25.335-17.753c-4.439-6.288-15.904-15.35-32.733-12.205Z"/><path fill="#fff" d="M254.091 110.217h-89.32v19.973h89.32v-19.973Z"/><path fill="#222" d="M254.091 131.669H164.77c-.739 0-1.479-.555-1.479-1.48v-19.972c0-.739.555-1.479 1.479-1.479h89.136c.74 0 1.479.555 1.479 1.479v20.157c0 .74-.554 1.295-1.294 1.295Zm-87.841-2.774h86.546v-17.383H166.25v17.383Z"/><path fill="#DADADA" d="M261.858 103.93h-89.32v19.972h89.32V103.93Z"/><path fill="#222" d="M261.673 125.381h-89.135c-.74 0-1.479-.554-1.479-1.479V103.93c0-.74.554-1.48 1.479-1.48h89.135c.74 0 1.48.555 1.48 1.48v20.157c0 .74-.555 1.294-1.48 1.294Zm-87.84-2.774h86.546v-17.198h-86.546v17.198Z"/><path fill="#fff" d="m188.627 152.381-10.171-9.801v45.492h-14.979l-18.678-18.123v51.965l18.678 17.199H266.112v-86.732h-77.485Z"/><path fill="#DADADA" d="m163.847 194.729-16.089-14.979v37.725l49.191-.554 18.678 16.273v-38.465h-51.78ZM191.216 160.148v22.561l-9.616-9.061v-22.562l9.616 9.062Z"/><path fill="#FF3158" d="M253.537 211.188h-25.15v27.924h25.15v-27.924ZM196.764 221.544h-51.965l19.047 17.569h51.965l-19.047-17.569Z"/><path fill="#222" d="M215.811 196.024h-51.964c-.74 0-1.48-.555-1.48-1.479v-7.398c0-.739.555-1.479 1.48-1.479h51.964c.74 0 1.48.555 1.48 1.479v7.398c-.185.924-.74 1.479-1.48 1.479Zm-50.67-2.774h49.191v-4.623h-49.191v4.623ZM266.112 160.888h-75.635c-.74 0-1.48-.555-1.48-1.48v-6.657c0-.74.555-1.48 1.48-1.48h75.635c.74 0 1.48.555 1.48 1.48v6.657c0 .74-.555 1.48-1.48 1.48Zm-74.156-2.774h72.862v-3.884h-72.862v3.884ZM253.537 240.592h-25.15c-.74 0-1.48-.555-1.48-1.48v-27.924c0-.74.555-1.48 1.48-1.48h25.15c.74 0 1.479.555 1.479 1.48v27.924c0 .925-.739 1.48-1.479 1.48Zm-23.856-2.774h22.376v-25.151h-22.376v25.151Z"/><path fill="#222" d="M240.962 240.592c-.74 0-1.48-.555-1.48-1.48v-27.924c0-.74.555-1.48 1.48-1.48.924 0 1.479.555 1.479 1.48v27.924c-.185.925-.739 1.48-1.479 1.48ZM228.387 240.592h-12.576c-.739 0-1.479-.555-1.479-1.48v-79.704c0-.74.555-1.479 1.479-1.479h12.576c.739 0 1.479.554 1.479 1.479v79.704c-.185.74-.74 1.48-1.479 1.48Zm-11.281-2.774h9.801v-76.93h-9.801v76.93Z"/><path fill="#222" d="M215.811 188.627h-12.575c-.739 0-1.479-.555-1.479-1.48v-27.739c0-.74.555-1.479 1.479-1.479h12.575c.74 0 1.48.554 1.48 1.479v27.739c-.185.74-.74 1.48-1.48 1.48Zm-11.28-2.774h9.801v-24.965h-9.801v24.965Z"/><path fill="#222" d="M203.052 188.627h-12.575c-.74 0-1.48-.555-1.48-1.48v-27.739c0-.74.555-1.479 1.48-1.479h12.575c.739 0 1.479.554 1.479 1.479v27.739c0 .74-.74 1.48-1.479 1.48Zm-11.096-2.774h9.801v-24.965h-9.801v24.965ZM240.962 212.483h-12.575c-.74 0-1.48-.555-1.48-1.48v-51.779c0-.74.555-1.48 1.48-1.48h12.575c.74 0 1.479.555 1.479 1.48v51.779c-.185.925-.739 1.48-1.479 1.48Zm-11.281-2.774h9.801v-48.821h-9.801v48.821Z"/><path fill="#222" d="M253.537 212.483h-12.575c-.74 0-1.48-.555-1.48-1.48v-51.779c0-.74.555-1.48 1.48-1.48h12.575c.74 0 1.479.555 1.479 1.48v51.779c0 .925-.739 1.48-1.479 1.48Zm-11.281-2.774h9.802v-48.821h-9.802v48.821Z"/><path fill="#222" d="M266.111 240.592h-12.575c-.74 0-1.479-.555-1.479-1.48v-79.704c0-.74.554-1.479 1.479-1.479h12.575c.74 0 1.48.554 1.48 1.479v79.704c0 .74-.555 1.48-1.48 1.48Zm-11.096-2.774h9.802v-76.93h-9.802v76.93ZM215.812 240.592h-51.965c-.37 0-.74-.185-.925-.37l-19.047-17.569c-.37-.184-.37-.554-.37-.924v-52.15c0-.74.555-1.479 1.479-1.479h34.027c.74 0 1.48.554 1.48 1.479s-.555 1.479-1.48 1.479h-32.917v49.931l18.123 16.829h50.115v-41.794h-49.19v36.985c0 .74-.555 1.48-1.48 1.48-.925 0-1.479-.555-1.479-1.48v-38.465c0-.739.554-1.479 1.479-1.479h51.965c.74 0 1.479.555 1.479 1.479v44.568c0 .925-.554 1.48-1.294 1.48Z"/><path fill="#222" d="M163.847 240.592c-.74 0-1.48-.555-1.48-1.48v-51.41l-18.677-17.198a1.45 1.45 0 0 1 0-2.034 1.45 1.45 0 0 1 2.034 0l19.047 17.568c.37.185.37.555.37 1.11v51.964c0 .925-.555 1.48-1.294 1.48ZM190.476 188.627c-.74 0-1.479-.555-1.479-1.479v-33.842l-11.281-10.541a1.45 1.45 0 0 1 0-2.034 1.45 1.45 0 0 1 2.034 0l11.836 10.91c.369.185.369.555.369.925v34.397c0 .924-.739 1.664-1.479 1.664Z"/><path fill="#222" d="M190.477 188.627c-.37 0-.74-.185-.925-.37l-11.835-10.911c-.37-.185-.37-.555-.37-1.11V141.84c0-.74.554-1.48 1.479-1.48h75.636c.37 0 .74.185.924.37l11.836 10.911a1.45 1.45 0 0 1 0 2.034 1.45 1.45 0 0 1-2.034 0l-11.466-10.541h-73.601v32.548l11.28 10.541a1.45 1.45 0 0 1 0 2.034c-.185.185-.555.37-.924.37ZM266.112 240.592h-69.533c-.74 0-1.479-.555-1.479-1.479 0-.925.554-1.48 1.479-1.48h68.054v-50.67c0-.74.554-1.48 1.479-1.48s1.48.555 1.48 1.48v51.965c0 1.109-.555 1.664-1.48 1.664Z"/><path fill="#222" d="M215.811 240.592c-.37 0-.74-.185-.924-.37l-19.048-17.753a1.45 1.45 0 0 1 0-2.034 1.45 1.45 0 0 1 2.034 0l19.048 17.568a1.45 1.45 0 0 1 0 2.034c-.37.37-.74.555-1.11.555Z"/><path fill="#222" d="M196.764 222.839h-51.965c-.74 0-1.48-.555-1.48-1.479 0-.925.555-1.48 1.48-1.48h50.67v-25.89c0-.74.555-1.479 1.48-1.479.924 0 1.479.555 1.479 1.479v27.37c-.37.924-.925 1.479-1.664 1.479ZM163.847 196.024a1.41 1.41 0 0 1-.924-.37l-19.048-17.568a1.45 1.45 0 0 1 0-2.034 1.45 1.45 0 0 1 2.034 0l19.048 17.568a1.45 1.45 0 0 1 0 2.034c-.37.185-.74.37-1.11.37ZM190.476 161.257c-.37 0-.74-.185-.925-.37l-11.835-10.91a1.452 1.452 0 0 1 0-2.035 1.452 1.452 0 0 1 2.034 0l11.836 10.911c.554.555.554 1.48 0 2.034-.37.185-.74.37-1.11.37ZM254.462 141.84h-75.636l11.651 10.911h75.635l-11.65-10.911ZM178.826 176.237v-6.658h-34.027l1.479 1.48 17.568 16.088h26.63l-11.65-10.91Z"/></svg>