<svg xmlns="http://www.w3.org/2000/svg" width="400" height="401" fill="none" viewBox="0 0 400 401"><path fill="#444" d="M351.993 127.162H86.933v199.629h265.06V127.162Z"/><path fill="#222" d="M351.993 328.275H86.933c-.742 0-1.483-.556-1.483-1.483V127.163c0-.742.556-1.483 1.483-1.483h265.06c.741 0 1.483.556 1.483 1.483v199.629c-.186.741-.742 1.483-1.483 1.483ZM88.23 325.494h262.28V128.645H88.23v196.849Z"/><path fill="#DADADA" d="M374.05 263.399H172.567v25.58H374.05v-25.58Z"/><path fill="#222" d="M374.05 290.462H172.382c-.742 0-1.483-.556-1.483-1.483V263.4c0-.742.556-1.483 1.483-1.483h201.483c.741 0 1.482.556 1.482 1.483v25.579c0 .742-.556 1.483-1.297 1.483Zm-200.185-2.78h198.702v-22.799H173.865v22.799Z"/><path fill="#DADADA" d="M291.196 73.04H89.713v25.578h201.483V73.04Z"/><path fill="#222" d="M291.196 99.916H89.713c-.741 0-1.483-.556-1.483-1.483V73.04c0-.74.556-1.482 1.483-1.482h201.483c.741 0 1.483.556 1.483 1.483v25.579c0 .741-.556 1.297-1.483 1.297Zm-200-2.78h198.702V74.337H91.196v22.799Z"/><path fill="#fff" d="M338.276 96.023H53.012v214.829h285.264V96.023Z"/><path fill="#222" d="M338.276 312.15H53.012c-.741 0-1.483-.556-1.483-1.483V96.024c0-.742.556-1.483 1.483-1.483h285.264c.742 0 1.483.556 1.483 1.483v214.828c-.185.742-.741 1.298-1.483 1.298Zm-283.78-2.78h282.483V97.321H54.495V309.37Z"/><path fill="#FF3158" d="M206.117 124.939c5.938 0 10.751-4.813 10.751-10.751 0-5.937-4.813-10.75-10.751-10.75-5.937 0-10.751 4.813-10.751 10.75 0 5.938 4.814 10.751 10.751 10.751Z"/><path fill="#222" d="M206.117 126.422c-6.673 0-12.234-5.561-12.234-12.233 0-6.673 5.561-12.234 12.234-12.234s12.234 5.561 12.234 12.234c0 6.672-5.561 12.233-12.234 12.233Zm0-21.687c-5.19 0-9.453 4.264-9.453 9.454s4.263 9.453 9.453 9.453c5.19 0 9.453-4.263 9.453-9.453 0-5.19-4.263-9.454-9.453-9.454Z"/><path fill="#fff" d="M243.744 143.474c5.938 0 10.751-4.813 10.751-10.751 0-5.937-4.813-10.75-10.751-10.75-5.937 0-10.75 4.813-10.75 10.75 0 5.938 4.813 10.751 10.75 10.751Z"/><path fill="#222" d="M243.744 144.957c-6.673 0-12.233-5.56-12.233-12.233 0-6.673 5.56-12.234 12.233-12.234 6.673 0 12.234 5.561 12.234 12.234s-5.561 12.233-12.234 12.233Zm0-21.686c-5.19 0-9.453 4.263-9.453 9.453 0 5.19 4.263 9.453 9.453 9.453 5.19 0 9.453-4.263 9.453-9.453 0-5.19-4.263-9.453-9.453-9.453Z"/><path fill="#fff" d="M264.69 104.364c5.937 0 10.75-4.814 10.75-10.751 0-5.937-4.813-10.75-10.75-10.75-5.938 0-10.751 4.813-10.751 10.75s4.813 10.751 10.751 10.751Z"/><path fill="#222" d="M264.689 105.847c-6.672 0-12.233-5.561-12.233-12.234 0-6.672 5.561-12.233 12.233-12.233 6.673 0 12.234 5.56 12.234 12.233 0 6.673-5.561 12.234-12.234 12.234Zm0-21.687c-5.189 0-9.453 4.263-9.453 9.453 0 5.19 4.264 9.454 9.453 9.454 5.19 0 9.454-4.264 9.454-9.454s-4.264-9.453-9.454-9.453Z"/><path fill="#FF3158" d="M301.39 135.689c5.938 0 10.751-4.813 10.751-10.751 0-5.937-4.813-10.75-10.751-10.75-5.937 0-10.751 4.813-10.751 10.75 0 5.938 4.814 10.751 10.751 10.751Z"/><path fill="#222" d="M301.39 137.172c-6.673 0-12.233-5.561-12.233-12.233 0-6.673 5.56-12.234 12.233-12.234 6.673 0 12.234 5.561 12.234 12.234 0 6.858-5.561 12.233-12.234 12.233Zm0-21.501c-5.19 0-9.453 4.263-9.453 9.453 0 5.19 4.263 9.453 9.453 9.453 5.19 0 9.453-4.263 9.453-9.453 0-5.375-4.263-9.453-9.453-9.453Z"/><path fill="#fff" d="M314.365 85.643c5.938 0 10.751-4.813 10.751-10.75 0-5.938-4.813-10.751-10.751-10.751-5.937 0-10.751 4.813-10.751 10.75 0 5.938 4.814 10.751 10.751 10.751Z"/><path fill="#222" d="M314.365 87.126c-6.673 0-12.233-5.56-12.233-12.233 0-6.673 5.56-12.234 12.233-12.234 6.673 0 12.234 5.56 12.234 12.234 0 6.858-5.561 12.233-12.234 12.233Zm0-21.501c-5.19 0-9.453 4.263-9.453 9.453 0 5.19 4.263 9.453 9.453 9.453 5.19 0 9.453-4.263 9.453-9.453 0-5.375-4.263-9.453-9.453-9.453ZM233.364 130.87c-.185 0-.556 0-.741-.185l-17.794-10.38c-.742-.371-.927-1.298-.556-1.854.37-.741 1.297-.926 1.853-.556l17.794 10.38c.742.371.927 1.298.556 1.854 0 .556-.556.741-1.112.741ZM249.49 124.939c-.185 0-.371 0-.556-.185-.741-.371-.927-1.112-.556-1.854l10.195-20.389c.37-.741 1.112-.927 1.853-.556.742.371.927 1.112.556 1.853l-10.194 20.39c-.371.556-.742.741-1.298.741ZM293.049 119.564c-.37 0-.741-.186-.926-.371l-19.278-18.536a1.455 1.455 0 0 1 0-2.039 1.455 1.455 0 0 1 2.039 0l19.277 18.536a1.453 1.453 0 0 1 0 2.039c-.37.185-.741.371-1.112.371Z"/><path fill="#222" d="M304.912 116.227h-.371c-.741-.186-1.297-.927-1.112-1.669l6.858-29.286c.186-.741.927-1.297 1.669-1.112.741.185 1.297.927 1.112 1.668l-6.858 29.287c-.186.556-.742 1.112-1.298 1.112Z"/><path fill="#fff" d="m221.316 181.473-13.346-12.789v59.499h-19.648l-24.467-23.726v68.026l24.653 22.614h134.198V181.473h-101.39Z"/><path fill="#DADADA" d="m188.693 236.894-20.945-19.462v49.119l64.319-.556 24.467 21.316v-50.417h-67.841ZM224.652 191.668v29.471l-12.604-11.677V179.99l12.604 11.678Z"/><path fill="#FF3158" d="M306.209 258.396h-32.993v36.7h32.993v-36.7ZM231.881 271.927h-68.026l24.838 23.169h68.026l-24.838-23.169Z"/><path fill="#222" d="M256.719 238.192h-68.026c-.741 0-1.483-.556-1.483-1.483v-9.824c0-.741.557-1.483 1.483-1.483h68.026c.742 0 1.483.556 1.483 1.483v9.824c-.185.927-.741 1.483-1.483 1.483Zm-66.728-2.78h65.245v-7.044h-65.245v7.044ZM322.706 192.038h-98.98c-.742 0-1.483-.556-1.483-1.483v-8.712c0-.741.556-1.483 1.483-1.483h98.98c.742 0 1.483.556 1.483 1.483v8.712c0 .927-.741 1.483-1.483 1.483Zm-97.683-2.595h96.2v-5.932h-96.2v5.932ZM306.21 296.394h-32.994c-.741 0-1.483-.556-1.483-1.483v-36.515c0-.741.556-1.483 1.483-1.483h32.994c.741 0 1.483.556 1.483 1.483v36.701c0 .741-.742 1.297-1.483 1.297Zm-31.511-2.78h30.213v-33.921h-30.213v33.921Z"/><path fill="#222" d="M289.713 296.579c-.742 0-1.483-.556-1.483-1.482v-36.701c0-.741.556-1.483 1.483-1.483s1.483.556 1.483 1.483v36.701c0 .741-.742 1.482-1.483 1.482ZM273.216 296.579h-16.497c-.741 0-1.483-.556-1.483-1.482V190.741c0-.742.556-1.483 1.483-1.483h16.497c.741 0 1.483.556 1.483 1.483v104.356c0 .741-.742 1.482-1.483 1.482Zm-15.199-2.78h13.716V192.224h-13.716v101.575Z"/><path fill="#222" d="M256.719 228.368h-16.496c-.742 0-1.483-.556-1.483-1.483v-36.33c0-.741.556-1.483 1.483-1.483h16.496c.742 0 1.483.556 1.483 1.483v36.33c-.185.927-.741 1.483-1.483 1.483Zm-15.199-2.78h13.716v-33.55H241.52v33.55Z"/><path fill="#222" d="M240.222 228.368h-16.496c-.742 0-1.483-.556-1.483-1.483v-36.33c0-.741.556-1.483 1.483-1.483h16.496c.742 0 1.483.556 1.483 1.483v36.33c-.185.927-.741 1.483-1.483 1.483Zm-15.199-2.78h13.716v-33.55h-13.716v33.55ZM289.713 259.879h-16.497c-.741 0-1.483-.556-1.483-1.483v-67.655c0-.742.556-1.483 1.483-1.483h16.497c.741 0 1.483.556 1.483 1.483v67.655c0 .741-.742 1.483-1.483 1.483Zm-15.014-2.781h13.716v-64.874h-13.716v64.874Z"/><path fill="#222" d="M306.209 259.879h-16.496c-.742 0-1.483-.556-1.483-1.483v-67.655c0-.742.556-1.483 1.483-1.483h16.496c.742 0 1.483.556 1.483 1.483v67.655c0 .741-.741 1.483-1.483 1.483Zm-15.199-2.781h13.717v-64.874H291.01v64.874Z"/><path fill="#222" d="M322.706 296.579h-16.497c-.741 0-1.483-.556-1.483-1.482V190.741c0-.742.557-1.483 1.483-1.483h16.497c.742 0 1.483.556 1.483 1.483v104.356c0 .741-.741 1.482-1.483 1.482Zm-15.014-2.78h13.717V192.224h-13.717v101.575ZM256.719 296.579h-68.026a1.42 1.42 0 0 1-.927-.37l-24.837-23.17c-.371-.185-.371-.556-.371-.927v-68.026c0-.741.556-1.482 1.483-1.482h44.485c.742 0 1.483.556 1.483 1.482 0 .927-.556 1.483-1.483 1.483h-43.373v65.802l24.096 22.243h65.987v-55.422h-65.245v48.934c0 .742-.556 1.483-1.483 1.483s-1.483-.556-1.483-1.483v-50.231c0-.742.556-1.483 1.483-1.483h68.026c.741 0 1.483.556 1.483 1.483v58.202c0 .741-.556 1.482-1.298 1.482Z"/><path fill="#222" d="M188.693 296.579c-.741 0-1.483-.556-1.483-1.483v-67.47l-24.467-22.613a1.455 1.455 0 0 1 0-2.039 1.455 1.455 0 0 1 2.039 0l24.838 23.169c.371.186.371.556.371.927v68.026c0 .741-.556 1.483-1.298 1.483ZM223.726 228.367c-.742 0-1.483-.556-1.483-1.483v-44.485l-15.014-13.902a1.455 1.455 0 0 1 0-2.039 1.455 1.455 0 0 1 2.039 0l15.384 14.273c.371.185.371.556.371.926v45.042c0 1.112-.556 1.668-1.297 1.668Z"/><path fill="#222" d="M223.726 228.369c-.371 0-.742-.186-.927-.371l-15.385-14.272c-.37-.186-.37-.556-.37-.927v-45.227c0-.742.556-1.483 1.482-1.483h98.981c.371 0 .741.185.927.371l15.384 14.272a1.455 1.455 0 0 1 0 2.039 1.455 1.455 0 0 1-2.039 0l-15.014-13.902h-97.126v43.188l15.013 13.902a1.455 1.455 0 0 1 0 2.039 1.416 1.416 0 0 1-.926.371ZM322.706 296.579h-91.01c-.741 0-1.483-.556-1.483-1.482 0-.927.556-1.483 1.483-1.483h89.527v-66.729c0-.741.556-1.483 1.483-1.483s1.483.556 1.483 1.483v68.026c0 .927-.741 1.668-1.483 1.668Z"/><path fill="#222" d="M256.719 296.579a1.42 1.42 0 0 1-.927-.37l-24.837-23.17a1.455 1.455 0 0 1 0-2.039 1.455 1.455 0 0 1 2.039 0l24.837 23.17a1.455 1.455 0 0 1 0 2.039c-.37.185-.741.37-1.112.37Z"/><path fill="#222" d="M231.696 273.41h-67.84c-.742 0-1.483-.556-1.483-1.482 0-.927.556-1.483 1.483-1.483h66.543v-34.291c0-.742.556-1.483 1.483-1.483.926 0 1.482.556 1.482 1.483v35.774c-.185.926-.741 1.482-1.668 1.482ZM188.693 238.193c-.37 0-.741-.186-.926-.371l-24.838-23.17a1.455 1.455 0 0 1 0-2.039 1.455 1.455 0 0 1 2.039 0l24.838 23.17a1.455 1.455 0 0 1 0 2.039c-.371.185-.742.371-1.113.371ZM223.726 192.78c-.371 0-.742-.186-.927-.371l-15.385-14.272a1.455 1.455 0 0 1 0-2.039 1.455 1.455 0 0 1 2.039 0l15.385 14.272a1.455 1.455 0 0 1 0 2.039c-.371.185-.741.371-1.112.371ZM307.321 167.757h-98.98l15.385 14.272h98.98l-15.385-14.272ZM208.341 212.798v-8.897h-44.486l2.039 2.039 22.799 21.131h35.033l-15.385-14.273Z"/><path fill="#444" d="M118.258 242.826H41.891v45.227h76.367v-45.227Z"/><path fill="#222" d="M118.258 289.351H41.891c-.742 0-1.483-.556-1.483-1.483v-45.227c0-.741.556-1.483 1.483-1.483h76.367c.741 0 1.483.556 1.483 1.483v45.412c-.186.742-.742 1.298-1.483 1.298Zm-75.07-2.78h73.587v-42.447H43.188v42.447Z"/><path fill="#FF3158" d="M128.638 230.963H52.27v45.227h76.368v-45.227Z"/><path fill="#222" d="M128.638 277.488H52.27c-.74 0-1.482-.556-1.482-1.483v-45.042c0-.741.556-1.483 1.483-1.483h76.367c.741 0 1.482.557 1.482 1.483v45.042c-.185.927-.741 1.483-1.482 1.483Zm-74.885-2.78h73.587v-42.262H53.753v42.262Z"/><path fill="#DADADA" d="M138.647 220.212H62.28v45.227h76.367v-45.227Z"/><path fill="#222" d="M138.647 266.737H62.28c-.741 0-1.483-.556-1.483-1.483v-45.042c0-.741.556-1.483 1.483-1.483h76.367c.741 0 1.483.557 1.483 1.483v45.042c-.185.927-.742 1.483-1.483 1.483Zm-75.07-2.78h73.587v-42.262H63.578v42.262Z"/><path fill="#F5F4F3" d="M174.05 60.806H41.89v132.159h132.16V60.805Z"/><path fill="#222" d="M174.05 194.263H41.89c-.74 0-1.482-.556-1.482-1.483V60.806c0-.741.556-1.483 1.483-1.483H174.05c.742 0 1.483.556 1.483 1.483v132.159c-.185.742-.741 1.298-1.483 1.298Zm-130.862-2.78h129.379V62.103H43.188v129.38Z"/><path fill="#DADADA" d="M107.878 179.248c28.049 0 50.787-22.738 50.787-50.787 0-28.05-22.738-50.788-50.787-50.788-28.05 0-50.788 22.738-50.788 50.788 0 28.049 22.738 50.787 50.788 50.787Z"/><path fill="#222" d="M107.878 180.546c-28.73 0-52.085-23.355-52.085-52.086 0-28.73 23.355-52.085 52.085-52.085s52.085 23.355 52.085 52.085c.186 28.731-23.355 52.086-52.085 52.086Zm0-101.576c-27.248 0-49.305 22.243-49.305 49.305 0 27.247 22.243 49.305 49.305 49.305s49.305-22.243 49.305-49.305c.185-27.062-22.058-49.305-49.305-49.305Z"/><path fill="#222" d="M107.878 129.758c-.371 0-.927-.185-1.112-.556-.371-.556-.371-1.483.371-1.853L148.1 98.433c.556-.37 1.483-.37 1.854.37.371.557.371 1.484-.371 1.854l-40.964 28.916c-.185.185-.37.185-.741.185Z"/><path fill="#F5F4F3" d="M157.924 137.357c.556-2.965.742-5.931.742-8.897 0-10.936-3.522-20.945-9.268-29.286-.371.185-.556.37-.556.37l-40.964 28.916 50.046 8.897Z"/><path fill="#222" d="M157.924 138.655h-.185l-50.047-8.897a1.674 1.674 0 0 1-1.112-1.112c-.185-.556.186-1.112.556-1.483L148.1 98.247s.185-.185.556-.37c.556-.371 1.483-.186 1.854.37 6.302 8.897 9.453 19.277 9.453 30.028 0 2.966-.185 5.931-.741 8.897 0 .185 0 .371-.186.556-.185.742-.556.927-1.112.927Zm-46.525-11.121 45.228 7.97c.37-2.41.556-4.819.556-7.229 0-9.824-2.781-19.277-8.156-27.247l-37.628 26.506Z"/><path fill="#222" d="m157.924 137.358-49.676-8.897c-.185 0-.185 0-.185.185l10.936 49.305c19.833-4.448 35.217-20.389 38.925-40.593Z"/><path fill="#222" d="M118.814 179.434c-.556 0-1.298-.371-1.298-1.112l-10.936-49.305c-.185-.371 0-.927.371-1.298s.927-.556 1.483-.556l49.861 8.897c.741.186 1.297.927 1.112 1.668-3.707 20.76-19.463 37.257-40.037 41.706-.371-.186-.371 0-.556 0Zm-9.083-49.305 10.195 46.154a49.46 49.46 0 0 0 36.33-37.813l-46.525-8.341Zm-.371-2.039v.185-.185Z"/><path fill="#FF3158" d="m95.644 79.156 12.234 49.305 36.886-25.95 4.819-3.151c-5.375-8.527-24.282-27.063-53.939-20.204Z"/><path fill="#222" d="M107.878 129.758h-.556a2.227 2.227 0 0 1-.927-.927L94.161 79.527c0-.371 0-.742.186-1.113a1.02 1.02 0 0 1 .927-.556c29.471-6.858 49.119 10.566 55.421 20.76.371.556.186 1.483-.37 1.854l-4.82 3.151-36.7 25.95c-.371.185-.556.185-.927.185ZM97.312 80.083l11.493 45.968 35.217-24.838 3.708-2.41c-6.673-9.453-24.468-24.096-50.417-18.72Z"/></svg>