<svg xmlns="http://www.w3.org/2000/svg" width="400" height="400" fill="none" viewBox="0 0 400 400"><path fill="#DADADA" d="m205.589 262.36-49.025 84.91h98.045l-49.02-84.91Z"/><path fill="#444" d="M343.32 65.59H38.115v227.67H343.32V65.59Z"/><path fill="#222" d="M254.609 348.66h-98.045c-.495 0-.955-.265-1.205-.695-.25-.43-.25-.96 0-1.39l49.02-84.91c.25-.43.71-.695 1.205-.695.495 0 .955.265 1.205.695l49.02 84.91c.25.43.25.96 0 1.39-.25.43-.71.695-1.205.695h.005Zm-95.635-2.78h93.225l-46.615-80.735-46.615 80.735h.005Z"/><path fill="#fff" d="M362.991 74.49H48.186v229.045H362.99V74.49Z"/><path fill="#222" d="M362.99 304.925H48.185a1.39 1.39 0 0 1-1.39-1.39V74.49c0-.77.625-1.39 1.39-1.39H362.99c.77 0 1.39.625 1.39 1.39v229.045c0 .77-.625 1.39-1.39 1.39Zm-313.415-2.78H361.6V75.88H49.575v226.265Z"/><path fill="#DADADA" d="M372.475 81.69H57.67v229.045h314.805V81.69Z"/><path fill="#fff" d="M343.32 92.8H67.856v192.42H343.32V92.8Z"/><path fill="#222" d="M343.32 286.615H67.855a1.39 1.39 0 0 1-1.39-1.39V92.8c0-.77.625-1.39 1.39-1.39H343.32c.77 0 1.39.625 1.39 1.39v192.42c0 .77-.625 1.39-1.39 1.39v.005Zm-274.075-2.78H341.93V94.19H69.245V283.835Z"/><path fill="#222" d="M362.99 304.925H48.185a1.39 1.39 0 0 1-1.39-1.39V74.49c0-.77.625-1.39 1.39-1.39H362.99c.77 0 1.39.625 1.39 1.39v229.045c0 .77-.625 1.39-1.39 1.39Zm-313.415-2.78H361.6V75.88H49.575v226.265Z"/><path fill="#F5F4F3" d="M195.471 109.35H90.936v72.19H195.47v-72.19Z"/><path fill="#DADADA" d="M99.735 157.445h75.51V145.93h-75.51v11.515ZM114.349 178.25h75.51v-11.515h-75.51v11.515ZM87.505 138.99h75.51v-11.515h-75.51v11.515ZM99.735 120.185h75.51V108.67h-75.51v11.515Z"/><path fill="#F5F4F3" d="M217.766 271.729h104.535v-72.19H217.766v72.19Z"/><path fill="#DADADA" d="M313.5 223.635h-75.51v11.515h75.51v-11.515ZM298.885 202.83h-75.51v11.515h75.51V202.83ZM325.736 242.095h-75.51v11.515h75.51v-11.515ZM313.5 260.895h-75.51v11.515h75.51v-11.515ZM323.64 109.35H211.88v72.19h111.76v-72.19Z"/><path fill="#F5F4F3" d="M230.859 125.02h-11.545v47.635h11.545V125.02ZM309.869 101.205h-11.545v47.635h11.545v-47.635ZM251.925 132.005H240.38v53.925h11.545v-53.925ZM273.25 102.13h-11.545v65.99h11.545v-65.99ZM293.345 132.005H281.8v47.635h11.545v-47.635ZM329.41 140.68h-11.545v47.635h11.545V140.68ZM195.465 196.87H87.5v74.56h107.965v-74.56Z"/><path fill="#fff" d="M139.43 239.95c7.762 0 14.055-6.293 14.055-14.055 0-7.763-6.293-14.055-14.055-14.055s-14.055 6.292-14.055 14.055c0 7.762 6.293 14.055 14.055 14.055ZM112.841 263.94c6.624 0 11.995-5.371 11.995-11.995 0-6.625-5.371-11.995-11.995-11.995-6.625 0-11.995 5.37-11.995 11.995 0 6.624 5.37 11.995 11.995 11.995Z"/><path fill="#DADADA" d="M111.16 236.805c9.828 0 17.795-7.967 17.795-17.795 0-9.828-7.967-17.795-17.795-17.795-9.828 0-17.795 7.967-17.795 17.795 0 9.828 7.967 17.795 17.795 17.795ZM172.95 221.815a7.655 7.655 0 0 0 7.655-7.655 7.655 7.655 0 0 0-7.655-7.655 7.655 7.655 0 0 0-7.655 7.655 7.655 7.655 0 0 0 7.655 7.655ZM128.955 261.62a7.655 7.655 0 1 0 0-15.31 7.655 7.655 0 0 0 0 15.31ZM153.485 250.209c5.666 0 10.26-4.593 10.26-10.26 0-5.666-4.594-10.26-10.26-10.26-5.667 0-10.26 4.594-10.26 10.26 0 5.667 4.593 10.26 10.26 10.26Z"/><path fill="#fff" d="M172.949 268.005c9.828 0 17.795-7.968 17.795-17.795 0-9.828-7.967-17.795-17.795-17.795-9.828 0-17.795 7.967-17.795 17.795 0 9.827 7.967 17.795 17.795 17.795Z"/><path fill="#fff" d="M268.776 159.354h-136.13a3.24 3.24 0 0 0-3.24 3.24v93.715a3.24 3.24 0 0 0 3.24 3.24h136.13a3.24 3.24 0 0 0 3.24-3.24v-93.715a3.24 3.24 0 0 0-3.24-3.24Z"/><path fill="#444" d="M244.976 124.589c-.22-24.265-19.95-43.87-44.27-43.87-24.32 0-44.045 19.605-44.27 43.87v.205c0 .07-.005.135-.005.205 0 .07 0 .135.005.205v34.145h18.135V125.874c.13-14.325 11.78-25.9 26.135-25.9 14.355 0 26.005 11.575 26.135 25.9h.005v33.48h18.135v-34.765h-.01.005Z"/><path fill="#222" d="M244.991 160.744h-18.135a1.39 1.39 0 0 1-1.39-1.39v-33.345c0-.04-.005-.08-.005-.125-.125-13.52-11.225-24.52-24.745-24.52-13.52 0-24.62 11-24.745 24.52v33.465c0 .77-.625 1.39-1.39 1.39h-18.135a1.39 1.39 0 0 1-1.39-1.39v-34.195c0-.05-.005-.105-.005-.155V124.589c0-.045 0-.09.01-.13.14-12.065 4.935-23.385 13.51-31.89 8.61-8.535 20.025-13.24 32.15-13.24s23.54 4.7 32.15 13.24c8.56 8.49 13.35 19.79 13.505 31.83.01.06.015.125.015.19v34.765c0 .77-.625 1.39-1.39 1.39h-.01Zm-16.745-2.78h15.355v-33.2a1.616 1.616 0 0 1-.01-.16c-.105-11.37-4.61-22.045-12.685-30.06-8.085-8.015-18.805-12.43-30.19-12.43-11.385 0-22.105 4.415-30.19 12.43-8.08 8.01-12.585 18.685-12.685 30.06v33.36h15.355v-32.185c.185-15 12.515-27.19 27.525-27.19 15.01 0 27.31 12.16 27.525 27.14.005.05.01.1.01.15v32.085h-.01Z"/><path fill="#FF3158" d="M268.776 159.354h-136.13a3.24 3.24 0 0 0-3.24 3.24v93.715a3.24 3.24 0 0 0 3.24 3.24h136.13a3.24 3.24 0 0 0 3.24-3.24v-93.715a3.24 3.24 0 0 0-3.24-3.24Z"/><path fill="#222" d="M268.776 260.939h-136.13a4.636 4.636 0 0 1-4.63-4.63v-93.715c0-2.55 2.075-4.63 4.63-4.63h136.13c2.55 0 4.63 2.075 4.63 4.63v93.715c0 2.55-2.075 4.63-4.63 4.63Zm-136.13-100.195c-1.02 0-1.845.83-1.845 1.845v93.715c0 1.02.83 1.845 1.845 1.845h136.13c1.02 0 1.845-.83 1.845-1.845v-93.715c0-1.02-.83-1.845-1.845-1.845h-136.13Z"/><path fill="#fff" d="M216.037 194.53c0-8.465-6.86-15.325-15.325-15.325s-15.325 6.86-15.325 15.325c0 4.785 2.195 9.055 5.63 11.865v30.07h19.39v-30.07a15.291 15.291 0 0 0 5.63-11.865Z"/><path fill="#222" d="M210.406 237.85h-19.39a1.39 1.39 0 0 1-1.39-1.39v-29.43a16.65 16.65 0 0 1-5.63-12.505c0-9.215 7.5-16.715 16.715-16.715s16.715 7.5 16.715 16.715c0 4.81-2.045 9.33-5.63 12.505v29.43c0 .77-.625 1.39-1.39 1.39Zm-18-2.78h16.61v-28.68c0-.415.185-.81.51-1.075a13.884 13.884 0 0 0 5.12-10.785c0-7.68-6.25-13.935-13.935-13.935-7.685 0-13.935 6.25-13.935 13.935 0 4.195 1.865 8.125 5.12 10.785.325.265.51.66.51 1.075v28.68Z"/><path fill="#fff" d="M216.356 197.009c0-9.645-7.82-17.465-17.465-17.465s-17.465 7.82-17.465 17.465c0 5.45 2.5 10.32 6.415 13.52v28.83h22.1v-32.97c3.915-3.205 6.415-3.93 6.415-9.38Z"/><path fill="#222" d="M210.406 237.85h-19.39a1.39 1.39 0 0 1-1.39-1.39v-29.43a16.65 16.65 0 0 1-5.63-12.505c0-9.215 7.5-16.715 16.715-16.715s16.715 7.5 16.715 16.715c0 4.81-2.045 9.33-5.63 12.505v29.43c0 .77-.625 1.39-1.39 1.39Zm-18-2.78h16.61v-28.68c0-.415.185-.81.51-1.075a13.884 13.884 0 0 0 5.12-10.785c0-7.68-6.25-13.935-13.935-13.935-7.685 0-13.935 6.25-13.935 13.935 0 4.195 1.865 8.125 5.12 10.785.325.265.51.66.51 1.075v28.68Z"/><path fill="#fff" d="m240.03 228.545 12.985-12.305 25.68 27.335 45.59-51.495 11.315 13.675-56.905 63.57-38.665-40.78Z"/><path fill="#444" d="m240.195 228.545 12.985-12.305 25.68 27.335 45.59-51.495 11.315 13.675-56.905 63.57-38.665-40.78Z"/><path fill="#222" d="M278.695 270.715c-.38 0-.745-.155-1.01-.435l-38.665-40.785a1.388 1.388 0 0 1 .055-1.965l12.985-12.3c.27-.255.615-.395.995-.38.37.01.72.17.975.44l24.635 26.225 44.58-50.355a1.4 1.4 0 0 1 1.065-.47c.405.005.79.19 1.05.505l11.315 13.675c.44.53.425 1.3-.035 1.815l-56.905 63.57c-.26.29-.63.46-1.015.465h-.02l-.005-.005ZM242 228.595l36.67 38.68 55.1-61.555-9.515-11.5-44.51 50.28c-.26.295-.63.465-1.02.47a1.41 1.41 0 0 1-1.035-.44l-24.725-26.32-10.96 10.385H242Z"/></svg>