<svg xmlns="http://www.w3.org/2000/svg" width="401" height="400" fill="none" viewBox="0 0 401 400"><path fill="#DADADA" d="M384.777 325.659h-246.14L39.33 267.592v-15.904l235.229-2.589 110.218 64.725v11.835Z"/><path fill="#222" d="M384.776 327.138H138.637c-.185 0-.555 0-.74-.184l-99.306-58.068c-.37-.185-.74-.74-.74-1.11v-15.903c0-.74.555-1.295 1.294-1.48l235.229-2.589c.185 0 .555 0 .74.185l110.032 64.725c.37.185.74.74.74 1.11v12.02c.185.555-.37 1.294-1.11 1.294Zm-245.769-2.773h244.29v-9.802l-109.108-64.17-233.564 2.589v13.685l98.382 57.698Z"/><path fill="#fff" d="M384.777 313.823h-246.14l-91.724-53.63h246.139l91.725 53.63Z"/><path fill="#222" d="M384.777 315.118h-246.14c-.185 0-.555 0-.74-.185l-91.724-53.63c-.555-.369-.74-.924-.555-1.479.185-.555.74-1.11 1.295-1.11h246.139c.185 0 .555 0 .74.185l91.724 53.63c.555.369.74.924.555 1.479-.185.74-.74 1.11-1.294 1.11Zm-245.77-2.774h240.592l-86.917-50.856H52.09l86.917 50.856Z"/><path fill="#222" d="M138.637 327.138c-.74 0-1.48-.555-1.48-1.48v-12.02c0-.74.555-1.479 1.48-1.479.924 0 1.479.554 1.479 1.479v12.02c-.185.74-.74 1.48-1.479 1.48Z"/><path fill="#DADADA" d="M293.052 260.194H46.912l-7.582-4.439V64.909h242.441l11.281 7.212v188.073Z"/><path fill="#222" d="M293.052 261.488H46.912c-.185 0-.554 0-.74-.184l-7.581-4.439c-.37-.185-.74-.739-.74-1.109V64.91c0-.74.555-1.48 1.48-1.48h242.44c.185 0 .555 0 .74.185l11.281 7.212c.37.185.554.74.554 1.11v188.072c0 .925-.554 1.479-1.294 1.479Zm-245.77-2.774h244.291V72.862l-10.172-6.473H40.81v188.627l6.472 3.698Z"/><path fill="#fff" d="M293.052 72.122H46.912v188.072h246.14V72.122Z"/><path fill="#222" d="M293.052 261.489H46.912c-.74 0-1.479-.555-1.479-1.479V72.123c0-.74.555-1.48 1.48-1.48h246.139c.74 0 1.48.555 1.48 1.48v188.072c-.185.739-.74 1.294-1.48 1.294Zm-244.66-2.774h243.366V73.417H48.392v185.298Z"/><path fill="#444" d="M278.258 87.286H61.707v163.106h216.551V87.286Z"/><path fill="#222" d="M278.258 251.687H61.707c-.74 0-1.48-.554-1.48-1.479V87.286c0-.74.555-1.48 1.48-1.48h216.551c.74 0 1.479.555 1.479 1.48v163.107c-.185.74-.739 1.294-1.479 1.294Zm-215.072-2.774h213.777V88.765H63.186v160.148ZM46.912 73.416c-.37 0-.74-.185-.924-.37l-7.582-7.212a1.451 1.451 0 0 1 0-2.034 1.451 1.451 0 0 1 2.034 0l7.582 7.212c.555.555.555 1.48 0 2.034-.37.185-.74.37-1.11.37Z"/><path fill="#444" d="m305.072 284.975-15.349-9.061h-21.082l15.534 9.061h20.897ZM252.738 284.975l-15.719-9.061h-22.746l15.719 9.061h22.746ZM250.704 265.557l14.239 8.322h21.082l-14.055-8.322h-21.266ZM279.922 284.975l-15.719-9.061h-22.746l15.534 9.061h22.931ZM196.334 265.557l14.24 8.322h22.746l-14.239-8.322h-22.747ZM223.519 265.557l14.24 8.322h22.746l-14.24-8.322h-22.746ZM169.15 265.557l14.239 8.322h22.747l-14.055-8.322H169.15ZM171.184 284.975l-15.534-9.061h-22.746l15.534 9.061h22.746ZM225.553 284.975l-15.534-9.061h-22.931l15.719 9.061h22.746ZM107.569 275.914l15.349 9.061H144l-15.534-9.061h-20.897ZM198.369 284.975l-15.534-9.061h-22.931l15.718 9.061h22.747ZM142.151 265.557l14.054 8.322h22.746l-14.054-8.322h-22.746ZM299.525 296.44l-15.904-9.247h-22.746l15.903 9.247h22.747ZM272.34 296.44l-15.904-9.247H233.69l15.904 9.247h22.746ZM245.155 296.44l-15.903-9.247h-22.747l15.904 9.247h22.746ZM324.49 296.44l-15.719-9.247h-20.712l15.904 9.247h20.527ZM89.816 265.557l14.054 8.322h20.712l-14.054-8.322H89.816ZM114.966 265.557l14.054 8.322h22.747l-14.055-8.322h-22.746ZM190.787 296.44l-15.904-9.247h-22.746l15.903 9.247h22.747ZM217.971 296.44l-15.904-9.247h-22.746l15.904 9.247h22.746ZM163.602 296.44l-15.719-9.247h-21.081l15.718 9.247h21.082Z"/><path fill="#222" d="M169.52 82.478a2.774 2.774 0 1 0 0-5.548 2.774 2.774 0 0 0 0 5.548Z"/><path fill="#FF3158" d="M74.652 227.647a6.103 6.103 0 1 0-.002-12.206 6.103 6.103 0 0 0 .002 12.206Z"/><path fill="#222" d="M74.652 229.127c-4.069 0-7.582-3.329-7.582-7.583 0-4.253 3.328-7.582 7.582-7.582 4.253 0 7.582 3.329 7.582 7.582 0 4.254-3.514 7.583-7.582 7.583Zm0-12.391c-2.59 0-4.808 2.219-4.808 4.808s2.219 4.809 4.808 4.809 4.808-2.22 4.808-4.809-2.22-4.808-4.808-4.808Z"/><path fill="#F5F4F3" d="M97.768 233.934a6.102 6.102 0 1 0 0-12.204 6.102 6.102 0 0 0 0 12.204Z"/><path fill="#222" d="M97.768 235.414c-4.069 0-7.582-3.329-7.582-7.582s3.328-7.582 7.582-7.582c4.253 0 7.582 3.329 7.582 7.582s-3.329 7.582-7.582 7.582Zm0-12.39c-2.59 0-4.808 2.219-4.808 4.808s2.219 4.808 4.808 4.808 4.808-2.219 4.808-4.808-2.219-4.808-4.808-4.808Z"/><path fill="#F5F4F3" d="M105.35 209.708a6.102 6.102 0 1 0 .001-12.205 6.102 6.102 0 0 0-.001 12.205Z"/><path fill="#222" d="M105.35 211.188c-4.068 0-7.582-3.329-7.582-7.582 0-4.068 3.329-7.582 7.582-7.582s7.582 3.329 7.582 7.582c-.185 4.253-3.514 7.582-7.582 7.582Zm0-12.205c-2.589 0-4.808 2.219-4.808 4.808s2.219 4.808 4.808 4.808 4.808-2.219 4.808-4.808c-.185-2.774-2.219-4.808-4.808-4.808Z"/><path fill="#FF3158" d="M129.206 223.393a6.102 6.102 0 1 0 0-12.205 6.102 6.102 0 0 0 0 12.205Z"/><path fill="#222" d="M129.206 224.873c-4.069 0-7.583-3.329-7.583-7.582 0-4.069 3.329-7.583 7.583-7.583 4.253 0 7.582 3.329 7.582 7.583 0 4.068-3.329 7.582-7.582 7.582Zm0-12.391c-2.589 0-4.809 2.22-4.809 4.809s2.22 4.808 4.809 4.808 4.808-2.219 4.808-4.808-2.219-4.809-4.808-4.809Z"/><path fill="#DADADA" d="M131.055 193.989a6.102 6.102 0 0 0 0-12.205 6.102 6.102 0 1 0 0 12.205Z"/><path fill="#222" d="M131.055 195.284c-4.069 0-7.582-3.328-7.582-7.582 0-4.068 3.328-7.582 7.582-7.582 4.253 0 7.582 3.329 7.582 7.582 0 4.254-3.514 7.582-7.582 7.582Zm0-12.205c-2.589 0-4.808 2.219-4.808 4.808s2.219 4.808 4.808 4.808 4.808-2.219 4.808-4.808c0-2.774-2.219-4.808-4.808-4.808ZM91.665 228.572h-.37L80.2 224.688c-.74-.185-1.11-1.109-.924-1.849.185-.74 1.11-1.11 1.85-.925l11.095 3.884c.74.185 1.11 1.109.924 1.849-.37.555-.924.925-1.479.925ZM99.987 223.394h-.37c-.74-.185-1.11-.925-.925-1.664l3.514-12.576c.185-.739.925-1.109 1.664-.924.74.185 1.11.924.925 1.664l-3.514 12.575a1.39 1.39 0 0 1-1.294.925ZM123.843 215.626c-.185 0-.555 0-.74-.185l-12.76-8.321c-.555-.37-.74-1.295-.37-1.85.37-.555 1.294-.739 1.849-.37l12.76 8.322c.555.37.74 1.295.37 1.849-.185.37-.74.555-1.109.555Z"/><path fill="#222" d="M130.13 212.483c-.739 0-1.479-.74-1.479-1.479l.74-17.199c0-.739.554-1.294 1.479-1.294.74 0 1.295.739 1.295 1.479l-.74 17.199c0 .739-.555 1.294-1.295 1.294Z"/><path fill="#DADADA" d="M109.603 168.471c18.997 0 34.397-15.4 34.397-34.397s-15.4-34.397-34.397-34.397-34.397 15.4-34.397 34.397 15.4 34.397 34.397 34.397Z"/><path fill="#222" d="M109.603 169.765c-19.602 0-35.691-16.089-35.691-35.692 0-19.602 16.089-35.69 35.691-35.69 19.602 0 35.691 16.088 35.691 35.69 0 19.603-16.089 35.692-35.691 35.692Zm0-68.609c-18.123 0-32.917 14.795-32.917 32.917 0 18.123 14.794 32.918 32.917 32.918s32.917-14.795 32.917-32.918c0-18.122-14.794-32.917-32.917-32.917Z"/><path fill="#222" d="M109.603 135.367c-.37 0-.925-.185-1.11-.555-.369-.554-.369-1.479.37-1.849l27.74-19.602c.554-.37 1.479-.37 1.849.369.37.555.37 1.48-.37 1.85l-27.739 19.602c-.185.185-.555.185-.74.185Z"/><path fill="#F5F4F3" d="M143.445 139.991c.37-2.034.555-3.883.555-5.918 0-7.397-2.404-14.239-6.288-19.787l-.37.185-27.739 19.602 33.842 5.918Z"/><path fill="#222" d="M143.445 141.471h-.185l-33.657-5.918a1.668 1.668 0 0 1-1.11-1.11c-.185-.554.185-1.109.555-1.479l28.109-19.787c.555-.37 1.48-.37 1.85.369 4.253 6.103 6.472 13.13 6.472 20.527 0 2.035-.185 4.069-.555 6.103v.185c-.185.555-.739 1.11-1.479 1.11Zm-30.328-8.322 29.033 5.178c.185-1.48.37-2.959.37-4.438 0-6.288-1.849-12.576-5.178-17.754l-24.225 17.014Z"/><path fill="#222" d="m143.445 139.991-33.657-5.918s-.185 0-.185.185L117 167.545c13.5-2.959 24.041-13.869 26.445-27.554Z"/><path fill="#222" d="M117 168.84c-.555 0-1.294-.37-1.294-1.11l-7.398-33.287c-.184-.74.37-1.479.925-1.664.185-.185.555-.185.74 0l33.657 5.918c.37 0 .739.184.924.554.185.37.37.74.37 1.11-2.589 14.239-13.315 25.52-27.369 28.664-.37-.185-.37-.185-.555-.185Zm-5.548-33.102 6.658 30.143c11.835-3.144 20.897-12.76 23.67-24.78l-30.328-5.363Z"/><path fill="#FF3158" d="m101.282 100.786 8.321 33.287 24.781-17.568 3.144-2.034c-3.329-5.918-16.274-18.308-36.246-13.685Z"/><path fill="#222" d="M109.603 135.368h-.555a2.227 2.227 0 0 1-.924-.925l-8.322-33.287c0-.369 0-.739.185-1.109s.555-.555.924-.555c20.158-4.623 33.657 7.212 37.911 14.239.37.555.185 1.48-.37 1.85l-3.144 2.034-24.78 17.568c-.37.185-.555.185-.925.185Zm-6.657-33.657 7.397 29.959 25.335-17.754c-4.438-6.287-15.904-15.349-32.732-12.205Z"/><path fill="#fff" d="M254.587 110.216h-89.32v19.973h89.32v-19.973Z"/><path fill="#222" d="M254.587 131.668h-89.32c-.74 0-1.48-.554-1.48-1.479v-19.972c0-.74.555-1.48 1.48-1.48h89.135c.74 0 1.48.555 1.48 1.48v20.157c0 .74-.555 1.294-1.295 1.294Zm-87.841-2.774h86.547v-17.383h-86.547v17.383Z"/><path fill="#DADADA" d="M262.354 103.93h-89.32v19.972h89.32V103.93Z"/><path fill="#222" d="M262.169 125.381h-89.135c-.74 0-1.48-.554-1.48-1.479V103.93c0-.74.555-1.48 1.48-1.48h89.135c.74 0 1.479.555 1.479 1.48v20.157c0 .74-.554 1.294-1.479 1.294Zm-87.841-2.774h86.547v-17.198h-86.547v17.198Z"/><path fill="#fff" d="m189.122 152.381-10.171-9.801v45.492h-14.979l-18.678-18.123v51.965l18.678 17.199h102.635v-86.732h-77.485Z"/><path fill="#DADADA" d="m164.342 194.73-16.089-14.98v37.726l49.191-.555 18.678 16.274V194.73h-51.78ZM191.711 160.148v22.562l-9.616-9.062v-22.561l9.616 9.061Z"/><path fill="#FF3158" d="M254.032 211.188h-25.15v27.925h25.15v-27.925ZM197.259 221.544h-51.965l19.048 17.568h51.965l-19.048-17.568Z"/><path fill="#222" d="M216.307 196.024h-51.965c-.74 0-1.479-.555-1.479-1.479v-7.398c0-.739.554-1.479 1.479-1.479h51.965c.74 0 1.479.555 1.479 1.479v7.398c-.185.924-.739 1.479-1.479 1.479Zm-50.67-2.774h49.19v-4.623h-49.19v4.623ZM266.607 160.887h-75.636c-.739 0-1.479-.555-1.479-1.479v-6.658c0-.739.555-1.479 1.479-1.479h75.636c.74 0 1.48.555 1.48 1.479v6.658c0 .74-.555 1.479-1.48 1.479Zm-74.156-2.774h72.862v-3.883h-72.862v3.883ZM254.032 240.592h-25.15c-.74 0-1.48-.555-1.48-1.48v-27.924c0-.74.555-1.48 1.48-1.48h25.15c.74 0 1.48.555 1.48 1.48v27.924c0 .925-.74 1.48-1.48 1.48Zm-23.856-2.774h22.377v-25.151h-22.377v25.151Z"/><path fill="#222" d="M241.457 240.592c-.74 0-1.479-.555-1.479-1.48v-27.924c0-.74.554-1.48 1.479-1.48s1.48.555 1.48 1.48v27.924c-.185.925-.74 1.48-1.48 1.48ZM228.882 240.592h-12.575c-.74 0-1.48-.555-1.48-1.48v-79.704c0-.74.555-1.479 1.48-1.479h12.575c.739 0 1.479.554 1.479 1.479v79.704c-.185.74-.74 1.48-1.479 1.48Zm-11.281-2.774h9.801v-76.93h-9.801v76.93Z"/><path fill="#222" d="M216.307 188.627h-12.575c-.74 0-1.48-.555-1.48-1.48v-27.739c0-.74.555-1.479 1.48-1.479h12.575c.74 0 1.479.554 1.479 1.479v27.739c-.185.74-.739 1.48-1.479 1.48Zm-11.281-2.774h9.802v-24.965h-9.802v24.965Z"/><path fill="#222" d="M203.547 188.627h-12.576c-.739 0-1.479-.555-1.479-1.48v-27.739c0-.74.555-1.479 1.479-1.479h12.576c.739 0 1.479.554 1.479 1.479v27.739c0 .74-.74 1.48-1.479 1.48Zm-11.096-2.774h9.801v-24.965h-9.801v24.965ZM241.457 212.482h-12.575c-.74 0-1.48-.554-1.48-1.479v-51.78c0-.74.555-1.479 1.48-1.479h12.575c.74 0 1.479.554 1.479 1.479v51.78c-.185.925-.739 1.479-1.479 1.479Zm-11.281-2.773h9.802v-48.822h-9.802v48.822Z"/><path fill="#222" d="M254.032 212.482h-12.575c-.74 0-1.479-.554-1.479-1.479v-51.78c0-.74.554-1.479 1.479-1.479h12.575c.74 0 1.48.554 1.48 1.479v51.78c0 .925-.74 1.479-1.48 1.479Zm-11.28-2.773h9.801v-48.822h-9.801v48.822Z"/><path fill="#222" d="M266.607 240.592h-12.575c-.739 0-1.479-.555-1.479-1.48v-79.704c0-.74.555-1.479 1.479-1.479h12.575c.74 0 1.48.554 1.48 1.479v79.704c0 .74-.555 1.48-1.48 1.48Zm-11.095-2.774h9.801v-76.93h-9.801v76.93ZM216.307 240.592h-51.965c-.37 0-.74-.185-.925-.37l-19.047-17.569c-.37-.184-.37-.554-.37-.924v-52.15c0-.74.555-1.479 1.479-1.479h34.027c.74 0 1.48.554 1.48 1.479s-.555 1.479-1.48 1.479h-32.917v49.931l18.123 16.829h50.116v-41.794h-49.191v36.985c0 .74-.555 1.48-1.48 1.48-.924 0-1.479-.555-1.479-1.48v-38.465c0-.739.555-1.479 1.479-1.479h51.965c.74 0 1.479.555 1.479 1.479v44.568c0 .925-.554 1.48-1.294 1.48Z"/><path fill="#222" d="M164.342 240.592c-.74 0-1.479-.555-1.479-1.48v-51.41l-18.678-17.198a1.45 1.45 0 0 1 0-2.034 1.45 1.45 0 0 1 2.034 0l19.048 17.568c.37.185.37.555.37 1.11v51.964c0 .925-.555 1.48-1.295 1.48ZM190.972 188.627c-.74 0-1.48-.555-1.48-1.479v-33.842l-11.28-10.541a1.45 1.45 0 0 1 0-2.034 1.45 1.45 0 0 1 2.034 0l11.835 10.91c.37.185.37.555.37.925v34.397c0 .924-.74 1.664-1.479 1.664Z"/><path fill="#222" d="M190.971 188.627c-.369 0-.739-.185-.924-.37l-11.836-10.911c-.369-.185-.369-.555-.369-1.11V141.84c0-.74.554-1.48 1.479-1.48h75.636c.37 0 .739.185.924.37l11.836 10.911a1.45 1.45 0 0 1 0 2.034 1.452 1.452 0 0 1-2.035 0l-11.465-10.541h-73.602v32.548l11.281 10.541a1.45 1.45 0 0 1 0 2.034c-.185.185-.555.37-.925.37ZM266.607 240.592h-69.533c-.739 0-1.479-.555-1.479-1.48 0-.925.555-1.479 1.479-1.479h68.054v-50.671c0-.739.555-1.479 1.479-1.479.925 0 1.48.555 1.48 1.479v51.965c0 1.11-.555 1.665-1.48 1.665Z"/><path fill="#222" d="M216.307 240.592c-.37 0-.74-.185-.925-.37l-19.047-17.753a1.45 1.45 0 0 1 0-2.034 1.45 1.45 0 0 1 2.034 0l19.047 17.568a1.45 1.45 0 0 1 0 2.034c-.369.37-.739.555-1.109.555Z"/><path fill="#222" d="M197.259 222.839h-51.965c-.739 0-1.479-.555-1.479-1.479 0-.925.555-1.48 1.479-1.48h50.671v-25.89c0-.74.554-1.479 1.479-1.479s1.48.555 1.48 1.479v27.37c-.37.924-.925 1.479-1.665 1.479ZM164.342 196.024c-.37 0-.74-.185-.925-.37l-19.047-17.568a1.45 1.45 0 0 1 0-2.034 1.45 1.45 0 0 1 2.034 0l19.047 17.568a1.45 1.45 0 0 1 0 2.034c-.369.185-.739.37-1.109.37ZM190.972 161.257c-.37 0-.74-.185-.925-.37l-11.835-10.91a1.452 1.452 0 0 1 0-2.035 1.452 1.452 0 0 1 2.034 0l11.835 10.911a1.45 1.45 0 0 1 0 2.034c-.37.185-.74.37-1.109.37ZM254.957 141.84h-75.636l11.651 10.911h75.635l-11.65-10.911ZM179.321 176.237v-6.657h-34.027l1.48 1.479 17.568 16.089h26.63l-11.651-10.911Z"/></svg>