<svg xmlns="http://www.w3.org/2000/svg" width="401" height="401" fill="none" viewBox="0 0 401 401"><path fill="#fff" d="M194.671 336.765c68.429 0 123.902-56.467 123.902-126.121 0-69.655-55.473-126.122-123.902-126.122-68.43 0-123.902 56.467-123.902 126.122 0 69.654 55.472 126.121 123.902 126.121Z"/><path fill="#222" d="M194.671 338.244c-69.164 0-125.382-57.143-125.382-127.6 0-70.273 56.218-127.601 125.382-127.601 69.163 0 125.381 57.143 125.381 127.601 0 70.457-56.403 127.6-125.381 127.6Zm0-252.427c-67.499 0-122.608 56.033-122.608 124.827 0 68.793 54.924 124.826 122.608 124.826 67.683 0 122.607-56.033 122.607-124.826-.185-68.794-55.109-124.827-122.607-124.827Z"/><path fill="#444" d="M70.769 210.644c0-69.718 45.307-126.122 123.902-126.122h-21.267c-78.595 0-123.902 56.404-123.902 126.122 0 69.718 45.307 126.121 123.902 126.121l17.013-.185c-76.005-1.665-119.648-57.328-119.648-125.936Z"/><path fill="#222" d="M173.589 338.244c-37.91 0-69.903-12.945-92.464-37.355-21.267-22.932-32.918-54.924-32.918-90.245 0-35.322 11.65-67.314 32.918-90.246 22.746-24.41 54.738-37.355 92.464-37.355h21.082c.739 0 1.479.555 1.479 1.48 0 .924-.74 1.294-1.479 1.294-36.986 0-68.239 12.575-90.43 36.431-20.712 22.376-32.178 53.629-32.178 88.211 0 72.861 47.712 122.977 118.539 124.641.74 0 1.295.555 1.295 1.48 0 .739-.555 1.294-1.295 1.294l-17.013.37Zm-9.432-252.057c-32.917 2.034-60.841 14.424-81.183 36.246-20.712 22.376-32.178 53.629-32.178 88.211 0 34.581 11.466 66.019 32.178 88.21 20.342 22.007 48.266 34.397 81.368 36.246-25.335-5.178-46.971-17.383-63.43-35.691-20.527-22.746-31.808-54.369-31.808-88.95 0-35.322 11.65-67.314 32.918-90.245 16.458-17.199 37.54-28.85 62.135-34.027Z"/><path fill="#DADADA" d="M304.148 147.398c-10.171-19.972-25.52-36.431-45.492-47.526-17.753-9.802-39.205-15.35-63.985-15.35v126.122l63.985 110.772c19.972-11.096 35.321-27.555 45.492-47.527 9.431-18.678 14.425-40.129 14.425-63.245s-4.994-44.568-14.425-63.246Z"/><path fill="#222" d="M258.656 322.895c-.555 0-.925-.185-1.295-.74l-63.985-110.772c-.185-.185-.185-.37-.185-.739V84.522c0-.74.555-1.479 1.48-1.479 24.225 0 45.862 5.178 64.54 15.534 19.602 10.911 35.691 27.554 46.047 48.081v.185c9.431 18.678 14.609 40.684 14.609 63.616 0 22.931-4.993 45.122-14.609 63.8-10.541 20.527-26.445 37.17-46.047 48.081-.185.37-.37.555-.555.555Zm-62.691-112.621 63.061 109.292c18.677-10.726 33.842-26.629 43.828-46.232 9.431-18.308 14.239-39.944 14.239-62.506 0-22.561-4.993-44.197-14.239-62.505v-.185c-10.171-19.973-25.705-36.246-44.938-46.787-17.938-9.986-38.835-14.98-61.951-15.164v124.087Z"/><path fill="#222" d="m190.047 215.082 12.021-6.657 29.958 59.362-6.287 3.513-35.692-56.218Z"/><path fill="#222" d="M225.739 272.78c-.37 0-.925-.185-1.11-.555l-35.506-56.218c-.185-.37-.185-.74-.185-1.11 0-.37.37-.739.74-.924l12.02-6.843c.37-.185.74-.185 1.109-.185.37.185.74.37.925.74l29.959 59.362c.369.74 0 1.479-.555 1.849l-6.473 3.699c-.555 0-.739.185-.924.185Zm-33.657-57.143 34.026 53.814 4.069-2.404-28.849-56.773-9.246 5.363Z"/><path fill="#222" d="M143.63 265.567c-.369 0-.739-.185-.924-.37a1.45 1.45 0 0 1 0-2.034l74.711-78.224a1.45 1.45 0 0 1 2.034 0 1.45 1.45 0 0 1 0 2.034l-74.711 78.224c-.37.185-.74.37-1.11.37ZM198.369 108.008h-7.397l-3.329 89.691h13.87l-3.144-89.691Z"/><path fill="#222" d="M201.513 198.993h-13.87c-.369 0-.739-.185-.924-.37a1.41 1.41 0 0 1-.37-.924l3.144-89.506c0-.739.554-1.294 1.294-1.294h7.397c.74 0 1.295.555 1.295 1.294l3.144 89.506c0 .37-.185.739-.37.924 0 .37-.37.37-.74.37Zm-12.39-2.774h10.911l-3.144-86.731h-4.808l-2.959 86.731Z"/><path fill="#fff" d="M210.575 210.644c0 8.876-7.028 15.903-15.904 15.903-8.877 0-15.904-7.027-15.904-15.903 0-8.877 7.027-15.904 15.904-15.904 8.876 0 15.904 7.212 15.904 15.904Z"/><path fill="#222" d="M194.671 228.027c-9.617 0-17.384-7.767-17.384-17.198 0-9.617 7.767-17.384 17.384-17.384 9.616 0 17.383 7.767 17.383 17.384-.185 9.431-7.952 17.198-17.383 17.198Zm0-31.808c-7.952 0-14.61 6.473-14.61 14.61 0 8.136 6.473 14.424 14.61 14.424 8.136 0 14.609-6.473 14.609-14.424 0-7.952-6.657-14.61-14.609-14.61Z"/><path fill="#FF3158" d="M300.634 192.151c37.483 0 67.869-30.386 67.869-67.869 0-37.483-30.386-67.868-67.869-67.868-37.482 0-67.868 30.385-67.868 67.868 0 37.483 30.386 67.869 67.868 67.869Z"/><path fill="#222" d="M300.635 193.63c-38.281 0-69.349-31.068-69.349-69.348s31.068-69.348 69.349-69.348c38.28 0 69.348 31.068 69.348 69.348s-31.253 69.348-69.348 69.348Zm0-135.737c-36.616 0-66.575 29.773-66.575 66.574s29.774 66.574 66.575 66.574c36.615 0 66.574-29.773 66.574-66.574 0-36.8-29.959-66.574-66.574-66.574Z"/><path fill="#fff" d="M291.943 150.542c2.219-2.219 5.548-3.329 9.616-3.329 4.069 0 7.582 1.11 9.801 3.329 2.22 2.219 3.329 4.993 3.329 8.137s-1.109 5.918-3.329 8.137c-2.219 2.219-5.547 3.328-9.801 3.328-4.253 0-7.582-1.109-9.801-3.328-2.219-2.219-3.329-4.993-3.329-8.137s1.295-5.918 3.514-8.137Zm-1.295-75.45h22.007l-1.479 62.69h-18.863l-1.665-62.69Z"/><path fill="#222" d="M301.744 171.439c-4.623 0-8.137-1.294-10.726-3.699-2.589-2.589-3.698-5.547-3.698-9.061 0-2.404.554-4.808 1.849-6.842h-.555l2.404-2.404c2.589-2.589 6.103-3.884 10.726-3.884 4.623 0 8.137 1.295 10.726 3.884 2.589 2.589 3.883 5.547 3.883 9.061 0 3.514-1.294 6.657-3.698 9.062-2.774 2.589-6.288 3.883-10.911 3.883Zm-8.507-20.342-.369.37c-2.035 2.034-2.959 4.438-2.959 7.212s.924 5.178 2.959 7.212c2.034 2.034 4.993 2.959 8.691 2.959 3.884 0 6.843-.925 8.692-2.959 2.034-2.034 2.959-4.253 2.959-7.212 0-2.774-.925-5.178-2.959-7.212s-4.993-2.959-8.692-2.959c-3.513 0-6.287.74-8.322 2.589Zm19.233-11.835h-21.452l-1.664-65.465h24.965l-1.849 65.465Zm-18.863-2.774h16.089l1.664-59.917h-19.232l1.479 59.917Z"/></svg>