<svg xmlns="http://www.w3.org/2000/svg" width="400" height="400" fill="none" viewBox="0 0 400 400"><path fill="#444" d="M86.731 92.464V267.96c-2.404-.74-4.993-1.11-7.582-1.11-15.718 0-28.479 12.76-28.479 28.479s12.76 28.479 28.48 28.479h264.817V92.464H86.731Z"/><path fill="#222" d="M343.967 325.289H79.149c-16.458 0-29.958-13.5-29.958-29.959 0-16.458 13.5-29.958 29.958-29.958 2.034 0 4.254.185 6.288.74V92.464c0-.74.555-1.295 1.294-1.295h257.236c.739 0 1.294.555 1.294 1.295v231.345c0 .925-.555 1.48-1.294 1.48ZM79.149 268.331c-14.979 0-27.184 12.205-27.184 27.184 0 14.979 12.205 27.185 27.184 27.185h263.523V93.943H88.211v174.018c0 .37-.185.925-.555 1.109-.37.185-.74.37-1.294.185-2.405-.554-4.809-.924-7.213-.924Z"/><path fill="#DADADA" d="M79.334 69.348v217.106H43.088V96.902c0-15.719 12.76-28.479 28.48-28.479a21.37 21.37 0 0 1 7.766.925Z"/><path fill="#222" d="M79.334 287.933H43.088c-.74 0-1.294-.555-1.294-1.294V96.902c0-16.458 13.5-29.958 29.958-29.958 2.774 0 5.548.37 7.952 1.11.555.184.925.74.925 1.294v217.106c0 .739-.555 1.479-1.295 1.479Zm-34.766-2.774H78.04V70.457c-2.035-.554-4.069-.74-6.288-.74-14.98 0-27.184 12.206-27.184 27.185V285.16Z"/><path fill="#fff" d="M79.334 83.587v175.497c-2.404-.739-4.993-1.109-7.582-1.109-15.719 0-28.479 12.76-28.479 28.479s12.76 28.479 28.48 28.479H336.57V83.587H79.334Z"/><path fill="#222" d="M336.569 316.412H71.752c-16.458 0-29.958-13.5-29.958-29.958 0-16.459 13.5-29.959 29.958-29.959 2.034 0 4.253.185 6.288.74V83.587c0-.74.554-1.294 1.294-1.294H336.57c.74 0 1.295.555 1.295 1.294v231.346c0 .924-.555 1.479-1.295 1.479ZM71.752 259.269c-14.98 0-27.184 12.206-27.184 27.185s12.205 27.184 27.184 27.184h263.523V85.067H80.629v174.017c0 .37-.185.925-.555 1.11-.37.185-.74.37-1.295.185-2.219-.74-4.623-1.11-7.027-1.11Z"/><path fill="#DADADA" d="M222.284 106.334h-83.588v83.588h83.588v-83.588ZM240.407 215.626H134.073v83.588h106.334v-83.588Z"/><path fill="#DADADA" d="M293.296 151.641H187.517v83.588h105.779v-83.588Z"/><path fill="#F5F4F3" d="M213.962 99.491h-83.587v83.588h83.587V99.491ZM232.085 208.784H127.97v83.588h104.115v-83.588Z"/><path fill="#F5F4F3" d="M284.975 144.984H179.196v83.587h105.779v-83.587Z"/><path fill="#222" d="M232.085 293.666H129.08c-.74 0-1.295-.555-1.295-1.294v-83.588c0-.74.555-1.295 1.295-1.295h59.732v-23.116h-58.438a1.263 1.263 0 0 1-1.294-1.294v-46.047c0-.74.555-1.295 1.294-1.295h18.678V99.491c0-.74.555-1.294 1.295-1.294h63.43c.74 0 1.295.555 1.295 1.294v44.013H231.9c.74 0 1.295.555 1.295 1.295v29.773h51.595c.739 0 1.294.555 1.294 1.295v60.286c0 .74-.555 1.295-1.294 1.295h-51.595v54.554c.184 1.109-.37 1.664-1.11 1.664Zm-101.526-2.774h100.047v-54.554c0-.739.554-1.294 1.294-1.294h51.595v-57.698H231.9c-.74 0-1.294-.555-1.294-1.294v-29.774h-16.829c-.74 0-1.294-.555-1.294-1.294v-44.013h-60.842v36.061c0 .739-.555 1.294-1.294 1.294h-18.678v43.273h58.622c.74 0 1.295.555 1.295 1.295v25.705c0 .74-.555 1.295-1.295 1.295h-59.732v80.998Z"/><path fill="#222" d="M166.99 255.201h-36.985c-.74 0-1.295-.554-1.295-1.294s.555-1.295 1.295-1.295h36.985c.74 0 1.295.555 1.295 1.295 0 .74-.555 1.294-1.295 1.294ZM230.236 255.201h-32.733a1.263 1.263 0 0 1-1.294-1.294c0-.74.555-1.295 1.294-1.295h32.733c.74 0 1.294.555 1.294 1.295 0 .74-.554 1.294-1.294 1.294ZM190.291 232.825a1.264 1.264 0 0 1-1.294-1.295v-22.376c0-.74.555-1.295 1.294-1.295.74 0 1.295.555 1.295 1.295v22.376c0 .74-.555 1.295-1.295 1.295ZM232.085 240.777c-.74 0-1.294-.555-1.294-1.295v-21.821c0-.74.554-1.295 1.294-1.295s1.295.555 1.295 1.295v21.821c0 .74-.555 1.295-1.295 1.295ZM179.935 138.511a1.264 1.264 0 0 1-1.294-1.294V99.491c0-.74.555-1.294 1.294-1.294.74 0 1.295.555 1.295 1.294v37.541c.185.739-.555 1.479-1.295 1.479ZM232.085 199.538c-.74 0-1.294-.555-1.294-1.295v-44.568c0-.739.554-1.294 1.294-1.294s1.295.555 1.295 1.294v44.568c0 .74-.555 1.295-1.295 1.295ZM179.935 184.374a1.264 1.264 0 0 1-1.294-1.295v-16.828c0-.74.555-1.295 1.294-1.295.74 0 1.295.555 1.295 1.295v16.828c.185.74-.555 1.295-1.295 1.295Z"/><path fill="#222" d="M188.812 166.99h-17.568c-.74 0-1.295-.554-1.295-1.294s.555-1.295 1.295-1.295h17.568c.74 0 1.294.555 1.294 1.295 0 .74-.554 1.294-1.294 1.294ZM166.99 262.044a1.264 1.264 0 0 1-1.294-1.295v-13.87c0-.739.555-1.294 1.294-1.294.74 0 1.295.555 1.295 1.294v13.87c.185.555-.555 1.295-1.295 1.295ZM196.949 262.044c-.74 0-1.295-.555-1.295-1.295v-13.87c0-.739.555-1.294 1.295-1.294.74 0 1.294.555 1.294 1.294v13.87c.185.555-.37 1.295-1.294 1.295ZM188.812 138.511h-17.568c-.74 0-1.295-.554-1.295-1.294s.555-1.295 1.295-1.295h17.568c.74 0 1.294.555 1.294 1.295 0 .74-.554 1.294-1.294 1.294ZM159.038 138.511h-10.725c-.74 0-1.295-.554-1.295-1.294s.555-1.295 1.295-1.295h10.725c.74 0 1.295.555 1.295 1.295 0 .74-.37 1.294-1.295 1.294ZM213.777 138.511h-12.575c-.74 0-1.295-.554-1.295-1.294s.555-1.295 1.295-1.295h12.575c.74 0 1.295.555 1.295 1.295 0 .74-.555 1.294-1.295 1.294ZM238.558 199.538h-12.576a1.264 1.264 0 0 1-1.294-1.295c0-.739.555-1.294 1.294-1.294h12.576c.739 0 1.294.555 1.294 1.294 0 .74-.555 1.295-1.294 1.295ZM238.558 218.955h-12.576a1.264 1.264 0 0 1-1.294-1.294c0-.74.555-1.295 1.294-1.295h12.576c.739 0 1.294.555 1.294 1.295 0 .739-.555 1.294-1.294 1.294Z"/><path fill="#FF3158" d="M137.772 56.773H97.087V284.05h40.685V56.773Z"/><path fill="#222" d="M137.772 285.344H97.087c-.74 0-1.48-.554-1.48-1.479V56.773c0-.74.556-1.48 1.48-1.48h40.685c.739 0 1.479.555 1.479 1.48V284.05c0 .74-.74 1.294-1.479 1.294Zm-39.39-2.774h37.91V58.067h-37.91V282.57Z"/><path fill="#222" d="M137.772 128.895h-13.685c-.74 0-1.48-.555-1.48-1.48 0-.924.555-1.479 1.48-1.479h13.685c.739 0 1.479.555 1.479 1.479 0 .925-.74 1.48-1.479 1.48ZM137.772 143.135h-13.685c-.74 0-1.48-.555-1.48-1.48 0-.924.555-1.479 1.48-1.479h13.685c.739 0 1.479.555 1.479 1.479 0 .925-.74 1.48-1.479 1.48ZM137.772 157.189h-13.685c-.74 0-1.48-.554-1.48-1.479s.555-1.48 1.48-1.48h13.685c.739 0 1.479.555 1.479 1.48 0 .925-.74 1.479-1.479 1.479ZM137.772 171.429h-24.966c-.739 0-1.479-.555-1.479-1.48 0-.924.555-1.479 1.479-1.479h25.151c.739 0 1.479.555 1.479 1.479 0 .925-.925 1.48-1.664 1.48ZM137.772 72.307h-13.685c-.74 0-1.48-.555-1.48-1.48 0-.924.555-1.479 1.48-1.479h13.685c.739 0 1.479.555 1.479 1.48 0 .924-.74 1.479-1.479 1.479ZM137.772 86.362h-13.685c-.74 0-1.48-.555-1.48-1.48 0-.924.555-1.48 1.48-1.48h13.685c.739 0 1.479.556 1.479 1.48 0 .925-.74 1.48-1.479 1.48ZM137.772 100.601h-13.685c-.74 0-1.48-.555-1.48-1.48 0-.924.555-1.479 1.48-1.479h13.685c.739 0 1.479.555 1.479 1.48 0 .924-.74 1.479-1.479 1.479ZM137.772 114.841h-24.966c-.739 0-1.479-.555-1.479-1.48 0-.924.555-1.479 1.479-1.479h25.151c.739 0 1.479.555 1.479 1.479 0 .925-.925 1.48-1.664 1.48ZM137.772 185.668h-13.685c-.74 0-1.48-.555-1.48-1.48 0-.924.555-1.479 1.48-1.479h13.685c.739 0 1.479.555 1.479 1.479 0 .925-.74 1.48-1.479 1.48ZM137.772 199.723h-13.685c-.74 0-1.48-.555-1.48-1.48 0-.925.555-1.479 1.48-1.479h13.685c.739 0 1.479.554 1.479 1.479s-.74 1.48-1.479 1.48ZM137.772 213.962h-13.685c-.74 0-1.48-.555-1.48-1.479 0-.925.555-1.48 1.48-1.48h13.685c.739 0 1.479.555 1.479 1.48 0 .924-.74 1.479-1.479 1.479ZM137.772 228.016h-24.966c-.739 0-1.479-.554-1.479-1.479s.555-1.479 1.479-1.479h25.151c.739 0 1.479.554 1.479 1.479s-.925 1.479-1.664 1.479ZM137.772 242.256h-13.685c-.74 0-1.48-.555-1.48-1.479 0-.925.555-1.48 1.48-1.48h13.685c.739 0 1.479.555 1.479 1.48 0 .924-.74 1.479-1.479 1.479ZM137.772 256.495h-13.685c-.74 0-1.48-.554-1.48-1.479s.555-1.479 1.48-1.479h13.685c.739 0 1.479.554 1.479 1.479s-.74 1.479-1.479 1.479ZM137.772 270.55h-13.685c-.74 0-1.48-.555-1.48-1.479 0-.925.555-1.48 1.48-1.48h13.685c.739 0 1.479.555 1.479 1.48 0 .924-.74 1.479-1.479 1.479Z"/><path fill="#FF3158" d="m325.477 224.504-93.105 87.52 21.912 23.31 93.104-87.521-21.911-23.309Z"/><path fill="#222" d="M254.276 336.569c-.369 0-.739-.185-.924-.369l-21.822-23.301a1.413 1.413 0 0 1-.37-.925c0-.37.185-.74.37-.925l93.019-87.471a1.45 1.45 0 0 1 2.034 0l21.822 23.301c.185.185.37.555.37.925s-.185.74-.37.924L255.201 336.2c-.185.369-.555.369-.925.369Zm-19.972-24.41 19.972 21.267 91.17-85.622-19.972-21.452-91.17 85.807Z"/><path fill="#F5F4F3" d="m335.025 215.657-9.43 8.868 21.918 23.307 9.43-8.869-21.918-23.306Z"/><path fill="#222" d="M347.48 249.098c-.37 0-.739-.185-.924-.369l-21.822-23.301a1.413 1.413 0 0 1-.37-.925c0-.37.185-.74.37-.925l9.431-8.876a1.452 1.452 0 0 1 2.035 0l21.821 23.301c.185.185.37.554.37.924s-.185.74-.37.925l-9.431 8.877c-.555.184-.925.369-1.11.369Zm-19.972-24.595 19.972 21.267 7.397-7.028-19.972-21.266-7.397 7.027Z"/><path fill="#FF3158" d="M373.74 223.024c2.589-2.405 2.774-6.473.185-9.062l-12.945-13.87c-2.404-2.589-6.472-2.774-9.061-.369l-16.829 15.903 21.822 23.301 16.828-15.903Z"/><path fill="#222" d="M356.727 240.222c-.37 0-.74-.185-.925-.37l-21.821-23.301a1.45 1.45 0 0 1 0-2.034l16.828-15.904c1.479-1.479 3.514-2.219 5.548-2.219 2.034 0 4.068.925 5.548 2.404l12.945 13.87c1.479 1.479 2.219 3.513 2.219 5.548 0 2.034-.925 4.068-2.404 5.547 0 0-.185 0-.185.185l-16.829 15.719c-.185.555-.554.555-.924.555Zm-19.788-24.595 19.973 21.266 15.903-14.979.185-.185c.925-.924 1.48-2.219 1.48-3.513 0-1.295-.37-2.589-1.48-3.699l-12.945-13.87c-.924-.924-2.219-1.479-3.513-1.664-1.295 0-2.589.37-3.699 1.479l-15.904 15.165Z"/><path fill="#fff" d="m232.455 311.974-21.821 42.349 43.643-19.048-21.822-23.301Z"/><path fill="#222" d="M210.633 355.802c-.369 0-.739-.185-.924-.37-.37-.37-.555-1.109-.185-1.664l21.821-42.349c.185-.369.555-.739 1.11-.739.37 0 .925.185 1.11.37l21.821 23.301c.37.369.37.739.37 1.294 0 .37-.37.74-.74.925l-43.643 19.047c-.37.185-.555.185-.74.185Zm22.192-41.424-19.048 37.171 38.28-16.829-19.232-20.342Z"/><path fill="#222" d="m221.544 333.241-10.91 21.082 21.821-9.432-10.911-11.65Z"/><path fill="#222" d="M210.633 355.802c-.369 0-.739-.185-.924-.37-.37-.37-.555-1.109-.185-1.664l10.911-21.267c.185-.37.554-.74 1.109-.74.37 0 .925.185 1.11.37l10.911 11.651c.369.369.369.739.369 1.294 0 .37-.369.74-.739.925l-21.822 9.616c-.37.185-.555.185-.74.185Zm11.281-20.342-8.137 16.089 16.459-7.213-8.322-8.876Z"/><path fill="#DADADA" d="M324.549 96.717h-77.855v13.685h77.855V96.717ZM324.549 117.43h-77.855v13.684h77.855V117.43Z"/></svg>