<svg xmlns="http://www.w3.org/2000/svg" width="400" height="401" fill="none" viewBox="0 0 400 401"><path fill="#fff" d="M314.05 81.6H90.4v149.5h223.65V81.6Z"/><path fill="#DADADA" d="m260.1 131.8 28.8 38.1-.1.05V225h-16.45v-37.5c0-7.35-5.5-13.3-12.25-13.3s-12.25 5.95-12.25 13.3V225H231.4v-55.05l-.1-.1 28.8-38.05ZM191.2 131.8h39.1l-30.5-42.95L168.6 130l-13.25 17.5h-58.8V225h100.6v-47.3h-6l.05-45.9Zm-51.25 41.3v10.2h-19.3v-20.4h19.3v10.2Z"/><path fill="#444" d="M205.55 247.602H174.5l-15.25 45.8h61.5l-15.2-45.8Z"/><path fill="#222" d="M220.75 294.801h-61.5c-.45 0-.85-.2-1.1-.6-.25-.35-.35-.85-.2-1.25l15.2-45.8c.2-.55.7-.95 1.3-.95h31.05c.6 0 1.1.4 1.3.95l15.2 45.8c.15.4.05.9-.2 1.25-.2.35-.6.6-1.05.6Zm-59.55-2.8h57.65l-14.3-43H175.5l-14.3 43Z"/><path fill="#fff" d="M301.9 323.501H136.45l-29.9-43.2H271.9l30 43.2Z"/><path fill="#222" d="M301.9 324.9H136.45c-.45 0-.9-.2-1.15-.6l-29.9-43.2c-.3-.4-.3-1-.1-1.45.2-.45.7-.75 1.2-.75h165.35c.45 0 .9.2 1.15.6l30 43.2c.3.4.35 1 .1 1.45-.25.45-.7.75-1.2.75Zm-164.7-2.8h162.05l-28.05-40.4h-162l28 40.4Z"/><path fill="#FF3158" d="m136.45 323.501-29.9-43.2v17l29.9 31.25"/><path fill="#222" d="M136.45 329.951c-.35 0-.75-.15-1-.4l-29.9-31.3c-.25-.25-.4-.6-.4-.95v-16.95c0-.6.4-1.15.95-1.3.6-.2 1.2.05 1.55.55l29.9 43.2c.45.65.3 1.5-.35 1.9-.6.45-1.5.3-1.95-.35l-27.35-39.6v12l29.55 30.9c.5.55.5 1.4-.05 1.95-.25.2-.6.35-.95.35Z"/><path fill="#FF3158" d="M301.9 323.501H136.45v5.1H301.9v-5.1Z"/><path fill="#222" d="M301.9 329.951H136.45c-.75 0-1.4-.6-1.4-1.4v-5.1c0-.75.6-1.4 1.4-1.4H301.9c.75 0 1.4.6 1.4 1.4v5.1c0 .8-.65 1.4-1.4 1.4Zm-164.05-2.75H300.5v-2.3H137.85v2.3ZM162.8 232.5c-.75 0-1.4-.6-1.4-1.4v-99.25c0-.75.6-1.4 1.4-1.4.8 0 1.4.6 1.4 1.4v99.25c-.05.75-.65 1.4-1.4 1.4ZM134.1 190.8h-19.3c-.75 0-1.4-.6-1.4-1.4V169c0-.75.6-1.4 1.4-1.4h19.3c.75 0 1.4.6 1.4 1.4v20.4c0 .8-.65 1.4-1.4 1.4Zm-17.9-2.75h16.55V170.4H116.2v17.65Z"/><path fill="#222" d="M134.1 180.6h-19.3c-.75 0-1.4-.6-1.4-1.4 0-.8.6-1.4 1.4-1.4h19.3c.75 0 1.4.6 1.4 1.4 0 .8-.65 1.4-1.4 1.4Z"/><path fill="#222" d="M124.45 190.8c-.75 0-1.4-.6-1.4-1.4V169c0-.75.6-1.4 1.4-1.4.8 0 1.4.6 1.4 1.4v20.4c0 .8-.65 1.4-1.4 1.4ZM266.45 232.5c-.75 0-1.4-.6-1.4-1.4v-37.5c0-6.55-4.85-11.9-10.85-11.9s-10.85 5.35-10.85 11.9v37.5c0 .75-.6 1.4-1.4 1.4-.8 0-1.4-.6-1.4-1.4v-37.5c0-8.1 6.1-14.7 13.6-14.7s13.6 6.6 13.6 14.7v37.5c.1.75-.5 1.4-1.3 1.4Z"/><path fill="#222" d="M250.3 206.5a2.4 2.4 0 1 0 0-4.8 2.4 2.4 0 0 0 0 4.8ZM185.3 137.95v45.85h34.25l34.7-45.85H185.3Z"/><path fill="#222" d="M219.55 185.15h-34.2c-.75 0-1.4-.6-1.4-1.4V137.9c0-.75.6-1.4 1.4-1.4h68.9c.5 0 1 .3 1.25.75s.2 1.05-.15 1.45l-34.7 45.85c-.3.4-.7.6-1.1.6Zm-32.85-2.75h32.15l32.6-43.1H186.7v43.1Z"/><path fill="#222" d="M225.55 232.5c-.75 0-1.4-.6-1.4-1.4v-55c0-.75.6-1.4 1.4-1.4.8 0 1.4.6 1.4 1.4v55c0 .75-.65 1.4-1.4 1.4Z"/><path fill="#222" d="M219.55 185.15c-.3 0-.6-.1-.85-.3-.6-.45-.75-1.35-.25-1.95l34.7-45.85c.25-.35.65-.55 1.1-.55.45 0 .85.2 1.1.55l28.8 38.05 5.9 7.8c.45.6.35 1.5-.25 1.95-.6.45-1.5.35-1.95-.25l-5.9-7.8-27.7-36.6-33.6 44.4c-.3.35-.7.55-1.1.55Z"/><path fill="#222" d="M282.9 232.5c-.75 0-1.4-.6-1.4-1.4v-55c0-.75.6-1.4 1.4-1.4.8 0 1.4.6 1.4 1.4v55c0 .75-.65 1.4-1.4 1.4ZM77.85 94.95v58.649h71.65l44.45-58.65H77.85Z"/><path fill="#222" d="M149.5 155H77.85c-.75 0-1.4-.6-1.4-1.4V95c0-.75.6-1.4 1.4-1.4h116.1c.5 0 1 .3 1.25.75s.2 1.05-.15 1.45l-44.45 58.65c-.25.35-.65.55-1.1.55Zm-70.25-2.75h69.6l42.35-55.9H79.25v55.9Z"/><path fill="#222" d="M227.4 143.4c-.45 0-.85-.2-1.15-.6L192.8 95.75c-.45-.6-.3-1.5.3-1.95.6-.45 1.5-.3 1.95.3l33.45 47.15c.45.6.3 1.5-.3 1.95-.25.15-.55.2-.8.2ZM191.3 232.5c-.75 0-1.4-.6-1.4-1.4v-55c0-.75.6-1.4 1.4-1.4.8 0 1.4.6 1.4 1.4v55c0 .75-.6 1.4-1.4 1.4Z"/><path fill="#444" d="M88.8 58.95c-6.05 0-10.95 4.9-10.95 10.95v166.55c0 1.5.6 2.9 1.6 3.85l5.7 5.7c-1-1-1.6-2.35-1.6-3.85v-172c0-1.5.6-2.9 1.6-3.85 1-1 2.35-1.6 3.85-1.6h226.7c1.5 0 2.9.6 3.85 1.6l-5.7-5.7c-1-1-2.35-1.6-3.85-1.6.05-.05-221.2-.05-221.2-.05Z"/><path fill="#222" d="M85.15 247.4c-.35 0-.7-.15-1-.4l-5.65-5.7c-1.3-1.3-2-3-2-4.85V69.9c0-6.8 5.55-12.35 12.35-12.35H310c1.85 0 3.55.7 4.85 2l5.7 5.7c.55.55.55 1.4 0 1.95s-1.4.55-1.95 0c-.75-.75-1.8-1.2-2.9-1.2H89.05c-1.1 0-2.1.45-2.9 1.2-.75.8-1.2 1.8-1.2 2.9v172c0 1.1.45 2.1 1.2 2.9.55.55.55 1.4 0 1.95-.25.3-.65.45-1 .45ZM88.8 60.3c-5.3 0-9.55 4.3-9.55 9.55V236.4c0 1.1.45 2.1 1.2 2.9l1.75 1.75V70.15c0-1.85.7-3.55 2-4.85 1.3-1.3 3-2 4.85-2h225.6l-1.75-1.75c-.75-.75-1.8-1.2-2.9-1.2L88.8 60.3Z"/><path fill="#FF3158" d="M315.75 64.65H89.05c-3 0-5.45 2.45-5.45 5.45v171.999c0 3 2.45 5.5 5.45 5.5h226.7c3 0 5.5-2.45 5.5-5.5v-172c-.05-3-2.5-5.45-5.5-5.45Zm-1.7 166.449H90.7V82.649h223.35V231.1Z"/><path fill="#222" d="M315.75 249H89.05c-3.8 0-6.85-3.05-6.85-6.85v-172c0-3.8 3.05-6.85 6.85-6.85h226.7c3.8 0 6.85 3.1 6.85 6.85v172c0 3.8-3.1 6.85-6.85 6.85ZM89.05 66.05c-2.25 0-4.1 1.85-4.1 4.1v172c0 2.25 1.85 4.1 4.1 4.1h226.7c2.25 0 4.1-1.85 4.1-4.1v-172c0-2.25-1.85-4.1-4.1-4.1H89.05Zm225 166.45H90.7c-.75 0-1.4-.6-1.4-1.4V82.65c0-.75.6-1.4 1.4-1.4h223.35c.75 0 1.4.6 1.4 1.4V231.1c0 .75-.65 1.4-1.4 1.4ZM92.1 229.75h220.55V84.05H92.1v145.7Z"/><path fill="#222" d="M202.4 76.15a2.35 2.35 0 1 0 0-4.7 2.35 2.35 0 0 0 0 4.7Z"/><path fill="#fff" d="M301.9 323.499H136.45l-29.9-43.2H271.9l30 43.2Z"/><path fill="#222" d="M301.9 324.899H136.45c-.45 0-.9-.2-1.15-.6l-29.9-43.2c-.3-.4-.3-1-.1-1.45.2-.45.7-.75 1.2-.75h165.35c.45 0 .9.2 1.15.6l30 43.2c.3.4.35 1 .1 1.45-.25.45-.7.75-1.2.75Zm-164.7-2.8h162.05l-28.05-40.4h-162l28 40.4Z"/><path fill="#222" d="M271.9 281.698H106.55c-.75 0-1.4-.6-1.4-1.4 0-.8.6-1.4 1.4-1.4H271.9c.75 0 1.4.6 1.4 1.4 0 .8-.65 1.4-1.4 1.4ZM279.4 292.498H114.05c-.75 0-1.4-.6-1.4-1.4 0-.8.6-1.4 1.4-1.4h165.4c.75 0 1.4.6 1.4 1.4 0 .8-.7 1.4-1.45 1.4ZM286.9 303.298H121.5c-.75 0-1.4-.6-1.4-1.4 0-.8.6-1.4 1.4-1.4h165.4c.75 0 1.4.6 1.4 1.4 0 .8-.65 1.4-1.4 1.4ZM294.4 314.099H129c-.75 0-1.4-.6-1.4-1.4 0-.8.6-1.4 1.4-1.4h165.4c.75 0 1.4.6 1.4 1.4 0 .8-.65 1.4-1.4 1.4ZM301.9 324.899H136.45c-.75 0-1.4-.6-1.4-1.4 0-.8.6-1.4 1.4-1.4H301.9c.75 0 1.4.6 1.4 1.4 0 .8-.65 1.4-1.4 1.4Z"/><path fill="#222" d="M301.9 324.9c-.45 0-.85-.2-1.15-.6l-30-43.2c-.45-.6-.3-1.5.35-1.9.65-.4 1.5-.3 1.9.35l30 43.2c.45.6.3 1.5-.35 1.9-.2.15-.5.2-.75.25ZM286.85 324.899c-.45 0-.85-.2-1.15-.6l-30-43.2c-.45-.6-.3-1.5.35-1.9.6-.45 1.5-.3 1.9.35l30 43.2c.45.6.3 1.5-.35 1.9-.2.15-.45.2-.75.25ZM271.8 324.899c-.45 0-.85-.2-1.15-.6l-30-43.2c-.45-.6-.3-1.5.35-1.9.65-.45 1.5-.3 1.95.35l29.95 43.2c.45.6.3 1.5-.35 1.9-.2.15-.45.2-.75.25ZM256.8 324.9c-.45 0-.85-.2-1.15-.6l-29.95-43.2c-.45-.6-.3-1.5.35-1.9.65-.4 1.5-.3 1.95.35l29.95 43.2c.45.6.3 1.5-.35 1.9-.25.15-.55.2-.8.25ZM241.75 324.899c-.45 0-.85-.2-1.15-.6l-29.95-43.2c-.45-.6-.3-1.5.35-1.9.6-.45 1.5-.3 1.95.35l29.95 43.2c.45.6.3 1.5-.35 1.9-.25.15-.55.25-.8.25ZM226.7 324.899c-.45 0-.85-.2-1.15-.6l-29.95-43.2c-.45-.6-.3-1.5.35-1.9.6-.45 1.5-.3 1.95.35l29.95 43.2c.45.6.3 1.5-.35 1.9-.25.15-.5.25-.8.25ZM211.65 324.9c-.45 0-.85-.2-1.15-.6l-29.95-43.2c-.45-.6-.3-1.5.35-1.9.65-.4 1.5-.3 1.95.35l29.95 43.2c.45.6.3 1.5-.35 1.9-.25.15-.5.25-.8.25ZM196.6 324.9c-.45 0-.85-.2-1.15-.6l-29.95-43.2c-.45-.65-.3-1.5.35-1.9.65-.4 1.5-.3 1.95.35l29.95 43.2c.45.65.3 1.5-.35 1.9-.25.15-.5.25-.8.25ZM181.6 324.9c-.45 0-.85-.2-1.15-.6l-29.95-43.2c-.45-.6-.3-1.5.35-1.9.65-.4 1.5-.3 1.95.35l29.95 43.2c.45.6.3 1.5-.35 1.9-.25.15-.55.25-.8.25ZM166.55 324.9c-.45 0-.85-.2-1.15-.6l-29.95-43.2c-.45-.65-.3-1.5.35-1.9.65-.4 1.5-.3 1.95.35l29.95 43.2c.45.65.3 1.5-.35 1.9-.25.15-.55.25-.8.25ZM151.5 324.9c-.45 0-.85-.2-1.15-.6l-29.9-43.2c-.45-.65-.3-1.5.35-1.9.65-.4 1.5-.3 1.95.35l29.9 43.2c.45.65.3 1.5-.35 1.9-.25.15-.55.25-.8.25ZM136.45 324.899c-.45 0-.85-.2-1.15-.6l-29.9-43.2c-.45-.65-.3-1.5.35-1.9.6-.45 1.5-.3 1.95.35l29.9 43.2c.45.65.3 1.5-.35 1.9-.25.15-.5.25-.8.25Z"/></svg>