<svg xmlns="http://www.w3.org/2000/svg" width="400" height="401" fill="none" viewBox="0 0 400 401"><path fill="#fff" d="M314.05 81.605H90.4v149.494h223.65V81.605Z"/><path fill="#DADADA" d="M205.561 247.609h-31.08l-15.215 45.79h61.505l-15.21-45.79Z"/><path fill="#222" d="M220.771 294.785h-61.505a1.382 1.382 0 0 1-1.31-1.821l15.215-45.79c.19-.565.715-.945 1.31-.945h31.075c.595 0 1.125.38 1.31.945l15.21 45.79a1.383 1.383 0 0 1-1.31 1.821h.005Zm-59.585-2.766h57.67l-14.295-43.025h-29.08l-14.295 43.025Z"/><path fill="#fff" d="M301.896 323.494H136.461l-29.91-43.18h165.36l29.985 43.18Z"/><path fill="#222" d="M301.896 324.875H136.461c-.455 0-.88-.22-1.135-.595l-29.91-43.18a1.389 1.389 0 0 1-.09-1.43c.235-.455.71-.74 1.225-.74h165.36c.455 0 .875.22 1.135.595l29.985 43.18c.295.425.33.975.09 1.43-.24.455-.71.74-1.225.74Zm-164.71-2.765h162.07l-28.065-40.415h-162l27.995 40.415Z"/><path fill="#FF3158" d="m136.461 323.494-29.91-43.18v16.965l29.91 31.285"/><path fill="#222" d="M136.461 329.95a1.39 1.39 0 0 1-1-.425l-29.91-31.29a1.385 1.385 0 0 1-.385-.955v-16.965a1.385 1.385 0 0 1 2.52-.79l29.91 43.18a1.382 1.382 0 1 1-2.275 1.575l-27.395-39.545v11.985l29.53 30.885a1.383 1.383 0 0 1-1 2.34l.005.005Z"/><path fill="#FF3158" d="M301.896 323.494H136.461v5.075h165.435v-5.075Z"/><path fill="#222" d="M301.896 329.949H136.461a1.38 1.38 0 0 1-1.38-1.384v-5.075c0-.765.62-1.386 1.38-1.386h165.435c.765 0 1.38.621 1.38 1.386v5.075c0 .765-.62 1.384-1.38 1.384Zm-164.055-2.764h162.67v-2.31H137.846v2.31h-.005ZM162.78 232.47a1.38 1.38 0 0 1-1.38-1.38v-99.235a1.38 1.38 0 1 1 2.76 0v99.235c0 .765-.62 1.38-1.38 1.38ZM134.106 190.805h-19.3a1.38 1.38 0 0 1-1.38-1.38v-20.4c0-.765.62-1.38 1.38-1.38h19.3c.765 0 1.38.62 1.38 1.38v20.4c0 .765-.62 1.38-1.38 1.38Zm-17.92-2.765h16.535V170.4h-16.535v17.64Z"/><path fill="#222" d="M134.106 180.594h-19.3a1.38 1.38 0 1 1 0-2.76h19.3a1.38 1.38 0 1 1 0 2.76Z"/><path fill="#222" d="M124.456 190.805a1.38 1.38 0 0 1-1.38-1.38v-20.4a1.38 1.38 0 1 1 2.76 0v20.4c0 .765-.62 1.38-1.38 1.38ZM266.467 232.469a1.38 1.38 0 0 1-1.38-1.38v-37.505c0-6.565-4.87-11.91-10.85-11.91-5.98 0-10.85 5.345-10.85 11.91v37.505a1.38 1.38 0 1 1-2.76 0v-37.505c0-8.09 6.11-14.675 13.615-14.675s13.615 6.585 13.615 14.675v37.505c0 .765-.62 1.38-1.38 1.38h-.01Z"/><path fill="#222" d="M250.302 206.485a2.38 2.38 0 1 0-.001-4.761 2.38 2.38 0 0 0 .001 4.761ZM185.321 137.919v45.86h34.21l34.7-45.86h-68.91Z"/><path fill="#222" d="M219.531 185.164h-34.21a1.38 1.38 0 0 1-1.38-1.38v-45.86c0-.765.62-1.38 1.38-1.38h68.905c.525 0 1.005.295 1.24.765.235.47.18 1.03-.135 1.45l-34.7 45.86c-.26.345-.67.55-1.105.55l.005-.005Zm-32.825-2.765h32.14l32.605-43.1h-64.745v43.1Z"/><path fill="#222" d="M225.556 232.468a1.38 1.38 0 0 1-1.38-1.38v-55.015a1.38 1.38 0 1 1 2.76 0v55.015c0 .765-.62 1.38-1.38 1.38Z"/><path fill="#222" d="M219.531 185.163a1.38 1.38 0 0 1-1.105-2.215l34.7-45.865a1.385 1.385 0 0 1 2.21 0l28.795 38.07 5.885 7.79c.46.61.34 1.475-.27 1.935a1.38 1.38 0 0 1-1.935-.27l-5.885-7.79-27.69-36.615-33.595 44.405c-.27.36-.685.55-1.105.55l-.005.005Z"/><path fill="#222" d="M282.905 232.468a1.38 1.38 0 0 1-1.38-1.38v-55.015a1.38 1.38 0 1 1 2.76 0v55.015c0 .765-.62 1.38-1.38 1.38ZM77.86 94.97v58.64h71.655l44.44-58.64H77.86Z"/><path fill="#222" d="M149.515 154.995H77.861a1.38 1.38 0 0 1-1.38-1.38v-58.64c0-.765.62-1.38 1.38-1.38h116.094c.525 0 1.005.295 1.24.765.235.47.18 1.03-.135 1.45l-44.44 58.64c-.26.345-.67.545-1.1.545h-.005Zm-70.274-2.765h69.589l42.34-55.875H79.24v55.875Z"/><path fill="#222" d="M227.391 143.414c-.43 0-.86-.2-1.13-.58l-33.44-47.065a1.39 1.39 0 0 1 .325-1.93 1.39 1.39 0 0 1 1.93.325l33.44 47.065a1.39 1.39 0 0 1-.325 1.93c-.245.175-.52.255-.8.255ZM191.325 232.469a1.38 1.38 0 0 1-1.38-1.38v-55.015a1.38 1.38 0 1 1 2.76 0v55.015c0 .765-.62 1.38-1.38 1.38Z"/><path fill="#DADADA" d="M88.806 58.94c-6.045 0-10.945 4.9-10.945 10.945v166.549c0 1.51.61 2.88 1.605 3.87l5.705 5.705a5.461 5.461 0 0 1-1.605-3.87V70.119c0-1.51.615-2.88 1.605-3.87a5.461 5.461 0 0 1 3.87-1.605h226.69c1.51 0 2.88.615 3.87 1.605l-5.705-5.704a5.461 5.461 0 0 0-3.87-1.605H88.806Z"/><path fill="#222" d="M85.166 247.39c-.355 0-.71-.135-.98-.405l-.01-.01-5.695-5.695a6.808 6.808 0 0 1-2.01-4.845V69.885C76.47 63.09 82 57.56 88.8 57.56h221.215c1.83 0 3.55.715 4.845 2.01l5.705 5.705a1.382 1.382 0 1 1-1.955 1.955 4.07 4.07 0 0 0-2.89-1.2H89.036a4.05 4.05 0 0 0-2.89 1.2 4.08 4.08 0 0 0-1.2 2.89v172.02c0 1.09.425 2.12 1.2 2.89a1.382 1.382 0 0 1-.98 2.36ZM88.8 60.32c-5.275 0-9.565 4.29-9.565 9.56v166.555c0 1.09.425 2.12 1.2 2.89l1.74 1.74V70.12c0-1.83.715-3.55 2.01-4.845a6.808 6.808 0 0 1 4.845-2.01h225.62l-1.74-1.74a4.07 4.07 0 0 0-2.89-1.2H88.806l-.005-.005Z"/><path fill="#FF3158" d="M315.726 64.644H89.036a5.476 5.476 0 0 0-5.475 5.47V242.14a5.473 5.473 0 0 0 5.475 5.475h226.69c3.02 0 5.475-2.45 5.475-5.475V70.12c0-3.02-2.45-5.47-5.475-5.47v-.006ZM314.051 231.1H90.711V82.65h223.335v148.455l.005-.005Z"/><path fill="#222" d="M315.726 248.995H89.036a6.863 6.863 0 0 1-6.855-6.855V70.12a6.863 6.863 0 0 1 6.855-6.855h226.69a6.863 6.863 0 0 1 6.855 6.855v172.02a6.863 6.863 0 0 1-6.855 6.855ZM89.036 66.03a4.095 4.095 0 0 0-4.09 4.09v172.02a4.095 4.095 0 0 0 4.09 4.09h226.69a4.095 4.095 0 0 0 4.09-4.09V70.12a4.095 4.095 0 0 0-4.09-4.09H89.036Zm225.01 166.455H90.711a1.38 1.38 0 0 1-1.38-1.38V82.65c0-.765.62-1.38 1.38-1.38h223.335c.765 0 1.38.62 1.38 1.38v148.455c0 .765-.62 1.38-1.38 1.38ZM92.091 229.72h220.57V84.035H92.096V229.72h-.005Z"/><path fill="#222" d="M202.381 76.165a2.35 2.35 0 1 0 0-4.7 2.35 2.35 0 0 0 0 4.7Z"/><path fill="#DADADA" d="m260.086 131.774 28.79 38.08-.115.075v55.03h-16.435v-37.51c0-7.355-5.49-13.3-12.235-13.3-6.745 0-12.235 5.95-12.235 13.3v37.51h-16.435v-55.03l-.115-.095 28.79-38.06h-.01ZM191.186 131.775h39.125l-30.5-42.945-31.18 41.14-13.265 17.5h-58.81v77.49H197.17v-47.315h-5.985v-45.87Zm-51.23 41.31v10.205h-19.305v-20.41h19.305v10.205Z" style="mix-blend-mode:multiply"/><path fill="#fff" d="M301.896 323.494H136.461l-29.91-43.18h165.36l29.985 43.18Z"/><path fill="#222" d="M301.896 324.875H136.461c-.455 0-.88-.22-1.135-.595l-29.91-43.18a1.389 1.389 0 0 1-.09-1.43c.235-.455.71-.74 1.225-.74h165.36c.455 0 .875.22 1.135.595l29.985 43.18c.295.425.33.975.09 1.43-.24.455-.71.74-1.225.74Zm-164.71-2.765h162.07l-28.065-40.415h-162l27.995 40.415Z"/><path fill="#222" d="M271.911 281.695h-165.36a1.38 1.38 0 0 1-1.38-1.385c0-.765.62-1.385 1.38-1.385h165.36c.765 0 1.38.62 1.38 1.385s-.62 1.385-1.38 1.385ZM279.406 292.49h-165.38a1.38 1.38 0 0 1-1.38-1.385c0-.765.62-1.385 1.38-1.385h165.38c.765 0 1.38.62 1.38 1.385s-.62 1.385-1.38 1.385ZM286.906 303.285h-165.4a1.38 1.38 0 0 1-1.38-1.385c0-.765.62-1.385 1.38-1.385h165.4c.765 0 1.38.62 1.38 1.385s-.62 1.385-1.38 1.385ZM294.4 314.08H128.985a1.38 1.38 0 0 1-1.38-1.385c0-.765.62-1.385 1.38-1.385H294.4c.765 0 1.38.62 1.38 1.385s-.62 1.385-1.38 1.385ZM301.896 324.875H136.461a1.38 1.38 0 0 1-1.38-1.385c0-.765.62-1.385 1.38-1.385h165.435c.765 0 1.38.62 1.38 1.385s-.62 1.385-1.38 1.385Z"/><path fill="#222" d="M301.901 324.875c-.44 0-.87-.205-1.135-.595l-29.99-43.18a1.386 1.386 0 0 1 .345-1.925 1.386 1.386 0 0 1 1.925.345l29.99 43.18c.435.625.28 1.49-.345 1.925-.24.165-.515.245-.785.245l-.005.005ZM286.86 324.875c-.44 0-.87-.205-1.135-.595l-29.98-43.18a1.386 1.386 0 0 1 .345-1.925 1.386 1.386 0 0 1 1.925.345l29.98 43.18c.435.625.28 1.49-.345 1.925-.24.165-.515.245-.785.245l-.005.005ZM271.822 324.875c-.44 0-.87-.205-1.135-.595l-29.975-43.18a1.386 1.386 0 0 1 .345-1.925c.63-.435 1.49-.28 1.925.345l29.975 43.18c.435.625.28 1.49-.345 1.925-.24.165-.515.245-.785.245l-.005.005ZM256.78 324.875c-.44 0-.87-.205-1.135-.595L225.68 281.1a1.385 1.385 0 0 1 2.275-1.58l29.965 43.18a1.382 1.382 0 0 1-1.135 2.17l-.005.005ZM241.74 324.875c-.44 0-.87-.21-1.135-.595l-29.96-43.18a1.382 1.382 0 1 1 2.275-1.575l29.96 43.18a1.382 1.382 0 0 1-1.135 2.17h-.005ZM226.701 324.875c-.44 0-.87-.21-1.135-.595l-29.955-43.18a1.382 1.382 0 1 1 2.275-1.575l29.955 43.18a1.382 1.382 0 0 1-1.135 2.17h-.005ZM211.661 324.875c-.44 0-.87-.21-1.135-.595l-29.945-43.18a1.382 1.382 0 0 1 .35-1.925c.63-.435 1.49-.28 1.925.35l29.945 43.18a1.382 1.382 0 0 1-1.135 2.17h-.005ZM196.621 324.875c-.44 0-.87-.21-1.14-.595l-29.94-43.18c-.435-.63-.28-1.49.35-1.925.63-.435 1.49-.28 1.925.35l29.94 43.18a1.382 1.382 0 0 1-1.135 2.17ZM181.58 324.875c-.44 0-.87-.21-1.14-.595l-29.93-43.18a1.382 1.382 0 0 1 .35-1.925c.63-.435 1.49-.28 1.925.35l29.93 43.18a1.382 1.382 0 0 1-1.135 2.17ZM166.54 324.875c-.44 0-.87-.21-1.14-.595l-29.925-43.18c-.435-.63-.28-1.49.35-1.925.63-.435 1.49-.28 1.925.35l29.925 43.18a1.382 1.382 0 0 1-1.135 2.17ZM151.501 324.875c-.44 0-.87-.21-1.14-.595l-29.915-43.18c-.435-.63-.28-1.49.35-1.925.63-.435 1.49-.28 1.925.35l29.915 43.18a1.382 1.382 0 0 1-1.135 2.17ZM136.461 324.875c-.44 0-.87-.21-1.14-.595l-29.91-43.18a1.382 1.382 0 1 1 2.275-1.575l29.91 43.18a1.382 1.382 0 0 1-1.135 2.17Z"/></svg>