<svg xmlns="http://www.w3.org/2000/svg" width="400" height="400" fill="none" viewBox="0 0 400 400"><path fill="#fff" d="M54.85 156.1H39.9v81.4h14.95v-81.4ZM303.25 81.6H68.65v155.95h234.6V81.6Z"/><path fill="#DADADA" d="m246.55 133.2 30.25 40-.1.1v57.8h-17.25v-39.4c0-7.75-5.75-13.95-12.85-13.95s-12.85 6.25-12.85 13.95v39.4H216.5v-57.85l-.1-.1 30.15-39.95ZM174.2 133.2h41.1l-32.05-45.1-32.75 43.2-13.95 18.4H74.8v81.4h105.7v-49.7h-6.3v-48.2Zm-53.8 43.35v10.7h-20.3V165.8h20.3v10.75Z"/><path fill="#444" d="M189.301 254.85h-32.65l-15.95 48.1h64.55l-15.95-48.1Z"/><path fill="#222" d="M205.251 304.35h-64.6c-.45 0-.85-.2-1.1-.6-.25-.35-.35-.85-.2-1.25l16-48.1c.2-.55.7-.95 1.3-.95h32.65c.6 0 1.1.4 1.3.95l16 48.1c.15.4.05.9-.2 1.25s-.7.6-1.15.6Zm-62.65-2.8h60.75l-15.05-45.35h-30.65l-15.05 45.35Z"/><path fill="#fff" d="M290.5 334.551H116.7l-31.4-45.35H259l31.5 45.35Z"/><path fill="#222" d="M290.501 335.951h-173.8c-.45 0-.9-.2-1.15-.6l-31.4-45.35c-.3-.4-.3-1-.1-1.45.25-.45.7-.75 1.2-.75H259c.45 0 .9.2 1.15.6l31.5 45.35c.3.4.35 1 .1 1.45-.25.45-.75.75-1.25.75Zm-173.05-2.75h170.4l-29.6-42.6h-170.3l29.5 42.6Z"/><path fill="#FF3158" d="m116.701 334.551-31.4-45.35v17.8l31.4 32.9"/><path fill="#222" d="M116.701 341.251c-.35 0-.75-.15-1-.4l-31.4-32.85c-.25-.25-.4-.6-.4-.95v-17.8c0-.6.4-1.15.95-1.3.55-.2 1.2.05 1.55.55l31.4 45.35c.45.65.3 1.5-.35 1.9-.65.4-1.5.3-1.95-.35l-28.9-41.7v12.85l31.05 32.45c.55.55.5 1.4-.05 1.95-.2.2-.55.3-.9.3Z"/><path fill="#FF3158" d="M290.451 334.551h-173.75v5.35h173.75v-5.35Z"/><path fill="#222" d="M290.501 341.251h-173.8c-.75 0-1.4-.6-1.4-1.4v-5.35c0-.75.6-1.4 1.4-1.4h173.8c.75 0 1.4.6 1.4 1.4v5.35c-.05.8-.65 1.4-1.4 1.4Zm-172.4-2.75h171v-2.55h-171v2.55ZM144.35 238.9c-.75 0-1.4-.6-1.4-1.4V133.25c0-.75.6-1.4 1.4-1.4.8 0 1.4.6 1.4 1.4V237.5c0 .75-.65 1.4-1.4 1.4ZM114.251 195.1h-20.3c-.75 0-1.4-.6-1.4-1.4v-21.45c0-.75.6-1.4 1.4-1.4h20.3c.75 0 1.4.6 1.4 1.4v21.45c-.05.8-.65 1.4-1.4 1.4Zm-18.9-2.75h17.5V173.7h-17.5v18.65Z"/><path fill="#222" d="M114.251 184.4h-20.3c-.75 0-1.4-.6-1.4-1.4 0-.8.6-1.4 1.4-1.4h20.3c.75 0 1.4.6 1.4 1.4 0 .8-.65 1.4-1.4 1.4Z"/><path fill="#222" d="M104.101 195.1c-.75 0-1.4-.6-1.4-1.4v-21.45c0-.75.6-1.4 1.4-1.4.8 0 1.4.6 1.4 1.4v21.45c0 .8-.65 1.4-1.4 1.4ZM253.25 238.9c-.75 0-1.4-.6-1.4-1.4v-39.4c0-6.95-5.15-12.6-11.45-12.6-6.3 0-11.45 5.65-11.45 12.6v39.4c0 .75-.6 1.4-1.4 1.4-.8 0-1.4-.6-1.4-1.4v-39.4c0-8.45 6.4-15.35 14.25-15.35s14.25 6.9 14.25 15.35v39.4c0 .75-.6 1.4-1.4 1.4Z"/><path fill="#222" d="M236.3 211.65a2.5 2.5 0 1 0 0-5 2.5 2.5 0 0 0 0 5ZM168.05 139.65v48.15H204l36.45-48.15h-72.4Z"/><path fill="#222" d="M204 189.2h-35.95c-.75 0-1.4-.6-1.4-1.4v-48.2c0-.75.6-1.4 1.4-1.4h72.4c.5 0 1 .3 1.25.75s.2 1.05-.15 1.45l-36.45 48.2c-.3.4-.7.6-1.1.6Zm-34.55-2.75h33.85l34.35-45.4h-68.2v45.4Z"/><path fill="#222" d="M210.3 238.9c-.75 0-1.4-.6-1.4-1.4v-57.8c0-.75.6-1.4 1.4-1.4.8 0 1.4.6 1.4 1.4v57.8c0 .75-.65 1.4-1.4 1.4Z"/><path fill="#222" d="M276.851 189.2c-.4 0-.85-.2-1.1-.55l-6.2-8.2-29.15-38.55-35.35 46.7c-.45.6-1.35.75-1.95.25-.6-.45-.75-1.35-.25-1.95l36.45-48.2c.25-.35.65-.55 1.1-.55.45 0 .85.2 1.1.55l30.25 40 6.2 8.2c.45.6.35 1.5-.25 1.95-.25.25-.55.35-.85.35Z"/><path fill="#222" d="M270.551 238.9c-.75 0-1.4-.6-1.4-1.4v-57.8c0-.75.6-1.4 1.4-1.4.8 0 1.4.6 1.4 1.4v57.8c0 .75-.65 1.4-1.4 1.4ZM54.85 238.9H39.9c-.75 0-1.4-.6-1.4-1.4v-89.65c0-.75.6-1.4 1.4-1.4.8 0 1.4.6 1.4 1.4v88.25h13.55c.75 0 1.4.6 1.4 1.4 0 .8-.65 1.4-1.4 1.4Z"/><path fill="#222" d="M32.05 94.5v61.6h98.4l46.65-61.6H32.05Z"/><path fill="#222" d="M130.45 157.5h-98.4c-.75 0-1.4-.6-1.4-1.4V94.5c0-.75.6-1.4 1.4-1.4H177.1c.5 0 1 .3 1.25.75s.2 1.05-.15 1.45l-46.7 61.6c-.2.4-.65.6-1.05.6Zm-97-2.75h96.3l44.6-58.85H33.45v58.85Z"/><path fill="#222" d="M212.25 145.35c-.45 0-.85-.2-1.15-.6L176 95.3c-.45-.6-.3-1.5.3-1.95.6-.45 1.5-.3 1.95.3l35.1 49.45c.45.6.3 1.5-.3 1.95-.25.2-.55.3-.8.3ZM174.35 238.9c-.75 0-1.4-.6-1.4-1.4v-57.8c0-.75.6-1.4 1.4-1.4.8 0 1.4.6 1.4 1.4v57.8c0 .75-.65 1.4-1.4 1.4Z"/><path fill="#444" d="M66.65 56.65c-6.35 0-11.5 5.15-11.5 11.5V243.1c0 1.6.65 3 1.7 4.05l6 6c-1.05-1.05-1.7-2.5-1.7-4.05V68.4c0-1.6.65-3.05 1.7-4.05 1.05-1 2.5-1.7 4.05-1.7H305c1.6 0 3 .65 4.05 1.7l-6-6c-1.05-1.05-2.5-1.7-4.05-1.7H66.65Z"/><path fill="#222" d="M62.85 254.55c-.35 0-.7-.15-1-.4l-6-6a7.113 7.113 0 0 1-2.1-5.05V68.15c0-7.1 5.8-12.9 12.9-12.9H299c1.9 0 3.7.75 5.05 2.1l6 6c.55.55.55 1.4 0 1.95s-1.4.55-1.95 0c-.85-.8-1.9-1.3-3.1-1.3H66.9c-1.15 0-2.25.45-3.1 1.3-.85.8-1.3 1.9-1.3 3.1v180.7c0 1.15.45 2.25 1.3 3.1.55.55.55 1.4 0 1.95-.25.3-.6.4-.95.4Zm3.8-196.5c-5.6 0-10.1 4.55-10.1 10.1V243.1c0 1.15.45 2.25 1.3 3.1l1.95 1.95V68.4c0-1.9.75-3.7 2.1-5.05a7.113 7.113 0 0 1 5.05-2.1H304.1l-1.95-1.95c-.85-.85-1.9-1.3-3.1-1.3l-232.4.05Z"/><path fill="#FF3158" d="M305 62.65H66.9a5.75 5.75 0 0 0-5.75 5.75v180.7c0 3.2 2.6 5.75 5.75 5.75H305a5.75 5.75 0 0 0 5.75-5.75V68.4a5.75 5.75 0 0 0-5.75-5.75Zm-1.75 174.85H68.65V81.6h234.6v155.9Z"/><path fill="#222" d="M305 256.25H66.9c-3.95 0-7.15-3.2-7.15-7.15V68.4c0-3.95 3.2-7.15 7.15-7.15H305c3.95 0 7.15 3.2 7.15 7.15v180.7c0 3.95-3.2 7.15-7.15 7.15ZM66.9 64.05c-2.4 0-4.35 1.95-4.35 4.35v180.7c0 2.4 1.95 4.35 4.35 4.35H305c2.4 0 4.35-1.95 4.35-4.35V68.4c0-2.4-1.95-4.35-4.35-4.35H66.9ZM303.25 238.9H68.65c-.75 0-1.4-.6-1.4-1.4V81.6c0-.75.6-1.4 1.4-1.4h234.6c.75 0 1.4.6 1.4 1.4v155.9c0 .8-.65 1.4-1.4 1.4Zm-233.2-2.75H301.9V82.95H70.05v153.2Z"/><path fill="#222" d="M185.95 74.75a2.45 2.45 0 1 0 0-4.9 2.45 2.45 0 0 0 0 4.9ZM283.35 97.35h87.25v77.099h-27.5l-10 14.2v-14.2h-49.75v-77.1Z"/><path fill="#222" d="M333.1 189.999c-.15 0-.3 0-.4-.05-.6-.2-.95-.7-.95-1.3v-12.8H283.4c-.75 0-1.4-.6-1.4-1.4v-77.1c0-.75.6-1.4 1.4-1.4h87.25c.75 0 1.4.6 1.4 1.4v77.1c0 .75-.6 1.4-1.4 1.4h-26.8l-9.6 13.6c-.3.35-.75.55-1.15.55Zm-48.35-16.95h48.35c.75 0 1.4.6 1.4 1.4v9.85l7.5-10.65c.25-.35.7-.6 1.15-.6h26.1v-74.35h-84.5v74.35Z"/><path fill="#FF3158" d="M327 112.05c-13.15 0-23.8 10.65-23.8 23.8s10.65 23.8 23.8 23.8 23.8-10.65 23.8-23.8-10.65-23.8-23.8-23.8Z"/><path fill="#222" d="M327 161.1c-13.9 0-25.2-11.3-25.2-25.2 0-13.9 11.3-25.2 25.2-25.2 13.9 0 25.2 11.3 25.2 25.2 0 13.9-11.3 25.2-25.2 25.2Zm0-47.65c-12.35 0-22.45 10.05-22.45 22.45 0 12.4 10.05 22.45 22.45 22.45 12.4 0 22.45-10.05 22.45-22.45 0-12.4-10.1-22.45-22.45-22.45Z"/><path fill="#fff" d="M338.5 133.35c-1.1 2.6-9.15 14.1-11.55 17.5-2.4-3.4-10.45-14.95-11.55-17.5-1.5-3.65-.3-7.3 2.75-8.55 3.05-1.25 6.75.3 8.3 3.95.2.45.35 1.1.5 1.85.15-.75.3-1.4.5-1.85 1.5-3.65 5.25-5.2 8.3-3.95 3.05 1.25 4.3 4.9 2.75 8.55Z"/><path fill="#222" d="M327 152.249c-.45 0-.85-.2-1.15-.6-1.75-2.45-10.45-14.9-11.7-17.8-1.8-4.3-.3-8.8 3.5-10.4 3.4-1.45 7.25 0 9.35 3.25.9-1.35 2.1-2.45 3.5-3.1 1.9-.9 3.95-.95 5.85-.15 3.8 1.6 5.3 6.05 3.5 10.35-1.2 2.9-9.95 15.3-11.7 17.8-.3.4-.7.65-1.15.65Zm-6.6-26.55c-.55 0-1.1.1-1.65.35-2.4 1-3.25 3.85-2 6.75.75 1.75 5.65 9.05 10.25 15.65 4.65-6.6 9.55-13.9 10.25-15.65 1.2-2.9.4-5.75-2-6.75-1.15-.45-2.4-.45-3.6.1-1.25.6-2.3 1.7-2.9 3.1-.1.25-.25.7-.4 1.6-.1.65-.7 1.1-1.35 1.1-.65 0-1.25-.45-1.35-1.1-.15-.9-.35-1.35-.4-1.6-.95-2.2-2.9-3.55-4.85-3.55Z"/><path fill="#fff" d="M335.051 348.4c0 12.4-5.3 20.75-16.8 20.75s-16.8-8.35-16.8-20.75c0-17.35 5.3-22.45 16.8-22.45s16.8 5.1 16.8 22.45Z"/><path fill="#222" d="M318.251 370.55c-11.55 0-18.2-8.05-18.2-22.1 0-17.15 5.1-23.85 18.2-23.85s18.2 6.7 18.2 23.85c-.05 14.05-6.65 22.1-18.2 22.1Zm0-43.2c-9.75 0-15.4 3.45-15.4 21.1 0 7.25 2 19.35 15.4 19.35s15.4-12.15 15.4-19.35c0-17.65-5.65-21.1-15.4-21.1Z"/><path fill="#222" d="M334.451 341.35h-32.45c-.75 0-1.4-.6-1.4-1.4 0-.8.6-1.4 1.4-1.4h32.45c.75 0 1.4.6 1.4 1.4 0 .8-.6 1.4-1.4 1.4Z"/><path fill="#222" d="M318.25 341.15c-.75 0-1.4-.6-1.4-1.4v-54.2c0-2.4-1.95-4.35-4.35-4.35H197.3c-.75 0-1.4-.6-1.4-1.4 0-.8.6-1.4 1.4-1.4h115.2c3.95 0 7.15 3.2 7.15 7.15v54.25c-.05.75-.65 1.35-1.4 1.35Z"/><path fill="#fff" d="M290.5 334.55H116.7L85.3 289.2H259l31.5 45.35Z"/><path fill="#222" d="M290.5 335.95H116.7c-.45 0-.9-.2-1.15-.6L84.15 290c-.3-.4-.3-1-.1-1.45.25-.45.7-.75 1.2-.75H259c.45 0 .9.2 1.15.6l31.5 45.35c.3.4.35 1 .1 1.45-.25.45-.75.75-1.25.75Zm-173.05-2.75h170.4l-29.6-42.6H87.95l29.5 42.6Z"/><path fill="#222" d="M259 290.6H85.3c-.75 0-1.4-.6-1.4-1.4 0-.8.6-1.4 1.4-1.4H259c.75 0 1.4.6 1.4 1.4 0 .8-.65 1.4-1.4 1.4ZM266.85 301.95H93.15c-.75 0-1.4-.6-1.4-1.4 0-.8.6-1.4 1.4-1.4h173.7c.75 0 1.4.6 1.4 1.4 0 .8-.6 1.4-1.4 1.4ZM274.75 313.25H101c-.75 0-1.4-.6-1.4-1.4 0-.8.6-1.4 1.4-1.4h173.75c.75 0 1.4.6 1.4 1.4 0 .8-.65 1.4-1.4 1.4ZM282.6 324.6H108.85c-.75 0-1.4-.6-1.4-1.4 0-.8.6-1.4 1.4-1.4H282.6c.75 0 1.4.6 1.4 1.4 0 .8-.6 1.4-1.4 1.4ZM290.5 335.95H116.7c-.75 0-1.4-.6-1.4-1.4 0-.8.6-1.4 1.4-1.4h173.8c.75 0 1.4.6 1.4 1.4 0 .8-.65 1.4-1.4 1.4Z"/><path fill="#222" d="M290.5 335.95c-.45 0-.85-.2-1.15-.6L257.85 290c-.45-.6-.3-1.5.35-1.9.65-.4 1.5-.3 1.9.35l31.5 45.35c.45.6.3 1.5-.35 1.9-.2.15-.5.25-.75.25ZM274.7 335.95c-.45 0-.85-.2-1.15-.6L242.05 290c-.45-.6-.3-1.5.35-1.9.65-.4 1.5-.3 1.95.35l31.5 45.35c.45.6.3 1.5-.35 1.9-.25.15-.55.25-.8.25ZM258.9 335.95c-.45 0-.85-.2-1.15-.6L226.25 290c-.45-.6-.3-1.5.35-1.9.65-.4 1.5-.3 1.95.35l31.5 45.35c.45.6.3 1.5-.35 1.9-.25.15-.55.25-.8.25ZM243.1 335.95c-.45 0-.85-.2-1.15-.6L210.5 290c-.45-.6-.3-1.5.35-1.9.6-.45 1.5-.3 1.95.35l31.5 45.35c.45.6.3 1.5-.35 1.9-.3.15-.55.25-.85.25ZM227.3 335.95c-.45 0-.85-.2-1.15-.6L194.7 290c-.45-.6-.3-1.5.35-1.9.65-.4 1.5-.3 1.95.35l31.45 45.35c.45.6.3 1.5-.35 1.9-.25.15-.5.25-.8.25ZM211.5 335.95c-.45 0-.85-.2-1.15-.6L178.9 290c-.45-.6-.3-1.5.35-1.9.6-.45 1.5-.3 1.95.35l31.45 45.35c.45.6.3 1.5-.35 1.9-.25.15-.5.25-.8.25ZM195.7 335.95c-.45 0-.85-.2-1.15-.6L163.1 290c-.45-.6-.3-1.5.35-1.9.65-.4 1.5-.3 1.95.35l31.45 45.35c.45.6.3 1.5-.35 1.9-.25.15-.5.25-.8.25ZM179.9 335.95c-.45 0-.85-.2-1.15-.6L147.35 290c-.45-.65-.3-1.5.35-1.9.65-.4 1.5-.3 1.95.35l31.45 45.35c.45.65.3 1.5-.35 1.9-.3.15-.55.25-.85.25ZM164.1 335.95c-.45 0-.85-.2-1.15-.6L131.55 290c-.45-.6-.3-1.5.35-1.9.6-.45 1.5-.3 1.95.35l31.45 45.35c.45.6.3 1.5-.35 1.9-.3.15-.55.25-.85.25ZM148.3 335.95c-.45 0-.85-.2-1.15-.6L115.75 290c-.45-.65-.3-1.5.35-1.9.6-.45 1.5-.3 1.95.35l31.45 45.35c.45.65.3 1.5-.35 1.9-.3.15-.55.25-.85.25ZM132.5 335.95c-.45 0-.85-.2-1.15-.6L99.95 290c-.45-.65-.3-1.5.35-1.9.65-.4 1.5-.3 1.95.35l31.4 45.35c.45.65.3 1.5-.35 1.9-.25.15-.5.25-.8.25ZM116.7 335.95c-.45 0-.85-.2-1.15-.6L84.15 290c-.45-.65-.3-1.5.35-1.9.65-.4 1.5-.3 1.95.35l31.4 45.35c.45.65.3 1.5-.35 1.9-.25.15-.5.25-.8.25Z"/></svg>