<svg width="32" height="74" xmlns="http://www.w3.org/2000/svg"><g fill="none" fill-rule="evenodd"><g fill="#FFF"><path d="M15.576 33.998c-.448.332-.754.977-.754 1.713v5.673c0 .736.306 1.38.754 1.712.02.014.04.025.06.038v-.038c.188.151.405.239.633.239.228 0 .444-.088.632-.239v.038c.02-.013.04-.024.06-.038.448-.331.753-.976.753-1.712v-5.673c0-.736-.305-1.381-.754-1.713-.018-.013-.04-.024-.059-.037v.037a1.014 1.014 0 00-.632-.239c-.228 0-.445.09-.633.24v-.038l-.06.037" opacity=".5"/><path d="M.909 41.664v2.823a31.294 31.294 0 0014.727 3.993V45c-.02-.005-.04-.008-.06-.014a2.706 2.706 0 01-2.018-2.604v-7.186c0-1.246.86-2.3 2.018-2.605l.06-.014v-3.49h-2.078c-6.956 0-12.65 5.66-12.65 12.576"/><path d="M18.98 29.089h-2.079v3.49l.06.013a2.707 2.707 0 012.02 2.605v7.186a2.708 2.708 0 01-2.02 2.604c-.02.006-.04.009-.06.014v3.479a31.291 31.291 0 0014.728-3.993v-2.823c0-6.916-5.693-12.575-12.648-12.575" opacity=".5"/><path d="M.909 45.921v15.503C.909 68.341 6.602 74 13.559 74h5.422c6.955 0 12.648-5.659 12.648-12.576V45.921a32.563 32.563 0 01-15.36 3.827c-5.55 0-10.78-1.385-15.36-3.827" opacity=".5"/></g><path opacity=".5" d="M-26-9h84v84h-84z"/><path fill="#FFF" d="M9 22V0l18 11z"/></g></svg>