<svg xmlns="http://www.w3.org/2000/svg" width="400" height="400" fill="none" viewBox="0 0 400 400"><path fill="#fff" d="M63.77 146.624h-13.8v75.175h13.8v-75.175ZM301.73 82.684H68.7v154.67h233.03V82.684Z"/><path fill="#DADADA" d="M189.47 254.729h-32.68l-16 48.15h64.675l-15.995-48.15Z"/><path fill="#222" d="M205.465 304.264H140.79a1.381 1.381 0 0 1-1.31-1.82l16-48.15c.19-.565.715-.945 1.31-.945h32.68c.595 0 1.125.38 1.31.945l15.995 48.15a1.383 1.383 0 0 1-1.31 1.82Zm-62.76-2.765h60.84l-15.08-45.385H157.78l-15.08 45.385h.005Z"/><path fill="#fff" d="M290.775 334.523H116.81l-31.455-45.405H259.24l31.535 45.405Z"/><path fill="#222" d="M290.775 335.908H116.81c-.455 0-.88-.22-1.135-.595L84.22 289.908a1.389 1.389 0 0 1-.09-1.43c.24-.455.71-.74 1.225-.74H259.24c.455 0 .875.22 1.135.595l31.535 45.405c.295.425.33.975.09 1.43-.24.455-.71.74-1.225.74Zm-173.24-2.765h170.6l-29.615-42.64H87.995l29.54 42.64Z"/><path fill="#FF3158" d="m116.809 334.523-31.454-45.405v17.84l31.454 32.9"/><path fill="#222" d="M116.81 341.243a1.39 1.39 0 0 1-1-.425l-31.455-32.9a1.385 1.385 0 0 1-.385-.955v-17.84a1.385 1.385 0 0 1 2.52-.79l31.455 45.405c.435.63.28 1.49-.35 1.925-.63.435-1.49.28-1.925-.35l-28.935-41.77v12.86l31.07 32.5c.53.55.51 1.425-.045 1.955-.27.255-.61.385-.955.385h.005Z"/><path fill="#FF3158" d="M290.775 334.523H116.81v5.335h173.965v-5.335Z"/><path fill="#222" d="M290.775 341.244H116.81a1.38 1.38 0 0 1-1.38-1.385v-5.335c0-.765.62-1.385 1.38-1.385h173.965c.765 0 1.38.62 1.38 1.385v5.335c0 .765-.62 1.385-1.38 1.385Zm-172.585-2.765h171.2v-2.57h-171.2v2.57ZM144.485 238.734a1.38 1.38 0 0 1-1.38-1.385V132.994a1.38 1.38 0 1 1 2.76 0v104.355c0 .765-.62 1.385-1.38 1.385ZM114.33 194.924H94.035a1.38 1.38 0 0 1-1.38-1.38v-21.455c0-.765.62-1.38 1.38-1.38h20.295c.765 0 1.38.62 1.38 1.38v21.455c0 .765-.62 1.38-1.38 1.38Zm-18.915-2.765h17.53v-18.69h-17.53v18.69Z"/><path fill="#222" d="M114.33 184.189H94.035a1.38 1.38 0 1 1 0-2.76h20.295a1.38 1.38 0 1 1 0 2.76Z"/><path fill="#222" d="M104.185 194.924a1.38 1.38 0 0 1-1.38-1.38v-21.455a1.38 1.38 0 1 1 2.76 0v21.455c0 .765-.62 1.38-1.38 1.38ZM253.515 238.734a1.38 1.38 0 0 1-1.38-1.385v-39.44c0-6.945-5.15-12.595-11.48-12.595s-11.48 5.65-11.48 12.595v39.44c0 .765-.62 1.385-1.38 1.385-.76 0-1.38-.62-1.38-1.385v-39.44c0-8.47 6.39-15.36 14.245-15.36 7.855 0 14.245 6.89 14.245 15.36v39.44c0 .765-.62 1.385-1.38 1.385h-.01Z"/><path fill="#222" d="M236.515 211.484a2.505 2.505 0 1 0 0-5.01 2.505 2.505 0 0 0 0 5.01Z"/><path fill="#444" d="M168.19 139.384v48.225h35.975l36.485-48.225h-72.46Z"/><path fill="#222" d="M204.165 188.994H168.19a1.38 1.38 0 0 1-1.38-1.38v-48.225c0-.765.62-1.38 1.38-1.38h72.46c.525 0 1.005.295 1.24.765.235.47.18 1.03-.135 1.45l-36.485 48.225c-.26.345-.67.55-1.105.55v-.005Zm-34.59-2.765h33.905l34.395-45.46h-68.3v45.46Z"/><path fill="#222" d="M210.5 238.734a1.38 1.38 0 0 1-1.38-1.385v-57.85a1.38 1.38 0 1 1 2.76 0v57.85c0 .765-.62 1.385-1.38 1.385Z"/><path fill="#222" d="M277.12 188.994c-.42 0-.835-.19-1.105-.55l-6.185-8.195-29.175-38.575-35.385 46.77a1.38 1.38 0 1 1-2.205-1.665l36.485-48.225a1.385 1.385 0 0 1 2.21 0l30.28 40.035 6.185 8.195a1.38 1.38 0 0 1-1.1 2.215l-.005-.005Z"/><path fill="#222" d="M270.805 238.734a1.38 1.38 0 0 1-1.38-1.385v-57.85a1.38 1.38 0 1 1 2.76 0v57.85c0 .765-.62 1.385-1.38 1.385ZM54.85 238.733H39.89a1.38 1.38 0 0 1-1.38-1.385v-89.73a1.38 1.38 0 1 1 2.76 0v88.35h13.575c.765 0 1.38.62 1.38 1.385s-.62 1.385-1.38 1.385l.005-.005Z"/><path fill="#444" d="M32.07 94.219v61.665h98.47l46.725-61.665H32.07Z"/><path fill="#222" d="M130.54 157.264H32.07a1.38 1.38 0 0 1-1.38-1.38V94.219c0-.765.62-1.38 1.38-1.38h145.195c.525 0 1.005.295 1.24.765.235.47.18 1.03-.135 1.45l-46.73 61.665c-.26.345-.67.545-1.1.545Zm-97.085-2.765h96.4l44.635-58.9H33.455v58.9Z"/><path fill="#222" d="M212.43 145.088c-.435 0-.86-.2-1.13-.58l-35.165-49.49a1.39 1.39 0 0 1 .325-1.93 1.39 1.39 0 0 1 1.93.325l35.165 49.49a1.39 1.39 0 0 1-.325 1.93 1.369 1.369 0 0 1-.8.255ZM174.505 238.734a1.38 1.38 0 0 1-1.38-1.385v-57.85a1.38 1.38 0 1 1 2.76 0v57.85c0 .765-.62 1.385-1.38 1.385Z"/><path fill="#DADADA" d="M66.695 56.328c-6.355 0-11.51 5.155-11.51 11.51v175.14c0 1.59.645 3.03 1.685 4.07l6 6a5.74 5.74 0 0 1-1.685-4.07V68.083a5.749 5.749 0 0 1 5.755-5.755h238.375c1.59 0 3.03.645 4.07 1.685l-6-6a5.74 5.74 0 0 0-4.07-1.685H66.695Z"/><path fill="#222" d="M62.87 254.428c-.355 0-.71-.135-.98-.405l-6-6a7.084 7.084 0 0 1-2.09-5.045V67.838c0-7.11 5.785-12.89 12.89-12.89h232.625c1.905 0 3.7.74 5.045 2.09l6 6a1.382 1.382 0 1 1-1.955 1.955l-.01-.01a4.343 4.343 0 0 0-3.08-1.27H66.94c-1.17 0-2.265.455-3.09 1.28a4.346 4.346 0 0 0-1.28 3.09v180.89c0 1.17.455 2.265 1.28 3.09a1.382 1.382 0 0 1-.98 2.36v.005Zm3.825-196.715c-5.585 0-10.125 4.545-10.125 10.125v175.135c0 1.17.455 2.265 1.28 3.09l1.955 1.955V68.083c0-1.905.74-3.7 2.09-5.045a7.084 7.084 0 0 1 5.045-2.09h237.425l-1.955-1.955a4.346 4.346 0 0 0-3.09-1.28H66.695Z"/><path fill="#FF3158" d="M305.315 62.328H66.94a5.753 5.753 0 0 0-5.755 5.755v180.89a5.753 5.753 0 0 0 5.755 5.755h238.375a5.753 5.753 0 0 0 5.755-5.755V68.083a5.753 5.753 0 0 0-5.755-5.755Zm-1.765 175.04H68.7V81.263h234.85v156.105Z"/><path fill="#222" d="M305.315 256.113H66.94a7.142 7.142 0 0 1-7.135-7.135V68.083c0-3.935 3.2-7.135 7.135-7.135h238.375c3.935 0 7.135 3.2 7.135 7.135v180.89c0 3.935-3.2 7.135-7.135 7.135v.005ZM66.94 63.713c-2.41 0-4.37 1.96-4.37 4.37v180.89c0 2.41 1.96 4.37 4.37 4.37h238.375c2.41 0 4.37-1.96 4.37-4.37V68.083c0-2.41-1.96-4.37-4.37-4.37H66.94Zm236.615 175.04H68.7a1.38 1.38 0 0 1-1.38-1.385V81.263c0-.765.62-1.38 1.38-1.38h234.85c.765 0 1.38.62 1.38 1.38v156.105c0 .765-.62 1.385-1.38 1.385h.005Zm-233.47-2.765H302.17V82.648H70.085v153.34Z"/><path fill="#222" d="M186.13 74.443a2.47 2.47 0 1 0 0-4.94 2.47 2.47 0 0 0 0 4.94ZM283.635 97.028h87.35v77.19h-27.54l-10.035 14.21v-14.21h-49.775v-77.19Z"/><path fill="#DADADA" d="M333.41 189.808a1.38 1.38 0 0 1-1.385-1.385v-12.825h-48.39a1.38 1.38 0 0 1-1.38-1.38v-77.19c0-.765.62-1.38 1.38-1.38h87.35c.765 0 1.38.62 1.38 1.38v77.19c0 .765-.62 1.38-1.38 1.38H344.16l-9.62 13.625c-.265.375-.69.585-1.13.585Zm-48.39-16.975h48.39c.765 0 1.38.62 1.38 1.38v9.855l7.525-10.65c.26-.365.68-.585 1.13-.585H369.6v-74.42h-84.585v74.425l.005-.005Z"/><path fill="#FF3158" d="M327.31 111.783c-13.165 0-23.84 10.675-23.84 23.84s10.675 23.84 23.84 23.84 23.84-10.675 23.84-23.84-10.675-23.84-23.84-23.84Z"/><path fill="#222" d="M327.31 160.848c-13.91 0-25.225-11.315-25.225-25.225 0-13.91 11.315-25.225 25.225-25.225 13.91 0 25.225 11.315 25.225 25.225 0 13.91-11.315 25.225-25.225 25.225Zm0-47.68c-12.385 0-22.46 10.075-22.46 22.46 0 12.385 10.075 22.46 22.46 22.46 12.385 0 22.46-10.075 22.46-22.46 0-12.385-10.075-22.46-22.46-22.46Z"/><path fill="#fff" d="M338.86 133.073c-1.09 2.6-9.15 14.135-11.55 17.54-2.405-3.405-10.465-14.94-11.55-17.54-1.53-3.655-.295-7.3 2.755-8.58 3.05-1.275 6.765.3 8.29 3.955.19.455.355 1.095.505 1.87.15-.775.315-1.415.505-1.87 1.53-3.655 5.24-5.23 8.29-3.955 3.05 1.275 4.28 4.925 2.755 8.58Z"/><path fill="#222" d="M327.31 151.998c-.45 0-.87-.22-1.13-.585-1.74-2.465-10.485-14.9-11.7-17.805-1.81-4.33-.31-8.795 3.495-10.385 3.405-1.425 7.24-.01 9.335 3.235.88-1.36 2.085-2.43 3.505-3.085 1.895-.875 3.965-.925 5.83-.15 3.805 1.59 5.305 6.055 3.495 10.385-1.215 2.9-9.96 15.34-11.7 17.805-.26.365-.68.585-1.13.585Zm-6.605-26.56a4.3 4.3 0 0 0-1.66.335c-2.39 1-3.235 3.845-2.01 6.77.735 1.76 5.64 9.06 10.275 15.67 4.635-6.615 9.54-13.915 10.275-15.67 1.22-2.925.375-5.77-2.015-6.77-1.14-.475-2.42-.44-3.605.11-1.26.58-2.285 1.685-2.88 3.105-.1.235-.255.705-.425 1.595a1.382 1.382 0 0 1-1.355 1.12c-.66 0-1.23-.47-1.355-1.12-.175-.895-.325-1.365-.425-1.595-.92-2.205-2.855-3.545-4.825-3.545l.005-.005Z"/><path fill="#DADADA" d="m246.805 132.919 30.27 40.045-.12.08v57.865H259.67v-39.445c0-7.735-5.775-13.985-12.87-13.985-7.095 0-12.87 6.255-12.87 13.985v39.445h-17.285v-57.865l-.12-.1 30.27-40.025h.01ZM174.355 132.919h41.14l-32.07-45.16-32.79 43.26-13.945 18.405H74.845v81.485h105.8v-49.755h-6.295v-48.235h.005Zm-53.87 43.44v10.73h-20.3v-21.46h20.3v10.73Z" style="mix-blend-mode:multiply"/><path fill="#fff" d="M335.374 348.394c0 12.42-5.32 20.765-16.82 20.765s-16.82-8.345-16.82-20.765c0-17.385 5.32-22.49 16.82-22.49s16.82 5.1 16.82 22.49Z"/><path fill="#444" d="M318.555 370.539c-11.57 0-18.205-8.07-18.205-22.145 0-17.18 5.105-23.87 18.205-23.87 13.1 0 18.205 6.695 18.205 23.87 0 14.075-6.635 22.145-18.205 22.145Zm0-43.25c-9.775 0-15.44 3.455-15.44 21.105 0 7.24 2.005 19.38 15.44 19.38 13.435 0 15.44-12.14 15.44-19.38 0-17.65-5.66-21.105-15.44-21.105Z"/><path fill="#444" d="M334.795 341.309H302.31a1.38 1.38 0 0 1-1.38-1.385c0-.765.62-1.385 1.38-1.385h32.485c.765 0 1.38.62 1.38 1.385s-.62 1.385-1.38 1.385Z"/><path fill="#444" d="M318.555 341.134a1.38 1.38 0 0 1-1.38-1.385v-54.31c0-2.41-1.96-4.37-4.37-4.37h-115.33a1.38 1.38 0 0 1-1.38-1.385c0-.765.62-1.385 1.38-1.385h115.33c3.935 0 7.135 3.2 7.135 7.135v54.31c0 .765-.62 1.385-1.38 1.385l-.005.005Z"/><path fill="#fff" d="M290.775 334.524H116.81l-31.455-45.405H259.24l31.535 45.405Z"/><path fill="#222" d="M290.775 335.909H116.81c-.455 0-.88-.22-1.135-.595L84.22 289.909a1.389 1.389 0 0 1-.09-1.43c.24-.455.71-.74 1.225-.74H259.24c.455 0 .875.22 1.135.595l31.535 45.405c.295.425.33.975.09 1.43-.24.455-.71.74-1.225.74Zm-173.24-2.765h170.6l-29.615-42.64H87.995l29.54 42.64Z"/><path fill="#222" d="M259.24 290.504H85.355a1.38 1.38 0 0 1-1.38-1.385c0-.765.62-1.385 1.38-1.385H259.24c.765 0 1.38.62 1.38 1.385s-.62 1.385-1.38 1.385ZM267.125 301.854H93.22a1.38 1.38 0 0 1-1.38-1.385c0-.765.62-1.385 1.38-1.385h173.905c.765 0 1.38.62 1.38 1.385s-.62 1.385-1.38 1.385ZM275.01 313.204H101.085a1.38 1.38 0 0 1-1.38-1.385c0-.765.62-1.385 1.38-1.385H275.01c.765 0 1.38.62 1.38 1.385s-.62 1.385-1.38 1.385ZM282.895 324.559h-173.95a1.38 1.38 0 0 1-1.38-1.385c0-.765.62-1.385 1.38-1.385H282.89c.765 0 1.38.62 1.38 1.385s-.62 1.385-1.38 1.385h.005ZM290.775 335.909H116.81a1.38 1.38 0 0 1-1.38-1.385c0-.765.62-1.385 1.38-1.385h173.965c.765 0 1.38.62 1.38 1.385s-.62 1.385-1.38 1.385Z"/><path fill="#222" d="M290.775 335.908c-.44 0-.87-.205-1.135-.595l-31.535-45.405a1.386 1.386 0 0 1 .345-1.925 1.386 1.386 0 0 1 1.925.345l31.535 45.405c.435.625.28 1.49-.345 1.925-.24.165-.515.245-.785.245l-.005.005ZM274.96 335.908c-.44 0-.87-.205-1.135-.595L242.3 289.908a1.386 1.386 0 0 1 .345-1.925 1.386 1.386 0 0 1 1.925.345l31.525 45.405c.435.625.28 1.49-.345 1.925-.24.165-.515.245-.785.245l-.005.005ZM259.145 335.908c-.44 0-.87-.205-1.135-.595l-31.52-45.405a1.386 1.386 0 0 1 .345-1.925 1.386 1.386 0 0 1 1.925.345l31.52 45.405c.435.625.28 1.49-.345 1.925-.24.165-.515.245-.785.245l-.005.005ZM243.33 335.908c-.44 0-.87-.205-1.135-.595l-31.51-45.405a1.386 1.386 0 0 1 2.275-1.58l31.51 45.405a1.382 1.382 0 0 1-1.135 2.17l-.005.005ZM227.515 335.908c-.44 0-.87-.21-1.135-.595l-31.505-45.405a1.382 1.382 0 1 1 2.275-1.575l31.505 45.405a1.382 1.382 0 0 1-1.135 2.17h-.005ZM211.7 335.908c-.44 0-.87-.21-1.135-.595l-31.495-45.405a1.382 1.382 0 0 1 .35-1.925c.63-.435 1.49-.28 1.925.35l31.495 45.405a1.382 1.382 0 0 1-1.135 2.17h-.005ZM195.885 335.908c-.44 0-.87-.21-1.135-.595l-31.49-45.405a1.382 1.382 0 1 1 2.275-1.575l31.49 45.405a1.382 1.382 0 0 1-1.135 2.17h-.005ZM180.07 335.908c-.44 0-.87-.21-1.135-.595l-31.48-45.405a1.382 1.382 0 1 1 2.275-1.575l31.48 45.405a1.382 1.382 0 0 1-1.135 2.17h-.005ZM164.255 335.908c-.44 0-.87-.21-1.135-.595l-31.475-45.405a1.382 1.382 0 1 1 2.275-1.575l31.475 45.405a1.382 1.382 0 0 1-1.135 2.17h-.005ZM148.44 335.908c-.44 0-.87-.21-1.135-.595l-31.47-45.405a1.382 1.382 0 1 1 2.275-1.575l31.47 45.405a1.382 1.382 0 0 1-1.135 2.17h-.005ZM132.625 335.908c-.44 0-.87-.21-1.14-.595l-31.46-45.405a1.382 1.382 0 1 1 2.275-1.575l31.46 45.405a1.382 1.382 0 0 1-1.135 2.17ZM116.81 335.908c-.44 0-.87-.21-1.14-.595l-31.455-45.405c-.435-.63-.28-1.49.35-1.925.63-.435 1.49-.28 1.925.35l31.455 45.405a1.382 1.382 0 0 1-1.135 2.17Z"/></svg>