<svg xmlns="http://www.w3.org/2000/svg" width="400" height="401" fill="none" viewBox="0 0 400 401"><path fill="#DADADA" d="M374.131 316.925h-223.2l-90.025-52.67v-14.44l213.405-2.41 99.82 58.68v10.84Z"/><path fill="#222" d="M374.132 318.311H150.931c-.245 0-.485-.065-.7-.19l-90.024-52.67a1.387 1.387 0 0 1-.685-1.195v-14.44c0-.76.61-1.375 1.37-1.385l213.404-2.41c.26.01.5.065.715.19l99.816 58.68c.424.25.685.705.685 1.195v10.84c0 .765-.62 1.385-1.386 1.385h.006Zm-222.826-2.77h221.44v-8.665l-98.8-58.085-211.65 2.39v12.28l89.015 52.08h-.005Z"/><path fill="#fff" d="M374.131 306.086h-223.2l-83.13-48.635h223.195l83.135 48.635Z"/><path fill="#222" d="M374.131 307.471h-223.2c-.245 0-.485-.065-.7-.19l-83.13-48.64a1.38 1.38 0 0 1-.635-1.555 1.38 1.38 0 0 1 1.335-1.02h223.2c.245 0 .485.065.7.19l83.13 48.64c.54.315.8.955.635 1.555a1.38 1.38 0 0 1-1.335 1.02Zm-222.825-2.77h217.715l-78.4-45.87H72.906l78.4 45.87Z"/><path fill="#222" d="M150.931 318.311c-.765 0-1.385-.62-1.385-1.385v-10.84a1.385 1.385 0 1 1 2.77 0v10.84c0 .765-.62 1.385-1.385 1.385Z"/><path fill="#DADADA" d="M284.105 250.926 67.8 257.451l-6.895-3.98V80.336h219.93l10.16 6.525-6.89 164.065Z"/><path fill="#222" d="M67.8 258.831c-.245 0-.48-.065-.69-.185l-6.895-3.98a1.377 1.377 0 0 1-.69-1.2V80.336c0-.765.62-1.385 1.385-1.385h219.93c.265 0 .525.075.75.22l10.16 6.52c.415.265.655.73.635 1.225l-6.895 164.07a1.381 1.381 0 0 1-1.34 1.325l-216.305 6.52H67.8Zm-5.51-6.16 5.86 3.38 214.625-6.47 6.805-161.985-9.15-5.875H62.29v170.95Z"/><path fill="#fff" d="M291.001 86.861h-223.2v170.59H291V86.861Z"/><path fill="#222" d="M290.996 258.831H67.801c-.765 0-1.385-.62-1.385-1.385V86.856c0-.765.62-1.385 1.385-1.385h223.2c.765 0 1.385.62 1.385 1.385v170.59c0 .765-.62 1.385-1.385 1.385h-.005Zm-221.815-2.77h220.43V88.241H69.186v167.825l-.005-.005Z"/><path fill="#222" d="M277.576 100.735H81.226V248.61h196.35V100.735Z"/><path fill="#222" d="M277.571 249.996H81.226c-.765 0-1.385-.62-1.385-1.385V100.736c0-.765.62-1.385 1.385-1.385h196.35c.765 0 1.385.62 1.385 1.385v147.875c0 .765-.62 1.385-1.385 1.385h-.005Zm-194.965-2.77h193.58V102.121H82.611v145.105h-.005Z"/><path fill="#fff" d="m207.866 137.065-39.37-23.21-42.6 23.21V198.1l25.035 23.21h81.97v-61.035l-25.035-23.21Z"/><path fill="#DADADA" d="m192.637 137.065 15.23 8.51V198.1h-15.23v-61.035Z" style="mix-blend-mode:multiply"/><path fill="#FF3158" d="M159.791 220.946v-34.03c0-6.44 5.22-11.66 11.66-11.66s11.66 5.22 11.66 11.66v34.03"/><path fill="#222" d="M209.256 145.19h-2.77v52.915h2.77V145.19Z"/><path fill="#222" d="m208.813 197.102-1.883 2.031 25.033 23.213 1.883-2.031-25.033-23.213ZM194.022 137.065h-2.77v84.245h2.77v-84.245Z"/><path fill="#222" d="M207.867 196.716h-15.23v2.77h15.23v-2.77ZM126.84 136.057l-1.884 2.031 25.033 23.213 1.884-2.031-25.033-23.213Z"/><path fill="#222" d="M152.317 221.311h-2.77v-61.85l43.41-23.985 40.64 23.605-1.39 2.395-39.285-22.82-40.605 22.435v60.22Z"/><path fill="#222" d="M234.287 222.696h-83.9l-25.875-23.99v-62.46l44.01-23.98 40.18 23.685.11.1 25.475 23.62v63.025Zm-82.81-2.77h80.045v-59.05l-24.48-22.7-38.57-22.735-41.185 22.44v59.61l24.19 22.43v.005Z"/><path fill="#222" d="M184.496 220.946h-2.77v-34.03c0-5.665-4.61-10.275-10.275-10.275s-10.275 4.61-10.275 10.275v34.03h-2.77v-34.03c0-7.195 5.85-13.045 13.045-13.045s13.045 5.85 13.045 13.045v34.03Z"/><path fill="#222" d="M176.491 203.535a3.214 3.214 0 1 0 .001-6.429 3.214 3.214 0 0 0-.001 6.429ZM67.802 88.241c-.34 0-.686-.125-.95-.38l-6.896-6.52a1.383 1.383 0 1 1 1.9-2.01l6.895 6.52a1.383 1.383 0 0 1-.95 2.39Z"/><path fill="#444" d="m301.915 280.011-13.945-8.155-19.07-.005 14.11 8.16h18.905ZM254.401 280.011l-14.11-8.16h-20.66l14.11 8.16h20.66ZM252.625 262.436l12.835 7.425h19.1l-12.69-7.425h-19.245ZM279.036 280.011l-14.11-8.16h-20.66l14.11 8.16h20.66ZM203.351 262.436l12.835 7.425h20.665l-12.835-7.425h-20.665ZM227.99 262.436l12.835 7.425h20.66l-12.835-7.425h-20.66ZM178.716 262.436l12.835 7.425h20.66l-12.835-7.425h-20.66ZM180.491 280.011l-14.11-8.16h-20.66l14.11 8.16h20.66ZM229.765 280.011l-14.11-8.16H194.99l14.11 8.16h20.665ZM122.861 271.851l13.95 8.16h19.045l-14.11-8.16h-18.885ZM205.125 280.011l-14.11-8.16h-20.66l14.11 8.16h20.66ZM154.076 262.436l12.84 7.425h20.66l-12.835-7.425h-20.665ZM296.865 290.326l-14.385-8.32h-20.665l14.39 8.32h20.66ZM272.231 290.326l-14.39-8.32h-20.66l14.39 8.32h20.66ZM247.595 290.326l-14.39-8.32h-20.66l14.385 8.32h20.665ZM323.541 292.265s.04-.025.06-.035c-.02.01-.04.025-.06.035ZM319.545 290.326l-14.23-8.32h-18.86l14.385 8.32h18.705ZM106.766 262.436l12.69 7.425h18.845l-12.835-7.425h-18.7ZM129.44 262.436l12.835 7.425h20.665l-12.835-7.425H129.44ZM198.321 290.326l-14.391-8.32h-20.659l14.39 8.32h20.66ZM222.956 290.326l-14.385-8.32h-20.665l14.39 8.32h20.66ZM173.686 290.326l-14.39-8.32h-19.085l14.23 8.32h19.245Z"/><path fill="#222" d="M179.056 96.39a2.565 2.565 0 1 0 0-5.129 2.565 2.565 0 0 0 0 5.13Z"/></svg>