<svg xmlns="http://www.w3.org/2000/svg" width="400" height="401" fill="none" viewBox="0 0 400 401"><path fill="#DADADA" d="M374.13 318.725h-222.6L61.75 266.2v-14.405l212.83-2.4 99.55 58.52v10.81Z"/><path fill="#222" d="M374.13 320.11h-222.6c-.245 0-.485-.065-.7-.19l-89.78-52.53a1.387 1.387 0 0 1-.685-1.195v-14.4c0-.76.61-1.375 1.37-1.385l212.83-2.405c.26.01.5.065.715.19l99.545 58.52c.425.25.685.705.685 1.195v10.81c0 .765-.62 1.385-1.385 1.385l.005.005Zm-222.22-2.77h220.84v-8.635l-98.535-57.925-211.08 2.385v12.24l88.77 51.94.005-.005Z"/><path fill="#fff" d="M374.13 307.915h-222.6L68.625 259.41H291.22l82.91 48.505Z"/><path fill="#222" d="M374.13 309.3h-222.6c-.245 0-.485-.065-.7-.19l-82.905-48.505a1.38 1.38 0 0 1-.635-1.555 1.38 1.38 0 0 1 1.335-1.02H291.22c.245 0 .485.065.7.19l82.905 48.505c.54.315.8.955.635 1.555a1.38 1.38 0 0 1-1.335 1.02h.005Zm-222.22-2.77h217.115l-78.175-45.74H73.73l78.175 45.74h.005Z"/><path fill="#222" d="M151.53 320.109c-.765 0-1.385-.62-1.385-1.385v-10.81a1.385 1.385 0 1 1 2.77 0v10.81c0 .765-.62 1.385-1.385 1.385Z"/><path fill="#DADADA" d="m284.345 252.904-215.72 6.505-6.875-3.97V82.774h219.34l10.13 6.505-6.875 163.625Z"/><path fill="#222" d="M68.625 260.79c-.245 0-.48-.065-.69-.185l-6.875-3.965a1.377 1.377 0 0 1-.69-1.2V82.775c0-.765.62-1.385 1.385-1.385h219.34c.265 0 .525.075.75.22l10.135 6.505c.415.265.655.73.635 1.225l-6.875 163.625a1.381 1.381 0 0 1-1.34 1.325l-215.72 6.505h-.04l-.015-.005Zm-5.49-6.15 5.84 3.37 214.04-6.455 6.79-161.545-9.125-5.855H63.135V254.64Z"/><path fill="#fff" d="M291.22 89.28H68.625v170.13H291.22V89.28Z"/><path fill="#222" d="M291.22 260.791H68.625c-.765 0-1.385-.62-1.385-1.385V89.281c0-.766.62-1.386 1.385-1.386H291.22c.765 0 1.385.62 1.385 1.386v170.13c0 .765-.62 1.385-1.385 1.385v-.005Zm-221.215-2.77h219.83V90.661H70.01v167.36h-.005Z"/><path fill="#222" d="M277.835 103.12H82.015v147.475h195.82V103.12Z"/><path fill="#222" d="M277.83 251.98H82.015c-.765 0-1.385-.62-1.385-1.385V103.12c0-.765.62-1.385 1.385-1.385h195.82c.765 0 1.385.62 1.385 1.385v147.475c0 .765-.62 1.385-1.385 1.385h-.005Zm-194.435-2.77h193.05V104.505H83.4V249.21h-.005ZM68.625 90.66c-.34 0-.685-.125-.95-.38L60.8 83.775a1.383 1.383 0 1 1 1.9-2.01l6.875 6.505a1.383 1.383 0 0 1-.95 2.39Z"/><path fill="#444" d="m302.11 281.91-13.91-8.135-19.015-.005 14.07 8.14h18.855ZM254.725 281.91l-14.075-8.14h-20.605l14.07 8.14h20.61ZM252.95 264.38l12.805 7.405H284.8l-12.655-7.405H252.95ZM279.295 281.91l-14.075-8.14h-20.605l14.07 8.14h20.61ZM203.81 264.38l12.8 7.405h20.61l-12.8-7.405h-20.61ZM228.38 264.38l12.805 7.405h20.605l-12.8-7.405h-20.61ZM179.24 264.38l12.8 7.405h20.61l-12.805-7.405H179.24ZM181.01 281.91l-14.07-8.14h-20.605l14.07 8.14h20.605ZM230.15 281.91l-14.07-8.14h-20.605l14.07 8.14h20.605ZM123.535 273.77l13.915 8.14h18.99l-14.07-8.14h-18.835ZM205.58 281.91l-14.07-8.14h-20.605l14.07 8.14h20.605ZM154.67 264.38l12.8 7.405h20.61l-12.805-7.405H154.67ZM297.075 292.2l-14.35-8.305H262.12l14.35 8.305h20.605ZM272.505 292.2l-14.35-8.305H237.55l14.35 8.305h20.605ZM247.935 292.2l-14.35-8.305H212.98l14.35 8.305h20.605ZM323.675 294.13s.04-.025.06-.03c-.02.01-.04.025-.06.03ZM319.69 292.2l-14.19-8.305h-18.81l14.35 8.305h18.65ZM107.485 264.38l12.655 7.405h18.795l-12.8-7.405h-18.65ZM130.1 264.38l12.8 7.405h20.605l-12.8-7.405H130.1ZM198.795 292.2l-14.35-8.305h-20.61l14.35 8.305h20.61ZM223.365 292.2l-14.35-8.305H188.41l14.35 8.305h20.605ZM174.225 292.2l-14.35-8.305H140.84l14.19 8.305h19.195Z"/><path fill="#222" d="M179.58 98.785a2.56 2.56 0 1 0 0-5.12 2.56 2.56 0 0 0 0 5.12Z"/><path fill="#FF3158" d="M203.945 122.46h-55.6v118.495h55.6V122.46Z"/><path fill="#222" d="M203.945 241.88h-55.6a.926.926 0 0 1-.925-.925V122.46c0-.51.415-.925.925-.925h55.6c.51 0 .925.415.925.925v118.495c0 .51-.415.925-.925.925Zm-54.675-1.845h53.755v-116.65H149.27v116.65Z"/><path fill="#222" d="M155.54 241.88a.926.926 0 0 1-.925-.925V122.46a.926.926 0 0 1 1.85 0v118.495c0 .51-.415.925-.925.925ZM165.84 241.88a.926.926 0 0 1-.925-.925V122.46a.926.926 0 0 1 1.85 0v118.495c0 .51-.415.925-.925.925ZM176.145 241.88a.926.926 0 0 1-.925-.925V122.46a.926.926 0 0 1 1.85 0v118.495c0 .51-.415.925-.925.925ZM186.45 241.88a.926.926 0 0 1-.925-.925V122.46a.926.926 0 0 1 1.85 0v118.495c0 .51-.415.925-.925.925ZM196.755 241.88a.926.926 0 0 1-.925-.925V122.46a.926.926 0 0 1 1.85 0v118.495c0 .51-.415.925-.925.925Z"/><path fill="#DADADA" d="M253.075 240.96h-49.13V137.03l49.13 28.425v75.505Z"/><path fill="#222" d="M253.075 241.88h-49.13a.926.926 0 0 1-.925-.925v-103.93a.924.924 0 0 1 1.385-.8l49.13 28.425c.285.165.46.47.46.8v75.505c0 .51-.415.925-.925.925h.005Zm-48.21-1.845h47.285v-74.05l-47.285-27.355v101.405Z"/><path fill="#fff" d="M217.64 166.95h-6.935v10.93h6.935v-10.93Z"/><path fill="#222" d="M217.64 178.805h-6.935a.926.926 0 0 1-.925-.925v-10.93c0-.51.415-.925.925-.925h6.935c.51 0 .925.415.925.925v10.93c0 .51-.415.925-.925.925Zm-6.015-1.845h5.09v-9.085h-5.09v9.085Z"/><path fill="#fff" d="M231.53 166.95h-6.935v10.93h6.935v-10.93Z"/><path fill="#222" d="M231.535 178.805H224.6a.926.926 0 0 1-.925-.925v-10.93c0-.51.415-.925.925-.925h6.935c.51 0 .925.415.925.925v10.93c0 .51-.415.925-.925.925Zm-6.015-1.845h5.09v-9.085h-5.09v9.085Z"/><path fill="#fff" d="M245.42 166.95h-6.935v10.93h6.935v-10.93Z"/><path fill="#222" d="M245.425 178.805h-6.935a.926.926 0 0 1-.925-.925v-10.93c0-.51.415-.925.925-.925h6.935c.51 0 .925.415.925.925v10.93c0 .51-.415.925-.925.925Zm-6.015-1.845h5.09v-9.085h-5.09v9.085Z"/><path fill="#fff" d="M217.64 183.529h-6.935v10.93h6.935v-10.93Z"/><path fill="#222" d="M217.64 195.384h-6.935a.925.925 0 0 1-.925-.924v-10.931c0-.51.415-.925.925-.925h6.935c.51 0 .925.415.925.925v10.931c0 .51-.415.924-.925.924Zm-6.015-1.845h5.09v-9.085h-5.09v9.085Z"/><path fill="#fff" d="M231.53 183.529h-6.935v10.93h6.935v-10.93Z"/><path fill="#222" d="M231.535 195.384H224.6a.925.925 0 0 1-.925-.924v-10.931c0-.51.415-.925.925-.925h6.935c.51 0 .925.415.925.925v10.931c0 .51-.415.924-.925.924Zm-6.015-1.845h5.09v-9.085h-5.09v9.085Z"/><path fill="#fff" d="M245.42 183.529h-6.935v10.93h6.935v-10.93Z"/><path fill="#222" d="M245.425 195.384h-6.935a.925.925 0 0 1-.925-.924v-10.931c0-.51.415-.925.925-.925h6.935c.51 0 .925.415.925.925v10.931c0 .51-.415.924-.925.924Zm-6.015-1.845h5.09v-9.085h-5.09v9.085Z"/><path fill="#fff" d="M217.64 200.529h-6.935v10.93h6.935v-10.93Z"/><path fill="#222" d="M217.64 212.384h-6.935a.925.925 0 0 1-.925-.924v-10.931c0-.51.415-.925.925-.925h6.935c.51 0 .925.415.925.925v10.931c0 .51-.415.924-.925.924Zm-6.015-1.845h5.09v-9.085h-5.09v9.085Z"/><path fill="#fff" d="M231.53 200.529h-6.935v10.93h6.935v-10.93Z"/><path fill="#222" d="M231.535 212.384H224.6a.925.925 0 0 1-.925-.924v-10.931c0-.51.415-.925.925-.925h6.935c.51 0 .925.415.925.925v10.931c0 .51-.415.924-.925.924Zm-6.015-1.845h5.09v-9.085h-5.09v9.085Z"/><path fill="#fff" d="M245.42 200.529h-6.935v10.93h6.935v-10.93Z"/><path fill="#222" d="M245.425 212.384h-6.935a.925.925 0 0 1-.925-.924v-10.931c0-.51.415-.925.925-.925h6.935c.51 0 .925.415.925.925v10.931c0 .51-.415.924-.925.924Zm-6.015-1.845h5.09v-9.085h-5.09v9.085Z"/><path fill="#fff" d="M217.64 217.529h-6.935v10.93h6.935v-10.93Z"/><path fill="#222" d="M217.64 229.384h-6.935a.925.925 0 0 1-.925-.924v-10.931c0-.51.415-.925.925-.925h6.935c.51 0 .925.415.925.925v10.931c0 .51-.415.924-.925.924Zm-6.015-1.845h5.09v-9.085h-5.09v9.085Z"/><path fill="#fff" d="M231.53 217.529h-6.935v10.93h6.935v-10.93Z"/><path fill="#222" d="M231.535 229.384H224.6a.925.925 0 0 1-.925-.924v-10.931c0-.51.415-.925.925-.925h6.935c.51 0 .925.415.925.925v10.931c0 .51-.415.924-.925.924Zm-6.015-1.845h5.09v-9.085h-5.09v9.085Z"/><path fill="#fff" d="M245.42 217.529h-6.935v10.93h6.935v-10.93Z"/><path fill="#222" d="M245.425 229.384h-6.935a.925.925 0 0 1-.925-.924v-10.931c0-.51.415-.925.925-.925h6.935c.51 0 .925.415.925.925v10.931c0 .51-.415.924-.925.924Zm-6.015-1.845h5.09v-9.085h-5.09v9.085Z"/><path fill="#F5F4F3" d="M155.805 151.995h-47.75v88.965h47.75v-88.965Z"/><path fill="#222" d="M155.805 241.88h-47.75a.926.926 0 0 1-.925-.925v-88.96c0-.51.415-.925.925-.925h47.75c.51 0 .925.415.925.925v88.96c0 .51-.415.925-.925.925Zm-46.825-1.845h45.9V152.92h-45.9v87.115Z"/><path fill="#444" d="M128.855 157.471H115.66v10.93h13.195v-10.93Z"/><path fill="#222" d="M128.855 169.326H115.66a.926.926 0 0 1-.925-.925v-10.93c0-.51.415-.925.925-.925h13.195c.51 0 .925.415.925.925v10.93c0 .51-.415.925-.925.925Zm-12.27-1.845h11.35v-9.085h-11.35v9.085Z"/><path fill="#444" d="M148.205 157.471H135.01v10.93h13.195v-10.93Z"/><path fill="#222" d="M148.205 169.326H135.01a.926.926 0 0 1-.925-.925v-10.93c0-.51.415-.925.925-.925h13.195c.51 0 .925.415.925.925v10.93c0 .51-.415.925-.925.925Zm-12.27-1.845h11.35v-9.085h-11.35v9.085Z"/><path fill="#444" d="M128.855 174.051H115.66v10.93h13.195v-10.93Z"/><path fill="#222" d="M128.855 185.906H115.66a.926.926 0 0 1-.925-.925v-10.93c0-.51.415-.925.925-.925h13.195c.51 0 .925.415.925.925v10.93c0 .51-.415.925-.925.925Zm-12.27-1.845h11.35v-9.085h-11.35v9.085Z"/><path fill="#444" d="M148.205 174.051H135.01v10.93h13.195v-10.93Z"/><path fill="#222" d="M148.205 185.906H135.01a.926.926 0 0 1-.925-.925v-10.93c0-.51.415-.925.925-.925h13.195c.51 0 .925.415.925.925v10.93c0 .51-.415.925-.925.925Zm-12.27-1.845h11.35v-9.085h-11.35v9.085Z"/><path fill="#444" d="M128.855 190.635H115.66v10.93h13.195v-10.93Z"/><path fill="#222" d="M128.855 202.49H115.66a.926.926 0 0 1-.925-.925v-10.93c0-.51.415-.925.925-.925h13.195c.51 0 .925.415.925.925v10.93c0 .51-.415.925-.925.925Zm-12.27-1.845h11.35v-9.085h-11.35v9.085Z"/><path fill="#444" d="M148.205 190.635H135.01v10.93h13.195v-10.93Z"/><path fill="#222" d="M148.205 202.49H135.01a.926.926 0 0 1-.925-.925v-10.93c0-.51.415-.925.925-.925h13.195c.51 0 .925.415.925.925v10.93c0 .51-.415.925-.925.925Zm-12.27-1.845h11.35v-9.085h-11.35v9.085Z"/><path fill="#444" d="M128.855 207.221H115.66v10.93h13.195v-10.93Z"/><path fill="#222" d="M128.855 219.076H115.66a.926.926 0 0 1-.925-.925v-10.93c0-.51.415-.925.925-.925h13.195c.51 0 .925.415.925.925v10.93c0 .51-.415.925-.925.925Zm-12.27-1.845h11.35v-9.085h-11.35v9.085Z"/><path fill="#444" d="M148.205 207.221H135.01v10.93h13.195v-10.93Z"/><path fill="#222" d="M148.205 219.076H135.01a.926.926 0 0 1-.925-.925v-10.93c0-.51.415-.925.925-.925h13.195c.51 0 .925.415.925.925v10.93c0 .51-.415.925-.925.925Zm-12.27-1.845h11.35v-9.085h-11.35v9.085Z"/><path fill="#444" d="M128.855 223.801H115.66v10.93h13.195v-10.93Z"/><path fill="#222" d="M128.855 235.656H115.66a.926.926 0 0 1-.925-.925v-10.93c0-.51.415-.925.925-.925h13.195c.51 0 .925.415.925.925v10.93c0 .51-.415.925-.925.925Zm-12.27-1.845h11.35v-9.085h-11.35v9.085Z"/><path fill="#444" d="M148.205 223.801H135.01v10.93h13.195v-10.93Z"/><path fill="#222" d="M148.205 235.656H135.01a.926.926 0 0 1-.925-.925v-10.93c0-.51.415-.925.925-.925h13.195c.51 0 .925.415.925.925v10.93c0 .51-.415.925-.925.925Zm-12.27-1.845h11.35v-9.085h-11.35v9.085Z"/></svg>