<svg xmlns="http://www.w3.org/2000/svg" width="400" height="400" fill="none" viewBox="0 0 400 400"><path fill="#DADADA" d="m21.227 149.5 46.09 57.18h193.86l-46.09-57.18H21.227Z"/><path fill="#222" d="M273.912 212.505H80.052c-.42 0-.815-.19-1.08-.515l-46.09-57.185a1.381 1.381 0 0 1 1.08-2.25h193.86c.42 0 .815.19 1.08.515l46.09 57.185a1.381 1.381 0 0 1-1.08 2.25Zm-193.195-2.77h190.305l-43.86-54.415H36.857l43.86 54.415Z" style="mix-blend-mode:multiply"/><path fill="#fff" d="M252.562 136.785h-2.77v-7.38h2.77v7.38Zm0-14.765h-2.77v-6.765c0-.17-.005-.34-.02-.505l2.76-.22c.02.24.025.48.025.725v6.765h.005Zm-5.8-12.34a6.611 6.611 0 0 0-3.605-1.065h-2.77v-2.77h2.77c1.825 0 3.59.525 5.115 1.51l-1.505 2.32-.005.005Zm-13.76-1.065h-7.38v-2.77h7.38v2.77Zm-14.765 0h-7.38v-2.77h7.38v2.77Zm-14.765 0h-7.38v-2.77h7.38v2.77Zm-14.765 0h-7.38v-2.77h7.38v2.77Zm-14.765 0h-7.38v-2.77h7.38v2.77ZM138.001 247.24h-7.38v-2.77h7.38v2.77Zm-14.765 0h-5.97c-.55 0-1.085-.04-1.61-.12l.41-2.74c.39.06.795.09 1.2.09h5.97v2.77Zm-14.6-4.555a9.182 9.182 0 0 1-1.5-5.02v-2.87h2.77v2.87c0 1.24.365 2.45 1.05 3.505l-2.32 1.51v.005Zm1.265-15.27h-2.77v-7.38h2.77v7.38Zm0-14.765h-2.77v-7.38h2.77v7.38Zm0-14.765h-2.77v-7.38h2.77v7.38Z"/><path fill="#fff" d="m154.216 98.345-43.075-25.39-46.595 25.39v66.77l27.385 25.39h89.665v-66.77l-27.38-25.39Z"/><path fill="#DADADA" d="m137.552 98.345 16.665 9.31v57.46h-16.665v-66.77Z" style="mix-blend-mode:multiply"/><path fill="#FF3158" d="M101.622 190.105v-37.23c0-7.045 5.71-12.755 12.755-12.755 7.045 0 12.755 5.71 12.755 12.755v37.23"/><path fill="#222" d="M154.217 166.495c-.765 0-1.385-.62-1.385-1.385v-56.65a1.385 1.385 0 1 1 2.77 0v56.65c0 .765-.62 1.385-1.385 1.385Z"/><path fill="#222" d="M181.597 191.89c-.335 0-.675-.12-.94-.37l-27.385-25.39a1.383 1.383 0 1 1 1.88-2.03l27.385 25.39a1.383 1.383 0 0 1-.94 2.4ZM137.552 191.89c-.765 0-1.385-.62-1.385-1.385v-92.16a1.385 1.385 0 1 1 2.77 0v92.16c0 .765-.62 1.385-1.385 1.385Z"/><path fill="#222" d="M154.216 166.495h-16.66a1.385 1.385 0 1 1 0-2.77h16.66a1.385 1.385 0 1 1 0 2.77ZM91.932 125.12c-.335 0-.675-.12-.94-.37L63.607 99.36a1.383 1.383 0 1 1 1.88-2.03l27.385 25.39a1.383 1.383 0 0 1-.94 2.4Z"/><path fill="#222" d="M91.931 191.89c-.765 0-1.385-.62-1.385-1.385v-66.77c0-.505.275-.97.715-1.21l45.955-25.39c.425-.235.945-.23 1.365.015l43.715 25.39a1.382 1.382 0 1 1-1.39 2.39l-43.035-24.995-44.55 24.615v65.95c0 .765-.62 1.385-1.385 1.385l-.005.005Z"/><path fill="#222" d="M181.597 191.89H91.932c-.35 0-.685-.13-.94-.37l-27.385-25.39c-.28-.26-.445-.63-.445-1.015v-66.77c0-.505.275-.975.72-1.215l46.595-25.39a1.372 1.372 0 0 1 1.365.025l43.07 25.39c.085.05.165.11.24.175l27.385 25.39c.28.26.445.63.445 1.015v66.77c0 .765-.62 1.385-1.385 1.385Zm-89.125-2.77h87.74v-64.78l-26.83-24.88-42.265-24.915-45.185 24.62v65.345l26.545 24.61h-.005Z"/><path fill="#222" d="M127.132 191.49c-.765 0-1.385-.62-1.385-1.385v-37.23c0-6.27-5.1-11.37-11.37-11.37s-11.37 5.1-11.37 11.37v37.23a1.385 1.385 0 1 1-2.77 0v-37.23c0-7.795 6.345-14.14 14.14-14.14 7.795 0 14.14 6.345 14.14 14.14v37.23c0 .765-.62 1.385-1.385 1.385Z"/><path fill="#222" d="M119.887 171.055a3.515 3.515 0 1 0 0-7.03 3.515 3.515 0 0 0 0 7.03Z"/><path fill="#DADADA" d="M388.551 320.85h-174.4l-70.345-41.155V268.41l166.75-1.88 77.995 45.85v8.47Z"/><path fill="#222" d="M388.551 322.235h-174.4c-.245 0-.485-.065-.7-.19l-70.345-41.155a1.387 1.387 0 0 1-.685-1.195V268.41c0-.76.61-1.375 1.37-1.385l166.75-1.885c.25-.015.5.065.715.19l77.995 45.85c.425.25.685.705.685 1.195v8.47c0 .765-.62 1.385-1.385 1.385v.005Zm-174.025-2.77h172.645v-6.295l-76.98-45.255-164.995 1.865v9.12l69.335 40.565h-.005Z"/><path fill="#fff" d="M388.551 312.38h-174.4l-64.96-38.005h174.405l64.955 38.005Z"/><path fill="#222" d="M388.551 313.765h-174.4c-.245 0-.485-.065-.7-.19l-64.955-38.005a1.38 1.38 0 0 1-.635-1.555 1.38 1.38 0 0 1 1.335-1.02h174.4c.245 0 .485.065.7.19l64.955 38.005c.54.315.8.955.635 1.555a1.38 1.38 0 0 1-1.335 1.02Zm-174.025-2.77h168.92l-60.225-35.235h-168.92l60.225 35.235Z"/><path fill="#222" d="M214.152 322.235c-.765 0-1.385-.62-1.385-1.385v-8.47a1.385 1.385 0 1 1 2.77 0v8.47c0 .765-.62 1.385-1.385 1.385Z"/><path fill="#DADADA" d="m318.211 269.28-169.02 5.095-5.385-3.11v-135.28h171.85l7.94 5.095-5.385 128.2Z"/><path fill="#222" d="M149.191 275.761c-.245 0-.48-.065-.69-.185l-5.385-3.11a1.377 1.377 0 0 1-.69-1.2v-135.28c0-.765.62-1.385 1.385-1.385h171.85c.265 0 .525.075.75.22l7.94 5.095c.415.265.655.73.635 1.225l-5.385 128.2a1.381 1.381 0 0 1-1.34 1.325l-169.015 5.095h-.055Zm-4-5.29 4.355 2.51 167.335-5.045 5.3-126.12-6.93-4.45h-170.06v133.105Z"/><path fill="#fff" d="M323.591 141.08h-174.4v133.295h174.4V141.08Z"/><path fill="#222" d="M323.596 275.76H149.191c-.765 0-1.385-.62-1.385-1.385V141.08c0-.765.62-1.385 1.385-1.385h174.4c.765 0 1.385.62 1.385 1.385v133.295c0 .765-.62 1.385-1.385 1.385h.005Zm-173.02-2.77h171.635V142.465H150.576V272.99Z"/><path fill="#222" d="M313.101 151.925h-153.42V267.47h153.42V151.925Z"/><path fill="#222" d="M313.106 268.855H159.681c-.765 0-1.385-.62-1.385-1.385V151.925c0-.765.62-1.385 1.385-1.385h153.42c.765 0 1.385.62 1.385 1.385V267.47c0 .765-.62 1.385-1.385 1.385h.005Zm-152.04-2.77h150.655V153.31H161.066v112.775Z"/><path fill="#fff" d="m258.641 180.31-30.77-18.135-33.28 18.135v47.695l19.56 18.135h64.05v-47.695l-19.56-18.135Z"/><path fill="#DADADA" d="m246.736 180.311 11.905 6.65v41.045h-11.905v-47.695Z" style="mix-blend-mode:multiply"/><path fill="#FF3158" d="M221.071 245.855v-26.59c0-5.03 4.08-9.11 9.11-9.11 5.03 0 9.11 4.08 9.11 9.11v26.59"/><path fill="#222" d="M260.026 186.66h-2.77v41.345h2.77V186.66Z"/><path fill="#222" d="m259.587 227.008-1.884 2.032 19.56 18.137 1.883-2.031-19.559-18.138ZM248.122 180.31h-2.77v65.83h2.77v-65.83Z"/><path fill="#222" d="M258.636 226.62h-11.9v2.77h11.9v-2.77ZM195.532 179.308l-1.883 2.031 19.56 18.138 1.883-2.031-19.56-18.138Z"/><path fill="#222" d="M215.537 246.14h-2.77v-48.51l34.225-18.91 31.905 18.53-1.39 2.395-30.55-17.745-31.42 17.365v46.875Z"/><path fill="#222" d="M279.586 247.525h-65.975l-20.4-18.915v-49.12l34.695-18.905 31.57 18.61 20.115 18.65v49.68h-.005Zm-64.89-2.77h62.125V199.05l-19.01-17.625-29.96-17.66-31.875 17.365v46.265l18.72 17.355v.005Z"/><path fill="#222" d="M240.681 245.855h-2.77v-26.589c0-4.26-3.465-7.726-7.725-7.726s-7.725 3.466-7.725 7.726v26.589h-2.77v-26.589c0-5.785 4.71-10.495 10.495-10.495 5.785 0 10.495 4.71 10.495 10.495v26.589Z"/><path fill="#222" d="M234.121 232.246a2.51 2.51 0 1 0 0-5.02 2.51 2.51 0 0 0 0 5.02ZM149.191 142.466c-.34 0-.685-.125-.95-.38l-5.385-5.095a1.383 1.383 0 1 1 1.9-2.01l5.385 5.095a1.383 1.383 0 0 1-.95 2.39Z"/><path fill="#444" d="m332.126 292.006-10.895-6.375h-14.9l11.025 6.375h14.77ZM295.001 292.006l-11.025-6.375h-16.145l11.025 6.375h16.145ZM293.611 278.271l10.03 5.8h14.925l-9.915-5.8h-15.04ZM314.251 292.006l-11.025-6.375h-16.145l11.025 6.375h16.145ZM255.111 278.271l10.03 5.8h16.145l-10.03-5.8h-16.145ZM274.361 278.271l10.03 5.8h16.145l-10.03-5.8h-16.145ZM235.861 278.271l10.03 5.8h16.145l-10.03-5.8h-16.145ZM237.246 292.006l-11.025-6.375h-16.145l11.025 6.375h16.145ZM275.751 292.006l-11.025-6.375h-16.145l11.025 6.375h16.145ZM192.216 285.631l10.9 6.375h14.88l-11.025-6.375h-14.755ZM256.496 292.006l-11.025-6.375h-16.145l11.025 6.375h16.145ZM216.611 278.271l10.03 5.8h16.145l-10.03-5.8h-16.145ZM328.181 300.066l-11.24-6.505h-16.145l11.24 6.505h16.145ZM308.931 300.066l-11.24-6.505h-16.145l11.24 6.505h16.145ZM289.681 300.066l-11.245-6.505h-16.145l11.245 6.505h16.145ZM349.025 301.581s.03-.02.045-.025c-.015.005-.03.02-.045.025ZM345.901 300.066l-11.115-6.505h-14.74l11.24 6.505h14.615ZM179.641 278.271l9.915 5.8h14.725l-10.03-5.8h-14.61ZM197.361 278.271l10.025 5.8h16.145l-10.025-5.8h-16.145ZM251.181 300.066l-11.245-6.505h-16.145l11.245 6.505h16.145ZM270.431 300.066l-11.245-6.505h-16.145l11.245 6.505h16.145ZM231.931 300.066l-11.245-6.505h-14.91l11.115 6.505h15.04Z"/><path fill="#222" d="M236.126 148.526a2.005 2.005 0 1 0 0-4.01 2.005 2.005 0 0 0 0 4.01Z"/></svg>