<svg xmlns="http://www.w3.org/2000/svg" width="400" height="401" fill="none" viewBox="0 0 400 401"><path fill="#222" d="m94.95 212.25-.4 24.65 17.85-24.65h131.8V72.35H46.45v139.9h48.5Z"/><path fill="#222" d="M94.55 238.3c-.15 0-.3 0-.45-.05-.55-.2-.95-.75-.95-1.35l.4-23.25h-47.1c-.75 0-1.4-.6-1.4-1.4V72.35c0-.75.6-1.4 1.4-1.4h197.7c.75 0 1.4.6 1.4 1.4v139.9c0 .75-.6 1.4-1.4 1.4H113.1l-17.45 24.1c-.25.35-.7.55-1.1.55Zm-46.7-27.45h47.1c.35 0 .7.15 1 .4.3.25.4.6.4 1L96 232.5l15.25-21.1c.25-.35.7-.55 1.1-.55H242.8V73.75H47.85v137.1Z"/><path fill="#DADADA" d="m57.1 63.5-10.65 8.85H244.2l10.6-8.85H57.1Z"/><path fill="#222" d="M244.2 73.75H46.45c-.6 0-1.1-.35-1.3-.9-.2-.55-.05-1.15.4-1.55l10.65-8.85c.25-.2.55-.3.9-.3h197.7c.6 0 1.1.35 1.3.9.2.55.05 1.15-.4 1.55l-10.65 8.85c-.25.2-.55.3-.85.3ZM50.3 71h193.4l7.3-6.1H57.6L50.3 71Z"/><path fill="#DADADA" d="M244.2 72.35v139.9l10.6-8.9V63.5l-10.6 8.85Z"/><path fill="#222" d="M244.2 213.6c-.2 0-.4-.05-.6-.15-.5-.25-.8-.7-.8-1.25V72.35c0-.4.2-.8.5-1.05l10.65-8.85c.4-.35 1-.4 1.5-.2.5.25.8.7.8 1.25v139.85c0 .4-.2.8-.5 1.05l-10.65 8.85c-.3.25-.6.35-.9.35ZM245.55 73v136.25l7.85-6.55V66.45L245.55 73Z"/><path fill="#FF3158" d="M168.3 82.549h-54.6v116.4h54.6v-116.4Z"/><path fill="#222" d="M168.3 200.098h-54.6c-.65 0-1.15-.5-1.15-1.15v-116.4c0-.65.55-1.15 1.15-1.15h54.6c.65 0 1.15.55 1.15 1.15v116.4c0 .65-.5 1.15-1.15 1.15Zm-53.45-2.35h52.3V83.698h-52.3v114.05Z"/><path fill="#222" d="M120.75 200.098c-.65 0-1.15-.5-1.15-1.15v-116.4c0-.65.55-1.15 1.15-1.15.6 0 1.15.55 1.15 1.15v116.4c0 .65-.5 1.15-1.15 1.15ZM130.85 200.098c-.65 0-1.15-.5-1.15-1.15v-116.4c0-.65.5-1.15 1.15-1.15.65 0 1.15.55 1.15 1.15v116.4c.05.65-.5 1.15-1.15 1.15ZM141 200.098c-.65 0-1.15-.5-1.15-1.15v-116.4c0-.65.5-1.15 1.15-1.15.65 0 1.15.55 1.15 1.15v116.4c0 .65-.5 1.15-1.15 1.15ZM151.1 200.098c-.65 0-1.15-.5-1.15-1.15v-116.4c0-.65.5-1.15 1.15-1.15.65 0 1.15.55 1.15 1.15v116.4c.05.65-.5 1.15-1.15 1.15ZM161.25 200.098c-.65 0-1.15-.5-1.15-1.15v-116.4c0-.65.5-1.15 1.15-1.15.65 0 1.15.55 1.15 1.15v116.4c0 .65-.5 1.15-1.15 1.15Z"/><path fill="#DADADA" d="M216.55 198.95H168.3V96.85l48.25 27.95v74.15Z"/><path fill="#222" d="M216.55 200.099H168.3c-.65 0-1.15-.5-1.15-1.15v-102.1c0-.4.25-.8.6-1 .35-.2.8-.2 1.15 0l48.25 27.9c.35.2.6.6.6 1v74.15c0 .7-.55 1.2-1.2 1.2Zm-47.1-2.35h45.9v-72.3l-45.9-26.55v98.85Z"/><path fill="#fff" d="M181.75 126.25h-6.8V137h6.8v-10.75Z"/><path fill="#222" d="M181.75 138.15h-6.8c-.65 0-1.15-.5-1.15-1.15v-10.75c0-.65.5-1.15 1.15-1.15h6.8c.65 0 1.15.55 1.15 1.15V137c0 .65-.5 1.15-1.15 1.15Zm-5.65-2.35h4.45v-8.4h-4.45v8.4Z"/><path fill="#fff" d="M195.4 126.25h-6.8V137h6.8v-10.75Z"/><path fill="#222" d="M195.4 138.15h-6.8c-.65 0-1.15-.5-1.15-1.15v-10.75c0-.65.5-1.15 1.15-1.15h6.8c.65 0 1.15.55 1.15 1.15V137c0 .65-.5 1.15-1.15 1.15Zm-5.65-2.35h4.45v-8.4h-4.45v8.4Z"/><path fill="#fff" d="M209.05 126.25h-6.8V137h6.8v-10.75Z"/><path fill="#222" d="M209.05 138.15h-6.8c-.65 0-1.15-.5-1.15-1.15v-10.75c0-.65.5-1.15 1.15-1.15h6.8c.65 0 1.15.55 1.15 1.15V137c0 .65-.5 1.15-1.15 1.15Zm-5.65-2.35h4.45v-8.4h-4.45v8.4Z"/><path fill="#fff" d="M181.75 142.549h-6.8v10.75h6.8v-10.75Z"/><path fill="#222" d="M181.75 154.448h-6.8c-.65 0-1.15-.5-1.15-1.15v-10.75c0-.65.5-1.15 1.15-1.15h6.8c.65 0 1.15.5 1.15 1.15v10.7c0 .65-.5 1.2-1.15 1.2Zm-5.65-2.35h4.45v-8.4h-4.45v8.4Z"/><path fill="#fff" d="M195.4 142.549h-6.8v10.75h6.8v-10.75Z"/><path fill="#222" d="M195.4 154.448h-6.8c-.65 0-1.15-.5-1.15-1.15v-10.75c0-.65.5-1.15 1.15-1.15h6.8c.65 0 1.15.5 1.15 1.15v10.7c0 .65-.5 1.2-1.15 1.2Zm-5.65-2.35h4.45v-8.4h-4.45v8.4Z"/><path fill="#fff" d="M209.05 142.549h-6.8v10.75h6.8v-10.75Z"/><path fill="#222" d="M209.05 154.448h-6.8c-.65 0-1.15-.5-1.15-1.15v-10.75c0-.65.5-1.15 1.15-1.15h6.8c.65 0 1.15.5 1.15 1.15v10.7c0 .65-.5 1.2-1.15 1.2Zm-5.65-2.35h4.45v-8.4h-4.45v8.4Z"/><path fill="#fff" d="M181.75 159.25h-6.8V170h6.8v-10.75Z"/><path fill="#222" d="M181.75 171.15h-6.8c-.65 0-1.15-.5-1.15-1.15v-10.75c0-.65.5-1.15 1.15-1.15h6.8c.65 0 1.15.5 1.15 1.15V170c0 .6-.5 1.15-1.15 1.15Zm-5.65-2.35h4.45v-8.4h-4.45v8.4Z"/><path fill="#fff" d="M195.4 159.25h-6.8V170h6.8v-10.75Z"/><path fill="#222" d="M195.4 171.15h-6.8c-.65 0-1.15-.5-1.15-1.15v-10.75c0-.65.5-1.15 1.15-1.15h6.8c.65 0 1.15.5 1.15 1.15V170c0 .6-.5 1.15-1.15 1.15Zm-5.65-2.35h4.45v-8.4h-4.45v8.4Z"/><path fill="#fff" d="M209.05 159.25h-6.8V170h6.8v-10.75Z"/><path fill="#222" d="M209.05 171.15h-6.8c-.65 0-1.15-.5-1.15-1.15v-10.75c0-.65.5-1.15 1.15-1.15h6.8c.65 0 1.15.5 1.15 1.15V170c0 .6-.5 1.15-1.15 1.15Zm-5.65-2.35h4.45v-8.4h-4.45v8.4Z"/><path fill="#fff" d="M181.75 175.949h-6.8v10.75h6.8v-10.75Z"/><path fill="#222" d="M181.75 187.849h-6.8c-.65 0-1.15-.5-1.15-1.15v-10.75c0-.65.5-1.15 1.15-1.15h6.8c.65 0 1.15.5 1.15 1.15v10.75c0 .6-.5 1.15-1.15 1.15Zm-5.65-2.35h4.45v-8.4h-4.45v8.4Z"/><path fill="#fff" d="M195.4 175.949h-6.8v10.75h6.8v-10.75Z"/><path fill="#222" d="M195.4 187.849h-6.8c-.65 0-1.15-.5-1.15-1.15v-10.75c0-.65.5-1.15 1.15-1.15h6.8c.65 0 1.15.5 1.15 1.15v10.75c0 .6-.5 1.15-1.15 1.15Zm-5.65-2.35h4.45v-8.4h-4.45v8.4Z"/><path fill="#fff" d="M209.05 175.949h-6.8v10.75h6.8v-10.75Z"/><path fill="#222" d="M209.05 187.849h-6.8c-.65 0-1.15-.5-1.15-1.15v-10.75c0-.65.5-1.15 1.15-1.15h6.8c.65 0 1.15.5 1.15 1.15v10.75c0 .6-.5 1.15-1.15 1.15Zm-5.65-2.35h4.45v-8.4h-4.45v8.4Z"/><path fill="#F5F4F3" d="M121 111.549H74.1v87.4H121v-87.4Z"/><path fill="#222" d="M121 200.098H74.1c-.65 0-1.15-.5-1.15-1.15v-87.4c0-.65.55-1.15 1.15-1.15H121c.65 0 1.15.55 1.15 1.15v87.4c0 .65-.5 1.15-1.15 1.15Zm-45.75-2.35h44.55v-85.05H75.25v85.05Z"/><path fill="#444" d="M94.5 116.949H81.55v10.75H94.5v-10.75Z"/><path fill="#222" d="M94.55 128.849H81.6c-.65 0-1.15-.55-1.15-1.15v-10.75c0-.65.55-1.15 1.15-1.15h12.95c.65 0 1.15.55 1.15 1.15v10.75c0 .6-.55 1.15-1.15 1.15Zm-11.8-2.35h10.6v-8.4h-10.6v8.4Z"/><path fill="#444" d="M113.55 116.949H100.6v10.75h12.95v-10.75Z"/><path fill="#222" d="M113.55 128.849H100.6c-.65 0-1.15-.55-1.15-1.15v-10.75c0-.65.55-1.15 1.15-1.15h12.95c.65 0 1.15.55 1.15 1.15v10.75c0 .6-.5 1.15-1.15 1.15Zm-11.8-2.35h10.6v-8.4h-10.6v8.4Z"/><path fill="#444" d="M94.5 133.199H81.55v10.75H94.5v-10.75Z"/><path fill="#222" d="M94.55 145.15H81.6c-.65 0-1.15-.5-1.15-1.15v-10.75c0-.65.55-1.15 1.15-1.15h12.95c.65 0 1.15.5 1.15 1.15V144c0 .6-.55 1.15-1.15 1.15Zm-11.8-2.35h10.6v-8.4h-10.6v8.4Z"/><path fill="#444" d="M113.55 133.199H100.6v10.75h12.95v-10.75Z"/><path fill="#222" d="M113.55 145.15H100.6c-.65 0-1.15-.5-1.15-1.15v-10.75c0-.65.55-1.15 1.15-1.15h12.95c.65 0 1.15.5 1.15 1.15V144c0 .6-.5 1.15-1.15 1.15Zm-11.8-2.35h10.6v-8.4h-10.6v8.4Z"/><path fill="#444" d="M94.5 149.5H81.55v10.75H94.5V149.5Z"/><path fill="#222" d="M94.55 161.4H81.6c-.65 0-1.15-.5-1.15-1.15V149.5c0-.65.55-1.15 1.15-1.15h12.95c.65 0 1.15.5 1.15 1.15v10.75c0 .65-.55 1.15-1.15 1.15Zm-11.8-2.35h10.6v-8.4h-10.6v8.4Z"/><path fill="#444" d="M113.55 149.5H100.6v10.75h12.95V149.5Z"/><path fill="#222" d="M113.55 161.4H100.6c-.65 0-1.15-.5-1.15-1.15V149.5c0-.65.55-1.15 1.15-1.15h12.95c.65 0 1.15.5 1.15 1.15v10.75c0 .65-.5 1.15-1.15 1.15Zm-11.8-2.35h10.6v-8.4h-10.6v8.4Z"/><path fill="#444" d="M94.5 165.799H81.55v10.75H94.5v-10.75Z"/><path fill="#222" d="M94.55 177.698H81.6c-.65 0-1.15-.5-1.15-1.15v-10.75c0-.65.55-1.15 1.15-1.15h12.95c.65 0 1.15.5 1.15 1.15v10.75c0 .65-.55 1.15-1.15 1.15Zm-11.8-2.35h10.6v-8.4h-10.6v8.4Z"/><path fill="#444" d="M113.55 165.799H100.6v10.75h12.95v-10.75Z"/><path fill="#222" d="M113.55 177.698H100.6c-.65 0-1.15-.5-1.15-1.15v-10.75c0-.65.55-1.15 1.15-1.15h12.95c.65 0 1.15.5 1.15 1.15v10.75c0 .65-.5 1.15-1.15 1.15Zm-11.8-2.35h10.6v-8.4h-10.6v8.4Z"/><path fill="#444" d="M94.5 182.1H81.55v10.75H94.5V182.1Z"/><path fill="#222" d="M94.55 193.999H81.6c-.65 0-1.15-.5-1.15-1.15v-10.75c0-.65.55-1.15 1.15-1.15h12.95c.65 0 1.15.5 1.15 1.15v10.75c0 .65-.55 1.15-1.15 1.15Zm-11.8-2.35h10.6v-8.4h-10.6v8.4Z"/><path fill="#444" d="M113.55 182.1H100.6v10.75h12.95V182.1Z"/><path fill="#222" d="M113.55 193.999H100.6c-.65 0-1.15-.5-1.15-1.15v-10.75c0-.65.55-1.15 1.15-1.15h12.95c.65 0 1.15.5 1.15 1.15v10.75c0 .65-.5 1.15-1.15 1.15Zm-11.8-2.35h10.6v-8.4h-10.6v8.4Z"/><path fill="#fff" d="m302.35 304.548 19.85 28.15v-28.15h35.1c4.4 0 8-3.6 8-8v-131.55c0-4.4-3.6-8-8-8H169.15c-4.4 0-8 3.55-8 8v131.55c0 4.4 3.55 8 8 8h133.2Z"/><path fill="#222" d="M322.25 334.048c-.45 0-.85-.2-1.15-.6l-19.45-27.55h-132.5c-5.15 0-9.35-4.2-9.35-9.35v-131.55c0-5.15 4.2-9.35 9.35-9.35H357.3c5.15 0 9.35 4.2 9.35 9.35v131.55c0 5.15-4.2 9.35-9.35 9.35h-33.7v26.75c0 .6-.4 1.15-.95 1.3-.15.05-.3.1-.4.1Zm-153.1-175.65c-3.65 0-6.6 2.95-6.6 6.6v131.55c0 3.65 2.95 6.6 6.6 6.6h133.2c.45 0 .85.2 1.15.6l17.35 24.55v-23.75c0-.75.6-1.4 1.4-1.4h35.1c3.65 0 6.6-2.95 6.6-6.6v-131.55c0-3.65-2.95-6.6-6.6-6.6h-188.2Z"/><path fill="#FF3158" d="M285.65 258.85H190.4c-7.65 0-13.9 6.2-13.9 13.9s6.2 13.9 13.9 13.9h95.25c7.65 0 13.9-6.2 13.9-13.9s-6.25-13.9-13.9-13.9Z"/><path fill="#222" d="M285.65 287.999H190.4c-8.4 0-15.25-6.85-15.25-15.25s6.85-15.25 15.25-15.25h95.25c8.4 0 15.25 6.85 15.25 15.25s-6.85 15.25-15.25 15.25Zm-95.25-27.75c-6.9 0-12.5 5.6-12.5 12.5s5.6 12.5 12.5 12.5h95.25c6.9 0 12.5-5.6 12.5-12.5s-5.6-12.5-12.5-12.5H190.4Z"/><path fill="#222" d="M197.05 272.749c0 2.65-2.2 4.8-4.8 4.8-2.65 0-4.8-2.1-4.8-4.8 0-2.7 2.1-4.8 4.8-4.8 2.65 0 4.8 2.15 4.8 4.8ZM213.05 272.749c0 2.65-2.2 4.8-4.8 4.8-2.65 0-4.8-2.1-4.8-4.8 0-2.7 2.1-4.8 4.8-4.8 2.65 0 4.8 2.15 4.8 4.8ZM229.05 272.749c0 2.65-2.2 4.8-4.8 4.8-2.65 0-4.8-2.1-4.8-4.8 0-2.7 2.1-4.8 4.8-4.8 2.65 0 4.8 2.15 4.8 4.8Z"/><path fill="#DADADA" d="M340.2 212.799H231.1c-7.65 0-13.9 6.2-13.9 13.9s6.2 13.9 13.9 13.9h109.15c7.65 0 13.9-6.2 13.9-13.9s-6.25-13.9-13.95-13.9Z"/><path fill="#222" d="M333.25 248.85h-109.1c-8.4 0-15.25-6.85-15.25-15.25s6.85-15.25 15.25-15.25H333.3c8.4 0 15.25 6.85 15.25 15.25s-6.85 15.25-15.3 15.25Zm-109.1-27.75c-6.9 0-12.5 5.6-12.5 12.5s5.6 12.5 12.5 12.5H333.3c6.9 0 12.5-5.6 12.5-12.5s-5.6-12.5-12.5-12.5H224.15Z"/><path fill="#DADADA" d="M277.8 169.799h-80.45c-7.65 0-13.9 6.2-13.9 13.9s6.2 13.9 13.9 13.9h80.45c7.65 0 13.9-6.2 13.9-13.9s-6.25-13.9-13.9-13.9Z"/><path fill="#222" d="M270.85 205.898H190.4c-8.4 0-15.25-6.85-15.25-15.25s6.85-15.25 15.25-15.25h80.45c8.4 0 15.25 6.85 15.25 15.25s-6.85 15.25-15.25 15.25Zm-80.45-27.75c-6.9 0-12.5 5.6-12.5 12.5s5.6 12.5 12.5 12.5h80.45c6.9 0 12.5-5.6 12.5-12.5s-5.6-12.5-12.5-12.5H190.4Z"/></svg>