<svg xmlns="http://www.w3.org/2000/svg" width="401" height="401" fill="none" viewBox="0 0 401 401"><path fill="#DADADA" d="M334.1 315.601H161.85l-69.45-40.65v-11.1l164.65-1.9 77.05 45.3v8.35Z"/><path fill="#222" d="M334.1 317.001H161.85c-.25 0-.5-.05-.7-.2l-69.45-40.65c-.45-.25-.7-.7-.7-1.2v-11.15c0-.75.6-1.4 1.35-1.4l164.65-1.85c.25 0 .5.05.7.2l77 45.3c.4.25.7.7.7 1.2v8.35c.05.8-.55 1.4-1.3 1.4Zm-171.9-2.75h170.45v-6.2l-76-44.7-162.9 1.85v9l68.45 40.05Z"/><path fill="#fff" d="M334.1 307.25H161.85L97.7 269.7h172.25l64.15 37.55Z"/><path fill="#222" d="M334.1 308.651H161.85c-.25 0-.5-.05-.7-.2L97 270.901c-.55-.3-.8-.95-.65-1.55.15-.6.7-1 1.35-1h172.25c.25 0 .5.05.7.2l64.15 37.55c.55.3.8.95.65 1.55-.2.55-.75 1-1.35 1Zm-171.9-2.8h166.75l-59.4-34.75H102.8l59.4 34.75Z"/><path fill="#222" d="M161.85 317.001c-.75 0-1.4-.6-1.4-1.4v-8.35c0-.75.6-1.4 1.4-1.4.8 0 1.4.6 1.4 1.4v8.35c0 .8-.65 1.4-1.4 1.4Z"/><path fill="#DADADA" d="m264.6 264.7-166.9 5-5.3-3.05v-133.6h169.7l7.85 5.05-5.35 126.6Z"/><path fill="#222" d="M97.7 271.1c-.25 0-.5-.05-.7-.2l-5.3-3.05c-.45-.25-.7-.7-.7-1.2v-133.6c0-.75.6-1.4 1.4-1.4h169.7c.25 0 .5.05.75.2l7.85 5.05c.4.25.65.75.65 1.25L266 264.75c-.05.75-.6 1.3-1.35 1.35l-166.9 5.05c0-.05-.05-.05-.05-.05Zm-3.95-5.25 4.3 2.5 165.25-5 5.25-124.5-6.85-4.4H93.75v131.4Z"/><path fill="#fff" d="M269.95 138.1H97.7v131.65h172.25V138.1Z"/><path fill="#222" d="M269.95 271.1H97.7c-.75 0-1.4-.6-1.4-1.4V138.1c0-.75.6-1.4 1.4-1.4h172.25c.75 0 1.4.6 1.4 1.4v131.65c-.05.75-.65 1.35-1.4 1.35ZM99.1 268.35h169.45v-128.9H99.1v128.9Z"/><path fill="#222" d="M259.55 148.8h-151.5v114.1h151.5V148.8Z"/><path fill="#222" d="M259.55 264.3h-151.5c-.75 0-1.4-.6-1.4-1.4V148.8c0-.75.6-1.4 1.4-1.4h151.5c.75 0 1.4.6 1.4 1.4v114.1c0 .75-.6 1.4-1.4 1.4Zm-150.1-2.8H258.2V150.15H109.45V261.5ZM97.7 139.451c-.35 0-.7-.1-.95-.4l-5.3-5.05c-.55-.5-.6-1.4-.05-1.95.55-.55 1.4-.6 1.95-.05l5.3 5.05c.55.5.6 1.4.05 1.95-.25.3-.65.45-1 .45Z"/><path fill="#444" d="m278.35 287.151-10.75-6.3h-14.7l10.85 6.3h14.6ZM241.7 287.151l-10.9-6.3h-15.95l10.9 6.3h15.95ZM240.3 273.551l9.95 5.75h14.7l-9.8-5.75H240.3ZM260.7 287.151l-10.9-6.3h-15.95l10.9 6.3h15.95ZM202.3 273.551l9.9 5.75h15.95l-9.9-5.75H202.3ZM221.3 273.551l9.9 5.75h15.95l-9.9-5.75H221.3ZM183.3 273.551l9.9 5.75h15.95l-9.9-5.75H183.3ZM184.65 287.151l-10.9-6.3H157.8l10.9 6.3h15.95ZM222.7 287.151l-10.9-6.3h-15.95l10.9 6.3h15.95ZM140.2 280.851l10.75 6.3h14.7l-10.9-6.3H140.2ZM203.65 287.151l-10.85-6.3h-15.95l10.9 6.3h15.9ZM164.25 273.551l9.95 5.75h15.9l-9.9-5.75h-15.95ZM274.45 295.101l-11.1-6.45H247.4l11.1 6.45h15.95ZM255.45 295.101l-11.1-6.45H228.4l11.1 6.45h15.95ZM236.45 295.101l-11.1-6.45H209.4l11.1 6.45h15.95ZM291.95 295.101l-10.95-6.45h-14.6l11.1 6.45h14.45ZM127.75 273.551l9.8 5.75h14.55l-9.9-5.75h-14.45ZM145.25 273.551l9.9 5.75h15.95l-9.9-5.75h-15.95ZM198.4 295.101l-11.1-6.45h-15.95l11.1 6.45h15.95ZM217.45 295.101l-11.15-6.45h-15.9l11.1 6.45h15.95ZM179.4 295.101l-11.1-6.45h-14.75l11 6.45h14.85Z"/><path fill="#222" d="M183.55 145.45a2 2 0 1 0 .001-3.999 2 2 0 0 0-.001 3.999Z"/><path fill="#FF3158" d="M202.4 163.751h-43v91.7h43v-91.7Z"/><path fill="#222" d="M202.4 256.351h-43c-.5 0-.95-.4-.95-.95v-91.65c0-.5.4-.95.95-.95h43c.5 0 .95.4.95.95v91.7c-.05.5-.45.9-.95.9Zm-42.1-1.85h41.2v-89.8h-41.2v89.8Z"/><path fill="#222" d="M164.95 256.351c-.5 0-.95-.4-.95-.95v-91.65c0-.5.4-.95.95-.95.55 0 .95.4.95.95v91.7c-.05.5-.45.9-.95.9ZM172.9 256.351c-.5 0-.95-.4-.95-.95v-91.65c0-.5.4-.95.95-.95.55 0 .95.4.95.95v91.7c0 .5-.4.9-.95.9ZM180.9 256.351c-.5 0-.95-.4-.95-.95v-91.65c0-.5.4-.95.95-.95.55 0 .95.4.95.95v91.7c-.05.5-.45.9-.95.9ZM188.85 256.351c-.5 0-.95-.4-.95-.95v-91.65c0-.5.4-.95.95-.95.55 0 .95.4.95.95v91.7c0 .5-.4.9-.95.9ZM196.85 256.351c-.5 0-.95-.4-.95-.95v-91.65c0-.5.4-.95.95-.95.55 0 .95.4.95.95v91.7c-.05.5-.45.9-.95.9Z"/><path fill="#DADADA" d="M240.4 255.45h-38v-80.4l38 21.95v58.45Z"/><path fill="#222" d="M240.4 256.35h-38c-.5 0-.95-.4-.95-.95V175c0-.35.2-.65.45-.8.3-.15.65-.15.95 0l38 22c.3.15.45.45.45.8v58.4c.05.55-.4.95-.9.95Zm-37.1-1.85h36.2v-56.95l-36.15-20.95v77.9h-.05Z"/><path fill="#fff" d="M213 198.2h-5.35v8.45H213v-8.45Z"/><path fill="#222" d="M213 207.55h-5.35c-.5 0-.95-.4-.95-.95v-8.45c0-.5.4-.95.95-.95H213c.5 0 .95.4.95.95v8.45c0 .55-.45.95-.95.95Zm-4.45-1.85h3.5v-6.6h-3.5v6.6Z"/><path fill="#fff" d="M223.75 198.2h-5.35v8.45h5.35v-8.45Z"/><path fill="#222" d="M223.75 207.55h-5.35c-.5 0-.95-.4-.95-.95v-8.45c0-.5.4-.95.95-.95h5.35c.5 0 .95.4.95.95v8.45c-.05.55-.45.95-.95.95Zm-4.45-1.85h3.5v-6.6h-3.5v6.6Z"/><path fill="#fff" d="M234.45 198.2h-5.35v8.45h5.35v-8.45Z"/><path fill="#222" d="M234.5 207.55h-5.35c-.5 0-.95-.4-.95-.95v-8.45c0-.5.4-.95.95-.95h5.35c.5 0 .95.4.95.95v8.45c-.05.55-.45.95-.95.95Zm-4.45-1.85h3.5v-6.6h-3.5v6.6Z"/><path fill="#fff" d="M213 211.001h-5.35v8.45H213v-8.45Z"/><path fill="#222" d="M213 220.401h-5.35c-.5 0-.95-.4-.95-.95v-8.45c0-.5.4-.95.95-.95H213c.5 0 .95.4.95.95v8.45c0 .5-.45.95-.95.95Zm-4.45-1.85h3.5v-6.6h-3.5v6.6Z"/><path fill="#fff" d="M223.75 211.001h-5.35v8.45h5.35v-8.45Z"/><path fill="#222" d="M223.75 220.401h-5.35c-.5 0-.95-.4-.95-.95v-8.45c0-.5.4-.95.95-.95h5.35c.5 0 .95.4.95.95v8.45c-.05.5-.45.95-.95.95Zm-4.45-1.85h3.5v-6.6h-3.5v6.6Z"/><path fill="#fff" d="M234.45 211.001h-5.35v8.45h5.35v-8.45Z"/><path fill="#222" d="M234.5 220.401h-5.35c-.5 0-.95-.4-.95-.95v-8.45c0-.5.4-.95.95-.95h5.35c.5 0 .95.4.95.95v8.45c-.05.5-.45.95-.95.95Zm-4.45-1.85h3.5v-6.6h-3.5v6.6Z"/><path fill="#fff" d="M213 224.15h-5.35v8.45H213v-8.45Z"/><path fill="#222" d="M213 233.55h-5.35c-.5 0-.95-.4-.95-.95v-8.45c0-.5.4-.95.95-.95H213c.5 0 .95.4.95.95v8.45c0 .5-.45.95-.95.95Zm-4.45-1.85h3.5v-6.6h-3.5v6.6Z"/><path fill="#fff" d="M223.75 224.15h-5.35v8.45h5.35v-8.45Z"/><path fill="#222" d="M223.75 233.55h-5.35c-.5 0-.95-.4-.95-.95v-8.45c0-.5.4-.95.95-.95h5.35c.5 0 .95.4.95.95v8.45c-.05.5-.45.95-.95.95Zm-4.45-1.85h3.5v-6.6h-3.5v6.6Z"/><path fill="#fff" d="M234.45 224.15h-5.35v8.45h5.35v-8.45Z"/><path fill="#222" d="M234.5 233.55h-5.35c-.5 0-.95-.4-.95-.95v-8.45c0-.5.4-.95.95-.95h5.35c.5 0 .95.4.95.95v8.45c-.05.5-.45.95-.95.95Zm-4.45-1.85h3.5v-6.6h-3.5v6.6Z"/><path fill="#fff" d="M213 237.301h-5.35v8.45H213v-8.45Z"/><path fill="#222" d="M213 246.701h-5.35c-.5 0-.95-.4-.95-.95v-8.45c0-.5.4-.95.95-.95H213c.5 0 .95.4.95.95v8.45c0 .55-.45.95-.95.95Zm-4.45-1.85h3.5v-6.6h-3.5v6.6Z"/><path fill="#fff" d="M223.75 237.301h-5.35v8.45h5.35v-8.45Z"/><path fill="#222" d="M223.75 246.701h-5.35c-.5 0-.95-.4-.95-.95v-8.45c0-.5.4-.95.95-.95h5.35c.5 0 .95.4.95.95v8.45c-.05.55-.45.95-.95.95Zm-4.45-1.85h3.5v-6.6h-3.5v6.6Z"/><path fill="#fff" d="M234.45 237.301h-5.35v8.45h5.35v-8.45Z"/><path fill="#222" d="M234.5 246.701h-5.35c-.5 0-.95-.4-.95-.95v-8.45c0-.5.4-.95.95-.95h5.35c.5 0 .95.4.95.95v8.45c-.05.55-.45.95-.95.95Zm-4.45-1.85h3.5v-6.6h-3.5v6.6Z"/><path fill="#F5F4F3" d="M165.15 186.601H128.2v68.85h36.95v-68.85Z"/><path fill="#222" d="M165.15 256.35H128.2c-.5 0-.95-.4-.95-.95v-68.8c0-.5.4-.95.95-.95h36.95c.5 0 .95.4.95.95v68.85c0 .5-.45.9-.95.9Zm-36-1.85h35.1v-67h-35.1v67Z"/><path fill="#444" d="M144.3 190.851h-10.2v8.45h10.2v-8.45Z"/><path fill="#222" d="M144.3 200.25h-10.2c-.5 0-.95-.4-.95-.95v-8.45c0-.5.4-.95.95-.95h10.2c.5 0 .95.4.95.95v8.45c0 .5-.45.95-.95.95Zm-9.3-1.85h8.35v-6.6H135v6.6Z"/><path fill="#444" d="M159.25 190.851h-10.2v8.45h10.2v-8.45Z"/><path fill="#222" d="M159.25 200.25h-10.2c-.5 0-.95-.4-.95-.95v-8.45c0-.5.4-.95.95-.95h10.2c.5 0 .95.4.95.95v8.45c0 .5-.4.95-.95.95ZM150 198.4h8.35v-6.6H150v6.6Z"/><path fill="#444" d="M144.3 203.7h-10.2v8.45h10.2v-8.45Z"/><path fill="#222" d="M144.3 213.05h-10.2c-.5 0-.95-.4-.95-.95v-8.45c0-.5.4-.95.95-.95h10.2c.5 0 .95.4.95.95v8.45c0 .55-.45.95-.95.95Zm-9.3-1.85h8.35v-6.6H135v6.6Z"/><path fill="#444" d="M159.25 203.7h-10.2v8.45h10.2v-8.45Z"/><path fill="#222" d="M159.25 213.05h-10.2c-.5 0-.95-.4-.95-.95v-8.45c0-.5.4-.95.95-.95h10.2c.5 0 .95.4.95.95v8.45c0 .55-.4.95-.95.95ZM150 211.2h8.35v-6.6H150v6.6Z"/><path fill="#444" d="M144.3 216.501h-10.2v8.45h10.2v-8.45Z"/><path fill="#222" d="M144.3 225.901h-10.2c-.5 0-.95-.4-.95-.95v-8.45c0-.5.4-.95.95-.95h10.2c.5 0 .95.4.95.95v8.45c0 .5-.45.95-.95.95Zm-9.3-1.85h8.35v-6.6H135v6.6Z"/><path fill="#444" d="M159.25 216.501h-10.2v8.45h10.2v-8.45Z"/><path fill="#222" d="M159.25 225.901h-10.2c-.5 0-.95-.4-.95-.95v-8.45c0-.5.4-.95.95-.95h10.2c.5 0 .95.4.95.95v8.45c0 .5-.4.95-.95.95Zm-9.25-1.85h8.35v-6.6H150v6.6Z"/><path fill="#444" d="M144.3 229.351h-10.2v8.45h10.2v-8.45Z"/><path fill="#222" d="M144.3 238.701h-10.2c-.5 0-.95-.4-.95-.95v-8.45c0-.5.4-.95.95-.95h10.2c.5 0 .95.4.95.95v8.45c0 .55-.45.95-.95.95Zm-9.3-1.85h8.35v-6.6H135v6.6Z"/><path fill="#444" d="M159.25 229.351h-10.2v8.45h10.2v-8.45Z"/><path fill="#222" d="M159.25 238.701h-10.2c-.5 0-.95-.4-.95-.95v-8.45c0-.5.4-.95.95-.95h10.2c.5 0 .95.4.95.95v8.45c0 .55-.4.95-.95.95Zm-9.25-1.85h8.35v-6.6H150v6.6Z"/><path fill="#444" d="M144.3 242.15h-10.2v8.45h10.2v-8.45Z"/><path fill="#222" d="M144.3 251.55h-10.2c-.5 0-.95-.4-.95-.95v-8.45c0-.5.4-.95.95-.95h10.2c.5 0 .95.4.95.95v8.45c0 .55-.45.95-.95.95Zm-9.3-1.85h8.35v-6.6H135v6.6Z"/><path fill="#444" d="M159.25 242.15h-10.2v8.45h10.2v-8.45Z"/><path fill="#222" d="M159.25 251.55h-10.2c-.5 0-.95-.4-.95-.95v-8.45c0-.5.4-.95.95-.95h10.2c.5 0 .95.4.95.95v8.45c0 .55-.4.95-.95.95ZM150 249.7h8.35v-6.6H150v6.6Z"/><path fill="#fff" d="m108.35 163.349 12.65 17.9v-17.9h22.35c2.8 0 5.1-2.25 5.1-5.1v-80.35c0-2.8-2.25-5.1-5.1-5.1H23.5c-2.8 0-5.1 2.3-5.1 5.1v80.4c0 2.8 2.25 5.1 5.1 5.1l84.85-.05Z"/><path fill="#222" d="M120.95 182.649c-.45 0-.85-.2-1.15-.6l-12.25-17.3H23.5c-3.55 0-6.45-2.9-6.45-6.45v-80.4c0-3.55 2.9-6.45 6.45-6.45h119.8c3.55 0 6.45 2.9 6.45 6.45v80.4c0 3.55-2.9 6.45-6.45 6.45h-20.95v16.5c0 .6-.4 1.15-.95 1.3-.15.05-.3.1-.45.1ZM23.5 74.199c-2.05 0-3.7 1.65-3.7 3.7v80.4c0 2.05 1.65 3.7 3.7 3.7h84.8c.45 0 .85.2 1.15.6l10.15 14.35v-13.55c0-.75.6-1.4 1.4-1.4h22.35c2.05 0 3.7-1.65 3.7-3.7v-80.4c0-2.05-1.65-3.7-3.7-3.7H23.5Z"/><path fill="#DADADA" d="M82.95 80h-41.5c-4.9 0-8.85 3.95-8.85 8.85 0 4.9 3.95 8.85 8.85 8.85h41.5c4.9 0 8.85-3.95 8.85-8.85 0-4.9-3.95-8.85-8.85-8.85Z"/><path fill="#FF3158" d="M97.7 134.25H37.05c-4.9 0-8.85 3.95-8.85 8.85 0 4.9 3.95 8.85 8.85 8.85H97.7c4.9 0 8.85-3.95 8.85-8.85 0-4.9-4-8.85-8.85-8.85Z"/><path fill="#222" d="M78.55 103.5h-41.5c-5.65 0-10.2-4.6-10.2-10.2s4.6-10.2 10.2-10.2h41.5c5.65 0 10.2 4.6 10.2 10.2s-4.6 10.2-10.2 10.2Zm-41.5-17.7c-4.1 0-7.45 3.35-7.45 7.45s3.35 7.45 7.45 7.45h41.5c4.1 0 7.45-3.35 7.45-7.45s-3.35-7.45-7.45-7.45h-41.5ZM97.7 153.299H37.05c-5.65 0-10.2-4.6-10.2-10.2s4.6-10.2 10.2-10.2H97.7c5.65 0 10.2 4.6 10.2 10.2s-4.55 10.2-10.2 10.2Zm-60.65-17.65c-4.1 0-7.45 3.35-7.45 7.45s3.35 7.45 7.45 7.45H97.7c4.1 0 7.45-3.35 7.45-7.45s-3.35-7.45-7.45-7.45H37.05Z"/><path fill="#222" d="M41.3 143.1c0 1.7-1.4 3.05-3.05 3.05a3.03 3.03 0 0 1-3.05-3.05c0-1.7 1.35-3.05 3.05-3.05 1.65 0 3.05 1.4 3.05 3.05ZM51.45 143.1c0 1.7-1.4 3.05-3.05 3.05a3.03 3.03 0 0 1-3.05-3.05c0-1.7 1.35-3.05 3.05-3.05 1.7 0 3.05 1.4 3.05 3.05ZM61.65 143.1c0 1.7-1.4 3.05-3.05 3.05a3.03 3.03 0 0 1-3.05-3.05c0-1.7 1.35-3.05 3.05-3.05 1.7 0 3.05 1.4 3.05 3.05Z"/><path fill="#DADADA" d="M132.45 104.949h-69.5c-4.9 0-8.85 3.95-8.85 8.85 0 4.9 3.95 8.85 8.85 8.85h69.5c4.9 0 8.85-3.95 8.85-8.85 0-4.9-4-8.85-8.85-8.85Z"/><path fill="#222" d="M128 128.4H58.5c-5.65 0-10.2-4.6-10.2-10.2S52.9 108 58.5 108H128c5.65 0 10.2 4.6 10.2 10.2s-4.55 10.2-10.2 10.2Zm-69.5-17.65c-4.1 0-7.45 3.35-7.45 7.45s3.35 7.45 7.45 7.45H128c4.1 0 7.45-3.35 7.45-7.45s-3.35-7.45-7.45-7.45H58.5Z"/><path fill="#fff" d="M290.4 209.6h90.35v64.3H310.3l-8.6 10.85V273.9h-11.3v-64.3Z"/><path fill="#DADADA" d="M284.75 203.45h90.35v64.3h-70.5l-8.55 10.85v-10.85h-11.3v-64.3Z"/><path fill="#222" d="M301.7 286.15c-.15 0-.3 0-.45-.1-.55-.2-.95-.7-.95-1.3v-9.45h-9.9c-.75 0-1.4-.6-1.4-1.4v-64.3c0-.75.6-1.4 1.4-1.4h90.35c.75 0 1.4.6 1.4 1.4v64.3c0 .75-.6 1.4-1.4 1.4h-69.8l-8.15 10.35c-.25.3-.65.5-1.1.5Zm-9.9-13.6h9.9c.75 0 1.4.6 1.4 1.4v6.85l6.1-7.75c.25-.35.65-.5 1.1-.5h69.1V211h-87.6v61.55Z"/><path fill="#FF3158" d="M381.95 249.45h-64.5c-4.9 0-8.85 3.95-8.85 8.85 0 4.9 3.95 8.85 8.85 8.85h64.5c4.9 0 8.85-3.95 8.85-8.85 0-4.9-3.95-8.85-8.85-8.85Z"/><path fill="#222" d="M381.95 268.5h-64.5c-5.65 0-10.2-4.6-10.2-10.2s4.6-10.2 10.2-10.2h64.5c5.65 0 10.2 4.6 10.2 10.2s-4.55 10.2-10.2 10.2Zm-64.5-17.7c-4.1 0-7.45 3.35-7.45 7.45s3.35 7.45 7.45 7.45h64.5c4.1 0 7.45-3.35 7.45-7.45s-3.35-7.45-7.45-7.45h-64.5Z"/><path fill="#222" d="M327.2 258.25c0 1.7-1.4 3.05-3.05 3.05a3.03 3.03 0 0 1-3.05-3.05c0-1.7 1.35-3.05 3.05-3.05 1.65 0 3.05 1.4 3.05 3.05ZM337.35 258.25c0 1.7-1.4 3.05-3.05 3.05a3.03 3.03 0 0 1-3.05-3.05c0-1.7 1.35-3.05 3.05-3.05 1.7 0 3.05 1.4 3.05 3.05ZM347.55 258.25c0 1.7-1.4 3.05-3.05 3.05a3.03 3.03 0 0 1-3.05-3.05c0-1.7 1.35-3.05 3.05-3.05 1.7 0 3.05 1.4 3.05 3.05Z"/><path fill="#fff" d="M356.65 222.85h-69.5c-4.9 0-8.85 3.95-8.85 8.85 0 4.9 3.95 8.85 8.85 8.85h69.5c4.9 0 8.85-3.95 8.85-8.85 0-4.9-3.95-8.85-8.85-8.85Z"/><path fill="#222" d="M356.65 241.2h-69.5c-5.65 0-10.2-4.6-10.2-10.2s4.6-10.2 10.2-10.2h69.5c5.65 0 10.2 4.6 10.2 10.2s-4.55 10.2-10.2 10.2Zm-69.5-17.7c-4.1 0-7.45 3.35-7.45 7.45s3.35 7.45 7.45 7.45h69.5c4.1 0 7.45-3.35 7.45-7.45s-3.35-7.45-7.45-7.45h-69.5Z"/></svg>