<svg xmlns="http://www.w3.org/2000/svg" width="401" height="401" fill="none" viewBox="0 0 401 401"><path fill="#DADADA" d="m8.735 158.89 46.09 57.18H306.78l-46.09-57.18H8.735Z"/><path fill="#222" d="M319.52 221.894H67.56c-.42 0-.815-.19-1.08-.515l-46.09-57.185a1.381 1.381 0 0 1 1.08-2.25h251.96c.42 0 .815.19 1.08.515l46.09 57.185a1.381 1.381 0 0 1-1.08 2.25Zm-251.295-2.77h248.4l-43.86-54.415h-248.4l43.86 54.415Z" style="mix-blend-mode:multiply"/><path fill="#222" d="M280.365 152.075h-2.77v-7.38h2.77v7.38Zm0-14.765h-2.77v-7.38h2.77v7.38Zm0-14.765h-2.77v-7.38h2.77v7.38Zm0-14.765h-2.77v-7.38h2.77v7.38Zm-4.41-13.58a9.158 9.158 0 0 0-5.14-3.606l.71-2.674a11.912 11.912 0 0 1 6.7 4.695L275.96 94.2h-.005Zm-12.14-3.91h-7.38v-2.77h7.38v2.77Zm-14.765 0h-7.38v-2.77h7.38v2.77Zm-14.765 0h-7.38v-2.77h7.38v2.77Zm-14.765 0h-7.38v-2.77h7.38v2.77ZM143.91 261.964h-7.38v-2.77h7.38v2.77Zm-14.765 0h-7.38v-2.77h7.38v2.77Zm-14.765 0H107v-2.77h7.38v2.77Zm-14.765 0H96.28c-1.585 0-3.105-.35-4.52-1.04l1.215-2.485a7.467 7.467 0 0 0 3.305.76h3.335v2.77-.005Zm-13.21-7.36c-.285-.95-.425-1.94-.425-2.94v-4.8h2.77v4.8c0 .735.105 1.46.31 2.15l-2.655.79Zm2.345-15.125h-2.77v-7.38h2.77v7.38Zm0-14.765h-2.77v-7.38h2.77v7.38Zm0-14.765h-2.77v-7.38h2.77v7.38Z"/><path fill="#444" d="M182.265 202.569H112.2l-6.505-6.205V48.499h66.21l10.36 6.2v147.87Z"/><path fill="#222" d="M182.265 203.949H112.2c-.355 0-.7-.135-.955-.38l-6.505-6.2a1.381 1.381 0 0 1-.43-1V48.499c0-.765.62-1.385 1.385-1.385H171.9c.25 0 .495.07.71.195l10.36 6.2c.42.25.675.7.675 1.19v147.87c0 .765-.62 1.385-1.385 1.385l.005-.005Zm-69.51-2.77h68.125V55.484l-9.36-5.6h-64.44v145.89l5.675 5.41v-.005Z"/><path fill="#FF3158" d="M182.265 54.964H113.01v147.605h69.255V54.964Z"/><path fill="#222" d="M182.265 203.949H113.01c-.765 0-1.385-.62-1.385-1.385v-147.6c0-.765.62-1.385 1.385-1.385h69.255c.765 0 1.385.62 1.385 1.385V202.57c0 .765-.62 1.385-1.385 1.385v-.005Zm-67.87-2.77h66.485V56.349h-66.485v144.835-.005Z"/><path fill="#222" d="M121.97 203.949c-.765 0-1.385-.62-1.385-1.385v-147.6a1.385 1.385 0 1 1 2.77 0V202.57c0 .765-.62 1.385-1.385 1.385v-.005ZM134.805 203.949c-.765 0-1.385-.62-1.385-1.385v-147.6a1.385 1.385 0 1 1 2.77 0V202.57c0 .765-.62 1.385-1.385 1.385v-.005ZM147.635 203.949c-.765 0-1.385-.62-1.385-1.385v-147.6a1.385 1.385 0 1 1 2.77 0V202.57c0 .765-.62 1.385-1.385 1.385v-.005ZM160.47 203.949c-.765 0-1.385-.62-1.385-1.385v-147.6a1.385 1.385 0 1 1 2.77 0V202.57c0 .765-.62 1.385-1.385 1.385v-.005ZM173.305 203.949c-.765 0-1.385-.62-1.385-1.385v-147.6a1.385 1.385 0 1 1 2.77 0V202.57c0 .765-.62 1.385-1.385 1.385v-.005Z"/><path fill="#DADADA" d="M243.465 202.569h-61.2V73.109l61.2 35.41v94.05Z"/><path fill="#222" d="M243.465 203.949h-61.2c-.765 0-1.385-.62-1.385-1.385V73.109a1.388 1.388 0 0 1 2.08-1.2l61.2 35.405c.43.25.69.705.69 1.2v94.05c0 .765-.62 1.385-1.385 1.385Zm-59.815-2.77h58.43v-91.865l-58.43-33.805v125.67Z"/><path fill="#fff" d="M199.325 110.379h-8.64v13.615h8.64v-13.615Z"/><path fill="#222" d="M199.325 125.379h-8.64c-.765 0-1.385-.62-1.385-1.385v-13.615c0-.765.62-1.385 1.385-1.385h8.64c.765 0 1.385.62 1.385 1.385v13.615c0 .765-.62 1.385-1.385 1.385Zm-7.255-2.77h5.87v-10.85h-5.87v10.85Z"/><path fill="#fff" d="M216.63 110.379h-8.64v13.615h8.64v-13.615Z"/><path fill="#222" d="M216.63 125.379h-8.64c-.765 0-1.385-.62-1.385-1.385v-13.615c0-.765.62-1.385 1.385-1.385h8.64c.765 0 1.385.62 1.385 1.385v13.615c0 .765-.62 1.385-1.385 1.385Zm-7.255-2.77h5.87v-10.85h-5.87v10.85Z"/><path fill="#fff" d="M233.93 110.379h-8.64v13.615h8.64v-13.615Z"/><path fill="#222" d="M233.93 125.379h-8.64c-.765 0-1.385-.62-1.385-1.385v-13.615c0-.765.62-1.385 1.385-1.385h8.64c.765 0 1.385.62 1.385 1.385v13.615c0 .765-.62 1.385-1.385 1.385Zm-7.255-2.77h5.87v-10.85h-5.87v10.85Z"/><path fill="#fff" d="M199.325 131.029h-8.64v13.615h8.64v-13.615Z"/><path fill="#222" d="M199.325 146.034h-8.64c-.765 0-1.385-.62-1.385-1.385v-13.615c0-.765.62-1.385 1.385-1.385h8.64c.765 0 1.385.62 1.385 1.385v13.615c0 .765-.62 1.385-1.385 1.385Zm-7.255-2.77h5.87v-10.85h-5.87v10.85Z"/><path fill="#fff" d="M216.63 131.029h-8.64v13.615h8.64v-13.615Z"/><path fill="#222" d="M216.63 146.034h-8.64c-.765 0-1.385-.62-1.385-1.385v-13.615c0-.765.62-1.385 1.385-1.385h8.64c.765 0 1.385.62 1.385 1.385v13.615c0 .765-.62 1.385-1.385 1.385Zm-7.255-2.77h5.87v-10.85h-5.87v10.85Z"/><path fill="#fff" d="M233.93 131.029h-8.64v13.615h8.64v-13.615Z"/><path fill="#222" d="M233.93 146.034h-8.64c-.765 0-1.385-.62-1.385-1.385v-13.615c0-.765.62-1.385 1.385-1.385h8.64c.765 0 1.385.62 1.385 1.385v13.615c0 .765-.62 1.385-1.385 1.385Zm-7.255-2.77h5.87v-10.85h-5.87v10.85Z"/><path fill="#fff" d="M199.325 152.204h-8.64v13.615h8.64v-13.615Z"/><path fill="#222" d="M199.325 167.209h-8.64c-.765 0-1.385-.62-1.385-1.385v-13.615c0-.765.62-1.385 1.385-1.385h8.64c.765 0 1.385.62 1.385 1.385v13.615c0 .765-.62 1.385-1.385 1.385Zm-7.255-2.77h5.87v-10.85h-5.87v10.85Z"/><path fill="#fff" d="M216.63 152.204h-8.64v13.615h8.64v-13.615Z"/><path fill="#222" d="M216.63 167.209h-8.64c-.765 0-1.385-.62-1.385-1.385v-13.615c0-.765.62-1.385 1.385-1.385h8.64c.765 0 1.385.62 1.385 1.385v13.615c0 .765-.62 1.385-1.385 1.385Zm-7.255-2.77h5.87v-10.85h-5.87v10.85Z"/><path fill="#fff" d="M233.93 152.204h-8.64v13.615h8.64v-13.615Z"/><path fill="#222" d="M233.93 167.209h-8.64c-.765 0-1.385-.62-1.385-1.385v-13.615c0-.765.62-1.385 1.385-1.385h8.64c.765 0 1.385.62 1.385 1.385v13.615c0 .765-.62 1.385-1.385 1.385Zm-7.255-2.77h5.87v-10.85h-5.87v10.85Z"/><path fill="#fff" d="M199.325 173.379h-8.64v13.615h8.64v-13.615Z"/><path fill="#222" d="M199.325 188.384h-8.64c-.765 0-1.385-.62-1.385-1.385v-13.615c0-.765.62-1.385 1.385-1.385h8.64c.765 0 1.385.62 1.385 1.385v13.615c0 .765-.62 1.385-1.385 1.385Zm-7.255-2.77h5.87v-10.85h-5.87v10.85Z"/><path fill="#fff" d="M216.63 173.379h-8.64v13.615h8.64v-13.615Z"/><path fill="#222" d="M216.63 188.384h-8.64c-.765 0-1.385-.62-1.385-1.385v-13.615c0-.765.62-1.385 1.385-1.385h8.64c.765 0 1.385.62 1.385 1.385v13.615c0 .765-.62 1.385-1.385 1.385Zm-7.255-2.77h5.87v-10.85h-5.87v10.85Z"/><path fill="#fff" d="M233.93 173.379h-8.64v13.615h8.64v-13.615Z"/><path fill="#222" d="M233.93 188.384h-8.64c-.765 0-1.385-.62-1.385-1.385v-13.615c0-.765.62-1.385 1.385-1.385h8.64c.765 0 1.385.62 1.385 1.385v13.615c0 .765-.62 1.385-1.385 1.385Zm-7.255-2.77h5.87v-10.85h-5.87v10.85Z"/><path fill="#444" d="M125.29 202.57H65.815l-7.305-7.28V84.475h55.62l11.16 7.28V202.57Z"/><path fill="#222" d="M125.29 203.95H65.815a1.37 1.37 0 0 1-.975-.405l-7.305-7.28a1.38 1.38 0 0 1-.405-.98V84.475c0-.765.62-1.385 1.385-1.385h55.62c.27 0 .53.08.755.225l11.165 7.28c.39.255.63.69.63 1.16V202.57c0 .765-.62 1.385-1.385 1.385l-.01-.005Zm-58.905-2.77h57.52V92.505l-10.19-6.645h-53.82v108.855l6.495 6.47-.005-.005Z"/><path fill="#F5F4F3" d="M125.29 91.754H65.815v110.815h59.475V91.754Z"/><path fill="#222" d="M125.29 203.949H65.815c-.765 0-1.385-.62-1.385-1.385V91.754c0-.765.62-1.385 1.385-1.385h59.475c.765 0 1.385.62 1.385 1.385V202.57c0 .765-.62 1.385-1.385 1.385v-.005Zm-58.09-2.77h56.71V93.139H67.2v108.045-.005Z"/><path fill="#444" d="M91.72 98.57H75.285v13.614H91.72V98.569Z"/><path fill="#222" d="M91.72 113.57H75.285c-.765 0-1.385-.62-1.385-1.385V98.57c0-.765.62-1.385 1.385-1.385H91.72c.765 0 1.385.62 1.385 1.385v13.615c0 .765-.62 1.385-1.385 1.385Zm-15.05-2.77h13.665V99.95H76.67v10.85Z"/><path fill="#444" d="M115.825 98.57H99.39v13.614h16.435V98.569Z"/><path fill="#222" d="M115.825 113.57H99.39c-.765 0-1.385-.62-1.385-1.385V98.57c0-.765.62-1.385 1.385-1.385h16.435c.765 0 1.385.62 1.385 1.385v13.615c0 .765-.62 1.385-1.385 1.385Zm-15.05-2.77h13.665V99.95h-13.665v10.85Z"/><path fill="#444" d="M91.72 119.225H75.285v13.615H91.72v-13.615Z"/><path fill="#222" d="M91.72 134.23H75.285c-.765 0-1.385-.62-1.385-1.385V119.23c0-.765.62-1.385 1.385-1.385H91.72c.765 0 1.385.62 1.385 1.385v13.615c0 .765-.62 1.385-1.385 1.385Zm-15.05-2.77h13.665v-10.85H76.67v10.85Z"/><path fill="#444" d="M115.825 119.225H99.39v13.615h16.435v-13.615Z"/><path fill="#222" d="M115.825 134.23H99.39c-.765 0-1.385-.62-1.385-1.385V119.23c0-.765.62-1.385 1.385-1.385h16.435c.765 0 1.385.62 1.385 1.385v13.615c0 .765-.62 1.385-1.385 1.385Zm-15.05-2.77h13.665v-10.85h-13.665v10.85Z"/><path fill="#444" d="M91.72 139.885H75.285V153.5H91.72v-13.615Z"/><path fill="#222" d="M91.72 154.885H75.285c-.765 0-1.385-.62-1.385-1.385v-13.615c0-.765.62-1.385 1.385-1.385H91.72c.765 0 1.385.62 1.385 1.385V153.5c0 .765-.62 1.385-1.385 1.385Zm-15.05-2.77h13.665v-10.85H76.67v10.85Z"/><path fill="#444" d="M115.825 139.885H99.39V153.5h16.435v-13.615Z"/><path fill="#222" d="M115.825 154.885H99.39c-.765 0-1.385-.62-1.385-1.385v-13.615c0-.765.62-1.385 1.385-1.385h16.435c.765 0 1.385.62 1.385 1.385V153.5c0 .765-.62 1.385-1.385 1.385Zm-15.05-2.77h13.665v-10.85h-13.665v10.85Z"/><path fill="#444" d="M91.72 160.539H75.285v13.615H91.72v-13.615Z"/><path fill="#222" d="M91.72 175.539H75.285c-.765 0-1.385-.62-1.385-1.385v-13.615c0-.765.62-1.385 1.385-1.385H91.72c.765 0 1.385.62 1.385 1.385v13.615c0 .765-.62 1.385-1.385 1.385Zm-15.05-2.77h13.665v-10.85H76.67v10.85Z"/><path fill="#444" d="M115.825 160.539H99.39v13.615h16.435v-13.615Z"/><path fill="#222" d="M115.825 175.539H99.39c-.765 0-1.385-.62-1.385-1.385v-13.615c0-.765.62-1.385 1.385-1.385h16.435c.765 0 1.385.62 1.385 1.385v13.615c0 .765-.62 1.385-1.385 1.385Zm-15.05-2.77h13.665v-10.85h-13.665v10.85Z"/><path fill="#444" d="M91.72 181.194H75.285v13.615H91.72v-13.615Z"/><path fill="#222" d="M91.72 196.199H75.285c-.765 0-1.385-.62-1.385-1.385v-13.615c0-.765.62-1.385 1.385-1.385H91.72c.765 0 1.385.62 1.385 1.385v13.615c0 .765-.62 1.385-1.385 1.385Zm-15.05-2.77h13.665v-10.85H76.67v10.85Z"/><path fill="#444" d="M115.825 181.194H99.39v13.615h16.435v-13.615Z"/><path fill="#222" d="M115.825 196.199H99.39c-.765 0-1.385-.62-1.385-1.385v-13.615c0-.765.62-1.385 1.385-1.385h16.435c.765 0 1.385.62 1.385 1.385v13.615c0 .765-.62 1.385-1.385 1.385Zm-15.05-2.77h13.665v-10.85h-13.665v10.85ZM65.815 93.139a1.37 1.37 0 0 1-.975-.405l-7.305-7.28a1.384 1.384 0 0 1 0-1.96 1.384 1.384 0 0 1 1.96 0l7.305 7.28a1.384 1.384 0 0 1-.98 2.365h-.005ZM113.01 56.349c-.325 0-.655-.115-.915-.345l-7.31-6.465a1.385 1.385 0 1 1 1.835-2.075l7.31 6.465a1.385 1.385 0 0 1-.915 2.42h-.005Z"/><path fill="#DADADA" d="M390.145 334.639h-172.23l-69.47-40.64v-11.145l164.675-1.86 77.025 45.28v8.365Z"/><path fill="#222" d="M390.145 336.024h-172.23c-.245 0-.485-.065-.7-.19l-69.465-40.645a1.387 1.387 0 0 1-.685-1.195v-11.145c0-.76.61-1.375 1.37-1.385l164.675-1.86c.25 0 .5.065.715.19l77.025 45.28c.425.25.685.705.685 1.195v8.365c0 .765-.62 1.385-1.385 1.385l-.005.005Zm-171.855-2.77h170.47v-6.19l-76.01-44.685-162.92 1.84v8.98l68.46 40.055Z"/><path fill="#fff" d="M390.145 326.274h-172.23l-64.15-37.53h172.23l64.15 37.53Z"/><path fill="#222" d="M390.145 327.659h-172.23c-.245 0-.485-.065-.7-.19l-64.15-37.53a1.38 1.38 0 0 1-.635-1.555 1.38 1.38 0 0 1 1.335-1.02h172.23c.245 0 .485.065.7.19l64.15 37.53c.54.315.8.955.635 1.555a1.38 1.38 0 0 1-1.335 1.02Zm-171.855-2.77h166.75l-59.415-34.765h-166.75l59.415 34.765Z"/><path fill="#222" d="M217.915 336.025c-.765 0-1.385-.62-1.385-1.385v-8.365a1.385 1.385 0 1 1 2.77 0v8.365c0 .765-.62 1.385-1.385 1.385Z"/><path fill="#DADADA" d="m320.68 283.709-166.915 5.035-5.32-3.07v-133.6h169.71l7.84 5.035-5.315 126.6Z"/><path fill="#222" d="M153.765 290.129c-.245 0-.48-.065-.69-.185l-5.32-3.07a1.377 1.377 0 0 1-.69-1.2v-133.6c0-.765.62-1.385 1.385-1.385h169.71c.265 0 .525.075.75.22l7.84 5.035c.415.265.655.73.635 1.225l-5.32 126.605a1.381 1.381 0 0 1-1.34 1.325l-166.91 5.035h-.04l-.01-.005Zm-3.935-5.255 4.285 2.475 165.23-4.98 5.23-124.52-6.83-4.385H149.83v131.415-.005Z"/><path fill="#fff" d="M325.995 157.109h-172.23v131.635h172.23V157.109Z"/><path fill="#222" d="M325.995 290.13h-172.23c-.765 0-1.385-.62-1.385-1.385V157.11c0-.765.62-1.385 1.385-1.385h172.23c.765 0 1.385.62 1.385 1.385v131.635c0 .765-.62 1.385-1.385 1.385Zm-170.845-2.77h169.465V158.495H155.15V287.36Z"/><path fill="#222" d="M315.635 167.819h-151.51v114.105h151.51V167.819Z"/><path fill="#222" d="M315.64 283.31H164.125c-.765 0-1.385-.62-1.385-1.385V167.82c0-.765.62-1.385 1.385-1.385h151.51c.765 0 1.385.62 1.385 1.385v114.105c0 .765-.62 1.385-1.385 1.385h.005Zm-150.13-2.77h148.745V169.2H165.51v111.34ZM153.765 158.494c-.34 0-.685-.125-.95-.38l-5.32-5.035a1.383 1.383 0 1 1 1.9-2.01l5.32 5.035a1.383 1.383 0 0 1-.95 2.39Z"/><path fill="#444" d="m334.42 306.155-10.76-6.295h-14.71l10.885 6.295h14.585ZM297.755 306.155l-10.885-6.295h-15.945l10.89 6.295h15.94ZM296.385 292.59l9.905 5.73h14.74l-9.795-5.73h-14.85ZM316.77 306.155l-10.89-6.295h-15.945l10.89 6.295h15.945ZM258.365 292.59l9.905 5.73h15.945l-9.905-5.73h-15.945ZM277.375 292.59l9.905 5.73h15.945l-9.905-5.73h-15.945ZM239.355 292.59l9.905 5.73h15.945l-9.905-5.73h-15.945ZM240.725 306.155l-10.89-6.295h-15.94l10.885 6.295h15.945ZM278.745 306.155l-10.885-6.295h-15.945l10.885 6.295h15.945ZM196.255 299.86l10.765 6.295h14.695l-10.89-6.295h-14.57ZM259.735 306.155l-10.885-6.295h-15.945l10.885 6.295h15.945ZM220.345 292.59l9.905 5.73h15.94l-9.905-5.73h-15.94ZM330.525 314.114l-11.1-6.425H303.48l11.105 6.425h15.94ZM311.515 314.114l-11.1-6.425H284.47l11.1 6.425h15.945ZM292.505 314.114l-11.105-6.425h-15.94l11.1 6.425h15.945ZM351.11 315.61s.03-.02.045-.025c-.015.005-.03.02-.045.025ZM348.025 314.114l-10.98-6.425H322.49l11.105 6.425h14.43ZM183.835 292.59l9.79 5.73h14.545l-9.905-5.73h-14.43ZM201.33 292.59l9.905 5.73h15.945l-9.905-5.73H201.33ZM254.485 314.114l-11.105-6.425h-15.945l11.105 6.425h15.945ZM273.495 314.114l-11.105-6.425h-15.945l11.105 6.425h15.945ZM235.47 314.114l-11.1-6.425h-14.725l10.975 6.425h14.85Z"/><path fill="#222" d="M239.615 164.464a1.98 1.98 0 1 0 .001-3.959 1.98 1.98 0 0 0-.001 3.959Z"/><path fill="#FF3158" d="M258.47 182.784h-43.02v91.685h43.02v-91.685Z"/><path fill="#222" d="M258.47 275.39h-43.02a.927.927 0 0 1-.925-.926v-91.685c0-.51.415-.925.925-.925h43.02c.51 0 .925.415.925.925v91.685c0 .51-.415.926-.925.926Zm-42.095-1.845h41.175v-89.841h-41.175v89.841Z"/><path fill="#222" d="M221.015 275.39a.927.927 0 0 1-.925-.926v-91.685a.926.926 0 0 1 1.85 0v91.685c0 .51-.415.926-.925.926ZM228.985 275.39a.927.927 0 0 1-.925-.926v-91.685a.926.926 0 0 1 1.85 0v91.685c0 .51-.415.926-.925.926ZM236.96 275.39a.927.927 0 0 1-.925-.926v-91.685a.926.926 0 0 1 1.85 0v91.685c0 .51-.415.926-.925.926ZM244.93 275.39a.927.927 0 0 1-.925-.926v-91.685a.926.926 0 0 1 1.85 0v91.685c0 .51-.415.926-.925.926ZM252.905 275.39a.927.927 0 0 1-.925-.926v-91.685a.926.926 0 0 1 1.85 0v91.685c0 .51-.415.926-.925.926Z"/><path fill="#DADADA" d="M296.48 274.47h-38.01v-80.415l38.01 21.995v58.42Z"/><path fill="#222" d="M296.48 275.39h-38.015a.926.926 0 0 1-.925-.925V194.05a.924.924 0 0 1 1.385-.8l38.015 21.995c.285.165.46.47.46.8v58.42c0 .51-.415.925-.925.925h.005Zm-37.09-1.845h36.17V216.58l-36.17-20.925v77.89Z"/><path fill="#fff" d="M269.065 217.204H263.7v8.46h5.365v-8.46Z"/><path fill="#222" d="M269.065 226.584H263.7a.926.926 0 0 1-.925-.925v-8.46c0-.51.415-.925.925-.925h5.365c.51 0 .925.415.925.925v8.46c0 .51-.415.925-.925.925Zm-4.445-1.845h3.52v-6.61h-3.52v6.61Z"/><path fill="#fff" d="M279.81 217.204h-5.365v8.46h5.365v-8.46Z"/><path fill="#222" d="M279.815 226.584h-5.365a.926.926 0 0 1-.925-.925v-8.46c0-.51.415-.925.925-.925h5.365c.51 0 .925.415.925.925v8.46c0 .51-.415.925-.925.925Zm-4.445-1.845h3.52v-6.61h-3.52v6.61Z"/><path fill="#fff" d="M290.56 217.204h-5.365v8.46h5.365v-8.46Z"/><path fill="#222" d="M290.56 226.584h-5.365a.926.926 0 0 1-.925-.925v-8.46c0-.51.415-.925.925-.925h5.365c.51 0 .925.415.925.925v8.46c0 .51-.415.925-.925.925Zm-4.445-1.845h3.52v-6.61h-3.52v6.61Z"/><path fill="#fff" d="M269.065 230.034H263.7v8.46h5.365v-8.46Z"/><path fill="#222" d="M269.065 239.414H263.7a.925.925 0 0 1-.925-.924v-8.461c0-.51.415-.925.925-.925h5.365c.51 0 .925.415.925.925v8.461c0 .51-.415.924-.925.924Zm-4.445-1.844h3.52v-6.61h-3.52v6.61Z"/><path fill="#fff" d="M279.81 230.034h-5.365v8.46h5.365v-8.46Z"/><path fill="#222" d="M279.815 239.414h-5.365a.925.925 0 0 1-.925-.924v-8.461c0-.51.415-.925.925-.925h5.365c.51 0 .925.415.925.925v8.461c0 .51-.415.924-.925.924Zm-4.445-1.844h3.52v-6.61h-3.52v6.61Z"/><path fill="#fff" d="M290.56 230.034h-5.365v8.46h5.365v-8.46Z"/><path fill="#222" d="M290.56 239.414h-5.365a.925.925 0 0 1-.925-.924v-8.461c0-.51.415-.925.925-.925h5.365c.51 0 .925.415.925.925v8.461c0 .51-.415.924-.925.924Zm-4.445-1.844h3.52v-6.61h-3.52v6.61Z"/><path fill="#fff" d="M269.065 243.185H263.7v8.46h5.365v-8.46Z"/><path fill="#222" d="M269.065 252.57H263.7a.926.926 0 0 1-.925-.925v-8.46c0-.51.415-.925.925-.925h5.365c.51 0 .925.415.925.925v8.46c0 .51-.415.925-.925.925Zm-4.445-1.845h3.52v-6.61h-3.52v6.61Z"/><path fill="#fff" d="M279.81 243.185h-5.365v8.46h5.365v-8.46Z"/><path fill="#222" d="M279.815 252.57h-5.365a.926.926 0 0 1-.925-.925v-8.46c0-.51.415-.925.925-.925h5.365c.51 0 .925.415.925.925v8.46c0 .51-.415.925-.925.925Zm-4.445-1.845h3.52v-6.61h-3.52v6.61Z"/><path fill="#fff" d="M290.56 243.185h-5.365v8.46h5.365v-8.46Z"/><path fill="#222" d="M290.56 252.57h-5.365a.926.926 0 0 1-.925-.925v-8.46c0-.51.415-.925.925-.925h5.365c.51 0 .925.415.925.925v8.46c0 .51-.415.925-.925.925Zm-4.445-1.845h3.52v-6.61h-3.52v6.61Z"/><path fill="#fff" d="M269.065 256.339H263.7v8.46h5.365v-8.46Z"/><path fill="#222" d="M269.065 265.719H263.7a.926.926 0 0 1-.925-.925v-8.46c0-.51.415-.925.925-.925h5.365c.51 0 .925.415.925.925v8.46c0 .51-.415.925-.925.925Zm-4.445-1.845h3.52v-6.61h-3.52v6.61Z"/><path fill="#fff" d="M279.81 256.339h-5.365v8.46h5.365v-8.46Z"/><path fill="#222" d="M279.815 265.719h-5.365a.926.926 0 0 1-.925-.925v-8.46c0-.51.415-.925.925-.925h5.365c.51 0 .925.415.925.925v8.46c0 .51-.415.925-.925.925Zm-4.445-1.845h3.52v-6.61h-3.52v6.61Z"/><path fill="#fff" d="M290.56 256.339h-5.365v8.46h5.365v-8.46Z"/><path fill="#222" d="M290.56 265.719h-5.365a.926.926 0 0 1-.925-.925v-8.46c0-.51.415-.925.925-.925h5.365c.51 0 .925.415.925.925v8.46c0 .51-.415.925-.925.925Zm-4.445-1.845h3.52v-6.61h-3.52v6.61Z"/><path fill="#F5F4F3" d="M221.22 205.634h-36.945v68.835h36.945v-68.835Z"/><path fill="#222" d="M221.22 275.389h-36.945a.926.926 0 0 1-.925-.925v-68.835c0-.51.415-.925.925-.925h36.945c.51 0 .925.415.925.925v68.835c0 .51-.415.925-.925.925Zm-36.02-1.845h35.1v-66.99h-35.1v66.99Z"/><path fill="#444" d="M200.37 209.869h-10.21v8.46h10.21v-8.46Z"/><path fill="#222" d="M200.365 219.249h-10.21a.926.926 0 0 1-.925-.925v-8.46c0-.51.415-.925.925-.925h10.21c.51 0 .925.415.925.925v8.46c0 .51-.415.925-.925.925Zm-9.285-1.845h8.365v-6.615h-8.365v6.615Z"/><path fill="#444" d="M215.34 209.869h-10.21v8.46h10.21v-8.46Z"/><path fill="#222" d="M215.34 219.249h-10.21a.926.926 0 0 1-.925-.925v-8.46c0-.51.415-.925.925-.925h10.21c.51 0 .925.415.925.925v8.46c0 .51-.415.925-.925.925Zm-9.285-1.845h8.365v-6.615h-8.365v6.615Z"/><path fill="#444" d="M200.37 222.699h-10.21v8.46h10.21v-8.46Z"/><path fill="#222" d="M200.365 232.08h-10.21a.926.926 0 0 1-.925-.925v-8.46c0-.51.415-.925.925-.925h10.21c.51 0 .925.415.925.925v8.46c0 .51-.415.925-.925.925Zm-9.285-1.845h8.365v-6.615h-8.365v6.615Z"/><path fill="#444" d="M215.34 222.699h-10.21v8.46h10.21v-8.46Z"/><path fill="#222" d="M215.34 232.079h-10.21a.926.926 0 0 1-.925-.925v-8.46c0-.51.415-.925.925-.925h10.21c.51 0 .925.415.925.925v8.46c0 .51-.415.925-.925.925Zm-9.285-1.845h8.365v-6.615h-8.365v6.615Z"/><path fill="#444" d="M200.37 235.529h-10.21v8.46h10.21v-8.46Z"/><path fill="#222" d="M200.365 244.914h-10.21a.925.925 0 0 1-.925-.924v-8.461c0-.51.415-.925.925-.925h10.21c.51 0 .925.415.925.925v8.461c0 .51-.415.924-.925.924Zm-9.285-1.844h8.365v-6.616h-8.365v6.616Z"/><path fill="#444" d="M215.34 235.529h-10.21v8.46h10.21v-8.46Z"/><path fill="#222" d="M215.34 244.914h-10.21a.925.925 0 0 1-.925-.924v-8.461c0-.51.415-.925.925-.925h10.21c.51 0 .925.415.925.925v8.461c0 .51-.415.924-.925.924Zm-9.285-1.844h8.365v-6.616h-8.365v6.616Z"/><path fill="#444" d="M200.37 248.364h-10.21v8.46h10.21v-8.46Z"/><path fill="#222" d="M200.365 257.744h-10.21a.926.926 0 0 1-.925-.925v-8.46c0-.51.415-.925.925-.925h10.21c.51 0 .925.415.925.925v8.46c0 .51-.415.925-.925.925Zm-9.285-1.845h8.365v-6.615h-8.365v6.615Z"/><path fill="#444" d="M215.34 248.364h-10.21v8.46h10.21v-8.46Z"/><path fill="#222" d="M215.34 257.744h-10.21a.926.926 0 0 1-.925-.925v-8.46c0-.51.415-.925.925-.925h10.21c.51 0 .925.415.925.925v8.46c0 .51-.415.925-.925.925Zm-9.285-1.845h8.365v-6.615h-8.365v6.615Z"/><path fill="#444" d="M200.37 261.194h-10.21v8.46h10.21v-8.46Z"/><path fill="#222" d="M200.365 270.574h-10.21a.926.926 0 0 1-.925-.925v-8.46c0-.51.415-.925.925-.925h10.21c.51 0 .925.415.925.925v8.46c0 .51-.415.925-.925.925Zm-9.285-1.845h8.365v-6.615h-8.365v6.615Z"/><path fill="#444" d="M215.34 261.194h-10.21v8.46h10.21v-8.46Z"/><path fill="#222" d="M215.34 270.574h-10.21a.926.926 0 0 1-.925-.925v-8.46c0-.51.415-.925.925-.925h10.21c.51 0 .925.415.925.925v8.46c0 .51-.415.925-.925.925Zm-9.285-1.845h8.365v-6.615h-8.365v6.615Z"/></svg>