<svg xmlns="http://www.w3.org/2000/svg" width="400" height="400" fill="none" viewBox="0 0 400 400"><path fill="#DADADA" d="M334.075 315.614h-172.23L92.38 274.969v-11.14l164.675-1.86 77.02 45.28v8.365Z"/><path fill="#222" d="M334.075 316.999h-172.23c-.245 0-.485-.065-.7-.19L91.68 276.164a1.387 1.387 0 0 1-.685-1.195v-11.145c0-.76.61-1.375 1.37-1.385l164.675-1.86c.25-.015.5.065.715.19l77.025 45.28c.425.25.685.705.685 1.195v8.365c0 .765-.62 1.385-1.385 1.385l-.005.005Zm-171.855-2.77h170.47v-6.19l-76.01-44.685-162.92 1.84v8.98l68.46 40.055Z"/><path fill="#fff" d="M334.075 307.249h-172.23L97.7 269.714h172.23l64.145 37.535Z"/><path fill="#222" d="M334.075 308.634h-172.23c-.245 0-.485-.065-.7-.19l-64.15-37.53a1.38 1.38 0 0 1-.635-1.555 1.38 1.38 0 0 1 1.335-1.02h172.23c.245 0 .485.065.7.19l64.15 37.53c.54.315.8.955.635 1.555a1.38 1.38 0 0 1-1.335 1.02Zm-171.855-2.77h166.75l-59.415-34.765h-166.75l59.415 34.765Z"/><path fill="#222" d="M161.845 316.999c-.765 0-1.385-.62-1.385-1.385v-8.365a1.385 1.385 0 1 1 2.77 0v8.365c0 .765-.62 1.385-1.385 1.385Z"/><path fill="#DADADA" d="m264.61 264.684-166.91 5.03-5.32-3.07V133.049h169.71l7.84 5.03-5.32 126.605Z"/><path fill="#222" d="M97.7 271.099c-.245 0-.48-.065-.69-.185l-5.32-3.07a1.377 1.377 0 0 1-.69-1.2V133.049c0-.765.62-1.385 1.385-1.385h169.71c.265 0 .525.075.75.22l7.84 5.035c.415.265.655.73.635 1.225L266 264.749a1.381 1.381 0 0 1-1.34 1.325l-166.91 5.035h-.04l-.01-.01Zm-3.935-5.255 4.285 2.475 165.23-4.98 5.23-124.52-6.83-4.385H93.765v131.415-.005Z"/><path fill="#fff" d="M269.93 138.079H97.7v131.635h172.23V138.079Z"/><path fill="#222" d="M269.93 271.099H97.7c-.765 0-1.385-.62-1.385-1.385V138.079c0-.765.62-1.385 1.385-1.385h172.23c.765 0 1.385.62 1.385 1.385v131.635c0 .765-.62 1.385-1.385 1.385Zm-170.845-2.77H268.55V139.464H99.085v128.865Z"/><path fill="#222" d="M259.57 148.789H108.06v114.105h151.51V148.789Z"/><path fill="#222" d="M259.57 264.279H108.06c-.765 0-1.385-.62-1.385-1.385V148.789c0-.765.62-1.385 1.385-1.385h151.51c.765 0 1.385.62 1.385 1.385v114.105c0 .765-.62 1.385-1.385 1.385Zm-150.13-2.77h148.745v-111.34H109.44v111.34ZM97.7 139.464c-.34 0-.685-.125-.95-.38l-5.32-5.035a1.383 1.383 0 1 1 1.9-2.01l5.32 5.035a1.383 1.383 0 0 1-.95 2.39Z"/><path fill="#444" d="m278.355 287.129-10.765-6.295-14.71-.005 10.885 6.3h14.59ZM241.69 287.129l-10.89-6.3h-15.94l10.885 6.3h15.945ZM240.32 273.564l9.905 5.73h14.74l-9.795-5.73h-14.85ZM260.7 287.129l-10.885-6.3H233.87l10.885 6.3H260.7ZM202.295 273.564l9.905 5.73h15.945l-9.905-5.73h-15.945ZM221.31 273.564l9.905 5.73h15.94l-9.905-5.73h-15.94ZM183.285 273.564l9.905 5.73h15.945l-9.905-5.73h-15.945ZM184.655 287.129l-10.885-6.3h-15.945l10.89 6.3h15.94ZM222.68 287.129l-10.89-6.3h-15.945l10.89 6.3h15.945ZM140.185 280.829l10.765 6.3h14.695l-10.885-6.3h-14.575ZM203.665 287.129l-10.885-6.3h-15.945l10.89 6.3h15.94ZM164.275 273.564l9.905 5.73h15.945l-9.905-5.73h-15.945ZM274.46 295.09l-11.105-6.425H247.41l11.105 6.425h15.945ZM255.45 295.09l-11.105-6.425H228.4l11.105 6.425h15.945ZM236.435 295.09l-11.1-6.425H209.39l11.105 6.425h15.94ZM295.04 296.58s.03-.02.045-.025c-.015.005-.03.02-.045.025ZM291.955 295.09l-10.975-6.425h-14.555l11.1 6.425h14.43ZM127.765 273.564l9.795 5.73h14.54l-9.905-5.73h-14.43ZM145.265 273.564l9.905 5.73h15.945l-9.905-5.73h-15.945ZM198.415 295.09l-11.105-6.425h-15.94l11.1 6.425h15.945ZM217.425 295.09l-11.1-6.425H190.38l11.1 6.425h15.945ZM179.405 295.09l-11.105-6.425h-14.725l10.98 6.425h14.85Z"/><path fill="#222" d="M183.55 145.435a1.98 1.98 0 1 0 0-3.96 1.98 1.98 0 0 0 0 3.96Z"/><path fill="#FF3158" d="M202.4 163.754h-43.02v91.685h43.02v-91.685Z"/><path fill="#222" d="M202.4 256.364h-43.02a.926.926 0 0 1-.925-.925v-91.685c0-.51.415-.925.925-.925h43.02c.51 0 .925.415.925.925v91.685c0 .51-.415.925-.925.925Zm-42.095-1.845h41.175v-89.84h-41.175v89.84Z"/><path fill="#222" d="M164.945 256.364a.926.926 0 0 1-.925-.925v-91.685a.926.926 0 0 1 1.85 0v91.685c0 .51-.415.925-.925.925ZM172.92 256.364a.926.926 0 0 1-.925-.925v-91.685a.926.926 0 0 1 1.85 0v91.685c0 .51-.415.925-.925.925ZM180.89 256.364a.926.926 0 0 1-.925-.925v-91.685a.926.926 0 0 1 1.85 0v91.685c0 .51-.415.925-.925.925ZM188.865 256.364a.926.926 0 0 1-.925-.925v-91.685a.926.926 0 0 1 1.85 0v91.685c0 .51-.415.925-.925.925ZM196.835 256.364a.926.926 0 0 1-.925-.925v-91.685a.926.926 0 0 1 1.85 0v91.685c0 .51-.415.925-.925.925Z"/><path fill="#DADADA" d="M240.415 255.439H202.4v-80.41l38.015 21.995v58.415Z"/><path fill="#222" d="M240.415 256.364H202.4a.926.926 0 0 1-.925-.925v-80.415a.924.924 0 0 1 1.385-.8l38.015 21.995c.285.165.46.47.46.8v58.42c0 .51-.415.925-.925.925h.005Zm-37.09-1.845h36.17v-56.965l-36.17-20.925v77.89Z"/><path fill="#fff" d="M212.995 198.179h-5.365v8.46h5.365v-8.46Z"/><path fill="#222" d="M213 207.559h-5.365a.926.926 0 0 1-.925-.925v-8.46c0-.51.415-.925.925-.925H213c.51 0 .925.415.925.925v8.46c0 .51-.415.925-.925.925Zm-4.445-1.845h3.52v-6.61h-3.52v6.61Z"/><path fill="#fff" d="M223.745 198.179h-5.365v8.46h5.365v-8.46Z"/><path fill="#222" d="M223.745 207.559h-5.365a.926.926 0 0 1-.925-.925v-8.46c0-.51.415-.925.925-.925h5.365c.51 0 .925.415.925.925v8.46c0 .51-.415.925-.925.925Zm-4.445-1.845h3.52v-6.61h-3.52v6.61Z"/><path fill="#fff" d="M234.49 198.179h-5.365v8.46h5.365v-8.46Z"/><path fill="#222" d="M234.495 207.559h-5.365a.926.926 0 0 1-.925-.925v-8.46c0-.51.415-.925.925-.925h5.365c.51 0 .925.415.925.925v8.46c0 .51-.415.925-.925.925Zm-4.445-1.845h3.52v-6.61h-3.52v6.61Z"/><path fill="#fff" d="M212.995 211.004h-5.365v8.46h5.365v-8.46Z"/><path fill="#222" d="M213 220.389h-5.365a.926.926 0 0 1-.925-.925v-8.46c0-.51.415-.925.925-.925H213c.51 0 .925.415.925.925v8.46c0 .51-.415.925-.925.925Zm-4.445-1.845h3.52v-6.615h-3.52v6.615Z"/><path fill="#fff" d="M223.745 211.004h-5.365v8.46h5.365v-8.46Z"/><path fill="#222" d="M223.745 220.389h-5.365a.926.926 0 0 1-.925-.925v-8.46c0-.51.415-.925.925-.925h5.365c.51 0 .925.415.925.925v8.46c0 .51-.415.925-.925.925Zm-4.445-1.845h3.52v-6.615h-3.52v6.615Z"/><path fill="#fff" d="M234.49 211.004h-5.365v8.46h5.365v-8.46Z"/><path fill="#222" d="M234.495 220.389h-5.365a.926.926 0 0 1-.925-.925v-8.46c0-.51.415-.925.925-.925h5.365c.51 0 .925.415.925.925v8.46c0 .51-.415.925-.925.925Zm-4.445-1.845h3.52v-6.615h-3.52v6.615Z"/><path fill="#fff" d="M212.995 224.159h-5.365v8.46h5.365v-8.46Z"/><path fill="#222" d="M213 233.539h-5.365a.925.925 0 0 1-.925-.924v-8.461c0-.51.415-.925.925-.925H213c.51 0 .925.415.925.925v8.461c0 .51-.415.924-.925.924Zm-4.445-1.844h3.52v-6.616h-3.52v6.616Z"/><path fill="#fff" d="M223.745 224.159h-5.365v8.46h5.365v-8.46Z"/><path fill="#222" d="M223.745 233.539h-5.365a.925.925 0 0 1-.925-.924v-8.461c0-.51.415-.925.925-.925h5.365c.51 0 .925.415.925.925v8.461c0 .51-.415.924-.925.924Zm-4.445-1.844h3.52v-6.616h-3.52v6.616Z"/><path fill="#fff" d="M234.49 224.159h-5.365v8.46h5.365v-8.46Z"/><path fill="#222" d="M234.495 233.539h-5.365a.925.925 0 0 1-.925-.924v-8.461c0-.51.415-.925.925-.925h5.365c.51 0 .925.415.925.925v8.461c0 .51-.415.924-.925.924Zm-4.445-1.844h3.52v-6.616h-3.52v6.616Z"/><path fill="#fff" d="M212.995 237.314h-5.365v8.46h5.365v-8.46Z"/><path fill="#222" d="M213 246.694h-5.365a.926.926 0 0 1-.925-.925v-8.46c0-.51.415-.925.925-.925H213c.51 0 .925.415.925.925v8.46c0 .51-.415.925-.925.925Zm-4.445-1.845h3.52v-6.615h-3.52v6.615Z"/><path fill="#fff" d="M223.745 237.314h-5.365v8.46h5.365v-8.46Z"/><path fill="#222" d="M223.745 246.694h-5.365a.926.926 0 0 1-.925-.925v-8.46c0-.51.415-.925.925-.925h5.365c.51 0 .925.415.925.925v8.46c0 .51-.415.925-.925.925Zm-4.445-1.845h3.52v-6.615h-3.52v6.615Z"/><path fill="#fff" d="M234.49 237.314h-5.365v8.46h5.365v-8.46Z"/><path fill="#222" d="M234.495 246.694h-5.365a.926.926 0 0 1-.925-.925v-8.46c0-.51.415-.925.925-.925h5.365c.51 0 .925.415.925.925v8.46c0 .51-.415.925-.925.925Zm-4.445-1.845h3.52v-6.615h-3.52v6.615Z"/><path fill="#F5F4F3" d="M165.155 186.609H128.21v68.835h36.945v-68.835Z"/><path fill="#222" d="M165.155 256.365H128.21a.926.926 0 0 1-.925-.925v-68.835c0-.51.415-.925.925-.925h36.945c.51 0 .925.415.925.925v68.835c0 .51-.415.925-.925.925Zm-36.02-1.845h35.1v-66.99h-35.1v66.99Z"/><path fill="#444" d="M144.3 190.844h-10.21v8.46h10.21v-8.46Z"/><path fill="#222" d="M144.3 200.224h-10.21a.926.926 0 0 1-.925-.925v-8.46c0-.51.415-.925.925-.925h10.21c.51 0 .925.415.925.925v8.46c0 .51-.415.925-.925.925Zm-9.285-1.845h8.365v-6.615h-8.365v6.615Z"/><path fill="#444" d="M159.275 190.844h-10.21v8.46h10.21v-8.46Z"/><path fill="#222" d="M159.27 200.224h-10.21a.926.926 0 0 1-.925-.925v-8.46c0-.51.415-.925.925-.925h10.21c.51 0 .925.415.925.925v8.46c0 .51-.415.925-.925.925Zm-9.285-1.845h8.365v-6.615h-8.365v6.615Z"/><path fill="#444" d="M144.3 203.674h-10.21v8.46h10.21v-8.46Z"/><path fill="#222" d="M144.3 213.054h-10.21a.926.926 0 0 1-.925-.925v-8.46c0-.51.415-.925.925-.925h10.21c.51 0 .925.415.925.925v8.46c0 .51-.415.925-.925.925Zm-9.285-1.845h8.365v-6.615h-8.365v6.615Z"/><path fill="#444" d="M159.275 203.674h-10.21v8.46h10.21v-8.46Z"/><path fill="#222" d="M159.27 213.054h-10.21a.926.926 0 0 1-.925-.925v-8.46c0-.51.415-.925.925-.925h10.21c.51 0 .925.415.925.925v8.46c0 .51-.415.925-.925.925Zm-9.285-1.845h8.365v-6.615h-8.365v6.615Z"/><path fill="#444" d="M144.3 216.504h-10.21v8.46h10.21v-8.46Z"/><path fill="#222" d="M144.3 225.884h-10.21a.926.926 0 0 1-.925-.925v-8.46c0-.51.415-.925.925-.925h10.21c.51 0 .925.415.925.925v8.46c0 .51-.415.925-.925.925Zm-9.285-1.845h8.365v-6.615h-8.365v6.615Z"/><path fill="#444" d="M159.275 216.504h-10.21v8.46h10.21v-8.46Z"/><path fill="#222" d="M159.27 225.884h-10.21a.926.926 0 0 1-.925-.925v-8.46c0-.51.415-.925.925-.925h10.21c.51 0 .925.415.925.925v8.46c0 .51-.415.925-.925.925Zm-9.285-1.845h8.365v-6.615h-8.365v6.615Z"/><path fill="#444" d="M144.3 229.334h-10.21v8.46h10.21v-8.46Z"/><path fill="#222" d="M144.3 238.714h-10.21a.926.926 0 0 1-.925-.925v-8.46c0-.51.415-.925.925-.925h10.21c.51 0 .925.415.925.925v8.46c0 .51-.415.925-.925.925Zm-9.285-1.845h8.365v-6.615h-8.365v6.615Z"/><path fill="#444" d="M159.275 229.334h-10.21v8.46h10.21v-8.46Z"/><path fill="#222" d="M159.27 238.714h-10.21a.926.926 0 0 1-.925-.925v-8.46c0-.51.415-.925.925-.925h10.21c.51 0 .925.415.925.925v8.46c0 .51-.415.925-.925.925Zm-9.285-1.845h8.365v-6.615h-8.365v6.615Z"/><path fill="#444" d="M144.3 242.164h-10.21v8.46h10.21v-8.46Z"/><path fill="#222" d="M144.3 251.549h-10.21a.926.926 0 0 1-.925-.925v-8.46c0-.51.415-.925.925-.925h10.21c.51 0 .925.415.925.925v8.46c0 .51-.415.925-.925.925Zm-9.285-1.845h8.365v-6.61h-8.365v6.61Z"/><path fill="#444" d="M159.275 242.164h-10.21v8.46h10.21v-8.46Z"/><path fill="#222" d="M159.27 251.549h-10.21a.926.926 0 0 1-.925-.925v-8.46c0-.51.415-.925.925-.925h10.21c.51 0 .925.415.925.925v8.46c0 .51-.415.925-.925.925Zm-9.285-1.845h8.365v-6.61h-8.365v6.61Z"/><path fill="#fff" d="m108.33 163.339 12.645 17.91v-17.91h22.34a5.086 5.086 0 0 0 5.085-5.085v-80.38a5.086 5.086 0 0 0-5.085-5.085H23.51a5.086 5.086 0 0 0-5.085 5.085v80.38a5.086 5.086 0 0 0 5.085 5.085h84.82Z"/><path fill="#222" d="M120.975 182.634c-.44 0-.865-.21-1.13-.585l-12.235-17.325h-84.1a6.472 6.472 0 0 1-6.465-6.465V77.874c0-3.565 2.9-6.465 6.465-6.465h119.805c3.565 0 6.465 2.9 6.465 6.465v80.38c0 3.565-2.9 6.465-6.465 6.465H122.36v16.525a1.385 1.385 0 0 1-1.385 1.385v.005ZM23.51 74.174c-2.04 0-3.7 1.66-3.7 3.7v80.38c0 2.04 1.66 3.7 3.7 3.7h84.82c.45 0 .87.22 1.13.585l10.13 14.35v-13.55c0-.765.62-1.385 1.385-1.385h22.34c2.04 0 3.7-1.66 3.7-3.7v-80.38c0-2.04-1.66-3.7-3.7-3.7H23.51Z"/><path fill="#DADADA" d="M82.95 80.015H41.46a8.84 8.84 0 0 0-8.84 8.84 8.836 8.836 0 0 0 8.84 8.84h41.49a8.84 8.84 0 0 0 8.84-8.84 8.836 8.836 0 0 0-8.84-8.84Z"/><path fill="#FF3158" d="M102.11 129.834H41.46a8.84 8.84 0 0 0-8.84 8.84 8.836 8.836 0 0 0 8.84 8.84h60.65a8.84 8.84 0 0 0 8.84-8.84 8.836 8.836 0 0 0-8.84-8.84Z"/><path fill="#222" d="M78.525 103.495H37.04c-5.635 0-10.22-4.585-10.22-10.22 0-5.635 4.585-10.22 10.22-10.22h41.49c5.635 0 10.22 4.585 10.22 10.22 0 5.635-4.585 10.22-10.22 10.22h-.005ZM37.035 85.82c-4.11 0-7.455 3.345-7.455 7.455 0 4.11 3.345 7.455 7.455 7.455h41.49c4.11 0 7.455-3.345 7.455-7.455 0-4.11-3.345-7.455-7.455-7.455h-41.49ZM97.69 153.314H37.04c-5.635 0-10.22-4.585-10.22-10.22 0-5.635 4.585-10.22 10.22-10.22h60.65c5.635 0 10.22 4.585 10.22 10.22 0 5.635-4.585 10.22-10.22 10.22Zm-60.65-17.675c-4.11 0-7.455 3.345-7.455 7.455 0 4.11 3.345 7.455 7.455 7.455h60.65c4.11 0 7.455-3.345 7.455-7.455 0-4.11-3.345-7.455-7.455-7.455H37.04Z"/><path fill="#222" d="M41.28 143.094a3.056 3.056 0 0 1-3.05 3.05 3.033 3.033 0 0 1-3.05-3.05c0-1.7 1.35-3.05 3.05-3.05 1.665 0 3.05 1.385 3.05 3.05ZM51.47 143.094a3.056 3.056 0 0 1-3.05 3.05 3.033 3.033 0 0 1-3.05-3.05c0-1.7 1.35-3.05 3.05-3.05 1.665 0 3.05 1.385 3.05 3.05ZM61.66 143.094a3.056 3.056 0 0 1-3.05 3.05 3.033 3.033 0 0 1-3.05-3.05c0-1.7 1.35-3.05 3.05-3.05 1.665 0 3.05 1.385 3.05 3.05Z"/><path fill="#DADADA" d="M132.425 104.924h-69.49a8.84 8.84 0 0 0-8.84 8.84 8.836 8.836 0 0 0 8.84 8.84h69.49a8.84 8.84 0 0 0 8.84-8.84 8.836 8.836 0 0 0-8.84-8.84Z"/><path fill="#222" d="M128.005 128.404h-69.49c-5.635 0-10.22-4.585-10.22-10.22 0-5.635 4.585-10.225 10.22-10.225h69.49c5.635 0 10.22 4.585 10.22 10.225s-4.585 10.22-10.22 10.22Zm-69.49-17.675c-4.11 0-7.455 3.345-7.455 7.455 0 4.11 3.345 7.455 7.455 7.455h69.49c4.11 0 7.455-3.345 7.455-7.455 0-4.11-3.345-7.455-7.455-7.455h-69.49Z"/><path fill="#fff" d="M290.405 209.6h90.35v64.31H310.28l-8.565 10.855V273.91h-11.31V209.6Z"/><path fill="#DADADA" d="M284.75 203.425h90.35v64.31h-70.475l-8.565 10.855v-10.855h-11.31v-64.31Z"/><path fill="#222" d="M301.715 286.15c-.15 0-.305-.025-.455-.075a1.39 1.39 0 0 1-.93-1.31v-9.47h-9.925c-.765 0-1.385-.62-1.385-1.385V209.6c0-.765.62-1.385 1.385-1.385h90.35c.765 0 1.385.62 1.385 1.385v64.31c0 .765-.62 1.385-1.385 1.385H310.95l-8.15 10.325c-.27.34-.67.525-1.085.525v.005Zm-9.925-13.62h9.925c.765 0 1.385.62 1.385 1.385v6.865l6.095-7.725c.26-.335.665-.525 1.085-.525h69.09v-61.545h-87.58v61.545Z"/><path fill="#FF3158" d="M386.37 245.01h-64.49a8.84 8.84 0 0 0-8.84 8.84 8.836 8.836 0 0 0 8.84 8.84h64.49a8.84 8.84 0 0 0 8.84-8.84 8.836 8.836 0 0 0-8.84-8.84Z"/><path fill="#222" d="M381.95 268.49h-64.49c-5.635 0-10.22-4.585-10.22-10.22 0-5.635 4.585-10.22 10.22-10.22h64.49c5.635 0 10.22 4.585 10.22 10.22 0 5.635-4.585 10.22-10.22 10.22Zm-64.49-17.675c-4.11 0-7.455 3.345-7.455 7.455 0 4.11 3.345 7.455 7.455 7.455h64.49c4.11 0 7.455-3.345 7.455-7.455 0-4.11-3.345-7.455-7.455-7.455h-64.49Z"/><path fill="#222" d="M327.18 258.271a3.056 3.056 0 0 1-3.05 3.05 3.033 3.033 0 0 1-3.05-3.05c0-1.7 1.35-3.05 3.05-3.05 1.665 0 3.05 1.385 3.05 3.05ZM337.37 258.271a3.056 3.056 0 0 1-3.05 3.05 3.033 3.033 0 0 1-3.05-3.05c0-1.7 1.35-3.05 3.05-3.05 1.665 0 3.05 1.385 3.05 3.05ZM347.56 258.271a3.056 3.056 0 0 1-3.05 3.05 3.033 3.033 0 0 1-3.05-3.05c0-1.7 1.35-3.05 3.05-3.05 1.665 0 3.05 1.385 3.05 3.05Z"/><path fill="#fff" d="M361.09 217.705H291.6a8.84 8.84 0 0 0-8.84 8.84 8.836 8.836 0 0 0 8.84 8.84h69.49a8.84 8.84 0 0 0 8.84-8.84 8.836 8.836 0 0 0-8.84-8.84Z"/><path fill="#222" d="M356.665 241.19h-69.49c-5.635 0-10.22-4.585-10.22-10.22 0-5.635 4.585-10.22 10.22-10.22h69.49c5.635 0 10.22 4.585 10.22 10.22 0 5.635-4.585 10.22-10.22 10.22Zm-69.49-17.675c-4.11 0-7.455 3.345-7.455 7.455 0 4.11 3.345 7.455 7.455 7.455h69.49c4.11 0 7.455-3.345 7.455-7.455 0-4.11-3.345-7.455-7.455-7.455h-69.49Z"/></svg>