<svg xmlns="http://www.w3.org/2000/svg" width="400" height="400" fill="none" viewBox="0 0 400 400"><path fill="#444" d="M171.984 58.807H43.274v112.621h128.71V58.808Z"/><path fill="#222" d="M171.984 172.908H43.274c-.74 0-1.48-.555-1.48-1.48V58.808c0-.74.555-1.48 1.48-1.48h128.71c.739 0 1.479.554 1.479 1.48v112.62c0 .74-.74 1.48-1.479 1.48Zm-127.416-2.774h125.936V60.102H44.568v110.032Z"/><path fill="#F5F4F3" d="m280.167 265.927-144.06 29.958c-3.513.74-6.842-2.034-6.842-5.547V166.066c0-3.884 2.774-7.212 6.473-7.952l144.059-29.959c3.513-.739 6.657 2.035 6.657 5.548V257.79c.185 3.884-2.404 7.212-6.287 8.137Z"/><path fill="#222" d="M171.984 172.908H43.274c-.74 0-1.48-.555-1.48-1.48V58.808c0-.74.555-1.48 1.48-1.48h128.71c.739 0 1.479.554 1.479 1.48v112.62c0 .74-.74 1.48-1.479 1.48Zm-127.416-2.774h125.936V60.102H44.568v110.032Z"/><path fill="#F5F4F3" d="M37.91 53.444v112.622l5.364 5.363V58.807l-5.363-5.363Z"/><path fill="#222" d="M43.274 172.908c-.37 0-.74-.185-.925-.37l-5.363-5.548a1.412 1.412 0 0 1-.37-.924V53.444c0-.555.37-1.11.925-1.294.555-.185 1.11 0 1.48.37l5.177 5.362c.185.185.37.555.37.925v112.621c0 .555-.37 1.11-.924 1.295 0 .185-.185.185-.37.185Zm-3.884-7.397 2.404 2.589V59.362l-2.404-2.59v108.739Z"/><path fill="#F5F4F3" d="M166.806 53.444H37.911l5.363 5.363h128.71l-5.178-5.363Z"/><path fill="#222" d="M171.984 60.102H43.274c-.37 0-.74-.185-.925-.37l-5.363-5.363c-.37-.37-.555-.925-.37-1.48a1.39 1.39 0 0 1 1.294-.924h128.711c.369 0 .739.185.924.37l5.178 5.363c.37.37.555.924.37 1.479-.185.555-.555.925-1.109.925ZM43.828 57.328h124.827l-2.589-2.59H41.239l2.59 2.59ZM135.183 302.358c-1.664 0-3.144-.555-4.438-1.664-1.665-1.295-2.589-3.329-2.589-5.548V167.36c0-4.623 3.328-8.691 7.767-9.616l148.682-30.883c2.034-.37 4.253.185 5.918 1.479 1.664 1.295 2.589 3.329 2.589 5.548v127.971c0 4.623-3.329 8.691-7.767 9.616l-148.683 30.883h-1.479ZM285.715 129.45h-.925l-148.497 31.068c-3.144.74-5.548 3.514-5.548 6.842v127.971c0 1.294.555 2.589 1.664 3.328 1.11.925 2.404 1.11 3.699.925l148.682-30.883c3.144-.74 5.548-3.514 5.548-6.842V133.888c0-1.294-.555-2.589-1.664-3.328-.925-.74-1.85-1.11-2.959-1.11Z"/><path fill="#fff" d="M296.81 88.21V60.103h-49.006V74.34h-49.006v101.711h56.588l11.281-8.692-.74 1.11c-.185.184 1.85 2.404 2.219 7.027l-.184.555 28.663-.185h61.397V88.211H296.81Z"/><path fill="#DADADA" d="m242.996 142.58 7.767 10.171v20.527h-16.459v-2.035h-17.753v2.035h-14.424v-12.021h2.034v-17.753h-2.034v-12.02h48.636v8.507c-.925 0-1.849.185-2.774.369-.924.185-1.849.37-2.589.74s-1.664.925-2.404 1.48ZM268.701 92.094l-10.171 7.767h-7.767V57.698h10.911v2.034h30.698v-2.034h10.911v53.999h-24.411V99.861h-7.767c0-.924-.185-1.849-.185-2.773-.185-.925-.369-1.85-.739-2.59-.37-.74-.925-1.479-1.48-2.404Z"/><path fill="#222" d="M275.913 177.346c-.555 0-1.109-.555-1.109-1.109v-20.712c0-.555.554-1.11 1.109-1.11.555 0 1.11.555 1.11 1.11v20.527c0 .739-.37 1.294-1.11 1.294ZM300.324 115.765h-24.411c-.555 0-1.109-.555-1.109-1.109 0-.555.554-1.11 1.109-1.11h23.301v-52.89c0-.554.555-1.11 1.11-1.11s1.109.556 1.109 1.11v54c0 .554-.554 1.109-1.109 1.109Z"/><path fill="#222" d="M358.391 177.346h-90.06c-.555 0-1.11-.555-1.11-1.109 0-.925 0-1.665-.184-2.589-.185-.74-.37-1.665-.74-2.404-.185-.37-.37-.925-.555-1.295l-9.246 7.027c-.185.185-.37.185-.74.185h-56.403c-.555 0-1.11-.554-1.11-1.109V75.081c0-.555.555-1.11 1.11-1.11h47.526V60.656c0-.554.555-1.11 1.11-1.11h52.335c.554 0 1.109.556 1.109 1.11v26.445h56.958c.555 0 1.11.555 1.11 1.11v88.026c0 .554-.555 1.109-1.11 1.109Zm-89.135-2.219h87.841V89.32h-56.958c-.555 0-1.11-.554-1.11-1.11V61.767h-50.115v13.315c0 .555-.555 1.11-1.11 1.11h-47.527v98.936h54.924l11.096-8.507c.555-.369 1.109-.369 1.479.185.37.555.37 1.11-.185 1.48l-.37.185c.37.554.555 1.109.925 1.664.37.925.74 1.849.925 2.774.185.925.185 1.479.185 2.219Z"/><path fill="#222" d="M247.989 177.346c-.554 0-1.109-.555-1.109-1.109v-20.343l-8.507-11.095c-.37-.555-.37-1.11.185-1.48.555-.37 1.11-.37 1.479.185l8.692 11.281c.185.185.185.37.185.74v20.527c.185.739-.37 1.294-.925 1.294ZM239.112 125.381c-.185 0-.554-.185-.739-.37-.37-.369-.555-1.109 0-1.479l8.506-9.431v-53.63c0-.554.555-1.11 1.11-1.11s1.109.556 1.109 1.11v54.184c0 .185-.184.555-.369.74l-8.692 9.616c-.185.37-.555.37-.925.37Z"/><path fill="#222" d="M240.222 146.463c-.37 0-.74-.185-.925-.554-.369-.555-.185-1.11.37-1.48.74-.555 1.665-.924 2.589-1.294.925-.37 1.85-.74 2.774-.925.555-.185 1.295-.185 1.849-.185v-15.164c-.554 0-1.294-.185-1.849-.185-.924-.185-1.849-.555-2.774-.925a16.852 16.852 0 0 1-2.589-1.294c-.555-.37-.555-1.11-.37-1.479.37-.555 1.11-.555 1.48-.37.74.554 1.479.924 2.219 1.109.74.37 1.664.555 2.404.74.925.185 1.664.185 2.589.185.555 0 1.11.555 1.11 1.109v17.384c0 .555-.555 1.109-1.11 1.109-.925 0-1.664 0-2.589.185-.74.185-1.664.37-2.404.74l-2.219 1.109c-.185 0-.37.185-.555.185Z"/><path fill="#222" d="M247.989 135.553h-48.821c-.555 0-1.109-.555-1.109-1.11s.554-1.11 1.109-1.11h48.821c.555 0 1.11.555 1.11 1.11s-.555 1.11-1.11 1.11ZM255.571 103.93h-7.767c-.555 0-1.11-.555-1.11-1.11 0-.554.555-1.109 1.11-1.109h7.397l11.096-8.507c.555-.37 1.109-.37 1.479.185.37.555.37 1.11-.185 1.48l-11.28 8.691c-.185.185-.37.37-.74.37Z"/><path fill="#222" d="M275.913 135.552c-.555 0-1.109-.554-1.109-1.109V103.93h-6.658c-.555 0-1.109-.555-1.109-1.11 0-.925 0-1.664-.185-2.589-.185-.74-.37-1.664-.74-2.404l-1.11-2.22c-.369-.554-.184-1.109.37-1.478.555-.37 1.11-.186 1.48.37.555.739.924 1.664 1.294 2.588.37.925.74 1.85.925 2.774.185.555.185 1.295.185 1.85h6.657c.555 0 1.11.554 1.11 1.109v31.623c0 .555-.37 1.109-1.11 1.109Z"/><path fill="#FF3158" d="M231.345 172.354h-17.753v7.212h17.753v-7.212Z"/><path fill="#222" d="M231.346 180.86h-17.754c-.554 0-1.109-.555-1.109-1.11v-7.212c0-.554.555-1.109 1.109-1.109h17.754c.554 0 1.109.555 1.109 1.109v7.212c0 .555-.37 1.11-1.109 1.11Zm-16.644-2.219h15.534v-4.993h-15.534v4.993Z"/><path fill="#FF3158" d="M231.345 71.198h-17.753v7.212h17.753v-7.212Z"/><path fill="#222" d="M231.346 79.704h-17.754c-.554 0-1.109-.554-1.109-1.11v-7.212c0-.554.555-1.11 1.109-1.11h17.754c.554 0 1.109.556 1.109 1.11v7.213c0 .555-.37 1.11-1.109 1.11Zm-16.644-2.219h15.534v-4.993h-15.534v4.993Z"/><path fill="#FF3158" d="M306.241 172.354h-17.753v7.212h17.753v-7.212Z"/><path fill="#222" d="M306.427 180.86h-17.939c-.554 0-1.109-.555-1.109-1.11v-7.212c0-.554.555-1.109 1.109-1.109h17.754c.554 0 1.109.555 1.109 1.109v7.212c.185.555-.37 1.11-.924 1.11Zm-16.829-2.219h15.534v-4.993h-15.534v4.993Z"/><path fill="#FF3158" d="M346.925 172.354h-17.753v7.212h17.753v-7.212Z"/><path fill="#222" d="M347.111 180.86h-17.938c-.555 0-1.11-.555-1.11-1.11v-7.212c0-.554.555-1.109 1.11-1.109h17.753c.554 0 1.109.555 1.109 1.109v7.212c.185.555-.37 1.11-.924 1.11Zm-16.829-2.219h15.534v-4.993h-15.534v4.993Z"/><path fill="#FF3158" d="M361.905 100.046h-7.213V117.8h7.213v-17.754Z"/><path fill="#222" d="M361.905 119.094h-7.212c-.555 0-1.11-.555-1.11-1.11v-17.753c0-.555.555-1.11 1.11-1.11h7.212c.555 0 1.109.555 1.109 1.11v17.753c0 .555-.37 1.11-1.109 1.11Zm-6.103-2.219h4.993v-15.534h-4.993v15.534Z"/><path fill="#FF3158" d="M361.905 128.525h-7.213v35.691h7.213v-35.691Z"/><path fill="#222" d="M361.905 165.326h-7.212c-.555 0-1.11-.555-1.11-1.11v-35.691c0-.555.555-1.109 1.11-1.109h7.212c.555 0 1.109.554 1.109 1.109v35.691c0 .555-.37 1.11-1.109 1.11Zm-6.103-2.219h4.993v-33.472h-4.993v33.472Z"/><path fill="#FF3158" d="M202.866 87.656h-7.212v35.691h7.212V87.656Z"/><path fill="#222" d="M202.867 124.457h-7.212c-.555 0-1.11-.555-1.11-1.11V87.656c0-.555.555-1.11 1.11-1.11h7.212c.554 0 1.109.555 1.109 1.11v35.691c0 .555-.555 1.11-1.109 1.11Zm-6.103-2.219h4.993V88.766h-4.993v33.472Z"/><path fill="#FF3158" d="M202.866 146.463h-7.212v17.753h7.212v-17.753Z"/><path fill="#222" d="M202.867 165.326h-7.212c-.555 0-1.11-.555-1.11-1.11v-17.753c0-.555.555-1.109 1.11-1.109h7.212c.554 0 1.109.554 1.109 1.109v17.753c0 .555-.555 1.11-1.109 1.11Zm-6.103-2.219h4.993v-15.534h-4.993v15.534Z"/><path fill="#FF3158" d="M340.453 84.512h-22.376v7.212h22.376v-7.212Z"/><path fill="#222" d="M340.638 92.834h-22.561c-.555 0-1.11-.555-1.11-1.11v-7.212c0-.554.555-1.11 1.11-1.11h22.376c.555 0 1.11.556 1.11 1.11v7.213c.185.74-.37 1.11-.925 1.11Zm-21.452-2.219h20.158v-4.993h-20.158v4.993Z"/><path fill="#FF3158" d="M289.413 56.958h-30.698v7.212h30.698v-7.212Z"/><path fill="#222" d="M289.413 65.465h-30.698c-.555 0-1.11-.555-1.11-1.11v-7.212c0-.555.555-1.11 1.11-1.11h30.698c.555 0 1.11.555 1.11 1.11v7.212c0 .555-.37 1.11-1.11 1.11Zm-29.588-2.405h28.479v-4.993h-28.479v4.993Z"/><path fill="#fff" d="M127.046 88.766 96.533 70.828 63.616 88.766v47.341l19.232 17.938h63.616v-47.341l-19.418-17.938Z"/><path fill="#DADADA" d="m115.21 88.766 11.836 6.657v40.684H115.21V88.766Z"/><path fill="#FF3158" d="M89.876 153.675v-26.26c0-4.993 4.068-9.061 9.061-9.061s9.061 4.068 9.061 9.061v26.26"/><path fill="#222" d="M127.046 137.032c-.555 0-.925-.37-.925-.925V95.053c0-.555.37-.925.925-.925s.924.37.924.925v40.869c0 .555-.369 1.11-.924 1.11Z"/><path fill="#222" d="M146.464 154.97c-.185 0-.37 0-.555-.185l-19.418-17.938a.894.894 0 0 1 0-1.295.894.894 0 0 1 1.295 0l19.417 17.938c.37.37.37.925 0 1.295-.37 0-.555.185-.739.185ZM115.211 154.97c-.555 0-.925-.37-.925-.925v-65.28c0-.554.37-.924.925-.924s.924.37.924.925v65.279c0 .37-.369.925-.924.925Z"/><path fill="#222" d="M127.046 137.032h-11.835c-.555 0-.925-.37-.925-.925s.37-.924.925-.924h11.835c.555 0 .925.369.925.924s-.37.925-.925.925ZM83.033 107.628c-.185 0-.37 0-.555-.184L62.876 89.505a.894.894 0 0 1 0-1.294.894.894 0 0 1 1.295 0l19.417 17.938c.37.37.37.925 0 1.295-.185.184-.37.184-.555.184Z"/><path fill="#222" d="M83.033 154.97c-.555 0-.925-.37-.925-.925v-47.341c0-.37.185-.555.555-.74l32.548-17.938c.369-.185.554-.185.924 0l30.883 17.938c.37.185.555.74.37 1.294-.185.37-.74.555-1.294.37L115.58 89.875l-31.622 17.383v46.602c0 .555-.555 1.11-.925 1.11Z"/><path fill="#222" d="M146.463 154.97h-63.43c-.185 0-.37 0-.555-.185l-19.602-18.123c-.185-.185-.37-.37-.37-.74V88.766c0-.37.185-.74.555-.74l33.102-17.938c.37-.185.555-.185.925 0L127.6 88.026s.185 0 .185.185l19.417 17.938c.185.185.37.37.37.74v47.156c-.185.37-.74.925-1.11.925Zm-63.245-1.849h62.136v-46.047l-19.048-17.569-29.958-17.568L64.355 89.32v46.233l18.863 17.568Z"/><path fill="#222" d="M107.813 154.6c-.555 0-.924-.37-.924-.924v-26.26c0-4.438-3.699-8.137-8.137-8.137-4.438 0-8.137 3.699-8.137 8.137v26.26c0 .554-.37.924-.925.924s-.924-.37-.924-.924v-26.26a9.944 9.944 0 0 1 9.986-9.986 9.944 9.944 0 0 1 9.986 9.986v26.26c0 .554-.37.924-.925.924Z"/><path fill="#222" d="M102.636 140.176a2.405 2.405 0 1 0-.002-4.81 2.405 2.405 0 0 0 .002 4.81Z"/><path fill="#FF3158" d="M55.664 201.757h88.95c4.069 0 7.582 3.329 7.582 7.582v64.17c0 4.068-3.329 7.582-7.582 7.582h-88.95c-4.069 0-7.583-3.329-7.583-7.582v-64.17c.185-4.253 3.514-7.582 7.583-7.582Z"/><path fill="#222" d="M144.799 282.386H55.664c-4.993 0-8.877-4.069-8.877-8.877v-64.17c0-4.993 4.069-8.877 8.877-8.877h88.95c4.993 0 8.877 4.069 8.877 8.877v64.17c.185 4.808-3.884 8.877-8.692 8.877Zm-89.135-79.335c-3.329 0-6.103 2.774-6.103 6.103v64.17c0 3.329 2.774 6.103 6.103 6.103h88.95c3.329 0 6.103-2.774 6.103-6.103v-64.17c0-3.329-2.774-6.103-6.103-6.103h-88.95Z"/><path fill="#fff" d="m116.875 224.318-4.623-8.877H88.211l-4.623 8.877H63.985v42.903h72.492v-42.903h-19.602Z"/><path fill="#222" d="M136.477 268.701H63.985c-.74 0-1.48-.555-1.48-1.48v-42.903c0-.74.556-1.48 1.48-1.48h18.863l4.253-8.136c.185-.37.74-.74 1.295-.74h24.041c.554 0 .924.37 1.294.74l4.253 8.136h18.678c.74 0 1.48.555 1.48 1.48v42.903c-.37.925-.925 1.48-1.665 1.48Zm-71.012-2.774h69.533v-40.13h-18.123c-.555 0-.925-.37-1.295-.739l-4.253-8.137H89.135l-4.253 8.137c-.185.369-.74.739-1.294.739H65.28v40.13h.185Z"/><path fill="#222" d="M100.231 256.865c7.252 0 13.13-5.878 13.13-13.13 0-7.251-5.878-13.13-13.13-13.13-7.251 0-13.13 5.879-13.13 13.13 0 7.252 5.879 13.13 13.13 13.13Z"/><path fill="#DADADA" d="M352.289 346.555H172.908l-3.699-2.219V212.667c0-1.479 1.11-2.404 2.405-2.404h172.723c1.479 0 2.774.37 3.883 1.11l1.295.739c1.479.925 2.404 2.589 2.404 4.254l.37 130.189Z"/><path fill="#222" d="M352.289 347.665H172.908c-.185 0-.37 0-.555-.185l-3.698-2.219a1.017 1.017 0 0 1-.555-.925V212.667c0-2.034 1.664-3.513 3.699-3.513h172.723c1.664 0 3.143.37 4.438 1.294l1.294.74c1.85 1.11 2.959 3.144 2.959 5.178v130.005c.185.924-.369 1.294-.924 1.294Zm-179.011-2.219h177.901V216.551c0-1.295-.74-2.589-1.849-3.329l-1.295-.739c-.924-.555-2.219-.925-3.328-.925H171.799c-.74 0-1.48.555-1.48 1.479v131.115l2.959 1.294Z"/><path fill="#fff" d="M175.497 213.592H349.7c1.479 0 2.589 1.109 2.589 2.589v130.374H172.908V216.181c0-1.295 1.11-2.589 2.589-2.589Z"/><path fill="#222" d="M352.289 347.665H172.908c-.554 0-1.109-.555-1.109-1.11V216.181a3.71 3.71 0 0 1 3.698-3.699H349.7a3.71 3.71 0 0 1 3.698 3.699v130.374c0 .555-.554 1.11-1.109 1.11Zm-178.271-2.219h177.161V216.181c0-.74-.739-1.479-1.479-1.479H175.497c-.739 0-1.479.739-1.479 1.479v129.265Z"/><path fill="#FF3158" d="M183.634 228.571a3.883 3.883 0 1 0 0-7.766 3.883 3.883 0 0 0 0 7.766Z"/><path fill="#222" d="M183.634 229.681a4.972 4.972 0 0 1-4.993-4.993 4.972 4.972 0 0 1 4.993-4.993 4.972 4.972 0 0 1 4.993 4.993c-.185 2.774-2.404 4.993-4.993 4.993Zm0-7.767c-1.479 0-2.774 1.294-2.774 2.774 0 1.479 1.295 2.774 2.774 2.774 1.48 0 2.774-1.295 2.774-2.774 0-1.48-1.294-2.774-2.774-2.774Z"/><path fill="#fff" d="M194.914 228.571a3.884 3.884 0 1 0 0-7.768 3.884 3.884 0 0 0 0 7.768Z"/><path fill="#222" d="M194.914 229.681a4.973 4.973 0 0 1-4.993-4.993 4.973 4.973 0 0 1 4.993-4.993 4.973 4.973 0 0 1 4.994 4.993 4.973 4.973 0 0 1-4.994 4.993Zm0-7.767c-1.479 0-2.773 1.294-2.773 2.774 0 1.479 1.294 2.774 2.773 2.774 1.48 0 2.774-1.295 2.774-2.774 0-1.48-1.109-2.774-2.774-2.774Z"/><path fill="#fff" d="M206.38 228.571a3.884 3.884 0 1 0 0-7.768 3.884 3.884 0 0 0 0 7.768Z"/><path fill="#222" d="M206.38 229.681a4.972 4.972 0 0 1-4.993-4.993 4.972 4.972 0 0 1 4.993-4.993 4.972 4.972 0 0 1 4.993 4.993 4.972 4.972 0 0 1-4.993 4.993Zm0-7.767c-1.479 0-2.774 1.294-2.774 2.774 0 1.479 1.295 2.774 2.774 2.774 1.48 0 2.774-1.295 2.774-2.774 0-1.48-1.294-2.774-2.774-2.774Z"/><path fill="#F5F4F3" d="M305.687 234.119H185.483v97.827h120.204v-97.827Z"/><path fill="#222" d="M301.988 239.482H181.785v94.128h120.203v-94.128Z"/><path fill="#222" d="M301.988 334.72H181.785c-.555 0-1.11-.555-1.11-1.109v-94.129c0-.555.555-1.109 1.11-1.109h120.203c.555 0 1.11.554 1.11 1.109v94.129c0 .554-.555 1.109-1.11 1.109Zm-119.094-2.219h117.985v-91.909H182.894v91.909Z"/><path fill="#FF3158" d="M345.631 239.482h-36.985v30.513h36.985v-30.513Z"/><path fill="#222" d="M345.631 270.92h-36.985c-.555 0-1.11-.555-1.11-1.11v-30.513c0-.555.555-1.109 1.11-1.109h36.985c.555 0 1.11.554 1.11 1.109v30.513c0 .74-.555 1.11-1.11 1.11Zm-35.876-2.219h34.767v-28.294h-34.767v28.294Z"/><path fill="#444" d="M345.631 277.208h-36.985v30.513h36.985v-30.513Z"/><path fill="#222" d="M345.631 308.645h-36.985c-.555 0-1.11-.554-1.11-1.109v-30.513c0-.555.555-1.11 1.11-1.11h36.985c.555 0 1.11.555 1.11 1.11v30.513c0 .74-.555 1.109-1.11 1.109Zm-35.876-2.219h34.767v-28.294h-34.767v28.294Z"/><path fill="#fff" d="m263.708 264.817-28.109-16.643-30.328 16.643v43.459l17.753 16.643h58.437v-43.643l-17.753-16.459Z"/><path fill="#DADADA" d="m252.797 264.817 10.911 6.103v37.356h-10.911v-43.459ZM229.312 324.549v-24.225a8.287 8.287 0 0 1 8.321-8.322 8.287 8.287 0 0 1 8.322 8.322v24.225"/><path fill="#222" d="M263.708 309.2c-.555 0-.925-.37-.925-.924V270.55c0-.555.37-.925.925-.925s.924.37.924.925v37.726c0 .554-.554.924-.924.924Z"/><path fill="#222" d="M281.461 325.844c-.185 0-.37 0-.555-.185l-17.938-16.644a.893.893 0 0 1 0-1.294.894.894 0 0 1 1.295 0l17.938 16.643c.37.37.37.925 0 1.295-.185 0-.37.185-.74.185ZM252.797 325.844c-.555 0-.924-.37-.924-.925v-60.102c0-.555.369-.924.924-.924s.925.369.925.924v60.102c0 .37-.37.925-.925.925Z"/><path fill="#222" d="M263.708 309.2h-10.911c-.555 0-.924-.369-.924-.924s.369-.925.924-.925h10.911c.555 0 .925.37.925.925s-.555.924-.925.924ZM223.024 282.201c-.185 0-.37 0-.555-.185l-17.938-16.644a.893.893 0 0 1 0-1.294.893.893 0 0 1 1.294 0l17.938 16.643c.37.37.37.925 0 1.295-.185.185-.554.185-.739.185Z"/><path fill="#222" d="M223.024 325.844c-.555 0-.925-.37-.925-.925v-43.458c0-.37.185-.555.555-.74l29.958-16.643c.37-.185.555-.185.925 0l28.479 16.643c.37.185.555.74.37 1.295-.185.37-.74.554-1.295.37l-28.109-16.274-29.034 16.089v42.903c0 .185-.369.74-.924.74Z"/><path fill="#222" d="M281.461 325.844h-58.437c-.185 0-.37 0-.555-.185l-17.938-16.644c-.185-.185-.37-.369-.37-.739v-43.458c0-.37.185-.74.555-.74l30.328-16.459c.37-.185.555-.185.925 0l28.109 16.459s.185 0 .185.185l17.938 16.643c.185.185.37.37.37.74v43.458c-.185.185-.555.74-1.11.74Zm-58.067-1.849h57.143v-42.164l-17.569-16.274-27.554-16.273-29.404 16.088v42.534l17.384 16.089Z"/><path fill="#222" d="M245.955 325.474c-.555 0-.925-.37-.925-.925v-24.225c0-4.069-3.328-7.398-7.397-7.398-4.068 0-7.397 3.329-7.397 7.398v24.225c0 .555-.37.925-.925.925-.554 0-.924-.37-.924-.925v-24.225c0-5.178 4.068-9.247 9.246-9.247 5.178 0 9.247 4.069 9.247 9.247v24.225c0 .555-.37.925-.925.925Z"/><path fill="#222" d="M241.331 312.159a2.22 2.22 0 1 0 0-4.44 2.22 2.22 0 0 0 0 4.44Z"/><path fill="#FF3158" d="M248.729 307.166c8.273 0 14.979-6.706 14.979-14.979s-6.706-14.979-14.979-14.979-14.979 6.706-14.979 14.979 6.706 14.979 14.979 14.979Z"/><path fill="#222" d="M248.729 308.275c-8.877 0-15.904-7.212-15.904-15.903 0-8.692 7.212-15.904 15.904-15.904 8.877 0 16.089 7.212 16.089 15.904 0 8.691-7.212 15.903-16.089 15.903Zm0-29.773c-7.582 0-13.87 6.103-13.87 13.87 0 7.767 6.103 13.869 13.87 13.869 7.582 0 13.87-6.102 13.87-13.869 0-7.767-6.288-13.87-13.87-13.87Z"/><path fill="#fff" d="M244.291 284.604v15.35l12.205-7.952-12.205-7.398Z"/><path fill="#222" d="M244.29 300.878c-.185 0-.37 0-.37-.185-.369-.185-.554-.555-.554-.739v-15.35c0-.369.185-.554.554-.739.37-.185.555-.185.925 0l12.205 7.397c.185.185.37.37.37.74 0 .369-.185.554-.37.739l-12.205 7.767c-.185.185-.37.37-.555.37Zm.925-14.609v12.02l9.616-6.102-9.616-5.918Z"/><path fill="#FF3158" d="m319.556 300.324 4.808 23.856 5.178-7.028 8.877-1.664-18.863-15.164Z"/><path fill="#222" d="M324.549 325.289h-.185c-.369-.185-.739-.37-.924-.925l-4.808-23.855c-.185-.37.185-.925.554-1.11.37-.185.925-.185 1.295 0l18.678 14.979c.37.185.555.74.37 1.11-.185.37-.37.739-.925.739l-8.322 1.665-4.993 6.657c-.185.555-.555.74-.74.74Zm-3.328-22.191 3.698 18.307 3.699-4.993c.185-.185.37-.369.74-.369l6.287-1.295-14.424-11.65Z"/></svg>