<svg xmlns="http://www.w3.org/2000/svg" width="400" height="400" fill="none" viewBox="0 0 400 400"><path fill="#DADADA" d="m8.235 158.141 46.09 57.18H306.28l-46.09-57.18H8.235Z"/><path fill="#222" d="M319.02 221.146H67.06c-.42 0-.815-.19-1.08-.515l-46.09-57.185a1.381 1.381 0 0 1 1.08-2.25h251.96c.42 0 .815.19 1.08.515l46.09 57.185a1.381 1.381 0 0 1-1.08 2.25Zm-251.295-2.77h248.4l-43.86-54.415h-248.4l43.86 54.415Z" style="mix-blend-mode:multiply"/><path fill="#F5F4F3" d="M279.865 151.326h-2.77v-7.38h2.77v7.38Zm0-14.765h-2.77v-7.38h2.77v7.38Zm0-14.765h-2.77v-7.38h2.77v7.38Zm0-14.765h-2.77v-7.38h2.77v7.38Zm-4.41-13.58a9.158 9.158 0 0 0-5.14-3.605l.71-2.675a11.912 11.912 0 0 1 6.7 4.695l-2.265 1.585h-.005Zm-12.14-3.91h-7.38v-2.77h7.38v2.77Zm-14.765 0h-7.38v-2.77h7.38v2.77Zm-14.765 0h-7.38v-2.77h7.38v2.77Zm-14.765 0h-7.38v-2.77h7.38v2.77ZM143.41 261.216h-7.38v-2.77h7.38v2.77Zm-14.765 0h-7.38v-2.77h7.38v2.77Zm-14.765 0h-7.38v-2.77h7.38v2.77Zm-14.765 0H95.78c-1.585 0-3.105-.35-4.52-1.04l1.215-2.485a7.467 7.467 0 0 0 3.305.76h3.335v2.77-.005Zm-13.21-7.36c-.285-.95-.425-1.94-.425-2.94v-4.8h2.77v4.8c0 .735.105 1.46.31 2.15l-2.655.79Zm2.345-15.125h-2.77v-7.38h2.77v7.38Zm0-14.765h-2.77v-7.38h2.77v7.38Zm0-14.765h-2.77v-7.38h2.77v7.38Z"/><path fill="#DADADA" d="M181.764 201.822h-70.065l-6.505-6.205V47.752h66.21l10.36 6.2v147.87Z"/><path fill="#222" d="M181.765 203.202H111.7c-.355 0-.7-.135-.955-.38l-6.505-6.2a1.381 1.381 0 0 1-.43-1V47.752c0-.765.62-1.385 1.385-1.385H171.4c.25 0 .495.07.71.195l10.36 6.2c.42.25.675.7.675 1.19v147.87c0 .765-.62 1.385-1.385 1.385l.005-.005Zm-69.51-2.77h68.125V54.737l-9.36-5.6h-64.44v145.89l5.675 5.41v-.005Z"/><path fill="#FF3158" d="M181.765 54.217H112.51v147.605h69.255V54.217Z"/><path fill="#222" d="M181.765 203.202H112.51c-.765 0-1.385-.62-1.385-1.385v-147.6c0-.765.62-1.386 1.385-1.386h69.255c.765 0 1.385.62 1.385 1.386v147.605c0 .765-.62 1.385-1.385 1.385v-.005Zm-67.87-2.77h66.485V55.602h-66.485v144.835-.005Z"/><path fill="#222" d="M121.47 203.201c-.765 0-1.385-.62-1.385-1.385v-147.6a1.385 1.385 0 1 1 2.77 0v147.605c0 .765-.62 1.385-1.385 1.385v-.005ZM134.305 203.201c-.765 0-1.385-.62-1.385-1.385v-147.6a1.385 1.385 0 1 1 2.77 0v147.605c0 .765-.62 1.385-1.385 1.385v-.005ZM147.135 203.201c-.765 0-1.385-.62-1.385-1.385v-147.6a1.385 1.385 0 1 1 2.77 0v147.605c0 .765-.62 1.385-1.385 1.385v-.005ZM159.97 203.201c-.765 0-1.385-.62-1.385-1.385v-147.6a1.385 1.385 0 1 1 2.77 0v147.605c0 .765-.62 1.385-1.385 1.385v-.005ZM172.805 203.201c-.765 0-1.385-.62-1.385-1.385v-147.6a1.385 1.385 0 1 1 2.77 0v147.605c0 .765-.62 1.385-1.385 1.385v-.005Z"/><path fill="#DADADA" d="M242.965 201.821h-61.2V72.361l61.2 35.41v94.05Z"/><path fill="#222" d="M242.965 203.202h-61.2c-.765 0-1.385-.62-1.385-1.385V72.362a1.388 1.388 0 0 1 2.08-1.2l61.2 35.405c.43.25.69.705.69 1.2v94.05c0 .765-.62 1.385-1.385 1.385Zm-59.815-2.77h58.43v-91.865l-58.43-33.805v125.67Z"/><path fill="#fff" d="M198.825 109.632h-8.64v13.615h8.64v-13.615Z"/><path fill="#222" d="M198.825 124.632h-8.64c-.765 0-1.385-.62-1.385-1.385v-13.615c0-.765.62-1.385 1.385-1.385h8.64c.765 0 1.385.62 1.385 1.385v13.615c0 .765-.62 1.385-1.385 1.385Zm-7.255-2.77h5.87v-10.85h-5.87v10.85Z"/><path fill="#fff" d="M216.13 109.632h-8.64v13.615h8.64v-13.615Z"/><path fill="#222" d="M216.13 124.632h-8.64c-.765 0-1.386-.62-1.386-1.385v-13.615c0-.765.621-1.385 1.386-1.385h8.64c.765 0 1.384.62 1.384 1.385v13.615c0 .765-.619 1.385-1.384 1.385Zm-7.256-2.77h5.87v-10.85h-5.87v10.85Z"/><path fill="#fff" d="M233.43 109.632h-8.64v13.615h8.64v-13.615Z"/><path fill="#222" d="M233.43 124.632h-8.64c-.765 0-1.385-.62-1.385-1.385v-13.615c0-.765.62-1.385 1.385-1.385h8.64c.765 0 1.385.62 1.385 1.385v13.615c0 .765-.62 1.385-1.385 1.385Zm-7.255-2.77h5.87v-10.85h-5.87v10.85Z"/><path fill="#fff" d="M198.825 130.281h-8.64v13.615h8.64v-13.615Z"/><path fill="#222" d="M198.825 145.286h-8.64c-.765 0-1.385-.62-1.385-1.385v-13.615c0-.765.62-1.385 1.385-1.385h8.64c.765 0 1.385.62 1.385 1.385v13.615c0 .765-.62 1.385-1.385 1.385Zm-7.255-2.77h5.87v-10.85h-5.87v10.85Z"/><path fill="#fff" d="M216.13 130.281h-8.64v13.615h8.64v-13.615Z"/><path fill="#222" d="M216.13 145.286h-8.64c-.765 0-1.386-.62-1.386-1.385v-13.615c0-.765.621-1.385 1.386-1.385h8.64c.765 0 1.384.62 1.384 1.385v13.615c0 .765-.619 1.385-1.384 1.385Zm-7.256-2.77h5.87v-10.85h-5.87v10.85Z"/><path fill="#fff" d="M233.43 130.281h-8.64v13.615h8.64v-13.615Z"/><path fill="#222" d="M233.43 145.286h-8.64c-.765 0-1.385-.62-1.385-1.385v-13.615c0-.765.62-1.385 1.385-1.385h8.64c.765 0 1.385.62 1.385 1.385v13.615c0 .765-.62 1.385-1.385 1.385Zm-7.255-2.77h5.87v-10.85h-5.87v10.85Z"/><path fill="#fff" d="M198.825 151.457h-8.64v13.615h8.64v-13.615Z"/><path fill="#222" d="M198.825 166.462h-8.64c-.765 0-1.385-.62-1.385-1.385v-13.615c0-.765.62-1.385 1.385-1.385h8.64c.765 0 1.385.62 1.385 1.385v13.615c0 .765-.62 1.385-1.385 1.385Zm-7.255-2.77h5.87v-10.85h-5.87v10.85Z"/><path fill="#fff" d="M216.13 151.457h-8.64v13.615h8.64v-13.615Z"/><path fill="#222" d="M216.13 166.462h-8.64c-.765 0-1.386-.62-1.386-1.385v-13.615c0-.765.621-1.385 1.386-1.385h8.64c.765 0 1.384.62 1.384 1.385v13.615c0 .765-.619 1.385-1.384 1.385Zm-7.256-2.77h5.87v-10.85h-5.87v10.85Z"/><path fill="#fff" d="M233.43 151.457h-8.64v13.615h8.64v-13.615Z"/><path fill="#222" d="M233.43 166.462h-8.64c-.765 0-1.385-.62-1.385-1.385v-13.615c0-.765.62-1.385 1.385-1.385h8.64c.765 0 1.385.62 1.385 1.385v13.615c0 .765-.62 1.385-1.385 1.385Zm-7.255-2.77h5.87v-10.85h-5.87v10.85Z"/><path fill="#fff" d="M198.825 172.632h-8.64v13.615h8.64v-13.615Z"/><path fill="#222" d="M198.825 187.636h-8.64c-.765 0-1.385-.62-1.385-1.385v-13.615c0-.765.62-1.385 1.385-1.385h8.64c.765 0 1.385.62 1.385 1.385v13.615c0 .765-.62 1.385-1.385 1.385Zm-7.255-2.77h5.87v-10.85h-5.87v10.85Z"/><path fill="#fff" d="M216.13 172.632h-8.64v13.615h8.64v-13.615Z"/><path fill="#222" d="M216.13 187.636h-8.64c-.765 0-1.386-.62-1.386-1.385v-13.615c0-.765.621-1.385 1.386-1.385h8.64c.765 0 1.384.62 1.384 1.385v13.615c0 .765-.619 1.385-1.384 1.385Zm-7.256-2.77h5.87v-10.85h-5.87v10.85Z"/><path fill="#fff" d="M233.43 172.632h-8.64v13.615h8.64v-13.615Z"/><path fill="#222" d="M233.43 187.636h-8.64c-.765 0-1.385-.62-1.385-1.385v-13.615c0-.765.62-1.385 1.385-1.385h8.64c.765 0 1.385.62 1.385 1.385v13.615c0 .765-.62 1.385-1.385 1.385Zm-7.255-2.77h5.87v-10.85h-5.87v10.85Z"/><path fill="#DADADA" d="M124.79 201.822H65.315l-7.305-7.28V83.727h55.62l11.16 7.28v110.815Z"/><path fill="#222" d="M124.79 203.201H65.315a1.37 1.37 0 0 1-.975-.405l-7.305-7.28a1.38 1.38 0 0 1-.405-.98V83.726c0-.765.62-1.385 1.385-1.385h55.62c.27 0 .53.08.755.225l11.165 7.28c.39.255.63.69.63 1.16v110.815c0 .765-.62 1.385-1.385 1.385l-.01-.005Zm-58.905-2.77h57.52V91.756l-10.19-6.645h-53.82v108.855l6.495 6.47-.005-.005Z"/><path fill="#F5F4F3" d="M124.789 91.007H65.314v110.815h59.475V91.007Z"/><path fill="#222" d="M124.79 203.202H65.315c-.765 0-1.385-.62-1.385-1.385V91.007c0-.765.62-1.385 1.385-1.385h59.475c.765 0 1.385.62 1.385 1.385v110.815c0 .765-.62 1.385-1.385 1.385v-.005Zm-58.09-2.77h56.71V92.392H66.7v108.045-.005Z"/><path fill="#444" d="M91.22 97.821H74.785v13.615H91.22V97.821Z"/><path fill="#222" d="M91.22 112.821H74.785c-.765 0-1.385-.62-1.385-1.385V97.821c0-.765.62-1.385 1.385-1.385H91.22c.765 0 1.385.62 1.385 1.385v13.615c0 .765-.62 1.385-1.385 1.385Zm-15.05-2.77h13.665v-10.85H76.17v10.85Z"/><path fill="#444" d="M115.325 97.821H98.89v13.615h16.435V97.821Z"/><path fill="#222" d="M115.325 112.821H98.89c-.765 0-1.385-.62-1.385-1.385V97.821c0-.765.62-1.385 1.385-1.385h16.435c.765 0 1.385.62 1.385 1.385v13.615c0 .765-.62 1.385-1.385 1.385Zm-15.05-2.77h13.665v-10.85h-13.665v10.85Z"/><path fill="#444" d="M91.22 118.477H74.785v13.615H91.22v-13.615Z"/><path fill="#222" d="M91.22 133.481H74.785c-.765 0-1.385-.62-1.385-1.385v-13.615c0-.765.62-1.385 1.385-1.385H91.22c.765 0 1.385.62 1.385 1.385v13.615c0 .765-.62 1.385-1.385 1.385Zm-15.05-2.77h13.665v-10.85H76.17v10.85Z"/><path fill="#444" d="M115.325 118.477H98.89v13.615h16.435v-13.615Z"/><path fill="#222" d="M115.325 133.481H98.89c-.765 0-1.385-.62-1.385-1.385v-13.615c0-.765.62-1.385 1.385-1.385h16.435c.765 0 1.385.62 1.385 1.385v13.615c0 .765-.62 1.385-1.385 1.385Zm-15.05-2.77h13.665v-10.85h-13.665v10.85Z"/><path fill="#444" d="M91.22 139.137H74.785v13.615H91.22v-13.615Z"/><path fill="#222" d="M91.22 154.136H74.785c-.765 0-1.385-.62-1.385-1.385v-13.615c0-.765.62-1.385 1.385-1.385H91.22c.765 0 1.385.62 1.385 1.385v13.615c0 .765-.62 1.385-1.385 1.385Zm-15.05-2.77h13.665v-10.85H76.17v10.85Z"/><path fill="#444" d="M115.325 139.137H98.89v13.615h16.435v-13.615Z"/><path fill="#222" d="M115.325 154.136H98.89c-.765 0-1.385-.62-1.385-1.385v-13.615c0-.765.62-1.385 1.385-1.385h16.435c.765 0 1.385.62 1.385 1.385v13.615c0 .765-.62 1.385-1.385 1.385Zm-15.05-2.77h13.665v-10.85h-13.665v10.85Z"/><path fill="#444" d="M91.22 159.791H74.785v13.615H91.22v-13.615Z"/><path fill="#222" d="M91.22 174.791H74.785c-.765 0-1.385-.62-1.385-1.385v-13.615c0-.765.62-1.385 1.385-1.385H91.22c.765 0 1.385.62 1.385 1.385v13.615c0 .765-.62 1.385-1.385 1.385Zm-15.05-2.77h13.665v-10.85H76.17v10.85Z"/><path fill="#444" d="M115.325 159.791H98.89v13.615h16.435v-13.615Z"/><path fill="#222" d="M115.325 174.791H98.89c-.765 0-1.385-.62-1.385-1.385v-13.615c0-.765.62-1.385 1.385-1.385h16.435c.765 0 1.385.62 1.385 1.385v13.615c0 .765-.62 1.385-1.385 1.385Zm-15.05-2.77h13.665v-10.85h-13.665v10.85Z"/><path fill="#444" d="M91.22 180.446H74.785v13.615H91.22v-13.615Z"/><path fill="#222" d="M91.22 195.451H74.785c-.765 0-1.385-.62-1.385-1.385v-13.615c0-.765.62-1.385 1.385-1.385H91.22c.765 0 1.385.62 1.385 1.385v13.615c0 .765-.62 1.385-1.385 1.385Zm-15.05-2.77h13.665v-10.85H76.17v10.85Z"/><path fill="#444" d="M115.325 180.446H98.89v13.615h16.435v-13.615Z"/><path fill="#222" d="M115.325 195.451H98.89c-.765 0-1.385-.62-1.385-1.385v-13.615c0-.765.62-1.385 1.385-1.385h16.435c.765 0 1.385.62 1.385 1.385v13.615c0 .765-.62 1.385-1.385 1.385Zm-15.05-2.77h13.665v-10.85h-13.665v10.85ZM65.315 92.391a1.37 1.37 0 0 1-.975-.405l-7.305-7.28a1.384 1.384 0 0 1 0-1.96 1.384 1.384 0 0 1 1.96 0l7.305 7.28a1.384 1.384 0 0 1-.98 2.365h-.005ZM112.51 55.602c-.325 0-.655-.115-.915-.345l-7.31-6.465a1.385 1.385 0 1 1 1.835-2.075l7.31 6.465a1.385 1.385 0 0 1-.915 2.42h-.005Z"/><path fill="#DADADA" d="M389.645 333.891h-172.23l-69.47-40.64v-11.145l164.675-1.86 77.025 45.28v8.365Z"/><path fill="#222" d="M389.645 335.275h-172.23c-.245 0-.485-.065-.7-.19L147.25 294.44a1.387 1.387 0 0 1-.685-1.195V282.1c0-.76.61-1.375 1.37-1.385l164.675-1.86c.25 0 .5.065.715.19l77.025 45.28c.425.25.685.705.685 1.195v8.365c0 .765-.62 1.385-1.385 1.385l-.005.005Zm-171.855-2.77h170.47v-6.19l-76.01-44.685-162.92 1.84v8.98l68.46 40.055Z"/><path fill="#fff" d="M389.645 325.525h-172.23l-64.15-37.53h172.23l64.15 37.53Z"/><path fill="#222" d="M389.645 326.91h-172.23c-.245 0-.485-.065-.7-.19l-64.15-37.53a1.38 1.38 0 0 1-.635-1.555 1.38 1.38 0 0 1 1.335-1.02h172.23c.245 0 .485.065.7.19l64.15 37.53c.54.315.8.955.635 1.555a1.38 1.38 0 0 1-1.335 1.02Zm-171.855-2.77h166.75l-59.415-34.765h-166.75l59.415 34.765Z"/><path fill="#222" d="M217.415 335.276c-.765 0-1.385-.62-1.385-1.385v-8.365a1.385 1.385 0 1 1 2.77 0v8.365c0 .765-.62 1.385-1.385 1.385Z"/><path fill="#DADADA" d="m320.18 282.96-166.915 5.035-5.32-3.07v-133.6h169.71l7.84 5.035-5.315 126.6Z"/><path fill="#222" d="M153.265 289.38c-.245 0-.48-.065-.69-.185l-5.32-3.07a1.377 1.377 0 0 1-.69-1.2v-133.6c0-.765.62-1.385 1.385-1.385h169.71c.265 0 .525.075.75.22l7.84 5.035c.415.265.655.73.635 1.225l-5.32 126.605a1.381 1.381 0 0 1-1.34 1.325l-166.91 5.035h-.04l-.01-.005Zm-3.935-5.255 4.285 2.475 165.23-4.98 5.23-124.52-6.83-4.385H149.33V284.13v-.005Z"/><path fill="#fff" d="M325.495 156.36h-172.23v131.635h172.23V156.36Z"/><path fill="#222" d="M325.495 289.381h-172.23c-.765 0-1.385-.62-1.385-1.385V156.361c0-.765.62-1.385 1.385-1.385h172.23c.765 0 1.385.62 1.385 1.385v131.635c0 .765-.62 1.385-1.385 1.385Zm-170.845-2.77h169.465V157.746H154.65v128.865Z"/><path fill="#222" d="M315.135 167.07h-151.51v114.105h151.51V167.07Z"/><path fill="#222" d="M315.14 282.561H163.625c-.765 0-1.385-.62-1.385-1.385V167.071c0-.765.62-1.385 1.385-1.385h151.51c.765 0 1.385.62 1.385 1.385v114.105c0 .765-.62 1.385-1.385 1.385h.005Zm-150.13-2.77h148.745v-111.34H165.01v111.34ZM153.265 157.745c-.34 0-.685-.125-.95-.38l-5.32-5.035a1.383 1.383 0 1 1 1.9-2.01l5.32 5.035a1.383 1.383 0 0 1-.95 2.39Z"/><path fill="#444" d="m333.92 305.406-10.76-6.295h-14.71l10.885 6.295h14.585ZM297.255 305.406l-10.885-6.295h-15.945l10.89 6.295h15.94ZM295.885 291.841l9.905 5.73h14.74l-9.795-5.73h-14.85ZM316.27 305.406l-10.89-6.295h-15.945l10.89 6.295h15.945ZM257.865 291.841l9.905 5.73h15.945l-9.905-5.73h-15.945ZM276.875 291.841l9.905 5.73h15.945l-9.905-5.73h-15.945ZM238.855 291.841l9.905 5.73h15.945l-9.905-5.73h-15.945ZM240.225 305.406l-10.89-6.295h-15.94l10.885 6.295h15.945ZM278.245 305.406l-10.885-6.295h-15.945l10.885 6.295h15.945ZM195.755 299.111l10.765 6.295h14.695l-10.89-6.295h-14.57ZM259.235 305.406l-10.885-6.295h-15.945l10.885 6.295h15.945ZM219.845 291.841l9.905 5.73h15.94l-9.905-5.73h-15.94ZM330.025 313.366l-11.1-6.425H302.98l11.105 6.425h15.94ZM311.015 313.365l-11.1-6.425H283.97l11.1 6.425h15.945ZM292.005 313.366l-11.105-6.425h-15.94l11.1 6.425h15.945ZM350.61 314.861s.03-.02.045-.025c-.015.005-.03.02-.045.025ZM347.525 313.365l-10.98-6.425H321.99l11.105 6.425h14.43ZM183.335 291.841l9.79 5.73h14.545l-9.905-5.73h-14.43ZM200.83 291.841l9.905 5.73h15.945l-9.905-5.73H200.83ZM253.985 313.366l-11.105-6.425h-15.945l11.105 6.425h15.945ZM272.995 313.365l-11.105-6.425h-15.945l11.105 6.425h15.945ZM234.97 313.366l-11.1-6.425h-14.725l10.975 6.425h14.85Z"/><path fill="#222" d="M239.115 163.716a1.98 1.98 0 1 0 0-3.96 1.98 1.98 0 0 0 0 3.96Z"/><path fill="#FF3158" d="M257.97 182.035h-43.02v91.685h43.02v-91.685Z"/><path fill="#222" d="M257.97 274.64h-43.02a.926.926 0 0 1-.925-.925V182.03c0-.51.415-.925.925-.925h43.02c.51 0 .925.415.925.925v91.685c0 .51-.415.925-.925.925Zm-42.095-1.845h41.175v-89.84h-41.175v89.84Z"/><path fill="#222" d="M220.515 274.64a.926.926 0 0 1-.925-.925V182.03a.926.926 0 0 1 1.85 0v91.685c0 .51-.415.925-.925.925ZM228.486 274.64a.926.926 0 0 1-.925-.925V182.03a.926.926 0 0 1 1.85 0v91.685c0 .51-.415.925-.925.925ZM236.461 274.64a.926.926 0 0 1-.925-.925V182.03a.926.926 0 0 1 1.85 0v91.685c0 .51-.415.925-.925.925ZM244.43 274.64a.926.926 0 0 1-.925-.925V182.03a.926.926 0 0 1 1.85 0v91.685c0 .51-.415.925-.925.925ZM252.405 274.64a.926.926 0 0 1-.925-.925V182.03a.926.926 0 0 1 1.85 0v91.685c0 .51-.415.925-.925.925Z"/><path fill="#DADADA" d="M295.981 273.721h-38.01v-80.415l38.01 21.995v58.42Z"/><path fill="#222" d="M295.981 274.641h-38.015a.926.926 0 0 1-.925-.925v-80.415a.924.924 0 0 1 1.385-.8l38.015 21.995c.285.165.46.47.46.8v58.42c0 .51-.415.925-.925.925h.005Zm-37.09-1.845h36.17v-56.965l-36.17-20.925v77.89Z"/><path fill="#fff" d="M268.565 216.455H263.2v8.46h5.365v-8.46Z"/><path fill="#222" d="M268.565 225.835H263.2a.926.926 0 0 1-.925-.925v-8.46c0-.51.415-.925.925-.925h5.365c.51 0 .925.415.925.925v8.46c0 .51-.415.925-.925.925Zm-4.445-1.845h3.52v-6.61h-3.52v6.61Z"/><path fill="#fff" d="M279.31 216.455h-5.365v8.46h5.365v-8.46Z"/><path fill="#222" d="M279.315 225.835h-5.365a.926.926 0 0 1-.925-.925v-8.46c0-.51.415-.925.925-.925h5.365c.51 0 .925.415.925.925v8.46c0 .51-.415.925-.925.925Zm-4.445-1.845h3.52v-6.61h-3.52v6.61Z"/><path fill="#fff" d="M290.061 216.455h-5.365v8.46h5.365v-8.46Z"/><path fill="#222" d="M290.061 225.835h-5.365a.926.926 0 0 1-.925-.925v-8.46c0-.51.415-.925.925-.925h5.365c.51 0 .925.415.925.925v8.46c0 .51-.415.925-.925.925Zm-4.445-1.845h3.52v-6.61h-3.52v6.61Z"/><path fill="#fff" d="M268.565 229.285H263.2v8.46h5.365v-8.46Z"/><path fill="#222" d="M268.565 238.665H263.2a.926.926 0 0 1-.925-.925v-8.46c0-.51.415-.925.925-.925h5.365c.51 0 .925.415.925.925v8.46c0 .51-.415.925-.925.925Zm-4.445-1.845h3.52v-6.61h-3.52v6.61Z"/><path fill="#fff" d="M279.31 229.285h-5.365v8.46h5.365v-8.46Z"/><path fill="#222" d="M279.315 238.665h-5.365a.926.926 0 0 1-.925-.925v-8.46c0-.51.415-.925.925-.925h5.365c.51 0 .925.415.925.925v8.46c0 .51-.415.925-.925.925Zm-4.445-1.845h3.52v-6.61h-3.52v6.61Z"/><path fill="#fff" d="M290.061 229.285h-5.365v8.46h5.365v-8.46Z"/><path fill="#222" d="M290.061 238.665h-5.365a.926.926 0 0 1-.925-.925v-8.46c0-.51.415-.925.925-.925h5.365c.51 0 .925.415.925.925v8.46c0 .51-.415.925-.925.925Zm-4.445-1.845h3.52v-6.61h-3.52v6.61Z"/><path fill="#fff" d="M268.565 242.436H263.2v8.46h5.365v-8.46Z"/><path fill="#222" d="M268.565 251.821H263.2a.926.926 0 0 1-.925-.925v-8.46c0-.51.415-.925.925-.925h5.365c.51 0 .925.415.925.925v8.46c0 .51-.415.925-.925.925Zm-4.445-1.845h3.52v-6.61h-3.52v6.61Z"/><path fill="#fff" d="M279.31 242.436h-5.365v8.46h5.365v-8.46Z"/><path fill="#222" d="M279.315 251.821h-5.365a.926.926 0 0 1-.925-.925v-8.46c0-.51.415-.925.925-.925h5.365c.51 0 .925.415.925.925v8.46c0 .51-.415.925-.925.925Zm-4.445-1.845h3.52v-6.61h-3.52v6.61Z"/><path fill="#fff" d="M290.061 242.436h-5.365v8.46h5.365v-8.46Z"/><path fill="#222" d="M290.061 251.821h-5.365a.926.926 0 0 1-.925-.925v-8.46c0-.51.415-.925.925-.925h5.365c.51 0 .925.415.925.925v8.46c0 .51-.415.925-.925.925Zm-4.445-1.845h3.52v-6.61h-3.52v6.61Z"/><path fill="#fff" d="M268.565 255.591H263.2v8.46h5.365v-8.46Z"/><path fill="#222" d="M268.565 264.971H263.2a.926.926 0 0 1-.925-.925v-8.46c0-.51.415-.925.925-.925h5.365c.51 0 .925.415.925.925v8.46c0 .51-.415.925-.925.925Zm-4.445-1.845h3.52v-6.61h-3.52v6.61Z"/><path fill="#fff" d="M279.31 255.591h-5.365v8.46h5.365v-8.46Z"/><path fill="#222" d="M279.315 264.971h-5.365a.926.926 0 0 1-.925-.925v-8.46c0-.51.415-.925.925-.925h5.365c.51 0 .925.415.925.925v8.46c0 .51-.415.925-.925.925Zm-4.445-1.845h3.52v-6.61h-3.52v6.61Z"/><path fill="#fff" d="M290.061 255.591h-5.365v8.46h5.365v-8.46Z"/><path fill="#222" d="M290.061 264.971h-5.365a.926.926 0 0 1-.925-.925v-8.46c0-.51.415-.925.925-.925h5.365c.51 0 .925.415.925.925v8.46c0 .51-.415.925-.925.925Zm-4.445-1.845h3.52v-6.61h-3.52v6.61Z"/><path fill="#F5F4F3" d="M220.721 204.886h-36.945v68.835h36.945v-68.835Z"/><path fill="#222" d="M220.722 274.641h-36.945a.926.926 0 0 1-.925-.925v-68.835c0-.51.415-.925.925-.925h36.945c.51 0 .925.415.925.925v68.835c0 .51-.415.925-.925.925Zm-36.02-1.845h35.1v-66.99h-35.1v66.99Z"/><path fill="#444" d="M199.871 209.12h-10.21v8.46h10.21v-8.46Z"/><path fill="#222" d="M199.865 218.5h-10.21a.926.926 0 0 1-.925-.925v-8.46c0-.51.415-.925.925-.925h10.21c.51 0 .925.415.925.925v8.46c0 .51-.415.925-.925.925Zm-9.285-1.845h8.365v-6.615h-8.365v6.615Z"/><path fill="#444" d="M214.841 209.12h-10.21v8.46h10.21v-8.46Z"/><path fill="#222" d="M214.841 218.5h-10.21a.926.926 0 0 1-.925-.925v-8.46c0-.51.415-.925.925-.925h10.21c.51 0 .925.415.925.925v8.46c0 .51-.415.925-.925.925Zm-9.285-1.845h8.365v-6.615h-8.365v6.615Z"/><path fill="#444" d="M199.871 221.951h-10.21v8.46h10.21v-8.46Z"/><path fill="#222" d="M199.865 231.331h-10.21a.926.926 0 0 1-.925-.925v-8.46c0-.51.415-.925.925-.925h10.21c.51 0 .925.415.925.925v8.46c0 .51-.415.925-.925.925Zm-9.285-1.845h8.365v-6.616h-8.365v6.616Z"/><path fill="#444" d="M214.841 221.951h-10.21v8.46h10.21v-8.46Z"/><path fill="#222" d="M214.841 231.331h-10.21a.926.926 0 0 1-.925-.925v-8.46c0-.51.415-.925.925-.925h10.21c.51 0 .925.415.925.925v8.46c0 .51-.415.925-.925.925Zm-9.285-1.845h8.365v-6.616h-8.365v6.616Z"/><path fill="#444" d="M199.871 234.78h-10.21v8.46h10.21v-8.46Z"/><path fill="#222" d="M199.865 244.165h-10.21a.926.926 0 0 1-.925-.925v-8.46c0-.51.415-.925.925-.925h10.21c.51 0 .925.415.925.925v8.46c0 .51-.415.925-.925.925Zm-9.285-1.845h8.365v-6.615h-8.365v6.615Z"/><path fill="#444" d="M214.841 234.78h-10.21v8.46h10.21v-8.46Z"/><path fill="#222" d="M214.841 244.165h-10.21a.926.926 0 0 1-.925-.925v-8.46c0-.51.415-.925.925-.925h10.21c.51 0 .925.415.925.925v8.46c0 .51-.415.925-.925.925Zm-9.285-1.845h8.365v-6.615h-8.365v6.615Z"/><path fill="#444" d="M199.871 247.615h-10.21v8.46h10.21v-8.46Z"/><path fill="#222" d="M199.865 256.996h-10.21a.926.926 0 0 1-.925-.925v-8.46c0-.51.415-.925.925-.925h10.21c.51 0 .925.415.925.925v8.46c0 .51-.415.925-.925.925Zm-9.285-1.845h8.365v-6.615h-8.365v6.615Z"/><path fill="#444" d="M214.841 247.615h-10.21v8.46h10.21v-8.46Z"/><path fill="#222" d="M214.841 256.996h-10.21a.926.926 0 0 1-.925-.925v-8.46c0-.51.415-.925.925-.925h10.21c.51 0 .925.415.925.925v8.46c0 .51-.415.925-.925.925Zm-9.285-1.845h8.365v-6.615h-8.365v6.615Z"/><path fill="#444" d="M199.871 260.445h-10.21v8.46h10.21v-8.46Z"/><path fill="#222" d="M199.865 269.826h-10.21a.926.926 0 0 1-.925-.925v-8.46c0-.51.415-.925.925-.925h10.21c.51 0 .925.415.925.925v8.46c0 .51-.415.925-.925.925Zm-9.285-1.845h8.365v-6.615h-8.365v6.615Z"/><path fill="#444" d="M214.841 260.445h-10.21v8.46h10.21v-8.46Z"/><path fill="#222" d="M214.841 269.826h-10.21a.926.926 0 0 1-.925-.925v-8.46c0-.51.415-.925.925-.925h10.21c.51 0 .925.415.925.925v8.46c0 .51-.415.925-.925.925Zm-9.285-1.845h8.365v-6.615h-8.365v6.615Z"/></svg>