<svg xmlns="http://www.w3.org/2000/svg" width="400" height="401" fill="none" viewBox="0 0 400 401"><path fill="#222" d="m94.96 212.235-.43 24.675 17.85-24.675h131.805V72.375H46.475v139.86H94.96Z"/><path fill="#222" d="M94.53 238.295a1.378 1.378 0 0 1-1.385-1.405l.405-23.265H46.475c-.765 0-1.385-.62-1.385-1.385V72.375c0-.765.62-1.385 1.385-1.385h197.71c.765 0 1.385.62 1.385 1.385v139.86c0 .765-.62 1.385-1.385 1.385h-131.1l-17.435 24.1a1.388 1.388 0 0 1-1.12.575Zm-46.67-27.44h47.1a1.381 1.381 0 0 1 1.38 1.41l-.355 20.27 15.265-21.105c.26-.36.68-.575 1.12-.575H242.8v-137.1H47.86v137.1Z"/><path fill="#DADADA" d="m57.115 63.505-10.64 8.87H244.18l10.645-8.87H57.115Z"/><path fill="#222" d="M244.18 73.755H46.475a1.386 1.386 0 0 1-.885-2.45l10.64-8.865c.25-.205.56-.32.885-.32h197.71a1.386 1.386 0 0 1 .885 2.45l-10.64 8.865c-.25.205-.56.32-.885.32h-.005ZM50.3 70.985h193.38l7.32-6.1H57.62l-7.32 6.1Z"/><path fill="#DADADA" d="M244.18 72.376v139.86l10.645-8.865V63.506l-10.645 8.87Z"/><path fill="#222" d="M244.18 213.621a1.386 1.386 0 0 1-1.38-1.385V72.376c0-.41.185-.8.5-1.065l10.64-8.865c.415-.345.99-.415 1.475-.19.485.23.795.715.795 1.255v139.86c0 .41-.185.8-.5 1.065l-10.64 8.865c-.255.21-.57.32-.885.32h-.005Zm1.385-140.6v136.26l7.87-6.56V66.461l-7.87 6.56Z"/><path fill="#FF3158" d="M168.295 82.54H113.68v116.405h54.615V82.54Z"/><path fill="#222" d="M168.295 200.115H113.68c-.645 0-1.17-.525-1.17-1.17V82.54c0-.645.525-1.17 1.17-1.17h54.615c.645 0 1.17.525 1.17 1.17v116.405c0 .645-.525 1.17-1.17 1.17Zm-53.445-2.345h52.275V83.71H114.85v114.06Z"/><path fill="#222" d="M120.744 200.115c-.645 0-1.17-.525-1.17-1.17V82.54c0-.645.525-1.17 1.17-1.17.645 0 1.17.525 1.17 1.17v116.405c0 .645-.525 1.17-1.17 1.17ZM130.865 200.115c-.645 0-1.17-.525-1.17-1.17V82.54c0-.645.525-1.17 1.17-1.17.645 0 1.17.525 1.17 1.17v116.405c0 .645-.525 1.17-1.17 1.17ZM140.984 200.115c-.645 0-1.17-.525-1.17-1.17V82.54c0-.645.525-1.17 1.17-1.17.645 0 1.17.525 1.17 1.17v116.405c0 .645-.525 1.17-1.17 1.17ZM151.109 200.115c-.645 0-1.17-.525-1.17-1.17V82.54c0-.645.525-1.17 1.17-1.17.645 0 1.17.525 1.17 1.17v116.405c0 .645-.525 1.17-1.17 1.17ZM161.23 200.115c-.645 0-1.17-.525-1.17-1.17V82.54c0-.645.525-1.17 1.17-1.17.645 0 1.17.525 1.17 1.17v116.405c0 .645-.525 1.17-1.17 1.17Z"/><path fill="#DADADA" d="M216.559 198.945h-48.265V96.85l48.265 27.925v74.17Z"/><path fill="#222" d="M216.559 200.115h-48.265c-.645 0-1.17-.525-1.17-1.17V96.85c0-.42.225-.805.585-1.015.36-.21.81-.21 1.17 0l48.265 27.925c.36.21.585.595.585 1.015v74.17c0 .645-.525 1.17-1.17 1.17Zm-47.09-2.345h45.92v-72.32l-45.92-26.565v98.89-.005Z"/><path fill="#fff" d="M181.75 126.24h-6.815v10.74h6.815v-10.74Z"/><path fill="#222" d="M181.75 138.15h-6.815c-.645 0-1.17-.525-1.17-1.17v-10.74c0-.645.525-1.17 1.17-1.17h6.815c.645 0 1.17.525 1.17 1.17v10.74c0 .645-.525 1.17-1.17 1.17Zm-5.645-2.345h4.47v-8.395h-4.47v8.395Z"/><path fill="#fff" d="M195.399 126.24h-6.815v10.74h6.815v-10.74Z"/><path fill="#222" d="M195.394 138.15h-6.815c-.645 0-1.17-.525-1.17-1.17v-10.74c0-.645.525-1.17 1.17-1.17h6.815c.645 0 1.17.525 1.17 1.17v10.74c0 .645-.525 1.17-1.17 1.17Zm-5.645-2.345h4.47v-8.395h-4.47v8.395Z"/><path fill="#fff" d="M209.044 126.24h-6.815v10.74h6.815v-10.74Z"/><path fill="#222" d="M209.04 138.15h-6.815c-.645 0-1.17-.525-1.17-1.17v-10.74c0-.645.525-1.17 1.17-1.17h6.815c.645 0 1.17.525 1.17 1.17v10.74c0 .645-.525 1.17-1.17 1.17Zm-5.645-2.345h4.47v-8.395h-4.47v8.395Z"/><path fill="#fff" d="M181.75 142.53h-6.815v10.74h6.815v-10.74Z"/><path fill="#222" d="M181.75 154.44h-6.815c-.645 0-1.17-.525-1.17-1.17v-10.74c0-.645.525-1.17 1.17-1.17h6.815c.645 0 1.17.525 1.17 1.17v10.74c0 .645-.525 1.17-1.17 1.17Zm-5.645-2.345h4.47V143.7h-4.47v8.395Z"/><path fill="#fff" d="M195.399 142.53h-6.815v10.74h6.815v-10.74Z"/><path fill="#222" d="M195.394 154.44h-6.815c-.645 0-1.17-.525-1.17-1.17v-10.74c0-.645.525-1.17 1.17-1.17h6.815c.645 0 1.17.525 1.17 1.17v10.74c0 .645-.525 1.17-1.17 1.17Zm-5.645-2.345h4.47V143.7h-4.47v8.395Z"/><path fill="#fff" d="M209.044 142.53h-6.815v10.74h6.815v-10.74Z"/><path fill="#222" d="M209.04 154.44h-6.815c-.645 0-1.17-.525-1.17-1.17v-10.74c0-.645.525-1.17 1.17-1.17h6.815c.645 0 1.17.525 1.17 1.17v10.74c0 .645-.525 1.17-1.17 1.17Zm-5.645-2.345h4.47V143.7h-4.47v8.395Z"/><path fill="#fff" d="M181.75 159.225h-6.815v10.74h6.815v-10.74Z"/><path fill="#222" d="M181.75 171.14h-6.815c-.645 0-1.17-.525-1.17-1.17v-10.74c0-.645.525-1.17 1.17-1.17h6.815c.645 0 1.17.525 1.17 1.17v10.74c0 .645-.525 1.17-1.17 1.17Zm-5.645-2.345h4.47V160.4h-4.47v8.395Z"/><path fill="#fff" d="M195.399 159.225h-6.815v10.74h6.815v-10.74Z"/><path fill="#222" d="M195.394 171.14h-6.815c-.645 0-1.17-.525-1.17-1.17v-10.74c0-.645.525-1.17 1.17-1.17h6.815c.645 0 1.17.525 1.17 1.17v10.74c0 .645-.525 1.17-1.17 1.17Zm-5.645-2.345h4.47V160.4h-4.47v8.395Z"/><path fill="#fff" d="M209.044 159.225h-6.815v10.74h6.815v-10.74Z"/><path fill="#222" d="M209.04 171.14h-6.815c-.645 0-1.17-.525-1.17-1.17v-10.74c0-.645.525-1.17 1.17-1.17h6.815c.645 0 1.17.525 1.17 1.17v10.74c0 .645-.525 1.17-1.17 1.17Zm-5.645-2.345h4.47V160.4h-4.47v8.395Z"/><path fill="#fff" d="M181.75 175.925h-6.815v10.74h6.815v-10.74Z"/><path fill="#222" d="M181.75 187.835h-6.815c-.645 0-1.17-.525-1.17-1.17v-10.74c0-.645.525-1.17 1.17-1.17h6.815c.645 0 1.17.525 1.17 1.17v10.74c0 .645-.525 1.17-1.17 1.17Zm-5.645-2.345h4.47v-8.395h-4.47v8.395Z"/><path fill="#fff" d="M195.399 175.925h-6.815v10.74h6.815v-10.74Z"/><path fill="#222" d="M195.394 187.835h-6.815c-.645 0-1.17-.525-1.17-1.17v-10.74c0-.645.525-1.17 1.17-1.17h6.815c.645 0 1.17.525 1.17 1.17v10.74c0 .645-.525 1.17-1.17 1.17Zm-5.645-2.345h4.47v-8.395h-4.47v8.395Z"/><path fill="#fff" d="M209.044 175.925h-6.815v10.74h6.815v-10.74Z"/><path fill="#222" d="M209.04 187.835h-6.815c-.645 0-1.17-.525-1.17-1.17v-10.74c0-.645.525-1.17 1.17-1.17h6.815c.645 0 1.17.525 1.17 1.17v10.74c0 .645-.525 1.17-1.17 1.17Zm-5.645-2.345h4.47v-8.395h-4.47v8.395Z"/><path fill="#F5F4F3" d="M121.005 111.55H74.1v87.39h46.905v-87.39Z"/><path fill="#222" d="M121.005 200.115H74.1c-.645 0-1.17-.525-1.17-1.17V111.55c0-.645.525-1.17 1.17-1.17h46.905c.645 0 1.17.525 1.17 1.17v87.39c0 .645-.525 1.17-1.17 1.17v.005ZM75.27 197.77h44.56v-85.045H75.27v85.05-.005Z"/><path fill="#444" d="M94.53 116.93H81.57v10.74h12.96v-10.74Z"/><path fill="#222" d="M94.53 128.84H81.57c-.646 0-1.17-.525-1.17-1.17v-10.74c0-.645.524-1.17 1.17-1.17h12.96c.644 0 1.17.525 1.17 1.17v10.74c0 .645-.526 1.17-1.17 1.17Zm-11.79-2.345h10.62V118.1H82.74v8.395Z"/><path fill="#444" d="M113.539 116.93h-12.96v10.74h12.96v-10.74Z"/><path fill="#222" d="M113.539 128.84h-12.96c-.645 0-1.17-.525-1.17-1.17v-10.74c0-.645.525-1.17 1.17-1.17h12.96c.645 0 1.17.525 1.17 1.17v10.74c0 .645-.525 1.17-1.17 1.17Zm-11.79-2.345h10.62V118.1h-10.62v8.395Z"/><path fill="#444" d="M94.53 133.22H81.57v10.74h12.96v-10.74Z"/><path fill="#222" d="M94.53 145.13H81.57c-.646 0-1.17-.525-1.17-1.17v-10.74c0-.645.524-1.17 1.17-1.17h12.96c.644 0 1.17.525 1.17 1.17v10.74c0 .645-.526 1.17-1.17 1.17Zm-11.79-2.345h10.62v-8.395H82.74v8.395Z"/><path fill="#444" d="M113.539 133.22h-12.96v10.74h12.96v-10.74Z"/><path fill="#222" d="M113.539 145.13h-12.96c-.645 0-1.17-.525-1.17-1.17v-10.74c0-.645.525-1.17 1.17-1.17h12.96c.645 0 1.17.525 1.17 1.17v10.74c0 .645-.525 1.17-1.17 1.17Zm-11.79-2.345h10.62v-8.395h-10.62v8.395Z"/><path fill="#444" d="M94.53 149.51H81.57v10.74h12.96v-10.74Z"/><path fill="#222" d="M94.53 161.42H81.57c-.646 0-1.17-.525-1.17-1.17v-10.74c0-.645.524-1.17 1.17-1.17h12.96c.644 0 1.17.525 1.17 1.17v10.74c0 .645-.526 1.17-1.17 1.17Zm-11.79-2.345h10.62v-8.395H82.74v8.395Z"/><path fill="#444" d="M113.539 149.51h-12.96v10.74h12.96v-10.74Z"/><path fill="#222" d="M113.539 161.42h-12.96c-.645 0-1.17-.525-1.17-1.17v-10.74c0-.645.525-1.17 1.17-1.17h12.96c.645 0 1.17.525 1.17 1.17v10.74c0 .645-.525 1.17-1.17 1.17Zm-11.79-2.345h10.62v-8.395h-10.62v8.395Z"/><path fill="#444" d="M94.53 165.8H81.57v10.74h12.96V165.8Z"/><path fill="#222" d="M94.53 177.71H81.57c-.646 0-1.17-.525-1.17-1.17V165.8c0-.645.524-1.17 1.17-1.17h12.96c.644 0 1.17.525 1.17 1.17v10.74c0 .645-.526 1.17-1.17 1.17Zm-11.79-2.345h10.62v-8.395H82.74v8.395Z"/><path fill="#444" d="M113.539 165.8h-12.96v10.74h12.96V165.8Z"/><path fill="#222" d="M113.539 177.71h-12.96c-.645 0-1.17-.525-1.17-1.17V165.8c0-.645.525-1.17 1.17-1.17h12.96c.645 0 1.17.525 1.17 1.17v10.74c0 .645-.525 1.17-1.17 1.17Zm-11.79-2.345h10.62v-8.395h-10.62v8.395Z"/><path fill="#444" d="M94.53 182.09H81.57v10.74h12.96v-10.74Z"/><path fill="#222" d="M94.53 194H81.57c-.646 0-1.17-.525-1.17-1.17v-10.74c0-.645.524-1.17 1.17-1.17h12.96c.644 0 1.17.525 1.17 1.17v10.74c0 .645-.526 1.17-1.17 1.17Zm-11.79-2.345h10.62v-8.395H82.74v8.395Z"/><path fill="#444" d="M113.539 182.09h-12.96v10.74h12.96v-10.74Z"/><path fill="#222" d="M113.539 194h-12.96c-.645 0-1.17-.525-1.17-1.17v-10.74c0-.645.525-1.17 1.17-1.17h12.96c.645 0 1.17.525 1.17 1.17v10.74c0 .645-.525 1.17-1.17 1.17Zm-11.79-2.345h10.62v-8.395h-10.62v8.395Z"/><path fill="#fff" d="m302.37 304.53 19.86 28.13v-28.13h35.08a7.985 7.985 0 0 0 7.985-7.985V164.98a7.985 7.985 0 0 0-7.985-7.985H169.16a7.985 7.985 0 0 0-7.985 7.985v131.565a7.985 7.985 0 0 0 7.985 7.985h133.21Z"/><path fill="#222" d="M322.23 334.045c-.44 0-.865-.21-1.13-.585l-19.445-27.545H169.16c-5.165 0-9.365-4.2-9.365-9.365V164.98c0-5.165 4.2-9.365 9.365-9.365h188.15c5.165 0 9.365 4.2 9.365 9.365v131.565c0 5.165-4.2 9.365-9.365 9.365h-33.7v26.745a1.385 1.385 0 0 1-1.385 1.385l.005.005ZM169.16 158.38c-3.64 0-6.6 2.96-6.6 6.6v131.565c0 3.64 2.96 6.6 6.6 6.6h133.21c.45 0 .87.22 1.13.585l17.345 24.565v-23.77c0-.765.62-1.385 1.385-1.385h35.08c3.64 0 6.6-2.96 6.6-6.6V164.98c0-3.64-2.96-6.6-6.6-6.6H169.16Z"/><path fill="#FF3158" d="M292.6 251.905h-95.25c-7.665 0-13.88 6.215-13.88 13.88 0 7.665 6.215 13.88 13.88 13.88h95.25c7.665 0 13.88-6.215 13.88-13.88 0-7.665-6.215-13.88-13.88-13.88Z"/><path fill="#222" d="M285.655 287.996h-95.25c-8.415 0-15.265-6.85-15.265-15.265 0-8.415 6.85-15.265 15.265-15.265h95.25c8.415 0 15.265 6.85 15.265 15.265 0 8.415-6.85 15.265-15.265 15.265Zm-95.25-27.76c-6.89 0-12.495 5.605-12.495 12.495 0 6.89 5.605 12.495 12.495 12.495h95.25c6.89 0 12.495-5.605 12.495-12.495 0-6.89-5.605-12.495-12.495-12.495h-95.25Z"/><path fill="#222" d="M197.07 272.73c0 2.665-2.175 4.785-4.785 4.785a4.757 4.757 0 0 1-4.785-4.785 4.757 4.757 0 0 1 4.785-4.785c2.61 0 4.785 2.175 4.785 4.785ZM213.07 272.73c0 2.665-2.175 4.785-4.785 4.785a4.757 4.757 0 0 1-4.785-4.785 4.757 4.757 0 0 1 4.785-4.785c2.61 0 4.785 2.175 4.785 4.785ZM229.075 272.73c0 2.665-2.175 4.785-4.785 4.785a4.757 4.757 0 0 1-4.785-4.785 4.757 4.757 0 0 1 4.785-4.785c2.61 0 4.785 2.175 4.785 4.785Z"/><path fill="#DADADA" d="M340.214 212.785H231.079c-7.665 0-13.88 6.215-13.88 13.88 0 7.665 6.215 13.88 13.88 13.88h109.135c7.665 0 13.88-6.215 13.88-13.88 0-7.665-6.215-13.88-13.88-13.88Z"/><path fill="#222" d="M333.27 248.876H224.135c-8.415 0-15.265-6.85-15.265-15.265 0-8.415 6.85-15.265 15.265-15.265H333.27c8.415 0 15.265 6.85 15.265 15.265 0 8.415-6.85 15.265-15.265 15.265Zm-109.135-27.76c-6.89 0-12.495 5.605-12.495 12.495 0 6.89 5.605 12.495 12.495 12.495H333.27c6.89 0 12.495-5.605 12.495-12.495 0-6.89-5.605-12.495-12.495-12.495H224.135Z"/><path fill="#DADADA" d="M277.796 169.796h-80.445c-7.665 0-13.88 6.215-13.88 13.88 0 7.665 6.215 13.88 13.88 13.88h80.445c7.665 0 13.88-6.215 13.88-13.88 0-7.665-6.215-13.88-13.88-13.88Z"/><path fill="#222" d="M270.856 205.885h-80.445c-8.415 0-15.265-6.85-15.265-15.265 0-8.415 6.85-15.265 15.265-15.265h80.445c8.415 0 15.264 6.85 15.264 15.265 0 8.415-6.849 15.265-15.264 15.265Zm-80.445-27.76c-6.89 0-12.496 5.605-12.496 12.495 0 6.89 5.606 12.495 12.496 12.495h80.445c6.89 0 12.495-5.605 12.495-12.495 0-6.89-5.605-12.495-12.495-12.495h-80.445Z"/></svg>