<svg xmlns="http://www.w3.org/2000/svg" width="400" height="401" fill="none" viewBox="0 0 400 401"><path fill="#DADADA" d="m184.43 165.347-1.112 37.071h33.364l-1.298-36.701-30.954-.37Z"/><path fill="#F5F4F3" d="M183.318 203.345v7.97h33.364l-.371-7.97h-32.993Z"/><path fill="#444" d="m179.796 114.928-.556 16.868c-5.931-10.751-16.311-18.536-28.73-21.131l3.336-5.931c2.224-4.449 7.785-6.858 13.161-6.117 11.677 1.483 12.789 8.712 12.789 16.311Z"/><path fill="#222" d="m180.352 136.801-2.41-4.263c-5.931-10.566-16.126-17.98-27.803-20.389l-1.854-.371 4.449-7.6c2.41-4.819 8.341-7.6 14.458-6.858 12.975 1.668 14.087 10.009 14.087 17.609l-.927 21.872Zm-27.803-27.062c10.38 2.595 19.277 8.712 25.393 17.423l.557-12.233c0-7.414-.927-13.531-11.678-15.014-5.005-.556-9.638 1.668-11.677 5.375l-2.595 4.449Z"/><path fill="#FF3158" d="M181.452 242.112c1.965-35.469-25.196-65.815-60.665-67.779-35.47-1.964-65.815 25.196-67.78 60.665-1.964 35.469 25.197 65.815 60.666 67.78 35.469 1.964 65.815-25.197 67.779-60.666Z"/><path fill="#222" d="M117.331 304.363c-36.33 0-65.802-29.472-65.802-65.802 0-36.33 29.472-65.801 65.802-65.801 36.33 0 65.802 29.471 65.802 65.801s-29.658 65.802-65.802 65.802Zm0-128.638c-34.662 0-63.022 28.175-63.022 63.022 0 34.847 28.175 63.021 63.022 63.021 34.847 0 63.021-28.174 63.021-63.021s-28.359-63.022-63.021-63.022Z"/><path fill="#fff" d="M117.331 282.307c24.159 0 43.744-19.585 43.744-43.744 0-24.16-19.585-43.745-43.744-43.745-24.16 0-43.745 19.585-43.745 43.745 0 24.159 19.585 43.744 43.745 43.744Z"/><path fill="#222" d="M117.331 283.789c-24.838 0-45.228-20.204-45.228-45.227 0-25.023 20.204-45.041 45.228-45.041 25.023 0 45.227 20.203 45.227 45.227 0 25.023-20.39 45.041-45.227 45.041Zm0-87.488c-23.355 0-42.447 19.092-42.447 42.447 0 23.355 19.092 42.446 42.447 42.446 23.355 0 42.446-19.091 42.446-42.446 0-23.355-19.091-42.447-42.446-42.447ZM60.612 209.462h-1.298v-2.039l2.78-2.78v4.633l-1.482.186Z"/><path fill="#DADADA" d="M184.43 152.372a42.322 42.322 0 0 0-42.447-42.447c-16.496 0-30.769 9.453-37.813 23.169l-43.373 74.699c10.936-20.018 32.067-33.549 56.534-33.549 35.588 0 64.319 28.73 64.319 64.318l2.78-84.152h-.185c0-.741.185-1.297.185-2.038Z"/><path fill="#222" d="M182.947 238.563h-2.78c0-34.662-28.174-63.021-63.021-63.021-21.873 0-42.262 11.492-53.569 30.027l-1.668 2.966-2.41-1.297c.557-.927 1.113-2.039 1.669-2.966l41.705-71.919c7.6-14.643 22.428-23.911 38.925-23.911 24.096 0 43.93 19.648 43.93 43.93v2.039l-2.781 84.152Zm-65.616-65.616c30.398 0 55.978 20.76 63.577 48.748l2.225-65.801v-3.337c0-22.613-18.351-41.149-41.15-41.149-15.57 0-29.471 8.527-36.515 22.428l-33.179 56.719c12.048-11.121 27.989-17.608 45.042-17.608Z"/><path fill="#222" d="M60.611 208.906h-.926v-1.298l1.853-1.853v3.151h-.926Z"/><path fill="#444" d="m220.204 114.928.556 16.868c5.932-10.751 16.312-18.536 28.73-21.131l-3.521-5.931c-2.225-4.449-7.785-6.858-13.161-6.117-11.492 1.483-12.604 8.712-12.604 16.311Z"/><path fill="#222" d="m219.648 136.801-.927-21.872c0-7.785 1.112-16.126 14.087-17.609 6.117-.741 12.048 2.039 14.458 6.858l4.448 7.6-1.853.371c-11.863 2.409-21.872 9.823-27.804 20.389l-2.409 4.263Zm2.039-21.872.556 12.233c6.117-8.711 15.014-14.828 25.394-17.423l-2.41-4.263c-2.039-3.893-6.673-6.117-11.678-5.561-10.936 1.483-11.862 7.6-11.862 15.014Z"/><path fill="#FF3158" d="M282.669 302.881c35.522 0 64.319-28.797 64.319-64.319 0-35.522-28.797-64.319-64.319-64.319-35.522 0-64.319 28.797-64.319 64.319 0 35.522 28.797 64.319 64.319 64.319Z"/><path fill="#222" d="M282.669 304.364c-36.33 0-65.802-29.472-65.802-65.802 0-36.33 29.472-65.801 65.802-65.801 36.33 0 65.802 29.471 65.802 65.801s-29.472 65.802-65.802 65.802Zm0-128.638c-34.662 0-63.021 28.175-63.021 63.022 0 34.847 28.174 63.021 63.021 63.021 34.662 0 63.021-28.174 63.021-63.021s-28.359-63.022-63.021-63.022Z"/><path fill="#fff" d="M282.669 282.306c24.159 0 43.744-19.585 43.744-43.744 0-24.16-19.585-43.745-43.744-43.745s-43.744 19.585-43.744 43.745c0 24.159 19.585 43.744 43.744 43.744Z"/><path fill="#222" d="M282.669 283.789c-24.838 0-45.227-20.204-45.227-45.227 0-25.023 20.204-45.227 45.227-45.227 25.023 0 45.227 20.204 45.227 45.227 0 25.023-20.204 45.227-45.227 45.227Zm0-87.488c-23.355 0-42.447 19.091-42.447 42.446 0 23.355 19.092 42.447 42.447 42.447 23.355 0 42.447-19.092 42.447-42.447 0-23.355-19.092-42.446-42.447-42.446ZM340.686 209.462h-2.78v-4.448l2.78 2.409v2.039Z"/><path fill="#DADADA" d="M215.57 152.372a42.323 42.323 0 0 1 42.447-42.447c16.497 0 30.769 9.453 37.813 23.169l43.373 74.699c-10.936-20.018-32.067-33.549-56.534-33.549-35.588 0-64.318 28.73-64.318 64.318l-2.781-84.152h.186c0-.741-.186-1.297-.186-2.038Z"/><path fill="#222" d="m217.053 238.563-2.78-85.635v-.556c0-24.096 19.647-43.93 43.929-43.93 16.497 0 31.511 9.268 39.11 23.911l41.706 71.733c.556.927 1.112 2.039 1.668 2.966l-2.41 1.298-1.668-2.966c-11.492-18.536-31.696-30.028-53.568-30.028-34.662 0-63.021 28.174-63.021 63.022l-2.966.185Zm0-82.855 2.224 65.802c7.6-27.989 33.179-48.749 63.578-48.749 16.867 0 32.993 6.488 44.856 17.794l-32.994-56.719c-7.043-13.901-21.13-22.428-36.515-22.428-22.613 0-41.149 18.35-41.149 41.149v3.151Z"/><path fill="#222" d="M340.315 208.906h-1.853v-2.966l1.853 1.669v1.297ZM217.609 210.574h-35.033v2.781h35.033v-2.781ZM217.609 200.936h-35.033v2.78h35.033v-2.78ZM217.609 164.235h-35.033v2.781h35.033v-2.781Z"/></svg>