<svg xmlns="http://www.w3.org/2000/svg" width="400" height="400" fill="none" viewBox="0 0 400 400"><path fill="#F5F4F3" d="M310.494 299.214H36.985l-5.547-3.329V88.765c0-2.034 1.664-3.883 3.883-3.883h263.708c2.034 0 4.253.555 5.918 1.664l2.034 1.295c2.219 1.48 3.698 3.883 3.698 6.657l-.185 204.716Z"/><path fill="#222" d="M310.494 300.508H36.985c-.185 0-.554 0-.74-.185l-5.547-3.328c-.37-.185-.74-.74-.74-1.11V88.765c0-2.773 2.404-5.178 5.178-5.178h263.708c2.404 0 4.623.74 6.657 1.85l2.034 1.294c2.774 1.665 4.254 4.623 4.254 7.767v204.716c0 .37-.185.74-.37.924-.185.185-.555.37-.925.37Zm-273.139-2.774H309.2V94.314c0-2.22-1.11-4.254-2.959-5.364l-2.034-1.294c-1.665-.925-3.329-1.48-5.363-1.48H35.321c-1.295 0-2.404 1.11-2.404 2.404v206.38l4.438 2.774Z"/><path fill="#fff" d="M41.054 90.06h265.742c2.219 0 3.883 1.85 3.883 3.884v205.085H36.985V93.944c0-2.035 1.85-3.884 4.069-3.884Z"/><path fill="#222" d="M310.494 300.509H36.985c-.74 0-1.48-.555-1.48-1.48v-204.9a5.367 5.367 0 0 1 5.364-5.363H306.61a5.367 5.367 0 0 1 5.363 5.363v205.085c0 .74-.555 1.295-1.48 1.295Zm-272.03-2.774H309.2V94.129c0-1.48-1.11-2.59-2.589-2.59H41.054c-1.48 0-2.59 1.11-2.59 2.59v203.606Z"/><path fill="#FF3158" d="M53.26 112.806a5.917 5.917 0 1 0 0-11.835 5.917 5.917 0 0 0 0 11.835Z"/><path fill="#222" d="M53.26 114.101c-4.07 0-7.213-3.144-7.213-7.213 0-4.068 3.144-7.212 7.212-7.212 4.069 0 7.212 3.144 7.212 7.212 0 4.069-3.143 7.213-7.212 7.213Zm0-11.651c-2.405 0-4.44 2.034-4.44 4.438 0 2.405 2.035 4.439 4.44 4.439 2.403 0 4.437-2.034 4.437-4.439 0-2.404-1.849-4.438-4.438-4.438Z"/><path fill="#fff" d="M70.643 112.806a5.917 5.917 0 1 0 0-11.835 5.917 5.917 0 0 0 0 11.835Z"/><path fill="#222" d="M70.643 114.101c-4.069 0-7.212-3.144-7.212-7.213 0-4.068 3.143-7.212 7.212-7.212 4.068 0 7.212 3.144 7.212 7.212 0 4.069-3.144 7.213-7.212 7.213Zm0-11.651c-2.404 0-4.438 2.034-4.438 4.438 0 2.405 2.034 4.439 4.438 4.439s4.438-2.034 4.438-4.439c0-2.404-1.85-4.438-4.438-4.438Z"/><path fill="#fff" d="M88.026 112.806a5.917 5.917 0 1 0 0-11.835 5.917 5.917 0 0 0 0 11.835Z"/><path fill="#222" d="M88.026 114.101c-4.069 0-7.212-3.144-7.212-7.213 0-4.068 3.143-7.212 7.212-7.212 4.068 0 7.212 3.144 7.212 7.212 0 4.069-3.144 7.213-7.212 7.213Zm0-11.651c-2.404 0-4.439 2.034-4.439 4.438 0 2.405 2.035 4.439 4.439 4.439s4.438-2.034 4.438-4.439c0-2.404-1.85-4.438-4.438-4.438ZM128.896 201.202H49.191v-66.944h79.705v66.944Zm-76.93-2.774h74.156v-61.396H51.965v61.396ZM213.777 201.202h-79.704v-66.944h79.704v66.944Zm-76.93-2.774h74.156v-61.396h-74.156v61.396ZM299.214 201.202H219.51v-66.944h79.704v66.944Zm-76.745-2.774h74.156v-61.396h-74.156v61.396Z"/><path fill="#F5F4F3" d="M130.929 132.224h-76.93v64.17h76.93v-64.17ZM215.811 132.224h-76.93v64.17h76.93v-64.17ZM301.249 132.224h-76.931v64.17h76.931v-64.17Z"/><path fill="#222" d="M128.896 274.988H49.191v-66.944h79.705v66.944Zm-76.93-2.773h74.156v-61.397H51.965v61.397ZM213.777 274.988h-79.704v-66.944h79.704v66.944Zm-76.93-2.773h74.156v-61.397h-74.156v61.397ZM299.214 274.988H219.51v-66.944h79.704v66.944Zm-76.745-2.773h74.156v-61.397h-74.156v61.397Z"/><path fill="#444" d="M127.231 209.339h-76.93v64.17h76.93v-64.17ZM212.297 209.339h-76.93v64.17h76.93v-64.17ZM297.735 209.339h-76.93v64.17h76.93v-64.17Z"/><path fill="#222" d="M128.896 274.988H49.191v-66.944h79.705v66.944Zm-76.93-2.773h74.156v-61.397H51.965v61.397ZM213.777 274.988h-79.704v-66.944h79.704v66.944Zm-76.93-2.773h74.156v-61.397h-74.156v61.397ZM299.214 274.988H219.51v-66.944h79.704v66.944Zm-76.745-2.773h74.156v-61.397h-74.156v61.397ZM128.896 201.202H49.191v-66.944h79.705v66.944Zm-76.93-2.774h74.156v-61.396H51.965v61.396ZM213.777 201.202h-79.704v-66.944h79.704v66.944Zm-76.93-2.774h74.156v-61.396h-74.156v61.396ZM299.214 201.202H219.51v-66.944h79.704v66.944Zm-76.745-2.774h74.156v-61.396h-74.156v61.396Z"/><path fill="#FF3158" d="m92.464 154.045 7.397 36.246 7.767-10.725 13.315-2.589-28.48-22.932Z"/><path fill="#222" d="M99.861 191.586h-.37a1.668 1.668 0 0 1-1.11-1.11l-7.396-36.246c-.185-.554.185-1.109.555-1.479.554-.37 1.11-.185 1.664.185l28.664 22.931c.37.37.555.925.555 1.479a1.668 1.668 0 0 1-1.11 1.11l-12.76 2.404-7.582 10.356c-.185.185-.74.37-1.11.37Zm-5.363-34.027 6.103 29.404 6.103-8.137c.185-.37.554-.555.924-.555l10.356-2.034-23.486-18.678Z"/><path fill="#DADADA" d="m247.434 198.058-.924 28.664h25.89l-1.11-28.294-23.856-.37Z"/><path fill="#F5F4F3" d="M246.51 227.462v6.103h25.89l-.37-6.103h-25.52Z"/><path fill="#444" d="m243.735 159.038-.554 12.945c-4.624-8.322-12.76-14.24-22.192-16.274l2.589-4.623c1.85-3.514 5.918-5.363 10.171-4.808 9.247 1.294 9.986 7.027 9.986 12.76Z"/><path fill="#222" d="m244.475 177.161-2.404-4.253c-4.438-8.137-12.205-13.685-21.267-15.534l-1.849-.37 3.699-6.288c2.034-3.698 6.657-6.102 11.465-5.363 11.281 1.295 11.281 9.617 11.281 14.055l-.925 17.753Zm-21.267-22.191c7.582 2.034 14.24 6.472 18.863 12.76l.37-8.692c0-5.548-.74-10.171-8.692-11.28-3.698-.37-7.212 1.109-8.691 4.068l-1.85 3.144Z"/><path fill="#FF3158" d="M195.469 304.577c27.474 0 49.746-22.272 49.746-49.746 0-27.474-22.272-49.746-49.746-49.746-27.473 0-49.745 22.272-49.745 49.746 0 27.474 22.272 49.746 49.745 49.746Z"/><path fill="#222" d="M195.469 305.871c-28.294 0-51.225-22.931-51.225-51.04 0-28.109 22.931-51.225 51.225-51.225s51.225 22.931 51.225 51.225-22.931 51.04-51.225 51.04Zm0-99.491c-26.629 0-48.451 21.637-48.451 48.451 0 26.815 21.637 48.451 48.451 48.451 26.815 0 48.452-21.636 48.452-48.451 0-26.814-21.822-48.451-48.452-48.451Z"/><path fill="#fff" d="M195.469 288.674c18.69 0 33.842-15.152 33.842-33.842 0-18.691-15.152-33.842-33.842-33.842-18.691 0-33.842 15.151-33.842 33.842 0 18.69 15.151 33.842 33.842 33.842Z"/><path fill="#222" d="M195.469 289.968c-19.418 0-35.322-15.904-35.322-35.321 0-19.418 15.904-35.322 35.322-35.322 19.417 0 35.321 15.719 35.321 35.322 0 19.602-15.904 35.321-35.321 35.321Zm0-67.684c-17.938 0-32.548 14.609-32.548 32.547 0 17.938 14.61 32.548 32.548 32.548 17.938 0 32.547-14.61 32.547-32.548 0-17.938-14.609-32.547-32.547-32.547ZM150.347 231.161v-.185h2.774l-2.774.185Z"/><path fill="#DADADA" d="M247.434 188.072c0-18.123-14.609-32.917-32.917-32.917-12.76 0-23.856 7.212-29.219 17.938l-33.472 57.882c8.507-15.534 24.781-25.89 43.643-25.89 27.555 0 49.746 22.377 49.746 49.746l2.034-65.095c0-.739.185-1.109.185-1.664Z"/><path fill="#222" d="M246.694 254.831h-2.774c0-26.63-21.637-48.451-48.451-48.451-16.829 0-32.363 8.692-41.239 22.931l-1.295 2.219-2.404-1.294c.37-.74.925-1.48 1.295-2.404l32.177-55.479c5.918-11.466 17.568-18.678 30.513-18.678 18.678 0 33.842 14.979 34.212 33.657V189.366l-2.034 65.465Zm-51.225-51.225c22.931 0 42.348 15.164 48.821 36.061l1.664-48.636v-3.144c0-17.383-14.054-31.438-31.438-31.438-11.835 0-22.561 6.658-27.924 17.199l-24.595 42.348c9.246-7.767 20.897-12.39 33.472-12.39Z"/><path fill="#222" d="M150.347 231.161v-.185h2.774l-2.774.185Z"/><path fill="#444" d="m275.174 159.038.555 12.945c4.623-8.321 12.76-14.239 22.191-16.273l-2.589-4.624c-1.849-3.513-5.918-5.362-10.171-4.808-9.246 1.295-9.986 7.028-9.986 12.76Z"/><path fill="#222" d="m274.434 177.161-.74-18.123c0-4.438 0-12.575 11.281-14.054 4.808-.555 9.616 1.664 11.466 5.548l3.513 6.102-1.849.37c-9.062 1.849-16.829 7.582-21.267 15.534l-2.404 4.623Zm2.034-18.123.37 8.692c4.623-6.288 11.281-10.726 18.863-12.76l-1.665-2.959c-1.479-2.959-4.993-4.623-8.691-4.068-8.137.924-8.877 5.547-8.877 11.095Z"/><path fill="#FF3158" d="M323.44 304.577c27.474 0 49.746-22.272 49.746-49.745 0-27.474-22.272-49.746-49.746-49.746-27.474 0-49.746 22.272-49.746 49.746 0 27.473 22.272 49.745 49.746 49.745Z"/><path fill="#222" d="M323.44 305.872c-28.294 0-51.225-22.931-51.225-51.225 0-28.295 22.931-51.226 51.225-51.226s51.225 22.931 51.225 51.226c0 28.294-23.116 51.225-51.225 51.225Zm0-99.492c-26.63 0-48.451 21.637-48.451 48.451 0 26.815 21.636 48.452 48.451 48.452s48.451-21.637 48.451-48.452c0-26.814-21.821-48.451-48.451-48.451Z"/><path fill="#fff" d="M323.44 288.674c18.69 0 33.841-15.152 33.841-33.842 0-18.691-15.151-33.842-33.841-33.842-18.691 0-33.842 15.151-33.842 33.842 0 18.69 15.151 33.842 33.842 33.842Z"/><path fill="#222" d="M323.439 289.968c-19.417 0-35.321-15.904-35.321-35.321 0-19.418 15.719-35.322 35.321-35.322a35.2 35.2 0 0 1 35.322 35.322c0 19.602-15.904 35.321-35.322 35.321Zm0-67.684c-17.938 0-32.547 14.609-32.547 32.547 0 17.938 14.609 32.548 32.547 32.548 17.939 0 32.548-14.61 32.548-32.548 0-17.938-14.609-32.547-32.548-32.547ZM365.788 231.161v-.185h2.774l-2.774.185Z"/><path fill="#DADADA" d="M271.475 188.072c0-18.123 14.609-32.917 32.917-32.917 12.76 0 23.856 7.212 29.219 17.938l33.472 57.882c-8.507-15.534-24.781-25.89-43.644-25.89-27.554 0-49.745 22.377-49.745 49.746l-2.034-65.095c-.185-.739-.185-1.109-.185-1.664Z"/><path fill="#222" d="m272.214 254.831-2.219-66.574v-.74c.37-18.677 15.534-33.657 34.212-33.657 12.945 0 24.595 7.213 30.513 18.678l32.178 55.479c.554.739.924 1.479 1.294 2.404l-2.404 1.294-1.294-2.219c-8.877-14.239-24.411-22.931-41.24-22.931-26.629 0-48.451 21.637-48.451 48.451l-2.589-.185Zm.74-63.8 1.664 48.636c6.473-20.897 25.89-36.061 48.821-36.061 12.576 0 24.411 4.623 33.472 12.39l-24.595-42.163c-5.363-10.726-16.274-17.199-28.109-17.199-17.383 0-31.438 14.055-31.438 31.438v1.48l.185 1.479Z"/><path fill="#222" d="M365.788 231.161v-.185h2.774l-2.774.185ZM272.955 232.825h-27v2.774h27v-2.774ZM272.955 225.243h-27v2.774h27v-2.774ZM272.955 196.949h-27v2.774h27v-2.774Z"/></svg>