<svg xmlns="http://www.w3.org/2000/svg" width="400" height="401" fill="none" viewBox="0 0 400 401"><path fill="#444" d="M310.494 299.964H36.985l-5.547-3.328V89.516c0-2.034 1.664-3.884 3.883-3.884H299.03c2.034 0 4.253.555 5.918 1.665l2.034 1.294c2.219 1.48 3.698 3.884 3.698 6.658l-.185 204.715Z"/><path fill="#222" d="M310.494 301.259H36.985c-.184 0-.554 0-.74-.185l-5.547-3.329c-.37-.185-.74-.74-.74-1.109V89.516c0-2.774 2.404-5.178 5.178-5.178h263.708c2.404 0 4.623.74 6.657 1.85l2.035 1.294c2.774 1.664 4.253 4.623 4.253 7.767v204.715c0 .37-.185.74-.37.925-.185.185-.555.37-.925.37Zm-273.139-2.774H309.2V95.064c0-2.22-1.11-4.254-2.959-5.363l-2.034-1.295c-1.664-.924-3.329-1.48-5.363-1.48H35.321c-1.294 0-2.404 1.11-2.404 2.405v206.38l4.438 2.774Z"/><path fill="#fff" d="M41.054 90.81h265.742c2.219 0 3.883 1.85 3.883 3.884V299.78H36.986V94.694c0-2.034 1.849-3.883 4.068-3.883Z"/><path fill="#222" d="M310.494 301.259H36.985c-.74 0-1.479-.555-1.479-1.48v-204.9a5.367 5.367 0 0 1 5.363-5.363h265.742a5.367 5.367 0 0 1 5.363 5.363v205.085c0 .74-.555 1.295-1.48 1.295Zm-272.03-2.774H309.2V94.879c0-1.48-1.11-2.59-2.589-2.59H41.054c-1.48 0-2.59 1.11-2.59 2.59v203.606Z"/><path fill="#FF3158" d="M53.259 113.557a5.918 5.918 0 1 0 0-11.836 5.918 5.918 0 0 0 0 11.836Z"/><path fill="#222" d="M53.26 114.851c-4.07 0-7.213-3.144-7.213-7.213 0-4.068 3.144-7.212 7.212-7.212 4.069 0 7.212 3.144 7.212 7.212 0 4.069-3.143 7.213-7.212 7.213Zm0-11.651c-2.405 0-4.44 2.034-4.44 4.438 0 2.405 2.035 4.439 4.44 4.439 2.403 0 4.437-2.034 4.437-4.439 0-2.404-1.849-4.438-4.438-4.438Z"/><path fill="#fff" d="M70.642 113.557a5.918 5.918 0 1 0 0-11.836 5.918 5.918 0 0 0 0 11.836Z"/><path fill="#222" d="M70.643 114.851c-4.069 0-7.213-3.144-7.213-7.213 0-4.068 3.144-7.212 7.213-7.212 4.068 0 7.212 3.144 7.212 7.212 0 4.069-3.144 7.213-7.212 7.213Zm0-11.651c-2.404 0-4.439 2.034-4.439 4.438 0 2.405 2.035 4.439 4.439 4.439s4.438-2.034 4.438-4.439c0-2.404-1.85-4.438-4.438-4.438Z"/><path fill="#fff" d="M88.025 113.557a5.918 5.918 0 1 0 0-11.836 5.918 5.918 0 0 0 0 11.836Z"/><path fill="#222" d="M88.026 114.851c-4.069 0-7.212-3.144-7.212-7.213 0-4.068 3.143-7.212 7.212-7.212 4.068 0 7.212 3.144 7.212 7.212 0 4.069-3.144 7.213-7.212 7.213Zm0-11.651c-2.404 0-4.439 2.034-4.439 4.438 0 2.405 2.035 4.439 4.439 4.439s4.438-2.034 4.438-4.439c0-2.404-1.85-4.438-4.438-4.438ZM128.895 201.952H49.191v-66.944h79.704v66.944Zm-76.93-2.774h74.156v-61.396H51.965v61.396ZM213.777 201.952h-79.704v-66.944h79.704v66.944Zm-76.93-2.774h74.156v-61.396h-74.156v61.396ZM299.214 201.952H219.51v-66.944h79.704v66.944Zm-76.745-2.774h74.156v-61.396h-74.156v61.396Z"/><path fill="#F5F4F3" d="M130.929 132.974h-76.93v64.17h76.93v-64.17ZM215.811 132.974h-76.93v64.17h76.93v-64.17ZM301.248 132.974h-76.93v64.17h76.93v-64.17Z"/><path fill="#222" d="M128.895 275.738H49.191v-66.944h79.704v66.944Zm-76.93-2.773h74.156v-61.397H51.965v61.397ZM213.777 275.738h-79.704v-66.944h79.704v66.944Zm-76.93-2.773h74.156v-61.397h-74.156v61.397ZM299.214 275.738H219.51v-66.944h79.704v66.944Zm-76.745-2.773h74.156v-61.397h-74.156v61.397Z"/><path fill="#444" d="M127.23 210.089H50.3v64.17h76.93v-64.17ZM212.298 210.089h-76.931v64.17h76.931v-64.17ZM297.734 210.089h-76.93v64.17h76.93v-64.17Z"/><path fill="#222" d="M128.895 275.738H49.191v-66.944h79.704v66.944Zm-76.93-2.773h74.156v-61.397H51.965v61.397ZM213.777 275.738h-79.704v-66.944h79.704v66.944Zm-76.93-2.773h74.156v-61.397h-74.156v61.397ZM299.214 275.738H219.51v-66.944h79.704v66.944Zm-76.745-2.773h74.156v-61.397h-74.156v61.397ZM128.895 201.952H49.191v-66.944h79.704v66.944Zm-76.93-2.774h74.156v-61.396H51.965v61.396ZM213.777 201.952h-79.704v-66.944h79.704v66.944Zm-76.93-2.774h74.156v-61.396h-74.156v61.396ZM299.214 201.952H219.51v-66.944h79.704v66.944Zm-76.745-2.774h74.156v-61.396h-74.156v61.396Z"/><path fill="#FF3158" d="m92.464 154.796 7.397 36.246 7.767-10.726 13.315-2.589-28.479-22.931Z"/><path fill="#222" d="M99.861 192.336h-.37a1.666 1.666 0 0 1-1.11-1.109l-7.397-36.246c-.184-.555.185-1.11.555-1.48.555-.369 1.11-.185 1.665.185l28.664 22.931c.369.37.554.925.554 1.48a1.663 1.663 0 0 1-1.109 1.109l-12.76 2.405-7.582 10.356c-.185.184-.74.369-1.11.369Zm-5.363-34.026 6.103 29.403 6.102-8.137c.185-.37.555-.554.925-.554l10.356-2.035-23.486-18.677Z"/><path fill="#DADADA" d="m247.434 198.809-.925 28.663h25.89l-1.109-28.294-23.856-.369Z"/><path fill="#F5F4F3" d="M246.509 228.212v6.103h25.89l-.369-6.103h-25.521Z"/><path fill="#444" d="m243.735 159.788-.554 12.945c-4.624-8.322-12.76-14.24-22.192-16.274l2.589-4.623c1.849-3.514 5.918-5.363 10.171-4.808 9.247 1.294 9.986 7.027 9.986 12.76Z"/><path fill="#222" d="m244.475 177.912-2.404-4.254c-4.438-8.137-12.205-13.684-21.267-15.534l-1.849-.37 3.698-6.287c2.035-3.699 6.658-6.103 11.466-5.363 11.281 1.294 11.281 9.616 11.281 14.054l-.925 17.754Zm-21.267-22.192c7.582 2.034 14.24 6.473 18.863 12.76l.37-8.691c0-5.548-.74-10.171-8.692-11.281-3.698-.37-7.212 1.11-8.692 4.068l-1.849 3.144Z"/><path fill="#FF3158" d="M195.469 305.327c27.474 0 49.746-22.272 49.746-49.746 0-27.474-22.272-49.746-49.746-49.746-27.474 0-49.745 22.272-49.745 49.746 0 27.474 22.271 49.746 49.745 49.746Z"/><path fill="#222" d="M195.469 306.622c-28.294 0-51.225-22.931-51.225-51.04 0-28.11 22.931-51.226 51.225-51.226s51.225 22.932 51.225 51.226-22.931 51.04-51.225 51.04Zm0-99.492c-26.63 0-48.451 21.637-48.451 48.452 0 26.814 21.637 48.451 48.451 48.451 26.815 0 48.451-21.637 48.451-48.451 0-26.815-21.821-48.452-48.451-48.452Z"/><path fill="#fff" d="M195.469 289.423c18.691 0 33.842-15.151 33.842-33.842 0-18.69-15.151-33.842-33.842-33.842-18.69 0-33.842 15.152-33.842 33.842 0 18.691 15.152 33.842 33.842 33.842Z"/><path fill="#222" d="M195.469 290.718c-19.417 0-35.321-15.904-35.321-35.321 0-19.418 15.904-35.322 35.321-35.322 19.418 0 35.322 15.719 35.322 35.322 0 19.602-15.904 35.321-35.322 35.321Zm0-67.684c-17.938 0-32.547 14.609-32.547 32.547 0 17.938 14.609 32.548 32.547 32.548 17.938 0 32.548-14.61 32.548-32.548 0-17.938-14.61-32.547-32.548-32.547ZM150.347 231.91v-.185h2.774l-2.774.185Z"/><path fill="#DADADA" d="M247.434 188.822c0-18.123-14.61-32.917-32.917-32.917-12.76 0-23.856 7.212-29.219 17.938l-33.472 57.882c8.507-15.534 24.78-25.89 43.643-25.89 27.554 0 49.746 22.377 49.746 49.746l2.034-65.095c0-.739.185-1.109.185-1.664Z"/><path fill="#222" d="M246.694 255.582h-2.774c0-26.63-21.636-48.452-48.451-48.452-16.829 0-32.362 8.692-41.239 22.931l-1.295 2.22-2.404-1.295c.37-.74.925-1.479 1.295-2.404l32.177-55.478c5.918-11.466 17.569-18.678 30.514-18.678 18.677 0 33.841 14.979 34.211 33.657v2.034l-2.034 65.465Zm-51.225-51.226c22.931 0 42.349 15.165 48.821 36.061l1.664-48.636V188.638c0-17.384-14.054-31.438-31.437-31.438-11.836 0-22.562 6.657-27.925 17.198l-24.595 42.349c9.246-7.767 20.897-12.391 33.472-12.391Z"/><path fill="#222" d="M150.347 231.91v-.185h2.774l-2.774.185Z"/><path fill="#444" d="m275.173 159.788.555 12.945c4.623-8.322 12.76-14.24 22.192-16.274l-2.589-4.623c-1.85-3.514-5.918-5.363-10.172-4.808-9.246 1.294-9.986 7.027-9.986 12.76Z"/><path fill="#222" d="m274.434 177.911-.74-18.123c0-4.438 0-12.575 11.28-14.054 4.809-.555 9.617 1.664 11.466 5.548l3.514 6.102-1.85.37c-9.061 1.849-16.828 7.582-21.266 15.534l-2.404 4.623Zm2.034-18.123.37 8.692c4.623-6.288 11.28-10.726 18.862-12.76l-1.664-2.959c-1.479-2.959-4.993-4.623-8.692-4.068-8.137.924-8.876 5.547-8.876 11.095Z"/><path fill="#FF3158" d="M323.44 305.327c27.473 0 49.745-22.272 49.745-49.746 0-27.474-22.272-49.746-49.745-49.746-27.474 0-49.746 22.272-49.746 49.746 0 27.474 22.272 49.746 49.746 49.746Z"/><path fill="#222" d="M323.439 306.622c-28.294 0-51.225-22.931-51.225-51.225 0-28.295 22.931-51.226 51.225-51.226 28.295 0 51.226 22.931 51.226 51.226 0 28.294-23.116 51.225-51.226 51.225Zm0-99.492c-26.629 0-48.451 21.637-48.451 48.451 0 26.815 21.637 48.452 48.451 48.452 26.815 0 48.452-21.637 48.452-48.452 0-26.814-21.822-48.451-48.452-48.451Z"/><path fill="#fff" d="M323.44 289.423c18.69 0 33.842-15.151 33.842-33.842 0-18.69-15.152-33.842-33.842-33.842-18.691 0-33.842 15.152-33.842 33.842 0 18.691 15.151 33.842 33.842 33.842Z"/><path fill="#222" d="M323.44 290.718c-19.418 0-35.322-15.904-35.322-35.321 0-19.418 15.719-35.322 35.322-35.322a35.2 35.2 0 0 1 35.321 35.322c0 19.602-15.904 35.321-35.321 35.321Zm0-67.684c-17.938 0-32.548 14.609-32.548 32.547 0 17.938 14.61 32.548 32.548 32.548 17.938 0 32.547-14.61 32.547-32.548 0-17.938-14.609-32.547-32.547-32.547ZM365.788 231.91v-.185h2.774l-2.774.185Z"/><path fill="#DADADA" d="M271.475 188.823c0-18.123 14.609-32.917 32.917-32.917 12.76 0 23.856 7.212 29.219 17.938l33.472 57.882c-8.507-15.534-24.781-25.89-43.643-25.89-27.555 0-49.746 22.377-49.746 49.746l-2.034-65.095c-.185-.739-.185-1.109-.185-1.664Z"/><path fill="#222" d="m272.214 255.582-2.219-66.574v-.74c.37-18.678 15.534-33.657 34.212-33.657 12.945 0 24.595 7.212 30.513 18.678l32.178 55.478c.554.74.924 1.48 1.294 2.404l-2.404 1.295-1.294-2.219c-8.877-14.24-24.411-22.932-41.239-22.932-26.63 0-48.452 21.637-48.452 48.452l-2.589-.185Zm.74-63.801 1.664 48.637c6.473-20.897 25.89-36.061 48.822-36.061 12.575 0 24.41 4.623 33.472 12.39l-24.596-42.164c-5.363-10.726-16.274-17.198-28.109-17.198-17.383 0-31.438 14.054-31.438 31.438v1.479l.185 1.479Z"/><path fill="#222" d="M365.788 231.91v-.185h2.774l-2.774.185ZM272.954 233.575h-26.999v2.774h26.999v-2.774ZM272.954 225.992h-26.999v2.774h26.999v-2.774ZM272.954 197.699h-26.999v2.774h26.999v-2.774Z"/></svg>