<svg xmlns="http://www.w3.org/2000/svg" width="400" height="401" fill="none" viewBox="0 0 400 401"><path fill="#fff" d="M199.61 230.221h-65.465v-97.07l65.465-35.155v132.225ZM218.925 230.221h-84.78v97.07h84.78v-97.07Z"/><path fill="#fff" d="M199.555 97.996v132.225h104.99v-97.07l-104.99-35.155Z"/><path fill="#DADADA" d="M272.64 113.327v73.365h-66.25V91.137l66.25 22.19ZM196.705 151.586v35.105h-19.37v-53.435l19.37 18.33ZM187.02 223.352h-46.025v60.43h46.025v-60.43ZM167.65 111.971v74.72h-26.655v-60.41l26.655-14.31ZM216.035 249.551v35.1h-19.37v-53.43l19.37 18.33Z" style="mix-blend-mode:multiply"/><path fill="#222" d="M304.545 231.607h-104.99a1.38 1.38 0 0 1-1.38-1.38V97.997a1.381 1.381 0 0 1 1.82-1.31l104.99 35.15c.565.19.945.715.945 1.31v97.075c0 .765-.62 1.38-1.38 1.38l-.005.005Zm-103.605-2.765h102.225v-94.695L200.94 99.922v128.92Z"/><path fill="#fff" d="M304.545 230.222H218.93v97.07h85.615v-97.07Z"/><path fill="#222" d="M304.545 328.677H218.93a1.38 1.38 0 0 1-1.38-1.385v-97.07c0-.765.62-1.38 1.38-1.38h85.615c.765 0 1.38.62 1.38 1.38v97.07c0 .765-.62 1.385-1.38 1.385Zm-84.235-2.765h82.85v-94.305h-82.85v94.305Z"/><path fill="#FF3158" d="M304.6 230.377H199.61v-36.66h66.255l38.735 36.66ZM276.565 285.242v40.82H247.04v-40.82c0-8.94 6.59-16.155 14.765-16.155s14.765 7.21 14.765 16.155h-.005ZM209.295 318.302l9.685 9.165h-84.765v-36.66h46.03l9.68 9.165 19.37 18.33ZM189.925 221.212v-27.495H170.56v9.165l-9.685-9.165h-26.66v36.66h65.395l-9.685-9.165Z"/><path fill="#222" d="M218.93 328.677h-84.78a1.38 1.38 0 0 1-1.38-1.385v-97.07c0-.765.62-1.38 1.38-1.38h84.78c.765 0 1.38.62 1.38 1.38v97.07c0 .765-.62 1.385-1.38 1.385Zm-83.4-2.765h82.02v-94.305h-82.02v94.305Z"/><path fill="#222" d="M199.555 231.606h-65.41a1.38 1.38 0 0 1-1.38-1.38v-97.07c0-.51.28-.975.73-1.22l65.41-35.15a1.384 1.384 0 0 1 2.04 1.215v132.22c0 .765-.62 1.38-1.38 1.38l-.01.005Zm-64.025-2.765h62.645v-128.53l-62.645 33.665v94.865ZM276.5 328.676a1.38 1.38 0 0 1-1.38-1.385v-42.335c0-8.085-6.005-14.66-13.38-14.66-7.375 0-13.38 6.575-13.38 14.66v42.335c0 .765-.62 1.385-1.38 1.385-.76 0-1.38-.62-1.38-1.385v-42.335c0-9.61 7.245-17.425 16.145-17.425 8.9 0 16.145 7.815 16.145 17.425v42.335c0 .765-.62 1.385-1.38 1.385h-.01ZM209.24 292.016h-19.375a1.38 1.38 0 0 1-1.38-1.385c0-.765.62-1.385 1.38-1.385h19.375c.765 0 1.38.62 1.38 1.385s-.62 1.385-1.38 1.385Z"/><path fill="#222" d="M209.24 319.537a1.38 1.38 0 0 1-1.38-1.385v-61.295l-16.61-15.715v58.63c0 .765-.62 1.385-1.38 1.385-.76 0-1.38-.62-1.38-1.385v-61.845c0-.55.33-1.05.835-1.27a1.374 1.374 0 0 1 1.495.265l19.375 18.33c.275.26.43.625.43 1.005v61.89c0 .765-.62 1.385-1.38 1.385l-.005.005ZM180.185 292.017a1.38 1.38 0 0 1-1.38-1.385v-60.41a1.38 1.38 0 1 1 2.76 0v60.41c0 .765-.62 1.385-1.38 1.385Z"/><path fill="#222" d="M218.93 328.677c-.34 0-.685-.125-.95-.38l-38.345-36.285H134.15a1.38 1.38 0 0 1-1.38-1.385c0-.765.62-1.385 1.38-1.385h46.035c.355 0 .695.135.95.38l38.745 36.665c.555.525.58 1.4.055 1.955-.27.285-.64.43-1.005.43v.005ZM304.545 231.607h-170.4a1.38 1.38 0 1 1 0-2.76H301.07l-35.825-33.9h-65.69a1.38 1.38 0 1 1 0-2.76h66.24c.355 0 .695.135.95.38l38.745 36.66c.41.39.545.99.335 1.515-.21.525-.72.87-1.285.87l.005-.005ZM160.81 194.942h-26.665a1.38 1.38 0 1 1 0-2.76h26.665a1.38 1.38 0 1 1 0 2.76ZM189.87 194.942h-19.375a1.38 1.38 0 1 1 0-2.76h19.375a1.38 1.38 0 1 1 0 2.76Z"/><path fill="#222" d="M265.8 194.942a1.38 1.38 0 0 1-1.38-1.38v-73.585a1.38 1.38 0 1 1 2.76 0v73.58c0 .765-.62 1.38-1.38 1.38v.005ZM160.81 61.387l-65.41 35.1 38.745 36.665 65.41-35.1-38.745-36.665Z"/><path fill="#222" d="M134.145 134.532c-.345 0-.69-.13-.95-.38L94.45 97.492a1.368 1.368 0 0 1-.42-1.185c.06-.44.325-.825.715-1.035l65.41-35.1a1.387 1.387 0 0 1 1.605.215l38.745 36.66c.325.305.48.745.42 1.185-.06.44-.325.825-.715 1.035l-65.41 35.1c-.205.11-.43.165-.655.165ZM97.74 96.797l36.63 34.66 62.84-33.725-36.63-34.66-62.84 33.725Z"/><path fill="#222" d="m265.8 96.537-104.99-35.15 38.745 36.61 104.99 35.155L265.8 96.537Z"/><path fill="#222" d="M304.545 134.532c-.145 0-.295-.025-.44-.07l-104.99-35.15a1.43 1.43 0 0 1-.51-.305l-38.745-36.61a1.382 1.382 0 0 1 1.39-2.315l104.99 35.15c.19.065.365.17.51.305l38.745 36.61a1.382 1.382 0 0 1-.95 2.385Zm-104.26-37.75 98.755 33.065-33.965-32.095-98.755-33.065 33.965 32.095ZM294.86 194.962c-.345 0-.69-.13-.95-.38l-19.375-18.33a1.384 1.384 0 0 1-.43-1.005v-35.12c0-.55.33-1.05.835-1.27a1.374 1.374 0 0 1 1.495.265l19.375 18.33c.275.26.43.625.43 1.005v35.12a1.39 1.39 0 0 1-1.38 1.385Zm-17.99-20.31 16.61 15.715v-31.315l-16.61-15.715v31.315Z"/><path fill="#222" d="M294.86 177.402c-.34 0-.685-.125-.95-.38l-19.375-18.33a1.383 1.383 0 1 1 1.9-2.01l19.375 18.33c.555.525.58 1.4.055 1.955-.27.285-.64.43-1.005.43v.005Z"/><path fill="#222" d="M285.17 185.797a1.38 1.38 0 0 1-1.38-1.38v-35.115a1.38 1.38 0 1 1 2.76 0v35.115c0 .765-.62 1.38-1.38 1.38ZM134.145 328.676a1.38 1.38 0 0 1-1.38-1.385v-194.14a1.38 1.38 0 1 1 2.76 0v194.145c0 .765-.62 1.385-1.38 1.385v-.005Z"/><path fill="#fff" d="M95.4 96.486v230.805h38.745v-194.14L95.4 96.486Z"/><path fill="#222" d="M134.145 328.676H95.4a1.38 1.38 0 0 1-1.38-1.385V96.486c0-.55.33-1.05.835-1.27a1.374 1.374 0 0 1 1.495.265l38.745 36.66c.275.26.43.625.43 1.005v194.145c0 .765-.62 1.385-1.38 1.385Zm-37.365-2.765h35.98V133.746L96.78 99.701v226.215-.005ZM199.555 231.607c-.34 0-.685-.125-.95-.38l-9.685-9.165a1.384 1.384 0 0 1-.43-1.005v-62l-16.61-15.715v59.385c0 .55-.33 1.05-.835 1.27-.51.22-1.095.115-1.495-.265l-9.685-9.165a1.384 1.384 0 0 1-.43-1.005v-74.795a1.38 1.38 0 1 1 2.76 0v74.2l6.92 6.55v-59.385c0-.55.33-1.05.835-1.27a1.374 1.374 0 0 1 1.495.265l19.375 18.33c.275.26.43.625.43 1.005v62l9.255 8.755c.555.525.58 1.4.055 1.955-.27.285-.64.43-1.005.43v.005ZM268.425 302.872a2.345 2.345 0 1 0 0-4.69 2.345 2.345 0 0 0 0 4.69Z"/></svg>