<svg xmlns="http://www.w3.org/2000/svg" width="400" height="401" fill="none" viewBox="0 0 400 401"><path fill="#fff" d="M196.111 234.569h-75.185V123.088l75.185-40.556V234.57Z"/><path fill="#fff" d="M218.333 234.569h-97.407V346.05h97.407V234.569Z"/><path fill="#fff" d="M196.111 82.532V234.57h120.556V123.088L196.111 82.532Z"/><path fill="#DADADA" d="M280 100.125v84.444h-76.111V74.754L280 100.125ZM192.778 144.199v40.37h-22.223v-61.482l22.223 21.112ZM181.667 226.606h-52.963v69.445h52.963v-69.445ZM159.444 98.643v85.926h-30.74v-69.444l30.74-16.482ZM215 256.791v40.371h-22.222V235.68L215 256.791Z"/><path fill="#fff" d="M316.667 234.754h-97.963v111.297h97.963V234.754Z"/><path fill="#FF3158" d="M284.444 297.532v48.519h-33.888v-48.519c0-10.185 7.592-18.333 17.037-18.333 9.444 0 16.851 8.148 16.851 18.333Z"/><path fill="#222" d="M316.667 235.865H196.111a1.265 1.265 0 0 1-1.296-1.296V82.717c0-.37.185-.926.555-1.11.371-.186.741-.371 1.297-.186l120.555 40.37c.556.185.926.741.926 1.297v111.481c0 .741-.741 1.296-1.481 1.296Zm-119.26-2.777H315.37v-109.26L197.407 84.384v148.704Z"/><path fill="#222" d="M316.667 347.532h-98.334a1.265 1.265 0 0 1-1.296-1.296V234.754c0-.74.555-1.296 1.296-1.296h98.334c.74 0 1.296.556 1.296 1.296v111.482c.185.555-.556 1.296-1.296 1.296Zm-97.037-2.778h95.555V235.865H219.63v108.889Z"/><path fill="#FF3158" d="M316.667 234.754H196.111v-42.222h76.111l44.445 42.222ZM207.222 335.68l11.111 10.556h-97.407v-42.037h52.963L185 314.754l22.222 20.926ZM185 224.199v-31.667h-22.222v10.556l-11.111-10.556h-30.741v42.222h75.185L185 224.199Z"/><path fill="#222" d="M218.333 347.532h-97.407a1.265 1.265 0 0 1-1.296-1.296V234.754c0-.74.555-1.296 1.296-1.296h97.407c.741 0 1.297.556 1.297 1.296v111.482c0 .555-.556 1.296-1.297 1.296Zm-96.111-2.778h94.63V235.865h-94.63v108.889Z"/><path fill="#222" d="M196.111 235.865h-75.185a1.265 1.265 0 0 1-1.296-1.296V122.902c0-.555.37-.926.74-1.296l75.185-40.37a1.583 1.583 0 0 1 1.297 0c.37.185.741.74.741 1.11V234.2c-.186 1.111-.741 1.666-1.482 1.666Zm-73.889-2.778h72.408V84.939l-72.408 38.889v109.259ZM284.444 347.532c-.74 0-1.296-.555-1.296-1.296v-48.704c0-9.444-7.037-17.037-15.556-17.037-8.518 0-15.555 7.593-15.555 17.037v48.704c0 .741-.556 1.296-1.296 1.296a1.266 1.266 0 0 1-1.297-1.296v-48.704c0-10.926 8.149-19.815 18.334-19.815s18.333 8.889 18.333 19.815v48.704c-.185.555-.926 1.296-1.667 1.296ZM207.222 305.31H185a1.266 1.266 0 0 1-1.296-1.296c0-.741.555-1.297 1.296-1.297h22.222c.741 0 1.296.556 1.296 1.297 0 .74-.555 1.296-1.296 1.296Z"/><path fill="#222" d="M207.222 336.976c-.74 0-1.296-.555-1.296-1.296v-70.556l-19.444-18.518v67.778c0 .74-.556 1.296-1.297 1.296a1.266 1.266 0 0 1-1.296-1.296v-71.112c0-.555.37-1.111.926-1.296.555-.185 1.111-.185 1.481.185l22.223 21.111c.185.186.37.556.37.926v71.482c-.37.741-.926 1.296-1.667 1.296ZM173.704 305.31a1.267 1.267 0 0 1-1.297-1.297v-69.444c0-.741.556-1.297 1.297-1.297.74 0 1.296.556 1.296 1.297v69.444c.185.741-.37 1.297-1.296 1.297Z"/><path fill="#222" d="M218.333 347.532c-.37 0-.74-.185-.926-.37l-44.074-41.667h-52.407a1.266 1.266 0 0 1-1.296-1.296c0-.741.555-1.297 1.296-1.297h52.963c.37 0 .741.186.926.371l44.444 42.222a1.452 1.452 0 0 1 0 2.037c-.185-.185-.555 0-.926 0ZM316.667 235.865H120.926a1.265 1.265 0 0 1-1.296-1.296c0-.741.555-1.296 1.296-1.296h192.407l-41.666-39.445h-75.556a1.265 1.265 0 0 1-1.296-1.296c0-.741.555-1.296 1.296-1.296h76.111c.371 0 .741.185.926.37l44.445 42.037c.37.371.555.926.37 1.482-.185.37-.741.74-1.296.74ZM151.481 193.828h-30.555a1.265 1.265 0 0 1-1.296-1.296c0-.741.555-1.296 1.296-1.296h30.555c.741 0 1.297.555 1.297 1.296s-.556 1.296-1.297 1.296ZM185 193.828h-22.222a1.266 1.266 0 0 1-1.297-1.296c0-.741.556-1.296 1.297-1.296H185c.741 0 1.296.555 1.296 1.296s-.555 1.296-1.296 1.296Z"/><path fill="#222" d="M272.222 193.829c-.74 0-1.296-.556-1.296-1.297v-84.629c0-.741.556-1.297 1.296-1.297.741 0 1.297.556 1.297 1.297v84.629c0 .741-.556 1.297-1.297 1.297Z"/><path fill="#444" d="m151.482 40.495-75.186 40.37 44.63 42.222 75.185-40.37-44.629-42.222Z"/><path fill="#222" d="M120.926 124.384c-.37 0-.741-.186-.926-.371L75.556 81.791c-.37-.37-.556-.74-.37-1.111 0-.37.37-.74.74-1.111l75-40.186c.555-.37 1.111-.185 1.667.186l44.444 42.222c.37.37.556.74.37 1.111 0 .37-.37.74-.74 1.111l-75.186 40.185c-.185.186-.37.186-.555.186ZM78.704 81.235l42.407 40.186 72.593-38.89-42.408-40.37-72.592 39.074Z"/><path fill="#444" d="m272.222 80.865-120.74-40.37 44.629 42.037 120.556 40.556-44.445-42.222Z"/><path fill="#222" d="M316.667 124.384h-.371l-120.74-40.555c-.186 0-.371-.186-.556-.37L150.556 41.42c-.556-.37-.556-1.111-.186-1.667.371-.555.926-.74 1.667-.555l120.556 40.37c.185 0 .37.185.555.37l44.445 42.038c.555.37.555 1.111.185 1.666-.185.556-.556.741-1.111.741ZM196.852 81.421l114.259 38.333-39.815-37.592-114.259-38.334 39.815 37.593ZM305.556 193.829c-.371 0-.741-.186-.926-.371l-22.223-21.111a1.416 1.416 0 0 1-.37-.926v-40.37c0-.556.37-1.111.926-1.297.556-.185 1.111-.185 1.482.186l22.222 21.111c.185.185.37.555.37.926v40.37c0 .556-.37 1.111-.926 1.296-.185.186-.37.186-.555.186ZM284.63 170.68l19.444 18.519v-36.482l-19.444-18.518v36.481Z"/><path fill="#222" d="M305.556 173.643c-.371 0-.741-.185-.926-.37l-22.223-21.111a1.454 1.454 0 0 1 0-2.037 1.452 1.452 0 0 1 2.037 0l22.223 21.111a1.454 1.454 0 0 1 0 2.037c-.371.185-.741.37-1.111.37Z"/><path fill="#222" d="M294.444 183.273c-.74 0-1.296-.556-1.296-1.296v-40.371c0-.74.556-1.296 1.296-1.296.741 0 1.297.556 1.297 1.296v40.371c0 .74-.556 1.296-1.297 1.296ZM120.926 347.532a1.266 1.266 0 0 1-1.296-1.296V122.902c0-.74.555-1.296 1.296-1.296s1.296.556 1.296 1.296V346.05c0 .741-.555 1.482-1.296 1.482Z"/><path fill="#fff" d="M76.296 80.865V346.05h44.63V123.087l-44.63-42.222Z"/><path fill="#222" d="M120.926 347.532H76.481c-.74 0-1.296-.556-1.296-1.296V80.866c0-.556.37-1.112.926-1.297.556-.185 1.111-.185 1.481.185l44.445 42.222c.185.185.37.556.37.926V346.05c-.185.741-.74 1.482-1.481 1.482Zm-43.148-2.778h41.666V123.643l-41.666-39.63v260.741ZM196.111 235.865c-.37 0-.741-.185-.926-.37l-11.111-10.556a1.414 1.414 0 0 1-.37-.926v-71.296l-19.445-18.518v68.703c0 .556-.37 1.111-.926 1.297-.555.185-1.111.185-1.481-.186l-11.111-10.555a1.411 1.411 0 0 1-.371-.926v-86.111c0-.741.556-1.296 1.297-1.296.74 0 1.296.555 1.296 1.296v85.37l8.333 7.963V131.05c0-.555.371-1.111.926-1.296.556-.185 1.111-.185 1.482.185l22.222 21.111c.185.186.37.556.37.926v71.297l10.741 10.185a1.454 1.454 0 0 1 0 2.037c-.185.37-.556.37-.926.37ZM275.185 318.088a2.778 2.778 0 1 0 0-5.557 2.778 2.778 0 0 0 0 5.557Z"/></svg>