<svg xmlns="http://www.w3.org/2000/svg" width="400" height="400" fill="none" viewBox="0 0 400 400"><path fill="#fff" d="M196.111 234.056H120.87V122.5l75.241-40.389v151.945Z"/><path fill="#fff" d="M218.296 234.055H120.87v111.556h97.426V234.055Z"/><path fill="#fff" d="M196.037 82.111v151.945h120.648V122.5L196.037 82.111Z"/><path fill="#DADADA" d="M280.018 99.722v84.296h-76.129V74.222l76.129 25.5ZM192.759 143.685v40.333H170.5v-61.389l22.259 21.056ZM181.63 226.148h-52.889v69.445h52.889v-69.445ZM159.371 98.166v85.852h-30.63v-69.407l30.63-16.445ZM214.982 256.259v40.334h-22.259v-61.389l22.259 21.055Z"/><path fill="#fff" d="M316.686 234.555h-97.908v111.241h97.908V234.555Z"/><path fill="#FF3158" d="M284.537 297.13v48.611h-33.926V297.13c0-10.186 7.574-18.426 16.963-18.426 9.389 0 16.963 8.222 16.963 18.426Z"/><path fill="#222" d="M316.685 235.426H196.037a1.387 1.387 0 0 1-1.389-1.389V82.111c0-.444.223-.87.575-1.13a1.36 1.36 0 0 1 1.24-.185l120.648 40.389c.556.185.945.722.945 1.315v111.555c0 .76-.611 1.389-1.389 1.389l.018-.018Zm-119.259-2.759h117.871V123.5L197.426 84.037v148.63Z"/><path fill="#222" d="M316.685 346.981h-98.389a1.387 1.387 0 0 1-1.389-1.389V234.037c0-.759.611-1.389 1.389-1.389h98.389c.759 0 1.389.611 1.389 1.389v111.555c0 .76-.611 1.389-1.389 1.389Zm-97-2.759h95.611V235.444h-95.611v108.778Z"/><path fill="#FF3158" d="M316.741 234.222h-120.63v-42.13h76.13l44.5 42.13ZM207.222 335.259l11.13 10.537h-97.389v-42.129h52.889l11.129 10.537 22.241 21.055ZM184.981 223.703v-31.611h-22.259v10.537l-11.129-10.537h-30.63v42.13h75.148l-11.13-10.519Z"/><path fill="#222" d="M218.296 346.981H120.87a1.387 1.387 0 0 1-1.389-1.389V234.037c0-.759.612-1.389 1.389-1.389h97.426c.76 0 1.389.611 1.389 1.389v111.555c0 .76-.611 1.389-1.389 1.389Zm-96.037-2.759h94.667V235.444h-94.667v108.778Z"/><path fill="#222" d="M196.037 235.426H120.87a1.387 1.387 0 0 1-1.389-1.389V122.481c0-.5.278-.981.723-1.222L195.37 80.87a1.393 1.393 0 0 1 1.371.037c.426.241.666.704.666 1.186v151.944c0 .759-.611 1.389-1.389 1.389h.019Zm-73.778-2.759h72.389V84.426l-72.389 38.907v109.334ZM284.463 346.981a1.387 1.387 0 0 1-1.389-1.389v-48.648c0-9.407-6.981-17.055-15.574-17.055-8.592 0-15.574 7.648-15.574 17.055v48.648c0 .76-.611 1.389-1.389 1.389a1.376 1.376 0 0 1-1.389-1.389v-48.648c0-10.926 8.223-19.815 18.352-19.815 10.13 0 18.352 8.889 18.352 19.815v48.648c0 .76-.611 1.389-1.389 1.389ZM207.167 304.852h-22.26a1.386 1.386 0 0 1-1.388-1.389c0-.778.611-1.389 1.388-1.389h22.26c.759 0 1.389.611 1.389 1.389s-.612 1.389-1.389 1.389Z"/><path fill="#222" d="M207.167 336.481c-.76 0-1.389-.611-1.389-1.388v-70.519l-19.5-18.444v67.852c0 .759-.611 1.388-1.389 1.388a1.375 1.375 0 0 1-1.389-1.388v-71.075c0-.555.333-1.055.833-1.277a1.4 1.4 0 0 1 1.5.259l22.26 21.074c.277.259.426.63.426 1v71.13c0 .759-.612 1.388-1.389 1.388h.037ZM173.778 304.852c-.76 0-1.389-.611-1.389-1.389v-69.426c0-.759.611-1.389 1.389-1.389.777 0 1.388.611 1.388 1.389v69.426c0 .759-.611 1.389-1.388 1.389Z"/><path fill="#222" d="M218.296 346.982c-.333 0-.685-.13-.944-.371l-44.13-41.759H120.87a1.387 1.387 0 0 1-1.389-1.389c0-.778.612-1.389 1.389-1.389h52.908c.352 0 .685.13.944.371l44.519 42.129c.555.519.574 1.408.055 1.963a1.333 1.333 0 0 1-1 .426v.019ZM316.685 235.426H120.889a1.387 1.387 0 0 1-1.389-1.389c0-.778.611-1.389 1.389-1.389h192.333l-41.592-39.37h-75.574c-.76 0-1.389-.611-1.389-1.389s.611-1.389 1.389-1.389h76.111c.352 0 .685.13.944.37L317.63 233a1.4 1.4 0 0 1 .333 1.519 1.39 1.39 0 0 1-1.278.87v.037ZM151.519 193.296h-30.63a1.387 1.387 0 0 1-1.389-1.389c0-.778.611-1.389 1.389-1.389h30.63c.759 0 1.388.611 1.388 1.389s-.611 1.389-1.388 1.389ZM184.908 193.296h-22.259c-.76 0-1.389-.611-1.389-1.389s.611-1.389 1.389-1.389h22.259c.759 0 1.389.611 1.389 1.389s-.611 1.389-1.389 1.389Z"/><path fill="#222" d="M272.166 193.296a1.387 1.387 0 0 1-1.389-1.389v-84.555c0-.759.611-1.389 1.389-1.389s1.389.611 1.389 1.389v84.555c0 .76-.611 1.389-1.389 1.389Z"/><path fill="#444" d="M151.518 40.037 76.352 80.37l44.518 42.13 75.167-40.333-44.519-42.13Z"/><path fill="#222" d="M120.87 123.888c-.352 0-.685-.129-.944-.37l-44.519-42.13a1.42 1.42 0 0 1-.426-1.185c.056-.444.334-.833.723-1.037l75.166-40.333a1.379 1.379 0 0 1 1.611.222L197 81.185c.315.315.481.74.426 1.185a1.374 1.374 0 0 1-.723 1.037l-75.166 40.333a1.354 1.354 0 0 1-.648.167l-.019-.019ZM78.685 80.685l42.407 40.129 72.593-38.962-42.407-40.13-72.593 38.963Z"/><path fill="#444" d="M272.167 80.426 151.519 40.037l44.518 42.074L316.685 122.5l-44.518-42.074Z"/><path fill="#222" d="M316.685 123.889c-.148 0-.296-.018-.444-.074L195.593 83.426a1.26 1.26 0 0 1-.519-.315l-44.518-42.074a1.404 1.404 0 0 1-.241-1.722 1.368 1.368 0 0 1 1.629-.593l120.649 40.39c.185.055.37.166.518.314L317.63 121.5c.463.445.574 1.167.24 1.722a1.373 1.373 0 0 1-1.185.667ZM196.778 80.908l114.407 38.296-39.741-37.556-114.407-38.296 39.741 37.556ZM305.555 193.334c-.351 0-.685-.13-.944-.371l-22.259-21.074a1.37 1.37 0 0 1-.426-1v-40.352c0-.555.333-1.055.833-1.277a1.397 1.397 0 0 1 1.5.259l22.259 21.074c.278.259.426.629.426 1v40.352c0 .555-.333 1.055-.833 1.277a1.38 1.38 0 0 1-.537.112h-.019Zm-20.87-23.037 19.5 18.444v-36.556l-19.5-18.444v36.556Z"/><path fill="#222" d="M305.556 173.148c-.334 0-.686-.13-.945-.37l-22.259-21.074c-.556-.519-.574-1.408-.056-1.963.519-.556 1.408-.574 1.963-.056l22.26 21.074c.555.519.574 1.408.055 1.963a1.333 1.333 0 0 1-1 .426h-.018Z"/><path fill="#222" d="M294.426 182.796a1.387 1.387 0 0 1-1.389-1.389v-40.352c0-.759.611-1.388 1.389-1.388s1.389.611 1.389 1.388v40.352c0 .76-.611 1.389-1.389 1.389ZM120.87 346.981a1.387 1.387 0 0 1-1.389-1.389V122.5c0-.76.612-1.389 1.389-1.389.778 0 1.389.611 1.389 1.389v223.092c0 .76-.611 1.389-1.389 1.389Z"/><path fill="#fff" d="M76.352 80.37v265.222h44.518V122.5L76.352 80.37Z"/><path fill="#222" d="M120.87 346.981H76.352c-.76 0-1.39-.611-1.39-1.388V80.37c0-.555.334-1.055.834-1.278a1.4 1.4 0 0 1 1.5.26l44.519 42.129c.278.26.426.63.426 1v223.093c0 .759-.611 1.389-1.389 1.389l.018.018Zm-43.148-2.759h41.759V123.111L77.722 83.592v260.63ZM195.093 235.055l-11.13-10.537a1.37 1.37 0 0 1-.426-1v-71.333l-19.5-18.445v68.723c0 .555-.333 1.055-.833 1.277-.5.223-1.093.112-1.5-.259l-11.13-10.537a1.374 1.374 0 0 1-.426-1V106c0-.76.612-1.389 1.389-1.389.778 0 1.389.611 1.389 1.389v85.352l8.371 7.907v-68.722c0-.556.333-1.056.833-1.278a1.401 1.401 0 0 1 1.5.259l22.259 21.074c.278.26.426.63.426 1v71.334l10.704 10.129-1.908 2h-.018ZM275.185 317.537a2.704 2.704 0 1 0-.001-5.409 2.704 2.704 0 0 0 .001 5.409Z"/></svg>