<svg xmlns="http://www.w3.org/2000/svg" width="400" height="401" fill="none" viewBox="0 0 400 401"><path fill="#fff" d="M199.608 230.22h-65.465v-97.07l65.465-35.155V230.22ZM218.923 230.221h-84.78v97.07h84.78v-97.07Z"/><path fill="#fff" d="M199.553 97.995V230.22h104.99v-97.07l-104.99-35.155Z"/><path fill="#DADADA" d="M272.638 113.325v73.365h-66.25V91.135l66.25 22.19ZM196.703 151.586v35.105h-19.37v-53.435l19.37 18.33ZM187.018 223.35h-46.025v60.43h46.025v-60.43ZM167.648 111.971v74.72h-26.655v-60.41l26.655-14.31ZM216.033 249.551v35.1h-19.37v-53.43l19.37 18.33Z" style="mix-blend-mode:multiply"/><path fill="#222" d="M304.543 231.606h-104.99a1.38 1.38 0 0 1-1.38-1.38V97.996a1.381 1.381 0 0 1 1.82-1.31l104.99 35.15c.565.19.945.715.945 1.31v97.075c0 .765-.62 1.38-1.38 1.38l-.005.005Zm-103.605-2.765h102.225v-94.695L200.938 99.921v128.92Z"/><path fill="#fff" d="M304.543 230.221h-85.615v97.07h85.615v-97.07Z"/><path fill="#222" d="M304.543 328.676h-85.615a1.38 1.38 0 0 1-1.38-1.385v-97.07c0-.765.62-1.38 1.38-1.38h85.615c.765 0 1.38.62 1.38 1.38v97.07c0 .765-.62 1.385-1.38 1.385Zm-84.235-2.765h82.85v-94.305h-82.85v94.305Z"/><path fill="#FF3158" d="M304.598 230.375H199.608v-36.66h66.255l38.735 36.66ZM276.563 285.241v40.82h-29.525v-40.82c0-8.94 6.59-16.155 14.765-16.155s14.765 7.21 14.765 16.155h-.005ZM209.293 318.301l9.685 9.165h-84.765v-36.66h46.03l9.68 9.165 19.37 18.33ZM189.923 221.21v-27.495h-19.365v9.165l-9.685-9.165h-26.66v36.66h65.395l-9.685-9.165Z"/><path fill="#222" d="M218.928 328.675h-84.78a1.38 1.38 0 0 1-1.38-1.385v-97.07c0-.765.62-1.38 1.38-1.38h84.78c.765 0 1.38.62 1.38 1.38v97.07c0 .765-.62 1.385-1.38 1.385Zm-83.4-2.765h82.02v-94.305h-82.02v94.305Z"/><path fill="#222" d="M199.553 231.605h-65.41a1.38 1.38 0 0 1-1.38-1.38v-97.07c0-.51.28-.975.73-1.22l65.41-35.15a1.384 1.384 0 0 1 2.04 1.215v132.22c0 .765-.62 1.38-1.38 1.38l-.01.005Zm-64.025-2.765h62.645V100.31l-62.645 33.665v94.865ZM276.498 328.675a1.38 1.38 0 0 1-1.38-1.385v-42.335c0-8.085-6.005-14.66-13.38-14.66-7.375 0-13.38 6.575-13.38 14.66v42.335c0 .765-.62 1.385-1.38 1.385-.76 0-1.38-.62-1.38-1.385v-42.335c0-9.61 7.245-17.425 16.145-17.425 8.9 0 16.145 7.815 16.145 17.425v42.335c0 .765-.62 1.385-1.38 1.385h-.01ZM209.238 292.015h-19.375a1.38 1.38 0 0 1-1.38-1.385c0-.765.62-1.385 1.38-1.385h19.375c.765 0 1.38.62 1.38 1.385s-.62 1.385-1.38 1.385Z"/><path fill="#222" d="M209.238 319.535a1.38 1.38 0 0 1-1.38-1.385v-61.295l-16.61-15.715v58.63c0 .765-.62 1.385-1.38 1.385-.76 0-1.38-.62-1.38-1.385v-61.845c0-.55.33-1.05.835-1.27a1.374 1.374 0 0 1 1.495.265l19.375 18.33c.275.26.43.625.43 1.005v61.89c0 .765-.62 1.385-1.38 1.385l-.005.005ZM180.183 292.015a1.38 1.38 0 0 1-1.38-1.385v-60.41a1.38 1.38 0 1 1 2.76 0v60.41c0 .765-.62 1.385-1.38 1.385Z"/><path fill="#222" d="M218.928 328.675c-.34 0-.685-.125-.95-.38l-38.345-36.285h-45.485a1.38 1.38 0 0 1-1.38-1.385c0-.765.62-1.385 1.38-1.385h46.035c.355 0 .695.135.95.38l38.745 36.665c.555.525.58 1.4.055 1.955-.27.285-.64.43-1.005.43v.005ZM304.543 231.606h-170.4a1.38 1.38 0 1 1 0-2.76h166.925l-35.825-33.9h-65.69a1.38 1.38 0 1 1 0-2.76h66.24c.355 0 .695.135.95.38l38.745 36.66c.41.39.545.99.335 1.515-.21.525-.72.87-1.285.87l.005-.005ZM160.808 194.94h-26.665a1.38 1.38 0 1 1 0-2.76h26.665a1.38 1.38 0 1 1 0 2.76ZM189.868 194.941h-19.375a1.38 1.38 0 1 1 0-2.76h19.375a1.38 1.38 0 1 1 0 2.76Z"/><path fill="#222" d="M265.798 194.941a1.38 1.38 0 0 1-1.38-1.38v-73.585a1.38 1.38 0 1 1 2.76 0v73.58c0 .765-.62 1.38-1.38 1.38v.005Z"/><path fill="#444" d="m160.807 61.385-65.41 35.1 38.745 36.665 65.41-35.1-38.745-36.665Z"/><path fill="#222" d="M134.142 134.53c-.345 0-.69-.13-.95-.38L94.447 97.49a1.368 1.368 0 0 1-.42-1.185c.06-.44.325-.825.715-1.035l65.41-35.1a1.387 1.387 0 0 1 1.605.215l38.745 36.66c.325.305.48.745.42 1.185-.06.44-.325.825-.715 1.035l-65.41 35.1c-.205.11-.43.165-.655.165ZM97.737 96.795l36.63 34.66 62.84-33.725-36.63-34.66-62.84 33.725Z"/><path fill="#444" d="m265.797 96.535-104.99-35.15 38.745 36.61 104.99 35.155-38.745-36.615Z"/><path fill="#222" d="M304.542 134.53c-.145 0-.295-.025-.44-.07l-104.99-35.15a1.43 1.43 0 0 1-.51-.305l-38.745-36.61a1.382 1.382 0 0 1 1.39-2.315l104.99 35.15c.19.065.365.17.51.305l38.745 36.61a1.382 1.382 0 0 1-.95 2.385Zm-104.26-37.75 98.755 33.065-33.965-32.095-98.755-33.065 33.965 32.095ZM294.858 194.96c-.345 0-.69-.13-.95-.38l-19.375-18.33a1.384 1.384 0 0 1-.43-1.005v-35.12c0-.55.33-1.05.835-1.27a1.374 1.374 0 0 1 1.495.265l19.375 18.33c.275.26.43.625.43 1.005v35.12a1.39 1.39 0 0 1-1.38 1.385Zm-17.99-20.31 16.61 15.715V159.05l-16.61-15.715v31.315Z"/><path fill="#222" d="M294.858 177.4c-.34 0-.685-.125-.95-.38l-19.375-18.33a1.383 1.383 0 1 1 1.9-2.01l19.375 18.33c.555.525.58 1.4.055 1.955-.27.285-.64.43-1.005.43v.005Z"/><path fill="#222" d="M285.168 185.795a1.38 1.38 0 0 1-1.38-1.38V149.3a1.38 1.38 0 1 1 2.76 0v35.115c0 .765-.62 1.38-1.38 1.38ZM134.143 328.675a1.38 1.38 0 0 1-1.38-1.384V133.15c0-.765.62-1.379 1.38-1.379.76 0 1.38.619 1.38 1.379v194.146c0 .765-.62 1.384-1.38 1.384v-.005Z"/><path fill="#fff" d="M95.397 96.485V327.29h38.745V133.15L95.397 96.485Z"/><path fill="#222" d="M134.143 328.675H95.398a1.38 1.38 0 0 1-1.38-1.385V96.485c0-.55.33-1.05.835-1.27a1.374 1.374 0 0 1 1.495.265l38.745 36.66c.275.26.43.625.43 1.005V327.29c0 .765-.62 1.385-1.38 1.385Zm-37.365-2.765h35.98V133.745L96.778 99.7v226.215-.005ZM199.553 231.605c-.34 0-.685-.125-.95-.38l-9.685-9.165a1.384 1.384 0 0 1-.43-1.005v-62l-16.61-15.715v59.385c0 .55-.33 1.05-.835 1.27-.51.22-1.095.115-1.495-.265l-9.685-9.165a1.384 1.384 0 0 1-.43-1.005v-74.795a1.38 1.38 0 1 1 2.76 0v74.2l6.92 6.55V140.13c0-.55.33-1.05.835-1.27a1.374 1.374 0 0 1 1.495.265l19.375 18.33c.275.26.43.625.43 1.005v62l9.255 8.755c.555.525.58 1.4.055 1.955-.27.285-.64.43-1.005.43v.005ZM268.423 302.87a2.345 2.345 0 1 0 0-4.69 2.345 2.345 0 0 0 0 4.69Z"/></svg>