<svg xmlns="http://www.w3.org/2000/svg" width="401" height="401" fill="none" viewBox="0 0 401 401"><path fill="#444" d="M265.725 166.306c25.565 0 46.29-20.725 46.29-46.29 0-25.566-20.725-46.29-46.29-46.29-25.565 0-46.29 20.724-46.29 46.29 0 25.565 20.725 46.29 46.29 46.29Z"/><path fill="#222" d="M265.725 167.69c-12.735 0-24.705-4.96-33.71-13.965-9.005-9.005-13.965-20.975-13.965-33.71s4.96-24.705 13.965-33.71c18.59-18.59 48.835-18.59 67.42 0 9.005 9.005 13.965 20.975 13.965 33.71s-4.96 24.705-13.965 33.71c-9.005 9.005-20.975 13.965-33.71 13.965Zm0-92.56c-11.5 0-23 4.375-31.755 13.13-8.48 8.48-13.155 19.76-13.155 31.755 0 11.995 4.67 23.27 13.155 31.755 8.48 8.48 19.76 13.155 31.755 13.155 11.995 0 23.27-4.67 31.755-13.155 8.48-8.48 13.155-19.76 13.155-31.755 0-11.995-4.67-23.27-13.155-31.755-8.755-8.755-20.255-13.13-31.755-13.13Z"/><path fill="#444" d="M88.33 164.46c25.565 0 46.29-20.725 46.29-46.29 0-25.565-20.725-46.29-46.29-46.29-25.565 0-46.29 20.725-46.29 46.29 0 25.565 20.725 46.29 46.29 46.29Z"/><path fill="#222" d="M88.33 165.845c-12.735 0-24.705-4.96-33.71-13.965-18.59-18.59-18.59-48.835 0-67.42s48.835-18.59 67.42 0c18.59 18.59 18.59 48.835 0 67.42-9.005 9.005-20.975 13.965-33.71 13.965Zm0-92.58c-11.995 0-23.27 4.67-31.755 13.155-17.51 17.51-17.51 46 0 63.505 8.48 8.48 19.76 13.155 31.755 13.155 11.995 0 23.27-4.67 31.755-13.155 17.51-17.51 17.51-45.995 0-63.505-8.48-8.48-19.76-13.155-31.755-13.155Z"/><path fill="#444" d="M265.725 338.21c25.565 0 46.29-20.725 46.29-46.29 0-25.565-20.725-46.29-46.29-46.29-25.565 0-46.29 20.725-46.29 46.29 0 25.565 20.725 46.29 46.29 46.29Z"/><path fill="#222" d="M265.725 339.59c-12.735 0-24.705-4.96-33.71-13.965-9.005-9.005-13.965-20.975-13.965-33.71s4.96-24.705 13.965-33.71c9.005-9.005 20.975-13.965 33.71-13.965s24.705 4.96 33.71 13.965c9.005 9.005 13.965 20.975 13.965 33.71s-4.96 24.705-13.965 33.71c-9.005 9.005-20.975 13.965-33.71 13.965Zm0-92.58c-11.995 0-23.27 4.67-31.755 13.155-8.48 8.48-13.155 19.76-13.155 31.755 0 11.995 4.67 23.27 13.155 31.755 8.48 8.48 19.76 13.155 31.755 13.155 11.995 0 23.27-4.67 31.755-13.155 8.48-8.48 13.155-19.76 13.155-31.755 0-11.995-4.67-23.27-13.155-31.755-8.48-8.48-19.76-13.155-31.755-13.155Z"/><path fill="#444" d="M88.33 338.21c25.565 0 46.29-20.725 46.29-46.29 0-25.565-20.725-46.29-46.29-46.29-25.565 0-46.29 20.725-46.29 46.29 0 25.565 20.725 46.29 46.29 46.29Z"/><path fill="#222" d="M88.33 339.59c-12.735 0-24.705-4.96-33.71-13.965-9.005-9.005-13.965-20.975-13.965-33.71s4.96-24.705 13.965-33.71c9.005-9.005 20.975-13.965 33.71-13.965s24.705 4.96 33.71 13.965c9.005 9.005 13.965 20.975 13.965 33.71s-4.96 24.705-13.965 33.71c-9.005 9.005-20.975 13.965-33.71 13.965Zm0-92.58c-11.995 0-23.27 4.67-31.755 13.155-8.48 8.48-13.155 19.76-13.155 31.755 0 11.995 4.67 23.27 13.155 31.755 8.48 8.48 19.76 13.155 31.755 13.155 11.995 0 23.27-4.67 31.755-13.155 8.48-8.48 13.155-19.76 13.155-31.755 0-11.995-4.67-23.27-13.155-31.755-8.48-8.48-19.76-13.155-31.755-13.155Z"/><path fill="#444" d="M262.535 285.556c-40.235-44.955-39.93-113.38.92-157.98l7.455 7.455 9.675-9.675-24.555-24.555-9.675 9.675 7.215 7.215c-44.535 40.79-112.815 41.16-157.79 1.08l8.11-8.11-9.675-9.675-24.555 24.555 9.675 9.675 7.435-7.435c39.72 44.56 39.705 112.065-.025 156.62l-7.16-7.155-9.675 9.675 24.555 24.555 9.675-9.675-7.395-7.395c44.63-39.8 112.225-39.755 156.8.135l-7.445 7.445 9.675 9.675 24.555-24.555-9.675-9.675-8.125 8.125h.005Z"/><path fill="#222" d="m255.78 313.615-11.63-11.63 7.38-7.38c-21.145-18.45-48.205-28.61-76.36-28.63h-.095c-28.12 0-55.15 10.105-76.305 28.495l7.33 7.33-11.63 11.63-26.51-26.51 11.63-11.63 7.095 7.095c18.375-21.14 28.48-48.17 28.485-76.29.005-28.12-10.09-55.15-28.46-76.29l-7.37 7.37-11.63-11.63 26.51-26.51 11.63 11.63-8.045 8.045c21.16 18.385 48.16 28.47 76.275 28.47h.75c28.415-.18 55.605-10.66 76.73-29.53l-7.165-7.165 11.63-11.63 26.51 26.51-11.63 11.63-7.405-7.405c-18.9 21.16-29.38 48.395-29.53 76.855-.155 28.435 10 55.755 28.625 77.095l8.06-8.06 11.63 11.63-26.51 26.51.005-.005Zm-7.715-11.63 7.715 7.715 22.595-22.595-7.715-7.715-8.18 8.18-.975-1.09c-19.7-22.01-30.46-50.44-30.3-80.055.16-29.635 11.25-57.97 31.23-79.785l.975-1.065 7.5 7.5 7.715-7.715-22.595-22.595-7.715 7.715 7.26 7.26-1.065.975c-21.78 19.95-50.07 31.04-79.655 31.23-29.565.17-57.97-10.515-79.985-30.14l-1.095-.975 8.165-8.165-7.715-7.715-22.595 22.595 7.715 7.715 7.495-7.495.975 1.095c19.435 21.805 30.135 49.945 30.13 79.235-.005 29.29-10.715 57.425-30.155 79.23l-.975 1.095-7.215-7.215-7.715 7.715 22.595 22.595 7.715-7.715-7.45-7.45 1.095-.975c21.815-19.455 49.955-30.165 79.245-30.165h.095c29.33.025 57.49 10.785 79.3 30.305l1.09.975-7.5 7.5-.005-.005Z"/><path fill="#F5F4F3" d="M269.65 157.681c25.565 0 46.29-20.725 46.29-46.29 0-25.566-20.725-46.29-46.29-46.29-25.565 0-46.29 20.724-46.29 46.29 0 25.565 20.725 46.29 46.29 46.29Z"/><path fill="#222" d="M269.65 159.041c-12.21 0-24.415-4.645-33.71-13.94-18.59-18.59-18.59-48.835 0-67.42 18.59-18.59 48.835-18.59 67.42 0 18.59 18.59 18.59 48.835 0 67.42-9.295 9.295-21.5 13.94-33.71 13.94Zm0-92.535c-11.5 0-23 4.375-31.755 13.13-8.48 8.48-13.155 19.76-13.155 31.755 0 11.995 4.67 23.27 13.155 31.755 17.51 17.51 46 17.51 63.505 0 8.48-8.48 13.155-19.76 13.155-31.755 0-11.995-4.67-23.27-13.155-31.755-8.755-8.755-20.255-13.13-31.755-13.13h.005Z"/><path fill="#F5F4F3" d="M93.58 333.75c25.565 0 46.29-20.725 46.29-46.29 0-25.565-20.725-46.29-46.29-46.29-25.566 0-46.29 20.725-46.29 46.29 0 25.565 20.724 46.29 46.29 46.29Z"/><path fill="#222" d="M93.58 335.11c-12.21 0-24.415-4.645-33.71-13.94-18.59-18.59-18.59-48.835 0-67.42 18.59-18.59 48.835-18.59 67.42 0 18.59 18.59 18.59 48.835 0 67.42-9.295 9.295-21.5 13.94-33.71 13.94Zm0-92.535c-11.5 0-23 4.375-31.755 13.13-17.51 17.51-17.51 46 0 63.505 17.51 17.51 46 17.51 63.505 0 17.51-17.51 17.505-46 0-63.505-8.755-8.755-20.255-13.13-31.755-13.13h.005Z"/><path fill="#F5F4F3" d="M269.65 333.75c25.565 0 46.29-20.725 46.29-46.29 0-25.565-20.725-46.29-46.29-46.29-25.565 0-46.29 20.725-46.29 46.29 0 25.565 20.725 46.29 46.29 46.29Z"/><path fill="#222" d="M269.65 335.13c-12.735 0-24.705-4.96-33.71-13.965-9.005-9.005-13.965-20.975-13.965-33.71s4.96-24.705 13.965-33.71c9.005-9.005 20.975-13.965 33.71-13.965s24.705 4.96 33.71 13.965c9.005 9.005 13.965 20.975 13.965 33.71s-4.96 24.705-13.965 33.71c-9.005 9.005-20.975 13.965-33.71 13.965Zm0-92.58c-11.995 0-23.27 4.67-31.755 13.155-8.48 8.48-13.155 19.76-13.155 31.755 0 11.995 4.67 23.27 13.155 31.755 8.48 8.48 19.76 13.155 31.755 13.155 11.995 0 23.27-4.67 31.755-13.155 8.48-8.48 13.155-19.76 13.155-31.755 0-11.995-4.67-23.27-13.155-31.755-8.48-8.48-19.76-13.155-31.755-13.155Z"/><path fill="#F5F4F3" d="M93.58 157.681c25.565 0 46.29-20.725 46.29-46.29 0-25.566-20.725-46.29-46.29-46.29-25.566 0-46.29 20.724-46.29 46.29 0 25.565 20.724 46.29 46.29 46.29Z"/><path fill="#222" d="M93.58 159.041c-12.21 0-24.415-4.645-33.71-13.94-18.59-18.59-18.59-48.835 0-67.42 18.59-18.59 48.835-18.59 67.42 0 18.59 18.59 18.59 48.835 0 67.42-9.295 9.295-21.5 13.94-33.71 13.94Zm0-92.535c-11.5 0-23 4.375-31.755 13.13-8.48 8.48-13.155 19.76-13.155 31.755 0 11.995 4.67 23.27 13.155 31.755 17.51 17.51 46 17.51 63.505 0 8.48-8.48 13.155-19.76 13.155-31.755 0-11.995-4.67-23.27-13.155-31.755-8.755-8.755-20.255-13.13-31.755-13.13h.005ZM271.865 65.1h-3.69v17.256h3.69V65.1ZM271.865 139.681h-3.69v17.255h3.69v-17.255ZM315.94 109.171h-17.255v3.69h17.255v-3.69ZM241.36 109.171h-17.255v3.69h17.255v-3.69ZM271.865 241.976h-3.69v17.255h3.69v-17.255ZM271.865 316.561h-3.69v17.255h3.69v-17.255ZM315.94 286.051h-17.255v3.69h17.255v-3.69ZM241.36 286.051h-17.255v3.69h17.255v-3.69Z"/><path fill="#222" d="M95.175 65.1h-3.69v17.256h3.69V65.1ZM95.175 139.681h-3.69v17.255h3.69v-17.255ZM139.25 109.171h-17.255v3.69h17.255v-3.69ZM64.665 109.171H47.41v3.69h17.255v-3.69ZM95.175 241.976h-3.69v17.255h3.69v-17.255ZM95.175 316.561h-3.69v17.255h3.69v-17.255ZM139.25 286.051h-17.255v3.69h17.255v-3.69ZM64.665 286.051H47.41v3.69h17.255v-3.69Z"/><path fill="#FF3158" d="M269.09 278.655c-40.235-44.955-39.93-113.38.92-157.98l7.455 7.455 9.675-9.675L262.585 93.9l-9.675 9.675 7.215 7.215c-44.535 40.79-112.815 41.16-157.79 1.08l8.11-8.11-9.675-9.675-24.555 24.555 9.675 9.675 7.435-7.435c39.72 44.56 39.705 112.065-.025 156.62l-7.16-7.155-9.675 9.675 24.555 24.555 9.675-9.675-7.395-7.395c44.63-39.8 112.225-39.755 156.8.135l-7.445 7.445 9.675 9.675 24.555-24.555-9.675-9.675-8.125 8.125h.005Z"/><path fill="#222" d="M262.33 306.14a1.39 1.39 0 0 1-.98-.405l-9.675-9.675a1.38 1.38 0 0 1-.405-.98c0-.37.145-.72.405-.98l6.405-6.4c-21.145-18.45-48.205-28.61-76.36-28.63h-.095c-28.12 0-55.15 10.105-76.305 28.495l6.35 6.35c.26.26.405.61.405.98s-.145.72-.405.98l-9.675 9.675c-.52.52-1.44.52-1.96 0L75.48 280.995a1.388 1.388 0 0 1 0-1.96l9.675-9.675c.54-.54 1.415-.54 1.96 0l6.115 6.115c18.375-21.14 28.48-48.17 28.485-76.29.005-28.12-10.09-55.15-28.46-76.29l-6.395 6.395c-.54.54-1.415.54-1.96 0l-9.675-9.675a1.388 1.388 0 0 1 0-1.96L99.78 93.1c.52-.52 1.44-.52 1.96 0l9.675 9.675c.26.26.405.61.405.98s-.145.72-.405.98l-7.065 7.065c21.35 18.55 48.645 28.665 77.025 28.465 28.415-.18 55.605-10.66 76.73-29.535l-6.185-6.185a1.388 1.388 0 0 1 0-1.96l9.675-9.675c.54-.54 1.415-.54 1.96 0l24.555 24.555c.54.54.54 1.415 0 1.96l-9.675 9.675c-.52.52-1.44.52-1.96 0l-6.425-6.425c-18.9 21.16-29.38 48.395-29.53 76.855-.155 28.435 10 55.755 28.625 77.095l7.08-7.08c.54-.54 1.415-.54 1.96 0l9.675 9.67c.26.26.405.61.405.98s-.145.72-.405.98l-24.555 24.555c-.26.26-.61.405-.98.405l.005.005Zm-7.715-11.055 7.715 7.715 22.595-22.595-7.715-7.715-7.145 7.145a1.42 1.42 0 0 1-1.015.405c-.38-.01-.74-.175-.995-.46-19.7-22.01-30.46-50.44-30.3-80.055.16-29.635 11.25-57.97 31.23-79.785.255-.28.615-.44.99-.45a1.4 1.4 0 0 1 1.01.405l6.475 6.475 7.715-7.715L262.58 95.86l-7.715 7.715 6.235 6.235a1.38 1.38 0 0 1-.045 2c-21.78 19.95-50.07 31.04-79.655 31.23-29.56.21-57.97-10.515-79.985-30.135a1.407 1.407 0 0 1-.465-.995c-.01-.38.135-.75.405-1.02l7.13-7.13-7.715-7.715-22.595 22.595 7.715 7.715 6.455-6.455a1.388 1.388 0 0 1 2.015.06c19.435 21.805 30.135 49.945 30.13 79.235-.005 29.29-10.715 57.425-30.155 79.23-.255.285-.615.45-.995.46-.38 0-.75-.135-1.02-.405l-6.18-6.18-7.715 7.715 22.595 22.595 7.715-7.715-6.415-6.415a1.391 1.391 0 0 1 .055-2.015A118.775 118.775 0 0 1 181.72 256.3c29.33.025 57.49 10.785 79.3 30.305a1.383 1.383 0 0 1 .055 2.01l-6.465 6.465.005.005Z"/><path fill="#fff" d="M186.675 235.27c20.526 0 37.165-16.639 37.165-37.165s-16.639-37.165-37.165-37.165-37.165 16.639-37.165 37.165 16.639 37.165 37.165 37.165Z"/><path fill="#222" d="M182.59 239.11c-20.915 0-37.93-17.015-37.93-37.93s17.015-37.93 37.93-37.93 37.93 17.015 37.93 37.93-17.015 37.93-37.93 37.93Zm0-73.095c-19.39 0-35.16 15.775-35.16 35.16 0 19.385 15.775 35.165 35.16 35.165 19.385 0 35.165-15.775 35.165-35.165s-15.775-35.16-35.165-35.16Z"/><path fill="#222" d="M193.08 195.16h-2.77v40.725h2.77V195.16Z"/><path fill="#222" d="m183.24 189.046-1.308 2.442 36.546 19.588 1.309-2.442-36.547-19.588ZM173.98 165.835h-2.77v41.945h2.77v-41.945Z"/><path fill="#222" d="m207.33 173.763-34.758 20.425 1.403 2.388 34.758-20.425-1.403-2.388ZM147.843 191.074l-1.414 2.382 34.664 20.565 1.413-2.382-34.663-20.565Z"/><path fill="#222" d="m191.602 204.954-36.278 20.684 1.372 2.406 36.278-20.684-1.372-2.406Z"/><path fill="#444" d="m258.195 91.94-8.975 4.645v90.19l118.65 17.905 8.42-7.525v-94.55L258.195 91.94Z"/><path fill="#222" d="M367.87 206.066c-.07 0-.14-.005-.205-.015l-118.65-17.905a1.388 1.388 0 0 1-1.18-1.37v-90.19c0-.515.29-.99.75-1.23l8.975-4.65c.235-.12.5-.175.76-.15l118.1 10.665c.715.065 1.26.66 1.26 1.38v94.555c0 .395-.17.77-.46 1.03l-8.425 7.52c-.255.23-.585.35-.92.35l-.005.01Zm-117.265-20.48 116.83 17.63 7.475-6.675v-92.67L258.475 93.356l-7.87 4.075v88.155Z"/><path fill="#fff" d="M249.22 96.586v90.19l118.65 17.905v-97.13L249.22 96.586Z"/><path fill="#222" d="M367.87 206.066c-.07 0-.14-.005-.205-.015l-118.65-17.905a1.388 1.388 0 0 1-1.18-1.37v-90.19c0-.39.165-.76.45-1.025.29-.26.67-.39 1.06-.355l118.65 10.965c.71.065 1.255.665 1.255 1.38v97.125c0 .405-.175.785-.48 1.05a1.406 1.406 0 0 1-.905.335l.005.005Zm-117.265-20.48 115.885 17.485v-94.255l-115.885-10.71v87.48Z"/><path fill="#DADADA" d="m324.685 130.881-5.51-10.765-25.395-2.53-5.85 9.405-21.185-2.24v48.85l80.855 11.045v-51.34l-22.915-2.425Z"/><path fill="#222" d="M347.6 186.031c-.06 0-.125 0-.185-.015l-80.86-11.045a1.384 1.384 0 0 1-1.195-1.37v-48.85a1.384 1.384 0 0 1 1.53-1.375l20.32 2.15 5.395-8.67c.28-.45.79-.7 1.31-.645l25.395 2.525c.47.045.88.33 1.095.745l5.17 10.1 22.17 2.345c.705.075 1.24.67 1.24 1.375v51.345c0 .4-.175.78-.475 1.045-.255.22-.58.34-.91.34Zm-79.475-13.64 78.09 10.67v-48.51l-21.68-2.295a1.38 1.38 0 0 1-1.085-.745l-5.165-10.095-23.785-2.365-5.395 8.675c-.28.45-.795.7-1.32.645l-19.655-2.08v46.1h-.005Z"/><path fill="#222" d="M320.695 153.56c0 8.095-6.355 13.835-14.12 12.835-7.695-.99-13.88-8.235-13.88-16.19 0-7.955 6.185-13.72 13.88-12.865 7.77.86 14.12 8.13 14.12 16.22ZM367.87 108.935a1.385 1.385 0 0 1-.705-2.58l8.425-4.95a1.39 1.39 0 0 1 1.895.49 1.39 1.39 0 0 1-.49 1.895l-8.425 4.95c-.22.13-.46.19-.7.19v.005Z"/></svg>