<svg xmlns="http://www.w3.org/2000/svg" width="400" height="401" fill="none" viewBox="0 0 400 401"><path fill="#DADADA" d="M287.105 166.306c25.565 0 46.29-20.725 46.29-46.29 0-25.566-20.725-46.29-46.29-46.29-25.565 0-46.29 20.724-46.29 46.29 0 25.565 20.725 46.29 46.29 46.29Z"/><path fill="#222" d="M287.105 167.671c-12.21 0-24.415-4.645-33.71-13.94-18.585-18.59-18.585-48.835 0-67.42 18.59-18.585 48.835-18.585 67.42 0 18.585 18.59 18.585 48.835 0 67.42-9.295 9.295-21.505 13.94-33.71 13.94Zm0-92.535c-11.5 0-23 4.375-31.755 13.13-17.51 17.51-17.51 46 0 63.505 17.505 17.51 45.995 17.51 63.505 0 17.505-17.51 17.505-46 0-63.505-8.755-8.755-20.255-13.13-31.755-13.13h.005Z"/><path fill="#DADADA" d="M109.71 164.46c25.565 0 46.29-20.725 46.29-46.29 0-25.565-20.725-46.29-46.29-46.29-25.565 0-46.29 20.725-46.29 46.29 0 25.565 20.725 46.29 46.29 46.29Z"/><path fill="#222" d="M109.71 165.845c-12.735 0-24.705-4.96-33.71-13.965-9.005-9.005-13.965-20.975-13.965-33.71S66.995 93.465 76 84.46c9.005-9.005 20.975-13.965 33.71-13.965s24.705 4.96 33.71 13.965c9.005 9.005 13.965 20.975 13.965 33.71s-4.96 24.705-13.965 33.71c-9.005 9.005-20.975 13.965-33.71 13.965Zm0-92.58c-11.995 0-23.27 4.67-31.755 13.155-8.48 8.48-13.155 19.76-13.155 31.755 0 11.995 4.67 23.27 13.155 31.755 8.48 8.48 19.76 13.155 31.755 13.155 11.995 0 23.27-4.67 31.755-13.155 8.48-8.48 13.155-19.76 13.155-31.755 0-11.995-4.67-23.27-13.155-31.755-8.48-8.48-19.76-13.155-31.755-13.155Z"/><path fill="#DADADA" d="M287.105 338.211c25.565 0 46.29-20.725 46.29-46.29 0-25.565-20.725-46.29-46.29-46.29-25.565 0-46.29 20.725-46.29 46.29 0 25.565 20.725 46.29 46.29 46.29Z"/><path fill="#222" d="M287.105 339.57c-12.21 0-24.415-4.645-33.71-13.94-18.585-18.59-18.585-48.835 0-67.42 18.59-18.585 48.835-18.585 67.42 0 18.585 18.59 18.585 48.835 0 67.42-9.295 9.295-21.505 13.94-33.71 13.94Zm0-92.535c-11.5 0-23 4.375-31.755 13.13-17.51 17.51-17.51 46 0 63.505 17.505 17.51 45.995 17.51 63.505 0 17.505-17.51 17.505-46 0-63.505-8.755-8.755-20.255-13.13-31.755-13.13h.005Z"/><path fill="#DADADA" d="M109.71 338.211c25.565 0 46.29-20.725 46.29-46.29 0-25.565-20.725-46.29-46.29-46.29-25.565 0-46.29 20.725-46.29 46.29 0 25.565 20.725 46.29 46.29 46.29Z"/><path fill="#222" d="M109.71 339.571c-12.21 0-24.415-4.645-33.71-13.94-18.59-18.59-18.59-48.835 0-67.42 18.59-18.59 48.835-18.59 67.42 0 18.59 18.59 18.59 48.835 0 67.42-9.295 9.295-21.5 13.94-33.71 13.94Zm0-92.535c-11.5 0-23 4.375-31.755 13.13-17.51 17.51-17.51 46 0 63.505 17.51 17.51 46 17.51 63.505 0 17.51-17.51 17.51-46 0-63.505-8.755-8.755-20.255-13.13-31.755-13.13h.005Z"/><path fill="#DADADA" d="M283.916 285.554c-40.235-44.955-39.93-113.38.92-157.98l7.455 7.455 9.675-9.675-24.555-24.555-9.675 9.675 7.215 7.215c-44.535 40.79-112.815 41.16-157.79 1.08l8.11-8.11-9.675-9.675-24.555 24.555 9.675 9.675 7.435-7.435c39.72 44.56 39.705 112.065-.025 156.62l-7.16-7.155-9.675 9.675 24.555 24.555 9.675-9.675-7.395-7.395c44.63-39.8 112.225-39.755 156.8.135l-7.445 7.445 9.675 9.675 24.555-24.555-9.675-9.675-8.125 8.125h.005Z"/><path fill="#222" d="m277.161 313.614-11.63-11.63 7.38-7.38c-21.145-18.45-48.205-28.61-76.36-28.63h-.095c-28.12 0-55.15 10.105-76.305 28.495l7.33 7.33-11.63 11.63-26.51-26.51 11.63-11.63 7.095 7.095c18.375-21.14 28.48-48.17 28.485-76.285.005-28.12-10.09-55.15-28.46-76.29l-7.37 7.37-11.63-11.63 26.51-26.51 11.63 11.63-8.045 8.045c21.16 18.385 48.16 28.47 76.275 28.47h.75c28.415-.18 55.605-10.66 76.73-29.535l-7.165-7.165 11.63-11.63 26.51 26.51-11.63 11.63-7.405-7.405c-18.9 21.16-29.38 48.395-29.53 76.855-.155 28.436 10 55.755 28.625 77.095l8.06-8.06 11.63 11.63-26.51 26.51.005-.005Zm-7.715-11.63 7.715 7.715 22.595-22.595-7.715-7.715-8.18 8.18-.975-1.09c-19.7-22.01-30.46-50.44-30.3-80.055.16-29.635 11.25-57.97 31.23-79.785l.975-1.065 7.5 7.5 7.715-7.715-22.595-22.595-7.715 7.715 7.26 7.26-1.065.975c-21.78 19.95-50.07 31.04-79.655 31.23h-.77c-29.285 0-57.39-10.685-79.215-30.14l-1.095-.975 8.165-8.165-7.715-7.715-22.595 22.595 7.715 7.715 7.495-7.495.975 1.095c19.435 21.805 30.135 49.945 30.13 79.235-.005 29.29-10.715 57.426-30.16 79.23l-.975 1.095-7.215-7.215-7.715 7.715 22.595 22.595 7.715-7.715-7.455-7.45 1.095-.975c21.815-19.455 49.955-30.165 79.245-30.165h.095c29.33.025 57.495 10.785 79.305 30.305l1.09.975-7.5 7.5v-.005Z"/><path fill="#F5F4F3" d="M291.03 157.679c25.565 0 46.29-20.725 46.29-46.29 0-25.566-20.725-46.29-46.29-46.29-25.565 0-46.29 20.724-46.29 46.29 0 25.565 20.725 46.29 46.29 46.29Z"/><path fill="#222" d="M291.03 159.039c-12.21 0-24.415-4.645-33.71-13.94-18.59-18.59-18.59-48.835 0-67.42 18.59-18.59 48.835-18.59 67.42 0 18.59 18.59 18.59 48.835 0 67.42-9.295 9.295-21.5 13.94-33.71 13.94Zm0-92.535c-11.5 0-23 4.375-31.755 13.13-17.51 17.51-17.51 46 0 63.505 17.51 17.51 46 17.51 63.505 0 17.51-17.51 17.51-46 0-63.505-8.755-8.755-20.255-13.13-31.755-13.13h.005Z"/><path fill="#F5F4F3" d="M114.96 333.749c25.565 0 46.29-20.725 46.29-46.29 0-25.565-20.725-46.29-46.29-46.29-25.565 0-46.29 20.725-46.29 46.29 0 25.565 20.725 46.29 46.29 46.29Z"/><path fill="#222" d="M114.96 335.109c-12.21 0-24.415-4.645-33.71-13.94-18.59-18.59-18.59-48.835 0-67.42 18.59-18.59 48.835-18.59 67.42 0 18.59 18.59 18.59 48.835 0 67.42-9.295 9.295-21.5 13.94-33.71 13.94Zm0-92.535c-11.5 0-23 4.375-31.755 13.13-17.51 17.51-17.51 46 0 63.505 17.51 17.51 46 17.51 63.505 0 17.51-17.51 17.51-46 0-63.505-8.755-8.755-20.255-13.13-31.755-13.13h.005Z"/><path fill="#F5F4F3" d="M291.031 333.749c25.565 0 46.29-20.725 46.29-46.29 0-25.565-20.725-46.29-46.29-46.29-25.566 0-46.29 20.725-46.29 46.29 0 25.565 20.724 46.29 46.29 46.29Z"/><path fill="#222" d="M291.031 335.109c-12.21 0-24.415-4.645-33.71-13.94-18.585-18.59-18.585-48.835 0-67.42 18.59-18.59 48.835-18.59 67.425 0 18.59 18.59 18.59 48.835 0 67.42-9.295 9.295-21.505 13.94-33.71 13.94h-.005Zm0-92.535c-11.5 0-23 4.375-31.755 13.13-17.51 17.51-17.51 46 0 63.505 8.755 8.755 20.255 13.13 31.755 13.13s23-4.375 31.755-13.13c17.51-17.51 17.51-46 0-63.505-8.755-8.755-20.255-13.13-31.755-13.13Z"/><path fill="#F5F4F3" d="M114.96 157.679c25.565 0 46.29-20.725 46.29-46.29 0-25.566-20.725-46.29-46.29-46.29-25.565 0-46.29 20.724-46.29 46.29 0 25.565 20.725 46.29 46.29 46.29Z"/><path fill="#222" d="M114.96 159.039c-12.21 0-24.415-4.645-33.71-13.94-18.59-18.59-18.59-48.835 0-67.42 18.59-18.59 48.835-18.59 67.42 0 18.59 18.59 18.59 48.835 0 67.42-9.295 9.295-21.5 13.94-33.71 13.94Zm0-92.535c-11.5 0-23 4.375-31.755 13.13-17.51 17.51-17.51 46 0 63.505 17.51 17.51 46 17.51 63.505 0 17.51-17.51 17.51-46 0-63.505-8.755-8.755-20.255-13.13-31.755-13.13h.005ZM293.245 65.1h-3.69v17.255h3.69V65.1ZM293.245 139.68h-3.69v17.255h3.69V139.68ZM337.32 109.17h-17.255v3.69h17.255v-3.69ZM262.74 109.17h-17.255v3.69h17.255v-3.69ZM293.245 241.975h-3.69v17.255h3.69v-17.255ZM293.245 316.56h-3.69v17.255h3.69V316.56ZM337.32 286.05h-17.255v3.69h17.255v-3.69ZM262.74 286.05h-17.255v3.69h17.255v-3.69Z"/><path fill="#222" d="M116.555 65.1h-3.69v17.255h3.69V65.1ZM116.555 139.68h-3.69v17.255h3.69V139.68ZM160.63 109.17h-17.255v3.69h17.255v-3.69ZM86.05 109.17H68.795v3.69H86.05v-3.69ZM116.555 241.975h-3.69v17.255h3.69v-17.255ZM116.555 316.56h-3.69v17.255h3.69V316.56ZM160.63 286.05h-17.255v3.69h17.255v-3.69ZM86.05 286.05H68.795v3.69H86.05v-3.69Z"/><path fill="#FF3158" d="M290.47 278.654c-40.235-44.955-39.93-113.38.92-157.98l7.455 7.455 9.675-9.675-24.555-24.555-9.675 9.675 7.215 7.215c-44.535 40.79-112.815 41.16-157.79 1.08l8.11-8.11-9.675-9.675-24.555 24.555 9.675 9.675 7.435-7.435c39.72 44.56 39.705 112.065-.025 156.62l-7.16-7.155-9.675 9.675 24.555 24.555 9.675-9.675-7.395-7.395c44.63-39.8 112.225-39.755 156.8.135l-7.445 7.445 9.675 9.675 24.555-24.555-9.675-9.675-8.125 8.125h.005Z"/><path fill="#222" d="M283.71 306.139c-.355 0-.71-.135-.98-.405l-9.675-9.675a1.38 1.38 0 0 1-.405-.98c0-.37.145-.72.405-.98l6.4-6.4c-21.145-18.45-48.205-28.61-76.36-28.63H203c-28.12 0-55.15 10.105-76.305 28.495l6.35 6.35c.26.26.405.61.405.98s-.145.72-.405.98l-9.675 9.675c-.52.52-1.44.52-1.96 0l-24.555-24.555a1.388 1.388 0 0 1 0-1.96l9.67-9.67c.54-.54 1.415-.54 1.96 0l6.115 6.115c18.375-21.14 28.48-48.17 28.485-76.285.005-28.12-10.09-55.15-28.46-76.29l-6.395 6.395c-.52.52-1.44.52-1.96 0l-9.67-9.675a1.382 1.382 0 0 1 0-1.955l24.555-24.555c.52-.52 1.44-.52 1.96 0l9.675 9.675c.54.54.54 1.415 0 1.96l-7.065 7.065c21.35 18.55 48.64 28.655 77.025 28.465 28.415-.18 55.605-10.66 76.73-29.535l-6.185-6.185a1.388 1.388 0 0 1 0-1.96l9.675-9.675c.52-.52 1.44-.52 1.96 0l24.555 24.555c.54.54.54 1.415 0 1.96l-9.675 9.675c-.54.54-1.415.54-1.96 0l-6.425-6.425c-18.9 21.16-29.375 48.395-29.53 76.855-.155 28.435 10 55.755 28.625 77.095l7.085-7.08c.54-.54 1.415-.54 1.96 0l9.67 9.675c.54.54.54 1.415 0 1.96l-24.555 24.555c-.27.27-.625.405-.98.405l.01-.015Zm-7.715-11.055 7.715 7.715 22.595-22.595-7.715-7.715-7.145 7.145a1.383 1.383 0 0 1-2.01-.055c-19.7-22.01-30.46-50.44-30.3-80.055.16-29.635 11.25-57.97 31.23-79.785.255-.28.615-.44.99-.45.385-.015.74.14 1.01.405l6.475 6.48 7.715-7.715-22.595-22.595-7.715 7.715 6.235 6.235a1.38 1.38 0 0 1-.045 2c-21.78 19.95-50.07 31.04-79.655 31.23h-.77c-29.285 0-57.39-10.685-79.215-30.14a1.407 1.407 0 0 1-.465-.995c-.01-.38.135-.75.405-1.02l7.13-7.13-7.715-7.715-22.595 22.595 7.715 7.715 6.455-6.46c.27-.27.645-.4 1.02-.405.38.01.74.18.995.465 19.435 21.805 30.135 49.945 30.13 79.235-.005 29.29-10.715 57.425-30.16 79.23-.255.285-.615.45-.995.46a1.44 1.44 0 0 1-1.02-.405l-6.18-6.18-7.715 7.715 22.595 22.595 7.715-7.715-6.415-6.415a1.391 1.391 0 0 1 .055-2.015c21.815-19.455 49.955-30.165 79.245-30.165h.095c29.33.025 57.49 10.785 79.3 30.305a1.383 1.383 0 0 1 .055 2.01l-6.465 6.465.015.01Z"/><path fill="#fff" d="M208.055 235.27c20.526 0 37.165-16.639 37.165-37.165 0-20.525-16.639-37.165-37.165-37.165s-37.165 16.64-37.165 37.165c0 20.526 16.639 37.165 37.165 37.165Z"/><path fill="#222" d="M203.97 239.111c-20.915 0-37.93-17.015-37.93-37.93s17.015-37.93 37.93-37.93 37.93 17.015 37.93 37.93-17.015 37.93-37.93 37.93Zm0-73.095c-19.39 0-35.16 15.775-35.16 35.165s15.775 35.16 35.16 35.16c19.385 0 35.165-15.775 35.165-35.16 0-19.385-15.775-35.165-35.165-35.165Z"/><path fill="#222" d="M214.46 195.161h-2.77v40.725h2.77v-40.725Z"/><path fill="#222" d="m204.619 189.053-1.308 2.441 36.546 19.588 1.309-2.441-36.547-19.588ZM195.36 165.836h-2.77v41.945h2.77v-41.945Z"/><path fill="#222" d="m228.719 173.744-34.762 20.428 1.403 2.388 34.762-20.427-1.403-2.389ZM169.224 191.077l-1.413 2.382 34.663 20.565 1.413-2.382-34.663-20.565Z"/><path fill="#222" d="m212.986 204.959-36.281 20.678 1.371 2.406 36.281-20.677-1.371-2.407Z"/></svg>