<svg xmlns="http://www.w3.org/2000/svg" width="400" height="401" fill="none" viewBox="0 0 400 401"><path fill="#fff" d="M277.356 108.65h-174.13v147.02h174.13V108.65Z"/><path fill="#222" d="M277.35 257.051H103.22c-.765 0-1.38-.621-1.38-1.386V108.651c0-.765.62-1.38 1.38-1.38h174.13c.765 0 1.38.62 1.38 1.38v147.014c0 .765-.62 1.386-1.38 1.386Zm-172.745-2.765H275.97V110.031H104.605v144.255Z"/><path fill="#444" d="M115.995 95.875H90.45v25.545h25.545V95.875Z"/><path fill="#222" d="M115.995 122.805H90.45a1.38 1.38 0 0 1-1.38-1.38V95.88c0-.765.62-1.38 1.38-1.38h25.545c.765 0 1.38.62 1.38 1.38v25.545c0 .765-.62 1.38-1.38 1.38ZM91.83 120.04h22.78V97.26H91.83v22.78Z"/><path fill="#444" d="M290.125 95.875H264.58v25.545h25.545V95.875Z"/><path fill="#222" d="M290.125 122.805H264.58a1.38 1.38 0 0 1-1.38-1.38V95.88c0-.765.62-1.38 1.38-1.38h25.545c.765 0 1.38.62 1.38 1.38v25.545c0 .765-.62 1.38-1.38 1.38Zm-24.165-2.765h22.78V97.26h-22.78v22.78Z"/><path fill="#fff" d="M290.125 242.895H264.58v25.545h25.545v-25.545Z"/><path fill="#222" d="M290.125 269.825H264.58a1.38 1.38 0 0 1-1.38-1.385v-25.545c0-.765.62-1.38 1.38-1.38h25.545c.765 0 1.38.62 1.38 1.38v25.545c0 .765-.62 1.385-1.38 1.385Zm-24.165-2.765h22.78v-22.78h-22.78v22.78Z"/><path fill="#FF3158" d="m212.433 83.407-47.446 109.905 27.442 11.847 47.447-109.905-27.443-11.847Z"/><path fill="#222" d="M192.43 206.53c-.185 0-.37-.035-.545-.115l-27.445-11.84a1.386 1.386 0 0 1-.72-1.82L211.16 82.85a1.38 1.38 0 0 1 1.815-.72l27.445 11.84a1.386 1.386 0 0 1 .72 1.82L193.7 205.695c-.225.52-.735.835-1.27.835Zm-25.63-13.945 24.91 10.745 46.345-107.37-24.91-10.745-46.345 107.37Z"/><path fill="#fff" d="m217.199 72.276-4.792 11.11 27.446 11.838 4.792-11.11-27.446-11.838Z"/><path fill="#222" d="M239.87 96.62c-.185 0-.375-.04-.545-.115l-27.445-11.84a1.378 1.378 0 0 1-.72-1.815l4.79-11.11a1.386 1.386 0 0 1 1.82-.72l27.445 11.84c.7.3 1.025 1.115.72 1.815l-4.79 11.11a1.386 1.386 0 0 1-1.27.835h-.005Zm-25.63-13.945 24.91 10.745 3.695-8.57-24.91-10.745-3.695 8.57Z"/><path fill="#FF3158" d="M253.26 64.19a6.066 6.066 0 0 0-3.165-7.97l-16.315-7.04a6.059 6.059 0 0 0-7.965 3.166l-8.6 19.94 27.445 11.84 8.6-19.94v.005Z"/><path fill="#222" d="M244.66 85.51c-.185 0-.37-.035-.545-.115l-27.445-11.84a1.386 1.386 0 0 1-.72-1.82l8.6-19.94a7.415 7.415 0 0 1 4.085-3.97 7.376 7.376 0 0 1 5.695.085l16.315 7.04c3.77 1.625 5.515 6.015 3.89 9.785l-8.6 19.94a1.378 1.378 0 0 1-1.27.835h-.005Zm-25.63-13.945 24.91 10.745 8.055-18.67a4.685 4.685 0 0 0-2.445-6.15l-16.315-7.04a4.63 4.63 0 0 0-3.58-.05 4.659 4.659 0 0 0-2.57 2.495l-8.055 18.67Z"/><path fill="#fff" d="m164.98 193.305-2.925 44.515 30.375-32.675-27.45-11.84Z"/><path fill="#222" d="M162.055 239.2c-.185 0-.37-.035-.545-.115-.54-.23-.87-.775-.83-1.36l2.925-44.515c.03-.45.275-.855.66-1.09.385-.235.855-.27 1.27-.09l27.445 11.84c.415.18.715.545.805.985.09.44-.035.895-.34 1.225l-30.37 32.675c-.27.285-.635.44-1.015.44l-.005.005Zm4.175-43.85-2.54 38.68 26.39-28.39-23.85-10.29Z"/><path fill="#222" d="m163.52 215.561-1.465 22.26 15.19-16.34-13.725-5.92Z"/><path fill="#222" d="M162.055 239.2c-.185 0-.37-.035-.545-.115a1.379 1.379 0 0 1-.83-1.36l1.465-22.26c.03-.45.275-.855.66-1.09.385-.235.855-.27 1.27-.09l13.725 5.92c.415.18.715.545.805.985.09.44-.035.895-.34 1.225l-15.19 16.34c-.27.285-.635.44-1.015.44l-.005.005Zm2.715-21.595-1.08 16.425 11.21-12.055-10.13-4.37Z"/><path fill="#444" d="M115.995 242.895H90.45v25.545h25.545v-25.545Z"/><path fill="#222" d="M115.995 269.825H90.45a1.38 1.38 0 0 1-1.38-1.385v-25.545c0-.765.62-1.38 1.38-1.38h25.545c.765 0 1.38.62 1.38 1.38v25.545c0 .765-.62 1.385-1.38 1.385ZM91.83 267.06h22.78v-22.78H91.83v22.78Z"/><path fill="#FF3158" d="m349.285 311.08-72.935-56.375 16.68 90.665 14.925-30.545 17.84 29.27 7.345-4.475-17.84-29.27 33.985.73Z"/><path fill="#222" d="M293.03 346.751c-.06 0-.125 0-.19-.015a1.374 1.374 0 0 1-1.17-1.12l-16.68-90.665a1.375 1.375 0 0 1 .64-1.43 1.38 1.38 0 0 1 1.565.085l72.94 56.375a1.38 1.38 0 0 1-.845 2.475h-.03l-31.465-.68 16.525 27.115c.19.315.25.69.165 1.045-.085.355-.31.665-.625.855l-7.345 4.475c-.655.4-1.5.19-1.9-.46l-16.525-27.115-13.815 28.275c-.235.48-.72.775-1.24.775l-.005.01Zm14.925-33.31c.48 0 .93.25 1.18.665l17.12 28.09 4.98-3.035-17.12-28.09c-.265-.43-.27-.97-.02-1.41.25-.435.73-.71 1.23-.69l29.79.64-66.76-51.6 15.27 82.98 13.085-26.775c.22-.455.675-.75 1.18-.775h.065Z"/></svg>