<svg xmlns="http://www.w3.org/2000/svg" width="400" height="400" fill="none" viewBox="0 0 400 400"><path fill="#DADADA" d="m316.791 262.79 26.135 20.2 24.45-53.62h-63.355v10.96h12.77v22.46ZM305.546 265.88h-14.3v-12.775h-148.58v12.775h-25.55v-25.55h12.775v-10.96H76.366l-34.515 75.7h270.905l-7.21-39.19Z"/><path fill="#fff" d="M294.795 111.62h-174.13v147.02h174.13V111.62Z"/><path fill="#222" d="M294.795 260.02h-174.13c-.765 0-1.385-.62-1.385-1.385V111.62c0-.765.62-1.38 1.385-1.38h174.13c.765 0 1.385.62 1.385 1.38v147.02c0 .765-.62 1.385-1.385 1.385v-.005Zm-172.745-2.765h171.365v-144.25H122.05V257.26v-.005Z"/><path fill="#DADADA" d="M133.44 98.85h-25.545v25.545h25.545V98.85Z"/><path fill="#222" d="M133.44 125.775h-25.545c-.765 0-1.385-.62-1.385-1.38V98.85c0-.765.62-1.38 1.385-1.38h25.545c.765 0 1.385.62 1.385 1.38v25.545c0 .765-.62 1.38-1.385 1.38Zm-24.165-2.765h22.78v-22.78h-22.78v22.78Z"/><path fill="#DADADA" d="M307.565 98.85H282.02v25.545h25.545V98.85Z"/><path fill="#222" d="M307.565 125.775H282.02c-.765 0-1.385-.62-1.385-1.38V98.85c0-.765.62-1.38 1.385-1.38h25.545c.765 0 1.385.62 1.385 1.38v25.545c0 .765-.62 1.38-1.385 1.38ZM283.4 123.01h22.78v-22.78H283.4v22.78Z"/><path fill="#fff" d="M307.565 245.865H282.02v25.545h25.545v-25.545Z"/><path fill="#222" d="M307.565 272.795H282.02c-.765 0-1.385-.62-1.385-1.385v-25.545c0-.765.62-1.385 1.385-1.385h25.545c.765 0 1.385.62 1.385 1.385v25.545c0 .765-.62 1.385-1.385 1.385ZM283.4 270.03h22.78v-22.78H283.4v22.78Z"/><path fill="#FF3158" d="m229.884 86.38-47.446 109.906 27.442 11.847 47.446-109.906-27.442-11.847Z"/><path fill="#222" d="M209.871 209.5c-.185 0-.37-.035-.545-.115l-27.445-11.84a1.386 1.386 0 0 1-.72-1.82l47.44-109.905c.3-.7 1.115-1.025 1.815-.72l27.445 11.84a1.386 1.386 0 0 1 .72 1.82l-47.44 109.905c-.225.52-.735.835-1.27.835Zm-25.63-13.945 24.91 10.745 46.345-107.37-24.91-10.746-46.345 107.371Z"/><path fill="#fff" d="m234.643 75.247-4.791 11.11 27.446 11.838 4.792-11.11-27.447-11.838Z"/><path fill="#222" d="M257.311 99.595c-.185 0-.375-.04-.55-.115l-27.445-11.84a1.378 1.378 0 0 1-.72-1.815l4.79-11.11a1.386 1.386 0 0 1 1.82-.72l27.445 11.84c.7.3 1.025 1.115.72 1.815l-4.79 11.11a1.386 1.386 0 0 1-1.27.835Zm-25.63-13.945 24.91 10.745 3.695-8.57-24.91-10.745-3.695 8.57Z"/><path fill="#FF3158" d="M270.706 67.16a6.066 6.066 0 0 0-3.165-7.97l-16.315-7.04a6.059 6.059 0 0 0-7.965 3.165l-8.6 19.94 27.445 11.84 8.6-19.94v.005Z"/><path fill="#222" d="M262.101 88.485c-.185 0-.37-.035-.545-.115l-27.445-11.84a1.386 1.386 0 0 1-.72-1.82l8.6-19.94c1.625-3.77 6.015-5.515 9.785-3.885l16.315 7.04c3.77 1.625 5.515 6.015 3.89 9.785l-8.6 19.94a1.378 1.378 0 0 1-1.27.835h-.01Zm-25.63-13.945 24.91 10.745 8.055-18.67a4.685 4.685 0 0 0-2.445-6.15l-16.315-7.04a4.685 4.685 0 0 0-6.15 2.445l-8.055 18.67Z"/><path fill="#fff" d="m182.427 196.275-2.925 44.515 30.37-32.675-27.445-11.84Z"/><path fill="#222" d="M179.501 242.175c-.185 0-.37-.035-.545-.115a1.379 1.379 0 0 1-.83-1.36l2.925-44.515c.03-.45.275-.855.66-1.09.385-.235.855-.27 1.27-.09l27.445 11.84c.415.18.715.545.805.985.095.44-.035.895-.34 1.225l-30.37 32.675c-.265.29-.635.44-1.015.44l-.005.005Zm4.175-43.85-2.54 38.68 26.39-28.39-23.85-10.29Z"/><path fill="#222" d="m180.962 218.53-1.46 22.26 15.19-16.34-13.73-5.92Z"/><path fill="#222" d="M179.501 242.175c-.185 0-.37-.035-.545-.115a1.379 1.379 0 0 1-.83-1.36l1.465-22.26c.03-.45.275-.855.66-1.09.385-.235.855-.27 1.27-.09l13.725 5.92c.415.18.715.545.805.985.095.44-.035.895-.34 1.225l-15.19 16.34c-.265.29-.635.44-1.015.44l-.005.005Zm2.715-21.595-1.08 16.425 11.21-12.055-10.13-4.37Z"/><path fill="#DADADA" d="M133.44 245.865h-25.545v25.545h25.545v-25.545Z"/><path fill="#222" d="M133.44 272.795h-25.545c-.765 0-1.385-.62-1.385-1.385v-25.545c0-.765.62-1.385 1.385-1.385h25.545c.765 0 1.385.62 1.385 1.385v25.545c0 .765-.62 1.385-1.385 1.385Zm-24.165-2.765h22.78v-22.78h-22.78v22.78Z"/><path fill="#222" d="M333.7 289.91c-.305 0-.6-.1-.845-.29l-26.135-20.2a1.374 1.374 0 0 1-.535-1.095V247.25h-11.39c-.765 0-1.385-.62-1.385-1.385v-10.96c0-.765.62-1.385 1.385-1.385h63.355c.47 0 .91.24 1.165.635s.29.895.095 1.32l-24.45 53.62a1.39 1.39 0 0 1-1.255.81l-.005.005Zm-24.75-22.26 24.215 18.72L356 236.295h-59.825v8.195h11.39c.765 0 1.385.62 1.385 1.385v21.78-.005ZM303.53 311.985H32.625c-.47 0-.91-.24-1.165-.635a1.38 1.38 0 0 1-.095-1.32l34.515-75.7a1.38 1.38 0 0 1 1.26-.81h53.525c.765 0 1.385.62 1.385 1.385v10.96c0 .765-.62 1.385-1.385 1.385h-11.39v22.78h22.78v-11.39c0-.765.62-1.385 1.385-1.385h148.58c.765 0 1.385.62 1.385 1.385v11.39h12.915c.665 0 1.24.475 1.36 1.13l7.21 39.19c.075.405-.035.82-.295 1.135-.26.315-.65.5-1.06.5h-.005ZM34.775 309.22H301.87l-6.7-36.425h-13.145c-.765 0-1.385-.62-1.385-1.385v-11.39H134.82v11.39c0 .765-.62 1.385-1.385 1.385H107.89c-.765 0-1.385-.62-1.385-1.385v-25.545c0-.765.62-1.385 1.385-1.385h11.39v-8.195H68.025L34.77 309.22h.005Z" style="mix-blend-mode:multiply"/><path fill="#FF3158" d="m366.729 314.055-72.94-56.375 16.685 90.66 14.925-30.545 17.84 29.275 7.34-4.48-17.84-29.27 33.99.735Z"/><path fill="#222" d="M310.475 349.725c-.06 0-.125 0-.19-.015a1.376 1.376 0 0 1-1.171-1.12l-16.679-90.665a1.375 1.375 0 0 1 .64-1.43 1.38 1.38 0 0 1 1.565.085l72.939 56.375c.47.365.656.99.461 1.555s-.736.94-1.336.92l-31.465-.68 16.526 27.115c.395.65.19 1.505-.46 1.9l-7.346 4.475a1.374 1.374 0 0 1-1.899-.46l-16.525-27.115-13.815 28.275c-.235.48-.72.775-1.24.775l-.005.01Zm14.925-33.31c.48 0 .929.25 1.179.665l17.121 28.09 4.98-3.035-17.12-28.09c-.265-.43-.27-.97-.02-1.41.25-.44.704-.7 1.229-.69l29.791.64-66.761-51.6 15.271 82.98 13.079-26.775c.22-.455.675-.75 1.18-.775H325.4Z"/></svg>