<svg xmlns="http://www.w3.org/2000/svg" width="400" height="401" fill="none" viewBox="0 0 400 401"><path fill="#DADADA" d="M256.47 314.104H149.14l-7.04-7.035V80.554h101.42l12.95 7.04v226.51Z"/><path fill="#222" d="M256.47 315.489H149.14a1.39 1.39 0 0 1-.98-.405l-7.04-7.04a1.38 1.38 0 0 1-.405-.98V80.554c0-.765.62-1.385 1.385-1.385h101.42c.23 0 .46.06.66.17l12.945 7.04c.445.24.725.71.725 1.215v226.515c0 .765-.62 1.385-1.385 1.385l.005-.005Zm-106.755-2.77H255.09V88.414l-11.915-6.475H143.49v224.555l6.225 6.225Z"/><path fill="#F5F4F3" d="M256.47 87.995H150.38v226.11h106.09V87.995Z"/><path fill="#222" d="M256.47 315.49H150.38c-.765 0-1.385-.62-1.385-1.385V87.995c0-.765.62-1.385 1.385-1.385h106.09c.765 0 1.385.62 1.385 1.385v226.11c0 .765-.62 1.385-1.385 1.385Zm-104.705-2.77h103.32V89.38h-103.32v223.34Z"/><path fill="#222" d="M164.1 315.489c-.765 0-1.385-.62-1.385-1.385V87.994a1.385 1.385 0 1 1 2.77 0v226.11c0 .765-.62 1.385-1.385 1.385ZM183.76 315.489c-.765 0-1.385-.62-1.385-1.385V87.994a1.385 1.385 0 1 1 2.77 0v226.11c0 .765-.62 1.385-1.385 1.385ZM203.425 315.489c-.765 0-1.385-.62-1.385-1.385V87.994a1.385 1.385 0 1 1 2.77 0v226.11c0 .765-.62 1.385-1.385 1.385ZM223.085 315.489c-.765 0-1.385-.62-1.385-1.385V87.994a1.385 1.385 0 1 1 2.77 0v226.11c0 .765-.62 1.385-1.385 1.385ZM242.745 315.489c-.765 0-1.385-.62-1.385-1.385V87.994a1.385 1.385 0 1 1 2.77 0v226.11c0 .765-.62 1.385-1.385 1.385Z"/><path fill="#444" d="M350.215 314.105H256.47v-198.31l93.745 54.24v144.07Z"/><path fill="#222" d="M350.215 315.49h-93.75c-.765 0-1.385-.62-1.385-1.385v-198.31a1.388 1.388 0 0 1 2.08-1.2l93.75 54.24c.425.25.69.705.69 1.2v144.07c0 .765-.62 1.385-1.385 1.385Zm-92.365-2.77h90.98V170.835L257.85 118.2v194.525-.005Z"/><path fill="#fff" d="M282.605 172.884H269.37v20.86h13.235v-20.86Z"/><path fill="#222" d="M282.605 195.129H269.37c-.765 0-1.385-.62-1.385-1.385v-20.86c0-.765.62-1.385 1.385-1.385h13.235c.765 0 1.385.62 1.385 1.385v20.86c0 .765-.62 1.385-1.385 1.385Zm-11.85-2.77h10.465v-18.09h-10.465v18.09Z"/><path fill="#fff" d="M309.11 172.884h-13.235v20.86h13.235v-20.86Z"/><path fill="#222" d="M309.11 195.129h-13.235c-.765 0-1.385-.62-1.385-1.385v-20.86c0-.765.62-1.385 1.385-1.385h13.235c.765 0 1.385.62 1.385 1.385v20.86c0 .765-.62 1.385-1.385 1.385Zm-11.85-2.77h10.465v-18.09H297.26v18.09Z"/><path fill="#fff" d="M335.615 172.884H322.38v20.86h13.235v-20.86Z"/><path fill="#222" d="M335.615 195.129H322.38c-.765 0-1.385-.62-1.385-1.385v-20.86c0-.765.62-1.385 1.385-1.385h13.235c.765 0 1.385.62 1.385 1.385v20.86c0 .765-.62 1.385-1.385 1.385Zm-11.85-2.77h10.465v-18.09h-10.465v18.09Z"/><path fill="#fff" d="M282.605 204.52H269.37v20.86h13.235v-20.86Z"/><path fill="#222" d="M282.605 226.765H269.37c-.765 0-1.385-.62-1.385-1.385v-20.86c0-.765.62-1.385 1.385-1.385h13.235c.765 0 1.385.62 1.385 1.385v20.86c0 .765-.62 1.385-1.385 1.385Zm-11.85-2.77h10.465v-18.09h-10.465v18.09Z"/><path fill="#fff" d="M309.11 204.52h-13.235v20.86h13.235v-20.86Z"/><path fill="#222" d="M309.11 226.765h-13.235c-.765 0-1.385-.62-1.385-1.385v-20.86c0-.765.62-1.385 1.385-1.385h13.235c.765 0 1.385.62 1.385 1.385v20.86c0 .765-.62 1.385-1.385 1.385Zm-11.85-2.77h10.465v-18.09H297.26v18.09Z"/><path fill="#fff" d="M335.615 204.52H322.38v20.86h13.235v-20.86Z"/><path fill="#222" d="M335.615 226.765H322.38c-.765 0-1.385-.62-1.385-1.385v-20.86c0-.765.62-1.385 1.385-1.385h13.235c.765 0 1.385.62 1.385 1.385v20.86c0 .765-.62 1.385-1.385 1.385Zm-11.85-2.77h10.465v-18.09h-10.465v18.09Z"/><path fill="#fff" d="M282.605 236.96H269.37v20.86h13.235v-20.86Z"/><path fill="#222" d="M282.605 259.205H269.37c-.765 0-1.385-.62-1.385-1.385v-20.86c0-.765.62-1.385 1.385-1.385h13.235c.765 0 1.385.62 1.385 1.385v20.86c0 .765-.62 1.385-1.385 1.385Zm-11.85-2.77h10.465v-18.09h-10.465v18.09Z"/><path fill="#fff" d="M309.11 236.96h-13.235v20.86h13.235v-20.86Z"/><path fill="#222" d="M309.11 259.205h-13.235c-.765 0-1.385-.62-1.385-1.385v-20.86c0-.765.62-1.385 1.385-1.385h13.235c.765 0 1.385.62 1.385 1.385v20.86c0 .765-.62 1.385-1.385 1.385Zm-11.85-2.77h10.465v-18.09H297.26v18.09Z"/><path fill="#fff" d="M335.615 236.96H322.38v20.86h13.235v-20.86Z"/><path fill="#222" d="M335.615 259.205H322.38c-.765 0-1.385-.62-1.385-1.385v-20.86c0-.765.62-1.385 1.385-1.385h13.235c.765 0 1.385.62 1.385 1.385v20.86c0 .765-.62 1.385-1.385 1.385Zm-11.85-2.77h10.465v-18.09h-10.465v18.09Z"/><path fill="#fff" d="M282.605 269.395H269.37v20.86h13.235v-20.86Z"/><path fill="#222" d="M282.605 291.64H269.37c-.765 0-1.385-.62-1.385-1.385v-20.86c0-.765.62-1.385 1.385-1.385h13.235c.765 0 1.385.62 1.385 1.385v20.86c0 .765-.62 1.385-1.385 1.385Zm-11.85-2.77h10.465v-18.09h-10.465v18.09Z"/><path fill="#fff" d="M309.11 269.395h-13.235v20.86h13.235v-20.86Z"/><path fill="#222" d="M309.11 291.64h-13.235c-.765 0-1.385-.62-1.385-1.385v-20.86c0-.765.62-1.385 1.385-1.385h13.235c.765 0 1.385.62 1.385 1.385v20.86c0 .765-.62 1.385-1.385 1.385Zm-11.85-2.77h10.465v-18.09H297.26v18.09Z"/><path fill="#fff" d="M335.615 269.395H322.38v20.86h13.235v-20.86Z"/><path fill="#222" d="M335.615 291.64H322.38c-.765 0-1.385-.62-1.385-1.385v-20.86c0-.765.62-1.385 1.385-1.385h13.235c.765 0 1.385.62 1.385 1.385v20.86c0 .765-.62 1.385-1.385 1.385Zm-11.85-2.77h10.465v-18.09h-10.465v18.09Z"/><path fill="#DADADA" d="M169.195 314.104h-91.11l-7.04-7.035V137.314h85.2l12.95 7.04v169.75Z"/><path fill="#222" d="M169.195 315.49h-91.11a1.39 1.39 0 0 1-.98-.405l-7.035-7.04a1.38 1.38 0 0 1-.405-.98v-169.75c0-.765.62-1.385 1.385-1.385h85.2c.23 0 .46.06.66.17l12.945 7.035c.445.24.725.71.725 1.215v169.755c0 .765-.62 1.385-1.385 1.385Zm-90.535-2.77h89.155V145.175L155.9 138.7H72.43v167.795l6.225 6.225h.005Z"/><path fill="#FF3158" d="M169.195 144.354h-91.11v169.755h91.11V144.354Z"/><path fill="#222" d="M169.195 315.49h-91.11c-.765 0-1.385-.62-1.385-1.385v-169.75c0-.765.62-1.385 1.385-1.385h91.11c.765 0 1.385.62 1.385 1.385V314.11c0 .765-.62 1.385-1.385 1.385v-.005Zm-89.725-2.77h88.34V145.735H79.47V312.72Z"/><path fill="#fff" d="M117.765 154.795H92.59v20.86h25.175v-20.86Z"/><path fill="#222" d="M117.765 177.039H92.59c-.765 0-1.385-.62-1.385-1.385v-20.86c0-.765.62-1.385 1.385-1.385h25.175c.765 0 1.385.62 1.385 1.385v20.86c0 .765-.62 1.385-1.385 1.385Zm-23.79-2.77h22.405v-18.09H93.975v18.09Z"/><path fill="#fff" d="M154.69 154.795h-25.175v20.86h25.175v-20.86Z"/><path fill="#222" d="M154.69 177.039h-25.175c-.765 0-1.385-.62-1.385-1.385v-20.86c0-.765.62-1.385 1.385-1.385h25.175c.765 0 1.385.62 1.385 1.385v20.86c0 .765-.62 1.385-1.385 1.385Zm-23.79-2.77h22.405v-18.09H130.9v18.09Z"/><path fill="#fff" d="M117.765 186.439H92.59v20.86h25.175v-20.86Z"/><path fill="#222" d="M117.765 208.68H92.59c-.765 0-1.385-.62-1.385-1.385v-20.86c0-.765.62-1.385 1.385-1.385h25.175c.765 0 1.385.62 1.385 1.385v20.86c0 .765-.62 1.385-1.385 1.385Zm-23.79-2.77h22.405v-18.09H93.975v18.09Z"/><path fill="#fff" d="M154.69 186.439h-25.175v20.86h25.175v-20.86Z"/><path fill="#222" d="M154.69 208.68h-25.175c-.765 0-1.385-.62-1.385-1.385v-20.86c0-.765.62-1.385 1.385-1.385h25.175c.765 0 1.385.62 1.385 1.385v20.86c0 .765-.62 1.385-1.385 1.385Zm-23.79-2.77h22.405v-18.09H130.9v18.09Z"/><path fill="#fff" d="M117.765 218.08H92.59v20.86h25.175v-20.86Z"/><path fill="#222" d="M117.765 240.324H92.59c-.765 0-1.385-.62-1.385-1.385v-20.86c0-.765.62-1.385 1.385-1.385h25.175c.765 0 1.385.62 1.385 1.385v20.86c0 .765-.62 1.385-1.385 1.385Zm-23.79-2.77h22.405v-18.09H93.975v18.09Z"/><path fill="#fff" d="M154.69 218.08h-25.175v20.86h25.175v-20.86Z"/><path fill="#222" d="M154.69 240.324h-25.175c-.765 0-1.385-.62-1.385-1.385v-20.86c0-.765.62-1.385 1.385-1.385h25.175c.765 0 1.385.62 1.385 1.385v20.86c0 .765-.62 1.385-1.385 1.385Zm-23.79-2.77h22.405v-18.09H130.9v18.09Z"/><path fill="#fff" d="M117.765 249.725H92.59v20.86h25.175v-20.86Z"/><path fill="#222" d="M117.765 271.97H92.59c-.765 0-1.385-.62-1.385-1.385v-20.86c0-.765.62-1.385 1.385-1.385h25.175c.765 0 1.385.62 1.385 1.385v20.86c0 .765-.62 1.385-1.385 1.385Zm-23.79-2.77h22.405v-18.09H93.975v18.09Z"/><path fill="#fff" d="M154.69 249.725h-25.175v20.86h25.175v-20.86Z"/><path fill="#222" d="M154.69 271.97h-25.175c-.765 0-1.385-.62-1.385-1.385v-20.86c0-.765.62-1.385 1.385-1.385h25.175c.765 0 1.385.62 1.385 1.385v20.86c0 .765-.62 1.385-1.385 1.385Zm-23.79-2.77h22.405v-18.09H130.9v18.09Z"/><path fill="#fff" d="M117.765 281.364H92.59v20.86h25.175v-20.86Z"/><path fill="#222" d="M117.765 303.609H92.59a1.384 1.384 0 0 1-1.385-1.384v-20.86c0-.765.62-1.386 1.385-1.386h25.175c.765 0 1.385.621 1.385 1.386v20.86c0 .765-.62 1.384-1.385 1.384Zm-23.79-2.769h22.405v-18.09H93.975v18.09Z"/><path fill="#fff" d="M154.69 281.364h-25.175v20.86h25.175v-20.86Z"/><path fill="#222" d="M154.69 303.609h-25.175a1.384 1.384 0 0 1-1.385-1.384v-20.86c0-.765.62-1.386 1.385-1.386h25.175c.765 0 1.385.621 1.385 1.386v20.86c0 .765-.62 1.384-1.385 1.384Zm-23.79-2.769h22.405v-18.09H130.9v18.09ZM150.375 89.38c-.33 0-.66-.116-.925-.356l-8.275-7.44a1.384 1.384 0 1 1 1.85-2.06l8.275 7.44a1.384 1.384 0 0 1-.925 2.415ZM78.085 145.735c-.355 0-.71-.135-.98-.405l-7.035-7.035a1.388 1.388 0 0 1 0-1.96c.54-.54 1.415-.54 1.96 0l7.035 7.035c.54.54.54 1.415 0 1.96-.27.27-.625.405-.98.405Z"/></svg>