<svg xmlns="http://www.w3.org/2000/svg" width="400" height="401" fill="none" viewBox="0 0 400 401"><path fill="#222" d="M266.335 119.15c-.37-40.45-33.26-73.125-73.79-73.125-40.53 0-73.425 32.68-73.795 73.125h-.01v.34c0 .115-.01.23-.01.345 0 .115.01.23.01.345v96.37h30.23V121.9c0-.07-.005-.135-.005-.205 0-.07.005-.135.005-.205v-.2c.22-23.88 19.635-43.17 43.565-43.17 23.93 0 43.35 19.295 43.565 43.17h.01v95.255h30.235V119.15h-.02.01Z"/><path fill="#222" d="M267.74 217.94h-33.01l-.01-96.63c-.1-11.185-4.535-21.685-12.48-29.565-7.95-7.885-18.5-12.23-29.695-12.23s-21.745 4.345-29.7 12.23c-7.945 7.88-12.375 18.38-12.48 29.565V217.945h-33.01V120.06a3.39 3.39 0 0 1-.01-.23c0-.08 0-.155.005-.23v-1.845h.035c.525-19.425 8.385-37.605 22.22-51.33 14.175-14.055 32.975-21.8 52.935-21.8s38.765 7.74 52.935 21.8c13.835 13.725 21.695 31.905 22.22 51.33h.04V217.93l.005.01Zm-30.235-2.78h27.455v-95.195l-.02-.8c-.175-19.205-7.785-37.23-21.425-50.76-13.65-13.535-31.755-20.995-50.98-20.995-19.225 0-37.33 7.455-50.98 20.995-13.64 13.53-21.25 31.555-21.425 50.76l-.01.96V215.165h27.455V121.9c0-.095-.005-.15-.005-.205V119.9h.04c.445-11.405 5.125-22.065 13.27-30.14 8.475-8.405 19.715-13.035 31.655-13.035 11.94 0 23.18 4.63 31.655 13.035 8.145 8.075 12.825 18.73 13.27 30.14h.035l.01 1.39V215.16Z"/><path fill="#222" d="M308.75 351.79H80.83c-3.95 0-7.15-3.2-7.15-7.15V191.615c0-1.785.7-3.5 1.955-4.775l11.54-11.735 229.365-1.14c3.46-.015 6.28 2.785 6.28 6.245v158.3c0 1.56-.64 3.045-1.77 4.12l-7.725 7.335a6.66 6.66 0 0 1-4.575 1.825Z"/><path fill="#222" d="M308.75 353.18H80.83c-4.705 0-8.535-3.83-8.535-8.535v-153.03c0-2.165.835-4.205 2.355-5.75l11.54-11.735c.26-.265.615-.415.985-.415l229.365-1.14h.04c2.03 0 3.945.79 5.385 2.225a7.59 7.59 0 0 1 2.25 5.415v158.3c0 1.93-.8 3.8-2.2 5.125l-7.725 7.335a8 8 0 0 1-5.53 2.21l-.01-.005ZM87.765 176.49 76.63 187.815a5.38 5.38 0 0 0-1.555 3.8v153.03a5.768 5.768 0 0 0 5.76 5.76h227.92c1.355 0 2.64-.515 3.62-1.445l7.725-7.335a4.304 4.304 0 0 0 1.335-3.115v-158.3c0-1.3-.51-2.525-1.43-3.445a4.815 4.815 0 0 0-3.425-1.415h-.025L87.77 176.49h-.005Z"/><path fill="#444" d="M277.755 115.984c-.37-40.45-33.26-73.125-73.79-73.125-40.53 0-73.425 32.68-73.795 73.125h-.01v.34c0 .115-.01.23-.01.345 0 .115.01.23.01.345v96.37h30.23v-94.65c0-.07-.005-.135-.005-.205 0-.07.005-.135.005-.205v-.2c.22-23.88 19.635-43.17 43.565-43.17 23.93 0 43.35 19.295 43.565 43.17h.01v95.255h30.235v-97.395h-.02.01Z"/><path fill="#222" d="M279.16 214.77h-33.01l-.01-96.63c-.1-11.185-4.535-21.685-12.48-29.57-7.95-7.885-18.5-12.23-29.695-12.23s-21.745 4.345-29.695 12.23c-7.945 7.88-12.38 18.38-12.48 29.57v96.635h-33.01V116.9c-.005-.08-.01-.155-.01-.235 0-.08 0-.155.005-.235V114.59h.035c.525-19.425 8.385-37.605 22.22-51.33 14.175-14.055 32.975-21.8 52.935-21.8s38.765 7.74 52.935 21.8c13.835 13.725 21.695 31.905 22.22 51.33h.04V214.77Zm-30.235-2.78h27.455v-95.195l-.02-.8c-.175-19.205-7.785-37.23-21.425-50.76-13.65-13.535-31.755-20.995-50.98-20.995-19.225 0-37.33 7.455-50.98 20.995-13.64 13.53-21.25 31.555-21.425 50.76l-.01.945V211.99h27.455V118.7c0-.055-.005-.11-.005-.17v-1.795h.04c.445-11.405 5.125-22.065 13.27-30.14 8.475-8.405 19.715-13.035 31.655-13.035 11.94 0 23.18 4.63 31.655 13.035 8.14 8.075 12.82 18.73 13.27 30.14h.035l.01 1.39v93.865Z"/><path fill="#FF3158" d="M317.425 173.93H90.495a5.395 5.395 0 0 0-5.395 5.395V335.55a5.395 5.395 0 0 0 5.395 5.395h226.93a5.396 5.396 0 0 0 5.395-5.395V179.325a5.395 5.395 0 0 0-5.395-5.395Z"/><path fill="#222" d="M317.425 342.34H90.5c-3.74 0-6.785-3.045-6.785-6.785V179.33c0-3.74 3.045-6.785 6.785-6.785h226.925c3.74 0 6.785 3.045 6.785 6.785v156.22c0 3.74-3.045 6.785-6.785 6.785v.005ZM90.5 175.32c-2.21 0-4.01 1.8-4.01 4.01v156.22c0 2.21 1.8 4.01 4.01 4.01h226.925c2.21 0 4.01-1.8 4.01-4.01V179.33c0-2.21-1.8-4.01-4.01-4.01H90.5Z"/><path fill="#fff" d="M229.505 232.565c0-14.105-11.435-25.545-25.545-25.545-14.11 0-25.545 11.435-25.545 25.545 0 7.975 3.655 15.09 9.38 19.775v50.125h32.325V252.34c5.725-4.685 9.38-11.8 9.38-19.775h.005Z"/><path fill="#222" d="M221.51 303.85h-35.1v-50.865a26.835 26.835 0 0 1-9.38-20.425c0-14.85 12.08-26.93 26.93-26.93s26.93 12.08 26.93 26.93a26.85 26.85 0 0 1-9.38 20.425v50.865Zm-32.325-2.78h29.545v-49.395l.51-.415c5.64-4.615 8.875-11.43 8.875-18.7 0-13.32-10.835-24.155-24.155-24.155s-24.155 10.835-24.155 24.155c0 7.27 3.235 14.085 8.875 18.7l.51.415v49.395h-.005Z"/><path fill="#fff" d="M223.795 236.865c0-14.105-11.435-25.545-25.545-25.545-14.11 0-25.545 11.435-25.545 25.545 0 7.975 3.655 15.09 9.38 19.775v50.125h32.325V256.64c5.725-4.685 9.38-11.8 9.38-19.775h.005Z"/><path fill="#222" d="M220.125 303.85H187.8a1.39 1.39 0 0 1-1.39-1.39v-49.475a26.835 26.835 0 0 1-9.38-20.425c0-14.85 12.08-26.93 26.93-26.93s26.93 12.08 26.93 26.93a26.85 26.85 0 0 1-9.38 20.425v49.475c0 .765-.62 1.39-1.39 1.39h.005Zm-30.935-2.78h29.545v-48.735c0-.415.185-.81.51-1.075 5.64-4.615 8.875-11.43 8.875-18.7 0-13.32-10.835-24.155-24.155-24.155S179.81 219.24 179.81 232.56c0 7.27 3.235 14.085 8.875 18.7.325.265.51.66.51 1.075v48.735h-.005Z"/><path fill="#fff" d="M85.955 106.771c.225 0 .445.03.675.035-.41-2.455-.675-4.96-.675-7.53 0-25.265 20.48-45.745 45.745-45.745 24.4 0 44.28 19.12 45.615 43.19 4.04-5.01 10.225-8.22 17.16-8.22 12.18 0 22.05 9.875 22.05 22.05 0 .155-.02.305-.025.465 1.57-.29 3.185-.465 4.84-.465 14.585 0 26.4 11.82 26.4 26.405 0 14.58-11.82 26.405-26.4 26.405H85.95c-15.625 0-28.295-12.665-28.295-28.295 0-15.625 12.665-28.295 28.295-28.295h.005Z"/><path fill="#222" d="M221.345 164.746H85.955c-16.365 0-29.68-13.315-29.68-29.68 0-16.365 12.805-29.165 28.735-29.665a45.022 45.022 0 0 1-.44-6.12c0-25.99 21.145-47.135 47.135-47.135 23.91 0 43.85 17.915 46.72 41.34a23.304 23.304 0 0 1 16.055-6.374c12.535 0 22.805 9.89 23.41 22.279a27.133 27.133 0 0 1 3.455-.225c15.325 0 27.79 12.47 27.79 27.79 0 15.32-12.465 27.79-27.79 27.79Zm-135.39-56.585c-14.835 0-26.905 12.07-26.905 26.905s12.07 26.905 26.905 26.905h135.39c13.79 0 25.015-11.22 25.015-25.015s-11.22-25.015-25.015-25.015c-1.49 0-2.99.145-4.585.44a1.395 1.395 0 0 1-1.15-.305c-.32-.27-.5-.665-.49-1.085 0-.1.01-.195.015-.295 0-.05.01-.1.01-.15 0-11.395-9.27-20.66-20.665-20.66-6.27 0-12.13 2.81-16.08 7.706a1.386 1.386 0 0 1-2.465-.795c-1.305-23.48-20.73-41.875-44.23-41.875-23.5 0-44.355 19.9-44.355 44.355 0 2.269.215 4.659.655 7.299a1.39 1.39 0 0 1-1.4 1.62c-.125 0-.245-.01-.365-.02-.09-.005-.18-.015-.275-.015h-.01Z"/><path fill="#222" d="M99.71 149.731a1.389 1.389 0 0 1-1.36-1.67l9.4-45.99c.115-.56.56-.995 1.125-1.09.56-.095 1.13.16 1.425.65l25.645 42.475c.245.41.265.915.055 1.34-.21.425-.63.715-1.105.76l-35.045 3.515c-.044 0-.094.005-.14.005v.005Zm10.05-43.615-8.31 40.655 30.985-3.105-22.675-37.55Z"/><path fill="#222" d="M134.76 146.215c-.47 0-.93-.24-1.19-.67l-25.645-42.475a1.39 1.39 0 0 1 1.36-2.095l85.805 10.74a1.39 1.39 0 0 1 .475 2.61l-60.16 31.735c-.205.11-.43.16-.645.16v-.005Zm-22.98-42.13 23.49 38.9 55.1-29.065-78.585-9.835h-.005Z"/><path fill="#222" d="M134.76 141.101h-.1a1.393 1.393 0 0 1-1.29-1.485l4.405-62.905a1.39 1.39 0 0 1 1.48-1.29c.765.055 1.34.715 1.29 1.485l-4.405 62.905c-.05.73-.66 1.29-1.385 1.29h.005Z"/><path fill="#FF3158" d="M109.115 107.465a5.115 5.115 0 1 0 0-10.23 5.115 5.115 0 0 0 0 10.23Z"/><path fill="#222" d="M109.115 108.861a6.515 6.515 0 0 1-6.505-6.505 6.515 6.515 0 0 1 6.505-6.505 6.515 6.515 0 0 1 6.505 6.505 6.515 6.515 0 0 1-6.505 6.505Zm0-10.235a3.733 3.733 0 0 0-3.73 3.725 3.73 3.73 0 0 0 7.46 0c0-2.06-1.67-3.725-3.73-3.725Z"/><path fill="#fff" d="M139.165 81.921a5.115 5.115 0 1 0 0-10.23 5.115 5.115 0 0 0 0 10.23Z"/><path fill="#222" d="M139.165 83.31a6.515 6.515 0 0 1-6.505-6.504 6.515 6.515 0 0 1 6.505-6.505 6.515 6.515 0 0 1 6.505 6.505 6.515 6.515 0 0 1-6.505 6.505Zm0-10.234a3.73 3.73 0 1 0 0 7.46 3.73 3.73 0 0 0 0-7.46Z"/><path fill="#fff" d="M134.76 149.941a5.116 5.116 0 1 0 0-10.232 5.116 5.116 0 0 0 0 10.232Z"/><path fill="#222" d="M134.76 151.336a6.515 6.515 0 0 1-6.505-6.505 6.515 6.515 0 0 1 6.505-6.505 6.515 6.515 0 0 1 6.505 6.505 6.515 6.515 0 0 1-6.505 6.505Zm0-10.235a3.733 3.733 0 0 0-3.73 3.73c0 2.06 1.67 3.725 3.73 3.725s3.73-1.67 3.73-3.725-1.67-3.73-3.73-3.73Z"/><path fill="#fff" d="M194.92 118.707a5.116 5.116 0 1 0-.001-10.231 5.116 5.116 0 0 0 .001 10.231Z"/><path fill="#222" d="M194.92 120.096a6.515 6.515 0 0 1-6.505-6.505 6.515 6.515 0 0 1 6.505-6.505 6.515 6.515 0 0 1 6.505 6.505 6.515 6.515 0 0 1-6.505 6.505Zm0-10.235a3.73 3.73 0 1 0 0 7.46 3.73 3.73 0 0 0 0-7.46ZM99.71 149.731c-.31 0-.62-.105-.88-.315l-18.21-14.945a1.384 1.384 0 0 1-.19-1.955 1.384 1.384 0 0 1 1.956-.19l18.21 14.945c.595.485.68 1.36.19 1.955-.275.335-.675.51-1.075.51v-.005Z"/><path fill="#FF3158" d="M78.855 137.066a5.115 5.115 0 1 0 0-10.23 5.115 5.115 0 0 0 0 10.23Z"/><path fill="#222" d="M78.856 138.455a6.515 6.515 0 0 1-6.505-6.505 6.515 6.515 0 0 1 6.505-6.505 6.515 6.515 0 0 1 6.505 6.505 6.515 6.515 0 0 1-6.505 6.505Zm0-10.235a3.73 3.73 0 1 0 0 7.46 3.73 3.73 0 0 0 0-7.46Z"/><path fill="#FF3158" d="M213.33 149.941a5.115 5.115 0 1 0 0-10.23 5.115 5.115 0 0 0 0 10.23Z"/><path fill="#222" d="M213.33 151.336a6.515 6.515 0 0 1-6.505-6.505 6.515 6.515 0 0 1 6.505-6.505 6.515 6.515 0 0 1 6.505 6.505 6.515 6.515 0 0 1-6.505 6.505Zm0-10.235a3.733 3.733 0 0 0-3.73 3.73c0 2.06 1.67 3.725 3.73 3.725s3.73-1.67 3.73-3.725-1.67-3.73-3.73-3.73Z"/><path fill="#222" d="M208.215 146.216H139.88a1.39 1.39 0 0 1 0-2.78h68.335a1.39 1.39 0 0 1 0 2.78ZM210.815 141.786a1.39 1.39 0 0 1-1.21-.705l-12.82-22.725a1.39 1.39 0 0 1 .525-1.89 1.39 1.39 0 0 1 1.89.525l12.82 22.725a1.39 1.39 0 0 1-1.205 2.07ZM211.515 82.46c7.015 3.316 24.375 14.956 24.59 38.836h.01v52.64h11.63v-54.785c0-33.215-28.495-43.475-39.915-43.475l3.685 6.785Z"/><path fill="#222" d="M249.135 175.32H234.73l-.01-54.015c-.23-25.19-19.86-35.73-23.795-37.59l-.41-.195-5.015-9.235h2.335c6.425 0 16.675 2.96 25.1 9.58 7.395 5.805 16.205 16.645 16.205 35.285v56.17h-.005Zm-11.625-2.78h8.85v-53.395c0-17.525-8.235-27.675-15.145-33.1-6.905-5.425-15.06-8.23-20.975-8.85l2.285 4.205c4.91 2.415 24.04 13.42 24.94 38.5h.03l.01 1.39v51.25h.005Z"/><path fill="#444" d="M203.96 74.954c23.93 0 43.35 19.295 43.565 43.17h.01v55.905h30.235v-58.045h-.02c-.37-40.45-33.26-73.125-73.79-73.125"/><path fill="#222" d="M279.16 175.42h-33.01l-.01-57.28c-.1-11.185-4.535-21.685-12.48-29.565-7.95-7.885-18.5-12.23-29.695-12.23v-2.78c11.935 0 23.18 4.63 31.655 13.035 8.14 8.075 12.82 18.73 13.27 30.14h.035l.01 1.39v54.515h27.455V116.8l-.02-.8c-.175-19.205-7.785-37.23-21.425-50.76-13.65-13.535-31.755-20.995-50.98-20.995v-2.78c19.965 0 38.765 7.74 52.935 21.8 13.835 13.725 21.695 31.905 22.22 51.33h.025l.02 1.39v59.435h-.005Z"/></svg>