<svg xmlns="http://www.w3.org/2000/svg" width="400" height="400" fill="none" viewBox="0 0 400 400"><path fill="#fff" d="M144.104 68.61v87.994h58.806v127.65h117.609V68.609H144.104Z"/><path fill="#222" d="M320.52 285.634H202.91c-.765 0-1.385-.62-1.385-1.385V157.984h-57.42c-.765 0-1.385-.62-1.385-1.38V68.609c0-.764.62-1.38 1.385-1.38H320.52c.765 0 1.385.62 1.385 1.38v215.64c0 .765-.62 1.385-1.385 1.385Zm-116.225-2.765H319.14V69.994H145.49v85.23h57.42c.765 0 1.385.62 1.385 1.38v126.265Z"/><path fill="#DADADA" d="m314.09 290.225-28.72 35.63H41.71l28.715-35.63H314.09Z"/><path fill="#222" d="M274.3 332.77H30.64a1.383 1.383 0 0 1-1.075-2.25l28.72-35.63c.26-.325.66-.515 1.075-.515h243.66a1.382 1.382 0 0 1 1.075 2.25l-28.72 35.63c-.26.325-.66.515-1.075.515Zm-240.77-2.765h240.11l26.49-32.865H60.02l-26.49 32.865Z" style="mix-blend-mode:multiply"/><path fill="#222" d="M291.119 285.635c-.765 0-1.385-.62-1.385-1.385V76.58c0-.765.62-1.38 1.385-1.38s1.385.62 1.385 1.38v207.675c0 .765-.62 1.385-1.385 1.385v-.005ZM261.715 285.635c-.765 0-1.385-.62-1.385-1.385V76.58c0-.765.62-1.38 1.385-1.38s1.385.62 1.385 1.38v207.675c0 .765-.62 1.385-1.385 1.385v-.005ZM173.51 157.99c-.765 0-1.385-.62-1.385-1.38V76.58c0-.765.62-1.38 1.385-1.38s1.385.62 1.385 1.38v80.025c0 .765-.62 1.38-1.385 1.38v.005Z"/><path fill="#222" d="M320.52 77.965H144.105c-.765 0-1.385-.62-1.385-1.38 0-.76.62-1.38 1.385-1.38H320.52c.765 0 1.385.62 1.385 1.38 0 .76-.62 1.38-1.385 1.38Z"/><path fill="#222" d="M232.315 285.635c-.765 0-1.385-.62-1.385-1.385V76.58c0-.765.62-1.38 1.385-1.38s1.385.62 1.385 1.38v207.675c0 .765-.62 1.385-1.385 1.385v-.005ZM202.909 285.635c-.765 0-1.385-.62-1.385-1.385V76.58c0-.765.62-1.38 1.385-1.38s1.385.62 1.385 1.38v207.675c0 .765-.62 1.385-1.385 1.385v-.005Z"/><path fill="#DADADA" d="M331.355 103.785H320.52v4.595h10.835v-4.595Z"/><path fill="#222" d="M331.355 109.765H320.52c-.765 0-1.385-.62-1.385-1.38v-4.595c0-.765.62-1.38 1.385-1.38h10.835c.765 0 1.385.62 1.385 1.38v4.595c0 .765-.62 1.38-1.385 1.38ZM321.9 107h8.07v-1.83h-8.07V107Z"/><path fill="#FF3158" d="M350.359 124.47c10.494 0 19-8.507 19-19 0-10.494-8.506-19-19-19-10.493 0-19 8.506-19 19 0 10.493 8.507 19 19 19Z"/><path fill="#222" d="M350.36 125.854c-11.24 0-20.385-9.145-20.385-20.385 0-11.24 9.145-20.384 20.385-20.384 11.24 0 20.385 9.145 20.385 20.384 0 11.24-9.145 20.385-20.385 20.385Zm0-38.004c-9.715 0-17.62 7.904-17.62 17.619s7.905 17.62 17.62 17.62 17.62-7.905 17.62-17.62-7.905-17.62-17.62-17.62Z"/><path fill="#F5F4F3" d="M202.91 156.604H85.3v7.97h117.61v-7.97Z"/><path fill="#222" d="M202.91 165.955H85.3c-.765 0-1.385-.62-1.385-1.38v-7.97c0-.765.62-1.38 1.385-1.38h117.61c.765 0 1.385.62 1.385 1.38v7.97c0 .765-.62 1.38-1.385 1.38ZM86.685 163.19H201.53v-5.205H86.685v5.205Z"/><path fill="#FF3158" d="M85.26 164.609v119.69h29.4v-58.14h58.82v58.14h29.4v-119.69H85.26Z"/><path fill="#222" d="M202.88 285.679h-29.4a1.384 1.384 0 0 1-1.385-1.384v-56.756H116.04v56.756c0 .765-.62 1.384-1.385 1.384h-29.4a1.384 1.384 0 0 1-1.385-1.384V164.609c0-.765.62-1.38 1.385-1.38h117.62c.765 0 1.385.62 1.385 1.38v119.686c0 .765-.62 1.384-1.385 1.384h.005Zm-28.02-2.764h26.635V165.994H86.64v116.921h26.635V226.16c0-.765.62-1.381 1.385-1.381h58.82c.765 0 1.385.621 1.385 1.381v56.755h-.005Z"/><path fill="#F5F4F3" d="M144.103 226.125h-29.4v58.13h29.4v-58.13Z"/><path fill="#222" d="M144.103 285.635h-29.4c-.765 0-1.385-.62-1.385-1.385v-58.125c0-.765.62-1.38 1.385-1.38h29.4c.765 0 1.385.62 1.385 1.38v58.125c0 .765-.62 1.385-1.385 1.385Zm-28.02-2.765h26.635v-55.36h-26.635v55.36Z"/><path fill="#F5F4F3" d="M173.504 226.125h-29.4v58.13h29.4v-58.13Z"/><path fill="#222" d="M173.509 285.635h-29.4c-.765 0-1.385-.62-1.385-1.385v-58.125c0-.765.62-1.38 1.385-1.38h29.4c.765 0 1.385.62 1.385 1.38v58.125c0 .765-.62 1.385-1.385 1.385Zm-28.02-2.765h26.635v-55.36h-26.635v55.36Z"/><path fill="#DADADA" d="M358.395 285.635H47.385a1.385 1.385 0 1 1 0-2.77h311.01a1.385 1.385 0 1 1 0 2.77Z"/></svg>