<svg xmlns="http://www.w3.org/2000/svg" width="400" height="400" fill="none" viewBox="0 0 400 400"><path fill="#DADADA" d="m19.15 258.03 46.09 57.18h303.125l-46.09-57.18H19.15Z"/><path fill="#222" d="M386.13 325.48H83.005c-.42 0-.815-.19-1.08-.515l-46.09-57.185a1.381 1.381 0 0 1 1.08-2.25H340.04c.42 0 .815.19 1.08.515l46.09 57.185a1.381 1.381 0 0 1-1.08 2.25Zm-302.465-2.77h299.57l-43.86-54.415H39.81l43.86 54.415h-.005Z" style="mix-blend-mode:multiply"/><path fill="#444" d="M238.085 288.406h-99.58l-6.53-6.53V71.721h94.1l12.01 6.525v210.16Z"/><path fill="#222" d="M238.085 289.79h-99.58a1.39 1.39 0 0 1-.98-.405l-6.53-6.53a1.38 1.38 0 0 1-.405-.98V71.721c0-.766.62-1.386 1.385-1.386h94.095c.23 0 .46.06.66.17l12.01 6.53c.445.24.725.71.725 1.216v210.154c0 .765-.62 1.385-1.385 1.385h.005Zm-99.005-2.77h97.62V79.07l-10.98-5.97h-92.36v208.2l5.72 5.72Z"/><path fill="#F5F4F3" d="M238.085 78.62h-98.43V288.4h98.43V78.62Z"/><path fill="#222" d="M238.085 289.79h-98.43c-.765 0-1.385-.62-1.385-1.385V78.62c0-.765.62-1.385 1.385-1.385h98.43c.765 0 1.385.62 1.385 1.385V288.4c0 .765-.62 1.385-1.385 1.385v.005Zm-97.045-2.77h95.66V80.005h-95.66V287.02Z"/><path fill="#222" d="M152.39 289.79c-.765 0-1.385-.62-1.385-1.385V78.62a1.385 1.385 0 1 1 2.77 0V288.4c0 .765-.62 1.385-1.385 1.385v.005ZM170.63 289.79c-.765 0-1.385-.62-1.385-1.385V78.62a1.385 1.385 0 1 1 2.77 0V288.4c0 .765-.62 1.385-1.385 1.385v.005ZM188.87 289.79c-.765 0-1.385-.62-1.385-1.385V78.62a1.385 1.385 0 1 1 2.77 0V288.4c0 .765-.62 1.385-1.385 1.385v.005ZM207.11 289.79c-.765 0-1.385-.62-1.385-1.385V78.62a1.385 1.385 0 1 1 2.77 0V288.4c0 .765-.62 1.385-1.385 1.385v.005ZM225.355 289.79c-.765 0-1.385-.62-1.385-1.385V78.62a1.385 1.385 0 1 1 2.77 0V288.4c0 .765-.62 1.385-1.385 1.385v.005Z"/><path fill="#444" d="M325.065 288.405h-86.98v-183.99l86.98 50.32v133.67Z"/><path fill="#222" d="M325.065 289.79h-86.98c-.765 0-1.385-.62-1.385-1.385v-183.99a1.388 1.388 0 0 1 2.08-1.2l86.98 50.32c.43.25.69.705.69 1.2v133.67c0 .765-.62 1.385-1.385 1.385Zm-85.595-2.77h84.21V155.535l-84.21-48.72V287.02Z"/><path fill="#fff" d="M262.335 157.38h-12.28v19.355h12.28V157.38Z"/><path fill="#222" d="M262.335 178.115h-12.28c-.765 0-1.385-.62-1.385-1.385v-19.355c0-.765.62-1.385 1.385-1.385h12.28c.765 0 1.385.62 1.385 1.385v19.355c0 .765-.62 1.385-1.385 1.385Zm-10.895-2.77h9.51V158.76h-9.51v16.585Z"/><path fill="#fff" d="M286.926 157.38h-12.28v19.355h12.28V157.38Z"/><path fill="#222" d="M286.925 178.115h-12.28c-.765 0-1.385-.62-1.385-1.385v-19.355c0-.765.62-1.385 1.385-1.385h12.28c.765 0 1.385.62 1.385 1.385v19.355c0 .765-.62 1.385-1.385 1.385Zm-10.895-2.77h9.51V158.76h-9.51v16.585Z"/><path fill="#fff" d="M311.52 157.38h-12.28v19.355h12.28V157.38Z"/><path fill="#222" d="M311.52 178.115h-12.28c-.765 0-1.385-.62-1.385-1.385v-19.355c0-.765.62-1.385 1.385-1.385h12.28c.765 0 1.385.62 1.385 1.385v19.355c0 .765-.62 1.385-1.385 1.385Zm-10.895-2.77h9.51V158.76h-9.51v16.585Z"/><path fill="#fff" d="M262.335 186.73h-12.28v19.355h12.28V186.73Z"/><path fill="#222" d="M262.335 207.47h-12.28c-.765 0-1.385-.62-1.385-1.385V186.73c0-.765.62-1.385 1.385-1.385h12.28c.765 0 1.385.62 1.385 1.385v19.355c0 .765-.62 1.385-1.385 1.385Zm-10.895-2.77h9.51v-16.585h-9.51V204.7Z"/><path fill="#fff" d="M286.926 186.73h-12.28v19.355h12.28V186.73Z"/><path fill="#222" d="M286.925 207.47h-12.28c-.765 0-1.385-.62-1.385-1.385V186.73c0-.765.62-1.385 1.385-1.385h12.28c.765 0 1.385.62 1.385 1.385v19.355c0 .765-.62 1.385-1.385 1.385Zm-10.895-2.77h9.51v-16.585h-9.51V204.7Z"/><path fill="#fff" d="M311.52 186.73h-12.28v19.355h12.28V186.73Z"/><path fill="#222" d="M311.52 207.47h-12.28c-.765 0-1.385-.62-1.385-1.385V186.73c0-.765.62-1.385 1.385-1.385h12.28c.765 0 1.385.62 1.385 1.385v19.355c0 .765-.62 1.385-1.385 1.385Zm-10.895-2.77h9.51v-16.585h-9.51V204.7Z"/><path fill="#fff" d="M262.335 216.825h-12.28v19.355h12.28v-19.355Z"/><path fill="#222" d="M262.335 237.565h-12.28c-.765 0-1.385-.62-1.385-1.385v-19.355c0-.765.62-1.385 1.385-1.385h12.28c.765 0 1.385.62 1.385 1.385v19.355c0 .765-.62 1.385-1.385 1.385Zm-10.895-2.77h9.51V218.21h-9.51v16.585Z"/><path fill="#fff" d="M286.926 216.825h-12.28v19.355h12.28v-19.355Z"/><path fill="#222" d="M286.925 237.565h-12.28c-.765 0-1.385-.62-1.385-1.385v-19.355c0-.765.62-1.385 1.385-1.385h12.28c.765 0 1.385.62 1.385 1.385v19.355c0 .765-.62 1.385-1.385 1.385Zm-10.895-2.77h9.51V218.21h-9.51v16.585Z"/><path fill="#fff" d="M311.52 216.825h-12.28v19.355h12.28v-19.355Z"/><path fill="#222" d="M311.52 237.565h-12.28c-.765 0-1.385-.62-1.385-1.385v-19.355c0-.765.62-1.385 1.385-1.385h12.28c.765 0 1.385.62 1.385 1.385v19.355c0 .765-.62 1.385-1.385 1.385Zm-10.895-2.77h9.51V218.21h-9.51v16.585Z"/><path fill="#fff" d="M262.335 246.925h-12.28v19.355h12.28v-19.355Z"/><path fill="#222" d="M262.335 267.66h-12.28c-.765 0-1.385-.62-1.385-1.385V246.92c0-.765.62-1.385 1.385-1.385h12.28c.765 0 1.385.62 1.385 1.385v19.355c0 .765-.62 1.385-1.385 1.385Zm-10.895-2.77h9.51v-16.585h-9.51v16.585Z"/><path fill="#fff" d="M286.926 246.925h-12.28v19.355h12.28v-19.355Z"/><path fill="#222" d="M286.925 267.66h-12.28c-.765 0-1.385-.62-1.385-1.385V246.92c0-.765.62-1.385 1.385-1.385h12.28c.765 0 1.385.62 1.385 1.385v19.355c0 .765-.62 1.385-1.385 1.385Zm-10.895-2.77h9.51v-16.585h-9.51v16.585Z"/><path fill="#fff" d="M311.52 246.925h-12.28v19.355h12.28v-19.355Z"/><path fill="#222" d="M311.52 267.66h-12.28c-.765 0-1.385-.62-1.385-1.385V246.92c0-.765.62-1.385 1.385-1.385h12.28c.765 0 1.385.62 1.385 1.385v19.355c0 .765-.62 1.385-1.385 1.385Zm-10.895-2.77h9.51v-16.585h-9.51v16.585Z"/><path fill="#444" d="M157.115 288.404h-84.53l-6.53-6.53V124.379H145.1l12.015 6.53v157.495Z"/><path fill="#222" d="M157.115 289.789h-84.53a1.39 1.39 0 0 1-.98-.405l-6.53-6.53a1.38 1.38 0 0 1-.405-.98V124.379c0-.765.62-1.385 1.385-1.385h79.05c.23 0 .46.06.66.17l12.01 6.53c.445.24.725.71.725 1.215v157.495c0 .765-.62 1.385-1.385 1.385Zm-83.96-2.77h82.575v-155.29l-10.98-5.97H67.44v155.54l5.72 5.72h-.005Z"/><path fill="#FF3158" d="M157.115 130.909h-84.53v157.495h84.53V130.909Z"/><path fill="#222" d="M157.115 289.789h-84.53c-.765 0-1.385-.62-1.385-1.385V130.909c0-.765.62-1.385 1.385-1.385h84.53c.765 0 1.385.62 1.385 1.385v157.495c0 .765-.62 1.385-1.385 1.385Zm-83.145-2.77h81.765V132.294h-81.77v154.725h.005Z"/><path fill="#fff" d="M109.395 140.595H86.04v19.355h23.355v-19.355Z"/><path fill="#222" d="M109.4 161.334H86.045c-.765 0-1.385-.62-1.385-1.385v-19.355c0-.765.62-1.385 1.385-1.385H109.4c.765 0 1.385.62 1.385 1.385v19.355c0 .765-.62 1.385-1.385 1.385Zm-21.975-2.77h20.59v-16.585h-20.59v16.585Z"/><path fill="#fff" d="M143.655 140.595H120.3v19.355h23.355v-19.355Z"/><path fill="#222" d="M143.655 161.334H120.3c-.765 0-1.385-.62-1.385-1.385v-19.355c0-.765.62-1.385 1.385-1.385h23.355c.765 0 1.385.62 1.385 1.385v19.355c0 .765-.62 1.385-1.385 1.385Zm-21.975-2.77h20.59v-16.585h-20.59v16.585Z"/><path fill="#fff" d="M109.395 169.955H86.04v19.355h23.355v-19.355Z"/><path fill="#222" d="M109.4 190.689H86.045c-.765 0-1.385-.62-1.385-1.385v-19.355c0-.765.62-1.385 1.385-1.385H109.4c.765 0 1.385.62 1.385 1.385v19.355c0 .765-.62 1.385-1.385 1.385Zm-21.975-2.77h20.59v-16.585h-20.59v16.585Z"/><path fill="#fff" d="M143.655 169.954H120.3v19.355h23.355v-19.355Z"/><path fill="#222" d="M143.655 190.689H120.3c-.765 0-1.385-.62-1.385-1.385v-19.355c0-.765.62-1.385 1.385-1.385h23.355c.765 0 1.385.62 1.385 1.385v19.355c0 .765-.62 1.385-1.385 1.385Zm-21.975-2.77h20.59v-16.585h-20.59v16.585Z"/><path fill="#fff" d="M109.395 199.31H86.04v19.355h23.355V199.31Z"/><path fill="#222" d="M109.4 220.05H86.045c-.765 0-1.385-.62-1.385-1.385V199.31c0-.765.62-1.385 1.385-1.385H109.4c.765 0 1.385.62 1.385 1.385v19.355c0 .765-.62 1.385-1.385 1.385Zm-21.975-2.77h20.59v-16.585h-20.59v16.585Z"/><path fill="#fff" d="M143.655 199.31H120.3v19.355h23.355V199.31Z"/><path fill="#222" d="M143.655 220.05H120.3c-.765 0-1.385-.62-1.385-1.385V199.31c0-.765.62-1.385 1.385-1.385h23.355c.765 0 1.385.62 1.385 1.385v19.355c0 .765-.62 1.385-1.385 1.385Zm-21.975-2.77h20.59v-16.585h-20.59v16.585Z"/><path fill="#fff" d="M109.395 228.669H86.04v19.355h23.355v-19.355Z"/><path fill="#222" d="M109.4 249.409H86.045c-.765 0-1.385-.62-1.385-1.385v-19.355c0-.765.62-1.385 1.385-1.385H109.4c.765 0 1.385.62 1.385 1.385v19.355c0 .765-.62 1.385-1.385 1.385Zm-21.975-2.77h20.59v-16.585h-20.59v16.585Z"/><path fill="#fff" d="M143.655 228.669H120.3v19.355h23.355v-19.355Z"/><path fill="#222" d="M143.655 249.409H120.3c-.765 0-1.385-.62-1.385-1.385v-19.355c0-.765.62-1.385 1.385-1.385h23.355c.765 0 1.385.62 1.385 1.385v19.355c0 .765-.62 1.385-1.385 1.385Zm-21.975-2.77h20.59v-16.585h-20.59v16.585Z"/><path fill="#fff" d="M109.395 258.029H86.04v19.355h23.355v-19.355Z"/><path fill="#222" d="M109.4 278.765H86.045c-.765 0-1.385-.62-1.385-1.385v-19.355c0-.765.62-1.385 1.385-1.385H109.4c.765 0 1.385.62 1.385 1.385v19.355c0 .765-.62 1.385-1.385 1.385Zm-21.975-2.77h20.59V259.41h-20.59v16.585Z"/><path fill="#fff" d="M143.655 258.03H120.3v19.355h23.355V258.03Z"/><path fill="#222" d="M143.655 278.765H120.3c-.765 0-1.385-.62-1.385-1.385v-19.355c0-.765.62-1.385 1.385-1.385h23.355c.765 0 1.385.62 1.385 1.385v19.355c0 .765-.62 1.385-1.385 1.385Zm-21.975-2.77h20.59V259.41h-20.59v16.585Z"/><path fill="#444" d="m360.905 149.715-7.38 6.325-90.89-14.695V63.01l7.38-6.325 90.89 14.775v78.255Z"/><path fill="#222" d="M353.525 157.425c-.075 0-.145-.005-.22-.02L262.41 142.71a1.39 1.39 0 0 1-1.165-1.365V63.01c0-.405.175-.79.485-1.05l7.38-6.325c.31-.265.72-.38 1.125-.315l90.895 14.775c.67.11 1.16.69 1.16 1.365v78.255c0 .405-.175.79-.485 1.05l-7.38 6.325a1.403 1.403 0 0 1-.9.335Zm-89.51-17.255 89.095 14.4 6.41-5.495v-76.44l-89.1-14.48-6.41 5.495v76.52h.005Z"/><path fill="#F5F4F3" d="m353.525 156.04-90.89-14.695V63.01l90.89 14.775v78.255Z"/><path fill="#222" d="M353.525 157.425c-.075 0-.145-.005-.22-.02L262.41 142.71a1.39 1.39 0 0 1-1.165-1.365V63.01c0-.405.18-.79.485-1.055.31-.265.72-.38 1.12-.31l90.895 14.775c.67.11 1.16.69 1.16 1.365v78.255c0 .405-.18.79-.485 1.055-.25.215-.57.33-.895.33Zm-89.51-17.255 88.125 14.245V78.96l-88.125-14.325v75.535Z"/><path fill="#FF3158" d="m308.106 83.875 7.86 17.205 17.58 5.405-12.72 10.33 3.005 17.99-15.725-10.81-15.735 5.72 3.005-17.02-12.73-14.465 17.595.3 7.865-14.655Z"/><path fill="#222" d="M323.83 136.19c-.275 0-.55-.08-.785-.245l-15.14-10.405-15.06 5.475a1.387 1.387 0 0 1-1.84-1.54l2.89-16.365-12.29-13.965c-.36-.41-.445-1-.215-1.495.23-.5.72-.83 1.28-.805l16.75.285 7.465-13.91c.25-.465.745-.755 1.265-.73.525.015.995.33 1.215.81l7.605 16.64 16.985 5.22a1.388 1.388 0 0 1 .465 2.4l-12.095 9.825 2.87 17.195a1.39 1.39 0 0 1-.62 1.395 1.373 1.373 0 0 1-.745.215Zm-15.725-13.58c.275 0 .55.085.785.245l13.04 8.965-2.465-14.775c-.08-.49.105-.99.495-1.3l10.705-8.7-15.1-4.645c-.38-.115-.69-.39-.85-.75l-6.705-14.665-6.545 12.195a1.377 1.377 0 0 1-1.245.73l-14.46-.245 10.66 12.115c.28.315.395.74.325 1.155l-2.59 14.66 13.48-4.9a1.42 1.42 0 0 1 .475-.085h-.005ZM353.53 79.17c-.39 0-.78-.165-1.05-.485a1.38 1.38 0 0 1 .15-1.95l7.38-6.325a1.38 1.38 0 0 1 1.95.15c.495.58.43 1.455-.15 1.95l-7.38 6.325a1.37 1.37 0 0 1-.9.335ZM139.655 80.005c-.33 0-.66-.115-.925-.355l-7.68-6.905a1.384 1.384 0 1 1 1.85-2.06l7.68 6.905a1.384 1.384 0 0 1-.925 2.415ZM72.585 132.295c-.355 0-.71-.135-.98-.405l-6.53-6.53a1.388 1.388 0 0 1 0-1.96c.54-.54 1.415-.54 1.96 0l6.53 6.53c.54.54.54 1.415 0 1.96-.27.27-.625.405-.98.405Z"/></svg>