<svg xmlns="http://www.w3.org/2000/svg" width="401" height="401" fill="none" viewBox="0 0 401 401"><path fill="#fff" d="M144.601 69.36v87.995h58.805v127.65h117.61V69.36H144.601Z"/><path fill="#222" d="M321.017 286.385h-117.61c-.765 0-1.385-.62-1.385-1.385V158.735h-57.42c-.765 0-1.385-.62-1.385-1.38V69.36c0-.765.62-1.38 1.385-1.38h176.415c.765 0 1.385.62 1.385 1.38V285c0 .765-.62 1.385-1.385 1.385Zm-116.225-2.765h114.845V70.745h-173.65v85.23h57.42c.765 0 1.385.62 1.385 1.38V283.62Z"/><path fill="#DADADA" d="m314.587 290.975-28.72 35.63H42.207l28.715-35.63h243.665Z"/><path fill="#222" d="M274.797 333.52H31.137a1.382 1.382 0 0 1-1.075-2.25l28.72-35.63c.26-.325.66-.515 1.075-.515h243.66a1.382 1.382 0 0 1 1.075 2.25l-28.72 35.63c-.26.325-.66.515-1.075.515Zm-240.77-2.765h240.11l26.49-32.865H60.517l-26.49 32.865Z" style="mix-blend-mode:multiply"/><path fill="#222" d="M291.617 286.385c-.765 0-1.385-.62-1.385-1.385V77.33c0-.765.62-1.38 1.385-1.38s1.385.62 1.385 1.38v207.675c0 .765-.62 1.385-1.385 1.385v-.005ZM262.212 286.385c-.765 0-1.385-.62-1.385-1.385V77.33c0-.765.62-1.38 1.385-1.38s1.385.62 1.385 1.38v207.675c0 .765-.62 1.385-1.385 1.385v-.005ZM174.007 158.74c-.765 0-1.385-.62-1.385-1.38V77.33c0-.765.62-1.38 1.385-1.38s1.385.62 1.385 1.38v80.025c0 .765-.62 1.38-1.385 1.38v.005Z"/><path fill="#222" d="M321.017 78.715H144.602c-.765 0-1.385-.62-1.385-1.38 0-.76.62-1.38 1.385-1.38h176.415c.765 0 1.385.62 1.385 1.38 0 .76-.62 1.38-1.385 1.38Z"/><path fill="#222" d="M232.812 286.385c-.765 0-1.385-.62-1.385-1.385V77.33c0-.765.62-1.38 1.385-1.38s1.385.62 1.385 1.38v207.675c0 .765-.62 1.385-1.385 1.385v-.005ZM203.407 286.385c-.765 0-1.385-.62-1.385-1.385V77.33c0-.765.62-1.38 1.385-1.38s1.385.62 1.385 1.38v207.675c0 .765-.62 1.385-1.385 1.385v-.005Z"/><path fill="#222" d="M358.892 286.385H47.882a1.385 1.385 0 1 1 0-2.77h311.01a1.385 1.385 0 1 1 0 2.77Z"/><path fill="#DADADA" d="M331.851 104.534h-10.835v4.595h10.835v-4.595Z"/><path fill="#222" d="M331.852 110.514h-10.835c-.765 0-1.385-.62-1.385-1.38v-4.595c0-.765.62-1.38 1.385-1.38h10.835c.765 0 1.385.62 1.385 1.38v4.595c0 .765-.62 1.38-1.385 1.38Zm-9.455-2.765h8.07v-1.83h-8.07v1.83Z"/><path fill="#FF3158" d="M350.856 125.22c10.494 0 19-8.507 19-19 0-10.494-8.506-19-19-19-10.493 0-19 8.506-19 19 0 10.493 8.507 19 19 19Z"/><path fill="#222" d="M350.856 126.605c-11.24 0-20.385-9.145-20.385-20.385 0-11.24 9.145-20.385 20.385-20.385 11.24 0 20.385 9.145 20.385 20.385 0 11.24-9.145 20.385-20.385 20.385Zm0-38.005c-9.715 0-17.62 7.905-17.62 17.62s7.905 17.62 17.62 17.62 17.62-7.905 17.62-17.62-7.905-17.62-17.62-17.62Z"/><path fill="#F5F4F3" d="M203.406 157.355H85.796v7.97h117.61v-7.97Z"/><path fill="#222" d="M203.406 166.705H85.796c-.765 0-1.385-.62-1.385-1.38v-7.97c0-.765.62-1.38 1.385-1.38h117.61c.765 0 1.385.62 1.385 1.38v7.97c0 .765-.62 1.38-1.385 1.38ZM87.181 163.94h114.845v-5.205H87.181v5.205Z"/><path fill="#FF3158" d="M85.757 165.36v119.69h29.4v-58.14h58.82v58.14h29.4V165.36H85.757Z"/><path fill="#222" d="M203.376 286.43h-29.4c-.765 0-1.385-.62-1.385-1.385V228.29h-56.055v56.755c0 .765-.62 1.385-1.385 1.385h-29.4c-.765 0-1.385-.62-1.385-1.385V165.36c0-.765.62-1.38 1.385-1.38h117.62c.765 0 1.385.62 1.385 1.38v119.685c0 .765-.62 1.385-1.385 1.385h.005Zm-28.02-2.765h26.635v-116.92H87.136v116.92h26.635V226.91c0-.765.62-1.38 1.385-1.38h58.82c.765 0 1.385.62 1.385 1.38v56.755h-.005Z"/><path fill="#F5F4F3" d="M144.601 226.875h-29.4v58.13h29.4v-58.13Z"/><path fill="#222" d="M144.601 286.385h-29.4c-.765 0-1.385-.62-1.385-1.385v-58.125c0-.765.62-1.38 1.385-1.38h29.4c.765 0 1.385.62 1.385 1.38V285c0 .765-.62 1.385-1.385 1.385Zm-28.02-2.765h26.635v-55.36h-26.635v55.36Z"/><path fill="#F5F4F3" d="M174.001 226.875h-29.4v58.13h29.4v-58.13Z"/><path fill="#222" d="M174.006 286.385h-29.4c-.765 0-1.385-.62-1.385-1.385v-58.125c0-.765.62-1.38 1.385-1.38h29.4c.765 0 1.385.62 1.385 1.38V285c0 .765-.62 1.385-1.385 1.385Zm-28.02-2.765h26.635v-55.36h-26.635v55.36Z"/></svg>