<svg xmlns="http://www.w3.org/2000/svg" width="400" height="400" fill="none" viewBox="0 0 400 400"><path fill="#fff" d="M61.164 333.855h109.85v-232.37L61.164 165.04v168.815Z"/><path fill="#222" d="M172.404 335.245H59.779v-171.01l112.63-65.16v236.17h-.005Zm-109.85-2.78h107.07V103.89l-107.07 61.95v166.625Z"/><path fill="#DADADA" d="M68.87 326.26h109.85V88.59L68.87 152.145V326.26Z"/><path fill="#fff" d="M140.39 197.995h15.51v-24.44h-15.51v24.44Z"/><path fill="#222" d="M157.29 199.385h-18.285v-27.22h18.285v27.22Zm-15.51-2.78h12.73V174.94h-12.73v21.665Z"/><path fill="#fff" d="M109.329 197.995h15.51v-24.44h-15.51v24.44Z"/><path fill="#222" d="M126.229 199.385h-18.285v-27.22h18.285v27.22Zm-15.51-2.78h12.73V174.94h-12.73v21.665Z"/><path fill="#fff" d="M78.275 197.995h15.51v-24.44h-15.51v24.44Z"/><path fill="#222" d="M95.175 199.385H76.89v-27.22h18.285v27.22Zm-15.51-2.78h12.73V174.94h-12.73v21.665Z"/><path fill="#fff" d="M140.39 235.065h15.51v-24.44h-15.51v24.44Z"/><path fill="#222" d="M157.29 236.455h-18.285v-27.22h18.285v27.22Zm-15.51-2.78h12.73V212.01h-12.73v21.665Z"/><path fill="#fff" d="M109.329 235.065h15.51v-24.44h-15.51v24.44Z"/><path fill="#222" d="M126.229 236.455h-18.285v-27.22h18.285v27.22Zm-15.51-2.78h12.73V212.01h-12.73v21.665Z"/><path fill="#fff" d="M78.275 235.065h15.51v-24.44h-15.51v24.44Z"/><path fill="#222" d="M95.175 236.455H76.89v-27.22h18.285v27.22Zm-15.51-2.78h12.73V212.01h-12.73v21.665Z"/><path fill="#fff" d="M140.39 273.075h15.51v-24.44h-15.51v24.44Z"/><path fill="#222" d="M157.29 274.465h-18.285v-27.22h18.285v27.22Zm-15.51-2.78h12.73V250.02h-12.73v21.665Z"/><path fill="#fff" d="M109.329 273.075h15.51v-24.44h-15.51v24.44Z"/><path fill="#222" d="M126.229 274.465h-18.285v-27.22h18.285v27.22Zm-15.51-2.78h12.73V250.02h-12.73v21.665Z"/><path fill="#fff" d="M78.275 273.075h15.51v-24.44h-15.51v24.44Z"/><path fill="#222" d="M95.175 274.465H76.89v-27.22h18.285v27.22Zm-15.51-2.78h12.73V250.02h-12.73v21.665Z"/><path fill="#fff" d="M140.39 311.085h15.51v-24.44h-15.51v24.44Z"/><path fill="#222" d="M157.29 312.475h-18.285v-27.22h18.285v27.22Zm-15.51-2.78h12.73V288.03h-12.73v21.665Z"/><path fill="#fff" d="M109.329 311.085h15.51v-24.44h-15.51v24.44Z"/><path fill="#222" d="M126.229 312.475h-18.285v-27.22h18.285v27.22Zm-15.51-2.78h12.73V288.03h-12.73v21.665Z"/><path fill="#fff" d="M78.275 311.085h15.51v-24.44h-15.51v24.44Z"/><path fill="#222" d="M95.175 312.475H76.89v-27.22h18.285v27.22Zm-15.51-2.78h12.73V288.03h-12.73v21.665Z"/><path fill="#222" d="M172.404 335.245H59.779v-171.01l112.63-65.16v236.17h-.005Zm-109.85-2.78h107.07V103.89l-107.07 61.95v166.625Z"/><path fill="#222" d="M303.865 132.74c-.345-37.625-30.935-68.025-68.645-68.025-37.71 0-68.3 30.4-68.645 68.025h-.01v.315c0 .105-.01.215-.01.32 0 .105.01.215.01.32v89.65h28.12V135.3c0-.065-.005-.125-.005-.19s0-.125.005-.19v-.185c.205-22.215 18.265-40.16 40.525-40.16 22.26 0 40.325 17.945 40.525 40.16h.01v88.61h28.125V132.74h-.015.01Z"/><path fill="#222" d="M305.27 224.73h-30.9l-.01-89.985c-.195-21.385-17.75-38.785-39.135-38.785-21.385 0-38.94 17.4-39.135 38.785v89.985h-30.9v-91.135c-.005-.075-.01-.145-.01-.22 0-.075 0-.145.005-.22v-1.805h.035c.51-18.06 7.83-34.96 20.695-47.72 13.205-13.095 30.715-20.305 49.31-20.305 18.595 0 36.11 7.21 49.31 20.305 12.865 12.76 20.185 29.66 20.695 47.72h.04v93.38Zm-28.125-2.78h25.345v-88.425l-.015-.775c-.16-17.84-7.23-34.58-19.9-47.15-12.68-12.575-29.495-19.5-47.355-19.5-17.86 0-34.675 6.925-47.355 19.5-12.67 12.565-19.735 29.31-19.9 47.15l-.01.88v88.325H193.3V135.3c0-.085-.005-.135-.005-.19V133.345h.04c.435-10.6 4.8-20.5 12.365-28.005 7.9-7.835 18.385-12.155 29.515-12.155 11.13 0 21.61 4.315 29.515 12.155 7.57 7.505 11.93 17.41 12.365 28.005h.035l.01 1.39v87.22l.005-.005Z"/><path fill="#444" d="M343.32 349.15H131.305a6.65 6.65 0 0 1-6.65-6.65V200.15c0-1.66.655-3.255 1.82-4.44l10.735-10.92 213.365-1.06a5.812 5.812 0 0 1 5.84 5.81v147.255c0 1.45-.595 2.835-1.645 3.83l-7.19 6.825a6.183 6.183 0 0 1-4.255 1.7h-.005Z"/><path fill="#222" d="M343.32 350.54H131.305c-4.43 0-8.04-3.605-8.04-8.04V200.15c0-2.04.785-3.96 2.215-5.415l10.735-10.915c.26-.265.615-.415.985-.415l213.365-1.06c1.925 0 3.745.735 5.115 2.095a7.142 7.142 0 0 1 2.12 5.105V336.8c0 1.82-.76 3.585-2.08 4.84l-7.19 6.825a7.55 7.55 0 0 1-5.21 2.08v-.005ZM137.795 186.175l-10.33 10.505a4.912 4.912 0 0 0-1.42 3.465v142.35c0 2.9 2.36 5.26 5.26 5.26h212.02c1.235 0 2.405-.47 3.3-1.315l7.19-6.825a3.911 3.911 0 0 0 1.215-2.825V189.54c0-1.185-.465-2.3-1.305-3.135a4.39 4.39 0 0 0-3.12-1.285h-.025l-212.785 1.06v-.005Z"/><path fill="#444" d="M314.485 129.795C314.14 92.17 283.55 61.77 245.84 61.77c-37.71 0-68.3 30.4-68.645 68.025h-.01v.315c0 .105-.01.215-.01.32 0 .105.01.215.01.32v89.65h28.12v-88.045c0-.065-.005-.125-.005-.19s0-.125.005-.19v-.185c.205-22.215 18.265-40.16 40.525-40.16 22.26 0 40.325 17.945 40.525 40.16h.01v88.61h28.125v-90.605h-.015.01Z"/><path fill="#222" d="M315.89 221.785h-30.9l-.01-89.985c-.195-21.385-17.75-38.786-39.135-38.786-21.385 0-38.94 17.401-39.135 38.786v89.985h-30.9v-91.14c-.005-.075-.01-.145-.01-.22V128.4h.035c.51-18.06 7.83-34.96 20.695-47.72 13.205-13.096 30.715-20.306 49.31-20.306 18.595 0 36.11 7.21 49.31 20.306 12.865 12.76 20.185 29.66 20.695 47.72h.04v93.38l.005.005Zm-28.125-2.78h25.345V130.58l-.015-.775c-.16-17.84-7.23-34.58-19.9-47.15-12.68-12.576-29.495-19.5-47.355-19.5-17.86 0-34.675 6.924-47.355 19.5-12.67 12.564-19.735 29.31-19.9 47.15l-.01.89v88.315h25.345v-86.655c0-.085-.005-.135-.005-.19V130.4h.04c.435-10.6 4.8-20.5 12.365-28.005 7.9-7.835 18.385-12.155 29.515-12.155 11.13 0 21.61 4.315 29.515 12.155 7.57 7.505 11.93 17.41 12.365 28.005h.035l.01 1.39v87.22l.005-.005Z"/><path fill="#FF3158" d="M351.39 183.699H140.295a5.02 5.02 0 0 0-5.02 5.02v145.325a5.02 5.02 0 0 0 5.02 5.02H351.39a5.02 5.02 0 0 0 5.02-5.02V188.719a5.02 5.02 0 0 0-5.02-5.02Z"/><path fill="#222" d="M351.39 340.455H140.295a6.417 6.417 0 0 1-6.41-6.41V188.72a6.417 6.417 0 0 1 6.41-6.41H351.39a6.417 6.417 0 0 1 6.41 6.41v145.32a6.417 6.417 0 0 1-6.41 6.41v.005ZM140.295 185.09a3.633 3.633 0 0 0-3.63 3.63v145.32c0 2.005 1.63 3.63 3.63 3.63H351.39c2.005 0 3.63-1.63 3.63-3.63V188.72c0-2.005-1.63-3.63-3.63-3.63H140.295Z"/><path fill="#fff" d="M269.604 238.24c0-13.125-10.64-23.761-23.76-23.761-13.12 0-23.76 10.641-23.76 23.761 0 7.42 3.4 14.04 8.725 18.395v46.625h30.07v-46.625c5.325-4.36 8.725-10.98 8.725-18.395Z"/><path fill="#222" d="M262.264 304.649h-32.845v-47.37a25.062 25.062 0 0 1-8.725-19.045c0-13.87 11.28-25.15 25.15-25.15s25.15 11.28 25.15 25.15c0 7.35-3.17 14.25-8.725 19.045v47.37h-.005Zm-30.07-2.78h27.29v-45.895l.51-.415c5.225-4.275 8.22-10.585 8.22-17.32 0-12.335-10.035-22.37-22.37-22.37s-22.37 10.035-22.37 22.37c0 6.735 2.995 13.045 8.22 17.32l.51.415v45.895h-.01Z"/><path fill="#fff" d="M264.294 242.244c0-13.125-10.64-23.76-23.76-23.76-13.12 0-23.76 10.64-23.76 23.76 0 7.42 3.4 14.04 8.725 18.395v46.625h30.07v-46.625c5.325-4.36 8.725-10.98 8.725-18.395Z"/><path fill="#222" d="M260.879 304.649h-30.07a1.39 1.39 0 0 1-1.39-1.39v-45.98a25.062 25.062 0 0 1-8.725-19.045c0-13.87 11.28-25.15 25.15-25.15s25.15 11.28 25.15 25.15c0 7.35-3.17 14.25-8.725 19.045v45.98c0 .765-.62 1.39-1.39 1.39Zm-28.68-2.78h27.29v-45.24c0-.415.185-.81.51-1.075 5.225-4.275 8.22-10.585 8.22-17.32 0-12.335-10.035-22.37-22.37-22.37s-22.37 10.035-22.37 22.37c0 6.735 2.995 13.045 8.22 17.32.32.265.51.66.51 1.075v45.24h-.01Z"/><path fill="#fff" d="M136.069 121.224c.21 0 .415.025.625.03-.38-2.285-.625-4.61-.625-7.005 0-23.5 19.05-42.555 42.555-42.555 22.7 0 41.19 17.785 42.435 40.175 3.76-4.66 9.51-7.65 15.965-7.65 11.33 0 20.515 9.185 20.515 20.51 0 .145-.02.285-.02.43 1.46-.27 2.96-.43 4.5-.43 13.565 0 24.56 10.995 24.56 24.56s-10.995 24.56-24.56 24.56H136.074c-14.535 0-26.32-11.785-26.32-26.32s11.785-26.32 26.32-26.32l-.005.015Z"/><path fill="#222" d="M262.014 175.25H136.069c-15.28 0-27.71-12.43-27.71-27.71 0-15.28 11.895-27.165 26.715-27.69-.265-1.975-.4-3.82-.4-5.6 0-24.23 19.71-43.94 43.94-43.94 22.225 0 40.775 16.605 43.535 38.35a21.773 21.773 0 0 1 14.865-5.825c11.675 0 21.25 9.185 21.87 20.71 1.06-.135 2.09-.2 3.125-.2 14.31 0 25.95 11.64 25.95 25.95 0 14.31-11.64 25.95-25.95 25.95l.005.005Zm-125.945-52.635c-13.745 0-24.93 11.185-24.93 24.93s11.185 24.93 24.93 24.93h125.945c12.775 0 23.17-10.395 23.17-23.17 0-12.775-10.395-23.17-23.17-23.17-1.38 0-2.77.135-4.25.405a1.39 1.39 0 0 1-1.15-.305c-.32-.27-.5-.665-.49-1.085 0-.09.005-.185.015-.275 0-.045.005-.09.005-.135 0-10.545-8.58-19.125-19.125-19.125-5.805 0-11.23 2.6-14.885 7.13a1.386 1.386 0 0 1-2.465-.795c-1.21-21.79-19.24-38.865-41.045-38.865-21.805 0-41.165 18.465-41.165 41.165 0 2.11.2 4.325.605 6.775a1.39 1.39 0 0 1-1.4 1.62c-.115 0-.23-.01-.345-.02-.08-.005-.165-.015-.245-.015l-.005.005Z"/><path fill="#222" d="M148.865 161.285a1.389 1.389 0 0 1-1.36-1.67l8.745-42.78c.115-.56.56-.995 1.125-1.09.565-.1 1.13.16 1.425.65l23.855 39.51c.245.41.265.915.055 1.34-.21.425-.63.715-1.105.76l-32.6 3.27c-.045 0-.095.005-.14.005v.005Zm9.395-40.41-7.655 37.45 28.54-2.86-20.885-34.585v-.005Z"/><path fill="#222" d="M181.47 158.015c-.47 0-.93-.24-1.19-.67l-23.855-39.51a1.39 1.39 0 0 1 1.36-2.095l79.82 9.99a1.39 1.39 0 0 1 .475 2.61l-55.965 29.525c-.205.11-.43.16-.645.16v-.01Zm-21.19-39.165 21.7 35.94 50.9-26.85-72.6-9.085v-.005Z"/><path fill="#222" d="M181.47 153.254h-.1a1.393 1.393 0 0 1-1.29-1.485l4.1-58.515a1.393 1.393 0 0 1 1.485-1.29c.765.055 1.34.716 1.29 1.486l-4.1 58.514c-.05.73-.66 1.29-1.385 1.29Z"/><path fill="#FF3158" d="M157.61 121.874a4.76 4.76 0 1 0 0-9.52 4.76 4.76 0 0 0 0 9.52Z"/><path fill="#222" d="M157.61 123.264c-3.39 0-6.15-2.76-6.15-6.15 0-3.39 2.76-6.15 6.15-6.15 3.39 0 6.15 2.76 6.15 6.15 0 3.39-2.76 6.15-6.15 6.15Zm0-9.52c-1.86 0-3.37 1.51-3.37 3.37s1.51 3.37 3.37 3.37 3.37-1.51 3.37-3.37-1.51-3.37-3.37-3.37Z"/><path fill="#fff" d="M185.57 98.11a4.76 4.76 0 1 0-.001-9.521 4.76 4.76 0 0 0 .001 9.52Z"/><path fill="#222" d="M185.57 99.5c-3.39 0-6.15-2.76-6.15-6.15 0-3.39 2.76-6.15 6.15-6.15 3.39 0 6.15 2.76 6.15 6.15 0 3.39-2.76 6.15-6.15 6.15Zm0-9.52c-1.86 0-3.37 1.51-3.37 3.37s1.51 3.37 3.37 3.37 3.37-1.51 3.37-3.37-1.51-3.37-3.37-3.37Z"/><path fill="#fff" d="M181.47 161.384a4.76 4.76 0 1 0 0-9.52 4.76 4.76 0 0 0 0 9.52Z"/><path fill="#222" d="M181.47 162.775c-3.39 0-6.15-2.76-6.15-6.15 0-3.39 2.76-6.15 6.15-6.15 3.39 0 6.15 2.76 6.15 6.15 0 3.39-2.76 6.15-6.15 6.15Zm0-9.52c-1.86 0-3.37 1.51-3.37 3.37s1.51 3.37 3.37 3.37 3.37-1.51 3.37-3.37-1.51-3.37-3.37-3.37Z"/><path fill="#fff" d="M237.43 132.33a4.76 4.76 0 1 0-.001-9.521 4.76 4.76 0 0 0 .001 9.521Z"/><path fill="#222" d="M237.43 133.715c-3.39 0-6.15-2.76-6.15-6.15 0-3.39 2.76-6.15 6.15-6.15 3.39 0 6.15 2.76 6.15 6.15 0 3.39-2.76 6.15-6.15 6.15Zm0-9.52c-1.86 0-3.37 1.51-3.37 3.37s1.51 3.37 3.37 3.37 3.37-1.51 3.37-3.37-1.51-3.37-3.37-3.37ZM148.864 161.284c-.31 0-.62-.105-.88-.315l-16.935-13.905a1.384 1.384 0 0 1-.19-1.955 1.384 1.384 0 0 1 1.955-.19l16.935 13.905c.595.485.68 1.36.19 1.955-.275.335-.675.51-1.075.51v-.005Z"/><path fill="#FF3158" d="M129.465 149.405a4.76 4.76 0 1 0-.001-9.521 4.76 4.76 0 0 0 .001 9.521Z"/><path fill="#222" d="M129.464 150.795c-3.39 0-6.15-2.76-6.15-6.15 0-3.39 2.76-6.15 6.15-6.15 3.39 0 6.15 2.76 6.15 6.15 0 3.39-2.76 6.15-6.15 6.15Zm0-9.52c-1.86 0-3.37 1.51-3.37 3.37s1.51 3.37 3.37 3.37 3.37-1.51 3.37-3.37-1.51-3.37-3.37-3.37Z"/><path fill="#FF3158" d="M254.56 161.384a4.76 4.76 0 1 0 0-9.52 4.76 4.76 0 0 0 0 9.52Z"/><path fill="#222" d="M254.56 162.775c-3.39 0-6.15-2.76-6.15-6.15 0-3.39 2.76-6.15 6.15-6.15 3.39 0 6.15 2.76 6.15 6.15 0 3.39-2.76 6.15-6.15 6.15Zm0-9.52c-1.86 0-3.37 1.51-3.37 3.37s1.51 3.37 3.37 3.37 3.37-1.51 3.37-3.37-1.51-3.37-3.37-3.37Z"/><path fill="#222" d="M249.8 158.014h-63.57a1.39 1.39 0 0 1 0-2.78h63.57a1.39 1.39 0 0 1 0 2.78ZM252.22 153.894a1.39 1.39 0 0 1-1.21-.705l-11.925-21.14a1.39 1.39 0 0 1 .525-1.89 1.39 1.39 0 0 1 1.89.525l11.925 21.14a1.39 1.39 0 0 1-1.205 2.07ZM252.869 98.61c6.525 3.08 22.675 13.91 22.875 36.125h.01V183.7h10.815v-50.96c0-30.9-26.51-40.44-37.13-40.44l3.43 6.31Z"/><path fill="#222" d="M287.959 185.09h-13.595l-.009-50.345c-.215-23.375-18.431-33.155-22.081-34.88l-.409-.195-4.761-8.765h2.335c12.065 0 38.52 10.535 38.52 41.83V185.09Zm-10.815-2.78h8.04v-49.57c0-16.265-7.639-25.68-14.049-30.715-6.34-4.98-13.811-7.58-19.281-8.195l2.026 3.725c4.615 2.275 22.34 12.52 23.225 35.79h.03l.009 1.39v47.58-.005Z"/><path fill="#444" d="M245.845 91.624c22.26 0 40.325 17.946 40.525 40.161h.01v52.005h28.125v-53.995h-.015c-.345-37.625-30.935-68.025-68.645-68.025"/><path fill="#222" d="M315.89 185.18h-30.9l-.01-53.38c-.195-21.385-17.75-38.786-39.135-38.786v-2.78c11.13 0 21.61 4.316 29.515 12.156 7.57 7.505 11.93 17.41 12.365 28.005h.035l.01 1.39V182.4h25.345v-51.82l-.015-.775c-.16-17.84-7.23-34.58-19.9-47.15-12.68-12.576-29.495-19.5-47.355-19.5v-2.78c18.595 0 36.11 7.21 49.31 20.305 12.865 12.76 20.185 29.66 20.695 47.72h.025l.015 1.39v55.39Z"/></svg>