<svg xmlns="http://www.w3.org/2000/svg" width="400" height="400" fill="none" viewBox="0 0 400 400"><path fill="#FF3158" d="M199.31 43.425c4.72 0 9.435 1.23 13.685 3.67L342.92 122.12v123.935l-128.86-74.39a29.439 29.439 0 0 0-14.75-3.96V43.425Z"/><path fill="#fff" d="M200.04 44v123.71a29.425 29.425 0 0 0-14.75 3.96L56.43 246.06V122.125l129.925-75.03a27.448 27.448 0 0 1 13.685-3.67V44Z"/><path fill="#DADADA" d="m55.745 245.92 128.85 74.395a29.502 29.502 0 0 0 29.515 0l128.85-74.395"/><path fill="#fff" d="M342.87 245.925 214.02 171.53a29.502 29.502 0 0 0-29.515 0L55.65 245.925"/><path fill="#444" d="m326.7 269.48-111.905 64.605a29.502 29.502 0 0 1-29.515 0L73.38 269.48l-16.95 9.785 128.85 74.395a29.502 29.502 0 0 0 29.515 0l128.85-74.395-16.95-9.785h.005Z"/><path fill="#222" d="M200.04 325.64a30.896 30.896 0 0 1-15.45-4.125L55.76 247.13c-.125-.07-.24-.16-.345-.265a1.378 1.378 0 0 1-.37-1.005 1.391 1.391 0 0 1 .705-1.145l128.835-74.385c9.53-5.5 21.37-5.5 30.9 0l128.85 74.395c.43.245.69.705.69 1.195 0 .49-.265.95-.69 1.195l-128.85 74.395a30.91 30.91 0 0 1-15.45 4.125l.005.005ZM59.195 245.92l126.78 73.195c8.675 5.01 19.46 5.01 28.135 0l126.78-73.195-126.78-73.195c-8.675-5.01-19.455-5.01-28.135 0L59.195 245.92Z"/><path fill="#DADADA" d="M214.801 320.315a29.502 29.502 0 0 1-29.515 0L56.431 245.92v13.795l128.85 74.395a29.502 29.502 0 0 0 29.515 0l128.85-74.395V245.92l-128.85 74.395h.005Z"/><path fill="#222" d="M200.041 339.435a30.896 30.896 0 0 1-15.45-4.125l-128.85-74.395a1.375 1.375 0 0 1-.69-1.195v-13.795c0-.495.265-.95.69-1.195.43-.245.955-.245 1.385 0l128.85 74.395c8.675 5.01 19.46 5.01 28.135 0l.69 1.195-.69-1.195 128.85-74.395c.43-.245.955-.245 1.38 0 .43.245.69.705.69 1.195v13.795c0 .495-.265.95-.69 1.195l-128.85 74.395a30.91 30.91 0 0 1-15.45 4.125ZM57.811 258.92l128.16 73.995c8.675 5.01 19.46 5.01 28.135 0l128.16-73.995v-10.6l-126.78 73.195c-9.53 5.5-21.37 5.5-30.9 0l-126.775-73.2v10.605Z"/><path fill="#222" d="M343.65 253.17c-.765 0-1.385-.62-1.385-1.38V122.78L213.03 48.165c-8.015-4.625-17.97-4.625-25.985 0L57.81 122.78v129.01a1.38 1.38 0 1 1-2.76 0V121.98c0-.495.265-.95.69-1.195L185.665 45.77c8.865-5.12 19.88-5.12 28.75 0l129.93 75.015c.43.245.69.705.69 1.195v129.81c0 .765-.62 1.38-1.385 1.38Z"/><path fill="#222" d="M200.04 167.975a1.38 1.38 0 0 1-1.38-1.38V43.86a1.38 1.38 0 1 1 2.76 0v122.73c0 .765-.62 1.38-1.38 1.38v.005ZM85.74 218.985a1.375 1.375 0 0 1-1.38-1.38V203.37a1.38 1.38 0 1 1 2.76 0v11.84l20.69-11.945V183.18a1.38 1.38 0 1 1 2.76 0v20.885c0 .495-.265.95-.69 1.195l-23.455 13.545a1.374 1.374 0 0 1-.69.185l.005-.005ZM118.59 189.105a1.375 1.375 0 0 1-1.38-1.38V179.3a1.38 1.38 0 1 1 2.76 0v6.03l59.29-34.22v-16.94a1.38 1.38 0 1 1 2.76 0v17.74c0 .495-.265.95-.69 1.195l-62.055 35.815c-.215.125-.45.185-.69.185h.005Z"/><path fill="#222" d="M161.54 163.52a1.38 1.38 0 0 1-1.38-1.38v-17.68a1.38 1.38 0 1 1 2.76 0v17.68c0 .765-.62 1.38-1.38 1.38Z"/><path fill="#fff" d="m123.135 151.25-9.41 5.43v24.66l9.41-5.43v-24.66Z"/><path fill="#222" d="M113.725 182.725a1.375 1.375 0 0 1-1.38-1.38v-24.66c0-.495.265-.95.69-1.195l9.41-5.435c.43-.245.955-.245 1.385 0 .43.245.69.705.69 1.195v24.66c0 .495-.265.95-.69 1.195l-9.41 5.435a1.374 1.374 0 0 1-.69.185h-.005Zm1.38-25.245v21.47l6.645-3.835v-21.47l-6.645 3.835Z"/><path fill="#fff" d="m117.03 147.725-9.41 5.43 6.105 3.525 9.41-5.43-6.105-3.525Z"/><path fill="#222" d="M113.725 158.065c-.24 0-.475-.06-.69-.185l-6.105-3.525a1.375 1.375 0 0 1-.69-1.195c0-.49.265-.95.69-1.195l9.41-5.435c.43-.245.955-.245 1.385 0l6.105 3.525c.43.245.69.705.69 1.195 0 .49-.265.95-.69 1.195l-9.41 5.435a1.374 1.374 0 0 1-.69.185h-.005Zm-3.34-4.905 3.34 1.93 6.645-3.835-3.34-1.93-6.645 3.835Z"/><path fill="#fff" d="M107.62 153.155v24.665l6.105 3.525V156.68l-6.105-3.525Z"/><path fill="#222" d="M113.725 182.725c-.24 0-.475-.06-.69-.185l-6.105-3.525a1.375 1.375 0 0 1-.69-1.195v-24.66c0-.495.265-.95.69-1.195.43-.245.955-.245 1.385 0l6.105 3.525c.43.245.69.705.69 1.195v24.66a1.38 1.38 0 0 1-1.38 1.38h-.005Zm-4.72-5.705 3.34 1.93v-21.47l-3.34-1.93v21.47Z"/><path fill="#fff" d="m107.619 153.14-9.41 5.435 6.105 3.525 9.41-5.435-6.105-3.525Z"/><path fill="#222" d="M104.315 163.48c-.24 0-.475-.06-.69-.185l-6.105-3.525a1.375 1.375 0 0 1-.69-1.195c0-.49.265-.95.69-1.195l9.41-5.435c.43-.245.955-.245 1.385 0l6.105 3.525c.43.245.69.705.69 1.195 0 .49-.265.95-.69 1.195l-9.41 5.435a1.374 1.374 0 0 1-.69.185h-.005Zm-3.34-4.905 3.34 1.93 6.645-3.835-3.34-1.93-6.645 3.835Z"/><path fill="#fff" d="m113.724 156.666-9.41 5.435v24.66l9.41-5.435v-24.66Z"/><path fill="#222" d="M104.315 188.14a1.375 1.375 0 0 1-1.38-1.38V162.1c0-.495.265-.95.69-1.195l9.41-5.435c.43-.245.955-.245 1.385 0 .43.245.69.705.69 1.195v24.66c0 .495-.265.95-.69 1.195l-9.41 5.435a1.374 1.374 0 0 1-.69.185h-.005Zm1.38-25.245v21.47l6.645-3.835v-21.47l-6.645 3.835Z"/><path fill="#fff" d="M98.21 158.575v24.66l6.104 3.525V162.1l-6.104-3.525Z"/><path fill="#222" d="M104.315 188.141c-.24 0-.475-.06-.69-.185l-6.105-3.525a1.375 1.375 0 0 1-.69-1.195v-24.66c0-.495.265-.95.69-1.195.43-.245.955-.245 1.385 0l6.105 3.525c.43.245.69.705.69 1.195v24.66a1.38 1.38 0 0 1-1.38 1.38h-.005Zm-4.72-5.705 3.34 1.93v-21.47l-3.34-1.93v21.47Z"/><path fill="#FF3158" d="m92.635 171.99-13.66 7.885v27.78l13.66-7.89V171.99Z"/><path fill="#222" d="M78.975 209.035a1.375 1.375 0 0 1-1.38-1.38v-27.78c0-.495.265-.95.69-1.195l13.66-7.89c.43-.245.955-.245 1.38 0 .43.245.69.705.69 1.195v27.78c0 .495-.265.95-.69 1.195l-13.66 7.885a1.374 1.374 0 0 1-.69.185v.005Zm1.38-28.365v24.585l10.895-6.29V174.38l-10.895 6.29Z"/><path fill="#FF3158" d="m83.77 166.87-13.66 7.89 8.865 5.115 13.66-7.885-8.865-5.12Z"/><path fill="#222" d="M78.975 181.26c-.24 0-.475-.06-.69-.185l-8.865-5.115a1.375 1.375 0 0 1-.69-1.195c0-.49.265-.95.69-1.195l13.66-7.89c.43-.245.955-.245 1.385 0l8.865 5.115c.43.245.69.705.69 1.195 0 .49-.265.95-.69 1.195l-13.66 7.89a1.374 1.374 0 0 1-.69.185h-.005Zm-6.1-6.5 6.1 3.52 10.895-6.29-6.1-3.52-10.895 6.29Z"/><path fill="#FF3158" d="M70.11 174.76v27.78l8.865 5.115v-27.78l-8.865-5.115Z"/><path fill="#222" d="M78.975 209.035c-.24 0-.475-.06-.69-.185l-8.865-5.115a1.375 1.375 0 0 1-.69-1.195v-27.78c0-.495.265-.95.69-1.195.43-.245.955-.245 1.385 0l8.865 5.115c.43.245.69.705.69 1.195v27.78a1.38 1.38 0 0 1-1.38 1.38h-.005Zm-7.48-7.3 6.1 3.52V180.67l-6.1-3.52v24.585ZM88.749 190.248c1.093-2.796.712-5.558-.852-6.169-1.563-.612-3.717 1.159-4.81 3.954-1.094 2.796-.713 5.557.851 6.169 1.564.611 3.718-1.159 4.81-3.954Z"/><path fill="#fff" d="m293.854 135.635 27.905 16.11v48.34l-27.905-16.11v-48.34Z"/><path fill="#222" d="M321.76 201.47c-.24 0-.475-.06-.69-.185l-27.905-16.11a1.375 1.375 0 0 1-.69-1.195v-48.34a1.38 1.38 0 0 1 2.07-1.195l27.905 16.11c.425.245.69.705.69 1.195v48.34a1.38 1.38 0 0 1-1.38 1.38Zm-26.52-18.29 25.14 14.515V152.55l-25.14-14.515v45.145Z"/><path fill="#fff" d="M321.76 151.75v48.335l8.21-4.795v-48.34l-8.21 4.8Z"/><path fill="#222" d="M321.76 201.47a1.382 1.382 0 0 1-1.385-1.385v-48.34c0-.49.26-.945.685-1.195l8.21-4.795a1.385 1.385 0 0 1 2.08 1.195v48.34c0 .49-.26.945-.685 1.195l-8.21 4.795c-.215.125-.455.19-.7.19h.005Zm1.385-48.93v45.135l5.445-3.18V149.36l-5.445 3.18Z"/><path fill="#fff" d="m302.064 130.84-8.21 4.795 27.905 16.115 8.21-4.8-27.905-16.11Z"/><path fill="#222" d="M321.76 153.13c-.24 0-.475-.06-.69-.185l-27.905-16.11a1.38 1.38 0 0 1-.69-1.195c0-.495.26-.95.685-1.195l8.21-4.795c.43-.25.96-.25 1.39 0l27.905 16.11c.425.245.69.7.69 1.195 0 .495-.26.95-.685 1.195l-8.21 4.795c-.215.125-.455.19-.7.19v-.005Zm-25.15-17.5 25.145 14.52 5.46-3.19-25.145-14.52-5.46 3.19Z"/><path fill="#fff" d="m300.055 148.34 14.905 8.605v30.145l-14.905-8.605V148.34Z"/><path fill="#222" d="M314.96 188.47c-.24 0-.475-.06-.69-.185l-14.905-8.605a1.375 1.375 0 0 1-.69-1.195V148.34c0-.495.265-.95.69-1.195.43-.245.955-.245 1.385 0l14.905 8.605c.425.245.69.705.69 1.195v30.145a1.38 1.38 0 0 1-1.38 1.38h-.005Zm-13.52-10.785 12.14 7.01v-26.95l-12.14-7.01v26.95ZM142.44 174.61a1.38 1.38 0 0 1-1.38-1.38v-18.25a1.38 1.38 0 1 1 2.76 0v18.25c0 .765-.62 1.38-1.38 1.38Z"/><path fill="#DADADA" d="m244.505 153.444-40.635 23.465v58.3l40.635-23.46v-58.305Z"/><path fill="#222" d="M203.87 236.59a1.375 1.375 0 0 1-1.38-1.38v-58.3c0-.495.265-.95.69-1.195l40.635-23.46c.43-.245.955-.245 1.385 0 .43.245.69.705.69 1.195v58.3c0 .495-.265.95-.69 1.195l-40.635 23.46a1.374 1.374 0 0 1-.69.185h-.005Zm1.38-58.885v55.11l37.87-21.865v-55.11l-37.87 21.865Z"/><path fill="#DADADA" d="m218.146 138.225-40.635 23.465 26.365 15.22 40.63-23.465-26.36-15.22Z"/><path fill="#222" d="M203.876 178.289c-.24 0-.475-.06-.69-.185l-26.36-15.22a1.375 1.375 0 0 1-.69-1.195c0-.49.265-.95.69-1.195l40.635-23.46c.43-.245.955-.245 1.385 0l26.36 15.22c.43.245.69.705.69 1.195 0 .49-.265.95-.69 1.195l-40.635 23.46a1.374 1.374 0 0 1-.69.185h-.005Zm-23.6-16.605 23.6 13.625 37.87-21.865-23.6-13.625-37.87 21.865Z"/><path fill="#DADADA" d="M177.511 161.689v58.3l26.365 15.22v-58.3l-26.365-15.22Z"/><path fill="#222" d="M203.876 236.589c-.24 0-.475-.06-.69-.185l-26.36-15.22a1.375 1.375 0 0 1-.69-1.195v-58.3c0-.495.265-.95.69-1.195.43-.245.955-.245 1.385 0l26.36 15.22c.43.245.69.705.69 1.195v58.3a1.38 1.38 0 0 1-1.38 1.38h-.005Zm-24.98-17.4 23.6 13.625v-55.11l-23.6-13.625v55.11Z"/><path fill="#fff" d="M182.64 200.78v15.58l16.105 9.3v-15.58l-16.105-9.3Z"/><path fill="#222" d="M198.745 227.04c-.24 0-.475-.06-.69-.185l-16.105-9.3a1.375 1.375 0 0 1-.69-1.195v-15.58c0-.495.265-.95.69-1.195.43-.245.955-.245 1.385 0l16.105 9.3c.43.245.69.705.69 1.195v15.58a1.38 1.38 0 0 1-1.38 1.38h-.005Zm-14.72-11.48 13.34 7.7v-12.385l-13.34-7.7v12.385Z"/><path fill="#222" d="M198.745 216.655c-.235 0-.47-.06-.69-.185l-16.105-9.3a1.38 1.38 0 0 1-.505-1.89 1.38 1.38 0 0 1 1.89-.505l16.105 9.3c.66.38.89 1.225.505 1.89-.255.445-.72.69-1.2.69ZM198.745 221.85c-.235 0-.47-.06-.69-.185l-16.105-9.3a1.38 1.38 0 0 1-.505-1.89 1.38 1.38 0 0 1 1.89-.505l16.105 9.3c.66.38.89 1.225.505 1.89-.255.445-.72.69-1.2.69Z"/><path fill="#fff" d="M194.22 196.599c2.717-1.095 3.34-5.905 1.39-10.743s-5.734-7.873-8.451-6.777c-2.718 1.095-3.34 5.905-1.39 10.743s5.733 7.872 8.451 6.777Z"/><path fill="#222" d="M193.05 198.204c-.98 0-2.015-.3-3.05-.9-3.785-2.185-6.745-7.88-6.745-12.965 0-2.945 1.035-5.235 2.84-6.275 1.535-.885 3.415-.78 5.29.305 3.785 2.185 6.745 7.88 6.745 12.965 0 2.945-1.035 5.235-2.84 6.275a4.458 4.458 0 0 1-2.24.595Zm-4.71-17.97c-.295 0-.59.065-.865.22-.915.525-1.455 1.98-1.455 3.885 0 4.05 2.455 8.89 5.365 10.57.695.4 1.7.78 2.525.305.915-.525 1.455-1.98 1.455-3.885 0-4.05-2.455-8.89-5.365-10.57-.465-.27-1.065-.525-1.66-.525Z"/><path fill="#DADADA" d="m284.54 176.484-40.635 23.465v58.3l40.635-23.46v-58.305Z"/><path fill="#222" d="M243.905 259.63a1.375 1.375 0 0 1-1.38-1.38v-58.3c0-.495.265-.95.69-1.195l40.635-23.46c.43-.245.955-.245 1.385 0 .43.245.69.705.69 1.195v58.3c0 .495-.265.95-.69 1.195l-40.635 23.46a1.374 1.374 0 0 1-.69.185h-.005Zm1.38-58.885v55.11l37.87-21.865v-55.11l-37.87 21.865Z"/><path fill="#DADADA" d="M258.175 161.265 217.54 184.73l26.365 15.22 40.635-23.465-26.365-15.22Z"/><path fill="#222" d="M243.905 201.329c-.24 0-.475-.06-.69-.185l-26.36-15.22a1.375 1.375 0 0 1-.69-1.195c0-.49.265-.95.69-1.195l40.635-23.46c.43-.245.955-.245 1.385 0l26.36 15.22c.43.245.69.705.69 1.195 0 .49-.265.95-.69 1.195l-40.635 23.46a1.374 1.374 0 0 1-.69.185h-.005Zm-23.6-16.605 23.6 13.625 37.87-21.865-23.6-13.625-37.87 21.865Z"/><path fill="#DADADA" d="M217.54 184.729v58.3l26.365 15.22v-58.3l-26.365-15.22Z"/><path fill="#222" d="M243.905 259.629c-.24 0-.475-.06-.69-.185l-26.36-15.22a1.375 1.375 0 0 1-.69-1.195v-58.3c0-.495.265-.95.69-1.195.43-.245.955-.245 1.385 0l26.36 15.22c.43.245.69.705.69 1.195v58.3a1.38 1.38 0 0 1-1.38 1.38h-.005Zm-24.98-17.4 23.6 13.625v-55.11l-23.6-13.625v55.11Z"/><path fill="#fff" d="M222.67 223.819v15.58l16.105 9.3v-15.58l-16.105-9.3Z"/><path fill="#222" d="M238.775 250.079c-.24 0-.475-.06-.69-.185l-16.105-9.3a1.375 1.375 0 0 1-.69-1.195v-15.58c0-.495.265-.95.69-1.195.43-.245.955-.245 1.385 0l16.105 9.3c.43.245.69.705.69 1.195v15.58a1.38 1.38 0 0 1-1.38 1.38h-.005Zm-14.72-11.48 13.34 7.7v-12.385l-13.34-7.7v12.385Z"/><path fill="#222" d="M238.775 239.694c-.235 0-.47-.06-.69-.185l-16.105-9.3a1.38 1.38 0 0 1-.505-1.89 1.38 1.38 0 0 1 1.89-.505l16.105 9.3c.66.38.89 1.225.505 1.89-.255.445-.72.69-1.2.69ZM238.775 244.889c-.235 0-.47-.06-.69-.185l-16.105-9.3a1.38 1.38 0 0 1-.505-1.89 1.38 1.38 0 0 1 1.89-.505l16.105 9.3c.66.38.89 1.225.505 1.89-.255.445-.72.69-1.2.69Z"/><path fill="#fff" d="M234.255 219.639c2.717-1.095 3.34-5.905 1.39-10.743s-5.734-7.873-8.451-6.777c-2.718 1.095-3.34 5.905-1.39 10.743s5.733 7.872 8.451 6.777Z"/><path fill="#222" d="M233.085 221.245c-.98 0-2.015-.3-3.05-.9-3.785-2.185-6.745-7.88-6.745-12.965 0-2.945 1.035-5.235 2.84-6.275 1.535-.885 3.415-.78 5.29.305 3.785 2.185 6.745 7.88 6.745 12.965 0 2.945-1.035 5.235-2.84 6.275a4.458 4.458 0 0 1-2.24.595Zm-4.71-17.97c-.295 0-.59.065-.865.22-.915.525-1.455 1.98-1.455 3.885 0 4.05 2.455 8.89 5.365 10.57.695.4 1.7.78 2.525.305.915-.525 1.455-1.98 1.455-3.885 0-4.05-2.455-8.89-5.365-10.57-.465-.27-1.065-.525-1.66-.525Z"/><path fill="#DADADA" d="M138.905 74.365v82.345l7.065-4.075v-82.35l-7.065 4.08Z"/><path fill="#222" d="M138.905 158.095a1.375 1.375 0 0 1-1.38-1.38v-82.35c0-.495.265-.95.69-1.195l7.065-4.08c.43-.245.955-.245 1.38 0 .43.245.69.705.69 1.195v82.345c0 .495-.265.95-.69 1.195l-7.065 4.08a1.374 1.374 0 0 1-.69.185v.005Zm1.38-82.93v79.155l4.3-2.485V72.68l-4.3 2.48v.005Z"/><path fill="#DADADA" d="M177.11 52.305v83.6l7.065-4.08V48.23l-7.065 4.075Z"/><path fill="#222" d="M177.11 137.285a1.375 1.375 0 0 1-1.38-1.38v-83.6c0-.495.265-.95.69-1.195l7.065-4.08c.43-.245.955-.245 1.385 0 .43.245.69.705.69 1.195v83.595c0 .495-.265.95-.69 1.195l-7.065 4.08a1.374 1.374 0 0 1-.69.185l-.005.005Zm1.38-84.18v80.405l4.3-2.485V50.62l-4.3 2.485Z"/><path fill="#DADADA" d="M158.01 63.335v82.975l7.06-4.08V59.255l-7.06 4.08Z"/><path fill="#222" d="M158.01 147.69a1.375 1.375 0 0 1-1.38-1.38V63.335c0-.495.265-.95.69-1.195l7.065-4.08c.43-.245.955-.245 1.385 0 .43.245.69.705.69 1.195v82.97c0 .495-.265.95-.69 1.195l-7.065 4.08a1.374 1.374 0 0 1-.69.185l-.005.005Zm1.38-83.555v79.78l4.3-2.485V61.65l-4.3 2.485Z"/><path fill="#444" d="M251.875 99.26v77.805c0 1.82 2.875 3.295 6.42 3.295s6.42-1.475 6.42-3.295V99.26h-12.84Z"/><path fill="#222" d="M258.295 181.745c-4.45 0-7.805-2.01-7.805-4.68V99.26c0-.765.62-1.38 1.38-1.38h12.84c.765 0 1.38.62 1.38 1.38v77.805c0 2.67-3.355 4.68-7.805 4.68h.01Zm-5.04-81.1v76.42c0 .675 1.915 1.915 5.04 1.915s5.04-1.24 5.04-1.915v-76.42h-10.08Z"/><path fill="#444" d="M251.875 99.259c0 1.82 2.875 3.295 6.42 3.295s6.42-1.475 6.42-3.295c0-1.82-2.875-3.295-6.42-3.295s-6.42 1.475-6.42 3.295Z"/><path fill="#222" d="M258.295 103.939c-4.45 0-7.805-2.01-7.805-4.68s3.355-4.68 7.805-4.68c4.45 0 7.805 2.01 7.805 4.68s-3.355 4.68-7.805 4.68Zm0-6.595c-3.125 0-5.04 1.24-5.04 1.915s1.915 1.915 5.04 1.915 5.04-1.24 5.04-1.915-1.915-1.915-5.04-1.915Z"/><path fill="#444" d="M211.84 76.22v77.806c0 1.82 2.875 3.295 6.42 3.295s6.42-1.475 6.42-3.295V76.221h-12.84Z"/><path fill="#222" d="M218.26 158.705c-4.45 0-7.805-2.01-7.805-4.68V76.22c0-.765.62-1.38 1.38-1.38h12.84c.765 0 1.38.62 1.38 1.38v77.805c0 2.67-3.355 4.68-7.805 4.68h.01Zm-5.04-81.1v76.42c0 .675 1.915 1.915 5.04 1.915s5.04-1.24 5.04-1.915v-76.42h-10.08Z"/><path fill="#444" d="M211.84 76.22c0 1.82 2.875 3.295 6.42 3.295s6.42-1.475 6.42-3.295c0-1.82-2.875-3.295-6.42-3.295s-6.42 1.475-6.42 3.295Z"/><path fill="#222" d="M218.26 80.9c-4.45 0-7.805-2.01-7.805-4.68s3.355-4.68 7.805-4.68c4.45 0 7.805 2.01 7.805 4.68s-3.355 4.68-7.805 4.68Zm0-6.595c-3.125 0-5.04 1.24-5.04 1.915s1.915 1.915 5.04 1.915 5.04-1.24 5.04-1.915-1.915-1.915-5.04-1.915Z"/><path fill="#444" d="m117.025 108.87-46.87 27.06 6.115 3.585 46.865-27.065-6.11-3.58Z"/><path fill="#222" d="M76.27 140.895c-.24 0-.485-.065-.7-.19l-6.115-3.58a1.387 1.387 0 0 1-.685-1.195c0-.49.265-.945.69-1.195l46.865-27.06c.43-.25.96-.245 1.39 0l6.115 3.58c.425.25.685.705.685 1.195 0 .49-.265.945-.69 1.195l-46.865 27.06a1.374 1.374 0 0 1-.69.185v.005Zm-3.365-4.955 3.37 1.975 44.11-25.47-3.37-1.975-44.11 25.47Z"/><path fill="#444" d="M70.155 135.93v19.73l6.105 3.525v-19.73l-6.105-3.525Z"/><path fill="#222" d="M76.26 160.565c-.24 0-.475-.06-.69-.185l-6.105-3.525a1.375 1.375 0 0 1-.69-1.195v-19.73c0-.495.265-.95.69-1.195.43-.245.955-.245 1.385 0l6.105 3.525c.43.245.69.705.69 1.195v19.73a1.38 1.38 0 0 1-1.38 1.38h-.005Zm-4.72-5.705 3.34 1.93v-16.535l-3.34-1.93v16.535Z"/><path fill="#fff" d="M76.27 139.515V159.2l46.865-27.065V112.45l-46.866 27.065Z"/><path fill="#222" d="M76.27 160.58a1.375 1.375 0 0 1-1.38-1.38v-19.685c0-.495.265-.95.69-1.195l46.865-27.06c.43-.245.955-.245 1.38 0 .43.245.69.705.69 1.195v19.685c0 .495-.265.95-.69 1.195l-46.865 27.06a1.374 1.374 0 0 1-.69.185Zm1.38-20.27v16.495l44.1-25.465v-16.495l-44.1 25.465Z"/><path fill="#222" d="M76.27 150.74c-.48 0-.945-.25-1.2-.69a1.388 1.388 0 0 1 .505-1.89l46.865-27.06a1.388 1.388 0 0 1 1.89.505c.38.66.155 1.505-.505 1.89l-46.865 27.06c-.22.125-.455.185-.69.185Z"/><path fill="#222" d="M115.325 138.03a1.38 1.38 0 0 1-1.38-1.38v-19.685a1.38 1.38 0 1 1 2.76 0v19.685c0 .765-.62 1.38-1.38 1.38ZM107.515 142.54a1.38 1.38 0 0 1-1.38-1.38v-19.685a1.38 1.38 0 1 1 2.76 0v19.685c0 .765-.62 1.38-1.38 1.38ZM99.705 147.05a1.38 1.38 0 0 1-1.38-1.38v-19.685a1.38 1.38 0 1 1 2.76 0v19.685c0 .765-.62 1.38-1.38 1.38ZM91.89 151.56a1.38 1.38 0 0 1-1.38-1.38v-19.685a1.38 1.38 0 1 1 2.76 0v19.685c0 .765-.62 1.38-1.38 1.38ZM84.08 156.07a1.38 1.38 0 0 1-1.38-1.38v-19.685a1.38 1.38 0 1 1 2.76 0v19.685c0 .765-.62 1.38-1.38 1.38ZM310.611 170.753c.561-.22.697-1.21.305-2.213-.392-1.003-1.165-1.639-1.726-1.419-.56.219-.697 1.21-.304 2.213.392 1.003 1.164 1.638 1.725 1.419Z"/></svg>