<svg xmlns="http://www.w3.org/2000/svg" width="400" height="401" fill="none" viewBox="0 0 400 401"><path fill="#fff" d="M139.436 151.217v53.999l-25.89-24.781v-14.794l-74.711 30.144v91.724l41.794 39.945H360.98l-.925-176.237H139.436Z"/><path fill="#fff" d="M139.436 151.217v51.225l-25.89-24.041v-51.04l25.89 23.856Z"/><path fill="#fff" d="M334.166 127.361h-220.62l25.89 23.856h220.619l-25.889-23.856Z"/><path fill="#DADADA" d="m139.436 213.352-58.807 24.411-34.952-25.335v69.533l67.869-.185 25.89 21.636v-90.06ZM139.436 161.202v36.062l-21.082-19.603V141.6l21.082 19.602Z"/><path fill="#FF0053" d="M278.502 285.475h-55.294v41.793h55.294v-41.793ZM113.546 288.618H38.835l41.794 38.835h74.711l-41.794-38.835Z"/><path fill="#222" d="M194.914 214.647h-55.478c-.74 0-1.479-.555-1.479-1.479v-8.877c0-.74.554-1.479 1.479-1.479h55.478c.74 0 1.48.554 1.48 1.479v8.877c-.185.924-.74 1.479-1.48 1.479Zm-54.184-2.774h52.705v-6.103H140.73v6.103ZM360.98 161.573H139.436c-.74 0-1.479-.555-1.479-1.48v-8.876c0-.74.554-1.48 1.479-1.48H360.98c.74 0 1.48.555 1.48 1.48v8.876c0 .925-.74 1.48-1.48 1.48Zm-220.25-2.774h218.771v-6.103H140.73v6.103ZM250.208 328.748c-.74 0-1.479-.555-1.479-1.479v-61.582c0-.739.554-1.479 1.479-1.479s1.48.555 1.48 1.479v61.582c-.185.924-.74 1.479-1.48 1.479Z"/><path fill="#222" d="M222.469 328.748H194.73c-.74 0-1.48-.555-1.48-1.479V160.278c0-.739.555-1.479 1.48-1.479h27.739c.74 0 1.479.555 1.479 1.479v167.175c0 .74-.739 1.295-1.479 1.295Zm-26.26-2.774h24.965V161.573h-24.965v164.401Z"/><path fill="#222" d="M250.208 286.954h-27.739c-.74 0-1.48-.555-1.48-1.479V160.278c0-.739.555-1.479 1.48-1.479h27.739c.74 0 1.479.555 1.479 1.479V285.66c-.184.554-.739 1.294-1.479 1.294Zm-26.26-2.774h24.966V161.573h-24.966V284.18Z"/><path fill="#222" d="M277.947 286.954h-27.739c-.74 0-1.479-.555-1.479-1.479V160.278c0-.739.554-1.479 1.479-1.479h27.739c.74 0 1.48.555 1.48 1.479V285.66c-.185.554-.74 1.294-1.48 1.294Zm-26.444-2.774h24.965V161.573h-24.965V284.18Z"/><path fill="#222" d="M305.687 328.748h-27.74c-.739 0-1.479-.555-1.479-1.479V160.278c0-.739.555-1.479 1.479-1.479h27.74c.739 0 1.479.555 1.479 1.479v167.175c-.185.74-.74 1.295-1.479 1.295Zm-26.445-2.774h24.965V161.573h-24.965v164.401Z"/><path fill="#222" d="M333.241 328.748h-27.739c-.74 0-1.48-.555-1.48-1.479V160.278c0-.739.555-1.479 1.48-1.479h27.739c.74 0 1.479.555 1.479 1.479v167.175c0 .74-.554 1.295-1.479 1.295Zm-26.26-2.774h24.965V161.573h-24.965v164.401Z"/><path fill="#222" d="M360.98 328.748h-27.739c-.74 0-1.48-.555-1.48-1.479V160.278c0-.739.555-1.479 1.48-1.479h27.739c.74 0 1.48.555 1.48 1.479v167.175c0 .74-.74 1.295-1.48 1.295Zm-26.26-2.774h24.966V161.573H334.72v164.401ZM194.914 328.748H80.629c-.37 0-.74-.185-.925-.37L37.91 289.543c-.37-.185-.37-.555-.37-.925v-92.834c0-.554.37-1.109.925-1.294l74.711-30.328c.74-.37 1.48 0 1.849.739.37.74 0 1.48-.739 1.85l-73.787 29.958v91.17l40.684 38.095h112.252V214.647h-53.629l-57.698 24.041v75.266c0 .739-.555 1.479-1.48 1.479-.924 0-1.479-.555-1.479-1.479v-76.191c0-.555.37-1.109.925-1.294l58.807-24.411c.185 0 .37-.185.555-.185h55.478c.74 0 1.48.555 1.48 1.48v114.1c-.185.74-.74 1.295-1.48 1.295Z"/><path fill="#222" d="M80.629 328.748c-.74 0-1.48-.555-1.48-1.479v-99.122l-41.054-29.774c-.554-.369-.74-1.294-.37-1.849.37-.555 1.295-.74 1.85-.37l41.793 30.329c.37.185.555.739.555 1.109v99.861c.185.74-.37 1.295-1.294 1.295ZM139.436 205.77c-.74 0-1.479-.555-1.479-1.479v-52.335l-25.336-23.671a1.452 1.452 0 0 1 0-2.034 1.452 1.452 0 0 1 2.035 0l25.89 24.041c.369.185.369.555.369.924v53.075c-.184.924-.739 1.479-1.479 1.479Z"/><path fill="#222" d="M80.629 228.886c-.555 0-1.11-.369-1.295-.924-.37-.74 0-1.48.74-1.849l56.773-22.192-24.226-22.561c-.369-.185-.369-.555-.369-.925v-53.074c0-.74.554-1.48 1.479-1.48h221.544c.37 0 .74.185.925.37l25.89 24.041a1.45 1.45 0 0 1 0 2.034 1.45 1.45 0 0 1-2.034 0l-25.521-23.671h-219.51v51.225l25.336 23.486c.37.37.554.74.37 1.295 0 .555-.37.924-.925 1.109l-58.807 23.116h-.37ZM305.687 328.748H152.936c-.74 0-1.48-.555-1.48-1.48 0-.924.555-1.479 1.48-1.479h151.271V204.106c0-.74.555-1.48 1.48-1.48.924 0 1.479.555 1.479 1.48v122.977c-.185 1.11-.74 1.665-1.479 1.665Z"/><path fill="#222" d="M194.914 328.748c-.369 0-.739-.185-.924-.37l-41.794-38.835a1.45 1.45 0 0 1 0-2.034 1.45 1.45 0 0 1 2.034 0l41.794 38.835a1.45 1.45 0 0 1 0 2.034c-.37.37-.74.37-1.11.37ZM141.1 315.618a1.41 1.41 0 0 1-.924-.37l-27-25.15H38.835c-.74 0-1.48-.555-1.48-1.48 0-.925.555-1.479 1.48-1.479h74.711c.37 0 .74.185.925.37l27.554 25.52a1.45 1.45 0 0 1 0 2.034c-.185.37-.555.555-.925.555ZM80.629 239.243c-.37 0-.555 0-.74-.185l-41.794-30.329c-.554-.369-.74-1.294-.37-1.849.37-.555 1.295-.74 1.85-.37l41.793 30.329c.555.369.74 1.294.37 1.849-.185.37-.555.555-1.11.555ZM139.436 162.867c-.37 0-.74-.185-.925-.37l-25.89-24.04a1.454 1.454 0 0 1 0-2.035 1.454 1.454 0 0 1 2.035 0l25.89 24.041c.554.555.554 1.48 0 2.034-.37.185-.74.37-1.11.37Z"/><path fill="#DADADA" d="M68.608 143.08c0-2.405 8.322-10.911 17.754-13.685 7.951-2.404 17.753-1.295 17.753 1.109v70.458c0 2.404-7.952 5.918-17.753 5.918-9.802 0-17.754-3.514-17.754-5.918V143.08Z"/><path fill="#222" d="M86.362 208.174c-9.802 0-19.233-3.513-19.233-7.212V143.08c0-3.329 9.431-12.391 18.863-15.165 6.472-2.034 15.534-1.849 18.493.37.924.74 1.109 1.48 1.109 2.034v70.458c0 3.699-9.246 7.397-19.232 7.397ZM70.088 143.08v57.697c.37 1.11 6.657 4.438 16.459 4.438 9.8 0 16.088-3.513 16.458-4.623v-70.088c-1.109-1.109-8.876-2.034-16.089 0-9.246 2.774-16.643 10.911-16.828 12.576Z"/><path fill="#444" d="M89.814 143.846c10-4.147 16.553-11.255 14.636-15.878-1.917-4.623-11.577-5.009-21.577-.862-10 4.146-16.553 11.255-14.637 15.877 1.917 4.623 11.578 5.009 21.578.863Z"/><path fill="#222" d="M76.93 148.073c-4.993 0-8.692-1.479-9.986-4.623-2.22-5.363 4.438-13.13 15.35-17.753 10.91-4.439 21.081-3.884 23.485 1.664 2.219 5.363-4.438 13.13-15.35 17.753-4.992 2.034-9.615 2.959-13.499 2.959Zm18.863-22.376c-3.514 0-7.767.924-12.39 2.774-9.987 4.068-15.35 10.725-13.87 14.054 1.48 3.329 9.801 4.253 19.787.185 9.987-4.068 15.349-10.726 13.87-14.054-.74-1.85-3.514-2.959-7.397-2.959Z"/><path fill="#DADADA" d="M154.6 77.06c0-2.404 8.322-10.91 17.753-13.87 7.952-2.403 17.753-1.294 17.753 1.11v70.458c0 2.404-7.952 5.918-17.753 5.918s-17.753-3.514-17.753-5.918V77.06Z"/><path fill="#222" d="M172.353 142.155c-9.801 0-19.232-3.513-19.232-7.212V77.06c0-3.328 9.431-12.39 18.862-15.164 6.473-2.034 15.534-1.849 18.493.37.925.74 1.11 1.48 1.11 2.034v70.458c0 3.884-9.432 7.397-19.233 7.397Zm-16.458-65.094v57.697c.369 1.11 6.657 4.438 16.458 4.438 9.801 0 16.089-3.513 16.459-4.623V64.485c-1.11-1.11-8.877-2.034-16.089 0-9.061 2.774-16.644 10.911-16.828 12.576Z"/><path fill="#444" d="M175.607 77.877c10-4.146 16.553-11.255 14.636-15.878-1.917-4.623-11.577-5.009-21.577-.862-10 4.146-16.553 11.255-14.636 15.878 1.916 4.622 11.577 5.008 21.577.862Z"/><path fill="#222" d="M162.737 82.238h-.925c-4.623-.184-7.767-1.849-9.061-4.623-1.11-2.774 0-6.102 3.144-9.616 2.958-3.144 7.212-6.103 12.205-8.137 4.993-2.034 10.171-3.144 14.424-2.959 4.623.185 7.767 1.85 9.062 4.623 2.219 5.363-4.439 13.13-15.349 17.754-4.623 1.849-9.432 2.958-13.5 2.958Zm19.048-22.56c-3.699 0-8.137.924-12.391 2.773-4.623 1.85-8.691 4.623-11.28 7.397-2.404 2.59-3.329 4.993-2.589 6.658.739 1.664 3.144 2.774 6.472 2.774 3.884.184 8.507-.74 13.315-2.774 9.986-4.069 15.349-10.726 13.87-14.055-.74-1.664-3.144-2.774-6.473-2.774h-.924Z"/><path fill="#DADADA" d="M223.208 77.06c0-2.404 8.322-10.91 17.754-13.87 7.952-2.403 17.753-1.294 17.753 1.11v70.458c0 2.404-7.952 5.918-17.753 5.918-9.802 0-17.754-3.514-17.754-5.918V77.06Z"/><path fill="#222" d="M240.962 142.155c-9.802 0-19.233-3.513-19.233-7.212V77.06c0-3.328 9.431-12.39 18.863-15.164 6.472-2.034 15.534-1.849 18.493.37.924.74 1.109 1.48 1.109 2.034v70.458c0 3.884-9.246 7.397-19.232 7.397Zm-16.274-65.094v57.697c.37 1.11 6.657 4.438 16.459 4.438 9.801 0 16.088-3.513 16.458-4.623V64.485c-1.109-1.11-8.876-2.034-16.089 0-9.061 2.774-16.643 10.911-16.828 12.576Z"/><path fill="#444" d="M244.394 77.854c10-4.147 16.553-11.256 14.636-15.878-1.916-4.623-11.577-5.009-21.577-.863-10 4.147-16.553 11.255-14.636 15.878 1.917 4.623 11.577 5.009 21.577.863Z"/><path fill="#222" d="M231.53 82.238h-.924c-4.624-.184-7.767-1.849-9.062-4.623-1.109-2.774 0-6.102 3.144-9.616 2.959-3.144 7.212-6.103 12.205-8.137 4.993-2.034 10.171-3.144 14.425-2.959 4.623.185 7.767 1.85 9.061 4.623 2.219 5.363-4.438 13.13-15.349 17.754-4.808 1.849-9.431 2.958-13.5 2.958Zm18.863-22.56c-3.699 0-8.137.924-12.39 2.773-4.623 1.85-8.692 4.623-11.281 7.397-2.404 2.59-3.329 4.993-2.589 6.658.74 1.664 3.144 2.774 6.473 2.774 3.883.184 8.506-.74 13.314-2.774 9.987-4.069 15.35-10.726 13.87-14.055-.74-1.664-3.144-2.774-6.472-2.774h-.925Z"/><path fill="#DADADA" d="M287.933 77.06c0-2.404 8.322-10.91 17.754-13.87 7.952-2.403 17.753-1.294 17.753 1.11v70.458c0 2.404-7.952 5.918-17.753 5.918-9.802 0-17.754-3.514-17.754-5.918V77.06Z"/><path fill="#222" d="M305.687 142.155c-9.802 0-19.233-3.513-19.233-7.212V77.06c0-3.328 9.431-12.39 18.863-15.164 6.472-2.034 15.534-1.849 18.493.37.924.74 1.109 1.48 1.109 2.034v70.458c0 3.884-9.431 7.397-19.232 7.397Zm-16.459-65.094v57.697c.37 1.11 6.657 4.438 16.459 4.438 9.801 0 16.088-3.513 16.458-4.623V64.485c-1.109-1.11-8.876-2.034-16.089 0-9.061 2.774-16.458 10.911-16.828 12.576Z"/><path fill="#444" d="M308.935 77.886c10-4.146 16.553-11.255 14.636-15.877-1.917-4.623-11.577-5.01-21.577-.863-10.001 4.147-16.553 11.255-14.637 15.878 1.917 4.623 11.578 5.009 21.578.862Z"/><path fill="#222" d="M296.07 82.239c-4.993 0-8.691-1.48-9.986-4.624-2.219-5.363 4.438-13.13 15.349-17.753 10.911-4.438 21.082-3.883 23.486 1.664 2.219 5.363-4.438 13.13-15.349 17.754-4.808 1.849-9.431 2.959-13.5 2.959Zm19.048-22.562c-3.514 0-7.767.925-12.39 2.774-9.986 4.069-15.349 10.726-13.87 14.055 1.48 3.328 9.801 4.253 19.787.185 9.987-4.069 15.349-10.726 13.87-14.055-.74-1.85-3.514-2.959-7.397-2.959Z"/><path fill="#fff" d="M194.915 160.278h-27.74v167.176h27.74V160.278Z"/><path fill="#222" d="M194.914 328.748h-27.739c-.739 0-1.479-.555-1.479-1.479V160.278c0-.739.555-1.479 1.479-1.479h27.739c.74 0 1.48.555 1.48 1.479v167.175c-.185.74-.74 1.295-1.48 1.295Zm-26.444-2.774h24.965V161.573H168.47v164.401Z"/><path fill="#fff" d="M167.175 160.278h-27.739v167.176h27.739V160.278Z"/><path fill="#222" d="M167.175 328.748h-27.739c-.74 0-1.479-.555-1.479-1.479V160.278c0-.739.554-1.479 1.479-1.479h27.739c.74 0 1.48.555 1.48 1.479v167.175c-.185.74-.74 1.295-1.48 1.295Zm-26.445-2.774h24.966V161.573H140.73v164.401ZM113.546 288.988c-.74 0-1.479-.554-1.479-1.479v-63.43c0-.74.554-1.48 1.479-1.48s1.479.555 1.479 1.48v63.43c0 .74-.739 1.479-1.479 1.479Z"/></svg>