<svg xmlns="http://www.w3.org/2000/svg" width="400" height="400" fill="none" viewBox="0 0 400 400"><path fill="#fff" d="M139.436 150.717v53.999l-25.89-24.781v-14.794l-74.711 30.144v91.724l41.794 39.945H360.98l-.925-176.237H139.436Z"/><path fill="#fff" d="M139.436 150.717v51.225l-25.89-24.041v-51.04l25.89 23.856ZM334.165 126.861H113.546l25.89 23.856h220.619l-25.89-23.856Z"/><path fill="#DADADA" d="m139.436 212.852-58.807 24.411-34.952-25.335v69.533l67.869-.185 25.89 21.636v-90.06ZM139.436 160.702v36.062l-21.082-19.603V141.1l21.082 19.602Z"/><path fill="#FF0053" d="M278.502 284.975h-55.294v41.793h55.294v-41.793ZM113.546 288.118H38.835l41.794 38.835h74.711l-41.794-38.835Z"/><path fill="#222" d="M194.914 214.147h-55.478c-.74 0-1.479-.555-1.479-1.479v-8.877c0-.74.554-1.479 1.479-1.479h55.478c.74 0 1.48.554 1.48 1.479v8.877c-.185.924-.74 1.479-1.48 1.479Zm-54.184-2.774h52.705v-6.103H140.73v6.103ZM360.98 161.073H139.436c-.74 0-1.479-.555-1.479-1.48v-8.876c0-.74.554-1.48 1.479-1.48H360.98c.74 0 1.48.555 1.48 1.48v8.876c0 .925-.74 1.48-1.48 1.48Zm-220.25-2.774h218.771v-6.103H140.73v6.103ZM250.208 328.248c-.74 0-1.479-.555-1.479-1.479v-61.582c0-.739.554-1.479 1.479-1.479s1.479.555 1.479 1.479v61.582c-.185.924-.739 1.479-1.479 1.479Z"/><path fill="#222" d="M222.469 328.248h-27.74c-.739 0-1.479-.555-1.479-1.479V159.778c0-.739.555-1.479 1.479-1.479h27.74c.739 0 1.479.555 1.479 1.479v167.175c0 .74-.74 1.295-1.479 1.295Zm-26.26-2.774h24.965V161.073h-24.965v164.401Z"/><path fill="#222" d="M250.208 286.454h-27.739c-.74 0-1.48-.555-1.48-1.479V159.778c0-.739.555-1.479 1.48-1.479h27.739c.74 0 1.479.555 1.479 1.479V285.16c-.185.554-.739 1.294-1.479 1.294Zm-26.26-2.774h24.965V161.073h-24.965V283.68Z"/><path fill="#222" d="M277.947 286.454h-27.739c-.74 0-1.479-.555-1.479-1.479V159.778c0-.739.554-1.479 1.479-1.479h27.739c.74 0 1.48.555 1.48 1.479V285.16c-.185.554-.74 1.294-1.48 1.294Zm-26.445-2.774h24.966V161.073h-24.966V283.68Z"/><path fill="#222" d="M305.686 328.248h-27.739c-.74 0-1.479-.555-1.479-1.479V159.778c0-.739.555-1.479 1.479-1.479h27.739c.74 0 1.48.555 1.48 1.479v167.175c-.185.74-.74 1.295-1.48 1.295Zm-26.444-2.774h24.965V161.073h-24.965v164.401Z"/><path fill="#222" d="M333.241 328.248h-27.74c-.739 0-1.479-.555-1.479-1.479V159.778c0-.739.555-1.479 1.479-1.479h27.74c.739 0 1.479.555 1.479 1.479v167.175c0 .74-.555 1.295-1.479 1.295Zm-26.26-2.774h24.965V161.073h-24.965v164.401Z"/><path fill="#222" d="M360.98 328.248h-27.739c-.74 0-1.48-.555-1.48-1.479V159.778c0-.739.555-1.479 1.48-1.479h27.739c.74 0 1.479.555 1.479 1.479v167.175c0 .74-.739 1.295-1.479 1.295Zm-26.26-2.774h24.965V161.073H334.72v164.401ZM194.915 328.248H80.629c-.37 0-.74-.185-.925-.37L37.91 289.043c-.37-.185-.37-.555-.37-.925v-92.834c0-.554.37-1.109.925-1.294l74.711-30.328c.74-.37 1.48 0 1.85.739.369.74-.001 1.48-.74 1.85l-73.787 29.958v91.17l40.685 38.095h112.251V214.147h-53.629l-57.698 24.041v75.266c0 .739-.555 1.479-1.48 1.479-.924 0-1.479-.555-1.479-1.479v-76.191c0-.555.37-1.109.925-1.294l58.807-24.411c.185 0 .37-.185.555-.185h55.479c.739 0 1.479.555 1.479 1.48v114.1c-.185.74-.74 1.295-1.479 1.295Z"/><path fill="#222" d="M80.629 328.248c-.74 0-1.48-.555-1.48-1.479v-99.122l-41.053-29.774c-.555-.369-.74-1.294-.37-1.849.37-.555 1.294-.74 1.849-.37l41.794 30.329c.37.185.555.739.555 1.109v99.861c.184.74-.37 1.295-1.295 1.295ZM139.436 205.27c-.74 0-1.48-.555-1.48-1.479v-52.335l-25.335-23.671a1.45 1.45 0 0 1 0-2.034 1.45 1.45 0 0 1 2.034 0l25.89 24.041c.37.185.37.555.37.924v53.075c-.185.924-.74 1.479-1.479 1.479Z"/><path fill="#222" d="M80.629 228.386c-.555 0-1.11-.369-1.295-.924-.37-.74 0-1.48.74-1.849l56.773-22.192-24.226-22.561c-.37-.185-.37-.555-.37-.925v-53.074c0-.74.555-1.48 1.48-1.48h221.544c.37 0 .74.185.925.37l25.89 24.041a1.452 1.452 0 0 1 0 2.034 1.452 1.452 0 0 1-2.035 0l-25.52-23.671h-219.51v51.225l25.335 23.486c.37.37.555.74.37 1.295 0 .555-.37.924-.924 1.109l-58.808 23.116h-.37ZM305.687 328.248H152.936c-.74 0-1.479-.555-1.479-1.48 0-.924.554-1.479 1.479-1.479h151.271V203.606c0-.74.555-1.48 1.48-1.48.924 0 1.479.555 1.479 1.48v122.977c-.185 1.11-.74 1.665-1.479 1.665Z"/><path fill="#222" d="M194.914 328.248a1.41 1.41 0 0 1-.924-.37l-41.794-38.835a1.45 1.45 0 0 1 0-2.034 1.45 1.45 0 0 1 2.034 0l41.794 38.835a1.45 1.45 0 0 1 0 2.034c-.37.37-.74.37-1.11.37ZM141.1 315.118a1.41 1.41 0 0 1-.924-.37l-27-25.15H38.835c-.74 0-1.48-.555-1.48-1.48 0-.925.555-1.479 1.48-1.479h74.711c.37 0 .74.185.925.37l27.554 25.52a1.45 1.45 0 0 1 0 2.034c-.185.37-.555.555-.925.555ZM80.629 238.743c-.37 0-.555 0-.74-.185l-41.793-30.329c-.555-.369-.74-1.294-.37-1.849.37-.555 1.294-.74 1.849-.37l41.794 30.329c.555.369.74 1.294.37 1.849-.185.37-.555.555-1.11.555ZM139.436 162.367c-.37 0-.74-.185-.925-.37l-25.89-24.04a1.452 1.452 0 0 1 0-2.035 1.452 1.452 0 0 1 2.034 0l25.89 24.041a1.45 1.45 0 0 1 0 2.034c-.37.185-.739.37-1.109.37Z"/><path fill="#DADADA" d="M68.608 142.58c0-2.405 8.322-10.911 17.754-13.685 7.951-2.404 17.753-1.295 17.753 1.109v70.458c0 2.404-7.952 5.918-17.753 5.918-9.802 0-17.754-3.514-17.754-5.918V142.58Z"/><path fill="#222" d="M86.362 207.674c-9.802 0-19.233-3.513-19.233-7.212V142.58c0-3.329 9.431-12.391 18.863-15.165 6.472-2.034 15.534-1.849 18.492.37.925.74 1.11 1.48 1.11 2.034v70.458c0 3.699-9.246 7.397-19.232 7.397ZM70.088 142.58v57.697c.37 1.11 6.657 4.438 16.458 4.438 9.802 0 16.089-3.513 16.459-4.623v-70.088c-1.11-1.109-8.877-2.034-16.089 0-9.246 2.774-16.643 10.911-16.828 12.576Z"/><path fill="#444" d="M89.814 143.346c10-4.147 16.553-11.255 14.636-15.878-1.917-4.623-11.577-5.009-21.577-.862-10 4.146-16.553 11.255-14.636 15.877 1.916 4.623 11.577 5.009 21.577.863Z"/><path fill="#222" d="M76.93 147.573c-4.993 0-8.691-1.479-9.986-4.623-2.219-5.363 4.438-13.13 15.35-17.753 10.91-4.439 21.081-3.884 23.485 1.664 2.219 5.363-4.438 13.13-15.349 17.753-4.993 2.034-9.616 2.959-13.5 2.959Zm18.863-22.376c-3.514 0-7.767.924-12.39 2.774-9.986 4.068-15.35 10.725-13.87 14.054 1.48 3.329 9.801 4.253 19.787.185 9.987-4.068 15.35-10.726 13.87-14.054-.74-1.85-3.513-2.959-7.397-2.959Z"/><path fill="#DADADA" d="M154.6 76.56c0-2.404 8.322-10.91 17.753-13.87 7.952-2.403 17.753-1.294 17.753 1.11v70.458c0 2.404-7.952 5.918-17.753 5.918s-17.753-3.514-17.753-5.918V76.56Z"/><path fill="#222" d="M172.353 141.655c-9.801 0-19.232-3.513-19.232-7.212V76.56c0-3.328 9.431-12.39 18.862-15.164 6.473-2.034 15.534-1.849 18.493.37.925.74 1.11 1.48 1.11 2.034v70.458c0 3.884-9.432 7.397-19.233 7.397Zm-16.458-65.094v57.697c.369 1.11 6.657 4.438 16.458 4.438 9.801 0 16.089-3.513 16.459-4.623V63.985c-1.11-1.11-8.877-2.034-16.089 0-9.061 2.774-16.644 10.911-16.828 12.576Z"/><path fill="#444" d="M175.607 77.377c10-4.146 16.553-11.255 14.636-15.878-1.917-4.623-11.577-5.009-21.577-.862-10 4.146-16.553 11.255-14.636 15.878 1.916 4.622 11.577 5.008 21.577.862Z"/><path fill="#222" d="M162.737 81.738h-.925c-4.623-.184-7.767-1.849-9.061-4.623-1.11-2.774 0-6.102 3.143-9.616 2.959-3.144 7.213-6.103 12.206-8.137 4.993-2.034 10.171-3.144 14.424-2.959 4.623.185 7.767 1.85 9.062 4.623 2.219 5.363-4.439 13.13-15.35 17.754-4.623 1.849-9.431 2.958-13.499 2.958Zm19.047-22.56c-3.698 0-8.137.924-12.39 2.773-4.623 1.85-8.692 4.623-11.281 7.397-2.404 2.59-3.328 4.993-2.589 6.658.74 1.664 3.144 2.774 6.473 2.774 3.883.184 8.507-.74 13.315-2.774 9.986-4.069 15.349-10.726 13.869-14.055-.739-1.664-3.143-2.774-6.472-2.774h-.925Z"/><path fill="#DADADA" d="M223.208 76.56c0-2.404 8.322-10.91 17.754-13.87 7.952-2.403 17.753-1.294 17.753 1.11v70.458c0 2.404-7.952 5.918-17.753 5.918-9.802 0-17.754-3.514-17.754-5.918V76.56Z"/><path fill="#222" d="M240.962 141.655c-9.802 0-19.233-3.513-19.233-7.212V76.56c0-3.328 9.431-12.39 18.863-15.164 6.472-2.034 15.534-1.849 18.493.37.924.74 1.109 1.48 1.109 2.034v70.458c0 3.884-9.246 7.397-19.232 7.397Zm-16.274-65.094v57.697c.37 1.11 6.657 4.438 16.458 4.438 9.802 0 16.089-3.513 16.459-4.623V63.985c-1.109-1.11-8.876-2.034-16.089 0-9.061 2.774-16.643 10.911-16.828 12.576Z"/><path fill="#444" d="M244.395 77.354c10-4.147 16.552-11.256 14.636-15.878-1.917-4.623-11.577-5.009-21.578-.863-10 4.147-16.553 11.255-14.636 15.878 1.917 4.623 11.577 5.009 21.578.863Z"/><path fill="#222" d="M231.531 81.738h-.925c-4.623-.184-7.767-1.849-9.061-4.623-1.11-2.774 0-6.102 3.143-9.616 2.959-3.144 7.213-6.103 12.206-8.137 4.993-2.034 10.171-3.144 14.424-2.959 4.623.185 7.767 1.85 9.061 4.623 2.22 5.363-4.438 13.13-15.349 17.754-4.808 1.849-9.431 2.958-13.499 2.958Zm18.862-22.56c-3.698 0-8.137.924-12.39 2.773-4.623 1.85-8.692 4.623-11.281 7.397-2.404 2.59-3.328 4.993-2.589 6.658.74 1.664 3.144 2.774 6.473 2.774 3.883.184 8.507-.74 13.315-2.774 9.986-4.069 15.349-10.726 13.869-14.055-.739-1.664-3.143-2.774-6.472-2.774h-.925Z"/><path fill="#DADADA" d="M287.934 76.56c0-2.404 8.321-10.91 17.753-13.87 7.952-2.403 17.753-1.294 17.753 1.11v70.458c0 2.404-7.952 5.918-17.753 5.918s-17.753-3.514-17.753-5.918V76.56Z"/><path fill="#222" d="M305.687 141.655c-9.802 0-19.233-3.513-19.233-7.212V76.56c0-3.328 9.431-12.39 18.863-15.164 6.472-2.034 15.534-1.849 18.493.37.924.74 1.109 1.48 1.109 2.034v70.458c0 3.884-9.431 7.397-19.232 7.397Zm-16.459-65.094v57.697c.37 1.11 6.657 4.438 16.459 4.438 9.801 0 16.088-3.513 16.458-4.623V63.985c-1.109-1.11-8.876-2.034-16.088 0-9.062 2.774-16.459 10.911-16.829 12.576Z"/><path fill="#444" d="M308.935 77.386c10-4.146 16.552-11.255 14.636-15.877-1.917-4.623-11.577-5.01-21.578-.863-10 4.147-16.552 11.255-14.636 15.878 1.917 4.623 11.577 5.009 21.578.862Z"/><path fill="#222" d="M296.07 81.739c-4.993 0-8.692-1.48-9.986-4.624-2.219-5.363 4.438-13.13 15.349-17.753 10.911-4.438 21.082-3.883 23.486 1.664 2.219 5.363-4.439 13.13-15.349 17.754-4.808 1.849-9.432 2.959-13.5 2.959Zm19.048-22.562c-3.514 0-7.767.925-12.391 2.774-9.986 4.069-15.349 10.726-13.869 14.055 1.479 3.328 9.801 4.253 19.787.185 9.986-4.069 15.349-10.726 13.87-14.055-.74-1.85-3.514-2.959-7.397-2.959Z"/><path fill="#fff" d="M194.915 159.778h-27.74v167.176h27.74V159.778Z"/><path fill="#222" d="M194.914 328.248h-27.739c-.739 0-1.479-.555-1.479-1.479V159.778c0-.739.555-1.479 1.479-1.479h27.739c.74 0 1.48.555 1.48 1.479v167.175c-.185.74-.74 1.295-1.48 1.295Zm-26.444-2.774h24.965V161.073H168.47v164.401Z"/><path fill="#fff" d="M167.175 159.778h-27.739v167.176h27.739V159.778Z"/><path fill="#222" d="M167.175 328.248h-27.739c-.74 0-1.479-.555-1.479-1.479V159.778c0-.739.554-1.479 1.479-1.479h27.739c.74 0 1.48.555 1.48 1.479v167.175c-.185.74-.74 1.295-1.48 1.295Zm-26.445-2.774h24.966V161.073H140.73v164.401ZM113.546 288.488c-.74 0-1.48-.554-1.48-1.479v-63.43c0-.74.555-1.48 1.48-1.48.924 0 1.479.555 1.479 1.48v63.43c0 .74-.739 1.479-1.479 1.479Z"/></svg>