<svg xmlns="http://www.w3.org/2000/svg" width="401" height="401" fill="none" viewBox="0 0 401 401"><path fill="#fff" d="M236.76 141.15V84.965h-98.12v28.605H40.52v203.835h113.545l22.815-17.33-1.64 2.36c-.21.4 3.555 4.86 4.38 13.965l-.215 1.175 57.36-.175h123.22V141.15H236.76Z"/><path fill="#DADADA" d="m128.67 250.109 15.705 20.48v41.291h-33.09v-4.146H75.58v4.146H46.715v-24.036h3.965v-35.705h-3.965v-24.035h97.66v17.145c-1.915 0-3.795.185-5.605.555-1.81.37-3.56.92-5.215 1.62a27.79 27.79 0 0 0-4.72 2.56l-.165.131v-.006ZM180.265 149.04l-20.46 15.725h-15.43v-84.65h21.735v4.075h61.55v-4.075h21.735v108.37h-48.83V164.76h-15.43c0-1.935-.185-3.795-.555-5.605-.37-1.825-.92-3.56-1.62-5.235a28.499 28.499 0 0 0-2.56-4.72l-.13-.165-.005.005Z"/><path fill="#222" d="M194.825 318.96c-.765 0-1.385-.62-1.385-1.385V276.27a1.385 1.385 0 1 1 2.77 0v41.305c0 .765-.62 1.385-1.385 1.385ZM243.655 195.56H194.82c-.765 0-1.385-.62-1.385-1.38 0-.76.62-1.38 1.385-1.38h47.45V85.815c0-.765.62-1.38 1.385-1.38s1.385.62 1.385 1.38v108.36c0 .765-.62 1.38-1.385 1.38v.005Z"/><path fill="#222" d="M359.98 318.96H179.4c-.765 0-1.385-.62-1.385-1.385a26.328 26.328 0 0 0-2.07-10.28 26.54 26.54 0 0 0-1.75-3.42l-19.295 14.8c-.24.185-.535.285-.84.285H40.975c-.765 0-1.385-.62-1.385-1.385v-202.68c0-.765.62-1.38 1.385-1.38h96.285v-27.7c0-.765.62-1.38 1.385-1.38H243.66c.765 0 1.385.62 1.385 1.38v53.95h114.94c.765 0 1.385.62 1.385 1.38v176.43c0 .765-.62 1.385-1.385 1.385h-.005Zm-179.23-2.765h177.845V142.53h-114.94c-.765 0-1.385-.62-1.385-1.38V87.2H140.02v27.7c0 .765-.62 1.38-1.385 1.38h-96.28v199.915H153.59l22.44-17.215a1.385 1.385 0 0 1 1.94.255c.465.605.35 1.475-.255 1.94l-1.315 1.01c.8 1.29 1.505 2.645 2.095 4.035a29.108 29.108 0 0 1 2.26 9.98l-.005-.005Z"/><path fill="#222" d="M138.64 318.96c-.765 0-1.385-.62-1.385-1.385V276.74L120.04 254.3a1.385 1.385 0 0 1 .255-1.94 1.385 1.385 0 0 1 1.94.255l17.505 22.815c.185.24.285.535.285.84v41.305c0 .765-.62 1.385-1.385 1.385ZM121.135 214.985a1.384 1.384 0 0 1-1.025-2.31l17.145-19.03V85.815c0-.765.62-1.38 1.385-1.38s1.385.62 1.385 1.38v108.36c0 .34-.125.67-.355.925l-17.505 19.425c-.275.305-.65.455-1.03.455v.005Z"/><path fill="#222" d="M123.1 257.06c-.445 0-.88-.215-1.145-.61a1.387 1.387 0 0 1 .37-1.92 29.15 29.15 0 0 1 4.955-2.69 29.108 29.108 0 0 1 9.98-2.26v-32.105a29.108 29.108 0 0 1-9.98-2.26 28.962 28.962 0 0 1-4.955-2.69 1.378 1.378 0 0 1-.37-1.92 1.378 1.378 0 0 1 1.92-.37c1.41.955 2.92 1.77 4.485 2.435 1.595.675 3.26 1.19 4.955 1.535a26.72 26.72 0 0 0 5.325.535c.765 0 1.385.62 1.385 1.38v34.805c0 .765-.62 1.385-1.385 1.385a26.328 26.328 0 0 0-10.28 2.07 26.116 26.116 0 0 0-4.485 2.435c-.235.16-.505.235-.77.235l-.005.01Z"/><path fill="#222" d="M138.64 235.185H40.975a1.385 1.385 0 1 1 0-2.77h97.665a1.385 1.385 0 1 1 0 2.77ZM154.06 171.835h-15.42c-.765 0-1.385-.62-1.385-1.38 0-.76.62-1.38 1.385-1.38h14.95l22.44-17.215a1.385 1.385 0 0 1 1.94.255c.465.605.35 1.475-.255 1.94L154.9 171.56c-.24.185-.535.285-.84.285v-.01Z"/><path fill="#222" d="M194.825 235.185c-.765 0-1.385-.62-1.385-1.385v-61.97H179.4c-.765 0-1.385-.62-1.385-1.38a26.328 26.328 0 0 0-2.07-10.28 26.116 26.116 0 0 0-2.435-4.485 1.387 1.387 0 0 1 .37-1.92c.63-.43 1.49-.26 1.92.37a28.962 28.962 0 0 1 4.39 10.435c.3 1.475.49 2.98.56 4.5h14.07c.765 0 1.385.62 1.385 1.38v63.35c0 .765-.62 1.385-1.385 1.385h.005Z"/><path fill="#FF3158" d="M105.56 313.425H69.855v7.96h35.705v-7.96Z"/><path fill="#222" d="M105.56 322.765H69.855c-.765 0-1.385-.62-1.385-1.385v-7.96c0-.765.62-1.385 1.385-1.385h35.705c.765 0 1.385.62 1.385 1.385v7.96c0 .765-.62 1.385-1.385 1.385ZM71.235 320h32.94v-5.195h-32.94V320Z"/><path fill="#FF3158" d="M105.56 110.54H69.855v7.96h35.705v-7.96Z"/><path fill="#222" d="M105.56 119.88H69.855c-.765 0-1.385-.62-1.385-1.38v-7.96c0-.765.62-1.38 1.385-1.38h35.705c.765 0 1.385.62 1.385 1.38v7.96c0 .765-.62 1.38-1.385 1.38Zm-34.325-2.765h32.94v-5.195h-32.94v5.195Z"/><path fill="#FF3158" d="M255.79 313.425h-35.705v7.96h35.705v-7.96Z"/><path fill="#222" d="M255.79 322.765h-35.705c-.765 0-1.385-.62-1.385-1.385v-7.96c0-.765.62-1.385 1.385-1.385h35.705c.765 0 1.385.62 1.385 1.385v7.96c0 .765-.62 1.385-1.385 1.385ZM221.465 320h32.94v-5.195h-32.94V320Z"/><path fill="#FF3158" d="M337.365 313.425H301.66v7.96h35.705v-7.96Z"/><path fill="#222" d="M337.37 322.765h-35.705c-.765 0-1.385-.62-1.385-1.385v-7.96c0-.765.62-1.385 1.385-1.385h35.705c.765 0 1.385.62 1.385 1.385v7.96c0 .765-.62 1.385-1.385 1.385ZM303.045 320h32.94v-5.195h-32.94V320Z"/><path fill="#FF3158" d="M364.005 200.89v-35.705h-7.96v35.705h7.96Z"/><path fill="#222" d="M364.005 202.275h-7.96c-.765 0-1.385-.62-1.385-1.38V165.19c0-.765.62-1.38 1.385-1.38h7.96c.765 0 1.385.62 1.385 1.38v35.705c0 .765-.62 1.38-1.385 1.38Zm-6.575-2.765h5.195v-32.94h-5.195v32.94Z"/><path fill="#FF3158" d="M364.01 293.545V222.13h-7.96v71.415h7.96Z"/><path fill="#222" d="M364.005 294.925h-7.96c-.765 0-1.385-.62-1.385-1.385v-71.415c0-.765.62-1.38 1.385-1.38h7.96c.765 0 1.385.62 1.385 1.38v71.415c0 .765-.62 1.385-1.385 1.385Zm-6.575-2.765h5.195v-68.65h-5.195v68.65Z"/><path fill="#FF3158" d="M44.95 211.695V140.28h-7.96v71.415h7.96Z"/><path fill="#222" d="M44.95 213.08h-7.96c-.765 0-1.385-.62-1.385-1.38v-71.415c0-.765.62-1.38 1.385-1.38h7.96c.765 0 1.385.62 1.385 1.38V211.7c0 .765-.62 1.38-1.385 1.38Zm-6.575-2.765h5.195v-68.65h-5.195v68.65Z"/><path fill="#FF3158" d="M44.955 293.54v-35.705h-7.96v35.705h7.96Z"/><path fill="#222" d="M44.95 294.925h-7.96c-.765 0-1.385-.62-1.385-1.385v-35.705c0-.765.62-1.385 1.385-1.385h7.96c.765 0 1.385.62 1.385 1.385v35.705c0 .765-.62 1.385-1.385 1.385Zm-6.575-2.765h5.195v-32.94h-5.195v32.94Z"/><path fill="#FF3158" d="M324.325 137.17H279.31v7.96h45.015v-7.96Z"/><path fill="#222" d="M324.325 146.51H279.31c-.765 0-1.385-.62-1.385-1.38v-7.96c0-.765.62-1.38 1.385-1.38h45.015c.765 0 1.385.62 1.385 1.38v7.96c0 .765-.62 1.38-1.385 1.38Zm-43.635-2.765h42.25v-5.195h-42.25v5.195Z"/><path fill="#FF3158" d="M221.915 81.936h-61.54v7.96h61.54v-7.96Z"/><path fill="#222" d="M221.92 91.275h-61.54c-.765 0-1.385-.62-1.385-1.38v-7.96c0-.765.62-1.38 1.385-1.38h61.54c.765 0 1.385.62 1.385 1.38v7.96c0 .765-.62 1.38-1.385 1.38Zm-60.16-2.765h58.775v-5.195H161.76v5.195Z"/></svg>