<svg xmlns="http://www.w3.org/2000/svg" width="400" height="401" fill="none" viewBox="0 0 400 401"><path fill="#fff" d="M236.26 141.15V84.965h-98.12v28.605H40.02v203.835h113.545l22.815-17.33-1.64 2.36c-.21.4 3.555 4.86 4.38 13.965l-.215 1.175 57.36-.175h123.22V141.15H236.26Z"/><path fill="#DADADA" d="m128.17 250.11 15.705 20.48v41.29h-33.09v-4.145H75.08v4.145H46.215v-24.035h3.965V252.14h-3.965v-24.035h97.66v17.145c-1.915 0-3.795.185-5.605.555a27.72 27.72 0 0 0-9.935 4.18l-.165.13v-.005ZM179.765 149.04l-20.46 15.725h-15.43v-84.65h21.735v4.075h61.55v-4.075h21.735v108.37h-48.83V164.76h-15.43c0-1.935-.185-3.795-.555-5.605-.37-1.825-.92-3.56-1.62-5.235a28.499 28.499 0 0 0-2.56-4.72l-.13-.165-.005.005Z"/><path fill="#222" d="M194.325 318.962a1.38 1.38 0 0 1-1.38-1.385v-41.305c0-.765.62-1.385 1.38-1.385.76 0 1.38.62 1.38 1.385v41.305c0 .765-.62 1.385-1.38 1.385ZM243.155 195.562H194.32a1.38 1.38 0 0 1-1.38-1.385c0-.765.62-1.385 1.38-1.385h47.45V85.817c0-.765.62-1.385 1.38-1.385.76 0 1.38.62 1.38 1.385v108.36c0 .765-.62 1.385-1.38 1.385h.005Z"/><path fill="#222" d="M359.48 318.961H178.9a1.38 1.38 0 0 1-1.38-1.385 26.328 26.328 0 0 0-2.07-10.28 26.87 26.87 0 0 0-1.75-3.42l-19.295 14.8c-.24.185-.535.285-.84.285H40.475a1.38 1.38 0 0 1-1.38-1.385v-202.68c0-.765.62-1.385 1.38-1.385h96.285v-27.7c0-.765.62-1.385 1.38-1.385h105.02c.765 0 1.38.62 1.38 1.385v53.95h114.94c.765 0 1.38.62 1.38 1.385v176.43c0 .765-.62 1.385-1.38 1.385Zm-179.23-2.765h177.845V142.531h-114.94a1.38 1.38 0 0 1-1.38-1.385v-53.95H139.52v27.7c0 .765-.62 1.385-1.38 1.385H41.855v199.915H153.09l22.44-17.215a1.385 1.385 0 0 1 1.94.255c.465.605.35 1.475-.255 1.94l-1.315 1.01c.8 1.29 1.505 2.645 2.095 4.035a29.108 29.108 0 0 1 2.26 9.98l-.005-.005Z"/><path fill="#222" d="M138.14 318.962a1.38 1.38 0 0 1-1.38-1.385v-40.835l-17.215-22.44a1.385 1.385 0 0 1 .255-1.94 1.385 1.385 0 0 1 1.94.255l17.5 22.815c.185.24.285.535.285.84v41.305c0 .765-.62 1.385-1.38 1.385h-.005ZM120.635 214.987a1.378 1.378 0 0 1-1.025-2.305l17.145-19.035V85.817c0-.765.62-1.385 1.38-1.385.76 0 1.38.62 1.38 1.385v108.36c0 .34-.125.67-.355.925l-17.5 19.425c-.275.305-.65.455-1.03.455l.005.005Z"/><path fill="#222" d="M122.6 257.061a1.383 1.383 0 0 1-.775-2.53 28.962 28.962 0 0 1 10.435-4.39c1.475-.3 2.98-.49 4.5-.56v-32.105a29.108 29.108 0 0 1-9.98-2.26 28.962 28.962 0 0 1-4.955-2.69 1.378 1.378 0 0 1-.37-1.92 1.378 1.378 0 0 1 1.92-.37c1.41.955 2.92 1.77 4.485 2.435 1.595.675 3.26 1.19 4.955 1.535a26.72 26.72 0 0 0 5.325.535c.765 0 1.38.62 1.38 1.385v34.805c0 .765-.62 1.385-1.38 1.385a26.328 26.328 0 0 0-10.28 2.07 26.116 26.116 0 0 0-4.485 2.435c-.235.16-.505.235-.77.235l-.005.005Z"/><path fill="#222" d="M138.14 235.186H40.475a1.38 1.38 0 0 1-1.38-1.385c0-.765.62-1.385 1.38-1.385h97.665c.765 0 1.38.62 1.38 1.385s-.62 1.385-1.38 1.385ZM153.56 171.837h-15.42a1.38 1.38 0 0 1-1.38-1.385c0-.765.62-1.385 1.38-1.385h14.955l22.44-17.215a1.385 1.385 0 0 1 1.94.255c.465.605.35 1.475-.255 1.94l-22.815 17.505c-.24.185-.535.285-.84.285h-.005Z"/><path fill="#222" d="M194.325 235.186a1.38 1.38 0 0 1-1.38-1.385v-61.97h-14.04a1.38 1.38 0 0 1-1.38-1.385 26.328 26.328 0 0 0-2.07-10.28 26.116 26.116 0 0 0-2.435-4.485c-.43-.635-.26-1.49.37-1.92.63-.425 1.49-.26 1.92.37a28.962 28.962 0 0 1 4.39 10.435c.3 1.475.49 2.98.56 4.5h14.07c.765 0 1.38.62 1.38 1.385v63.35c0 .765-.62 1.385-1.38 1.385h-.005Z"/><path fill="#FF3158" d="M105.06 313.428H69.355v7.96h35.705v-7.96Z"/><path fill="#222" d="M105.06 322.767H69.355a1.38 1.38 0 0 1-1.38-1.385v-7.96c0-.765.62-1.385 1.38-1.385h35.705c.765 0 1.38.62 1.38 1.385v7.96c0 .765-.62 1.385-1.38 1.385Zm-34.325-2.765h32.94v-5.195h-32.94v5.195Z"/><path fill="#FF3158" d="M105.06 110.541H69.356v7.96h35.704v-7.96Z"/><path fill="#222" d="M105.06 119.881H69.355a1.38 1.38 0 0 1-1.38-1.385v-7.96c0-.765.62-1.385 1.38-1.385h35.705c.765 0 1.38.62 1.38 1.385v7.96c0 .765-.62 1.385-1.38 1.385Zm-34.325-2.765h32.94v-5.195h-32.94v5.195Z"/><path fill="#FF3158" d="M255.29 313.428h-35.705v7.96h35.705v-7.96Z"/><path fill="#222" d="M255.29 322.767h-35.705a1.38 1.38 0 0 1-1.38-1.385v-7.96c0-.765.62-1.385 1.38-1.385h35.705c.765 0 1.38.62 1.38 1.385v7.96c0 .765-.62 1.385-1.38 1.385Zm-34.325-2.765h32.94v-5.195h-32.94v5.195Z"/><path fill="#FF3158" d="M336.865 313.428H301.16v7.96h35.705v-7.96Z"/><path fill="#222" d="M336.87 322.767h-35.705a1.38 1.38 0 0 1-1.38-1.385v-7.96c0-.765.62-1.385 1.38-1.385h35.705c.765 0 1.38.62 1.38 1.385v7.96c0 .765-.62 1.385-1.38 1.385Zm-34.325-2.765h32.94v-5.195h-32.94v5.195Z"/><path fill="#FF3158" d="M363.505 200.891v-35.705h-7.96v35.705h7.96Z"/><path fill="#222" d="M363.505 202.276h-7.96a1.38 1.38 0 0 1-1.38-1.385v-35.705c0-.765.62-1.385 1.38-1.385h7.96c.765 0 1.38.62 1.38 1.385v35.705c0 .765-.62 1.385-1.38 1.385Zm-6.575-2.765h5.195v-32.94h-5.195v32.94Z"/><path fill="#FF3158" d="M363.51 293.546v-71.415h-7.96v71.415h7.96Z"/><path fill="#222" d="M363.505 294.926h-7.96a1.38 1.38 0 0 1-1.38-1.385v-71.415c0-.765.62-1.385 1.38-1.385h7.96c.765 0 1.38.62 1.38 1.385v71.415c0 .765-.62 1.385-1.38 1.385Zm-6.575-2.765h5.195v-68.65h-5.195v68.65Z"/><path fill="#FF3158" d="M44.45 211.696v-71.415h-7.96v71.415h7.96Z"/><path fill="#222" d="M44.45 213.081h-7.96a1.38 1.38 0 0 1-1.38-1.385v-71.415c0-.765.62-1.385 1.38-1.385h7.96c.765 0 1.38.62 1.38 1.385v71.415c0 .765-.62 1.385-1.38 1.385Zm-6.575-2.765h5.195v-68.65h-5.195v68.65Z"/><path fill="#FF3158" d="M44.455 293.541v-35.705h-7.96v35.705h7.96Z"/><path fill="#222" d="M44.45 294.926h-7.96a1.38 1.38 0 0 1-1.38-1.385v-35.705c0-.765.62-1.385 1.38-1.385h7.96c.765 0 1.38.62 1.38 1.385v35.705c0 .765-.62 1.385-1.38 1.385Zm-6.575-2.765h5.195v-32.94h-5.195v32.94Z"/><path fill="#FF3158" d="M323.825 137.172H278.81v7.96h45.015v-7.96Z"/><path fill="#222" d="M323.825 146.511H278.81a1.38 1.38 0 0 1-1.38-1.385v-7.96c0-.765.62-1.385 1.38-1.385h45.015c.765 0 1.38.62 1.38 1.385v7.96c0 .765-.62 1.385-1.38 1.385Zm-43.635-2.765h42.25v-5.195h-42.25v5.195Z"/><path fill="#FF3158" d="M221.415 81.938h-61.54v7.96h61.54v-7.96Z"/><path fill="#222" d="M221.42 91.277h-61.54a1.38 1.38 0 0 1-1.38-1.385v-7.96c0-.765.62-1.385 1.38-1.385h61.54c.765 0 1.38.62 1.38 1.385v7.96c0 .765-.62 1.385-1.38 1.385Zm-60.16-2.765h58.775v-5.195H161.26v5.195Z"/></svg>