<svg xmlns="http://www.w3.org/2000/svg" width="401" height="401" fill="none" viewBox="0 0 401 401"><path fill="#444" d="M188.85 356.565c82.241 0 148.91-66.669 148.91-148.91s-66.669-148.91-148.91-148.91-148.91 66.669-148.91 148.91 66.669 148.91 148.91 148.91Z"/><path fill="#222" d="M188.85 357.965c-40.15 0-77.895-15.635-106.285-44.025S38.54 247.805 38.54 207.655c0-40.15 15.635-77.895 44.025-106.285S148.7 57.345 188.85 57.345c40.15 0 77.895 15.635 106.285 44.025s44.025 66.135 44.025 106.285c0 40.15-15.635 77.895-44.025 106.285S229 357.965 188.85 357.965Zm0-297.82c-39.4 0-76.445 15.345-104.305 43.205-27.86 27.86-43.205 64.905-43.205 104.305 0 39.4 15.345 76.445 43.205 104.305 27.86 27.86 64.905 43.205 104.305 43.205 39.4 0 76.445-15.345 104.305-43.205 27.86-27.86 43.205-64.905 43.205-104.305 0-39.4-15.345-76.445-43.205-104.305-27.86-27.86-64.905-43.205-104.305-43.205Z"/><path fill="#fff" d="M195.85 347.555c82.241 0 148.91-66.669 148.91-148.91s-66.669-148.91-148.91-148.91-148.91 66.669-148.91 148.91 66.669 148.91 148.91 148.91Z"/><path fill="#222" d="M195.85 348.955c-40.15 0-77.895-15.635-106.285-44.025S45.54 238.795 45.54 198.645c0-40.15 15.635-77.895 44.025-106.285S155.7 48.335 195.85 48.335c40.15 0 77.895 15.635 106.285 44.025s44.025 66.135 44.025 106.285c0 40.15-15.635 77.895-44.025 106.285S236 348.955 195.85 348.955Zm0-297.82c-39.4 0-76.445 15.345-104.305 43.205-27.86 27.86-43.205 64.905-43.205 104.305 0 39.4 15.345 76.445 43.205 104.305 27.86 27.86 64.905 43.205 104.305 43.205 39.4 0 76.445-15.345 104.305-43.205 27.86-27.86 43.205-64.905 43.205-104.305 0-39.4-15.345-76.445-43.205-104.305-27.86-27.86-64.905-43.205-104.305-43.205Z"/><path fill="#DADADA" d="M210 338.76c82.241 0 148.91-66.669 148.91-148.91S292.241 40.94 210 40.94 61.09 107.609 61.09 189.85 127.76 338.76 210 338.76Z"/><path fill="#222" d="M195.85 348.955c-40.15 0-77.895-15.635-106.285-44.025S45.54 238.795 45.54 198.645c0-40.15 15.635-77.895 44.025-106.285S155.7 48.335 195.85 48.335c40.15 0 77.895 15.635 106.285 44.025s44.025 66.135 44.025 106.285c0 40.15-15.635 77.895-44.025 106.285S236 348.955 195.85 348.955Zm0-297.82c-39.4 0-76.445 15.345-104.305 43.205-27.86 27.86-43.205 64.905-43.205 104.305 0 39.4 15.345 76.445 43.205 104.305 27.86 27.86 64.905 43.205 104.305 43.205 39.4 0 76.445-15.345 104.305-43.205 27.86-27.86 43.205-64.905 43.205-104.305 0-39.4-15.345-76.445-43.205-104.305-27.86-27.86-64.905-43.205-104.305-43.205Z"/><path fill="#222" d="M195.85 348.955c-12.275 0-35.31-19-53.58-44.19-13.695-18.89-36.675-57.79-36.675-106.115 0-48.325 22.72-87.305 36.265-106.11 9.265-12.87 19.555-24 29.75-32.185 9.645-7.745 18.255-12.01 24.245-12.01 12.275 0 35.31 19 53.58 44.19 13.695 18.89 36.675 57.79 36.675 106.115 0 48.325-22.98 87.225-36.675 106.115-18.27 25.195-41.305 44.19-53.58 44.19h-.005Zm0-297.82c-10.055 0-31.6 15.08-51.725 43.035-13.345 18.535-35.735 56.75-35.735 104.475 0 47.725 22.645 85.86 36.145 104.475 19.535 26.94 41.435 43.035 51.32 43.035 9.885 0 31.78-16.1 51.32-43.035 13.5-18.615 36.145-56.94 36.145-104.475s-22.645-85.86-36.145-104.475c-19.535-26.94-41.435-43.035-51.32-43.035h-.005Z"/><path fill="#222" d="M197.245 49.735h-2.795v297.82h2.795V49.735Z"/><path fill="#222" d="M344.76 197.245H46.94v2.795h297.82v-2.795ZM195.85 139.995c-45.625 0-88.24-12.2-116.92-33.48l1.665-2.245c28.21 20.925 70.22 32.925 115.255 32.925s87.045-12 115.255-32.925l1.665 2.245c-28.68 21.275-71.295 33.48-116.92 33.48ZM311.105 293.02c-28.21-20.925-70.22-32.925-115.255-32.925s-87.045 12-115.255 32.925l-1.665-2.245c28.68-21.275 71.295-33.48 116.92-33.48s88.24 12.2 116.92 33.48l-1.665 2.245Z"/><path fill="#fff" d="M332.295 76.755c0 14.92-27.02 49.225-27.02 49.225s-27.02-34.305-27.02-49.225c0-14.92 12.095-27.02 27.02-27.02 14.925 0 27.02 12.095 27.02 27.02Z"/><path fill="#FF3158" d="M326.67 76.755c0 14.92-27.02 49.225-27.02 49.225s-27.02-34.305-27.02-49.225c0-14.92 12.095-27.02 27.02-27.02 14.925 0 27.02 12.095 27.02 27.02Z"/><path fill="#222" d="M299.65 127.315c-.41 0-.795-.19-1.05-.51-1.115-1.415-27.305-34.845-27.305-50.055s12.72-28.355 28.355-28.355 28.355 12.72 28.355 28.355-26.19 48.635-27.305 50.055c-.255.32-.64.51-1.05.51Zm0-76.245c-14.16 0-25.685 11.52-25.685 25.685 0 12.65 20.735 40.56 25.685 47.04 4.95-6.48 25.685-34.39 25.685-47.04 0-14.16-11.52-25.685-25.685-25.685Z"/><path fill="#fff" d="M299.65 94.285c8.952 0 16.21-7.258 16.21-16.21 0-8.953-7.258-16.21-16.21-16.21-8.953 0-16.21 7.257-16.21 16.21 0 8.952 7.257 16.21 16.21 16.21Z"/><path fill="#222" d="M299.65 95.62c-9.675 0-17.545-7.87-17.545-17.545s7.87-17.545 17.545-17.545 17.545 7.87 17.545 17.545-7.87 17.545-17.545 17.545Zm0-32.42c-8.205 0-14.875 6.675-14.875 14.875S291.45 92.95 299.65 92.95s14.875-6.675 14.875-14.875S307.85 63.2 299.65 63.2Z"/><path fill="#fff" d="M130.645 117.71c0 14.92-27.02 49.225-27.02 49.225s-27.02-34.305-27.02-49.225c0-14.92 12.095-27.02 27.02-27.02 14.925 0 27.02 12.095 27.02 27.02Z"/><path fill="#FF3158" d="M125.02 117.71c0 14.92-27.02 49.225-27.02 49.225S70.98 132.63 70.98 117.71c0-14.92 12.095-27.02 27.02-27.02 14.925 0 27.02 12.095 27.02 27.02Z"/><path fill="#222" d="M98 168.271c-.41 0-.795-.19-1.05-.51-1.115-1.415-27.305-34.845-27.305-50.055S82.365 89.351 98 89.351s28.355 12.72 28.355 28.355-26.19 48.635-27.305 50.055c-.255.32-.64.51-1.05.51Zm0-76.245c-14.16 0-25.685 11.52-25.685 25.685 0 12.65 20.735 40.56 25.685 47.04 4.95-6.48 25.685-34.395 25.685-47.04 0-14.16-11.52-25.685-25.685-25.685Z"/><path fill="#fff" d="M98 135.24c8.953 0 16.21-7.257 16.21-16.21 0-8.952-7.257-16.21-16.21-16.21-8.953 0-16.21 7.258-16.21 16.21 0 8.953 7.257 16.21 16.21 16.21Z"/><path fill="#222" d="M98 136.575c-9.675 0-17.545-7.87-17.545-17.545s7.87-17.545 17.545-17.545 17.545 7.87 17.545 17.545-7.87 17.545-17.545 17.545Zm0-32.42c-8.205 0-14.875 6.675-14.875 14.875S89.8 133.905 98 133.905s14.875-6.675 14.875-14.875S106.2 104.155 98 104.155Z"/><path fill="#fff" d="M268.65 234.675c0 14.92-27.02 49.225-27.02 49.225s-27.02-34.305-27.02-49.225c0-14.92 12.095-27.02 27.02-27.02 14.925 0 27.02 12.095 27.02 27.02Z"/><path fill="#FF3158" d="M263.02 234.675c0 14.92-27.02 49.225-27.02 49.225s-27.02-34.305-27.02-49.225c0-14.92 12.095-27.02 27.02-27.02 14.925 0 27.02 12.095 27.02 27.02Z"/><path fill="#222" d="M236.005 285.235c-.41 0-.795-.19-1.05-.51-1.115-1.415-27.305-34.845-27.305-50.055s12.72-28.355 28.355-28.355 28.355 12.72 28.355 28.355-26.19 48.635-27.305 50.055c-.255.32-.64.51-1.05.51Zm0-76.245c-14.16 0-25.685 11.52-25.685 25.685 0 12.65 20.735 40.56 25.685 47.04 4.95-6.48 25.685-34.395 25.685-47.04 0-14.16-11.52-25.685-25.685-25.685Z"/><path fill="#fff" d="M236.005 252.205c8.952 0 16.21-7.258 16.21-16.21 0-8.953-7.258-16.21-16.21-16.21-8.953 0-16.21 7.257-16.21 16.21 0 8.952 7.257 16.21 16.21 16.21Z"/><path fill="#222" d="M236.005 253.54c-9.675 0-17.545-7.87-17.545-17.545s7.87-17.545 17.545-17.545 17.545 7.87 17.545 17.545-7.87 17.545-17.545 17.545Zm0-32.42c-8.205 0-14.875 6.675-14.875 14.875s6.675 14.875 14.875 14.875 14.875-6.675 14.875-14.875-6.675-14.875-14.875-14.875Z"/></svg>