<svg xmlns="http://www.w3.org/2000/svg" width="400" height="401" fill="none" viewBox="0 0 400 401"><path fill="#444" d="M196.735 344.985c75.163 0 136.095-60.932 136.095-136.095S271.898 72.795 196.735 72.795 60.64 133.727 60.64 208.89s60.932 136.095 136.095 136.095Z"/><path fill="#222" d="M196.735 346.369c-36.725 0-71.25-14.3-97.215-40.27-25.965-25.965-40.27-60.49-40.27-97.215s14.3-71.25 40.27-97.215c25.965-25.965 60.49-40.27 97.215-40.27s71.25 14.3 97.215 40.27c25.965 25.965 40.27 60.49 40.27 97.215s-14.3 71.25-40.27 97.215c-25.965 25.965-60.495 40.27-97.215 40.27Zm0-272.19c-35.98 0-69.81 14.01-95.25 39.455-25.44 25.445-39.455 59.27-39.455 95.25s14.01 69.81 39.455 95.25c25.44 25.445 59.27 39.455 95.25 39.455s69.81-14.01 95.25-39.455c25.44-25.44 39.455-59.27 39.455-95.25s-14.01-69.81-39.455-95.25c-25.445-25.44-59.27-39.455-95.25-39.455Z"/><path fill="#fff" d="M203.135 336.751c75.163 0 136.095-60.932 136.095-136.095 0-75.164-60.932-136.096-136.095-136.096S67.04 125.492 67.04 200.656c0 75.163 60.932 136.095 136.095 136.095Z"/><path fill="#222" d="M203.135 338.135c-36.725 0-71.25-14.3-97.215-40.27-25.965-25.965-40.27-60.49-40.27-97.215s14.3-71.25 40.27-97.215c25.965-25.965 60.49-40.27 97.215-40.27s71.25 14.3 97.215 40.27c25.965 25.965 40.27 60.49 40.27 97.215s-14.3 71.25-40.27 97.215c-25.965 25.965-60.495 40.27-97.215 40.27Zm0-272.19c-35.98 0-69.81 14.01-95.25 39.455-25.44 25.445-39.455 59.27-39.455 95.25s14.01 69.81 39.455 95.25c25.44 25.445 59.27 39.455 95.25 39.455s69.81-14.01 95.25-39.455c25.44-25.44 39.455-59.27 39.455-95.25s-14.01-69.81-39.455-95.25c-25.445-25.44-59.27-39.455-95.25-39.455Z"/><path fill="#DADADA" d="M216.065 328.706c75.163 0 136.095-60.932 136.095-136.095 0-75.164-60.932-136.095-136.095-136.095S79.97 117.447 79.97 192.61c0 75.163 60.932 136.095 136.095 136.095Z"/><path fill="#222" d="M203.135 338.135c-36.725 0-71.25-14.3-97.215-40.27-25.965-25.965-40.27-60.49-40.27-97.215s14.3-71.25 40.27-97.215c25.965-25.965 60.49-40.27 97.215-40.27s71.25 14.3 97.215 40.27c25.965 25.965 40.27 60.49 40.27 97.215s-14.3 71.25-40.27 97.215c-25.965 25.965-60.495 40.27-97.215 40.27Zm0-272.19c-35.98 0-69.81 14.01-95.25 39.455-25.44 25.445-39.455 59.27-39.455 95.25s14.01 69.81 39.455 95.25c25.44 25.445 59.27 39.455 95.25 39.455s69.81-14.01 95.25-39.455c25.44-25.44 39.455-59.27 39.455-95.25s-14.01-69.81-39.455-95.25c-25.445-25.44-59.27-39.455-95.25-39.455Z"/><path fill="#222" d="M203.135 338.135c-11.25 0-32.345-17.385-49.06-40.435-12.525-17.275-33.54-52.85-33.54-97.05 0-44.2 20.78-79.845 33.165-97.045 16.875-23.43 37.665-40.44 49.44-40.44 11.775 0 32.345 17.385 49.06 40.435 12.525 17.275 33.54 52.85 33.54 97.05 0 44.2-21.015 79.775-33.54 97.05-16.715 23.05-37.81 40.435-49.06 40.435h-.005Zm0-272.19c-9.16 0-28.81 13.77-47.185 39.285-12.19 16.93-32.64 51.835-32.64 95.42s20.685 78.415 33.01 95.42c17.835 24.59 37.805 39.29 46.81 39.29 9.005 0 28.98-14.695 46.81-39.29 12.33-17 33.01-52.005 33.01-95.42s-20.685-78.415-33.01-95.42c-17.835-24.59-37.805-39.29-46.81-39.29l.005.005Z"/><path fill="#222" d="M204.52 64.56h-2.775v272.191h2.775V64.561Z"/><path fill="#222" d="M339.23 199.266H67.04v2.78h272.19v-2.78ZM203.135 147.161c-41.72 0-80.69-11.16-106.925-30.62l1.655-2.23c25.765 19.11 64.135 30.07 105.27 30.07 41.135 0 79.505-10.96 105.27-30.07l1.655 2.23c-26.23 19.46-65.205 30.62-106.925 30.62ZM308.405 286.995c-25.765-19.11-64.135-30.07-105.27-30.07-41.135 0-79.505 10.96-105.27 30.07l-1.655-2.23c26.23-19.46 65.205-30.62 106.925-30.62s80.695 11.16 106.925 30.62l-1.655 2.23Z"/></svg>