<svg xmlns="http://www.w3.org/2000/svg" width="400" height="400" fill="none" viewBox="0 0 400 400"><path fill="#444" d="M188.35 356.315c82.241 0 148.91-66.669 148.91-148.91s-66.669-148.91-148.91-148.91-148.91 66.669-148.91 148.91 66.669 148.91 148.91 148.91Z"/><path fill="#222" d="M188.35 357.715c-40.15 0-77.895-15.635-106.285-44.025S38.04 247.555 38.04 207.405c0-40.15 15.635-77.895 44.025-106.285S148.2 57.095 188.35 57.095c40.15 0 77.895 15.635 106.285 44.025s44.025 66.135 44.025 106.285c0 40.15-15.635 77.895-44.025 106.285S228.5 357.715 188.35 357.715Zm0-297.82c-39.4 0-76.445 15.345-104.305 43.205-27.86 27.86-43.205 64.905-43.205 104.305 0 39.4 15.345 76.445 43.205 104.305 27.86 27.86 64.905 43.205 104.305 43.205 39.4 0 76.445-15.345 104.305-43.205 27.86-27.86 43.205-64.905 43.205-104.305 0-39.4-15.345-76.445-43.205-104.305-27.86-27.86-64.905-43.205-104.305-43.205Z"/><path fill="#fff" d="M195.35 347.304c82.241 0 148.91-66.669 148.91-148.91 0-82.24-66.669-148.91-148.91-148.91s-148.91 66.67-148.91 148.91c0 82.241 66.669 148.91 148.91 148.91Z"/><path fill="#222" d="M195.35 348.704c-40.15 0-77.895-15.635-106.285-44.025S45.04 238.544 45.04 198.394c0-40.15 15.635-77.895 44.025-106.285S155.2 48.085 195.35 48.085c40.15 0 77.895 15.634 106.285 44.024s44.025 66.135 44.025 106.285c0 40.15-15.635 77.895-44.025 106.285S235.5 348.704 195.35 348.704Zm0-297.82c-39.4 0-76.445 15.346-104.305 43.206-27.86 27.859-43.205 64.904-43.205 104.304 0 39.4 15.345 76.445 43.205 104.305 27.86 27.861 64.905 43.205 104.305 43.205 39.4 0 76.445-15.344 104.305-43.205 27.86-27.86 43.205-64.905 43.205-104.305 0-39.4-15.345-76.445-43.205-104.305-27.86-27.86-64.905-43.204-104.305-43.204Z"/><path fill="#DADADA" d="M209.5 338.51c82.241 0 148.91-66.669 148.91-148.91S291.741 40.69 209.5 40.69 60.59 107.359 60.59 189.6s66.669 148.91 148.91 148.91Z"/><path fill="#222" d="M195.35 348.705c-40.15 0-77.895-15.635-106.285-44.025S45.04 238.545 45.04 198.395c0-40.15 15.635-77.895 44.025-106.285S155.2 48.085 195.35 48.085c40.15 0 77.895 15.635 106.285 44.025s44.025 66.135 44.025 106.285c0 40.15-15.635 77.895-44.025 106.285S235.5 348.705 195.35 348.705Zm0-297.82c-39.4 0-76.445 15.345-104.305 43.205-27.86 27.86-43.205 64.905-43.205 104.305 0 39.4 15.345 76.445 43.205 104.305 27.86 27.86 64.905 43.205 104.305 43.205 39.4 0 76.445-15.345 104.305-43.205 27.86-27.86 43.205-64.905 43.205-104.305 0-39.4-15.345-76.445-43.205-104.305-27.86-27.86-64.905-43.205-104.305-43.205Z"/><path fill="#222" d="M195.35 348.705c-12.275 0-35.31-19-53.58-44.19-13.695-18.89-36.675-57.79-36.675-106.115 0-48.325 22.72-87.305 36.265-106.11 9.265-12.87 19.555-24 29.75-32.185 9.645-7.745 18.255-12.01 24.245-12.01 12.275 0 35.31 19 53.58 44.19 13.695 18.89 36.675 57.79 36.675 106.115 0 48.325-22.98 87.225-36.675 106.115-18.27 25.195-41.305 44.19-53.58 44.19h-.005Zm0-297.82c-10.055 0-31.6 15.08-51.725 43.035-13.345 18.535-35.735 56.75-35.735 104.475 0 47.725 22.645 85.86 36.145 104.475 19.535 26.94 41.435 43.035 51.32 43.035 9.885 0 31.78-16.1 51.32-43.035 13.5-18.615 36.145-56.94 36.145-104.475s-22.645-85.86-36.145-104.475c-19.535-26.94-41.435-43.035-51.32-43.035h-.005Z"/><path fill="#222" d="M196.745 49.485h-2.795v297.82h2.795V49.485Z"/><path fill="#222" d="M344.26 196.995H46.44v2.795h297.82v-2.795ZM195.35 139.745c-45.625 0-88.24-12.2-116.92-33.48l1.665-2.245c28.21 20.925 70.22 32.925 115.255 32.925s87.045-12 115.255-32.925l1.665 2.245c-28.68 21.275-71.295 33.48-116.92 33.48ZM310.605 292.77c-28.21-20.925-70.22-32.925-115.255-32.925s-87.045 12-115.255 32.925l-1.665-2.245c28.68-21.275 71.295-33.48 116.92-33.48s88.24 12.2 116.92 33.48l-1.665 2.245Z"/><path fill="#fff" d="M331.795 76.505c0 14.92-27.02 49.225-27.02 49.225s-27.02-34.305-27.02-49.225c0-14.92 12.095-27.02 27.02-27.02 14.925 0 27.02 12.095 27.02 27.02Z"/><path fill="#FF3158" d="M326.17 76.505c0 14.92-27.02 49.225-27.02 49.225s-27.02-34.305-27.02-49.225c0-14.92 12.095-27.02 27.02-27.02 14.925 0 27.02 12.095 27.02 27.02Z"/><path fill="#222" d="M299.15 127.066c-.41 0-.795-.19-1.05-.51-1.115-1.415-27.305-34.846-27.305-50.055 0-15.21 12.72-28.356 28.355-28.356s28.355 12.72 28.355 28.355-26.19 48.636-27.305 50.056c-.255.32-.64.51-1.05.51Zm0-76.245c-14.16 0-25.685 11.52-25.685 25.684 0 12.65 20.735 40.56 25.685 47.041 4.95-6.481 25.685-34.39 25.685-47.04 0-14.16-11.52-25.685-25.685-25.685Z"/><path fill="#fff" d="M299.149 94.035c8.953 0 16.21-7.257 16.21-16.21 0-8.952-7.257-16.21-16.21-16.21-8.952 0-16.21 7.258-16.21 16.21 0 8.953 7.258 16.21 16.21 16.21Z"/><path fill="#222" d="M299.149 95.37c-9.675 0-17.545-7.87-17.545-17.545s7.87-17.545 17.545-17.545 17.545 7.87 17.545 17.545-7.87 17.545-17.545 17.545Zm0-32.42c-8.205 0-14.875 6.675-14.875 14.875S290.949 92.7 299.149 92.7s14.875-6.675 14.875-14.875-6.675-14.875-14.875-14.875Z"/><path fill="#fff" d="M130.145 117.46c0 14.92-27.02 49.225-27.02 49.225s-27.02-34.305-27.02-49.225c0-14.92 12.095-27.02 27.02-27.02 14.925 0 27.02 12.095 27.02 27.02Z"/><path fill="#FF3158" d="M124.52 117.46c0 14.92-27.02 49.225-27.02 49.225S70.48 132.38 70.48 117.46c0-14.92 12.095-27.02 27.02-27.02 14.925 0 27.02 12.095 27.02 27.02Z"/><path fill="#222" d="M97.5 168.021c-.41 0-.795-.19-1.05-.51-1.115-1.415-27.305-34.845-27.305-50.055S81.865 89.101 97.5 89.101s28.355 12.72 28.355 28.355-26.19 48.635-27.305 50.055c-.255.32-.64.51-1.05.51Zm0-76.245c-14.16 0-25.685 11.52-25.685 25.685 0 12.65 20.735 40.56 25.685 47.04 4.95-6.48 25.685-34.395 25.685-47.04 0-14.16-11.52-25.685-25.685-25.685Z"/><path fill="#fff" d="M97.5 134.99c8.953 0 16.21-7.257 16.21-16.21 0-8.952-7.257-16.21-16.21-16.21-8.953 0-16.21 7.258-16.21 16.21 0 8.953 7.257 16.21 16.21 16.21Z"/><path fill="#222" d="M97.5 136.325c-9.675 0-17.545-7.87-17.545-17.545s7.87-17.545 17.545-17.545 17.545 7.87 17.545 17.545-7.87 17.545-17.545 17.545Zm0-32.42c-8.205 0-14.875 6.675-14.875 14.875S89.3 133.655 97.5 133.655s14.875-6.675 14.875-14.875-6.675-14.875-14.875-14.875Z"/><path fill="#fff" d="M268.149 234.425c0 14.92-27.02 49.225-27.02 49.225s-27.02-34.305-27.02-49.225c0-14.92 12.095-27.02 27.02-27.02 14.925 0 27.02 12.095 27.02 27.02Z"/><path fill="#FF3158" d="M262.519 234.425c0 14.92-27.02 49.225-27.02 49.225s-27.02-34.305-27.02-49.225c0-14.92 12.095-27.02 27.02-27.02 14.925 0 27.02 12.095 27.02 27.02Z"/><path fill="#222" d="M235.504 284.985c-.41 0-.795-.19-1.05-.51-1.115-1.415-27.305-34.845-27.305-50.055s12.72-28.355 28.355-28.355 28.355 12.72 28.355 28.355-26.19 48.635-27.305 50.055c-.255.32-.64.51-1.05.51Zm0-76.245c-14.16 0-25.685 11.52-25.685 25.685 0 12.65 20.735 40.56 25.685 47.04 4.95-6.48 25.685-34.395 25.685-47.04 0-14.16-11.52-25.685-25.685-25.685Z"/><path fill="#fff" d="M235.504 251.955c8.952 0 16.21-7.258 16.21-16.21 0-8.953-7.258-16.21-16.21-16.21-8.953 0-16.21 7.257-16.21 16.21 0 8.952 7.257 16.21 16.21 16.21Z"/><path fill="#222" d="M235.504 253.29c-9.675 0-17.545-7.87-17.545-17.545s7.87-17.545 17.545-17.545 17.545 7.87 17.545 17.545-7.87 17.545-17.545 17.545Zm0-32.42c-8.205 0-14.875 6.675-14.875 14.875s6.675 14.875 14.875 14.875 14.875-6.675 14.875-14.875-6.675-14.875-14.875-14.875Z"/></svg>