<svg xmlns="http://www.w3.org/2000/svg" width="400" height="401" fill="none" viewBox="0 0 400 401"><path fill="#444" d="M362.25 108.225H65.655v206.38H362.25v-206.38Z"/><path fill="#222" d="M362.255 315.995h-296.6a1.39 1.39 0 0 1-1.39-1.39v-206.38c0-.765.62-1.39 1.39-1.39h296.6c.765 0 1.39.62 1.39 1.39v206.38c0 .765-.62 1.39-1.39 1.39Zm-295.21-2.78h293.82V109.61H67.045v203.605Z"/><path fill="#fff" d="M348.295 96.5H51.7v206.38h296.595V96.5Z"/><path fill="#222" d="M348.3 304.27H51.7a1.39 1.39 0 0 1-1.39-1.39V96.5c0-.765.62-1.39 1.39-1.39h296.6c.765 0 1.39.62 1.39 1.39v206.38c0 .765-.62 1.39-1.39 1.39Zm-295.21-2.78h293.82V97.89H53.09v203.605-.005Z"/><path fill="#DADADA" d="m51.7 171.34 37.46-10.64-37.46-41.76v52.4Z"/><path fill="#222" d="M51.7 172.73c-.3 0-.595-.095-.835-.28a1.395 1.395 0 0 1-.55-1.11v-52.395a1.387 1.387 0 0 1 2.42-.925l37.46 41.755a1.393 1.393 0 0 1-.655 2.265l-37.46 10.64a1.425 1.425 0 0 1-.38.055v-.005Zm1.39-50.16v46.93l33.55-9.53-33.55-37.4Z"/><path fill="#DADADA" d="m107.195 155.576 100.59-28.575-35.915-30.816h-63.155L62.69 108.026l44.505 47.55Z"/><path fill="#222" d="M107.195 156.966c-.38 0-.75-.155-1.015-.44l-44.505-47.55a1.392 1.392 0 0 1-.32-1.335c.135-.47.51-.835.985-.955l46.025-11.84c.115-.03.23-.045.345-.045h63.155c.33 0 .655.12.905.335l35.915 30.815a1.392 1.392 0 0 1-.525 2.39l-100.59 28.575a1.425 1.425 0 0 1-.38.055l.005-.005Zm-41.89-48.18 42.325 45.225 97.29-27.635-33.56-28.8h-62.465l-43.585 11.21h-.005Z"/><path fill="#DADADA" d="m223.95 122.411 90.41-25.686-.775-.54H192.36l31.59 26.226Z"/><path fill="#222" d="M223.95 123.801c-.32 0-.635-.11-.885-.32l-31.59-26.225a1.388 1.388 0 0 1 .885-2.455h121.225c.285 0 .56.085.795.25l.78.54a1.387 1.387 0 0 1-.415 2.475l-90.41 25.685a1.425 1.425 0 0 1-.38.055l-.005-.005Zm-27.74-26.225 28.065 23.3 82.025-23.3H196.21Z"/><path fill="#DADADA" d="M97.785 170.315 51.7 183.655v78.865l99.76-32.375-53.675-59.83Z"/><path fill="#222" d="M51.7 263.91a1.386 1.386 0 0 1-1.385-1.39v-78.86c0-.62.41-1.16 1.005-1.335l46.085-13.345c.51-.15 1.065.01 1.42.405l53.675 59.83c.315.35.43.835.305 1.29-.12.455-.465.815-.91.96l-99.76 32.375c-.14.045-.285.07-.43.07H51.7Zm1.39-79.21v75.91L149 229.485 97.335 171.89 53.09 184.7Z"/><path fill="#DADADA" d="m182.1 235.611 62.955 67.27h25.72l77.525-29.4v-25.91l-56.395-48.39-109.805 36.43Z"/><path fill="#222" d="M270.775 304.271h-25.72c-.385 0-.75-.16-1.015-.44l-62.96-67.27a1.375 1.375 0 0 1-.33-1.29c.115-.46.46-.825.91-.975l109.805-36.43c.465-.155.97-.055 1.34.265l56.395 48.39c.305.265.485.65.485 1.055v25.91c0 .575-.355 1.095-.895 1.3l-77.525 29.4c-.155.06-.325.09-.495.09l.005-.005Zm-25.115-2.78h24.865l76.39-28.97v-24.31L291.6 200.746l-107 35.5 61.065 65.245h-.005Z"/><path fill="#DADADA" d="m234.11 130.845 62.77 52.11 51.42-16.685v-45.91l-22.9-15.945-91.29 26.43Z"/><path fill="#222" d="M296.88 184.345c-.32 0-.635-.11-.885-.32l-62.77-52.11a1.389 1.389 0 0 1 .505-2.4l91.29-26.43c.4-.115.835-.045 1.18.195l22.9 15.95c.375.26.595.685.595 1.14v45.91c0 .6-.39 1.135-.96 1.32l-51.42 16.685c-.14.045-.285.07-.43.07l-.005-.01Zm-59.865-52.895 60.165 49.95 49.73-16.14v-44.175l-21.76-15.155-88.135 25.52Z"/><path fill="#DADADA" d="m279.55 188.58-61.775-53.005L116.04 165.03l55 58.765 108.51-35.215Z"/><path fill="#222" d="M171.04 225.18c-.38 0-.745-.155-1.015-.44l-54.995-58.765a1.382 1.382 0 0 1-.325-1.315c.13-.465.49-.83.955-.965l101.735-29.455c.45-.13.935-.025 1.29.28l61.775 53.005c.38.325.555.835.455 1.325-.1.49-.455.895-.935 1.05l-108.51 35.215c-.14.045-.285.07-.43.07v-.005Zm-52.435-59.45 52.845 56.465 105.32-34.175-59.325-50.905-98.84 28.615Z"/><path fill="#DADADA" d="M348.3 225.646v-45.175l-38.88 12.9 38.88 32.275Z"/><path fill="#222" d="M348.3 227.036c-.32 0-.635-.11-.885-.32l-38.88-32.275c-.39-.32-.57-.83-.48-1.325.095-.495.45-.9.925-1.06l38.88-12.9c.425-.14.89-.07 1.25.19s.575.68.575 1.125v45.175c0 .54-.31 1.03-.8 1.255-.19.09-.39.13-.59.13l.005.005Zm-36.065-33.135 34.675 28.79v-40.295l-34.675 11.505Z"/><path fill="#DADADA" d="M51.7 278.87v24.01h165.01l-54.445-60.69L51.7 278.87Z"/><path fill="#222" d="M216.71 304.27H51.7a1.39 1.39 0 0 1-1.39-1.39v-24.01c0-.6.385-1.13.95-1.32l110.565-36.68c.525-.175 1.1-.02 1.47.39l54.445 60.69a1.391 1.391 0 0 1-1.035 2.32h.005Zm-163.62-2.78H213.6l-51.76-57.7-108.75 36.08v21.62Z"/><path fill="#444" d="M170.08 239.125c51.191 0 92.69-15.061 92.69-33.64s-41.499-33.64-92.69-33.64c-51.191 0-92.69 15.061-92.69 33.64s41.499 33.64 92.69 33.64Z"/><path fill="#F5F4F3" d="M167.545 232.745c51.191 0 92.69-15.061 92.69-33.64s-41.499-33.64-92.69-33.64c-51.191 0-92.69 15.061-92.69 33.64s41.499 33.64 92.69 33.64Z"/><path fill="#222" d="M167.545 222.605c-20.345 0-39.49-2.31-53.91-6.5-14.94-4.345-23.17-10.34-23.17-16.89 0-7.165 9.63-13.545 27.115-17.96l.68 2.695c-15.665 3.955-25.02 9.665-25.02 15.265 0 9.955 29.855 20.61 74.305 20.61s74.305-10.655 74.305-20.61c0-5.205-7.9-10.44-21.675-14.37l.76-2.67c8.85 2.525 23.695 8.09 23.695 17.04 0 6.55-8.23 12.545-23.17 16.89-14.42 4.19-33.565 6.5-53.91 6.5h-.005Z"/><path fill="#222" d="m201.69 178.13 23.48 18.44-3.21-12.66 9.405-9.056-29.675 3.276ZM136.935 177.8l-24.03 17.715 3.595-12.555-9.125-9.34 29.56 4.18Z"/><path fill="#FF3158" d="M226.79 91.16c0 32.719-59.245 107.944-59.245 107.944S108.3 123.879 108.3 91.159s26.525-59.245 59.245-59.245S226.79 58.44 226.79 91.16Z"/><path fill="#222" d="M167.545 200.494c-.425 0-.83-.195-1.09-.53-.15-.19-15.02-19.12-29.695-41.805-19.805-30.615-29.845-53.155-29.845-66.995 0-33.435 27.2-60.635 60.635-60.635s60.635 27.2 60.635 60.635c0 13.84-10.04 36.38-29.845 66.995-14.675 22.69-29.55 41.62-29.695 41.805-.265.335-.665.53-1.09.53h-.01Zm0-167.185c-31.9 0-57.855 25.955-57.855 57.855 0 29.435 49.8 95.23 57.855 105.68 8.055-10.45 57.855-76.24 57.855-105.68 0-31.9-25.955-57.855-57.855-57.855Z"/><path fill="#fff" d="M167.545 129.605c19.631 0 35.545-15.914 35.545-35.545s-15.914-35.545-35.545-35.545S132 74.429 132 94.06s15.914 35.545 35.545 35.545Z"/><path fill="#222" d="M167.545 130.995c-20.365 0-36.935-16.57-36.935-36.936 0-20.364 16.57-36.934 36.935-36.934 20.365 0 36.935 16.57 36.935 36.934 0 20.366-16.57 36.936-36.935 36.936Zm0-71.096c-18.835 0-34.16 15.326-34.16 34.16 0 18.836 15.325 34.161 34.16 34.161 18.835 0 34.16-15.325 34.16-34.16 0-18.835-15.325-34.16-34.16-34.16Z"/></svg>