<svg xmlns="http://www.w3.org/2000/svg" width="400" height="401" fill="none" viewBox="0 0 400 401"><path fill="#444" d="M355.275 120.08H58.68v206.38h296.595V120.08Z"/><path fill="#222" d="M355.275 327.85H58.68a1.39 1.39 0 0 1-1.39-1.39V120.08c0-.765.62-1.39 1.39-1.39h296.595c.765 0 1.39.62 1.39 1.39v206.38c0 .765-.62 1.39-1.39 1.39Zm-295.21-2.78h293.82v-203.6H60.065v203.605-.005Z"/><path fill="#fff" d="M341.32 108.355H44.725v206.38H341.32v-206.38Z"/><path fill="#222" d="M341.32 316.125H44.725a1.39 1.39 0 0 1-1.39-1.39v-206.38c0-.765.62-1.39 1.39-1.39H341.32c.765 0 1.39.62 1.39 1.39v206.38c0 .765-.62 1.39-1.39 1.39Zm-295.21-2.78h293.825v-203.6H46.115V313.35l-.005-.005Z"/><path fill="#DADADA" d="m44.725 183.196 37.46-10.64-37.46-41.755v52.395Z"/><path fill="#222" d="M44.725 184.586c-.3 0-.595-.095-.835-.28a1.395 1.395 0 0 1-.55-1.11v-52.4a1.387 1.387 0 0 1 2.42-.925l37.46 41.755a1.393 1.393 0 0 1-.655 2.265l-37.46 10.64c-.125.035-.25.055-.38.055Zm1.39-50.16v46.93l33.55-9.53-33.55-37.4Z"/><path fill="#DADADA" d="m100.22 167.431 100.59-28.575-35.915-30.815h-63.16l-46.02 11.84 44.505 47.55Z"/><path fill="#222" d="M100.22 168.821c-.38 0-.75-.155-1.015-.44L54.7 120.831a1.386 1.386 0 0 1 .665-2.29l46.025-11.84c.115-.03.23-.045.345-.045h63.155c.33 0 .655.12.905.335l35.915 30.815a1.392 1.392 0 0 1-.525 2.39l-100.59 28.575a1.425 1.425 0 0 1-.38.055l.005-.005Zm-41.89-48.18 42.325 45.225 97.29-27.635-33.56-28.8H101.92l-43.585 11.21h-.005Z"/><path fill="#DADADA" d="m216.97 134.266 90.415-25.68-.78-.545h-121.22l31.585 26.225Z"/><path fill="#222" d="M216.97 135.656c-.32 0-.635-.11-.885-.32l-31.59-26.225a1.388 1.388 0 0 1 .885-2.455h121.225c.285 0 .56.085.795.25l.78.54a1.387 1.387 0 0 1-.415 2.475l-90.415 25.685c-.125.035-.25.055-.38.055v-.005Zm-27.74-26.225 28.065 23.3 82.025-23.3H189.23Z"/><path fill="#DADADA" d="m90.81 182.171-46.085 13.345v78.86l99.76-32.37-53.675-59.835Z"/><path fill="#222" d="M44.725 275.766a1.386 1.386 0 0 1-1.385-1.39v-78.86c0-.62.41-1.16 1-1.335l46.085-13.345c.51-.15 1.065.01 1.42.405l53.675 59.83c.315.35.43.835.31 1.29a1.38 1.38 0 0 1-.915.96l-99.76 32.375c-.14.045-.285.07-.43.07Zm1.39-79.21v75.91l95.91-31.125-51.665-57.595-44.245 12.81Z"/><path fill="#DADADA" d="m175.12 247.465 62.96 67.275h25.72l77.52-29.405V259.43l-56.395-48.395-109.805 36.43Z"/><path fill="#222" d="M263.8 316.125h-25.72c-.385 0-.75-.16-1.015-.44l-62.96-67.27a1.375 1.375 0 0 1-.33-1.29c.115-.46.46-.825.91-.975l109.805-36.43c.46-.155.97-.055 1.34.265l56.395 48.39c.31.265.485.65.485 1.055v25.91c0 .575-.355 1.095-.895 1.3l-77.525 29.4c-.16.06-.325.09-.495.09l.005-.005Zm-25.115-2.78h24.86l76.39-28.97v-24.31L284.62 212.6l-107 35.5 61.065 65.245Z"/><path fill="#DADADA" d="m227.13 142.701 62.77 52.115 51.42-16.685v-45.91l-22.9-15.95-91.29 26.43Z"/><path fill="#222" d="M289.9 196.206c-.32 0-.635-.11-.885-.32l-62.77-52.11c-.395-.33-.58-.85-.475-1.35.105-.5.48-.91.975-1.05l91.29-26.43c.4-.115.835-.045 1.18.195l22.9 15.95c.375.26.595.685.595 1.14v45.91c0 .6-.39 1.135-.96 1.32l-51.42 16.685c-.14.045-.285.07-.43.07v-.01Zm-59.865-52.895 60.165 49.95 49.73-16.14v-44.175l-21.76-15.155-88.135 25.52Z"/><path fill="#DADADA" d="M272.575 200.436 210.8 147.431l-101.735 29.455 54.995 58.765 108.515-35.215Z"/><path fill="#222" d="M164.06 237.041c-.38 0-.745-.155-1.015-.44l-54.995-58.765a1.382 1.382 0 0 1-.325-1.315c.13-.465.49-.83.955-.965l101.735-29.455c.45-.13.935-.025 1.29.28l61.775 53.005a1.387 1.387 0 0 1-.475 2.375l-108.51 35.215c-.14.045-.285.07-.43.07l-.005-.005Zm-52.435-59.45 52.845 56.465 105.32-34.175-59.325-50.905-98.84 28.615Z"/><path fill="#DADADA" d="M341.32 237.505V192.33l-38.875 12.895 38.875 32.28Z"/><path fill="#222" d="M341.32 238.89c-.32 0-.635-.11-.885-.32l-38.88-32.275c-.39-.32-.57-.83-.48-1.325.095-.495.45-.9.925-1.06l38.88-12.9c.425-.14.89-.07 1.25.19s.575.68.575 1.125V237.5c0 .54-.31 1.03-.8 1.255-.19.09-.39.13-.59.13l.005.005Zm-36.065-33.135 34.675 28.79V194.25l-34.675 11.505Z"/><path fill="#DADADA" d="M44.725 290.73v24.01h165.01l-54.445-60.695L44.725 290.73Z"/><path fill="#222" d="M209.735 316.125H44.725a1.39 1.39 0 0 1-1.39-1.39v-24.01c0-.6.385-1.13.95-1.32l110.565-36.68c.525-.175 1.1-.02 1.47.39l54.445 60.69a1.391 1.391 0 0 1-1.035 2.32h.005Zm-163.62-2.78H206.62l-51.76-57.7-108.75 36.08v21.62h.005Z"/><path fill="#FF3158" d="M214.59 106.91c0 31.715-57.43 104.635-57.43 104.635s-57.43-72.92-57.43-104.635c0-31.715 25.71-57.43 57.43-57.43s57.43 25.71 57.43 57.43Z"/><path fill="#222" d="M157.16 212.935c-.425 0-.83-.195-1.09-.53-.145-.185-14.56-18.535-28.79-40.53-19.2-29.68-28.94-51.54-28.94-64.965 0-32.43 26.385-58.82 58.82-58.82s58.82 26.385 58.82 58.82c0 13.425-9.735 35.285-28.935 64.965-14.23 21.995-28.645 40.345-28.79 40.53-.265.335-.665.53-1.09.53h-.005Zm0-162.065c-30.9 0-56.04 25.14-56.04 56.04 0 28.48 48.125 92.1 56.04 102.37 7.915-10.27 56.04-73.89 56.04-102.37 0-30.9-25.14-56.04-56.04-56.04Z"/><path fill="#fff" d="M157.16 144.18c19.032 0 34.46-15.429 34.46-34.46 0-19.032-15.428-34.46-34.46-34.46s-34.46 15.428-34.46 34.46c0 19.031 15.428 34.46 34.46 34.46Z"/><path fill="#222" d="M157.16 145.565c-19.765 0-35.845-16.08-35.845-35.845s16.08-35.845 35.845-35.845 35.845 16.08 35.845 35.845-16.08 35.845-35.845 35.845Zm0-68.915c-18.235 0-33.07 14.835-33.07 33.07s14.835 33.07 33.07 33.07 33.07-14.835 33.07-33.07-14.835-33.07-33.07-33.07Z"/></svg>