<svg xmlns="http://www.w3.org/2000/svg" width="400" height="400" fill="none" viewBox="0 0 400 400"><path fill="#fff" d="M359.69 68.205H38.835V307.36H359.69V68.205Z"/><path fill="#FF3158" d="M165.33 338.68a3.675 3.675 0 1 0 0-7.35 3.675 3.675 0 0 0 0 7.35Z"/><path fill="#222" d="M165.331 340.065c-2.79 0-5.06-2.27-5.06-5.06 0-2.79 2.27-5.06 5.06-5.06 2.79 0 5.06 2.27 5.06 5.06 0 2.79-2.27 5.06-5.06 5.06Zm0-7.355a2.298 2.298 0 0 0-2.295 2.295 2.298 2.298 0 0 0 2.295 2.295 2.298 2.298 0 0 0 2.295-2.295 2.298 2.298 0 0 0-2.295-2.295ZM192.685 308.74a1.38 1.38 0 0 1-1.38-1.385V250.36c0-.765.62-1.385 1.38-1.385.76 0 1.38.62 1.38 1.385v56.995c0 .765-.62 1.385-1.38 1.385Z"/><path fill="#222" d="M359.689 308.74H177.264a1.38 1.38 0 0 1-1.38-1.385c0-.765.62-1.385 1.38-1.385h181.04V69.59H40.219v236.39h111.705c.765 0 1.38.62 1.38 1.385s-.62 1.385-1.38 1.385H38.834c-.765 0-1.385-.62-1.385-1.385V68.205c0-.765.62-1.385 1.385-1.385H359.69c.765 0 1.38.62 1.38 1.385V307.36c0 .765-.62 1.385-1.38 1.385v-.005Z"/><path fill="#222" d="M137.59 308.74a1.38 1.38 0 0 1-1.38-1.385V250.36c0-.765.62-1.385 1.38-1.385.76 0 1.38.62 1.38 1.385v56.995c0 .765-.62 1.385-1.38 1.385ZM137.59 172.425a1.38 1.38 0 0 1-1.38-1.385V68.215c0-.765.62-1.385 1.38-1.385.76 0 1.38.62 1.38 1.385V171.04c0 .765-.62 1.385-1.38 1.385ZM137.59 227.34a1.38 1.38 0 0 1-1.38-1.385v-32.96c0-.765.62-1.385 1.38-1.385.76 0 1.38.62 1.38 1.385v32.96c0 .765-.62 1.385-1.38 1.385Z"/><path fill="#222" d="M136.504 211.455h-42.18a1.385 1.385 0 1 1 0-2.77h42.18c.765 0 1.38.62 1.38 1.385s-.62 1.385-1.38 1.385ZM69.814 211.455h-30.98a1.385 1.385 0 1 1 0-2.77h30.98a1.385 1.385 0 1 1 0 2.77ZM153.075 142.235H137.59a1.38 1.38 0 0 1-1.38-1.385c0-.765.62-1.385 1.38-1.385h15.485c.765 0 1.38.62 1.38 1.385s-.62 1.385-1.38 1.385Z"/><path fill="#fff" d="M103.42 303.205H67.715v7.96h35.705v-7.96Z"/><path fill="#222" d="M103.42 312.545H67.715c-.765 0-1.385-.62-1.385-1.385v-7.96c0-.765.62-1.385 1.385-1.385h35.705c.765 0 1.385.62 1.385 1.385v7.96c0 .765-.62 1.385-1.385 1.385Zm-34.325-2.765h32.94v-5.195h-32.94v5.195Z"/><path fill="#fff" d="M103.42 64.335H67.715v7.96h35.705v-7.96Z"/><path fill="#222" d="M103.42 73.675H67.715c-.765 0-1.385-.62-1.385-1.385v-7.96c0-.765.62-1.385 1.385-1.385h35.705c.765 0 1.385.62 1.385 1.385v7.96c0 .765-.62 1.385-1.385 1.385ZM69.095 70.91h32.94v-5.195h-32.94v5.195Z"/><path fill="#fff" d="M253.654 303.205h-35.705v7.96h35.705v-7.96Z"/><path fill="#222" d="M253.654 312.545h-35.705a1.38 1.38 0 0 1-1.38-1.385v-7.96c0-.765.62-1.385 1.38-1.385h35.705c.765 0 1.38.62 1.38 1.385v7.96c0 .765-.62 1.385-1.38 1.385Zm-34.325-2.765h32.94v-5.195h-32.94v5.195Z"/><path fill="#fff" d="M335.23 303.205h-35.705v7.96h35.705v-7.96Z"/><path fill="#222" d="M335.231 312.545h-35.705a1.38 1.38 0 0 1-1.38-1.385v-7.96c0-.765.62-1.385 1.38-1.385h35.705c.765 0 1.38.62 1.38 1.385v7.96c0 .765-.62 1.385-1.38 1.385Zm-34.325-2.765h32.94v-5.195h-32.94v5.195Z"/><path fill="#fff" d="M355.755 91.275v71.415h7.96V91.275h-7.96Z"/><path fill="#222" d="M363.715 164.075h-7.96a1.38 1.38 0 0 1-1.38-1.385V91.275c0-.765.62-1.385 1.38-1.385h7.96c.765 0 1.38.62 1.38 1.385v71.415c0 .765-.62 1.385-1.38 1.385Zm-6.575-2.765h5.195V92.66h-5.195v68.65Z"/><path fill="#fff" d="M42.815 193.13V91.275h-7.96V193.13h7.96Z"/><path fill="#222" d="M42.815 194.515h-7.96c-.765 0-1.385-.62-1.385-1.385V91.275c0-.765.62-1.385 1.385-1.385h7.96c.765 0 1.385.62 1.385 1.385V193.13c0 .765-.62 1.385-1.385 1.385Zm-6.575-2.765h5.195V92.66H36.24v99.09Z"/><path fill="#fff" d="M322.19 64.225h-45.015v7.96h45.015v-7.96Z"/><path fill="#222" d="M322.19 73.564h-45.015a1.38 1.38 0 0 1-1.38-1.384v-7.96c0-.765.62-1.386 1.38-1.386h45.015c.765 0 1.38.62 1.38 1.385v7.96c0 .766-.62 1.385-1.38 1.385ZM278.555 70.8h42.25v-5.195h-42.25v5.194Z"/><path fill="#fff" d="M219.78 64.335h-61.54v7.96h61.54v-7.96Z"/><path fill="#222" d="M219.78 73.675h-61.54a1.38 1.38 0 0 1-1.38-1.385v-7.96c0-.765.62-1.385 1.38-1.385h61.54c.765 0 1.38.62 1.38 1.385v7.96c0 .765-.62 1.385-1.38 1.385Zm-60.16-2.765h58.775v-5.195H159.62v5.195ZM248.54 211.455h-55.85a1.38 1.38 0 0 1-1.38-1.385v-67.84h-13.72a1.38 1.38 0 0 1-1.38-1.385c0-.765.62-1.385 1.38-1.385h15.105c.765 0 1.38.62 1.38 1.385v67.84h53.09v-83.32c0-.765.62-1.385 1.38-1.385.76 0 1.38.62 1.38 1.385v84.705c0 .765-.62 1.385-1.38 1.385h-.005Z"/><path fill="#FF3158" d="M165.33 297.075a3.675 3.675 0 1 0 0-7.35 3.675 3.675 0 0 0 0 7.35Z"/><path fill="#222" d="M165.331 298.46c-2.79 0-5.06-2.27-5.06-5.06 0-2.79 2.27-5.06 5.06-5.06 2.79 0 5.06 2.27 5.06 5.06 0 2.79-2.27 5.06-5.06 5.06Zm0-7.355a2.298 2.298 0 0 0-2.295 2.295 2.298 2.298 0 0 0 2.295 2.295 2.298 2.298 0 0 0 2.295-2.295 2.298 2.298 0 0 0-2.295-2.295Z"/><path fill="#FF3158" d="M165.33 310.945a3.675 3.675 0 1 0 0-7.35 3.675 3.675 0 0 0 0 7.35Z"/><path fill="#222" d="M165.331 312.329c-2.79 0-5.06-2.27-5.06-5.06 0-2.79 2.27-5.06 5.06-5.06 2.79 0 5.06 2.27 5.06 5.06 0 2.79-2.27 5.06-5.06 5.06Zm0-7.355a2.298 2.298 0 0 0-2.295 2.295 2.298 2.298 0 0 0 2.295 2.295 2.298 2.298 0 0 0 2.295-2.295 2.298 2.298 0 0 0-2.295-2.295Z"/><path fill="#FF3158" d="M165.33 324.815a3.675 3.675 0 1 0 0-7.35 3.675 3.675 0 0 0 0 7.35Z"/><path fill="#222" d="M165.331 326.195c-2.79 0-5.06-2.27-5.06-5.06 0-2.79 2.27-5.06 5.06-5.06 2.79 0 5.06 2.27 5.06 5.06 0 2.79-2.27 5.06-5.06 5.06Zm0-7.355a2.298 2.298 0 0 0-2.295 2.295 2.298 2.298 0 0 0 2.295 2.295 2.298 2.298 0 0 0 2.295-2.295 2.298 2.298 0 0 0-2.295-2.295Z"/><path fill="#FF3158" d="m165.33 272.39 8.085 10.82h7.77l-15.855-21.22-15.86 21.22h7.77l8.09-10.82Z"/><path fill="#222" d="M181.185 284.595h-7.77c-.435 0-.845-.205-1.105-.555l-6.98-9.34-6.98 9.34c-.26.35-.67.555-1.105.555h-7.77c-.525 0-1-.295-1.235-.765a1.373 1.373 0 0 1 .13-1.445l15.86-21.22a1.376 1.376 0 0 1 2.21 0l15.86 21.22c.315.42.365.98.13 1.445a1.392 1.392 0 0 1-1.235.765h-.01Zm-7.08-2.765h4.32l-13.1-17.53-13.1 17.53h4.32l7.67-10.265a1.376 1.376 0 0 1 2.21 0l7.67 10.265h.01Z"/><path fill="#FF3158" d="M165.33 255.47a3.675 3.675 0 1 0 0-7.35 3.675 3.675 0 0 0 0 7.35Z"/><path fill="#222" d="M165.331 256.855c-2.79 0-5.06-2.27-5.06-5.06 0-2.79 2.27-5.06 5.06-5.06 2.79 0 5.06 2.27 5.06 5.06 0 2.79-2.27 5.06-5.06 5.06Zm0-7.355a2.298 2.298 0 0 0-2.295 2.295 2.298 2.298 0 0 0 2.295 2.295 2.298 2.298 0 0 0 2.295-2.295 2.298 2.298 0 0 0-2.295-2.295Z"/><path fill="#FF3158" d="M137.595 186.13a3.675 3.675 0 1 0 0-7.35 3.675 3.675 0 0 0 0 7.35Z"/><path fill="#222" d="M137.59 187.515c-2.79 0-5.06-2.27-5.06-5.06 0-2.79 2.27-5.06 5.06-5.06 2.79 0 5.06 2.27 5.06 5.06 0 2.79-2.27 5.06-5.06 5.06Zm0-7.355a2.298 2.298 0 0 0-2.295 2.295 2.298 2.298 0 0 0 2.295 2.295 2.298 2.298 0 0 0 2.295-2.295 2.298 2.298 0 0 0-2.295-2.295Z"/><path fill="#FF3158" d="M123.725 186.13a3.675 3.675 0 1 0 0-7.35 3.675 3.675 0 0 0 0 7.35Z"/><path fill="#222" d="M123.725 187.515c-2.79 0-5.06-2.27-5.06-5.06 0-2.79 2.27-5.06 5.06-5.06 2.79 0 5.06 2.27 5.06 5.06 0 2.79-2.27 5.06-5.06 5.06Zm0-7.355a2.298 2.298 0 0 0-2.295 2.295 2.298 2.298 0 0 0 2.295 2.295 2.298 2.298 0 0 0 2.295-2.295 2.298 2.298 0 0 0-2.295-2.295Z"/><path fill="#FF3158" d="M165.33 186.13a3.675 3.675 0 1 0 0-7.35 3.675 3.675 0 0 0 0 7.35Z"/><path fill="#222" d="M165.331 187.515c-2.79 0-5.06-2.27-5.06-5.06 0-2.79 2.27-5.06 5.06-5.06 2.79 0 5.06 2.27 5.06 5.06 0 2.79-2.27 5.06-5.06 5.06Zm0-7.355a2.298 2.298 0 0 0-2.295 2.295 2.298 2.298 0 0 0 2.295 2.295 2.298 2.298 0 0 0 2.295-2.295 2.298 2.298 0 0 0-2.295-2.295Z"/><path fill="#FF3158" d="M151.46 186.13a3.675 3.675 0 1 0 0-7.35 3.675 3.675 0 0 0 0 7.35Z"/><path fill="#222" d="M151.459 187.515c-2.79 0-5.06-2.27-5.06-5.06 0-2.79 2.27-5.06 5.06-5.06 2.79 0 5.06 2.27 5.06 5.06 0 2.79-2.27 5.06-5.06 5.06Zm0-7.355a2.298 2.298 0 0 0-2.295 2.295 2.298 2.298 0 0 0 2.295 2.295 2.298 2.298 0 0 0 2.295-2.295 2.298 2.298 0 0 0-2.295-2.295Z"/><path fill="#FF3158" d="M137.595 186.13a3.675 3.675 0 1 0 0-7.35 3.675 3.675 0 0 0 0 7.35Z"/><path fill="#222" d="M137.59 187.515c-2.79 0-5.06-2.27-5.06-5.06 0-2.79 2.27-5.06 5.06-5.06 2.79 0 5.06 2.27 5.06 5.06 0 2.79-2.27 5.06-5.06 5.06Zm0-7.355a2.298 2.298 0 0 0-2.295 2.295 2.298 2.298 0 0 0 2.295 2.295 2.298 2.298 0 0 0 2.295-2.295 2.298 2.298 0 0 0-2.295-2.295Z"/><path fill="#FF3158" d="M304.01 200a3.675 3.675 0 1 0 0-7.35 3.675 3.675 0 0 0 0 7.35Z"/><path fill="#222" d="M304.015 201.385c-2.79 0-5.06-2.27-5.06-5.06 0-2.79 2.27-5.06 5.06-5.06 2.79 0 5.06 2.27 5.06 5.06 0 2.79-2.27 5.06-5.06 5.06Zm0-7.355a2.298 2.298 0 0 0-2.295 2.295 2.298 2.298 0 0 0 2.295 2.295 2.298 2.298 0 0 0 2.295-2.295 2.298 2.298 0 0 0-2.295-2.295Z"/><path fill="#FF3158" d="M304.01 213.865a3.675 3.675 0 1 0 0-7.35 3.675 3.675 0 0 0 0 7.35Z"/><path fill="#222" d="M304.015 215.25c-2.79 0-5.06-2.27-5.06-5.06 0-2.79 2.27-5.06 5.06-5.06 2.79 0 5.06 2.27 5.06 5.06 0 2.79-2.27 5.06-5.06 5.06Zm0-7.355a2.298 2.298 0 0 0-2.295 2.295 2.298 2.298 0 0 0 2.295 2.295 2.298 2.298 0 0 0 2.295-2.295 2.298 2.298 0 0 0-2.295-2.295Z"/><path fill="#FF3158" d="m304.01 175.73-8.085-10.82h-7.77l15.855 21.22 15.86-21.22h-7.77l-8.09 10.82Z"/><path fill="#222" d="M304.01 187.515c-.435 0-.845-.205-1.105-.555l-15.86-21.22a1.375 1.375 0 0 1-.13-1.445 1.392 1.392 0 0 1 1.235-.765h7.77c.435 0 .845.205 1.105.555l6.98 9.34 6.98-9.34c.26-.35.67-.555 1.105-.555h7.77c.525 0 1 .295 1.235.765.235.47.185 1.03-.13 1.445l-15.86 21.22c-.26.35-.67.555-1.105.555h.01Zm-13.1-21.22 13.1 17.53 13.1-17.53h-4.32l-7.67 10.265a1.376 1.376 0 0 1-2.21 0l-7.67-10.265h-4.33Z"/><path fill="#FF3158" d="M304.01 158.395a3.675 3.675 0 1 0 0-7.35 3.675 3.675 0 0 0 0 7.35Z"/><path fill="#222" d="M304.015 159.78c-2.79 0-5.06-2.27-5.06-5.06 0-2.79 2.27-5.06 5.06-5.06 2.79 0 5.06 2.27 5.06 5.06 0 2.79-2.27 5.06-5.06 5.06Zm0-7.355a2.298 2.298 0 0 0-2.295 2.295 2.298 2.298 0 0 0 2.295 2.295 2.298 2.298 0 0 0 2.295-2.295 2.298 2.298 0 0 0-2.295-2.295Z"/><path fill="#FF3158" d="M304.01 144.525a3.675 3.675 0 1 0 0-7.35 3.675 3.675 0 0 0 0 7.35Z"/><path fill="#222" d="M304.015 145.91c-2.79 0-5.06-2.27-5.06-5.06 0-2.79 2.27-5.06 5.06-5.06 2.79 0 5.06 2.27 5.06 5.06 0 2.79-2.27 5.06-5.06 5.06Zm0-7.355a2.298 2.298 0 0 0-2.295 2.295 2.298 2.298 0 0 0 2.295 2.295 2.298 2.298 0 0 0 2.295-2.295 2.298 2.298 0 0 0-2.295-2.295Z"/><path fill="#FF3158" d="M165.33 116.789a3.675 3.675 0 1 0 0-7.35 3.675 3.675 0 0 0 0 7.35Z"/><path fill="#222" d="M165.331 118.175c-2.79 0-5.06-2.27-5.06-5.06 0-2.79 2.27-5.06 5.06-5.06 2.79 0 5.06 2.27 5.06 5.06 0 2.79-2.27 5.06-5.06 5.06Zm0-7.355a2.298 2.298 0 0 0-2.295 2.295 2.298 2.298 0 0 0 2.295 2.295 2.298 2.298 0 0 0 2.295-2.295 2.298 2.298 0 0 0-2.295-2.295Z"/><path fill="#FF3158" d="M165.33 130.655a3.675 3.675 0 1 0 0-7.35 3.675 3.675 0 0 0 0 7.35Z"/><path fill="#222" d="M165.331 132.04c-2.79 0-5.06-2.27-5.06-5.06 0-2.79 2.27-5.06 5.06-5.06 2.79 0 5.06 2.27 5.06 5.06 0 2.79-2.27 5.06-5.06 5.06Zm0-7.355a2.298 2.298 0 0 0-2.295 2.295 2.298 2.298 0 0 0 2.295 2.295 2.298 2.298 0 0 0 2.295-2.295 2.298 2.298 0 0 0-2.295-2.295Z"/><path fill="#FF3158" d="M165.33 158.395a3.675 3.675 0 1 0 0-7.35 3.675 3.675 0 0 0 0 7.35Z"/><path fill="#222" d="M165.331 159.78c-2.79 0-5.06-2.27-5.06-5.06 0-2.79 2.27-5.06 5.06-5.06 2.79 0 5.06 2.27 5.06 5.06 0 2.79-2.27 5.06-5.06 5.06Zm0-7.355a2.298 2.298 0 0 0-2.295 2.295 2.298 2.298 0 0 0 2.295 2.295 2.298 2.298 0 0 0 2.295-2.295 2.298 2.298 0 0 0-2.295-2.295Z"/><path fill="#FF3158" d="M165.33 172.26a3.675 3.675 0 1 0 0-7.35 3.675 3.675 0 0 0 0 7.35Z"/><path fill="#222" d="M165.331 173.645c-2.79 0-5.06-2.27-5.06-5.06 0-2.79 2.27-5.06 5.06-5.06 2.79 0 5.06 2.27 5.06 5.06 0 2.79-2.27 5.06-5.06 5.06Zm0-7.355a2.298 2.298 0 0 0-2.295 2.295 2.298 2.298 0 0 0 2.295 2.295 2.298 2.298 0 0 0 2.295-2.295 2.298 2.298 0 0 0-2.295-2.295Z"/><path fill="#FF3158" d="M220.799 116.79a3.675 3.675 0 1 0 0-7.35 3.675 3.675 0 0 0 0 7.35Z"/><path fill="#222" d="M220.799 118.175c-2.79 0-5.06-2.27-5.06-5.06 0-2.79 2.27-5.06 5.06-5.06 2.79 0 5.06 2.27 5.06 5.06 0 2.79-2.27 5.06-5.06 5.06Zm0-7.355a2.298 2.298 0 0 0-2.295 2.295 2.298 2.298 0 0 0 2.295 2.295 2.298 2.298 0 0 0 2.295-2.295 2.298 2.298 0 0 0-2.295-2.295Z"/><path fill="#FF3158" d="m200.21 113.115-10.82 8.085v7.77l21.22-15.855-21.22-15.86v7.77l10.82 8.09Z"/><path fill="#222" d="M189.39 130.355a1.383 1.383 0 0 1-1.385-1.38v-7.77c0-.435.205-.845.555-1.105l9.34-6.98-9.34-6.98c-.35-.26-.555-.67-.555-1.105v-7.77c0-.525.295-1 .765-1.235a1.373 1.373 0 0 1 1.445.13l21.22 15.86a1.376 1.376 0 0 1 0 2.21l-21.22 15.86a1.4 1.4 0 0 1-.83.275l.005-.01Zm1.385-8.46v4.32l17.53-13.1-17.53-13.1v4.32l10.265 7.67a1.376 1.376 0 0 1 0 2.21l-10.265 7.67v.01Z"/><path fill="#FF3158" d="M179.2 116.79a3.675 3.675 0 1 0 0-7.35 3.675 3.675 0 0 0 0 7.35Z"/><path fill="#222" d="M179.195 118.175c-2.79 0-5.06-2.27-5.06-5.06 0-2.79 2.27-5.06 5.06-5.06 2.79 0 5.06 2.27 5.06 5.06 0 2.79-2.27 5.06-5.06 5.06Zm0-7.355a2.298 2.298 0 0 0-2.295 2.295 2.298 2.298 0 0 0 2.295 2.295 2.298 2.298 0 0 0 2.295-2.295 2.298 2.298 0 0 0-2.295-2.295Z"/><path fill="#FF3158" d="M304.01 130.655a3.675 3.675 0 1 0 0-7.35 3.675 3.675 0 0 0 0 7.35Z"/><path fill="#222" d="M304.015 132.04c-2.79 0-5.06-2.27-5.06-5.06 0-2.79 2.27-5.06 5.06-5.06 2.79 0 5.06 2.27 5.06 5.06 0 2.79-2.27 5.06-5.06 5.06Zm0-7.355a2.298 2.298 0 0 0-2.295 2.295 2.298 2.298 0 0 0 2.295 2.295 2.298 2.298 0 0 0 2.295-2.295 2.298 2.298 0 0 0-2.295-2.295Z"/><path fill="#FF3158" d="M276.275 116.789a3.675 3.675 0 1 0 0-7.35 3.675 3.675 0 0 0 0 7.35Z"/><path fill="#222" d="M276.275 118.175c-2.79 0-5.06-2.27-5.06-5.06 0-2.79 2.27-5.06 5.06-5.06 2.79 0 5.06 2.27 5.06 5.06 0 2.79-2.27 5.06-5.06 5.06Zm0-7.355a2.298 2.298 0 0 0-2.295 2.295 2.298 2.298 0 0 0 2.295 2.295 2.298 2.298 0 0 0 2.295-2.295 2.298 2.298 0 0 0-2.295-2.295Z"/><path fill="#FF3158" d="M290.145 116.789a3.675 3.675 0 1 0 0-7.35 3.675 3.675 0 0 0 0 7.35Z"/><path fill="#222" d="M290.145 118.175c-2.79 0-5.06-2.27-5.06-5.06 0-2.79 2.27-5.06 5.06-5.06 2.79 0 5.06 2.27 5.06 5.06 0 2.79-2.27 5.06-5.06 5.06Zm0-7.355a2.298 2.298 0 0 0-2.295 2.295 2.298 2.298 0 0 0 2.295 2.295 2.298 2.298 0 0 0 2.295-2.295 2.298 2.298 0 0 0-2.295-2.295Z"/><path fill="#FF3158" d="M304.01 116.79a3.675 3.675 0 1 0 0-7.35 3.675 3.675 0 0 0 0 7.35Z"/><path fill="#222" d="M304.015 118.175c-2.79 0-5.06-2.27-5.06-5.06 0-2.79 2.27-5.06 5.06-5.06 2.79 0 5.06 2.27 5.06 5.06 0 2.79-2.27 5.06-5.06 5.06Zm0-7.355a2.298 2.298 0 0 0-2.295 2.295 2.298 2.298 0 0 0 2.295 2.295 2.298 2.298 0 0 0 2.295-2.295 2.298 2.298 0 0 0-2.295-2.295Z"/><path fill="#FF3158" d="M82.12 200a3.675 3.675 0 1 0 0-7.35 3.675 3.675 0 0 0 0 7.35Z"/><path fill="#222" d="M82.12 201.385c-2.79 0-5.06-2.27-5.06-5.06 0-2.79 2.27-5.06 5.06-5.06 2.79 0 5.06 2.27 5.06 5.06 0 2.79-2.27 5.06-5.06 5.06Zm0-7.355a2.298 2.298 0 0 0-2.295 2.295 2.298 2.298 0 0 0 2.295 2.295 2.298 2.298 0 0 0 2.295-2.295 2.298 2.298 0 0 0-2.295-2.295Z"/><path fill="#FF3158" d="M109.855 186.13a3.675 3.675 0 1 0 0-7.35 3.675 3.675 0 0 0 0 7.35Z"/><path fill="#222" d="M109.855 187.515c-2.79 0-5.06-2.27-5.06-5.06 0-2.79 2.27-5.06 5.06-5.06 2.79 0 5.06 2.27 5.06 5.06 0 2.79-2.27 5.06-5.06 5.06Zm0-7.355a2.298 2.298 0 0 0-2.295 2.295 2.298 2.298 0 0 0 2.295 2.295 2.298 2.298 0 0 0 2.295-2.295 2.298 2.298 0 0 0-2.295-2.295Z"/><path fill="#FF3158" d="M95.99 186.13a3.675 3.675 0 1 0 0-7.35 3.675 3.675 0 0 0 0 7.35Z"/><path fill="#222" d="M95.99 187.515c-2.79 0-5.06-2.27-5.06-5.06 0-2.79 2.27-5.06 5.06-5.06 2.79 0 5.06 2.27 5.06 5.06 0 2.79-2.27 5.06-5.06 5.06Zm0-7.355a2.298 2.298 0 0 0-2.295 2.295 2.298 2.298 0 0 0 2.295 2.295 2.298 2.298 0 0 0 2.295-2.295 2.298 2.298 0 0 0-2.295-2.295Z"/><path fill="#FF3158" d="M82.12 186.13a3.675 3.675 0 1 0 0-7.35 3.675 3.675 0 0 0 0 7.35Z"/><path fill="#222" d="M82.12 187.515c-2.79 0-5.06-2.27-5.06-5.06 0-2.79 2.27-5.06 5.06-5.06 2.79 0 5.06 2.27 5.06 5.06 0 2.79-2.27 5.06-5.06 5.06Zm0-7.355a2.298 2.298 0 0 0-2.295 2.295 2.298 2.298 0 0 0 2.295 2.295 2.298 2.298 0 0 0 2.295-2.295 2.298 2.298 0 0 0-2.295-2.295Z"/><path fill="#FF3158" d="M165.33 241.605a3.675 3.675 0 1 0 0-7.35 3.675 3.675 0 0 0 0 7.35Z"/><path fill="#222" d="M165.331 242.99c-2.79 0-5.06-2.27-5.06-5.06 0-2.79 2.27-5.06 5.06-5.06 2.79 0 5.06 2.27 5.06 5.06 0 2.79-2.27 5.06-5.06 5.06Zm0-7.355a2.298 2.298 0 0 0-2.295 2.295 2.298 2.298 0 0 0 2.295 2.295 2.298 2.298 0 0 0 2.295-2.295 2.298 2.298 0 0 0-2.295-2.295Z"/><path fill="#FF3158" d="M123.725 241.605a3.675 3.675 0 1 0 0-7.35 3.675 3.675 0 0 0 0 7.35Z"/><path fill="#222" d="M123.725 242.99c-2.79 0-5.06-2.27-5.06-5.06 0-2.79 2.27-5.06 5.06-5.06 2.79 0 5.06 2.27 5.06 5.06 0 2.79-2.27 5.06-5.06 5.06Zm0-7.355a2.298 2.298 0 0 0-2.295 2.295 2.298 2.298 0 0 0 2.295 2.295 2.298 2.298 0 0 0 2.295-2.295 2.298 2.298 0 0 0-2.295-2.295Z"/><path fill="#FF3158" d="M151.46 241.605a3.675 3.675 0 1 0 0-7.35 3.675 3.675 0 0 0 0 7.35Z"/><path fill="#222" d="M151.459 242.99c-2.79 0-5.06-2.27-5.06-5.06 0-2.79 2.27-5.06 5.06-5.06 2.79 0 5.06 2.27 5.06 5.06 0 2.79-2.27 5.06-5.06 5.06Zm0-7.355a2.298 2.298 0 0 0-2.295 2.295 2.298 2.298 0 0 0 2.295 2.295 2.298 2.298 0 0 0 2.295-2.295 2.298 2.298 0 0 0-2.295-2.295Z"/><path fill="#FF3158" d="M137.595 241.605a3.675 3.675 0 1 0 0-7.35 3.675 3.675 0 0 0 0 7.35Z"/><path fill="#222" d="M137.59 242.99c-2.79 0-5.06-2.27-5.06-5.06 0-2.79 2.27-5.06 5.06-5.06 2.79 0 5.06 2.27 5.06 5.06 0 2.79-2.27 5.06-5.06 5.06Zm0-7.355a2.298 2.298 0 0 0-2.295 2.295 2.298 2.298 0 0 0 2.295 2.295 2.298 2.298 0 0 0 2.295-2.295 2.298 2.298 0 0 0-2.295-2.295Z"/><path fill="#FF3158" d="M109.855 241.605a3.675 3.675 0 1 0 0-7.35 3.675 3.675 0 0 0 0 7.35Z"/><path fill="#222" d="M109.855 242.99c-2.79 0-5.06-2.27-5.06-5.06 0-2.79 2.27-5.06 5.06-5.06 2.79 0 5.06 2.27 5.06 5.06 0 2.79-2.27 5.06-5.06 5.06Zm0-7.355a2.298 2.298 0 0 0-2.295 2.295 2.298 2.298 0 0 0 2.295 2.295 2.298 2.298 0 0 0 2.295-2.295 2.298 2.298 0 0 0-2.295-2.295Z"/><path fill="#FF3158" d="M95.99 241.605a3.675 3.675 0 1 0 0-7.35 3.675 3.675 0 0 0 0 7.35Z"/><path fill="#222" d="M95.99 242.99c-2.79 0-5.06-2.27-5.06-5.06 0-2.79 2.27-5.06 5.06-5.06 2.79 0 5.06 2.27 5.06 5.06 0 2.79-2.27 5.06-5.06 5.06Zm0-7.355a2.298 2.298 0 0 0-2.295 2.295 2.298 2.298 0 0 0 2.295 2.295 2.298 2.298 0 0 0 2.295-2.295 2.298 2.298 0 0 0-2.295-2.295Z"/><path fill="#FF3158" d="M82.12 241.605a3.675 3.675 0 1 0 0-7.35 3.675 3.675 0 0 0 0 7.35Z"/><path fill="#222" d="M82.12 242.99c-2.79 0-5.06-2.27-5.06-5.06 0-2.79 2.27-5.06 5.06-5.06 2.79 0 5.06 2.27 5.06 5.06 0 2.79-2.27 5.06-5.06 5.06Zm0-7.355a2.298 2.298 0 0 0-2.295 2.295 2.298 2.298 0 0 0 2.295 2.295 2.298 2.298 0 0 0 2.295-2.295 2.298 2.298 0 0 0-2.295-2.295Z"/><path fill="#FF3158" d="M304.01 241.605a3.675 3.675 0 1 0 0-7.35 3.675 3.675 0 0 0 0 7.35Z"/><path fill="#222" d="M304.015 242.99c-2.79 0-5.06-2.27-5.06-5.06 0-2.79 2.27-5.06 5.06-5.06 2.79 0 5.06 2.27 5.06 5.06 0 2.79-2.27 5.06-5.06 5.06Zm0-7.355a2.298 2.298 0 0 0-2.295 2.295 2.298 2.298 0 0 0 2.295 2.295 2.298 2.298 0 0 0 2.295-2.295 2.298 2.298 0 0 0-2.295-2.295Z"/><path fill="#FF3158" d="M82.12 213.865a3.675 3.675 0 1 0-.001-7.35 3.675 3.675 0 0 0 0 7.35Z"/><path fill="#222" d="M82.12 215.25c-2.79 0-5.06-2.27-5.06-5.06 0-2.79 2.27-5.06 5.06-5.06 2.79 0 5.06 2.27 5.06 5.06 0 2.79-2.27 5.06-5.06 5.06Zm0-7.355a2.298 2.298 0 0 0-2.295 2.295 2.298 2.298 0 0 0 2.295 2.295 2.298 2.298 0 0 0 2.295-2.295 2.298 2.298 0 0 0-2.295-2.295Z"/><path fill="#FF3158" d="M82.12 227.735a3.675 3.675 0 1 0-.001-7.35 3.675 3.675 0 0 0 0 7.35Z"/><path fill="#222" d="M82.12 229.12c-2.79 0-5.06-2.27-5.06-5.06 0-2.79 2.27-5.06 5.06-5.06 2.79 0 5.06 2.27 5.06 5.06 0 2.79-2.27 5.06-5.06 5.06Zm0-7.355a2.298 2.298 0 0 0-2.295 2.295 2.298 2.298 0 0 0 2.295 2.295 2.298 2.298 0 0 0 2.295-2.295 2.298 2.298 0 0 0-2.295-2.295Z"/><path fill="#FF3158" d="M234.67 116.789a3.675 3.675 0 1 0 0-7.35 3.675 3.675 0 0 0 0 7.35Z"/><path fill="#222" d="M234.67 118.175c-2.79 0-5.06-2.27-5.06-5.06 0-2.79 2.27-5.06 5.06-5.06 2.79 0 5.06 2.27 5.06 5.06 0 2.79-2.27 5.06-5.06 5.06Zm0-7.355a2.298 2.298 0 0 0-2.295 2.295 2.298 2.298 0 0 0 2.295 2.295 2.298 2.298 0 0 0 2.295-2.295 2.298 2.298 0 0 0-2.295-2.295Z"/><path fill="#FF3158" d="M248.54 116.789a3.675 3.675 0 1 0 0-7.35 3.675 3.675 0 0 0 0 7.35Z"/><path fill="#222" d="M248.539 118.175c-2.79 0-5.06-2.27-5.06-5.06 0-2.79 2.27-5.06 5.06-5.06 2.79 0 5.061 2.27 5.061 5.06 0 2.79-2.271 5.06-5.061 5.06Zm0-7.355a2.298 2.298 0 0 0-2.295 2.295 2.298 2.298 0 0 0 2.295 2.295 2.3 2.3 0 0 0 2.296-2.295 2.3 2.3 0 0 0-2.296-2.295Z"/><path fill="#FF3158" d="M262.405 116.79a3.675 3.675 0 1 0 0-7.35 3.675 3.675 0 0 0 0 7.35Z"/><path fill="#222" d="M262.411 118.175c-2.79 0-5.06-2.27-5.06-5.06 0-2.79 2.27-5.06 5.06-5.06 2.79 0 5.06 2.27 5.06 5.06 0 2.79-2.27 5.06-5.06 5.06Zm0-7.355a2.298 2.298 0 0 0-2.295 2.295 2.298 2.298 0 0 0 2.295 2.295 2.298 2.298 0 0 0 2.295-2.295 2.298 2.298 0 0 0-2.295-2.295Z"/><path fill="#FF3158" d="M304.01 227.735a3.675 3.675 0 1 0 0-7.35 3.675 3.675 0 0 0 0 7.35Z"/><path fill="#222" d="M304.015 229.12c-2.79 0-5.06-2.27-5.06-5.06 0-2.79 2.27-5.06 5.06-5.06 2.79 0 5.06 2.27 5.06 5.06 0 2.79-2.27 5.06-5.06 5.06Zm0-7.355a2.298 2.298 0 0 0-2.295 2.295 2.298 2.298 0 0 0 2.295 2.295 2.298 2.298 0 0 0 2.295-2.295 2.298 2.298 0 0 0-2.295-2.295ZM248.54 102.24a1.38 1.38 0 0 1-1.38-1.385V68.21c0-.765.62-1.385 1.38-1.385.76 0 1.38.62 1.38 1.385v32.645c0 .765-.62 1.385-1.38 1.385Z"/><path fill="#FF3158" d="M248.54 116.789a3.675 3.675 0 1 0 0-7.35 3.675 3.675 0 0 0 0 7.35Z"/><path fill="#222" d="M248.539 118.175c-2.79 0-5.06-2.27-5.06-5.06 0-2.79 2.27-5.06 5.06-5.06 2.79 0 5.061 2.27 5.061 5.06 0 2.79-2.271 5.06-5.061 5.06Zm0-7.355a2.298 2.298 0 0 0-2.295 2.295 2.298 2.298 0 0 0 2.295 2.295 2.3 2.3 0 0 0 2.296-2.295 2.3 2.3 0 0 0-2.296-2.295Z"/><path fill="#FF3158" d="M137.595 186.13a3.675 3.675 0 1 0 0-7.35 3.675 3.675 0 0 0 0 7.35Z"/><path fill="#222" d="M137.59 187.515c-2.79 0-5.06-2.27-5.06-5.06 0-2.79 2.27-5.06 5.06-5.06 2.79 0 5.06 2.27 5.06 5.06 0 2.79-2.27 5.06-5.06 5.06Zm0-7.355a2.298 2.298 0 0 0-2.295 2.295 2.298 2.298 0 0 0 2.295 2.295 2.298 2.298 0 0 0 2.295-2.295 2.298 2.298 0 0 0-2.295-2.295Z"/><path fill="#FF3158" d="M165.33 144.525a3.675 3.675 0 1 0 0-7.35 3.675 3.675 0 0 0 0 7.35Z"/><path fill="#222" d="M165.331 145.91c-2.79 0-5.06-2.27-5.06-5.06 0-2.79 2.27-5.06 5.06-5.06 2.79 0 5.06 2.27 5.06 5.06 0 2.79-2.27 5.06-5.06 5.06Zm0-7.355a2.298 2.298 0 0 0-2.295 2.295 2.298 2.298 0 0 0 2.295 2.295 2.298 2.298 0 0 0 2.295-2.295 2.298 2.298 0 0 0-2.295-2.295Z"/><path fill="#fff" d="M363.715 284.29v-71.415h-7.96v71.415h7.96Z"/><path fill="#222" d="M363.715 285.67h-7.96a1.38 1.38 0 0 1-1.38-1.385V212.87c0-.765.62-1.385 1.38-1.385h7.96c.765 0 1.38.62 1.38 1.385v71.415c0 .765-.62 1.385-1.38 1.385Zm-6.575-2.765h5.195v-68.65h-5.195v68.65Z"/><path fill="#fff" d="M42.516 284.29v-51.21h-7.96v51.21h7.96Z"/><path fill="#222" d="M42.515 285.67h-7.96c-.765 0-1.385-.62-1.385-1.385v-51.21c0-.765.62-1.385 1.385-1.385h7.96c.765 0 1.385.62 1.385 1.385v51.21c0 .765-.62 1.385-1.385 1.385Zm-6.575-2.765h5.195V234.46H35.94v48.445Z"/><path fill="#DADADA" d="M107.32 299.715H71.615v7.96h35.705v-7.96ZM107.32 60.845H71.615v7.96h35.705v-7.96ZM257.556 299.715h-35.705v7.96h35.705v-7.96ZM339.131 299.715h-35.705v7.96h35.705v-7.96ZM46.715 189.64V87.785h-7.96V189.64h7.96ZM326.09 60.735h-45.015v7.96h45.015v-7.96ZM223.681 60.845h-61.54v7.96h61.54v-7.96ZM367.615 280.8v-71.415h-7.96V280.8h7.96ZM46.41 280.8v-51.21h-7.96v51.21h7.96ZM359.66 87.78v71.415h7.96V87.78h-7.96Z" style="mix-blend-mode:multiply"/></svg>