<svg xmlns="http://www.w3.org/2000/svg" width="400" height="401" fill="none" viewBox="0 0 400 401"><path fill="#fff" d="M359.7 68.95H38.85V308.1H359.7V68.95Z"/><path fill="#FF3158" d="M165.35 339.4a3.65 3.65 0 1 0 0-7.3 3.65 3.65 0 0 0 0 7.3Z"/><path fill="#222" d="M165.35 340.8c-2.8 0-5.05-2.25-5.05-5.05s2.25-5.05 5.05-5.05 5.05 2.25 5.05 5.05-2.3 5.05-5.05 5.05Zm0-7.35c-1.25 0-2.3 1.05-2.3 2.3 0 1.25 1.05 2.3 2.3 2.3 1.25 0 2.3-1.05 2.3-2.3 0-1.25-1.05-2.3-2.3-2.3ZM192.7 309.5c-.75 0-1.4-.6-1.4-1.4v-57c0-.75.6-1.4 1.4-1.4.8 0 1.4.6 1.4 1.4v57c-.05.75-.65 1.4-1.4 1.4Z"/><path fill="#222" d="M359.7 309.5H177.25c-.75 0-1.4-.6-1.4-1.4 0-.8.6-1.4 1.4-1.4H358.3V70.35H40.2v236.4h111.7c.75 0 1.4.6 1.4 1.4 0 .8-.6 1.4-1.4 1.4H38.85c-.75 0-1.4-.6-1.4-1.4V68.95c0-.75.6-1.4 1.4-1.4H359.7c.75 0 1.4.6 1.4 1.4V308.1c-.05.75-.65 1.4-1.4 1.4Z"/><path fill="#222" d="M137.6 309.5c-.75 0-1.4-.6-1.4-1.4v-57c0-.75.6-1.4 1.4-1.4.8 0 1.4.6 1.4 1.4v57c0 .75-.65 1.4-1.4 1.4ZM137.6 173.2c-.75 0-1.4-.6-1.4-1.4V68.95c0-.75.6-1.4 1.4-1.4.8 0 1.4.6 1.4 1.4v102.8c0 .8-.65 1.4-1.4 1.45ZM137.6 228.1c-.75 0-1.4-.6-1.4-1.4v-32.95c0-.75.6-1.4 1.4-1.4.8 0 1.4.6 1.4 1.4v32.95c0 .75-.65 1.4-1.4 1.4Z"/><path fill="#222" d="M136.5 212.2H94.3c-.75 0-1.4-.6-1.4-1.4 0-.8.6-1.4 1.4-1.4h42.2c.75 0 1.4.6 1.4 1.4 0 .8-.65 1.4-1.4 1.4ZM69.8 212.2h-31c-.75 0-1.4-.6-1.4-1.4 0-.8.6-1.4 1.4-1.4h31c.75 0 1.4.6 1.4 1.4 0 .8-.65 1.4-1.4 1.4ZM153.05 143h-15.5c-.75 0-1.4-.6-1.4-1.4 0-.8.6-1.4 1.4-1.4h15.5c.75 0 1.4.6 1.4 1.4 0 .8-.6 1.4-1.4 1.4Z"/><path fill="#fff" d="M103.4 303.949H67.7v7.95h35.7v-7.95Z"/><path fill="#222" d="M103.4 313.3H67.7c-.75 0-1.4-.6-1.4-1.4v-7.95c0-.75.6-1.4 1.4-1.4h35.7c.75 0 1.4.6 1.4 1.4v7.95c0 .8-.6 1.4-1.4 1.4Zm-34.3-2.75h32.95v-5.2H69.1v5.2Z"/><path fill="#fff" d="M103.4 65.1H67.7v7.95h35.7V65.1Z"/><path fill="#222" d="M103.4 74.45H67.7c-.75 0-1.4-.6-1.4-1.4V65.1c0-.75.6-1.4 1.4-1.4h35.7c.75 0 1.4.6 1.4 1.4v7.95c0 .75-.6 1.4-1.4 1.4Zm-34.3-2.8h32.95v-5.2H69.1v5.2Z"/><path fill="#fff" d="M253.65 303.949h-35.7v7.95h35.7v-7.95Z"/><path fill="#222" d="M253.65 313.3h-35.7c-.75 0-1.4-.6-1.4-1.4v-7.95c0-.75.6-1.4 1.4-1.4h35.7c.75 0 1.4.6 1.4 1.4v7.95c0 .8-.65 1.4-1.4 1.4Zm-34.3-2.75h32.95v-5.2h-32.95v5.2Z"/><path fill="#fff" d="M335.2 303.949h-35.7v7.95h35.7v-7.95Z"/><path fill="#222" d="M335.25 313.3h-35.7c-.75 0-1.4-.6-1.4-1.4v-7.95c0-.75.6-1.4 1.4-1.4h35.7c.75 0 1.4.6 1.4 1.4v7.95c-.05.8-.65 1.4-1.4 1.4Zm-34.35-2.75h32.95v-5.2H300.9v5.2Z"/><path fill="#fff" d="M363.7 92h-7.95v71.4h7.95V92Z"/><path fill="#222" d="M363.7 164.799h-7.95c-.75 0-1.4-.6-1.4-1.4v-71.35c0-.75.6-1.4 1.4-1.4h7.95c.75 0 1.4.6 1.4 1.4v71.4c0 .75-.6 1.35-1.4 1.35Zm-6.55-2.75h5.2v-68.65h-5.2v68.65Z"/><path fill="#fff" d="M42.8 92.049h-7.95v101.85h7.95V92.049Z"/><path fill="#222" d="M42.8 195.249h-7.95c-.75 0-1.4-.6-1.4-1.4v-101.8c0-.75.6-1.4 1.4-1.4h7.95c.75 0 1.4.6 1.4 1.4V193.9c0 .75-.6 1.35-1.4 1.35Zm-6.55-2.75h5.2v-99.1h-5.2v99.1Z"/><path fill="#fff" d="M322.15 64.95h-45v7.95h45v-7.95Z"/><path fill="#222" d="M322.2 74.3h-45c-.75 0-1.4-.6-1.4-1.4v-7.95c0-.75.6-1.4 1.4-1.4h45c.75 0 1.4.6 1.4 1.4v7.95c-.05.8-.65 1.4-1.4 1.4Zm-43.65-2.75h42.25v-5.2h-42.25v5.2Z"/><path fill="#fff" d="M219.8 65.1h-61.55v7.95h61.55V65.1Z"/><path fill="#222" d="M219.8 74.45h-61.55c-.75 0-1.4-.6-1.4-1.4V65.1c0-.75.6-1.4 1.4-1.4h61.55c.75 0 1.4.6 1.4 1.4v7.95c-.05.75-.65 1.4-1.4 1.4Zm-60.2-2.8h58.8v-5.2h-58.8v5.2ZM248.55 212.2H192.7c-.75 0-1.4-.6-1.4-1.4V143h-13.7c-.75 0-1.4-.6-1.4-1.4 0-.8.6-1.4 1.4-1.4h15.1c.75 0 1.4.6 1.4 1.4v67.85h53.1V126.1c0-.75.6-1.4 1.4-1.4.8 0 1.4.6 1.4 1.4v84.7c-.1.8-.7 1.4-1.45 1.4Z"/><path fill="#FF3158" d="M165.35 297.8a3.65 3.65 0 1 0 0-7.3 3.65 3.65 0 0 0 0 7.3Z"/><path fill="#222" d="M165.35 299.201c-2.8 0-5.05-2.25-5.05-5.05s2.25-5.05 5.05-5.05 5.05 2.25 5.05 5.05-2.3 5.05-5.05 5.05Zm0-7.35c-1.25 0-2.3 1.05-2.3 2.3 0 1.25 1.05 2.3 2.3 2.3 1.25 0 2.3-1.05 2.3-2.3 0-1.25-1.05-2.3-2.3-2.3Z"/><path fill="#FF3158" d="M165.35 311.65a3.65 3.65 0 1 0 0-7.3 3.65 3.65 0 0 0 0 7.3Z"/><path fill="#222" d="M165.35 313.1c-2.8 0-5.05-2.25-5.05-5.05s2.25-5.05 5.05-5.05 5.05 2.25 5.05 5.05-2.3 5.05-5.05 5.05Zm0-7.4c-1.25 0-2.3 1.05-2.3 2.3 0 1.25 1.05 2.3 2.3 2.3 1.25 0 2.3-1.05 2.3-2.3 0-1.25-1.05-2.3-2.3-2.3Z"/><path fill="#FF3158" d="M165.35 325.55a3.65 3.65 0 1 0 0-7.3 3.65 3.65 0 0 0 0 7.3Z"/><path fill="#222" d="M165.35 326.951c-2.8 0-5.05-2.25-5.05-5.05s2.25-5.05 5.05-5.05 5.05 2.25 5.05 5.05-2.3 5.05-5.05 5.05Zm0-7.35c-1.25 0-2.3 1.05-2.3 2.3 0 1.25 1.05 2.3 2.3 2.3 1.25 0 2.3-1.05 2.3-2.3 0-1.25-1.05-2.3-2.3-2.3Z"/><path fill="#FF3158" d="m165.35 273.15 8.05 10.8h7.8l-15.85-21.2-15.9 21.2h7.8l8.1-10.8Z"/><path fill="#222" d="M181.2 285.349h-7.75c-.45 0-.85-.2-1.1-.55l-7-9.35-7 9.35c-.25.35-.65.55-1.1.55h-7.75c-.5 0-1-.3-1.25-.75s-.2-1.05.15-1.45l15.85-21.2c.25-.35.65-.55 1.1-.55.45 0 .85.2 1.1.55l15.85 21.2c.3.4.35 1 .15 1.45-.2.45-.75.75-1.25.75Zm-7.1-2.75h4.3l-13.1-17.55-13.1 17.55h4.3l7.65-10.25c.25-.35.65-.55 1.1-.55.45 0 .85.2 1.1.55l7.75 10.25Z"/><path fill="#FF3158" d="M165.35 256.25a3.7 3.7 0 1 0 0-7.4 3.7 3.7 0 0 0 0 7.4Z"/><path fill="#222" d="M165.35 257.6c-2.8 0-5.05-2.25-5.05-5.05s2.25-5.05 5.05-5.05 5.05 2.25 5.05 5.05-2.3 5.05-5.05 5.05Zm0-7.35c-1.25 0-2.3 1.05-2.3 2.3 0 1.25 1.05 2.3 2.3 2.3 1.25 0 2.3-1.05 2.3-2.3 0-1.25-1.05-2.3-2.3-2.3Z"/><path fill="#FF3158" d="M137.6 186.9a3.7 3.7 0 1 0 0-7.4 3.7 3.7 0 0 0 0 7.4Z"/><path fill="#222" d="M137.6 188.249c-2.8 0-5.05-2.25-5.05-5.05s2.25-5.05 5.05-5.05 5.05 2.25 5.05 5.05-2.25 5.05-5.05 5.05Zm0-7.35c-1.25 0-2.3 1.05-2.3 2.3 0 1.25 1.05 2.3 2.3 2.3 1.25 0 2.3-1.05 2.3-2.3 0-1.25-1.05-2.3-2.3-2.3Z"/><path fill="#FF3158" d="M123.7 186.9a3.7 3.7 0 1 0-.001-7.401 3.7 3.7 0 0 0 .001 7.401Z"/><path fill="#222" d="M123.7 188.249c-2.8 0-5.05-2.25-5.05-5.05s2.25-5.05 5.05-5.05 5.05 2.25 5.05 5.05-2.25 5.05-5.05 5.05Zm0-7.35c-1.25 0-2.3 1.05-2.3 2.3 0 1.25 1.05 2.3 2.3 2.3 1.25 0 2.3-1.05 2.3-2.3 0-1.25-1-2.3-2.3-2.3Z"/><path fill="#FF3158" d="M165.35 186.9a3.7 3.7 0 1 0 0-7.4 3.7 3.7 0 0 0 0 7.4Z"/><path fill="#222" d="M165.35 188.249c-2.8 0-5.05-2.25-5.05-5.05s2.25-5.05 5.05-5.05 5.05 2.25 5.05 5.05-2.3 5.05-5.05 5.05Zm0-7.35c-1.25 0-2.3 1.05-2.3 2.3 0 1.25 1.05 2.3 2.3 2.3 1.25 0 2.3-1.05 2.3-2.3 0-1.25-1.05-2.3-2.3-2.3Z"/><path fill="#FF3158" d="M151.45 186.9a3.7 3.7 0 1 0-.001-7.401 3.7 3.7 0 0 0 .001 7.401Z"/><path fill="#222" d="M151.45 188.249c-2.8 0-5.05-2.25-5.05-5.05s2.25-5.05 5.05-5.05 5.05 2.25 5.05 5.05-2.25 5.05-5.05 5.05Zm0-7.35c-1.25 0-2.3 1.05-2.3 2.3 0 1.25 1.05 2.3 2.3 2.3 1.25 0 2.3-1.05 2.3-2.3 0-1.25-1-2.3-2.3-2.3Z"/><path fill="#FF3158" d="M137.6 186.9a3.7 3.7 0 1 0 0-7.4 3.7 3.7 0 0 0 0 7.4Z"/><path fill="#222" d="M137.6 188.249c-2.8 0-5.05-2.25-5.05-5.05s2.25-5.05 5.05-5.05 5.05 2.25 5.05 5.05-2.25 5.05-5.05 5.05Zm0-7.35c-1.25 0-2.3 1.05-2.3 2.3 0 1.25 1.05 2.3 2.3 2.3 1.25 0 2.3-1.05 2.3-2.3 0-1.25-1.05-2.3-2.3-2.3Z"/><path fill="#FF3158" d="M304 200.7a3.65 3.65 0 1 0 0-7.3 3.65 3.65 0 0 0 0 7.3Z"/><path fill="#222" d="M304 202.15c-2.8 0-5.05-2.25-5.05-5.05s2.25-5.05 5.05-5.05 5.05 2.25 5.05 5.05-2.25 5.05-5.05 5.05Zm0-7.35c-1.25 0-2.3 1.05-2.3 2.3 0 1.25 1.05 2.3 2.3 2.3 1.25 0 2.3-1.05 2.3-2.3 0-1.25-1-2.3-2.3-2.3Z"/><path fill="#FF3158" d="M304 214.599a3.65 3.65 0 1 0 0-7.3 3.65 3.65 0 0 0 0 7.3Z"/><path fill="#222" d="M304 215.999c-2.8 0-5.05-2.25-5.05-5.05s2.25-5.05 5.05-5.05 5.05 2.25 5.05 5.05-2.25 5.05-5.05 5.05Zm0-7.35c-1.25 0-2.3 1.05-2.3 2.3 0 1.25 1.05 2.3 2.3 2.3 1.25 0 2.3-1.05 2.3-2.3 0-1.25-1-2.3-2.3-2.3Z"/><path fill="#FF3158" d="m304 176.5-8.1-10.85h-7.75L304 186.9l15.85-21.25h-7.75L304 176.5Z"/><path fill="#222" d="M304 188.25c-.45 0-.85-.2-1.1-.55l-15.85-21.2c-.3-.4-.35-1-.15-1.45.2-.45.7-.75 1.25-.75h7.75c.45 0 .85.2 1.1.55l7 9.35 7-9.35c.25-.35.65-.55 1.1-.55h7.75c.5 0 1 .3 1.25.75s.2 1.05-.15 1.45l-15.85 21.2c-.25.35-.65.55-1.1.55Zm-13.1-21.2L304 184.6l13.1-17.55h-4.3l-7.65 10.25c-.25.35-.65.55-1.1.55-.45 0-.85-.2-1.1-.55l-7.65-10.25h-4.4Z"/><path fill="#FF3158" d="M304 159.099a3.65 3.65 0 1 0 0-7.3 3.65 3.65 0 0 0 0 7.3Z"/><path fill="#222" d="M304 160.499c-2.8 0-5.05-2.25-5.05-5.05s2.25-5.05 5.05-5.05 5.05 2.25 5.05 5.05-2.25 5.05-5.05 5.05Zm0-7.35c-1.25 0-2.3 1.05-2.3 2.3 0 1.25 1.05 2.3 2.3 2.3 1.25 0 2.3-1.05 2.3-2.3 0-1.25-1-2.3-2.3-2.3Z"/><path fill="#FF3158" d="M304 145.249a3.65 3.65 0 1 0 0-7.3 3.65 3.65 0 0 0 0 7.3Z"/><path fill="#222" d="M304 146.65c-2.8 0-5.05-2.25-5.05-5.05s2.25-5.05 5.05-5.05 5.05 2.25 5.05 5.05-2.25 5.05-5.05 5.05Zm0-7.35c-1.25 0-2.3 1.05-2.3 2.3 0 1.25 1.05 2.3 2.3 2.3 1.25 0 2.3-1.05 2.3-2.3 0-1.25-1-2.3-2.3-2.3Z"/><path fill="#FF3158" d="M165.35 117.55a3.7 3.7 0 1 0 .001-7.399 3.7 3.7 0 0 0-.001 7.399Z"/><path fill="#222" d="M165.35 118.951c-2.8 0-5.05-2.25-5.05-5.05s2.25-5.05 5.05-5.05 5.05 2.25 5.05 5.05-2.3 5.05-5.05 5.05Zm0-7.4c-1.25 0-2.3 1.05-2.3 2.3 0 1.25 1.05 2.3 2.3 2.3 1.25 0 2.3-1.05 2.3-2.3 0-1.25-1.05-2.3-2.3-2.3Z"/><path fill="#FF3158" d="M165.35 131.451a3.7 3.7 0 1 0 0-7.4 3.7 3.7 0 0 0 0 7.4Z"/><path fill="#222" d="M165.35 132.8c-2.8 0-5.05-2.25-5.05-5.05s2.25-5.05 5.05-5.05 5.05 2.25 5.05 5.05c0 2.75-2.3 5.05-5.05 5.05Zm0-7.35c-1.25 0-2.3 1.05-2.3 2.3 0 1.25 1.05 2.3 2.3 2.3 1.25 0 2.3-1.05 2.3-2.3 0-1.25-1.05-2.3-2.3-2.3Z"/><path fill="#FF3158" d="M165.35 159.15a3.7 3.7 0 1 0 0-7.4 3.7 3.7 0 0 0 0 7.4Z"/><path fill="#222" d="M165.35 160.499c-2.8 0-5.05-2.25-5.05-5.05s2.25-5.05 5.05-5.05 5.05 2.25 5.05 5.05-2.3 5.05-5.05 5.05Zm0-7.35c-1.25 0-2.3 1.05-2.3 2.3 0 1.25 1.05 2.3 2.3 2.3 1.25 0 2.3-1.05 2.3-2.3 0-1.25-1.05-2.3-2.3-2.3Z"/><path fill="#FF3158" d="M165.35 173.05a3.7 3.7 0 1 0 .001-7.399 3.7 3.7 0 0 0-.001 7.399Z"/><path fill="#222" d="M165.35 174.4c-2.8 0-5.05-2.25-5.05-5.05s2.25-5.05 5.05-5.05 5.05 2.25 5.05 5.05-2.3 5.05-5.05 5.05Zm0-7.35c-1.25 0-2.3 1.05-2.3 2.3 0 1.25 1.05 2.3 2.3 2.3 1.25 0 2.3-1.05 2.3-2.3 0-1.25-1.05-2.3-2.3-2.3Z"/><path fill="#FF3158" d="M220.8 117.55a3.7 3.7 0 1 0 .001-7.399 3.7 3.7 0 0 0-.001 7.399Z"/><path fill="#222" d="M220.8 118.951c-2.8 0-5.05-2.25-5.05-5.05s2.25-5.05 5.05-5.05 5.05 2.25 5.05 5.05-2.25 5.05-5.05 5.05Zm0-7.4c-1.25 0-2.3 1.05-2.3 2.3 0 1.25 1.05 2.3 2.3 2.3 1.25 0 2.3-1.05 2.3-2.3 0-1.25-1.05-2.3-2.3-2.3Z"/><path fill="#FF3158" d="m200.2 113.85-10.8 8.1v7.75l21.2-15.85L189.4 98v7.8l10.8 8.05Z"/><path fill="#222" d="M189.4 131.1c-.2 0-.45-.05-.6-.15-.45-.25-.75-.7-.75-1.25v-7.75c0-.45.2-.85.55-1.1l9.35-7-9.35-7c-.35-.25-.55-.65-.55-1.1V98c0-.55.3-1 .75-1.25s1-.2 1.45.15l21.2 15.85c.35.25.55.65.55 1.1 0 .45-.2.85-.55 1.1l-21.2 15.85c-.3.2-.55.3-.85.3Zm1.35-8.45v4.3l17.55-13.1-17.55-13.1v4.3l10.25 7.7c.35.25.55.65.55 1.1 0 .45-.2.85-.55 1.1l-10.25 7.7Z"/><path fill="#FF3158" d="M179.2 117.55a3.7 3.7 0 1 0 0-7.4 3.7 3.7 0 0 0 0 7.4Z"/><path fill="#222" d="M179.2 118.951c-2.8 0-5.05-2.25-5.05-5.05s2.25-5.05 5.05-5.05 5.05 2.25 5.05 5.05-2.25 5.05-5.05 5.05Zm0-7.4c-1.25 0-2.3 1.05-2.3 2.3 0 1.25 1.05 2.3 2.3 2.3 1.25 0 2.3-1.05 2.3-2.3 0-1.25-1.05-2.3-2.3-2.3Z"/><path fill="#FF3158" d="M304 131.4a3.65 3.65 0 1 0 0-7.3 3.65 3.65 0 0 0 0 7.3Z"/><path fill="#222" d="M304 132.8c-2.8 0-5.05-2.25-5.05-5.05s2.25-5.05 5.05-5.05 5.05 2.25 5.05 5.05c.05 2.75-2.25 5.05-5.05 5.05Zm0-7.35c-1.25 0-2.3 1.05-2.3 2.3 0 1.25 1.05 2.3 2.3 2.3 1.25 0 2.3-1.05 2.3-2.3 0-1.25-1-2.3-2.3-2.3Z"/><path fill="#FF3158" d="M276.25 117.501a3.65 3.65 0 1 0 0-7.3 3.65 3.65 0 0 0 0 7.3Z"/><path fill="#222" d="M276.25 118.951c-2.8 0-5.05-2.25-5.05-5.05s2.25-5.05 5.05-5.05 5.05 2.25 5.05 5.05-2.25 5.05-5.05 5.05Zm0-7.4c-1.25 0-2.3 1.05-2.3 2.3 0 1.25 1.05 2.3 2.3 2.3 1.25 0 2.3-1.05 2.3-2.3 0-1.25-1-2.3-2.3-2.3Z"/><path fill="#FF3158" d="M290.15 117.501a3.65 3.65 0 1 0 0-7.3 3.65 3.65 0 0 0 0 7.3Z"/><path fill="#222" d="M290.15 118.951c-2.8 0-5.05-2.25-5.05-5.05s2.25-5.05 5.05-5.05 5.05 2.25 5.05 5.05-2.25 5.05-5.05 5.05Zm0-7.4c-1.25 0-2.3 1.05-2.3 2.3 0 1.25 1.05 2.3 2.3 2.3 1.25 0 2.3-1.05 2.3-2.3 0-1.25-1.05-2.3-2.3-2.3Z"/><path fill="#FF3158" d="M304 117.501a3.65 3.65 0 1 0 0-7.3 3.65 3.65 0 0 0 0 7.3Z"/><path fill="#222" d="M304 118.951c-2.8 0-5.05-2.25-5.05-5.05s2.25-5.05 5.05-5.05 5.05 2.25 5.05 5.05-2.25 5.05-5.05 5.05Zm0-7.4c-1.25 0-2.3 1.05-2.3 2.3 0 1.25 1.05 2.3 2.3 2.3 1.25 0 2.3-1.05 2.3-2.3 0-1.25-1-2.3-2.3-2.3Z"/><path fill="#FF3158" d="M82.1 200.75a3.7 3.7 0 1 0 0-7.4 3.7 3.7 0 0 0 0 7.4Z"/><path fill="#222" d="M82.1 202.15c-2.8 0-5.05-2.25-5.05-5.05s2.25-5.05 5.05-5.05 5.05 2.25 5.05 5.05-2.25 5.05-5.05 5.05Zm0-7.35c-1.25 0-2.3 1.05-2.3 2.3 0 1.25 1.05 2.3 2.3 2.3 1.25 0 2.3-1.05 2.3-2.3 0-1.25-1-2.3-2.3-2.3Z"/><path fill="#FF3158" d="M109.85 186.9a3.7 3.7 0 1 0 0-7.4 3.7 3.7 0 0 0 0 7.4Z"/><path fill="#222" d="M109.85 188.249c-2.8 0-5.05-2.25-5.05-5.05s2.25-5.05 5.05-5.05 5.05 2.25 5.05 5.05-2.25 5.05-5.05 5.05Zm0-7.35c-1.25 0-2.3 1.05-2.3 2.3 0 1.25 1.05 2.3 2.3 2.3 1.25 0 2.3-1.05 2.3-2.3 0-1.25-1.05-2.3-2.3-2.3Z"/><path fill="#FF3158" d="M96 186.9a3.7 3.7 0 1 0 0-7.4 3.7 3.7 0 0 0 0 7.4Z"/><path fill="#222" d="M96 188.249c-2.8 0-5.05-2.25-5.05-5.05s2.25-5.05 5.05-5.05 5.05 2.25 5.05 5.05-2.25 5.05-5.05 5.05Zm0-7.35c-1.25 0-2.3 1.05-2.3 2.3 0 1.25 1.05 2.3 2.3 2.3 1.25 0 2.3-1.05 2.3-2.3 0-1.25-1.05-2.3-2.3-2.3Z"/><path fill="#FF3158" d="M82.1 186.9a3.7 3.7 0 1 0 0-7.4 3.7 3.7 0 0 0 0 7.4Z"/><path fill="#222" d="M82.1 188.249c-2.8 0-5.05-2.25-5.05-5.05s2.25-5.05 5.05-5.05 5.05 2.25 5.05 5.05-2.25 5.05-5.05 5.05Zm0-7.35c-1.25 0-2.3 1.05-2.3 2.3 0 1.25 1.05 2.3 2.3 2.3 1.25 0 2.3-1.05 2.3-2.3 0-1.25-1-2.3-2.3-2.3Z"/><path fill="#FF3158" d="M165.35 242.4a3.7 3.7 0 1 0 0-7.4 3.7 3.7 0 0 0 0 7.4Z"/><path fill="#222" d="M165.35 243.749c-2.8 0-5.05-2.25-5.05-5.05s2.25-5.05 5.05-5.05 5.05 2.25 5.05 5.05-2.3 5.05-5.05 5.05Zm0-7.35c-1.25 0-2.3 1.05-2.3 2.3 0 1.25 1.05 2.3 2.3 2.3 1.25 0 2.3-1.05 2.3-2.3 0-1.25-1.05-2.3-2.3-2.3Z"/><path fill="#FF3158" d="M123.7 242.4a3.7 3.7 0 1 0-.001-7.401 3.7 3.7 0 0 0 .001 7.401Z"/><path fill="#222" d="M123.7 243.749c-2.8 0-5.05-2.25-5.05-5.05s2.25-5.05 5.05-5.05 5.05 2.25 5.05 5.05-2.25 5.05-5.05 5.05Zm0-7.35c-1.25 0-2.3 1.05-2.3 2.3 0 1.25 1.05 2.3 2.3 2.3 1.25 0 2.3-1.05 2.3-2.3 0-1.25-1-2.3-2.3-2.3Z"/><path fill="#FF3158" d="M151.45 242.4a3.7 3.7 0 1 0-.001-7.401 3.7 3.7 0 0 0 .001 7.401Z"/><path fill="#222" d="M151.45 243.749c-2.8 0-5.05-2.25-5.05-5.05s2.25-5.05 5.05-5.05 5.05 2.25 5.05 5.05-2.25 5.05-5.05 5.05Zm0-7.35c-1.25 0-2.3 1.05-2.3 2.3 0 1.25 1.05 2.3 2.3 2.3 1.25 0 2.3-1.05 2.3-2.3 0-1.25-1-2.3-2.3-2.3Z"/><path fill="#FF3158" d="M137.6 242.4a3.7 3.7 0 1 0 0-7.4 3.7 3.7 0 0 0 0 7.4Z"/><path fill="#222" d="M137.6 243.749c-2.8 0-5.05-2.25-5.05-5.05s2.25-5.05 5.05-5.05 5.05 2.25 5.05 5.05-2.25 5.05-5.05 5.05Zm0-7.35c-1.25 0-2.3 1.05-2.3 2.3 0 1.25 1.05 2.3 2.3 2.3 1.25 0 2.3-1.05 2.3-2.3 0-1.25-1.05-2.3-2.3-2.3Z"/><path fill="#FF3158" d="M109.85 242.4a3.7 3.7 0 1 0 0-7.4 3.7 3.7 0 0 0 0 7.4Z"/><path fill="#222" d="M109.85 243.749c-2.8 0-5.05-2.25-5.05-5.05s2.25-5.05 5.05-5.05 5.05 2.25 5.05 5.05-2.25 5.05-5.05 5.05Zm0-7.35c-1.25 0-2.3 1.05-2.3 2.3 0 1.25 1.05 2.3 2.3 2.3 1.25 0 2.3-1.05 2.3-2.3 0-1.25-1.05-2.3-2.3-2.3Z"/><path fill="#FF3158" d="M96 242.4a3.7 3.7 0 1 0 0-7.4 3.7 3.7 0 0 0 0 7.4Z"/><path fill="#222" d="M96 243.749c-2.8 0-5.05-2.25-5.05-5.05s2.25-5.05 5.05-5.05 5.05 2.25 5.05 5.05-2.25 5.05-5.05 5.05Zm0-7.35c-1.25 0-2.3 1.05-2.3 2.3 0 1.25 1.05 2.3 2.3 2.3 1.25 0 2.3-1.05 2.3-2.3 0-1.25-1.05-2.3-2.3-2.3Z"/><path fill="#FF3158" d="M82.1 242.4a3.7 3.7 0 1 0 0-7.4 3.7 3.7 0 0 0 0 7.4Z"/><path fill="#222" d="M82.1 243.749c-2.8 0-5.05-2.25-5.05-5.05s2.25-5.05 5.05-5.05 5.05 2.25 5.05 5.05-2.25 5.05-5.05 5.05Zm0-7.35c-1.25 0-2.3 1.05-2.3 2.3 0 1.25 1.05 2.3 2.3 2.3 1.25 0 2.3-1.05 2.3-2.3 0-1.25-1-2.3-2.3-2.3Z"/><path fill="#FF3158" d="M304 242.349a3.65 3.65 0 1 0 0-7.3 3.65 3.65 0 0 0 0 7.3Z"/><path fill="#222" d="M304 243.749c-2.8 0-5.05-2.25-5.05-5.05s2.25-5.05 5.05-5.05 5.05 2.25 5.05 5.05-2.25 5.05-5.05 5.05Zm0-7.35c-1.25 0-2.3 1.05-2.3 2.3 0 1.25 1.05 2.3 2.3 2.3 1.25 0 2.3-1.05 2.3-2.3 0-1.25-1-2.3-2.3-2.3Z"/><path fill="#FF3158" d="M82.1 214.65a3.7 3.7 0 1 0 0-7.4 3.7 3.7 0 0 0 0 7.4Z"/><path fill="#222" d="M82.1 215.999c-2.8 0-5.05-2.25-5.05-5.05s2.25-5.05 5.05-5.05 5.05 2.25 5.05 5.05-2.25 5.05-5.05 5.05Zm0-7.35c-1.25 0-2.3 1.05-2.3 2.3 0 1.25 1.05 2.3 2.3 2.3 1.25 0 2.3-1.05 2.3-2.3 0-1.25-1-2.3-2.3-2.3Z"/><path fill="#FF3158" d="M82.1 228.5a3.7 3.7 0 1 0 0-7.4 3.7 3.7 0 0 0 0 7.4Z"/><path fill="#222" d="M82.1 229.85c-2.8 0-5.05-2.25-5.05-5.05s2.25-5.05 5.05-5.05 5.05 2.25 5.05 5.05-2.25 5.05-5.05 5.05Zm0-7.35c-1.25 0-2.3 1.05-2.3 2.3 0 1.25 1.05 2.3 2.3 2.3 1.25 0 2.3-1.05 2.3-2.3 0-1.25-1-2.3-2.3-2.3Z"/><path fill="#FF3158" d="M234.65 117.55a3.7 3.7 0 1 0 .001-7.399 3.7 3.7 0 0 0-.001 7.399Z"/><path fill="#222" d="M234.65 118.951c-2.8 0-5.05-2.25-5.05-5.05s2.25-5.05 5.05-5.05 5.05 2.25 5.05 5.05-2.25 5.05-5.05 5.05Zm0-7.4c-1.25 0-2.3 1.05-2.3 2.3 0 1.25 1.05 2.3 2.3 2.3 1.25 0 2.3-1.05 2.3-2.3 0-1.25-1-2.3-2.3-2.3Z"/><path fill="#FF3158" d="M248.55 117.55a3.7 3.7 0 1 0 .001-7.399 3.7 3.7 0 0 0-.001 7.399Z"/><path fill="#222" d="M248.55 118.951c-2.8 0-5.05-2.25-5.05-5.05s2.25-5.05 5.05-5.05 5.05 2.25 5.05 5.05-2.25 5.05-5.05 5.05Zm0-7.4c-1.25 0-2.3 1.05-2.3 2.3 0 1.25 1.05 2.3 2.3 2.3 1.25 0 2.3-1.05 2.3-2.3 0-1.25-1.05-2.3-2.3-2.3Z"/><path fill="#FF3158" d="M262.4 117.501a3.65 3.65 0 1 0 0-7.3 3.65 3.65 0 0 0 0 7.3Z"/><path fill="#222" d="M262.4 118.951c-2.8 0-5.05-2.25-5.05-5.05s2.25-5.05 5.05-5.05 5.05 2.25 5.05 5.05-2.25 5.05-5.05 5.05Zm0-7.4c-1.25 0-2.3 1.05-2.3 2.3 0 1.25 1.05 2.3 2.3 2.3 1.25 0 2.3-1.05 2.3-2.3 0-1.25-1-2.3-2.3-2.3Z"/><path fill="#FF3158" d="M304 228.45a3.65 3.65 0 1 0 0-7.3 3.65 3.65 0 0 0 0 7.3Z"/><path fill="#222" d="M304 229.85c-2.8 0-5.05-2.25-5.05-5.05s2.3-5.05 5.05-5.05 5.05 2.25 5.05 5.05-2.25 5.05-5.05 5.05Zm0-7.35c-1.25 0-2.3 1.05-2.3 2.3 0 1.25 1.05 2.3 2.3 2.3 1.25 0 2.3-1.05 2.3-2.3 0-1.25-1-2.3-2.3-2.3ZM248.55 103c-.75 0-1.4-.6-1.4-1.4V68.95c0-.75.6-1.4 1.4-1.4.8 0 1.4.6 1.4 1.4v32.65c-.05.75-.65 1.4-1.4 1.4Z"/><path fill="#FF3158" d="M248.55 117.55a3.7 3.7 0 1 0 .001-7.399 3.7 3.7 0 0 0-.001 7.399Z"/><path fill="#222" d="M248.55 118.951c-2.8 0-5.05-2.25-5.05-5.05s2.25-5.05 5.05-5.05 5.05 2.25 5.05 5.05-2.25 5.05-5.05 5.05Zm0-7.4c-1.25 0-2.3 1.05-2.3 2.3 0 1.25 1.05 2.3 2.3 2.3 1.25 0 2.3-1.05 2.3-2.3 0-1.25-1.05-2.3-2.3-2.3Z"/><path fill="#FF3158" d="M137.6 186.9a3.7 3.7 0 1 0 0-7.4 3.7 3.7 0 0 0 0 7.4Z"/><path fill="#222" d="M137.6 188.249c-2.8 0-5.05-2.25-5.05-5.05s2.25-5.05 5.05-5.05 5.05 2.25 5.05 5.05-2.25 5.05-5.05 5.05Zm0-7.35c-1.25 0-2.3 1.05-2.3 2.3 0 1.25 1.05 2.3 2.3 2.3 1.25 0 2.3-1.05 2.3-2.3 0-1.25-1.05-2.3-2.3-2.3Z"/><path fill="#FF3158" d="M165.35 145.3a3.7 3.7 0 1 0 .001-7.399 3.7 3.7 0 0 0-.001 7.399Z"/><path fill="#222" d="M165.35 146.65c-2.8 0-5.05-2.25-5.05-5.05s2.25-5.05 5.05-5.05 5.05 2.25 5.05 5.05-2.3 5.05-5.05 5.05Zm0-7.35c-1.25 0-2.3 1.05-2.3 2.3 0 1.25 1.05 2.3 2.3 2.3 1.25 0 2.3-1.05 2.3-2.3 0-1.25-1.05-2.3-2.3-2.3Z"/><path fill="#fff" d="M363.7 213.65h-7.95v71.4h7.95v-71.4Z"/><path fill="#222" d="M363.7 286.4h-7.95c-.75 0-1.4-.6-1.4-1.4v-71.4c0-.75.6-1.4 1.4-1.4h7.95c.75 0 1.4.6 1.4 1.4V285c0 .8-.6 1.4-1.4 1.4Zm-6.55-2.75h5.2V215h-5.2v68.65Z"/><path fill="#fff" d="M42.5 233.85h-7.95v51.2h7.95v-51.2Z"/><path fill="#222" d="M42.5 286.4h-7.95c-.75 0-1.4-.6-1.4-1.4v-51.15c0-.75.6-1.4 1.4-1.4h7.95c.75 0 1.4.6 1.4 1.4v51.2c0 .75-.6 1.35-1.4 1.35Zm-6.55-2.75h5.2V235.2h-5.2v48.45Z"/><path fill="#DADADA" d="M107.3 300.45H71.6v7.95h35.7v-7.95ZM107.3 61.6H71.6v7.95h35.7V61.6ZM257.55 300.45h-35.7v7.95h35.7v-7.95ZM339.1 300.45h-35.7v7.95h35.7v-7.95ZM46.7 88.55h-7.95V190.4h7.95V88.55ZM326.1 61.5h-45v7.95h45V61.5ZM223.7 61.6h-61.55v7.95h61.55V61.6ZM367.6 210.15h-7.95v71.4h7.95v-71.4ZM46.4 230.35h-7.95v51.2h7.95v-51.2ZM367.6 88.55h-7.95v71.4h7.95v-71.4Z"/><path fill="#222" d="M103.4 74.45H67.7c-.75 0-1.4-.6-1.4-1.4V65.1c0-.75.6-1.4 1.4-1.4h35.7c.75 0 1.4.6 1.4 1.4v7.95c0 .75-.6 1.4-1.4 1.4Zm-34.3-2.8h32.95v-5.2H69.1v5.2ZM253.65 313.3h-35.7c-.75 0-1.4-.6-1.4-1.4v-7.95c0-.75.6-1.4 1.4-1.4h35.7c.75 0 1.4.6 1.4 1.4v7.95c0 .8-.65 1.4-1.4 1.4Zm-1.4-2.75v-5.2H219.3v5.2M335.25 313.3h-35.7c-.75 0-1.4-.6-1.4-1.4v-7.95c0-.75.6-1.4 1.4-1.4h35.7c.75 0 1.4.6 1.4 1.4v7.95c-.05.8-.65 1.4-1.4 1.4Zm-34.35-7.95v5.2h32.95v-5.2M363.7 164.799h-7.95c-.75 0-1.4-.6-1.4-1.4v-71.35c0-.75.6-1.4 1.4-1.4h7.95c.75 0 1.4.6 1.4 1.4v71.4c0 .75-.6 1.35-1.4 1.35Zm-6.55-2.75h5.2v-68.65h-5.2v68.65ZM42.8 195.249h-7.95c-.75 0-1.4-.6-1.4-1.4v-101.8c0-.75.6-1.4 1.4-1.4h7.95c.75 0 1.4.6 1.4 1.4V193.9c0 .75-.6 1.35-1.4 1.35Zm-6.55-2.75h5.2v-99.1h-5.2v99.1ZM322.2 74.3h-45c-.75 0-1.4-.6-1.4-1.4v-7.95c0-.75.6-1.4 1.4-1.4h45c.75 0 1.4.6 1.4 1.4v7.95c-.05.8-.65 1.4-1.4 1.4Zm-43.65-2.75h42.25v-5.2h-42.25v5.2ZM219.8 74.45h-61.55c-.75 0-1.4-.6-1.4-1.4V65.1c0-.75.6-1.4 1.4-1.4h61.55c.75 0 1.4.6 1.4 1.4v7.95c-.05.75-.65 1.4-1.4 1.4Zm-60.2-2.8h58.8v-5.2h-58.8v5.2ZM363.7 286.4h-7.95c-.75 0-1.4-.6-1.4-1.4v-71.4c0-.75.6-1.4 1.4-1.4h7.95c.75 0 1.4.6 1.4 1.4V285c0 .8-.6 1.4-1.4 1.4Zm-6.55-2.75h5.2V215h-5.2v68.65ZM103.4 313.3H67.7c-.75 0-1.4-.6-1.4-1.4v-7.95c0-.75.6-1.4 1.4-1.4h35.7c.75 0 1.4.6 1.4 1.4v7.95c0 .8-.6 1.4-1.4 1.4Zm-34.3-2.75h32.95v-5.2H69.1v5.2ZM42.5 286.4h-7.95c-.75 0-1.4-.6-1.4-1.4v-51.15c0-.75.6-1.4 1.4-1.4h7.95c.75 0 1.4.6 1.4 1.4v51.2c0 .75-.6 1.35-1.4 1.35Zm-6.55-2.75h5.2V235.2h-5.2v48.45Z"/></svg>