<svg xmlns="http://www.w3.org/2000/svg" width="400" height="401" fill="none" viewBox="0 0 400 401"><path fill="#fff" d="M359.69 68.95H38.835v239.154H359.69V68.949Z"/><path fill="#FF3158" d="M165.329 339.424a3.675 3.675 0 1 0 0-7.35 3.675 3.675 0 0 0 0 7.35Z"/><path fill="#222" d="M165.33 340.809c-2.79 0-5.06-2.27-5.06-5.06 0-2.79 2.27-5.06 5.06-5.06 2.79 0 5.06 2.27 5.06 5.06 0 2.79-2.27 5.06-5.06 5.06Zm0-7.355a2.298 2.298 0 0 0-2.295 2.295 2.298 2.298 0 0 0 2.295 2.295 2.298 2.298 0 0 0 2.295-2.295 2.298 2.298 0 0 0-2.295-2.295ZM192.685 309.485a1.38 1.38 0 0 1-1.38-1.385v-56.995c0-.765.62-1.385 1.38-1.385.76 0 1.38.62 1.38 1.385V308.1c0 .765-.62 1.385-1.38 1.385Z"/><path fill="#222" d="M359.69 309.484H177.265a1.38 1.38 0 0 1-1.38-1.385c0-.765.62-1.385 1.38-1.385h181.04V70.334H40.22v236.39h111.705c.765 0 1.38.62 1.38 1.385s-.62 1.385-1.38 1.385H38.835a1.38 1.38 0 0 1-1.38-1.385V68.949c0-.764.62-1.385 1.38-1.385H359.69c.765 0 1.38.62 1.38 1.386v239.154c0 .765-.62 1.385-1.38 1.385v-.005Z"/><path fill="#222" d="M137.595 309.485a1.38 1.38 0 0 1-1.38-1.385v-56.995c0-.765.62-1.385 1.38-1.385.76 0 1.38.62 1.38 1.385V308.1c0 .765-.62 1.385-1.38 1.385ZM137.595 173.169a1.38 1.38 0 0 1-1.38-1.385V68.959c0-.765.62-1.385 1.38-1.385.76 0 1.38.62 1.38 1.385v102.825c0 .765-.62 1.385-1.38 1.385ZM137.595 228.084a1.38 1.38 0 0 1-1.38-1.385v-32.96c0-.765.62-1.385 1.38-1.385.76 0 1.38.62 1.38 1.385v32.96c0 .765-.62 1.385-1.38 1.385Z"/><path fill="#222" d="M136.505 212.2h-42.18a1.38 1.38 0 0 1-1.38-1.385c0-.765.62-1.385 1.38-1.385h42.18c.765 0 1.38.62 1.38 1.385s-.62 1.385-1.38 1.385ZM69.815 212.2h-30.98a1.38 1.38 0 0 1-1.38-1.385c0-.765.62-1.385 1.38-1.385h30.98c.765 0 1.38.62 1.38 1.385s-.62 1.385-1.38 1.385ZM153.075 142.979H137.59a1.38 1.38 0 0 1-1.38-1.385c0-.765.62-1.385 1.38-1.385h15.485c.765 0 1.38.62 1.38 1.385s-.62 1.385-1.38 1.385Z"/><path fill="#fff" d="M103.42 303.949H67.715v7.96h35.705v-7.96Z"/><path fill="#222" d="M103.42 313.29H67.715a1.38 1.38 0 0 1-1.38-1.385v-7.96c0-.765.62-1.385 1.38-1.385h35.705c.765 0 1.38.62 1.38 1.385v7.96c0 .765-.62 1.385-1.38 1.385Zm-34.325-2.765h32.94v-5.195h-32.94v5.195Z"/><path fill="#fff" d="M103.42 65.08H67.715v7.96h35.705v-7.96Z"/><path fill="#222" d="M103.42 74.42H67.715a1.38 1.38 0 0 1-1.38-1.386v-7.96c0-.764.62-1.384 1.38-1.384h35.705c.765 0 1.38.62 1.38 1.385v7.96c0 .764-.62 1.385-1.38 1.385Zm-34.325-2.766h32.94V66.46h-32.94v5.195Z"/><path fill="#fff" d="M253.655 303.949H217.95v7.96h35.705v-7.96Z"/><path fill="#222" d="M253.655 313.29H217.95a1.38 1.38 0 0 1-1.38-1.385v-7.96c0-.765.62-1.385 1.38-1.385h35.705c.765 0 1.38.62 1.38 1.385v7.96c0 .765-.62 1.385-1.38 1.385Zm-34.325-2.765h32.94v-5.195h-32.94v5.195Z"/><path fill="#fff" d="M335.229 303.949h-35.705v7.96h35.705v-7.96Z"/><path fill="#222" d="M335.23 313.29h-35.705a1.38 1.38 0 0 1-1.38-1.385v-7.96c0-.765.62-1.385 1.38-1.385h35.705c.765 0 1.38.62 1.38 1.385v7.96c0 .765-.62 1.385-1.38 1.385Zm-34.325-2.765h32.94v-5.195h-32.94v5.195Z"/><path fill="#fff" d="M355.755 92.019v71.415h7.96V92.019h-7.96Z"/><path fill="#222" d="M363.715 164.819h-7.96a1.38 1.38 0 0 1-1.38-1.385V92.019c0-.765.62-1.385 1.38-1.385h7.96c.765 0 1.38.62 1.38 1.385v71.415c0 .765-.62 1.385-1.38 1.385Zm-6.575-2.765h5.195v-68.65h-5.195v68.65Z"/><path fill="#fff" d="M42.815 193.874V92.019h-7.96v101.855h7.96Z"/><path fill="#222" d="M42.815 195.259h-7.96a1.38 1.38 0 0 1-1.38-1.385V92.019c0-.765.62-1.385 1.38-1.385h7.96c.765 0 1.38.62 1.38 1.385v101.855c0 .765-.62 1.385-1.38 1.385Zm-6.575-2.765h5.195v-99.09H36.24v99.09Z"/><path fill="#fff" d="M322.19 64.969h-45.015v7.96h45.015v-7.96Z"/><path fill="#222" d="M322.19 74.31h-45.015a1.38 1.38 0 0 1-1.38-1.386v-7.96c0-.765.62-1.385 1.38-1.385h45.015c.765 0 1.38.62 1.38 1.385v7.96c0 .765-.62 1.385-1.38 1.385Zm-43.635-2.766h42.25V66.35h-42.25v5.195Z"/><path fill="#fff" d="M219.78 65.08h-61.54v7.96h61.54v-7.96Z"/><path fill="#222" d="M219.785 74.42h-61.54a1.38 1.38 0 0 1-1.38-1.386v-7.96c0-.764.62-1.384 1.38-1.384h61.54c.765 0 1.38.62 1.38 1.385v7.96c0 .764-.62 1.385-1.38 1.385Zm-60.16-2.766h58.78V66.46h-58.78v5.195ZM248.54 212.199h-55.855a1.38 1.38 0 0 1-1.38-1.385v-67.84h-13.72a1.38 1.38 0 0 1-1.38-1.385c0-.765.62-1.385 1.38-1.385h15.105c.765 0 1.38.62 1.38 1.385v67.84h53.09v-83.315c0-.765.62-1.385 1.38-1.385.76 0 1.38.62 1.38 1.385v84.705c0 .765-.62 1.385-1.38 1.385v-.005Z"/><path fill="#FF3158" d="M165.329 297.821a3.675 3.675 0 1 0 0-7.35 3.675 3.675 0 0 0 0 7.35Z"/><path fill="#222" d="M165.33 299.205c-2.79 0-5.06-2.27-5.06-5.06 0-2.79 2.27-5.06 5.06-5.06 2.79 0 5.06 2.27 5.06 5.06 0 2.79-2.27 5.06-5.06 5.06Zm0-7.355a2.298 2.298 0 0 0-2.295 2.295 2.298 2.298 0 0 0 2.295 2.295 2.298 2.298 0 0 0 2.295-2.295 2.298 2.298 0 0 0-2.295-2.295Z"/><path fill="#FF3158" d="M165.329 311.69a3.675 3.675 0 1 0 0-7.35 3.675 3.675 0 0 0 0 7.35Z"/><path fill="#222" d="M165.33 313.074c-2.79 0-5.06-2.27-5.06-5.06 0-2.79 2.27-5.06 5.06-5.06 2.79 0 5.06 2.27 5.06 5.06 0 2.79-2.27 5.06-5.06 5.06Zm0-7.355a2.298 2.298 0 0 0-2.295 2.295 2.298 2.298 0 0 0 2.295 2.295 2.298 2.298 0 0 0 2.295-2.295 2.298 2.298 0 0 0-2.295-2.295Z"/><path fill="#FF3158" d="M165.329 325.561a3.675 3.675 0 1 0 0-7.35 3.675 3.675 0 0 0 0 7.35Z"/><path fill="#222" d="M165.33 326.945c-2.79 0-5.06-2.27-5.06-5.06 0-2.79 2.27-5.06 5.06-5.06 2.79 0 5.06 2.27 5.06 5.06 0 2.79-2.27 5.06-5.06 5.06Zm0-7.355a2.298 2.298 0 0 0-2.295 2.295 2.298 2.298 0 0 0 2.295 2.295 2.298 2.298 0 0 0 2.295-2.295 2.298 2.298 0 0 0-2.295-2.295Z"/><path fill="#FF3158" d="m165.331 273.134 8.085 10.82h7.77l-15.855-21.22-15.86 21.22h7.77l8.09-10.82Z"/><path fill="#222" d="M181.186 285.34h-7.77c-.435 0-.845-.205-1.105-.555l-6.98-9.34-6.98 9.34c-.26.35-.67.555-1.105.555h-7.77c-.525 0-1-.296-1.235-.766a1.371 1.371 0 0 1 .13-1.444l15.86-21.22a1.377 1.377 0 0 1 2.21 0l15.86 21.22c.315.42.365.979.13 1.444-.235.465-.71.766-1.235.766h-.01Zm-7.08-2.766h4.32l-13.1-17.53-13.1 17.53h4.32l7.67-10.264a1.376 1.376 0 0 1 2.21 0l7.67 10.264h.01Z"/><path fill="#FF3158" d="M165.329 256.214a3.675 3.675 0 1 0 0-7.35 3.675 3.675 0 0 0 0 7.35Z"/><path fill="#222" d="M165.33 257.6a5.067 5.067 0 0 1-5.06-5.061c0-2.79 2.27-5.06 5.06-5.06 2.79 0 5.06 2.27 5.06 5.06 0 2.79-2.27 5.061-5.06 5.061Zm0-7.356a2.298 2.298 0 0 0-2.295 2.295 2.298 2.298 0 0 0 2.295 2.295 2.298 2.298 0 0 0 2.295-2.295 2.298 2.298 0 0 0-2.295-2.295Z"/><path fill="#FF3158" d="M137.595 186.874a3.675 3.675 0 1 0 0-7.35 3.675 3.675 0 0 0 0 7.35Z"/><path fill="#222" d="M137.595 188.26c-2.79 0-5.06-2.27-5.06-5.06 0-2.79 2.27-5.06 5.06-5.06 2.79 0 5.06 2.27 5.06 5.06 0 2.79-2.27 5.06-5.06 5.06Zm0-7.355a2.298 2.298 0 0 0-2.295 2.295 2.298 2.298 0 0 0 2.295 2.295 2.298 2.298 0 0 0 2.295-2.295 2.298 2.298 0 0 0-2.295-2.295Z"/><path fill="#FF3158" d="M123.725 186.874a3.675 3.675 0 1 0 0-7.35 3.675 3.675 0 0 0 0 7.35Z"/><path fill="#222" d="M123.725 188.26c-2.79 0-5.06-2.27-5.06-5.06 0-2.79 2.27-5.06 5.06-5.06 2.79 0 5.06 2.27 5.06 5.06 0 2.79-2.27 5.06-5.06 5.06Zm0-7.355a2.298 2.298 0 0 0-2.295 2.295 2.298 2.298 0 0 0 2.295 2.295 2.298 2.298 0 0 0 2.295-2.295 2.298 2.298 0 0 0-2.295-2.295Z"/><path fill="#FF3158" d="M165.329 186.874a3.675 3.675 0 1 0 0-7.35 3.675 3.675 0 0 0 0 7.35Z"/><path fill="#222" d="M165.33 188.26c-2.79 0-5.06-2.27-5.06-5.06 0-2.79 2.27-5.06 5.06-5.06 2.79 0 5.06 2.27 5.06 5.06 0 2.79-2.27 5.06-5.06 5.06Zm0-7.355a2.298 2.298 0 0 0-2.295 2.295 2.298 2.298 0 0 0 2.295 2.295 2.298 2.298 0 0 0 2.295-2.295 2.298 2.298 0 0 0-2.295-2.295Z"/><path fill="#FF3158" d="M151.46 186.874a3.675 3.675 0 1 0 0-7.35 3.675 3.675 0 0 0 0 7.35Z"/><path fill="#222" d="M151.46 188.26c-2.79 0-5.06-2.27-5.06-5.06 0-2.79 2.27-5.06 5.06-5.06 2.79 0 5.06 2.27 5.06 5.06 0 2.79-2.27 5.06-5.06 5.06Zm0-7.355a2.298 2.298 0 0 0-2.295 2.295 2.298 2.298 0 0 0 2.295 2.295 2.298 2.298 0 0 0 2.295-2.295 2.298 2.298 0 0 0-2.295-2.295Z"/><path fill="#FF3158" d="M137.595 186.874a3.675 3.675 0 1 0 0-7.35 3.675 3.675 0 0 0 0 7.35Z"/><path fill="#222" d="M137.595 188.26c-2.79 0-5.06-2.27-5.06-5.06 0-2.79 2.27-5.06 5.06-5.06 2.79 0 5.06 2.27 5.06 5.06 0 2.79-2.27 5.06-5.06 5.06Zm0-7.355a2.298 2.298 0 0 0-2.295 2.295 2.298 2.298 0 0 0 2.295 2.295 2.298 2.298 0 0 0 2.295-2.295 2.298 2.298 0 0 0-2.295-2.295Z"/><path fill="#FF3158" d="M304.01 200.745a3.675 3.675 0 1 0 0-7.35 3.675 3.675 0 0 0 0 7.35Z"/><path fill="#222" d="M304.015 202.125c-2.79 0-5.06-2.27-5.06-5.06 0-2.79 2.27-5.06 5.06-5.06 2.79 0 5.06 2.27 5.06 5.06 0 2.79-2.27 5.06-5.06 5.06Zm0-7.355a2.298 2.298 0 0 0-2.295 2.295 2.298 2.298 0 0 0 2.295 2.295 2.298 2.298 0 0 0 2.295-2.295 2.298 2.298 0 0 0-2.295-2.295Z"/><path fill="#FF3158" d="M304.01 214.609a3.675 3.675 0 1 0 0-7.35 3.675 3.675 0 0 0 0 7.35Z"/><path fill="#222" d="M304.015 215.994c-2.79 0-5.06-2.27-5.06-5.06 0-2.79 2.27-5.06 5.06-5.06 2.79 0 5.06 2.27 5.06 5.06 0 2.79-2.27 5.06-5.06 5.06Zm0-7.355a2.298 2.298 0 0 0-2.295 2.295 2.298 2.298 0 0 0 2.295 2.295 2.298 2.298 0 0 0 2.295-2.295 2.298 2.298 0 0 0-2.295-2.295Z"/><path fill="#FF3158" d="m304.01 176.474-8.085-10.82h-7.77l15.855 21.22 15.86-21.22h-7.77l-8.09 10.82Z"/><path fill="#222" d="M304.015 188.259c-.435 0-.845-.205-1.105-.555l-15.86-21.22a1.375 1.375 0 0 1-.13-1.445c.235-.465.71-.765 1.235-.765h7.77c.435 0 .845.205 1.105.555l6.98 9.34 6.98-9.34c.26-.35.67-.555 1.105-.555h7.77c.525 0 1 .295 1.235.765.235.47.185 1.03-.13 1.445l-15.86 21.22c-.26.35-.67.555-1.105.555h.01Zm-13.1-21.22 13.1 17.53 13.1-17.53h-4.32l-7.67 10.265a1.376 1.376 0 0 1-2.21 0l-7.67-10.265h-4.33Z"/><path fill="#FF3158" d="M304.01 159.139a3.675 3.675 0 1 0 0-7.35 3.675 3.675 0 0 0 0 7.35Z"/><path fill="#222" d="M304.015 160.519c-2.79 0-5.06-2.27-5.06-5.06 0-2.79 2.27-5.06 5.06-5.06 2.79 0 5.06 2.27 5.06 5.06 0 2.79-2.27 5.06-5.06 5.06Zm0-7.355a2.298 2.298 0 0 0-2.295 2.295 2.298 2.298 0 0 0 2.295 2.295 2.298 2.298 0 0 0 2.295-2.295 2.298 2.298 0 0 0-2.295-2.295Z"/><path fill="#FF3158" d="M304.01 145.27a3.675 3.675 0 1 0 0-7.35 3.675 3.675 0 0 0 0 7.35Z"/><path fill="#222" d="M304.015 146.654c-2.79 0-5.06-2.27-5.06-5.06 0-2.79 2.27-5.06 5.06-5.06 2.79 0 5.06 2.27 5.06 5.06 0 2.79-2.27 5.06-5.06 5.06Zm0-7.355a2.298 2.298 0 0 0-2.295 2.295 2.298 2.298 0 0 0 2.295 2.295 2.298 2.298 0 0 0 2.295-2.295 2.298 2.298 0 0 0-2.295-2.295Z"/><path fill="#FF3158" d="M165.329 117.535a3.675 3.675 0 1 0 0-7.35 3.675 3.675 0 0 0 0 7.35Z"/><path fill="#222" d="M165.33 118.92c-2.79 0-5.06-2.27-5.06-5.06 0-2.79 2.27-5.06 5.06-5.06 2.79 0 5.06 2.27 5.06 5.06 0 2.79-2.27 5.06-5.06 5.06Zm0-7.355a2.298 2.298 0 0 0-2.295 2.295 2.298 2.298 0 0 0 2.295 2.295 2.298 2.298 0 0 0 2.295-2.295 2.298 2.298 0 0 0-2.295-2.295Z"/><path fill="#FF3158" d="M165.329 131.4a3.675 3.675 0 1 0 0-7.35 3.675 3.675 0 0 0 0 7.35Z"/><path fill="#222" d="M165.33 132.785c-2.79 0-5.06-2.27-5.06-5.06 0-2.79 2.27-5.06 5.06-5.06 2.79 0 5.06 2.27 5.06 5.06 0 2.79-2.27 5.06-5.06 5.06Zm0-7.355a2.298 2.298 0 0 0-2.295 2.295 2.298 2.298 0 0 0 2.295 2.295 2.298 2.298 0 0 0 2.295-2.295 2.298 2.298 0 0 0-2.295-2.295Z"/><path fill="#FF3158" d="M165.329 159.139a3.675 3.675 0 1 0 0-7.35 3.675 3.675 0 0 0 0 7.35Z"/><path fill="#222" d="M165.33 160.519c-2.79 0-5.06-2.27-5.06-5.06 0-2.79 2.27-5.06 5.06-5.06 2.79 0 5.06 2.27 5.06 5.06 0 2.79-2.27 5.06-5.06 5.06Zm0-7.355a2.298 2.298 0 0 0-2.295 2.295 2.298 2.298 0 0 0 2.295 2.295 2.298 2.298 0 0 0 2.295-2.295 2.298 2.298 0 0 0-2.295-2.295Z"/><path fill="#FF3158" d="M165.329 173.004a3.675 3.675 0 1 0 0-7.35 3.675 3.675 0 0 0 0 7.35Z"/><path fill="#222" d="M165.33 174.39c-2.79 0-5.06-2.27-5.06-5.06 0-2.79 2.27-5.06 5.06-5.06 2.79 0 5.06 2.27 5.06 5.06 0 2.79-2.27 5.06-5.06 5.06Zm0-7.355a2.298 2.298 0 0 0-2.295 2.295 2.298 2.298 0 0 0 2.295 2.295 2.298 2.298 0 0 0 2.295-2.295 2.298 2.298 0 0 0-2.295-2.295Z"/><path fill="#FF3158" d="M220.799 117.535a3.675 3.675 0 1 0 0-7.35 3.675 3.675 0 0 0 0 7.35Z"/><path fill="#222" d="M220.804 118.92c-2.79 0-5.06-2.27-5.06-5.06 0-2.79 2.27-5.06 5.06-5.06 2.79 0 5.06 2.27 5.06 5.06 0 2.79-2.27 5.06-5.06 5.06Zm0-7.355a2.298 2.298 0 0 0-2.295 2.295 2.298 2.298 0 0 0 2.295 2.295 2.298 2.298 0 0 0 2.295-2.295 2.298 2.298 0 0 0-2.295-2.295Z"/><path fill="#FF3158" d="m200.21 113.86-10.82 8.085v7.77l21.22-15.855L189.39 98v7.77l10.82 8.09Z"/><path fill="#222" d="M189.39 131.1a1.383 1.383 0 0 1-1.385-1.38v-7.77c0-.435.205-.845.555-1.105l9.34-6.98-9.34-6.98c-.35-.26-.555-.67-.555-1.105v-7.77c0-.525.295-1 .765-1.235a1.375 1.375 0 0 1 1.445.13l21.22 15.86a1.376 1.376 0 0 1 0 2.21l-21.22 15.86a1.4 1.4 0 0 1-.83.275l.005-.01Zm1.38-8.46v4.32l17.53-13.1-17.53-13.1v4.32l10.27 7.675a1.376 1.376 0 0 1 0 2.21l-10.27 7.67v.005Z"/><path fill="#FF3158" d="M179.199 117.535a3.675 3.675 0 1 0 0-7.35 3.675 3.675 0 0 0 0 7.35Z"/><path fill="#222" d="M179.2 118.92c-2.79 0-5.06-2.27-5.06-5.06 0-2.79 2.27-5.06 5.06-5.06 2.79 0 5.06 2.27 5.06 5.06 0 2.79-2.27 5.06-5.06 5.06Zm0-7.355a2.298 2.298 0 0 0-2.295 2.295 2.298 2.298 0 0 0 2.295 2.295 2.298 2.298 0 0 0 2.295-2.295 2.298 2.298 0 0 0-2.295-2.295Z"/><path fill="#FF3158" d="M304.01 131.4a3.675 3.675 0 1 0 0-7.35 3.675 3.675 0 0 0 0 7.35Z"/><path fill="#222" d="M304.015 132.785c-2.79 0-5.06-2.27-5.06-5.06 0-2.79 2.27-5.06 5.06-5.06 2.79 0 5.06 2.27 5.06 5.06 0 2.79-2.27 5.06-5.06 5.06Zm0-7.355a2.298 2.298 0 0 0-2.295 2.295 2.298 2.298 0 0 0 2.295 2.295 2.298 2.298 0 0 0 2.295-2.295 2.298 2.298 0 0 0-2.295-2.295Z"/><path fill="#FF3158" d="M276.275 117.535a3.676 3.676 0 1 0-.002-7.352 3.676 3.676 0 0 0 .002 7.352Z"/><path fill="#222" d="M276.275 118.92c-2.79 0-5.06-2.27-5.06-5.06 0-2.79 2.27-5.06 5.06-5.06 2.79 0 5.06 2.27 5.06 5.06 0 2.79-2.27 5.06-5.06 5.06Zm0-7.355a2.298 2.298 0 0 0-2.295 2.295 2.298 2.298 0 0 0 2.295 2.295 2.298 2.298 0 0 0 2.295-2.295 2.298 2.298 0 0 0-2.295-2.295Z"/><path fill="#FF3158" d="M290.145 117.535a3.676 3.676 0 1 0-.002-7.352 3.676 3.676 0 0 0 .002 7.352Z"/><path fill="#222" d="M290.145 118.92c-2.79 0-5.06-2.27-5.06-5.06 0-2.79 2.27-5.06 5.06-5.06 2.79 0 5.06 2.27 5.06 5.06 0 2.79-2.27 5.06-5.06 5.06Zm0-7.355a2.298 2.298 0 0 0-2.295 2.295 2.298 2.298 0 0 0 2.295 2.295 2.298 2.298 0 0 0 2.295-2.295 2.298 2.298 0 0 0-2.295-2.295Z"/><path fill="#FF3158" d="M304.01 117.535a3.675 3.675 0 1 0 0-7.35 3.675 3.675 0 0 0 0 7.35Z"/><path fill="#222" d="M304.015 118.92c-2.79 0-5.06-2.27-5.06-5.06 0-2.79 2.27-5.06 5.06-5.06 2.79 0 5.06 2.27 5.06 5.06 0 2.79-2.27 5.06-5.06 5.06Zm0-7.355a2.298 2.298 0 0 0-2.295 2.295 2.298 2.298 0 0 0 2.295 2.295 2.298 2.298 0 0 0 2.295-2.295 2.298 2.298 0 0 0-2.295-2.295Z"/><path fill="#FF3158" d="M82.12 200.745a3.675 3.675 0 1 0-.001-7.35 3.675 3.675 0 0 0 0 7.35Z"/><path fill="#222" d="M82.12 202.125c-2.79 0-5.06-2.27-5.06-5.06 0-2.79 2.27-5.06 5.06-5.06 2.79 0 5.06 2.27 5.06 5.06 0 2.79-2.27 5.06-5.06 5.06Zm0-7.355a2.298 2.298 0 0 0-2.295 2.295 2.298 2.298 0 0 0 2.295 2.295 2.298 2.298 0 0 0 2.295-2.295 2.298 2.298 0 0 0-2.295-2.295Z"/><path fill="#FF3158" d="M109.855 186.874a3.675 3.675 0 1 0 0-7.35 3.675 3.675 0 0 0 0 7.35Z"/><path fill="#222" d="M109.855 188.26c-2.79 0-5.06-2.27-5.06-5.06 0-2.79 2.27-5.06 5.06-5.06 2.79 0 5.06 2.27 5.06 5.06 0 2.79-2.27 5.06-5.06 5.06Zm0-7.355a2.298 2.298 0 0 0-2.295 2.295 2.298 2.298 0 0 0 2.295 2.295 2.298 2.298 0 0 0 2.295-2.295 2.298 2.298 0 0 0-2.295-2.295Z"/><path fill="#FF3158" d="M95.99 186.874a3.675 3.675 0 1 0 0-7.35 3.675 3.675 0 0 0 0 7.35Z"/><path fill="#222" d="M95.99 188.26c-2.79 0-5.06-2.27-5.06-5.06 0-2.79 2.27-5.06 5.06-5.06 2.79 0 5.06 2.27 5.06 5.06 0 2.79-2.27 5.06-5.06 5.06Zm0-7.355a2.298 2.298 0 0 0-2.295 2.295 2.298 2.298 0 0 0 2.295 2.295 2.298 2.298 0 0 0 2.295-2.295 2.298 2.298 0 0 0-2.295-2.295Z"/><path fill="#FF3158" d="M82.12 186.874a3.675 3.675 0 1 0 0-7.35 3.675 3.675 0 0 0 0 7.35Z"/><path fill="#222" d="M82.12 188.26c-2.79 0-5.06-2.27-5.06-5.06 0-2.79 2.27-5.06 5.06-5.06 2.79 0 5.06 2.27 5.06 5.06 0 2.79-2.27 5.06-5.06 5.06Zm0-7.355a2.298 2.298 0 0 0-2.295 2.295 2.298 2.298 0 0 0 2.295 2.295 2.298 2.298 0 0 0 2.295-2.295 2.298 2.298 0 0 0-2.295-2.295Z"/><path fill="#FF3158" d="M165.329 242.35a3.675 3.675 0 1 0 0-7.35 3.675 3.675 0 0 0 0 7.35Z"/><path fill="#222" d="M165.33 243.729c-2.79 0-5.06-2.27-5.06-5.06 0-2.79 2.27-5.06 5.06-5.06 2.79 0 5.06 2.27 5.06 5.06 0 2.79-2.27 5.06-5.06 5.06Zm0-7.355a2.298 2.298 0 0 0-2.295 2.295 2.298 2.298 0 0 0 2.295 2.295 2.298 2.298 0 0 0 2.295-2.295 2.298 2.298 0 0 0-2.295-2.295Z"/><path fill="#FF3158" d="M123.725 242.35a3.675 3.675 0 1 0 0-7.35 3.675 3.675 0 0 0 0 7.35Z"/><path fill="#222" d="M123.725 243.729c-2.79 0-5.06-2.27-5.06-5.06 0-2.79 2.27-5.06 5.06-5.06 2.79 0 5.06 2.27 5.06 5.06 0 2.79-2.27 5.06-5.06 5.06Zm0-7.355a2.298 2.298 0 0 0-2.295 2.295 2.298 2.298 0 0 0 2.295 2.295 2.298 2.298 0 0 0 2.295-2.295 2.298 2.298 0 0 0-2.295-2.295Z"/><path fill="#FF3158" d="M151.46 242.35a3.675 3.675 0 1 0 0-7.35 3.675 3.675 0 0 0 0 7.35Z"/><path fill="#222" d="M151.46 243.729c-2.79 0-5.06-2.27-5.06-5.06 0-2.79 2.27-5.06 5.06-5.06 2.79 0 5.06 2.27 5.06 5.06 0 2.79-2.27 5.06-5.06 5.06Zm0-7.355a2.298 2.298 0 0 0-2.295 2.295 2.298 2.298 0 0 0 2.295 2.295 2.298 2.298 0 0 0 2.295-2.295 2.298 2.298 0 0 0-2.295-2.295Z"/><path fill="#FF3158" d="M137.595 242.35a3.675 3.675 0 1 0 0-7.35 3.675 3.675 0 0 0 0 7.35Z"/><path fill="#222" d="M137.595 243.729c-2.79 0-5.06-2.27-5.06-5.06 0-2.79 2.27-5.06 5.06-5.06 2.79 0 5.06 2.27 5.06 5.06 0 2.79-2.27 5.06-5.06 5.06Zm0-7.355a2.298 2.298 0 0 0-2.295 2.295 2.298 2.298 0 0 0 2.295 2.295 2.298 2.298 0 0 0 2.295-2.295 2.298 2.298 0 0 0-2.295-2.295Z"/><path fill="#FF3158" d="M109.855 242.35a3.675 3.675 0 1 0 0-7.35 3.675 3.675 0 0 0 0 7.35Z"/><path fill="#222" d="M109.855 243.729c-2.79 0-5.06-2.27-5.06-5.06 0-2.79 2.27-5.06 5.06-5.06 2.79 0 5.06 2.27 5.06 5.06 0 2.79-2.27 5.06-5.06 5.06Zm0-7.355a2.298 2.298 0 0 0-2.295 2.295 2.298 2.298 0 0 0 2.295 2.295 2.298 2.298 0 0 0 2.295-2.295 2.298 2.298 0 0 0-2.295-2.295Z"/><path fill="#FF3158" d="M95.99 242.35a3.675 3.675 0 1 0 0-7.35 3.675 3.675 0 0 0 0 7.35Z"/><path fill="#222" d="M95.99 243.729c-2.79 0-5.06-2.27-5.06-5.06 0-2.79 2.27-5.06 5.06-5.06 2.79 0 5.06 2.27 5.06 5.06 0 2.79-2.27 5.06-5.06 5.06Zm0-7.355a2.298 2.298 0 0 0-2.295 2.295 2.298 2.298 0 0 0 2.295 2.295 2.298 2.298 0 0 0 2.295-2.295 2.298 2.298 0 0 0-2.295-2.295Z"/><path fill="#FF3158" d="M82.12 242.35a3.675 3.675 0 1 0 0-7.35 3.675 3.675 0 0 0 0 7.35Z"/><path fill="#222" d="M82.12 243.729c-2.79 0-5.06-2.27-5.06-5.06 0-2.79 2.27-5.06 5.06-5.06 2.79 0 5.06 2.27 5.06 5.06 0 2.79-2.27 5.06-5.06 5.06Zm0-7.355a2.298 2.298 0 0 0-2.295 2.295 2.298 2.298 0 0 0 2.295 2.295 2.298 2.298 0 0 0 2.295-2.295 2.298 2.298 0 0 0-2.295-2.295Z"/><path fill="#FF3158" d="M304.01 242.35a3.675 3.675 0 1 0 0-7.35 3.675 3.675 0 0 0 0 7.35Z"/><path fill="#222" d="M304.015 243.729c-2.79 0-5.06-2.27-5.06-5.06 0-2.79 2.27-5.06 5.06-5.06 2.79 0 5.06 2.27 5.06 5.06 0 2.79-2.27 5.06-5.06 5.06Zm0-7.355a2.298 2.298 0 0 0-2.295 2.295 2.298 2.298 0 0 0 2.295 2.295 2.298 2.298 0 0 0 2.295-2.295 2.298 2.298 0 0 0-2.295-2.295Z"/><path fill="#FF3158" d="M82.12 214.609a3.675 3.675 0 1 0-.001-7.35 3.675 3.675 0 0 0 0 7.35Z"/><path fill="#222" d="M82.12 215.994c-2.79 0-5.06-2.27-5.06-5.06 0-2.79 2.27-5.06 5.06-5.06 2.79 0 5.06 2.27 5.06 5.06 0 2.79-2.27 5.06-5.06 5.06Zm0-7.355a2.298 2.298 0 0 0-2.295 2.295 2.298 2.298 0 0 0 2.295 2.295 2.298 2.298 0 0 0 2.295-2.295 2.298 2.298 0 0 0-2.295-2.295Z"/><path fill="#FF3158" d="M82.12 228.48a3.675 3.675 0 1 0 0-7.35 3.675 3.675 0 0 0 0 7.35Z"/><path fill="#222" d="M82.12 229.865c-2.79 0-5.06-2.27-5.06-5.06 0-2.79 2.27-5.06 5.06-5.06 2.79 0 5.06 2.27 5.06 5.06 0 2.79-2.27 5.06-5.06 5.06Zm0-7.355a2.298 2.298 0 0 0-2.295 2.295 2.298 2.298 0 0 0 2.295 2.295 2.298 2.298 0 0 0 2.295-2.295 2.298 2.298 0 0 0-2.295-2.295Z"/><path fill="#FF3158" d="M234.669 117.535a3.675 3.675 0 1 0 0-7.35 3.675 3.675 0 0 0 0 7.35Z"/><path fill="#222" d="M234.669 118.92c-2.79 0-5.06-2.27-5.06-5.06 0-2.79 2.27-5.06 5.06-5.06 2.79 0 5.06 2.27 5.06 5.06 0 2.79-2.27 5.06-5.06 5.06Zm0-7.355a2.298 2.298 0 0 0-2.295 2.295 2.298 2.298 0 0 0 2.295 2.295 2.298 2.298 0 0 0 2.295-2.295 2.298 2.298 0 0 0-2.295-2.295Z"/><path fill="#FF3158" d="M248.54 117.535a3.675 3.675 0 1 0 0-7.35 3.675 3.675 0 0 0 0 7.35Z"/><path fill="#222" d="M248.54 118.92c-2.79 0-5.06-2.27-5.06-5.06 0-2.79 2.27-5.06 5.06-5.06 2.79 0 5.06 2.27 5.06 5.06 0 2.79-2.27 5.06-5.06 5.06Zm0-7.355a2.298 2.298 0 0 0-2.295 2.295 2.298 2.298 0 0 0 2.295 2.295 2.298 2.298 0 0 0 2.295-2.295 2.298 2.298 0 0 0-2.295-2.295Z"/><path fill="#FF3158" d="M262.404 117.535a3.675 3.675 0 1 0 0-7.35 3.675 3.675 0 0 0 0 7.35Z"/><path fill="#222" d="M262.41 118.92c-2.79 0-5.06-2.27-5.06-5.06 0-2.79 2.27-5.06 5.06-5.06 2.79 0 5.06 2.27 5.06 5.06 0 2.79-2.27 5.06-5.06 5.06Zm0-7.355a2.298 2.298 0 0 0-2.295 2.295 2.298 2.298 0 0 0 2.295 2.295 2.298 2.298 0 0 0 2.295-2.295 2.298 2.298 0 0 0-2.295-2.295Z"/><path fill="#FF3158" d="M304.01 228.48a3.675 3.675 0 1 0 0-7.35 3.675 3.675 0 0 0 0 7.35Z"/><path fill="#222" d="M304.015 229.865c-2.79 0-5.06-2.27-5.06-5.06 0-2.79 2.27-5.06 5.06-5.06 2.79 0 5.06 2.27 5.06 5.06 0 2.79-2.27 5.06-5.06 5.06Zm0-7.355a2.298 2.298 0 0 0-2.295 2.295 2.298 2.298 0 0 0 2.295 2.295 2.298 2.298 0 0 0 2.295-2.295 2.298 2.298 0 0 0-2.295-2.295ZM248.54 102.984a1.38 1.38 0 0 1-1.38-1.385V68.954c0-.765.62-1.385 1.38-1.385.76 0 1.38.62 1.38 1.385V101.6c0 .765-.62 1.385-1.38 1.385Z"/><path fill="#FF3158" d="M248.54 117.535a3.675 3.675 0 1 0 0-7.35 3.675 3.675 0 0 0 0 7.35Z"/><path fill="#222" d="M248.54 118.92c-2.79 0-5.06-2.27-5.06-5.06 0-2.79 2.27-5.06 5.06-5.06 2.79 0 5.06 2.27 5.06 5.06 0 2.79-2.27 5.06-5.06 5.06Zm0-7.355a2.298 2.298 0 0 0-2.295 2.295 2.298 2.298 0 0 0 2.295 2.295 2.298 2.298 0 0 0 2.295-2.295 2.298 2.298 0 0 0-2.295-2.295Z"/><path fill="#FF3158" d="M137.595 186.874a3.675 3.675 0 1 0 0-7.35 3.675 3.675 0 0 0 0 7.35Z"/><path fill="#222" d="M137.595 188.26c-2.79 0-5.06-2.27-5.06-5.06 0-2.79 2.27-5.06 5.06-5.06 2.79 0 5.06 2.27 5.06 5.06 0 2.79-2.27 5.06-5.06 5.06Zm0-7.355a2.298 2.298 0 0 0-2.295 2.295 2.298 2.298 0 0 0 2.295 2.295 2.298 2.298 0 0 0 2.295-2.295 2.298 2.298 0 0 0-2.295-2.295Z"/><path fill="#FF3158" d="M165.329 145.27a3.675 3.675 0 1 0 0-7.35 3.675 3.675 0 0 0 0 7.35Z"/><path fill="#222" d="M165.33 146.654c-2.79 0-5.06-2.27-5.06-5.06 0-2.79 2.27-5.06 5.06-5.06 2.79 0 5.06 2.27 5.06 5.06 0 2.79-2.27 5.06-5.06 5.06Zm0-7.355a2.298 2.298 0 0 0-2.295 2.295 2.298 2.298 0 0 0 2.295 2.295 2.298 2.298 0 0 0 2.295-2.295 2.298 2.298 0 0 0-2.295-2.295Z"/><path fill="#fff" d="M363.715 285.034v-71.415h-7.96v71.415h7.96Z"/><path fill="#222" d="M363.715 286.415h-7.96c-.765 0-1.38-.621-1.38-1.386v-71.415c0-.765.62-1.385 1.38-1.385h7.96c.765 0 1.38.62 1.38 1.385v71.415c0 .765-.62 1.386-1.38 1.386Zm-6.575-2.766h5.195v-68.65h-5.195v68.65Z"/><path fill="#fff" d="M42.515 285.034v-51.21h-7.96v51.21h7.96Z"/><path fill="#222" d="M42.515 286.415h-7.96a1.38 1.38 0 0 1-1.38-1.385v-51.21c0-.765.62-1.385 1.38-1.385h7.96c.765 0 1.38.62 1.38 1.385v51.21c0 .765-.62 1.385-1.38 1.385Zm-6.575-2.765h5.195v-48.445H35.94v48.445Z"/><path fill="#DADADA" d="M107.319 300.459H71.614v7.96h35.705v-7.96ZM107.319 61.59H71.614v7.96h35.705v-7.96ZM257.555 300.459H221.85v7.96h35.705v-7.96ZM339.129 300.459h-35.705v7.96h35.705v-7.96ZM46.714 190.384V88.529h-7.96v101.855h7.96ZM326.089 61.48h-45.015v7.96h45.015v-7.96ZM223.679 61.59h-61.54v7.96h61.54v-7.96ZM367.614 281.544v-71.415h-7.96v71.415h7.96ZM46.41 281.544v-51.21h-7.96v51.21h7.96ZM359.659 88.524v71.415h7.96V88.524h-7.96Z" style="mix-blend-mode:multiply"/></svg>