<svg xmlns="http://www.w3.org/2000/svg" width="400" height="401" fill="none" viewBox="0 0 400 401"><path fill="#fff" d="M359.7 68.695H38.85v239.15H359.7V68.695Z"/><path fill="#FF3158" d="M165.35 339.145a3.65 3.65 0 1 0 0-7.3 3.65 3.65 0 0 0 0 7.3Z"/><path fill="#222" d="M165.35 340.545c-2.8 0-5.05-2.25-5.05-5.05s2.25-5.05 5.05-5.05 5.05 2.25 5.05 5.05-2.3 5.05-5.05 5.05Zm0-7.35c-1.25 0-2.3 1.05-2.3 2.3 0 1.25 1.05 2.3 2.3 2.3 1.25 0 2.3-1.05 2.3-2.3 0-1.25-1.05-2.3-2.3-2.3ZM192.7 309.245c-.75 0-1.4-.6-1.4-1.4v-57c0-.75.6-1.4 1.4-1.4.8 0 1.4.6 1.4 1.4v57c-.05.75-.65 1.4-1.4 1.4Z"/><path fill="#222" d="M359.7 309.245H177.25c-.75 0-1.4-.6-1.4-1.4 0-.8.6-1.4 1.4-1.4H358.3V70.095H40.2v236.4h111.7c.75 0 1.4.6 1.4 1.4 0 .8-.6 1.4-1.4 1.4H38.85c-.75 0-1.4-.6-1.4-1.4v-239.2c0-.75.6-1.4 1.4-1.4H359.7c.75 0 1.4.6 1.4 1.4v239.15c-.05.75-.65 1.4-1.4 1.4Z"/><path fill="#222" d="M137.6 309.245c-.75 0-1.4-.6-1.4-1.4v-57c0-.75.6-1.4 1.4-1.4.8 0 1.4.6 1.4 1.4v57c-.05.75-.65 1.4-1.4 1.4ZM137.6 172.945c-.75 0-1.4-.6-1.4-1.4V68.695c0-.75.6-1.4 1.4-1.4.8 0 1.4.6 1.4 1.4v102.8c-.05.8-.65 1.4-1.4 1.45ZM137.6 227.845c-.75 0-1.4-.6-1.4-1.4v-32.95c0-.75.6-1.4 1.4-1.4.8 0 1.4.6 1.4 1.4v32.95c-.05.75-.65 1.4-1.4 1.4Z"/><path fill="#222" d="M136.5 211.945H94.3c-.75 0-1.4-.6-1.4-1.4 0-.8.6-1.4 1.4-1.4h42.2c.75 0 1.4.6 1.4 1.4 0 .8-.65 1.4-1.4 1.4ZM69.8 211.945h-31c-.75 0-1.4-.6-1.4-1.4 0-.8.6-1.4 1.4-1.4h31c.75 0 1.4.6 1.4 1.4 0 .8-.6 1.4-1.4 1.4ZM153.05 142.745h-15.5c-.75 0-1.4-.6-1.4-1.4 0-.8.6-1.4 1.4-1.4h15.5c.75 0 1.4.6 1.4 1.4 0 .8-.6 1.4-1.4 1.4Z"/><path fill="#fff" d="M103.4 303.695H67.7v7.95h35.7v-7.95Z"/><path fill="#222" d="M103.4 313.045H67.7c-.75 0-1.4-.6-1.4-1.4v-7.95c0-.75.6-1.4 1.4-1.4h35.7c.75 0 1.4.6 1.4 1.4v7.95c0 .8-.6 1.4-1.4 1.4Zm-34.3-2.75h32.95v-5.2H69.1v5.2Z"/><path fill="#fff" d="M103.4 64.845H67.7v7.95h35.7v-7.95Z"/><path fill="#222" d="M103.4 74.195H67.7c-.75 0-1.4-.6-1.4-1.4v-7.95c0-.75.6-1.4 1.4-1.4h35.7c.75 0 1.4.6 1.4 1.4v7.95c0 .75-.6 1.4-1.4 1.4Zm-34.3-2.8h32.95v-5.2H69.1v5.2Z"/><path fill="#fff" d="M253.65 303.695h-35.7v7.95h35.7v-7.95Z"/><path fill="#222" d="M253.65 313.045h-35.7c-.75 0-1.4-.6-1.4-1.4v-7.95c0-.75.6-1.4 1.4-1.4h35.7c.75 0 1.4.6 1.4 1.4v7.95c0 .8-.65 1.4-1.4 1.4Zm-34.3-2.75h32.95v-5.2h-32.95v5.2Z"/><path fill="#fff" d="M335.2 303.695h-35.7v7.95h35.7v-7.95Z"/><path fill="#222" d="M335.25 313.045h-35.7c-.75 0-1.4-.6-1.4-1.4v-7.95c0-.75.6-1.4 1.4-1.4h35.7c.75 0 1.4.6 1.4 1.4v7.95c-.05.8-.65 1.4-1.4 1.4Zm-34.35-2.75h32.95v-5.2H300.9v5.2Z"/><path fill="#fff" d="M363.7 91.745h-7.95v71.4h7.95v-71.4Z"/><path fill="#222" d="M363.7 164.545h-7.95c-.75 0-1.4-.6-1.4-1.4v-71.35c0-.75.6-1.4 1.4-1.4h7.95c.75 0 1.4.6 1.4 1.4v71.4c0 .75-.6 1.35-1.4 1.35Zm-6.55-2.75h5.2v-68.65h-5.2v68.65Z"/><path fill="#fff" d="M42.8 91.795h-7.95v101.85h7.95V91.795Z"/><path fill="#222" d="M42.8 194.995h-7.95c-.75 0-1.4-.6-1.4-1.4v-101.8c0-.75.6-1.4 1.4-1.4h7.95c.75 0 1.4.6 1.4 1.4v101.85c0 .75-.6 1.35-1.4 1.35Zm-6.55-2.75h5.2v-99.1h-5.2v99.1Z"/><path fill="#fff" d="M322.15 64.695h-45v7.95h45v-7.95Z"/><path fill="#222" d="M322.2 74.045h-45c-.75 0-1.4-.6-1.4-1.4v-7.95c0-.75.6-1.4 1.4-1.4h45c.75 0 1.4.6 1.4 1.4v7.95c-.05.8-.65 1.4-1.4 1.4Zm-43.65-2.75h42.25v-5.2h-42.25v5.2Z"/><path fill="#fff" d="M219.8 64.845h-61.55v7.95h61.55v-7.95Z"/><path fill="#222" d="M219.8 74.195h-61.55c-.75 0-1.4-.6-1.4-1.4v-7.95c0-.75.6-1.4 1.4-1.4h61.55c.75 0 1.4.6 1.4 1.4v7.95c-.05.75-.65 1.4-1.4 1.4Zm-60.2-2.8h58.75v-5.2H159.6v5.2ZM248.55 211.945H192.7c-.75 0-1.4-.6-1.4-1.4v-67.8h-13.7c-.75 0-1.4-.6-1.4-1.4 0-.8.6-1.4 1.4-1.4h15.1c.75 0 1.4.6 1.4 1.4v67.85h53.1v-83.35c0-.75.6-1.4 1.4-1.4.8 0 1.4.6 1.4 1.4v84.7c-.05.8-.7 1.4-1.45 1.4Z"/><path fill="#FF3158" d="M165.35 297.545a3.65 3.65 0 1 0 0-7.3 3.65 3.65 0 0 0 0 7.3Z"/><path fill="#222" d="M165.35 298.945c-2.8 0-5.05-2.25-5.05-5.05s2.25-5.05 5.05-5.05 5.05 2.25 5.05 5.05-2.3 5.05-5.05 5.05Zm0-7.35c-1.25 0-2.3 1.05-2.3 2.3 0 1.25 1.05 2.3 2.3 2.3 1.25 0 2.3-1.05 2.3-2.3 0-1.25-1.05-2.3-2.3-2.3Z"/><path fill="#FF3158" d="M165.35 311.395a3.65 3.65 0 1 0 0-7.3 3.65 3.65 0 0 0 0 7.3Z"/><path fill="#222" d="M165.35 312.845c-2.8 0-5.05-2.25-5.05-5.05s2.25-5.05 5.05-5.05 5.05 2.25 5.05 5.05-2.3 5.05-5.05 5.05Zm0-7.4c-1.25 0-2.3 1.05-2.3 2.3 0 1.25 1.05 2.3 2.3 2.3 1.25 0 2.3-1.05 2.3-2.3 0-1.25-1.05-2.3-2.3-2.3Z"/><path fill="#FF3158" d="M165.35 325.295a3.65 3.65 0 1 0 0-7.3 3.65 3.65 0 0 0 0 7.3Z"/><path fill="#222" d="M165.35 326.695c-2.8 0-5.05-2.25-5.05-5.05s2.25-5.05 5.05-5.05 5.05 2.25 5.05 5.05-2.3 5.05-5.05 5.05Zm0-7.35c-1.25 0-2.3 1.05-2.3 2.3 0 1.25 1.05 2.3 2.3 2.3 1.25 0 2.3-1.05 2.3-2.3 0-1.25-1.05-2.3-2.3-2.3Z"/><path fill="#FF3158" d="m165.35 272.895 8.05 10.8h7.8l-15.85-21.2-15.9 21.2h7.8l8.1-10.8Z"/><path fill="#222" d="M181.2 285.095h-7.75c-.45 0-.85-.2-1.1-.55l-7-9.35-7 9.35c-.25.35-.65.55-1.1.55h-7.75c-.5 0-1-.3-1.25-.75s-.2-1.05.15-1.45l15.85-21.2c.25-.35.65-.55 1.1-.55.45 0 .85.2 1.1.55l15.85 21.2c.3.4.35 1 .15 1.45-.2.45-.75.75-1.25.75Zm-7.1-2.75h4.3l-13.1-17.55-13.1 17.55h4.3l7.65-10.25c.25-.35.65-.55 1.1-.55.45 0 .85.2 1.1.55l7.75 10.25Z"/><path fill="#FF3158" d="M165.35 255.995a3.7 3.7 0 1 0 .001-7.399 3.7 3.7 0 0 0-.001 7.399Z"/><path fill="#222" d="M165.35 257.345c-2.8 0-5.05-2.25-5.05-5.05s2.25-5.05 5.05-5.05 5.05 2.25 5.05 5.05-2.3 5.05-5.05 5.05Zm0-7.35c-1.25 0-2.3 1.05-2.3 2.3 0 1.25 1.05 2.3 2.3 2.3 1.25 0 2.3-1.05 2.3-2.3 0-1.25-1.05-2.3-2.3-2.3Z"/><path fill="#FF3158" d="M137.6 186.645a3.7 3.7 0 1 0 .001-7.399 3.7 3.7 0 0 0-.001 7.399Z"/><path fill="#222" d="M137.6 187.995c-2.8 0-5.05-2.25-5.05-5.05s2.25-5.05 5.05-5.05 5.05 2.25 5.05 5.05-2.25 5.05-5.05 5.05Zm0-7.35c-1.25 0-2.3 1.05-2.3 2.3 0 1.25 1.05 2.3 2.3 2.3 1.25 0 2.3-1.05 2.3-2.3 0-1.25-1.05-2.3-2.3-2.3Z"/><path fill="#FF3158" d="M123.7 186.645a3.7 3.7 0 1 0 0-7.4 3.7 3.7 0 0 0 0 7.4Z"/><path fill="#222" d="M123.7 187.995c-2.8 0-5.05-2.25-5.05-5.05s2.25-5.05 5.05-5.05 5.05 2.25 5.05 5.05-2.25 5.05-5.05 5.05Zm0-7.35c-1.25 0-2.3 1.05-2.3 2.3 0 1.25 1.05 2.3 2.3 2.3 1.25 0 2.3-1.05 2.3-2.3 0-1.25-1-2.3-2.3-2.3Z"/><path fill="#FF3158" d="M165.35 186.645a3.7 3.7 0 1 0 .001-7.399 3.7 3.7 0 0 0-.001 7.399Z"/><path fill="#222" d="M165.35 187.995c-2.8 0-5.05-2.25-5.05-5.05s2.25-5.05 5.05-5.05 5.05 2.25 5.05 5.05-2.3 5.05-5.05 5.05Zm0-7.35c-1.25 0-2.3 1.05-2.3 2.3 0 1.25 1.05 2.3 2.3 2.3 1.25 0 2.3-1.05 2.3-2.3 0-1.25-1.05-2.3-2.3-2.3Z"/><path fill="#FF3158" d="M151.45 186.645a3.7 3.7 0 1 0 0-7.4 3.7 3.7 0 0 0 0 7.4Z"/><path fill="#222" d="M151.45 187.995c-2.8 0-5.05-2.25-5.05-5.05s2.25-5.05 5.05-5.05 5.05 2.25 5.05 5.05-2.25 5.05-5.05 5.05Zm0-7.35c-1.25 0-2.3 1.05-2.3 2.3 0 1.25 1.05 2.3 2.3 2.3 1.25 0 2.3-1.05 2.3-2.3 0-1.25-1-2.3-2.3-2.3Z"/><path fill="#FF3158" d="M137.6 186.645a3.7 3.7 0 1 0 .001-7.399 3.7 3.7 0 0 0-.001 7.399Z"/><path fill="#222" d="M137.6 187.995c-2.8 0-5.05-2.25-5.05-5.05s2.25-5.05 5.05-5.05 5.05 2.25 5.05 5.05-2.25 5.05-5.05 5.05Zm0-7.35c-1.25 0-2.3 1.05-2.3 2.3 0 1.25 1.05 2.3 2.3 2.3 1.25 0 2.3-1.05 2.3-2.3 0-1.25-1.05-2.3-2.3-2.3Z"/><path fill="#FF3158" d="M304 200.446a3.65 3.65 0 1 0 0-7.3 3.65 3.65 0 0 0 0 7.3Z"/><path fill="#222" d="M304 201.895c-2.8 0-5.05-2.25-5.05-5.05s2.25-5.05 5.05-5.05 5.05 2.25 5.05 5.05-2.25 5.05-5.05 5.05Zm0-7.35c-1.25 0-2.3 1.05-2.3 2.3 0 1.25 1.05 2.3 2.3 2.3 1.25 0 2.3-1.05 2.3-2.3 0-1.25-1-2.3-2.3-2.3Z"/><path fill="#FF3158" d="M304 214.345a3.65 3.65 0 1 0 0-7.3 3.65 3.65 0 0 0 0 7.3Z"/><path fill="#222" d="M304 215.745c-2.8 0-5.05-2.25-5.05-5.05s2.25-5.05 5.05-5.05 5.05 2.25 5.05 5.05-2.25 5.05-5.05 5.05Zm0-7.35c-1.25 0-2.3 1.05-2.3 2.3 0 1.25 1.05 2.3 2.3 2.3 1.25 0 2.3-1.05 2.3-2.3 0-1.25-1-2.3-2.3-2.3Z"/><path fill="#FF3158" d="m304 176.246-8.1-10.85h-7.75l15.85 21.25 15.85-21.25h-7.75l-8.1 10.85Z"/><path fill="#222" d="M304 187.995c-.45 0-.85-.2-1.1-.55l-15.85-21.2c-.3-.4-.35-1-.15-1.45.2-.45.7-.75 1.25-.75h7.75c.45 0 .85.2 1.1.55l7 9.35 7-9.35c.25-.35.65-.55 1.1-.55h7.75c.5 0 1 .3 1.25.75s.2 1.05-.15 1.45l-15.85 21.2c-.25.35-.65.55-1.1.55Zm-13.1-21.2 13.1 17.55 13.1-17.55h-4.3l-7.65 10.25c-.25.35-.65.55-1.1.55-.45 0-.85-.2-1.1-.55l-7.65-10.25h-4.4Z"/><path fill="#FF3158" d="M304 158.845a3.65 3.65 0 1 0 0-7.3 3.65 3.65 0 0 0 0 7.3Z"/><path fill="#222" d="M304 160.295c-2.8 0-5.05-2.25-5.05-5.05s2.25-5.05 5.05-5.05 5.05 2.25 5.05 5.05-2.25 5.05-5.05 5.05Zm0-7.35c-1.25 0-2.3 1.05-2.3 2.3 0 1.25 1.05 2.3 2.3 2.3 1.25 0 2.3-1.05 2.3-2.3 0-1.25-1-2.3-2.3-2.3Z"/><path fill="#FF3158" d="M304 144.995a3.65 3.65 0 1 0 0-7.3 3.65 3.65 0 0 0 0 7.3Z"/><path fill="#222" d="M304 146.395c-2.8 0-5.05-2.25-5.05-5.05s2.25-5.05 5.05-5.05 5.05 2.25 5.05 5.05-2.25 5.05-5.05 5.05Zm0-7.35c-1.25 0-2.3 1.05-2.3 2.3 0 1.25 1.05 2.3 2.3 2.3 1.25 0 2.3-1.05 2.3-2.3 0-1.25-1-2.3-2.3-2.3Z"/><path fill="#FF3158" d="M165.35 117.296a3.7 3.7 0 1 0 0-7.4 3.7 3.7 0 0 0 0 7.4Z"/><path fill="#222" d="M165.35 118.695c-2.8 0-5.05-2.25-5.05-5.05s2.25-5.05 5.05-5.05 5.05 2.25 5.05 5.05-2.3 5.05-5.05 5.05Zm0-7.4c-1.25 0-2.3 1.05-2.3 2.3 0 1.25 1.05 2.3 2.3 2.3 1.25 0 2.3-1.05 2.3-2.3 0-1.25-1.05-2.3-2.3-2.3Z"/><path fill="#FF3158" d="M165.35 131.195a3.7 3.7 0 1 0 0-7.4 3.7 3.7 0 0 0 0 7.4Z"/><path fill="#222" d="M165.35 132.545c-2.8 0-5.05-2.25-5.05-5.05s2.25-5.05 5.05-5.05 5.05 2.25 5.05 5.05c0 2.75-2.3 5.05-5.05 5.05Zm0-7.35c-1.25 0-2.3 1.05-2.3 2.3 0 1.25 1.05 2.3 2.3 2.3 1.25 0 2.3-1.05 2.3-2.3 0-1.25-1.05-2.3-2.3-2.3Z"/><path fill="#FF3158" d="M165.35 158.895a3.7 3.7 0 1 0 .001-7.399 3.7 3.7 0 0 0-.001 7.399Z"/><path fill="#222" d="M165.35 160.295c-2.8 0-5.05-2.25-5.05-5.05s2.25-5.05 5.05-5.05 5.05 2.25 5.05 5.05-2.3 5.05-5.05 5.05Zm0-7.35c-1.25 0-2.3 1.05-2.3 2.3 0 1.25 1.05 2.3 2.3 2.3 1.25 0 2.3-1.05 2.3-2.3 0-1.25-1.05-2.3-2.3-2.3Z"/><path fill="#FF3158" d="M165.35 172.796a3.7 3.7 0 1 0 0-7.4 3.7 3.7 0 0 0 0 7.4Z"/><path fill="#222" d="M165.35 174.145c-2.8 0-5.05-2.25-5.05-5.05s2.25-5.05 5.05-5.05 5.05 2.25 5.05 5.05-2.3 5.05-5.05 5.05Zm0-7.35c-1.25 0-2.3 1.05-2.3 2.3 0 1.25 1.05 2.3 2.3 2.3 1.25 0 2.3-1.05 2.3-2.3 0-1.25-1.05-2.3-2.3-2.3Z"/><path fill="#FF3158" d="M220.8 117.296a3.7 3.7 0 1 0 0-7.4 3.7 3.7 0 0 0 0 7.4Z"/><path fill="#222" d="M220.8 118.695c-2.8 0-5.05-2.25-5.05-5.05s2.25-5.05 5.05-5.05 5.05 2.25 5.05 5.05-2.25 5.05-5.05 5.05Zm0-7.4c-1.25 0-2.3 1.05-2.3 2.3 0 1.25 1.05 2.3 2.3 2.3 1.25 0 2.3-1.05 2.3-2.3 0-1.25-1.05-2.3-2.3-2.3Z"/><path fill="#FF3158" d="m200.2 113.595-10.8 8.1v7.75l21.2-15.85-21.2-15.85v7.8l10.8 8.05Z"/><path fill="#222" d="M189.4 130.845c-.2 0-.45-.05-.6-.15-.45-.25-.75-.7-.75-1.25v-7.75c0-.45.2-.85.55-1.1l9.35-7-9.35-7c-.35-.25-.55-.65-.55-1.1v-7.75c0-.55.3-1 .75-1.25s1.05-.2 1.45.15l21.2 15.85c.35.25.55.65.55 1.1 0 .45-.2.85-.55 1.1l-21.2 15.85c-.3.2-.55.3-.85.3Zm1.35-8.45v4.3l17.55-13.1-17.55-13.1v4.3l10.25 7.65c.35.25.55.65.55 1.1 0 .45-.2.85-.55 1.1l-10.25 7.75Z"/><path fill="#FF3158" d="M179.2 117.296a3.7 3.7 0 1 0-.001-7.401 3.7 3.7 0 0 0 .001 7.401Z"/><path fill="#222" d="M179.2 118.695c-2.8 0-5.05-2.25-5.05-5.05s2.25-5.05 5.05-5.05 5.05 2.25 5.05 5.05-2.25 5.05-5.05 5.05Zm0-7.4c-1.25 0-2.3 1.05-2.3 2.3 0 1.25 1.05 2.3 2.3 2.3 1.25 0 2.3-1.05 2.3-2.3 0-1.25-1.05-2.3-2.3-2.3Z"/><path fill="#FF3158" d="M304 131.145a3.65 3.65 0 1 0 0-7.3 3.65 3.65 0 0 0 0 7.3Z"/><path fill="#222" d="M304 132.545c-2.8 0-5.05-2.25-5.05-5.05s2.25-5.05 5.05-5.05 5.05 2.25 5.05 5.05c.05 2.75-2.25 5.05-5.05 5.05Zm0-7.35c-1.25 0-2.3 1.05-2.3 2.3 0 1.25 1.05 2.3 2.3 2.3 1.25 0 2.3-1.05 2.3-2.3 0-1.25-1-2.3-2.3-2.3Z"/><path fill="#FF3158" d="M276.25 117.245a3.65 3.65 0 1 0 0-7.3 3.65 3.65 0 0 0 0 7.3Z"/><path fill="#222" d="M276.25 118.695c-2.8 0-5.05-2.25-5.05-5.05s2.25-5.05 5.05-5.05 5.05 2.25 5.05 5.05-2.25 5.05-5.05 5.05Zm0-7.4c-1.25 0-2.3 1.05-2.3 2.3 0 1.25 1.05 2.3 2.3 2.3 1.25 0 2.3-1.05 2.3-2.3 0-1.25-1-2.3-2.3-2.3Z"/><path fill="#FF3158" d="M290.15 117.245a3.65 3.65 0 1 0 0-7.3 3.65 3.65 0 0 0 0 7.3Z"/><path fill="#222" d="M290.15 118.695c-2.8 0-5.05-2.25-5.05-5.05s2.25-5.05 5.05-5.05 5.05 2.25 5.05 5.05-2.25 5.05-5.05 5.05Zm0-7.4c-1.25 0-2.3 1.05-2.3 2.3 0 1.25 1.05 2.3 2.3 2.3 1.25 0 2.3-1.05 2.3-2.3 0-1.25-1.05-2.3-2.3-2.3Z"/><path fill="#FF3158" d="M304 117.245a3.65 3.65 0 1 0 0-7.3 3.65 3.65 0 0 0 0 7.3Z"/><path fill="#222" d="M304 118.695c-2.8 0-5.05-2.25-5.05-5.05s2.25-5.05 5.05-5.05 5.05 2.25 5.05 5.05-2.25 5.05-5.05 5.05Zm0-7.4c-1.25 0-2.3 1.05-2.3 2.3 0 1.25 1.05 2.3 2.3 2.3 1.25 0 2.3-1.05 2.3-2.3 0-1.25-1-2.3-2.3-2.3Z"/><path fill="#FF3158" d="M82.1 200.496a3.7 3.7 0 1 0 0-7.4 3.7 3.7 0 0 0 0 7.4Z"/><path fill="#222" d="M82.1 201.895c-2.8 0-5.05-2.25-5.05-5.05s2.25-5.05 5.05-5.05 5.05 2.25 5.05 5.05-2.25 5.05-5.05 5.05Zm0-7.35c-1.25 0-2.3 1.05-2.3 2.3 0 1.25 1.05 2.3 2.3 2.3 1.25 0 2.3-1.05 2.3-2.3 0-1.25-1-2.3-2.3-2.3Z"/><path fill="#FF3158" d="M109.85 186.645a3.7 3.7 0 1 0 .001-7.399 3.7 3.7 0 0 0-.001 7.399Z"/><path fill="#222" d="M109.85 187.995c-2.8 0-5.05-2.25-5.05-5.05s2.25-5.05 5.05-5.05 5.05 2.25 5.05 5.05-2.25 5.05-5.05 5.05Zm0-7.35c-1.25 0-2.3 1.05-2.3 2.3 0 1.25 1.05 2.3 2.3 2.3 1.25 0 2.3-1.05 2.3-2.3 0-1.25-1.05-2.3-2.3-2.3Z"/><path fill="#FF3158" d="M96 186.645a3.7 3.7 0 1 0 0-7.4 3.7 3.7 0 0 0 0 7.4Z"/><path fill="#222" d="M96 187.995c-2.8 0-5.05-2.25-5.05-5.05s2.25-5.05 5.05-5.05 5.05 2.25 5.05 5.05-2.25 5.05-5.05 5.05Zm0-7.35c-1.25 0-2.3 1.05-2.3 2.3 0 1.25 1.05 2.3 2.3 2.3 1.25 0 2.3-1.05 2.3-2.3 0-1.25-1.05-2.3-2.3-2.3Z"/><path fill="#FF3158" d="M82.1 186.645a3.7 3.7 0 1 0 0-7.4 3.7 3.7 0 0 0 0 7.4Z"/><path fill="#222" d="M82.1 187.995c-2.8 0-5.05-2.25-5.05-5.05s2.25-5.05 5.05-5.05 5.05 2.25 5.05 5.05-2.25 5.05-5.05 5.05Zm0-7.35c-1.25 0-2.3 1.05-2.3 2.3 0 1.25 1.05 2.3 2.3 2.3 1.25 0 2.3-1.05 2.3-2.3 0-1.25-1-2.3-2.3-2.3Z"/><path fill="#FF3158" d="M165.35 242.145a3.7 3.7 0 1 0 .001-7.399 3.7 3.7 0 0 0-.001 7.399Z"/><path fill="#222" d="M165.35 243.495c-2.8 0-5.05-2.25-5.05-5.05s2.25-5.05 5.05-5.05 5.05 2.25 5.05 5.05-2.3 5.05-5.05 5.05Zm0-7.35c-1.25 0-2.3 1.05-2.3 2.3 0 1.25 1.05 2.3 2.3 2.3 1.25 0 2.3-1.05 2.3-2.3 0-1.25-1.05-2.3-2.3-2.3Z"/><path fill="#FF3158" d="M123.7 242.145a3.7 3.7 0 1 0 0-7.4 3.7 3.7 0 0 0 0 7.4Z"/><path fill="#222" d="M123.7 243.495c-2.8 0-5.05-2.25-5.05-5.05s2.25-5.05 5.05-5.05 5.05 2.25 5.05 5.05-2.25 5.05-5.05 5.05Zm0-7.35c-1.25 0-2.3 1.05-2.3 2.3 0 1.25 1.05 2.3 2.3 2.3 1.25 0 2.3-1.05 2.3-2.3 0-1.25-1-2.3-2.3-2.3Z"/><path fill="#FF3158" d="M151.45 242.145a3.7 3.7 0 1 0 0-7.4 3.7 3.7 0 0 0 0 7.4Z"/><path fill="#222" d="M151.45 243.495c-2.8 0-5.05-2.25-5.05-5.05s2.25-5.05 5.05-5.05 5.05 2.25 5.05 5.05-2.25 5.05-5.05 5.05Zm0-7.35c-1.25 0-2.3 1.05-2.3 2.3 0 1.25 1.05 2.3 2.3 2.3 1.25 0 2.3-1.05 2.3-2.3 0-1.25-1-2.3-2.3-2.3Z"/><path fill="#FF3158" d="M137.6 242.145a3.7 3.7 0 1 0 .001-7.399 3.7 3.7 0 0 0-.001 7.399Z"/><path fill="#222" d="M137.6 243.495c-2.8 0-5.05-2.25-5.05-5.05s2.25-5.05 5.05-5.05 5.05 2.25 5.05 5.05-2.25 5.05-5.05 5.05Zm0-7.35c-1.25 0-2.3 1.05-2.3 2.3 0 1.25 1.05 2.3 2.3 2.3 1.25 0 2.3-1.05 2.3-2.3 0-1.25-1.05-2.3-2.3-2.3Z"/><path fill="#FF3158" d="M109.85 242.145a3.7 3.7 0 1 0 .001-7.399 3.7 3.7 0 0 0-.001 7.399Z"/><path fill="#222" d="M109.85 243.495c-2.8 0-5.05-2.25-5.05-5.05s2.25-5.05 5.05-5.05 5.05 2.25 5.05 5.05-2.25 5.05-5.05 5.05Zm0-7.35c-1.25 0-2.3 1.05-2.3 2.3 0 1.25 1.05 2.3 2.3 2.3 1.25 0 2.3-1.05 2.3-2.3 0-1.25-1.05-2.3-2.3-2.3Z"/><path fill="#FF3158" d="M96 242.145a3.7 3.7 0 1 0 0-7.4 3.7 3.7 0 0 0 0 7.4Z"/><path fill="#222" d="M96 243.495c-2.8 0-5.05-2.25-5.05-5.05s2.25-5.05 5.05-5.05 5.05 2.25 5.05 5.05-2.25 5.05-5.05 5.05Zm0-7.35c-1.25 0-2.3 1.05-2.3 2.3 0 1.25 1.05 2.3 2.3 2.3 1.25 0 2.3-1.05 2.3-2.3 0-1.25-1.05-2.3-2.3-2.3Z"/><path fill="#FF3158" d="M82.1 242.145a3.7 3.7 0 1 0 0-7.4 3.7 3.7 0 0 0 0 7.4Z"/><path fill="#222" d="M82.1 243.495c-2.8 0-5.05-2.25-5.05-5.05s2.25-5.05 5.05-5.05 5.05 2.25 5.05 5.05-2.25 5.05-5.05 5.05Zm0-7.35c-1.25 0-2.3 1.05-2.3 2.3 0 1.25 1.05 2.3 2.3 2.3 1.25 0 2.3-1.05 2.3-2.3 0-1.25-1-2.3-2.3-2.3Z"/><path fill="#FF3158" d="M304 242.095a3.65 3.65 0 1 0 0-7.3 3.65 3.65 0 0 0 0 7.3Z"/><path fill="#222" d="M304 243.495c-2.8 0-5.05-2.25-5.05-5.05s2.25-5.05 5.05-5.05 5.05 2.25 5.05 5.05-2.25 5.05-5.05 5.05Zm0-7.35c-1.25 0-2.3 1.05-2.3 2.3 0 1.25 1.05 2.3 2.3 2.3 1.25 0 2.3-1.05 2.3-2.3 0-1.25-1-2.3-2.3-2.3Z"/><path fill="#FF3158" d="M82.1 214.395a3.7 3.7 0 1 0 0-7.4 3.7 3.7 0 0 0 0 7.4Z"/><path fill="#222" d="M82.1 215.745c-2.8 0-5.05-2.25-5.05-5.05s2.25-5.05 5.05-5.05 5.05 2.25 5.05 5.05-2.25 5.05-5.05 5.05Zm0-7.35c-1.25 0-2.3 1.05-2.3 2.3 0 1.25 1.05 2.3 2.3 2.3 1.25 0 2.3-1.05 2.3-2.3 0-1.25-1-2.3-2.3-2.3Z"/><path fill="#FF3158" d="M82.1 228.245a3.7 3.7 0 1 0 0-7.4 3.7 3.7 0 0 0 0 7.4Z"/><path fill="#222" d="M82.1 229.595c-2.8 0-5.05-2.25-5.05-5.05s2.25-5.05 5.05-5.05 5.05 2.25 5.05 5.05-2.25 5.05-5.05 5.05Zm0-7.35c-1.25 0-2.3 1.05-2.3 2.3 0 1.25 1.05 2.3 2.3 2.3 1.25 0 2.3-1.05 2.3-2.3 0-1.25-1-2.3-2.3-2.3Z"/><path fill="#FF3158" d="M234.65 117.296a3.7 3.7 0 1 0 0-7.4 3.7 3.7 0 0 0 0 7.4Z"/><path fill="#222" d="M234.65 118.695c-2.8 0-5.05-2.25-5.05-5.05s2.25-5.05 5.05-5.05 5.05 2.25 5.05 5.05-2.25 5.05-5.05 5.05Zm0-7.4c-1.25 0-2.3 1.05-2.3 2.3 0 1.25 1.05 2.3 2.3 2.3 1.25 0 2.3-1.05 2.3-2.3 0-1.25-1-2.3-2.3-2.3Z"/><path fill="#FF3158" d="M248.55 117.296a3.7 3.7 0 1 0 0-7.4 3.7 3.7 0 0 0 0 7.4Z"/><path fill="#222" d="M248.55 118.695c-2.8 0-5.05-2.25-5.05-5.05s2.25-5.05 5.05-5.05 5.05 2.25 5.05 5.05-2.25 5.05-5.05 5.05Zm0-7.4c-1.25 0-2.3 1.05-2.3 2.3 0 1.25 1.05 2.3 2.3 2.3 1.25 0 2.3-1.05 2.3-2.3 0-1.25-1.05-2.3-2.3-2.3Z"/><path fill="#FF3158" d="M262.4 117.245a3.65 3.65 0 1 0 0-7.3 3.65 3.65 0 0 0 0 7.3Z"/><path fill="#222" d="M262.4 118.695c-2.8 0-5.05-2.25-5.05-5.05s2.25-5.05 5.05-5.05 5.05 2.25 5.05 5.05-2.25 5.05-5.05 5.05Zm0-7.4c-1.25 0-2.3 1.05-2.3 2.3 0 1.25 1.05 2.3 2.3 2.3 1.25 0 2.3-1.05 2.3-2.3 0-1.25-1-2.3-2.3-2.3Z"/><path fill="#FF3158" d="M304 228.195a3.65 3.65 0 1 0 0-7.3 3.65 3.65 0 0 0 0 7.3Z"/><path fill="#222" d="M304 229.595c-2.8 0-5.05-2.25-5.05-5.05s2.3-5.05 5.05-5.05 5.05 2.25 5.05 5.05-2.25 5.05-5.05 5.05Zm0-7.35c-1.25 0-2.3 1.05-2.3 2.3 0 1.25 1.05 2.3 2.3 2.3 1.25 0 2.3-1.05 2.3-2.3 0-1.25-1-2.3-2.3-2.3ZM248.55 102.745c-.75 0-1.4-.6-1.4-1.4v-32.65c0-.75.6-1.4 1.4-1.4.8 0 1.4.6 1.4 1.4v32.65c-.05.75-.65 1.4-1.4 1.4Z"/><path fill="#FF3158" d="M248.55 117.296a3.7 3.7 0 1 0 0-7.4 3.7 3.7 0 0 0 0 7.4Z"/><path fill="#222" d="M248.55 118.695c-2.8 0-5.05-2.25-5.05-5.05s2.25-5.05 5.05-5.05 5.05 2.25 5.05 5.05-2.25 5.05-5.05 5.05Zm0-7.4c-1.25 0-2.3 1.05-2.3 2.3 0 1.25 1.05 2.3 2.3 2.3 1.25 0 2.3-1.05 2.3-2.3 0-1.25-1.05-2.3-2.3-2.3Z"/><path fill="#FF3158" d="M137.6 186.645a3.7 3.7 0 1 0 .001-7.399 3.7 3.7 0 0 0-.001 7.399Z"/><path fill="#222" d="M137.6 187.995c-2.8 0-5.05-2.25-5.05-5.05s2.25-5.05 5.05-5.05 5.05 2.25 5.05 5.05-2.25 5.05-5.05 5.05Zm0-7.35c-1.25 0-2.3 1.05-2.3 2.3 0 1.25 1.05 2.3 2.3 2.3 1.25 0 2.3-1.05 2.3-2.3 0-1.25-1.05-2.3-2.3-2.3Z"/><path fill="#FF3158" d="M165.35 145.046a3.7 3.7 0 1 0 0-7.4 3.7 3.7 0 0 0 0 7.4Z"/><path fill="#222" d="M165.35 146.395c-2.8 0-5.05-2.25-5.05-5.05s2.25-5.05 5.05-5.05 5.05 2.25 5.05 5.05-2.3 5.05-5.05 5.05Zm0-7.35c-1.25 0-2.3 1.05-2.3 2.3 0 1.25 1.05 2.3 2.3 2.3 1.25 0 2.3-1.05 2.3-2.3 0-1.25-1.05-2.3-2.3-2.3Z"/><path fill="#fff" d="M363.7 213.395h-7.95v71.4h7.95v-71.4Z"/><path fill="#222" d="M363.7 286.145h-7.95c-.75 0-1.4-.6-1.4-1.4v-71.4c0-.75.6-1.4 1.4-1.4h7.95c.75 0 1.4.6 1.4 1.4v71.4c0 .8-.6 1.4-1.4 1.4Zm-6.55-2.75h5.2v-68.65h-5.2v68.65Z"/><path fill="#fff" d="M42.5 233.595h-7.95v51.2h7.95v-51.2Z"/><path fill="#222" d="M42.5 286.145h-7.95c-.75 0-1.4-.6-1.4-1.4v-51.15c0-.75.6-1.4 1.4-1.4h7.95c.75 0 1.4.6 1.4 1.4v51.2c0 .75-.6 1.35-1.4 1.35Zm-6.55-2.75h5.2v-48.45h-5.2v48.45Z"/><path fill="#DADADA" d="M107.3 300.195H71.6v7.95h35.7v-7.95ZM107.3 61.345H71.6v7.95h35.7v-7.95ZM257.55 300.195h-35.7v7.95h35.7v-7.95ZM339.1 300.195h-35.7v7.95h35.7v-7.95ZM46.7 88.295h-7.95v101.85h7.95V88.295ZM326.1 61.245h-45v7.95h45v-7.95ZM223.7 61.345h-61.55v7.95h61.55v-7.95ZM367.6 209.895h-7.95v71.4h7.95v-71.4ZM46.4 230.095h-7.95v51.2h7.95v-51.2ZM367.6 88.295h-7.95v71.4h7.95v-71.4Z"/><path fill="#222" d="M363.7 286.145h-7.95c-.75 0-1.4-.6-1.4-1.4v-71.4c0-.75.6-1.4 1.4-1.4h7.95c.75 0 1.4.6 1.4 1.4v71.4c0 .8-.6 1.4-1.4 1.4Zm-6.55-2.75h5.2v-68.65h-5.2v68.65ZM363.7 164.545h-7.95c-.75 0-1.4-.6-1.4-1.4v-71.35c0-.75.6-1.4 1.4-1.4h7.95c.75 0 1.4.6 1.4 1.4v71.4c0 .75-.6 1.35-1.4 1.35Zm-6.55-2.75h5.2v-68.65h-5.2v68.65ZM322.2 74.045h-45c-.75 0-1.4-.6-1.4-1.4v-7.95c0-.75.6-1.4 1.4-1.4h45c.75 0 1.4.6 1.4 1.4v7.95c-.05.8-.65 1.4-1.4 1.4Zm-43.65-2.75h42.25v-5.2h-42.25v5.2ZM219.8 74.195h-61.55c-.75 0-1.4-.6-1.4-1.4v-7.95c0-.75.6-1.4 1.4-1.4h61.55c.75 0 1.4.6 1.4 1.4v7.95c-.05.75-.65 1.4-1.4 1.4Zm-60.2-2.8h58.75v-5.2H159.6v5.2ZM103.4 74.195H67.7c-.75 0-1.4-.6-1.4-1.4v-7.95c0-.75.6-1.4 1.4-1.4h35.7c.75 0 1.4.6 1.4 1.4v7.95c0 .75-.6 1.4-1.4 1.4Zm-34.3-2.8h32.95v-5.2H69.1v5.2ZM42.8 194.995h-7.95c-.75 0-1.4-.6-1.4-1.4v-101.8c0-.75.6-1.4 1.4-1.4h7.95c.75 0 1.4.6 1.4 1.4v101.85c0 .75-.6 1.35-1.4 1.35Zm-6.55-2.75h5.2v-99.1h-5.2v99.1ZM103.4 313.045H67.7c-.75 0-1.4-.6-1.4-1.4v-7.95c0-.75.6-1.4 1.4-1.4h35.7c.75 0 1.4.6 1.4 1.4v7.95c0 .8-.6 1.4-1.4 1.4Zm-34.3-2.75h32.95v-5.2H69.1v5.2ZM42.5 286.145h-7.95c-.75 0-1.4-.6-1.4-1.4v-51.15c0-.75.6-1.4 1.4-1.4h7.95c.75 0 1.4.6 1.4 1.4v51.2c0 .75-.6 1.35-1.4 1.35Zm-6.55-2.75h5.2v-48.45h-5.2v48.45ZM253.65 313.045h-35.7c-.75 0-1.4-.6-1.4-1.4v-7.95c0-.75.6-1.4 1.4-1.4h35.7c.75 0 1.4.6 1.4 1.4v7.95c0 .8-.65 1.4-1.4 1.4Zm-34.3-2.75h32.95v-5.2h-32.95v5.2ZM335.25 313.045h-35.7c-.75 0-1.4-.6-1.4-1.4v-7.95c0-.75.6-1.4 1.4-1.4h35.7c.75 0 1.4.6 1.4 1.4v7.95c-.05.8-.65 1.4-1.4 1.4Zm-34.35-2.75h32.95v-5.2H300.9v5.2Z"/></svg>