<svg xmlns="http://www.w3.org/2000/svg" width="401" height="401" fill="none" viewBox="0 0 401 401"><path fill="#fff" d="M207.64 82.595H47.79v139.89h159.85V82.595Z"/><path fill="#DADADA" d="M117.815 139.68v14.63l12.67 7.32 12.67-7.32v-14.63l-12.67-7.31-12.67 7.31ZM53.54 76.245V216.13h159.85V76.245H53.54Zm76.94 118.625c-26.435 0-47.865-21.43-47.865-47.865 0-26.435 21.43-47.865 47.865-47.865 26.435 0 47.865 21.43 47.865 47.865 0 26.435-21.43 47.865-47.865 47.865Z"/><path fill="#fff" d="m312.265 297.415-135.49 28.125c-3.275.68-6.345-1.82-6.345-5.165v-116.66a7.622 7.622 0 0 1 6.075-7.465l135.49-28.125c3.275-.68 6.345 1.82 6.345 5.165v116.66a7.622 7.622 0 0 1-6.075 7.465Z"/><path fill="#222" d="M207.64 223.865H47.79a1.38 1.38 0 0 1-1.38-1.385V82.595c0-.765.62-1.385 1.38-1.385h159.85c.765 0 1.38.62 1.38 1.385v139.89c0 .765-.62 1.385-1.38 1.385v-.005ZM49.17 221.1h157.09V83.975H49.175V221.1h-.005Z"/><path fill="#444" d="M41.255 75.845v139.89l6.535 6.75V82.595l-6.535-6.75Z"/><path fill="#222" d="M47.79 223.865c-.365 0-.73-.145-.995-.42l-6.54-6.75c-.25-.26-.39-.605-.39-.96V75.845a1.381 1.381 0 0 1 2.375-.96l6.54 6.75c.25.26.39.605.39.96v139.89a1.374 1.374 0 0 1-1.385 1.38h.005Zm-5.155-8.69 3.775 3.895V83.155l-3.775-3.895v135.915Z"/><path fill="#444" d="M201.105 75.845H41.255l6.535 6.75h159.85l-6.535-6.75Z"/><path fill="#222" d="M207.64 83.975H47.79a1.38 1.38 0 0 1-.995-.42l-6.54-6.75c-.385-.4-.495-.99-.28-1.5.215-.51.72-.845 1.275-.845h159.855c.375 0 .735.15.995.42l6.54 6.75c.385.4.495.99.28 1.5-.215.51-.72.845-1.275.845h-.005ZM48.375 81.21h156l-3.86-3.985H44.52l3.86 3.985h-.005ZM175.69 327.035c-1.515 0-2.99-.52-4.19-1.495a6.63 6.63 0 0 1-2.455-5.165v-116.66c0-4.245 3.02-7.955 7.175-8.82l135.49-28.125a6.626 6.626 0 0 1 5.555 1.355 6.63 6.63 0 0 1 2.455 5.165v116.66c0 4.245-3.02 7.955-7.175 8.82l-135.49 28.125c-.455.095-.91.14-1.365.14Zm137.38-157.64c-.265 0-.53.025-.795.08L176.785 197.6c-2.88.6-4.975 3.17-4.975 6.11v116.66a3.891 3.891 0 0 0 4.68 3.81l135.49-28.125c2.88-.6 4.975-3.17 4.975-6.11v-116.66a3.891 3.891 0 0 0-3.885-3.895v.005Z"/><path fill="#FF3158" d="M350.805 103.699H245.26a8.935 8.935 0 0 0-8.935 8.935v76.12c0 4.935 4 8.935 8.935 8.935h105.545c4.934 0 8.935-4 8.935-8.935v-76.12a8.936 8.936 0 0 0-8.935-8.935Z"/><path fill="#222" d="M350.805 199.074H245.26c-5.69 0-10.315-4.63-10.315-10.315v-76.125c0-5.69 4.63-10.315 10.315-10.315h105.545c5.69 0 10.315 4.63 10.315 10.315v76.125c0 5.69-4.63 10.315-10.315 10.315Zm-105.545-93.99a7.556 7.556 0 0 0-7.55 7.55v76.125a7.556 7.556 0 0 0 7.55 7.55h105.545a7.556 7.556 0 0 0 7.55-7.55v-76.125a7.556 7.556 0 0 0-7.55-7.55H245.26Z"/><path fill="#fff" d="m317.755 130.544-5.475-10.575h-28.505l-5.47 10.575h-23.26v50.875h85.97v-50.875h-23.26Z"/><path fill="#222" d="M341.015 182.799h-85.97a1.38 1.38 0 0 1-1.38-1.385v-50.87c0-.765.62-1.385 1.38-1.385h22.42l5.085-9.825c.24-.46.71-.745 1.23-.745h28.505c.515 0 .99.29 1.23.745l5.085 9.825h22.42c.765 0 1.38.62 1.38 1.385v50.87c0 .765-.62 1.385-1.38 1.385h-.005Zm-84.59-2.765h83.205v-48.105h-21.875c-.515 0-.99-.29-1.23-.745l-5.09-9.825H284.61l-5.09 9.825c-.235.46-.71.745-1.23.745h-21.875v48.105h.01Z"/><path fill="#222" d="M298.03 169.205c8.64 0 15.645-7.005 15.645-15.645 0-8.641-7.005-15.645-15.645-15.645-8.641 0-15.645 7.004-15.645 15.645 0 8.64 7.004 15.645 15.645 15.645Z"/><path fill="#fff" d="M124.95 104.675c-26.435 0-47.865 21.43-47.865 47.865 0 26.435 21.43 47.865 47.865 47.865 26.435 0 47.865-21.43 47.865-47.865 0-26.435-21.43-47.865-47.865-47.865Zm12.67 55.17-12.67 7.32-12.67-7.32v-14.63l12.67-7.305 12.67 7.305v14.63Z"/><path fill="#222" d="M124.95 201.785c-27.155 0-49.245-22.09-49.245-49.245 0-27.155 22.09-49.245 49.245-49.245 27.155 0 49.245 22.09 49.245 49.245 0 27.155-22.09 49.245-49.245 49.245Zm0-95.725c-25.63 0-46.48 20.85-46.48 46.48 0 25.63 20.85 46.48 46.48 46.48 25.63 0 46.48-20.85 46.48-46.48 0-25.63-20.85-46.48-46.48-46.48Z"/><path fill="#222" d="M124.95 168.55c-.24 0-.475-.06-.69-.185l-12.67-7.315a1.375 1.375 0 0 1-.69-1.195v-14.63c0-.495.265-.95.69-1.195l12.67-7.315c.43-.245.955-.245 1.385 0l12.67 7.315c.43.245.69.705.69 1.195v14.63c0 .495-.265.95-.69 1.195l-12.67 7.315a1.374 1.374 0 0 1-.69.185h-.005Zm-11.29-9.495 11.29 6.515 11.29-6.515V146.02l-11.29-6.515-11.29 6.515v13.035Z"/><path fill="#222" d="M112.28 161.235a1.38 1.38 0 0 1-1.38-1.385v-53.425c0-.765.62-1.385 1.38-1.385.76 0 1.38.62 1.38 1.385v53.425c0 .765-.62 1.385-1.38 1.385Z"/><path fill="#222" d="M124.95 168.55c-.235 0-.47-.06-.69-.185l-45.845-26.47a1.38 1.38 0 0 1-.505-1.89 1.38 1.38 0 0 1 1.89-.505l45.845 26.47c.66.38.89 1.225.505 1.89-.255.445-.72.69-1.2.69Z"/><path fill="#222" d="M91.43 187.905c-.48 0-.945-.25-1.2-.69a1.388 1.388 0 0 1 .505-1.89l46.19-26.665a1.388 1.388 0 0 1 1.89.505c.38.66.155 1.505-.505 1.89L92.12 187.72c-.22.125-.455.185-.69.185Z"/><path fill="#222" d="M137.62 199.72a1.38 1.38 0 0 1-1.38-1.385V145.22c0-.765.62-1.385 1.38-1.385.76 0 1.38.62 1.38 1.385v53.115c0 .765-.62 1.385-1.38 1.385Z"/><path fill="#222" d="M171.225 166.01c-.235 0-.47-.06-.69-.185l-46.28-26.72a1.38 1.38 0 0 1-.505-1.89 1.38 1.38 0 0 1 1.89-.505l46.28 26.72c.66.38.89 1.225.505 1.89-.255.445-.72.69-1.2.69Z"/><path fill="#222" d="M112.28 146.605c-.48 0-.945-.25-1.2-.69a1.388 1.388 0 0 1 .505-1.89L157.8 117.34a1.388 1.388 0 0 1 1.89.505c.38.66.155 1.505-.505 1.89L112.97 146.42c-.22.125-.455.185-.69.185ZM179.02 230.999h-76.53a5.605 5.605 0 0 0-5.605 5.605v65.975a5.605 5.605 0 0 0 5.605 5.605h76.53a5.605 5.605 0 0 0 5.605-5.605v-65.975a5.605 5.605 0 0 0-5.605-5.605Z"/><path fill="#222" d="M179.02 309.569h-76.53c-3.85 0-6.985-3.135-6.985-6.985v-65.98c0-3.85 3.135-6.985 6.985-6.985h76.53c3.85 0 6.985 3.135 6.985 6.985v65.98c0 3.85-3.135 6.985-6.985 6.985Zm-76.53-77.185a4.227 4.227 0 0 0-4.22 4.22v65.98a4.227 4.227 0 0 0 4.22 4.22h76.53a4.227 4.227 0 0 0 4.22-4.22v-65.98a4.227 4.227 0 0 0-4.22-4.22h-76.53Z"/><path fill="#fff" d="M114 294.735a1.38 1.38 0 0 1-1.38-1.385v-47.51c0-.765.62-1.385 1.38-1.385.76 0 1.38.62 1.38 1.385v47.51c0 .765-.62 1.385-1.38 1.385ZM135.62 294.735a1.38 1.38 0 0 1-1.38-1.385v-47.51c0-.765.62-1.385 1.38-1.385.76 0 1.38.62 1.38 1.385v47.51c0 .765-.62 1.385-1.38 1.385Z"/><path fill="#fff" d="M135.62 270.98H114a1.38 1.38 0 0 1-1.38-1.385c0-.765.62-1.385 1.38-1.385h21.62c.765 0 1.38.62 1.38 1.385s-.62 1.385-1.38 1.385ZM146.755 294.735a1.38 1.38 0 0 1-1.38-1.385v-47.51c0-.745.59-1.355 1.335-1.38 5.97-.215 11.415 1.775 15.34 5.605 4.64 4.53 6.945 11.24 6.845 19.945-.21 18.14-13.35 24.725-22.135 24.725h-.005Zm1.38-47.515v44.69c7.605-.66 17.815-6.74 17.99-21.93.09-7.92-1.93-13.95-6.01-17.935-3.085-3.01-7.3-4.7-11.975-4.825h-.005Z"/></svg>