<svg xmlns="http://www.w3.org/2000/svg" width="400" height="401" fill="none" viewBox="0 0 400 401"><path fill="#FF3158" d="M284.645 123.26H116.19c-7.876 0-14.26 6.384-14.26 14.26v121.495c0 7.875 6.384 14.26 14.26 14.26h168.455c7.876 0 14.26-6.385 14.26-14.26V137.52c0-7.876-6.384-14.26-14.26-14.26Z"/><path fill="#222" d="M284.645 274.655H116.19c-8.625 0-15.64-7.015-15.64-15.64V137.52c0-8.625 7.015-15.64 15.64-15.64h168.455c8.625 0 15.64 7.015 15.64 15.64v121.495c0 8.625-7.015 15.64-15.64 15.64ZM116.19 124.645c-7.1 0-12.875 5.775-12.875 12.875v121.495c0 7.1 5.775 12.875 12.875 12.875h168.455c7.1 0 12.875-5.775 12.875-12.875V137.52c0-7.1-5.775-12.875-12.875-12.875H116.19Z"/><path fill="#fff" d="m231.9 166.109-8.735-16.875H177.67l-8.74 16.875h-37.12v81.195h137.215v-81.195H231.9Z"/><path fill="#222" d="M269.025 248.685H131.81a1.38 1.38 0 0 1-1.38-1.385v-81.195c0-.765.62-1.385 1.38-1.385h36.28l8.35-16.13c.235-.46.71-.745 1.23-.745h45.495c.515 0 .99.29 1.23.745l8.35 16.13h36.28c.765 0 1.38.62 1.38 1.385V247.3c0 .765-.62 1.385-1.38 1.385ZM133.19 245.92h134.45v-78.43H231.9c-.515 0-.99-.29-1.23-.745l-8.35-16.13h-43.815l-8.35 16.13c-.235.46-.71.745-1.23.745h-35.74v78.43h.005Z"/><path fill="#222" d="M200.415 227.815c13.791 0 24.97-11.179 24.97-24.97 0-13.791-11.179-24.97-24.97-24.97-13.79 0-24.97 11.179-24.97 24.97 0 13.791 11.18 24.97 24.97 24.97Z"/></svg>