<svg xmlns="http://www.w3.org/2000/svg" width="400" height="400" fill="none" viewBox="0 0 400 400"><path fill="#fff" d="M207.145 81.845H47.295v139.89h159.85V81.845Z"/><path fill="#DADADA" d="M117.32 138.93v14.63l12.67 7.32 12.67-7.32v-14.63l-12.67-7.31-12.67 7.31ZM53.045 75.495V215.38h159.85V75.495H53.045Zm76.94 118.625c-26.435 0-47.865-21.43-47.865-47.865 0-26.435 21.43-47.865 47.865-47.865 26.435 0 47.865 21.43 47.865 47.865 0 26.435-21.43 47.865-47.865 47.865Z"/><path fill="#fff" d="m311.771 296.665-135.49 28.125c-3.275.68-6.345-1.82-6.345-5.165v-116.66a7.622 7.622 0 0 1 6.075-7.465l135.49-28.125c3.275-.68 6.345 1.82 6.345 5.165V289.2a7.622 7.622 0 0 1-6.075 7.465Z"/><path fill="#222" d="M207.145 223.114H47.295a1.38 1.38 0 0 1-1.38-1.385V81.844c0-.764.62-1.384 1.38-1.384h159.85c.765 0 1.38.62 1.38 1.385v139.889c0 .765-.62 1.385-1.38 1.385v-.005Zm-158.47-2.765h157.09V83.225H48.68v137.124h-.005Z"/><path fill="#444" d="M40.76 75.095v139.89l6.535 6.75V81.845l-6.535-6.75Z"/><path fill="#222" d="M47.295 223.115c-.365 0-.73-.145-.995-.42l-6.54-6.75c-.25-.26-.39-.605-.39-.96V75.095a1.381 1.381 0 0 1 2.375-.96l6.54 6.75c.25.26.39.605.39.96v139.89a1.374 1.374 0 0 1-1.385 1.38h.005Zm-5.155-8.69 3.775 3.895V82.405L42.14 78.51v135.915Z"/><path fill="#444" d="M200.611 75.095H40.761l6.535 6.75h159.85l-6.535-6.75Z"/><path fill="#222" d="M207.146 83.225H47.296a1.38 1.38 0 0 1-.995-.42l-6.54-6.75c-.385-.4-.495-.99-.28-1.5.215-.51.72-.846 1.275-.846H200.61c.375 0 .735.15.995.42l6.54 6.75c.385.4.495.99.28 1.5-.215.51-.72.846-1.275.846h-.005ZM47.881 80.46h156l-3.86-3.985H44.026l3.86 3.985h-.005ZM175.196 326.285c-1.515 0-2.99-.52-4.19-1.495a6.63 6.63 0 0 1-2.455-5.165v-116.66c0-4.245 3.02-7.955 7.175-8.82l135.49-28.125a6.626 6.626 0 0 1 5.555 1.355 6.63 6.63 0 0 1 2.455 5.165V289.2c0 4.245-3.02 7.955-7.175 8.82l-135.49 28.125c-.455.095-.91.14-1.365.14Zm137.38-157.64c-.265 0-.53.025-.795.08l-135.49 28.125c-2.88.6-4.975 3.17-4.975 6.11v116.66a3.891 3.891 0 0 0 4.68 3.81l135.49-28.125c2.88-.6 4.975-3.17 4.975-6.11v-116.66a3.891 3.891 0 0 0-3.885-3.895v.005Z"/><path fill="#FF3158" d="M350.31 102.95H244.765a8.935 8.935 0 0 0-8.935 8.935v76.12c0 4.935 4 8.935 8.935 8.935H350.31c4.935 0 8.935-4 8.935-8.935v-76.12c0-4.934-4-8.935-8.935-8.935Z"/><path fill="#222" d="M350.31 198.325H244.765c-5.69 0-10.315-4.63-10.315-10.315v-76.125c0-5.69 4.63-10.315 10.315-10.315H350.31c5.69 0 10.315 4.63 10.315 10.315v76.125c0 5.69-4.63 10.315-10.315 10.315Zm-105.545-93.99a7.556 7.556 0 0 0-7.55 7.55v76.125a7.556 7.556 0 0 0 7.55 7.55H350.31a7.556 7.556 0 0 0 7.55-7.55v-76.125a7.556 7.556 0 0 0-7.55-7.55H244.765Z"/><path fill="#fff" d="m317.261 129.795-5.475-10.575h-28.505l-5.47 10.575h-23.26v50.875h85.97v-50.875h-23.26Z"/><path fill="#222" d="M340.521 182.05h-85.97a1.38 1.38 0 0 1-1.38-1.385v-50.87c0-.765.62-1.385 1.38-1.385h22.42l5.085-9.825c.24-.46.71-.745 1.23-.745h28.505c.515 0 .99.29 1.23.745l5.085 9.825h22.42c.765 0 1.38.62 1.38 1.385v50.87c0 .765-.62 1.385-1.38 1.385h-.005Zm-84.59-2.765h83.205V131.18h-21.875c-.515 0-.99-.29-1.23-.745l-5.09-9.825h-26.825l-5.09 9.825c-.235.46-.71.745-1.23.745h-21.875v48.105h.01Z"/><path fill="#222" d="M297.536 168.455c8.64 0 15.645-7.004 15.645-15.645 0-8.64-7.005-15.645-15.645-15.645-8.641 0-15.645 7.005-15.645 15.645 0 8.641 7.004 15.645 15.645 15.645Z"/><path fill="#fff" d="M124.455 103.925c-26.435 0-47.865 21.43-47.865 47.865 0 26.435 21.43 47.865 47.865 47.865 26.435 0 47.865-21.43 47.865-47.865 0-26.435-21.43-47.865-47.865-47.865Zm12.67 55.17-12.67 7.32-12.67-7.32v-14.63l12.67-7.305 12.67 7.305v14.63Z"/><path fill="#222" d="M124.455 201.034c-27.155 0-49.245-22.09-49.245-49.245 0-27.155 22.09-49.245 49.245-49.245 27.155 0 49.245 22.09 49.245 49.245 0 27.155-22.09 49.245-49.245 49.245Zm0-95.725c-25.63 0-46.48 20.85-46.48 46.48 0 25.63 20.85 46.48 46.48 46.48 25.63 0 46.48-20.85 46.48-46.48 0-25.63-20.85-46.48-46.48-46.48Z"/><path fill="#222" d="M124.454 167.8c-.24 0-.475-.06-.69-.185l-12.67-7.315a1.375 1.375 0 0 1-.69-1.195v-14.63c0-.495.265-.95.69-1.195l12.67-7.315c.43-.245.955-.245 1.385 0l12.67 7.315c.43.245.69.705.69 1.195v14.63c0 .495-.265.95-.69 1.195l-12.67 7.315a1.374 1.374 0 0 1-.69.185h-.005Zm-11.29-9.495 11.29 6.515 11.29-6.515V145.27l-11.29-6.515-11.29 6.515v13.035Z"/><path fill="#222" d="M111.784 160.485a1.38 1.38 0 0 1-1.38-1.385v-53.425c0-.765.62-1.385 1.38-1.385.76 0 1.38.62 1.38 1.385V159.1c0 .765-.62 1.385-1.38 1.385Z"/><path fill="#222" d="M124.455 167.799c-.235 0-.47-.06-.69-.185l-45.845-26.47a1.38 1.38 0 0 1-.505-1.89 1.38 1.38 0 0 1 1.89-.505l45.845 26.47c.66.38.89 1.225.505 1.89-.255.445-.72.69-1.2.69Z"/><path fill="#222" d="M90.935 187.154c-.48 0-.945-.25-1.2-.69a1.388 1.388 0 0 1 .505-1.89l46.19-26.665a1.388 1.388 0 0 1 1.89.505c.38.66.155 1.505-.505 1.89l-46.19 26.665c-.22.125-.455.185-.69.185Z"/><path fill="#222" d="M137.125 198.969a1.38 1.38 0 0 1-1.38-1.385v-53.115c0-.765.62-1.385 1.38-1.385.76 0 1.38.62 1.38 1.385v53.115c0 .765-.62 1.385-1.38 1.385Z"/><path fill="#222" d="M170.73 165.259c-.235 0-.47-.06-.69-.185l-46.28-26.72a1.38 1.38 0 0 1-.505-1.89 1.38 1.38 0 0 1 1.89-.505l46.28 26.72c.66.38.89 1.225.505 1.89-.255.445-.72.69-1.2.69Z"/><path fill="#222" d="M111.785 145.854c-.48 0-.945-.25-1.2-.69a1.388 1.388 0 0 1 .505-1.89l46.215-26.685a1.388 1.388 0 0 1 1.89.505c.38.66.155 1.505-.505 1.89l-46.215 26.685c-.22.125-.455.185-.69.185Z"/><path fill="#444" d="M178.527 230.25h-76.53a5.605 5.605 0 0 0-5.605 5.605v65.974a5.606 5.606 0 0 0 5.605 5.606h76.53a5.606 5.606 0 0 0 5.605-5.606v-65.974a5.605 5.605 0 0 0-5.605-5.605Z"/><path fill="#222" d="M178.527 308.82h-76.53c-3.85 0-6.985-3.135-6.985-6.985v-65.98c0-3.85 3.135-6.985 6.985-6.985h76.53c3.85 0 6.985 3.135 6.985 6.985v65.98c0 3.85-3.135 6.985-6.985 6.985Zm-76.53-77.185a4.227 4.227 0 0 0-4.22 4.22v65.98a4.227 4.227 0 0 0 4.22 4.22h76.53a4.227 4.227 0 0 0 4.22-4.22v-65.98a4.227 4.227 0 0 0-4.22-4.22h-76.53Z"/><path fill="#fff" d="M113.507 293.985a1.38 1.38 0 0 1-1.38-1.385v-47.51c0-.765.62-1.385 1.38-1.385.76 0 1.38.62 1.38 1.385v47.51c0 .765-.62 1.385-1.38 1.385ZM135.127 293.985a1.38 1.38 0 0 1-1.38-1.385v-47.51c0-.765.62-1.385 1.38-1.385.76 0 1.38.62 1.38 1.385v47.51c0 .765-.62 1.385-1.38 1.385Z"/><path fill="#fff" d="M135.127 270.229h-21.62a1.38 1.38 0 0 1-1.38-1.385c0-.765.62-1.385 1.38-1.385h21.62c.765 0 1.38.62 1.38 1.385s-.62 1.385-1.38 1.385ZM146.261 293.985a1.38 1.38 0 0 1-1.38-1.385v-47.51c0-.745.59-1.355 1.335-1.38 5.97-.215 11.415 1.775 15.34 5.605 4.64 4.53 6.945 11.24 6.845 19.945-.21 18.14-13.35 24.725-22.135 24.725h-.005Zm1.38-47.515v44.69c7.605-.66 17.815-6.74 17.99-21.93.09-7.92-1.93-13.95-6.01-17.935-3.085-3.01-7.3-4.7-11.975-4.825h-.005Z"/></svg>