<svg xmlns="http://www.w3.org/2000/svg" width="401" height="400" fill="none" viewBox="0 0 401 400"><path fill="#fff" d="M119.636 312.525h214.55v-145.81h-214.55v145.81Z"/><path fill="#222" d="M334.181 313.906h-214.55a1.38 1.38 0 0 1-1.38-1.385v-145.81c0-.765.62-1.385 1.38-1.385h214.55c.765 0 1.385.62 1.385 1.385v145.81c0 .765-.62 1.385-1.385 1.385Zm-213.17-2.765h211.785V168.096h-211.78v143.045h-.005Z"/><path fill="#444" d="M334.181 298.985h-214.55v13.535h214.55v-13.535Z"/><path fill="#222" d="M347.571 338.446H53.421a1.38 1.38 0 0 1-1.38-1.385c0-.765.62-1.385 1.38-1.385h294.15a1.385 1.385 0 1 1 0 2.77Z"/><path fill="#FF3158" d="M119.636 131.76h214.55V79.635h-214.55v52.125Z"/><path fill="#222" d="M334.181 133.14h-214.55a1.38 1.38 0 0 1-1.38-1.385V79.63c0-.765.62-1.385 1.38-1.385h214.55c.765 0 1.385.62 1.385 1.385v52.125c0 .765-.62 1.385-1.385 1.385Zm-213.17-2.765h211.785v-49.36h-211.78v49.36h-.005ZM141.326 179.54a1.38 1.38 0 0 1-1.38-1.385v-25.74c0-.765.62-1.385 1.38-1.385.76 0 1.38.62 1.38 1.385v25.74c0 .765-.62 1.385-1.38 1.385ZM312.486 179.54c-.765 0-1.385-.62-1.385-1.385v-25.74a1.385 1.385 0 1 1 2.77 0v25.74c0 .765-.62 1.385-1.385 1.385Z"/><path fill="#fff" d="m85.576 79.635 10.33-16.7 10.33 16.7v257.431h-20.86l.2-257.43Z"/><path fill="#222" d="M106.236 338.446h-20.86a1.38 1.38 0 0 1-1.385-1.385l.2-257.43c0-.255.07-.51.205-.725l10.33-16.7a1.383 1.383 0 0 1 2.35 0l10.33 16.7c.135.22.205.47.205.725v257.435c0 .765-.62 1.385-1.38 1.385l.005-.005Zm-19.475-2.765h18.095V80.031l-8.945-14.465-8.945 14.465-.2 255.655-.005-.005Z"/><path fill="#fff" d="M347.571 131.761v20.655H53.421v-20.855l294.15.2Z"/><path fill="#222" d="M347.571 153.801H53.421a1.38 1.38 0 0 1-1.38-1.385v-20.86c0-.365.145-.72.405-.98s.61-.405.975-.405l294.155.2c.765 0 1.38.62 1.38 1.385v20.66c0 .765-.62 1.385-1.385 1.385Zm-292.77-2.765h291.39v-17.895l-291.39-.2v18.095Z"/><path fill="#444" d="M85.52 152.416h20.716v-20.82l-20.7-.015-.015 20.835Z"/><path fill="#222" d="M106.236 153.801H85.521a1.38 1.38 0 0 1-1.385-1.385l.015-20.835c0-.765.62-1.38 1.38-1.38l20.7.015c.765 0 1.38.62 1.38 1.385v20.825c0 .765-.62 1.385-1.38 1.385l.005-.01Zm-19.33-2.765h17.95v-18.06l-17.935-.01-.015 18.07ZM219.096 300.37a1.38 1.38 0 0 1-1.38-1.385V222.51c0-.765.62-1.385 1.38-1.385.76 0 1.38.62 1.38 1.385v76.475c0 .765-.62 1.385-1.38 1.385ZM303.326 300.371a1.38 1.38 0 0 1-1.38-1.385v-26.33c0-5.19-3.84-9.415-8.555-9.415s-8.555 4.225-8.555 9.415v26.33c0 .765-.62 1.385-1.38 1.385-.76 0-1.38-.62-1.38-1.385v-26.33c0-6.715 5.08-12.18 11.32-12.18s11.32 5.465 11.32 12.18v26.33c0 .765-.62 1.385-1.38 1.385h-.01Z"/><path fill="#222" d="M290.196 281.07a1.935 1.935 0 1 0 0-3.87 1.935 1.935 0 0 0 0 3.87ZM237.411 227.44v37.26h27.79l28.19-37.26h-55.98Z"/><path fill="#222" d="M265.201 266.08h-27.79a1.38 1.38 0 0 1-1.38-1.385v-37.26c0-.765.62-1.385 1.38-1.385h55.98c.525 0 1.005.295 1.24.765.235.47.18 1.03-.135 1.45l-28.19 37.26c-.26.345-.67.55-1.105.55v.005Zm-26.41-2.765h25.72l26.095-34.49h-51.815v34.49Z"/><path fill="#222" d="M270.096 300.37a1.38 1.38 0 0 1-1.38-1.385v-40.55c0-.765.62-1.385 1.38-1.385.76 0 1.38.62 1.38 1.385v40.55c0 .765-.62 1.385-1.38 1.385Z"/><path fill="#222" d="M265.201 266.081a1.38 1.38 0 0 1-1.105-2.215l28.19-37.26a1.385 1.385 0 0 1 2.21 0l28.17 37.26c.46.61.34 1.475-.27 1.935a1.38 1.38 0 0 1-1.935-.27l-4.78-6.33-22.29-29.47-27.085 35.8c-.27.36-.685.55-1.105.55Z"/><path fill="#222" d="M316.686 300.371c-.765 0-1.385-.62-1.385-1.385v-40.55a1.385 1.385 0 1 1 2.77 0v40.55c0 .765-.62 1.385-1.385 1.385ZM138.296 300.37a1.38 1.38 0 0 1-1.38-1.385v-65.18c0-.765.62-1.385 1.38-1.385.76 0 1.38.62 1.38 1.385v65.18c0 .765-.62 1.385-1.38 1.385Z"/><path fill="#222" d="M132.251 192.55v47.64h76.07l36.1-47.64h-112.17Z"/><path fill="#222" d="M208.321 241.57h-76.07a1.38 1.38 0 0 1-1.38-1.385v-47.64c0-.765.62-1.385 1.38-1.385h112.17c.525 0 1.005.295 1.24.765.235.47.18 1.03-.135 1.45l-36.1 47.64c-.26.345-.67.55-1.1.55l-.005.005Zm-74.69-2.765h74l34.005-44.875H133.631v44.875Z"/><path fill="#222" d="M271.591 232.165c-.435 0-.86-.2-1.13-.58l-27.165-38.235a1.39 1.39 0 0 1 .325-1.93 1.39 1.39 0 0 1 1.93.325l27.165 38.235a1.39 1.39 0 0 1-.325 1.93 1.369 1.369 0 0 1-.8.255ZM242.291 300.37a1.38 1.38 0 0 1-1.38-1.385v-40.55c0-.765.62-1.385 1.38-1.385.76 0 1.38.62 1.38 1.385v40.55c0 .765-.62 1.385-1.38 1.385Z"/><path fill="#222" d="M334.181 300.371h-214.55a1.38 1.38 0 0 1-1.38-1.385c0-.765.62-1.385 1.38-1.385h214.55a1.385 1.385 0 1 1 0 2.77ZM198.096 277.39h-22.045a1.38 1.38 0 0 1-1.38-1.385v-23.3c0-.765.62-1.385 1.38-1.385h22.045c.765 0 1.38.62 1.38 1.385v23.3c0 .765-.62 1.385-1.38 1.385Zm-20.66-2.765h19.28V254.09h-19.28v20.535Z"/><path fill="#222" d="M198.096 265.73h-22.045a1.38 1.38 0 0 1-1.38-1.385c0-.765.62-1.385 1.38-1.385h22.045c.765 0 1.38.62 1.38 1.385s-.62 1.385-1.38 1.385Z"/><path fill="#222" d="M187.076 277.39a1.38 1.38 0 0 1-1.38-1.385v-23.3c0-.765.62-1.385 1.38-1.385.76 0 1.38.62 1.38 1.385v23.3c0 .765-.62 1.385-1.38 1.385ZM205.341 119.69c-13.1 0-22.245-5.75-22.245-13.98s9.15-13.98 22.245-13.98 22.245 5.75 22.245 13.98-9.15 13.98-22.245 13.98Zm0-25.194c-11.29 0-19.48 4.715-19.48 11.214 0 6.5 8.195 11.215 19.48 11.215s19.48-4.715 19.48-11.215-8.195-11.214-19.48-11.214ZM268.061 119.691h-29.975a1.38 1.38 0 0 1-1.38-1.385V93.111c0-.765.62-1.385 1.38-1.385.76 0 1.38.62 1.38 1.385v23.81h28.595c.765 0 1.38.62 1.38 1.385s-.62 1.385-1.38 1.385ZM154.821 119.69c-6.08 0-12.235-.82-16.895-2.25a1.381 1.381 0 0 1 .81-2.64c4.34 1.33 10.35 2.125 16.08 2.125 9.705 0 16.31-2.57 16.395-4.97.115-3.355-8.955-4.31-16.245-5.075-9.39-.985-18.26-1.92-18.015-7.52.23-5.27 9.785-7.625 19.155-7.625 4.88 0 9.825.83 13.57 2.28a1.385 1.385 0 0 1 .79 1.79 1.381 1.381 0 0 1-1.79.79c-3.39-1.31-8.085-2.095-12.57-2.095-9.675 0-16.29 2.575-16.395 4.98-.13 3.005 8.56 3.915 15.545 4.65 9.73 1.025 18.92 1.99 18.72 7.92-.18 5.28-9.75 7.64-19.155 7.64ZM282.846 119.691c-.96 0-1.94-.01-2.935-.03a1.384 1.384 0 0 1-1.355-1.38v-25.18c0-.755.61-1.376 1.365-1.38 17.835-.206 29.34 2.21 34.19 7.184 1.925 1.971 2.845 4.346 2.745 7.046-.32 8.675-12.97 13.745-34.015 13.745l.005-.005Zm-1.52-2.775c19.705.22 32.515-4.08 32.775-11.075.07-1.945-.57-3.585-1.965-5.015-4.125-4.23-14.75-6.41-30.81-6.365v22.455Z"/><path fill="#DADADA" d="M243.841 220.925h31.815l-24.805-34.9-25.32 33.41-10.78 14.23h-70.025v58.79h103.99v-34.28h-4.88V220.92l.005.005Zm-39.325 36.905v11.645h-22.03V246.18h22.03v11.65ZM299.816 220.925l23.395 30.925-.105.06v40.545h-13.365V266.14c0-5.98-4.45-10.8-9.93-10.8-5.48 0-9.95 4.82-9.95 10.8v26.315h-13.345V251.91l-.105-.085 23.395-30.905.01.005Z" style="mix-blend-mode:multiply"/></svg>