<svg xmlns="http://www.w3.org/2000/svg" width="400" height="401" fill="none" viewBox="0 0 400 401"><path fill="#fff" d="M127.947 301.01h191.18V171.08h-191.18v129.93Z"/><path fill="#222" d="M319.126 302.395h-191.18a1.38 1.38 0 0 1-1.38-1.385V171.085c0-.765.62-1.385 1.38-1.385h191.18c.765 0 1.38.62 1.38 1.385v129.93c0 .765-.62 1.385-1.38 1.385v-.005Zm-189.8-2.765h188.415V172.465H129.326V299.63Z"/><path fill="#444" d="M319.125 288.949h-191.18v12.06h191.18v-12.06Z"/><path fill="#FF3158" d="M127.947 139.939h191.18V93.495h-191.18v46.444Z"/><path fill="#222" d="M319.126 141.319h-191.18a1.38 1.38 0 0 1-1.38-1.385V93.49c0-.765.62-1.385 1.38-1.385h191.18c.765 0 1.38.62 1.38 1.385v46.444c0 .765-.62 1.385-1.38 1.385Zm-189.8-2.765h188.415v-43.68H129.326v43.68ZM147.276 182.664a1.38 1.38 0 0 1-1.38-1.385v-22.94c0-.765.62-1.385 1.38-1.385.76 0 1.38.62 1.38 1.385v22.94c0 .765-.62 1.385-1.38 1.385ZM299.796 182.664a1.38 1.38 0 0 1-1.38-1.385v-22.94c0-.765.62-1.385 1.38-1.385.76 0 1.38.62 1.38 1.385v22.94c0 .765-.62 1.385-1.38 1.385Z"/><path fill="#fff" d="m97.6 93.49 9.206-14.88 9.205 14.88v229.389h-18.59l.18-229.39Z"/><path fill="#222" d="M116.011 324.26H97.426a1.38 1.38 0 0 1-1.385-1.385l.18-229.39c0-.255.07-.51.205-.725l9.205-14.88a1.383 1.383 0 0 1 2.35 0l9.205 14.88c.135.22.205.47.205.725v229.39c0 .765-.62 1.385-1.38 1.385Zm-17.205-2.765h15.82V93.885l-7.82-12.645-7.82 12.645-.175 227.61h-.005Z"/><path fill="#fff" d="M331.056 139.934v18.41H68.946v-18.585l262.11.175Z"/><path fill="#222" d="M331.056 159.729H68.946a1.38 1.38 0 0 1-1.38-1.385v-18.585c0-.365.145-.72.405-.98s.61-.405.975-.405l262.115.18c.765 0 1.38.62 1.38 1.385v18.41c0 .765-.62 1.385-1.38 1.385l-.005-.005Zm-260.73-2.765h259.35v-15.645l-259.35-.175v15.82Z"/><path fill="#DADADA" d="M97.55 158.344h18.461v-18.555l-18.445-.01-.015 18.565Z"/><path fill="#222" d="M116.011 159.729h-18.46a1.38 1.38 0 0 1-1.385-1.385l.015-18.565c0-.765.62-1.38 1.38-1.38l18.445.015c.765 0 1.38.62 1.38 1.385v18.555c0 .765-.62 1.385-1.38 1.385l.005-.01Zm-17.075-2.765h15.695v-15.79l-15.68-.01-.01 15.8h-.005ZM216.576 290.335a1.38 1.38 0 0 1-1.38-1.385v-68.145c0-.765.62-1.385 1.38-1.385.76 0 1.38.62 1.38 1.385v68.145c0 .765-.62 1.385-1.38 1.385ZM291.631 290.334a1.38 1.38 0 0 1-1.38-1.385v-23.46c0-4.545-3.355-8.24-7.475-8.24-4.12 0-7.475 3.695-7.475 8.24v23.46c0 .765-.62 1.385-1.38 1.385-.76 0-1.38-.62-1.38-1.385v-23.46c0-6.07 4.595-11.005 10.24-11.005 5.645 0 10.235 4.935 10.235 11.005v23.46c0 .765-.62 1.385-1.38 1.385h-.005Z"/><path fill="#222" d="M279.93 272.985a1.725 1.725 0 1 0 0-3.45 1.725 1.725 0 0 0 0 3.45ZM232.895 225.199v33.195h24.765l25.115-33.195h-49.88Z"/><path fill="#222" d="M257.66 259.78h-24.765a1.38 1.38 0 0 1-1.38-1.385v-33.2c0-.765.62-1.385 1.38-1.385h49.88c.525 0 1.005.295 1.24.765.235.47.18 1.03-.135 1.45l-25.12 33.2c-.26.345-.67.55-1.105.55l.005.005Zm-23.38-2.765h22.695L280 226.58h-45.72v30.435Z"/><path fill="#222" d="M262.021 290.335a1.38 1.38 0 0 1-1.38-1.385v-36.135c0-.765.62-1.385 1.38-1.385.76 0 1.38.62 1.38 1.385v36.135c0 .765-.62 1.385-1.38 1.385Z"/><path fill="#222" d="M257.655 259.779a1.38 1.38 0 0 1-1.105-2.215l25.12-33.2a1.385 1.385 0 0 1 2.21 0l25.105 33.2c.46.61.34 1.475-.27 1.935a1.38 1.38 0 0 1-1.935-.27l-24-31.74-24.015 31.74c-.27.36-.685.55-1.105.55h-.005Z"/><path fill="#222" d="M303.53 290.335a1.38 1.38 0 0 1-1.38-1.385v-36.135c0-.765.62-1.385 1.38-1.385.76 0 1.38.62 1.38 1.385v36.135c0 .765-.62 1.385-1.38 1.385ZM144.576 290.334a1.38 1.38 0 0 1-1.38-1.385v-58.08c0-.765.62-1.385 1.38-1.385.76 0 1.38.62 1.38 1.385v58.08c0 .765-.62 1.385-1.38 1.385Z"/><path fill="#222" d="M139.19 194.104v42.45h67.785l32.165-42.45h-99.95Z"/><path fill="#222" d="M206.976 237.94h-67.785a1.38 1.38 0 0 1-1.38-1.385v-42.45c0-.765.62-1.385 1.38-1.385h99.95c.525 0 1.005.295 1.24.765.235.47.18 1.03-.135 1.45l-32.165 42.45c-.26.345-.67.55-1.1.55l-.005.005Zm-66.4-2.765h65.715l30.07-39.685h-95.785v39.685Z"/><path fill="#222" d="M263.351 229.56c-.43 0-.86-.2-1.13-.58l-24.205-34.07a1.39 1.39 0 0 1 .325-1.93 1.39 1.39 0 0 1 1.93.325l24.205 34.07a1.39 1.39 0 0 1-.325 1.93c-.245.175-.52.255-.8.255ZM237.241 290.335a1.38 1.38 0 0 1-1.38-1.385v-36.135c0-.765.62-1.385 1.38-1.385.76 0 1.38.62 1.38 1.385v36.135c0 .765-.62 1.385-1.38 1.385Z"/><path fill="#222" d="M319.127 290.335h-191.18a1.38 1.38 0 0 1-1.38-1.385c0-.765.62-1.385 1.38-1.385h191.18c.765 0 1.38.62 1.38 1.385s-.62 1.385-1.38 1.385ZM197.862 269.855h-19.64a1.38 1.38 0 0 1-1.38-1.385v-20.76c0-.765.62-1.385 1.38-1.385h19.64c.765 0 1.38.62 1.38 1.385v20.76c0 .765-.62 1.385-1.38 1.385Zm-18.26-2.765h16.875v-17.995h-16.875v17.995Z"/><path fill="#222" d="M197.862 259.465h-19.64a1.38 1.38 0 0 1-1.38-1.385c0-.765.62-1.385 1.38-1.385h19.64c.765 0 1.38.62 1.38 1.385s-.62 1.385-1.38 1.385Z"/><path fill="#222" d="M188.042 269.855a1.38 1.38 0 0 1-1.38-1.385v-20.76c0-.765.62-1.385 1.38-1.385.76 0 1.38.62 1.38 1.385v20.76c0 .765-.62 1.385-1.38 1.385ZM204.316 129.334c-11.76 0-19.975-5.185-19.975-12.605 0-7.42 8.215-12.605 19.975-12.605 11.76 0 19.975 5.185 19.975 12.605 0 7.42-8.215 12.605-19.975 12.605Zm0-22.45c-9.97 0-17.21 4.14-17.21 9.84s7.235 9.84 17.21 9.84c9.975 0 17.21-4.14 17.21-9.84s-7.235-9.84-17.21-9.84ZM260.206 129.334h-26.71a1.38 1.38 0 0 1-1.38-1.385v-22.45c0-.765.62-1.385 1.38-1.385.76 0 1.38.62 1.38 1.385v21.065h25.33c.765 0 1.38.62 1.38 1.385s-.62 1.385-1.38 1.385ZM159.301 129.334c-5.43 0-10.935-.735-15.095-2.01a1.382 1.382 0 1 1 .815-2.64c3.855 1.18 9.195 1.89 14.285 1.89 8.56 0 14.385-2.215 14.455-4.285.095-2.85-7.91-3.69-14.34-4.37-8.44-.885-16.41-1.725-16.19-6.86.21-4.795 8.8-6.94 17.22-6.94 4.365 0 8.79.745 12.145 2.04a1.385 1.385 0 0 1 .79 1.79 1.385 1.385 0 0 1-1.79.79c-3-1.16-7.17-1.855-11.145-1.855-8.535 0-14.37 2.22-14.46 4.295-.11 2.535 7.88 3.375 13.715 3.99 8.745.92 17 1.785 16.815 7.21-.165 4.805-8.77 6.955-17.22 6.955ZM273.371 129.334c-.855 0-1.725-.01-2.61-.03a1.384 1.384 0 0 1-1.355-1.38v-22.44c0-.755.61-1.375 1.365-1.38 15.925-.19 26.225 1.985 30.575 6.45 1.745 1.79 2.58 3.94 2.49 6.39-.29 7.825-11.62 12.39-30.47 12.39h.005Zm-1.195-2.77c17.375.17 28.675-3.6 28.905-9.725.06-1.69-.495-3.115-1.71-4.355-2.53-2.595-9.23-5.625-26.735-5.625h-.46v19.705Z"/><path fill="#DADADA" d="M238.626 219.39h28.35l-22.1-31.095-22.56 29.77-9.605 12.68h-62.395v52.385h92.665v-30.545h-4.35v-33.2l-.005.005Zm-35.04 32.885v10.38h-19.63V241.9h19.63v10.38-.005ZM288.506 219.39l20.85 27.56-.09.055v36.13h-11.91V259.69c0-5.325-3.965-9.62-8.85-9.62s-8.865 4.295-8.865 9.62v23.445h-11.89v-36.13l-.09-.075 20.85-27.54h-.005Z" style="mix-blend-mode:multiply"/></svg>