<svg xmlns="http://www.w3.org/2000/svg" width="400" height="401" fill="none" viewBox="0 0 400 401"><path fill="#fff" d="M319.15 171.1h-191.2v129.95h191.2V171.1Z"/><path fill="#DADADA" d="M238.6 219.401H267l-22.1-31.1-22.55 29.75-9.65 12.7h-62.4v52.4H243v-30.55h-4.35l-.05-33.2Zm-35 32.9v10.4h-19.65v-20.75h19.65v10.35ZM288.5 219.4l20.85 27.55-.1.05v36.15h-11.9V259.7c0-5.3-3.95-9.6-8.85-9.6-4.9 0-8.85 4.3-8.85 9.6v23.45h-11.9V247l-.1-.05 20.85-27.55Z"/><path fill="#222" d="M319.1 302.4H127.95c-.75 0-1.4-.6-1.4-1.4V171.1c0-.75.6-1.4 1.4-1.4h191.2c.75 0 1.4.6 1.4 1.4v129.95c-.05.75-.65 1.35-1.45 1.35Zm-189.8-2.75h188.4v-127.2H129.3v127.2Z"/><path fill="#444" d="M319.15 288.95h-191.2V301h191.2v-12.05Z"/><path fill="#FF3158" d="M319.15 93.5h-191.2v46.45h191.2V93.5Z"/><path fill="#222" d="M319.1 141.3H127.95c-.75 0-1.4-.6-1.4-1.4V93.45c0-.75.6-1.4 1.4-1.4h191.2c.75 0 1.4.6 1.4 1.4v46.45c-.05.8-.65 1.4-1.45 1.4Zm-189.8-2.75h188.4v-43.7H129.3v43.7ZM147.25 182.65c-.75 0-1.4-.6-1.4-1.4V158.3c0-.75.6-1.4 1.4-1.4.8 0 1.4.6 1.4 1.4v22.95c0 .8-.6 1.4-1.4 1.4ZM299.8 182.65c-.75 0-1.4-.6-1.4-1.4V158.3c0-.75.6-1.4 1.4-1.4.8 0 1.4.6 1.4 1.4v22.95c0 .8-.65 1.4-1.4 1.4Z"/><path fill="#fff" d="m97.6 93.5 9.2-14.9 9.2 14.9v229.4H97.4l.2-229.4Z"/><path fill="#222" d="M116 324.25H97.4c-.35 0-.7-.15-1-.4-.3-.25-.4-.6-.4-1l.2-229.4c0-.25.05-.5.2-.7l9.2-14.9c.25-.4.7-.65 1.2-.65s.95.25 1.2.65l9.2 14.9c.15.2.2.45.2.7v229.4c0 .8-.65 1.4-1.4 1.4Zm-17.2-2.75h15.8V93.9l-7.8-12.65L99 93.9l-.2 227.6Z"/><path fill="#fff" d="M331.05 139.95v18.4H68.95v-18.6l262.1.2Z"/><path fill="#222" d="M331.05 159.751H68.95c-.75 0-1.4-.6-1.4-1.4v-18.6c0-.35.15-.7.4-1 .25-.3.6-.4.95-.4l262.1.2c.75 0 1.4.6 1.4 1.4v18.4c.05.75-.6 1.4-1.35 1.4Zm-260.75-2.8h259.35v-15.65l-259.35-.2v15.85Z"/><path fill="#444" d="M97.55 158.351H116v-18.55H97.55v18.55Z"/><path fill="#222" d="M116 159.75H97.55c-.35 0-.7-.15-1-.4-.3-.25-.4-.6-.4-1V139.8c0-.75.6-1.4 1.4-1.4H116c.75 0 1.4.6 1.4 1.4v18.55c0 .75-.65 1.4-1.4 1.4Zm-17.05-2.8h15.7v-15.8h-15.7v15.8ZM216.55 290.35c-.75 0-1.4-.6-1.4-1.4V220.8c0-.75.6-1.4 1.4-1.4.8 0 1.4.6 1.4 1.4v68.15c0 .75-.6 1.4-1.4 1.4ZM291.65 290.35c-.75 0-1.4-.6-1.4-1.4V265.5c0-4.55-3.35-8.25-7.5-8.25s-7.5 3.7-7.5 8.25v23.45c0 .75-.6 1.4-1.4 1.4-.8 0-1.4-.6-1.4-1.4V265.5c0-6.05 4.6-11 10.25-11s10.25 4.95 10.25 11v23.45c.05.75-.55 1.4-1.3 1.4Z"/><path fill="#222" d="M279.95 273a1.75 1.75 0 1 0-.001-3.501 1.75 1.75 0 0 0 .001 3.501ZM232.9 225.199v33.2h24.75l25.1-33.2H232.9Z"/><path fill="#222" d="M257.65 259.799H232.9c-.75 0-1.4-.6-1.4-1.4v-33.2c0-.75.6-1.4 1.4-1.4h49.9c.5 0 1 .3 1.25.75s.2 1.05-.15 1.45l-25.15 33.25c-.25.35-.65.55-1.1.55Zm-23.35-2.8H257l23-30.45h-45.7v30.45Z"/><path fill="#222" d="M262 290.349c-.75 0-1.4-.6-1.4-1.4v-36.15c0-.75.6-1.4 1.4-1.4.8 0 1.4.6 1.4 1.4v36.15c0 .75-.6 1.4-1.4 1.4Z"/><path fill="#222" d="M257.65 259.799c-.3 0-.6-.1-.85-.3-.6-.45-.75-1.35-.25-1.95l25.1-33.2c.25-.35.65-.55 1.1-.55.45 0 .85.2 1.1.55l25.1 33.2c.45.6.35 1.5-.25 1.95-.6.45-1.5.35-1.95-.25l-24-31.75-24 31.75c-.25.35-.65.55-1.1.55Z"/><path fill="#222" d="M303.55 290.348c-.75 0-1.4-.6-1.4-1.4v-36.15c0-.75.6-1.4 1.4-1.4.8 0 1.4.6 1.4 1.4v36.15c-.05.75-.65 1.4-1.4 1.4ZM144.55 290.35c-.75 0-1.4-.6-1.4-1.4v-58.1c0-.75.6-1.4 1.4-1.4.8 0 1.4.6 1.4 1.4v58.1c0 .75-.6 1.4-1.4 1.4Z"/><path fill="#222" d="M139.2 194.1v42.45H207l32.15-42.45H139.2Z"/><path fill="#222" d="M207 237.95h-67.8c-.75 0-1.4-.6-1.4-1.4V194.1c0-.75.6-1.4 1.4-1.4h99.95c.5 0 1 .3 1.25.75s.2 1.05-.15 1.45l-32.15 42.45c-.3.4-.7.6-1.1.6Zm-66.4-2.75h65.7l30.05-39.7H140.6v39.7Z"/><path fill="#222" d="M263.35 229.55c-.45 0-.85-.2-1.15-.6L238 194.9c-.45-.6-.3-1.5.3-1.95.6-.45 1.5-.3 1.95.3l24.2 34.05c.45.6.3 1.5-.35 1.95-.2.25-.45.3-.75.3ZM237.25 290.35c-.75 0-1.4-.6-1.4-1.4V252.8c0-.75.6-1.4 1.4-1.4.8 0 1.4.6 1.4 1.4v36.15c-.05.75-.65 1.4-1.4 1.4Z"/><path fill="#222" d="M319.1 290.35H127.95c-.75 0-1.4-.6-1.4-1.4 0-.8.6-1.4 1.4-1.4h191.2c.75 0 1.4.6 1.4 1.4 0 .8-.65 1.4-1.45 1.4ZM197.85 269.85H178.2c-.75 0-1.4-.6-1.4-1.4V247.7c0-.75.6-1.4 1.4-1.4h19.65c.75 0 1.4.6 1.4 1.4v20.75c0 .8-.65 1.4-1.4 1.4Zm-18.25-2.75h16.9v-18h-16.9v18Z"/><path fill="#222" d="M197.85 259.45H178.2c-.75 0-1.4-.6-1.4-1.4 0-.8.6-1.4 1.4-1.4h19.65c.75 0 1.4.6 1.4 1.4 0 .8-.65 1.4-1.4 1.4Z"/><path fill="#222" d="M188.05 269.85c-.75 0-1.4-.6-1.4-1.4V247.7c0-.75.6-1.4 1.4-1.4.8 0 1.4.6 1.4 1.4v20.75c-.05.8-.65 1.4-1.4 1.4ZM204.3 129.35c-11.75 0-20-5.2-20-12.6 0-7.4 8.2-12.6 20-12.6s20 5.2 20 12.6c0 7.4-8.2 12.6-20 12.6Zm0-22.45c-9.95 0-17.2 4.15-17.2 9.85 0 5.7 7.25 9.85 17.2 9.85s17.2-4.15 17.2-9.85c0-5.7-7.2-9.85-17.2-9.85ZM260.2 129.351h-26.7c-.75 0-1.4-.6-1.4-1.4v-22.45c0-.75.6-1.4 1.4-1.4.8 0 1.4.6 1.4 1.4v21.05h25.35c.75 0 1.4.6 1.4 1.4 0 .8-.7 1.4-1.45 1.4ZM159.3 129.351c-5.45 0-10.95-.75-15.1-2-.75-.2-1.15-1-.9-1.7.25-.75 1-1.15 1.75-.9 3.85 1.2 9.2 1.9 14.3 1.9 8.55 0 14.4-2.2 14.45-4.3.1-2.85-7.9-3.7-14.35-4.35-8.45-.9-16.4-1.7-16.2-6.85.2-4.8 8.8-6.95 17.2-6.95 4.35 0 8.8.75 12.15 2.05.7.3 1.05 1.05.8 1.8-.25.7-1.05 1.05-1.8.8-3-1.15-7.15-1.85-11.15-1.85-8.55 0-14.35 2.2-14.45 4.3-.1 2.55 7.9 3.4 13.7 4 8.75.9 17 1.8 16.8 7.2-.15 4.7-8.75 6.85-17.2 6.85ZM273.35 129.351c-.85 0-1.75 0-2.6-.05-.75 0-1.35-.65-1.35-1.4v-22.45c0-.75.6-1.4 1.35-1.4 15.9-.2 26.25 2 30.6 6.45 1.75 1.8 2.6 3.95 2.5 6.4-.3 7.85-11.65 12.45-30.5 12.45Zm-1.2-2.8c17.4.15 28.65-3.6 28.9-9.7.05-1.7-.5-3.1-1.7-4.35-2.55-2.6-9.25-5.6-26.75-5.6h-.45v19.65Z"/></svg>