<svg xmlns="http://www.w3.org/2000/svg" width="401" height="401" fill="none" viewBox="0 0 401 401"><path fill="#444" d="M223.15 258.909H27.865l51.04-52.334H274.19l-51.04 52.334Z"/><path fill="#222" d="M223.15 260.204H27.865c-.554 0-1.11-.37-1.294-.924-.185-.555-.185-1.11.37-1.48l51.04-52.334c.185-.185.555-.37.925-.37H274.19c.555 0 1.11.37 1.294.924.185.555.185 1.11-.369 1.48l-51.041 52.334c-.185.37-.554.37-.924.37ZM31.194 257.43h191.401l48.266-49.56h-191.4l-48.267 49.56Z"/><path fill="#222" d="M223.15 213.417H27.865l51.04-52.335H274.19l-51.04 52.335Z"/><path fill="#222" d="M223.15 214.712H27.865a1.39 1.39 0 0 1-1.294-.925c-.185-.555-.185-1.11.37-1.479l51.04-52.335c.185-.185.555-.37.925-.37H274.19c.555 0 1.11.37 1.294.925.185.554.185 1.109-.369 1.479l-51.041 52.335a1.41 1.41 0 0 1-.924.37Zm-191.956-2.774h191.401l48.266-49.561h-191.4l-48.267 49.561Z"/><path fill="#fff" d="M221.472 201.664c1.838-3.184 1.321-6.924-1.155-8.354-2.477-1.43-5.975-.008-7.813 3.176-1.839 3.184-1.321 6.925 1.155 8.354 2.477 1.43 5.975.008 7.813-3.176ZM247.38 176.769c1.839-3.184 1.322-6.924-1.155-8.354-2.476-1.43-5.974-.008-7.813 3.176-1.838 3.184-1.321 6.925 1.156 8.354 2.476 1.43 5.974.008 7.812-3.176ZM216.188 176.893c1.839-3.184 1.321-6.924-1.155-8.354-2.477-1.43-5.975-.008-7.813 3.176s-1.321 6.925 1.155 8.354c2.477 1.43 5.975.008 7.813-3.176ZM190.759 195.245c1.838-3.184 1.321-6.925-1.156-8.355-2.476-1.429-5.974-.007-7.812 3.177-1.839 3.184-1.322 6.924 1.155 8.354 2.476 1.43 5.974.008 7.813-3.176ZM159.791 202.787c1.839-3.184 1.321-6.925-1.155-8.355-2.477-1.429-5.975-.007-7.813 3.177s-1.321 6.924 1.156 8.354c2.476 1.43 5.974.008 7.812-3.176ZM175.872 176.882c1.839-3.184 1.322-6.925-1.155-8.354-2.477-1.43-5.974-.008-7.813 3.176-1.838 3.184-1.321 6.924 1.156 8.354 2.476 1.43 5.974.008 7.812-3.176ZM145.255 183.11c1.839-3.184 1.321-6.925-1.155-8.354-2.477-1.43-5.975-.008-7.813 3.176s-1.321 6.924 1.156 8.354c2.476 1.43 5.974.008 7.812-3.176ZM121.524 201.661c1.838-3.184 1.321-6.924-1.155-8.354-2.477-1.43-5.975-.008-7.813 3.176-1.839 3.184-1.321 6.925 1.155 8.355 2.477 1.429 5.975.007 7.813-3.177ZM119.768 175.306c1.838-3.184 1.321-6.925-1.156-8.355-2.476-1.429-5.974-.007-7.813 3.177-1.838 3.184-1.321 6.924 1.156 8.354 2.476 1.43 5.974.008 7.813-3.176ZM93.06 196.231c1.838-3.184 1.321-6.924-1.155-8.354-2.477-1.43-5.975-.008-7.813 3.176-1.839 3.184-1.321 6.924 1.155 8.354 2.477 1.43 5.975.008 7.813-3.176ZM63.713 202.907c1.838-3.184 1.32-6.925-1.156-8.355-2.476-1.429-5.974-.007-7.813 3.177-1.838 3.184-1.32 6.924 1.156 8.354 2.476 1.43 5.974.008 7.813-3.176ZM87.439 175.36c1.838-3.184 1.32-6.925-1.156-8.354-2.476-1.43-5.974-.008-7.813 3.176-1.838 3.184-1.32 6.924 1.156 8.354 2.476 1.43 5.974.008 7.813-3.176Z"/><path fill="#FF3158" d="M223.15 167.925H27.865l51.04-52.335H274.19l-51.04 52.335Z"/><path fill="#222" d="M223.15 169.219H27.865c-.554 0-1.11-.369-1.294-.924-.185-.555-.185-1.11.37-1.48l51.04-52.334c.185-.185.555-.37.925-.37H274.19c.555 0 1.11.37 1.294.924.185.555.185 1.11-.369 1.48l-51.041 52.335a1.41 1.41 0 0 1-.924.369Zm-191.956-2.773h191.401l48.266-49.561h-191.4l-48.267 49.561Z"/><path fill="#222" d="M55.05 169.219c-.37 0-.74-.185-.925-.37a1.45 1.45 0 0 1 0-2.034l51.04-52.334a1.45 1.45 0 0 1 2.034 0 1.45 1.45 0 0 1 0 2.034l-51.225 52.334c-.185.37-.555.37-.924.37ZM82.419 169.219c-.37 0-.74-.185-.925-.37a1.451 1.451 0 0 1 0-2.034l51.041-52.334a1.45 1.45 0 0 1 2.034 0 1.45 1.45 0 0 1 0 2.034l-51.225 52.334c-.185.37-.555.37-.925.37ZM109.788 169.219c-.369 0-.739-.185-.924-.37a1.45 1.45 0 0 1 0-2.034l51.04-52.334a1.45 1.45 0 0 1 2.034 0 1.45 1.45 0 0 1 0 2.034l-51.225 52.334c-.37.37-.555.37-.925.37ZM137.158 169.219c-.37 0-.74-.185-.925-.37a1.452 1.452 0 0 1 0-2.034l51.041-52.334a1.45 1.45 0 0 1 2.034 0 1.45 1.45 0 0 1 0 2.034l-51.225 52.334c-.37.37-.555.37-.925.37ZM164.527 169.219c-.369 0-.739-.185-.924-.37a1.45 1.45 0 0 1 0-2.034l51.04-52.334a1.45 1.45 0 0 1 2.034 0 1.45 1.45 0 0 1 0 2.034l-51.225 52.334c-.37.37-.555.37-.925.37ZM191.897 169.219c-.37 0-.74-.185-.925-.37a1.45 1.45 0 0 1 0-2.034l51.04-52.334a1.45 1.45 0 0 1 2.034 0 1.45 1.45 0 0 1 0 2.034l-51.225 52.334c-.37.37-.555.37-.924.37Z"/><path fill="#222" d="M258.471 132.973H63.741c-.74 0-1.48-.554-1.48-1.479s.555-1.479 1.48-1.479h194.73c.739 0 1.479.554 1.479 1.479s-.555 1.479-1.479 1.479ZM242.937 149.987H48.022c-.74 0-1.48-.555-1.48-1.479 0-.925.556-1.48 1.48-1.48h194.915c.739 0 1.479.555 1.479 1.48 0 .924-.74 1.479-1.479 1.479Z"/><path fill="#444" d="m50.426 250.588 6.288-3.698 4.253 3.698 5.918-3.698 4.253 3.698 5.178-3.698 4.254 3.698"/><path fill="#222" d="M50.426 252.068c-.554 0-.924-.185-1.11-.74-.369-.74-.184-1.479.37-1.849l6.288-3.884c.555-.37 1.295-.185 1.665.185l3.328 3.144 4.993-3.329c.555-.37 1.295-.37 1.665.185l3.328 3.144 4.254-3.144c.555-.37 1.294-.37 1.664 0l4.254 3.884c.554.554.554 1.479.184 2.034-.554.555-1.479.555-2.034.185l-3.329-3.144-4.253 3.144c-.555.37-1.294.37-1.85-.185l-3.328-3.144-4.993 3.329c-.555.37-1.294.37-1.664-.185l-3.329-3.144-5.363 3.329c-.185 0-.37.185-.74.185Z"/><path fill="#444" d="m80.57 236.533 6.287-3.884 4.069 3.884 5.918-3.884 4.253 3.884 5.178-3.884 4.253 3.884"/><path fill="#222" d="M80.57 238.013c-.555 0-.925-.185-1.11-.74-.37-.739-.185-1.479.37-1.849l6.288-3.884c.554-.369 1.294-.184 1.664.185l3.329 3.144 4.993-3.329c.555-.369 1.294-.369 1.664.185l3.329 3.144 4.253-3.144c.555-.369 1.295-.369 1.665 0l4.438 3.884c.555.555.555 1.479.185 2.034-.555.555-1.48.555-2.034.185l-3.514-3.144-4.253 3.144c-.555.37-1.295.37-1.85-.185l-3.328-3.144-4.994 3.329c-.554.37-1.294.37-1.664-.185l-3.329-3.144-5.362 3.329c-.37 0-.555.185-.74.185Z"/><path fill="#444" d="m114.412 246.89 6.287-3.884 4.069 3.884 5.918-3.884 4.253 3.884 5.178-3.884 4.253 3.884"/><path fill="#222" d="M114.412 248.184c-.555 0-.925-.185-1.11-.739-.37-.74-.185-1.48.37-1.85l6.288-3.883c.554-.37 1.294-.185 1.664.185l3.329 3.144 4.993-3.329c.554-.37 1.294-.37 1.664.185l3.329 3.144 4.253-3.144c.555-.37 1.295-.37 1.664 0l4.254 3.883c.555.555.555 1.48.185 2.035-.555.554-1.48.554-2.034.184l-3.514-3.143-4.253 3.143c-.555.37-1.295.37-1.85-.184l-3.328-3.144-4.993 3.328c-.555.37-1.295.37-1.665-.184l-3.329-3.144-5.362 3.328c0 .185-.37.185-.555.185Z"/><path fill="#444" d="m88.522 217.301 6.287-3.884 4.254 3.884 5.918-3.884 4.068 3.884 5.178-3.884 4.438 3.884"/><path fill="#222" d="M88.522 218.595c-.555 0-.925-.184-1.11-.739-.37-.74-.185-1.48.37-1.85l6.288-3.883c.555-.37 1.11-.185 1.664.185l3.329 3.144 4.993-3.329c.555-.37 1.294-.37 1.664.185l3.329 3.144 4.253-3.144c.555-.37 1.295-.37 1.665 0l4.253 3.883c.555.555.555 1.48.185 2.035-.555.554-1.48.554-2.034.185l-3.514-3.144-4.253 3.144c-.555.369-1.295.369-1.85-.185l-3.328-3.144-4.993 3.329c-.555.369-1.295.369-1.665-.185l-3.329-3.144-5.362 3.329c0 .184-.185.184-.555.184Z"/><path fill="#444" d="m140.302 225.253 6.103-3.884 4.253 3.884 5.918-3.884 4.253 3.884 5.178-3.884 4.253 3.884"/><path fill="#222" d="M140.302 226.547c-.555 0-.925-.185-1.11-.74-.37-.739-.185-1.479.37-1.849l6.288-3.883c.554-.37 1.294-.185 1.664.185l3.329 3.143 4.993-3.328c.555-.37 1.294-.37 1.664.185l3.329 3.143 4.253-3.143c.555-.37 1.295-.37 1.665 0l4.253 3.883c.555.555.555 1.48.185 2.034-.555.555-1.48.555-2.034.185l-3.329-3.144-4.253 3.144c-.555.37-1.295.37-1.85-.185l-3.328-3.143-4.994 3.328c-.554.37-1.294.37-1.664-.185l-3.329-3.143-5.363 3.328c-.369.185-.554.185-.739.185Z"/><path fill="#444" d="m166.007 246.89 6.287-3.884 4.254 3.884 5.917-3.884 4.069 3.884 5.178-3.884 4.438 3.884"/><path fill="#222" d="M166.007 248.184c-.555 0-.925-.185-1.11-.739-.37-.74-.185-1.48.37-1.85l6.287-3.883c.555-.37 1.295-.185 1.665.185l3.328 3.144 4.994-3.329c.554-.37 1.294-.37 1.664.185l3.329 3.144 4.253-3.144c.555-.37 1.294-.37 1.664 0l4.254 3.883c.554.555.554 1.48.185 2.035-.555.554-1.48.554-2.035.184l-3.513-3.143-4.254 3.143c-.554.37-1.294.37-1.849-.184l-3.329-3.144-4.993 3.328c-.554.37-1.294.37-1.664-.184l-3.329-3.144-5.363 3.328c0 .185-.185.185-.554.185Z"/><path fill="#444" d="m192.637 217.301 6.287-3.884 4.254 3.884 5.917-3.884 4.254 3.884 5.178-3.884 4.253 3.884"/><path fill="#222" d="M192.637 218.595c-.555 0-.925-.184-1.11-.739-.37-.74-.185-1.48.37-1.85l6.287-3.883c.555-.37 1.295-.185 1.665.185l3.328 3.144 4.994-3.329c.554-.37 1.294-.37 1.664.185l3.329 3.144 4.253-3.144c.555-.37 1.294-.37 1.664 0l4.254 3.883c.554.555.554 1.48.185 2.035-.555.554-1.48.554-2.035.185l-3.328-3.144-4.254 3.144c-.554.369-1.294.369-1.849-.185l-3.329-3.144-4.993 3.329c-.554.369-1.294.369-1.664-.185l-3.329-3.144-5.363 3.329c-.185.184-.37.184-.739.184Z"/><path fill="#444" d="m202.068 233.389 6.287-3.698 4.254 3.698 5.732-3.698 4.254 3.698 5.178-3.698 4.253 3.698"/><path fill="#222" d="M202.068 234.869c-.555 0-.925-.185-1.11-.74-.37-.739-.185-1.479.37-1.849l6.287-3.884c.555-.369 1.295-.184 1.665.185l3.329 3.144 4.993-3.329c.554-.369 1.294-.369 1.664.185l3.329 3.144 4.253-3.144c.555-.369 1.295-.369 1.664 0l4.254 3.884c.555.555.555 1.479.185 2.034-.555.555-1.48.555-2.035.185l-3.513-3.144-4.254 3.144c-.554.37-1.294.37-1.849-.185l-3.329-3.144-4.993 3.329c-.554.37-1.294.37-1.664-.185l-3.329-3.144-5.363 3.329s-.369.185-.554.185ZM248.855 224.883c-.74 0-1.48-.555-1.48-1.48V180.5c0-.74.555-1.479 1.48-1.479.924 0 1.479.554 1.479 1.479v43.088c0 .74-.74 1.295-1.479 1.295Z"/><path fill="#F5F4F3" d="M248.855 180.5c-64.17 0-116.135 51.964-116.135 116.135h42.903c0-40.5 32.732-73.232 73.232-73.232V180.5Z"/><path fill="#222" d="M175.623 298.114H132.72c-.74 0-1.48-.554-1.48-1.479 0-64.91 52.705-117.614 117.615-117.614.739 0 1.479.554 1.479 1.479v43.088c0 .74-.555 1.48-1.479 1.48-39.575 0-71.753 32.177-71.753 71.752 0 .555-.739 1.294-1.479 1.294Zm-41.609-2.774h40.314c.74-39.944 33.103-72.491 73.232-73.231v-40.315c-62.321.74-112.806 51.226-113.546 113.546Z"/><path fill="#444" d="M248.855 180.5c64.17 0 116.135 51.964 116.135 116.135h-42.904c0-40.5-32.732-73.232-73.231-73.232V180.5Z"/><path fill="#222" d="M365.175 298.114h-42.904c-.739 0-1.479-.554-1.479-1.479 0-39.575-32.178-71.752-71.752-71.752-.74 0-1.48-.555-1.48-1.48V180.5c0-.74.555-1.479 1.48-1.479 64.91 0 117.614 52.704 117.614 117.614-.185.74-.74 1.479-1.479 1.479Zm-41.794-2.774h40.314c-.739-62.135-51.225-112.621-113.361-113.361v40.315c39.945.555 72.307 32.917 73.047 73.046Z"/><path fill="#fff" d="M175.623 296.636c0-40.499 32.732-73.232 73.232-73.232 40.499 0 73.231 32.733 73.231 73.232H175.623Z"/><path fill="#222" d="M322.086 298.115H175.623c-.74 0-1.48-.555-1.48-1.479 0-41.055 33.472-74.527 74.526-74.527 41.055 0 74.527 33.472 74.527 74.527.369.739-.37 1.479-1.11 1.479Zm-144.984-2.774h143.689c-.739-39.02-32.732-70.458-71.752-70.458-39.205 0-71.197 31.438-71.937 70.458Z"/><path fill="#FF3158" d="m194.671 230.061 41.054 67.499c.739 1.849 1.849 3.698 3.143 5.178v.185c.185.185.185.185.185.37 6.658 7.027 17.753 7.397 24.781.739 7.027-6.657 7.397-17.753.739-24.78-1.664-1.849-3.698-3.144-5.917-4.068l-63.985-44.753v-.37Z"/><path fill="#222" d="M251.998 310.135c-4.993 0-10.171-2.034-13.87-5.918l-.184-.185-.185-.37c-1.295-1.664-2.589-3.513-3.329-5.363l-40.869-67.313c-.37-.555-.37-1.295.185-1.85.554-.554 1.479-.554 1.849 0l.185.185 63.8 44.568c2.404 1.11 4.438 2.589 6.288 4.438 7.212 7.582 6.657 19.603-.925 26.63a18.634 18.634 0 0 1-12.945 5.178Zm-11.835-8.137c0 .185 0 .185 0 0 6.287 6.657 16.458 7.027 22.931.925 6.472-6.103 6.842-16.274.74-22.746-1.48-1.665-3.329-2.959-5.363-3.884 0 0-.185 0-.185-.185l-58.808-41.054 37.541 61.766s0 .185.185.185c.74 1.664 1.664 3.329 2.959 4.808-.185.185-.185.185 0 .185Z"/><path fill="#fff" d="M360.921 119.844H297.86v55.478h63.061v-55.478Z"/><path fill="#222" d="M360.921 176.802h-63.06c-.74 0-1.48-.555-1.48-1.479v-55.479c0-.74.555-1.479 1.48-1.479h63.06c.74 0 1.48.555 1.48 1.479v55.479c0 .924-.74 1.479-1.48 1.479Zm-61.766-2.774h60.287v-52.704h-60.287v52.704Z"/><path fill="#FF3158" d="m385.332 109.858-69.903 69.903-42.534-39.759 14.98-11.096 27.554 24.965 53.629-53.629 16.274 9.616Z"/><path fill="#222" d="M315.429 181.055c-.37 0-.74-.185-.925-.369l-42.533-39.76c-.37-.37-.37-.74-.37-1.11 0-.369.185-.739.555-1.109l14.979-10.911c.555-.37 1.294-.37 1.664 0l26.63 23.856 52.52-52.52c.369-.37 1.109-.555 1.664-.185l16.274 9.616c.37.185.554.555.739 1.11.185.555 0 .925-.369 1.11l-69.903 69.903a1.418 1.418 0 0 1-.925.369Zm-40.314-40.869 40.314 37.726 67.684-67.684-13.87-8.137-52.704 52.705c-.555.554-1.295.554-1.85 0l-26.814-24.041-12.76 9.431Z"/></svg>