<svg xmlns="http://www.w3.org/2000/svg" width="400" height="400" fill="none" viewBox="0 0 400 400"><path fill="#fff" d="M222.653 258.16H27.369l51.04-52.335h195.285l-51.041 52.335Z"/><path fill="#222" d="M222.653 259.454H27.369c-.555 0-1.11-.37-1.294-.924-.185-.555-.185-1.11.37-1.48l51.04-52.334c.184-.185.554-.37.924-.37h195.285c.554 0 1.109.37 1.294.924.185.555.185 1.11-.37 1.48l-51.04 52.334c-.185.37-.555.37-.925.37ZM30.698 256.68h191.4l48.267-49.56H78.964l-48.266 49.56Z"/><path fill="#DADADA" d="M222.653 212.668H27.369l51.04-52.335h195.285l-51.041 52.335Z"/><path fill="#222" d="M222.653 213.962H27.369c-.555 0-1.11-.37-1.294-.924-.185-.555-.185-1.11.37-1.48l51.04-52.335c.184-.185.554-.369.924-.369h195.285c.554 0 1.109.369 1.294.924.185.555.185 1.11-.37 1.48l-51.04 52.334c-.185.185-.555.37-.925.37Zm-191.955-2.774h191.4l48.267-49.561H78.964l-48.266 49.561Z"/><path fill="#fff" d="M220.976 200.914c1.838-3.184 1.321-6.924-1.156-8.354-2.476-1.43-5.974-.008-7.813 3.176-1.838 3.184-1.321 6.925 1.156 8.354 2.476 1.43 5.974.008 7.813-3.176ZM246.885 176.019c1.838-3.184 1.321-6.924-1.156-8.354-2.476-1.43-5.974-.008-7.812 3.176-1.839 3.184-1.321 6.925 1.155 8.354 2.477 1.43 5.974.008 7.813-3.176ZM215.692 176.143c1.839-3.184 1.322-6.924-1.155-8.354-2.476-1.43-5.974-.008-7.813 3.176-1.838 3.184-1.321 6.925 1.156 8.354 2.476 1.43 5.974.008 7.812-3.176ZM190.263 194.495c1.838-3.184 1.321-6.925-1.156-8.355-2.476-1.429-5.974-.007-7.812 3.177-1.839 3.184-1.322 6.924 1.155 8.354 2.476 1.43 5.974.008 7.813-3.176ZM159.296 202.036c1.838-3.184 1.321-6.924-1.155-8.354-2.477-1.43-5.975-.008-7.813 3.176-1.839 3.184-1.321 6.925 1.155 8.355 2.477 1.429 5.975.007 7.813-3.177ZM175.377 176.132c1.838-3.184 1.321-6.925-1.155-8.354-2.477-1.43-5.975-.008-7.813 3.176-1.839 3.184-1.321 6.924 1.155 8.354 2.477 1.43 5.975.008 7.813-3.176ZM144.76 182.359c1.838-3.184 1.321-6.924-1.156-8.354-2.476-1.43-5.974-.008-7.812 3.176-1.839 3.185-1.321 6.925 1.155 8.355 2.477 1.43 5.974.008 7.813-3.177ZM121.028 200.912c1.839-3.184 1.322-6.925-1.155-8.355-2.477-1.429-5.974-.007-7.813 3.177-1.838 3.184-1.321 6.924 1.156 8.354 2.476 1.43 5.974.008 7.812-3.176ZM119.273 174.555c1.838-3.184 1.321-6.924-1.156-8.354-2.476-1.43-5.974-.008-7.813 3.176-1.838 3.184-1.321 6.925 1.156 8.355 2.476 1.429 5.974.007 7.813-3.177ZM92.565 195.481c1.838-3.184 1.32-6.924-1.156-8.354-2.476-1.43-5.974-.008-7.813 3.176-1.838 3.184-1.32 6.924 1.156 8.354 2.476 1.43 5.974.008 7.813-3.176ZM63.217 202.157c1.838-3.184 1.321-6.925-1.155-8.355-2.477-1.429-5.975-.007-7.813 3.177-1.839 3.184-1.322 6.924 1.155 8.354 2.477 1.43 5.974.008 7.813-3.176ZM86.942 174.61c1.839-3.184 1.322-6.925-1.155-8.354-2.476-1.43-5.974-.008-7.813 3.176-1.838 3.184-1.32 6.924 1.156 8.354 2.476 1.43 5.974.008 7.813-3.176Z"/><path fill="#FF3158" d="M222.653 167.175H27.369l51.04-52.335h195.285l-51.041 52.335Z"/><path fill="#222" d="M222.653 168.469H27.369c-.555 0-1.11-.369-1.294-.924-.185-.555-.185-1.11.37-1.48l51.04-52.334c.184-.185.554-.37.924-.37h195.285c.554 0 1.109.37 1.294.924.185.555.185 1.11-.37 1.48l-51.04 52.335a1.413 1.413 0 0 1-.925.369Zm-191.955-2.773h191.4l48.267-49.561H78.964l-48.266 49.561Z"/><path fill="#222" d="M54.554 168.47c-.37 0-.74-.185-.925-.37a1.45 1.45 0 0 1 0-2.034l51.04-52.335a1.45 1.45 0 0 1 2.034 0 1.45 1.45 0 0 1 0 2.034L55.478 168.1c-.185.37-.555.37-.924.37ZM81.924 168.47c-.37 0-.74-.185-.925-.37a1.45 1.45 0 0 1 0-2.034l51.04-52.335a1.452 1.452 0 0 1 2.035 0 1.452 1.452 0 0 1 0 2.034L82.848 168.1c-.184.37-.554.37-.924.37ZM109.293 168.47c-.37 0-.74-.185-.925-.37a1.45 1.45 0 0 1 0-2.034l51.04-52.335a1.452 1.452 0 0 1 2.035 0 1.452 1.452 0 0 1 0 2.034L110.218 168.1c-.37.37-.555.37-.925.37ZM136.662 168.47c-.37 0-.74-.185-.925-.37a1.452 1.452 0 0 1 0-2.034l51.041-52.335a1.45 1.45 0 0 1 2.034 0 1.45 1.45 0 0 1 0 2.034L137.587 168.1c-.37.37-.555.37-.925.37ZM164.031 168.47c-.37 0-.74-.185-.924-.37a1.45 1.45 0 0 1 0-2.034l51.04-52.335a1.45 1.45 0 0 1 2.034 0 1.45 1.45 0 0 1 0 2.034L164.956 168.1c-.37.37-.555.37-.925.37ZM191.401 168.47a1.41 1.41 0 0 1-.924-.37 1.45 1.45 0 0 1 0-2.034l51.04-52.335a1.45 1.45 0 0 1 2.034 0 1.45 1.45 0 0 1 0 2.034L192.326 168.1c-.37.37-.555.37-.925.37Z"/><path fill="#222" d="M257.975 132.224H63.245c-.74 0-1.48-.555-1.48-1.479 0-.925.555-1.48 1.48-1.48h194.73c.739 0 1.479.555 1.479 1.48 0 .924-.555 1.479-1.479 1.479ZM242.441 149.237H47.526c-.74 0-1.48-.555-1.48-1.479 0-.925.556-1.48 1.48-1.48h194.915c.739 0 1.479.555 1.479 1.48 0 .924-.74 1.479-1.479 1.479Z"/><path fill="#444" d="m49.93 249.838 6.288-3.698 4.254 3.698 5.917-3.698 4.254 3.698 5.178-3.698 4.253 3.698"/><path fill="#222" d="M49.93 251.318c-.554 0-.924-.185-1.109-.74-.37-.74-.185-1.479.37-1.849l6.288-3.884c.554-.37 1.294-.185 1.664.185l3.329 3.144 4.993-3.329c.555-.37 1.294-.37 1.664.185l3.329 3.144 4.253-3.144c.555-.37 1.295-.37 1.665 0l4.253 3.884c.555.554.555 1.479.185 2.034-.555.555-1.48.555-2.034.185l-3.329-3.144-4.253 3.144c-.555.37-1.295.37-1.85-.185l-3.328-3.144-4.993 3.329c-.555.37-1.295.37-1.665-.185l-3.329-3.144-5.362 3.329c-.185 0-.37.185-.74.185Z"/><path fill="#444" d="m80.074 235.783 6.288-3.883 4.068 3.883 5.918-3.883 4.253 3.883 5.178-3.883 4.254 3.883"/><path fill="#222" d="M80.074 237.263c-.554 0-.924-.185-1.11-.74-.369-.739-.184-1.479.37-1.849l6.288-3.884c.555-.369 1.295-.184 1.665.185l3.328 3.144 4.993-3.329c.555-.369 1.295-.369 1.665.185l3.328 3.144 4.254-3.144c.555-.369 1.294-.369 1.664 0l4.438 3.884c.555.555.555 1.479.185 2.034-.554.555-1.479.555-2.034.185l-3.513-3.144-4.254 3.144c-.555.37-1.294.37-1.85-.185l-3.328-3.144-4.993 3.329c-.555.37-1.294.37-1.664-.185l-3.329-3.144-5.363 3.329c-.37 0-.555.185-.74.185Z"/><path fill="#444" d="m113.916 246.14 6.288-3.884 4.068 3.884 5.918-3.884 4.253 3.884 5.178-3.884 4.253 3.884"/><path fill="#222" d="M113.916 247.434c-.555 0-.924-.185-1.109-.739-.37-.74-.185-1.48.37-1.85l6.287-3.883c.555-.37 1.295-.185 1.664.185l3.329 3.144 4.993-3.329c.555-.37 1.295-.37 1.665.185l3.328 3.144 4.254-3.144c.554-.37 1.294-.37 1.664 0l4.253 3.883c.555.555.555 1.48.185 2.035-.554.554-1.479.554-2.034.184l-3.514-3.143-4.253 3.143c-.555.37-1.294.37-1.849-.184l-3.329-3.144-4.993 3.328c-.555.37-1.294.37-1.664-.184l-3.329-3.144-5.363 3.328c0 .185-.37.185-.555.185Z"/><path fill="#444" d="m88.025 216.551 6.288-3.884 4.253 3.884 5.918-3.884 4.068 3.884 5.178-3.884 4.439 3.884"/><path fill="#222" d="M88.026 217.845c-.555 0-.925-.184-1.11-.739-.37-.74-.185-1.48.37-1.85l6.287-3.883c.555-.37 1.11-.185 1.665.185l3.329 3.144 4.993-3.329c.554-.37 1.294-.37 1.664.185l3.329 3.144 4.253-3.144c.555-.37 1.295-.37 1.664 0l4.254 3.883c.555.555.555 1.48.185 2.035-.555.554-1.48.554-2.035.185l-3.513-3.144-4.254 3.144c-.554.369-1.294.369-1.849-.185l-3.329-3.144-4.993 3.329c-.554.369-1.294.369-1.664-.185l-3.329-3.144-5.363 3.329c0 .184-.184.184-.554.184Z"/><path fill="#444" d="m139.806 224.503 6.102-3.883 4.254 3.883 5.917-3.883 4.254 3.883 5.178-3.883 4.253 3.883"/><path fill="#222" d="M139.806 225.798c-.555 0-.925-.185-1.11-.74-.37-.74-.185-1.479.37-1.849l6.288-3.884c.555-.37 1.294-.185 1.664.185l3.329 3.144 4.993-3.329c.555-.37 1.294-.37 1.664.185l3.329 3.144 4.253-3.144c.555-.37 1.295-.37 1.665 0l4.253 3.884c.555.554.555 1.479.185 2.034-.555.555-1.48.555-2.034.185l-3.329-3.144-4.253 3.144c-.555.37-1.295.37-1.85-.185l-3.328-3.144-4.993 3.329c-.555.37-1.295.37-1.665-.185l-3.328-3.144-5.363 3.329c-.37.185-.555.185-.74.185Z"/><path fill="#444" d="m165.511 246.14 6.287-3.884 4.254 3.884 5.917-3.884 4.069 3.884 5.178-3.884 4.438 3.884"/><path fill="#222" d="M165.511 247.434c-.555 0-.925-.185-1.11-.739-.369-.74-.185-1.48.37-1.85l6.288-3.883c.555-.37 1.294-.185 1.664.185l3.329 3.144 4.993-3.329c.555-.37 1.294-.37 1.664.185l3.329 3.144 4.253-3.144c.555-.37 1.295-.37 1.665 0l4.253 3.883c.555.555.555 1.48.185 2.035-.555.554-1.479.554-2.034.184l-3.514-3.143-4.253 3.143c-.555.37-1.295.37-1.849-.184l-3.329-3.144-4.993 3.328c-.555.37-1.295.37-1.665-.184l-3.328-3.144-5.363 3.328c0 .185-.185.185-.555.185Z"/><path fill="#444" d="m192.141 216.551 6.287-3.884 4.254 3.884 5.917-3.884 4.254 3.884 5.178-3.884 4.253 3.884"/><path fill="#222" d="M192.141 217.845c-.555 0-.925-.184-1.11-.739-.37-.74-.185-1.48.37-1.85l6.288-3.883c.554-.37 1.294-.185 1.664.185l3.329 3.144 4.993-3.329c.555-.37 1.294-.37 1.664.185l3.329 3.144 4.253-3.144c.555-.37 1.295-.37 1.665 0l4.253 3.883c.555.555.555 1.48.185 2.035-.555.554-1.48.554-2.034.185l-3.329-3.144-4.253 3.144c-.555.369-1.295.369-1.85-.185l-3.328-3.144-4.993 3.329c-.555.369-1.295.369-1.665-.185l-3.329-3.144-5.362 3.329c-.185.184-.37.184-.74.184Z"/><path fill="#444" d="m201.571 232.64 6.288-3.699 4.253 3.699 5.733-3.699 4.253 3.699 5.178-3.699 4.254 3.699"/><path fill="#222" d="M201.572 234.119c-.555 0-.925-.185-1.11-.739-.37-.74-.185-1.48.37-1.85l6.287-3.883c.555-.37 1.295-.185 1.665.185l3.328 3.144 4.994-3.329c.554-.37 1.294-.37 1.664.185l3.329 3.144 4.253-3.144c.555-.37 1.294-.37 1.664 0l4.254 3.883c.554.555.554 1.48.185 2.035-.555.554-1.48.554-2.035.184l-3.513-3.143-4.254 3.143c-.554.37-1.294.37-1.849-.184l-3.329-3.144-4.993 3.328c-.554.37-1.294.37-1.664-.184l-3.329-3.144-5.363 3.328s-.37.185-.554.185ZM248.358 224.133c-.739 0-1.479-.555-1.479-1.479V179.75c0-.739.555-1.479 1.479-1.479.925 0 1.48.555 1.48 1.479v43.089c0 .739-.74 1.294-1.48 1.294Z"/><path fill="#F5F4F3" d="M248.359 179.75c-64.171 0-116.135 51.965-116.135 116.135h42.903c0-40.499 32.732-73.231 73.232-73.231V179.75Z"/><path fill="#222" d="M175.127 297.365h-42.903c-.74 0-1.48-.555-1.48-1.48 0-64.909 52.705-117.614 117.615-117.614.739 0 1.479.555 1.479 1.479v43.089c0 .739-.555 1.479-1.479 1.479-39.575 0-71.753 32.178-71.753 71.752 0 .555-.739 1.295-1.479 1.295Zm-41.609-2.774h40.314c.74-39.945 33.103-72.492 73.232-73.232v-40.314c-62.321.74-112.806 51.225-113.546 113.546Z"/><path fill="#444" d="M248.359 179.75c64.171 0 116.135 51.965 116.135 116.135h-42.903c0-40.499-32.732-73.231-73.232-73.231V179.75Z"/><path fill="#222" d="M364.679 297.365h-42.904c-.739 0-1.479-.555-1.479-1.48 0-39.574-32.177-71.752-71.752-71.752-.74 0-1.48-.555-1.48-1.479V179.75c0-.739.555-1.479 1.48-1.479 64.91 0 117.614 52.705 117.614 117.614-.185.74-.739 1.48-1.479 1.48Zm-41.794-2.774h40.314c-.739-62.136-51.225-112.621-113.361-113.361v40.314c39.945.555 72.307 32.917 73.047 73.047Z"/><path fill="#fff" d="M175.127 295.885c0-40.499 32.732-73.231 73.232-73.231 40.499 0 73.231 32.732 73.231 73.231H175.127Z"/><path fill="#222" d="M321.59 297.365H175.127c-.74 0-1.48-.555-1.48-1.479 0-41.055 33.472-74.527 74.527-74.527 41.054 0 74.526 33.472 74.526 74.527.37.739-.37 1.479-1.11 1.479Zm-144.984-2.774h143.69c-.74-39.02-32.733-70.458-71.753-70.458-39.204 0-71.197 31.438-71.937 70.458Z"/><path fill="#FF3158" d="m194.175 229.311 41.054 67.499c.74 1.849 1.849 3.698 3.144 5.178v.185c.185.185.185.185.185.37 6.657 7.027 17.753 7.397 24.78.739 7.027-6.657 7.397-17.753.74-24.78-1.665-1.849-3.699-3.144-5.918-4.068l-63.985-44.753v-.37Z"/><path fill="#222" d="M251.503 309.385c-4.993 0-10.171-2.034-13.87-5.918l-.185-.185-.185-.37c-1.294-1.664-2.589-3.513-3.328-5.363l-40.87-67.313c-.369-.555-.369-1.295.185-1.85.555-.554 1.48-.554 1.85 0l.185.185 63.8 44.568c2.404 1.11 4.438 2.589 6.287 4.438 7.213 7.582 6.658 19.603-.924 26.63a18.636 18.636 0 0 1-12.945 5.178Zm-11.836-8.137c0 .185 0 .185 0 0 6.288 6.657 16.459 7.027 22.931.925 6.473-6.103 6.843-16.274.74-22.746-1.479-1.665-3.329-2.959-5.363-3.884 0 0-.185 0-.185-.185l-58.807-41.054 37.541 61.766s0 .185.184.185c.74 1.664 1.665 3.329 2.959 4.808-.185.185-.185.185 0 .185Z"/><path fill="#fff" d="M360.426 119.094h-63.061v55.478h63.061v-55.478Z"/><path fill="#222" d="M360.426 176.052h-63.061c-.74 0-1.479-.555-1.479-1.48v-55.478c0-.74.555-1.48 1.479-1.48h63.061c.739 0 1.479.555 1.479 1.48v55.478c0 .925-.74 1.48-1.479 1.48Zm-61.766-2.774h60.286v-52.705H298.66v52.705Z"/><path fill="#FF3158" d="m384.836 109.107-69.903 69.903-42.534-39.759 14.98-11.096 27.554 24.965 53.629-53.629 16.274 9.616Z"/><path fill="#222" d="M314.933 180.305c-.37 0-.74-.185-.925-.37l-42.534-39.76c-.37-.369-.37-.739-.37-1.109s.185-.74.555-1.11l14.979-10.91c.555-.37 1.295-.37 1.665 0l26.63 23.855 52.519-52.52c.37-.37 1.11-.554 1.665-.184l16.273 9.616c.37.185.555.555.74 1.11.185.554 0 .924-.37 1.109l-69.903 69.903c-.185.185-.555.37-.924.37Zm-40.315-40.869 40.315 37.725 67.683-67.684-13.869-8.136-52.705 52.704c-.555.555-1.294.555-1.849 0l-26.815-24.041-12.76 9.432Z"/></svg>