<svg xmlns="http://www.w3.org/2000/svg" width="400" height="401" fill="none" viewBox="0 0 400 401"><path fill="#fff" d="M140.19 86.04v87.99h58.805v127.65h117.61V86.04H140.19Z"/><path fill="#222" d="M316.605 303.065h-117.61a1.38 1.38 0 0 1-1.38-1.385V175.415h-57.42a1.38 1.38 0 0 1-1.38-1.38V86.04c0-.765.62-1.38 1.38-1.38H316.61c.765 0 1.38.62 1.38 1.38v215.64c0 .765-.62 1.385-1.38 1.385h-.005ZM200.38 300.3h114.845V87.42H141.57v85.23h57.42c.765 0 1.38.62 1.38 1.38v126.265l.01.005Z"/><path fill="#222" d="M287.2 303.065a1.38 1.38 0 0 1-1.38-1.385V94.01a1.38 1.38 0 1 1 2.76 0v207.675c0 .765-.62 1.385-1.38 1.385v-.005ZM257.8 303.065a1.38 1.38 0 0 1-1.38-1.385V94.01a1.38 1.38 0 1 1 2.76 0v207.675c0 .765-.62 1.385-1.38 1.385v-.005ZM169.59 175.415a1.38 1.38 0 0 1-1.38-1.38V94.01a1.38 1.38 0 1 1 2.76 0v80.025c0 .765-.62 1.38-1.38 1.38Z"/><path fill="#222" d="M316.606 95.39H140.191a1.38 1.38 0 1 1 0-2.76h176.415a1.38 1.38 0 1 1 0 2.76Z"/><path fill="#222" d="M228.396 303.065a1.38 1.38 0 0 1-1.38-1.385V94.01a1.38 1.38 0 1 1 2.76 0v207.675c0 .765-.62 1.385-1.38 1.385v-.005ZM198.995 303.065a1.38 1.38 0 0 1-1.38-1.385V94.01a1.38 1.38 0 1 1 2.76 0v207.675c0 .765-.62 1.385-1.38 1.385v-.005Z"/><path fill="#222" d="M354.48 303.065H43.47a1.38 1.38 0 0 1-1.38-1.385c0-.765.62-1.385 1.38-1.385h311.01c.765 0 1.38.62 1.38 1.385s-.62 1.385-1.38 1.385Z"/><path fill="#DADADA" d="M327.44 121.21h-10.835v4.595h10.835v-4.595Z"/><path fill="#222" d="M327.441 127.19h-10.835a1.38 1.38 0 0 1-1.38-1.38v-4.595c0-.765.62-1.38 1.38-1.38h10.835c.765 0 1.38.62 1.38 1.38v4.595c0 .765-.62 1.38-1.38 1.38Zm-9.455-2.765h8.07v-1.835h-8.07v1.835Z"/><path fill="#FF3158" d="M346.44 141.895c10.494 0 19-8.507 19-19 0-10.494-8.506-19-19-19-10.493 0-19 8.506-19 19 0 10.493 8.507 19 19 19Z"/><path fill="#222" d="M346.441 143.28c-11.24 0-20.385-9.145-20.385-20.385 0-11.24 9.145-20.385 20.385-20.385 11.24 0 20.385 9.145 20.385 20.385 0 11.24-9.145 20.385-20.385 20.385Zm0-38.005c-9.715 0-17.62 7.905-17.62 17.62s7.905 17.62 17.62 17.62 17.62-7.905 17.62-17.62-7.905-17.62-17.62-17.62Z"/><path fill="#F5F4F3" d="M198.995 174.03H81.385V182h117.61v-7.97Z"/><path fill="#222" d="M198.995 183.385H81.385a1.38 1.38 0 0 1-1.38-1.38v-7.97c0-.765.62-1.38 1.38-1.38h117.61c.765 0 1.38.62 1.38 1.38v7.97c0 .765-.62 1.38-1.38 1.38ZM82.77 180.62h114.845v-5.205H82.765v5.205h.005Z"/><path fill="#FF3158" d="M81.345 182.04v119.685h29.4v-58.14h58.82v58.14h29.4V182.04H81.345Z"/><path fill="#222" d="M198.965 303.105h-29.4a1.38 1.38 0 0 1-1.38-1.385v-56.755H112.13v56.755c0 .765-.62 1.385-1.38 1.385h-29.4a1.38 1.38 0 0 1-1.38-1.385V182.035c0-.765.62-1.38 1.38-1.38h117.62c.765 0 1.38.62 1.38 1.38V301.72c0 .765-.62 1.385-1.38 1.385h-.005Zm-28.02-2.765h26.635V183.42H82.725v116.92h26.635v-56.755c0-.765.62-1.38 1.38-1.38h58.82c.765 0 1.38.62 1.38 1.38v56.755h.005Z"/><path fill="#F5F4F3" d="M140.19 243.555h-29.4v58.13h29.4v-58.13Z"/><path fill="#222" d="M140.19 303.065h-29.4a1.38 1.38 0 0 1-1.38-1.385v-58.13c0-.765.62-1.38 1.38-1.38h29.4c.765 0 1.38.62 1.38 1.38v58.13c0 .765-.62 1.385-1.38 1.385Zm-28.02-2.765h26.64v-55.365h-26.64V300.3Z"/><path fill="#F5F4F3" d="M169.59 243.555h-29.4v58.13h29.4v-58.13Z"/><path fill="#222" d="M169.59 303.065h-29.4a1.38 1.38 0 0 1-1.38-1.385v-58.13c0-.765.62-1.38 1.38-1.38h29.4c.765 0 1.38.62 1.38 1.38v58.13c0 .765-.62 1.385-1.38 1.385Zm-28.02-2.765h26.64v-55.365h-26.64V300.3Z"/></svg>