<svg xmlns="http://www.w3.org/2000/svg" width="400" height="401" fill="none" viewBox="0 0 400 401"><path fill="#DADADA" d="m298.415 301.495-14.41 16.765-14.405-16.765h-38.65l-27.235 31.695h122.9l27.235-31.695h-55.435ZM177.675 264.545H147.64v15.845h-40.63v-15.845H54.775l27.23 31.695H204.91l-27.235-31.695Z"/><path fill="#FF3158" d="m218.385 256.265 56.705 65.99 56.705-65.99h-36.39V102.32h-40.63v153.945h-36.39Z"/><path fill="#222" d="M275.09 323.64c-.405 0-.785-.175-1.05-.48l-56.705-65.995a1.39 1.39 0 0 1-.21-1.48 1.373 1.373 0 0 1 1.255-.805h35.005V102.32c0-.765.62-1.385 1.385-1.385h40.63c.765 0 1.385.62 1.385 1.385v152.56h35.005a1.381 1.381 0 0 1 1.045 2.285L276.13 323.16c-.265.305-.645.48-1.05.48h.01Zm-53.695-65.995 53.695 62.49 53.695-62.49h-33.38c-.765 0-1.385-.62-1.385-1.385V103.705h-37.865v152.56c0 .765-.62 1.385-1.385 1.385h-33.38l.005-.005Z"/><path fill="#FF3158" d="M175.405 130.31 118.7 64.315 61.995 130.31h36.39v153.94h40.63V130.31h36.39Z"/><path fill="#222" d="M139.015 285.635h-40.63c-.765 0-1.385-.62-1.385-1.385V131.69H61.995a1.381 1.381 0 0 1-1.045-2.285l56.7-65.99a1.387 1.387 0 0 1 2.1 0l56.705 65.995c.35.41.435.985.21 1.48a1.373 1.373 0 0 1-1.255.805h-35.005v152.56c0 .765-.62 1.385-1.385 1.385l-.005-.005Zm-39.25-2.765h37.865V130.31c0-.765.62-1.385 1.385-1.385h33.38L118.7 66.435l-53.695 62.49h33.38c.765 0 1.385.62 1.385 1.385v152.56h-.005Z"/><path fill="#222" d="M196.285 301.48h-122.9c-.405 0-.785-.175-1.05-.48L45.1 269.305a1.39 1.39 0 0 1-.21-1.48 1.373 1.373 0 0 1 1.255-.805H98.38c.765 0 1.385.62 1.385 1.385v14.465h37.865v-14.465c0-.765.62-1.385 1.385-1.385h30.035c.405 0 .785.175 1.05.48l27.235 31.695c.35.41.435.985.21 1.48a1.373 1.373 0 0 1-1.255.805h-.005Zm-122.27-2.765H193.27l-24.855-28.93h-28.02v14.465c0 .765-.62 1.385-1.385 1.385H98.38c-.765 0-1.385-.62-1.385-1.385v-14.465H49.16l24.855 28.93ZM317.7 338.565H194.8a1.381 1.381 0 0 1-1.045-2.285l27.235-31.695c.265-.305.645-.48 1.05-.48h38.655c.405 0 .785.175 1.05.48l13.36 15.545 13.36-15.545c.265-.305.645-.48 1.05-.48h55.435a1.381 1.381 0 0 1 1.045 2.285l-27.235 31.695c-.265.305-.645.48-1.05.48h-.01ZM197.81 335.8h119.255l24.855-28.93h-51.79l-13.995 16.285a1.387 1.387 0 0 1-2.1 0L260.04 306.87h-37.385L197.8 335.8h.01Z"/></svg>