<svg xmlns="http://www.w3.org/2000/svg" width="400" height="401" fill="none" viewBox="0 0 400 401"><path fill="#DADADA" d="m298.415 301.495-14.41 16.765-14.405-16.765h-38.65l-27.235 31.695h122.9l27.235-31.695h-55.435ZM177.675 264.545H147.64v15.845h-40.63v-15.845H54.775l27.23 31.695H204.91l-27.235-31.695Z"/><path fill="#FF3158" d="m218.385 256.264 56.705 65.99 56.705-65.99h-36.39V102.319h-40.63v153.945h-36.39Z"/><path fill="#222" d="M275.09 323.64c-.405 0-.785-.175-1.05-.48l-56.705-65.995a1.39 1.39 0 0 1-.21-1.48 1.373 1.373 0 0 1 1.255-.805h35.005V102.32c0-.765.62-1.385 1.38-1.385h40.63c.765 0 1.38.62 1.38 1.385v152.56h35.005a1.381 1.381 0 0 1 1.045 2.285L276.12 323.16a1.38 1.38 0 0 1-1.05.48h.02Zm-53.695-65.995 53.695 62.49 53.695-62.49H295.41a1.38 1.38 0 0 1-1.38-1.385V103.705h-37.87v152.56c0 .765-.62 1.385-1.38 1.385h-33.375l-.01-.005Z"/><path fill="#FF3158" d="M175.405 130.309 118.7 64.314 61.995 130.31h36.39v153.94h40.63v-153.94h36.39Z"/><path fill="#222" d="M139.015 285.635h-40.63a1.38 1.38 0 0 1-1.38-1.385V131.69h-35.01a1.381 1.381 0 0 1-1.045-2.285l56.705-65.99a1.387 1.387 0 0 1 2.1 0l56.705 65.995c.35.41.435.985.21 1.48a1.373 1.373 0 0 1-1.255.805H140.41v152.56c0 .765-.62 1.385-1.38 1.385l-.015-.005Zm-39.25-2.765h37.87V130.31c0-.765.62-1.385 1.38-1.385h33.375l-53.695-62.49L65 128.925h33.375c.765 0 1.38.62 1.38 1.385v152.56h.01Z"/><path fill="#222" d="M196.285 301.48h-122.9c-.405 0-.785-.175-1.05-.48l-27.23-31.695a1.39 1.39 0 0 1-.21-1.48 1.373 1.373 0 0 1 1.255-.805h52.235c.765 0 1.38.62 1.38 1.385v14.465h37.865v-14.465c0-.765.62-1.385 1.38-1.385h30.035c.405 0 .785.175 1.05.48l27.235 31.695c.35.41.435.985.21 1.48a1.373 1.373 0 0 1-1.255.805Zm-122.27-2.765H193.27l-24.855-28.93h-28.02v14.465c0 .765-.62 1.385-1.38 1.385h-40.63a1.38 1.38 0 0 1-1.38-1.385v-14.465H49.16l24.855 28.93ZM317.7 338.565H194.8a1.381 1.381 0 0 1-1.045-2.285l27.235-31.695a1.38 1.38 0 0 1 1.05-.48h38.655c.405 0 .785.175 1.05.48l13.36 15.545 13.36-15.545a1.38 1.38 0 0 1 1.05-.48h55.435a1.381 1.381 0 0 1 1.045 2.285l-27.23 31.695c-.265.305-.645.48-1.05.48h-.015ZM197.81 335.8h119.255l24.855-28.93h-51.79l-13.99 16.285a1.387 1.387 0 0 1-2.1 0l-13.995-16.285H222.66l-24.855 28.93h.005Z"/></svg>