<svg xmlns="http://www.w3.org/2000/svg" width="400" height="400" fill="none" viewBox="0 0 400 400"><path fill="#DADADA" d="M220.735 228.55 71.18 259.72l-7.53-6.245v-147.55L206.61 75.65l14.125 5.14v147.76Z"/><path fill="#222" d="M71.18 261.565c-.425 0-.845-.15-1.18-.425l-7.525-6.245a1.833 1.833 0 0 1-.665-1.42v-147.55c0-.87.61-1.625 1.465-1.805l142.96-30.275c.335-.07.69-.045 1.015.07l14.125 5.14c.73.265 1.215.96 1.215 1.735v147.76c0 .875-.615 1.63-1.47 1.805l-149.555 31.17c-.125.025-.25.04-.375.04h-.01Zm-5.68-8.96 6.175 5.125 147.215-30.685V82.085l-12.415-4.52-140.98 29.86V252.61l.005-.005Z"/><path fill="#fff" d="M220.736 228.55 71.181 259.72V112.59l149.555-31.8v147.76Z"/><path fill="#222" d="M71.18 261.105a1.378 1.378 0 0 1-1.385-1.385V112.59c0-.655.455-1.22 1.095-1.355l149.555-31.8a1.39 1.39 0 0 1 1.675 1.355v147.76c0 .655-.46 1.22-1.1 1.355l-149.555 31.17c-.095.02-.19.03-.28.03h-.005Zm1.385-147.395v144.305l146.79-30.595V82.5l-146.79 31.215v-.005Z"/><path fill="#DADADA" d="M230.645 237.835 81.09 269.005v-147.13l149.555-31.8v147.76Z"/><path fill="#FF3158" d="M147.945 125.635c3.5-.735 6.34-4.145 6.34-7.615 0-3.47-2.84-5.69-6.34-4.955-3.5.735-6.335 4.145-6.335 7.615 0 3.47 2.835 5.685 6.335 4.955Z"/><path fill="#222" d="M146.645 127.615c-1.645 0-3.195-.52-4.41-1.505-1.595-1.295-2.47-3.225-2.47-5.43 0-4.365 3.425-8.5 7.8-9.42 2.25-.475 4.47.01 6.09 1.325 1.595 1.295 2.47 3.225 2.47 5.435 0 4.365-3.43 8.5-7.805 9.42-.565.12-1.13.175-1.68.175h.005Zm2.625-12.845c-.305 0-.62.035-.945.1-2.64.555-4.87 3.215-4.87 5.81 0 1.075.395 1.985 1.105 2.565.765.62 1.83.825 3.005.58 2.64-.555 4.87-3.215 4.87-5.81 0-1.075-.395-1.99-1.105-2.565-.555-.45-1.265-.68-2.065-.68h.005Z"/><path fill="#FF3158" d="M122.61 127.81c1.75-.365 3.165-2.07 3.165-3.805 0-1.735-1.415-2.84-3.165-2.475-1.75.365-3.165 2.07-3.165 3.805 0 1.735 1.415 2.84 3.165 2.475Z"/><path fill="#222" d="M121.96 129.725c-1.03 0-2.01-.33-2.785-.96-1-.815-1.575-2.065-1.575-3.43 0-2.6 2.035-5.065 4.63-5.61 1.395-.295 2.79.015 3.815.85 1 .815 1.575 2.065 1.575 3.43 0 2.6-2.035 5.065-4.63 5.61-.345.075-.69.11-1.03.11Zm1.31-6.42c-.085 0-.18.01-.28.03-.89.185-1.7 1.14-1.7 2 0 .18.035.425.21.565.16.13.425.165.73.105.89-.185 1.7-1.14 1.7-2 0-.18-.035-.425-.21-.565-.11-.09-.265-.135-.45-.135Z"/><path fill="#FF3158" d="M173.311 117.165c1.75-.37 3.17-2.075 3.17-3.81 0-1.735-1.42-2.845-3.17-2.475-1.75.37-3.17 2.075-3.17 3.81 0 1.735 1.42 2.845 3.17 2.475Z"/><path fill="#222" d="M172.656 119.08c-1.035 0-2.015-.33-2.79-.96-1-.815-1.575-2.065-1.575-3.435 0-2.605 2.04-5.07 4.64-5.615 1.4-.295 2.79.015 3.82.85 1 .815 1.575 2.065 1.575 3.435 0 2.605-2.04 5.07-4.64 5.615-.345.075-.69.11-1.03.11Zm1.315-6.425c-.09 0-.18.01-.28.03-.895.19-1.705 1.14-1.705 2.005 0 .18.035.425.21.565.16.13.43.17.735.105.895-.19 1.705-1.145 1.705-2.005 0-.18-.035-.425-.21-.57-.11-.09-.27-.135-.455-.135v.005Z"/><path fill="#FF3158" d="M122.61 228.28c1.75-.365 3.165-2.065 3.165-3.795s-1.415-2.845-3.165-2.485c-1.75.365-3.165 2.065-3.165 3.795s1.415 2.845 3.165 2.485Z"/><path fill="#222" d="M121.97 230.195c-1.035 0-2.02-.33-2.79-.965-1-.815-1.575-2.065-1.575-3.435 0-2.605 2.035-5.065 4.635-5.605 1.395-.29 2.785.02 3.81.855 1 .815 1.575 2.065 1.575 3.435 0 2.605-2.035 5.065-4.635 5.605-.34.07-.685.105-1.02.105v.005Zm1.295-6.415c-.085 0-.18.01-.275.03-.885.185-1.695 1.13-1.695 1.99 0 .18.035.425.215.57.16.13.425.17.73.105.885-.185 1.695-1.135 1.695-1.99 0-.18-.035-.425-.215-.57-.11-.09-.27-.135-.455-.135Z"/><path fill="#FF3158" d="M173.311 217.764c1.75-.365 3.17-2.065 3.17-3.8 0-1.735-1.42-2.85-3.17-2.485-1.75.365-3.17 2.065-3.17 3.8 0 1.735 1.42 2.85 3.17 2.485Z"/><path fill="#222" d="M172.661 219.675c-1.04 0-2.02-.335-2.795-.965-1-.815-1.575-2.065-1.575-3.435 0-2.605 2.04-5.07 4.645-5.61 1.4-.29 2.79.025 3.815.86 1 .815 1.575 2.065 1.575 3.435 0 2.605-2.04 5.07-4.645 5.61-.34.07-.685.105-1.02.105Zm1.295-6.425c-.085 0-.18.01-.275.03-.89.185-1.7 1.135-1.7 1.995 0 .18.035.425.215.57.16.13.43.17.735.105.89-.185 1.7-1.135 1.7-1.995 0-.18-.035-.425-.215-.57-.11-.09-.27-.135-.46-.135Z"/><path fill="#FF3158" d="M97.31 160.575c3.055-.64 5.53-3.615 5.53-6.65s-2.475-4.975-5.53-4.335c-3.055.64-5.53 3.615-5.53 6.65s2.475 4.975 5.53 4.335Z"/><path fill="#222" d="M96.18 162.54c-1.49 0-2.895-.47-4-1.365-1.45-1.175-2.245-2.93-2.245-4.93 0-3.92 3.075-7.635 7-8.455 2.03-.425 4.04.015 5.51 1.21 1.45 1.175 2.245 2.93 2.245 4.93 0 3.92-3.075 7.635-7 8.455a7.454 7.454 0 0 1-1.51.16v-.005Zm2.28-11.225c-.25 0-.505.025-.77.085-2.205.46-4.065 2.68-4.065 4.845 0 .87.315 1.605.88 2.065.61.495 1.475.66 2.425.46 2.205-.46 4.065-2.68 4.065-4.845 0-.87-.315-1.605-.88-2.065-.44-.36-1.015-.545-1.655-.545Z"/><path fill="#FF3158" d="M109.955 171.27c3.495-.73 6.325-4.135 6.325-7.6s-2.835-5.685-6.325-4.955c-3.495.73-6.325 4.135-6.325 7.6s2.83 5.685 6.325 4.955Z"/><path fill="#222" d="M108.665 173.25c-1.645 0-3.195-.52-4.41-1.505-1.595-1.295-2.47-3.225-2.47-5.43 0-4.36 3.425-8.49 7.79-9.405 2.245-.47 4.46.015 6.08 1.33 1.595 1.295 2.47 3.225 2.47 5.435 0 4.36-3.425 8.495-7.795 9.405-.56.115-1.12.175-1.67.175l.005-.005Zm2.605-12.83c-.3 0-.615.035-.935.1-2.635.55-4.855 3.205-4.855 5.795 0 1.075.395 1.99 1.105 2.565.76.62 1.825.825 2.995.58 2.635-.55 4.86-3.205 4.86-5.795 0-1.075-.395-1.99-1.105-2.57-.555-.45-1.265-.68-2.06-.68l-.005.005Z"/><path fill="#FF3158" d="M135.275 167.55c4.375-.915 7.92-5.17 7.92-9.505 0-4.335-3.545-7.11-7.92-6.195-4.37.915-7.915 5.17-7.915 9.505 0 4.335 3.545 7.11 7.915 6.195Z"/><path fill="#222" d="M133.655 169.565c-1.955 0-3.79-.615-5.225-1.78-1.88-1.53-2.915-3.815-2.915-6.435 0-5.245 4.12-10.21 9.385-11.315 2.675-.56 5.305.01 7.225 1.57 1.88 1.53 2.92 3.815 2.92 6.435 0 5.245-4.125 10.215-9.385 11.315-.67.14-1.34.21-1.995.21h-.01Zm3.265-16.05c-.41 0-.835.045-1.27.135-3.495.73-6.445 4.26-6.445 7.7 0 1.485.55 2.755 1.555 3.57 1.065.865 2.535 1.155 4.14.82 3.495-.73 6.45-4.255 6.45-7.7 0-1.485-.55-2.755-1.555-3.57-.775-.63-1.77-.955-2.87-.955h-.005Z"/><path fill="#FF3158" d="M160.62 162.255c4.38-.915 7.93-5.175 7.93-9.515 0-4.34-3.55-7.115-7.93-6.2-4.375.915-7.925 5.175-7.925 9.515 0 4.34 3.55 7.115 7.925 6.2Z"/><path fill="#222" d="M159 164.27c-1.96 0-3.795-.615-5.23-1.78-1.88-1.53-2.92-3.815-2.92-6.435 0-5.245 4.125-10.22 9.39-11.32 2.68-.56 5.315.01 7.23 1.57 1.885 1.53 2.92 3.815 2.92 6.435 0 5.25-4.125 10.22-9.395 11.32-.67.14-1.34.21-2 .21H159Zm3.27-16.06c-.41 0-.835.045-1.27.135-3.5.735-6.455 4.26-6.455 7.705 0 1.485.55 2.755 1.555 3.57 1.065.865 2.54 1.16 4.145.825 3.5-.73 6.46-4.26 6.46-7.71 0-1.49-.55-2.755-1.555-3.57-.78-.63-1.77-.96-2.875-.96l-.005.005Z"/><path fill="#FF3158" d="M186 155.38c3.505-.735 6.35-4.145 6.35-7.615 0-3.47-2.845-5.695-6.35-4.96-3.505.735-6.35 4.145-6.35 7.615 0 3.47 2.84 5.695 6.35 4.96Z"/><path fill="#222" d="M184.7 157.365c-1.65 0-3.205-.52-4.425-1.51-1.595-1.295-2.47-3.225-2.47-5.435 0-4.365 3.435-8.505 7.815-9.425 2.255-.47 4.48.015 6.1 1.33 1.595 1.295 2.475 3.225 2.475 5.435 0 4.37-3.435 8.505-7.82 9.425a8.047 8.047 0 0 1-1.675.175v.005Zm2.62-12.855c-.305 0-.62.035-.945.1-2.645.555-4.88 3.215-4.88 5.81 0 1.075.395 1.99 1.11 2.57.765.625 1.84.83 3.015.585 2.645-.555 4.88-3.215 4.88-5.81 0-1.075-.395-1.99-1.11-2.57-.555-.45-1.275-.685-2.075-.685h.005Z"/><path fill="#FF3158" d="M109.955 196.38c3.495-.73 6.325-4.13 6.325-7.595s-2.835-5.69-6.325-4.96c-3.495.73-6.325 4.13-6.325 7.595s2.83 5.685 6.325 4.96Z"/><path fill="#222" d="M108.671 198.36c-1.65 0-3.2-.52-4.41-1.505-1.59-1.295-2.47-3.225-2.47-5.435 0-4.36 3.425-8.49 7.795-9.405 2.245-.47 4.46.015 6.08 1.33 1.595 1.295 2.47 3.225 2.47 5.435 0 4.36-3.425 8.49-7.795 9.405-.56.115-1.12.175-1.665.175h-.005Zm2.6-12.83c-.3 0-.615.035-.935.1-2.63.55-4.855 3.2-4.855 5.79 0 1.075.395 1.99 1.105 2.57.76.62 1.825.825 2.995.585 2.635-.55 4.855-3.2 4.855-5.79 0-1.075-.395-1.99-1.105-2.57-.555-.45-1.265-.685-2.065-.685h.005Z"/><path fill="#FF3158" d="M135.275 192.675c4.375-.91 7.92-5.165 7.92-9.505 0-4.34-3.545-7.115-7.92-6.2-4.37.91-7.915 5.165-7.915 9.5s3.545 7.11 7.915 6.2v.005Z"/><path fill="#222" d="M133.66 194.69c-1.955 0-3.795-.615-5.23-1.78-1.88-1.53-2.915-3.815-2.915-6.435 0-5.245 4.12-10.21 9.385-11.31 2.675-.56 5.305.015 7.225 1.57 1.88 1.53 2.92 3.815 2.92 6.435 0 5.245-4.125 10.215-9.385 11.31-.67.14-1.335.21-1.99.21h-.01Zm3.26-16.045c-.41 0-.83.045-1.265.135-3.495.73-6.445 4.255-6.445 7.695 0 1.485.55 2.755 1.555 3.57 1.065.865 2.535 1.16 4.14.825 3.495-.73 6.45-4.25 6.45-7.695 0-1.49-.55-2.755-1.555-3.57-.775-.63-1.77-.96-2.875-.96h-.005Z"/><path fill="#FF3158" d="M160.62 187.395c4.38-.91 7.93-5.17 7.93-9.51s-3.55-7.115-7.93-6.205c-4.375.915-7.925 5.17-7.925 9.51s3.55 7.115 7.925 6.205Z"/><path fill="#222" d="M159.005 189.41c-1.96 0-3.8-.615-5.235-1.785-1.88-1.53-2.92-3.815-2.92-6.435 0-5.245 4.125-10.215 9.395-11.315 2.675-.56 5.315.015 7.23 1.575 1.885 1.53 2.92 3.815 2.92 6.435 0 5.25-4.13 10.22-9.395 11.315-.67.14-1.34.21-1.99.21h-.005Zm3.26-16.055c-.41 0-.835.045-1.27.135-3.5.73-6.455 4.255-6.455 7.7 0 1.49.55 2.755 1.555 3.57 1.065.865 2.54 1.16 4.145.825 3.5-.73 6.46-4.255 6.46-7.7 0-1.49-.55-2.755-1.555-3.575-.78-.635-1.775-.96-2.88-.96v.005Z"/><path fill="#FF3158" d="M186 180.54c3.505-.73 6.35-4.14 6.35-7.615 0-3.475-2.845-5.695-6.35-4.965-3.505.73-6.35 4.14-6.35 7.61 0 3.47 2.84 5.695 6.35 4.965v.005Z"/><path fill="#222" d="M184.705 182.52c-1.655 0-3.21-.52-4.425-1.51-1.595-1.295-2.47-3.225-2.47-5.435 0-4.365 3.435-8.505 7.815-9.42 2.255-.47 4.475.015 6.1 1.335 1.595 1.295 2.475 3.225 2.475 5.435 0 4.37-3.435 8.505-7.82 9.42a8.351 8.351 0 0 1-1.67.175h-.005Zm2.615-12.855c-.305 0-.62.035-.94.1-2.645.55-4.88 3.21-4.88 5.805 0 1.075.395 1.99 1.11 2.575.765.625 1.84.83 3.015.585 2.645-.55 4.88-3.21 4.88-5.805 0-1.075-.395-1.99-1.11-2.575-.555-.455-1.275-.685-2.075-.685Z"/><path fill="#FF3158" d="M135.275 140.855c3.5-.735 6.335-4.14 6.335-7.61 0-3.47-2.835-5.685-6.335-4.955-3.5.735-6.33 4.14-6.33 7.61 0 3.47 2.835 5.685 6.33 4.955Z"/><path fill="#222" d="M133.975 142.835c-1.645 0-3.195-.52-4.41-1.505-1.595-1.295-2.47-3.225-2.47-5.43 0-4.36 3.425-8.5 7.8-9.415 2.25-.47 4.47.01 6.09 1.325 1.595 1.295 2.47 3.225 2.47 5.435 0 4.365-3.425 8.5-7.8 9.415a8.047 8.047 0 0 1-1.675.175h-.005Zm2.62-12.84c-.305 0-.62.035-.94.1-2.64.555-4.865 3.21-4.865 5.805 0 1.075.395 1.99 1.105 2.565.765.62 1.83.825 3 .58 2.64-.555 4.865-3.21 4.865-5.805 0-1.075-.395-1.99-1.105-2.565-.555-.45-1.265-.68-2.06-.68Z"/><path fill="#FF3158" d="M109.955 143.805c2.185-.46 3.955-2.585 3.955-4.755s-1.77-3.555-3.955-3.095c-2.185.46-3.955 2.585-3.955 4.75s1.77 3.55 3.955 3.095v.005Z"/><path fill="#222" d="M109.145 145.735c-1.185 0-2.305-.375-3.19-1.095-1.145-.93-1.8-2.36-1.8-3.93 0-3.04 2.38-5.92 5.42-6.56 1.61-.335 3.205.015 4.38.97 1.145.93 1.8 2.36 1.8 3.93 0 3.04-2.38 5.92-5.42 6.56-.4.085-.8.125-1.19.125Zm1.635-8.02c-.14 0-.29.015-.445.05-1.325.28-2.485 1.655-2.485 2.945 0 .465.15.835.435 1.065.31.25.77.33 1.295.22 1.325-.28 2.485-1.655 2.485-2.945 0-.465-.15-.835-.435-1.065-.22-.18-.515-.27-.85-.27Z"/><path fill="#FF3158" d="M160.62 135.545c3.5-.735 6.34-4.145 6.34-7.615 0-3.47-2.84-5.69-6.34-4.955-3.5.735-6.34 4.145-6.34 7.615 0 3.47 2.84 5.69 6.34 4.955Z"/><path fill="#222" d="M159.32 137.525c-1.65 0-3.2-.52-4.415-1.505-1.595-1.295-2.47-3.225-2.47-5.435 0-4.365 3.43-8.5 7.805-9.42 2.25-.47 4.475.01 6.095 1.33 1.595 1.295 2.47 3.225 2.47 5.435 0 4.365-3.43 8.505-7.81 9.42a8.06 8.06 0 0 1-1.68.175h.005Zm2.625-12.85c-.305 0-.62.035-.945.1-2.64.555-4.875 3.215-4.875 5.81 0 1.075.395 1.99 1.105 2.57.765.62 1.835.83 3.01.58 2.64-.555 4.875-3.215 4.875-5.81 0-1.075-.395-1.99-1.105-2.57-.555-.45-1.27-.68-2.065-.68Z"/><path fill="#FF3158" d="M186 127.865c2.19-.46 3.97-2.59 3.97-4.765s-1.775-3.56-3.97-3.1c-2.19.46-3.97 2.59-3.97 4.765s1.775 3.56 3.97 3.1Z"/><path fill="#222" d="M185.185 129.8c-1.19 0-2.315-.38-3.2-1.095-1.145-.93-1.8-2.365-1.8-3.935 0-3.045 2.385-5.93 5.435-6.57 1.615-.34 3.215.015 4.39.97 1.145.93 1.8 2.365 1.8 3.935 0 3.045-2.39 5.93-5.435 6.57-.4.085-.8.125-1.195.125h.005Zm1.64-8.035a2.1 2.1 0 0 0-.45.05c-1.335.28-2.5 1.66-2.5 2.955 0 .465.15.835.435 1.07.315.255.78.335 1.305.225 1.335-.28 2.5-1.66 2.5-2.955 0-.465-.15-.835-.435-1.07-.22-.18-.52-.27-.86-.27l.005-.005Z"/><path fill="#FF3158" d="M109.955 219.135c2.185-.455 3.955-2.58 3.955-4.745s-1.77-3.555-3.955-3.1c-2.185.455-3.955 2.58-3.955 4.745s1.77 3.555 3.955 3.1Z"/><path fill="#222" d="M109.15 221.065c-1.19 0-2.31-.38-3.195-1.1-1.145-.93-1.8-2.365-1.8-3.935 0-3.04 2.38-5.92 5.425-6.55 1.61-.335 3.205.02 4.375.975 1.145.93 1.8 2.365 1.8 3.935 0 3.04-2.385 5.92-5.425 6.55-.395.08-.79.125-1.18.125Zm1.62-8.015c-.14 0-.285.015-.44.045-1.325.275-2.485 1.65-2.485 2.94 0 .465.15.835.435 1.07.31.255.775.335 1.295.225 1.325-.275 2.485-1.65 2.485-2.94 0-.465-.15-.835-.435-1.07-.22-.18-.515-.27-.855-.27Z"/><path fill="#FF3158" d="M186 203.335c2.19-.455 3.97-2.585 3.97-4.755s-1.775-3.56-3.97-3.105c-2.19.455-3.97 2.585-3.97 4.755s1.775 3.56 3.97 3.105Z"/><path fill="#222" d="M185.195 205.265c-1.19 0-2.32-.38-3.205-1.1-1.145-.93-1.8-2.365-1.8-3.935 0-3.045 2.39-5.93 5.44-6.56 1.615-.335 3.215.02 4.39.975 1.145.93 1.8 2.365 1.8 3.935 0 3.045-2.39 5.93-5.44 6.565a5.65 5.65 0 0 1-1.185.125v-.005Zm1.63-8.035c-.14 0-.29.015-.445.05-1.33.275-2.5 1.655-2.5 2.95 0 .47.15.84.44 1.07.315.255.78.335 1.31.225 1.33-.275 2.5-1.655 2.5-2.95 0-.47-.15-.84-.44-1.07-.225-.18-.52-.275-.865-.275Z"/><path fill="#FF3158" d="M135.275 216.23c3.5-.725 6.335-4.13 6.335-7.6 0-3.47-2.835-5.695-6.335-4.965-3.5.73-6.33 4.13-6.33 7.6 0 3.47 2.835 5.69 6.33 4.965Z"/><path fill="#222" d="M133.985 218.215c-1.65 0-3.205-.52-4.42-1.51-1.595-1.295-2.47-3.225-2.47-5.435 0-4.365 3.425-8.495 7.8-9.405 2.25-.47 4.465.02 6.085 1.335 1.595 1.295 2.47 3.225 2.47 5.435 0 4.365-3.43 8.495-7.805 9.405a8.254 8.254 0 0 1-1.66.175Zm2.595-12.835c-.3 0-.615.035-.935.1-2.635.55-4.86 3.2-4.86 5.79 0 1.075.395 1.99 1.11 2.57.765.62 1.83.83 3.005.585 2.635-.55 4.865-3.2 4.865-5.79 0-1.075-.395-1.99-1.11-2.57-.555-.45-1.27-.685-2.07-.685h-.005Z"/><path fill="#FF3158" d="M160.62 210.965c3.5-.73 6.34-4.13 6.34-7.605 0-3.475-2.84-5.695-6.34-4.965-3.5.73-6.34 4.13-6.34 7.605 0 3.475 2.84 5.695 6.34 4.965Z"/><path fill="#222" d="M159.33 212.95c-1.655 0-3.21-.52-4.425-1.51-1.595-1.295-2.47-3.225-2.47-5.435 0-4.365 3.43-8.5 7.81-9.41 2.25-.47 4.47.02 6.09 1.335 1.595 1.295 2.47 3.225 2.47 5.435 0 4.365-3.43 8.5-7.81 9.41-.56.115-1.12.175-1.665.175Zm2.6-12.845c-.3 0-.615.035-.935.1-2.64.55-4.87 3.205-4.87 5.795 0 1.075.395 1.99 1.11 2.575.765.625 1.835.83 3.01.585 2.64-.55 4.87-3.205 4.87-5.795 0-1.075-.395-1.99-1.11-2.575-.555-.455-1.275-.685-2.075-.685Z"/><path fill="#FF3158" d="M198.706 139.36c3.07-.64 5.56-3.63 5.56-6.67s-2.49-4.985-5.56-4.34c-3.07.645-5.56 3.63-5.56 6.67s2.49 4.985 5.56 4.34Z"/><path fill="#222" d="M197.565 141.325c-1.5 0-2.91-.475-4.015-1.37-1.45-1.18-2.25-2.93-2.25-4.935 0-3.925 3.085-7.65 7.025-8.475 2.04-.43 4.06.015 5.535 1.21 1.45 1.18 2.25 2.93 2.25 4.935 0 3.93-3.085 7.65-7.025 8.475a7.55 7.55 0 0 1-1.52.16Zm2.295-11.255c-.25 0-.51.03-.78.085-2.215.465-4.09 2.69-4.09 4.86 0 .87.315 1.605.885 2.07.615.5 1.485.665 2.45.465 2.22-.465 4.09-2.69 4.09-4.86 0-.87-.315-1.605-.885-2.07-.445-.36-1.02-.55-1.67-.55Z"/><path fill="#FF3158" d="M147.945 177.47c4.375-.915 7.925-5.17 7.925-9.51s-3.55-7.115-7.925-6.2-7.92 5.17-7.92 9.51 3.545 7.115 7.92 6.2Z"/><path fill="#222" d="M146.325 179.485c-1.955 0-3.795-.615-5.23-1.78-1.88-1.53-2.92-3.815-2.92-6.435 0-5.245 4.125-10.215 9.39-11.315 2.675-.56 5.31.015 7.225 1.57 1.88 1.53 2.92 3.815 2.92 6.435 0 5.245-4.125 10.215-9.39 11.315-.67.14-1.34.21-1.995.21Zm3.26-16.055c-.41 0-.835.045-1.27.135-3.495.73-6.45 4.26-6.45 7.7 0 1.485.55 2.755 1.555 3.57 1.065.865 2.535 1.155 4.145.825 3.5-.73 6.455-4.255 6.455-7.7 0-1.49-.55-2.755-1.555-3.57-.78-.63-1.77-.96-2.875-.96h-.005Z"/><path fill="#FF3158" d="M147.945 201.82c3.94-.82 7.13-4.65 7.13-8.555 0-3.905-3.195-6.405-7.13-5.585-3.935.82-7.13 4.65-7.13 8.555 0 3.905 3.19 6.405 7.13 5.585Z"/><path fill="#222" d="M146.495 203.815c-1.805 0-3.5-.57-4.83-1.645-1.735-1.415-2.695-3.52-2.695-5.935 0-4.805 3.775-9.355 8.595-10.36 2.465-.515 4.89.015 6.655 1.455 1.74 1.415 2.695 3.52 2.695 5.935 0 4.805-3.78 9.355-8.6 10.36-.615.13-1.225.19-1.825.19h.005Zm2.925-14.45c-.355 0-.725.04-1.1.115-3.065.64-5.66 3.73-5.66 6.745 0 1.28.475 2.375 1.33 3.07.915.745 2.185.995 3.575.705 3.07-.64 5.66-3.73 5.66-6.745 0-1.285-.475-2.375-1.33-3.075-.665-.54-1.525-.825-2.475-.825v.01Z"/><path fill="#FF3158" d="M147.945 151.55c3.94-.825 7.13-4.655 7.13-8.56 0-3.905-3.195-6.4-7.13-5.575-3.935.825-7.13 4.66-7.13 8.56 0 3.9 3.19 6.4 7.13 5.575Z"/><path fill="#222" d="M146.485 153.55c-1.8 0-3.495-.565-4.82-1.645-1.74-1.41-2.695-3.52-2.695-5.935 0-4.805 3.775-9.36 8.595-10.37 2.465-.515 4.89.01 6.66 1.45 1.74 1.41 2.695 3.52 2.695 5.935 0 4.805-3.775 9.36-8.6 10.37-.62.13-1.235.195-1.835.195Zm2.945-14.45c-.355 0-.725.04-1.105.12-3.07.645-5.66 3.735-5.66 6.755 0 1.28.47 2.37 1.33 3.07.915.745 2.185.99 3.575.7 3.07-.64 5.665-3.735 5.665-6.755 0-1.28-.475-2.37-1.33-3.07-.665-.54-1.52-.82-2.47-.82h-.005Z"/><path fill="#FF3158" d="M122.61 156.065c3.495-.73 6.33-4.135 6.33-7.605 0-3.47-2.835-5.685-6.33-4.955-3.495.73-6.33 4.135-6.33 7.605 0 3.47 2.835 5.685 6.33 4.955Z"/><path fill="#222" d="M121.315 158.05c-1.645 0-3.195-.52-4.41-1.505-1.595-1.295-2.47-3.225-2.47-5.43 0-4.36 3.425-8.495 7.795-9.41 2.245-.47 4.465.015 6.085 1.33 1.595 1.295 2.47 3.225 2.47 5.435 0 4.36-3.425 8.495-7.8 9.41-.56.12-1.125.175-1.675.175l.005-.005Zm2.61-12.835c-.3 0-.615.035-.94.1-2.635.55-4.86 3.205-4.86 5.8 0 1.075.395 1.99 1.105 2.565.76.62 1.83.825 3 .58 2.635-.55 4.865-3.205 4.865-5.8 0-1.075-.395-1.99-1.105-2.565-.555-.45-1.265-.68-2.06-.68h-.005Z"/><path fill="#FF3158" d="M173.31 145.46c3.505-.735 6.345-4.145 6.345-7.615 0-3.47-2.84-5.696-6.345-4.961-3.505.735-6.345 4.146-6.345 7.616 0 3.47 2.84 5.69 6.345 4.96Z"/><path fill="#222" d="M172.01 147.44c-1.65 0-3.2-.52-4.42-1.505-1.595-1.295-2.47-3.225-2.47-5.435 0-4.365 3.43-8.505 7.81-9.42 2.255-.47 4.475.015 6.1 1.33 1.595 1.295 2.47 3.225 2.47 5.435 0 4.365-3.43 8.505-7.815 9.42a8.06 8.06 0 0 1-1.68.175h.005Zm2.62-12.85c-.305 0-.62.035-.945.1-2.645.555-4.875 3.215-4.875 5.81 0 1.075.395 1.99 1.11 2.57.765.625 1.835.83 3.01.585 2.645-.555 4.88-3.215 4.88-5.81 0-1.075-.395-1.99-1.11-2.57-.555-.45-1.27-.685-2.07-.685Z"/><path fill="#FF3158" d="M97.31 185.68c3.055-.635 5.53-3.615 5.53-6.645 0-3.03-2.475-4.975-5.53-4.335-3.055.64-5.53 3.615-5.53 6.645 0 3.03 2.475 4.975 5.53 4.335Z"/><path fill="#222" d="M96.18 187.645c-1.495 0-2.9-.47-4.005-1.37-1.45-1.175-2.245-2.93-2.245-4.93 0-3.92 3.075-7.635 7-8.455 2.035-.425 4.04.015 5.51 1.21 1.45 1.175 2.245 2.93 2.245 4.935 0 3.92-3.075 7.635-7 8.455a7.396 7.396 0 0 1-1.505.155Zm2.275-11.225a3.49 3.49 0 0 0-.77.085c-2.2.46-4.06 2.675-4.06 4.84 0 .87.315 1.605.885 2.07.61.495 1.475.66 2.425.46 2.205-.46 4.065-2.675 4.065-4.84 0-.87-.315-1.605-.885-2.07-.44-.36-1.015-.545-1.66-.545Z"/><path fill="#FF3158" d="M198.706 164.525c3.07-.64 5.56-3.625 5.56-6.665s-2.49-4.985-5.56-4.345c-3.07.64-5.56 3.625-5.56 6.665s2.49 4.985 5.56 4.345Z"/><path fill="#222" d="M197.565 166.49c-1.5 0-2.91-.475-4.02-1.375-1.45-1.18-2.25-2.93-2.25-4.935 0-3.925 3.085-7.65 7.025-8.47 2.04-.425 4.06.015 5.535 1.215 1.45 1.18 2.25 2.93 2.25 4.935 0 3.93-3.085 7.65-7.03 8.47-.51.105-1.015.16-1.515.16h.005Zm2.29-11.25c-.25 0-.51.03-.775.085-2.215.465-4.09 2.69-4.09 4.86 0 .87.315 1.61.885 2.07.615.5 1.485.665 2.45.465 2.215-.465 4.09-2.69 4.09-4.86 0-.87-.315-1.61-.885-2.07-.445-.36-1.025-.55-1.675-.55Z"/><path fill="#FF3158" d="M122.61 181.97c3.935-.82 7.12-4.65 7.12-8.55 0-3.9-3.19-6.4-7.12-5.58-3.93.82-7.12 4.65-7.12 8.55 0 3.9 3.185 6.4 7.12 5.58Z"/><path fill="#222" d="M121.16 183.97c-1.8 0-3.495-.565-4.82-1.645-1.735-1.41-2.695-3.52-2.695-5.935 0-4.8 3.77-9.35 8.59-10.355 2.46-.515 4.885.015 6.65 1.45 1.735 1.41 2.695 3.52 2.695 5.935 0 4.805-3.775 9.355-8.59 10.36-.615.13-1.23.19-1.83.19Zm2.935-14.44c-.355 0-.725.04-1.1.12-3.065.64-5.65 3.73-5.65 6.745 0 1.28.47 2.37 1.33 3.07.915.74 2.18.99 3.565.705 3.065-.64 5.655-3.73 5.655-6.745 0-1.28-.47-2.37-1.33-3.07-.665-.54-1.52-.82-2.465-.82l-.005-.005Z"/><path fill="#FF3158" d="M173.31 171.395c3.94-.82 7.14-4.655 7.14-8.565 0-3.91-3.195-6.405-7.14-5.585-3.94.825-7.135 4.655-7.135 8.565 0 3.91 3.195 6.405 7.135 5.585Z"/><path fill="#222" d="M171.85 173.395c-1.805 0-3.505-.57-4.83-1.645-1.74-1.415-2.695-3.52-2.695-5.935 0-4.805 3.78-9.36 8.605-10.37 2.465-.515 4.895.015 6.665 1.455 1.74 1.415 2.695 3.52 2.695 5.935 0 4.81-3.78 9.365-8.61 10.37-.615.13-1.23.19-1.835.19h.005Zm2.94-14.455c-.355 0-.725.04-1.105.12-3.075.64-5.67 3.735-5.67 6.755 0 1.28.475 2.375 1.33 3.07.915.745 2.19.995 3.58.705 3.075-.64 5.67-3.735 5.67-6.755 0-1.28-.475-2.375-1.335-3.07-.665-.54-1.525-.825-2.475-.825h.005Z"/><path fill="#FF3158" d="M147.945 226.164c3.5-.725 6.34-4.13 6.34-7.6 0-3.47-2.84-5.695-6.34-4.97-3.5.725-6.335 4.131-6.335 7.601 0 3.47 2.835 5.694 6.335 4.969Z"/><path fill="#222" d="M146.66 228.145c-1.655 0-3.21-.52-4.425-1.51-1.595-1.295-2.47-3.225-2.47-5.435 0-4.365 3.43-8.495 7.805-9.405 2.25-.47 4.47.02 6.09 1.34 1.595 1.295 2.47 3.225 2.47 5.435 0 4.365-3.43 8.5-7.81 9.405a8.254 8.254 0 0 1-1.66.175v-.005Zm2.595-12.84c-.3 0-.615.035-.935.1-2.635.55-4.865 3.2-4.865 5.79 0 1.075.395 1.99 1.11 2.575.765.625 1.83.83 3.005.59 2.64-.545 4.865-3.2 4.865-5.79 0-1.075-.395-1.99-1.11-2.575-.555-.455-1.275-.685-2.075-.685l.005-.005Z"/><path fill="#FF3158" d="M97.31 210.779c3.055-.635 5.53-3.61 5.53-6.645 0-3.035-2.475-4.975-5.53-4.34-3.055.635-5.53 3.61-5.53 6.645 0 3.035 2.475 4.975 5.53 4.34Z"/><path fill="#222" d="M96.185 212.745c-1.495 0-2.9-.475-4.005-1.37-1.45-1.18-2.245-2.93-2.245-4.935 0-3.92 3.075-7.63 7-8.45 2.03-.425 4.04.02 5.51 1.215 1.45 1.175 2.245 2.93 2.245 4.935 0 3.92-3.075 7.635-7 8.45a7.348 7.348 0 0 1-1.5.155h-.005Zm2.27-11.22a3.72 3.72 0 0 0-.765.08c-2.2.46-4.06 2.675-4.06 4.835 0 .87.315 1.605.885 2.07.61.495 1.475.66 2.425.465 2.2-.46 4.06-2.675 4.06-4.835 0-.87-.315-1.605-.885-2.07-.44-.36-1.015-.545-1.66-.545Z"/><path fill="#FF3158" d="M122.61 206.305c3.495-.725 6.33-4.13 6.33-7.595s-2.835-5.69-6.33-4.96c-3.495.73-6.33 4.13-6.33 7.595s2.835 5.69 6.33 4.96Z"/><path fill="#222" d="M121.325 208.285c-1.65 0-3.2-.52-4.415-1.51-1.595-1.295-2.47-3.225-2.47-5.435 0-4.36 3.425-8.495 7.8-9.405 2.245-.47 4.465.02 6.08 1.335 1.595 1.295 2.47 3.225 2.47 5.435 0 4.365-3.425 8.495-7.8 9.405a8.265 8.265 0 0 1-1.665.175Zm2.595-12.835c-.3 0-.615.035-.935.1-2.635.55-4.86 3.2-4.86 5.79 0 1.075.395 1.99 1.105 2.57.765.62 1.83.83 3 .585 2.635-.55 4.86-3.2 4.86-5.79 0-1.075-.395-1.99-1.11-2.57-.555-.45-1.27-.685-2.065-.685h.005Z"/><path fill="#FF3158" d="M173.31 195.755c3.505-.73 6.345-4.135 6.345-7.61 0-3.475-2.84-5.695-6.345-4.965-3.505.73-6.345 4.135-6.345 7.61 0 3.475 2.84 5.695 6.345 4.965Z"/><path fill="#222" d="M172.015 197.74c-1.655 0-3.21-.52-4.425-1.51-1.595-1.295-2.47-3.225-2.47-5.435 0-4.365 3.43-8.5 7.815-9.415 2.25-.47 4.475.015 6.095 1.335 1.595 1.295 2.47 3.225 2.47 5.435 0 4.365-3.435 8.505-7.815 9.415-.56.115-1.12.175-1.67.175Zm2.605-12.85c-.3 0-.615.035-.94.1-2.64.55-4.875 3.205-4.875 5.8 0 1.075.395 1.99 1.11 2.575.765.625 1.835.83 3.015.585 2.645-.55 4.875-3.205 4.875-5.8 0-1.08-.395-1.99-1.11-2.575-.555-.455-1.275-.685-2.075-.685Z"/><path fill="#FF3158" d="M198.706 189.69c3.07-.64 5.56-3.62 5.56-6.66s-2.49-4.985-5.56-4.345c-3.07.64-5.56 3.62-5.56 6.66s2.49 4.985 5.56 4.35v-.005Z"/><path fill="#222" d="M197.57 191.655c-1.5 0-2.915-.475-4.02-1.375-1.45-1.18-2.25-2.93-2.25-4.935 0-3.93 3.085-7.65 7.025-8.47 2.045-.425 4.06.02 5.53 1.215 1.45 1.18 2.25 2.935 2.25 4.935 0 3.93-3.09 7.65-7.03 8.47a7.444 7.444 0 0 1-1.51.155l.005.005Zm2.285-11.25c-.25 0-.51.025-.775.085-2.215.46-4.09 2.685-4.09 4.855 0 .87.315 1.61.885 2.075.615.5 1.485.665 2.45.47 2.215-.46 4.09-2.685 4.09-4.855 0-.87-.315-1.61-.885-2.075-.445-.365-1.025-.55-1.675-.55v-.005ZM64.878 104.532l-2.447 2.762 7.527 6.667 2.447-2.762-7.527-6.667Z"/><path fill="#222" d="M71.18 261.105a1.378 1.378 0 0 1-1.385-1.385V112.59c0-.655.455-1.22 1.095-1.355l149.555-31.8a1.39 1.39 0 0 1 1.675 1.355v147.76c0 .655-.46 1.22-1.1 1.355l-149.555 31.17c-.095.02-.19.03-.28.03h-.005Zm1.385-147.395v144.305l146.79-30.595V82.5l-146.79 31.215v-.005Z"/><path fill="#DADADA" d="m267.999 267.41-149.56 31.175-7.525-6.25v-147.55l142.96-30.275 14.125 5.14v147.76Z"/><path fill="#222" d="M118.439 300.43c-.425 0-.845-.15-1.18-.425l-7.525-6.245a1.833 1.833 0 0 1-.665-1.42V144.785c0-.87.61-1.625 1.465-1.805l142.96-30.275c.34-.07.69-.045 1.015.07l14.125 5.145c.73.265 1.215.96 1.215 1.735v147.76c0 .875-.615 1.63-1.47 1.805l-149.555 31.17c-.125.025-.25.04-.375.04h-.01Zm-5.68-8.96 6.175 5.125 147.215-30.685V120.945l-12.415-4.52-140.98 29.86v145.19l.005-.005Z"/><path fill="#fff" d="m267.999 267.41-149.56 31.175v-147.13l149.56-31.805v147.76Z"/><path fill="#222" d="M118.44 299.965a1.378 1.378 0 0 1-1.385-1.385V151.455c0-.655.455-1.22 1.095-1.355l149.555-31.8a1.39 1.39 0 0 1 1.675 1.355v147.76c0 .655-.46 1.22-1.1 1.355l-149.555 31.17c-.095.02-.19.03-.28.03l-.005-.005Zm1.385-147.395v144.305l146.79-30.595V121.36l-146.79 31.215v-.005Z"/><path fill="#DADADA" d="m276.525 276-149.56 31.17V160.04l149.56-31.8V276Z"/><path fill="#FF3158" d="M140.08 179.066v64.97l70.96 20.78 36.405-25.56v-47.535l-23.87-6.79v-17.495l-47.465-13.875v64.99l34.93 10.5v-12.535l-23.18-6.24-.26-17.865-47.52-13.345Z"/><path fill="#FF3158" d="M152.34 171.035v64.715l58.7 17.32 24.12-17.015V200.54l-23.005-7.495v-17.49l-48.08-13.485v64.46l46.965 14.53 12.535-9.13v-23.5l-23.7-6.825-.26-17.7-47.275-12.87Z"/><path fill="#222" d="M210.514 265.51c-.175 0-.35-.025-.52-.075l-70.96-20.785a1.844 1.844 0 0 1-1.325-1.77v-64.965a1.842 1.842 0 0 1 2.345-1.775l33.68 9.455V152.41c0-.58.275-1.13.74-1.475a1.834 1.834 0 0 1 1.625-.295l47.465 13.875c.785.23 1.33.95 1.33 1.77v16.1l22.535 6.41c.795.225 1.34.95 1.34 1.775v47.535c0 .6-.295 1.165-.785 1.51l-36.405 25.565a1.85 1.85 0 0 1-1.06.335l-.005-.005Zm-69.115-24.01 68.78 20.145 34.895-24.5v-45.18l-22.535-6.41a1.842 1.842 0 0 1-1.34-1.775v-16.11l-43.775-12.795v31.76l10.145 2.85c.785.22 1.335.935 1.345 1.75l.24 16.475 21.835 5.875c.805.215 1.365.95 1.365 1.78v12.53c0 .585-.275 1.135-.745 1.48-.47.35-1.075.455-1.635.285l-34.935-10.5a1.85 1.85 0 0 1-1.315-1.77v-27.97l-32.335-9.08v61.15l.01.01Zm36.025-25.475 31.245 9.39v-8.635l-21.815-5.87a1.844 1.844 0 0 1-1.365-1.755l-.24-16.49-7.82-2.195v25.56l-.005-.005Z"/><path fill="#222" d="M210.515 253.76c-.175 0-.35-.025-.52-.075l-58.7-17.32a1.844 1.844 0 0 1-1.325-1.77V169.88a1.844 1.844 0 0 1 2.33-1.78l9.405 2.56v-9.745a1.842 1.842 0 0 1 2.345-1.775l48.08 13.485c.795.225 1.345.95 1.345 1.775v16.155l21.725 7.08c.76.25 1.275.955 1.275 1.755v35.515c0 .6-.29 1.16-.78 1.51l-24.115 17.01a1.86 1.86 0 0 1-1.065.34v-.005Zm-56.855-20.545 56.52 16.675 22.605-15.945v-33.22l-21.725-7.08a1.848 1.848 0 0 1-1.275-1.755v-16.095l-44.39-12.45v8.315l34.18 9.305a1.84 1.84 0 0 1 1.36 1.755l.24 16.33 22.38 6.45c.79.23 1.335.95 1.335 1.775v23.5c0 .59-.28 1.145-.76 1.49l-12.53 9.125a1.826 1.826 0 0 1-1.63.27l-46.965-14.53a1.845 1.845 0 0 1-1.3-1.765V174.48l-8.045-2.19V233.215Zm11.735-9.2 44.78 13.855 11.025-8.03v-21.175l-22.36-6.44a1.845 1.845 0 0 1-1.335-1.745l-.24-16.31-31.87-8.675v48.52ZM112.14 143.384l-2.446 2.762 7.527 6.667 2.447-2.762-7.528-6.667Z"/><path fill="#222" d="M118.44 299.965a1.378 1.378 0 0 1-1.385-1.385V151.455c0-.655.455-1.22 1.095-1.355l149.555-31.8a1.39 1.39 0 0 1 1.675 1.355v147.76c0 .655-.46 1.22-1.1 1.355l-149.555 31.17c-.095.02-.19.03-.28.03l-.005-.005Zm1.385-147.395v144.305l146.79-30.595V121.36l-146.79 31.215v-.005Z"/><path fill="#DADADA" d="M309.155 301.37 159.6 332.545l-7.53-6.245V178.745l142.96-30.275 14.125 5.145V301.37Z"/><path fill="#222" d="M159.6 334.39c-.425 0-.845-.15-1.18-.425l-7.525-6.245a1.833 1.833 0 0 1-.665-1.42V178.745c0-.87.61-1.625 1.465-1.805l142.96-30.275c.335-.07.69-.045 1.015.07l14.125 5.145c.73.265 1.215.96 1.215 1.735v147.76c0 .875-.615 1.63-1.47 1.805l-149.555 31.17c-.125.025-.25.04-.375.04h-.01Zm-5.68-8.96 6.175 5.125L307.31 299.87V154.905l-12.415-4.52-140.98 29.86v145.19l.005-.005Z"/><path fill="#fff" d="m309.156 301.37-149.555 31.175v-147.13l149.555-31.8V301.37Z"/><path fill="#222" d="M159.6 333.93a1.378 1.378 0 0 1-1.385-1.385v-147.13c0-.655.455-1.22 1.095-1.355l149.555-31.8a1.39 1.39 0 0 1 1.675 1.355v147.76c0 .655-.46 1.22-1.1 1.355L159.885 333.9c-.095.02-.19.03-.28.03h-.005Zm1.385-147.395V330.84l146.79-30.595V155.32l-146.79 31.215Z"/><path fill="#DADADA" d="m319.69 308.705-149.555 31.17v-147.13l149.555-31.8v147.76Z"/><path fill="#FF3158" d="M275.535 228.765v-32.73l-24.61-11.14-73.62 64.565v32.635l24.505 11.185 24.54-21.475 40.975 18.67 24.635-21.515v-32.745l-16.425-7.45Z"/><path fill="#FF3158" d="m177.305 249.46 73.62-64.565 24.61 11.14v32.73l-24.61-11.17-49.115 43.03"/><path fill="#FF3158" d="M250.925 250.3v-32.705l24.61-21.56v32.73"/><path fill="#FF3158" d="M177.305 282.095V249.46l24.505 11.165 24.54-21.5 40.975 18.635 24.635-21.545v32.745l-24.635 21.515-40.975-18.67-24.54 21.475-24.505-11.185Z"/><path fill="#222" d="M201.745 295.235c-.26 0-.52-.055-.765-.165l-24.505-11.19a1.85 1.85 0 0 1-1.08-1.68v-32.635c0-.53.23-1.035.63-1.385l73.62-64.565a1.842 1.842 0 0 1 1.98-.295l24.61 11.145c.66.3 1.085.955 1.085 1.68v31.535l15.34 6.96c.66.3 1.085.955 1.085 1.68v32.74c0 .535-.23 1.04-.63 1.39l-24.63 21.52a1.85 1.85 0 0 1-1.98.29l-39.89-18.175-23.645 20.69c-.345.3-.775.455-1.215.455l-.01.005Zm-22.66-14.22 22.34 10.2 23.64-20.69a1.84 1.84 0 0 1 1.98-.29l39.895 18.175 23.105-20.185V237.51l-15.34-6.96a1.846 1.846 0 0 1-1.085-1.68v-31.535l-22.44-10.16-72.095 63.23v30.61Z"/><path fill="#222" d="M201.745 262.58a1.847 1.847 0 0 1-1.22-3.235l49.115-43.03a1.84 1.84 0 0 1 1.98-.29l22 9.985v-28.67l-22.44-10.16-72.725 63.78a1.845 1.845 0 1 1-2.435-2.775l73.62-64.565a1.842 1.842 0 0 1 1.98-.295l24.61 11.145c.66.3 1.085.955 1.085 1.68v32.725c0 .625-.32 1.21-.845 1.55-.525.34-1.19.39-1.76.13l-23.525-10.675-48.22 42.245c-.35.305-.785.46-1.215.46l-.005-.005Z"/><path fill="#222" d="M250.86 252.255a1.844 1.844 0 0 1-1.845-1.845v-32.705c0-.53.23-1.04.63-1.39l24.61-21.56a1.846 1.846 0 0 1 3.065 1.385v32.725c0 1.02-.825 1.845-1.845 1.845a1.844 1.844 0 0 1-1.845-1.845V200.21l-20.915 18.325V250.4c0 1.02-.825 1.845-1.845 1.845l-.01.01Z"/><path fill="#222" d="M201.745 295.235c-.26 0-.52-.055-.765-.165l-24.505-11.19a1.85 1.85 0 0 1-1.08-1.68v-32.635c0-.63.32-1.215.845-1.55.53-.34 1.195-.39 1.765-.125l23.42 10.67 23.645-20.715a1.84 1.84 0 0 1 1.98-.29l39.895 18.14 23.735-20.76a1.85 1.85 0 0 1 3.065 1.39v32.74c0 .535-.23 1.04-.63 1.39l-24.63 21.52a1.85 1.85 0 0 1-1.98.29l-39.89-18.175-23.645 20.69c-.345.3-.775.455-1.215.455h-.01Zm-22.66-14.22 22.34 10.2 23.64-20.69a1.84 1.84 0 0 1 1.98-.29l39.895 18.175 23.105-20.185V240.39l-21.57 18.865a1.85 1.85 0 0 1-1.98.29l-39.89-18.14-23.645 20.715a1.84 1.84 0 0 1-1.98.29l-21.895-9.975v28.58ZM250.86 219.55a1.844 1.844 0 0 1-1.845-1.845v-29.98c0-1.02.825-1.845 1.845-1.845s1.845.825 1.845 1.845v29.98c0 1.02-.825 1.845-1.845 1.845Z"/><path fill="#222" d="M201.745 292.515a1.844 1.844 0 0 1-1.845-1.845v-29.935c0-1.02.825-1.845 1.845-1.845s1.845.825 1.845 1.845v29.935c0 1.02-.825 1.845-1.845 1.845ZM226.285 273.76a1.844 1.844 0 0 1-1.845-1.845V241.96c0-1.02.825-1.845 1.845-1.845s1.845.825 1.845 1.845v29.955c0 1.02-.825 1.845-1.845 1.845ZM267.26 289.705a1.844 1.844 0 0 1-1.845-1.845v-29.99c0-1.02.825-1.845 1.845-1.845s1.845.825 1.845 1.845v29.99c0 1.02-.825 1.845-1.845 1.845ZM152.994 177.688l-1.837 2.074 7.527 6.666 1.837-2.073-7.527-6.667Z"/><path fill="#222" d="M159.6 333.93a1.378 1.378 0 0 1-1.385-1.385v-147.13c0-.655.455-1.22 1.095-1.355l149.555-31.8a1.39 1.39 0 0 1 1.675 1.355v147.76c0 .655-.46 1.22-1.1 1.355L159.885 333.9c-.095.02-.19.03-.28.03h-.005Zm1.385-147.395V330.84l146.79-30.595V155.32l-146.79 31.215Z"/><path fill="#F5F4F3" d="M316.35 193.485c22.141 0 40.09-17.949 40.09-40.09 0-22.141-17.949-40.09-40.09-40.09-22.141 0-40.09 17.949-40.09 40.09 0 22.141 17.949 40.09 40.09 40.09Z"/><path fill="#222" d="M316.35 194.87c-22.87 0-41.475-18.605-41.475-41.475s18.605-41.475 41.475-41.475 41.475 18.605 41.475 41.475-18.605 41.475-41.475 41.475Zm0-80.18c-21.345 0-38.705 17.365-38.705 38.705S295.01 192.1 316.35 192.1s38.705-17.365 38.705-38.705-17.365-38.705-38.705-38.705Z"/><path fill="#FF3158" d="M310.83 173.48v-15.87h-14.58v-10.09h14.58v-15.87h11.04v15.87h14.58v10.09h-14.58v15.87h-11.04Z"/></svg>