<svg xmlns="http://www.w3.org/2000/svg" width="400" height="401" fill="none" viewBox="0 0 400 401"><path fill="#444" d="m290.64 261.267-182.745 38.09-8.93-5.26V111.572l171.455-34.99 20.22 4.14v180.545Z"/><path fill="#222" d="M107.895 300.742c-.245 0-.49-.066-.7-.191l-8.935-5.254c-.42-.25-.68-.705-.68-1.195v-182.53c0-.66.465-1.225 1.105-1.355L270.14 75.222c.185-.035.37-.04.555 0l20.22 4.14c.645.13 1.105.7 1.105 1.355v180.545c0 .655-.46 1.22-1.1 1.355l-182.745 38.085c-.095.02-.19.03-.28.03v.01Zm-7.55-7.435 7.79 4.585 181.115-37.75V81.852l-18.835-3.856-170.065 34.706v180.605h-.005Z"/><path fill="#fff" d="m290.64 261.266-182.745 38.09V119.581l182.745-38.86v180.545Z"/><path fill="#222" d="M107.895 300.74a1.386 1.386 0 0 1-1.385-1.385V119.58c0-.655.455-1.22 1.095-1.355l182.745-38.86a1.39 1.39 0 0 1 1.675 1.355v180.545c0 .655-.46 1.22-1.1 1.355L108.18 300.705c-.095.02-.19.03-.28.03l-.005.005Zm1.385-180.04v176.955l179.975-37.51V82.431L109.28 120.7Z"/><path fill="#222" d="M201.41 135.387c4.275-.895 7.745-5.065 7.745-9.305 0-4.24-3.47-6.95-7.745-6.05-4.275.9-7.74 5.065-7.74 9.305 0 4.24 3.465 6.95 7.74 6.05ZM170.455 138.046c2.135-.45 3.865-2.53 3.865-4.65 0-2.12-1.73-3.475-3.865-3.025-2.135.45-3.865 2.53-3.865 4.65 0 2.12 1.73 3.475 3.865 3.025ZM232.399 125.042c2.14-.45 3.875-2.535 3.875-4.655s-1.735-3.475-3.875-3.025c-2.14.45-3.875 2.535-3.875 4.655s1.735 3.475 3.875 3.025ZM170.455 260.812c2.135-.445 3.865-2.52 3.865-4.64 0-2.12-1.73-3.475-3.865-3.035-2.135.445-3.865 2.52-3.865 4.64 0 2.12 1.73 3.475 3.865 3.035ZM232.399 247.962c2.14-.445 3.875-2.525 3.875-4.645 0-2.12-1.735-3.48-3.875-3.035-2.14.445-3.875 2.525-3.875 4.645 0 2.12 1.735 3.48 3.875 3.035ZM139.54 178.082c3.735-.78 6.76-4.42 6.76-8.125s-3.025-6.075-6.76-5.295c-3.735.78-6.76 4.42-6.76 8.125s3.025 6.075 6.76 5.295ZM154.99 191.151c4.27-.89 7.73-5.05 7.73-9.285s-3.46-6.95-7.73-6.055c-4.27.895-7.73 5.05-7.73 9.285s3.46 6.945 7.73 6.055ZM185.925 186.607c5.345-1.115 9.675-6.315 9.675-11.615s-4.33-8.69-9.675-7.57c-5.34 1.12-9.67 6.32-9.67 11.615s4.33 8.69 9.67 7.57ZM216.9 180.136c5.35-1.115 9.685-6.325 9.685-11.625s-4.335-8.695-9.685-7.575c-5.35 1.12-9.685 6.325-9.685 11.625s4.335 8.695 9.685 7.575ZM247.91 171.737c4.285-.895 7.76-5.06 7.76-9.305s-3.475-6.96-7.76-6.065c-4.285.895-7.755 5.065-7.755 9.305 0 4.24 3.47 6.96 7.755 6.065ZM154.99 221.831c4.27-.89 7.73-5.045 7.73-9.28 0-4.235-3.46-6.95-7.73-6.06-4.27.89-7.73 5.045-7.73 9.28 0 4.235 3.46 6.95 7.73 6.06ZM185.925 217.307c5.345-1.115 9.675-6.31 9.675-11.61s-4.33-8.69-9.675-7.575c-5.34 1.115-9.67 6.315-9.67 11.61 0 5.295 4.33 8.69 9.67 7.58v-.005ZM216.9 210.856c5.35-1.115 9.685-6.314 9.685-11.619s-4.335-8.695-9.685-7.58c-5.35 1.115-9.685 6.319-9.685 11.619s4.335 8.695 9.685 7.58ZM247.91 202.477c4.285-.895 7.76-5.055 7.76-9.3 0-4.245-3.475-6.96-7.76-6.065-4.285.895-7.755 5.06-7.755 9.3 0 4.24 3.47 6.96 7.755 6.07v-.005ZM185.924 153.987c4.275-.895 7.74-5.06 7.74-9.3 0-4.24-3.465-6.95-7.74-6.05-4.275.895-7.735 5.06-7.735 9.3 0 4.24 3.465 6.95 7.735 6.055v-.005ZM154.99 157.592c2.67-.56 4.83-3.16 4.83-5.805 0-2.645-2.165-4.34-4.83-3.78-2.67.56-4.83 3.16-4.83 5.805 0 2.645 2.16 4.34 4.83 3.78ZM216.9 147.497c4.28-.895 7.75-5.065 7.75-9.305 0-4.24-3.47-6.955-7.75-6.055-4.28.9-7.745 5.065-7.745 9.305 0 4.24 3.47 6.95 7.745 6.055ZM247.91 138.116c2.68-.56 4.85-3.165 4.85-5.82 0-2.655-2.17-4.35-4.85-3.785-2.68.56-4.85 3.165-4.85 5.82 0 2.655 2.17 4.35 4.85 3.785ZM154.99 249.637c2.67-.555 4.83-3.15 4.83-5.8s-2.165-4.345-4.83-3.79c-2.67.555-4.83 3.15-4.83 5.8s2.16 4.345 4.83 3.79ZM247.91 230.331c2.68-.555 4.85-3.16 4.85-5.81 0-2.65-2.17-4.35-4.85-3.795-2.68.555-4.85 3.16-4.85 5.81 0 2.65 2.17 4.35 4.85 3.795ZM185.924 246.091c4.275-.89 7.74-5.045 7.74-9.285s-3.465-6.955-7.74-6.065c-4.275.89-7.735 5.045-7.735 9.285s3.465 6.955 7.735 6.065ZM216.9 239.657c4.28-.89 7.75-5.05 7.75-9.29 0-4.24-3.47-6.96-7.75-6.07-4.28.89-7.745 5.05-7.745 9.29 0 4.24 3.47 6.96 7.745 6.07ZM263.43 152.162c3.75-.785 6.795-4.435 6.795-8.15 0-3.715-3.04-6.09-6.795-5.305-3.75.785-6.79 4.435-6.79 8.15 0 3.715 3.04 6.09 6.79 5.305ZM201.41 198.727c5.345-1.115 9.68-6.315 9.68-11.62 0-5.305-4.335-8.695-9.68-7.575-5.345 1.115-9.675 6.32-9.675 11.615s4.33 8.69 9.675 7.575v.005ZM201.41 228.476c4.81-1 8.715-5.68 8.715-10.45s-3.9-7.825-8.715-6.825c-4.81 1-8.71 5.68-8.71 10.45s3.9 7.825 8.71 6.825ZM201.41 167.056c4.81-1.005 8.715-5.69 8.715-10.46 0-4.77-3.9-7.82-8.715-6.815-4.81 1.01-8.71 5.69-8.71 10.46 0 4.77 3.9 7.82 8.71 6.815ZM170.455 172.572c4.27-.895 7.735-5.055 7.735-9.295s-3.465-6.95-7.735-6.055c-4.27.895-7.735 5.055-7.735 9.29 0 4.235 3.46 6.95 7.735 6.055v.005ZM232.399 159.612c4.28-.895 7.755-5.06 7.755-9.305s-3.47-6.955-7.755-6.06c-4.28.895-7.75 5.065-7.75 9.305 0 4.24 3.47 6.955 7.75 6.06ZM139.54 208.757c3.735-.78 6.76-4.415 6.76-8.12 0-3.705-3.025-6.08-6.76-5.3-3.735.78-6.76 4.415-6.76 8.12 0 3.705 3.025 6.08 6.76 5.3ZM263.43 182.906c3.75-.785 6.795-4.43 6.795-8.145s-3.04-6.09-6.795-5.31c-3.75.785-6.79 4.43-6.79 8.145s3.04 6.09 6.79 5.31ZM170.455 204.226c4.805-1.005 8.7-5.68 8.7-10.45s-3.895-7.82-8.7-6.815-8.7 5.68-8.7 10.45 3.895 7.82 8.7 6.815ZM232.4 191.302c4.815-1.005 8.725-5.69 8.725-10.465 0-4.775-3.905-7.83-8.725-6.82-4.815 1.005-8.72 5.69-8.72 10.465 0 4.775 3.905 7.825 8.72 6.82ZM201.41 258.227c4.275-.885 7.745-5.045 7.745-9.285s-3.47-6.96-7.745-6.07c-4.275.89-7.74 5.045-7.74 9.285s3.465 6.96 7.74 6.07ZM139.54 239.432c3.735-.775 6.76-4.41 6.76-8.115s-3.025-6.08-6.76-5.305c-3.735.775-6.76 4.41-6.76 8.115s3.025 6.08 6.76 5.305ZM170.455 233.956c4.27-.89 7.735-5.045 7.735-9.285s-3.465-6.955-7.735-6.065c-4.27.89-7.735 5.045-7.735 9.285s3.46 6.95 7.735 6.065ZM232.399 221.072c4.28-.89 7.755-5.055 7.755-9.295s-3.47-6.96-7.755-6.07c-4.28.89-7.75 5.055-7.75 9.295s3.47 6.96 7.75 6.07ZM263.43 213.656c3.75-.78 6.795-4.425 6.795-8.14 0-3.715-3.04-6.095-6.795-5.31-3.75.78-6.79 4.425-6.79 8.14 0 3.715 3.04 6.095 6.79 5.31Z"/><path fill="#444" d="m310.785 277.554-182.74 38.09-8.935-5.26V127.859l171.46-34.99 20.215 4.14v180.545Z"/><path fill="#222" d="M128.045 317.024c-.245 0-.49-.065-.7-.19l-8.935-5.255c-.42-.25-.68-.705-.68-1.195V127.859c0-.66.465-1.225 1.105-1.355L290.29 91.509a1.48 1.48 0 0 1 .555 0l20.22 4.14c.645.13 1.105.7 1.105 1.355v180.545c0 .655-.46 1.22-1.1 1.355l-182.745 38.085c-.095.02-.19.03-.28.03v.005Zm-7.55-7.435 7.79 4.585 181.115-37.75V98.139l-18.835-3.855-170.07 34.71v180.605-.01Z"/><path fill="#fff" d="m310.785 277.554-182.74 38.09v-179.78l182.74-38.855v180.545Z"/><path fill="#222" d="M128.045 317.024a1.386 1.386 0 0 1-1.385-1.385V135.864c0-.655.455-1.22 1.095-1.355L310.5 95.649a1.39 1.39 0 0 1 1.675 1.355v180.545c0 .655-.46 1.22-1.1 1.355L128.33 316.989c-.095.02-.19.03-.28.03l-.005.005Zm1.385-180.04v176.955l179.975-37.51V98.719l-179.975 38.27v-.005Z"/><path fill="#222" d="M241.605 281.004c-.175 0-.35-.025-.52-.075l-93.065-27.255a1.844 1.844 0 0 1-1.325-1.77v-85.205a1.842 1.842 0 0 1 2.345-1.775l44.905 12.61v-44.285c0-.58.275-1.13.74-1.475a1.869 1.869 0 0 1 1.625-.295l62.255 18.195c.785.23 1.33.95 1.33 1.77v21.55l29.97 8.525c.795.225 1.34.95 1.34 1.775v62.34c0 .6-.295 1.165-.785 1.51l-47.745 33.525a1.85 1.85 0 0 1-1.06.335h-.01Zm-91.22-30.485 90.885 26.62 46.235-32.465v-59.99l-29.97-8.525a1.842 1.842 0 0 1-1.34-1.775v-21.56l-58.56-17.12v42.86l13.725 3.855c.785.22 1.335.935 1.345 1.75l.325 22.04 29.06 7.82c.805.215 1.365.95 1.365 1.78v16.435c0 .585-.275 1.135-.745 1.48-.47.35-1.075.455-1.635.285l-45.82-13.77a1.85 1.85 0 0 1-1.315-1.77v-37.115l-43.555-12.23v81.395Zm47.25-33.415 42.125 12.66v-12.54l-29.04-7.815a1.844 1.844 0 0 1-1.365-1.755l-.325-22.055-11.4-3.2v34.71l.005-.005Z"/><path fill="#222" d="M241.605 265.599c-.175 0-.35-.025-.52-.075l-76.99-22.715a1.844 1.844 0 0 1-1.325-1.77v-84.875a1.844 1.844 0 0 1 2.33-1.78l13.06 3.555v-13.535a1.842 1.842 0 0 1 2.345-1.775l63.06 17.685c.795.225 1.345.95 1.345 1.775v21.605l28.895 9.415c.76.25 1.275.955 1.275 1.755v46.58c0 .6-.29 1.165-.78 1.51l-31.63 22.31c-.315.22-.69.335-1.065.335Zm-75.14-25.94 74.81 22.07 30.12-21.245v-44.285l-28.895-9.415a1.848 1.848 0 0 1-1.275-1.755v-21.545l-59.37-16.65v12.105l45.25 12.32a1.84 1.84 0 0 1 1.36 1.755l.32 21.845 29.765 8.575c.79.23 1.335.95 1.335 1.775v30.82c0 .59-.28 1.145-.76 1.49l-16.435 11.97c-.47.345-1.08.44-1.63.27l-61.595-19.055a1.845 1.845 0 0 1-1.3-1.765v-67.18l-11.7-3.185v81.085Zm15.39-12.075 59.415 18.38 14.93-10.87v-28.495l-29.745-8.57a1.845 1.845 0 0 1-1.335-1.745l-.32-21.82-42.94-11.69v64.815l-.005-.005Z"/><path fill="#444" d="m330.39 293.879-182.74 38.085-8.935-5.255V144.184l171.455-34.995 20.22 4.14v180.55Z"/><path fill="#222" d="M147.65 333.35c-.245 0-.49-.065-.7-.19l-8.935-5.255c-.42-.25-.68-.705-.68-1.195V144.185c0-.66.465-1.225 1.105-1.355l171.455-34.995a1.48 1.48 0 0 1 .555 0l20.22 4.14c.645.13 1.105.7 1.105 1.355v180.545c0 .655-.46 1.22-1.1 1.355L147.93 333.32c-.095.02-.19.03-.28.03Zm-7.55-7.435 7.79 4.585 181.115-37.75V114.46l-18.835-3.855-170.07 34.71V325.92v-.005Z"/><path fill="#fff" d="m330.389 293.88-182.74 38.085V152.19l182.74-38.86v180.55Z"/><path fill="#222" d="M147.65 333.35a1.386 1.386 0 0 1-1.385-1.385V152.19c0-.655.455-1.22 1.095-1.355l182.745-38.86a1.39 1.39 0 0 1 1.675 1.355v180.545c0 .655-.46 1.22-1.1 1.355l-182.745 38.09c-.095.02-.19.03-.28.03h-.005Zm1.385-180.04v176.955l179.975-37.51V115.04l-179.975 38.27Z"/><path fill="#FF3158" d="M287.8 204.556v-39.99l-30.07-13.615-89.955 78.89v39.88l29.945 13.67 29.985-26.24 50.065 22.81 30.1-26.29v-40.01l-20.07-9.105Z"/><path fill="#222" d="M197.721 285.236c-.26 0-.52-.055-.765-.165l-29.945-13.67a1.85 1.85 0 0 1-1.08-1.68v-39.875c0-.53.23-1.035.63-1.39l89.955-78.89a1.862 1.862 0 0 1 1.98-.295l30.07 13.615c.66.3 1.085.955 1.085 1.68v38.8l18.985 8.615c.66.3 1.085.955 1.085 1.68v40.005c0 .535-.23 1.04-.63 1.39l-30.1 26.295a1.85 1.85 0 0 1-1.98.29l-48.985-22.32-29.09 25.455c-.345.3-.775.455-1.215.455v.005Zm-28.095-16.705 27.78 12.685 29.09-25.455a1.84 1.84 0 0 1 1.98-.29l48.985 22.32 28.57-24.96v-37.98l-18.985-8.615a1.846 1.846 0 0 1-1.085-1.68v-38.795l-27.9-12.635-88.43 77.555v37.855l-.005-.005Z"/><path fill="#222" d="M197.72 245.33a1.847 1.847 0 0 1-1.22-3.235l60.01-52.575a1.85 1.85 0 0 1 1.98-.29l27.46 12.46v-35.935l-27.9-12.635-89.06 78.11a1.85 1.85 0 0 1-2.605-.17 1.85 1.85 0 0 1 .17-2.605l89.955-78.89a1.852 1.852 0 0 1 1.98-.295l30.07 13.615c.66.3 1.085.955 1.085 1.68v39.99c0 .625-.32 1.21-.845 1.55-.525.34-1.19.39-1.76.13l-28.985-13.155-59.115 51.79c-.35.305-.785.46-1.215.46h-.005Z"/><path fill="#222" d="M257.73 232.715a1.844 1.844 0 0 1-1.845-1.845v-39.96c0-.53.23-1.04.63-1.39l30.07-26.345a1.84 1.84 0 0 1 1.98-.29c.66.3 1.085.955 1.085 1.68v39.99c0 1.02-.825 1.845-1.845 1.845a1.844 1.844 0 0 1-1.845-1.845V168.64l-26.38 23.11v39.125c0 1.02-.825 1.845-1.845 1.845l-.005-.005Z"/><path fill="#FF3158" d="M167.775 269.72v-39.88l29.945 13.645 29.985-26.27 50.065 22.77 30.1-26.325v40.01l-30.1 26.29-50.065-22.81-29.985 26.24-29.945-13.67Z"/><path fill="#222" d="M197.721 285.235c-.26 0-.52-.055-.765-.165l-29.945-13.67a1.85 1.85 0 0 1-1.08-1.68v-39.875c0-.63.32-1.21.845-1.55.53-.34 1.19-.385 1.765-.125l28.86 13.15 29.09-25.485a1.831 1.831 0 0 1 1.98-.29l48.985 22.275 29.2-25.54a1.85 1.85 0 0 1 3.065 1.39v40.005c0 .535-.23 1.04-.63 1.39l-30.1 26.295a1.85 1.85 0 0 1-1.98.29l-48.985-22.32-29.09 25.455c-.345.3-.775.455-1.215.455v-.005Zm-28.095-16.705 27.78 12.685 29.09-25.455a1.84 1.84 0 0 1 1.98-.29l48.985 22.32 28.57-24.96v-35.105l-27.035 23.645a1.85 1.85 0 0 1-1.98.29l-48.985-22.275-29.09 25.485a1.84 1.84 0 0 1-1.98.29l-27.33-12.455v35.82l-.005.005ZM257.73 192.756a1.844 1.844 0 0 1-1.845-1.845v-36.63c0-1.02.825-1.845 1.845-1.845s1.845.825 1.845 1.845v36.63c0 1.02-.825 1.845-1.845 1.845Z"/><path fill="#222" d="M197.72 281.911a1.844 1.844 0 0 1-1.845-1.845v-36.58c0-1.02.825-1.845 1.845-1.845s1.845.825 1.845 1.845v36.58c0 1.02-.825 1.845-1.845 1.845ZM227.705 258.995a1.844 1.844 0 0 1-1.845-1.845v-36.605c0-1.02.825-1.845 1.845-1.845s1.845.825 1.845 1.845v36.605c0 1.02-.825 1.845-1.845 1.845ZM277.77 278.476a1.844 1.844 0 0 1-1.845-1.845v-36.645c0-1.02.825-1.845 1.845-1.845s1.845.825 1.845 1.845v36.645c0 1.02-.825 1.845-1.845 1.845Z"/><path fill="#F5F4F3" d="M115.319 193.21c32.588 0 59.005-26.417 59.005-59.005 0-32.587-26.417-59.005-59.005-59.005-32.587 0-59.005 26.418-59.005 59.005 0 32.588 26.418 59.005 59.005 59.005Z"/><path fill="#222" d="M115.32 194.595c-33.3 0-60.39-27.09-60.39-60.39s27.09-60.39 60.39-60.39 60.39 27.09 60.39 60.39-27.09 60.39-60.39 60.39Zm0-118.005c-31.77 0-57.62 25.85-57.62 57.62 0 31.77 25.85 57.62 57.62 57.62 31.77 0 57.62-25.85 57.62-57.62 0-31.77-25.85-57.62-57.62-57.62Z"/><path fill="#FF3158" d="M107.195 163.764v-23.36H85.74v-14.855h21.455v-23.36h16.25v23.36H144.9v14.855h-21.455v23.36h-16.25Z"/></svg>