<svg xmlns="http://www.w3.org/2000/svg" width="400" height="400" fill="none" viewBox="0 0 400 400"><path fill="#DADADA" d="M107.094 319.227h278.553l-79.7-73.819H27.911l79.183 73.819Z"/><path fill="#222" d="M381.393 327.31H102.839c-.351 0-.684-.13-.943-.37l-79.201-73.819a1.378 1.378 0 0 1-.352-1.516 1.382 1.382 0 0 1 1.295-.888h278.054c.352 0 .685.129.944.37l79.7 73.818c.425.389.555.999.351 1.517a1.41 1.41 0 0 1-1.294.888Zm-277.999-2.775H377.86l-76.704-71.044H27.171l76.223 71.044Z"/><path fill="#fff" d="M278.331 143.605 153.149 99.88l-80.255 43.725v114.973l47.165 43.725h205.438V187.33l-47.166-43.725Z"/><path fill="#444" d="M198.631 302.303h126.866l-47.165-43.725h-79.701v43.725Z"/><path fill="#FF3158" d="M309.202 301.748h-14.039l-45.981-42.634 14.057-.536 45.963 43.17ZM240.414 280.699l-14.057.352-23.638-21.937 14.057-.536 23.638 22.121Z"/><path fill="#222" d="M225.728 281.809c-.332 0-.684-.13-.943-.37l-23.009-21.29a1.396 1.396 0 0 1-.074-1.96 1.396 1.396 0 0 1 1.96-.074l23.01 21.289c.555.518.592 1.406.074 1.961a1.392 1.392 0 0 1-1.018.444Z"/><path fill="#222" d="M240.414 282.086h-14.057a1.397 1.397 0 0 1-1.387-1.387c0-.758.629-1.387 1.387-1.387h14.057c.758 0 1.387.629 1.387 1.387 0 .759-.629 1.387-1.387 1.387Z"/><path fill="#FF3158" d="m266.512 289.022-15.592.333-32.59-30.241 14.057-.536 34.125 30.444Z"/><path fill="#222" d="M250.365 290.187c-.333 0-.684-.129-.943-.37l-32.054-29.668a1.396 1.396 0 0 1-.074-1.96 1.397 1.397 0 0 1 1.961-.074l32.054 29.668c.555.518.592 1.406.074 1.96a1.392 1.392 0 0 1-1.018.444Z"/><path fill="#222" d="M246.333 271.71h-15.148a1.398 1.398 0 0 1-1.388-1.387c0-.759.629-1.387 1.388-1.387h15.148c.758 0 1.387.628 1.387 1.387 0 .758-.629 1.387-1.387 1.387ZM266.513 290.41h-15.648a1.397 1.397 0 0 1-1.387-1.388c0-.758.628-1.387 1.387-1.387h15.648c.758 0 1.387.629 1.387 1.387 0 .759-.629 1.388-1.387 1.388Z"/><path fill="#FF3158" d="M294.275 301.748h-14.02l-45.982-42.634 14.058-.536 45.944 43.17Z"/><path fill="#222" d="M280.255 303.135c-.333 0-.684-.13-.943-.37l-45.982-42.634a1.397 1.397 0 0 1-.074-1.961 1.397 1.397 0 0 1 1.961-.074l45.981 42.634c.555.518.592 1.406.074 1.961a1.388 1.388 0 0 1-1.017.444Z"/><path fill="#FF3158" d="M324.295 301.748h-14.039l-45.982-42.634 14.058-.536 45.963 43.17Z"/><path fill="#F5F4F3" d="M159.049 251.013h-31.406v-71.267l31.406-17.349v88.616ZM194.303 210.044l-23.804-22.085v63.054h23.804v-40.969ZM206.77 251.012h79.145v-80.015l-79.145-27.393v107.408Z"/><path fill="#444" d="M120.059 258.578v43.725h78.572l-47.165-43.725h-31.407Z"/><path fill="#444" d="M162.915 258.578h23.805v32.701l-23.805-22.066v-10.635Z"/><path fill="#222" d="M279.719 151.892h-2.775v106.704h2.775V151.892Z"/><path fill="#222" d="m279.277 257.593-1.887 2.034 47.157 43.729 1.886-2.034-47.156-43.729ZM313.234 261.759c-.352 0-.684-.129-.943-.37l-23.805-22.066a1.397 1.397 0 0 1-.444-1.017v-42.763c0-.555.333-1.055.832-1.277a1.366 1.366 0 0 1 1.499.259l23.804 22.066c.278.259.444.629.444 1.018v42.763c0 .555-.333 1.054-.832 1.276-.185.074-.37.111-.555.111Zm-22.418-24.064 21.031 19.496v-38.972l-21.031-19.495v38.971ZM197.688 303.32l-11.893-11.024a1.397 1.397 0 0 1-.444-1.017v-73.06l-21.03-19.495v70.489c0 .555-.333 1.054-.833 1.276a1.363 1.363 0 0 1-1.498-.259l-11.449-10.617a1.401 1.401 0 0 1-.444-1.017V169.98h2.775v88.006l8.674 8.046v-70.49c0-.555.333-1.054.833-1.276a1.365 1.365 0 0 1 1.498.259l23.805 22.085c.277.258.443.628.443 1.017v73.06l11.45 10.617-1.887 2.034v-.018Z"/><path fill="#222" d="M200.019 143.604h-2.775v158.717h2.775V143.604ZM290.38 215.929l-1.887 2.035 23.802 22.072 1.887-2.035-23.802-22.072Z"/><path fill="#222" d="M301.341 249.348a1.397 1.397 0 0 1-1.387-1.387v-41.635c0-.759.628-1.388 1.387-1.388.758 0 1.387.629 1.387 1.388v41.635c0 .758-.629 1.387-1.387 1.387ZM278.332 257.19h-79.701v2.775h79.701v-2.775ZM186.72 257.19h-23.805v2.775h23.805v-2.775ZM151.466 257.19h-31.407v2.775h31.407v-2.775Z"/><path fill="#DADADA" d="M268.898 143.605 153.149 99.88l-80.255 43.725 47.165 43.725 79.145-43.725 126.293 43.725-56.599-43.725Z"/><path fill="#222" d="m73.84 142.602-1.886 2.034 47.157 43.729 1.886-2.034-47.156-43.729Z"/><path fill="#222" d="M120.059 302.451a1.398 1.398 0 0 1-1.387-1.388V186.072c0-.499.277-.962.721-1.221l79.146-43.725a1.412 1.412 0 0 1 1.128-.092l126.292 43.725c.722.259 1.11 1.036.851 1.757-.259.721-1.036 1.11-1.757.851l-125.719-43.522-77.888 43.022v114.159c0 .759-.629 1.387-1.387 1.387v.038Z"/><path fill="#222" d="M325.497 303.69H120.059c-.351 0-.684-.129-.943-.37L71.95 259.595a1.399 1.399 0 0 1-.444-1.017V143.587c0-.5.278-.981.722-1.221l80.236-43.725a1.383 1.383 0 0 1 1.147-.074l115.75 43.725c.129.056.24.111.351.185l56.599 42.486c.351.259.555.666.555 1.11v116.212c0 .758-.629 1.387-1.388 1.387l.019.018Zm-204.883-2.774H324.11v-114.14l-55.896-41.95-114.954-43.429-78.96 43.022v113.549l46.314 42.948Z"/><path fill="#222" d="M257.135 232.128h-43.096a1.398 1.398 0 0 1-1.388-1.387v-43.096c0-.759.629-1.388 1.388-1.388h43.096c.758 0 1.387.629 1.387 1.388v43.096c0 .758-.629 1.387-1.387 1.387Zm-41.709-2.774h40.322v-40.322h-40.322v40.322Z"/><path fill="#222" d="M236.974 187.33H234.2v43.411h2.774V187.33Z"/><path fill="#222" d="M257.153 207.806h-43.096v2.774h43.096v-2.774ZM310.256 303.135c-.333 0-.684-.13-.943-.37l-45.982-42.634a1.397 1.397 0 0 1-.074-1.961 1.397 1.397 0 0 1 1.961-.074l45.981 42.634c.555.518.592 1.406.074 1.961a1.388 1.388 0 0 1-1.017.444ZM295.163 303.135c-.333 0-.684-.13-.943-.37l-45.982-42.634a1.397 1.397 0 0 1-.074-1.961 1.397 1.397 0 0 1 1.961-.074l45.982 42.634c.554.518.591 1.406.074 1.961a1.392 1.392 0 0 1-1.018.444Z"/><path fill="#FF3158" d="M131.767 283.085v-16.073l8.231 7.88v16.073l-8.231-7.88Z"/><path fill="#222" d="M139.998 292.352c-.352 0-.703-.13-.962-.389l-8.249-7.86a1.37 1.37 0 0 1-.426-.999V267.03c0-.554.333-1.054.851-1.276.5-.222 1.11-.111 1.498.278l8.25 7.861c.277.259.425.628.425.998v16.074c0 .555-.333 1.054-.851 1.276-.166.074-.37.111-.536.111Zm-6.862-9.84 5.475 5.216v-12.245l-5.475-5.216v12.245Z"/><path fill="#FF3158" d="M176.38 274.892h-36.382v16.073h36.382v-16.073Z"/><path fill="#222" d="M176.38 292.352h-36.382a1.397 1.397 0 0 1-1.387-1.387v-16.073c0-.759.629-1.388 1.387-1.388h36.382c.759 0 1.387.629 1.387 1.388v16.073c0 .758-.628 1.387-1.387 1.387Zm-34.995-2.774h33.608v-13.299h-33.608v13.299Z"/><path fill="#FF3158" d="M131.767 267.012h36.364l8.249 7.88h-36.382l-8.231-7.88Z"/><path fill="#222" d="M176.38 276.279h-36.382c-.351 0-.703-.13-.961-.389l-8.25-7.86a1.407 1.407 0 0 1-.333-1.517 1.394 1.394 0 0 1 1.295-.869h36.382c.352 0 .703.129.962.388l8.249 7.861c.407.388.537.999.333 1.517a1.394 1.394 0 0 1-1.295.869Zm-35.827-2.775h32.35l-5.327-5.086h-32.35l5.327 5.086Z"/><path fill="#DADADA" d="M143.919 258.911v10.413h5.734v-6.307h6.955v6.307h5.715v-10.413h-18.404Z"/><path fill="#222" d="M162.323 270.711h-5.734a1.397 1.397 0 0 1-1.387-1.387v-4.92h-4.18v4.92c0 .758-.629 1.387-1.387 1.387h-5.734a1.397 1.397 0 0 1-1.387-1.387v-10.432c0-.758.629-1.387 1.387-1.387h18.404c.758 0 1.387.629 1.387 1.387v10.432c0 .758-.629 1.387-1.387 1.387h.018Zm-4.346-2.774h2.959v-7.658h-15.629v7.658h2.959v-4.92c0-.759.629-1.387 1.387-1.387h6.955c.758 0 1.387.628 1.387 1.387v4.92h-.018ZM271.969 282.086h-14.057a1.397 1.397 0 0 1-1.388-1.387c0-.758.629-1.387 1.388-1.387h14.057c.758 0 1.387.629 1.387 1.387 0 .759-.629 1.387-1.387 1.387ZM300.564 282.086h-11.967a1.397 1.397 0 0 1-1.387-1.387c0-.758.629-1.387 1.387-1.387h11.967c.759 0 1.387.629 1.387 1.387 0 .759-.628 1.387-1.387 1.387ZM274.873 271.71h-12.818a1.398 1.398 0 0 1-1.388-1.387c0-.759.629-1.387 1.388-1.387h12.818c.758 0 1.387.628 1.387 1.387 0 .758-.629 1.387-1.387 1.387ZM295.644 290.41h-12.836a1.398 1.398 0 0 1-1.388-1.388c0-.758.629-1.387 1.388-1.387h12.836c.758 0 1.387.629 1.387 1.387 0 .759-.629 1.388-1.387 1.388Z"/><path fill="#444" d="M135.54 92.574H32.11V224.95h103.43V92.574Z"/><path fill="#222" d="M123.241 133.617H39.453a1.397 1.397 0 0 1-1.388-1.387c0-.759.63-1.388 1.388-1.388h83.806c.759 0 1.387.629 1.387 1.388 0 .758-.628 1.387-1.387 1.387h-.018ZM123.241 151.207H39.453a1.397 1.397 0 0 1-1.388-1.387c0-.759.63-1.387 1.388-1.387h83.806c.759 0 1.387.628 1.387 1.387 0 .758-.628 1.387-1.387 1.387h-.018ZM123.241 116.008H39.453a1.397 1.397 0 0 1-1.388-1.387c0-.758.63-1.387 1.388-1.387h83.806c.759 0 1.387.629 1.387 1.387s-.628 1.387-1.387 1.387h-.018ZM123.241 168.797H39.453a1.397 1.397 0 0 1-1.388-1.387c0-.759.63-1.388 1.388-1.388h83.806c.759 0 1.387.629 1.387 1.388 0 .758-.628 1.387-1.387 1.387h-.018ZM123.241 186.405H39.453a1.397 1.397 0 0 1-1.388-1.387c0-.758.63-1.387 1.388-1.387h83.806c.759 0 1.387.629 1.387 1.387s-.628 1.387-1.387 1.387h-.018ZM102.377 203.995H39.453a1.397 1.397 0 0 1-1.388-1.387c0-.758.63-1.387 1.388-1.387h62.924c.758 0 1.387.629 1.387 1.387s-.629 1.387-1.387 1.387Z"/><path fill="#fff" d="M137.797 90.114H35.938v131.434h101.859V90.114Z"/><path fill="#222" d="M137.778 222.935H35.938a1.397 1.397 0 0 1-1.387-1.387V90.114c0-.759.629-1.387 1.387-1.387h101.859c.758 0 1.387.628 1.387 1.387v131.434c0 .759-.629 1.387-1.387 1.387h-.019Zm-100.471-2.774h99.084V91.501H37.325v128.66h-.018Z"/><path fill="#DADADA" d="M128.235 127.014H45.501v41.561h82.734v-41.561ZM128.235 174.66H45.501v33.645h82.734V174.66ZM128.235 104.227H45.501v16.739h82.734v-16.739Z"/><path fill="#222" d="M61.722 80.958s-15.87 10.469-31.721 13.095c0 0 .87 19.791 7.417 37.696 8.138 22.232 24.304 30.556 24.304 30.556s16.166-8.324 24.304-30.556c6.548-17.905 7.417-37.696 7.417-37.696-15.87-2.626-31.721-13.095-31.721-13.095Z"/><path fill="#fff" d="M58.19 169.167c-.777-.389-18.96-9.988-28.022-34.773-6.881-18.811-7.843-39.138-7.88-40.008l-.296-6.843 6.77-1.11c13.983-2.312 28.577-11.819 28.724-11.93l3.718-2.442 4.402 2.183.389.259c.148.093 14.741 9.618 28.724 11.93l6.77 1.11-.296 6.843c-.037.851-.999 21.197-7.88 40.008-9.192 25.118-27.91 34.717-28.095 34.81l-3.514 1.757-3.496-1.794h-.019Z"/><path fill="#222" d="M61.667 172.348c-.222 0-.444-.056-.63-.148l-3.495-1.794c-.795-.407-19.44-10.247-28.688-35.532-6.973-19.051-7.935-39.563-7.972-40.414l-.296-6.843a1.369 1.369 0 0 1 1.166-1.425l6.77-1.11c13.705-2.256 28.04-11.615 28.188-11.708l3.717-2.441a1.379 1.379 0 0 1 1.388-.074l4.92 2.534c.147.092 14.52 9.451 28.188 11.727l6.769 1.11a1.401 1.401 0 0 1 1.166 1.423l-.296 6.844c-.037.87-.999 21.363-7.972 40.414-9.378 25.636-28.595 35.476-28.78 35.587l-3.515 1.757a1.486 1.486 0 0 1-.628.148v-.055Zm-38.25-83.64.24 5.623c.037.85.98 20.919 7.805 39.582 8.878 24.285 26.598 33.626 27.356 34.014l2.867 1.48 2.885-1.443c.186-.092 18.478-9.599 27.43-34.051 6.826-18.663 7.769-38.75 7.806-39.582l.24-5.623-5.549-.925C80.2 85.415 65.384 75.742 65.237 75.65l-.39-.26-3.532-1.757-3.052 2.017c-.148.092-14.87 9.765-29.26 12.133l-5.55.925h-.037Z"/><path fill="#FF3158" d="M61.722 80.366s-15.87 10.47-31.721 13.096c0 0 .87 19.791 7.417 37.695 8.138 22.232 24.304 30.556 24.304 30.556s16.166-8.324 24.304-30.556c6.548-17.904 7.417-37.695 7.417-37.695-15.87-2.627-31.721-13.096-31.721-13.096Z"/><path fill="#222" d="M61.722 163.673c-.222 0-.444-.056-.629-.148-.684-.351-16.739-8.841-24.97-31.314-6.547-17.886-7.49-37.899-7.51-38.103a1.37 1.37 0 0 1 1.166-1.424c15.389-2.534 31.037-12.78 31.185-12.892.462-.314 1.072-.296 1.535 0 .148.111 15.777 10.34 31.185 12.892a1.4 1.4 0 0 1 1.165 1.425c0 .203-.962 20.216-7.51 38.102-8.175 22.38-24.285 30.963-24.97 31.314a1.33 1.33 0 0 1-.647.148Zm-30.26-68.492c.315 4.55 1.776 21.086 7.27 36.068 6.954 19.014 19.994 27.652 23.008 29.446 3.07-1.794 15.981-10.284 22.991-29.446 5.475-14.982 6.955-31.518 7.27-36.068-13.577-2.57-26.598-10.302-30.242-12.614-3.274 2.053-16.517 10.006-30.278 12.614h-.019Z"/><path fill="#fff" d="m86.655 105.91-26.746 29.668-18.958-19.162 6.325-6.4 12.67 12.356L80.33 99.177l6.326 6.733Z"/><path fill="#222" d="M59.91 136.965c-.37 0-.722-.148-.98-.407l-18.96-19.162a1.396 1.396 0 0 1 0-1.961l6.326-6.4a1.379 1.379 0 0 1 1.961 0l11.616 11.339 19.42-22.103a1.35 1.35 0 0 1 1.018-.463c.407 0 .758.148 1.036.444l6.344 6.733c.5.518.5 1.35.019 1.886l-26.746 29.668a1.45 1.45 0 0 1-.999.463h-.037l-.018-.037Zm-17.017-20.55 16.961 17.146 24.915-27.633-4.421-4.698-19.384 22.047c-.259.278-.61.463-.98.463s-.759-.13-1.018-.389l-11.67-11.393-4.384 4.439-.019.018Z"/></svg>