<svg xmlns="http://www.w3.org/2000/svg" width="400" height="400" fill="none" viewBox="0 0 400 400"><path fill="#DADADA" d="M67.475 329.289h312.697l-40.432-46.444H27.615l39.86 46.444Z"/><path fill="#222" d="M375.4 338.204H62.702c-.407 0-.795-.185-1.054-.481L21.77 291.26a1.393 1.393 0 0 1-.203-1.479c.222-.5.721-.814 1.258-.814h312.142c.407 0 .777.166 1.055.481l40.432 46.462c.352.407.444.999.222 1.48a1.379 1.379 0 0 1-1.257.814h-.019Zm-312.069-2.775h309.017l-38.028-43.688H25.84l37.491 43.688Z"/><path fill="#fff" d="M320.595 91.298H81.568v222.528h239.027V91.298Z"/><path fill="#222" d="M320.577 315.214H81.568a1.398 1.398 0 0 1-1.387-1.388V91.298c0-.758.629-1.387 1.387-1.387h239.027c.759 0 1.388.629 1.388 1.387v222.528c0 .759-.629 1.388-1.388 1.388h-.018Zm-237.64-2.775H319.19V92.685H82.956V312.44h-.019Z"/><path fill="#F5F4F3" d="M326.385 96.31H88.079v217.516h238.306V96.31Z"/><path fill="#222" d="M320.577 315.214H81.568a1.398 1.398 0 0 1-1.387-1.388V91.298c0-.758.629-1.387 1.387-1.387h239.027c.759 0 1.388.629 1.388 1.387v222.528c0 .759-.629 1.388-1.388 1.388h-.018Zm-237.64-2.775H319.19V92.685H82.956V312.44h-.019Z"/><path fill="#FF3158" d="M201.018 264.071h-30.316v49.755h30.316v-49.755ZM231.444 264.071h-30.316v49.755h30.316v-49.755Z"/><path fill="#222" d="M201.091 315.213h-30.315a1.397 1.397 0 0 1-1.387-1.387v-49.755c0-.759.629-1.387 1.387-1.387h30.315c.759 0 1.387.628 1.387 1.387v49.755c0 .758-.628 1.387-1.387 1.387Zm-28.928-2.774h27.541v-46.981h-27.541v46.981Z"/><path fill="#222" d="M231.536 315.213h-30.315a1.398 1.398 0 0 1-1.388-1.387v-49.755c0-.759.629-1.387 1.388-1.387h30.315c.758 0 1.387.628 1.387 1.387v49.755c0 .758-.629 1.387-1.387 1.387Zm-28.928-2.774h27.541v-46.981h-27.541v46.981Z"/><path fill="#DADADA" d="M185.295 208.804h-16.202v38.528h16.202v-38.528Z"/><path fill="#222" d="M190.623 252.603H174.42a1.397 1.397 0 0 1-1.387-1.387v-38.509c0-.758.629-1.387 1.387-1.387h16.203c.758 0 1.387.629 1.387 1.387v38.509c0 .759-.629 1.387-1.387 1.387Zm-14.816-2.774h13.428v-35.735h-13.428v35.735Z"/><path fill="#DADADA" d="M185.295 156.127h-16.202v38.528h16.202v-38.528Z"/><path fill="#222" d="M190.623 199.926H174.42a1.397 1.397 0 0 1-1.387-1.387V160.03c0-.759.629-1.387 1.387-1.387h16.203c.758 0 1.387.628 1.387 1.387v38.509c0 .758-.629 1.387-1.387 1.387Zm-14.816-2.774h13.428v-35.735h-13.428v35.735Z"/><path fill="#DADADA" d="M185.295 102.543h-16.202v38.528h16.202v-38.528Z"/><path fill="#222" d="M190.623 146.342H174.42a1.397 1.397 0 0 1-1.387-1.387v-38.509c0-.759.629-1.387 1.387-1.387h16.203c.758 0 1.387.628 1.387 1.387v38.509c0 .758-.629 1.387-1.387 1.387Zm-14.816-2.774h13.428v-35.735h-13.428v35.735Z"/><path fill="#DADADA" d="M222.399 208.804h-16.203v38.528h16.203v-38.528Z"/><path fill="#222" d="M227.726 252.603h-16.203a1.397 1.397 0 0 1-1.387-1.387v-38.509c0-.758.629-1.387 1.387-1.387h16.203c.758 0 1.387.629 1.387 1.387v38.509c0 .759-.629 1.387-1.387 1.387Zm-14.816-2.774h13.428v-35.735H212.91v35.735Z"/><path fill="#DADADA" d="M222.399 156.127h-16.203v38.528h16.203v-38.528Z"/><path fill="#222" d="M227.726 199.926h-16.203a1.397 1.397 0 0 1-1.387-1.387V160.03c0-.759.629-1.387 1.387-1.387h16.203c.758 0 1.387.628 1.387 1.387v38.509c0 .758-.629 1.387-1.387 1.387Zm-14.816-2.774h13.428v-35.735H212.91v35.735Z"/><path fill="#DADADA" d="M222.399 102.543h-16.203v38.528h16.203v-38.528Z"/><path fill="#222" d="M227.726 146.342h-16.203a1.397 1.397 0 0 1-1.387-1.387v-38.509c0-.759.629-1.387 1.387-1.387h16.203c.758 0 1.387.628 1.387 1.387v38.509c0 .758-.629 1.387-1.387 1.387Zm-14.816-2.774h13.428v-35.735H212.91v35.735Z"/><path fill="#DADADA" d="M259.503 208.804H243.3v38.528h16.203v-38.528Z"/><path fill="#222" d="M264.829 252.603h-16.203a1.397 1.397 0 0 1-1.387-1.387v-38.509c0-.758.629-1.387 1.387-1.387h16.203c.759 0 1.387.629 1.387 1.387v38.509c0 .759-.628 1.387-1.387 1.387Zm-14.815-2.774h13.428v-35.735h-13.428v35.735Z"/><path fill="#DADADA" d="M259.503 156.127H243.3v38.528h16.203v-38.528Z"/><path fill="#222" d="M264.829 199.926h-16.203a1.397 1.397 0 0 1-1.387-1.387V160.03c0-.759.629-1.387 1.387-1.387h16.203c.759 0 1.387.628 1.387 1.387v38.509c0 .758-.628 1.387-1.387 1.387Zm-14.815-2.774h13.428v-35.735h-13.428v35.735Z"/><path fill="#DADADA" d="M259.503 102.543H243.3v38.528h16.203v-38.528Z"/><path fill="#222" d="M264.829 146.342h-16.203a1.397 1.397 0 0 1-1.387-1.387v-38.509c0-.759.629-1.387 1.387-1.387h16.203c.759 0 1.387.628 1.387 1.387v38.509c0 .758-.628 1.387-1.387 1.387Zm-14.815-2.774h13.428v-35.735h-13.428v35.735Z"/><path fill="#DADADA" d="M296.606 208.804h-16.203v38.528h16.203v-38.528Z"/><path fill="#222" d="M301.933 252.603H285.73a1.397 1.397 0 0 1-1.387-1.387v-38.509c0-.758.629-1.387 1.387-1.387h16.203c.758 0 1.387.629 1.387 1.387v38.509c0 .759-.629 1.387-1.387 1.387Zm-14.816-2.774h13.429v-35.735h-13.429v35.735Z"/><path fill="#DADADA" d="M296.606 156.127h-16.203v38.528h16.203v-38.528Z"/><path fill="#222" d="M301.933 199.926H285.73a1.397 1.397 0 0 1-1.387-1.387V160.03c0-.759.629-1.387 1.387-1.387h16.203c.758 0 1.387.628 1.387 1.387v38.509c0 .758-.629 1.387-1.387 1.387Zm-14.816-2.774h13.429v-35.735h-13.429v35.735Z"/><path fill="#DADADA" d="M296.606 102.543h-16.203v38.528h16.203v-38.528Z"/><path fill="#222" d="M301.933 146.342H285.73a1.397 1.397 0 0 1-1.387-1.387v-38.509c0-.759.629-1.387 1.387-1.387h16.203c.758 0 1.387.628 1.387 1.387v38.509c0 .758-.629 1.387-1.387 1.387Zm-14.816-2.774h13.429v-35.735h-13.429v35.735Z"/><path fill="#DADADA" d="M148.192 208.804h-16.203v38.528h16.203v-38.528Z"/><path fill="#222" d="M153.501 252.603h-16.203a1.397 1.397 0 0 1-1.387-1.387v-38.509c0-.758.629-1.387 1.387-1.387h16.203c.758 0 1.387.629 1.387 1.387v38.509c0 .759-.629 1.387-1.387 1.387Zm-14.816-2.774h13.428v-35.735h-13.428v35.735Z"/><path fill="#DADADA" d="M148.192 156.127h-16.203v38.528h16.203v-38.528Z"/><path fill="#222" d="M153.501 199.926h-16.203a1.397 1.397 0 0 1-1.387-1.387V160.03c0-.759.629-1.387 1.387-1.387h16.203c.758 0 1.387.628 1.387 1.387v38.509c0 .758-.629 1.387-1.387 1.387Zm-14.816-2.774h13.428v-35.735h-13.428v35.735Z"/><path fill="#DADADA" d="M148.192 102.543h-16.203v38.528h16.203v-38.528Z"/><path fill="#222" d="M153.501 146.342h-16.203a1.397 1.397 0 0 1-1.387-1.387v-38.509c0-.759.629-1.387 1.387-1.387h16.203c.758 0 1.387.628 1.387 1.387v38.509c0 .758-.629 1.387-1.387 1.387Zm-14.816-2.774h13.428v-35.735h-13.428v35.735Z"/><path fill="#DADADA" d="M111.088 208.804H94.886v38.528h16.202v-38.528Z"/><path fill="#222" d="M116.397 252.603h-16.203a1.397 1.397 0 0 1-1.387-1.387v-38.509c0-.758.629-1.387 1.387-1.387h16.203c.758 0 1.387.629 1.387 1.387v38.509c0 .759-.629 1.387-1.387 1.387Zm-14.815-2.774h13.428v-35.735h-13.428v35.735Z"/><path fill="#DADADA" d="M259.503 260.168H243.3v38.528h16.203v-38.528Z"/><path fill="#222" d="M264.829 303.967h-16.203a1.397 1.397 0 0 1-1.387-1.387v-38.509c0-.759.629-1.387 1.387-1.387h16.203c.759 0 1.387.628 1.387 1.387v38.509c0 .758-.628 1.387-1.387 1.387Zm-14.815-2.774h13.428v-35.735h-13.428v35.735Z"/><path fill="#DADADA" d="M296.606 260.168h-16.203v38.528h16.203v-38.528Z"/><path fill="#222" d="M301.933 303.967H285.73a1.397 1.397 0 0 1-1.387-1.387v-38.509c0-.759.629-1.387 1.387-1.387h16.203c.758 0 1.387.628 1.387 1.387v38.509c0 .758-.629 1.387-1.387 1.387Zm-14.816-2.774h13.429v-35.735h-13.429v35.735Z"/><path fill="#DADADA" d="M148.192 260.168h-16.203v38.528h16.203v-38.528Z"/><path fill="#222" d="M153.501 303.967h-16.203a1.397 1.397 0 0 1-1.387-1.387v-38.509c0-.759.629-1.387 1.387-1.387h16.203c.758 0 1.387.628 1.387 1.387v38.509c0 .758-.629 1.387-1.387 1.387Zm-14.816-2.774h13.428v-35.735h-13.428v35.735Z"/><path fill="#DADADA" d="M111.088 260.168H94.886v38.528h16.202v-38.528Z"/><path fill="#222" d="M116.397 303.967h-16.203a1.397 1.397 0 0 1-1.387-1.387v-38.509c0-.759.629-1.387 1.387-1.387h16.203c.758 0 1.387.628 1.387 1.387v38.509c0 .758-.629 1.387-1.387 1.387Zm-14.815-2.774h13.428v-35.735h-13.428v35.735Z"/><path fill="#DADADA" d="M111.088 156.127H94.886v38.528h16.202v-38.528Z"/><path fill="#222" d="M116.397 199.926h-16.203a1.397 1.397 0 0 1-1.387-1.387V160.03c0-.759.629-1.387 1.387-1.387h16.203c.758 0 1.387.628 1.387 1.387v38.509c0 .758-.629 1.387-1.387 1.387Zm-14.815-2.774h13.428v-35.735h-13.428v35.735Z"/><path fill="#DADADA" d="M111.088 102.543H94.886v38.528h16.202v-38.528Z"/><path fill="#222" d="M116.397 146.342h-16.203a1.397 1.397 0 0 1-1.387-1.387v-38.509c0-.759.629-1.387 1.387-1.387h16.203c.758 0 1.387.628 1.387 1.387v38.509c0 .758-.629 1.387-1.387 1.387Zm-14.815-2.774h13.428v-35.735h-13.428v35.735ZM309.054 62.795s-25.1 16.573-50.199 20.716c0 0 1.387 31.314 11.745 59.632 12.874 35.18 38.454 48.349 38.454 48.349s25.58-13.169 38.454-48.349c10.357-28.318 11.745-59.632 11.745-59.632-25.1-4.143-50.199-20.716-50.199-20.716Z"/><path fill="#fff" d="M303.45 202.405c-1.221-.629-30.001-15.815-44.336-55.027-10.894-29.76-12.411-61.944-12.485-63.312l-.481-10.84 10.71-1.775c22.14-3.662 45.223-18.718 45.464-18.866l5.881-3.866 6.955 3.477.61.407c.222.148 23.324 15.223 45.464 18.867l10.709 1.775-.48 10.84c-.056 1.35-1.591 33.551-12.485 63.312-14.538 39.748-44.169 54.952-44.484 55.1l-5.549 2.775-5.512-2.849.019-.018Z"/><path fill="#222" d="M308.98 206.622c-.222 0-.444-.056-.629-.148l-5.511-2.849c-1.24-.628-30.482-16.054-45.02-55.784-10.969-29.964-12.504-62.351-12.559-63.72l-.481-10.839a1.369 1.369 0 0 1 1.165-1.424l10.709-1.776c21.844-3.606 44.687-18.514 44.928-18.662l5.882-3.866a1.378 1.378 0 0 1 1.387-.074l6.954 3.477.759.481c.222.148 23.083 15.056 44.927 18.663l10.709 1.776a1.401 1.401 0 0 1 1.166 1.424l-.481 10.839c-.056 1.368-1.591 33.755-12.559 63.719-14.723 40.267-44.854 55.711-45.15 55.859l-5.548 2.774a1.488 1.488 0 0 1-.629.148l-.019-.018Zm-61.37-132.23.425 9.618c.056 1.35 1.572 33.312 12.393 62.887 14.168 38.732 42.467 53.658 43.669 54.268l4.902 2.516 4.92-2.46c.296-.148 29.501-15.26 43.799-54.324 10.82-29.575 12.337-61.537 12.392-62.887l.426-9.618-9.489-1.572c-22.473-3.718-45.778-18.94-46-19.088l-.61-.407-6.104-3.034-5.216 3.44c-.24.149-23.527 15.371-46 19.089l-9.489 1.572h-.018Z"/><path fill="#FF3158" d="M309.054 61.87s-25.1 16.573-50.199 20.716c0 0 1.387 31.314 11.745 59.632 12.874 35.18 38.454 48.349 38.454 48.349s25.58-13.169 38.454-48.349c10.357-28.318 11.745-59.632 11.745-59.632-25.1-4.143-50.199-20.716-50.199-20.716Z"/><path fill="#222" d="M309.054 192.916c-.222 0-.444-.056-.629-.148-1.073-.555-26.209-13.835-39.12-49.108-10.321-28.206-11.819-59.742-11.819-60.057a1.37 1.37 0 0 1 1.166-1.424c24.526-4.05 49.403-20.346 49.662-20.513a1.367 1.367 0 0 1 1.535 0c.241.167 25.118 16.462 49.663 20.513a1.401 1.401 0 0 1 1.165 1.424c0 .315-1.517 31.851-11.838 60.057-13.077 35.754-38.879 48.997-39.138 49.126a1.485 1.485 0 0 1-.629.148l-.018-.018ZM260.316 84.694c.389 6.03 2.571 33.331 11.597 58.005 11.394 31.147 33.164 44.927 37.159 47.239 3.996-2.312 25.747-16.092 37.159-47.239 9.026-24.674 11.209-51.975 11.597-58.005-22.251-4.032-44.243-17.386-48.737-20.235-4.347 2.738-26.487 16.203-48.738 20.235h-.037Z"/><path fill="#fff" d="m348.525 102.284-42.338 46.962-30.001-30.334 10.006-10.117 20.032 19.55 32.257-36.715 10.044 10.654Z"/><path fill="#222" d="M306.187 150.634c-.37 0-.721-.148-.98-.407l-30.001-30.334a1.374 1.374 0 0 1 0-1.942l10.006-10.118a1.38 1.38 0 0 1 1.961 0l18.996 18.534 31.295-35.606a1.35 1.35 0 0 1 1.018-.462c.37 0 .758.148 1.035.444l10.025 10.654c.5.517.5 1.35.019 1.886l-42.319 46.944a1.45 1.45 0 0 1-.999.462h-.037l-.019-.055Zm-28.059-31.721 28.004 28.299 40.488-44.909-8.101-8.62-31.259 35.569c-.259.277-.61.462-.98.462-.389 0-.74-.129-1.018-.388l-19.051-18.589-8.083 8.157v.019Z"/><path fill="#F5F4F3" d="M72.653 137.279c-10.765 1.276-11.8 2.312-13.077 13.077-1.276-10.765-2.312-11.801-13.077-13.077 10.765-1.276 11.801-2.312 13.077-13.077 1.277 10.765 2.312 11.801 13.077 13.077Z"/><path fill="#222" d="M59.576 151.725a1.366 1.366 0 0 1-1.368-1.221c-1.203-10.118-1.757-10.654-11.856-11.856a1.366 1.366 0 0 1-1.221-1.369c0-.703.518-1.295 1.22-1.369 10.118-1.202 10.673-1.757 11.857-11.856a1.366 1.366 0 0 1 1.368-1.221c.703 0 1.295.518 1.37 1.221 1.201 10.118 1.756 10.654 11.855 11.856.703.074 1.221.666 1.221 1.369s-.518 1.295-1.22 1.369c-10.1 1.202-10.655 1.757-11.857 11.856a1.366 1.366 0 0 1-1.369 1.221Zm-5.438-14.464c2.941.961 4.458 2.497 5.438 5.437.962-2.94 2.497-4.457 5.438-5.437-2.94-.962-4.457-2.497-5.438-5.438-.961 2.941-2.497 4.457-5.438 5.438Z"/><path fill="#FF3158" d="M84.362 69.398c-14.04 1.665-15.39 3.015-17.054 17.054-1.665-14.039-3.015-15.39-17.054-17.054 14.04-1.664 15.39-3.015 17.054-17.053 1.665 14.038 3.015 15.389 17.053 17.053Z"/><path fill="#222" d="M67.308 87.839a1.366 1.366 0 0 1-1.369-1.221c-1.59-13.373-2.478-14.26-15.832-15.833a1.366 1.366 0 0 1-1.221-1.369c0-.702.518-1.294 1.22-1.368 13.373-1.591 14.261-2.479 15.833-15.833a1.366 1.366 0 0 1 1.369-1.22c.703 0 1.295.517 1.369 1.22 1.59 13.373 2.478 14.26 15.832 15.833.703.074 1.221.666 1.221 1.368 0 .703-.518 1.295-1.22 1.37-13.373 1.571-14.261 2.46-15.833 15.832a1.366 1.366 0 0 1-1.369 1.22ZM58.67 69.398c5.087 1.332 7.306 3.551 8.638 8.638 1.332-5.087 3.551-7.306 8.638-8.638-5.087-1.332-7.306-3.551-8.638-8.638-1.332 5.087-3.551 7.306-8.638 8.638Z"/><path fill="#F5F4F3" d="M65.255 101.248c-19.532 2.312-21.419 4.18-23.73 23.731-2.313-19.532-4.181-21.419-23.731-23.731 19.531-2.312 21.418-4.18 23.73-23.73 2.312 19.532 4.18 21.418 23.73 23.73Z"/><path fill="#222" d="M41.524 126.348a1.366 1.366 0 0 1-1.368-1.221c-2.22-18.811-3.7-20.29-22.51-22.51a1.366 1.366 0 0 1-1.221-1.369c0-.703.518-1.294 1.22-1.368 18.811-2.22 20.29-3.7 22.51-22.51a1.366 1.366 0 0 1 1.37-1.221c.702 0 1.294.518 1.368 1.22 2.22 18.811 3.7 20.291 22.51 22.51.703.075 1.22.666 1.22 1.369s-.517 1.295-1.22 1.369c-18.81 2.22-20.29 3.699-22.51 22.51a1.366 1.366 0 0 1-1.369 1.221ZM27.171 101.23c9.267 1.886 12.448 5.086 14.353 14.353 1.887-9.267 5.087-12.448 14.353-14.353-9.266-1.887-12.448-5.087-14.353-14.353-1.886 9.266-5.086 12.448-14.353 14.353Z"/></svg>