<svg xmlns="http://www.w3.org/2000/svg" width="400" height="401" fill="none" viewBox="0 0 400 401"><path fill="#DADADA" d="M107.074 319.686h278.502L305.871 245.9H27.924l79.15 73.786Z"/><path fill="#222" d="M381.322 327.824H102.82c-.37 0-.74-.185-.925-.37l-79.149-73.787c-.37-.37-.555-.924-.37-1.479a1.39 1.39 0 0 1 1.295-.925h277.947c.37 0 .74.185.925.37l79.704 73.786c.37.37.555.925.37 1.48-.185.555-.74.925-1.295.925Zm-277.947-2.774h274.434l-76.746-71.198H27.184l76.191 71.198Z"/><path fill="#fff" d="m268.886 144.004-115.765-43.643-80.26 43.643V259.03l47.157 43.643h205.456V187.832l-56.588-43.828Z"/><path fill="#444" d="M198.613 302.673h126.861l-47.157-43.643h-79.704v43.643Z"/><path fill="#FF3158" d="M309.2 302.118h-14.054l-46.047-42.533 14.054-.555 46.047 43.088ZM240.407 281.221l-14.055.185-23.671-21.821 14.055-.555 23.671 22.191Z"/><path fill="#222" d="M225.613 282.331c-.37 0-.74-.185-.925-.37l-22.931-21.267a1.45 1.45 0 0 1 0-2.034 1.45 1.45 0 0 1 2.034 0l22.931 21.267a1.45 1.45 0 0 1 0 2.034c-.37.185-.74.37-1.109.37Z"/><path fill="#222" d="M240.407 282.516h-14.055c-.739 0-1.479-.555-1.479-1.48 0-.925.555-1.479 1.479-1.479h14.055c.739 0 1.479.554 1.479 1.479s-.74 1.48-1.479 1.48Z"/><path fill="#FF3158" d="m266.482 289.543-15.534.185-32.733-30.143 14.055-.555 34.212 30.513Z"/><path fill="#222" d="M250.393 290.652c-.37 0-.74-.185-.925-.37l-31.992-29.588a1.45 1.45 0 0 1 0-2.034 1.45 1.45 0 0 1 2.034 0l31.992 29.588a1.45 1.45 0 0 1 0 2.034c-.369.185-.739.37-1.109.37Z"/><path fill="#222" d="M246.325 272.16H231.16c-.739 0-1.479-.555-1.479-1.479 0-.925.555-1.48 1.479-1.48h15.165c.739 0 1.479.555 1.479 1.48 0 .924-.74 1.479-1.479 1.479ZM266.482 290.837h-15.719c-.74 0-1.48-.555-1.48-1.479 0-.925.555-1.48 1.48-1.48h15.719c.739 0 1.479.555 1.479 1.48 0 .924-.74 1.479-1.479 1.479Z"/><path fill="#FF3158" d="M294.221 302.118h-14.055l-45.862-42.533 14.055-.555 45.862 43.088Z"/><path fill="#222" d="M280.166 303.597c-.369 0-.739-.185-.924-.37l-46.047-42.533a1.45 1.45 0 0 1 0-2.034 1.45 1.45 0 0 1 2.034 0l46.047 42.533a1.45 1.45 0 0 1 0 2.034c-.37.185-.74.37-1.11.37Z"/><path fill="#FF3158" d="M324.179 302.118h-14.054l-45.862-42.533 14.054-.555 45.862 43.088Z"/><path fill="#F5F4F3" d="M159.038 251.448h-31.437V180.25l31.437-17.383v88.581ZM194.36 210.579l-23.856-22.192v63.061h23.856v-40.869ZM206.75 251.448h79.149v-80.074l-79.149-27.37v107.444Z"/><path fill="#444" d="M120.018 259.03v43.643h78.595l-47.157-43.643h-31.438Z"/><path fill="#444" d="M162.922 259.03h23.671v32.732l-23.671-22.006V259.03Z"/><path fill="#222" d="M279.612 152.326h-2.774V259.03h2.774V152.326Z"/><path fill="#222" d="m279.204 257.963-1.886 2.035 47.192 43.755 1.886-2.035-47.192-43.755ZM313.084 262.174c-.37 0-.74-.185-.925-.37l-23.671-22.007c-.37-.185-.37-.554-.37-.924v-42.719c0-.555.37-1.109.925-1.294.555-.185 1.11-.185 1.479.185l23.856 22.006c.37.185.37.555.37.925v42.718c0 .555-.37 1.11-.925 1.295-.185.185-.37.185-.739.185Zm-22.377-24.041 21.082 19.417v-38.834l-21.082-19.418v38.835ZM197.688 303.782l-11.835-11.096c-.37-.185-.37-.554-.37-1.109v-72.862l-21.082-19.417v70.457c0 .555-.37 1.11-.924 1.295-.555.185-1.11.185-1.48-.185l-11.465-10.726c-.37-.185-.37-.555-.37-.925v-88.765h2.774v88.026l8.691 8.136v-70.457c0-.555.37-1.11.74-1.295.555-.185 1.11-.185 1.48.185l23.855 22.007c.37.185.37.554.37.924v73.047l11.466 10.541-1.85 2.219Z"/><path fill="#222" d="M199.908 144.004h-2.774v158.669h2.774V144.004ZM290.4 216.34l-1.886 2.034 23.735 22 1.885-2.034-23.734-22Z"/><path fill="#222" d="M301.248 249.784c-.74 0-1.479-.555-1.479-1.48v-41.609c0-.739.555-1.479 1.479-1.479.925 0 1.48.555 1.48 1.479v41.609c0 .925-.74 1.48-1.48 1.48ZM278.317 257.55h-79.704v2.774h79.704v-2.774ZM186.778 257.55h-23.856v2.774h23.856v-2.774ZM151.456 257.55h-31.438v2.774h31.438v-2.774Z"/><path fill="#DADADA" d="m268.886 144.004-115.765-43.643-80.26 43.643 47.157 43.828 79.15-43.828 126.306 43.828-56.588-43.828Z"/><path fill="#222" d="m73.847 143.096-1.885 2.035 47.198 43.748 1.886-2.034-47.199-43.749Z"/><path fill="#222" d="M120.018 302.858c-.739 0-1.479-.555-1.479-1.48V186.353c0-.555.185-.925.74-1.295l79.149-43.643c.37-.185.74-.185 1.11-.185l126.306 43.644c.739.184 1.109 1.109.924 1.849-.185.74-1.109 1.109-1.849.924l-125.751-43.458-77.855 43.089v114.1c.185.925-.555 1.48-1.295 1.48Z"/><path fill="#222" d="M325.474 304.152H120.018c-.369 0-.739-.184-.924-.369l-47.157-43.644c-.37-.184-.37-.554-.37-.924v-115.21c0-.555.185-.925.74-1.295l80.259-43.643c.37-.185.74-.185 1.109 0l115.766 43.643c.185 0 .185.185.369.185l56.589 42.533c.369.185.554.74.554 1.11v116.135c-.185.925-.739 1.479-1.479 1.479Zm-204.901-2.773h203.421V187.278l-55.848-41.979-114.84-43.458-78.965 43.088v113.546l46.232 42.904Z"/><path fill="#222" d="M257.05 232.585h-43.088c-.74 0-1.479-.555-1.479-1.479v-43.088c0-.74.554-1.48 1.479-1.48h43.088c.74 0 1.48.555 1.48 1.48v43.088c0 .924-.74 1.479-1.48 1.479Zm-41.608-2.774h40.314v-40.314h-40.314v40.314Z"/><path fill="#222" d="M236.893 187.833h-2.774v43.458h2.774v-43.458Z"/><path fill="#222" d="M257.05 208.175h-43.088v2.774h43.088v-2.774ZM310.125 303.597c-.37 0-.74-.185-.925-.37l-46.047-42.533a1.45 1.45 0 0 1 0-2.034 1.45 1.45 0 0 1 2.034 0l46.047 42.533a1.45 1.45 0 0 1 0 2.034c-.369.185-.739.37-1.109.37ZM295.146 303.597c-.37 0-.74-.185-.925-.37l-46.047-42.533a1.45 1.45 0 0 1 0-2.034 1.45 1.45 0 0 1 2.034 0l46.047 42.533a1.45 1.45 0 0 1 0 2.034c-.37.185-.74.37-1.109.37Z"/><path fill="#FF3158" d="M131.669 283.625v-16.088l8.322 7.767v16.088l-8.322-7.767Z"/><path fill="#222" d="M139.991 292.872c-.37 0-.74-.185-.925-.37l-8.137-7.952a1.413 1.413 0 0 1-.37-.925v-16.088c0-.555.37-1.11.925-1.295.555-.185 1.11-.185 1.48.185l8.136 7.952c.185.185.37.555.37.925v16.088c0 .555-.37 1.11-.924 1.295-.185 0-.37.185-.555.185Zm-6.843-9.986 5.363 5.178v-12.206l-5.363-5.178v12.206Z"/><path fill="#FF3158" d="M176.422 275.304h-36.431v16.088h36.431v-16.088Z"/><path fill="#222" d="M176.422 292.872h-36.431c-.74 0-1.48-.555-1.48-1.48v-16.088c0-.74.555-1.48 1.48-1.48h36.431c.739 0 1.479.555 1.479 1.48v16.088c-.185.74-.74 1.48-1.479 1.48Zm-35.137-2.774h33.657v-13.315h-33.657v13.315Z"/><path fill="#FF3158" d="M131.669 267.537H168.1l8.322 7.767h-36.431l-8.322-7.767Z"/><path fill="#222" d="M176.422 276.783h-36.431c-.37 0-.74-.185-.925-.37l-8.137-7.952c-.37-.37-.555-.924-.37-1.479.185-.555.74-.925 1.295-.925h36.431c.37 0 .739.185.924.37l8.322 7.952c.37.37.555.925.37 1.479-.555.555-.925.925-1.479.925Zm-35.877-2.774h32.363l-5.363-5.178h-32.362l5.362 5.178Z"/><path fill="#DADADA" d="M143.874 259.399v10.356h5.733v-6.287h7.027v6.287h5.733v-10.356h-18.493Z"/><path fill="#222" d="M162.367 271.235h-5.733c-.739 0-1.479-.555-1.479-1.48v-4.808h-4.254v4.993c0 .74-.554 1.48-1.479 1.48h-5.733c-.739 0-1.479-.555-1.479-1.48v-10.541c0-.739.555-1.479 1.479-1.479h18.308c.74 0 1.48.555 1.48 1.479v10.356c.185.74-.37 1.48-1.11 1.48Zm-4.438-2.774h2.959v-7.582h-15.534v7.582h2.958v-4.993c0-.74.555-1.48 1.48-1.48h7.027c.74 0 1.48.555 1.48 1.48v4.993h-.37ZM271.845 282.516H257.79c-.74 0-1.479-.555-1.479-1.48 0-.925.554-1.479 1.479-1.479h14.055c.739 0 1.479.554 1.479 1.479s-.555 1.48-1.479 1.48ZM300.509 282.516h-12.021c-.739 0-1.479-.555-1.479-1.48 0-.925.555-1.479 1.479-1.479h12.021c.739 0 1.479.554 1.479 1.479s-.74 1.48-1.479 1.48ZM274.803 272.16h-12.76c-.739 0-1.479-.555-1.479-1.479 0-.925.555-1.48 1.479-1.48h12.76c.74 0 1.48.555 1.48 1.48 0 .924-.74 1.479-1.48 1.479ZM295.515 290.837h-12.76c-.739 0-1.479-.555-1.479-1.479 0-.925.555-1.48 1.479-1.48h12.76c.74 0 1.48.555 1.48 1.48 0 .924-.555 1.479-1.48 1.479ZM135.552 92.964H32.178v132.409h103.374V92.964Z"/><path fill="#222" d="M123.162 134.018H39.39c-.74 0-1.48-.554-1.48-1.479s.555-1.479 1.48-1.479h83.772c.74 0 1.48.554 1.48 1.479s-.74 1.479-1.48 1.479ZM123.162 151.771H39.39c-.74 0-1.48-.554-1.48-1.479s.555-1.48 1.48-1.48h83.772c.74 0 1.48.555 1.48 1.48 0 .925-.74 1.479-1.48 1.479ZM123.162 116.45H39.39c-.74 0-1.48-.555-1.48-1.479 0-.925.555-1.48 1.48-1.48h83.772c.74 0 1.48.555 1.48 1.48 0 .924-.74 1.479-1.48 1.479ZM123.162 169.34H39.39c-.74 0-1.48-.555-1.48-1.48 0-.924.555-1.479 1.48-1.479h83.772c.74 0 1.48.555 1.48 1.479 0 .925-.74 1.48-1.48 1.48ZM123.162 186.908H39.39c-.74 0-1.48-.555-1.48-1.48 0-.924.555-1.479 1.48-1.479h83.772c.74 0 1.48.555 1.48 1.479 0 .925-.74 1.48-1.48 1.48ZM102.45 204.476H39.575c-.74 0-1.48-.555-1.48-1.479 0-.925.555-1.48 1.48-1.48h62.875c.74 0 1.48.555 1.48 1.48 0 .924-.74 1.479-1.48 1.479Z"/><path fill="#fff" d="M137.772 90.56H35.876v131.484h101.896V90.56Z"/><path fill="#222" d="M137.772 223.339H35.876c-.74 0-1.48-.555-1.48-1.48V90.56c0-.74.556-1.48 1.48-1.48h101.896c.739 0 1.479.555 1.479 1.48v131.484c-.185.74-.74 1.295-1.479 1.295Zm-100.416-2.774h99.121V92.039H37.356v128.526Z"/><path fill="#DADADA" d="M128.155 127.546H45.492v41.609h82.663v-41.609ZM128.155 175.072H45.492v33.657h82.663v-33.657ZM128.155 104.615H45.492v16.828h82.663v-16.828Z"/><path fill="#222" d="M61.766 81.499s-15.904 10.54-31.623 13.13c0 0 .925 19.787 7.397 37.725 8.137 22.191 24.226 30.513 24.226 30.513s16.089-8.322 24.226-30.513c6.472-17.938 7.397-37.726 7.397-37.726-15.904-2.773-31.623-13.13-31.623-13.13Z"/><path fill="#fff" d="M58.252 169.709c-.74-.37-18.862-9.986-27.924-34.766-7.027-18.863-7.952-39.205-8.136-40.13l-.37-6.842 6.842-1.11c14.055-2.219 28.664-11.835 28.664-12.02l3.698-2.404 4.439 2.22.37.184c.184 0 14.794 9.616 28.664 12.02l6.842 1.11-.185 6.842c0 .925-.925 21.267-7.952 39.945-9.246 25.15-27.924 34.766-28.11 34.766l-3.513 1.665-3.329-1.48Z"/><path fill="#222" d="M61.766 172.853c-.185 0-.37 0-.555-.185l-3.328-1.664h-.185c-.185-.185-19.418-9.986-28.664-35.506-7.027-19.048-7.952-39.575-7.952-40.5l-.37-6.842c0-.74.555-1.295 1.11-1.48l6.842-1.11c13.5-2.218 28.11-11.65 28.11-11.65l3.698-2.404c.37-.185.924-.37 1.294 0l4.993 2.59c1.48.924 15.164 9.616 28.11 11.65l6.842 1.11c.739.184 1.109.74 1.109 1.479l-.37 6.842c0 .925-.924 21.452-7.952 40.499-9.43 25.706-28.663 35.507-28.848 35.507l-3.514 1.664h-.37Zm-3.144-4.438c.185 0 .185 0 0 0l2.96 1.479 2.958-1.479c.185 0 18.493-9.616 27.37-34.027 6.842-18.678 7.766-38.65 7.951-39.575l.185-5.547-5.548-.925C80.814 86.12 66.76 77.245 65.28 76.136l-.37-.37-3.514-1.665-3.144 2.035s-14.794 9.8-29.218 12.205l-5.548.925.185 5.547c0 .925.925 20.897 7.767 39.575 8.692 23.671 25.705 33.102 27.184 34.027Z"/><path fill="#FF3158" d="M61.766 80.944s-15.904 10.54-31.623 13.13c0 0 .925 19.787 7.397 37.725 8.137 22.192 24.226 30.513 24.226 30.513s16.089-8.321 24.226-30.513c6.472-17.938 7.397-37.725 7.397-37.725-15.904-2.774-31.623-13.315-31.623-13.13Z"/><path fill="#222" d="M61.766 164.162c-.185 0-.37 0-.555-.185-.74-.37-16.828-8.877-24.965-31.253-6.657-17.938-7.582-37.91-7.582-38.095 0-.74.555-1.295 1.11-1.48 15.349-2.589 31.068-12.76 31.252-12.945.555-.37 1.11-.37 1.48 0 .185.185 15.719 10.356 31.253 12.945.74.185 1.11.74 1.11 1.48 0 .184-.925 20.157-7.583 38.095-8.137 22.561-24.225 30.883-24.965 31.253-.185.185-.37.185-.555.185ZM31.438 95.738c.37 4.623 1.85 21.082 7.212 36.061 6.842 18.863 19.972 27.554 22.931 29.404 2.959-1.85 16.089-10.541 22.931-29.404 5.548-14.979 7.028-31.438 7.213-36.06-13.685-2.59-27-10.542-30.329-12.576-2.959 2.034-16.273 9.986-29.958 12.575Z"/><path fill="#fff" d="m86.546 106.464-26.63 29.588L40.87 116.82l6.473-6.288 12.575 12.391 20.342-23.301 6.287 6.842Z"/><path fill="#222" d="M59.917 137.347c-.37 0-.74-.185-.925-.37L39.945 117.93a1.452 1.452 0 0 1 0-2.035l6.287-6.287a1.45 1.45 0 0 1 2.034 0l11.65 11.28 19.418-22.006c.185-.37.555-.555 1.11-.555.37 0 .74.185 1.11.37l6.287 6.657c.555.555.555 1.295 0 1.85l-26.815 29.588c-.37.555-.74.555-1.11.555ZM42.903 116.82l17.014 17.198 24.965-27.554-4.438-4.623-19.418 22.006c-.185.37-.554.37-.924.555-.37 0-.74-.185-1.11-.37l-11.65-11.465-4.439 4.253Z"/></svg>