<svg xmlns="http://www.w3.org/2000/svg" width="400" height="400" fill="none" viewBox="0 0 400 400"><path fill="#DADADA" d="M67.499 329.172h312.529l-40.315-46.417H27.554L67.5 329.172Z"/><path fill="#222" d="M375.405 338.049H62.691c-.37 0-.74-.185-1.11-.555l-39.944-46.417c-.37-.37-.37-.925-.185-1.479.185-.555.74-.74 1.294-.74h312.159c.37 0 .74.185 1.11.555l40.499 46.417c.37.37.37.924.185 1.479s-.74.74-1.294.74Zm-312.16-2.774h309.016l-38.095-43.643H25.89l37.356 43.643Z"/><path fill="#fff" d="M320.481 91.355H81.553v222.469h238.928V91.355Z"/><path fill="#222" d="M320.481 315.118H81.553c-.74 0-1.479-.555-1.479-1.479V91.355c0-.74.555-1.48 1.48-1.48H320.48c.74 0 1.479.555 1.479 1.48v222.469c0 .739-.739 1.294-1.479 1.294Zm-237.448-2.774h236.153V92.649H83.033v219.695Z"/><path fill="#F5F4F3" d="M326.214 96.348H88.026v217.475h238.188V96.348Z"/><path fill="#222" d="M320.481 315.118H81.553c-.74 0-1.479-.555-1.479-1.479V91.355c0-.74.555-1.48 1.48-1.48H320.48c.74 0 1.479.555 1.479 1.48v222.469c0 .739-.739 1.294-1.479 1.294Zm-237.448-2.774h236.153V92.649H83.033v219.695Z"/><path fill="#FF3158" d="M201.017 264.078h-30.328v49.745h30.328v-49.745ZM231.345 264.078h-30.328v49.745h30.328v-49.745Z"/><path fill="#222" d="M201.017 315.118h-30.328c-.74 0-1.48-.555-1.48-1.48v-49.745c0-.74.555-1.48 1.48-1.48h30.328c.74 0 1.295.555 1.295 1.48v49.745c.185.925-.555 1.48-1.295 1.48Zm-28.849-2.774h27.555v-46.972h-27.555v46.972Z"/><path fill="#222" d="M231.53 315.118h-30.328c-.74 0-1.479-.555-1.479-1.48v-49.745c0-.74.554-1.48 1.479-1.48h30.328c.74 0 1.48.555 1.48 1.48v49.745c-.185.925-.74 1.48-1.48 1.48Zm-29.033-2.774h27.554v-46.972h-27.554v46.972Z"/><path fill="#DADADA" d="M185.298 208.784h-16.273v38.465h16.273v-38.465Z"/><path fill="#222" d="M190.661 252.612h-16.274c-.739 0-1.479-.555-1.479-1.479v-38.466c0-.739.555-1.479 1.479-1.479h16.274c.74 0 1.48.555 1.48 1.479v38.466c-.185.739-.74 1.479-1.48 1.479Zm-14.979-2.774h13.5v-35.691h-13.5v35.691Z"/><path fill="#DADADA" d="M185.298 156.079h-16.273v38.465h16.273v-38.465Z"/><path fill="#222" d="M190.661 199.907h-16.274c-.739 0-1.479-.554-1.479-1.479v-38.465c0-.74.555-1.48 1.479-1.48h16.274c.74 0 1.48.555 1.48 1.48v38.465c-.185.925-.74 1.479-1.48 1.479Zm-14.979-2.774h13.5v-35.691h-13.5v35.691Z"/><path fill="#DADADA" d="M185.298 102.45h-16.273v38.465h16.273V102.45Z"/><path fill="#222" d="M190.661 146.278h-16.274c-.739 0-1.479-.554-1.479-1.479v-38.465c0-.74.555-1.48 1.479-1.48h16.274c.74 0 1.48.555 1.48 1.48v38.465c-.185.925-.74 1.479-1.48 1.479Zm-14.979-2.773h13.5v-35.692h-13.5v35.692Z"/><path fill="#DADADA" d="M222.469 208.784h-16.274v38.465h16.274v-38.465Z"/><path fill="#222" d="M227.647 252.612h-16.274c-.739 0-1.479-.555-1.479-1.479v-38.466c0-.739.555-1.479 1.479-1.479h16.274c.74 0 1.479.555 1.479 1.479v38.466c0 .739-.739 1.479-1.479 1.479Zm-14.794-2.774h13.499v-35.691h-13.499v35.691Z"/><path fill="#DADADA" d="M222.469 156.079h-16.274v38.465h16.274v-38.465Z"/><path fill="#222" d="M227.647 199.907h-16.274c-.739 0-1.479-.554-1.479-1.479v-38.465c0-.74.555-1.48 1.479-1.48h16.274c.74 0 1.479.555 1.479 1.48v38.465c0 .925-.739 1.479-1.479 1.479Zm-14.794-2.774h13.499v-35.691h-13.499v35.691Z"/><path fill="#DADADA" d="M222.469 102.45h-16.274v38.465h16.274V102.45Z"/><path fill="#222" d="M227.647 146.278h-16.274c-.739 0-1.479-.554-1.479-1.479v-38.465c0-.74.555-1.48 1.479-1.48h16.274c.74 0 1.479.555 1.479 1.48v38.465c0 .925-.739 1.479-1.479 1.479Zm-14.794-2.773h13.499v-35.692h-13.499v35.692Z"/><path fill="#DADADA" d="M259.455 208.784h-16.274v38.465h16.274v-38.465Z"/><path fill="#222" d="M264.817 252.612h-16.273c-.74 0-1.48-.555-1.48-1.479v-38.466c0-.739.555-1.479 1.48-1.479h16.273c.74 0 1.48.555 1.48 1.479v38.466c-.185.739-.74 1.479-1.48 1.479Zm-14.794-2.774h13.5v-35.691h-13.5v35.691Z"/><path fill="#DADADA" d="M259.455 156.079h-16.274v38.465h16.274v-38.465Z"/><path fill="#222" d="M264.817 199.907h-16.273c-.74 0-1.48-.554-1.48-1.479v-38.465c0-.74.555-1.48 1.48-1.48h16.273c.74 0 1.48.555 1.48 1.48v38.465c-.185.925-.74 1.479-1.48 1.479Zm-14.794-2.774h13.5v-35.691h-13.5v35.691Z"/><path fill="#DADADA" d="M259.455 102.45h-16.274v38.465h16.274V102.45Z"/><path fill="#222" d="M264.817 146.278h-16.273c-.74 0-1.48-.554-1.48-1.479v-38.465c0-.74.555-1.48 1.48-1.48h16.273c.74 0 1.48.555 1.48 1.48v38.465c-.185.925-.74 1.479-1.48 1.479Zm-14.794-2.773h13.5v-35.692h-13.5v35.692Z"/><path fill="#DADADA" d="M296.625 208.784h-16.274v38.465h16.274v-38.465Z"/><path fill="#222" d="M301.803 252.612h-16.274c-.739 0-1.479-.555-1.479-1.479v-38.466c0-.739.555-1.479 1.479-1.479h16.274c.74 0 1.48.555 1.48 1.479v38.466c0 .739-.555 1.479-1.48 1.479Zm-14.794-2.774h13.5v-35.691h-13.5v35.691Z"/><path fill="#DADADA" d="M296.625 156.079h-16.274v38.465h16.274v-38.465Z"/><path fill="#222" d="M301.803 199.907h-16.274c-.739 0-1.479-.554-1.479-1.479v-38.465c0-.74.555-1.48 1.479-1.48h16.274c.74 0 1.48.555 1.48 1.48v38.465c0 .925-.555 1.479-1.48 1.479Zm-14.794-2.774h13.5v-35.691h-13.5v35.691Z"/><path fill="#DADADA" d="M296.625 102.45h-16.274v38.465h16.274V102.45Z"/><path fill="#222" d="M301.803 146.278h-16.274c-.739 0-1.479-.554-1.479-1.479v-38.465c0-.74.555-1.48 1.479-1.48h16.274c.74 0 1.48.555 1.48 1.48v38.465c0 .925-.555 1.479-1.48 1.479Zm-14.794-2.773h13.5v-35.692h-13.5v35.692Z"/><path fill="#DADADA" d="M148.313 208.784h-16.274v38.465h16.274v-38.465Z"/><path fill="#222" d="M153.491 252.612h-16.274c-.74 0-1.479-.555-1.479-1.479v-38.466c0-.739.554-1.479 1.479-1.479h16.274c.739 0 1.479.555 1.479 1.479v38.466c0 .739-.74 1.479-1.479 1.479Zm-14.795-2.774h13.5v-35.691h-13.5v35.691Z"/><path fill="#DADADA" d="M148.313 156.079h-16.274v38.465h16.274v-38.465Z"/><path fill="#222" d="M153.491 199.907h-16.274c-.74 0-1.479-.554-1.479-1.479v-38.465c0-.74.554-1.48 1.479-1.48h16.274c.739 0 1.479.555 1.479 1.48v38.465c0 .925-.74 1.479-1.479 1.479Zm-14.795-2.774h13.5v-35.691h-13.5v35.691Z"/><path fill="#DADADA" d="M148.313 102.45h-16.274v38.465h16.274V102.45Z"/><path fill="#222" d="M153.491 146.278h-16.274c-.74 0-1.479-.554-1.479-1.479v-38.465c0-.74.554-1.48 1.479-1.48h16.274c.739 0 1.479.555 1.479 1.48v38.465c0 .925-.74 1.479-1.479 1.479Zm-14.795-2.773h13.5v-35.692h-13.5v35.692Z"/><path fill="#DADADA" d="M111.142 208.784H94.868v38.465h16.274v-38.465Z"/><path fill="#222" d="M116.32 252.612h-16.274c-.74 0-1.48-.555-1.48-1.479v-38.466c0-.739.556-1.479 1.48-1.479h16.274c.74 0 1.479.555 1.479 1.479v38.466c0 .739-.739 1.479-1.479 1.479Zm-14.794-2.774h13.5v-35.691h-13.5v35.691Z"/><path fill="#DADADA" d="M259.455 260.194h-16.274v38.465h16.274v-38.465Z"/><path fill="#222" d="M264.817 303.837h-16.273c-.74 0-1.48-.555-1.48-1.479v-38.465c0-.74.555-1.48 1.48-1.48h16.273c.74 0 1.48.555 1.48 1.48v38.465c-.185.924-.74 1.479-1.48 1.479Zm-14.794-2.774h13.5v-35.691h-13.5v35.691Z"/><path fill="#DADADA" d="M296.625 260.194h-16.274v38.465h16.274v-38.465Z"/><path fill="#222" d="M301.803 303.837h-16.274c-.739 0-1.479-.555-1.479-1.479v-38.465c0-.74.555-1.48 1.479-1.48h16.274c.74 0 1.48.555 1.48 1.48v38.465c0 .924-.555 1.479-1.48 1.479Zm-14.794-2.774h13.5v-35.691h-13.5v35.691Z"/><path fill="#DADADA" d="M148.313 260.194h-16.274v38.465h16.274v-38.465Z"/><path fill="#222" d="M153.491 303.837h-16.274c-.74 0-1.479-.555-1.479-1.479v-38.465c0-.74.554-1.48 1.479-1.48h16.274c.739 0 1.479.555 1.479 1.48v38.465c0 .924-.74 1.479-1.479 1.479Zm-14.795-2.774h13.5v-35.691h-13.5v35.691Z"/><path fill="#DADADA" d="M111.142 260.194H94.868v38.465h16.274v-38.465Z"/><path fill="#222" d="M116.32 303.837h-16.274c-.74 0-1.48-.555-1.48-1.479v-38.465c0-.74.556-1.48 1.48-1.48h16.274c.74 0 1.479.555 1.479 1.48v38.465c0 .924-.739 1.479-1.479 1.479Zm-14.794-2.774h13.5v-35.691h-13.5v35.691Z"/><path fill="#DADADA" d="M111.142 156.079H94.868v38.465h16.274v-38.465Z"/><path fill="#222" d="M116.32 199.907h-16.274c-.74 0-1.48-.554-1.48-1.479v-38.465c0-.74.556-1.48 1.48-1.48h16.274c.74 0 1.479.555 1.479 1.48v38.465c0 .925-.739 1.479-1.479 1.479Zm-14.794-2.774h13.5v-35.691h-13.5v35.691Z"/><path fill="#DADADA" d="M111.142 102.45H94.868v38.465h16.274V102.45Z"/><path fill="#222" d="M116.32 146.278h-16.274c-.74 0-1.48-.554-1.48-1.479v-38.465c0-.74.556-1.48 1.48-1.48h16.274c.74 0 1.479.555 1.479 1.48v38.465c0 .925-.739 1.479-1.479 1.479Zm-14.794-2.773h13.5v-35.692h-13.5v35.692ZM309.015 62.876S283.865 79.52 258.9 83.588c0 0 1.479 31.253 11.835 59.547 12.945 35.136 38.465 48.266 38.465 48.266s25.52-13.13 38.465-48.266c10.356-28.294 11.836-59.547 11.836-59.547-25.336-4.253-50.486-20.897-50.486-20.712Z"/><path fill="#fff" d="M303.467 202.312c-1.294-.555-29.958-15.904-44.382-55.109-10.911-29.773-12.391-61.95-12.576-63.245l-.554-10.91 10.725-1.85c22.192-3.699 45.123-18.678 45.493-18.863l5.918-3.883 7.027 3.513.555.37c.184.185 23.301 15.164 45.492 18.863l10.726 1.85-.555 10.91c0 1.294-1.664 33.472-12.575 63.245-14.609 39.76-44.198 54.924-44.568 55.109l-5.548 2.774-5.178-2.774Z"/><path fill="#222" d="M308.83 206.565c-.185 0-.37 0-.555-.185l-5.547-2.774-.185-.185c-3.144-1.664-30.698-17.383-44.753-55.663-10.171-28.109-12.205-57.883-12.575-63.615l-.555-10.911c0-.74.555-1.295 1.11-1.48l10.726-1.849c20.712-3.513 42.533-17.013 44.937-18.678l5.918-3.883c.37-.185.924-.37 1.294 0l7.028 3.514.739.554c.185.185 23.301 15.165 44.938 18.678l10.726 1.85c.739.184 1.109.74 1.109 1.479l-.554 10.91c0 .37-1.48 33.473-12.576 63.801-14.794 40.684-44.937 55.663-45.122 55.848l-5.548 2.774c0-.185-.37-.185-.555-.185Zm-4.623-5.363 4.623 2.404 4.993-2.404c.37-.185 29.404-14.979 43.828-54.369 10.911-29.773 12.391-62.505 12.391-62.875l.369-9.617-9.431-1.664c-22.376-3.698-45.677-18.863-46.047-19.048l-.555-.37-6.103-2.958-5.178 3.513c-2.589 1.665-24.78 15.534-46.047 19.048l-9.431 1.664.37 9.617c.37 5.733 2.219 35.136 12.39 62.875 14.055 38.65 42.534 53.63 43.643 54.184h.185Z"/><path fill="#FF3158" d="M309.015 61.951s-25.15 16.644-50.115 20.712c0 0 1.479 31.253 11.835 59.547 12.945 35.137 38.465 48.266 38.465 48.266s25.52-13.129 38.465-48.266c10.356-28.294 11.836-59.547 11.836-59.547-25.336-4.253-50.486-20.897-50.486-20.712Z"/><path fill="#222" d="M309.015 192.88c-.184 0-.369 0-.554-.185-1.11-.555-26.26-13.869-39.205-49.006C258.9 115.58 257.42 83.957 257.42 83.588c0-.74.555-1.295 1.11-1.48 24.411-4.068 49.376-20.342 49.561-20.527.37-.37 1.109-.37 1.479 0 .185.185 25.15 16.459 49.561 20.527.74.185 1.11.74 1.11 1.48 0 .37-1.48 31.807-11.836 60.101-12.945 35.322-38.095 48.636-39.205 49.006.185.185 0 .185-.185.185ZM260.194 84.697c.37 6.103 2.589 33.287 11.651 58.068 11.465 31.253 33.102 44.937 37.17 47.156 4.069-2.219 25.705-16.088 37.171-47.156 9.061-24.596 11.281-51.965 11.651-58.068-22.192-4.068-44.383-17.568-48.822-20.157-4.438 2.589-26.444 16.089-48.821 20.157Z"/><path fill="#fff" d="m348.405 102.265-42.348 46.972-29.959-30.328 9.986-10.171 20.157 19.602 32.178-36.8 9.986 10.725Z"/><path fill="#222" d="M306.056 150.532c-.369 0-.739-.185-.924-.37l-29.959-30.328a1.454 1.454 0 0 1 0-2.035l9.987-10.171a1.45 1.45 0 0 1 2.034 0l19.047 18.493 31.068-35.506c.185-.37.555-.555 1.11-.555.37 0 .74.185 1.109.37l9.987 10.726c.554.555.554 1.294 0 1.849l-42.349 46.972c-.185.37-.555.555-1.11.555Zm-27.924-31.623 27.924 28.294 40.5-44.938-8.137-8.691-31.253 35.506c-.185.37-.555.37-.925.555-.369 0-.739-.185-1.109-.37l-19.048-18.493-7.952 8.137Z"/><path fill="#F5F4F3" d="M72.677 137.216c-10.726 1.295-11.836 2.219-13.13 13.13-1.295-10.726-2.22-11.835-13.13-13.13 10.726-1.294 11.835-2.219 13.13-13.13 1.294 10.911 2.404 11.836 13.13 13.13Z"/><path fill="#222" d="M59.547 151.641c-.74 0-1.294-.555-1.294-1.295-1.11-10.171-1.665-10.726-11.836-11.835-.74 0-1.294-.74-1.294-1.295 0-.554.554-1.294 1.294-1.294 10.171-1.11 10.726-1.664 11.835-11.836 0-.739.74-1.294 1.295-1.294.555 0 1.295.555 1.295 1.294 1.109 10.172 1.664 10.726 11.835 11.836.74 0 1.294.74 1.294 1.294 0 .555-.554 1.295-1.294 1.295-10.171 1.109-10.726 1.664-11.836 11.835 0 .925-.554 1.295-1.294 1.295Zm-5.548-14.425c2.959.925 4.623 2.589 5.548 5.548.925-2.959 2.589-4.623 5.548-5.548-2.959-.924-4.623-2.589-5.548-5.547-.925 2.958-2.589 4.623-5.548 5.547Z"/><path fill="#FF3158" d="M84.328 69.348c-14.055 1.665-15.35 2.96-17.014 17.014-1.664-14.055-2.959-15.35-17.013-17.014 14.054-1.664 15.349-2.959 17.013-17.013 1.665 14.054 2.959 15.349 17.014 17.013Z"/><path fill="#222" d="M67.314 87.841c-.74 0-1.294-.555-1.294-1.294-1.665-13.315-2.404-14.24-15.904-15.904-.74 0-1.295-.74-1.295-1.295 0-.555.555-1.294 1.295-1.294C63.43 66.389 64.356 65.65 66.02 52.15c0-.74.74-1.294 1.294-1.294.555 0 1.295.554 1.295 1.294 1.664 13.315 2.404 14.24 15.904 15.904.74 0 1.294.74 1.294 1.294 0 .555-.555 1.295-1.294 1.295-13.315 1.664-14.24 2.404-15.904 15.904 0 .74-.555 1.294-1.295 1.294Zm-8.691-18.493c5.178 1.295 7.397 3.514 8.691 8.692 1.295-5.178 3.514-7.397 8.692-8.692-5.178-1.294-7.397-3.513-8.692-8.691-1.294 5.178-3.513 7.397-8.691 8.691Z"/><path fill="#F5F4F3" d="M65.28 101.156c-19.603 2.404-21.452 4.254-23.856 23.856-2.22-19.602-4.068-21.452-23.67-23.856 19.602-2.219 21.45-4.253 23.67-23.67 2.404 19.602 4.253 21.451 23.856 23.67Z"/><path fill="#222" d="M41.609 126.306c-.74 0-1.294-.554-1.294-1.294-2.22-18.863-3.7-20.342-22.562-22.561-.74 0-1.294-.74-1.294-1.295 0-.74.555-1.294 1.294-1.294 18.863-2.22 20.342-3.699 22.562-22.562 0-.74.74-1.294 1.294-1.294.74 0 1.294.555 1.294 1.294 2.22 18.863 3.7 20.343 22.562 22.562.74 0 1.294.739 1.294 1.294 0 .74-.555 1.295-1.294 1.295-18.863 2.219-20.342 3.698-22.562 22.561 0 .74-.74 1.294-1.294 1.294Zm-14.424-25.15c9.246 1.849 12.39 4.993 14.424 14.425 1.85-9.247 4.993-12.391 14.424-14.425-9.246-1.85-12.39-4.993-14.424-14.424-2.034 9.431-5.178 12.575-14.424 14.424Z"/></svg>