<svg xmlns="http://www.w3.org/2000/svg" width="400" height="400" fill="none" viewBox="0 0 400 400"><path fill="#444" d="M214.465 45.38c0-13.82-11.205-25.02-25.025-25.02-13.82 0-25.02 11.205-25.02 25.02h-25.195v38.43H239.66V45.38h-25.195Z"/><path fill="#222" d="M239.655 85.2H139.22a1.39 1.39 0 0 1-1.39-1.39V45.38c0-.765.62-1.39 1.39-1.39h23.84c.725-13.92 12.28-25.02 26.375-25.02s25.65 11.1 26.375 25.02h23.84c.765 0 1.39.62 1.39 1.39v38.43c0 .765-.62 1.39-1.39 1.39h.005Zm-99.045-2.78h97.655V46.77H214.46a1.39 1.39 0 0 1-1.39-1.39c0-13.03-10.6-23.635-23.635-23.635-13.035 0-23.635 10.6-23.635 23.635 0 .765-.62 1.39-1.39 1.39h-23.805v35.655l.005-.005Z"/><path fill="#444" d="M291.915 73.855H73.345V355.89h218.57V73.855Z"/><path fill="#222" d="M291.915 357.28H73.345a1.39 1.39 0 0 1-1.39-1.39V73.855c0-.765.62-1.39 1.39-1.39h218.57c.765 0 1.39.62 1.39 1.39V355.89c0 .765-.62 1.39-1.39 1.39Zm-217.18-2.78h215.79V75.245H74.735V354.5Z"/><path fill="#fff" d="M302.365 63.465H83.795V345.5h218.57V63.465Z"/><path fill="#222" d="M302.365 346.89H83.795a1.39 1.39 0 0 1-1.39-1.39V63.465c0-.765.62-1.39 1.39-1.39h218.57c.765 0 1.39.62 1.39 1.39V345.5c0 .765-.62 1.39-1.39 1.39Zm-217.18-2.78h215.79V64.855H85.185V344.11Z"/><path fill="#fff" d="M218.105 42.145c0-13.82-11.205-25.02-25.025-25.02-13.82 0-25.02 11.205-25.02 25.02h-25.195v38.43H243.3v-38.43h-25.195Z"/><path fill="#222" d="M243.295 81.965H142.86a1.39 1.39 0 0 1-1.39-1.39v-38.43c0-.765.62-1.39 1.39-1.39h23.84c.725-13.92 12.28-25.02 26.375-25.02s25.65 11.1 26.375 25.02h23.84c.765 0 1.39.62 1.39 1.39v38.43c0 .765-.62 1.39-1.39 1.39h.005Zm-99.045-2.78h97.655V43.53H218.1a1.39 1.39 0 0 1-1.39-1.39c0-13.03-10.6-23.635-23.635-23.635-13.035 0-23.635 10.6-23.635 23.635 0 .765-.62 1.39-1.39 1.39h-23.805v35.655h.005Z"/><path fill="#F5F4F3" d="M223.495 42.145c0-13.82-11.205-25.02-25.025-25.02-13.82 0-25.02 11.205-25.02 25.02h-25.195v38.43H248.69v-38.43h-25.195Z"/><path fill="#DADADA" d="M262.815 254.235c12.142 0 21.985-9.843 21.985-21.985s-9.843-21.985-21.985-21.985-21.985 9.843-21.985 21.985 9.843 21.985 21.985 21.985Z"/><path fill="#FF3158" d="M220.585 138.32h-52.29L196.3 98.765l24.285 39.555Z"/><path fill="#222" d="M218.765 138.33h-48.65c-.52 0-.995-.29-1.235-.75-.24-.46-.2-1.015.1-1.44l26.055-36.8c.27-.38.72-.6 1.18-.585a1.4 1.4 0 0 1 1.14.66l22.595 36.8a1.386 1.386 0 0 1-1.18 2.115h-.005Zm-45.965-2.78h43.48l-20.195-32.89-23.29 32.89h.005Z"/><path fill="#FF3158" d="M157.37 138.32h-52.295l28.01-39.555 24.285 39.555Z"/><path fill="#222" d="M155.545 138.33h-48.65c-.52 0-.995-.29-1.235-.75-.24-.46-.2-1.015.1-1.44l26.055-36.8a1.395 1.395 0 0 1 2.32.075l22.595 36.8a1.386 1.386 0 0 1-1.18 2.115h-.005Zm-45.965-2.78h43.48l-20.195-32.89-23.29 32.89h.005Z"/><path fill="#FF3158" d="M157.37 190.335h-52.295l28.01-39.55 24.285 39.55Z"/><path fill="#222" d="M155.545 190.35h-48.65c-.52 0-.995-.29-1.235-.75-.24-.46-.2-1.015.1-1.44l26.055-36.8c.27-.38.715-.605 1.18-.585a1.4 1.4 0 0 1 1.14.66l22.595 36.8a1.386 1.386 0 0 1-1.18 2.115h-.005Zm-45.965-2.78h43.48l-20.195-32.89-23.29 32.89h.005Z"/><path fill="#DADADA" d="M234.28 102.455h46.805l-23.405 35.52-23.4-35.52Z"/><path fill="#222" d="M254.005 143.835h-.045a1.4 1.4 0 0 1-1.14-.66l-22.595-36.8a1.386 1.386 0 0 1 1.18-2.115h48.65c.52 0 .995.29 1.235.75.24.46.2 1.015-.1 1.44l-26.055 36.8c-.26.37-.685.585-1.135.585h.005Zm-20.11-36.8 20.195 32.89 23.29-32.89h-43.485Z"/><path fill="#DADADA" d="M234.28 153.834h46.805l-23.405 35.515-23.4-35.515Z"/><path fill="#222" d="M254.005 195.215h-.045a1.4 1.4 0 0 1-1.14-.66l-22.595-36.8a1.386 1.386 0 0 1 1.18-2.115h48.65c.52 0 .995.29 1.235.75.24.46.2 1.015-.1 1.44l-26.055 36.8c-.26.37-.685.585-1.135.585h.005Zm-20.11-36.8 20.195 32.89 23.29-32.89h-43.485Z"/><path fill="#DADADA" d="M172.47 153.834h46.805l-23.4 35.515-23.405-35.515Z"/><path fill="#222" d="M192.195 195.215h-.045a1.4 1.4 0 0 1-1.14-.66l-22.595-36.8a1.386 1.386 0 0 1 1.18-2.115h48.65c.52 0 .995.29 1.235.75.24.46.2 1.015-.1 1.44l-26.055 36.8c-.26.37-.685.585-1.135.585h.005Zm-20.11-36.8 20.195 32.89 23.29-32.89h-43.485ZM259.11 259.465c-12.885 0-23.37-10.485-23.37-23.37 0-12.885 10.485-23.37 23.37-23.37 12.885 0 23.37 10.485 23.37 23.37 0 12.885-10.485 23.37-23.37 23.37Zm0-43.965c-11.355 0-20.595 9.24-20.595 20.595 0 11.355 9.24 20.595 20.595 20.595 11.355 0 20.595-9.24 20.595-20.595 0-11.355-9.24-20.595-20.595-20.595Z"/><path fill="#FF3158" d="M195.875 257.945c12.142 0 21.985-9.843 21.985-21.985s-9.843-21.985-21.985-21.985-21.985 9.843-21.985 21.985 9.843 21.985 21.985 21.985Z"/><path fill="#222" d="M195.875 259.33c-12.885 0-23.37-10.485-23.37-23.37 0-12.885 10.485-23.37 23.37-23.37 12.885 0 23.37 10.485 23.37 23.37 0 12.885-10.485 23.37-23.37 23.37Zm0-43.965c-11.355 0-20.595 9.24-20.595 20.595 0 11.355 9.24 20.595 20.595 20.595 11.355 0 20.595-9.24 20.595-20.595 0-11.355-9.24-20.595-20.595-20.595Z"/><path fill="#FF3158" d="M131.22 257.945c12.142 0 21.985-9.843 21.985-21.985s-9.843-21.985-21.985-21.985-21.985 9.843-21.985 21.985 9.843 21.985 21.985 21.985Z"/><path fill="#222" d="M131.225 259.33c-12.885 0-23.37-10.485-23.37-23.37 0-12.885 10.485-23.37 23.37-23.37 12.885 0 23.37 10.485 23.37 23.37 0 12.885-10.485 23.37-23.37 23.37Zm0-43.965c-11.355 0-20.595 9.24-20.595 20.595 0 11.355 9.24 20.595 20.595 20.595 11.355 0 20.595-9.24 20.595-20.595 0-11.355-9.24-20.595-20.595-20.595Z"/><path fill="#DADADA" d="M199.58 318.159c12.142 0 21.985-9.843 21.985-21.985s-9.843-21.985-21.985-21.985-21.985 9.843-21.985 21.985 9.843 21.985 21.985 21.985Z"/><path fill="#222" d="M195.875 323.255c-12.885 0-23.37-10.485-23.37-23.37 0-12.885 10.485-23.37 23.37-23.37 12.885 0 23.37 10.485 23.37 23.37 0 12.885-10.485 23.37-23.37 23.37Zm0-43.965c-11.355 0-20.595 9.24-20.595 20.595 0 11.355 9.24 20.595 20.595 20.595 11.355 0 20.595-9.24 20.595-20.595 0-11.355-9.24-20.595-20.595-20.595Z"/><path fill="#DADADA" d="M134.93 318.159c12.142 0 21.985-9.843 21.985-21.985s-9.843-21.985-21.985-21.985-21.985 9.843-21.985 21.985 9.843 21.985 21.985 21.985Z"/><path fill="#222" d="M131.225 323.255c-12.885 0-23.37-10.485-23.37-23.37 0-12.885 10.485-23.37 23.37-23.37 12.885 0 23.37 10.485 23.37 23.37 0 12.885-10.485 23.37-23.37 23.37Zm0-43.965c-11.355 0-20.595 9.24-20.595 20.595 0 11.355 9.24 20.595 20.595 20.595 11.355 0 20.595-9.24 20.595-20.595 0-11.355-9.24-20.595-20.595-20.595ZM243.295 81.965H142.86a1.39 1.39 0 0 1-1.39-1.39v-38.43c0-.765.62-1.39 1.39-1.39h23.84c.725-13.92 12.28-25.02 26.375-25.02s25.65 11.1 26.375 25.02h23.84c.765 0 1.39.62 1.39 1.39v38.43c0 .765-.62 1.39-1.39 1.39h.005Zm-99.045-2.78h97.655V43.53H218.1a1.39 1.39 0 0 1-1.39-1.39c0-13.03-10.6-23.635-23.635-23.635-13.035 0-23.635 10.6-23.635 23.635 0 .765-.62 1.39-1.39 1.39h-23.805v35.655h.005Z"/><path fill="#fff" d="M314.31 340.029c-22.17 20.04-56.395 18.315-76.435-3.855-20.05-22.17-18.325-56.395 3.85-76.435 22.17-20.05 56.395-18.315 76.435 3.855 20.05 22.17 18.325 56.39-3.85 76.435Z"/><path fill="#222" d="M278.045 355.364c-15.16 0-30.26-6.154-41.2-18.259-9.945-11-15.01-25.211-14.265-40.021.745-14.81 7.215-28.44 18.215-38.38 11-9.945 25.21-15.004 40.02-14.259 14.81.75 28.44 7.215 38.38 18.215 9.945 11 15.01 25.209 14.265 40.014-.745 14.805-7.215 28.435-18.21 38.38-10.6 9.58-23.92 14.305-37.195 14.305l-.01.005Zm-.095-108.215c-13.08 0-25.525 4.781-35.295 13.616-10.45 9.445-16.595 22.39-17.3 36.46-.71 14.065 4.105 27.569 13.55 38.014 19.495 21.57 52.905 23.251 74.475 3.755 21.565-19.5 23.25-52.91 3.75-74.475-9.445-10.45-22.395-16.594-36.46-17.304-.91-.045-1.815-.07-2.72-.07v.004Z"/><path fill="#DADADA" d="M329.44 253.394c-25.68-28.405-69.51-30.615-97.915-4.935-28.395 25.67-30.605 69.51-4.935 97.91 25.68 28.405 69.51 30.615 97.915 4.935 28.395-25.67 30.605-69.51 4.935-97.91Zm-15.185 86.57c-22.14 20.01-56.31 18.29-76.32-3.85-20.015-22.135-18.295-56.31 3.845-76.32 22.135-20.015 56.31-18.29 76.32 3.85 20.015 22.135 18.295 56.305-3.845 76.32Z"/><path fill="#222" d="M278.05 370.56c-19.31 0-38.55-7.84-52.49-23.26-12.665-14.01-19.115-32.115-18.165-50.98.95-18.865 9.19-36.23 23.2-48.89 28.925-26.15 73.725-23.89 99.875 5.035 26.145 28.925 23.885 73.725-5.035 99.87-13.505 12.21-30.475 18.225-47.385 18.225Zm-.065-138.58c-16.25 0-32.55 5.78-45.525 17.51-13.46 12.165-21.375 28.85-22.285 46.97-.91 18.12 5.285 35.515 17.45 48.975 25.12 27.785 68.165 29.96 95.955 4.835 27.785-25.12 29.955-68.16 4.835-95.945-13.39-14.81-31.88-22.345-50.43-22.345Zm.06 123.3c-15.135 0-30.215-6.145-41.14-18.23-9.93-10.98-14.99-25.175-14.245-39.96.745-14.785 7.205-28.395 18.185-38.325 10.98-9.93 25.17-14.985 39.96-14.24 14.785.745 28.395 7.205 38.325 18.19 20.495 22.665 18.73 57.785-3.94 78.28-10.585 9.57-23.885 14.285-37.14 14.285h-.005Zm-.095-108.05c-13.06 0-25.485 4.775-35.24 13.595-10.43 9.43-16.565 22.355-17.275 36.4-.71 14.045 4.1 27.525 13.53 37.955 19.465 21.535 52.825 23.22 74.36 3.75 21.535-19.47 23.215-52.83 3.745-74.36-9.43-10.43-22.355-16.57-36.4-17.275-.91-.045-1.815-.07-2.715-.07l-.005.005Z"/><path fill="#FF3158" d="m236.615 291.335 14.115-13.375 27.925 29.72 62.53-67.14 12.305 14.87-74.835 80.27-42.04-44.345Z"/><path fill="#222" d="m278.66 337.705-44.01-46.425 16.135-15.29 27.86 29.655 62.6-67.215 14.09 17.03-76.675 82.24v.005Zm-40.08-46.315 40.065 42.26 72.995-78.295-10.515-12.71-62.465 67.075-27.985-29.785-12.095 11.46v-.005Z"/></svg>