<svg xmlns="http://www.w3.org/2000/svg" width="401" height="401" fill="none" viewBox="0 0 401 401"><path fill="#FF3158" d="M108.498 101.221h175.867c6.657 0 12.02 5.363 12.02 12.02v175.867c0 6.657-5.363 12.02-12.02 12.02H108.498a11.997 11.997 0 0 1-12.02-12.02V113.241c0-6.657 5.363-12.02 12.02-12.02Z"/><path fill="#222" d="M284.365 302.423H108.498a13.26 13.26 0 0 1-13.315-13.315V113.241a13.26 13.26 0 0 1 13.315-13.315h175.867a13.26 13.26 0 0 1 13.315 13.315v175.867c0 7.212-5.918 13.315-13.315 13.315ZM108.498 102.7c-5.918 0-10.54 4.808-10.54 10.541v175.867c0 5.918 4.807 10.541 10.54 10.541h175.867c5.918 0 10.541-4.808 10.541-10.541V113.241c0-5.918-4.808-10.541-10.541-10.541H108.498Z"/><path fill="#fff" d="M127.916 126.186h137.031c3.514 0 6.288 2.774 6.288 6.288V269.69c0 3.514-2.774 6.288-6.288 6.288H127.916c-3.514 0-6.288-2.774-6.288-6.288V132.474c-.185-3.329 2.774-6.288 6.288-6.288Z"/><path fill="#222" d="M264.948 277.457H127.916c-4.254 0-7.767-3.513-7.767-7.767V132.474c0-4.254 3.513-7.767 7.767-7.767h137.032c4.253 0 7.766 3.513 7.766 7.767V269.69c0 4.254-3.513 7.767-7.766 7.767ZM127.916 127.665a4.973 4.973 0 0 0-4.993 4.993v137.217a4.972 4.972 0 0 0 4.993 4.993h137.032a4.973 4.973 0 0 0 4.993-4.993V132.474a4.974 4.974 0 0 0-4.993-4.994H127.916v.185Z"/><path fill="#F5F4F3" d="M133.648 121.748h137.217c3.514 0 6.288 2.774 6.288 6.288v137.216c0 3.514-2.774 6.288-6.288 6.288H133.648c-3.513 0-6.287-2.774-6.287-6.288V128.036c0-3.514 2.774-6.288 6.287-6.288Z"/><path fill="#444" d="M271.79 300.943h-11.651v46.787h11.651v-46.787Z"/><path fill="#222" d="M273.084 349.025H258.66v-49.561h14.424v49.561Zm-11.65-2.774h8.876v-44.013h-8.876v44.013Z"/><path fill="#444" d="M215.757 300.943h-11.651v46.787h11.651v-46.787Z"/><path fill="#222" d="M217.051 349.025h-14.424v-49.561h14.424v49.561Zm-11.65-2.774h8.876v-44.013h-8.876v44.013Z"/><path fill="#444" d="M141.785 300.943h-11.65v46.787h11.65v-46.787Z"/><path fill="#222" d="M143.08 349.025h-14.425v-49.561h14.425v49.561Zm-11.651-2.774h8.877v-44.013h-8.877v44.013Z"/><path fill="#444" d="M131.244 54.434h-11.65v46.787h11.65V54.434Z"/><path fill="#222" d="M132.724 102.7h-14.425V53.14h14.425v49.56Zm-11.651-2.773h8.877V55.914h-8.877v44.013Z"/><path fill="#444" d="M187.278 54.434h-11.651v46.787h11.651V54.434Z"/><path fill="#222" d="M188.757 102.7h-14.424V53.14h14.424v49.56Zm-11.65-2.773h8.876V55.914h-8.876v44.013Z"/><path fill="#444" d="M261.249 54.434h-11.651v46.787h11.651V54.434Z"/><path fill="#222" d="M262.728 102.7h-14.424V53.14h14.424v49.56Zm-11.65-2.773h8.876V55.914h-8.876v44.013Z"/><path fill="#444" d="M96.663 265.437H49.876v11.651h46.787v-11.651Z"/><path fill="#222" d="M97.957 278.567h-49.56v-14.424h49.56v14.424Zm-46.787-2.774h44.013v-8.876H51.17v8.876Z"/><path fill="#444" d="M96.663 209.404H49.876v11.65h46.787v-11.65Z"/><path fill="#222" d="M97.957 222.534h-49.56v-14.425h49.56v14.425ZM51.17 219.76h44.013v-8.877H51.17v8.877Z"/><path fill="#444" d="M233.695 149.117h-96.903v11.651h96.903v-11.651Z"/><path fill="#222" d="M234.989 162.247h-99.491v-14.424h99.676v14.424h-.185Zm-96.717-2.774H232.4v-8.876h-94.128v8.876Z"/><path fill="#444" d="M200.038 190.726h-63.246v11.651h63.246v-11.651Z"/><path fill="#222" d="M201.517 203.856h-66.019v-14.424h66.204v14.424h-.185Zm-63.245-2.774h60.656v-8.876h-60.656v8.876Z"/><path fill="#444" d="M254.037 232.335h-63.431v11.65h63.431v-11.65Z"/><path fill="#222" d="M255.331 245.465h-66.204v-14.424h66.204v14.424Zm-63.245-2.774h60.656v-8.877h-60.656v8.877Z"/><path fill="#444" d="M96.663 135.433H49.876v11.65h46.787v-11.65Z"/><path fill="#222" d="M97.957 148.563h-49.56v-14.425h49.56v14.425Zm-46.787-2.774h44.013v-8.877H51.17v8.877Z"/><path fill="#444" d="M342.987 125.077H296.2v11.65h46.787v-11.65Z"/><path fill="#222" d="M344.467 138.207h-49.561v-14.425h49.561v14.425Zm-46.787-2.774h44.013v-8.877H297.68v8.877Z"/><path fill="#444" d="M342.987 181.11H296.2v11.65h46.787v-11.65Z"/><path fill="#222" d="M344.467 194.055h-49.561V179.63h49.561v14.425Zm-46.787-2.774h44.013v-8.877H297.68v8.877Z"/><path fill="#444" d="M342.987 255.082H296.2v11.65h46.787v-11.65Z"/><path fill="#222" d="M344.467 268.211h-49.561v-14.609h49.561v14.609Zm-46.787-2.774h44.013v-8.876H297.68v8.876ZM264.948 277.457H127.916c-4.254 0-7.767-3.513-7.767-7.767V132.474c0-4.254 3.513-7.767 7.767-7.767h137.032c4.253 0 7.766 3.513 7.766 7.767V269.69c0 4.254-3.513 7.767-7.766 7.767ZM127.916 127.665a4.973 4.973 0 0 0-4.993 4.993v137.217a4.972 4.972 0 0 0 4.993 4.993h137.032a4.973 4.973 0 0 0 4.993-4.993V132.474a4.974 4.974 0 0 0-4.993-4.994H127.916v.185Z"/></svg>