<svg xmlns="http://www.w3.org/2000/svg" width="400" height="400" fill="none" viewBox="0 0 400 400"><path fill="#FF3158" d="M107.998 100.971h175.867c6.657 0 12.02 5.363 12.02 12.02v175.867c0 6.657-5.363 12.02-12.02 12.02H107.998a11.996 11.996 0 0 1-12.02-12.02V112.991c0-6.657 5.362-12.02 12.02-12.02Z"/><path fill="#222" d="M283.865 302.173H107.998a13.26 13.26 0 0 1-13.315-13.315V112.991a13.26 13.26 0 0 1 13.315-13.315h175.867a13.26 13.26 0 0 1 13.315 13.315v175.867c0 7.212-5.918 13.315-13.315 13.315ZM107.998 102.45c-5.918 0-10.541 4.808-10.541 10.541v175.867c0 5.918 4.808 10.541 10.541 10.541h175.867c5.918 0 10.541-4.808 10.541-10.541V112.991c0-5.918-4.808-10.541-10.541-10.541H107.998Z"/><path fill="#fff" d="M127.415 125.936h137.032c3.514 0 6.288 2.774 6.288 6.288V269.44c0 3.514-2.774 6.288-6.288 6.288H127.415c-3.513 0-6.287-2.774-6.287-6.288V132.224c-.185-3.329 2.774-6.288 6.287-6.288Z"/><path fill="#222" d="M264.447 277.207H127.415c-4.253 0-7.767-3.513-7.767-7.767V132.224c0-4.254 3.514-7.767 7.767-7.767h137.032c4.254 0 7.767 3.513 7.767 7.767V269.44c0 4.254-3.513 7.767-7.767 7.767ZM127.415 127.415a4.973 4.973 0 0 0-4.993 4.993v137.217a4.973 4.973 0 0 0 4.993 4.993h137.032a4.972 4.972 0 0 0 4.993-4.993V132.224a4.973 4.973 0 0 0-4.993-4.994H127.415v.185Z"/><path fill="#F5F4F3" d="M133.148 121.498h137.217c3.514 0 6.288 2.774 6.288 6.288v137.216c0 3.514-2.774 6.288-6.288 6.288H133.148c-3.513 0-6.287-2.774-6.287-6.288V127.786c0-3.514 2.774-6.288 6.287-6.288Z"/><path fill="#DADADA" d="M271.29 300.693h-11.65v46.787h11.65v-46.787Z"/><path fill="#222" d="M272.585 348.775H258.16v-49.561h14.425v49.561Zm-11.651-2.774h8.877v-44.013h-8.877v44.013Z"/><path fill="#DADADA" d="M215.256 300.693h-11.65v46.787h11.65v-46.787Z"/><path fill="#222" d="M216.551 348.775h-14.425v-49.561h14.425v49.561Zm-11.651-2.774h8.877v-44.013H204.9v44.013Z"/><path fill="#DADADA" d="M141.285 300.693h-11.65v46.787h11.65v-46.787Z"/><path fill="#222" d="M142.58 348.775h-14.425v-49.561h14.425v49.561Zm-11.651-2.774h8.877v-44.013h-8.877v44.013Z"/><path fill="#DADADA" d="M130.744 54.184h-11.65v46.787h11.65V54.184Z"/><path fill="#222" d="M132.224 102.45h-14.425V52.89h14.425v49.56Zm-11.651-2.773h8.877V55.664h-8.877v44.013Z"/><path fill="#DADADA" d="M186.777 54.184h-11.65v46.787h11.65V54.184Z"/><path fill="#222" d="M188.257 102.45h-14.424V52.89h14.424v49.56Zm-11.651-2.773h8.877V55.664h-8.877v44.013Z"/><path fill="#DADADA" d="M260.749 54.184h-11.65v46.787h11.65V54.184Z"/><path fill="#222" d="M262.228 102.45h-14.424V52.89h14.424v49.56Zm-11.65-2.773h8.876V55.664h-8.876v44.013Z"/><path fill="#DADADA" d="M96.163 265.187H49.376v11.651h46.787v-11.651Z"/><path fill="#222" d="M97.457 278.317h-49.56v-14.424h49.56v14.424Zm-46.787-2.774h44.013v-8.876H50.67v8.876Z"/><path fill="#DADADA" d="M96.163 209.154H49.376v11.65h46.787v-11.65Z"/><path fill="#222" d="M97.457 222.284h-49.56v-14.425h49.56v14.425ZM50.67 219.51h44.013v-8.877H50.67v8.877Z"/><path fill="#444" d="M233.194 148.867h-96.902v11.651h96.902v-11.651Z"/><path fill="#222" d="M234.489 161.997h-99.491v-14.424h99.676v14.424h-.185Zm-96.718-2.774H231.9v-8.876h-94.129v8.876Z"/><path fill="#444" d="M199.537 190.476h-63.245v11.651h63.245v-11.651Z"/><path fill="#222" d="M201.017 203.606h-66.019v-14.424h66.204v14.424h-.185Zm-63.246-2.774h60.657v-8.876h-60.657v8.876Z"/><path fill="#444" d="M253.537 232.085h-63.431v11.65h63.431v-11.65Z"/><path fill="#222" d="M254.831 245.215h-66.204v-14.424h66.204v14.424Zm-63.245-2.774h60.656v-8.877h-60.656v8.877Z"/><path fill="#DADADA" d="M96.163 135.183H49.376v11.65h46.787v-11.65Z"/><path fill="#222" d="M97.457 148.313h-49.56v-14.425h49.56v14.425Zm-46.787-2.774h44.013v-8.877H50.67v8.877Z"/><path fill="#DADADA" d="M342.488 124.827h-46.787v11.65h46.787v-11.65Z"/><path fill="#222" d="M343.967 137.957h-49.561v-14.425h49.561v14.425Zm-46.787-2.774h44.013v-8.877H297.18v8.877Z"/><path fill="#DADADA" d="M342.488 180.86h-46.787v11.65h46.787v-11.65Z"/><path fill="#222" d="M343.967 193.805h-49.561V179.38h49.561v14.425Zm-46.787-2.774h44.013v-8.877H297.18v8.877Z"/><path fill="#DADADA" d="M342.488 254.832h-46.787v11.65h46.787v-11.65Z"/><path fill="#222" d="M343.967 267.961h-49.561v-14.609h49.561v14.609Zm-46.787-2.774h44.013v-8.876H297.18v8.876ZM264.447 277.207H127.415c-4.253 0-7.767-3.513-7.767-7.767V132.224c0-4.254 3.514-7.767 7.767-7.767h137.032c4.254 0 7.767 3.513 7.767 7.767V269.44c0 4.254-3.513 7.767-7.767 7.767ZM127.415 127.415a4.973 4.973 0 0 0-4.993 4.993v137.217a4.973 4.973 0 0 0 4.993 4.993h137.032a4.972 4.972 0 0 0 4.993-4.993V132.224a4.973 4.973 0 0 0-4.993-4.994H127.415v.185Z"/></svg>