<svg xmlns="http://www.w3.org/2000/svg" width="400" height="401" fill="none" viewBox="0 0 400 401"><path fill="#F5F4F3" d="M133.68 59.855 75.355 118.32v196.795h215.71V59.855H133.68Z"/><path fill="#F5F4F3" d="M311.275 77.635H95.56v255.26h215.715V77.635Z"/><path fill="#222" d="M311.275 334.28H95.56a1.39 1.39 0 0 1-1.39-1.39V77.635c0-.765.62-1.39 1.39-1.39h215.71c.765 0 1.39.62 1.39 1.39v255.26c0 .765-.62 1.39-1.39 1.39l.005-.005ZM96.95 331.5h212.935V79.02H96.95V331.5Z"/><path fill="#fff" d="M138.435 71.01 87.26 122.32v200.8h211.71V71.01H138.435Z"/><path fill="#222" d="M298.97 324.51H87.255a1.39 1.39 0 0 1-1.39-1.39v-200.8c0-.37.145-.72.405-.98l51.18-51.31c.26-.26.615-.41.985-.41H298.97c.765 0 1.39.62 1.39 1.39v252.11c0 .765-.62 1.39-1.39 1.39Zm-210.325-2.78h208.94V72.4h-158.57L88.65 122.895v198.84l-.005-.005Z"/><path fill="#DADADA" d="m146.25 73.7-48.69 48.81v191.03h201.41V73.7H146.25Z"/><path fill="#222" d="M298.97 324.51H87.255a1.39 1.39 0 0 1-1.39-1.39v-200.8c0-.37.145-.72.405-.98l51.18-51.31c.26-.26.615-.41.985-.41H298.97c.765 0 1.39.62 1.39 1.39v252.11c0 .765-.62 1.39-1.39 1.39Zm-210.325-2.78h208.94V72.4h-158.57L88.65 122.895v198.84l-.005-.005Z"/><path fill="#FF3158" d="M322.64 150.02H64.03v119.19h258.61V150.02Z"/><path fill="#222" d="M322.64 270.6H64.03a1.39 1.39 0 0 1-1.39-1.39V150.02c0-.765.62-1.39 1.39-1.39h258.61c.765 0 1.39.62 1.39 1.39v119.19c0 .765-.62 1.39-1.39 1.39Zm-257.22-2.78h255.835V151.41H65.415v116.41h.005Z"/><path fill="#fff" d="M138.995 241.295c-5.43 0-10.035-.93-13.805-2.79-3.78-1.86-6.995-4.27-9.65-7.225l8.85-8.95c4.19 4.68 9.35 7.02 15.49 7.02 3.305 0 5.75-.67 7.345-2.015 1.595-1.345 2.39-3.13 2.39-5.35 0-1.695-.475-3.11-1.415-4.255-.945-1.14-2.86-1.915-5.755-2.325l-6.105-.79c-6.55-.83-11.345-2.805-14.38-5.935-3.04-3.13-4.56-7.295-4.56-12.495 0-2.78.535-5.32 1.595-7.62a16.8 16.8 0 0 1 4.555-5.935c1.98-1.655 4.395-2.94 7.255-3.855 2.86-.915 6.12-1.37 9.78-1.37 4.66 0 8.765.74 12.3 2.215 3.54 1.48 6.58 3.635 9.115 6.47l-8.94 9.045c-1.475-1.695-3.26-3.08-5.355-4.16-2.095-1.08-4.735-1.62-7.92-1.62-3.01 0-5.255.525-6.725 1.575-1.475 1.05-2.215 2.51-2.215 4.38 0 2.105.575 3.625 1.725 4.555 1.155.935 3.025 1.605 5.62 2.015l6.105.975c6.375 1.005 11.095 2.97 14.16 5.895 3.065 2.925 4.6 7.075 4.6 12.445 0 2.955-.53 5.67-1.59 8.15a17.438 17.438 0 0 1-4.645 6.38c-2.035 1.775-4.56 3.15-7.57 4.12-3.01.975-6.43 1.46-10.265 1.46l.01-.01ZM170.985 178.455h23.275c4.07 0 7.79.65 11.15 1.95 3.365 1.3 6.225 3.23 8.585 5.8 2.36 2.565 4.19 5.78 5.485 9.645 1.295 3.865 1.95 8.365 1.95 13.495 0 5.13-.65 9.63-1.95 13.495-1.295 3.865-3.13 7.08-5.485 9.645-2.36 2.565-5.22 4.5-8.585 5.795-3.36 1.3-7.08 1.95-11.15 1.95h-23.275v-61.775Zm23.275 49.83c4.01 0 7.17-1.12 9.47-3.365 2.3-2.24 3.45-5.84 3.45-10.795v-9.555c0-4.955-1.15-8.555-3.45-10.8-2.3-2.24-5.46-3.36-9.47-3.36h-9.825v37.88h9.825v-.005ZM251.195 213.325l-8.05 9.735v17.17H229.69v-61.775h13.455v29.385h.53l8.76-11.945 13.895-17.435h15.22l-20.8 25.4 22.655 36.375h-15.84L251.19 213.33l.005-.005ZM138.435 71.01v51.31H87.26l51.175-51.31Z"/><path fill="#222" d="M138.435 123.709h-51.18c-.56 0-1.07-.34-1.285-.855a1.395 1.395 0 0 1 .3-1.515l51.18-51.31a1.389 1.389 0 0 1 2.375.98v51.31c0 .765-.62 1.39-1.39 1.39Zm-47.835-2.78h46.445v-46.56L90.6 120.93Z"/></svg>