<svg xmlns="http://www.w3.org/2000/svg" width="400" height="400" fill="none" viewBox="0 0 400 400"><path fill="#DADADA" d="M84.142 217.845c13.685-13.684 35.876-13.684 49.561 0l50.67 50.671c13.685 13.684 13.685 35.876 0 49.56l-28.294 28.294c26.63-.554 53.444-11.28 74.156-31.992 41.239-41.239 42.904-106.704 3.514-145.909-39.39-39.204-104.669-37.725-146.093 3.514-20.712 20.712-31.438 47.712-31.993 74.156 0 .185 28.479-28.294 28.479-28.294Z"/><path fill="#222" d="M155.894 347.85a1.39 1.39 0 0 1-1.294-.925c-.185-.554-.185-1.109.37-1.479l28.294-28.294c13.129-13.13 13.129-34.397 0-47.527l-50.671-50.67c-6.287-6.288-14.794-9.801-23.856-9.801-9.061 0-17.383 3.513-23.855 9.801l-28.294 28.294c-.37.37-.925.555-1.48.37a1.391 1.391 0 0 1-.924-1.295c.554-28.109 12.02-54.738 32.362-75.081C128.34 129.45 194.73 127.97 234.49 167.73c19.232 19.232 29.588 45.307 28.849 73.231-.74 27.925-12.206 54.369-32.363 74.712-20.157 20.157-46.787 31.622-75.081 32.177Zm-47.157-141.655c9.802 0 18.863 3.699 25.705 10.726l50.671 50.67c14.239 14.24 14.239 37.356 0 51.41l-25.89 25.89c26.075-1.294 50.855-12.39 69.718-31.438 19.787-19.787 30.883-45.492 31.623-72.861.739-27.185-9.247-52.52-28.11-71.198-38.465-38.65-103.005-36.985-143.689 3.699-19.047 19.047-30.143 43.643-31.438 69.718l25.89-25.89c6.658-6.843 15.904-10.726 25.52-10.726Z"/><path fill="#222" d="M70.457 233.01h-.185c-.74-.185-1.294-.925-1.11-1.665 3.33-20.157 12.76-38.465 27.37-53.259a1.45 1.45 0 0 1 2.034 0 1.45 1.45 0 0 1 0 2.034c-14.24 14.24-23.486 32.178-26.63 51.595-.184.74-.924 1.295-1.479 1.295Z"/><path fill="#222" d="M97.457 180.49c-.37 0-.74-.185-.925-.37a1.45 1.45 0 0 1 0-2.034c36.801-36.801 95.423-38.28 130.745-3.144.554.555.554 1.48 0 2.034a1.452 1.452 0 0 1-2.035 0c-34.211-34.026-90.984-32.732-126.86 3.144-.185.185-.555.37-.925.37Z"/><path fill="#222" d="M223.023 306.057a1.41 1.41 0 0 1-.924-.37 1.45 1.45 0 0 1 0-2.034c35.876-35.877 37.17-92.65 3.143-126.676a1.454 1.454 0 0 1 0-2.035 1.454 1.454 0 0 1 2.035 0c35.136 35.137 33.842 93.759-3.144 130.745-.37.185-.74.37-1.11.37Z"/><path fill="#222" d="M171.798 332.871c-.74 0-1.294-.555-1.294-1.109-.185-.74.369-1.48 1.109-1.665 19.048-3.329 36.616-12.575 50.486-26.445a1.452 1.452 0 0 1 2.034 0c.555.555.555 1.48 0 2.035-14.24 14.424-32.363 23.67-51.965 27.184h-.37Z"/><path fill="#FF3158" d="M280.906 221.729c-6.103 6.103-12.206 11.651-18.678 16.829-21.822 17.568-46.232 30.513-71.567 38.65-1.665-3.144-3.699-6.103-6.288-8.692l-50.67-50.67c-2.589-2.589-5.363-4.624-8.322-6.103 8.322-25.335 21.267-49.746 38.835-71.752 5.178-6.288 10.726-12.575 16.643-18.493 46.417-46.417 107.259-68.424 166.436-66.204 2.219 59.177-19.972 120.203-66.389 166.435Z"/><path fill="#222" d="M190.661 278.687c-.555 0-.925-.185-1.295-.74-1.664-3.144-3.698-5.918-6.102-8.322l-50.671-50.67c-2.404-2.404-4.993-4.438-7.952-5.918-.554-.37-.924-.924-.739-1.664 8.506-26.26 21.636-50.485 39.204-72.122 5.363-6.473 10.911-12.76 16.644-18.493 44.753-44.753 105.779-68.978 167.545-66.574.74 0 1.295.555 1.295 1.294 2.404 61.766-21.822 122.793-66.575 167.545-5.917 5.918-12.39 11.651-18.862 17.014-21.637 17.383-45.863 30.513-71.937 38.835-.185-.185-.37-.185-.555-.185Zm-63.801-67.684c2.774 1.664 5.363 3.514 7.583 5.918l50.67 50.67c2.404 2.404 4.438 4.993 6.103 7.952 25.335-8.322 48.821-21.082 69.902-38.095 6.473-5.178 12.761-10.911 18.678-16.829 43.828-43.828 67.869-103.56 65.835-164.216-60.472-2.034-120.204 22.006-164.217 65.834-5.732 5.733-11.28 11.836-16.458 18.308-16.829 21.452-29.589 44.938-38.096 70.458Z"/><path fill="#222" d="M241.886 199.723c-21.822 0-39.39-17.754-39.39-39.575 0-21.822 17.753-39.575 39.39-39.575 21.636 0 39.39 17.753 39.39 39.575 0 21.821-17.569 39.575-39.39 39.575Zm0-76.191c-20.157 0-36.616 16.459-36.616 36.801 0 20.342 16.459 36.801 36.616 36.801s36.616-16.459 36.616-36.801c0-20.342-16.274-36.801-36.616-36.801Z"/><path fill="#F5F4F3" d="M245.584 202.681c21.55 0 39.02-17.469 39.02-39.02 0-21.55-17.47-39.019-39.02-39.019-21.55 0-39.02 17.469-39.02 39.019 0 21.551 17.47 39.02 39.02 39.02Z"/><path fill="#222" d="M241.886 199.723c-21.822 0-39.39-17.754-39.39-39.575 0-21.822 17.753-39.575 39.39-39.575 21.636 0 39.39 17.753 39.39 39.575 0 21.821-17.569 39.575-39.39 39.575Zm0-76.191c-20.157 0-36.616 16.459-36.616 36.801 0 20.342 16.459 36.801 36.616 36.801s36.616-16.459 36.616-36.801c0-20.342-16.274-36.801-36.616-36.801Z"/><path fill="#F5F4F3" d="m335.46 130.189-63.061-63.245-12.945 4.623 71.198 72.862 4.808-14.24Z"/><path fill="#222" d="M331.206 145.354a1.41 1.41 0 0 1-.924-.37l-72.307-72.307a1.45 1.45 0 0 1 0-2.034 1.45 1.45 0 0 1 2.034 0l72.307 72.307a1.45 1.45 0 0 1 0 2.034c-.555.185-.74.37-1.11.37ZM336.94 131.484c-.37 0-.74-.185-.925-.37L271.29 66.389a1.45 1.45 0 0 1 0-2.034 1.45 1.45 0 0 1 2.034 0l64.725 64.725a1.45 1.45 0 0 1 0 2.034c-.37.37-.739.37-1.109.37Z"/><path fill="#F5F4F3" d="m225.428 261.489-84.327-84.512-6.103 12.76 78.04 77.485 12.39-5.733Z"/><path fill="#222" d="M213.592 269.625a1.41 1.41 0 0 1-.924-.369l-79.519-79.52a1.45 1.45 0 0 1 0-2.034 1.45 1.45 0 0 1 2.034 0l79.519 79.519c.555.555.555 1.48 0 2.035-.37.185-.74.369-1.11.369ZM226.907 263.338a1.41 1.41 0 0 1-.924-.37l-86.362-86.361a1.452 1.452 0 0 1 0-2.035 1.452 1.452 0 0 1 2.034 0l86.362 86.362a1.45 1.45 0 0 1 0 2.034c-.37.185-.74.37-1.11.37ZM241.886 199.723c-21.822 0-39.39-17.754-39.39-39.575 0-21.822 17.753-39.575 39.39-39.575 21.636 0 39.39 17.753 39.39 39.575 0 21.821-17.569 39.575-39.39 39.575Zm0-76.191c-20.157 0-36.616 16.459-36.616 36.801 0 20.342 16.459 36.801 36.616 36.801s36.616-16.459 36.616-36.801c0-20.342-16.274-36.801-36.616-36.801Z"/><path fill="#222" d="M241.886 199.723c-21.822 0-39.39-17.754-39.39-39.575 0-21.822 17.753-39.575 39.39-39.575 21.636 0 39.39 17.753 39.39 39.575 0 21.821-17.569 39.575-39.39 39.575Zm0-76.191c-20.157 0-36.616 16.459-36.616 36.801 0 20.342 16.459 36.801 36.616 36.801s36.616-16.459 36.616-36.801c0-20.342-16.274-36.801-36.616-36.801Z"/><path fill="#222" d="M241.887 192.88c-17.938 0-32.733-14.609-32.733-32.732 0-18.123 14.795-32.547 32.733-32.547 17.938 0 32.732 14.609 32.732 32.732 0 18.123-14.609 32.547-32.732 32.547Zm0-62.505c-16.459 0-29.959 13.314-29.959 29.958 0 16.643 13.315 29.958 29.959 29.958 16.643 0 29.958-13.684 29.958-30.143 0-16.459-13.5-29.773-29.958-29.773Z"/><path fill="#DADADA" d="m133.591 260.545-66.95 66.95 7.976 7.977 66.951-66.951-7.977-7.976Z"/><path fill="#222" d="M74.71 336.939c-.37 0-.74-.185-.924-.37l-7.952-7.951a1.452 1.452 0 0 1 0-2.035l66.944-66.944a1.45 1.45 0 0 1 2.034 0l7.952 7.952a1.45 1.45 0 0 1 0 2.034L75.82 336.569c-.37.185-.74.37-1.11.37Zm-6.102-9.431 6.103 6.103 64.909-64.91-6.102-6.103-64.91 64.91Z"/><path fill="#DADADA" d="m110.331 237.204-37.79 37.79 7.977 7.977 37.79-37.791-7.977-7.976Z"/><path fill="#222" d="M80.63 284.42c-.37 0-.74-.185-.925-.37l-7.952-7.952a1.413 1.413 0 0 1-.37-.925c0-.37.185-.74.37-.924l37.725-37.726c.185-.185.555-.37.925-.37s.739.185.924.37l7.952 7.952a1.45 1.45 0 0 1 0 2.034l-37.725 37.726c-.185.185-.555.185-.925.185Zm-6.103-9.432 6.102 6.103 35.876-35.876-6.102-6.103-35.876 35.876Z"/><path fill="#DADADA" d="m159.073 286.016-37.791 37.791 7.977 7.976 37.79-37.79-7.976-7.977Z"/><path fill="#222" d="M129.265 333.241a1.41 1.41 0 0 1-.924-.37l-7.952-7.952a1.45 1.45 0 0 1 0-2.034l37.725-37.726a1.45 1.45 0 0 1 2.034 0l7.952 7.952a1.45 1.45 0 0 1 0 2.034l-37.725 37.726c-.37.185-.74.37-1.11.37Zm-6.102-9.432 6.102 6.103 35.876-35.876-6.102-6.103-35.876 35.876Z"/></svg>