<svg xmlns="http://www.w3.org/2000/svg" width="400" height="401" fill="none" viewBox="0 0 400 401"><path fill="#444" d="M84.142 218.595c13.685-13.684 35.876-13.684 49.561 0l50.671 50.671c13.684 13.684 13.684 35.876 0 49.56L156.08 347.12c26.629-.554 53.444-11.28 74.156-31.992 41.239-41.239 42.903-106.704 3.513-145.909-39.389-39.204-104.669-37.725-146.093 3.514-20.712 20.712-31.438 47.712-31.993 74.156 0 .185 28.48-28.294 28.48-28.294Z"/><path fill="#222" d="M155.895 348.6c-.555 0-1.11-.37-1.295-.925-.185-.554-.185-1.109.37-1.479l28.294-28.294c13.13-13.13 13.13-34.397 0-47.527l-50.67-50.67c-6.288-6.288-14.795-9.801-23.856-9.801-9.062 0-17.383 3.513-23.856 9.801l-28.294 28.294c-.37.37-.925.555-1.48.37a1.391 1.391 0 0 1-.924-1.295c.555-28.109 12.02-54.738 32.362-75.081C128.34 130.2 194.73 128.72 234.49 168.48c19.233 19.232 29.589 45.307 28.849 73.231-.74 27.925-12.205 54.369-32.363 74.712-20.157 20.157-46.786 31.622-75.08 32.177Zm-47.157-141.655c9.801 0 18.863 3.699 25.705 10.726l50.67 50.67c14.24 14.24 14.24 37.356 0 51.41l-25.89 25.89c26.075-1.294 50.856-12.39 69.718-31.438 19.788-19.787 30.883-45.492 31.623-72.861.74-27.185-9.246-52.52-28.109-71.198-38.465-38.65-103.005-36.985-143.69 3.699-19.047 19.047-30.143 43.643-31.437 69.718l25.89-25.89c6.657-6.843 15.904-10.726 25.52-10.726Z"/><path fill="#222" d="M70.458 233.76h-.185c-.74-.185-1.295-.925-1.11-1.665 3.329-20.157 12.76-38.465 27.37-53.259a1.45 1.45 0 0 1 2.034 0 1.45 1.45 0 0 1 0 2.034c-14.24 14.24-23.486 32.178-26.63 51.595-.185.74-.924 1.295-1.48 1.295Z"/><path fill="#222" d="M97.457 181.24c-.37 0-.74-.185-.924-.37a1.45 1.45 0 0 1 0-2.034c36.8-36.801 95.423-38.28 130.744-3.144a1.45 1.45 0 0 1 0 2.034 1.45 1.45 0 0 1-2.034 0c-34.212-34.026-90.985-32.732-126.861 3.144-.185.185-.555.37-.925.37Z"/><path fill="#222" d="M223.024 306.807c-.37 0-.74-.185-.925-.37a1.45 1.45 0 0 1 0-2.034c35.876-35.877 37.171-92.65 3.144-126.676a1.452 1.452 0 0 1 0-2.035 1.452 1.452 0 0 1 2.034 0c35.136 35.137 33.842 93.759-3.144 130.745-.37.185-.74.37-1.109.37Z"/><path fill="#222" d="M171.798 333.621c-.739 0-1.294-.555-1.294-1.109-.185-.74.37-1.48 1.11-1.665 19.047-3.329 36.615-12.575 50.485-26.445a1.452 1.452 0 0 1 2.034 0c.555.555.555 1.48 0 2.035-14.239 14.424-32.362 23.67-51.965 27.184h-.37Z"/><path fill="#FF3158" d="M280.906 222.479c-6.103 6.103-12.205 11.651-18.678 16.829-21.821 17.568-46.232 30.513-71.567 38.65-1.664-3.144-3.698-6.103-6.287-8.692l-50.671-50.67c-2.589-2.589-5.363-4.624-8.322-6.103 8.322-25.335 21.267-49.746 38.835-71.752 5.178-6.288 10.726-12.575 16.644-18.493 46.417-46.417 107.258-68.424 166.435-66.204 2.22 59.177-19.972 120.203-66.389 166.435Z"/><path fill="#222" d="M190.661 279.437c-.555 0-.925-.185-1.294-.74-1.665-3.144-3.699-5.918-6.103-8.322l-50.67-50.67c-2.404-2.404-4.993-4.438-7.952-5.918-.555-.37-.925-.924-.74-1.664 8.507-26.26 21.637-50.485 39.205-72.122 5.363-6.473 10.911-12.76 16.643-18.493 44.753-44.753 105.779-68.978 167.545-66.574.74 0 1.295.555 1.295 1.294 2.404 61.766-21.822 122.793-66.574 167.545-5.918 5.918-12.39 11.651-18.863 17.014-21.637 17.383-45.862 30.513-71.937 38.835-.185-.185-.37-.185-.555-.185Zm-63.8-67.684c2.774 1.664 5.363 3.514 7.582 5.918l50.67 50.67c2.404 2.404 4.439 4.993 6.103 7.952 25.335-8.322 48.821-21.082 69.903-38.095 6.472-5.178 12.76-10.911 18.678-16.829 43.828-43.828 67.868-103.56 65.834-164.216-60.471-2.034-120.203 22.006-164.216 65.834-5.733 5.733-11.281 11.836-16.459 18.308-16.828 21.452-29.588 44.938-38.095 70.458Z"/><path fill="#222" d="M241.886 200.473c-21.821 0-39.389-17.754-39.389-39.575 0-21.822 17.753-39.575 39.389-39.575 21.637 0 39.39 17.753 39.39 39.575 0 21.821-17.568 39.575-39.39 39.575Zm0-76.191c-20.157 0-36.616 16.459-36.616 36.801 0 20.342 16.459 36.801 36.616 36.801s36.616-16.459 36.616-36.801c0-20.342-16.274-36.801-36.616-36.801Z"/><path fill="#F5F4F3" d="M245.585 203.431c21.55 0 39.02-17.469 39.02-39.02 0-21.55-17.47-39.019-39.02-39.019-21.55 0-39.02 17.469-39.02 39.019 0 21.551 17.47 39.02 39.02 39.02Z"/><path fill="#222" d="M241.886 200.473c-21.821 0-39.389-17.754-39.389-39.575 0-21.822 17.753-39.575 39.389-39.575 21.637 0 39.39 17.753 39.39 39.575 0 21.821-17.568 39.575-39.39 39.575Zm0-76.191c-20.157 0-36.616 16.459-36.616 36.801 0 20.342 16.459 36.801 36.616 36.801s36.616-16.459 36.616-36.801c0-20.342-16.274-36.801-36.616-36.801Z"/><path fill="#F5F4F3" d="m335.46 130.939-63.061-63.245-12.945 4.623 71.198 72.862 4.808-14.24Z"/><path fill="#222" d="M331.207 146.104c-.37 0-.74-.185-.925-.37l-72.307-72.307a1.45 1.45 0 0 1 0-2.034 1.45 1.45 0 0 1 2.034 0l72.307 72.307a1.45 1.45 0 0 1 0 2.034c-.555.185-.74.37-1.109.37ZM336.939 132.234c-.369 0-.739-.185-.924-.37L271.29 67.139a1.45 1.45 0 0 1 0-2.034 1.45 1.45 0 0 1 2.034 0l64.725 64.725a1.45 1.45 0 0 1 0 2.034c-.37.37-.74.37-1.11.37Z"/><path fill="#F5F4F3" d="M225.428 262.239 141.1 177.727l-6.102 12.76 78.039 77.485 12.391-5.733Z"/><path fill="#222" d="M213.592 270.375a1.41 1.41 0 0 1-.924-.369l-79.52-79.52a1.452 1.452 0 0 1 0-2.034 1.452 1.452 0 0 1 2.035 0l79.519 79.519c.555.555.555 1.48 0 2.035-.37.185-.74.369-1.11.369ZM226.907 264.088c-.37 0-.74-.185-.925-.37l-86.361-86.361a1.452 1.452 0 0 1 0-2.035 1.452 1.452 0 0 1 2.034 0l86.362 86.362a1.452 1.452 0 0 1 0 2.034c-.37.185-.74.37-1.11.37ZM241.886 200.473c-21.821 0-39.389-17.754-39.389-39.575 0-21.822 17.753-39.575 39.389-39.575 21.637 0 39.39 17.753 39.39 39.575 0 21.821-17.568 39.575-39.39 39.575Zm0-76.191c-20.157 0-36.616 16.459-36.616 36.801 0 20.342 16.459 36.801 36.616 36.801s36.616-16.459 36.616-36.801c0-20.342-16.274-36.801-36.616-36.801Z"/><path fill="#222" d="M241.886 200.473c-21.821 0-39.389-17.754-39.389-39.575 0-21.822 17.753-39.575 39.389-39.575 21.637 0 39.39 17.753 39.39 39.575 0 21.821-17.568 39.575-39.39 39.575Zm0-76.191c-20.157 0-36.616 16.459-36.616 36.801 0 20.342 16.459 36.801 36.616 36.801s36.616-16.459 36.616-36.801c0-20.342-16.274-36.801-36.616-36.801Z"/><path fill="#222" d="M241.886 193.63c-17.938 0-32.732-14.609-32.732-32.732 0-18.123 14.794-32.547 32.732-32.547s32.733 14.609 32.733 32.732c0 18.123-14.61 32.547-32.733 32.547Zm0-62.505c-16.458 0-29.958 13.314-29.958 29.958a29.834 29.834 0 0 0 29.958 29.958c16.644 0 29.959-13.684 29.959-30.143 0-16.459-13.5-29.773-29.959-29.773Z"/><path fill="#DADADA" d="m133.592 261.295-66.95 66.95 7.976 7.977 66.95-66.951-7.976-7.976Z"/><path fill="#222" d="M74.711 337.689c-.37 0-.74-.185-.925-.37l-7.951-7.951a1.452 1.452 0 0 1 0-2.035l66.944-66.944a1.45 1.45 0 0 1 2.034 0l7.952 7.952c.554.555.554 1.48 0 2.034l-66.944 66.944c-.37.185-.74.37-1.11.37Zm-6.103-9.431 6.103 6.103 64.91-64.91-6.103-6.103-64.91 64.91Z"/><path fill="#DADADA" d="m110.331 237.954-37.79 37.79 7.976 7.977 37.791-37.791-7.977-7.976Z"/><path fill="#222" d="M80.629 285.17c-.37 0-.74-.185-.925-.37l-7.952-7.952a1.414 1.414 0 0 1-.37-.925c0-.37.185-.74.37-.924l37.726-37.726c.184-.185.554-.37.924-.37s.74.185.925.37l7.952 7.952a1.45 1.45 0 0 1 0 2.034l-37.726 37.726c-.184.185-.554.185-.924.185Zm-6.103-9.432 6.103 6.103 35.876-35.876-6.103-6.103-35.876 35.876Z"/><path fill="#DADADA" d="m159.072 286.766-37.791 37.791 7.977 7.976 37.79-37.79-7.976-7.977Z"/><path fill="#222" d="M129.265 333.991c-.37 0-.74-.185-.925-.37l-7.952-7.952a1.452 1.452 0 0 1 0-2.034l37.726-37.726a1.45 1.45 0 0 1 2.034 0l7.952 7.952a1.45 1.45 0 0 1 0 2.034l-37.726 37.726c-.369.185-.739.37-1.109.37Zm-6.103-9.432 6.103 6.103 35.876-35.876-6.103-6.103-35.876 35.876Z"/></svg>