<svg xmlns="http://www.w3.org/2000/svg" width="400" height="400" fill="none" viewBox="0 0 400 400"><path fill="#444" d="m128.701 99.55-9.25-15.1h-89.65V299.45h281.05V99.55h-182.15Z"/><path fill="#222" d="M310.85 300.85H29.8c-.75 0-1.4-.6-1.4-1.4v-215c0-.75.6-1.4 1.4-1.4h89.7c.5 0 .95.25 1.2.65l8.85 14.45H310.9c.75 0 1.4.6 1.4 1.4V299.5c-.05.75-.7 1.35-1.45 1.35Zm-279.7-2.75h278.3V100.95H128.7c-.5 0-.95-.25-1.2-.65l-8.85-14.45h-87.5V298.1Z"/><path fill="#fff" d="m138.451 90.9-9.25-15.1h-89.65v215H320.6V90.9h-182.15Z"/><path fill="#222" d="M320.6 292.2H39.55c-.75 0-1.4-.6-1.4-1.4v-215c0-.75.6-1.4 1.4-1.4h89.7c.5 0 .95.25 1.2.65l8.85 14.45h181.35c.75 0 1.4.6 1.4 1.4v199.9c-.05.8-.7 1.4-1.45 1.4Zm-279.7-2.8h278.3V92.3H138.45c-.5 0-.95-.25-1.2-.65L128.4 77.2H40.9v212.2Z"/><path fill="#DADADA" d="M109.65 147.099c4.9-3.5 8.05-9.2 8.05-15.65 0-10.6-8.6-19.25-19.25-19.25s-19.25 8.6-19.25 19.25c0 6.45 3.2 12.15 8.05 15.65-12.3 3.7-21.1 13.95-21.1 30.45h64.5c0-16.45-8.75-26.7-21-30.45ZM192.75 147.099c4.9-3.5 8.05-9.2 8.05-15.65 0-10.6-8.6-19.25-19.25-19.25s-19.25 8.6-19.25 19.25c0 6.45 3.2 12.15 8.05 15.65-12.3 3.7-21.1 13.95-21.1 30.45h64.5c0-16.45-8.75-26.7-21-30.45ZM275.85 147.099c4.9-3.5 8.1-9.2 8.1-15.65 0-10.6-8.6-19.25-19.25-19.25s-19.25 8.6-19.25 19.25c0 6.45 3.2 12.15 8.05 15.65-12.3 3.7-21.1 13.95-21.1 30.45h64.5c0-16.45-8.75-26.7-21.05-30.45ZM130.051 193.399h-64.45v63.2h64.45v-63.2Z"/><path fill="#222" d="M126.2 262.85H60.55c-.75 0-1.4-.6-1.4-1.4v-63.2c0-.75.6-1.4 1.4-1.4h65.65c.75 0 1.4.6 1.4 1.4v63.2c0 .75-.65 1.4-1.4 1.4Zm-64.25-2.8h62.9v-60.4H61.9s0 60.4.05 60.4Z"/><path fill="#DADADA" d="M213.751 193.399h-64.45v63.2h64.45v-63.2Z"/><path fill="#222" d="M209.901 262.85h-65.65c-.75 0-1.4-.6-1.4-1.4v-63.2c0-.75.6-1.4 1.4-1.4h65.65c.75 0 1.4.6 1.4 1.4v63.2c0 .75-.6 1.4-1.4 1.4Zm-64.3-2.8h62.9v-60.4h-62.9v60.4Z"/><path fill="#DADADA" d="M296.9 193.399h-64.45v63.2h64.45v-63.2Z"/><path fill="#222" d="M293 262.85h-65.65c-.75 0-1.4-.6-1.4-1.4v-63.2c0-.75.6-1.4 1.4-1.4H293c.75 0 1.4.6 1.4 1.4v63.2c0 .75-.6 1.4-1.4 1.4Zm-64.25-2.8h62.9v-60.4h-62.9v60.4ZM127 181.649H59.75v-1.4c0-15.95 8.05-27.55 22.05-31.8l.65-.2.55.4a17.67 17.67 0 0 0 10.4 3.35c3.75 0 7.35-1.15 10.4-3.3l.55-.4.65.2c14 4.25 22 15.8 22 31.75v1.4Zm-64.45-2.8h61.65c-.45-13.7-7.45-23.6-19.4-27.5-3.4 2.25-7.3 3.45-11.4 3.45-4.1 0-8.05-1.2-11.45-3.45-11.95 3.85-18.95 13.8-19.4 27.5Z"/><path fill="#222" d="M93.4 154.799c-4.35 0-8.5-1.35-12-3.85-5.4-3.85-8.6-10.15-8.6-16.75 0-11.4 9.25-20.65 20.65-20.65 11.4 0 20.65 9.25 20.65 20.65 0 6.65-3.25 12.9-8.65 16.8-3.55 2.45-7.7 3.8-12.05 3.8Zm0-38.5c-9.85 0-17.85 8-17.85 17.85 0 5.75 2.8 11.15 7.45 14.5a17.67 17.67 0 0 0 10.4 3.35c3.75 0 7.35-1.15 10.4-3.3 4.7-3.35 7.45-8.75 7.45-14.5 0-9.9-8-17.9-17.85-17.9ZM210.1 181.649h-67.25v-1.4c0-15.95 8.05-27.55 22.05-31.8l.65-.2.55.4a17.67 17.67 0 0 0 10.4 3.35c3.75 0 7.35-1.15 10.4-3.3l.55-.4.65.2c14 4.25 22 15.8 22 31.75v1.4Zm-64.45-2.8h61.65c-.45-13.65-7.45-23.6-19.35-27.5-3.4 2.25-7.3 3.45-11.4 3.45-4.1 0-8.05-1.2-11.45-3.45-12 3.85-19 13.8-19.45 27.5Z"/><path fill="#222" d="M176.499 154.799c-4.35 0-8.5-1.35-12-3.85-5.4-3.85-8.6-10.15-8.6-16.75 0-11.4 9.25-20.65 20.65-20.65 11.4 0 20.65 9.25 20.65 20.65 0 6.65-3.25 12.9-8.65 16.8-3.55 2.45-7.7 3.8-12.05 3.8Zm0-38.5c-9.85 0-17.85 8-17.85 17.85 0 5.75 2.8 11.15 7.45 14.5a17.67 17.67 0 0 0 10.4 3.35c3.75 0 7.35-1.15 10.4-3.3 4.7-3.35 7.45-8.8 7.45-14.5 0-9.9-8-17.9-17.85-17.9ZM293.2 181.649h-67.25v-1.4c0-15.95 8.05-27.55 22.05-31.8l.65-.2.55.4a17.67 17.67 0 0 0 10.4 3.35c3.75 0 7.35-1.15 10.4-3.3l.55-.4.65.2c14 4.25 22 15.8 22 31.75v1.4Zm-64.45-2.8h61.65c-.45-13.7-7.45-23.6-19.4-27.5-3.4 2.25-7.35 3.45-11.4 3.45-4.05 0-8.05-1.2-11.45-3.45-11.95 3.85-18.95 13.8-19.4 27.5Z"/><path fill="#222" d="M259.6 154.799c-4.35 0-8.5-1.35-12-3.85-5.4-3.85-8.6-10.15-8.6-16.75 0-11.4 9.25-20.65 20.65-20.65 11.4 0 20.65 9.25 20.65 20.65 0 6.65-3.25 12.9-8.65 16.8-3.55 2.45-7.7 3.8-12.05 3.8Zm0-38.5c-9.85 0-17.85 8-17.85 17.85 0 5.75 2.8 11.15 7.45 14.5a17.67 17.67 0 0 0 10.4 3.35c3.75 0 7.35-1.15 10.4-3.3 4.65-3.35 7.45-8.8 7.45-14.5 0-9.9-8-17.9-17.85-17.9Z"/><path fill="#fff" d="M322.8 152.75c-33.3 0-60.25 27-60.25 60.25a60 60 0 0 0 5.4 24.9l-57.3 57.35v30.45l28.3-2.05 6-5.8 2-17.1h14.35v-8.45h10.6v-14.1h16.75l9.95-9.95c7.4 3.25 15.6 5.1 24.2 5.1 33.3 0 60.25-27 60.25-60.25s-26.95-60.35-60.25-60.35ZM340.25 216c-10.7 0-19.4-8.7-19.4-19.4s8.7-19.4 19.4-19.4 19.4 8.7 19.4 19.4-8.7 19.4-19.4 19.4Z"/><path fill="#FF3158" d="M322.8 152.75c-33.3 0-60.25 27-60.25 60.25a60 60 0 0 0 5.4 24.9l-57.3 57.35v30.45l28.3-2.05 6-5.8 2-17.1h14.35v-8.45h10.6v-14.1h16.75l9.95-9.95c7.4 3.25 15.6 5.1 24.2 5.1 33.3 0 60.25-27 60.25-60.25s-26.95-60.35-60.25-60.35ZM340.25 216c-10.7 0-19.4-8.7-19.4-19.4s8.7-19.4 19.4-19.4 19.4 8.7 19.4 19.4-8.7 19.4-19.4 19.4Z"/><path fill="#222" d="M340.251 217.399c-11.45 0-20.75-9.3-20.75-20.75s9.3-20.75 20.75-20.75 20.75 9.3 20.75 20.75-9.3 20.75-20.75 20.75Zm0-38.8c-9.9 0-18 8.05-18 18s8.1 18 18 18 18-8.05 18-18-8.1-18-18-18ZM210.651 321c-.35 0-.7-.15-1-.4-.55-.55-.55-1.4 0-1.95l59.3-59.3c.55-.55 1.4-.55 1.95 0s.55 1.4 0 1.95l-59.3 59.3c-.25.3-.6.4-.95.4ZM210.651 310.85c-.35 0-.7-.15-1-.4-.55-.55-.55-1.4 0-1.95l54.1-54.05c.55-.55 1.4-.55 1.95 0s.55 1.4 0 1.95l-54.1 54.05c-.25.25-.6.4-.95.4Z"/><path fill="#222" d="M210.651 327.1c-.35 0-.7-.15-.95-.35-.3-.25-.45-.65-.45-1V295.3c0-.35.15-.7.4-1l56.6-56.6c-3.4-7.8-5.15-16.05-5.15-24.6 0-34 27.65-61.65 61.65-61.65s61.65 27.65 61.65 61.65-27.65 61.65-61.65 61.65c-8.25 0-16.3-1.6-23.9-4.8l-9.3 9.3c-.25.25-.6.4-1 .4h-15.35v12.7c0 .75-.6 1.4-1.4 1.4h-9.2v7.1c0 .75-.6 1.4-1.4 1.4h-13.15l-1.9 15.9c-.05.3-.2.6-.4.85l-6 5.8c-.25.25-.55.35-.85.4l-28.3 2.05c.1-.15.05-.15.05-.15Zm1.35-31.3v28.4l26.3-1.9 5.25-5.1 1.95-16.6c.1-.7.7-1.25 1.4-1.25h12.95v-7.1c0-.75.6-1.4 1.4-1.4h9.25v-12.7c0-.75.6-1.4 1.4-1.4h16.15l9.55-9.55c.4-.4 1-.5 1.55-.3 7.5 3.3 15.45 4.95 23.65 4.95 32.45 0 58.9-26.4 58.9-58.9s-26.4-58.9-58.9-58.9-58.9 26.5-58.9 58.95c0 8.45 1.75 16.65 5.25 24.35.25.5.1 1.15-.3 1.55l-56.85 56.9Z"/></svg>