<svg xmlns="http://www.w3.org/2000/svg" width="400" height="401" fill="none" viewBox="0 0 400 401"><path fill="#444" d="m128.7 100.045-9.25-15.1H29.8V299.945h281.05v-199.9H128.7Z"/><path fill="#222" d="M310.85 301.345H29.8c-.75 0-1.4-.6-1.4-1.4v-215c0-.75.6-1.4 1.4-1.4h89.7c.5 0 .95.25 1.2.65l8.85 14.45H310.9c.75 0 1.4.6 1.4 1.4v199.95c-.05.75-.7 1.35-1.45 1.35Zm-279.7-2.75h278.3v-197.15H128.7c-.5 0-.95-.25-1.2-.65l-8.85-14.45h-87.5v212.25Z"/><path fill="#fff" d="m138.45 91.395-9.25-15.1H39.55v215H320.6v-199.9H138.45Z"/><path fill="#222" d="M320.6 292.695H39.55c-.75 0-1.4-.6-1.4-1.4v-215c0-.75.6-1.4 1.4-1.4h89.7c.5 0 .95.25 1.2.65l8.85 14.45h181.35c.75 0 1.4.6 1.4 1.4v199.9c-.05.8-.7 1.4-1.45 1.4Zm-279.7-2.8h278.3v-197.1H138.45c-.5 0-.95-.25-1.2-.65l-8.85-14.45H40.9v212.2Z"/><path fill="#DADADA" d="M109.65 147.595c4.9-3.5 8.05-9.2 8.05-15.65 0-10.6-8.6-19.25-19.25-19.25s-19.25 8.6-19.25 19.25c0 6.45 3.2 12.15 8.05 15.65-12.3 3.7-21.1 13.95-21.1 30.45h64.5c0-16.45-8.75-26.7-21-30.45ZM192.75 147.595c4.9-3.5 8.05-9.2 8.05-15.65 0-10.6-8.6-19.25-19.25-19.25s-19.25 8.6-19.25 19.25c0 6.45 3.2 12.15 8.05 15.65-12.3 3.7-21.1 13.95-21.1 30.45h64.5c0-16.45-8.75-26.7-21-30.45ZM275.85 147.595c4.9-3.5 8.1-9.2 8.1-15.65 0-10.6-8.6-19.25-19.25-19.25s-19.25 8.6-19.25 19.25c0 6.45 3.2 12.15 8.05 15.65-12.3 3.7-21.1 13.95-21.1 30.45h64.5c0-16.45-8.75-26.7-21.05-30.45ZM130.05 193.896H65.6v63.2h64.45v-63.2Z"/><path fill="#222" d="M126.2 263.345H60.55c-.75 0-1.4-.6-1.4-1.4v-63.2c0-.75.6-1.4 1.4-1.4h65.65c.75 0 1.4.6 1.4 1.4v63.2c0 .75-.65 1.4-1.4 1.4Zm-64.25-2.8h62.9v-60.4H61.9s0 60.4.05 60.4Z"/><path fill="#DADADA" d="M213.75 193.896H149.3v63.2h64.45v-63.2Z"/><path fill="#222" d="M209.9 263.345h-65.65c-.75 0-1.4-.6-1.4-1.4v-63.2c0-.75.6-1.4 1.4-1.4h65.65c.75 0 1.4.6 1.4 1.4v63.2c0 .75-.6 1.4-1.4 1.4Zm-64.3-2.8h62.9v-60.4h-62.9v60.4Z"/><path fill="#DADADA" d="M296.9 193.896h-64.45v63.2h64.45v-63.2Z"/><path fill="#222" d="M293 263.345h-65.65c-.75 0-1.4-.6-1.4-1.4v-63.2c0-.75.6-1.4 1.4-1.4H293c.75 0 1.4.6 1.4 1.4v63.2c0 .75-.6 1.4-1.4 1.4Zm-64.25-2.8h62.9v-60.4h-62.9v60.4ZM117.1 155.745c-2.8-2.55-6.05-4.55-9.7-6-.5-.2-1-.35-1.5-.55-.5-.15-1.05-.35-1.6-.5-.5.4-1 .75-1.5 1.05-.6.35-1.2.7-1.85 1 .7.15 1.4.3 2.1.5.6.15 1.2.35 1.75.5 3.95 1.3 7.5 3.3 10.4 6 5.6 5.15 8.7 12.6 8.95 21.55h-61.6c.3-8.95 3.35-16.4 8.95-21.55 2.95-2.7 6.45-4.7 10.45-6 .6-.2 1.15-.35 1.75-.5.7-.2 1.4-.35 2.1-.5-.65-.3-1.25-.65-1.85-1-.5-.3-1.05-.7-1.5-1.05-.55.15-1.1.3-1.6.5-.5.15-1 .35-1.5.55-3.65 1.4-6.95 3.4-9.75 6-6.45 5.95-9.9 14.6-9.9 25v1.4H127v-1.4c0-10.4-3.45-19.05-9.9-25Z"/><path fill="#fff" d="M93.4 115.396c-10.6 0-19.25 8.6-19.25 19.25 0 5.85 2.6 11.05 6.7 14.6l1.35 1.05c.5.35 1 .7 1.55 1 2.85 1.65 6.15 2.6 9.7 2.6 3.5 0 6.8-.95 9.65-2.6.5-.3 1.05-.65 1.55-1l1.35-1.05c4.1-3.5 6.7-8.75 6.7-14.6-.05-10.601-8.65-19.25-19.3-19.25Zm10.95 33.35c-.5.4-1 .75-1.5 1.05-.6.35-1.2.7-1.85 1-2.3 1.1-4.85 1.7-7.55 1.7s-5.3-.6-7.6-1.7c-.65-.3-1.25-.65-1.85-1-.5-.3-1.05-.7-1.5-1.05a17.77 17.77 0 0 1-6.9-14.1c0-9.851 8-17.85 17.85-17.85 9.85 0 17.85 7.999 17.85 17.85-.05 5.75-2.75 10.85-6.95 14.1Z"/><path fill="#222" d="M93.4 114.045c-11.4 0-20.65 9.25-20.65 20.65 0 5.95 2.55 11.35 6.6 15.1l1.2 1.05c.45.35.9.65 1.35 1 3.3 2.2 7.2 3.5 11.45 3.5 4.2 0 8.15-1.25 11.4-3.45.45-.3.9-.65 1.35-1 .4-.35.85-.7 1.25-1.05 4.05-3.75 6.6-9.15 6.6-15.15.1-11.4-9.15-20.65-20.55-20.65Zm10.95 34.7c-.5.4-1 .75-1.5 1.05-.6.35-1.2.7-1.85 1-2.3 1.1-4.85 1.7-7.55 1.7s-5.3-.6-7.6-1.7c-.65-.3-1.25-.65-1.85-1-.5-.3-1.05-.7-1.5-1.05a17.77 17.77 0 0 1-6.9-14.1c0-9.85 8-17.85 17.85-17.85 9.85 0 17.85 8 17.85 17.85-.05 5.75-2.75 10.85-6.95 14.1ZM200.2 155.745c-2.8-2.55-6.05-4.55-9.7-6-.5-.2-.95-.35-1.45-.55-.55-.15-1.05-.35-1.6-.5-.5.4-1 .75-1.5 1.05-.6.35-1.2.7-1.85 1 .7.15 1.4.3 2.1.5.6.15 1.2.35 1.75.5 3.95 1.3 7.5 3.3 10.4 6 5.6 5.15 8.7 12.6 8.95 21.55h-61.65c.3-8.95 3.35-16.4 8.95-21.55 2.95-2.7 6.45-4.7 10.45-6 .6-.2 1.15-.35 1.75-.5.7-.2 1.4-.35 2.1-.5-.65-.3-1.25-.65-1.85-1-.5-.3-1.05-.7-1.5-1.05-.55.15-1.1.3-1.6.5-.5.15-1 .35-1.5.55-3.65 1.4-6.95 3.4-9.75 6-6.45 5.95-9.9 14.6-9.9 25v1.4h67.25v-1.4c.05-10.4-3.35-19.05-9.85-25Z"/><path fill="#fff" d="M176.5 115.396c-10.6 0-19.25 8.6-19.25 19.25 0 5.85 2.6 11.05 6.7 14.6l1.35 1.05c.5.35 1 .7 1.55 1 2.85 1.65 6.15 2.6 9.7 2.6 3.5 0 6.8-.95 9.65-2.6.55-.3 1.05-.65 1.55-1l1.35-1.05c4.1-3.5 6.7-8.75 6.7-14.6-.05-10.601-8.65-19.25-19.3-19.25Zm10.95 33.35c-.5.4-1 .75-1.5 1.05-.6.35-1.2.7-1.85 1-2.3 1.1-4.85 1.7-7.55 1.7s-5.3-.6-7.6-1.7c-.65-.3-1.25-.65-1.85-1-.5-.3-1.05-.7-1.5-1.05a17.77 17.77 0 0 1-6.9-14.1c0-9.851 8-17.85 17.85-17.85 9.85 0 17.85 7.999 17.85 17.85-.05 5.75-2.75 10.85-6.95 14.1Z"/><path fill="#222" d="M176.5 114.045c-11.4 0-20.65 9.25-20.65 20.65 0 5.95 2.55 11.35 6.6 15.1l1.2 1.05c.45.35.9.65 1.35 1 3.3 2.2 7.2 3.5 11.45 3.5 4.2 0 8.15-1.25 11.4-3.45.45-.3.9-.65 1.35-1 .4-.35.85-.7 1.2-1.05 4.05-3.75 6.6-9.15 6.6-15.15.15-11.4-9.1-20.65-20.5-20.65Zm10.95 34.7c-.5.4-1 .75-1.5 1.05-.6.35-1.2.7-1.85 1-2.3 1.1-4.85 1.7-7.55 1.7s-5.3-.6-7.6-1.7c-.65-.3-1.25-.65-1.85-1-.5-.3-1.05-.7-1.5-1.05a17.77 17.77 0 0 1-6.9-14.1c0-9.85 8-17.85 17.85-17.85 9.85 0 17.85 8 17.85 17.85-.05 5.75-2.75 10.85-6.95 14.1ZM283.3 155.745c-2.8-2.55-6.05-4.55-9.7-6-.5-.2-1-.35-1.5-.55-.55-.15-1.05-.35-1.6-.5-.5.4-1 .75-1.5 1.05-.6.35-1.2.7-1.85 1 .7.15 1.4.3 2.1.5.6.15 1.2.35 1.75.5 3.95 1.3 7.45 3.3 10.4 6 5.6 5.15 8.7 12.6 8.95 21.55h-61.6c.3-8.95 3.35-16.4 8.95-21.55 2.95-2.7 6.45-4.7 10.45-6 .6-.2 1.15-.35 1.75-.5.7-.2 1.4-.35 2.1-.5-.65-.3-1.25-.65-1.85-1-.55-.3-1.05-.7-1.5-1.05-.55.15-1.1.3-1.6.5-.5.15-1 .35-1.5.55-3.65 1.4-6.95 3.4-9.75 6-6.45 5.95-9.9 14.6-9.9 25v1.4h67.25v-1.4c.05-10.4-3.35-19.05-9.85-25Z"/><path fill="#fff" d="M259.6 115.396c-10.6 0-19.25 8.6-19.25 19.25 0 5.85 2.6 11.05 6.7 14.6l1.35 1.05c.5.35 1 .7 1.55 1 2.85 1.65 6.15 2.6 9.65 2.6s6.8-.95 9.65-2.6c.5-.3 1.05-.65 1.55-1l1.35-1.05c4.1-3.5 6.7-8.75 6.7-14.6 0-10.601-8.6-19.25-19.25-19.25Zm10.95 33.35c-.5.4-1 .75-1.5 1.05-.6.35-1.2.7-1.85 1-2.3 1.1-4.85 1.7-7.55 1.7s-5.3-.6-7.6-1.7c-.65-.3-1.25-.65-1.85-1-.55-.3-1.05-.7-1.5-1.05a17.77 17.77 0 0 1-6.9-14.1c0-9.851 8-17.85 17.85-17.85 9.85 0 17.85 7.999 17.85 17.85-.05 5.75-2.75 10.85-6.95 14.1Z"/><path fill="#222" d="M259.6 114.045c-11.4 0-20.65 9.25-20.65 20.65 0 5.95 2.55 11.35 6.6 15.1l1.2 1.05c.45.35.9.65 1.35 1 3.25 2.2 7.2 3.5 11.45 3.5 4.25 0 8.15-1.25 11.45-3.45.45-.3.9-.65 1.35-1 .4-.35.85-.7 1.25-1.05 4.05-3.75 6.6-9.15 6.6-15.15.05-11.4-9.2-20.65-20.6-20.65Zm10.95 34.7c-.5.4-1 .75-1.5 1.05-.6.35-1.2.7-1.85 1-2.3 1.1-4.85 1.7-7.55 1.7s-5.3-.6-7.6-1.7c-.65-.3-1.25-.65-1.85-1-.55-.3-1.05-.7-1.5-1.05a17.77 17.77 0 0 1-6.9-14.1c0-9.85 8-17.85 17.85-17.85 9.85 0 17.85 8 17.85 17.85-.05 5.75-2.75 10.85-6.95 14.1Z"/><path fill="#fff" d="M322.8 153.245c-33.3 0-60.25 27-60.25 60.25a60 60 0 0 0 5.4 24.9l-57.3 57.35v30.45l28.3-2.05 6-5.8 2-17.1h14.35v-8.45h10.6v-14.1h16.75l9.95-9.95c7.4 3.25 15.6 5.1 24.2 5.1 33.3 0 60.25-27 60.25-60.25s-26.95-60.35-60.25-60.35Zm17.45 63.25c-10.7 0-19.4-8.7-19.4-19.4s8.7-19.4 19.4-19.4 19.4 8.7 19.4 19.4-8.7 19.4-19.4 19.4Z"/><path fill="#FF3158" d="M322.8 153.245c-33.3 0-60.25 27-60.25 60.25a60 60 0 0 0 5.4 24.9l-57.3 57.35v30.45l28.3-2.05 6-5.8 2-17.1h14.35v-8.45h10.6v-14.1h16.75l9.95-9.95c7.4 3.25 15.6 5.1 24.2 5.1 33.3 0 60.25-27 60.25-60.25s-26.95-60.35-60.25-60.35Zm17.45 63.25c-10.7 0-19.4-8.7-19.4-19.4s8.7-19.4 19.4-19.4 19.4 8.7 19.4 19.4-8.7 19.4-19.4 19.4Z"/><path fill="#222" d="M340.25 217.896c-11.45 0-20.75-9.3-20.75-20.75s9.3-20.75 20.75-20.75 20.75 9.3 20.75 20.75-9.3 20.75-20.75 20.75Zm0-38.8c-9.9 0-18 8.05-18 18s8.1 18 18 18 18-8.05 18-18-8.1-18-18-18ZM210.65 321.495c-.35 0-.7-.15-1-.4-.55-.55-.55-1.4 0-1.95l59.3-59.3c.55-.55 1.4-.55 1.95 0s.55 1.4 0 1.95l-59.3 59.3c-.25.3-.6.4-.95.4ZM210.65 311.345c-.35 0-.7-.15-1-.4-.55-.55-.55-1.4 0-1.95l54.1-54.05c.55-.55 1.4-.55 1.95 0s.55 1.4 0 1.95l-54.1 54.05c-.25.25-.6.4-.95.4Z"/><path fill="#222" d="M210.65 327.595c-.35 0-.7-.15-.95-.35-.3-.25-.45-.65-.45-1v-30.45c0-.35.15-.7.4-1l56.6-56.6c-3.4-7.8-5.15-16.05-5.15-24.6 0-34 27.65-61.65 61.65-61.65s61.65 27.65 61.65 61.65-27.65 61.65-61.65 61.65c-8.25 0-16.3-1.6-23.9-4.8l-9.3 9.3c-.25.25-.6.4-1 .4H273.2v12.7c0 .75-.6 1.4-1.4 1.4h-9.2v7.1c0 .75-.6 1.4-1.4 1.4h-13.15l-1.9 15.9c-.05.3-.2.6-.4.85l-6 5.8c-.25.25-.55.35-.85.4l-28.3 2.05c.1-.15.05-.15.05-.15Zm1.35-31.3v28.4l26.3-1.9 5.25-5.1 1.95-16.6c.1-.7.7-1.25 1.4-1.25h12.95v-7.1c0-.75.6-1.4 1.4-1.4h9.25v-12.7c0-.75.6-1.4 1.4-1.4h16.15l9.55-9.55c.4-.4 1-.5 1.55-.3 7.5 3.3 15.45 4.95 23.65 4.95 32.45 0 58.9-26.4 58.9-58.9s-26.4-58.9-58.9-58.9-58.9 26.5-58.9 58.95c0 8.45 1.75 16.65 5.25 24.35.25.5.1 1.15-.3 1.55l-56.85 56.9Z"/></svg>