<svg xmlns="http://www.w3.org/2000/svg" width="400" height="401" fill="none" viewBox="0 0 400 401"><path fill="#222" d="M246.935 61.935c-54.565 0-98.8 44.235-98.8 98.8a98.39 98.39 0 0 0 8.845 40.85l-93.91 93.92v49.94l46.355-3.325 9.81-9.545 3.32-28.055H146.1v-13.875h17.38V267.52h27.455l16.31-16.31a98.48 98.48 0 0 0 39.695 8.32c54.565 0 98.8-44.235 98.8-98.8s-44.235-98.8-98.8-98.8l-.005.005Z"/><path fill="#fff" d="M242.65 56.05c-54.565 0-98.8 44.235-98.8 98.8a98.39 98.39 0 0 0 8.845 40.85l-93.91 93.92v49.94l46.355-3.325 9.81-9.545 3.32-28.055h23.545V284.76h17.38v-23.125h27.455l16.31-16.31a98.48 98.48 0 0 0 39.695 8.32c54.565 0 98.8-44.235 98.8-98.8s-44.235-98.8-98.8-98.8l-.005.005Zm28.59 103.675c-17.55 0-31.78-14.23-31.78-31.78s14.23-31.78 31.78-31.78 31.78 14.23 31.78 31.78-14.23 31.78-31.78 31.78Z"/><path fill="#FF3158" d="M242.65 56.05c-54.565 0-98.8 44.235-98.8 98.8a98.39 98.39 0 0 0 8.845 40.85l-93.91 93.92v49.94l46.355-3.325 9.81-9.545 3.32-28.055h23.545V284.76h17.38v-23.125h27.455l16.31-16.31a98.48 98.48 0 0 0 39.695 8.32c54.565 0 98.8-44.235 98.8-98.8s-44.235-98.8-98.8-98.8l-.005.005Zm28.59 103.675c-17.55 0-31.78-14.23-31.78-31.78s14.23-31.78 31.78-31.78 31.78 14.23 31.78 31.78-14.23 31.78-31.78 31.78Z"/><path fill="#fff" d="M271.24 159.724c17.552 0 31.78-14.228 31.78-31.78s-14.228-31.78-31.78-31.78-31.78 14.228-31.78 31.78 14.228 31.78 31.78 31.78Z"/><path fill="#222" d="M271.24 161.114c-18.29 0-33.17-14.88-33.17-33.17s14.88-33.17 33.17-33.17 33.17 14.88 33.17 33.17-14.88 33.17-33.17 33.17Zm0-63.56c-16.76 0-30.39 13.635-30.39 30.39 0 16.755 13.635 30.39 30.39 30.39 16.755 0 30.39-13.635 30.39-30.39 0-16.755-13.635-30.39-30.39-30.39ZM58.78 331.015c-.355 0-.71-.135-.98-.405-.54-.54-.54-1.42 0-1.965l97.19-97.19c.54-.54 1.42-.54 1.965 0 .54.54.54 1.42 0 1.965l-97.19 97.19c-.27.27-.625.405-.98.405h-.005ZM58.78 314.31c-.355 0-.71-.135-.98-.405-.54-.54-.54-1.42 0-1.965l88.64-88.64c.54-.54 1.42-.54 1.965 0 .54.54.54 1.42 0 1.965l-88.64 88.64c-.27.27-.625.405-.98.405h-.005Z"/><path fill="#222" d="M58.785 340.95a1.378 1.378 0 0 1-1.385-1.385v-49.94c0-.37.145-.72.405-.98l93.23-93.24c-5.69-12.835-8.575-26.47-8.575-40.545 0-55.245 44.945-100.19 100.19-100.19s100.19 44.945 100.19 100.19-44.945 100.19-100.19 100.19c-13.645 0-26.885-2.71-39.38-8.06l-15.64 15.64a1.39 1.39 0 0 1-.98.405h-26.065v21.735c0 .765-.62 1.39-1.39 1.39h-15.99v12.485c0 .765-.62 1.39-1.39 1.39h-22.31l-3.175 26.83c-.04.315-.185.61-.41.83l-9.81 9.545c-.235.23-.54.365-.87.39l-46.355 3.325h-.1v-.005Zm1.39-50.755v47.875l44.365-3.18 9.095-8.845 3.265-27.565a1.39 1.39 0 0 1 1.38-1.225h22.155V284.77c0-.765.62-1.39 1.39-1.39h15.99v-21.735c0-.765.62-1.39 1.39-1.39h26.875l15.9-15.9a1.388 1.388 0 0 1 1.54-.29c12.395 5.445 25.56 8.205 39.135 8.205 53.715 0 97.415-43.7 97.415-97.415s-43.7-97.415-97.415-97.415-97.415 43.7-97.415 97.415c0 14 2.935 27.55 8.72 40.275.24.525.125 1.15-.28 1.555l-93.505 93.51Z"/></svg>