<svg xmlns="http://www.w3.org/2000/svg" width="400" height="400" fill="none" viewBox="0 0 400 400"><path fill="#DADADA" d="m59.725 277.97 217.62-59.205V66.99L59.725 126.2v151.77Z"/><path fill="#fff" d="M335.904 344.585 201.859 321.28V189.215l134.045 23.31v132.06Z"/><path fill="#DADADA" d="m342.269 353.23-129.855-22.58V202.715l129.855 22.58V353.23Z"/><path fill="#222" d="M335.904 345.97c-.08 0-.16-.005-.235-.02l-134.045-23.305a1.38 1.38 0 0 1-1.145-1.365V189.215c0-.41.18-.795.495-1.06a1.381 1.381 0 0 1 1.13-.305l134.045 23.305a1.38 1.38 0 0 1 1.145 1.365v132.06c0 .41-.18.795-.495 1.06-.25.21-.57.325-.89.325l-.005.005Zm-132.66-25.855 131.275 22.825V213.685L203.244 190.86v129.255Z"/><path fill="#fff" d="m335.903 212.524-134.045-23.31v-9.44l134.045 23.305v9.445Z"/><path fill="#222" d="M335.904 213.905c-.08 0-.16-.005-.235-.02L201.624 190.58a1.38 1.38 0 0 1-1.145-1.365v-9.44c0-.41.18-.795.495-1.06a1.381 1.381 0 0 1 1.13-.305l134.045 23.305a1.38 1.38 0 0 1 1.145 1.365v9.44c0 .41-.18.795-.495 1.06-.25.21-.57.325-.89.325h-.005Zm-132.66-25.855 131.275 22.825v-6.63L203.244 181.42v6.63ZM274.84 259.85c-.06 0-.12 0-.18-.005a2.776 2.776 0 0 1-1.955-1l-15.67-18.975-22.72 17.85a2.766 2.766 0 1 1-3.42-4.35l24.845-19.515a2.77 2.77 0 0 1 3.845.415l15.52 18.795 28.17-26.185a2.766 2.766 0 0 1 3.91.145 2.772 2.772 0 0 1-.145 3.915l-30.32 28.185c-.515.48-1.19.74-1.885.74l.005-.015Z"/><path fill="#222" d="M305.155 250.855a2.77 2.77 0 0 1-2.77-2.77v-19.19a2.77 2.77 0 1 1 5.54 0v19.19a2.77 2.77 0 0 1-2.77 2.77Z"/><path fill="#222" d="M284.469 232.01a2.768 2.768 0 0 1-.045-5.535l20.685-.345h.045a2.769 2.769 0 0 1 2.766 2.72 2.77 2.77 0 0 1-2.72 2.815l-20.685.345h-.046Z"/><path fill="#444" d="m243.189 311.31-17.01-2.96v-37.22l17.01 2.96v37.22Z"/><path fill="#222" d="M243.189 312.69c-.08 0-.16-.005-.235-.02l-17.015-2.96a1.38 1.38 0 0 1-1.145-1.365v-37.22c0-.41.18-.795.495-1.06a1.381 1.381 0 0 1 1.13-.305l17.015 2.96a1.38 1.38 0 0 1 1.145 1.365v37.22c0 .41-.18.795-.495 1.06-.25.21-.57.325-.89.325h-.005Zm-15.63-5.505 14.245 2.475v-34.41l-14.245-2.475v34.41Z"/><path fill="#444" d="m262.009 282.369 15.375 2.675v30.525l-15.375-2.675v-30.525Z"/><path fill="#222" d="M277.389 316.954c-.08 0-.16-.005-.235-.02l-15.38-2.675a1.38 1.38 0 0 1-1.145-1.365v-30.525c0-.41.18-.795.495-1.06a1.381 1.381 0 0 1 1.13-.305l15.38 2.675a1.381 1.381 0 0 1 1.145 1.366v30.524c0 .41-.18.795-.495 1.06-.25.21-.57.325-.89.325h-.005Zm-13.995-5.225 12.61 2.195v-27.715l-12.61-2.194v27.714Z"/><path fill="#444" d="m296.204 264.93 15.38 2.675v53.91l-15.38-2.675v-53.91Z"/><path fill="#222" d="M311.584 322.9c-.08 0-.16-.005-.235-.02l-15.38-2.675a1.38 1.38 0 0 1-1.145-1.365v-53.91c0-.41.18-.795.495-1.06a1.381 1.381 0 0 1 1.13-.305l15.38 2.675a1.38 1.38 0 0 1 1.145 1.365v53.91c0 .41-.18.795-.495 1.06-.25.21-.57.325-.89.325h-.005Zm-13.995-5.225 12.61 2.195v-51.1l-12.61-2.195v51.1Z"/><path fill="#444" d="m137.25 193.41 30.15 64.48 28.66 3.255-31.585-65.59-27.225-2.145Z"/><path fill="#222" d="M196.059 262.525c-.05 0-.105 0-.155-.01l-28.66-3.25a1.391 1.391 0 0 1-1.1-.79l-30.15-64.48a1.383 1.383 0 0 1 1.36-1.965l27.225 2.145c.49.04.925.335 1.14.78l31.585 65.585c.22.455.175.99-.12 1.4-.26.37-.685.585-1.13.585h.005Zm-27.735-5.92 25.4 2.88-30.15-62.61-24.065-1.895 28.815 61.625Z"/><path fill="#FF3158" d="m116.185 191.28 134.75 12.91-54.68-153.87-96.74 94.055 16.67 46.905Z"/><path fill="#222" d="M250.934 205.575c-.045 0-.09 0-.13-.005l-134.75-12.915c-.535-.05-.99-.41-1.17-.915l-16.67-46.905a1.38 1.38 0 0 1 .34-1.455l96.735-94.055c.34-.33.82-.46 1.28-.355.46.105.83.44.99.885l54.68 153.875c.16.445.08.94-.215 1.315-.265.34-.665.535-1.09.535v-.005Zm-133.74-15.59 131.71 12.62-53.23-149.79-94.555 91.935 16.075 45.235Z"/><path fill="#444" d="M239.659 122.6c-1.14 0-2.205-.71-2.61-1.84a2.769 2.769 0 0 1 1.68-3.535l47.04-16.715a2.769 2.769 0 0 1 1.855 5.215l-47.04 16.715c-.305.11-.62.16-.925.16ZM248.724 148.115a2.767 2.767 0 0 1-2.76-2.57 2.766 2.766 0 0 1 2.56-2.96l41.795-3.02a2.766 2.766 0 1 1 .4 5.52l-41.795 3.02c-.07 0-.135.005-.2.005v.005ZM230.595 97.085a2.767 2.767 0 0 1-1.59-5.035l34.325-24.03a2.767 2.767 0 1 1 3.175 4.535l-34.325 24.03c-.485.34-1.035.5-1.585.5ZM221.524 71.57c-.64 0-1.28-.22-1.8-.67a2.766 2.766 0 0 1-.295-3.905l17.565-20.465a2.766 2.766 0 0 1 3.905-.295 2.766 2.766 0 0 1 .295 3.905l-17.565 20.465c-.545.64-1.32.965-2.1.965h-.005ZM284.339 178.42c-.165 0-.33-.015-.495-.045l-26.54-4.79a2.769 2.769 0 0 1-2.235-3.215 2.775 2.775 0 0 1 3.215-2.235l26.54 4.79a2.769 2.769 0 0 1 2.235 3.215 2.762 2.762 0 0 1-2.72 2.275v.005Z"/><path fill="#FF3158" d="m117.278 190.89-24.32 8.645c-12.95 4.605-27.185-2.165-31.785-15.12-4.605-12.95 2.165-27.185 15.12-31.785l24.32-8.645 16.67 46.905h-.005Z"/><path fill="#222" d="M84.604 202.37c-3.85 0-7.685-.855-11.265-2.56-6.335-3.015-11.12-8.315-13.47-14.93-2.35-6.615-1.985-13.745 1.03-20.08 3.015-6.34 8.315-11.12 14.93-13.47l24.32-8.645a1.37 1.37 0 0 1 1.06.055c.33.16.585.44.71.785l16.67 46.905a1.387 1.387 0 0 1-.84 1.77l-24.32 8.645a26.34 26.34 0 0 1-8.815 1.53l-.01-.005Zm15.165-56.615-23.015 8.18c-5.915 2.105-10.66 6.38-13.355 12.05-2.695 5.67-3.025 12.05-.92 17.965a23.352 23.352 0 0 0 12.05 13.355c5.67 2.695 12.05 3.025 17.965.92l23.02-8.18-15.74-44.295-.005.005ZM176.145 70.685l-2.61.928 46.26 130.201 2.61-.927-46.26-130.202Z"/><path fill="#fff" d="m174.84 71.135 46.27 130.2 29.825 2.855-54.68-153.87-21.415 20.815Z"/><path fill="#222" d="M250.935 205.575c-.045 0-.09 0-.13-.005l-29.825-2.86c-.535-.05-.99-.41-1.17-.915L173.545 71.6a1.38 1.38 0 0 1 .34-1.455l21.415-20.82c.34-.33.82-.46 1.28-.355.46.105.83.44.99.885l54.68 153.875c.16.445.08.94-.215 1.315-.265.34-.665.535-1.09.535l-.01-.005Zm-28.82-5.535 26.785 2.565-53.225-149.79-19.23 18.695 45.675 128.53h-.005Z"/><path fill="#fff" d="M201.86 293.76h-4.76v-2.77h4.76v2.77Zm-12.14 0h-7.38v-2.77h7.38v2.77Zm-14.765 0h-7.38v-2.77h7.38v2.77Zm-14.765 0h-7.38v-2.77h7.38v2.77Zm-14.765 0h-7.38v-2.77h7.38v2.77Zm-14.765 0h-7.38v-2.77h7.38v2.77Zm-14.765 0h-6.285c-.385 0-.77-.005-1.15-.025l.11-2.765c.345.015.695.02 1.045.02h6.285v2.77h-.005Zm-15.065-1.44c-2.56-.885-4.875-2.13-6.875-3.705l1.71-2.175c1.755 1.38 3.8 2.48 6.065 3.26l-.9 2.615v.005Zm-11.97-9.76c-1.155-2.24-1.745-4.625-1.745-7.08v-.675h2.77v.675c0 2.01.485 3.96 1.435 5.81l-2.46 1.27Zm1.025-15.135h-2.77v-7.38h2.77v7.38Zm0-14.765h-2.77v-7.38h2.77v7.38Zm0-14.765h-2.77v-7.38h2.77v7.38Zm0-14.765h-2.77v-7.38h2.77v7.38Zm0-14.765h-2.77v-7.38h2.77v7.38Z"/></svg>