<svg xmlns="http://www.w3.org/2000/svg" width="400" height="401" fill="none" viewBox="0 0 400 401"><path fill="#444" d="m163.235 232.83 30.15 64.48 28.66 3.25-31.585-65.585-27.225-2.145Z"/><path fill="#222" d="M222.045 301.945c-.05 0-.105 0-.155-.01l-28.66-3.25a1.391 1.391 0 0 1-1.1-.79l-30.15-64.48c-.21-.445-.165-.97.115-1.375a1.39 1.39 0 0 1 1.245-.59l27.225 2.145c.49.04.925.335 1.14.78l31.585 65.585c.22.455.175.99-.12 1.4-.26.37-.685.585-1.13.585h.005Zm-27.73-5.92 25.4 2.88-30.15-62.61L165.5 234.4l28.815 61.625Z"/><path fill="#FF3158" d="m142.17 230.7 134.755 12.91L222.24 89.735l-96.735 94.06L142.17 230.7Z"/><path fill="#222" d="M276.925 244.995c-.045 0-.09 0-.13-.005l-134.75-12.915c-.535-.05-.99-.41-1.17-.915l-16.67-46.905a1.38 1.38 0 0 1 .34-1.455l96.74-94.055c.335-.33.815-.465 1.28-.355.46.105.83.44.99.885l54.68 153.875c.16.445.08.94-.215 1.315-.265.34-.665.535-1.09.535l-.005-.005Zm-133.74-15.59 131.71 12.62-53.23-149.79-94.555 91.935 16.075 45.235ZM265.65 162.019c-1.14 0-2.205-.71-2.61-1.84a2.769 2.769 0 0 1 1.68-3.535l47.04-16.715a2.769 2.769 0 0 1 1.855 5.215l-47.04 16.715c-.305.11-.62.16-.925.16ZM274.71 187.535a2.767 2.767 0 0 1-2.76-2.57 2.766 2.766 0 0 1 2.56-2.96l41.795-3.02a2.766 2.766 0 1 1 .4 5.52l-41.795 3.02c-.07 0-.135.005-.2.005v.005ZM256.585 136.505a2.76 2.76 0 0 1-2.27-1.18 2.772 2.772 0 0 1 .68-3.855l34.325-24.03a2.772 2.772 0 0 1 3.855.68c.875 1.25.57 2.98-.68 3.855l-34.325 24.03c-.485.34-1.035.5-1.585.5ZM247.51 110.99c-.64 0-1.28-.22-1.8-.67a2.766 2.766 0 0 1-.295-3.905L262.98 85.95a2.766 2.766 0 0 1 3.905-.295 2.766 2.766 0 0 1 .295 3.905l-17.565 20.465c-.545.64-1.32.965-2.1.965h-.005ZM310.325 217.84c-.165 0-.33-.015-.495-.045l-26.54-4.79a2.769 2.769 0 0 1 .98-5.45l26.54 4.79a2.766 2.766 0 0 1-.485 5.49v.005Z"/><path fill="#FF3158" d="m143.265 230.309-24.32 8.645c-12.95 4.605-27.185-2.165-31.785-15.12-4.605-12.95 2.165-27.185 15.12-31.785l24.32-8.645 16.67 46.905h-.005Z"/><path fill="#222" d="M110.59 241.785c-3.85 0-7.685-.855-11.265-2.56-6.335-3.015-11.12-8.315-13.47-14.93-4.85-13.65 2.31-28.705 15.96-33.555l24.32-8.645a1.37 1.37 0 0 1 1.06.055c.33.16.585.44.71.785l16.67 46.905c.255.72-.12 1.51-.84 1.77l-24.32 8.645a26.34 26.34 0 0 1-8.815 1.53h-.01Zm15.165-56.615-23.02 8.18c-12.21 4.34-18.615 17.805-14.275 30.02 2.105 5.915 6.385 10.66 12.05 13.355 5.67 2.695 12.05 3.025 17.965.92l23.02-8.18-15.74-44.295ZM202.133 110.108l-2.61.927 46.258 130.197 2.611-.928-46.259-130.196Z"/><path fill="#fff" d="m200.83 110.555 46.265 130.2 29.83 2.855L222.24 89.735l-21.41 20.82Z"/><path fill="#222" d="M276.925 244.995c-.045 0-.09 0-.13-.005l-29.825-2.86c-.535-.05-.99-.41-1.17-.915L199.53 111.02a1.38 1.38 0 0 1 .34-1.455l21.415-20.82c.335-.33.815-.465 1.28-.355.46.105.83.44.99.885l54.68 153.875c.16.445.08.94-.215 1.315-.265.34-.665.535-1.09.535l-.005-.005Zm-28.82-5.535 26.785 2.565-53.23-149.79-19.23 18.695 45.675 128.53Z"/></svg>