<svg xmlns="http://www.w3.org/2000/svg" width="400" height="400" fill="none" viewBox="0 0 400 400"><path fill="#DADADA" d="m362.892 258.815-37.41 46.42H60.197l37.41-46.42h265.285Z"/><path fill="#222" d="M311.062 313.825H45.772a1.384 1.384 0 0 1-1.08-2.25l37.415-46.42c.265-.325.66-.515 1.08-.515h265.285a1.384 1.384 0 0 1 1.08 2.25l-37.415 46.42c-.265.325-.66.515-1.08.515h.005Zm-262.39-2.77h261.725l35.185-43.65H83.852l-35.185 43.65h.005Z" style="mix-blend-mode:multiply"/><path fill="#444" d="m159.502 146.135-15.985 9.22v43.325H30.092v-81.725h113.425v19.955l15.985 9.225Z"/><path fill="#DADADA" d="M367.706 119.25h-62.995v108.89h62.995V119.25Z"/><path fill="#fff" d="M252.961 217.506h-2.77v73.095h2.77v-73.095Z"/><path fill="#FF3158" d="M251.571 217.506c14.503 0 26.26-11.757 26.26-26.26 0-14.503-11.757-26.26-26.26-26.26-14.503 0-26.26 11.757-26.26 26.26 0 14.503 11.757 26.26 26.26 26.26Z"/><path fill="#fff" d="M251.571 218.891c-15.245 0-27.645-12.4-27.645-27.645s12.4-27.645 27.645-27.645 27.645 12.4 27.645 27.645-12.4 27.645-27.645 27.645Zm0-52.525c-13.72 0-24.88 11.16-24.88 24.88 0 13.72 11.16 24.88 24.88 24.88 13.72 0 24.88-11.16 24.88-24.88 0-13.72-11.16-24.88-24.88-24.88Z"/><path fill="#fff" d="M251.571 202.191c6.045 0 10.945-4.9 10.945-10.945s-4.9-10.945-10.945-10.945-10.945 4.9-10.945 10.945 4.9 10.945 10.945 10.945Z"/><path fill="#fff" d="M251.571 203.576c-6.8 0-12.33-5.53-12.33-12.33s5.53-12.33 12.33-12.33 12.33 5.53 12.33 12.33-5.53 12.33-12.33 12.33Zm0-21.89c-5.27 0-9.56 4.29-9.56 9.56 0 5.27 4.29 9.56 9.56 9.56 5.27 0 9.56-4.29 9.56-9.56 0-5.27-4.29-9.56-9.56-9.56ZM155.181 143.055l-15.985 9.22v41.74H28.356V115.62h110.84v18.21l15.985 9.225ZM194.776 164.54h-2.77v109.985h2.77V164.54Z"/><path fill="#FF3158" d="M193.391 164.535c14.503 0 26.26-11.757 26.26-26.26 0-14.503-11.757-26.26-26.26-26.26-14.503 0-26.26 11.757-26.26 26.26 0 14.503 11.757 26.26 26.26 26.26Z"/><path fill="#fff" d="M193.391 165.925c-15.245 0-27.645-12.4-27.645-27.645s12.4-27.645 27.645-27.645 27.645 12.4 27.645 27.645-12.4 27.645-27.645 27.645Zm0-52.525c-13.72 0-24.88 11.16-24.88 24.88 0 13.72 11.16 24.88 24.88 24.88 13.72 0 24.88-11.16 24.88-24.88 0-13.72-11.16-24.88-24.88-24.88Z"/><path fill="#fff" d="M193.39 149.22c6.045 0 10.945-4.9 10.945-10.945s-4.9-10.945-10.945-10.945c-6.044 0-10.945 4.9-10.945 10.945s4.901 10.945 10.945 10.945Z"/><path fill="#fff" d="M193.391 150.605c-6.8 0-12.33-5.53-12.33-12.33s5.53-12.33 12.33-12.33 12.33 5.53 12.33 12.33-5.53 12.33-12.33 12.33Zm0-21.89c-5.27 0-9.56 4.29-9.56 9.56 0 5.27 4.29 9.56 9.56 9.56 5.27 0 9.56-4.29 9.56-9.56 0-5.27-4.29-9.56-9.56-9.56Z"/><path fill="#DADADA" d="M133.502 111.53H23.852v76.545h109.65V111.53Z"/><path fill="#222" d="M139.197 195.395H28.357c-.765 0-1.385-.62-1.385-1.385v-78.39c0-.765.62-1.385 1.385-1.385h110.84c.765 0 1.385.62 1.385 1.385v17.41l15.29 8.825c.43.245.69.705.69 1.2s-.265.95-.69 1.2l-15.29 8.82v40.94c0 .765-.62 1.385-1.385 1.385v-.005Zm-109.46-2.77h108.075V152.27c0-.495.265-.95.69-1.2l13.905-8.025-13.905-8.025a1.377 1.377 0 0 1-.69-1.2v-16.825H29.742v75.625l-.005.005Z"/><path fill="#fff" d="M363.166 117.59v105.475h-61.56V200.36l-15.795-9.12 15.795-9.11v-64.54h61.56Z"/><path fill="#222" d="M363.166 224.45h-61.56c-.765 0-1.385-.62-1.385-1.385V201.16l-15.105-8.72a1.388 1.388 0 0 1 .005-2.4l15.105-8.71v-63.745c0-.765.62-1.385 1.385-1.385h61.56c.765 0 1.385.62 1.385 1.385v105.48c0 .765-.62 1.385-1.385 1.385h-.005Zm-60.175-2.77h58.79V118.975h-58.79v63.16c0 .495-.265.95-.695 1.2l-13.72 7.91 13.72 7.92c.43.245.69.705.69 1.2v21.32l.005-.005Z"/><path fill="#222" d="M354.671 129.25h-45.105v3.69h45.105v-3.69ZM354.671 143.37h-45.105v3.69h45.105v-3.69ZM354.671 157.49h-45.105v3.69h45.105v-3.69ZM354.671 171.615h-45.105v3.69h45.105v-3.69ZM335.646 185.735h-26.08v3.69h26.08v-3.69Z"/><path fill="#fff" d="M84.072 173.045c10.874 0 19.69-8.815 19.69-19.69 0-10.874-8.816-19.69-19.69-19.69-10.875 0-19.69 8.816-19.69 19.69 0 10.875 8.815 19.69 19.69 19.69Z"/><path fill="#222" d="M84.072 173.97c-11.365 0-20.615-9.245-20.615-20.615s9.245-20.615 20.615-20.615 20.615 9.245 20.615 20.615-9.245 20.615-20.615 20.615Zm0-39.38c-10.35 0-18.77 8.42-18.77 18.77s8.42 18.77 18.77 18.77 18.77-8.42 18.77-18.77-8.42-18.77-18.77-18.77Z"/><path fill="#222" d="M94.798 153.2c0 .225-.11.43-.29.55l-14.78 10.08a.724.724 0 0 1-.38.12.662.662 0 0 1-.315-.085.67.67 0 0 1-.355-.59v-20.16a.678.678 0 0 1 1.055-.55l14.78 10.07c.175.13.29.335.29.56l-.005.005Z"/></svg>