<svg xmlns="http://www.w3.org/2000/svg" width="400" height="401" fill="none" viewBox="0 0 400 401"><path fill="#444" d="M347.735 109.201h-79.41v137.265h79.41V109.201Z"/><path fill="#fff" d="M202.726 233.061h-2.77v92.145h2.77v-92.145Z"/><path fill="#FF3158" d="M201.341 233.062c18.284 0 33.105-14.822 33.105-33.105 0-18.284-14.821-33.105-33.105-33.105-18.283 0-33.105 14.821-33.105 33.105 0 18.283 14.822 33.105 33.105 33.105Z"/><path fill="#fff" d="M201.342 234.447c-19.02 0-34.49-15.47-34.49-34.49 0-19.02 15.475-34.49 34.49-34.49s34.49 15.475 34.49 34.49-15.475 34.49-34.49 34.49Zm0-66.21c-17.49 0-31.72 14.23-31.72 31.72s14.23 31.72 31.72 31.72 31.72-14.23 31.72-31.72-14.23-31.72-31.72-31.72Z"/><path fill="#fff" d="M201.341 213.751c7.619 0 13.795-6.176 13.795-13.795s-6.176-13.795-13.795-13.795-13.795 6.176-13.795 13.795 6.176 13.795 13.795 13.795Z"/><path fill="#fff" d="M201.341 215.136c-8.37 0-15.18-6.81-15.18-15.18 0-8.37 6.81-15.18 15.18-15.18 8.37 0 15.18 6.81 15.18 15.18 0 8.37-6.81 15.18-15.18 15.18Zm0-27.595c-6.845 0-12.41 5.57-12.41 12.415 0 6.845 5.57 12.41 12.41 12.41s12.41-5.57 12.41-12.41-5.57-12.415-12.41-12.415ZM129.375 166.291h-2.77v138.65h2.77v-138.65Z"/><path fill="#FF3158" d="M127.99 166.29c18.283 0 33.105-14.822 33.105-33.105 0-18.283-14.822-33.105-33.105-33.105-18.284 0-33.105 14.822-33.105 33.105 0 18.283 14.821 33.105 33.105 33.105Z"/><path fill="#fff" d="M127.99 167.675c-19.02 0-34.49-15.47-34.49-34.49 0-19.02 15.475-34.49 34.49-34.49s34.49 15.475 34.49 34.49-15.475 34.49-34.49 34.49Zm0-66.21c-17.49 0-31.72 14.23-31.72 31.72s14.23 31.72 31.72 31.72 31.72-14.23 31.72-31.72-14.23-31.72-31.72-31.72Z"/><path fill="#fff" d="M127.989 146.98c7.619 0 13.795-6.177 13.795-13.795 0-7.619-6.176-13.795-13.795-13.795-7.618 0-13.795 6.176-13.795 13.795 0 7.618 6.177 13.795 13.795 13.795Z"/><path fill="#fff" d="M127.99 148.365c-8.37 0-15.18-6.81-15.18-15.18 0-8.37 6.81-15.18 15.18-15.18 8.37 0 15.18 6.81 15.18 15.18 0 8.37-6.81 15.18-15.18 15.18Zm0-27.595c-6.845 0-12.41 5.57-12.41 12.415 0 6.845 5.57 12.41 12.41 12.41s12.41-5.57 12.41-12.41-5.57-12.415-12.41-12.415ZM342.015 107.105V240.07H264.41v-28.62l-19.91-11.5 19.91-11.485v-81.36h77.605Z"/><path fill="#222" d="M342.015 241.456h-77.6c-.765 0-1.385-.62-1.385-1.385v-27.825l-19.22-11.095a1.388 1.388 0 0 1 .005-2.4l19.22-11.085v-80.56c0-.765.62-1.385 1.385-1.385h77.6c.765 0 1.385.62 1.385 1.385v132.965c0 .765-.62 1.385-1.385 1.385h-.005Zm-76.215-2.77h74.835V108.491H265.8v79.98c0 .495-.265.95-.695 1.2l-17.835 10.285 17.835 10.295c.43.245.69.705.69 1.2v27.24l.005-.005Z"/><path fill="#222" d="M331.305 122.286h-56.86v3.69h56.86v-3.69ZM331.305 140.086h-56.86v3.69h56.86v-3.69ZM331.305 157.891h-56.86v3.69h56.86v-3.69ZM331.305 175.691h-56.86v3.69h56.86v-3.69ZM307.32 193.491h-32.875v3.69h32.875v-3.69Z"/></svg>