<svg xmlns="http://www.w3.org/2000/svg" width="400" height="400" fill="none" viewBox="0 0 400 400"><path fill="#DADADA" d="m203.975 260.379-48.821 84.697h97.827l-49.006-84.697Z"/><path fill="#F5F4F3" d="M341.192 65.095H36.615v227.092h304.577V65.095Z"/><path fill="#222" d="M252.612 347.48h-97.827c-.554 0-.924-.185-1.109-.739-.185-.37-.185-.925 0-1.48l49.006-84.697c.185-.37.74-.74 1.109-.74.555 0 .925.185 1.11.74l48.821 84.697c.185.37.185.925 0 1.48-.185.554-.74.739-1.11.739Zm-95.423-2.774h93.019l-46.602-80.628-46.417 80.628Z"/><path fill="#fff" d="M360.795 73.971H46.602v228.572h314.193V73.971Z"/><path fill="#222" d="M360.61 303.837H46.601c-.74 0-1.479-.555-1.479-1.479V73.971c0-.74.555-1.48 1.48-1.48H360.61c.74 0 1.479.555 1.479 1.48v228.572c0 .739-.555 1.294-1.479 1.294Zm-312.714-2.774h311.419V75.266H47.896v225.797Z"/><path fill="#DADADA" d="M361.166 74.34H46.973v228.572h314.193V74.341Z"/><path fill="#fff" d="M341.008 92.094H66.204V284.05h274.804V92.094Z"/><path fill="#222" d="M341.008 285.529H66.204c-.74 0-1.48-.555-1.48-1.48V92.279c0-.74.555-1.48 1.48-1.48h274.804c.739 0 1.479.555 1.479 1.48v191.955c0 .74-.74 1.295-1.479 1.295Zm-273.51-2.774h272.03V93.573H67.498v189.182Z"/><path fill="#fff" d="M347.479 87.287H72.676v191.955h274.803V87.287Z"/><path fill="#222" d="M360.611 303.837H46.603c-.74 0-1.48-.555-1.48-1.479V73.971c0-.74.555-1.48 1.48-1.48H360.61c.74 0 1.479.555 1.479 1.48v228.572c0 .739-.555 1.294-1.479 1.294Zm-312.714-2.774h311.419V75.266H47.897v225.797Z"/><path fill="#222" d="M341.008 285.529H66.204c-.74 0-1.48-.555-1.48-1.48V92.279c0-.74.555-1.48 1.48-1.48h274.804c.739 0 1.479.555 1.479 1.48v191.955c0 .74-.74 1.295-1.479 1.295Zm-273.51-2.774h272.03V93.573H67.498v189.182Z"/><path fill="#F5F4F3" d="M323.069 183.264H172.907v80.444h150.162v-80.444Z"/><path fill="#DADADA" d="M320.111 214.702H202.127v12.76h117.984v-12.76ZM303.837 191.586H185.853v12.76h117.984v-12.76ZM332.132 235.229H214.147v12.76h117.985v-12.76ZM320.111 256.311H202.127v12.76h117.984v-12.76Z"/><path fill="#F5F4F3" d="M231.716 107.813H81.554v80.444h150.162v-80.444Z"/><path fill="#DADADA" d="M202.497 143.874h-117.8v12.76h117.8v-12.76ZM218.955 166.99H100.971v12.76h117.984v-12.76ZM190.66 123.347H72.676v12.76H190.66v-12.76ZM202.497 102.265h-117.8v12.76h117.8v-12.76Z"/><path fill="#fff" d="M338.235 334.535c25.431 0 46.047-20.616 46.047-46.047 0-25.431-20.616-46.047-46.047-46.047-25.431 0-46.047 20.616-46.047 46.047 0 25.431 20.616 46.047 46.047 46.047Z"/><path fill="#222" d="M338.235 336.015c-26.26 0-47.527-21.267-47.527-47.527s21.267-47.527 47.527-47.527c26.259 0 47.526 21.267 47.526 47.527s-21.452 47.527-47.526 47.527Zm0-92.28c-24.596 0-44.753 20.158-44.753 44.753s20.157 44.753 44.753 44.753c24.595 0 44.752-20.158 44.752-44.753s-20.157-44.753-44.752-44.753Z"/><path fill="#FF3158" d="m359.87 259.64-20.527 5.733-20.527-5.733-8.137 2.219v52.89l8.137 2.219 20.527-5.733 20.527 5.733 8.136-2.219v-52.89l-8.136-2.219Zm-8.137 39.575-12.205-3.514-12.206 3.514v-21.452l12.206 3.514 12.205-3.514v21.452Z"/><path fill="#222" d="M319.001 318.077h-.185l-8.137-2.219c-.37-.185-.74-.555-.74-.925v-52.704c0-.37.185-.74.74-.925l8.137-2.219h.555l20.157 5.733 20.157-5.733h.555l8.322 2.219c.37.185.739.555.739.925v52.704c0 .37-.184.74-.739.925l-8.137 2.219h-.555l-20.157-5.733-20.157 5.733h-.555Zm20.527-7.582h.185l20.157 5.733 7.212-2.034v-51.41l-7.397-2.035-20.157 5.733h-.555l-20.157-5.733-7.212 2.035v51.41l7.212 2.034 20.157-5.733h.555Zm12.205-10.541h-.185l-12.02-3.329-12.02 3.329c-.185 0-.555 0-.74-.185-.185-.185-.37-.37-.37-.74v-21.451c0-.37.185-.555.37-.74.185-.185.555-.185.74-.185l12.02 3.329 12.02-3.329c.185 0 .555 0 .74.185.185.185.37.37.37.74v21.451c0 .37-.185.555-.37.74-.185.185-.37.185-.555.185Zm-12.205-5.178h.185l11.096 3.144v-19.048l-11.096 3.144h-.555l-11.096-3.144v19.048l11.096-3.144h.37Z"/><path fill="#FF3158" d="M339.527 269.995v11.096L319 275.358v41.794l-8.137-2.404v-52.705l28.664 7.952Z"/><path fill="#222" d="M319.001 318.077h-.185l-8.137-2.219c-.37-.185-.74-.555-.74-.925v-52.705c0-.37.185-.554.37-.739.185-.185.555-.185.74-.185l28.664 7.952c.37.185.74.554.74.924v11.096c0 .37-.185.555-.37.74-.185.185-.555.185-.74.185l-19.232-5.363v40.499c0 .37-.185.555-.37.74-.37-.185-.555 0-.74 0Zm-7.212-3.884 6.287 1.849v-40.499c0-.37.185-.555.37-.74.185-.184.555-.184.74-.184l19.232 5.362v-9.246l-26.814-7.397v50.855h.185Z"/><path fill="#FF3158" d="m351.734 303.652-12.206-3.328v11.095l20.342 5.733v-41.794l-8.136 2.404v25.89Z"/><path fill="#222" d="M359.87 318.077h-.185l-20.527-5.733c-.37-.185-.74-.555-.74-.925v-11.095c0-.37.185-.555.37-.74.185-.185.555-.185.74-.185l11.095 3.144v-24.781c0-.369.185-.739.74-.924l8.137-2.219c.37 0 .555 0 .74.185.184.185.369.369.369.739v41.609c0 .37-.185.555-.369.74 0 0-.185.185-.37.185Zm-19.603-7.397 18.678 5.178v-39.205l-6.288 1.849v25.335c0 .37-.184.555-.369.74-.185.185-.555.185-.74.185l-11.096-3.144v9.062h-.185Z"/><path fill="#FF3158" d="m359.871 259.639 8.322 2.404-28.664 7.952-28.664-7.952 8.137-2.404 20.527 5.918 20.342-5.918Z"/><path fill="#222" d="M339.343 270.92h-.185l-28.663-7.952c-.37-.185-.74-.555-.74-.925s.185-.74.74-.924l8.136-2.22h.555l20.157 5.733 20.158-5.733h.554l8.137 2.22c.37.184.74.554.74.924s-.185.74-.74.925l-28.664 7.952h-.185Zm-25.15-8.877 25.15 7.027 25.151-7.027-4.808-1.294-20.158 5.732h-.554l-20.158-5.732-4.623 1.294Z"/><path fill="#FF3158" d="m339.528 295.7 12.205 3.514v4.438l-12.205-3.329-12.39 3.329v-4.438l12.39-3.514Z"/><path fill="#222" d="M351.734 304.577h-.185l-12.021-3.329-12.02 3.329c-.37 0-.555 0-.74-.185-.185-.185-.37-.37-.37-.74v-4.623c0-.37.185-.74.74-.925l12.205-3.513h.555l12.39 3.513c.37.185.74.555.74.925v4.623c0 .37-.185.555-.37.74-.555.185-.739.185-.924.185Zm-12.391-5.178h.185l11.096 3.144v-2.589l-11.466-3.144-11.28 3.144v2.589l11.096-3.144h.369Z"/><path fill="#FF3158" d="M261.49 156.634c0-10.726-26.445-19.417-59.177-19.417-32.733 0-59.177 8.691-59.177 19.417v68.239c0 10.726 26.444 20.897 59.177 20.897 32.732 0 59.177-10.171 59.177-20.897v-68.239Z"/><path fill="#222" d="M202.497 247.064c-32.732 0-60.472-10.171-60.472-22.192v-68.238c0-11.651 26.63-20.712 60.472-20.712s60.472 9.061 60.472 20.712v68.238c0 12.021-27.74 22.192-60.472 22.192Zm0-108.368c-34.582 0-57.698 9.246-57.698 17.938v68.238c0 9.247 24.781 19.418 57.698 19.418 33.102 0 57.698-10.171 57.698-19.418v-68.238c0-8.692-23.116-17.938-57.698-17.938Z"/><path fill="#222" d="m202.127 211.558-104.3-40.869v-5.363h208.784v5.363l-104.484 40.869Z"/><path fill="#222" d="M202.127 213.037c-.185 0-.37 0-.555-.184l-104.3-40.87a1.39 1.39 0 0 1-.924-1.294v-5.548c0-.74.554-1.479 1.48-1.479H306.61c.74 0 1.48.554 1.48 1.479v5.548a1.39 1.39 0 0 1-.925 1.294l-104.3 40.87c-.369 0-.554.184-.739.184ZM99.122 169.764l103.005 40.315 103.005-40.315v-3.144H99.122v3.144Z"/><path fill="#FF3158" d="m202.127 206.195-104.3-40.869 104.3-40.869 104.484 40.869-104.484 40.869Z"/><path fill="#222" d="M202.127 207.489c-.185 0-.37 0-.555-.184l-104.3-40.685a1.39 1.39 0 0 1-.924-1.294c0-.555.37-1.11.924-1.295l104.485-40.869c.37-.185.74-.185.924 0l104.3 40.869c.555.185.925.74.925 1.295a1.39 1.39 0 0 1-.925 1.294l-104.3 40.869h-.554Zm-100.601-42.163 100.601 39.39 100.601-39.39-100.601-39.39-100.601 39.39Z"/><path fill="#DADADA" d="m208.23 164.032-6.658 2.959 54.739 19.047v59.732l7.027-1.11v-61.581l-55.108-19.047Z"/><path fill="#222" d="M256.126 247.065c-.37 0-.74-.185-.925-.37-.369-.185-.554-.555-.554-1.11v-58.622l-53.63-18.678a1.391 1.391 0 0 1-.924-1.294c0-.555.37-1.11.739-1.295l6.658-2.959c.37-.185.74-.185 1.109 0l55.294 19.048c.555.185.925.74.925 1.294v61.582c0 .739-.555 1.294-1.11 1.294l-7.212 1.11h-.37Zm-50.855-80.259 51.41 17.938c.555.185.924.74.924 1.294v58.068l4.439-.555v-59.547l-53.814-18.493-2.959 1.295Z"/><path fill="#DADADA" d="M259.824 221.174c-5.918 0-10.726 4.808-10.726 10.726v18.863h21.451V231.9c0-5.918-4.808-10.726-10.725-10.726Z"/><path fill="#222" d="M270.549 252.242h-21.451c-.74 0-1.48-.555-1.48-1.479V231.9c0-6.657 5.363-12.205 12.021-12.205 6.657 0 12.02 5.363 12.02 12.205v18.863c.185.924-.37 1.479-1.11 1.479Zm-20.157-2.774h18.678V231.9c0-5.178-4.254-9.431-9.431-9.431-5.178 0-9.432 4.253-9.432 9.431v17.568h.185Z"/><path fill="#444" d="M203.237 171.798c5.719 0 10.356-2.815 10.356-6.288 0-3.472-4.637-6.287-10.356-6.287-5.72 0-10.356 2.815-10.356 6.287 0 3.473 4.636 6.288 10.356 6.288Z"/><path fill="#222" d="M203.421 173.277c-6.657 0-11.835-3.328-11.835-7.582 0-4.253 5.178-7.582 11.835-7.582 6.658 0 11.836 3.329 11.836 7.582 0 4.254-5.363 7.582-11.836 7.582Zm0-12.575c-4.808 0-9.061 2.219-9.061 4.808s4.068 4.809 9.061 4.809 9.062-2.22 9.062-4.809-4.254-4.808-9.062-4.808Z"/></svg>