<?xml version="1.0" encoding="UTF-8"?>
<svg id="Layer_1" data-name="Layer 1" xmlns="http://www.w3.org/2000/svg" viewBox="0 0 230 50">
  <defs>
    <style>
      .cls-1 {
        fill: #fff;
      }

      .cls-2 {
        fill: #999;
      }

      .cls-3 {
        fill: #b7babb;
      }
    </style>
  </defs>
  <g>
    <g>
      <polygon class="cls-1" points="57.15 36.2 57.15 27.4 56.85 22.3 57.05 22.3 59.15 26.8 63.95 35.7 68.75 26.8 70.85 22.3 71.05 22.3 70.75 27.4 70.75 36.2 75.95 36.2 75.95 14.5 70.05 14.5 63.95 26.3 63.95 26.3 57.85 14.5 51.95 14.5 51.95 36.2 57.15 36.2"/>
      <path class="cls-1" d="M208.55,30.7c0,3.6,1.89999,5.5,5.60001,5.5h3.2v-4.5h-3.5v-9.5h3.7v-4.4h-4.10001v-4.2h-4.89999V30.7h0Z"/>
      <path class="cls-1" d="M207.15,17.9h-.89999c-3,0-4.39999,2-4.89999,3.4h-.2v-3.4h-5.30002v18.3h5.3v-10.4c0-1.1,.39999-1.8,.89999-2.3,.89999-.9,2.8-1.1,5-1.1,.10001-1.8,.10001-4.5,.10001-4.5Z"/>
      <path class="cls-1" d="M154.45001,17.9h-.89999c-3,0-4.39999,2-4.89999,3.4h-.2v-3.4h-5.3v18.3h5.3v-10.4c0-1.1,.39999-1.8,.89999-2.3,.89999-.9,2.8-1.1,5-1.1,.09999-1.8,.09999-4.5,.09999-4.5Z"/>
      <path class="cls-1" d="M123.35,27.3c0-6,3.2-9.9,8.8-9.9,6.3,0,8.8,4.5,8.8,9.6v1.6h-12.10001v.2c0,2.1,1.10001,3.6,4.2,3.6,2.2,0,3.39999-1,4.60001-2.3l2.7,3.3c-1.7,1.9-4.5,3.1-7.89999,3.1-5.8,.2-9.10001-3.1-9.10001-9.2Zm5.5-2v.3h6.60001v-.3c0-2.3-1-3.9-3.2-3.9s-3.40001,1.6-3.40001,3.9Z"/>
      <path class="cls-1" d="M175.85,27.3c0-6.1,3.3-9.9,8.89999-9.9,5.5,0,8.89999,3.8,8.89999,9.9s-3.3,9.3-8.89999,9.3c-5.59999,.1-8.89999-3.2-8.89999-9.3Zm12.2,1.4v-3.3c0-2.4-1.2-3.7-3.3-3.7s-3.3,1.4-3.3,3.7v3.3c0,2.4,1.2,3.7,3.3,3.7s3.3-1.3,3.3-3.7Z"/>
      <path class="cls-1" d="M118.25,13.7h-4.8v2.2c0,1.3-.4,2-1.9,2h-1.3v4.4h2.7v8.4c0,3.6,1.9,5.5,5.6,5.5h3.2v-4.5h-3.4v-9.5h3.7v-4.4h-3.7l-.09998-4.1h0Z"/>
      <path class="cls-1" d="M105.05,13.7h-4.8v2.2c0,1.3-.4,2-1.9,2h-1.3v4.4h2.7v8.4c0,3.6,1.9,5.5,5.6,5.5h3.2v-4.5h-3.4v-9.5h3.7v-4.4h-3.7l-.09998-4.1h0Z"/>
      <path class="cls-1" d="M166.74999,17.5c-2.39999,0-4.5,1.5-5.10001,3.6h-.2v-3.2h-5.3v23.8h5.3v-8.6h.2c.5,2,2.60001,3.6,5.10001,3.6,4.8,0,7.3-2.9,7.3-9.3s-2.5-9.9-7.3-9.9Zm1.70001,11.5c0,2.4-1.5,3.3-3.5,3.3s-3.5-1-3.5-2.8v-5c0-1.7,1.5-2.8,3.5-2.8s3.5,1.5,3.5,3.9v3.4Z"/>
      <path class="cls-1" d="M93.65,36.2c-1.9,0-3.3-1.3-3.6-3.3h-.2c-.6,2.5-2.7,3.7-5.5,3.7-3.8,0-5.9-2.2-5.9-5.5,0-4,3.1-5.9,8.1-5.9h3v-.6c0-1.8-.9-3-3.1-3-2.1,0-3.2,1.1-4.1,2.2l-3.2-2.7c1.5-2.2,3.7-3.6,7.6-3.6,5.3,0,8.1,2.5,8.1,6.9v7.4h1.8v4.5l-3-.1h0Zm-4.10001-5.7v-2.2h-2.6c-2.1,0-3.1,.8-3.1,2.1v.5c0,1.4,.9,2,2.5,2,1.7,.1,3.2-.7,3.2-2.4Z"/>
    </g>
    <g>
      <path class="cls-3" d="M34.85,7l-12.8,3.6-12.8-3.6-5.1,1.5V41.6l5.1,1.4,12.8-3.6,12.8,3.6,5.1-1.4V8.5l-5.1-1.5Zm-5.1,24.7l-7.7-2.1-7.7,2.1v-13.4l7.7,2.1,7.7-2.1v13.4Z"/>
      <g>
        <polygon class="cls-1" points="22.05 13.5 22.05 20.4 9.25 16.8 9.25 42.9 4.15 41.5 4.15 8.5 22.05 13.5"/>
        <polygon class="cls-1" points="29.75 34.6 22.05 32.4 22.05 39.3 34.85 42.9 34.85 16.8 29.75 18.3 29.75 34.6"/>
      </g>
      <g>
        <polygon class="cls-2" points="34.85 7 40.05 8.5 22.05 13.5 4.15 8.5 9.25 7 22.05 10.6 34.85 7"/>
        <polygon class="cls-2" points="22.05 29.5 29.75 31.7 29.75 34.6 22.05 32.4 14.35 34.6 14.35 31.7 22.05 29.5"/>
      </g>
    </g>
  </g>
  <path class="cls-1" d="M223.14461,19.78065c-.41016,0-.79492-.07715-1.15527-.23242s-.6748-.37305-.94531-.65332c-.26953-.2793-.48242-.60742-.6377-.98242-.1543-.375-.23242-.78223-.23242-1.22168,0-.44043,.07812-.84766,.23242-1.22266,.15527-.375,.36816-.70312,.6377-.98242,.27051-.28027,.58496-.49805,.94531-.65332,.36035-.1543,.74512-.23242,1.15527-.23242,.39941,0,.7793,.07812,1.13965,.23242,.36035,.15527,.6748,.37305,.94531,.65332,.26953,.2793,.48438,.60742,.64453,.98242s.24023,.78223,.24023,1.22266c0,.43945-.08008,.84668-.24023,1.22168s-.375,.70312-.64453,.98242c-.27051,.28027-.58496,.49805-.94531,.65332s-.74023,.23242-1.13965,.23242Zm0-.60059c.33984,0,.65234-.06445,.9375-.19434s.5293-.30273,.73438-.51758,.36523-.46289,.48047-.74316c.11426-.2793,.17188-.56934,.17188-.86914v-.33008c0-.30078-.05762-.58984-.17188-.87012-.11523-.28027-.27539-.52734-.48047-.74316-.20508-.21484-.44922-.38672-.73438-.51758-.28516-.12891-.59766-.19434-.9375-.19434-.34082,0-.65234,.06543-.9375,.19434-.28516,.13086-.53027,.30273-.73535,.51758-.20508,.21582-.36523,.46289-.47949,.74316-.11523,.28027-.17285,.56934-.17285,.87012v.33008c0,.2998,.05762,.58984,.17285,.86914,.11426,.28027,.27441,.52832,.47949,.74316s.4502,.3877,.73535,.51758,.59668,.19434,.9375,.19434Zm-.52539-.87012h-.59961v-3.13477h1.34961c.2998,0,.53516,.08789,.70508,.2627s.25488,.40234,.25488,.68262c0,.24023-.05469,.43457-.16504,.58496s-.25,.25977-.41992,.33008l.73535,1.27441h-.6748l-.66016-1.19922h-.52539v1.19922Zm.71973-1.67969c.23047,0,.3457-.10449,.3457-.31445v-.33008c0-.20996-.11523-.31543-.3457-.31543h-.71973v.95996h.71973Z"/>
</svg>