<svg xmlns="http://www.w3.org/2000/svg" width="401" height="400" fill="none" viewBox="0 0 401 400"><path fill="#DADADA" d="m204.472 260.379-48.822 84.697h97.828l-49.006-84.697Z"/><path fill="#444" d="M341.688 65.095H37.111v227.092h304.577V65.095Z"/><path fill="#222" d="M253.108 347.481h-97.827c-.555 0-.925-.185-1.11-.74-.185-.37-.185-.925 0-1.479l49.006-84.698c.185-.369.74-.739 1.11-.739.554 0 .924.185 1.109.739l48.821 84.698c.185.37.185.924 0 1.479s-.739.74-1.109.74Zm-95.423-2.774h93.019l-46.602-80.629-46.417 80.629Z"/><path fill="#fff" d="M361.291 73.971H47.097v228.572h314.194V73.971Z"/><path fill="#222" d="M361.106 303.838H47.097c-.74 0-1.48-.555-1.48-1.48V73.972c0-.74.556-1.48 1.48-1.48h314.009c.74 0 1.479.555 1.479 1.48v228.571c0 .74-.554 1.295-1.479 1.295Zm-312.714-2.774H359.81V75.266H48.391v225.798Z"/><path fill="#DADADA" d="M361.661 74.342H47.467v228.571h314.194V74.342Z"/><path fill="#fff" d="M341.503 92.095H66.7V284.05h274.803V92.095Z"/><path fill="#222" d="M341.504 285.53H66.7c-.74 0-1.48-.555-1.48-1.479V92.28c0-.74.555-1.48 1.48-1.48h274.804c.739 0 1.479.555 1.479 1.48v191.956c0 .739-.74 1.294-1.479 1.294Zm-273.51-2.774h272.03V93.574H67.994v189.182Z"/><path fill="#fff" d="M347.976 87.287H73.172v191.955h274.804V87.287Z"/><path fill="#222" d="M361.106 303.838H47.097c-.74 0-1.48-.555-1.48-1.48V73.972c0-.74.556-1.48 1.48-1.48h314.009c.74 0 1.479.555 1.479 1.48v228.571c0 .74-.554 1.295-1.479 1.295Zm-312.714-2.774H359.81V75.266H48.391v225.798Z"/><path fill="#222" d="M341.504 285.53H66.7c-.74 0-1.48-.555-1.48-1.479V92.28c0-.74.555-1.48 1.48-1.48h274.804c.739 0 1.479.555 1.479 1.48v191.956c0 .739-.74 1.294-1.479 1.294Zm-273.51-2.774h272.03V93.574H67.994v189.182Z"/><path fill="#F5F4F3" d="M323.566 183.264H173.404v80.444h150.162v-80.444Z"/><path fill="#DADADA" d="M320.607 214.702H202.622v12.76h117.985v-12.76ZM304.333 191.586H186.349v12.76h117.984v-12.76ZM332.627 235.229H214.643v12.761h117.984v-12.761ZM320.607 256.311H202.622v12.76h117.985v-12.76Z"/><path fill="#F5F4F3" d="M232.211 107.813H82.049v80.444H232.21v-80.444Z"/><path fill="#DADADA" d="M202.992 143.874h-117.8v12.76h117.8v-12.76ZM219.451 166.99H101.466v12.76h117.985v-12.76ZM191.157 123.348H73.172v12.76h117.985v-12.76ZM202.992 102.265h-117.8v12.76h117.8v-12.76Z"/><path fill="#fff" d="M338.73 334.535c25.431 0 46.047-20.616 46.047-46.047 0-25.432-20.616-46.048-46.047-46.048-25.432 0-46.048 20.616-46.048 46.048 0 25.431 20.616 46.047 46.048 46.047Z"/><path fill="#222" d="M338.73 336.015c-26.26 0-47.527-21.267-47.527-47.527s21.267-47.527 47.527-47.527c26.259 0 47.526 21.267 47.526 47.527s-21.451 47.527-47.526 47.527Zm0-92.28c-24.596 0-44.753 20.158-44.753 44.753 0 24.596 20.157 44.753 44.753 44.753 24.595 0 44.752-20.157 44.752-44.753 0-24.595-20.157-44.753-44.752-44.753Z"/><path fill="#FF3158" d="m360.366 259.64-20.527 5.732-20.527-5.732-8.137 2.219v52.889l8.137 2.219 20.527-5.732 20.527 5.732 8.137-2.219v-52.889l-8.137-2.219Zm-8.137 39.574-12.205-3.513-12.205 3.513v-21.451l12.205 3.513 12.205-3.513v21.451Z"/><path fill="#222" d="M319.497 318.077h-.185l-8.137-2.219c-.37-.185-.739-.555-.739-.925v-52.704c0-.37.184-.74.739-.925l8.137-2.219h.555l20.157 5.733 20.157-5.733h.555l8.322 2.219c.37.185.74.555.74.925v52.704c0 .37-.185.74-.74.925l-8.137 2.219h-.555l-20.157-5.733-20.157 5.733h-.555Zm20.527-7.582h.185l20.157 5.733 7.212-2.034v-51.41l-7.397-2.035-20.157 5.733h-.555l-20.157-5.733-7.212 2.035v51.41l7.212 2.034 20.157-5.733h.555Zm12.205-10.541h-.185l-12.02-3.329-12.02 3.329c-.185 0-.555 0-.74-.185-.185-.185-.37-.37-.37-.739v-21.452c0-.37.185-.555.37-.74.185-.185.555-.185.74-.185l12.02 3.329 12.02-3.329c.185 0 .555 0 .74.185.185.185.37.37.37.74v21.452c0 .369-.185.554-.37.739-.185.185-.37.185-.555.185Zm-12.205-5.178h.185l11.096 3.144v-19.048l-11.096 3.144h-.555l-11.095-3.144v19.048l11.095-3.144h.37Z"/><path fill="#FF3158" d="M340.024 269.995v11.096l-20.527-5.733v41.794l-8.137-2.404v-52.705l28.664 7.952Z"/><path fill="#222" d="M319.497 318.077h-.185l-8.137-2.219c-.37-.185-.739-.555-.739-.925v-52.705c0-.37.184-.554.369-.739.185-.185.555-.185.74-.185l28.664 7.952c.37.185.74.554.74.924v11.096c0 .37-.185.555-.37.74-.185.185-.555.185-.74.185l-19.232-5.363v40.499c0 .37-.185.555-.37.74-.37-.185-.555 0-.74 0Zm-7.212-3.884 6.287 1.85v-40.5c0-.37.185-.555.37-.74.185-.184.555-.184.74-.184l19.233 5.362v-9.246l-26.815-7.397v50.855h.185Z"/><path fill="#FF3158" d="m352.229 303.652-12.205-3.328v11.095l20.342 5.733v-41.794l-8.137 2.404v25.89Z"/><path fill="#222" d="M360.366 318.077h-.185l-20.527-5.733c-.37-.185-.739-.555-.739-.925v-11.095c0-.37.184-.555.369-.74.185-.185.555-.185.74-.185l11.096 3.144v-24.781c0-.369.185-.739.74-.924l8.136-2.219c.37 0 .555 0 .74.185.185.185.37.369.37.739v41.609c0 .37-.185.555-.37.74 0 0-.185.185-.37.185Zm-19.602-7.397 18.678 5.178v-39.205l-6.288 1.849v25.335c0 .37-.185.555-.37.74-.185.185-.555.185-.74.185l-11.095-3.144v9.062h-.185Z"/><path fill="#FF3158" d="m360.366 259.64 8.322 2.404-28.664 7.952-28.664-7.952 8.137-2.404 20.527 5.917 20.342-5.917Z"/><path fill="#222" d="M339.839 270.92h-.185l-28.664-7.952c-.37-.185-.739-.554-.739-.924s.185-.74.739-.925l8.137-2.219h.555l20.157 5.733 20.157-5.733h.555l8.137 2.219c.37.185.74.555.74.925s-.185.739-.74.924l-28.664 7.952h-.185Zm-25.15-8.876 25.15 7.027 25.15-7.027-4.808-1.295-20.157 5.733h-.555l-20.157-5.733-4.623 1.295Z"/><path fill="#FF3158" d="m340.024 295.701 12.205 3.513v4.439l-12.205-3.329-12.39 3.329v-4.439l12.39-3.513Z"/><path fill="#222" d="M352.229 304.577h-.185l-12.02-3.329-12.02 3.329c-.37 0-.555 0-.74-.185-.185-.185-.37-.37-.37-.74v-4.623c0-.37.185-.74.74-.925l12.205-3.513h.555l12.39 3.513c.37.185.74.555.74.925v4.623c0 .37-.185.555-.37.74-.555.185-.74.185-.925.185Zm-12.39-5.178h.185l11.096 3.144v-2.589l-11.466-3.144-11.28 3.144v2.589l11.095-3.144h.37Z"/><path fill="#FF3158" d="M261.984 156.635c0-10.726-26.445-19.418-59.177-19.418s-59.177 8.692-59.177 19.418v68.238c0 10.726 26.445 20.897 59.177 20.897s59.177-10.171 59.177-20.897v-68.238Z"/><path fill="#222" d="M202.992 247.064c-32.732 0-60.472-10.171-60.472-22.191v-68.239c0-11.65 26.63-20.712 60.472-20.712s60.472 9.062 60.472 20.712v68.239c0 12.02-27.74 22.191-60.472 22.191Zm0-108.368c-34.582 0-57.698 9.247-57.698 17.938v68.239c0 9.246 24.781 19.417 57.698 19.417 33.102 0 57.698-10.171 57.698-19.417v-68.239c0-8.691-23.116-17.938-57.698-17.938Z"/><path fill="#222" d="m202.622 211.558-104.3-40.869v-5.363h208.785v5.363l-104.485 40.869Z"/><path fill="#222" d="M202.622 213.038c-.185 0-.37 0-.555-.185l-104.3-40.87a1.39 1.39 0 0 1-.924-1.294v-5.548c0-.74.555-1.479 1.48-1.479h208.784c.739 0 1.479.554 1.479 1.479v5.548a1.39 1.39 0 0 1-.924 1.294l-104.3 40.87c-.37 0-.555.185-.74.185ZM99.617 169.764l103.005 40.315 103.005-40.315v-3.144H99.617v3.144Z"/><path fill="#FF3158" d="m202.622 206.195-104.3-40.869 104.3-40.869 104.485 40.869-104.485 40.869Z"/><path fill="#222" d="M202.622 207.49c-.185 0-.37 0-.555-.185l-104.3-40.685a1.39 1.39 0 0 1-.924-1.294c0-.555.37-1.11.925-1.295l104.484-40.869c.37-.185.74-.185.925 0l104.3 40.869c.554.185.924.74.924 1.295a1.39 1.39 0 0 1-.924 1.294l-104.3 40.87h-.555Zm-100.601-42.164 100.601 39.39 100.601-39.39-100.601-39.39-100.601 39.39Z"/><path fill="#DADADA" d="m208.725 164.031-6.658 2.959 54.739 19.048v59.732l7.027-1.11v-61.581l-55.108-19.048Z"/><path fill="#222" d="M256.621 247.064a1.41 1.41 0 0 1-.924-.37c-.37-.185-.555-.554-.555-1.109v-58.623l-53.629-18.677a1.391 1.391 0 0 1-.925-1.295c0-.555.37-1.109.74-1.294l6.657-2.959a1.18 1.18 0 0 1 1.11 0l55.293 19.047c.555.185.925.74.925 1.295v61.581c0 .74-.555 1.295-1.11 1.295l-7.212 1.109h-.37Zm-50.855-80.259 51.41 17.938c.555.185.925.74.925 1.295v58.067l4.438-.554v-59.547l-53.814-18.493-2.959 1.294Z"/><path fill="#DADADA" d="M260.32 221.174c-5.918 0-10.726 4.808-10.726 10.726v18.862h21.452V231.9c0-5.918-4.808-10.726-10.726-10.726Z"/><path fill="#222" d="M271.046 252.242h-21.452c-.74 0-1.479-.555-1.479-1.479V231.9c0-6.657 5.363-12.205 12.02-12.205 6.658 0 12.02 5.363 12.02 12.205v18.863c.185.924-.369 1.479-1.109 1.479Zm-20.157-2.774h18.677V231.9c0-5.178-4.253-9.431-9.431-9.431-5.178 0-9.431 4.253-9.431 9.431v17.568h.185Z"/><path fill="#444" d="M203.732 171.799c5.719 0 10.356-2.815 10.356-6.288 0-3.472-4.637-6.287-10.356-6.287-5.72 0-10.356 2.815-10.356 6.287 0 3.473 4.636 6.288 10.356 6.288Z"/><path fill="#222" d="M203.917 173.278c-6.658 0-11.836-3.329-11.836-7.582 0-4.254 5.178-7.582 11.836-7.582 6.657 0 11.835 3.328 11.835 7.582 0 4.253-5.363 7.582-11.835 7.582Zm0-12.575c-4.808 0-9.062 2.219-9.062 4.808s4.069 4.808 9.062 4.808c4.993 0 9.061-2.219 9.061-4.808s-4.253-4.808-9.061-4.808Z"/></svg>