<svg width="48" height="48" viewBox="0 0 48 48" fill="none" xmlns="http://www.w3.org/2000/svg">
<rect width="48" height="48" fill="white"/>
<rect width="48" height="48" rx="8" fill="#222222"/>
<path d="M12.6029 8.34939L24.0893 11.4733L35.5757 8.34497L40.1711 9.59544V38.3959L35.5757 39.6464L24.0893 36.5268L12.6029 39.6552L8.00749 38.4003V9.59985L12.6029 8.34939ZM17.1984 29.8371L24.0893 27.9592L30.9802 29.8371V18.1631L24.0893 20.041L17.1984 18.1631V29.8371Z" fill="#FF3158"/>
<path d="M24.0894 13.9743V20.041L35.5757 16.9126V39.6508L40.1712 38.4003V9.59985L24.0894 13.9743Z" fill="#C00033"/>
<path d="M17.1985 32.3379L24.0894 30.46V36.5268L12.603 39.6507V16.9126L17.1985 18.1631V32.3379Z" fill="#C00033"/>
<path d="M12.603 8.35034L8.00752 9.60081L24.0893 13.9752L40.1712 9.60081L35.5757 8.35034L24.0893 11.4743L12.603 8.35034Z" fill="#FF7788"/>
<path d="M24.0894 27.9592L17.1985 29.8371V32.3381L24.0894 30.4602L30.9803 32.3381V29.8371L24.0894 27.9592Z" fill="#FF7788"/>
</svg>
