<svg xmlns="http://www.w3.org/2000/svg" width="214" height="36" fill="none" viewBox="0 0 214 36"><path fill="#F5F4F3" d="M52.98 29.23v-8.82l-.24-5.09.19-.04 2.05 4.54 4.82 8.86 4.82-8.86 2.06-4.54.18.04-.24 5.09v8.82h5.14V7.49h-5.81l-6.11 11.77h-.07L53.65 7.49h-5.81v21.74h5.14ZM204.39 23.72c0 3.6 1.94 5.5 5.61 5.5h3.17v-4.45h-3.45v-9.49h3.74v-4.36h-4.15V6.71h-4.91v17.01h-.01ZM202.96 10.92h-.87c-3.01 0-4.44 2.03-4.89 3.43h-.18v-3.43h-5.32v18.31h5.32V18.81c0-1.08.41-1.84.93-2.33.89-.86 2.79-1.11 5.01-1.11v-4.45ZM150.33 10.92h-.87c-3.01 0-4.44 2.03-4.89 3.43h-.18v-3.43h-5.32v18.31h5.32V18.81c0-1.08.41-1.84.93-2.33.89-.86 2.79-1.11 5.01-1.11v-4.45ZM119.18 20.34c0-5.97 3.17-9.86 8.85-9.86 6.26 0 8.78 4.53 8.78 9.64v1.58h-12.12v.18c0 2.12 1.14 3.6 4.17 3.6 2.23 0 3.45-1.04 4.64-2.27l2.66 3.31c-1.69 1.94-4.46 3.13-7.91 3.13-5.8.01-9.07-3.27-9.07-9.31Zm5.5-2.05v.29h6.62v-.32c0-2.3-1.04-3.85-3.17-3.85s-3.45 1.54-3.45 3.88ZM171.74 20.34c0-6.08 3.31-9.86 8.85-9.86 5.54 0 8.85 3.78 8.85 9.86s-3.31 9.32-8.85 9.32c-5.55 0-8.85-3.24-8.85-9.32Zm12.15 1.37v-3.27c0-2.37-1.22-3.74-3.31-3.74s-3.31 1.37-3.31 3.74v3.27c0 2.37 1.22 3.74 3.31 3.74s3.31-1.37 3.31-3.74ZM114.12 6.71h-4.78V8.9c0 1.3-.43 2.01-1.87 2.01h-1.33v4.36h2.66v8.44c0 3.6 1.94 5.5 5.61 5.5h3.17v-4.45h-3.45v-9.49h3.74v-4.36h-3.74v-4.2h-.01ZM100.87 6.71h-4.78V8.9c0 1.3-.43 2.01-1.87 2.01h-1.33v4.36h2.66v8.44c0 3.6 1.94 5.5 5.61 5.5h3.17v-4.45h-3.45v-9.49h3.74v-4.36h-3.74v-4.2h-.01ZM162.6 10.48c-2.45 0-4.53 1.51-5.07 3.6h-.18v-3.17h-5.32v23.82h5.32v-8.67h.18c.54 2.05 2.63 3.6 5.07 3.6 4.78 0 7.27-2.91 7.27-9.32-.01-6.4-2.49-9.86-7.27-9.86ZM164.32 22c0 2.37-1.48 3.35-3.49 3.35-2.01 0-3.49-1.04-3.49-2.77v-5c0-1.73 1.48-2.77 3.49-2.77 2.01 0 3.49 1.55 3.49 3.92V22ZM89.53 29.23c-1.91 0-3.27-1.3-3.6-3.31h-.22c-.58 2.45-2.66 3.74-5.54 3.74-3.78 0-5.86-2.23-5.86-5.5 0-3.99 3.09-5.9 8.09-5.9h2.99v-.61c0-1.83-.9-2.99-3.13-2.99-2.12 0-3.24 1.08-4.06 2.23l-3.17-2.81c1.51-2.23 3.67-3.6 7.63-3.6 5.32 0 8.06 2.45 8.06 6.91v7.38h1.76v4.45h-2.95v.01Zm-4.13-5.72v-2.23h-2.59c-2.05 0-3.13.76-3.13 2.12v.54c0 1.37.9 2.01 2.48 2.01 1.76 0 3.24-.72 3.24-2.44Z"/><path fill="#FF3158" d="m5.12 0 12.82 3.59L30.76 0l5.13 1.44V34.5l-5.13 1.44-12.82-3.59-12.82 3.59L0 34.5V1.44L5.12 0Zm5.13 24.67 7.69-2.15 7.69 2.15v-13.4l-7.69 2.15-7.69-2.15v13.4Z"/><path fill="#C00033" d="M17.94 6.46v6.96l12.81-3.59v26.1l5.13-1.43V1.44L17.94 6.46ZM10.25 27.54l7.69-2.16v6.96L5.12 35.93V9.83l5.13 1.44v16.27Z"/><path fill="#F78" d="M5.12 0 0 1.44l17.94 5.02 17.94-5.02L30.75 0 17.94 3.59 5.12 0ZM17.94 22.51l-7.69 2.16v2.87l7.69-2.16 7.69 2.16v-2.87l-7.69-2.16Z"/></svg>