<svg xmlns="http://www.w3.org/2000/svg" width="400" height="401" fill="none" viewBox="0 0 400 401"><path fill="#fff" d="M231.43 122.287H52.96v154.275h219.81l-41.34-154.275Z"/><path fill="#DADADA" d="M237.26 116.457H58.785v154.275h219.81L237.26 116.457Z" style="mix-blend-mode:multiply"/><path fill="#222" d="M272.77 277.942H52.96a1.38 1.38 0 0 1-1.38-1.385v-154.27c0-.765.62-1.385 1.38-1.385h178.47c.625 0 1.175.42 1.335 1.025L274.1 276.202c.11.415.025.86-.24 1.2-.26.34-.665.54-1.095.54h.005Zm-218.425-2.765H270.97l-40.595-151.51H54.34v151.51h.005Z" style="mix-blend-mode:multiply"/><path fill="#222" d="M272.765 297.028H52.96a1.38 1.38 0 0 1-1.38-1.385c0-.765.62-1.385 1.38-1.385h219.805c.765 0 1.38.62 1.38 1.385s-.62 1.385-1.38 1.385Z"/><path fill="#222" d="M272.765 303.722a1.38 1.38 0 0 1-1.38-1.385v-13.385c0-.765.62-1.385 1.38-1.385.76 0 1.38.62 1.38 1.385v13.385c0 .765-.62 1.385-1.38 1.385ZM52.96 303.722a1.38 1.38 0 0 1-1.38-1.385v-13.385c0-.765.62-1.385 1.38-1.385.76 0 1.38.62 1.38 1.385v13.385c0 .765-.62 1.385-1.38 1.385Z"/><path fill="#FF3158" d="M239.97 52.983h49.325l73.69 275.005h-49.33L239.97 52.983Z"/><path fill="#222" d="M362.985 329.368h-49.33a1.38 1.38 0 0 1-1.335-1.024l-73.69-275a1.386 1.386 0 0 1 1.335-1.74h49.33c.625 0 1.175.42 1.335 1.025l73.685 275c.11.415.025.86-.24 1.2-.26.34-.665.539-1.095.539h.005Zm-48.27-2.764h46.465L288.235 54.368H241.77l72.945 272.236Z"/><path fill="#222" d="M307.295 243.663H290.69a1.38 1.38 0 0 1-1.38-1.385c0-.765.62-1.385 1.38-1.385h16.605c.765 0 1.38.62 1.38 1.385s-.62 1.385-1.38 1.385ZM302.7 226.518h-16.605a1.38 1.38 0 0 1-1.38-1.385c0-.765.62-1.385 1.38-1.385H302.7c.765 0 1.38.62 1.38 1.385s-.62 1.385-1.38 1.385ZM298.105 209.377H281.5a1.38 1.38 0 0 1-1.38-1.385c0-.765.62-1.385 1.38-1.385h16.605c.765 0 1.38.62 1.38 1.385s-.62 1.385-1.38 1.385ZM307.295 192.238H276.91a1.38 1.38 0 0 1-1.38-1.385c0-.765.62-1.385 1.38-1.385h30.385c.765 0 1.38.62 1.38 1.385s-.62 1.385-1.38 1.385ZM325.665 312.228H309.06a1.38 1.38 0 0 1-1.38-1.385c0-.765.62-1.385 1.38-1.385h16.605c.765 0 1.38.62 1.38 1.385s-.62 1.385-1.38 1.385ZM321.07 295.082h-16.605a1.38 1.38 0 0 1-1.38-1.384c0-.765.62-1.386 1.38-1.386h16.605c.765 0 1.38.621 1.38 1.386 0 .765-.62 1.384-1.38 1.384ZM316.48 277.944h-16.605a1.38 1.38 0 0 1-1.38-1.385c0-.765.62-1.385 1.38-1.385h16.605c.765 0 1.38.62 1.38 1.385s-.62 1.385-1.38 1.385ZM325.665 260.803H295.28a1.38 1.38 0 0 1-1.38-1.385c0-.765.62-1.385 1.38-1.385h30.385c.765 0 1.38.62 1.38 1.385s-.62 1.385-1.38 1.385ZM288.92 175.092h-16.605a1.38 1.38 0 0 1-1.38-1.385c0-.765.62-1.385 1.38-1.385h16.605c.765 0 1.38.62 1.38 1.385s-.62 1.385-1.38 1.385ZM284.33 157.953h-16.605a1.38 1.38 0 0 1-1.38-1.385c0-.765.62-1.385 1.38-1.385h16.605c.765 0 1.38.62 1.38 1.385s-.62 1.385-1.38 1.385ZM279.735 140.813H263.13a1.38 1.38 0 0 1-1.38-1.385c0-.765.62-1.385 1.38-1.385h16.605c.765 0 1.38.62 1.38 1.385s-.62 1.385-1.38 1.385ZM288.92 123.667h-30.385a1.38 1.38 0 0 1-1.38-1.385c0-.765.62-1.385 1.38-1.385h30.385c.765 0 1.38.62 1.38 1.385s-.62 1.385-1.38 1.385ZM270.55 106.528h-16.605a1.38 1.38 0 0 1-1.38-1.385c0-.765.62-1.385 1.38-1.385h16.605c.765 0 1.38.62 1.38 1.385s-.62 1.385-1.38 1.385ZM265.955 89.387H249.35a1.38 1.38 0 0 1-1.38-1.385c0-.765.62-1.385 1.38-1.385h16.605c.765 0 1.38.62 1.38 1.385s-.62 1.385-1.38 1.385ZM261.365 72.243H244.76a1.38 1.38 0 0 1-1.38-1.385c0-.765.62-1.385 1.38-1.385h16.605c.765 0 1.38.62 1.38 1.385s-.62 1.385-1.38 1.385Z"/><path fill="#444" d="M209.83 262.962c18.355 0 33.235-14.88 33.235-33.235 0-18.355-14.88-33.235-33.235-33.235-18.355 0-33.235 14.88-33.235 33.235 0 18.355 14.88 33.235 33.235 33.235Z"/><path fill="#222" d="M209.83 264.347c-19.09 0-34.62-15.53-34.62-34.62 0-19.09 15.53-34.62 34.62-34.62 19.09 0 34.62 15.53 34.62 34.62 0 19.09-15.53 34.62-34.62 34.62Zm0-66.475c-17.565 0-31.855 14.29-31.855 31.855s14.29 31.855 31.855 31.855 31.855-14.29 31.855-31.855-14.29-31.855-31.855-31.855Z"/><path fill="#fff" d="M230.635 223.487H216.07v-14.565h-12.48v14.565h-14.56v12.48h14.56v14.56h12.48v-14.56h14.565v-12.48Z"/><path fill="#222" d="M216.07 251.912h-12.48a1.38 1.38 0 0 1-1.38-1.385v-13.18h-13.18a1.38 1.38 0 0 1-1.38-1.385v-12.48c0-.765.62-1.385 1.38-1.385h13.18v-13.18c0-.765.62-1.385 1.38-1.385h12.48c.765 0 1.38.62 1.38 1.385v13.18h13.18c.765 0 1.38.62 1.38 1.385v12.48c0 .765-.62 1.385-1.38 1.385h-13.18v13.18c0 .765-.62 1.385-1.38 1.385Zm-11.095-2.765h9.715v-13.18c0-.765.62-1.385 1.38-1.385h13.18v-9.715h-13.18a1.38 1.38 0 0 1-1.38-1.385v-13.18h-9.715v13.18c0 .765-.62 1.385-1.38 1.385h-13.18v9.715h13.18c.765 0 1.38.62 1.38 1.385v13.18Z"/></svg>