<svg xmlns="http://www.w3.org/2000/svg" width="400" height="401" fill="none" viewBox="0 0 400 401"><path fill="#fff" d="M258.26 139.155H88.755V285.68h208.77L258.26 139.155Z"/><path fill="#fff" d="M223.68 96.395H123.335a5.31 5.31 0 0 0-5.31 5.31V180.3a5.31 5.31 0 0 0 5.31 5.31H223.68a5.31 5.31 0 0 0 5.31-5.31v-78.595a5.31 5.31 0 0 0-5.31-5.31Z"/><path fill="#DADADA" d="M263.795 133.62H94.285v146.53H303.06l-39.265-146.53Z" style="mix-blend-mode:multiply"/><path fill="#222" d="M297.525 287.065H88.755c-.765 0-1.385-.62-1.385-1.385V139.155c0-.765.62-1.385 1.385-1.385h169.51c.625 0 1.175.42 1.335 1.025l39.26 146.525c.11.415.025.86-.24 1.2-.26.34-.665.54-1.095.54v.005ZM90.135 284.3H295.72L257.2 140.54H90.135V284.3Z" style="mix-blend-mode:multiply"/><path fill="#222" d="M297.52 305.19H88.755a1.385 1.385 0 1 1 0-2.77H297.52a1.385 1.385 0 1 1 0 2.77Z"/><path fill="#222" d="M297.52 311.55c-.765 0-1.385-.62-1.385-1.385V297.45a1.385 1.385 0 1 1 2.77 0v12.715c0 .765-.62 1.385-1.385 1.385ZM88.755 311.55c-.765 0-1.385-.62-1.385-1.385V297.45a1.385 1.385 0 1 1 2.77 0v12.715c0 .765-.62 1.385-1.385 1.385ZM228.99 81.075c-.765 0-1.385-.62-1.385-1.385V66.975a1.385 1.385 0 1 1 2.77 0V79.69c0 .765-.62 1.385-1.385 1.385Z"/><path fill="#222" d="M228.99 74.715H118.025a1.385 1.385 0 1 1 0-2.77H228.99a1.385 1.385 0 1 1 0 2.77Z"/><path fill="#222" d="M118.025 81.075c-.765 0-1.385-.62-1.385-1.385V66.975a1.385 1.385 0 1 1 2.77 0V79.69c0 .765-.62 1.385-1.385 1.385Z"/><path fill="#FF3158" d="M63.64 73.335H16.79v261.19h46.85V73.335Z"/><path fill="#222" d="M63.645 335.905H16.79c-.765 0-1.385-.62-1.385-1.385V73.335c0-.765.62-1.385 1.385-1.385h46.855c.765 0 1.385.62 1.385 1.385v261.19c0 .765-.62 1.385-1.385 1.385v-.005Zm-45.47-2.765H62.26V74.715H18.175V333.14Z"/><path fill="#222" d="M63.645 156.12h-15.77a1.385 1.385 0 1 1 0-2.77h15.77a1.385 1.385 0 1 1 0 2.77ZM63.645 172.4h-15.77a1.385 1.385 0 1 1 0-2.77h15.77a1.385 1.385 0 1 1 0 2.77ZM63.645 188.68h-15.77a1.385 1.385 0 1 1 0-2.77h15.77a1.385 1.385 0 1 1 0 2.77ZM63.645 204.96h-28.86a1.385 1.385 0 1 1 0-2.77h28.86a1.385 1.385 0 1 1 0 2.77ZM63.645 90.995h-15.77a1.385 1.385 0 1 1 0-2.77h15.77a1.385 1.385 0 1 1 0 2.77ZM63.645 107.275h-15.77a1.385 1.385 0 1 1 0-2.77h15.77a1.385 1.385 0 1 1 0 2.77ZM63.645 123.56h-15.77a1.385 1.385 0 1 1 0-2.77h15.77a1.385 1.385 0 1 1 0 2.77ZM63.645 139.84h-28.86a1.385 1.385 0 1 1 0-2.77h28.86a1.385 1.385 0 1 1 0 2.77ZM63.645 221.245h-15.77a1.385 1.385 0 1 1 0-2.77h15.77a1.385 1.385 0 1 1 0 2.77ZM63.645 237.525h-15.77a1.385 1.385 0 1 1 0-2.77h15.77a1.385 1.385 0 1 1 0 2.77ZM63.645 253.805h-15.77a1.385 1.385 0 1 1 0-2.77h15.77a1.385 1.385 0 1 1 0 2.77ZM63.645 270.085h-28.86a1.385 1.385 0 1 1 0-2.77h28.86a1.385 1.385 0 1 1 0 2.77ZM63.645 286.365h-15.77a1.385 1.385 0 1 1 0-2.77h15.77a1.385 1.385 0 1 1 0 2.77ZM63.645 302.645h-15.77a1.385 1.385 0 1 1 0-2.77h15.77a1.385 1.385 0 1 1 0 2.77ZM63.645 318.925h-15.77a1.385 1.385 0 1 1 0-2.77h15.77a1.385 1.385 0 1 1 0 2.77Z"/><path fill="#FF3158" d="M266.37 73.335h46.85l69.99 261.19h-46.855L266.37 73.335Z"/><path fill="#222" d="M383.21 335.905h-46.85a1.38 1.38 0 0 1-1.335-1.025l-69.99-261.19c-.11-.415-.025-.86.24-1.2.26-.34.665-.54 1.095-.54h46.85c.625 0 1.175.42 1.335 1.025l69.985 261.19c.11.415.025.86-.24 1.2-.26.34-.665.54-1.095.54h.005Zm-45.79-2.765h43.99L312.16 74.715h-43.99l69.245 258.425h.005Z"/><path fill="#222" d="M330.315 254.505h-15.77a1.385 1.385 0 1 1 0-2.77h15.77a1.385 1.385 0 1 1 0 2.77ZM325.95 238.22h-15.77a1.385 1.385 0 1 1 0-2.77h15.77a1.385 1.385 0 1 1 0 2.77ZM321.59 221.94h-15.77a1.385 1.385 0 1 1 0-2.77h15.77a1.385 1.385 0 1 1 0 2.77ZM330.315 205.66h-28.86a1.385 1.385 0 1 1 0-2.77h28.86a1.385 1.385 0 1 1 0 2.77ZM347.764 319.625h-15.77a1.385 1.385 0 1 1 0-2.77h15.77a1.385 1.385 0 1 1 0 2.77ZM343.4 303.345h-15.77a1.385 1.385 0 1 1 0-2.77h15.77a1.385 1.385 0 1 1 0 2.77ZM339.04 287.065h-15.77a1.385 1.385 0 1 1 0-2.77h15.77a1.384 1.384 0 0 1 0 2.77ZM347.765 270.785h-28.86a1.385 1.385 0 1 1 0-2.77h28.86a1.385 1.385 0 1 1 0 2.77ZM312.864 189.38h-15.77a1.385 1.385 0 1 1 0-2.77h15.77a1.385 1.385 0 1 1 0 2.77ZM308.505 173.1h-15.77a1.385 1.385 0 1 1 0-2.77h15.77a1.385 1.385 0 1 1 0 2.77ZM304.14 156.82h-15.77a1.385 1.385 0 1 1 0-2.77h15.77a1.385 1.385 0 1 1 0 2.77ZM312.865 140.54h-28.86a1.385 1.385 0 1 1 0-2.77h28.86a1.385 1.385 0 1 1 0 2.77ZM295.415 124.255h-15.77a1.385 1.385 0 1 1 0-2.77h15.77a1.385 1.385 0 1 1 0 2.77ZM291.055 107.975h-15.77a1.385 1.385 0 1 1 0-2.77h15.77a1.385 1.385 0 1 1 0 2.77ZM286.69 91.695h-15.77a1.385 1.385 0 1 1 0-2.77h15.77a1.385 1.385 0 1 1 0 2.77ZM223.68 186.99H123.335c-3.69 0-6.69-3-6.69-6.69v-78.6c0-3.69 3-6.69 6.69-6.69h100.35c3.69 0 6.69 3 6.69 6.69v78.595c0 3.69-3 6.69-6.69 6.69l-.005.005ZM123.335 97.775a3.929 3.929 0 0 0-3.925 3.925v78.595a3.928 3.928 0 0 0 3.925 3.925h100.35a3.928 3.928 0 0 0 3.925-3.925V101.7a3.929 3.929 0 0 0-3.925-3.925h-100.35Z"/><path fill="#444" d="M237.745 272.77c17.435 0 31.57-14.134 31.57-31.57s-14.135-31.57-31.57-31.57c-17.436 0-31.57 14.134-31.57 31.57s14.134 31.57 31.57 31.57Z"/><path fill="#222" d="M237.745 274.15c-18.17 0-32.95-14.78-32.95-32.95s14.78-32.95 32.95-32.95 32.95 14.78 32.95 32.95-14.78 32.95-32.95 32.95Zm0-63.135c-16.645 0-30.185 13.54-30.185 30.185s13.54 30.185 30.185 30.185 30.185-13.54 30.185-30.185-13.54-30.185-30.185-30.185Z"/><path fill="#fff" d="M257.505 235.275H243.67V221.44h-11.85v13.835h-13.83v11.85h13.83v13.835h11.85v-13.835h13.835v-11.85Z"/><path fill="#222" d="M243.67 262.34h-11.85c-.765 0-1.385-.62-1.385-1.385v-12.45h-12.45c-.765 0-1.385-.62-1.385-1.385v-11.85c0-.765.62-1.385 1.385-1.385h12.45v-12.45c0-.765.62-1.385 1.385-1.385h11.85c.765 0 1.385.62 1.385 1.385v12.45h12.45c.765 0 1.385.62 1.385 1.385v11.85c0 .765-.62 1.385-1.385 1.385h-12.45v12.45c0 .765-.62 1.385-1.385 1.385Zm-10.47-2.765h9.085v-12.45c0-.765.62-1.385 1.385-1.385h12.45v-9.085h-12.45c-.765 0-1.385-.62-1.385-1.385v-12.45H233.2v12.45c0 .765-.62 1.385-1.385 1.385h-12.45v9.085h12.45c.765 0 1.385.62 1.385 1.385v12.45Z"/></svg>