<svg xmlns="http://www.w3.org/2000/svg" width="400" height="400" fill="none" viewBox="0 0 400 400"><path fill="#fff" d="M258.261 138.405H88.756V284.93h208.77l-39.265-146.525Z"/><path fill="#fff" d="M223.681 95.645H123.336a5.31 5.31 0 0 0-5.31 5.31v78.595a5.31 5.31 0 0 0 5.31 5.31h100.345a5.31 5.31 0 0 0 5.31-5.31v-78.595a5.31 5.31 0 0 0-5.31-5.31Z"/><path fill="#DADADA" d="M263.796 132.87H94.286V279.4h208.775l-39.265-146.53Z" style="mix-blend-mode:multiply"/><path fill="#222" d="M297.526 286.315H88.756c-.765 0-1.385-.62-1.385-1.385V138.405c0-.765.62-1.385 1.385-1.385h169.51c.625 0 1.175.42 1.335 1.025l39.26 146.525c.11.415.025.86-.24 1.2-.26.34-.665.54-1.095.54v.005Zm-207.39-2.765h205.585l-38.52-143.76H90.136v143.76Z" style="mix-blend-mode:multiply"/><path fill="#DADADA" d="M297.521 304.44H88.756a1.385 1.385 0 1 1 0-2.77h208.765a1.385 1.385 0 1 1 0 2.77Z"/><path fill="#DADADA" d="M297.521 310.8c-.765 0-1.385-.62-1.385-1.385V296.7a1.385 1.385 0 1 1 2.77 0v12.715c0 .765-.62 1.385-1.385 1.385ZM88.756 310.8c-.765 0-1.385-.62-1.385-1.385V296.7a1.385 1.385 0 1 1 2.77 0v12.715c0 .765-.62 1.385-1.385 1.385ZM228.991 80.325c-.765 0-1.385-.62-1.385-1.385V66.225a1.385 1.385 0 1 1 2.77 0V78.94c0 .765-.62 1.385-1.385 1.385Z"/><path fill="#DADADA" d="M228.991 73.965H118.026a1.385 1.385 0 1 1 0-2.77h110.965a1.385 1.385 0 1 1 0 2.77Z"/><path fill="#DADADA" d="M118.026 80.325c-.765 0-1.385-.62-1.385-1.385V66.225a1.385 1.385 0 1 1 2.77 0V78.94c0 .765-.62 1.385-1.385 1.385Z"/><path fill="#FF3158" d="M63.642 72.585h-46.85v261.19h46.85V72.585Z"/><path fill="#222" d="M63.647 335.155H16.792c-.765 0-1.385-.62-1.385-1.385V72.585c0-.765.62-1.385 1.385-1.385h46.855c.765 0 1.385.62 1.385 1.385v261.19c0 .765-.62 1.385-1.385 1.385v-.005Zm-45.47-2.765h44.085V73.965H18.177V332.39Z"/><path fill="#222" d="M63.646 155.371h-15.77a1.385 1.385 0 1 1 0-2.77h15.77a1.385 1.385 0 1 1 0 2.77ZM63.646 171.65h-15.77a1.385 1.385 0 1 1 0-2.77h15.77a1.385 1.385 0 1 1 0 2.77ZM63.646 187.93h-15.77a1.385 1.385 0 1 1 0-2.77h15.77a1.385 1.385 0 1 1 0 2.77ZM63.646 204.21h-28.86a1.385 1.385 0 1 1 0-2.77h28.86a1.385 1.385 0 1 1 0 2.77ZM63.646 90.246h-15.77a1.385 1.385 0 1 1 0-2.77h15.77a1.385 1.385 0 1 1 0 2.77ZM63.646 106.526h-15.77a1.385 1.385 0 1 1 0-2.77h15.77a1.385 1.385 0 1 1 0 2.77ZM63.646 122.811h-15.77a1.385 1.385 0 1 1 0-2.77h15.77a1.385 1.385 0 1 1 0 2.77ZM63.646 139.09h-28.86a1.385 1.385 0 1 1 0-2.77h28.86a1.385 1.385 0 1 1 0 2.77ZM63.646 220.496h-15.77a1.385 1.385 0 1 1 0-2.77h15.77a1.385 1.385 0 1 1 0 2.77ZM63.646 236.775h-15.77a1.385 1.385 0 1 1 0-2.77h15.77a1.385 1.385 0 1 1 0 2.77ZM63.646 253.055h-15.77a1.385 1.385 0 1 1 0-2.77h15.77a1.385 1.385 0 1 1 0 2.77ZM63.646 269.335h-28.86a1.385 1.385 0 1 1 0-2.77h28.86a1.385 1.385 0 1 1 0 2.77ZM63.646 285.615h-15.77a1.385 1.385 0 1 1 0-2.77h15.77a1.385 1.385 0 1 1 0 2.77ZM63.646 301.895h-15.77a1.385 1.385 0 1 1 0-2.77h15.77a1.385 1.385 0 1 1 0 2.77ZM63.646 318.175h-15.77a1.385 1.385 0 1 1 0-2.77h15.77a1.385 1.385 0 1 1 0 2.77Z"/><path fill="#FF3158" d="M266.37 72.585h46.85l69.99 261.19h-46.855L266.37 72.585Z"/><path fill="#222" d="M383.21 335.155h-46.85a1.38 1.38 0 0 1-1.335-1.025l-69.99-261.19c-.11-.415-.025-.86.24-1.2.26-.34.665-.54 1.095-.54h46.85c.625 0 1.175.42 1.335 1.025l69.985 261.19c.11.415.025.86-.24 1.2-.26.34-.665.54-1.095.54h.005Zm-45.79-2.765h43.99L312.16 73.965h-43.99l69.245 258.425h.005Z"/><path fill="#222" d="M330.315 253.755h-15.77a1.385 1.385 0 1 1 0-2.77h15.77a1.385 1.385 0 1 1 0 2.77ZM325.95 237.47h-15.77a1.385 1.385 0 1 1 0-2.77h15.77a1.385 1.385 0 1 1 0 2.77ZM321.59 221.19h-15.77a1.385 1.385 0 1 1 0-2.77h15.77a1.385 1.385 0 1 1 0 2.77ZM330.315 204.91h-28.86a1.385 1.385 0 1 1 0-2.77h28.86a1.385 1.385 0 1 1 0 2.77ZM347.765 318.875h-15.77a1.385 1.385 0 1 1 0-2.77h15.77a1.385 1.385 0 1 1 0 2.77ZM343.4 302.595h-15.77a1.385 1.385 0 1 1 0-2.77h15.77a1.385 1.385 0 1 1 0 2.77ZM339.04 286.315h-15.77a1.385 1.385 0 1 1 0-2.77h15.77a1.385 1.385 0 1 1 0 2.77ZM347.765 270.035h-28.86a1.385 1.385 0 1 1 0-2.77h28.86a1.385 1.385 0 1 1 0 2.77ZM312.865 188.63h-15.77a1.385 1.385 0 1 1 0-2.77h15.77a1.385 1.385 0 1 1 0 2.77ZM308.505 172.35h-15.77a1.385 1.385 0 1 1 0-2.77h15.77a1.385 1.385 0 1 1 0 2.77ZM304.14 156.07h-15.77a1.385 1.385 0 1 1 0-2.77h15.77a1.385 1.385 0 1 1 0 2.77ZM312.865 139.79h-28.86a1.385 1.385 0 1 1 0-2.77h28.86a1.385 1.385 0 1 1 0 2.77ZM295.415 123.505h-15.77a1.385 1.385 0 1 1 0-2.77h15.77a1.385 1.385 0 1 1 0 2.77ZM291.055 107.225h-15.77a1.385 1.385 0 1 1 0-2.77h15.77a1.385 1.385 0 1 1 0 2.77ZM286.69 90.945h-15.77a1.385 1.385 0 1 1 0-2.77h15.77a1.385 1.385 0 1 1 0 2.77ZM223.681 186.24H123.336c-3.69 0-6.69-3-6.69-6.69v-78.6c0-3.69 3-6.69 6.69-6.69h100.35c3.69 0 6.69 3 6.69 6.69v78.595c0 3.69-3 6.69-6.69 6.69l-.005.005ZM123.336 97.025a3.929 3.929 0 0 0-3.925 3.925v78.595a3.928 3.928 0 0 0 3.925 3.925h100.35a3.928 3.928 0 0 0 3.925-3.925V100.95a3.929 3.929 0 0 0-3.925-3.925h-100.35Z"/><path fill="#444" d="M237.746 272.02c17.436 0 31.57-14.134 31.57-31.57s-14.134-31.57-31.57-31.57c-17.435 0-31.57 14.134-31.57 31.57s14.135 31.57 31.57 31.57Z"/><path fill="#222" d="M237.746 273.4c-18.17 0-32.95-14.78-32.95-32.95s14.78-32.95 32.95-32.95 32.95 14.78 32.95 32.95-14.78 32.95-32.95 32.95Zm0-63.135c-16.645 0-30.185 13.54-30.185 30.185s13.54 30.185 30.185 30.185 30.185-13.54 30.185-30.185-13.54-30.185-30.185-30.185Z"/><path fill="#fff" d="M257.506 234.524h-13.835v-13.835h-11.85v13.835h-13.83v11.85h13.83v13.835h11.85v-13.835h13.835v-11.85Z"/><path fill="#222" d="M243.671 261.59h-11.85c-.765 0-1.385-.62-1.385-1.385v-12.45h-12.45c-.765 0-1.385-.62-1.385-1.385v-11.85c0-.765.62-1.385 1.385-1.385h12.45v-12.45c0-.765.62-1.385 1.385-1.385h11.85c.765 0 1.385.62 1.385 1.385v12.45h12.45c.765 0 1.385.62 1.385 1.385v11.85c0 .765-.62 1.385-1.385 1.385h-12.45v12.45c0 .765-.62 1.385-1.385 1.385Zm-10.47-2.765h9.085v-12.45c0-.765.62-1.385 1.385-1.385h12.45v-9.085h-12.45c-.765 0-1.385-.62-1.385-1.385v-12.45h-9.085v12.45c0 .765-.62 1.385-1.385 1.385h-12.45v9.085h12.45c.765 0 1.385.62 1.385 1.385v12.45Z"/></svg>