<svg xmlns="http://www.w3.org/2000/svg" width="400" height="400" fill="none" viewBox="0 0 400 400"><path fill="#F5F4F3" d="M199.168 179.011 56.403 257.975l-.74-124.087 128.71-74.34c9.062-5.364 12.206-3.884 14.795-3.884V179.01Z"/><path fill="#fff" d="m199.168 179.011 142.764 78.964.74-124.087-128.71-74.34c-9.061-5.364-12.205-3.884-14.794-3.884V179.01ZM54.924 257.975l128.71 74.341a28.88 28.88 0 0 0 29.404 0l128.71-74.341"/><path fill="#DADADA" d="m341.747 257.975-128.71-74.341c-9.061-5.178-20.342-5.178-29.403 0l-127.97 74.341"/><path fill="#444" d="m325.659 281.461-111.697 64.54a28.878 28.878 0 0 1-29.403 0l-111.697-64.54-17.014 9.801 128.711 74.341a28.878 28.878 0 0 0 29.403 0l128.71-74.341-17.013-9.801Z"/><path fill="#DADADA" d="M213.777 332.316a29.422 29.422 0 0 1-29.219 0L55.663 257.975v13.685l128.71 74.341a28.88 28.88 0 0 0 29.404 0l128.71-74.341v-13.685l-128.71 74.341Z"/><path fill="#222" d="M199.168 351.364c-5.363 0-10.726-1.295-15.349-4.069l-128.71-74.341c-.37-.185-.74-.74-.74-1.109V258.16c0-.555.185-.925.74-1.11.37-.185.924-.185 1.479 0l128.895 74.342c8.507 4.993 19.233 4.993 27.739 0l128.895-74.342c.37-.185.925-.185 1.48 0 .37.185.74.74.74 1.11v13.685c0 .554-.185.924-.74 1.109l-129.08 74.341c-4.808 2.589-9.986 4.069-15.349 4.069ZM57.143 270.92l127.97 73.971a28.246 28.246 0 0 0 28.109 0l127.971-73.971v-10.541l-126.861 73.232c-9.431 5.363-21.082 5.363-30.513 0L56.958 260.379v10.541h.185Z"/><path fill="#DADADA" d="M87.286 241.701c-.185 0-.37 0-.555-.185L55.48 213.777c-.185-.185-.37-.555-.185-.925l15.164-51.41c.185-.37.37-.554.74-.739.37 0 .74.185.924.369l14.61 25.521 4.068-35.877c0-.369.185-.554.37-.739.185-.185.555-.185.74 0l28.109 12.02 21.451-36.246c.185-.185.37-.37.555-.37.185 0 .555 0 .74.185l23.486 14.979 32.362-24.04c.37-.185.74-.185.925-.185.37.185.555.555.555.74v61.766c0 .369-.185.739-.555.924-.37.185-.74 0-1.11-.185l-31.253-35.506-10.91 56.588c0 .37-.37.555-.74.74-.37.185-.74 0-.925-.185l-32.732-34.952 6.287 51.411c0 .369-.185.739-.369.924-.37.185-.74.185-.925 0l-38.65-26.999v49.191c0 .369-.185.739-.555.924h-.37Zm-30.143-28.849 29.219 25.89v-48.636l-14.795-25.89-14.424 48.636Zm31.253-23.485 37.91 26.444-6.287-51.595-27.185-11.65-4.438 36.801Zm33.472-25.89 33.102 34.951 10.726-56.033-22.746-14.425-21.082 35.507Zm46.047-21.452 30.143 34.397v-57.328l-30.143 22.931Z"/><path fill="#DADADA" d="M199.168 118.169c-.37 0-.555-.185-.74-.37l-32.547-47.156c-.37-.37-.185-.925.185-1.295.37-.37.924-.185 1.294.185l32.548 47.157c.369.37.185.924-.185 1.294-.185.185-.37.185-.555.185Z"/><path fill="#DADADA" d="M56.033 214.147c-.37 0-.555-.185-.74-.37-.37-.37-.184-.924.185-1.294l31.253-23.301 32.733-25.705-30.698-42.719 4.068 30.329v.554c0 .185-.185.37-.37.37l-20.527 10.726c-.37.185-.925 0-1.294-.37l-15.535-27.554c-.184-.37-.184-.74.186-1.11.184-.37.74-.37 1.109-.185l34.212 16.089-4.254-32.177c0-.37.185-.74.555-.925.37-.185.925 0 1.11.37l31.992 44.383 6.658-68.794c0-.37.37-.74.74-.74.369 0 .739.185.924.555l14.24 32.363 23.116-54.554c.185-.37.554-.555 1.109-.555.37 0 .74.555.74.925v71.937c0 .37-.185.74-.555.925l-45.862 21.081-33.287 26.075-31.253 23.486c-.185 0-.37.185-.555.185Zm72.122-118.169-6.472 66.019 44.013-20.712V74.526l-22.192 52.335c-.185.37-.555.555-.924.555-.37 0-.74-.185-.925-.555l-13.5-30.883Zm-70.273 40.314 13.685 24.411 18.123-9.431-31.807-14.98ZM309.57 241.701h-.37a1.017 1.017 0 0 1-.555-.924v-49.191l-38.65 26.814c-.37.185-.739.185-.924 0-.37-.185-.555-.554-.37-.924l6.287-51.41-32.732 34.766c-.185.185-.555.37-.925.185-.369-.185-.554-.37-.739-.74l-10.911-56.588-31.253 35.506c-.185.37-.74.37-1.11.185a1.017 1.017 0 0 1-.554-.924v-61.212c0-.369.185-.739.554-.739.37-.185.74-.185.925.185l31.993 24.41 23.486-14.979c.185-.185.554-.185.739-.185.185 0 .37.185.555.37l21.452 36.246 28.109-12.02c.185-.185.555-.185.74 0 .185.185.369.369.369.739l4.069 35.876 14.609-25.52c.185-.37.555-.555.925-.37.37 0 .74.37.74.74l15.164 51.41c.185.37 0 .74-.185.925l-31.253 27.554c.185-.37 0-.185-.185-.185Zm.925-51.78v48.636l29.218-25.889-14.424-48.822-14.794 26.075Zm-33.472-25.705-6.288 51.595 37.91-26.444-4.253-36.801-27.369 11.65Zm-45.678-21.821 10.726 56.033 33.102-34.951-21.082-35.507-22.746 14.425Zm-32.732-23.301v57.328l30.143-34.397-30.143-22.931Z"/><path fill="#DADADA" d="M197.688 118.169c-.185 0-.369 0-.554-.185-.37-.37-.555-.924-.185-1.294l32.547-47.157c.37-.37.925-.555 1.295-.185.369.37.554.925.184 1.295l-32.547 47.156c0 .185-.37.37-.74.37Z"/><path fill="#DADADA" d="M340.823 214.147c-.185 0-.37 0-.555-.185l-31.253-23.486-33.287-26.26-45.862-21.451a1.017 1.017 0 0 1-.555-.925V70.088c0-.37.37-.74.74-.925.37 0 .924.185 1.109.555l23.116 54.554 14.24-32.363c.185-.37.555-.555.924-.555.37 0 .74.37.74.74l6.658 68.794 31.992-44.383c.185-.37.74-.555 1.11-.37.37.185.555.555.555.925l-4.254 32.177 34.582-16.274c.37-.185.74 0 1.109.185.185.37.37.74.185 1.11l-15.534 27.554c-.185.37-.739.555-1.294.37l-20.527-10.726a.398.398 0 0 1-.37-.37v-.554l4.068-30.329-30.698 42.534 32.733 25.705 31.252 23.301c.37.37.555.924.185 1.294-.554.925-.924 1.11-1.109 1.11ZM231.16 141.285l44.013 20.712-6.472-66.02-13.685 31.069c-.185.37-.555.554-.925.554-.369 0-.739-.184-.924-.554l-22.192-52.335v66.574h.185Zm76.006 9.801 18.123 9.432 13.685-24.411-31.808 14.979Z"/><path fill="#222" d="M342.487 265.187c-.739 0-1.479-.554-1.479-1.479v-128.71l-129.08-74.526c-7.952-4.624-17.938-4.624-25.89 0L57.143 134.998v128.895c0 .74-.555 1.479-1.48 1.479-.924 0-1.479-.555-1.479-1.479v-129.82c0-.555.185-.925.74-1.109l129.819-74.896a28.388 28.388 0 0 1 28.664 0l129.82 74.896c.37.184.74.739.74 1.109v129.635c0 .925-.555 1.479-1.48 1.479Z"/><path fill="#DADADA" d="M172.723 326.399c-.185 0-.37 0-.555-.185-.37-.185-.554-.74-.369-1.295l21.821-36.431-46.417 20.712c-.37.185-.555.185-.925 0-.185-.185-.369-.555-.369-.74v-48.451l-33.842 30.883c-.37.185-.74.37-1.11.185a1.017 1.017 0 0 1-.555-.924l5.363-31.068H57.513c-.555 0-.925-.37-.925-.925s.37-.925.925-.925h59.547c.185 0 .554.185.739.37.185.185.185.555.185.74l-5.178 29.588 33.472-30.328c.185-.185.74-.37.925-.185.37.185.555.555.555.925v48.636l47.711-21.267c.37-.185.74 0 1.11.185.185.37.37.74.185 1.11l-23.301 39.02c-.185.185-.555.37-.74.37Z"/><path fill="#DADADA" d="M146.833 309.385c-.185 0-.37 0-.37-.185-.37-.185-.555-.74-.37-1.294l25.336-49.006h-24.596c-.555 0-.925-.37-.925-.925s.37-.925.925-.925h26.075c.37 0 .555.185.74.37.185.185.185.555 0 .925l-25.89 50.485c-.185.37-.555.555-.925.555ZM233.934 237.818h-.369l-52.705-20.527a1.017 1.017 0 0 1-.555-.925c0-.37.37-.74.74-.925l39.575-10.171c.369-.185.924.185 1.109.555l13.13 30.698c.185.37 0 .74-.185.925-.185.185-.37.37-.74.37Zm-49.56-21.452 47.896 18.678-11.835-27.924-36.061 9.246Z"/><path fill="#DADADA" d="M198.243 337.124h-.37c-.369-.185-.554-.369-.554-.739l-2.404-49.746c0-.37.184-.555.369-.74.185-.185.555-.185.74-.185l36.431 9.617-12.575-36.986v-.74l13.13-20.897-12.945-30.328c-.185-.37 0-.925.37-1.109.37-.185.739-.185 1.109 0l61.766 51.779c.185.185.37.37.37.555v.555l-20.527 46.047c-.185.37-.555.555-1.109.555l-27.555-7.212-35.321 39.205c-.37.185-.555.369-.925.369Zm-1.294-49.375 2.219 46.232 33.102-36.801-35.321-9.431Zm37.725 7.951 27 7.028 19.602-44.013h-59.177l12.575 36.985Zm-12.205-38.65h57.698l-56.958-47.711 11.65 27.184c.185.185.185.555 0 .925l-12.39 19.602Z"/><path fill="#DADADA" d="M233.934 297.365c-.185 0-.555-.185-.739-.37-.37-.37-.185-.925.184-1.295l48.822-38.65c.369-.37.924-.185 1.294.185s.185.925-.185 1.295l-48.821 38.65c-.185.185-.37.185-.555.185Z"/><path fill="#DADADA" d="M301.063 282.385c-.185 0-.554-.184-.739-.369l-18.308-23.486c-.185-.37-.185-.74-.185-.925 0-.185.555-.555.74-.555h59.916c.555 0 .925.37.925.925s-.37.925-.925.925h-57.882l17.198 22.006c.37.37.185.925-.185 1.295-.185.184-.37.184-.555.184ZM111.512 291.077c-.37 0-.555-.185-.74-.369l-24.04-32.363c-.186-.185-.186-.37-.186-.555v-17.013c0-.37.185-.555.37-.74.37-.185.555-.185.925 0l29.588 17.014h29.034l8.322-13.315c.185-.185.37-.37.555-.37.185 0 .555 0 .739.185l16.459 12.945 7.952-27.37c.185-.369.555-.739 1.11-.739l52.704 7.582c.37 0 .74.37.74.739 0 .37-.185.74-.555.925l-56.033 19.418h42.348c.37 0 .74.185.925.554.185.37.185.74-.185.925l-24.965 28.479c-.185.185-.555.37-.74.37-.185 0-.555-.185-.74-.37l-22.931-28.479-16.643-13.13-7.952 12.945c-.185.185-.555.37-.74.37H117.06c-.185 0-.37 0-.37-.185l-28.294-16.459v15.165l24.04 31.992c.37.37.185.925-.185 1.295-.369.554-.554.554-.739.554Zm63.43-32.177 21.082 26.26 22.931-26.26h-44.013Zm7.027-28.664-7.582 26.26 55.664-19.233-48.082-7.027Z"/><path fill="#DADADA" d="M117.06 258.9c-.185 0-.37-.001-.555-.185-.185-.185-.37-.555-.185-.925l10.356-40.314c0-.37.37-.555.555-.74.37 0 .739 0 .924.185l28.11 26.445c.184.184.369.554.184.924 0 .37-.369.555-.554.74L117.43 258.9h-.37Zm10.91-39.39-9.431 36.985 35.321-12.76-25.89-24.225Z"/><path fill="#DADADA" d="M155.34 245.03c-.185 0-.37 0-.37-.185-.37-.185-.37-.555-.37-.74v-43.828c0-.37.185-.554.555-.739.37-.185.74-.185.925 0l25.889 15.903c.185.185.37.555.37.74v12.945c0 .37-.185.555-.37.74l-25.889 14.979c-.37.185-.555.185-.74.185Zm.924-43.088v40.499l24.041-13.87v-11.835l-24.041-14.794Z"/><path fill="#DADADA" d="M181.23 217.291c-.37 0-.925-.37-.925-.74l-4.438-28.294c0-.37 0-.74.37-.925.185-.185.555-.185.924-.185l40.87 16.644-19.603-24.411c-.37-.369-.185-.924.185-1.294s.925-.185 1.295.185l21.821 27.184c.185.37.185.74 0 1.11-.185.37-.74.555-1.109.37l-42.534-17.384 4.253 26.63c0 .37-.369.925-1.109 1.11.185 0 .185-.185 0 0Z"/><path fill="#222" d="M199.168 337.679c-5.363 0-10.726-1.294-15.349-4.068L55.109 259.27c-.37-.185-.74-.74-.74-1.11 0-.37.185-.925.74-1.11l128.71-74.341c9.431-5.548 21.266-5.548 30.883 0l128.71 74.341c.37.185.74.74.74 1.11 0 .37-.185.925-.74 1.11l-128.895 74.156c-4.808 2.774-9.986 4.253-15.349 4.253Zm-140.73-79.704 126.675 73.047a28.246 28.246 0 0 0 28.109 0l126.676-73.047-126.676-73.047a28.246 28.246 0 0 0-28.109 0L58.437 257.975Z"/><path fill="#FF0052" d="m312.714 220.989-33.472 19.048v20.527l33.472-19.048v-20.527Z"/><path fill="#222" d="M279.242 262.044c-.185 0-.555 0-.74-.185-.37-.185-.74-.74-.74-1.11v-20.527c0-.555.185-.925.74-1.294l33.472-19.048c.37-.185.925-.185 1.295 0 .37.185.739.74.739 1.109v20.343c0 .554-.185.924-.739 1.294l-33.472 19.233s-.185.185-.555.185Zm1.479-21.082v17.383l30.698-17.568v-17.199l-30.698 17.384Z"/><path fill="#FF0052" d="m296.07 211.373-33.472 19.233 16.644 9.431 33.472-19.048-16.644-9.616Z"/><path fill="#222" d="M279.242 241.516c-.185 0-.555 0-.74-.184l-16.643-9.617c-.37-.185-.74-.739-.74-1.294s.185-.925.74-1.295l33.472-19.047c.369-.185.924-.185 1.294 0l16.644 9.616c.37.185.739.74.739 1.294 0 .555-.185.925-.739 1.295l-33.472 19.048c0 .184-.185.184-.555.184Zm-13.87-10.91 13.87 7.952 30.698-17.569-13.87-7.952-30.698 17.569Z"/><path fill="#FF0052" d="m296.07 190.846-33.472 19.232v20.527l33.472-19.232v-20.527Z"/><path fill="#222" d="M262.598 231.9c-.185 0-.554 0-.739-.185-.37-.185-.74-.74-.74-1.109v-20.528c0-.554.185-.924.74-1.294l33.472-19.048c.369-.185.924-.185 1.294 0s.74.74.74 1.11v20.527c0 .555-.185.925-.74 1.294L263.153 231.9h-.555Zm1.295-21.082v17.383l30.698-17.568v-17.198l-30.698 17.383Z"/><path fill="#FF0052" d="m279.242 160.703-33.472 19.232v20.527l33.472-19.232v-20.527Z"/><path fill="#222" d="M245.77 201.757c-.185 0-.555 0-.74-.185-.37-.185-.74-.74-.74-1.11v-20.527c0-.554.185-.924.74-1.294l33.472-19.048c.37-.185.925-.185 1.295 0 .369.185.739.74.739 1.11v20.342c0 .555-.185.925-.739 1.294l-33.288 19.233c-.185.185-.369.185-.739.185Zm1.479-21.082v17.383l30.698-17.568v-17.198l-30.698 17.383Z"/><path fill="#FF0052" d="m237.633 117.43-33.472 19.047 24.78 13.5 33.472-19.232-24.78-13.315Z"/><path fill="#222" d="M228.941 151.272c-.185 0-.37 0-.739-.185l-24.781-13.315c-.37-.185-.74-.74-.74-1.295 0-.555.185-.924.74-1.294l33.472-19.233c.37-.185.925-.185 1.295 0l24.78 13.315c.37.185.74.74.74 1.295 0 .554-.185.924-.74 1.294l-33.472 19.048c0 .37-.185.37-.555.37Zm-22.006-14.795 22.006 11.836 30.698-17.569-22.006-11.835-30.698 17.568Z"/><path fill="#FF0052" d="m262.413 130.744-33.472 19.233v20.527l33.472-19.233v-20.527Z"/><path fill="#222" d="M228.941 171.798c-.185 0-.554 0-.739-.184-.37-.185-.74-.74-.74-1.11v-20.527c0-.555.185-.925.74-1.295l33.472-19.047c.37-.185.924-.185 1.294 0s.74.74.74 1.109v20.342c0 .555-.185.925-.74 1.295l-33.472 19.233c0 .184-.185.184-.555.184Zm1.48-21.081V168.1l30.698-17.568v-17.384l-30.698 17.569Z"/><path fill="#FF0052" d="M262.598 230.421v-20.342l-16.828-9.802v-20.342l-16.644-9.616v-20.527l-24.965-13.315v80.074l75.081 44.013v-20.342l-16.644-9.801Z"/><path fill="#222" d="M279.242 261.859c-.185 0-.555 0-.74-.185l-75.081-43.828c-.37-.185-.74-.74-.74-1.11v-80.259c0-.555.185-.924.74-1.109.37-.185.925-.185 1.295 0l24.965 13.13c.37.185.74.739.74 1.294v19.787l16.088 9.247c.37.185.74.74.74 1.109v19.603l16.089 9.246c.37.185.74.74.74 1.11v19.417l16.088 9.432c.37.185.74.739.74 1.109v20.342c0 .555-.185.925-.74 1.295-.369.37-.554.37-.924.37Zm-73.602-46.047 72.307 42.348v-17.198l-16.089-9.432c-.369-.184-.739-.739-.739-1.109v-19.603l-16.089-9.246c-.37-.185-.74-.74-.74-1.11V180.86l-16.088-9.246c-.37-.185-.74-.74-.74-1.11v-19.972l-22.192-11.836v77.116h.37Z"/><path fill="#FF0052" d="m279.242 181.415-33.472 19.047 16.643 9.616 33.472-19.232-16.643-9.431Z"/><path fill="#222" d="M262.413 211.373c-.185 0-.555 0-.739-.185l-16.644-9.616c-.37-.185-.74-.74-.74-1.295 0-.555.185-.924.74-1.294l33.472-19.048c.37-.185.925-.185 1.295 0l16.643 9.616c.37.185.74.74.74 1.295 0 .555-.185.924-.74 1.294l-33.472 19.048c0 .185-.185.185-.555.185Zm-13.869-10.911 13.869 7.952 30.698-17.568-13.869-7.952-30.698 17.568Z"/><path fill="#FF0052" d="m262.598 151.271-33.472 19.048 16.644 9.616 33.472-19.232-16.644-9.432Z"/><path fill="#222" d="M245.77 181.23c-.185 0-.555 0-.74-.185l-16.828-9.616c-.37-.185-.74-.74-.74-1.295 0-.555.185-.925.74-1.294l33.472-19.048c.37-.185.924-.185 1.294 0l16.644 9.616c.37.185.739.74.739 1.295 0 .555-.185.924-.739 1.294l-33.472 19.048c.185.185 0 .185-.37.185Zm-13.87-10.911 13.87 7.952 30.698-17.568-13.87-7.952-30.698 17.568ZM262.413 250.948c-.185 0-.369 0-.369-.185-.37-.185-.555-.555-.555-.74v-36.801l-16.274 27.185c-.185.37-.74.554-1.11.369-.369-.184-.739-.554-.739-.924l1.294-37.171-22.376 24.781c-.185.185-.555.37-.925.185s-.555-.37-.555-.74l-3.328-20.157-12.575 10.541c-.37.369-.925.369-1.295-.185-.37-.37-.37-.925.185-1.295l13.87-11.65c.185-.185.554-.37.924-.185s.555.37.555.739l3.329 19.973 22.931-24.966c.185-.369.74-.369 1.11-.185.369.185.554.555.554.925l-1.294 36.061 16.274-26.999c.184-.37.554-.555 1.109-.37.37.185.74.555.74.924v38.465l15.349-9.061c.37-.185.924-.185 1.294.37.185.37.185.924-.37 1.294l-16.828 9.986c-.555-.184-.74-.184-.925-.184Z"/><path fill="#222" d="M218.031 205.825c-.37 0-.555-.185-.74-.555l-13.87-25.15c-.185-.37-.185-.74.185-1.109.37-.37.74-.37 1.11-.185l41.609 20.712c.37.184.554.554.554.924s-.369.74-.739.74l-28.109 4.623Zm-11.651-24.041 12.02 22.007 24.226-3.884-36.246-18.123ZM279.242 261.488c-.185 0-.37 0-.555-.184-.37-.37-.37-.925-.185-1.295l31.808-37.54-47.712 9.061c-.37 0-.739 0-.924-.37-.185-.37-.185-.739 0-.924l13.869-28.11c.185-.369.74-.554 1.295-.369l19.602 8.876c.555.185.74.74.555 1.295-.185.554-.74.739-1.295.554l-18.862-8.506-12.575 25.52 48.451-9.247c.37 0 .74.185.924.37.185.185.185.74 0 1.11l-33.472 39.575c-.369 0-.554.184-.924.184Z"/><path fill="#222" d="M262.413 211.003c-.185 0-.369 0-.554-.185-.37-.185-.555-.74-.37-1.294l15.904-27.37-31.808-1.294-41.609-.185c-.37 0-.74-.37-.925-.74-.185-.37.185-.925.555-1.109l23.856-8.877-24.041-32.917c-.37-.37-.185-.925.185-1.295.37-.37.925-.185 1.295.185l24.965 33.842c.185.185.185.555.185.74 0 .185-.37.555-.555.555l-20.157 7.582 36.616.185 33.472 1.479c.37 0 .555.185.74.555.184.37.184.555 0 .924l-16.829 28.664c-.185.37-.555.555-.925.555Z"/><path fill="#222" d="M229.126 171.244c-.37 0-.555-.185-.74-.37-.184-.37-.184-.74 0-.925l16.644-29.958c.185-.185.37-.37.555-.37.185 0 .555 0 .74.185l16.828 10.911c.37.37.555.924.185 1.294-.37.37-.925.555-1.295.185l-16.088-10.356-15.164 27.37 48.266-9.247c.555 0 .925.185 1.109.74.185.555-.184.925-.739 1.109l-50.301 9.432Z"/><path fill="#222" d="M229.126 150.717c-.37 0-.74-.185-.925-.555l-8.136-22.931c-.185-.37 0-.74.185-.925.184-.185.554-.37.924-.185l29.959 7.952-14.24-16.089a.893.893 0 0 1 0-1.294.894.894 0 0 1 1.295 0l16.273 18.308c.185.37.37.74.185 1.109-.185.37-.555.555-1.109.37l-31.253-8.321 7.582 21.081c.185.555 0 .925-.555 1.11 0 .37-.185.37-.185.37ZM199.168 180.305c-.74 0-1.48-.555-1.48-1.479V55.478c0-.74.555-1.479 1.48-1.479.925 0 1.479.555 1.479 1.48v123.347c-.185.924-.739 1.479-1.479 1.479Z"/><path fill="#FF0052" d="m184.744 130.004-56.958 32.918v96.717l56.958-32.917v-96.718Z"/><path fill="#222" d="M127.786 261.119c-.185 0-.555 0-.74-.185-.37-.185-.74-.74-.74-1.11v-96.902c0-.555.185-.925.74-1.11l56.958-32.917c.37-.185.924-.185 1.479 0 .37.185.74.74.74 1.11v96.902c0 .555-.185.925-.74 1.11l-56.958 32.917c-.37 0-.555.185-.739.185Zm1.294-97.457v93.573l54.184-31.253v-93.573l-54.184 31.253Z"/><path fill="#FF0052" d="M147.758 108.553 90.8 141.47l36.985 21.452 56.958-32.917-36.985-21.452Z"/><path fill="#222" d="M127.785 164.217c-.185 0-.554 0-.739-.185L90.06 142.765c-.37-.185-.74-.74-.74-1.11 0-.37.185-.924.74-1.109l56.958-32.918c.37-.184.925-.184 1.479 0l36.986 21.267c.37.185.74.74.74 1.11 0 .555-.185.924-.74 1.109l-57.143 32.918c-.185.185-.37.185-.555.185ZM93.574 141.47l34.211 19.788 54.184-31.253-34.211-19.788-54.184 31.253Z"/><path fill="#FF0052" d="M90.8 141.47v96.902l36.985 21.267v-96.718L90.8 141.47Z"/><path fill="#222" d="M127.785 261.119c-.185 0-.554 0-.739-.185L90.06 239.667c-.37-.185-.74-.74-.74-1.11V141.47c0-.555.185-.925.74-1.11.37-.185.925-.185 1.48 0l36.985 21.267c.37.185.74.74.74 1.11v96.902c0 .555-.185.925-.74 1.11-.37.185-.555.37-.74.37Zm-35.69-23.671 34.211 19.787v-93.574l-34.212-19.787v93.574Z"/><path fill="#222" d="M127.785 260.564c-.369 0-.554-.185-.739-.37L90.06 211.188V210.078c0-.185.185-.185.185-.185h.185l35.136-26.259-34.766-5.548h-.37l-.37-.37v-.74l14.979-27.184c.185-.185.37-.37.555-.37h.74l22.006 12.76c.37.185.555.555.37.925 0 .369-.185.739-.555.739l-33.842 12.945 33.657 5.363c.37 0 .74.37.74.74s0 .74-.37.925l-33.102 24.595 32.178-8.877c.369 0 .554 0 .739.185.185.185.37.37.37.74v22.376c0 .37-.185.555-.37.74-.185.185-.554.185-.924.185l-34.212-11.281 35.136 46.602c.37.37.185.925-.185 1.295.185.185 0 .185-.185.185Zm-33.841-49.746 32.917 10.911v-19.787l-32.917 8.876Zm12.205-59.362-13.315 24.041 32.732-12.76-19.417-11.281Z"/><path fill="#222" d="M150.347 247.619c-.185 0-.37 0-.555-.185l-22.561-14.979c-.185-.185-.37-.37-.37-.74v-48.636c0-.185 0-.37.185-.555l20.527-32.177c.185-.37.74-.555 1.109-.37l36.616 14.794c.555.185.74.74.555 1.295-.185.554-.74.739-1.295.554l-35.876-14.424-19.972 31.253v47.711l21.267 14.055 34.027-56.588c.185-.37.739-.555 1.294-.37.37.185.555.74.37 1.295l-34.397 57.327c-.185.185-.369.37-.554.37l-.37.37Z"/><path fill="#222" d="M184.743 227.647c-.185 0-.37 0-.37-.185l-30.513-16.089c-.37-.185-.554-.37-.554-.74s.184-.554.369-.739l28.479-19.973-33.842-4.068c-.554 0-.924-.555-.739-1.11 0-.554.555-.924 1.109-.739l36.246 4.253c.37 0 .74.37.74.74s0 .739-.37.924l-29.219 20.527 29.219 15.349c.37.185.555.74.37 1.295-.37.37-.555.555-.925.555Z"/><path fill="#222" d="M150.347 247.619c-.555 0-.925-.555-.925-1.11l3.699-33.657-24.781 19.603c-.37.37-.924.185-1.294-.185s-.185-.925.185-1.295l26.445-21.081a1.177 1.177 0 0 1 1.109 0c.37.185.555.554.555.924l-3.884 35.876c-.369.555-.739.925-1.109.925ZM148.498 185.853c-.37 0-.555-.185-.74-.37l-10.726-17.568c-.185-.185-.185-.555 0-.925.185-.185.37-.554.74-.554l33.102-7.213c.555-.185.925.185 1.109.74.185.555-.184.925-.739 1.11l-31.993 7.027 9.616 15.719 35.507-18.863c.37-.185.924 0 1.294.37.185.37 0 .925-.37 1.295l-36.246 19.232h-.554Z"/><path fill="#222" d="M148.497 185.853c-.184 0-.369 0-.554-.185a.893.893 0 0 1 0-1.294l22.191-24.781a.894.894 0 0 1 1.295 0 .896.896 0 0 1 0 1.295l-22.377 24.78c0 .185-.37.185-.555.185Z"/><path fill="#222" d="M170.874 161.073h-.37c-.37-.185-.555-.74-.37-1.295l13.13-28.849-29.773 1.85c-.555 0-.925-.37-.925-.925s.37-.925.925-.925l31.252-2.034c.37 0 .555.185.74.37.185.185.185.555 0 .925l-13.869 30.328c0 .37-.37.555-.74.555Z"/><path fill="#222" d="M127.785 163.846c-.369 0-.739-.184-.739-.554l-17.014-32.918c-.185-.369-.185-.739.185-1.109s.74-.37 1.11-.185l34.951 19.787-14.239-31.253c-.185-.37 0-.924.37-1.109l14.979-8.507c.37-.185.555-.185.925 0l10.356 5.918c.369.185.554.555.369 1.109l-9.986 36.431c0 .185-.185.37-.37.555 0 0-.185 0-.185.185H147.573l-34.582-19.972 15.534 30.143c.185.37 0 .925-.37 1.294-.185.185-.37.185-.37.185Zm6.288-46.232 13.87 30.698 9.061-33.287-9.431-5.363-13.5 7.952ZM154.23 211.558c-.185 0-.37 0-.555-.185l-26.444-15.904c-.37-.184-.555-.554-.37-.924 0-.37.185-.555.555-.74l20.712-9.801c.185-.185.554-.185.739 0l.555.555 5.733 25.705c0 .37 0 .739-.37.924-.185.37-.37.37-.555.37Zm-24.595-16.643 23.116 13.869-4.993-22.376-18.123 8.507Z"/><path fill="#FF3158" d="m164.771 302.357-8.322-4.808v-32.547l8.322 4.808v32.547Z"/><path fill="#222" d="M164.771 303.652c-.185 0-.555 0-.74-.185l-8.506-4.808c-.37-.185-.74-.74-.74-1.294v-32.363c0-.555.185-.924.74-1.109.369-.185.924-.185 1.294 0l8.507 4.808c.37.185.74.739.74 1.294v32.363c0 .554-.185.924-.74 1.109 0 .185-.185.185-.555.185Zm-7.027-7.027 5.733 3.144V270.55l-5.733-3.144v29.219Z"/><path fill="#FF3158" d="m164.771 302.357 8.507-4.808v-32.547l-8.507 4.808v32.547Z"/><path fill="#222" d="M164.771 303.652c-.185 0-.555 0-.74-.185-.369-.185-.739-.739-.739-1.109v-32.363c0-.555.185-.924.739-1.294l8.507-4.808c.37-.185.925-.185 1.295 0 .37.185.739.739.739 1.109v32.363c0 .554-.185.924-.739 1.294l-8.507 4.808c0 .185-.185.185-.555.185Zm1.48-32.917v29.219l5.732-3.144v-29.219l-5.732 3.144Z"/><path fill="#FF3158" d="m232.64 302.357-8.507-4.808v-32.547l8.507 4.808v32.547Z"/><path fill="#222" d="M232.64 303.652c-.185 0-.555 0-.74-.185l-8.506-4.808c-.37-.185-.74-.74-.74-1.294v-32.363c0-.555.185-.924.74-1.109.369-.185.924-.185 1.294 0l8.507 4.808c.37.185.739.739.739 1.294v32.363c0 .554-.184.924-.739 1.109 0 .185-.185.185-.555.185Zm-7.027-7.027 5.732 3.144V270.55l-5.732-3.144v29.219Z"/><path fill="#FF3158" d="M156.449 265.003v-8.137l42.349 24.595 42.349-24.595v8.137l-42.349 24.595-42.349-24.595Z"/><path fill="#222" d="M198.798 290.892c-.185 0-.555 0-.74-.185l-42.348-24.41c-.37-.185-.74-.74-.74-1.11v-8.136c0-.555.185-.925.74-1.11.37-.185.924-.185 1.479 0l41.609 24.041 41.609-24.041c.37-.185.925-.185 1.479 0 .37.185.74.74.74 1.11v8.136c0 .555-.185.925-.74 1.11l-42.348 24.41c-.37.185-.555.185-.74.185Zm-41.054-26.629 41.054 23.671 41.054-23.671v-4.993l-40.314 23.301c-.37.185-.925.185-1.48 0l-40.314-23.301v4.993Z"/><path fill="#FF3158" d="m232.64 302.357 8.507-4.808v-32.547l-8.507 4.808v32.547Z"/><path fill="#222" d="M232.64 303.652c-.185 0-.555 0-.74-.185-.37-.185-.74-.739-.74-1.109v-32.363c0-.555.185-.924.74-1.294l8.507-4.808c.37-.185.924-.185 1.294 0s.74.739.74 1.109v32.363c0 .554-.185.924-.74 1.294l-8.506 4.808c0 .185-.185.185-.555.185Zm1.479-32.917v29.219l5.733-3.144v-29.219l-5.733 3.144Z"/><path fill="#FF3158" d="m156.449 256.865 42.349-24.41 42.348 24.41-42.348 24.596-42.349-24.596 28.849-3.698 13.5-20.712 7.767 22.561 34.581 1.849-18.862 10.911-15.719-12.76-7.767 26.445"/><path fill="#222" d="M198.798 282.385H198.243l-42.348-24.41c-.185 0-.185-.185-.37-.37s-.185-.37 0-.555v-.185c0-.185.185-.37.37-.37l42.348-24.41s.185 0 .185-.185h.74l42.348 24.41.185.185c.185.185.185.185.185.37v.74c0 .185-.185.185-.37.37l-42.348 24.41h-.37Zm-39.575-24.965 39.02 22.561 7.397-24.965-7.027-20.527-12.39 19.232c-.185.185-.37.37-.74.37l-26.26 3.329Zm47.712-.74-6.658 22.746 20.342-11.835-13.684-10.911Zm2.404-.554 13.13 10.54 15.534-8.876-28.664-1.664Zm-2.219-1.85 30.143 1.665-36.986-21.267 6.843 19.602Zm-11.281-19.047-35.136 20.342 23.855-3.144 11.281-17.198Z"/><path fill="#222" d="M175.127 268.701c-.185 0-.37 0-.555-.185-.37-.37-.554-.925-.185-1.294l10.171-14.425c.37-.37.925-.555 1.295-.185.37.37.555.925.185 1.295l-10.171 14.424c-.185.185-.555.37-.74.37Z"/><path fill="#222" d="M198.798 282.386c-.37 0-.74-.185-.925-.555l-13.499-28.109c-.185-.37-.185-.74 0-.925.184-.185.554-.37.924-.37l20.712 1.849 9.616-12.02c.37-.37.925-.37 1.295-.185.37.37.555.925.185 1.295l-9.986 12.39c-.185.185-.555.37-.74.37l-19.602-1.665 12.76 26.63c.185.37 0 .925-.37 1.295h-.37Z"/><path fill="#222" d="M198.798 282.755c-.185 0-.555 0-.74-.184L155.71 258.16c-.37-.185-.74-.74-.74-1.11 0-.369.185-.924.74-1.109l42.348-24.411c.37-.185.925-.185 1.48 0l42.348 24.411c.37.185.74.74.74 1.109 0 .555-.185.925-.74 1.11l-42.348 24.411c-.37.184-.555.184-.74.184Zm-39.575-25.89 39.575 22.932 39.575-22.932-39.575-22.931-39.575 22.931Z"/><path fill="#FF3158" d="m198.428 321.96-8.507-4.808V284.79l8.507 4.808v32.362Z"/><path fill="#222" d="M198.428 323.44c-.185 0-.555 0-.74-.185l-8.506-4.808c-.37-.185-.74-.74-.74-1.295V284.79c0-.555.185-.925.74-1.11.369-.185.924-.185 1.294 0l8.507 4.808c.37.185.74.74.74 1.295v32.362c0 .555-.185.925-.74 1.11 0 .185-.37.185-.555.185Zm-7.027-7.027 5.733 3.143v-29.218l-5.733-3.144v29.219Z"/><path fill="#FF3158" d="m198.428 321.96 8.507-4.808V284.79l-8.507 4.808v32.362Z"/><path fill="#222" d="M198.428 323.44c-.185 0-.555 0-.74-.185-.369-.185-.739-.74-.739-1.11v-32.362c0-.555.185-.925.739-1.295l8.507-4.808c.37-.185.925-.185 1.295 0 .369.185.739.74.739 1.11v32.362c0 .555-.185.925-.739 1.295l-8.507 4.808c0 .185-.37.185-.555.185Zm1.295-33.102v29.218l5.732-3.143v-29.219l-5.732 3.144Z"/><path fill="#222" d="M189.921 313.823c-.185 0-.554-.185-.739-.369-.37-.37-.185-.925.185-1.295l7.951-6.472-8.136-15.719c-.185-.37 0-.925.369-1.295.37-.185.925 0 1.295.37l8.507 16.459c.185.369.185.924-.185 1.109l-8.507 6.843c-.37.369-.555.369-.74.369ZM199.722 321.036c-.184 0-.184 0 0 0-.739-.185-.924-.555-.924-1.11l6.102-33.657c0-.555.555-.74 1.11-.74s.925.555.74 1.11l-6.103 33.657c-.185.37-.555.74-.925.74ZM232.64 297.55c-.37 0-.74-.185-.925-.555l-7.397-21.267c-.185-.555 0-.924.555-1.109.555-.185.925 0 1.109.554l7.398 21.267c.185.555 0 .925-.555 1.11h-.185ZM164.771 297.55c-.37 0-.74-.185-.924-.74l-8.692-28.109c-.185-.555.185-.925.555-1.11.554-.185.924.185 1.109.555l8.692 28.109c.185.555-.185.925-.555 1.11 0 .185 0 .185-.185.185ZM172.908 292.742c-.185 0-.37 0-.555-.185l-7.212-5.733c-.185-.185-.37-.37-.37-.555 0-.185 0-.555.185-.74l7.212-8.506c.37-.37.925-.37 1.295-.185.37.37.37.924.185 1.294l-6.658 7.767 6.473 5.178c.37.37.555.925.185 1.295-.185.185-.37.37-.74.37Z"/><path fill="#222" d="M232.825 296.255c-.185 0-.37 0-.555-.185-.37-.369-.555-.924-.37-1.294l7.767-12.205-7.027-4.439c-.37-.185-.555-.924-.37-1.294.185-.37.925-.555 1.295-.37l7.767 4.993c.184.185.369.37.369.555 0 .185 0 .555-.185.74l-8.321 12.945c.185.554 0 .554-.37.554ZM198.798 290.892c-.74 0-1.479-.555-1.479-1.479v-8.137c0-.74.554-1.48 1.479-1.48s1.479.555 1.479 1.48v8.137c-.184.924-.739 1.479-1.479 1.479Z"/></svg>