<svg xmlns="http://www.w3.org/2000/svg" width="400" height="400" fill="none" viewBox="0 0 400 400"><path fill="#fff" d="M258.16 133.333H124.457v78.595H65.835v74.341l40.314 37.541h176.976V156.45l-24.965-23.117Z"/><path fill="#222" d="M313.453 325.104h-30.328c-.74 0-1.294-.555-1.294-1.294 0-.74.554-1.295 1.294-1.295h30.328c.74 0 1.295.555 1.295 1.295 0 .739-.555 1.294-1.295 1.294Z"/><path fill="#fff" d="M93.759 156.08c-2.034 4.808-3.329 10.541-7.028 13.869-8.321 7.767-15.903 5.363-27 10.541-3.328 1.48-17.198 5.178-17.198 5.178l-20.342-28.109c1.48-6.657 7.952-11.65 10.356-15.534 6.658-10.726 7.952-18.863 14.795-29.034 6.657-9.986 17.568-20.897 28.664-16.643 2.219.74 12.945 7.397 14.239 8.691l4.993 2.959c1.85 1.11 3.329 2.774 4.438 4.624l5.548 10.171 3.329 5.178c.555 1.479 1.11 3.698.925 5.178-.185 1.294-4.439 2.034-5.548 1.479l-10.726-8.322c-3.329-2.034-8.692-3.883-11.28-.924l-1.85 1.294c-3.144 3.514-5.363 14.609-1.11 16.644l3.884.554c2.589-.369 5.178.555 6.842 2.774l5.548 5.548-1.48 3.884Z"/><path fill="#222" d="M22.931 158.299c-.185 0-.555 0-.74-.185-.74-.37-.924-1.295-.37-1.849.37-.555 7.398-12.021 9.617-14.98 2.959-4.068 4.993-8.321 7.212-12.76 2.22-4.808 4.808-10.171 9.062-16.273 4.623-6.843 17.013-22.007 30.513-16.829 2.404.925 4.068 2.034 5.548 3.329.554.555.554 1.479 0 2.034a1.45 1.45 0 0 1-2.035 0c-1.11-1.11-2.589-2.034-4.623-2.774-11.65-4.623-22.93 9.247-27.184 15.534-4.069 5.918-6.473 10.911-8.877 15.904-2.219 4.623-4.253 9.061-7.397 13.315-2.22 2.959-9.431 14.609-9.431 14.794-.37.37-.925.74-1.295.74ZM42.719 187.147c-.555 0-1.11-.37-1.295-.924-.185-.74.185-1.48.925-1.665.185 0 11.835-3.328 14.979-4.623 4.623-2.034 8.876-2.959 12.945-3.883 5.918-1.295 10.91-2.404 15.904-6.658 2.589-2.219 3.883-5.733 5.363-9.616.554-1.295.924-2.589 1.48-3.699.369-.739 1.109-.924 1.848-.739.74.37.925 1.109.74 1.849-.555 1.11-1.11 2.404-1.48 3.698-1.479 3.884-3.143 7.767-6.102 10.541-5.363 4.809-11.096 6.103-17.198 7.398-3.884.924-8.137 1.664-12.39 3.698-3.33 1.48-14.98 4.623-15.35 4.808-.184-.185-.37-.185-.37-.185Z"/><path fill="#222" d="M83.218 145.169c-.74 0-1.48-.185-2.035-.37-2.404-.925-3.883-3.144-4.253-4.438-1.294-4.069 0-10.541 3.144-14.425 2.404-3.144 5.548-4.623 9.246-4.438 2.96.37 4.624 2.774 6.288 5.363 1.48 2.404 3.144 4.993 6.287 6.472 2.035 1.11 4.624.925 5.733-.37 1.11-1.109 1.11-2.589 0-4.438-2.774-5.363-5.178-9.986-6.657-12.575-2.22-4.253-4.254-6.103-7.952-7.582-11.65-4.623-22.931 9.431-27.185 15.534-.37.555-1.294.74-1.849.37-.555-.37-.74-1.295-.37-1.85 4.623-6.842 17.014-22.006 30.514-16.828 4.438 1.664 6.842 3.884 9.431 8.877 1.479 2.589 3.883 7.212 6.657 12.575 1.48 2.959 1.295 5.732-.555 7.767-2.034 2.219-5.732 2.589-9.061.924-3.699-1.849-5.733-4.993-7.397-7.582-1.48-2.404-2.59-3.883-4.253-4.068-3.33-.185-5.548 1.664-6.843 3.329-2.959 3.698-3.699 9.061-2.774 11.835.185.74 1.295 2.219 2.59 2.589.924.37 2.033.185 3.143-.37.555-.37 1.48-.185 1.85.37.37.74.184 1.479-.37 1.849-1.11 1.295-2.405 1.48-3.33 1.48Z"/><path fill="#222" d="M58.992 120.388c-.185 0-.555 0-.74-.185-.555-.369-.74-1.294-.37-1.849 4.624-6.842 17.014-22.006 30.514-16.828 2.958 1.109 5.177 2.589 6.842 4.808.555.555.37 1.479-.185 1.849-.555.555-1.48.37-1.85-.185-1.479-1.849-3.143-2.959-5.732-4.068-11.65-4.439-22.931 9.616-27.37 15.719-.184.554-.74.739-1.11.739Z"/><path fill="#222" d="M53.814 117.245c-.185 0-.555 0-.74-.185-.554-.37-.74-1.295-.37-1.849 4.624-6.843 17.014-22.007 30.514-16.829 2.404.925 4.068 2.034 5.548 3.329a1.451 1.451 0 0 1 0 2.034 1.45 1.45 0 0 1-2.035 0c-1.11-1.11-2.589-2.034-4.623-2.774-11.65-4.438-22.93 9.616-27.37 15.719 0 .37-.369.555-.924.555Z"/><path fill="#fff" d="m115.21 147.758 7.583 20.157-18.678-10.911 11.095-9.246Z"/><path fill="#222" d="M122.792 169.395c-.184 0-.554 0-.739-.185l-18.678-10.911c-.37-.185-.555-.555-.74-1.11 0-.37.185-.924.555-1.109l11.096-9.247c.37-.37.739-.37 1.294-.185.37.185.74.37.925.925l7.582 20.342c.185.555 0 1.11-.37 1.48-.37-.185-.555 0-.925 0Zm-16.273-12.576 13.684 7.952-5.547-14.794-8.137 6.842Z"/><path fill="#DADADA" d="m119.094 157.929 3.698 9.986-9.246-5.363 5.548-4.623Z"/><path fill="#222" d="M122.792 169.394c-.185 0-.555 0-.739-.185l-9.247-5.548c-.37-.184-.555-.554-.74-1.109 0-.37.185-.925.555-1.11l5.548-4.623c.37-.37.74-.37 1.295-.185.369.185.739.37.924.925l3.699 10.171c.185.555 0 1.109-.37 1.479-.37 0-.555.185-.925.185Zm-7.027-7.027 4.253 2.589-1.664-4.808-2.589 2.219Z"/><path fill="#DADADA" d="M56.438 77.846 45.391 87.12l58.731 69.968 11.048-9.273-58.732-69.969Z"/><path fill="#222" d="M104.115 158.484c-.555 0-.74-.185-1.11-.555L44.383 88.026c-.555-.555-.37-1.48.185-1.85l11.096-9.246c.37-.184.554-.37.924-.37s.74.186.925.555l58.807 69.903c.555.555.37 1.48-.185 1.85l-11.096 9.246a1.41 1.41 0 0 1-.924.37ZM47.342 87.286l56.958 67.869 9.061-7.582-56.958-67.869-9.061 7.582Z"/><path fill="#fff" d="M54.066 74.928 43.02 84.2l2.496 2.975 11.048-9.274-2.497-2.974Z"/><path fill="#222" d="M45.308 88.58c-.555 0-.74-.184-1.11-.554l-2.404-2.959c-.555-.555-.37-1.48.185-1.85l11.096-9.246c.37-.184.554-.37.924-.37s.74.186.925.555l2.404 2.96c.555.554.37 1.479-.185 1.849L46.047 88.21c0 .185-.37.37-.74.37Zm-.37-4.253.74.74 9.06-7.582-.739-.74-9.061 7.582Z"/><path fill="#FF3158" d="M36.061 76.19c-1.11-1.294-.925-3.143.37-4.068l6.657-5.548c1.295-1.11 3.144-.924 4.069.37l6.842 8.137-11.096 9.246-6.842-8.136Z"/><path fill="#222" d="M42.903 85.622c-.37 0-.74-.185-1.11-.555l-6.657-8.137c-.74-.924-1.11-2.034-.924-3.143.185-1.11.74-2.22 1.48-2.96l6.657-5.547c.924-.74 2.034-1.11 3.143-.925 1.11.185 2.22.74 2.96 1.48l6.842 8.137c.184.37.37.554.37.924s-.186.74-.555.925l-11.096 9.246c-.555.37-.74.555-1.11.555ZM37.17 75.266l5.918 7.027 9.062-7.582-5.918-7.027c-.185-.37-.555-.555-1.11-.555-.37 0-.924 0-1.11.37l-6.657 5.548c-.37.185-.554.555-.554 1.11 0 .37.185.74.37 1.109Z"/><path fill="#222" d="M73.786 92.464c-.37 0-.74-.184-1.11-.554L57.514 73.787l-2.59 2.219c-.554.555-1.479.37-1.849-.185-.554-.555-.37-1.48.185-1.85l3.514-2.958c.555-.555 1.48-.37 1.85.185L74.71 90.43c.555.555.37 1.48-.185 1.85-.185 0-.555.184-.74.184Z"/><path fill="#fff" d="M85.992 142.949c4.068-2.219 8.691-7.212 12.76-8.691 4.253-1.665 7.952-1.665 9.616.924 1.849 2.774-1.11 6.103-3.883 8.877-3.884 3.513-7.398 6.657-9.987 12.39"/><path fill="#222" d="m95.608 157.004-2.59-1.109c2.59-5.918 6.288-9.247 10.172-12.761 3.514-3.328 4.808-5.547 3.698-7.212-1.664-2.404-5.547-1.294-7.952-.37-2.034.74-4.623 2.774-7.027 4.624-1.849 1.479-3.698 2.958-5.548 4.068l-1.294-2.404c1.664-.925 3.329-2.219 5.178-3.699 2.589-2.034 5.178-4.068 7.767-4.993 7.027-2.774 10.171-.185 11.281 1.48 2.773 4.253-2.405 9.061-4.254 10.541-3.698 3.513-7.027 6.472-9.431 11.835Z"/><path fill="#DADADA" d="M258.16 133.333H124.457l24.965 23.117h133.703l-24.965-23.117ZM124.457 226.352v-14.424H65.835l3.328 3.144 36.986 34.396h43.273l-24.965-23.116Z"/><path fill="#D8D8D8" d="M106.149 279.797V259.27l-33.842-30.883v51.41h33.842ZM149.422 166.066v76.56l-20.342-18.863v-76.745l20.342 19.048Z"/><path fill="#FF0053" d="M256.496 264.263h-53.445v59.362h53.445v-59.362ZM106.149 286.269H65.835l40.314 37.541v-37.541Z"/><path fill="#222" d="M149.422 259.455h-43.273c-.74 0-1.48-.555-1.48-1.48v-8.691c0-.74.555-1.48 1.48-1.48h43.273c.74 0 1.48.555 1.48 1.48v8.691c0 .925-.74 1.48-1.48 1.48Zm-41.979-2.774h40.5v-5.918h-40.5v5.918ZM283.126 166.436H149.422c-.739 0-1.479-.555-1.479-1.48v-8.691c0-.74.555-1.48 1.479-1.48h133.704c.739 0 1.479.555 1.479 1.48v8.691c0 .925-.74 1.48-1.479 1.48Zm-132.224-2.774h130.929v-5.918H150.902v5.918ZM256.495 325.104h-53.444c-.74 0-1.479-.555-1.479-1.479v-59.362c0-.74.555-1.48 1.479-1.48h53.444c.74 0 1.48.555 1.48 1.48v59.362c-.185.924-.74 1.479-1.48 1.479Zm-52.149-2.774h50.67v-56.588h-50.67v56.588Z"/><path fill="#222" d="M231.161 264.263h-2.774v59.362h2.774v-59.362Z"/><path fill="#fff" d="M229.866 164.956h-26.815v99.307h26.815v-99.307Z"/><path fill="#222" d="M229.681 265.742h-26.815c-.74 0-1.479-.555-1.479-1.48v-99.306c0-.74.554-1.479 1.479-1.479h26.815c.739 0 1.479.554 1.479 1.479v99.306c0 .925-.74 1.48-1.479 1.48Zm-25.335-2.774h24.04v-96.533h-24.04v96.533Z"/><path fill="#fff" d="M283.31 164.956h-26.814v158.669h26.814V164.956Z"/><path fill="#222" d="M283.125 325.104H256.31c-.739 0-1.479-.555-1.479-1.48V164.956c0-.74.555-1.479 1.479-1.479h26.815c.74 0 1.479.554 1.479 1.479v158.668c0 .925-.554 1.48-1.479 1.48Zm-25.335-2.774h24.041V166.435H257.79V322.33ZM149.422 325.104h-43.273c-.37 0-.74-.185-.925-.37L64.91 287.379c-.37-.185-.37-.555-.37-.925v-74.341c0-.74.555-1.48 1.48-1.48h58.807v2.774H67.499v72.307l39.575 36.616h41.424v-62.876h-41.055v51.41h-2.774V258.16c0-.74.555-1.48 1.48-1.48h43.273c.74 0 1.48.555 1.48 1.48v65.649c0 .74-.74 1.295-1.48 1.295Z"/><path fill="#222" d="M107.444 323.81h-2.774v-73.787l-39.945-36.985 1.85-2.035 40.314 37.356c.37.185.37.555.37.925v74.526h.185ZM150.902 249.468h-2.774v-92.464l-24.596-22.746 1.85-2.034 24.965 23.116c.37.185.37.554.37.924v93.204h.185Z"/><path fill="#222" d="m148.497 250.393-24.965-23.116c-.37-.185-.37-.555-.37-.925v-93.019c0-.739.555-1.479 1.48-1.479h133.703c.37 0 .739.185.924.37l24.781 23.116-1.85 2.034-24.595-22.746H125.936v90.985l24.596 22.746-2.035 2.034ZM106.149 284.975H65.835v2.774h40.314v-2.774ZM66.629 220.9l-1.886 2.035 40.411 37.468 1.886-2.034L66.629 220.9Z"/><path fill="#222" d="m125.452 142.231-1.887 2.034 24.949 23.138 1.886-2.033-24.948-23.139Z"/><path fill="#fff" d="M203.051 164.956h-26.814v158.669h26.814V164.956Z"/><path fill="#222" d="M203.051 325.104h-26.814c-.74 0-1.48-.555-1.48-1.48V164.956c0-.74.555-1.479 1.48-1.479h26.814c.74 0 1.48.554 1.48 1.479v158.668c-.185.925-.74 1.48-1.48 1.48Zm-25.52-2.774h24.041V166.435h-24.041V322.33Z"/><path fill="#fff" d="M176.237 164.956h-26.815v158.669h26.815V164.956Z"/><path fill="#222" d="M176.237 325.104h-26.815c-.739 0-1.479-.555-1.479-1.48V164.956c0-.74.555-1.479 1.479-1.479h26.815c.74 0 1.479.554 1.479 1.479v158.668c-.185.925-.739 1.48-1.479 1.48Zm-25.335-2.774h24.04V166.435h-24.04V322.33Z"/><path fill="#fff" d="M256.496 164.956h-26.815v99.307h26.815v-99.307Z"/><path fill="#222" d="M256.496 265.742h-26.815c-.74 0-1.479-.555-1.479-1.48v-99.306c0-.74.554-1.479 1.479-1.479h26.815c.739 0 1.479.554 1.479 1.479v99.306c-.185.925-.74 1.48-1.479 1.48Zm-25.335-2.774h24.04v-96.533h-24.04v96.533Z"/><path fill="#DADADA" d="M319.186 304.207c3.329 3.698 6.103 8.322 10.356 10.171 9.801 4.438 15.719 0 27.185 1.294 3.328.37 15.534 3.699 15.534 3.699l6.657-42.718c-1.664-.555-6.288-.185-9.616-2.959-9.062-7.582-12.76-14.425-21.822-21.452-8.876-6.842-21.821-13.315-30.513-6.288-1.664 1.295-9.246 10.356-10.171 11.836l-3.699 4.068a11.217 11.217 0 0 0-2.589 5.363l-1.849 10.726-.37 4.438c-.185 1.48.185 2.959.925 4.069.555 1.109 2.219 1.294 3.144.37l8.137-9.617c2.219-2.774 6.657-5.917 9.616-4.253l2.034.555c3.884 2.219 9.062 11.28 5.918 14.424l-3.329 1.665c-2.404.369-4.438 2.219-5.363 4.438l-3.329 6.657 3.144 3.514Z"/><path fill="#222" d="M362.459 317.707h-.369c-7.213-1.85-12.391-1.295-17.014-.74-4.993.555-9.801 1.11-16.089-1.664-3.513-1.48-6.102-4.808-8.506-7.767-.74-.925-1.48-1.85-2.404-2.774-.555-.555-.37-1.48.185-2.034.554-.555 1.479-.37 2.034.184.74.925 1.664 1.85 2.404 2.959 2.404 2.959 4.623 5.733 7.582 7.028 5.548 2.404 9.616 2.034 14.609 1.479 4.808-.555 10.356-1.294 18.123.74.74.185 1.11.924.925 1.664-.185.555-.74.925-1.48.925ZM324.18 291.077c-.555 0-1.11 0-1.665-.185-.739-.185-1.109-.925-1.109-1.664.185-.74.924-1.11 1.664-1.11 1.11.37 2.034.185 2.774-.555 1.11-.924 1.479-2.404 1.479-3.143 0-2.774-2.219-7.397-5.732-9.802-1.665-1.109-4.069-2.219-7.028-.924-1.294.555-1.849 2.219-2.404 4.808-.739 2.774-1.664 6.103-4.438 8.877-2.404 2.404-5.918 2.958-8.322 1.664-2.219-1.295-3.329-3.699-2.774-6.842.925-5.733 1.85-10.541 2.219-13.13.74-4.439 2.035-7.582 5.918-10.726 10.171-8.137 24.596.37 32.178 6.287.554.555.739 1.295.185 2.035-.555.554-1.295.739-2.035.184-5.547-4.253-19.787-13.499-28.848-6.287-2.959 2.404-4.069 4.623-4.994 9.061-.554 2.774-1.294 7.582-2.219 13.13-.37 1.85.185 3.329 1.295 3.884 1.479.74 3.698.185 5.178-1.295 2.219-2.219 2.959-4.993 3.698-7.582.74-2.774 1.48-5.548 4.069-6.657 3.144-1.295 6.472-.925 9.616 1.294 3.884 2.589 7.027 7.952 7.027 12.021 0 1.294-.739 3.698-2.589 5.178-.369.924-1.479 1.479-3.143 1.479Z"/><path fill="#222" d="M340.083 261.859c-.369 0-.554 0-.924-.37-5.548-4.254-19.788-13.5-28.849-6.288-2.034 1.664-3.144 3.144-3.884 5.178-.184.74-1.109 1.11-1.849.74-.74-.37-1.109-1.11-.74-1.849.925-2.589 2.405-4.439 4.809-6.288 10.171-8.137 24.595.37 32.177 6.288.555.554.74 1.294.185 2.034-.185.37-.555.555-.925.555Z"/><path fill="#222" d="M343.782 257.605c-.37 0-.555 0-.925-.37-5.548-4.253-19.787-13.499-28.848-6.287-1.48 1.294-2.589 2.404-3.329 3.883-.37.74-1.11.925-1.849.555-.74-.37-.925-1.109-.555-1.849.924-1.665 2.219-3.144 4.068-4.623 10.171-8.137 24.596.369 32.178 6.287.554.555.739 1.295.185 2.034-.185.185-.555.37-.925.37Z"/><path fill="#222" d="M374.85 276.653h-.37c-7.952-2.589-12.021-7.212-16.829-12.575-3.144-3.514-6.287-7.212-11.095-10.911-5.548-4.253-19.788-13.5-28.849-6.288-1.48 1.295-2.589 2.405-3.329 3.884-.37.74-1.11.925-1.849.555-.74-.37-.925-1.11-.555-1.85.925-1.664 2.219-3.143 4.068-4.623 10.171-8.137 24.596.37 32.178 6.288 4.993 3.883 8.507 7.767 11.466 11.28 4.623 5.363 8.321 9.432 15.533 11.836.74.185 1.11.925.925 1.664 0 .37-.555.74-1.294.74Z"/><path fill="#fff" d="M310.495 307.351 296.81 322.33l1.11-20.157 12.575 5.178Z"/><path fill="#222" d="M296.81 323.809c-.185 0-.37 0-.555-.185a1.389 1.389 0 0 1-.924-1.294l1.109-20.342c0-.37.185-.925.555-1.11.37-.185.925-.37 1.294-.185l12.576 5.178c.369.185.739.555.739.925.185.37 0 .925-.37 1.294l-13.499 14.98c-.185.554-.555.739-.925.739Zm2.404-19.602-.74 14.424 9.617-10.726-8.877-3.698Z"/><path fill="#F5F4F3" d="m303.652 314.748-6.842 7.582.555-9.986 6.287 2.404Z"/><path fill="#222" d="M296.81 323.81c-.185 0-.37 0-.555-.185-.555-.185-.924-.74-.924-1.295l.554-10.171c0-.37.185-.924.555-1.109.37-.185.925-.37 1.295-.185l6.287 2.589c.37.185.74.554.74.924.185.37 0 .925-.37 1.295l-6.842 7.582c0 .37-.37.555-.74.555Zm1.849-9.617-.185 4.254 2.959-3.144-2.774-1.11Z"/><path fill="#fff" d="m330.545 222.949-32.724 79.123 12.475 5.16 32.725-79.123-12.476-5.16Z"/><path fill="#222" d="M310.495 308.645c-.185 0-.37 0-.555-.185l-12.575-5.178c-.74-.369-1.11-1.109-.74-1.849l32.732-78.964c.185-.37.37-.555.74-.74a1.18 1.18 0 0 1 1.11 0l12.575 5.178c.74.37 1.109 1.11.74 1.849l-32.733 78.965c-.185.37-.37.554-.74.739-.184.185-.369.185-.554.185Zm-10.726-7.212 9.986 4.069 31.623-76.561-9.986-4.068-31.623 76.56Z"/><path fill="#fff" d="m331.921 219.885-1.343 3.247 12.475 5.16 1.343-3.247-12.475-5.16Z"/><path fill="#222" d="M343.042 229.681c-.185 0-.37 0-.555-.185l-12.575-5.178c-.37-.185-.555-.37-.74-.74a1.177 1.177 0 0 1 0-1.109l1.295-3.329c.37-.74 1.109-1.109 1.849-.74l12.575 5.178c.74.37 1.11 1.11.74 1.85l-1.294 3.328c-.185.37-.37.555-.74.74-.185.185-.37.185-.555.185Zm-10.726-7.397 9.986 4.068.37-.739-9.986-4.069-.37.74Z"/><path fill="#FF3158" d="M335.645 210.633c.555-1.479 2.219-2.034 3.513-1.479l7.397 3.144c1.48.554 2.035 2.219 1.48 3.513l-3.699 9.062-12.575-5.178 3.884-9.062Z"/><path fill="#222" d="M344.522 226.352c-.185 0-.37 0-.555-.185l-12.575-5.178c-.37-.185-.555-.37-.74-.739a1.18 1.18 0 0 1 0-1.11l3.698-9.061c.925-2.035 3.329-3.144 5.363-2.22l7.397 3.144c2.035.925 3.144 3.329 2.22 5.363l-3.699 9.062c-.185.554-.555.924-1.109.924Zm-10.911-7.397 9.986 4.069 3.329-7.767c.369-.74 0-1.48-.74-1.85l-7.397-3.144c-.74-.369-1.48 0-1.85.74l-3.328 7.952ZM306.241 306.981c-.185 0-.369 0-.554-.185-.74-.37-1.11-1.11-.74-1.849l32.547-79.15c.37-.739 1.11-1.109 1.85-.739.739.37 1.109 1.109.739 1.849l-32.547 79.149c-.185.555-.74.925-1.295.925ZM301.988 305.317c-.185 0-.37 0-.555-.185-.74-.37-1.109-1.11-.74-1.849l32.733-79.15c.37-.739 1.109-1.109 1.849-.739.74.369 1.11 1.109.74 1.849l-32.733 79.149a1.39 1.39 0 0 1-1.294.925Z"/><path fill="#DADADA" d="M322.885 289.598c-4.254-.925-9.801-3.884-13.87-4.068-4.253-.185-7.582.739-8.322 3.513-.739 2.959 2.774 5.178 6.103 6.658 4.438 2.034 8.507 3.883 12.39 8.136"/><path fill="#222" d="M318.262 304.947c-3.699-4.068-7.583-5.918-11.836-7.767-2.034-.925-8.137-3.699-6.842-8.322.555-1.849 2.404-4.993 9.616-4.623 2.589.185 5.548 1.295 8.322 2.404 2.034.74 4.068 1.48 5.733 1.849l-.555 2.774c-1.849-.37-4.069-1.109-6.103-2.034-2.589-.925-5.363-2.034-7.582-2.219-2.219-.185-6.103 0-6.842 2.589-.37 1.664 1.294 3.329 5.363 5.178 4.623 2.034 8.876 4.068 12.945 8.507l-2.219 1.664Z"/></svg>