<svg xmlns="http://www.w3.org/2000/svg" width="400" height="400" fill="none" viewBox="0 0 400 400"><path fill="#fff" d="M258.16 133.333H124.457v78.595H65.835v74.341l40.314 37.541h176.977V156.45l-24.966-23.117Z"/><path fill="#222" d="M313.453 325.104h-30.328c-.74 0-1.294-.555-1.294-1.295 0-.74.554-1.294 1.294-1.294h30.328c.74 0 1.295.554 1.295 1.294s-.555 1.295-1.295 1.295Z"/><path fill="#fff" d="M93.759 156.079c-2.034 4.808-3.329 10.541-7.028 13.87-8.321 7.767-15.903 5.363-27 10.541-3.328 1.479-17.198 5.178-17.198 5.178l-20.342-28.109c1.48-6.658 7.952-11.651 10.356-15.534 6.658-10.726 7.952-18.863 14.795-29.034 6.657-9.986 17.568-20.897 28.664-16.644 2.219.74 12.945 7.397 14.239 8.692l4.993 2.959c1.85 1.109 3.329 2.774 4.438 4.623l5.548 10.171 3.329 5.178c.555 1.48 1.11 3.699.925 5.178-.185 1.295-4.439 2.034-5.548 1.48l-10.726-8.322c-3.329-2.034-8.692-3.884-11.28-.925l-1.85 1.295c-3.144 3.513-5.363 14.609-1.11 16.643l3.884.555c2.589-.37 5.178.555 6.842 2.774l5.548 5.548-1.48 3.883Z"/><path fill="#222" d="M22.93 158.299c-.184 0-.554 0-.739-.185-.74-.37-.924-1.295-.37-1.849.37-.555 7.397-12.021 9.617-14.98 2.959-4.068 4.993-8.321 7.212-12.76 2.219-4.808 4.808-10.171 9.061-16.273 4.623-6.843 17.014-22.007 30.514-16.829 2.404.925 4.068 2.034 5.547 3.329.555.555.555 1.479 0 2.034a1.45 1.45 0 0 1-2.034 0c-1.11-1.11-2.589-2.034-4.623-2.774-11.65-4.623-22.931 9.247-27.184 15.534-4.069 5.918-6.473 10.911-8.877 15.904-2.22 4.623-4.253 9.061-7.397 13.315-2.22 2.959-9.432 14.609-9.432 14.794-.37.37-.924.74-1.294.74ZM42.719 187.147c-.555 0-1.11-.37-1.295-.924-.185-.74.185-1.48.925-1.665.185 0 11.835-3.328 14.979-4.623 4.623-2.034 8.876-2.959 12.945-3.883 5.918-1.295 10.91-2.404 15.904-6.658 2.589-2.219 3.883-5.733 5.363-9.616.554-1.295.924-2.589 1.48-3.699.369-.739 1.109-.924 1.848-.739.74.37.925 1.109.74 1.849-.555 1.11-1.11 2.404-1.48 3.698-1.479 3.884-3.143 7.767-6.102 10.541-5.363 4.809-11.096 6.103-17.198 7.398-3.884.924-8.137 1.664-12.39 3.698-3.33 1.48-14.98 4.623-15.35 4.808-.184-.185-.37-.185-.37-.185Z"/><path fill="#222" d="M83.218 145.169c-.74 0-1.48-.185-2.035-.37-2.404-.924-3.883-3.143-4.253-4.438-1.294-4.068 0-10.541 3.144-14.424 2.404-3.144 5.548-4.624 9.246-4.439 2.96.37 4.624 2.774 6.288 5.363 1.48 2.404 3.144 4.993 6.287 6.473 2.035 1.109 4.624.924 5.733-.37 1.11-1.11 1.11-2.589 0-4.438-2.774-5.363-5.178-9.987-6.657-12.576-2.22-4.253-4.254-6.102-7.952-7.582-11.65-4.623-22.931 9.432-27.185 15.534-.37.555-1.294.74-1.849.37-.555-.37-.74-1.294-.37-1.849 4.623-6.842 17.014-22.007 30.514-16.829 4.438 1.665 6.842 3.884 9.431 8.877 1.479 2.589 3.883 7.212 6.657 12.575 1.48 2.959 1.295 5.733-.555 7.767-2.034 2.219-5.732 2.589-9.061.925-3.699-1.849-5.733-4.993-7.397-7.582-1.48-2.404-2.59-3.884-4.253-4.069-3.33-.185-5.548 1.665-6.843 3.329-2.959 3.699-3.699 9.062-2.774 11.835.185.74 1.295 2.22 2.59 2.589.924.37 2.033.185 3.143-.369.555-.37 1.48-.185 1.85.369.37.74.184 1.48-.37 1.85-1.11 1.294-2.405 1.479-3.33 1.479Z"/><path fill="#222" d="M58.992 120.388c-.184 0-.554 0-.74-.185-.554-.369-.739-1.294-.37-1.849 4.624-6.842 17.014-22.006 30.514-16.828 2.959 1.109 5.178 2.589 6.842 4.808.555.555.37 1.479-.184 1.849-.555.555-1.48.37-1.85-.185-1.48-1.849-3.144-2.959-5.733-4.068-11.65-4.439-22.93 9.616-27.369 15.719-.185.554-.74.739-1.11.739Z"/><path fill="#222" d="M53.814 117.245c-.185 0-.555 0-.74-.185-.554-.37-.74-1.295-.37-1.849 4.624-6.843 17.014-22.007 30.514-16.829 2.404.925 4.068 2.034 5.548 3.329a1.451 1.451 0 0 1 0 2.034 1.45 1.45 0 0 1-2.035 0c-1.11-1.11-2.589-2.034-4.623-2.774-11.65-4.438-22.93 9.616-27.37 15.719 0 .37-.369.555-.924.555Z"/><path fill="#fff" d="m115.21 147.758 7.583 20.157-18.678-10.911 11.095-9.246Z"/><path fill="#222" d="M122.792 169.395c-.184 0-.554 0-.739-.185l-18.678-10.911c-.37-.185-.555-.555-.74-1.11 0-.37.185-.924.555-1.109l11.096-9.247c.37-.37.739-.37 1.294-.185.37.185.74.37.925.925l7.582 20.342c.185.555 0 1.11-.37 1.48-.37-.185-.555 0-.925 0Zm-16.273-12.576 13.684 7.952-5.547-14.794-8.137 6.842Z"/><path fill="#222" d="m119.094 157.929 3.699 9.986-9.247-5.363 5.548-4.623Z"/><path fill="#222" d="M122.793 169.394c-.185 0-.555 0-.74-.185l-9.246-5.548c-.37-.184-.555-.554-.74-1.109 0-.37.185-.925.555-1.11l5.548-4.623c.369-.37.739-.37 1.294-.185.37.185.74.37.925.925l3.698 10.171c.185.555 0 1.109-.37 1.479-.369 0-.554.185-.924.185Zm-7.028-7.027 4.254 2.589-1.665-4.808-2.589 2.219Z"/><path fill="#444" d="M56.439 77.846 45.39 87.119l58.732 69.969 11.048-9.274-58.732-69.968Z"/><path fill="#222" d="M104.115 158.483c-.555 0-.74-.185-1.11-.554L44.383 88.026c-.555-.555-.37-1.48.185-1.85l11.096-9.246c.37-.185.554-.37.924-.37s.74.185.925.555l58.807 69.903c.555.555.37 1.479-.185 1.849l-11.096 9.246a1.41 1.41 0 0 1-.924.37ZM47.342 87.286l56.958 67.869 9.061-7.582-56.958-67.87-9.061 7.583Z"/><path fill="#fff" d="M54.066 74.927 43.02 84.2l2.497 2.975L56.563 77.9l-2.497-2.974Z"/><path fill="#222" d="M45.308 88.58c-.555 0-.74-.185-1.11-.555l-2.404-2.958c-.555-.555-.37-1.48.185-1.85l11.096-9.246c.37-.185.554-.37.924-.37s.74.185.925.555l2.404 2.959c.555.555.37 1.48-.185 1.849L46.047 88.21c0 .185-.37.37-.74.37Zm-.37-4.253.74.74 9.06-7.582-.739-.74-9.061 7.582Z"/><path fill="#444" d="M36.061 76.19c-1.11-1.294-.924-3.144.37-4.068l6.658-5.548c1.294-1.11 3.143-.925 4.068.37l6.842 8.136-11.095 9.247-6.843-8.137Z"/><path fill="#222" d="M42.904 85.621c-.37 0-.74-.184-1.11-.554l-6.657-8.137c-.74-.925-1.11-2.034-.925-3.144.185-1.11.74-2.22 1.48-2.959l6.657-5.548c.924-.74 2.034-1.11 3.144-.924 1.11.185 2.219.74 2.958 1.48l6.843 8.136c.185.37.37.555.37.925s-.185.74-.555.924l-11.096 9.247c-.555.37-.74.555-1.11.555ZM37.17 75.266l5.918 7.027 9.061-7.582-5.918-7.028c-.185-.37-.554-.554-1.11-.554-.37 0-.924 0-1.109.37l-6.657 5.547c-.37.185-.555.555-.555 1.11 0 .37.185.74.37 1.11Z"/><path fill="#222" d="M73.787 92.464c-.37 0-.74-.185-1.11-.555L57.513 73.786l-2.59 2.22c-.554.554-1.479.37-1.849-.186-.554-.554-.37-1.48.185-1.849l3.514-2.959c.555-.555 1.48-.37 1.85.185L74.71 90.43c.555.554.37 1.48-.185 1.849-.185 0-.555.185-.74.185Z"/><path fill="#fff" d="M85.992 142.949c4.068-2.219 8.692-7.212 12.76-8.691 4.253-1.665 7.952-1.665 9.616.924 1.85 2.774-1.109 6.103-3.883 8.877-3.884 3.513-7.397 6.657-9.986 12.39"/><path fill="#222" d="m95.608 157.004-2.589-1.109c2.59-5.918 6.288-9.247 10.171-12.761 3.514-3.328 4.808-5.547 3.699-7.212-1.665-2.404-5.548-1.294-7.952-.37-2.034.74-4.623 2.774-7.028 4.624-1.849 1.479-3.698 2.958-5.547 4.068l-1.295-2.404c1.665-.925 3.329-2.219 5.178-3.699 2.59-2.034 5.178-4.068 7.767-4.993 7.027-2.774 10.171-.185 11.281 1.48 2.774 4.253-2.404 9.061-4.254 10.541-3.698 3.513-7.027 6.472-9.43 11.835Z"/><path fill="#444" d="M258.16 133.333H124.457l24.965 23.117h133.704l-24.966-23.117ZM124.457 226.353v-14.425H65.835l3.328 3.144 36.986 34.397h43.273l-24.965-23.116Z"/><path fill="#D8D8D8" d="M106.149 279.797V259.27l-33.842-30.883v51.41h33.842ZM149.422 166.066v76.56l-20.342-18.863v-76.745l20.342 19.048Z"/><path fill="#FF0053" d="M256.496 264.262h-53.444v59.362h53.444v-59.362ZM106.149 286.269H65.835l40.314 37.54v-37.54Z"/><path fill="#222" d="M149.422 259.455h-43.273c-.74 0-1.479-.555-1.479-1.48v-8.691c0-.74.554-1.48 1.479-1.48h43.273c.74 0 1.48.555 1.48 1.48v8.691c0 .925-.74 1.48-1.48 1.48Zm-41.978-2.774h40.499v-5.918h-40.499v5.918ZM283.125 166.436H149.422c-.74 0-1.479-.555-1.479-1.48v-8.691c0-.74.554-1.48 1.479-1.48h133.703c.74 0 1.48.555 1.48 1.48v8.691c0 .925-.74 1.48-1.48 1.48Zm-132.224-2.774h130.93v-5.918h-130.93v5.918ZM256.496 325.104h-53.445c-.739 0-1.479-.555-1.479-1.479v-59.362c0-.74.555-1.48 1.479-1.48h53.445c.739 0 1.479.555 1.479 1.48v59.362c-.185.924-.74 1.479-1.479 1.479Zm-52.15-2.774h50.67v-56.588h-50.67v56.588Z"/><path fill="#222" d="M231.16 264.262h-2.774v59.362h2.774v-59.362Z"/><path fill="#fff" d="M229.865 164.956h-26.814v99.306h26.814v-99.306Z"/><path fill="#222" d="M229.681 265.742h-26.815c-.74 0-1.479-.555-1.479-1.48v-99.306c0-.74.554-1.479 1.479-1.479h26.815c.739 0 1.479.554 1.479 1.479v99.306c0 .925-.74 1.48-1.479 1.48Zm-25.335-2.774h24.04v-96.533h-24.04v96.533Z"/><path fill="#fff" d="M283.31 164.956h-26.814v158.668h26.814V164.956Z"/><path fill="#222" d="M283.125 325.104h-26.814c-.74 0-1.48-.555-1.48-1.479V164.956c0-.74.555-1.479 1.48-1.479h26.814c.74 0 1.48.554 1.48 1.479v158.669c0 .924-.555 1.479-1.48 1.479Zm-25.335-2.774h24.041V166.435H257.79V322.33ZM149.422 325.104h-43.273c-.37 0-.74-.185-.925-.37L64.91 287.379c-.37-.185-.37-.555-.37-.925v-74.341c0-.74.555-1.48 1.48-1.48h58.806v2.774H67.499v72.307l39.574 36.616h41.424v-62.876h-41.054v51.41h-2.774V258.16c0-.74.555-1.48 1.48-1.48h43.273c.74 0 1.479.555 1.479 1.48v65.649c0 .74-.739 1.295-1.479 1.295Z"/><path fill="#222" d="M107.444 323.81h-2.774v-73.787l-39.945-36.985 1.85-2.035 40.314 37.356c.37.185.37.555.37.925v74.526h.185ZM150.902 249.468h-2.774v-92.464l-24.596-22.746 1.85-2.034 24.965 23.116c.37.185.37.554.37.924v93.204h.185Z"/><path fill="#222" d="m148.498 250.393-24.966-23.116c-.369-.185-.369-.555-.369-.925v-93.019c0-.74.554-1.479 1.479-1.479h133.703c.37 0 .74.184.925.369l24.78 23.116-1.849 2.035-24.595-22.747H125.937v90.985l24.595 22.746-2.034 2.035ZM106.149 284.975H65.835v2.774h40.314v-2.774ZM66.63 220.9l-1.887 2.035 40.411 37.468 1.886-2.034L66.63 220.9Z"/><path fill="#222" d="m125.451 142.231-1.886 2.034 24.949 23.138 1.886-2.034-24.949-23.138Z"/><path fill="#fff" d="M203.051 164.956h-26.814v158.668h26.814V164.956Z"/><path fill="#222" d="M203.051 325.104h-26.814c-.74 0-1.48-.555-1.48-1.479V164.956c0-.74.555-1.479 1.48-1.479h26.814c.74 0 1.48.554 1.48 1.479v158.669c-.185.924-.74 1.479-1.48 1.479Zm-25.52-2.774h24.041V166.435h-24.041V322.33Z"/><path fill="#fff" d="M176.237 164.956h-26.815v158.668h26.815V164.956Z"/><path fill="#222" d="M176.237 325.104h-26.815c-.74 0-1.479-.555-1.479-1.479V164.956c0-.74.554-1.479 1.479-1.479h26.815c.739 0 1.479.554 1.479 1.479v158.669c-.185.924-.74 1.479-1.479 1.479Zm-25.336-2.774h24.041V166.435h-24.041V322.33Z"/><path fill="#fff" d="M256.496 164.956h-26.815v99.306h26.815v-99.306Z"/><path fill="#222" d="M256.495 265.742h-26.814c-.74 0-1.48-.555-1.48-1.48v-99.306c0-.74.555-1.479 1.48-1.479h26.814c.74 0 1.48.554 1.48 1.479v99.306c-.185.925-.74 1.48-1.48 1.48Zm-25.335-2.774h24.041v-96.533H231.16v96.533Z"/><path fill="#DADADA" d="M319.186 304.207c3.329 3.699 6.103 8.322 10.356 10.171 9.801 4.439 15.719 0 27.185 1.295 3.328.37 15.534 3.699 15.534 3.699l6.657-42.719c-1.664-.555-6.288-.185-9.616-2.959-9.062-7.582-12.76-14.424-21.822-21.451-8.876-6.843-21.821-13.315-30.513-6.288-1.664 1.294-9.246 10.356-10.171 11.835l-3.699 4.069a11.213 11.213 0 0 0-2.589 5.363l-1.849 10.726-.37 4.438c-.185 1.479.185 2.959.925 4.068.555 1.11 2.219 1.295 3.144.37l8.137-9.616c2.219-2.774 6.657-5.918 9.616-4.253l2.034.554c3.884 2.219 9.062 11.281 5.918 14.425l-3.329 1.664c-2.404.37-4.438 2.219-5.363 4.438l-3.329 6.658 3.144 3.513Z"/><path fill="#222" d="M362.46 317.707h-.37c-7.212-1.849-12.39-1.294-17.014-.739-4.993.554-9.801 1.109-16.088-1.665-3.514-1.479-6.103-4.808-8.507-7.767-.74-.924-1.48-1.849-2.404-2.774-.555-.555-.37-1.479.185-2.034.555-.555 1.479-.37 2.034.185.74.925 1.664 1.849 2.404 2.959 2.404 2.959 4.623 5.733 7.582 7.027 5.548 2.404 9.616 2.034 14.609 1.48 4.809-.555 10.356-1.295 18.123.739.74.185 1.11.925.925 1.665-.185.554-.74.924-1.479.924ZM324.179 291.077c-.554 0-1.109 0-1.664-.185-.74-.185-1.11-.924-1.11-1.664.185-.74.925-1.11 1.665-1.11 1.109.37 2.034.185 2.774-.555 1.109-.924 1.479-2.404 1.479-3.143 0-2.774-2.219-7.397-5.733-9.802-1.664-1.109-4.068-2.219-7.027-.924-1.294.555-1.849 2.219-2.404 4.808-.74 2.774-1.664 6.103-4.438 8.877-2.404 2.404-5.918 2.958-8.322 1.664-2.219-1.295-3.329-3.699-2.774-6.842.925-5.733 1.849-10.541 2.219-13.13.74-4.439 2.034-7.582 5.918-10.726 10.171-8.137 24.595.37 32.177 6.287.555.555.74 1.295.185 2.035-.554.554-1.294.739-2.034.184-5.548-4.253-19.787-13.499-28.849-6.287-2.959 2.404-4.068 4.623-4.993 9.061-.555 2.774-1.294 7.582-2.219 13.13-.37 1.85.185 3.329 1.295 3.884 1.479.74 3.698.185 5.178-1.295 2.219-2.219 2.958-4.993 3.698-7.582.74-2.774 1.48-5.548 4.069-6.657 3.143-1.295 6.472-.925 9.616 1.294 3.883 2.589 7.027 7.952 7.027 12.021 0 1.294-.74 3.698-2.589 5.178-.37.924-1.479 1.479-3.144 1.479Z"/><path fill="#222" d="M340.083 261.859c-.37 0-.555 0-.925-.37-5.547-4.254-19.787-13.5-28.848-6.288-2.035 1.664-3.144 3.144-3.884 5.178-.185.74-1.109 1.11-1.849.74-.74-.37-1.11-1.11-.74-1.849.925-2.589 2.404-4.439 4.808-6.288 10.171-8.137 24.596.37 32.178 6.288.555.554.739 1.294.185 2.034-.185.37-.555.555-.925.555Z"/><path fill="#222" d="M343.782 257.605c-.37 0-.555 0-.925-.37-5.548-4.253-19.787-13.5-28.848-6.288-1.48 1.295-2.589 2.404-3.329 3.884-.37.74-1.11.924-1.849.555-.74-.37-.925-1.11-.555-1.85.924-1.664 2.219-3.143 4.068-4.623 10.171-8.137 24.596.37 32.178 6.288.554.554.739 1.294.185 2.034-.185.185-.555.37-.925.37Z"/><path fill="#222" d="M374.85 276.653h-.37c-7.952-2.589-12.02-7.212-16.828-12.575-3.144-3.514-6.288-7.212-11.096-10.911-5.548-4.253-19.787-13.5-28.849-6.288-1.479 1.295-2.589 2.405-3.329 3.884-.369.74-1.109.925-1.849.555s-.925-1.11-.555-1.85c.925-1.664 2.219-3.143 4.069-4.623 10.171-8.137 24.595.37 32.177 6.288 4.993 3.883 8.507 7.767 11.466 11.28 4.623 5.363 8.322 9.432 15.534 11.836.74.185 1.109.925.924 1.664 0 .37-.554.74-1.294.74Z"/><path fill="#fff" d="m310.495 307.35-13.685 14.98 1.11-20.158 12.575 5.178Z"/><path fill="#222" d="M296.81 323.809c-.185 0-.37 0-.555-.185a1.389 1.389 0 0 1-.924-1.294l1.109-20.342c0-.37.185-.925.555-1.11.37-.185.925-.37 1.294-.185l12.576 5.178c.369.185.739.555.739.925.185.37 0 .925-.37 1.294l-13.499 14.98c-.185.554-.555.739-.925.739Zm2.404-19.602-.74 14.424 9.617-10.726-8.877-3.698Z"/><path fill="#222" d="m303.652 314.748-6.842 7.582.555-9.986 6.287 2.404Z"/><path fill="#222" d="M296.81 323.81c-.185 0-.37 0-.555-.185-.555-.185-.924-.74-.924-1.295l.554-10.171c0-.37.185-.924.555-1.109.37-.185.925-.37 1.295-.185l6.287 2.589c.37.185.74.554.74.924.185.37 0 .925-.37 1.295l-6.842 7.582c0 .37-.37.555-.74.555Zm1.849-9.617-.185 4.254 2.959-3.144-2.774-1.11Z"/><path fill="#fff" d="m330.545 222.949-32.724 79.123 12.475 5.16 32.725-79.123-12.476-5.16Z"/><path fill="#222" d="M310.495 308.646c-.185 0-.37 0-.555-.185l-12.575-5.178c-.74-.37-1.11-1.11-.74-1.849l32.732-78.965c.185-.37.37-.555.74-.739a1.18 1.18 0 0 1 1.11 0l12.575 5.178c.74.369 1.109 1.109.74 1.849l-32.733 78.964c-.185.37-.37.555-.74.74-.184.185-.369.185-.554.185Zm-10.726-7.212 9.986 4.068 31.623-76.56-9.986-4.069-31.623 76.561Z"/><path fill="#fff" d="m331.921 219.885-1.343 3.247 12.476 5.16 1.342-3.247-12.475-5.16Z"/><path fill="#222" d="M343.042 229.681c-.185 0-.37 0-.555-.185l-12.575-5.178c-.37-.185-.554-.37-.739-.74a1.177 1.177 0 0 1 0-1.109l1.294-3.329c.37-.74 1.11-1.109 1.849-.74l12.576 5.178c.739.37 1.109 1.11.739 1.85l-1.294 3.328c-.185.37-.37.555-.74.74-.185.185-.37.185-.555.185Zm-10.726-7.397 9.987 4.068.369-.739-9.986-4.069-.37.74Z"/><path fill="#FF3158" d="M335.645 210.633c.555-1.479 2.219-2.034 3.514-1.479l7.397 3.144c1.479.554 2.034 2.219 1.479 3.513l-3.698 9.062-12.575-5.178 3.883-9.062Z"/><path fill="#222" d="M344.522 226.352c-.185 0-.37 0-.555-.185l-12.575-5.178c-.37-.185-.555-.37-.74-.739a1.18 1.18 0 0 1 0-1.11l3.699-9.061c.924-2.035 3.328-3.144 5.363-2.22l7.397 3.144c2.034.925 3.144 3.329 2.219 5.363l-3.699 9.062c-.185.554-.554.924-1.109.924Zm-10.911-7.397 9.986 4.069 3.329-7.767c.37-.74 0-1.48-.74-1.85l-7.397-3.144c-.74-.369-1.479 0-1.849.74l-3.329 7.952ZM306.241 306.981c-.185 0-.369 0-.554-.185-.74-.37-1.11-1.11-.74-1.849l32.547-79.15c.37-.739 1.11-1.109 1.85-.739.739.37 1.109 1.109.739 1.849l-32.547 79.149c-.185.555-.74.925-1.295.925ZM301.988 305.317c-.185 0-.37 0-.555-.185-.74-.37-1.109-1.11-.74-1.849l32.733-79.15c.37-.739 1.109-1.109 1.849-.739.74.369 1.11 1.109.74 1.849l-32.733 79.149a1.39 1.39 0 0 1-1.294.925Z"/><path fill="#DADADA" d="M322.885 289.598c-4.253-.925-9.801-3.884-13.869-4.068-4.254-.185-7.583.739-8.322 3.513-.74 2.959 2.774 5.178 6.102 6.658 4.439 2.034 8.507 3.883 12.391 8.136"/><path fill="#222" d="M318.262 304.947c-3.699-4.069-7.582-5.918-11.836-7.767-2.034-.925-8.136-3.699-6.842-8.322.555-1.85 2.404-4.993 9.616-4.623 2.589.184 5.548 1.294 8.322 2.404 2.034.739 4.069 1.479 5.733 1.849l-.555 2.774c-1.849-.37-4.068-1.11-6.102-2.034-2.589-.925-5.363-2.035-7.583-2.22-2.219-.184-6.102 0-6.842 2.589-.37 1.665 1.295 3.329 5.363 5.178 4.623 2.035 8.877 4.069 12.945 8.507l-2.219 1.665Z"/></svg>