<svg xmlns="http://www.w3.org/2000/svg" width="401" height="401" fill="none" viewBox="0 0 401 401"><path fill="#DADADA" d="M259.77 85.447H44.698v142.949H259.77V85.446Z"/><path fill="#222" d="M259.77 229.876H44.698c-.74 0-1.48-.555-1.48-1.479V85.447c0-.74.555-1.48 1.48-1.48H259.77c.739 0 1.479.556 1.479 1.48v142.95c0 .924-.74 1.479-1.479 1.479Zm-213.778-2.774H258.29V86.927H45.992v140.175Z"/><path fill="#DADADA" d="M167.12 244.301h-29.958l-14.61 44.198h59.362l-14.794-44.198Z"/><path fill="#222" d="M181.914 289.793h-59.362c-.369 0-.924-.185-1.109-.555-.185-.369-.37-.739-.185-1.294l14.609-44.013c.185-.555.74-.925 1.295-.925h29.958c.555 0 1.11.37 1.295.925l14.609 44.013c.185.37 0 .925-.185 1.294-.185.37-.555.555-.925.555Zm-57.327-2.774h55.478l-13.684-41.239h-28.11l-13.684 41.239Z"/><path fill="#DADADA" d="M42.848 62.701c-5.732 0-10.54 4.623-10.54 10.541V233.76c0 1.479.554 2.774 1.479 3.698l5.548 5.548c-.925-.924-1.48-2.219-1.48-3.698V73.427c0-1.48.555-2.774 1.48-3.699.924-.924 2.219-1.479 3.698-1.479h218.401c1.479 0 2.774.555 3.698 1.48l-5.548-5.548c-.924-.925-2.219-1.48-3.698-1.48H42.848Z"/><path fill="#222" d="M39.335 244.3c-.37 0-.74-.185-.925-.369l-5.548-5.548c-1.294-1.295-1.849-2.959-1.849-4.808V73.242c0-6.658 5.363-11.836 11.835-11.836h213.038c1.849 0 3.514.74 4.808 1.85l5.548 5.547a1.45 1.45 0 0 1 0 2.035 1.45 1.45 0 0 1-2.034 0c-.74-.74-1.665-1.11-2.774-1.11h-218.4c-1.11 0-2.035.37-2.774 1.11-.74.74-1.11 1.664-1.11 2.774v165.695c0 1.11.37 2.035 1.11 2.774a1.45 1.45 0 0 1 0 2.034c-.185 0-.555.185-.925.185Zm3.514-180.305c-4.994 0-9.062 4.069-9.062 9.062v160.518c0 1.109.37 2.034 1.11 2.773l1.664 1.665V73.427c0-1.85.74-3.514 1.85-4.624 1.294-1.294 2.958-2.034 4.807-2.034h217.106l-1.664-1.664c-.74-.74-1.664-1.11-2.774-1.11H42.849Z"/><path fill="#F5F4F3" d="M261.433 68.064h-218.4c-2.959 0-5.363 2.405-5.363 5.178v165.696a5.367 5.367 0 0 0 5.363 5.363h218.4a5.367 5.367 0 0 0 5.363-5.363V73.428c-.185-2.96-2.589-5.364-5.363-5.364Zm-1.664 160.333H44.697V85.447H259.77v142.95Z"/><path fill="#222" d="M261.434 245.78h-218.4a6.63 6.63 0 0 1-6.658-6.657V73.427a6.63 6.63 0 0 1 6.657-6.658h218.401a6.63 6.63 0 0 1 6.657 6.658v165.696a6.63 6.63 0 0 1-6.657 6.657ZM43.034 69.543c-2.22 0-3.884 1.665-3.884 3.884v165.696c0 2.219 1.664 3.883 3.883 3.883h218.401c2.219 0 3.883-1.664 3.883-3.883V73.427c0-2.22-1.664-3.884-3.883-3.884h-218.4Zm216.735 160.333H44.698c-.74 0-1.48-.554-1.48-1.479V85.447c0-.74.555-1.48 1.48-1.48h215.071c.74 0 1.48.556 1.48 1.48v142.95c0 .925-.74 1.479-1.48 1.479Zm-213.777-2.774H258.29V86.927H45.992v140.175Z"/><path fill="#222" d="M152.141 79.16a2.219 2.219 0 1 0 0-4.438 2.219 2.219 0 0 0 0 4.438Z"/><path fill="#F5F4F3" d="M358.336 128.905H253.482a5.367 5.367 0 0 0-5.363 5.363v207.489a5.367 5.367 0 0 0 5.363 5.363h104.854a5.367 5.367 0 0 0 5.363-5.363V134.083c0-2.959-2.404-5.178-5.363-5.178Zm-1.664 202.126H255.146V146.288h101.526v184.743Z"/><path fill="#222" d="M358.336 348.415H253.482a6.63 6.63 0 0 1-6.658-6.657V134.083a6.63 6.63 0 0 1 6.658-6.657h104.854a6.63 6.63 0 0 1 6.658 6.657v207.49c0 3.883-2.959 6.842-6.658 6.842ZM253.482 130.2c-2.219 0-3.884 1.849-3.884 3.883v207.49c0 2.219 1.85 3.883 3.884 3.883h104.854c2.219 0 3.884-1.849 3.884-3.883v-207.49c0-2.219-1.85-3.883-3.884-3.883H253.482Zm103.19 202.126H255.146c-.74 0-1.479-.554-1.479-1.479V146.288c0-.739.554-1.479 1.479-1.479h101.526c.74 0 1.479.555 1.479 1.479v184.744c0 .74-.739 1.294-1.479 1.294Zm-100.046-2.774h98.751V147.768h-98.751v181.784Z"/><path fill="#222" d="M320.611 139.077h-19.603c-.739 0-1.479-.555-1.479-1.48 0-.925.555-1.479 1.479-1.479h19.603c.739 0 1.479.554 1.479 1.479s-.74 1.48-1.479 1.48ZM293.611 140.001a2.22 2.22 0 1 0 0-4.44 2.22 2.22 0 0 0 0 4.44Z"/><path fill="#DADADA" d="M253.297 123.357c-5.918 0-10.541 4.808-10.541 10.541v202.311c0 1.48.555 2.774 1.48 3.699l5.547 5.548c-.924-.925-1.479-2.219-1.479-3.699V134.083c0-1.48.555-2.774 1.479-3.699.925-.924 2.22-1.479 3.699-1.479h104.854c1.48 0 2.774.555 3.699 1.479l-5.548-5.548c-.925-.924-2.219-1.479-3.699-1.479h-99.491Z"/><path fill="#222" d="M249.783 346.751c-.37 0-.74-.185-.924-.37l-5.548-5.548c-1.295-1.294-2.035-2.959-2.035-4.808V133.898c0-6.657 5.363-12.02 12.021-12.02h99.491c1.85 0 3.514.74 4.808 2.034l5.548 5.548a1.45 1.45 0 0 1 0 2.034 1.45 1.45 0 0 1-2.034 0c-.74-.74-1.664-1.109-2.774-1.109H253.482c-1.11 0-2.034.369-2.774 1.109-.74.74-1.11 1.665-1.11 2.774v207.49c0 1.109.37 2.034 1.11 2.774a1.45 1.45 0 0 1 0 2.034c-.185.185-.555.185-.925.185Zm3.514-222.099c-5.178 0-9.247 4.068-9.247 9.246V336.21c0 1.109.37 2.034 1.11 2.774l1.664 1.664V134.083c0-1.849.74-3.513 2.035-4.808 1.294-1.294 2.958-2.034 4.808-2.034h103.56l-1.665-1.665c-.739-.739-1.664-1.109-2.774-1.109h-99.491v.185Z"/><path fill="#222" d="M356.672 146.288H255.146v184.744h101.526V146.288Z"/><path fill="#222" d="M356.672 332.326H255.146c-.74 0-1.479-.554-1.479-1.479V146.289c0-.74.554-1.48 1.479-1.48h101.526c.739 0 1.479.555 1.479 1.48v184.743c0 .74-.74 1.294-1.479 1.294Zm-100.047-2.774h98.752V147.768h-98.752v181.784Z"/><path fill="#FF3158" d="m334.85 171.624-29.034 8.136-29.034-8.136-11.65 3.328v74.711l11.65 3.329 29.034-8.137 29.034 8.137 11.65-3.329v-74.711l-11.65-3.328Zm-11.466 55.848-17.383-4.808-17.383 4.808v-30.328l17.383 4.808 17.383-4.808v30.328Z"/><path fill="#222" d="M334.85 254.472h-.37l-28.664-7.952-28.663 7.952h-.74l-11.651-3.329c-.554-.185-.924-.74-.924-1.295v-74.896c0-.554.37-1.109.924-1.294l11.651-3.329h.74l28.663 7.952 28.479-7.952c.37-.185.555-.185.925 0l11.65 3.329c.555.185.925.74.925 1.294v74.711c0 .555-.37 1.11-.925 1.295l-11.65 3.329s-.185.185-.37.185Zm-28.849-10.911h.37l28.664 7.952 10.171-2.774v-72.677l-10.171-2.774-28.664 7.952h-.74l-28.663-7.952-10.171 2.774v72.677l10.171 2.774 28.663-7.952h.37Zm17.384-14.61h-.37l-17.014-4.808-17.013 4.808c-.37.185-.925 0-1.295-.185-.369-.184-.554-.739-.554-1.109v-30.328c0-.37.185-.925.554-1.11.37-.185.74-.37 1.295-.185l17.013 4.808 17.014-4.808c.37-.185.924 0 1.294.185s.555.74.555 1.11v30.328c0 .37-.185.925-.555 1.109-.37 0-.739.185-.924.185Zm-33.472-29.958v26.63l15.718-4.439h.74l15.719 4.439v-26.63l-15.719 4.438h-.74l-15.718-4.438Z"/><path fill="#FF3158" d="M305.817 186.232v15.904l-28.849-8.137v58.992l-11.651-3.328v-74.711l40.5 11.28Z"/><path fill="#222" d="M276.968 254.286h-.37l-11.651-3.328c-.554-.185-.924-.74-.924-1.295v-74.711c0-.37.185-.924.554-1.109.37-.185.74-.37 1.295-.185l40.499 11.28c.555.185.925.74.925 1.295v15.719c0 .37-.185.924-.555 1.109-.37.185-.74.37-1.294.185l-27.185-7.582v57.143c0 .37-.185.925-.555 1.11-.185.369-.554.369-.739.369Zm-10.171-5.547 8.876 2.404V194c0-.37.185-.925.555-1.11.37-.185.74-.37 1.294-.185l27.185 7.582v-12.945l-37.91-10.541v71.938Z"/><path fill="#FF3158" d="m323.385 233.945-17.568-4.809v15.719l29.034 8.137V194l-11.466 3.144v36.801Z"/><path fill="#222" d="M334.85 254.287h-.369l-29.034-8.137a1.39 1.39 0 0 1-.925-1.294v-15.719c0-.37.185-.925.555-1.11.37-.185.74-.37 1.295-.185l15.718 4.439v-34.952c0-.555.37-1.109.925-1.294l11.651-3.329c.369-.185.924 0 1.294.185s.555.74.555 1.109v58.993c0 .369-.185.924-.555 1.109-.555.185-.74.185-1.11.185Zm-27.554-10.541 26.26 7.397V195.85l-8.877 2.404v35.691c0 .37-.185.925-.554 1.11-.37.185-.74.369-1.295.185l-15.719-4.439v12.945h.185Z"/><path fill="#FF3158" d="m334.85 171.625 11.651 3.328-40.684 11.281-40.5-11.281 11.651-3.328 28.849 8.136 29.033-8.136Z"/><path fill="#222" d="M306.001 187.713h-.369l-40.685-11.466a1.39 1.39 0 0 1-.924-1.294c0-.555.37-1.11.924-1.295l11.651-3.328h.74l28.663 7.952 28.664-7.952h.74l11.651 3.328c.554.185.924.74.924 1.295a1.39 1.39 0 0 1-.924 1.294l-40.5 11.281c-.37.185-.555.185-.555.185Zm-35.506-12.76 35.506 9.986 35.507-9.986-6.473-1.849-28.664 7.951h-.739l-28.664-7.951-6.473 1.849Z"/><path fill="#FF3158" d="m305.817 222.664 17.568 4.808v6.473l-17.568-4.808-17.199 4.808v-6.473l17.199-4.808Z"/><path fill="#222" d="M288.618 235.425c-.37 0-.555-.185-.924-.37-.37-.185-.555-.74-.555-1.11v-6.472c0-.555.37-1.11.924-1.295l17.384-4.993h.739l17.384 4.993c.554.185.924.74.924 1.295v6.472c0 .37-.185.925-.554 1.11-.37.185-.74.37-1.295.185l-17.013-4.809-17.014 4.809c.185.185 0 .185 0 .185Zm17.383-7.767h.37l15.719 4.438v-3.699l-16.089-4.438-16.088 4.438v3.699l15.534-4.438h.554Z"/><path fill="#FF3158" d="m181.175 116.33-29.034 8.137-29.034-8.137-11.65 3.329v74.711l11.65 3.329 29.034-8.137 29.034 8.137 11.65-3.329v-74.711l-11.65-3.329Zm-11.651 55.848-17.383-4.808-17.383 4.808V141.85l17.383 4.808 17.383-4.808v30.328Z"/><path fill="#222" d="M181.175 198.993h-.37l-28.664-7.952-28.664 7.952h-.739l-11.651-3.329c-.555-.184-.925-.739-.925-1.294v-74.711c0-.555.37-1.11.925-1.295l11.651-3.328h.739l28.664 7.952 28.479-7.952c.37-.185.555-.185.925 0l11.65 3.328c.555.185.925.74.925 1.295v74.711c0 .555-.37 1.11-.925 1.294l-11.65 3.329h-.37Zm-68.239-5.733 10.171 2.774 28.664-7.952h.74l28.664 7.952 10.171-2.774v-72.676l-10.171-2.774-28.664 7.952h-.74l-28.664-7.952-10.171 2.774v72.676Zm56.588-19.787h-.369l-17.014-4.808-17.013 4.808c-.37.185-.925 0-1.295-.185-.37-.185-.554-.74-.554-1.109V141.85c0-.37.184-.924.554-1.109.37-.185.74-.37 1.295-.185l17.013 4.808 17.014-4.808c.369-.185.924 0 1.294.185s.555.739.555 1.109v30.329c0 .369-.185.924-.555 1.109-.185.185-.555.185-.925.185ZM136.237 143.7v26.629l15.719-4.438h.74l15.719 4.438V143.7l-15.719 4.438h-.74l-15.719-4.438Z"/><path fill="#FF3158" d="M152.141 130.939v15.719l-29.034-8.137v59.177l-11.465-3.328v-74.711l40.499 11.28Z"/><path fill="#222" d="M123.292 198.993h-.37l-11.65-3.328a1.391 1.391 0 0 1-.925-1.295v-74.711c0-.37.185-.924.555-1.109.37-.185.74-.37 1.294-.185l40.5 11.28c.555.185.924.74.924 1.295v15.719c0 .37-.185.924-.554 1.109-.37.185-.74.37-1.295.185l-27.184-7.582v57.143c0 .37-.185.925-.555 1.11-.185.369-.555.369-.74.369Zm-10.356-5.732 8.877 2.404v-57.143c0-.37.185-.925.555-1.11.369-.185.739-.37 1.294-.185l27.184 7.582v-12.945l-37.725-10.54v71.937h-.185Z"/><path fill="#FF3158" d="m169.525 178.651-17.384-4.808v15.719l29.034 8.137v-59.178l-11.65 3.329v36.801Z"/><path fill="#222" d="M181.175 198.994h-.37l-29.034-8.137c-.554-.185-.924-.74-.924-1.295v-15.719c0-.37.185-.924.554-1.109.37-.185.74-.37 1.295-.185l15.534 4.438v-35.136c0-.555.37-1.11.925-1.295l11.65-3.329c.37-.184.925 0 1.295.185.369.185.554.74.554 1.11v58.992c0 .37-.185.925-.554 1.11-.37.37-.555.37-.925.37Zm-27.554-10.541 26.259 7.397v-55.479l-8.876 2.404v35.691c0 .37-.185.925-.555 1.11-.37.185-.74.37-1.294.185l-15.534-4.438v13.13Z"/><path fill="#FF3158" d="m181.175 116.33 11.65 3.329-40.684 11.28-40.499-11.28 11.465-3.329 29.034 8.137 29.034-8.137Z"/><path fill="#222" d="M152.141 132.418h-.37l-40.499-11.465a1.391 1.391 0 0 1-.925-1.295c0-.554.37-1.109.925-1.294l11.65-3.329h.74l28.479 7.952 28.664-7.952h.74l11.65 3.329c.555.185.925.74.925 1.294 0 .555-.37 1.11-.925 1.295l-40.499 11.28c-.185.185-.37.185-.555.185Zm-35.321-12.76 35.321 9.802 35.506-9.987-6.472-1.849-28.664 7.952h-.74l-28.664-7.952-6.287 2.034Z"/><path fill="#FF3158" d="m152.141 167.185 17.384 4.993v6.473l-17.384-4.809-17.383 4.809v-6.473l17.383-4.993Z"/><path fill="#222" d="M134.758 180.13c-.37 0-.555-.185-.925-.37s-.554-.739-.554-1.109v-6.473c0-.554.369-1.109.924-1.294l17.383-4.808h.74l17.383 4.808c.555.185.925.74.925 1.294v6.473c0 .37-.185.924-.555 1.109-.37.185-.739.37-1.294.185l-16.644-4.808-17.013 4.808s-.185.185-.37.185Zm1.479-6.842v3.698l15.719-4.438h.74l15.534 4.438v-3.698l-16.089-4.623-15.904 4.623Z"/><path fill="#fff" d="M315.248 291.272v-25.335H296.57v25.335h-13.13l22.562 24.781 22.376-24.781h-13.13Z"/><path fill="#222" d="M306.002 317.347c-.37 0-.74-.184-1.11-.369l-22.561-24.966c-.37-.37-.37-.924-.185-1.479s.74-.74 1.294-.74h11.651v-23.856c0-.739.555-1.479 1.479-1.479h18.863c.74 0 1.479.555 1.479 1.479v23.856h11.651c.555 0 1.109.37 1.294.74.185.555.185 1.109-.185 1.479l-22.746 24.966c-.185.369-.555.369-.924.369Zm-19.418-24.78 19.418 21.452 19.417-21.452h-9.986c-.74 0-1.479-.555-1.479-1.479v-23.856h-16.089v23.856c0 .739-.555 1.479-1.48 1.479h-9.801ZM329.487 116.33h-3.698v-9.986h3.698v9.986Zm0-19.787h-3.698V86.74l3.698-.37v10.172Zm-7.767-16.644c-1.479-.924-3.143-1.48-4.808-1.48h-3.698v-3.698h3.698c2.404 0 4.808.74 6.843 2.034L321.72 79.9Zm-18.492-1.48h-9.987v-3.698h9.987v3.699Zm-19.973 0h-9.986v-3.698h9.986v3.699ZM236.653 306.621h-9.986v-3.698h9.986v3.698Zm-19.972 0h-7.952c-.74 0-1.479 0-2.219-.185l.555-3.698c.555 0 1.109.185 1.664.185h7.952v3.698Zm-19.602-6.102c-1.295-2.034-2.035-4.438-2.035-6.658v-3.883h3.699v3.883c0 1.665.555 3.329 1.479 4.809l-3.143 1.849Zm1.664-20.527h-3.699v-9.986h3.699v9.986Zm0-19.788h-3.699v-9.986h3.699v9.986Z"/></svg>