<svg xmlns="http://www.w3.org/2000/svg" width="400" height="400" fill="none" viewBox="0 0 400 400"><path fill="#DADADA" d="M315.555 281.75H134.33l25.64 68.76h181.225l-25.64-68.76Z"/><path fill="#222" d="M335.06 358.025H153.835c-.575 0-1.095-.36-1.295-.9L126.9 288.37c-.16-.425-.1-.9.16-1.27s.685-.595 1.135-.595H309.42c.575 0 1.095.36 1.295.9l25.64 68.755c.16.425.1.9-.16 1.27s-.685.595-1.135.595Zm-180.265-2.765H333.07l-24.61-65.99H130.185l24.61 65.99Z" style="mix-blend-mode:multiply"/><path fill="#fff" d="M286.68 90.465H174.45v203.99h112.23V90.465Z"/><path fill="#fff" d="M178.125 118.351H62.22v163.405h115.905V118.351Z"/><path fill="#222" d="M148.465 282.615c-.765 0-1.385-.62-1.385-1.385V163.285a1.385 1.385 0 1 1 2.77 0V281.23c0 .765-.62 1.385-1.385 1.385ZM117.63 233.1H94.69c-.765 0-1.385-.62-1.385-1.385v-24.25c0-.765.62-1.385 1.385-1.385h22.94c.765 0 1.385.62 1.385 1.385v24.25c0 .765-.62 1.385-1.385 1.385Zm-21.56-2.765h20.175V208.85H96.07v21.485Z"/><path fill="#222" d="M117.63 220.965H94.69a1.385 1.385 0 1 1 0-2.77h22.94a1.385 1.385 0 1 1 0 2.77Z"/><path fill="#222" d="M106.16 233.1c-.765 0-1.385-.62-1.385-1.385v-24.25a1.385 1.385 0 1 1 2.77 0v24.25c0 .765-.62 1.385-1.385 1.385ZM245.66 282.616c-.765 0-1.385-.62-1.385-1.385v-44.575c0-7.95-5.9-14.415-13.155-14.415-7.255 0-13.155 6.465-13.155 14.415v44.575a1.385 1.385 0 1 1-2.77 0v-44.575c0-9.475 7.145-17.18 15.92-17.18s15.92 7.71 15.92 17.18v44.575c0 .765-.62 1.385-1.385 1.385h.01Z"/><path fill="#222" d="M189.88 226.395a1.38 1.38 0 0 1-1.105-2.215l41.24-54.51a1.385 1.385 0 0 1 2.21 0l34.225 45.25 6.995 9.26c.46.61.34 1.475-.27 1.935a1.38 1.38 0 0 1-1.935-.27l-6.99-9.26-33.12-43.79-40.135 53.05c-.27.36-.685.55-1.105.55h-.01Z"/><path fill="#444" d="M174.085 170.505v54.505h15.795l41.24-54.505h-57.035Z"/><path fill="#222" d="M189.88 226.395h-15.8c-.765 0-1.385-.62-1.385-1.385V170.5c0-.765.62-1.385 1.385-1.385h57.035c.525 0 1.005.295 1.24.765.235.47.18 1.03-.135 1.45l-41.24 54.51c-.26.345-.67.55-1.105.55l.005.005Zm-14.415-2.765h13.725l39.15-51.745h-52.875v51.745Z"/><path fill="#222" d="M197.04 282.615c-.765 0-1.385-.62-1.385-1.385v-65.385a1.385 1.385 0 1 1 2.77 0v65.385c0 .765-.62 1.385-1.385 1.385ZM265.2 282.615c-.765 0-1.385-.62-1.385-1.385v-65.385a1.385 1.385 0 1 1 2.77 0v65.385c0 .765-.62 1.385-1.385 1.385Z"/><path fill="#222" d="M286.68 282.615H62.22c-.765 0-1.385-.62-1.385-1.385V179.81a1.385 1.385 0 1 1 2.77 0v100.035H286.68a1.385 1.385 0 1 1 0 2.77Z"/><path fill="#444" d="M53.38 119.455v69.695h79.32l52.815-69.695H53.38Z"/><path fill="#222" d="M132.7 190.535H53.38c-.765 0-1.385-.62-1.385-1.385v-69.695c0-.765.62-1.385 1.385-1.385h132.135c.525 0 1.005.295 1.24.765.235.47.18 1.03-.135 1.45l-52.815 69.7c-.26.345-.67.55-1.1.55h-.005Zm-77.94-2.765h77.25l50.72-66.93H54.765v66.93h-.005Z"/><path fill="#222" d="M225.26 176.776c-.435 0-.86-.2-1.13-.58l-39.74-55.935a1.39 1.39 0 0 1 .325-1.93 1.39 1.39 0 0 1 1.93.325l39.74 55.935a1.39 1.39 0 0 1-.325 1.93 1.369 1.369 0 0 1-.8.255Z"/><path fill="#DADADA" d="m237.385 164.585 34.19 45.225-.125.1v65.405h-19.535v-44.58c0-8.745-6.5-15.795-14.53-15.795s-14.55 7.05-14.55 15.795v44.58H203.3V209.91l-.145-.1 34.23-45.225ZM138.965 183.22h-70.49v92.095h98.035v-128.45l-11.79 15.575-15.755 20.785v-.005Zm-15.08 42.57h-22.93v-24.26h22.93v24.26Zm67.89-112.26-11.425 15.08v35.97h47.7l-36.275-51.05Z" style="mix-blend-mode:multiply"/><path fill="#FF3158" d="M288.486 70.28H172.281a5.885 5.885 0 0 0-5.885 5.885V306.32a5.885 5.885 0 0 0 5.885 5.885h116.205a5.885 5.885 0 0 0 5.885-5.885V76.17a5.885 5.885 0 0 0-5.885-5.885v-.005Zm-1.805 224.17H174.086V89.65h112.595v204.805-.005Z"/><path fill="#222" d="M288.486 313.59H172.281c-4.01 0-7.27-3.26-7.27-7.27V76.17c0-4.01 3.26-7.27 7.27-7.27h116.205c4.01 0 7.27 3.26 7.27 7.27v230.155c0 4.01-3.26 7.27-7.27 7.27v-.005ZM172.281 71.665a4.509 4.509 0 0 0-4.505 4.505v230.155a4.509 4.509 0 0 0 4.505 4.505h116.205a4.509 4.509 0 0 0 4.505-4.505V76.17a4.509 4.509 0 0 0-4.505-4.505H172.281Zm114.4 224.17H174.086c-.765 0-1.385-.62-1.385-1.385V89.65c0-.765.62-1.385 1.385-1.385h112.595c.765 0 1.385.62 1.385 1.385v204.805c0 .765-.62 1.385-1.385 1.385v-.005Zm-111.215-2.765h109.83V91.03h-109.83v202.04Z"/><path fill="#222" d="M246.625 81.525H224.83a1.385 1.385 0 1 1 0-2.77h21.795a1.385 1.385 0 1 1 0 2.77ZM216.67 82.675a2.53 2.53 0 1 0 0-5.06 2.53 2.53 0 0 0 0 5.06Z"/><path fill="#444" d="M172.03 64.145c-6.5 0-11.77 5.27-11.77 11.77v224.266c0 1.625.66 3.095 1.725 4.16l6.135 6.135a5.865 5.865 0 0 1-1.725-4.16V76.171c0-1.626.66-3.096 1.725-4.16a5.865 5.865 0 0 1 4.16-1.725h116.205c1.625 0 3.095.66 4.16 1.724l-6.135-6.135a5.865 5.865 0 0 0-4.16-1.725H172.03v-.005Z"/><path fill="#222" d="M168.12 311.866c-.355 0-.71-.135-.98-.405l-6.135-6.135a7.22 7.22 0 0 1-2.13-5.14V75.921c0-7.255 5.9-13.155 13.155-13.155h110.32a7.22 7.22 0 0 1 5.14 2.13l6.125 6.125.01.01a1.382 1.382 0 1 1-1.955 1.955 4.474 4.474 0 0 0-3.185-1.32H172.28c-1.205 0-2.335.47-3.185 1.32-.85.85-1.32 1.98-1.32 3.185v230.155c0 1.205.47 2.335 1.32 3.185a1.382 1.382 0 0 1-.98 2.36l.005-.005Zm3.91-246.335c-5.73 0-10.39 4.66-10.39 10.39v224.265c0 1.205.47 2.335 1.32 3.185l2.05 2.05V76.171a7.22 7.22 0 0 1 2.13-5.14 7.22 7.22 0 0 1 5.14-2.13h115.305l-2.05-2.05a4.474 4.474 0 0 0-3.185-1.32H172.03Z"/><path fill="#222" d="M257.286 106.226h89.335v78.95h-28.165l-10.265 14.53v-14.53h-50.905v-78.95Z"/><path fill="#DADADA" d="M308.191 201.09a1.38 1.38 0 0 1-1.386-1.385v-13.15h-49.524c-.765 0-1.385-.62-1.385-1.385v-78.945c0-.765.62-1.385 1.385-1.385h89.334c.765 0 1.386.62 1.386 1.385v78.95c0 .765-.621 1.385-1.386 1.385h-27.449l-9.85 13.945a1.384 1.384 0 0 1-1.13.585h.005Zm-49.525-17.295h49.525c.765 0 1.385.62 1.385 1.385v10.18l7.75-10.975c.26-.365.679-.585 1.129-.585h26.785v-76.19h-86.569v76.185h-.005Z"/><path fill="#FF3158" d="M301.949 121.315c-13.465 0-24.385 10.915-24.385 24.385 0 13.47 10.915 24.385 24.385 24.385 13.47 0 24.385-10.915 24.385-24.385 0-13.47-10.915-24.385-24.385-24.385Z"/><path fill="#222" d="M301.95 171.466c-14.205 0-25.765-11.56-25.765-25.765s11.56-25.765 25.765-25.765 25.765 11.56 25.765 25.765-11.56 25.765-25.765 25.765Zm0-48.77c-12.685 0-23 10.32-23 23s10.32 23 23 23 23-10.32 23-23-10.32-23-23-23Z"/><path fill="#fff" d="M313.765 143.091c-1.115 2.66-9.355 14.46-11.815 17.94-2.46-3.48-10.7-15.28-11.815-17.94-1.565-3.735-.305-7.47 2.815-8.775 3.12-1.305 6.915.31 8.48 4.045.195.465.365 1.12.52 1.91.15-.79.325-1.45.52-1.91 1.565-3.735 5.36-5.35 8.48-4.045 3.12 1.305 4.38 5.035 2.815 8.775Z"/><path fill="#222" d="M301.95 162.416c-.45 0-.87-.22-1.13-.585-1.78-2.52-10.72-15.24-11.96-18.205-1.845-4.41-.315-8.96 3.555-10.585 3.485-1.46 7.405 0 9.535 3.335.9-1.405 2.14-2.515 3.595-3.185 1.93-.89 4.04-.945 5.935-.15 3.875 1.62 5.405 6.17 3.56 10.58-1.245 2.97-10.18 15.685-11.96 18.205-.26.365-.68.585-1.13.585v.005Zm-6.755-27.165c-.575 0-1.15.11-1.71.345-2.46 1.03-3.33 3.96-2.075 6.965.85 2.035 6.58 10.42 10.54 16.07 4.75-6.775 9.785-14.265 10.54-16.07 1.255-3.005.385-5.935-2.075-6.965-1.17-.49-2.49-.45-3.71.11-1.3.6-2.35 1.73-2.96 3.19-.1.245-.26.725-.435 1.64a1.382 1.382 0 0 1-1.355 1.12c-.66 0-1.23-.47-1.355-1.12-.18-.92-.335-1.4-.435-1.64-.95-2.265-2.94-3.645-4.965-3.645h-.005ZM225.77 254.2a2.83 2.83 0 1 0 0-5.66 2.83 2.83 0 0 0 0 5.66Z"/></svg>