<svg xmlns="http://www.w3.org/2000/svg" width="400" height="401" fill="none" viewBox="0 0 400 401"><path fill="#fff" d="M286.7 90.15H174.1v204.8h112.6V90.15Z"/><path fill="#fff" d="M175.75 119.95H63.15V281.8h112.6V119.95Z"/><path fill="#DADADA" d="M315.55 282.25h-181.2l25.6 68.75H341.2l-25.65-68.75Z"/><path fill="#222" d="M335.05 358.5h-181.2c-.55 0-1.1-.35-1.3-.9l-25.65-68.75c-.15-.4-.1-.9.15-1.25s.7-.6 1.15-.6h181.25c.6 0 1.1.35 1.3.9l25.65 68.75c.15.4.1.9-.15 1.25s-.75.6-1.2.6Zm-180.25-2.75h178.3l-24.6-66H130.2l24.6 66Z"/><path fill="#fff" d="M286.65 89.6h-111.2v203.95h111.2V89.6Z"/><path fill="#DADADA" d="m237.4 165.1 34.2 45.2-.1.1v65.4h-19.55v-44.6c0-8.75-6.5-15.8-14.55-15.8s-14.55 7.05-14.55 15.8v44.6H203.3v-65.4l-.15-.1 34.25-45.2ZM138.95 183.7h-70.5v92.1h98.05V147.35l-11.8 15.55-15.75 20.8Zm-15.05 42.6h-22.95v-24.25h22.95v24.25Zm67.85-112.25-11.45 15.1v35.95H228l-36.25-51.05Z"/><path fill="#222" d="M148.45 283.1c-.75 0-1.4-.6-1.4-1.4V163.8c0-.75.6-1.4 1.4-1.4.8 0 1.4.6 1.4 1.4v117.95c0 .75-.6 1.35-1.4 1.35ZM117.65 233.6H94.7c-.75 0-1.4-.6-1.4-1.4v-24.25c0-.75.6-1.4 1.4-1.4h22.95c.75 0 1.4.6 1.4 1.4v24.25c-.05.8-.65 1.4-1.4 1.4Zm-21.6-2.75h20.15v-21.5H96l.05 21.5Z"/><path fill="#222" d="M117.65 221.45H94.7c-.75 0-1.4-.6-1.4-1.4 0-.8.6-1.4 1.4-1.4h22.95c.75 0 1.4.6 1.4 1.4 0 .8-.65 1.4-1.4 1.4Z"/><path fill="#222" d="M106.15 233.6c-.75 0-1.4-.6-1.4-1.4v-24.25c0-.75.6-1.4 1.4-1.4.8 0 1.4.6 1.4 1.4v24.25c0 .8-.6 1.4-1.4 1.4ZM245.65 283.1c-.75 0-1.4-.6-1.4-1.4v-44.55c0-7.95-5.9-14.4-13.15-14.4s-13.15 6.45-13.15 14.4v44.55c0 .75-.6 1.4-1.4 1.4-.8 0-1.4-.6-1.4-1.4v-44.55c0-9.5 7.15-17.2 15.9-17.2s15.9 7.7 15.9 17.2v44.6c.1.75-.55 1.35-1.3 1.35Z"/><path fill="#222" d="M189.9 226.9c-.3 0-.6-.1-.85-.3-.6-.45-.75-1.35-.25-1.95l41.25-54.5c.25-.35.65-.55 1.1-.55.45 0 .85.2 1.1.55l34.2 45.25 7 9.25c.45.6.35 1.5-.25 1.95-.6.45-1.5.35-1.95-.25l-7-9.25-33.1-43.8L191 226.35c-.25.35-.7.55-1.1.55Z"/><path fill="#222" d="M174.1 171v54.5h15.8l41.2-54.5h-57Z"/><path fill="#222" d="M189.9 226.9h-15.8c-.75 0-1.4-.6-1.4-1.4V171c0-.75.6-1.4 1.4-1.4h57.05c.5 0 1 .3 1.25.75s.2 1.05-.15 1.45L191 226.3c-.3.4-.7.6-1.1.6Zm-14.45-2.75h13.75l39.15-51.75h-52.9v51.75Z"/><path fill="#222" d="M197.05 283.1c-.75 0-1.4-.6-1.4-1.4v-65.35c0-.75.6-1.4 1.4-1.4.8 0 1.4.6 1.4 1.4v65.4c-.05.75-.65 1.35-1.4 1.35ZM265.2 283.1c-.75 0-1.4-.6-1.4-1.4v-65.35c0-.75.6-1.4 1.4-1.4.8 0 1.4.6 1.4 1.4v65.4c0 .75-.65 1.35-1.4 1.35Z"/><path fill="#222" d="M286.7 283.1H62.2c-.75 0-1.4-.6-1.4-1.4V180.3c0-.75.6-1.4 1.4-1.4.8 0 1.4.6 1.4 1.4v100.05h223.05c.75 0 1.4.6 1.4 1.4 0 .8-.6 1.35-1.35 1.35Z"/><path fill="#222" d="M53.4 119.95v69.7h79.3l52.8-69.7H53.4Z"/><path fill="#222" d="M132.7 191.05H53.4c-.75 0-1.4-.6-1.4-1.4v-69.7c0-.75.6-1.4 1.4-1.4h132.1c.5 0 1 .3 1.25.75s.2 1.05-.15 1.45l-52.8 69.75c-.25.35-.65.55-1.1.55Zm-77.95-2.8H132l50.7-66.95H54.75v66.95Z"/><path fill="#222" d="M225.25 177.25c-.45 0-.85-.2-1.15-.6l-39.75-55.95c-.45-.6-.3-1.5.3-1.95.6-.45 1.5-.3 1.95.3L226.35 175c.45.6.3 1.5-.3 1.95-.25.25-.5.3-.8.3Z"/><path fill="#FF3158" d="M288.5 70.8H172.3a5.91 5.91 0 0 0-5.9 5.9v230.15c0 3.25 2.65 5.9 5.9 5.9h116.2c3.25 0 5.9-2.65 5.9-5.9V76.65c-.05-3.25-2.65-5.85-5.9-5.85Zm-1.8 224.15H174.1V90.15h112.6v204.8Z"/><path fill="#222" d="M288.5 314.1H172.3c-4 0-7.25-3.25-7.25-7.25V76.65c0-4 3.25-7.25 7.25-7.25h116.2c4 0 7.25 3.25 7.25 7.25V306.8c0 4.05-3.25 7.3-7.25 7.3ZM172.3 72.15c-2.5 0-4.5 2-4.5 4.5V306.8c0 2.5 2 4.5 4.5 4.5h116.2c2.5 0 4.5-2 4.5-4.5V76.65c0-2.5-2-4.5-4.5-4.5H172.3Zm114.4 224.2H174.1c-.75 0-1.4-.6-1.4-1.4V90.15c0-.75.6-1.4 1.4-1.4h112.6c.75 0 1.4.6 1.4 1.4v204.8c-.05.75-.65 1.4-1.4 1.4Zm-111.25-2.8H285.3v-202H175.45v202Z"/><path fill="#222" d="M246.6 82.05h-21.8c-.75 0-1.4-.6-1.4-1.4 0-.8.6-1.4 1.4-1.4h21.8c.75 0 1.4.6 1.4 1.4 0 .8-.6 1.4-1.4 1.4ZM216.65 83.2a2.55 2.55 0 1 0 0-5.1 2.55 2.55 0 0 0 0 5.1Z"/><path fill="#444" d="M172.05 64.65c-6.5 0-11.75 5.25-11.75 11.75v224.25c0 1.6.65 3.1 1.75 4.15l6.15 6.15c-1.05-1.05-1.75-2.55-1.75-4.15V76.65c0-1.6.65-3.1 1.75-4.15 1.1-1.05 2.55-1.7 4.15-1.7H288.5c1.6 0 3.1.65 4.15 1.7l-6.15-6.15a5.9 5.9 0 0 0-4.15-1.7h-110.3Z"/><path fill="#222" d="M168.1 312.35c-.35 0-.7-.15-1-.4l-6.1-6.15c-1.4-1.4-2.15-3.2-2.15-5.15V76.4c0-7.25 5.9-13.15 13.15-13.15h110.3c1.95 0 3.75.75 5.15 2.15l6.1 6.1c.55.55.55 1.4 0 1.95s-1.4.55-1.95 0c-.85-.85-2-1.3-3.2-1.3H172.3c-1.2 0-2.35.45-3.2 1.3-.85.85-1.3 2-1.3 3.2V306.8c0 1.2.45 2.35 1.3 3.2.55.55.55 1.4 0 1.95-.25.3-.65.4-1 .4Zm3.95-246.3c-5.75 0-10.4 4.65-10.4 10.4V300.7c0 1.2.45 2.35 1.3 3.2l2.05 2.05V76.65c0-1.95.75-3.75 2.15-5.15 1.4-1.4 3.2-2.15 5.15-2.15h115.3l-2.05-2.05c-.85-.85-2-1.3-3.2-1.3l-110.3.05Z"/><path fill="#222" d="M257.3 106.7h89.3v79h-28.15l-10.25 14.5v-14.5h-50.9v-79Z"/><path fill="#222" d="M308.2 201.6c-.15 0-.3 0-.4-.05-.6-.2-.95-.7-.95-1.3V187.1h-49.5c-.75 0-1.4-.6-1.4-1.4v-79c0-.75.6-1.4 1.4-1.4h89.35c.75 0 1.4.6 1.4 1.4v78.95c0 .75-.6 1.4-1.4 1.4h-27.45L309.3 201c-.25.4-.7.6-1.1.6Zm-49.55-17.3h49.5c.75 0 1.4.6 1.4 1.4v10.2l7.75-11c.25-.35.7-.6 1.15-.6h26.8v-76.2h-86.6v76.2Z"/><path fill="#FF3158" d="M301.95 121.8c-13.45 0-24.4 10.9-24.4 24.4 0 13.5 10.9 24.4 24.4 24.4 13.5 0 24.4-10.9 24.4-24.4 0-13.5-10.95-24.4-24.4-24.4Z"/><path fill="#222" d="M301.95 171.95c-14.2 0-25.75-11.55-25.75-25.75s11.55-25.75 25.75-25.75S327.7 132 327.7 146.2s-11.55 25.75-25.75 25.75Zm0-48.75c-12.7 0-23 10.3-23 23s10.3 23 23 23 23-10.3 23-23-10.3-23-23-23Z"/><path fill="#fff" d="M313.75 143.6c-1.1 2.65-9.35 14.45-11.8 17.95-2.45-3.5-10.7-15.3-11.8-17.95-1.55-3.75-.3-7.45 2.8-8.75 3.1-1.3 6.9.3 8.5 4.05.2.45.35 1.1.5 1.9.15-.8.35-1.45.5-1.9 1.55-3.75 5.35-5.35 8.5-4.05 3.1 1.25 4.4 5 2.8 8.75Z"/><path fill="#222" d="M301.95 162.9c-.45 0-.85-.2-1.15-.6-1.8-2.5-10.7-15.25-11.95-18.2-1.85-4.4-.3-8.95 3.55-10.6 3.5-1.45 7.4 0 9.55 3.35.9-1.4 2.15-2.5 3.6-3.2 1.95-.9 4.05-.95 5.95-.15 3.9 1.6 5.4 6.15 3.55 10.6-1.25 2.95-10.2 15.7-11.95 18.2-.3.4-.7.6-1.15.6Zm-6.75-27.15c-.6 0-1.15.1-1.7.35-2.45 1.05-3.35 3.95-2.1 6.95.85 2.05 6.6 10.4 10.55 16.05 4.75-6.75 9.8-14.25 10.55-16.05 1.25-3 .4-5.95-2.1-6.95-1.15-.5-2.5-.45-3.7.1-1.3.6-2.35 1.75-2.95 3.2-.1.25-.25.75-.45 1.65-.1.65-.7 1.1-1.35 1.1-.65 0-1.25-.45-1.35-1.1-.2-.9-.35-1.4-.45-1.65-.95-2.25-2.9-3.65-4.95-3.65ZM225.75 254.7a2.85 2.85 0 1 0 0-5.7 2.85 2.85 0 0 0 0 5.7Z"/></svg>