<svg xmlns="http://www.w3.org/2000/svg" width="400" height="401" fill="none" viewBox="0 0 400 401"><path fill="#fff" d="M266.625 89.194h-124.7V313.36h124.7V89.194Z"/><path fill="#222" d="M129.24 300.229a1.38 1.38 0 0 1-1.38-1.385v-129.5c0-.765.62-1.385 1.38-1.385.76 0 1.38.62 1.38 1.385v129.5c0 .765-.62 1.385-1.38 1.385ZM265.245 300.229H143.03a1.38 1.38 0 0 1-1.38-1.385c0-.765.62-1.385 1.38-1.385h122.215c.765 0 1.38.62 1.38 1.385s-.62 1.385-1.38 1.385ZM133.485 121.22v51.38l.98-1.83 35.455-49.55h-36.435Z"/><path fill="#222" d="M133.485 173.985a1.38 1.38 0 0 1-1.38-1.38V121.22c0-.765.62-1.385 1.38-1.385h36.435a1.38 1.38 0 0 1 1.125 2.185l-35.4 49.48-.94 1.755a1.39 1.39 0 0 1-1.22.73Zm1.38-51.385v45.23l32.365-45.23h-32.365Z"/><path fill="#DADADA" d="M141.925 191.234v101.115h7.125V151.314l-7.125 9.41v30.51Zm34.86-76.515-12.545 16.56v39.495h52.37l-39.83-56.05.005-.005Z" style="mix-blend-mode:multiply"/><path fill="#222" d="M235.955 300.23a1.38 1.38 0 0 1-1.38-1.385V249.9c0-8.805-6.54-15.965-14.58-15.965s-14.58 7.16-14.58 15.965v48.945c0 .765-.62 1.385-1.38 1.385-.76 0-1.38-.62-1.38-1.385V249.9c0-10.325 7.78-18.73 17.345-18.73 9.565 0 17.345 8.4 17.345 18.73v48.945c0 .765-.62 1.385-1.38 1.385h-.01Z"/><path fill="#222" d="M265.245 238.5c-.42 0-.835-.19-1.105-.55l-7.675-10.165-36.475-48.225-44.175 58.39a1.38 1.38 0 1 1-2.205-1.665l45.28-59.85a1.385 1.385 0 0 1 2.21 0l37.575 49.68 7.68 10.17a1.38 1.38 0 0 1-1.1 2.215h-.01Z"/><path fill="#222" d="M157.365 177.27v59.845h17.35l45.28-59.845h-62.63Z"/><path fill="#222" d="M174.715 238.5H157.37a1.38 1.38 0 0 1-1.38-1.385v-59.85c0-.765.62-1.385 1.38-1.385h62.625c.525 0 1.005.295 1.24.765.235.47.18 1.03-.135 1.45l-45.28 59.85c-.26.345-.67.55-1.105.55v.005Zm-15.965-2.765h15.275l43.19-57.085H158.75v57.085Z"/><path fill="#222" d="M182.575 300.229a1.38 1.38 0 0 1-1.38-1.385v-71.795c0-.765.62-1.385 1.38-1.385.76 0 1.38.62 1.38 1.385v71.795c0 .765-.62 1.385-1.38 1.385ZM257.41 300.229a1.38 1.38 0 0 1-1.38-1.385v-71.795c0-.765.62-1.385 1.38-1.385.76 0 1.38.62 1.38 1.385v71.795c0 .765-.62 1.385-1.38 1.385ZM213.555 184.019c-.43 0-.86-.2-1.13-.58l-43.635-61.42a1.39 1.39 0 0 1 .325-1.93 1.39 1.39 0 0 1 1.93.325l43.635 61.42a1.39 1.39 0 0 1-.325 1.93c-.245.175-.52.255-.8.255Z"/><path fill="#DADADA" d="m226.87 170.77 37.54 49.655-.135.11v71.81h-21.45V243.4c0-9.605-7.135-17.345-15.955-17.345s-15.975 7.74-15.975 17.345v48.945h-21.45v-71.81l-.155-.11 37.585-49.655h-.005Z" style="mix-blend-mode:multiply"/><path fill="#222" d="M214.115 269.165a3.105 3.105 0 1 0 0-6.21 3.105 3.105 0 0 0 0 6.21Z"/><path fill="#FF3158" d="M267.535 67.23h-127.59a6.46 6.46 0 0 0-6.46 6.46v252.704a6.465 6.465 0 0 0 6.46 6.465h127.59c3.57 0 6.46-2.895 6.46-6.465V73.69a6.46 6.46 0 0 0-6.46-6.46Zm-1.98 246.129h-123.63V88.489h123.63v224.87Z"/><path fill="#222" d="M267.535 334.24h-127.59c-4.325 0-7.845-3.52-7.845-7.845V73.69c0-4.325 3.52-7.845 7.845-7.845h127.59c4.325 0 7.845 3.52 7.845 7.845v252.705c0 4.325-3.52 7.845-7.845 7.845ZM139.945 68.61c-2.8 0-5.08 2.28-5.08 5.08v252.705c0 2.8 2.28 5.08 5.08 5.08h127.59c2.8 0 5.08-2.28 5.08-5.08V73.69c0-2.8-2.28-5.08-5.08-5.08h-127.59Zm125.61 246.135h-123.63a1.38 1.38 0 0 1-1.38-1.385V88.49c0-.765.62-1.385 1.38-1.385h123.63c.765 0 1.38.62 1.38 1.385v224.87c0 .765-.62 1.385-1.38 1.385ZM143.31 311.98h120.865V89.875H143.31V311.98Z"/><path fill="#222" d="M221.575 79.434h-23.93a1.38 1.38 0 0 1-1.38-1.385c0-.765.62-1.385 1.38-1.385h23.93c.765 0 1.38.62 1.38 1.385s-.62 1.385-1.38 1.385ZM188.685 80.83a2.775 2.775 0 1 0 0-5.55 2.775 2.775 0 0 0 0 5.55Z"/><path fill="#DADADA" d="M139.67 60.49c-7.14 0-12.925 5.784-12.925 12.924v246.24c0 1.785.725 3.4 1.895 4.57l6.735 6.735a6.443 6.443 0 0 1-1.895-4.57v-252.7c0-1.785.725-3.4 1.895-4.57a6.443 6.443 0 0 1 4.57-1.895h127.59c1.785 0 3.4.725 4.57 1.895l-6.735-6.735a6.443 6.443 0 0 0-4.57-1.895H139.67Z"/><path fill="#222" d="M135.375 332.344c-.355 0-.71-.135-.98-.405l-.015-.015-6.725-6.725a7.799 7.799 0 0 1-2.3-5.55V73.414c0-7.89 6.42-14.305 14.305-14.305h121.125a7.79 7.79 0 0 1 5.545 2.295l6.735 6.74a1.382 1.382 0 1 1-1.955 1.955l-.01-.01a5.059 5.059 0 0 0-3.58-1.475H139.93c-1.355 0-2.635.53-3.59 1.49a5.046 5.046 0 0 0-1.49 3.59V326.4c0 1.355.53 2.635 1.49 3.59a1.382 1.382 0 0 1-.98 2.36l.015-.005Zm4.295-270.47c-6.365 0-11.54 5.18-11.54 11.54v246.24c0 1.355.53 2.635 1.49 3.595l2.485 2.485V73.689a7.79 7.79 0 0 1 2.295-5.545 7.796 7.796 0 0 1 5.545-2.3h126.93l-2.485-2.485a5.046 5.046 0 0 0-3.59-1.49H139.675l-.005.005Z"/></svg>