<svg xmlns="http://www.w3.org/2000/svg" width="400" height="401" fill="none" viewBox="0 0 400 401"><path fill="#fff" d="M266.65 89.201h-124.7v224.15h124.7V89.201Z"/><path fill="#DADADA" d="M141.95 191.252v101.1h7.1v-141.05l-7.1 9.45v30.5Zm34.85-76.5-12.55 16.55v39.5h52.35l-39.8-56.05ZM226.85 170.752l37.55 49.65-.15.1v71.8H242.8v-48.95c0-9.6-7.15-17.35-15.95-17.35-8.8 0-16 7.75-16 17.35v48.95H189.4v-71.75l-.15-.1 37.6-49.7Z"/><path fill="#222" d="M129.25 300.251c-.75 0-1.4-.6-1.4-1.4v-129.5c0-.75.6-1.4 1.4-1.4.8 0 1.4.6 1.4 1.4v129.5c-.05.75-.65 1.4-1.4 1.4ZM265.25 300.251h-122.2c-.75 0-1.4-.6-1.4-1.4 0-.8.6-1.4 1.4-1.4h122.2c.75 0 1.4.6 1.4 1.4 0 .8-.65 1.4-1.4 1.4ZM133.5 121.201v51.4l.95-1.85 35.45-49.55h-36.4Z"/><path fill="#222" d="M133.5 174.002c-.1 0-.25 0-.35-.05-.6-.15-1.05-.7-1.05-1.35v-51.35c0-.75.6-1.4 1.4-1.4h36.45c.5 0 1 .3 1.25.75s.2 1-.1 1.45l-35.4 49.5-.95 1.75c-.3.4-.75.7-1.25.7Zm1.35-51.4v45.25l32.35-45.25h-32.35ZM235.95 300.251c-.75 0-1.4-.6-1.4-1.4v-48.95c0-8.8-6.55-15.95-14.6-15.95s-14.6 7.15-14.6 15.95v48.95c0 .75-.6 1.4-1.4 1.4-.8 0-1.4-.6-1.4-1.4v-48.95c0-10.3 7.8-18.75 17.35-18.75s17.35 8.4 17.35 18.75v48.95c.1.75-.55 1.4-1.3 1.4Z"/><path fill="#222" d="M265.25 238.502c-.4 0-.85-.2-1.1-.55l-7.65-10.15-36.5-48.25-44.2 58.4c-.45.6-1.35.75-1.95.25-.6-.45-.75-1.35-.25-1.95l45.3-59.85c.25-.35.65-.55 1.1-.55.45 0 .85.2 1.1.55l37.6 49.7 7.7 10.15c.45.6.35 1.5-.25 1.95-.3.2-.6.3-.9.3Z"/><path fill="#222" d="M157.35 177.252v59.85h17.35l45.3-59.85h-62.65Z"/><path fill="#222" d="M174.7 238.502h-17.35c-.75 0-1.4-.6-1.4-1.4v-59.85c0-.75.6-1.4 1.4-1.4H220c.5 0 1 .3 1.25.75s.2 1.05-.15 1.45l-45.3 59.85c-.25.4-.65.6-1.1.6Zm-15.95-2.75H174l43.2-57.1h-58.45v57.1Z"/><path fill="#222" d="M182.55 300.251c-.75 0-1.4-.6-1.4-1.4v-71.8c0-.75.6-1.4 1.4-1.4.8 0 1.4.6 1.4 1.4v71.8c0 .75-.6 1.4-1.4 1.4ZM257.4 300.251c-.75 0-1.4-.6-1.4-1.4v-71.8c0-.75.6-1.4 1.4-1.4.8 0 1.4.6 1.4 1.4v71.8c0 .75-.65 1.4-1.4 1.4ZM213.55 184.001c-.45 0-.85-.2-1.15-.6l-43.65-61.4c-.45-.6-.3-1.5.3-1.95.6-.45 1.5-.3 1.95.3l43.65 61.4c.45.6.3 1.5-.3 1.95-.25.25-.5.3-.8.3ZM214.1 269.151a3.1 3.1 0 1 0 0-6.2 3.1 3.1 0 0 0 0 6.2Z"/><path fill="#FF3158" d="M267.55 67.252h-127.6c-3.55 0-6.45 2.9-6.45 6.45v252.7c0 3.55 2.9 6.45 6.45 6.45h127.6c3.55 0 6.45-2.9 6.45-6.45v-252.7c0-3.55-2.9-6.45-6.45-6.45Zm-2 246.1H141.9V88.502h123.65v224.85Z"/><path fill="#222" d="M267.55 334.253h-127.6c-4.3 0-7.85-3.5-7.85-7.85v-252.7c0-4.3 3.5-7.85 7.85-7.85h127.6c4.35 0 7.85 3.5 7.85 7.85v252.7c0 4.35-3.55 7.85-7.85 7.85Zm-127.6-265.65c-2.8 0-5.1 2.3-5.1 5.1v252.7c0 2.8 2.3 5.1 5.1 5.1h127.6c2.8 0 5.1-2.3 5.1-5.1v-252.7c0-2.8-2.3-5.1-5.1-5.1h-127.6Zm125.6 246.15H141.9c-.75 0-1.4-.6-1.4-1.4V88.503c0-.75.6-1.4 1.4-1.4h123.65c.75 0 1.4.6 1.4 1.4v224.85c0 .8-.65 1.4-1.4 1.4Zm-122.25-2.75h120.85v-222.1H143.3v222.1Z"/><path fill="#222" d="M221.55 79.452H197.6c-.75 0-1.4-.6-1.4-1.4 0-.8.6-1.4 1.4-1.4h23.95c.75 0 1.4.6 1.4 1.4 0 .8-.6 1.4-1.4 1.4ZM188.7 80.802a2.75 2.75 0 1 0 0-5.5 2.75 2.75 0 0 0 0 5.5Z"/><path fill="#444" d="M139.65 60.502c-7.15 0-12.95 5.8-12.95 12.9v246.25c0 1.8.7 3.4 1.9 4.55l6.75 6.75c-1.15-1.15-1.9-2.8-1.9-4.55v-252.7c0-1.8.75-3.4 1.9-4.55s2.8-1.9 4.55-1.9h127.6c1.8 0 3.4.7 4.55 1.9l-6.75-6.75c-1.15-1.15-2.8-1.9-4.55-1.9h-121.1Z"/><path fill="#222" d="M135.4 332.353c-.35 0-.7-.15-1-.4l-6.7-6.75a7.75 7.75 0 0 1-2.3-5.55V73.403c0-7.9 6.4-14.3 14.3-14.3h121.1c2.1 0 4.05.8 5.55 2.3l6.75 6.75c.55.55.55 1.4 0 1.95s-1.4.55-1.95 0c-.95-.95-2.25-1.45-3.6-1.45h-127.6c-1.35 0-2.65.55-3.6 1.5-.95.95-1.5 2.25-1.5 3.6v252.7c0 1.35.55 2.65 1.5 3.6.55.55.55 1.4 0 1.95-.3.2-.65.35-.95.35Zm4.25-270.45c-6.35 0-11.55 5.2-11.55 11.55v246.25c0 1.35.55 2.65 1.5 3.6l2.5 2.5v-252.1c0-2.1.8-4.05 2.3-5.55a7.75 7.75 0 0 1 5.55-2.3H266.9l-2.5-2.5c-.95-.95-2.25-1.5-3.6-1.5l-121.15.05Z"/></svg>