<svg xmlns="http://www.w3.org/2000/svg" width="400" height="400" fill="none" viewBox="0 0 400 400"><path fill="#DADADA" d="M259.269 84.697H44.198v142.95h215.071V84.697Z"/><path fill="#222" d="M259.269 229.126H44.198c-.74 0-1.48-.555-1.48-1.479V84.697c0-.74.555-1.48 1.48-1.48h215.071c.74 0 1.48.556 1.48 1.48v142.95c0 .924-.74 1.479-1.48 1.479Zm-213.777-2.774H257.79V86.177H45.492v140.175Z"/><path fill="#DADADA" d="M166.62 243.551h-29.958l-14.609 44.198h59.362l-14.795-44.198Z"/><path fill="#222" d="M181.415 289.043h-59.362c-.37 0-.925-.185-1.11-.555-.185-.369-.37-.739-.185-1.294l14.61-44.013c.184-.555.739-.925 1.294-.925h29.958c.555 0 1.11.37 1.295.925l14.609 44.013c.185.37 0 .925-.185 1.294-.185.37-.554.555-.924.555Zm-57.328-2.774h55.478l-13.684-41.239h-28.109l-13.685 41.239Z"/><path fill="#DADADA" d="M42.349 61.95c-5.733 0-10.541 4.624-10.541 10.542v160.517c0 1.48.554 2.774 1.479 3.699l5.548 5.548c-.925-.925-1.48-2.219-1.48-3.699V72.677c0-1.48.555-2.774 1.48-3.699.925-.925 2.219-1.48 3.698-1.48h218.401c1.479 0 2.774.555 3.698 1.48l-5.547-5.548c-.925-.925-2.22-1.48-3.699-1.48H42.349Z"/><path fill="#222" d="M38.835 243.55c-.37 0-.74-.185-.925-.369l-5.547-5.548c-1.295-1.295-1.85-2.959-1.85-4.808V72.492c0-6.658 5.363-11.836 11.836-11.836h213.037c1.849 0 3.514.74 4.808 1.85l5.548 5.547a1.45 1.45 0 0 1 0 2.035 1.45 1.45 0 0 1-2.034 0c-.74-.74-1.665-1.11-2.774-1.11h-218.4c-1.11 0-2.035.37-2.774 1.11-.74.74-1.11 1.664-1.11 2.774v165.695c0 1.11.37 2.035 1.11 2.774a1.45 1.45 0 0 1 0 2.034c-.185 0-.555.185-.925.185Zm3.514-180.305c-4.993 0-9.062 4.069-9.062 9.062v160.518c0 1.109.37 2.034 1.11 2.773l1.664 1.665V72.677c0-1.85.74-3.514 1.85-4.624 1.294-1.294 2.958-2.034 4.807-2.034h217.106l-1.664-1.664c-.74-.74-1.664-1.11-2.774-1.11H42.349Z"/><path fill="#F5F4F3" d="M260.934 67.314h-218.4c-2.96 0-5.364 2.404-5.364 5.178v165.696a5.367 5.367 0 0 0 5.363 5.363h218.401a5.367 5.367 0 0 0 5.363-5.363V72.677c-.185-2.959-2.589-5.363-5.363-5.363Zm-1.665 160.333H44.198V84.697h215.071v142.95Z"/><path fill="#222" d="M260.934 245.03h-218.4a6.63 6.63 0 0 1-6.658-6.657V72.677a6.63 6.63 0 0 1 6.657-6.658h218.401a6.63 6.63 0 0 1 6.657 6.658v165.696a6.63 6.63 0 0 1-6.657 6.657ZM42.534 68.793c-2.22 0-3.884 1.665-3.884 3.884v165.696c0 2.219 1.664 3.883 3.883 3.883h218.401c2.219 0 3.883-1.664 3.883-3.883V72.677c0-2.22-1.664-3.884-3.883-3.884h-218.4Zm216.735 160.333H44.198c-.74 0-1.48-.554-1.48-1.479V84.697c0-.74.555-1.48 1.48-1.48h215.071c.74 0 1.48.556 1.48 1.48v142.95c0 .925-.74 1.479-1.48 1.479Zm-213.777-2.774H257.79V86.177H45.492v140.175Z"/><path fill="#222" d="M151.641 78.41a2.219 2.219 0 1 0 0-4.438 2.219 2.219 0 0 0 0 4.438Z"/><path fill="#F5F4F3" d="M357.836 128.155H252.982a5.367 5.367 0 0 0-5.363 5.363v207.49a5.367 5.367 0 0 0 5.363 5.363h104.854a5.367 5.367 0 0 0 5.363-5.363V133.333c0-2.959-2.404-5.178-5.363-5.178Zm-1.664 202.127H254.646V145.539h101.526v184.743Z"/><path fill="#222" d="M357.837 347.665H252.982a6.63 6.63 0 0 1-6.657-6.657V133.333a6.63 6.63 0 0 1 6.657-6.657h104.855a6.63 6.63 0 0 1 6.657 6.657v207.49c0 3.883-2.959 6.842-6.657 6.842ZM252.982 129.45c-2.219 0-3.883 1.849-3.883 3.883v207.49c0 2.219 1.849 3.883 3.883 3.883h104.855c2.219 0 3.883-1.849 3.883-3.883v-207.49c0-2.219-1.849-3.883-3.883-3.883H252.982Zm103.19 202.126H254.646c-.739 0-1.479-.554-1.479-1.479V145.538c0-.739.555-1.479 1.479-1.479h101.526c.74 0 1.48.555 1.48 1.479v184.744c0 .74-.74 1.294-1.48 1.294Zm-100.046-2.774h98.752V147.018h-98.752v181.784Z"/><path fill="#222" d="M320.111 138.327h-19.602c-.74 0-1.48-.555-1.48-1.48 0-.925.555-1.479 1.48-1.479h19.602c.74 0 1.48.554 1.48 1.479s-.74 1.48-1.48 1.48ZM293.111 139.251a2.218 2.218 0 1 0 .001-4.437 2.218 2.218 0 0 0-.001 4.437Z"/><path fill="#DADADA" d="M252.797 122.607c-5.917 0-10.541 4.809-10.541 10.541V335.46c0 1.479.555 2.774 1.48 3.698l5.548 5.548c-.925-.924-1.48-2.219-1.48-3.698V133.333c0-1.479.555-2.774 1.48-3.698.924-.925 2.219-1.48 3.698-1.48h104.855c1.479 0 2.773.555 3.698 1.48l-5.548-5.548c-.924-.925-2.219-1.48-3.698-1.48h-99.492Z"/><path fill="#222" d="M249.284 346.001c-.37 0-.74-.185-.925-.37l-5.548-5.548c-1.294-1.294-2.034-2.959-2.034-4.808V133.148c0-6.657 5.363-12.02 12.02-12.02h99.492c1.849 0 3.513.74 4.808 2.034l5.548 5.548a1.452 1.452 0 0 1 0 2.034 1.452 1.452 0 0 1-2.035 0c-.739-.74-1.664-1.109-2.774-1.109H252.982c-1.109 0-2.034.369-2.774 1.109-.74.74-1.109 1.665-1.109 2.774v207.49c0 1.109.369 2.034 1.109 2.774a1.45 1.45 0 0 1 0 2.034c-.185.185-.555.185-.924.185Zm3.513-222.099c-5.178 0-9.246 4.068-9.246 9.246V335.46c0 1.109.37 2.034 1.109 2.774l1.665 1.664V133.333c0-1.849.739-3.513 2.034-4.808 1.294-1.294 2.959-2.034 4.808-2.034h103.56l-1.664-1.665c-.74-.739-1.665-1.109-2.774-1.109h-99.492v.185Z"/><path fill="#444" d="M356.172 145.539H254.646v184.743h101.526V145.539Z"/><path fill="#222" d="M356.172 331.576H254.646c-.739 0-1.479-.554-1.479-1.479V145.539c0-.74.555-1.48 1.479-1.48h101.526c.74 0 1.48.555 1.48 1.48v184.743c0 .74-.74 1.294-1.48 1.294Zm-100.046-2.774h98.752V147.018h-98.752v181.784Z"/><path fill="#FF3158" d="m334.35 170.874-29.033 8.136-29.034-8.136-11.651 3.328v74.711l11.651 3.329 29.034-8.137 29.033 8.137 11.651-3.329v-74.711l-11.651-3.328Zm-11.465 55.848-17.384-4.808-17.383 4.808v-30.328l17.383 4.808 17.384-4.808v30.328Z"/><path fill="#222" d="M334.35 253.722h-.369l-28.664-7.952-28.664 7.952h-.74l-11.65-3.329a1.391 1.391 0 0 1-.925-1.295v-74.896c0-.554.37-1.109.925-1.294l11.65-3.329h.74l28.664 7.952 28.479-7.952c.369-.185.554-.185.924 0l11.651 3.329c.555.185.924.74.924 1.294v74.711c0 .555-.369 1.11-.924 1.295l-11.651 3.329s-.185.185-.37.185Zm-28.848-10.911h.369l28.664 7.952 10.171-2.774v-72.677l-10.171-2.774-28.664 7.952h-.739l-28.664-7.952-10.171 2.774v72.677l10.171 2.774 28.664-7.952h.37Zm17.383-14.61h-.37l-17.013-4.808-17.014 4.808c-.37.185-.924 0-1.294-.185-.37-.184-.555-.739-.555-1.109v-30.328c0-.37.185-.925.555-1.11.37-.185.739-.37 1.294-.185l17.014 4.808 17.013-4.808c.37-.185.925 0 1.294.185.37.185.555.74.555 1.11v30.328c0 .37-.185.925-.555 1.109-.369 0-.739.185-.924.185Zm-33.472-29.958v26.63l15.719-4.439h.739l15.719 4.439v-26.63l-15.719 4.438h-.739l-15.719-4.438Z"/><path fill="#FF3158" d="M305.317 185.483v15.904l-28.849-8.137v58.992l-11.651-3.328v-74.711l40.5 11.28Z"/><path fill="#222" d="M276.468 253.537h-.37l-11.65-3.329a1.39 1.39 0 0 1-.925-1.294v-74.711c0-.37.185-.925.555-1.11.37-.185.739-.37 1.294-.185l40.5 11.281c.554.185.924.739.924 1.294v15.719c0 .37-.185.925-.555 1.11-.369.185-.739.37-1.294.185l-27.185-7.582v57.142c0 .37-.185.925-.554 1.11-.185.37-.555.37-.74.37Zm-10.171-5.548 8.876 2.404V193.25c0-.37.185-.924.555-1.109.37-.185.74-.37 1.295-.185l27.184 7.582v-12.945l-37.91-10.541v71.937Z"/><path fill="#FF3158" d="m322.885 233.195-17.569-4.809v15.719l29.034 8.137V193.25l-11.465 3.144v36.801Z"/><path fill="#222" d="M334.35 253.537h-.37l-29.033-8.137a1.391 1.391 0 0 1-.925-1.295v-15.719c0-.369.185-.924.555-1.109.37-.185.739-.37 1.294-.185l15.719 4.438v-34.951c0-.555.37-1.11.925-1.295l11.65-3.328c.37-.185.925 0 1.295.184.37.185.555.74.555 1.11v58.992c0 .37-.185.925-.555 1.11-.555.185-.74.185-1.11.185Zm-27.554-10.541 26.26 7.397v-55.294l-8.877 2.404v35.692c0 .369-.185.924-.555 1.109-.369.185-.739.37-1.294.185l-15.719-4.438v12.945h.185Z"/><path fill="#FF3158" d="m334.35 170.874 11.651 3.328-40.684 11.281-40.5-11.281 11.651-3.328 28.849 8.136 29.033-8.136Z"/><path fill="#222" d="M305.502 186.962h-.37l-40.684-11.465a1.391 1.391 0 0 1-.925-1.295c0-.554.37-1.109.925-1.294l11.65-3.329h.74l28.664 7.952 28.664-7.952h.739l11.651 3.329c.555.185.924.74.924 1.294 0 .555-.369 1.11-.924 1.295l-40.5 11.28c-.369.185-.554.185-.554.185Zm-35.507-12.76 35.507 9.986 35.506-9.986-6.473-1.849-28.663 7.952h-.74l-28.664-7.952-6.473 1.849Z"/><path fill="#FF3158" d="m305.317 221.914 17.568 4.808v6.473l-17.568-4.808-17.199 4.808v-6.473l17.199-4.808Z"/><path fill="#222" d="M288.118 234.674c-.37 0-.555-.185-.925-.37-.369-.185-.554-.74-.554-1.109v-6.473c0-.555.37-1.109.924-1.294l17.384-4.993h.739l17.384 4.993c.554.185.924.739.924 1.294v6.473c0 .369-.185.924-.555 1.109-.369.185-.739.37-1.294.185l-17.013-4.808-17.014 4.808c.185.185 0 .185 0 .185Zm17.383-7.767h.37l15.719 4.438v-3.698l-16.089-4.439-16.088 4.439v3.698l15.534-4.438h.554Z"/><path fill="#FF3158" d="m180.675 115.58-29.034 8.137-29.033-8.137-11.651 3.329v74.711l11.651 3.329 29.033-8.137 29.034 8.137 11.651-3.329v-74.711l-11.651-3.329Zm-11.65 55.848-17.384-4.808-17.383 4.808V141.1l17.383 4.808 17.384-4.808v30.328Z"/><path fill="#222" d="M180.675 198.243h-.37l-28.664-7.952-28.664 7.952h-.739l-11.651-3.329c-.555-.184-.924-.739-.924-1.294v-74.711c0-.555.369-1.11.924-1.295l11.651-3.328h.739l28.664 7.952 28.479-7.952c.37-.185.555-.185.925 0l11.65 3.328c.555.185.925.74.925 1.295v74.711c0 .555-.37 1.11-.925 1.294l-11.65 3.329h-.37Zm-68.238-5.733 10.171 2.774 28.663-7.952h.74l28.664 7.952 10.171-2.774v-72.676l-10.171-2.774-28.664 7.952h-.74l-28.663-7.952-10.171 2.774v72.676Zm56.588-19.787h-.37l-17.014-4.808-17.013 4.808c-.37.185-.925 0-1.295-.185-.369-.185-.554-.74-.554-1.109V141.1c0-.37.185-.924.554-1.109.37-.185.74-.37 1.295-.185l17.013 4.808 17.014-4.808c.37-.185.924 0 1.294.185s.555.739.555 1.109v30.329c0 .369-.185.924-.555 1.109-.185.185-.555.185-.924.185Zm-33.288-29.773v26.629l15.719-4.438h.74l15.719 4.438V142.95l-15.719 4.438h-.74l-15.719-4.438Z"/><path fill="#FF3158" d="M151.641 130.189v15.719l-29.033-8.137v59.177l-11.466-3.328v-74.711l40.499 11.28Z"/><path fill="#222" d="M122.793 198.243h-.37l-11.651-3.329a1.39 1.39 0 0 1-.924-1.294v-74.711c0-.37.185-.925.554-1.11.37-.185.74-.37 1.295-.185l40.499 11.281c.555.185.925.74.925 1.294v15.719c0 .37-.185.925-.555 1.11-.37.185-.74.37-1.294.185l-27.185-7.582v57.143c0 .369-.185.924-.555 1.109-.185.37-.554.37-.739.37Zm-10.356-5.733 8.876 2.404v-57.143c0-.369.185-.924.555-1.109.37-.185.74-.37 1.294-.185l27.185 7.582v-12.945l-37.725-10.541v71.937h-.185Z"/><path fill="#FF3158" d="m169.024 177.901-17.383-4.808v15.719l29.034 8.137v-59.178l-11.651 3.329v36.801Z"/><path fill="#222" d="M180.675 198.243h-.37l-29.034-8.137a1.391 1.391 0 0 1-.924-1.294v-15.719c0-.37.185-.925.554-1.11.37-.185.74-.37 1.295-.185l15.534 4.439V141.1c0-.555.37-1.109.925-1.294l11.65-3.329c.37-.185.925 0 1.295.185.369.185.554.74.554 1.109v58.993c0 .369-.185.924-.554 1.109-.37.37-.555.37-.925.37Zm-27.554-10.541 26.259 7.397v-55.478l-8.876 2.404v35.691c0 .37-.185.925-.555 1.11-.37.184-.74.369-1.294.185l-15.534-4.439v13.13Z"/><path fill="#FF3158" d="m180.675 115.58 11.651 3.329-40.685 11.28-40.499-11.28 11.466-3.329 29.033 8.137 29.034-8.137Z"/><path fill="#222" d="M151.641 131.669h-.369l-40.5-11.466a1.39 1.39 0 0 1-.924-1.294c0-.555.37-1.11.924-1.295l11.651-3.328h.739l28.479 7.952 28.664-7.952h.74l11.651 3.328c.554.185.924.74.924 1.295a1.39 1.39 0 0 1-.924 1.294l-40.5 11.281c-.185.185-.37.185-.555.185Zm-35.321-12.76 35.321 9.801 35.507-9.986-6.473-1.849-28.664 7.952h-.739l-28.664-7.952-6.288 2.034Z"/><path fill="#FF3158" d="m151.641 166.436 17.383 4.993v6.472l-17.383-4.808-17.383 4.808v-6.472l17.383-4.993Z"/><path fill="#222" d="M134.258 179.381c-.37 0-.555-.185-.925-.37s-.555-.74-.555-1.11v-6.472c0-.555.37-1.11.925-1.295l17.383-4.808h.74l17.383 4.808c.555.185.925.74.925 1.295v6.472c0 .37-.185.925-.555 1.11-.37.185-.74.37-1.294.185l-16.644-4.808-17.013 4.808s-.185.185-.37.185Zm1.479-6.843v3.699l15.719-4.438h.74l15.534 4.438v-3.699l-16.089-4.623-15.904 4.623Z"/><path fill="#fff" d="M314.748 290.523v-25.335H296.07v25.335h-13.13l22.562 24.78 22.376-24.78h-13.13Z"/><path fill="#222" d="M305.502 316.597c-.37 0-.74-.184-1.11-.369l-22.561-24.966c-.37-.37-.37-.924-.185-1.479s.74-.74 1.294-.74h11.651v-23.856c0-.739.555-1.479 1.479-1.479h18.863c.74 0 1.479.555 1.479 1.479v23.856h11.651c.555 0 1.109.37 1.294.74.185.555.185 1.109-.185 1.479l-22.746 24.966c-.185.369-.555.369-.924.369Zm-19.418-24.78 19.418 21.452 19.417-21.452h-9.986c-.74 0-1.479-.555-1.479-1.479v-23.856h-16.089v23.856c0 .739-.555 1.479-1.48 1.479h-9.801Z"/><path fill="#F5F4F3" d="M328.988 115.58h-3.699v-9.986h3.699v9.986Zm0-19.787h-3.699V85.99l3.699-.37v10.172Zm-7.767-16.644c-1.48-.924-3.144-1.48-4.808-1.48h-3.699v-3.698h3.699c2.404 0 4.808.74 6.842 2.034l-2.034 3.144Zm-18.493-1.48h-9.986v-3.698h9.986v3.699Zm-19.972 0h-9.986v-3.698h9.986v3.699ZM236.153 305.871h-9.986v-3.698h9.986v3.698Zm-19.972 0h-7.952c-.74 0-1.479 0-2.219-.185l.555-3.698c.555 0 1.109.185 1.664.185h7.952v3.698Zm-19.602-6.102c-1.295-2.034-2.035-4.438-2.035-6.658v-3.883h3.699v3.883c0 1.665.555 3.329 1.479 4.809l-3.143 1.849Zm1.664-20.527h-3.699v-9.986h3.699v9.986Zm0-19.788h-3.699v-9.986h3.699v9.986Z"/></svg>