<svg width="25" height="51" xmlns="http://www.w3.org/2000/svg"><g fill="none" fill-rule="evenodd"><path d="M24.717 34.069c.063-.238.099-.497.099-.768 0-1.081-.552-1.97-1.261-2.09a12.719 12.719 0 00-.28-.569 2.765 2.765 0 00-.251-.5c-.407-.638-1.01-1.04-1.54-1.083a.564.564 0 01-.326-.27 2.898 2.898 0 00-.427-1.093c-.488-.766-1.228-1.232-1.85-1.229-.219-.054-.446-.108-.704-.226-.997-.458-1.724-2.717-3.52-2.58-.331-4.175-1.169-6.958-1.727-9.385-.392-1.702-1.268-2.761-2.662-1.93-1.395.832-.096 7.407-.574 10.572-.392 2.593-1.106 5.359-1.38 6.682-.143.371-.289.72-.433 1.027-.373.796-.82 1.304-1.078 1.637-.193.25-1.06.605-1.06.605s-.396-2.687-.403-2.9c-.017-.562-.185-.814-.185-.814s.442-.648.358-1.5c-.089-.892-.487-2.167-1.073-3.099-.482-.768-.972-1.066-1.564-1.135-.737-.088-1.238.62-1.348 1.476-.067.518-.032 1.248-.079 1.606-.11.855-.871 1.697-1.02 2.267-.193.738.088 1.25-.001 2.895-.032.587.168 1.293.155 1.972-.019 1.004-.124 1.938-.076 2.194.254 1.355 2.215 3.496 3.873 6.04.933 1.434 2.42 1.836 3.155 3.104.45.775.497 1.885.874 2.979 1.565 4.532 9.213 3.259 12.118.985.69-.539.953-1.21 1.001-1.616a13.6 13.6 0 01.168-1.1c.756-.532 1.75-3.018 2.38-6.095.371-1.818.545-3.49.523-4.712.066-.503.106-.91.114-1.17l.004-.177" fill="#FFF"/><path opacity=".5" d="M-16-8h62v62h-62z"/><path d="M6 19V0l15.545 9.5-7.233 4.625s-1.677-4.337-4-3.563c-2.323.775-1.812 6.75-1.812 6.75L6 19z" fill="#FFF"/></g></svg>