<svg xmlns="http://www.w3.org/2000/svg" width="401" height="401" fill="none" viewBox="0 0 401 401"><path fill="#F5F4F3" d="M56.59 243.156h284.28l-18.945-130.595H37.65l18.94 130.595Z"/><path fill="#222" d="M340.87 244.535H56.59c-.685 0-1.27-.505-1.37-1.185L36.28 112.76c-.06-.395.06-.8.325-1.105.265-.305.645-.48 1.045-.48h284.275c.685 0 1.27.505 1.37 1.185l18.94 130.59c.06.395-.06.8-.325 1.105-.265.305-.645.48-1.045.48h.005ZM57.785 241.77H339.27l-18.54-127.825H39.245l18.54 127.825Z"/><path fill="#222" d="M69.825 224.18h284.28L324.58 91.51H40.3l29.525 132.67Z"/><path fill="#222" d="M354.105 225.56H69.825c-.65 0-1.21-.45-1.35-1.08L38.95 91.815c-.09-.41.01-.84.27-1.165.26-.325.66-.52 1.08-.52h284.28c.65 0 1.21.45 1.35 1.08l29.525 132.665c.09.41-.01.84-.27 1.165-.26.325-.66.52-1.08.52Zm-283.17-2.765H352.38l-28.905-129.9H42.025l28.905 129.9h.005Z"/><path fill="#FF3158" d="M329.756 82.645H45.476l38.42 122.131h284.28l-38.42-122.13Z"/><path fill="#222" d="M368.175 206.16H83.895c-.605 0-1.14-.39-1.32-.97L44.155 83.06a1.383 1.383 0 0 1 1.32-1.8h284.28c.605 0 1.14.39 1.32.97l38.42 122.13a1.383 1.383 0 0 1-1.32 1.8ZM84.91 203.395h281.38L328.74 84.03H47.36l37.55 119.365Z"/><path fill="#fff" d="m346.66 164.58-13.13-41.74c-19.285 0-35.48-14.03-40.925-31.335H90.17c5.445 17.305-1.93 31.335-21.21 31.335l13.13 41.74c19.28 0 35.48 14.03 40.925 31.335H325.45c-5.445-17.305 1.93-31.335 21.21-31.335Z"/><path fill="#222" d="M325.445 197.295H123.01c-.605 0-1.14-.39-1.32-.97-5.625-17.88-21.91-30.365-39.605-30.365-.605 0-1.14-.39-1.32-.97l-13.13-41.74a1.383 1.383 0 0 1 1.32-1.8c8.175 0 14.42-2.62 18.055-7.575 3.945-5.38 4.6-13.175 1.835-21.96a1.383 1.383 0 0 1 1.32-1.8H292.6c.605 0 1.14.39 1.32.97 5.625 17.88 21.915 30.365 39.61 30.365.605 0 1.14.39 1.32.97l13.13 41.74a1.383 1.383 0 0 1-1.32 1.8c-8.18 0-14.425 2.62-18.06 7.575-3.945 5.38-4.595 13.175-1.835 21.96a1.383 1.383 0 0 1-1.32 1.8Zm-201.43-2.765h199.59c-2.395-8.92-1.435-16.9 2.765-22.625 3.89-5.3 10.23-8.275 18.42-8.665l-12.28-39.03c-18.17-.46-34.765-13.16-40.91-31.32H92.01c2.395 8.92 1.43 16.905-2.77 22.63-3.89 5.3-10.23 8.275-18.415 8.66l12.28 39.03c18.17.46 34.765 13.16 40.905 31.32h.005Z"/><path fill="#FF3158" d="M241.463 173.074c11.86-13.991 5.967-38.479-13.163-54.697-19.13-16.218-44.253-18.023-56.113-4.033-11.861 13.991-5.968 38.479 13.162 54.697 19.13 16.218 44.253 18.023 56.114 4.033Z"/><path fill="#222" d="M219.025 183.875c-11.855 0-23.24-4.03-32.92-11.655-9.125-7.185-16.045-17.165-19.485-28.095-3.7-11.755-2.72-22.34 2.76-29.805 5.17-7.05 13.905-10.775 25.245-10.775 11.34 0 23.24 4.03 32.92 11.655 9.125 7.185 16.045 17.165 19.485 28.095 3.7 11.755 2.72 22.34-2.76 29.805-5.17 7.05-13.905 10.775-25.245 10.775Zm-49.77-40.58c3.275 10.405 9.865 19.905 18.555 26.75 9.19 7.235 19.985 11.06 31.21 11.06 10.43 0 18.39-3.335 23.02-9.645 4.94-6.735 5.775-16.445 2.35-27.34-3.275-10.405-9.865-19.905-18.555-26.75-9.19-7.235-19.985-11.06-31.21-11.06-10.43 0-18.39 3.335-23.02 9.645-4.94 6.735-5.775 16.445-2.35 27.34Z"/><path fill="#fff" d="M243.041 303.755c-25.28 0-45.775-11.45-45.775-28.605v14.715c0 17.155 20.495 27.99 45.775 27.99 25.28 0 45.775-10.835 45.775-27.99V275.15c0 17.155-20.495 28.605-45.775 28.605Z"/><path fill="#222" d="M243.04 319.24c-12.79 0-24.535-2.755-33.065-7.75-9.085-5.325-14.09-13-14.09-21.62v-14.715c0-.765.62-1.385 1.38-1.385.76 0 1.38.62 1.38 1.385 0 9.795 6.93 16.04 12.74 19.55 8.185 4.945 19.425 7.67 31.655 7.67s23.47-2.725 31.655-7.67c5.81-3.51 12.74-9.755 12.74-19.55 0-.765.62-1.385 1.38-1.385.76 0 1.38.62 1.38 1.385v14.715c0 8.62-5.005 16.3-14.09 21.62-8.53 5-20.275 7.75-33.065 7.75Zm-44.395-33.405v4.03c0 9.735 6.92 15.835 12.725 19.235 8.115 4.755 19.36 7.37 31.67 7.37 12.31 0 23.555-2.62 31.67-7.37 5.805-3.4 12.725-9.5 12.725-19.235v-4.03c-2.36 4.305-6.185 8.135-11.31 11.235-8.61 5.205-20.36 8.07-33.085 8.07-12.725 0-24.475-2.865-33.085-8.07-5.125-3.1-8.95-6.93-11.31-11.235Z"/><path fill="#fff" d="M243.04 303.755c25.28 0 45.775-12.807 45.775-28.605s-20.495-28.605-45.775-28.605c-25.281 0-45.775 12.807-45.775 28.605s20.494 28.605 45.775 28.605Z"/><path fill="#222" d="M243.04 305.14c-12.725 0-24.475-2.865-33.085-8.07-9.075-5.485-14.075-13.27-14.075-21.92 0-8.65 5-16.435 14.075-21.92 8.61-5.205 20.36-8.07 33.085-8.07 12.725 0 24.475 2.865 33.085 8.07 9.075 5.485 14.075 13.27 14.075 21.92 0 8.65-5 16.435-14.075 21.92-8.61 5.205-20.36 8.07-33.085 8.07Zm0-57.21c-12.23 0-23.47 2.725-31.655 7.67-5.81 3.515-12.74 9.755-12.74 19.55s6.93 16.04 12.74 19.55c8.185 4.945 19.425 7.67 31.655 7.67s23.47-2.725 31.655-7.67c5.81-3.51 12.74-9.755 12.74-19.55s-6.93-16.04-12.74-19.55c-8.185-4.945-19.425-7.67-31.655-7.67Z"/><path fill="#FF3158" d="M243.041 303.755c-25.28 0-45.775-11.45-45.775-28.605v14.715c0 17.155 20.495 27.99 45.775 27.99 25.28 0 45.775-10.835 45.775-27.99V275.15c0 17.155-20.495 28.605-45.775 28.605Z"/><path fill="#222" d="M243.04 319.24c-12.79 0-24.535-2.755-33.065-7.75-9.085-5.325-14.09-13-14.09-21.62v-14.715c0-.765.62-1.385 1.38-1.385.76 0 1.38.62 1.38 1.385 0 9.795 6.93 16.04 12.74 19.55 8.185 4.945 19.425 7.67 31.655 7.67s23.47-2.725 31.655-7.67c5.81-3.51 12.74-9.755 12.74-19.55 0-.765.62-1.385 1.38-1.385.76 0 1.38.62 1.38 1.385v14.715c0 8.62-5.005 16.3-14.09 21.62-8.53 5-20.275 7.75-33.065 7.75Zm-44.395-33.405v4.03c0 9.735 6.92 15.835 12.725 19.235 8.115 4.755 19.36 7.37 31.67 7.37 12.31 0 23.555-2.62 31.67-7.37 5.805-3.4 12.725-9.5 12.725-19.235v-4.03c-2.36 4.305-6.185 8.135-11.31 11.235-8.61 5.205-20.36 8.07-33.085 8.07-12.725 0-24.475-2.865-33.085-8.07-5.125-3.1-8.95-6.93-11.31-11.235Z"/><path fill="#222" d="M206.95 308.81c-.765 0-1.38-.505-1.38-1.125v-13.75c0-.62.62-1.125 1.38-1.125.76 0 1.38.505 1.38 1.125v13.75c0 .62-.62 1.125-1.38 1.125ZM217.26 314.05c-.765 0-1.38-.505-1.38-1.125v-13.2c0-.62.62-1.125 1.38-1.125.76 0 1.38.505 1.38 1.125v13.2c0 .62-.62 1.125-1.38 1.125ZM227.575 317.325c-.765 0-1.38-.505-1.38-1.125v-13.175c0-.62.62-1.125 1.38-1.125.76 0 1.38.505 1.38 1.125V316.2c0 .62-.62 1.125-1.38 1.125ZM237.885 318.51c-.765 0-1.38-.505-1.38-1.125V304.87c0-.62.62-1.125 1.38-1.125.76 0 1.38.505 1.38 1.125v12.515c0 .62-.62 1.125-1.38 1.125ZM248.194 318.51c-.765 0-1.38-.505-1.38-1.125V304.87c0-.62.62-1.125 1.38-1.125.76 0 1.38.505 1.38 1.125v12.515c0 .62-.62 1.125-1.38 1.125ZM258.505 317.855c-.765 0-1.38-.49-1.38-1.095v-13.775c0-.605.62-1.095 1.38-1.095.76 0 1.38.49 1.38 1.095v13.775c0 .605-.62 1.095-1.38 1.095ZM268.815 315.08c-.765 0-1.38-.46-1.38-1.03v-14.425c0-.57.62-1.03 1.38-1.03.76 0 1.38.46 1.38 1.03v14.425c0 .57-.62 1.03-1.38 1.03ZM279.13 308.58c-.765 0-1.38-.4-1.38-.895v-13.98c0-.495.62-.895 1.38-.895.76 0 1.38.4 1.38.895v13.98c0 .495-.62.895-1.38.895Z"/><path fill="#fff" d="M69.905 258.62c-20.48 0-37.08-9.275-37.08-23.17v11.92c0 13.895 16.6 22.675 37.08 22.675 20.48 0 37.08-8.775 37.08-22.675v-11.92c0 13.895-16.6 23.17-37.08 23.17Z"/><path fill="#222" d="M69.905 271.425c-10.405 0-19.965-2.245-26.915-6.315-7.445-4.36-11.545-10.66-11.545-17.74v-11.92a1.385 1.385 0 1 1 2.77 0c0 4.31 1.77 10.52 10.195 15.61 6.59 3.98 15.645 6.175 25.505 6.175s18.915-2.195 25.505-6.175c8.425-5.09 10.195-11.3 10.195-15.61a1.385 1.385 0 1 1 2.77 0v11.92c0 7.08-4.1 13.38-11.545 17.74-6.95 4.07-16.51 6.315-26.915 6.315h-.02ZM34.21 245.11v2.26c0 7.765 5.535 12.635 10.175 15.355 6.535 3.83 15.595 5.935 25.52 5.935 9.925 0 18.985-2.11 25.52-5.935 4.64-2.72 10.175-7.59 10.175-15.355v-2.26C100.07 254.115 86.73 260 69.905 260s-30.17-5.885-35.695-14.89Z"/><path fill="#fff" d="M69.905 258.625c20.479 0 37.08-10.373 37.08-23.17 0-12.796-16.601-23.17-37.08-23.17s-37.08 10.374-37.08 23.17c0 12.797 16.601 23.17 37.08 23.17Z"/><path fill="#222" d="M69.905 260.005c-22.285 0-38.46-10.325-38.46-24.55 0-14.225 16.175-24.55 38.46-24.55s38.46 10.325 38.46 24.55c0 14.225-16.175 24.55-38.46 24.55Zm0-46.34c-9.86 0-18.915 2.195-25.505 6.175-8.425 5.09-10.195 11.3-10.195 15.615 0 4.315 1.77 10.52 10.195 15.615 6.59 3.98 15.645 6.175 25.505 6.175s18.915-2.195 25.505-6.175c8.425-5.09 10.195-11.3 10.195-15.615 0-4.315-1.77-10.52-10.195-15.615-6.59-3.98-15.645-6.175-25.505-6.175Z"/><path fill="#DADADA" d="M75.44 253.09c20.479 0 37.08-10.374 37.08-23.17 0-12.796-16.601-23.17-37.08-23.17s-37.08 10.374-37.08 23.17c0 12.796 16.601 23.17 37.08 23.17Z"/><path fill="#FF3158" d="M69.905 258.62c-20.48 0-37.08-9.275-37.08-23.17v11.92c0 13.895 16.6 22.675 37.08 22.675 20.48 0 37.08-8.775 37.08-22.675v-11.92c0 13.895-16.6 23.17-37.08 23.17Z"/><path fill="#222" d="M69.905 271.425c-10.405 0-19.965-2.245-26.915-6.315-7.445-4.36-11.545-10.66-11.545-17.74v-11.92a1.385 1.385 0 1 1 2.77 0c0 4.31 1.77 10.52 10.195 15.61 6.59 3.98 15.645 6.175 25.505 6.175s18.915-2.195 25.505-6.175c8.425-5.09 10.195-11.3 10.195-15.61a1.385 1.385 0 1 1 2.77 0v11.92c0 7.08-4.1 13.38-11.545 17.74-6.95 4.07-16.51 6.315-26.915 6.315h-.02ZM34.21 245.11v2.26c0 7.765 5.535 12.635 10.175 15.355 6.535 3.83 15.595 5.935 25.52 5.935 9.925 0 18.985-2.11 25.52-5.935 4.64-2.72 10.175-7.59 10.175-15.355v-2.26C100.07 254.115 86.73 260 69.905 260s-30.17-5.885-35.695-14.89Z"/><path fill="#222" d="M40.665 262.86c-.765 0-1.38-.505-1.38-1.125V250.84c0-.62.62-1.125 1.38-1.125.76 0 1.38.505 1.38 1.125v10.895c0 .62-.62 1.125-1.38 1.125ZM49.025 267.02c-.765 0-1.38-.505-1.38-1.125v-10.28c0-.62.62-1.125 1.38-1.125.76 0 1.38.505 1.38 1.125v10.28c0 .62-.62 1.125-1.38 1.125ZM57.255 269.765c-.765 0-1.38-.505-1.38-1.125v-10.6c0-.62.62-1.125 1.38-1.125.76 0 1.38.505 1.38 1.125v10.6c0 .62-.62 1.125-1.38 1.125ZM65.68 270.23c-.765 0-1.38-.505-1.38-1.125v-9.935c0-.62.62-1.125 1.38-1.125.76 0 1.38.505 1.38 1.125v9.935c0 .62-.62 1.125-1.38 1.125ZM74.055 270.23c-.765 0-1.38-.505-1.38-1.125v-9.935c0-.62.62-1.125 1.38-1.125.76 0 1.38.505 1.38 1.125v9.935c0 .62-.62 1.125-1.38 1.125ZM82.465 269.65c-.765 0-1.38-.49-1.38-1.095v-10.55c0-.605.62-1.095 1.38-1.095.76 0 1.38.49 1.38 1.095v10.55c0 .605-.62 1.095-1.38 1.095ZM90.825 267.225c-.765 0-1.38-.46-1.38-1.03v-10.97c0-.57.62-1.03 1.38-1.03.76 0 1.38.46 1.38 1.03v10.97c0 .57-.62 1.03-1.38 1.03ZM99.115 262.86c-.765 0-1.38-.4-1.38-.895V251.32c0-.495.62-.895 1.38-.895.76 0 1.38-.72 1.38-.225v11.765c0 .495-.62.895-1.38.895Z"/><path fill="#fff" d="M222.54 279.771c-20.48 0-37.08-9.275-37.08-23.17v11.92c0 13.895 16.6 22.675 37.08 22.675 20.48 0 37.08-8.775 37.08-22.675v-11.92c0 13.895-16.6 23.17-37.08 23.17Z"/><path fill="#222" d="M222.54 292.575c-10.405 0-19.965-2.245-26.915-6.315-7.445-4.36-11.545-10.66-11.545-17.74V256.6c0-.765.62-1.385 1.38-1.385.76 0 1.38.62 1.38 1.385 0 4.31 1.77 10.52 10.195 15.615 6.59 3.98 15.645 6.175 25.505 6.175s18.915-2.195 25.505-6.175c8.425-5.09 10.195-11.3 10.195-15.615 0-.765.62-1.385 1.38-1.385.76 0 1.38.62 1.38 1.385v11.92c0 7.08-4.1 13.38-11.545 17.74-6.95 4.07-16.51 6.315-26.915 6.315Zm-35.695-26.315v2.26c0 7.765 5.535 12.635 10.175 15.355 6.535 3.83 15.595 5.935 25.52 5.935 9.925 0 18.985-2.11 25.52-5.935 4.64-2.72 10.175-7.59 10.175-15.355v-2.26c-5.53 9.005-18.87 14.89-35.695 14.89s-30.17-5.885-35.695-14.89Z"/><path fill="#DADADA" d="M259.9 242.285c.025.045.045.09.07.135-.04-.065-.095-.12-.13-.185.315.605.565 1.11.785 1.58 3.04 3.985 4.79 8.695 4.79 13.975 0 9.625-5.775 17.38-14.725 22.22-.67.365-1.35.73-2.065 1.06-.265.12-.54.23-.805.345-.695.305-1.4.605-2.135.88-.525.2-1.065.37-1.605.55-.475.16-.945.32-1.43.465a56.33 56.33 0 0 1-2.15.58c-.38.095-.76.19-1.145.28-.685.155-1.38.29-2.08.42a55.466 55.466 0 0 1-2.95.47 66.81 66.81 0 0 1-8.975.615c-7.915 0-15.235-1.325-21.255-3.735 7.165 10.1 23.16 16.3 41.75 16.3 25.28 0 45.775-11.45 45.775-28.605 0-13.825-13.315-23.94-31.715-27.345l-.005-.005Z"/><path fill="#222" d="M243.04 305.14c-12.725 0-24.475-2.865-33.085-8.07-9.075-5.485-14.075-13.27-14.075-21.92 0-8.65 5-16.435 14.075-21.92 8.61-5.205 20.36-8.07 33.085-8.07 12.725 0 24.475 2.865 33.085 8.07 9.075 5.485 14.075 13.27 14.075 21.92 0 8.65-5 16.435-14.075 21.92-8.61 5.205-20.36 8.07-33.085 8.07Zm0-57.21c-12.23 0-23.47 2.725-31.655 7.67-5.81 3.515-12.74 9.755-12.74 19.55s6.93 16.04 12.74 19.55c8.185 4.945 19.425 7.67 31.655 7.67s23.47-2.725 31.655-7.67c5.81-3.51 12.74-9.755 12.74-19.55s-6.93-16.04-12.74-19.55c-8.185-4.945-19.425-7.67-31.655-7.67Z"/><path fill="#fff" d="M222.54 279.77c20.479 0 37.08-10.373 37.08-23.17 0-12.796-16.601-23.17-37.08-23.17s-37.08 10.374-37.08 23.17c0 12.797 16.601 23.17 37.08 23.17Z"/><path fill="#222" d="M222.54 281.15c-22.285 0-38.46-10.325-38.46-24.55 0-14.225 16.175-24.55 38.46-24.55S261 242.375 261 256.6c0 14.225-16.175 24.55-38.46 24.55Zm0-46.34c-9.86 0-18.915 2.195-25.505 6.175-8.425 5.09-10.195 11.3-10.195 15.615 0 4.315 1.77 10.52 10.195 15.615 6.59 3.98 15.645 6.175 25.505 6.175s18.915-2.195 25.505-6.175c8.425-5.09 10.195-11.3 10.195-15.615 0-4.315-1.77-10.52-10.195-15.615-6.59-3.98-15.645-6.175-25.505-6.175Z"/><path fill="#FF3158" d="M222.54 279.771c-20.48 0-37.08-9.275-37.08-23.17v11.92c0 13.895 16.6 22.675 37.08 22.675 20.48 0 37.08-8.775 37.08-22.675v-11.92c0 13.895-16.6 23.17-37.08 23.17Z"/><path fill="#222" d="M222.54 292.575c-10.405 0-19.965-2.245-26.915-6.315-7.445-4.36-11.545-10.66-11.545-17.74V256.6c0-.765.62-1.385 1.38-1.385.76 0 1.38.62 1.38 1.385 0 4.31 1.77 10.52 10.195 15.615 6.59 3.98 15.645 6.175 25.505 6.175s18.915-2.195 25.505-6.175c8.425-5.09 10.195-11.3 10.195-15.615 0-.765.62-1.385 1.38-1.385.76 0 1.38.62 1.38 1.385v11.92c0 7.08-4.1 13.38-11.545 17.74-6.95 4.07-16.51 6.315-26.915 6.315Zm-35.695-26.315v2.26c0 7.765 5.535 12.635 10.175 15.355 6.535 3.83 15.595 5.935 25.52 5.935 9.925 0 18.985-2.11 25.52-5.935 4.64-2.72 10.175-7.59 10.175-15.355v-2.26c-5.53 9.005-18.87 14.89-35.695 14.89s-30.17-5.885-35.695-14.89Z"/><path fill="#222" d="M193.305 283.675c-.765 0-1.38-.505-1.38-1.125v-10.81c0-.62.62-1.125 1.38-1.125.76 0 1.38.505 1.38 1.125v10.81c0 .62-.62 1.125-1.38 1.125ZM201.63 288.72c-.765 0-1.38-.505-1.38-1.125V276.45c0-.62.62-1.125 1.38-1.125.76 0 1.38.505 1.38 1.125v11.145c0 .62-.62 1.125-1.38 1.125ZM210.12 290.79c-.765 0-1.38-.505-1.38-1.125v-10.95c0-.62.62-1.125 1.38-1.125.76 0 1.38.505 1.38 1.125v10.95c0 .62-.62 1.125-1.38 1.125ZM218.275 291.885c-.765 0-1.379-.505-1.379-1.125v-10.415c0-.62.619-1.125 1.379-1.125s1.381.505 1.381 1.125v10.415c0 .62-.621 1.125-1.381 1.125ZM226.856 291.885c-.765 0-1.38-.505-1.38-1.125v-10.395c0-.62.62-1.125 1.38-1.125.76 0 1.38.505 1.38 1.125v10.395c0 .62-.62 1.125-1.38 1.125ZM235.015 291.32c-.765 0-1.38-.49-1.38-1.095v-11.11c0-.605.62-1.095 1.38-1.095.76 0 1.38.49 1.38 1.095v11.11c0 .605-.62 1.095-1.38 1.095ZM243.43 288.619c-.765 0-1.38-.46-1.38-1.03v-11.245c0-.57.62-1.03 1.38-1.03.76 0 1.38.46 1.38 1.03v11.245c0 .57-.62 1.03-1.38 1.03ZM251.691 284.01c-.765 0-1.38-.4-1.38-.895v-10.87c0-.495.62-.895 1.38-.895.76 0 1.38.4 1.38.895v10.87c0 .495-.62.895-1.38.895ZM69.905 260.005c-22.285 0-38.46-10.325-38.46-24.55 0-14.225 16.175-24.55 38.46-24.55s38.46 10.325 38.46 24.55c0 14.225-16.175 24.55-38.46 24.55Zm0-46.34c-9.86 0-18.915 2.195-25.505 6.175-8.425 5.09-10.195 11.3-10.195 15.615 0 4.315 1.77 10.52 10.195 15.615 6.59 3.98 15.645 6.175 25.505 6.175s18.915-2.195 25.505-6.175c8.425-5.09 10.195-11.3 10.195-15.615 0-4.315-1.77-10.52-10.195-15.615-6.59-3.98-15.645-6.175-25.505-6.175Z"/><path fill="#DADADA" d="M260.675 241.88c.025.045.045.09.07.135-5.47-8.72-18.8-14.115-34.41-14.115-20.48 0-37.08 9.275-37.08 23.17 0 13.895 16.6 23.17 37.08 23.17 17.21 0 31.67-6.55 35.855-16.89.175-.435.35-1.095.505-1.88.925-4.615.16-9.415-2.02-13.59Z"/><path fill="#222" d="M222.54 281.15c-22.285 0-38.46-10.325-38.46-24.55 0-14.225 16.175-24.55 38.46-24.55S261 242.375 261 256.6c0 14.225-16.175 24.55-38.46 24.55Zm0-46.34c-9.86 0-18.915 2.195-25.505 6.175-8.425 5.09-10.195 11.3-10.195 15.615 0 4.315 1.77 10.52 10.195 15.615 6.59 3.98 15.645 6.175 25.505 6.175s18.915-2.195 25.505-6.175c8.425-5.09 10.195-11.3 10.195-15.615 0-4.315-1.77-10.52-10.195-15.615-6.59-3.98-15.645-6.175-25.505-6.175Z"/></svg>