<svg xmlns="http://www.w3.org/2000/svg" width="400" height="401" fill="none" viewBox="0 0 400 401"><path fill="#F5F4F3" d="M60.99 278.686h284.28l-18.945-130.59H42.045l18.945 130.59Z"/><path fill="#222" d="M345.27 280.065H60.99c-.685 0-1.27-.505-1.37-1.185L40.68 148.29c-.06-.395.06-.8.325-1.105.265-.305.645-.48 1.045-.48h284.275c.685 0 1.27.505 1.37 1.185l18.94 130.59c.06.395-.06.8-.325 1.105-.265.305-.645.48-1.045.48h.005ZM62.185 277.3H343.67l-18.54-127.825H43.645L62.185 277.3Z"/><path fill="#222" d="M74.225 259.71h284.28L328.98 127.045H44.7L74.225 259.71Z"/><path fill="#222" d="M358.505 261.095H74.225c-.65 0-1.21-.45-1.35-1.08L43.35 127.345c-.09-.41.01-.84.27-1.165.265-.325.66-.52 1.08-.52h284.28c.65 0 1.21.45 1.35 1.08l29.525 132.665c.09.41-.01.84-.27 1.165-.265.325-.66.52-1.08.52v.005Zm-283.17-2.765H356.78l-28.905-129.9H46.425l28.905 129.9h.005Z"/><path fill="#FF3158" d="M334.15 118.175H49.875l38.42 122.13h284.28l-38.42-122.13h-.005Z"/><path fill="#222" d="M372.57 241.69H88.29c-.605 0-1.14-.39-1.32-.97L48.555 118.59a1.383 1.383 0 0 1 1.32-1.8H334.15c.605 0 1.14.39 1.32.97l38.42 122.13a1.383 1.383 0 0 1-1.32 1.8Zm-283.265-2.765H370.69L333.14 119.56H51.76l37.55 119.365h-.005Z"/><path fill="#fff" d="m351.06 200.11-13.13-41.74c-19.285 0-35.48-14.03-40.925-31.335H94.57c5.445 17.305-1.93 31.335-21.21 31.335l13.13 41.74c19.28 0 35.48 14.03 40.925 31.335H329.85c-5.445-17.305 1.93-31.335 21.21-31.335Z"/><path fill="#222" d="M329.845 232.826H127.41c-.605 0-1.14-.39-1.32-.97-5.625-17.88-21.91-30.365-39.605-30.365-.605 0-1.14-.39-1.32-.97l-13.13-41.74a1.383 1.383 0 0 1 1.32-1.8c8.175 0 14.42-2.62 18.055-7.575 3.945-5.38 4.6-13.175 1.835-21.96a1.383 1.383 0 0 1 1.32-1.8H297c.605 0 1.14.39 1.32.97 5.625 17.88 21.915 30.365 39.61 30.365.605 0 1.14.39 1.32.97l13.13 41.74a1.383 1.383 0 0 1-1.32 1.8c-8.18 0-14.425 2.62-18.06 7.58-3.945 5.38-4.595 13.175-1.835 21.96a1.383 1.383 0 0 1-1.32 1.8v-.005Zm-201.43-2.765h199.59c-2.395-8.92-1.435-16.9 2.765-22.625 3.89-5.3 10.23-8.275 18.42-8.665l-12.28-39.03c-18.17-.46-34.765-13.16-40.91-31.32H96.41c2.395 8.92 1.435 16.905-2.77 22.63-3.885 5.3-10.23 8.27-18.415 8.66l12.28 39.03c18.17.46 34.765 13.16 40.905 31.32h.005Z"/><path fill="#FF3158" d="M245.862 208.602c11.86-13.99 5.967-38.479-13.163-54.696-19.13-16.218-44.253-18.023-56.113-4.033-11.861 13.991-5.968 38.479 13.162 54.697 19.13 16.217 44.253 18.023 56.114 4.032Z"/><path fill="#222" d="M223.425 219.404c-11.855 0-23.24-4.03-32.92-11.655-9.125-7.185-16.045-17.165-19.485-28.095-3.7-11.755-2.72-22.34 2.76-29.805 5.17-7.05 13.905-10.775 25.245-10.775 11.34 0 23.24 4.03 32.92 11.655 9.125 7.185 16.045 17.165 19.485 28.095 3.7 11.755 2.72 22.34-2.76 29.805-5.175 7.05-13.905 10.775-25.25 10.775h.005Zm-49.77-40.58c3.275 10.405 9.865 19.905 18.555 26.75 9.19 7.235 19.985 11.06 31.21 11.06 10.43 0 18.39-3.335 23.02-9.645 4.94-6.735 5.775-16.445 2.35-27.34-3.275-10.405-9.865-19.905-18.555-26.75-9.19-7.235-19.985-11.06-31.21-11.06-10.43 0-18.385 3.335-23.02 9.645-4.94 6.735-5.775 16.445-2.35 27.34Z"/></svg>