<svg xmlns="http://www.w3.org/2000/svg" width="400" height="401" fill="none" viewBox="0 0 400 401"><path fill="#fff" d="M339.98 272.696H155.45l1.3 22.76h-55.17l-9.625-22.76H46.85v-60.9l87.26-65.2 47.11.04.06 22.71 158.7 42.45v60.9Z"/><path fill="#DADADA" d="M346.154 213.66v54.15h-42.17v-60.905l8.295 3.025 33.875 3.73ZM187.449 164.455V267.81h-51.41v-25.97c0-5.44-4.055-9.845-9.05-9.845-4.995 0-9.07 4.405-9.07 9.845v25.97h-14.1v-63.5l83.63-62.6v22.745Zm-17.55 58.415v-22.12h-20.92v22.12h20.92ZM271.044 274.561h-123.55v6.625h6.625v6.62h-25.07v-6.62h-6.625v-6.625H54.859l36.58 46.86h216.185l-36.58-46.86Z"/><path fill="#fff" d="M121.269 237.686c-5 0-9.055 4.395-9.055 9.84v25.965h18.11v-25.965c0-5.445-4.055-9.84-9.055-9.84Z"/><path fill="#222" d="M130.324 274.871h-18.11a1.38 1.38 0 0 1-1.38-1.385v-25.965c0-6.19 4.68-11.22 10.44-11.22s10.44 5.035 10.44 11.22v25.965c0 .765-.62 1.385-1.38 1.385h-.01Zm-16.73-2.765h15.345v-24.58c0-4.665-3.44-8.455-7.675-8.455-4.235 0-7.675 3.795-7.675 8.455v24.58h.005Z"/><path fill="#fff" d="M143.26 217.481v11.065h20.925V206.431H143.26v11.05Z"/><path fill="#222" d="M164.185 229.93h-20.92a1.38 1.38 0 0 1-1.38-1.385V206.43c0-.765.62-1.385 1.38-1.385h20.92c.765 0 1.38.62 1.38 1.385v22.115c0 .765-.62 1.385-1.38 1.385Zm-19.54-2.765H162.8v-19.35h-18.155v19.35Z"/><path fill="#222" d="M164.184 218.866h-20.92a1.38 1.38 0 0 1-1.38-1.385c0-.765.62-1.385 1.38-1.385h20.92c.765 0 1.38.62 1.38 1.385s-.62 1.385-1.38 1.385Z"/><path fill="#222" d="M153.719 229.93a1.38 1.38 0 0 1-1.38-1.385V206.43c0-.765.62-1.385 1.38-1.385.76 0 1.38.62 1.38 1.385v22.115c0 .765-.62 1.385-1.38 1.385ZM150.534 294.746h-25.07a1.38 1.38 0 0 1-1.38-1.385v-5.24h-5.24a1.38 1.38 0 0 1-1.38-1.385v-5.24h-5.24a1.38 1.38 0 0 1-1.38-1.385v-6.625c0-.765.62-1.385 1.38-1.385h25.07c.765 0 1.38.62 1.38 1.385v5.24h5.24c.765 0 1.38.62 1.38 1.385v5.24h5.24c.765 0 1.38.62 1.38 1.385v6.625c0 .765-.62 1.385-1.38 1.385Zm-23.69-2.765h22.305v-3.86h-5.24a1.38 1.38 0 0 1-1.38-1.385v-5.24h-5.24a1.38 1.38 0 0 1-1.38-1.385v-5.24h-22.305v3.86h5.24c.765 0 1.38.62 1.38 1.385v5.24h5.24c.765 0 1.38.62 1.38 1.385v5.24Z"/><path fill="#222" d="M143.909 288.121h-18.445a1.38 1.38 0 0 1-1.38-1.385c0-.765.62-1.385 1.38-1.385h18.445c.765 0 1.38.62 1.38 1.385s-.62 1.385-1.38 1.385ZM137.284 281.496h-18.445a1.38 1.38 0 0 1-1.38-1.385c0-.765.62-1.385 1.38-1.385h18.445c.765 0 1.38.62 1.38 1.385s-.62 1.385-1.38 1.385ZM286.579 237.286h-93.165a1.38 1.38 0 0 1-1.38-1.385c0-.765.62-1.385 1.38-1.385h93.165c.765 0 1.38.62 1.38 1.385s-.62 1.385-1.38 1.385ZM286.579 249.815h-93.165a1.38 1.38 0 0 1-1.38-1.385c0-.765.62-1.385 1.38-1.385h93.165c.765 0 1.38.62 1.38 1.385s-.62 1.385-1.38 1.385ZM286.579 262.345h-93.165a1.38 1.38 0 0 1-1.38-1.385c0-.765.62-1.385 1.38-1.385h93.165c.765 0 1.38.62 1.38 1.385s-.62 1.385-1.38 1.385Z"/><path fill="#222" d="M286.579 274.87h-93.165a1.38 1.38 0 0 1-1.38-1.385V223.37c0-.765.62-1.385 1.38-1.385h93.165c.765 0 1.38.62 1.38 1.385v50.115c0 .765-.62 1.385-1.38 1.385Zm-91.785-2.765h90.4v-47.35h-90.4v47.35ZM226.674 170.135h-44.94l124.825 45.475h44.945l-124.83-45.475Z"/><path fill="#222" d="M351.504 216.995h-44.945c-.16 0-.32-.03-.475-.085l-124.83-45.475a1.387 1.387 0 0 1-.89-1.54c.115-.66.69-1.14 1.36-1.14h44.945c.16 0 .32.03.475.085l124.83 45.475c.63.23 1.005.88.89 1.54-.115.66-.69 1.14-1.36 1.14Zm-44.7-2.765h36.865l-117.24-42.71h-36.865l117.24 42.71Z"/><path fill="#fff" d="M257.585 158.911 238 182.686v-23.775h-40.19V81.016h170.475v77.895h-110.7Z"/><path fill="#222" d="M238 184.065a1.38 1.38 0 0 1-1.38-1.38v-22.39h-38.81a1.38 1.38 0 0 1-1.38-1.385V81.015c0-.765.62-1.385 1.38-1.385h170.475c.765 0 1.38.62 1.38 1.385v77.895c0 .765-.62 1.385-1.38 1.385H258.24l-19.17 23.27c-.27.325-.66.505-1.065.505l-.005-.005Zm-38.81-26.54H238c.765 0 1.38.62 1.38 1.385v19.92l17.135-20.8c.265-.32.655-.505 1.065-.505h109.315V82.4h-167.7v75.13l-.005-.005Z"/><path fill="#FF3158" d="m206.154 72.67-8.345 8.345h170.475l8.345-8.345H206.154Z"/><path fill="#222" d="M368.284 82.4H197.809a1.37 1.37 0 0 1-1.275-.855c-.21-.52-.095-1.11.3-1.505l8.345-8.345c.26-.26.61-.404.98-.404h170.475c.56 0 1.065.335 1.275.855.21.52.095 1.11-.3 1.504l-8.345 8.346c-.26.26-.61.404-.98.404Zm-167.135-2.765h166.565l5.58-5.58H206.729l-5.58 5.58Z"/><path fill="#FF3158" d="M368.284 81.016v77.895l8.345-8.345V72.671l-8.345 8.345Z"/><path fill="#222" d="M368.284 160.296a1.389 1.389 0 0 1-1.385-1.38v-77.9c0-.365.145-.72.405-.98l8.345-8.345a1.38 1.38 0 0 1 1.505-.3c.515.215.855.72.855 1.275v77.895c0 .365-.145.72-.405.98l-8.345 8.345c-.265.265-.62.405-.98.405l.005.005Zm1.385-78.705v73.985l5.58-5.58V76.011l-5.58 5.58ZM364.364 274.871H23.369a1.38 1.38 0 0 1-1.38-1.385c0-.765.62-1.385 1.38-1.385h340.995c.765 0 1.38.62 1.38 1.385s-.62 1.385-1.38 1.385Z"/><path fill="#fff" d="M221.679 119.965c18.15 22.34 44.535 22.34 62.69 0-18.15-22.34-44.535-22.34-62.69 0Z"/><path fill="#222" d="M253.024 138.1c-11.86 0-23.37-6.13-32.415-17.265a1.379 1.379 0 0 1 0-1.745c9.045-11.135 20.56-17.265 32.415-17.265s23.37 6.13 32.415 17.265c.415.51.415 1.235 0 1.745-9.045 11.135-20.56 17.265-32.415 17.265Zm-29.55-18.135c8.395 9.925 18.85 15.37 29.55 15.37s21.155-5.45 29.55-15.37c-8.395-9.92-18.85-15.37-29.55-15.37s-21.155 5.45-29.55 15.37Z"/><path fill="#222" d="M253.024 136.716c7.13 0 12.91-7.499 12.91-16.75 0-9.251-5.78-16.75-12.91-16.75s-12.91 7.499-12.91 16.75c0 9.251 5.78 16.75 12.91 16.75Z"/><path fill="#222" d="M253.024 138.101c-8.28 0-14.29-7.625-14.29-18.135 0-10.51 6.01-18.135 14.29-18.135s14.29 7.625 14.29 18.135c0 10.51-6.01 18.135-14.29 18.135Zm0-33.5c-6.68 0-11.525 6.465-11.525 15.37s4.845 15.37 11.525 15.37c6.68 0 11.525-6.465 11.525-15.37s-4.845-15.37-11.525-15.37Z"/><path fill="#FF3158" d="m344.414 116.59-21.49-22.095-21.495 22.095h16.435v28.845h10.115V116.59h16.435Z"/><path fill="#222" d="M327.979 146.815h-10.115a1.38 1.38 0 0 1-1.38-1.385v-27.46h-15.05a1.393 1.393 0 0 1-1.275-.845 1.377 1.377 0 0 1 .285-1.5l21.49-22.095c.52-.535 1.46-.535 1.98 0l21.49 22.095c.385.4.5.99.285 1.5-.215.51-.72.845-1.275.845h-15.05v27.46c0 .765-.62 1.385-1.38 1.385h-.005Zm-8.73-2.765h7.35v-27.46c0-.765.62-1.385 1.38-1.385h13.16l-18.22-18.73-18.22 18.73h13.16c.765 0 1.38.62 1.38 1.385v27.46h.01ZM124.369 259.106a1.845 1.845 0 1 0 0-3.69 1.845 1.845 0 0 0 0 3.69Z"/><path fill="#222" d="M303.935 328.341H87.75c-.425 0-.83-.195-1.09-.53l-36.58-46.86a1.38 1.38 0 0 1 1.085-2.23h67.57c.765 0 1.38.62 1.38 1.385v5.24h5.24c.765 0 1.38.62 1.38 1.385v5.24h22.305v-3.86h-5.24a1.38 1.38 0 0 1-1.38-1.385v-6.625c0-.765.62-1.385 1.38-1.385h123.55c.425 0 .83.195 1.09.53l36.58 46.86a1.38 1.38 0 0 1-1.085 2.23v.005Zm-215.516-2.765H301.1l-34.42-44.095H145.185v3.86h5.24c.765 0 1.38.62 1.38 1.385v6.625c0 .765-.62 1.385-1.38 1.385h-25.07a1.38 1.38 0 0 1-1.38-1.385v-5.24h-5.24a1.38 1.38 0 0 1-1.38-1.385v-5.24h-63.35l34.42 44.095-.005-.005Z" style="mix-blend-mode:multiply"/><path fill="#222" d="m127.384 147.385-91.15 68.225H90.58l91.15-68.225h-54.345Z"/><path fill="#222" d="M90.58 216.995H36.233c-.595 0-1.125-.38-1.31-.945a1.387 1.387 0 0 1 .485-1.545l91.15-68.225c.24-.18.53-.275.83-.275h54.345c.595 0 1.125.38 1.31.945a1.387 1.387 0 0 1-.485 1.545l-91.15 68.225c-.24.18-.53.275-.83.275Zm-50.196-2.765h49.73l87.46-65.46h-49.73l-87.455 65.46h-.005Z"/><path fill="#222" d="M98.115 274.87h-50.81a1.38 1.38 0 0 1-1.38-1.385V215.61c0-.765.62-1.385 1.38-1.385H90.12l7.165-5.365a1.383 1.383 0 0 1 2.21 1.105v63.515c0 .765-.62 1.385-1.38 1.385v.005Zm-49.425-2.765h48.045v-59.37l-5.325 3.985c-.24.18-.53.275-.83.275H48.685v55.11h.005Z"/><path fill="#222" d="M181.734 274.87h-83.62a1.38 1.38 0 0 1-1.38-1.385V209.97c0-.435.205-.845.555-1.105l83.56-62.545.06-.05c.42-.31.98-.36 1.445-.125.465.235.76.715.76 1.235v126.105c0 .765-.62 1.385-1.38 1.385Zm-82.235-2.765h80.855v-121.96l-80.855 60.52v61.44ZM340.435 274.87h-42.17a1.38 1.38 0 0 1-1.38-1.385v-60.9c0-.45.22-.875.59-1.135s.84-.32 1.265-.165l8.07 2.94h33.63c.765 0 1.38.62 1.38 1.385v57.875c0 .765-.62 1.385-1.38 1.385h-.005Zm-40.79-2.765h39.405v-55.11h-32.49c-.16 0-.32-.03-.475-.085l-6.44-2.345v57.54Z"/></svg>