<svg width="105" height="18" viewBox="0 0 105 18" fill="none" xmlns="http://www.w3.org/2000/svg">
<g clip-path="url(#clip0_319_15069)">
<path d="M25.3732 14.6019V10.2014L25.2296 7.65101H25.3254L26.3307 9.90131L28.6287 14.3519L30.9266 9.90131L31.932 7.65101H32.0277L31.8841 10.2014V14.6019H34.3736V3.75049H31.5969L28.6287 9.65128L25.7084 3.75049H22.8838V14.6019H25.3732Z" fill="#222222"/>
<path d="M97.8545 11.8515C97.8545 13.6517 98.7641 14.6018 100.535 14.6018H102.067V12.3515H100.392V7.60091H102.163V5.40062H100.152V3.35034H97.8066V11.8515H97.8545Z" fill="#222222"/>
<path d="M97.1843 5.45068C97.1843 5.45068 97.1364 5.45068 96.7534 5.45068C95.3172 5.45068 94.647 6.45082 94.4076 7.15091C94.3597 7.15091 94.3119 7.15091 94.3119 7.15091V5.45068H91.7745V14.6019H94.3119C94.3119 14.6019 94.3119 9.55123 94.3119 9.40121C94.3119 8.85114 94.5034 8.50109 94.7427 8.25106C95.1736 7.801 96.0832 7.70098 97.1364 7.70098C97.1843 6.80086 97.1843 5.45068 97.1843 5.45068Z" fill="#222222"/>
<path d="M71.9547 5.45068C71.9547 5.45068 71.9068 5.45068 71.5238 5.45068C70.0876 5.45068 69.4174 6.45082 69.178 7.15091C69.1301 7.15091 69.0822 7.15091 69.0822 7.15091V5.45068H66.5449V14.6019H69.0822C69.0822 14.6019 69.0822 9.55123 69.0822 9.40121C69.0822 8.85114 69.2737 8.50109 69.5131 8.25106C69.944 7.801 70.8536 7.70098 71.9068 7.70098C71.9547 6.80086 71.9547 5.45068 71.9547 5.45068Z" fill="#222222"/>
<path d="M57.0659 10.1513C57.0659 7.15094 58.5979 5.20068 61.2788 5.20068C64.2949 5.20068 65.4918 7.45098 65.4918 10.0013V10.8014H59.699V10.9014C59.699 11.9516 60.2256 12.7017 61.7097 12.7017C62.7629 12.7017 63.3853 12.2016 63.9119 11.5515L65.2045 13.2018C64.3906 14.1519 63.0502 14.752 61.4225 14.752C58.6458 14.852 57.0659 13.2018 57.0659 10.1513ZM59.699 9.15121V9.30123H62.8587V9.15121C62.8587 8.00106 62.3799 7.25096 61.3267 7.25096C60.3214 7.20095 59.699 7.95105 59.699 9.15121Z" fill="#222222"/>
<path d="M82.1997 10.1513C82.1997 7.10094 83.7796 5.20068 86.4126 5.20068C89.0457 5.20068 90.6255 7.10094 90.6255 10.1513C90.6255 13.2018 89.0457 14.802 86.4126 14.802C83.7796 14.802 82.1997 13.2018 82.1997 10.1513ZM88.0403 10.8514V9.20122C88.0403 8.00106 87.4659 7.35097 86.4605 7.35097C85.4551 7.35097 84.8807 8.05107 84.8807 9.20122V10.8514C84.8807 12.0516 85.4551 12.7017 86.4605 12.7017C87.4659 12.7017 88.0403 12.0516 88.0403 10.8514Z" fill="#222222"/>
<path d="M54.6242 3.35034H52.3263V4.45049C52.3263 5.10058 52.1348 5.45062 51.4167 5.45062H50.7943V7.65092H52.0869V11.8515C52.0869 13.6517 52.9965 14.6018 54.7679 14.6018H56.2998V12.3515H54.6242V7.60091H56.3956V5.40062H54.6242V3.35034Z" fill="#222222"/>
<path d="M48.3049 3.35034H46.0069V4.45049C46.0069 5.10058 45.8154 5.45062 45.0973 5.45062H44.475V7.65092H45.7676V11.8515C45.7676 13.6517 46.6772 14.6018 48.4485 14.6018H49.9805V12.3515H48.3049V7.60091H50.0762V5.40062H48.3049V3.35034Z" fill="#222222"/>
<path d="M77.8432 5.25049C76.6942 5.25049 75.6889 6.00059 75.4016 7.05073H75.3059V5.45051H72.7686V17.3521H75.3059V13.0015H75.4016C75.641 14.0017 76.6464 14.8018 77.8432 14.8018C80.1412 14.8018 81.338 13.3516 81.338 10.1511C81.338 6.95072 80.1412 5.25049 77.8432 5.25049ZM78.6571 11.0013C78.6571 12.2014 77.939 12.6515 76.9815 12.6515C76.024 12.6515 75.3059 12.1514 75.3059 11.2513V8.75096C75.3059 7.90084 76.024 7.35077 76.9815 7.35077C77.939 7.35077 78.6571 8.10087 78.6571 9.30103V11.0013Z" fill="#222222"/>
<path d="M42.8473 14.6017C41.9377 14.6017 41.2674 13.9517 41.1238 12.9515H41.0281C40.7408 14.1517 39.7355 14.8018 38.395 14.8018C36.5758 14.8018 35.5704 13.7016 35.5704 12.0514C35.5704 10.0511 37.0545 9.101 39.4482 9.101H40.8844V8.80096C40.8844 7.90084 40.4536 7.30076 39.4004 7.30076C38.395 7.30076 37.8684 7.85084 37.4375 8.40091L35.9056 7.05073C36.6237 5.95058 37.6769 5.25049 39.544 5.25049C42.0813 5.25049 43.4218 6.45065 43.4218 8.70095V12.4014H44.2835V14.6517H42.8473V14.6017ZM40.8844 11.7514V10.6512H39.6397C38.6344 10.6512 38.1556 11.0513 38.1556 11.7014V11.9514C38.1556 12.6515 38.5865 12.9515 39.3525 12.9515C40.1663 13.0015 40.8844 12.6015 40.8844 11.7514Z" fill="#222222"/>
<path d="M14.7452 0L8.56946 1.80024L2.44158 0L0 0.700094V17.2523L2.44158 17.9524L8.61733 16.2022L14.7452 18.0024L17.1868 17.3023V0.700094L14.7452 0ZM12.2558 12.3517L8.56946 11.3015L4.88315 12.3517V5.65076L8.56946 6.7009L12.2558 5.65076V12.3517Z" fill="#FF3158"/>
<path d="M8.56946 3.25054V6.701L2.44158 4.90076V17.9525L0 17.2524V0.700195L8.56946 3.25054Z" fill="#C00033"/>
<path d="M12.2558 13.7521L8.56946 12.7019V16.1524L14.7452 17.9526V4.90088L12.2558 5.65098V13.7521Z" fill="#C00033"/>
<path d="M14.7452 0L17.1868 0.700094L8.56946 3.25044L0 0.700094L2.44158 0L8.56946 1.80024L14.7452 0Z" fill="#FF7788"/>
<path d="M8.56946 11.2515L12.2558 12.3516V13.7518L8.56946 12.7017L4.93103 13.7518V12.3516L8.56946 11.2515Z" fill="#FF7788"/>
</g>
<defs>
<clipPath id="clip0_319_15069">
<rect width="104.625" height="18" fill="white"/>
</clipPath>
</defs>
</svg>
