<svg width="70" height="128" viewBox="0 0 70 128" fill="none" xmlns="http://www.w3.org/2000/svg">
<g filter="url(#filter0_d_1260_1330)">
<path d="M59.4092 68.241H37.4604L37.0371 42C49.5648 42.7665 59.4092 50.6234 59.4092 63.4182V68.241Z" fill="white" fill-opacity="0.5"/>
<path d="M59.4092 73.241H10.591V100.52C10.591 114.001 21.5193 122 35.0001 122C48.4809 122 59.4092 114.001 59.4092 100.52V73.241Z" fill="white" fill-opacity="0.5"/>
<path d="M10.5908 68.3002V63.4184C10.5908 51.0372 19.809 43.2798 31.7566 42.0967C32.0331 42.0673 32.301 42.0443 32.559 42.0274V68.3002H10.5908Z" fill="white"/>
<path fill-rule="evenodd" clip-rule="evenodd" d="M35 2C35.4242 2 35.8311 2.17557 36.1311 2.48808C36.4311 2.80059 36.5996 3.22446 36.5996 3.66642V19.8079L40.2659 15.9851C40.5662 15.6722 40.9736 15.4964 41.3984 15.4964C41.8232 15.4964 42.2305 15.6722 42.5309 15.9851C42.8313 16.298 43 16.7224 43 17.1649C43 17.6074 42.8313 18.0318 42.5309 18.3447L36.1325 25.0104C35.9839 25.1656 35.8074 25.2887 35.6131 25.3727C35.4187 25.4568 35.2104 25.5 35 25.5C34.7896 25.5 34.5813 25.4568 34.3869 25.3727C34.1926 25.2887 34.0161 25.1656 33.8675 25.0104L27.4691 18.3447C27.3204 18.1898 27.2024 18.0059 27.1219 17.8034C27.0414 17.601 27 17.384 27 17.1649C27 16.9458 27.0414 16.7288 27.1219 16.5264C27.2024 16.324 27.3204 16.14 27.4691 15.9851C27.7695 15.6722 28.1768 15.4964 28.6016 15.4964C28.8119 15.4964 29.0202 15.5396 29.2145 15.6234C29.4088 15.7073 29.5854 15.8302 29.7341 15.9851L33.4004 19.8079V3.66642C33.4004 3.22446 33.5689 2.80059 33.8689 2.48808C34.1689 2.17557 34.5758 2 35 2Z" fill="white"/>
<path fill-rule="evenodd" clip-rule="evenodd" d="M21.7173 16.3166C11.2423 17.9213 4 21.3652 4 25.3547C4 30.8776 17.8792 35.3547 35 35.3547C52.1208 35.3547 66 30.8776 66 25.3547C66 21.3652 58.7577 17.9213 48.2827 16.3166L44.8263 19.8919C49.0245 20.3676 52.7281 21.1343 55.6923 22.0905C58.2723 22.9227 60.07 23.8282 61.1382 24.6428C61.5574 24.9626 61.7841 25.202 61.9035 25.3547C61.7841 25.5075 61.5574 25.7469 61.1382 26.0666C60.07 26.8813 58.2723 27.7867 55.6923 28.619C50.5773 30.269 43.2609 31.3547 35 31.3547C26.7391 31.3547 19.4227 30.269 14.3077 28.619C11.7278 27.7867 9.93 26.8813 8.86184 26.0666C8.4426 25.7469 8.21588 25.5075 8.0965 25.3547C8.21588 25.202 8.4426 24.9626 8.86184 24.6428C9.93 23.8282 11.7278 22.9227 14.3077 22.0905C17.2719 21.1343 20.9755 20.3676 25.1737 19.8919L21.7173 16.3166ZM62.0275 25.1569C62.0275 25.1569 62.0262 25.163 62.0207 25.175C62.0243 25.1629 62.0275 25.1569 62.0275 25.1569ZM7.9725 25.1569C7.9725 25.1569 7.97572 25.1629 7.9793 25.175C7.97381 25.163 7.9725 25.1569 7.9725 25.1569ZM7.9725 25.5525C7.9725 25.5525 7.97382 25.5464 7.97931 25.5344C7.97572 25.5466 7.9725 25.5525 7.9725 25.5525ZM62.0207 25.5344C62.0262 25.5464 62.0275 25.5525 62.0275 25.5525C62.0275 25.5525 62.0262 25.5506 62.0247 25.5467C62.0236 25.5437 62.0222 25.5396 62.0207 25.5344Z" fill="white"/>
</g>
<defs>
<filter id="filter0_d_1260_1330" x="0" y="0" width="70" height="128" filterUnits="userSpaceOnUse" color-interpolation-filters="sRGB">
<feFlood flood-opacity="0" result="BackgroundImageFix"/>
<feColorMatrix in="SourceAlpha" type="matrix" values="0 0 0 0 0 0 0 0 0 0 0 0 0 0 0 0 0 0 127 0" result="hardAlpha"/>
<feOffset dy="2"/>
<feGaussianBlur stdDeviation="2"/>
<feColorMatrix type="matrix" values="0 0 0 0 0 0 0 0 0 0 0 0 0 0 0 0 0 0 0.1 0"/>
<feBlend mode="normal" in2="BackgroundImageFix" result="effect1_dropShadow_1260_1330"/>
<feBlend mode="normal" in="SourceGraphic" in2="effect1_dropShadow_1260_1330" result="shape"/>
</filter>
</defs>
</svg>
