<svg width="75" height="113" viewBox="0 0 75 113" fill="none" xmlns="http://www.w3.org/2000/svg">
<path fill-rule="evenodd" clip-rule="evenodd" d="M27.6022 59.2268H49.2942V54.4076C49.2942 41.6194 39.4551 33.7664 26.934 33L27.0978 43.1544C28.9814 43.7883 30.292 45.2596 30.292 47.3573L30.292 55.2198C30.292 57.1246 29.2113 58.513 27.6022 59.2268ZM22.1005 43.3605C20.504 44.0772 19.4335 45.4615 19.4335 47.3573L19.4335 55.2198C19.4335 57.1246 20.5141 58.513 22.1232 59.2268H0.5L0.5 54.4076C0.5 41.9363 9.85757 34.1586 21.9345 33.07L22.1005 43.3605ZM24.897 64.2268H49.2942V91.4912C49.2942 104.965 38.3713 112.961 24.8971 112.961C11.423 112.961 0.5 104.965 0.5 91.4912L0.5 64.2268H24.897Z" fill="white" fill-opacity="0.5"/>
<path d="M28.2559 48.3008C28.2559 46.1296 26.7366 44.8413 24.8626 44.8413C22.9885 44.8413 21.4693 46.1296 21.4693 48.3008V54.2763C21.4693 56.4475 22.9885 57.7358 24.8626 57.7358C26.7366 57.7358 28.2559 56.4475 28.2559 54.2763L28.2559 48.3008Z" fill="white"/>
<path d="M28.2559 48.3008C28.2559 46.1296 26.7366 44.8413 24.8626 44.8413C22.9885 44.8413 21.4693 46.1296 21.4693 48.3008V54.2763C21.4693 56.4475 22.9885 57.7358 24.8626 57.7358C26.7366 57.7358 28.2559 56.4475 28.2559 54.2763L28.2559 48.3008Z" fill="white"/>
<g clip-path="url(#clip0_1207_1239)">
<path fill-rule="evenodd" clip-rule="evenodd" d="M51.9375 28.5C53.6529 28.5 55.3515 28.1621 56.9363 27.5057C58.5211 26.8492 59.9611 25.887 61.1741 24.6741C62.387 23.4611 63.3492 22.0211 64.0057 20.4363C64.6621 18.8515 65 17.1529 65 15.4375C65 13.7221 64.6621 12.0235 64.0057 10.4387C63.3492 8.85388 62.387 7.41388 61.1741 6.20092C59.9611 4.98795 58.5211 4.02578 56.9363 3.36932C55.3515 2.71287 53.6529 2.375 51.9375 2.375C48.4731 2.375 45.1506 3.75122 42.7009 6.20092C40.2512 8.65061 38.875 11.9731 38.875 15.4375C38.875 18.9019 40.2512 22.2244 42.7009 24.6741C45.1506 27.1238 48.4731 28.5 51.9375 28.5ZM67.375 15.4375C67.375 19.5318 65.7486 23.4584 62.8535 26.3535C59.9584 29.2486 56.0318 30.875 51.9375 30.875C47.8432 30.875 43.9166 29.2486 41.0215 26.3535C38.1264 23.4584 36.5 19.5318 36.5 15.4375C36.5 11.3432 38.1264 7.41663 41.0215 4.52154C43.9166 1.62645 47.8432 0 51.9375 0C56.0318 0 59.9584 1.62645 62.8535 4.52154C65.7486 7.41663 67.375 11.3432 67.375 15.4375Z" fill="white"/>
<path d="M61.0669 27.8873C61.1381 27.9823 61.2141 28.0725 61.2996 28.1604L70.4434 37.3041C70.8887 37.7498 71.4929 38.0003 72.1229 38.0005C72.7529 38.0007 73.3572 37.7507 73.8028 37.3053C74.2485 36.86 74.499 36.2559 74.4992 35.6259C74.4994 34.9958 74.2493 34.3915 73.804 33.9459L64.6603 24.8021C64.5754 24.7162 64.4841 24.6368 64.3871 24.5646C63.4555 25.835 62.3359 26.9561 61.0669 27.8896V27.8873Z" fill="white"/>
<path fill-rule="evenodd" clip-rule="evenodd" d="M51.9375 7.125C52.2524 7.125 52.5545 7.25011 52.7772 7.47281C52.9999 7.69551 53.125 7.99756 53.125 8.3125V14.25H59.0625C59.3774 14.25 59.6795 14.3751 59.9022 14.5978C60.1249 14.8205 60.25 15.1226 60.25 15.4375C60.25 15.7524 60.1249 16.0545 59.9022 16.2772C59.6795 16.4999 59.3774 16.625 59.0625 16.625H53.125V22.5625C53.125 22.8774 52.9999 23.1795 52.7772 23.4022C52.5545 23.6249 52.2524 23.75 51.9375 23.75C51.6226 23.75 51.3205 23.6249 51.0978 23.4022C50.8751 23.1795 50.75 22.8774 50.75 22.5625V16.625H44.8125C44.4976 16.625 44.1955 16.4999 43.9728 16.2772C43.7501 16.0545 43.625 15.7524 43.625 15.4375C43.625 15.1226 43.7501 14.8205 43.9728 14.5978C44.1955 14.3751 44.4976 14.25 44.8125 14.25H50.75V8.3125C50.75 7.99756 50.8751 7.69551 51.0978 7.47281C51.3205 7.25011 51.6226 7.125 51.9375 7.125Z" fill="white"/>
</g>
<defs>
<clipPath id="clip0_1207_1239">
<rect width="38" height="38" fill="white" transform="translate(36.5)"/>
</clipPath>
</defs>
</svg>
