<svg width="88" height="121" viewBox="0 0 88 121" fill="none" xmlns="http://www.w3.org/2000/svg">
<g filter="url(#filter0_d_1207_1227)">
<path fill-rule="evenodd" clip-rule="evenodd" d="M53.2164 61.241H31.2675L30.8443 35C43.3719 35.7665 53.2164 43.6234 53.2164 56.4182V61.241ZM53.2164 66.241H28.8075H4.39819L4.39819 93.52C4.39819 107.001 15.3265 115 28.8073 115C42.288 115 53.2164 107.001 53.2164 93.52V66.241ZM4.39819 61.241H26.2669L25.8448 35.0699C13.7612 36.1586 4.39819 43.9402 4.39819 56.4182V61.241Z" fill="white" fill-opacity="0.5"/>
<path d="M4.39795 61.3002V56.4184C4.39795 44.0372 13.6162 36.2798 25.5637 35.0967C25.8403 35.0673 26.1081 35.0443 26.3661 35.0274V61.3002H4.39795Z" fill="white"/>
<g clip-path="url(#clip0_1207_1227)">
<path fill-rule="evenodd" clip-rule="evenodd" d="M58.6594 2.34698C58.7697 2.23639 58.9008 2.14865 59.045 2.08879C59.1893 2.02892 59.344 1.99811 59.5002 1.99811C59.6564 1.99811 59.811 2.02892 59.9553 2.08879C60.0996 2.14865 60.2306 2.23639 60.3409 2.34698L65.0909 7.09698C65.2013 7.20739 65.2889 7.33846 65.3487 7.48272C65.4084 7.62698 65.4392 7.78159 65.4392 7.93773C65.4392 8.09387 65.4084 8.24849 65.3487 8.39274C65.2889 8.537 65.2013 8.66807 65.0909 8.77848C64.9805 8.88889 64.8494 8.97647 64.7052 9.03622C64.5609 9.09598 64.4063 9.12673 64.2502 9.12673C64.094 9.12673 63.9394 9.09598 63.7952 9.03622C63.6509 8.97647 63.5198 8.88889 63.4094 8.77848L60.6877 6.05436V15.0627C60.6877 15.3777 60.5626 15.6797 60.3399 15.9024C60.1172 16.1251 59.8151 16.2502 59.5002 16.2502C59.1852 16.2502 58.8832 16.1251 58.6605 15.9024C58.4378 15.6797 58.3127 15.3777 58.3127 15.0627V6.05436L55.5909 8.77848C55.3679 9.00146 55.0655 9.12673 54.7502 9.12673C54.4348 9.12673 54.1324 9.00146 53.9094 8.77848C53.6864 8.5555 53.5612 8.25307 53.5612 7.93773C53.5612 7.62239 53.6864 7.31996 53.9094 7.09698L58.6594 2.34698ZM59.5002 25.7502C59.8151 25.7502 60.1172 25.8753 60.3399 26.098C60.5626 26.3207 60.6877 26.6228 60.6877 26.9377V35.9461L63.4094 33.222C63.6324 32.999 63.9348 32.8737 64.2502 32.8737C64.5655 32.8737 64.8679 32.999 65.0909 33.222C65.3139 33.445 65.4392 33.7474 65.4392 34.0627C65.4392 34.3781 65.3139 34.6805 65.0909 34.9035L60.3409 39.6535C60.2306 39.7641 60.0996 39.8518 59.9553 39.9117C59.811 39.9715 59.6564 40.0024 59.5002 40.0024C59.344 40.0024 59.1893 39.9715 59.045 39.9117C58.9008 39.8518 58.7697 39.7641 58.6594 39.6535L53.9094 34.9035C53.799 34.7931 53.7114 34.662 53.6517 34.5177C53.5919 34.3735 53.5612 34.2189 53.5612 34.0627C53.5612 33.9066 53.5919 33.752 53.6517 33.6077C53.7114 33.4635 53.799 33.3324 53.9094 33.222C54.1324 32.999 54.4348 32.8737 54.7502 32.8737C54.9063 32.8737 55.0609 32.9045 55.2052 32.9642C55.3494 33.024 55.4805 33.1116 55.5909 33.222L58.3127 35.9461V26.9377C58.3127 26.6228 58.4378 26.3207 58.6605 26.098C58.8832 25.8753 59.1852 25.7502 59.5002 25.7502ZM40.8469 21.841C40.7363 21.7307 40.6486 21.5996 40.5887 21.4554C40.5289 21.3111 40.498 21.1564 40.498 21.0002C40.498 20.844 40.5289 20.6894 40.5887 20.5451C40.6486 20.4008 40.7363 20.2698 40.8469 20.1595L45.5969 15.4095C45.8199 15.1865 46.1223 15.0612 46.4377 15.0612C46.753 15.0612 47.0554 15.1865 47.2784 15.4095C47.5014 15.6325 47.6267 15.9349 47.6267 16.2502C47.6267 16.5656 47.5014 16.868 47.2784 17.091L44.5543 19.8127H53.5627C53.8776 19.8127 54.1797 19.9378 54.4024 20.1605C54.6251 20.3832 54.7502 20.6853 54.7502 21.0002C54.7502 21.3152 54.6251 21.6172 54.4024 21.8399C54.1797 22.0626 53.8776 22.1877 53.5627 22.1877H44.5543L47.2784 24.9095C47.5014 25.1325 47.6267 25.4349 47.6267 25.7502C47.6267 26.0656 47.5014 26.368 47.2784 26.591C47.0554 26.814 46.753 26.9392 46.4377 26.9392C46.1223 26.9392 45.8199 26.814 45.5969 26.591L40.8469 21.841ZM64.2502 21.0002C64.2502 20.6853 64.3753 20.3832 64.598 20.1605C64.8207 19.9378 65.1227 19.8127 65.4377 19.8127H74.446L71.7219 17.091C71.6115 16.9806 71.5239 16.8495 71.4642 16.7052C71.4044 16.561 71.3737 16.4064 71.3737 16.2502C71.3737 16.0941 71.4044 15.9395 71.4642 15.7952C71.5239 15.651 71.6115 15.5199 71.7219 15.4095C71.9449 15.1865 72.2473 15.0612 72.5627 15.0612C72.7188 15.0612 72.8734 15.092 73.0177 15.1517C73.1619 15.2115 73.293 15.2991 73.4034 15.4095L78.1534 20.1595C78.264 20.2698 78.3517 20.4008 78.4116 20.5451C78.4715 20.6894 78.5023 20.844 78.5023 21.0002C78.5023 21.1564 78.4715 21.3111 78.4116 21.4554C78.3517 21.5996 78.264 21.7307 78.1534 21.841L73.4034 26.591C73.293 26.7014 73.1619 26.789 73.0177 26.8487C72.8734 26.9085 72.7188 26.9392 72.5627 26.9392C72.4065 26.9392 72.2519 26.9085 72.1077 26.8487C71.9634 26.789 71.8323 26.7014 71.7219 26.591C71.6115 26.4806 71.5239 26.3495 71.4642 26.2052C71.4044 26.061 71.3737 25.9064 71.3737 25.7502C71.3737 25.5941 71.4044 25.4395 71.4642 25.2952C71.5239 25.151 71.6115 25.0199 71.7219 24.9095L74.446 22.1877H65.4377C65.1227 22.1877 64.8207 22.0626 64.598 21.8399C64.3753 21.6172 64.2502 21.3152 64.2502 21.0002Z" fill="white"/>
</g>
</g>
<defs>
<filter id="filter0_d_1207_1227" x="-0.5" y="0" width="91.8982" height="121" filterUnits="userSpaceOnUse" color-interpolation-filters="sRGB">
<feFlood flood-opacity="0" result="BackgroundImageFix"/>
<feColorMatrix in="SourceAlpha" type="matrix" values="0 0 0 0 0 0 0 0 0 0 0 0 0 0 0 0 0 0 127 0" result="hardAlpha"/>
<feOffset dy="2"/>
<feGaussianBlur stdDeviation="2"/>
<feColorMatrix type="matrix" values="0 0 0 0 0 0 0 0 0 0 0 0 0 0 0 0 0 0 0.1 0"/>
<feBlend mode="normal" in2="BackgroundImageFix" result="effect1_dropShadow_1207_1227"/>
<feBlend mode="normal" in="SourceGraphic" in2="effect1_dropShadow_1207_1227" result="shape"/>
</filter>
<clipPath id="clip0_1207_1227">
<rect width="38" height="38" fill="white" transform="translate(40.5 2)"/>
</clipPath>
</defs>
</svg>
