<svg xmlns="http://www.w3.org/2000/svg" width="400" height="401" fill="none" viewBox="0 0 400 401"><path fill="#222" d="M316.449 327.396h-178l-34.3-223.65h178l34.3 223.65Z"/><path fill="#222" d="M316.45 328.796h-178c-.7 0-1.25-.5-1.35-1.15l-34.3-223.65c-.05-.4.05-.8.3-1.1.25-.3.65-.5 1.05-.5h178c.7 0 1.25.5 1.35 1.2l34.3 223.7c.05.399-.05.8-.3 1.1-.25.3-.65.4-1.05.4Zm-176.8-2.75h175.2l-33.9-220.9h-175.2l33.9 220.9Z"/><path fill="#fff" d="M321.55 319.896h-178l-34.35-223.7h178l34.35 223.7Z"/><path fill="#222" d="M321.55 321.246h-178c-.7 0-1.25-.5-1.35-1.15l-34.3-223.65c-.05-.4.05-.8.3-1.1.25-.3.65-.5 1.05-.5h178c.7 0 1.25.5 1.35 1.2l34.3 223.65c.05.4-.05.8-.3 1.1-.25.3-.65.45-1.05.45Zm-176.85-2.75h175.2L286 97.596H110.85l33.85 220.9Z"/><path fill="#fff" d="M326.6 312.346h-178l-34.3-223.7h178l34.3 223.7Z"/><path fill="#222" d="M326.6 313.696h-178c-.7 0-1.25-.5-1.35-1.15l-34.3-223.65c-.05-.4.05-.8.3-1.1.25-.3.65-.5 1.05-.5h178c.7 0 1.25.5 1.35 1.2l34.3 223.7c.05.4-.05.8-.3 1.1-.25.3-.65.45-1.05.4Zm-176.8-2.75H325l-33.9-220.9H115.9l33.9 220.9Z"/><path fill="#DADADA" d="M297.8 83.146h-178l8.55 55.65h56c2.3 0 4.3 1.7 4.65 4l15.3 99.8c.45 2.85-1.75 5.45-4.65 5.45H145.1l9 58.75h178l-34.3-223.65Z"/><path fill="#222" d="M137.9 106.896c-.75 0-1.4-.6-1.4-1.4 0-.8.6-1.4 1.4-1.4.8 0 1.3-.25 1.8-.85 1.75-2 2.1-7.3 1.05-14.5-1.45-9.7-4.5-15.7-7.9-15.7-.75 0-1.3.25-1.8.85-1.75 2-2.1 7.3-1.05 14.5.1.75-.4 1.45-1.15 1.55-.75.1-1.45-.4-1.55-1.15-.85-5.75-1.25-13.3 1.7-16.7 1-1.15 2.35-1.8 3.9-1.8 2.95 0 8.3 2.35 10.65 18.1.85 5.75 1.25 13.3-1.7 16.7-1.05 1.15-2.4 1.8-3.95 1.8ZM157.3 106.896c-.75 0-1.4-.6-1.4-1.4 0-.8.6-1.4 1.4-1.4.8 0 1.3-.25 1.8-.85 1.75-2 2.1-7.3 1.05-14.5-1.45-9.7-4.5-15.7-7.9-15.7-.75 0-1.3.25-1.8.85-1.75 2-2.1 7.3-1.05 14.5.1.75-.4 1.45-1.15 1.55-.75.1-1.45-.4-1.55-1.15-.85-5.75-1.25-13.3 1.7-16.7 1-1.15 2.35-1.8 3.9-1.8 2.95 0 8.3 2.35 10.65 18.1.85 5.75 1.25 13.3-1.7 16.7-1.05 1.15-2.4 1.8-3.95 1.8ZM176.65 106.896c-.75 0-1.4-.6-1.4-1.4 0-.8.6-1.4 1.4-1.4.8 0 1.3-.25 1.8-.85 1.75-2 2.1-7.3 1.05-14.5-1.45-9.7-4.5-15.7-7.9-15.7-.75 0-1.3.25-1.8.85-1.75 2-2.1 7.3-1.05 14.5.1.75-.4 1.45-1.15 1.55-.75.1-1.45-.4-1.55-1.15-.85-5.75-1.25-13.3 1.7-16.7 1-1.15 2.35-1.8 3.9-1.8 2.95 0 8.3 2.35 10.65 18.1.85 5.75 1.25 13.3-1.7 16.7-1.05 1.15-2.4 1.8-3.95 1.8ZM196 106.896c-.75 0-1.4-.6-1.4-1.4 0-.8.6-1.4 1.4-1.4.8 0 1.3-.25 1.8-.85 1.75-2 2.1-7.3 1.05-14.5-1.45-9.7-4.5-15.7-7.9-15.7-.75 0-1.3.25-1.8.85-1.75 2-2.1 7.3-1.05 14.5.1.75-.4 1.45-1.15 1.55-.75.1-1.45-.4-1.55-1.15-.85-5.75-1.25-13.3 1.7-16.7 1-1.15 2.35-1.8 3.9-1.8 2.95 0 8.3 2.35 10.65 18.1.85 5.75 1.25 13.3-1.7 16.7-1.05 1.15-2.4 1.8-3.95 1.8ZM215.4 106.896c-.75 0-1.4-.6-1.4-1.4 0-.8.6-1.4 1.4-1.4.8 0 1.3-.25 1.8-.85 1.75-2 2.1-7.3 1.05-14.5-1.45-9.7-4.5-15.7-7.9-15.7-.75 0-1.3.25-1.8.85-1.75 2-2.1 7.3-1.05 14.5.1.75-.4 1.45-1.15 1.55-.75.1-1.45-.4-1.55-1.15-.85-5.75-1.25-13.3 1.7-16.7 1-1.15 2.35-1.8 3.9-1.8 2.95 0 8.3 2.35 10.65 18.1.85 5.75 1.25 13.3-1.7 16.7-1.05 1.15-2.4 1.8-3.95 1.8ZM234.75 106.896c-.75 0-1.4-.6-1.4-1.4 0-.8.6-1.4 1.4-1.4.8 0 1.3-.25 1.8-.85 1.75-2 2.1-7.3 1.05-14.5-1.45-9.7-4.5-15.7-7.9-15.7-.75 0-1.3.25-1.8.85-1.75 2-2.1 7.3-1.05 14.5.1.75-.4 1.45-1.15 1.55-.75.1-1.45-.4-1.55-1.15-.85-5.75-1.25-13.3 1.7-16.7 1-1.15 2.35-1.8 3.9-1.8 2.95 0 8.3 2.35 10.65 18.1.85 5.75 1.25 13.3-1.7 16.7-1.05 1.15-2.4 1.8-3.95 1.8ZM254.15 106.896c-.75 0-1.4-.6-1.4-1.4 0-.8.6-1.4 1.4-1.4.8 0 1.3-.25 1.8-.85 1.75-2 2.1-7.3 1.05-14.5-1.45-9.7-4.5-15.7-7.9-15.7-.75 0-1.3.25-1.8.85-1.75 2-2.1 7.3-1.05 14.5.1.75-.4 1.45-1.15 1.55-.75.1-1.45-.4-1.55-1.15-.85-5.75-1.25-13.3 1.7-16.7 1-1.15 2.35-1.8 3.9-1.8 2.95 0 8.3 2.35 10.65 18.1.85 5.75 1.25 13.3-1.7 16.7-1.05 1.15-2.4 1.8-3.95 1.8ZM273.5 106.896c-.75 0-1.4-.6-1.4-1.4 0-.8.6-1.4 1.4-1.4.8 0 1.35-.25 1.8-.85 1.75-2 2.1-7.3 1.05-14.5-1.45-9.7-4.5-15.7-7.9-15.7-.75 0-1.35.25-1.8.85-1.75 2-2.1 7.3-1.05 14.5.1.75-.4 1.45-1.15 1.55-.75.1-1.45-.4-1.55-1.15-.85-5.75-1.25-13.3 1.7-16.7 1-1.15 2.35-1.8 3.9-1.8 2.95 0 8.3 2.35 10.65 18.1.85 5.75 1.25 13.3-1.7 16.7-1.05 1.15-2.4 1.8-3.95 1.8Z"/><path fill="#222" d="M326.6 313.696h-178c-.7 0-1.25-.5-1.35-1.15l-34.3-223.65c-.05-.4.05-.8.3-1.1.25-.3.65-.5 1.05-.5h178c.7 0 1.25.5 1.35 1.2l34.3 223.7c.05.4-.05.8-.3 1.1-.25.3-.65.45-1.05.4Zm-176.8-2.75H325l-33.9-220.9H115.9l33.9 220.9Z"/><path fill="#fff" d="m239.5 244.596-12.95 36.6 33.1-20.2-20.15-16.4Z"/><path fill="#222" d="M226.55 282.596c-.3 0-.6-.1-.85-.3-.45-.35-.6-1-.45-1.55l12.95-36.6c.15-.45.5-.75.95-.85.45-.1.9 0 1.25.25l20.2 16.4c.35.3.55.7.5 1.15-.05.45-.25.85-.65 1.1l-33.15 20.2c-.25.1-.5.2-.75.2Zm13.6-35.65-11 31.1 28.15-17.15-17.15-13.95Z"/><path fill="#222" d="m233 262.896-6.45 18.3 16.55-10.1-10.1-8.2Z"/><path fill="#222" d="M226.55 282.595c-.3 0-.6-.1-.85-.3-.45-.35-.6-1-.45-1.55l6.5-18.3c.15-.4.5-.75.95-.85.45-.1.9 0 1.25.25l10.1 8.2c.35.3.55.7.5 1.15-.05.45-.25.85-.65 1.1l-16.55 10.1c-.3.1-.55.2-.8.2Zm7.1-17.4-4.5 12.8 11.6-7.05-7.1-5.75Z"/><path fill="#FF3158" d="M342.734 117.444 239.523 244.635l20.189 16.382 103.211-127.19-20.189-16.383Z"/><path fill="#222" d="M259.65 262.396c-.3 0-.6-.1-.85-.3l-20.2-16.4c-.3-.25-.45-.55-.5-.95-.05-.4.05-.75.3-1l103.3-127.1c.5-.6 1.35-.7 1.95-.2l20.2 16.4c.3.25.45.55.5.95.05.4-.05.75-.3 1l-103.3 127.1c-.25.3-.65.5-1.1.5Zm-18.2-18 18.05 14.65 101.55-124.95-18.05-14.65-101.55 124.95Z"/><path fill="#fff" d="m347.073 112.204-4.284 5.28 20.189 16.383 4.284-5.28-20.189-16.383Z"/><path fill="#222" d="M363 135.295c-.3 0-.6-.1-.85-.3l-20.2-16.4c-.3-.25-.45-.55-.5-.95-.05-.4.05-.75.3-1l4.3-5.3c.5-.6 1.35-.7 1.95-.2l20.2 16.4c.3.25.45.55.5.95.05.35-.05.75-.3 1l-4.3 5.3c-.3.3-.7.5-1.1.5Zm-18.25-18 18.05 14.65 2.55-3.15-18.05-14.65-2.55 3.15Z"/><path fill="#FF3158" d="M379.2 113.945c1.85-2.25 1.5-5.6-.75-7.4l-12-9.75c-2.25-1.85-5.6-1.5-7.4.8l-11.9 14.65 20.2 16.4 11.85-14.7Z"/><path fill="#222" d="M367.25 129.996c-.3 0-.6-.1-.85-.3l-20.2-16.4c-.6-.5-.7-1.35-.2-1.95l11.9-14.65c1.1-1.4 2.7-2.25 4.5-2.45 1.75-.2 3.5.35 4.9 1.45l12 9.75c2.85 2.3 3.3 6.5 1 9.35l-11.9 14.65c-.3.35-.7.55-1.15.55Zm-18.2-18 18.05 14.65 11.05-13.6c1.35-1.65 1.1-4.1-.55-5.45l-12-9.75c-.8-.65-1.8-.95-2.85-.85-1.05.1-1.95.6-2.6 1.4l-11.1 13.6Z"/><path fill="#222" d="M288.85 171.946c-.3 0-.6-.1-.85-.3-.6-.5-.7-1.35-.2-1.95l51.7-63.7c.5-.6 1.35-.7 1.95-.2l6.55 5.3c.6.5.7 1.35.2 1.95-.5.6-1.35.7-1.95.2l-5.5-4.45-50.85 62.65c-.25.35-.65.5-1.05.5Z"/><path fill="#fff" d="M178.85 144.345H47.4c-2.9 0-5.1 2.55-4.65 5.45l15.3 99.8c.35 2.3 2.35 4 4.65 4h131.4c2.9 0 5.1-2.55 4.65-5.45l-15.25-99.85c-.35-2.3-2.35-3.95-4.65-3.95Z"/><path fill="#222" d="M194.15 254.945H62.7c-3.05 0-5.55-2.2-6-5.15l-15.3-99.85c-.25-1.75.25-3.55 1.4-4.9 1.15-1.35 2.85-2.1 4.6-2.1h131.4c3.05 0 5.55 2.2 6 5.15l15.3 99.8c.25 1.75-.25 3.55-1.4 4.9a5.915 5.915 0 0 1-4.55 2.15ZM47.4 145.695c-.95 0-1.9.45-2.55 1.15-.65.7-.9 1.7-.75 2.65l15.3 99.8c.25 1.65 1.65 2.8 3.3 2.8h131.4c.95 0 1.9-.45 2.5-1.15.6-.7.9-1.7.75-2.65l-15.3-99.8c-.25-1.65-1.65-2.8-3.3-2.8H47.4Z"/><path fill="#222" d="M69.85 180.796c-3.8 0-7.35-2.95-8.1-6.75l-3.35-17.3c-.15-.75.35-1.5 1.1-1.6.75-.15 1.45.35 1.6 1.1l3.35 17.3c.45 2.45 2.95 4.5 5.35 4.5 1.05 0 1.95-.4 2.55-1.1.6-.75.85-1.75.6-2.9l-5.75-29.65c-.75-3.85-4.55-7-8.45-7-1.75 0-3.25.65-4.2 1.85-1 1.25-1.4 2.9-1.05 4.7.15.75-.35 1.5-1.1 1.6-.75.15-1.45-.35-1.6-1.1-.5-2.65.05-5.1 1.6-7 1.5-1.85 3.8-2.85 6.35-2.85 5.25 0 10.15 4.05 11.15 9.2l5.75 29.65c.4 1.95-.05 3.75-1.2 5.15-1.05 1.5-2.7 2.25-4.6 2.2Z"/><path fill="#444" d="M127.15 253.545H62.7c-2.35 0-4.3-1.7-4.65-4l-15.2-99.1h-16.2l-7 117.05h109.6l-2.1-13.95Z"/><path fill="#222" d="M129.25 268.846H19.65c-.4 0-.75-.15-1-.45-.25-.25-.4-.65-.4-1.05l7-117.05c.05-.75.65-1.3 1.4-1.3h16.2c.7 0 1.25.5 1.35 1.2l15.2 99.1c.25 1.65 1.65 2.8 3.3 2.8h64.4c.7 0 1.25.5 1.35 1.2l2.15 13.9c.05.4-.05.8-.3 1.1-.25.3-.65.55-1.05.55Zm-108.15-2.75h106.55l-1.7-11.15H62.7c-3.05 0-5.55-2.2-6-5.15l-15-97.95H27.95l-6.85 114.25Z"/></svg>