<svg xmlns="http://www.w3.org/2000/svg" width="400" height="400" fill="none" viewBox="0 0 400 400"><path fill="#222" d="M316.465 326.919h-178l-34.315-223.67h178l34.315 223.67Z"/><path fill="#222" d="M316.466 328.304h-178c-.685 0-1.265-.5-1.365-1.175l-34.315-223.67c-.06-.4.055-.805.315-1.11a1.38 1.38 0 0 1 1.05-.48h178c.685 0 1.265.5 1.365 1.175l34.315 223.675c.06.4-.055.805-.315 1.11a1.38 1.38 0 0 1-1.05.48v-.005Zm-176.815-2.765h175.205l-33.89-220.91H105.761l33.89 220.91Z"/><path fill="#fff" d="M321.532 319.379h-178L109.217 95.704h178l34.315 223.675Z"/><path fill="#222" d="M321.532 320.759h-178c-.685 0-1.265-.5-1.365-1.175l-34.315-223.67c-.06-.4.055-.805.315-1.11a1.38 1.38 0 0 1 1.05-.48h178c.685 0 1.265.5 1.365 1.175l34.315 223.675c.06.4-.055.805-.315 1.11a1.38 1.38 0 0 1-1.05.48v-.005Zm-176.815-2.765h175.205l-33.89-220.905h-175.2l33.89 220.905h-.005Z"/><path fill="#fff" d="M326.6 311.834h-178l-34.315-223.67h178l34.315 223.67Z"/><path fill="#222" d="M326.601 313.219h-178c-.685 0-1.265-.5-1.365-1.175l-34.315-223.67c-.06-.4.055-.805.315-1.11a1.38 1.38 0 0 1 1.05-.48h178c.685 0 1.265.5 1.365 1.175l34.315 223.675c.06.4-.055.805-.315 1.11a1.38 1.38 0 0 1-1.05.48v-.005Zm-176.815-2.765h175.205l-33.89-220.905H115.896l33.89 220.905Z"/><path fill="#444" d="M137.911 106.399a1.38 1.38 0 0 1-1.38-1.385c0-.765.62-1.385 1.38-1.385.76 0 1.325-.265 1.815-.83 1.74-2.02 2.12-7.3 1.045-14.485-1.45-9.7-4.485-15.725-7.92-15.725-.75 0-1.325.265-1.815.83-1.74 2.02-2.12 7.3-1.045 14.485a1.38 1.38 0 0 1-1.165 1.57 1.38 1.38 0 0 1-1.57-1.165c-.86-5.73-1.26-13.28 1.685-16.7 1.01-1.17 2.36-1.79 3.91-1.79 2.97 0 8.3 2.35 10.655 18.085.86 5.73 1.26 13.28-1.685 16.7-1.01 1.17-2.36 1.79-3.91 1.79v.005ZM157.281 106.399a1.38 1.38 0 0 1-1.38-1.385c0-.765.62-1.385 1.38-1.385.76 0 1.325-.265 1.815-.83 1.74-2.02 2.12-7.3 1.045-14.485-1.45-9.7-4.485-15.725-7.92-15.725-.75 0-1.325.265-1.815.83-1.74 2.02-2.12 7.3-1.045 14.485a1.38 1.38 0 0 1-1.165 1.57 1.38 1.38 0 0 1-1.57-1.165c-.86-5.73-1.26-13.28 1.685-16.7 1.01-1.17 2.36-1.79 3.91-1.79 2.97 0 8.3 2.35 10.655 18.085.86 5.73 1.26 13.28-1.685 16.7-1.01 1.17-2.36 1.79-3.91 1.79v.005ZM176.651 106.399a1.38 1.38 0 0 1-1.38-1.385c0-.765.62-1.385 1.38-1.385.76 0 1.325-.265 1.815-.83 1.74-2.02 2.12-7.3 1.045-14.485-1.45-9.7-4.485-15.725-7.92-15.725-.75 0-1.325.265-1.815.83-1.74 2.02-2.12 7.3-1.045 14.485a1.38 1.38 0 0 1-1.165 1.57 1.38 1.38 0 0 1-1.57-1.165c-.86-5.73-1.26-13.28 1.685-16.7 1.01-1.17 2.36-1.79 3.91-1.79 2.97 0 8.3 2.35 10.655 18.085.86 5.73 1.26 13.28-1.685 16.7-1.01 1.17-2.36 1.79-3.91 1.79v.005ZM196.021 106.399a1.38 1.38 0 0 1-1.38-1.385c0-.765.62-1.385 1.38-1.385.76 0 1.325-.265 1.815-.83 1.74-2.02 2.12-7.3 1.045-14.485-1.45-9.7-4.485-15.725-7.92-15.725-.75 0-1.325.265-1.815.83-1.74 2.02-2.12 7.3-1.045 14.485a1.38 1.38 0 0 1-1.165 1.57 1.38 1.38 0 0 1-1.57-1.165c-.86-5.73-1.26-13.28 1.685-16.7 1.01-1.17 2.36-1.79 3.91-1.79 2.97 0 8.3 2.35 10.655 18.085.86 5.73 1.26 13.28-1.685 16.7-1.01 1.17-2.36 1.79-3.91 1.79v.005ZM215.391 106.399a1.38 1.38 0 0 1-1.38-1.385c0-.765.62-1.385 1.38-1.385.76 0 1.325-.265 1.815-.83 1.74-2.02 2.12-7.3 1.045-14.485-1.45-9.7-4.485-15.725-7.92-15.725-.75 0-1.325.265-1.815.83-1.74 2.02-2.12 7.3-1.045 14.485a1.38 1.38 0 0 1-1.165 1.57 1.38 1.38 0 0 1-1.57-1.165c-.86-5.73-1.26-13.28 1.685-16.7 1.01-1.17 2.36-1.79 3.91-1.79 2.97 0 8.3 2.35 10.655 18.085.86 5.73 1.26 13.28-1.685 16.7-1.01 1.17-2.36 1.79-3.91 1.79v.005ZM234.761 106.399a1.38 1.38 0 0 1-1.38-1.385c0-.765.62-1.385 1.38-1.385.76 0 1.325-.265 1.815-.83 1.74-2.02 2.12-7.3 1.045-14.485-1.45-9.7-4.485-15.725-7.92-15.725-.75 0-1.325.265-1.815.83-1.74 2.02-2.12 7.3-1.045 14.485a1.38 1.38 0 0 1-1.165 1.57 1.38 1.38 0 0 1-1.57-1.165c-.86-5.73-1.26-13.28 1.685-16.7 1.01-1.17 2.36-1.79 3.91-1.79 2.97 0 8.3 2.35 10.655 18.085.86 5.73 1.26 13.28-1.685 16.7-1.01 1.17-2.36 1.79-3.91 1.79v.005ZM254.132 106.399a1.38 1.38 0 0 1-1.38-1.385c0-.765.62-1.385 1.38-1.385.76 0 1.325-.265 1.815-.83 1.74-2.02 2.12-7.3 1.045-14.485-1.45-9.7-4.485-15.725-7.92-15.725-.75 0-1.325.265-1.815.83-1.74 2.02-2.12 7.3-1.045 14.485a1.38 1.38 0 0 1-1.165 1.57 1.38 1.38 0 0 1-1.57-1.165c-.86-5.73-1.26-13.28 1.685-16.7 1.01-1.17 2.36-1.79 3.91-1.79 2.97 0 8.3 2.35 10.655 18.085.86 5.73 1.26 13.28-1.685 16.7-1.01 1.17-2.36 1.79-3.91 1.79v.005ZM273.501 106.399a1.38 1.38 0 0 1-1.38-1.385c0-.765.62-1.385 1.38-1.385.76 0 1.325-.265 1.815-.83 1.74-2.02 2.12-7.3 1.045-14.485-1.45-9.7-4.485-15.725-7.92-15.725-.75 0-1.325.265-1.815.83-1.74 2.02-2.12 7.3-1.045 14.485a1.38 1.38 0 0 1-1.165 1.57 1.38 1.38 0 0 1-1.57-1.165c-.86-5.73-1.26-13.28 1.685-16.7 1.01-1.17 2.36-1.79 3.91-1.79 2.97 0 8.3 2.35 10.655 18.085.86 5.73 1.26 13.28-1.685 16.7-1.01 1.17-2.36 1.79-3.91 1.79v.005Z"/><path fill="#fff" d="M178.836 143.829H47.411a4.708 4.708 0 0 0-4.655 5.425l15.315 99.81a4.71 4.71 0 0 0 4.655 3.995h131.42a4.708 4.708 0 0 0 4.655-5.425l-15.31-99.81a4.71 4.71 0 0 0-4.655-3.995Z"/><path fill="#222" d="M194.146 254.444H62.726a6.055 6.055 0 0 1-6.02-5.17l-15.315-99.81c-.27-1.76.24-3.54 1.4-4.89a6.091 6.091 0 0 1 4.625-2.125h131.42a6.055 6.055 0 0 1 6.02 5.17l15.31 99.81c.27 1.76-.24 3.54-1.4 4.89a6.091 6.091 0 0 1-4.625 2.125h.005ZM47.411 145.214c-.97 0-1.89.425-2.525 1.16a3.32 3.32 0 0 0-.765 2.67l15.315 99.81a3.312 3.312 0 0 0 3.29 2.825h131.42c.97 0 1.89-.425 2.525-1.16a3.32 3.32 0 0 0 .765-2.67l-15.31-99.81a3.312 3.312 0 0 0-3.29-2.825H47.411Z"/><path fill="#DADADA" d="M297.821 82.63h-178l8.54 55.664h56.01a4.71 4.71 0 0 1 4.655 3.995l15.31 99.81a4.708 4.708 0 0 1-4.655 5.425h-54.56l9.015 58.775h178l-34.315-223.67Z" style="mix-blend-mode:multiply"/><path fill="#444" d="M69.83 180.319c-3.8 0-7.35-2.965-8.08-6.75l-3.354-17.305a1.382 1.382 0 1 1 2.715-.525l3.355 17.305c.475 2.445 2.93 4.515 5.37 4.515 1.065 0 1.975-.395 2.565-1.11.615-.745.835-1.765.615-2.875l-5.745-29.635c-.745-3.845-4.53-6.975-8.44-6.975-1.74 0-3.24.655-4.225 1.845-1.015 1.23-1.38 2.905-1.03 4.71a1.382 1.382 0 1 1-2.715.525c-.51-2.63.06-5.115 1.61-6.995 1.515-1.84 3.775-2.85 6.355-2.85 5.255 0 10.155 4.045 11.155 9.215l5.745 29.635c.375 1.935-.05 3.77-1.2 5.165-1.125 1.365-2.795 2.115-4.7 2.115l.005-.01Z"/><path fill="#fff" d="m239.481 244.119-12.94 36.585 33.135-20.2-20.195-16.385Z"/><path fill="#222" d="M226.541 282.089a1.382 1.382 0 0 1-1.3-1.845l12.945-36.585c.15-.425.495-.75.93-.87.43-.12.895-.025 1.245.255l20.19 16.385a1.385 1.385 0 0 1-.15 2.255l-33.135 20.2c-.22.135-.47.2-.72.2l-.005.005Zm13.595-35.66-10.995 31.075 28.145-17.155-17.15-13.915v-.005Z"/><path fill="#222" d="m233.011 262.409-6.47 18.295 16.57-10.1-10.1-8.195Z"/><path fill="#222" d="M226.541 282.089a1.382 1.382 0 0 1-1.3-1.845l6.475-18.295c.15-.425.495-.75.93-.87.43-.12.895-.025 1.245.255l10.095 8.195a1.385 1.385 0 0 1-.15 2.255l-16.57 10.1c-.22.135-.47.2-.72.2l-.005.005Zm7.12-17.37-4.525 12.785 11.58-7.06-7.055-5.725Z"/><path fill="#FF3158" d="M342.748 116.979 239.532 244.168l20.193 16.387 103.216-127.189-20.193-16.387Z"/><path fill="#222" d="M259.676 261.89c-.305 0-.615-.1-.87-.31l-20.19-16.385a1.387 1.387 0 0 1-.205-1.945l103.31-127.11c.48-.59 1.35-.685 1.945-.2l20.19 16.385a1.387 1.387 0 0 1 .205 1.945l-103.31 127.11c-.275.335-.67.51-1.075.51Zm-18.245-17.97 18.045 14.645L361.041 133.6l-18.045-14.645L241.431 243.92Z"/><path fill="#fff" d="m347.095 111.725-4.294 5.292 20.192 16.386 4.295-5.292-20.193-16.386Z"/><path fill="#222" d="M362.981 134.779c-.305 0-.615-.1-.87-.31l-20.19-16.385a1.387 1.387 0 0 1-.205-1.945l4.295-5.295a1.377 1.377 0 0 1 1.945-.2l20.19 16.385a1.387 1.387 0 0 1 .205 1.945l-4.295 5.295c-.275.335-.67.51-1.075.51Zm-18.245-17.97 18.045 14.645 2.555-3.145-18.045-14.645-2.555 3.145Z"/><path fill="#FF3158" d="M379.181 113.435a5.274 5.274 0 0 0-.775-7.42l-12-9.74a5.268 5.268 0 0 0-7.415.775l-11.905 14.67 20.19 16.385 11.905-14.67Z"/><path fill="#222" d="M367.275 129.485c-.305 0-.615-.1-.87-.31l-20.19-16.385a1.377 1.377 0 0 1-.2-1.945l11.905-14.67a6.614 6.614 0 0 1 4.48-2.425c1.77-.185 3.5.33 4.885 1.45l12 9.74c2.85 2.315 3.29 6.515.975 9.365l-11.905 14.67c-.275.335-.67.51-1.075.51h-.005Zm-18.245-17.97 18.045 14.645 11.03-13.595a3.9 3.9 0 0 0-.57-5.475l-12-9.74a3.874 3.874 0 0 0-2.855-.85 3.866 3.866 0 0 0-2.62 1.42l-11.03 13.595Z"/><path fill="#444" d="M288.841 171.469c-.305 0-.615-.1-.87-.31a1.377 1.377 0 0 1-.2-1.945l51.68-63.675c.48-.59 1.35-.685 1.945-.205l6.555 5.31a1.382 1.382 0 1 1-1.74 2.15l-5.48-4.44-50.81 62.6c-.275.335-.67.51-1.075.51l-.005.005ZM127.136 253.059h-64.41a4.706 4.706 0 0 1-4.655-3.995l-15.205-99.12H26.66l-7.02 117.03h109.625l-2.135-13.915h.005Z"/><path fill="#222" d="M129.266 268.355H19.641a1.37 1.37 0 0 1-1.005-.435 1.395 1.395 0 0 1-.375-1.03l7.02-117.03c.045-.73.65-1.3 1.38-1.3h16.2c.685 0 1.265.5 1.365 1.175l15.205 99.12a3.312 3.312 0 0 0 3.29 2.825h64.415c.685 0 1.265.5 1.365 1.175l2.135 13.915c.06.4-.055.805-.315 1.11a1.38 1.38 0 0 1-1.05.48l-.005-.005Zm-108.16-2.765h106.55l-1.71-11.15h-63.22a6.055 6.055 0 0 1-6.02-5.17L41.68 151.32H27.97l-6.855 114.265-.01.005Z"/></svg>