<svg xmlns="http://www.w3.org/2000/svg" width="400" height="401" fill="none" viewBox="0 0 400 401"><path fill="#222" d="M289.05 320.752h-178l-34.3-223.7h178l34.3 223.7Z"/><path fill="#222" d="M289.05 322.152h-178c-.7 0-1.25-.5-1.35-1.15L75.4 97.352c-.05-.4.05-.8.3-1.1.25-.3.65-.5 1.05-.5h178c.7 0 1.25.5 1.35 1.2l34.3 223.7c.05.4-.05.8-.3 1.1-.25.2-.65.4-1.05.4Zm-176.8-2.8h175.2l-33.9-220.9H78.35l33.9 220.9Z"/><path fill="#fff" d="M294.1 313.201h-178L81.8 89.551h178l34.3 223.65Z"/><path fill="#222" d="M294.1 314.6h-178c-.7 0-1.25-.5-1.35-1.15l-34.3-223.7c-.05-.4.05-.8.3-1.1.25-.3.65-.5 1.05-.5h178c.7 0 1.25.5 1.35 1.2L295.5 313c.05.4-.05.8-.3 1.1-.3.3-.7.5-1.1.5Zm-176.8-2.8h175.2L258.6 90.9H83.4l33.9 220.9Z"/><path fill="#fff" d="M299.2 305.652h-178L86.85 82.002h178l34.35 223.65Z"/><path fill="#222" d="M299.2 307.052h-178c-.7 0-1.25-.5-1.35-1.15L85.5 82.202c-.05-.4.05-.8.3-1.1.25-.3.65-.5 1.05-.5h178c.7 0 1.25.5 1.35 1.2l34.3 223.7c.05.4-.05.8-.3 1.1-.25.25-.6.45-1 .45Zm-176.85-2.8h175.2l-33.9-220.9H88.5l33.85 220.9Z"/><path fill="#DADADA" d="M270.4 76.451h-178l7 45.5 1.55 10.15 16.75 109.25 9 58.8h178l-34.3-223.7Z"/><path fill="#222" d="M110.5 100.202c-.75 0-1.4-.6-1.4-1.4 0-.8.6-1.4 1.4-1.4.8 0 1.3-.25 1.8-.85 1.75-2 2.1-7.3 1.05-14.5-1.45-9.7-4.5-15.7-7.9-15.7-.75 0-1.3.25-1.8.85-1.75 2-2.1 7.3-1.05 14.5.1.75-.4 1.45-1.15 1.55-.75.1-1.45-.4-1.55-1.15-.85-5.75-1.25-13.3 1.7-16.7 1-1.15 2.35-1.8 3.9-1.8 2.95 0 8.3 2.35 10.65 18.1.85 5.75 1.25 13.3-1.7 16.7-1.05 1.2-2.4 1.8-3.95 1.8ZM129.85 100.202c-.75 0-1.4-.6-1.4-1.4 0-.8.6-1.4 1.4-1.4.8 0 1.3-.25 1.8-.85 1.75-2 2.1-7.3 1.05-14.5-1.45-9.7-4.5-15.7-7.9-15.7-.75 0-1.3.25-1.8.85-1.75 2-2.1 7.3-1.05 14.5.1.75-.4 1.45-1.15 1.55-.75.1-1.45-.4-1.55-1.15-.85-5.75-1.25-13.3 1.7-16.7 1-1.15 2.35-1.8 3.9-1.8 2.95 0 8.3 2.35 10.65 18.1.85 5.75 1.25 13.3-1.7 16.7-1.05 1.2-2.4 1.8-3.95 1.8ZM149.25 100.202c-.75 0-1.4-.6-1.4-1.4 0-.8.6-1.4 1.4-1.4.8 0 1.3-.25 1.8-.85 1.75-2 2.1-7.3 1.05-14.5-1.45-9.7-4.5-15.7-7.9-15.7-.75 0-1.3.25-1.8.85-1.75 2-2.1 7.3-1.05 14.5.1.75-.4 1.45-1.15 1.55-.75.1-1.45-.4-1.55-1.15-.85-5.75-1.25-13.3 1.7-16.7 1-1.15 2.35-1.8 3.9-1.8 2.95 0 8.3 2.35 10.65 18.1.85 5.75 1.25 13.3-1.7 16.7-1.05 1.2-2.4 1.8-3.95 1.8ZM168.6 100.202c-.75 0-1.4-.6-1.4-1.4 0-.8.6-1.4 1.4-1.4.8 0 1.3-.25 1.8-.85 1.75-2 2.1-7.3 1.05-14.5-1.45-9.7-4.5-15.7-7.9-15.7-.75 0-1.3.25-1.8.85-1.75 2-2.1 7.3-1.05 14.5.1.75-.4 1.45-1.15 1.55-.75.1-1.45-.4-1.55-1.15-.85-5.75-1.25-13.3 1.7-16.7 1-1.15 2.35-1.8 3.9-1.8 2.95 0 8.3 2.35 10.65 18.1.85 5.75 1.25 13.3-1.7 16.7-1.05 1.2-2.4 1.8-3.95 1.8ZM188 100.202c-.75 0-1.4-.6-1.4-1.4 0-.8.6-1.4 1.4-1.4.8 0 1.3-.25 1.8-.85 1.75-2 2.1-7.3 1.05-14.5-1.45-9.7-4.5-15.7-7.9-15.7-.75 0-1.3.25-1.8.85-1.75 2-2.1 7.3-1.05 14.5.1.75-.4 1.45-1.15 1.55-.75.1-1.45-.4-1.55-1.15-.85-5.75-1.25-13.3 1.7-16.7 1-1.15 2.35-1.8 3.9-1.8 2.95 0 8.3 2.35 10.65 18.1.85 5.75 1.25 13.3-1.7 16.7-1.05 1.2-2.4 1.8-3.95 1.8ZM207.35 100.202c-.75 0-1.4-.6-1.4-1.4 0-.8.6-1.4 1.4-1.4.8 0 1.3-.25 1.8-.85 1.75-2 2.1-7.3 1.05-14.5-1.45-9.7-4.5-15.7-7.9-15.7-.75 0-1.3.25-1.8.85-1.75 2-2.1 7.3-1.05 14.5.1.75-.4 1.45-1.15 1.55-.75.1-1.45-.4-1.55-1.15-.85-5.75-1.25-13.3 1.7-16.7 1-1.15 2.35-1.8 3.9-1.8 2.95 0 8.3 2.35 10.65 18.1.85 5.75 1.25 13.3-1.7 16.7-1.05 1.2-2.4 1.8-3.95 1.8ZM226.7 100.202c-.75 0-1.4-.6-1.4-1.4 0-.8.6-1.4 1.4-1.4.8 0 1.3-.25 1.8-.85 1.75-2 2.1-7.3 1.05-14.5-1.45-9.7-4.5-15.7-7.9-15.7-.75 0-1.3.25-1.8.85-1.75 2-2.1 7.3-1.05 14.5.1.75-.4 1.45-1.15 1.55-.75.1-1.45-.4-1.55-1.15-.85-5.75-1.25-13.3 1.7-16.7 1-1.15 2.35-1.8 3.9-1.8 2.95 0 8.3 2.35 10.65 18.1.85 5.75 1.25 13.3-1.7 16.7-1.05 1.2-2.4 1.8-3.95 1.8ZM246.1 100.202c-.75 0-1.4-.6-1.4-1.4 0-.8.6-1.4 1.4-1.4.8 0 1.3-.25 1.8-.85 1.75-2 2.1-7.3 1.05-14.5-1.45-9.7-4.5-15.7-7.9-15.7-.75 0-1.3.25-1.8.85-1.75 2-2.1 7.3-1.05 14.5.1.75-.4 1.45-1.15 1.55-.75.1-1.45-.4-1.55-1.15-.85-5.75-1.25-13.3 1.7-16.7 1-1.15 2.35-1.8 3.9-1.8 2.95 0 8.3 2.35 10.65 18.1.85 5.75 1.25 13.3-1.7 16.7-1.05 1.2-2.4 1.8-3.95 1.8Z"/><path fill="#222" d="M299.2 307.052h-178c-.7 0-1.25-.5-1.35-1.15L85.5 82.202c-.05-.4.05-.8.3-1.1.25-.3.65-.5 1.05-.5h178c.7 0 1.25.5 1.35 1.2l34.3 223.7c.05.4-.05.8-.3 1.1-.25.25-.6.45-1 .45Zm-176.85-2.8h175.2l-33.9-220.9H88.5l33.85 220.9Z"/><path fill="#fff" d="m212.05 237.951-12.95 36.6 33.15-20.2-20.2-16.4Z"/><path fill="#222" d="M199.1 275.902c-.3 0-.6-.1-.85-.3-.45-.35-.6-1-.45-1.55l12.95-36.6c.15-.45.5-.75.95-.85.45-.1.9 0 1.25.25l20.2 16.4c.35.3.55.7.5 1.15-.05.45-.25.85-.65 1.1l-33.15 20.2c-.25.15-.45.2-.75.2Zm13.6-35.65-11 31.1 28.15-17.15-17.15-13.95Z"/><path fill="#222" d="m205.6 256.252-6.5 18.3 16.6-10.15-10.1-8.15Z"/><path fill="#222" d="M199.1 275.903c-.3 0-.6-.1-.85-.3-.45-.35-.6-1-.45-1.55l6.5-18.3c.15-.45.5-.75.95-.85.45-.1.9 0 1.25.25l10.1 8.2c.35.3.55.7.5 1.15-.05.45-.25.85-.65 1.1l-16.55 10.1c-.3.15-.5.2-.8.2Zm7.15-17.35-4.5 12.8 11.6-7.05-7.1-5.75Z"/><path fill="#FF3158" d="M315.319 110.819 212.109 238.01l20.189 16.382 103.21-127.19-20.189-16.383Z"/><path fill="#222" d="M232.25 255.703c-.3 0-.6-.1-.85-.3l-20.2-16.4c-.3-.25-.45-.55-.5-.95-.05-.35.05-.75.3-1l103.3-127.1c.5-.6 1.35-.7 1.95-.2l20.2 16.4c.3.25.45.55.5.95.05.4-.05.75-.3 1l-103.3 127.1c-.3.35-.7.5-1.1.5ZM214 237.753l18.05 14.65 101.55-124.95-18.05-14.65L214 237.753Z"/><path fill="#fff" d="m319.657 105.573-4.284 5.281 20.189 16.382 4.284-5.28-20.189-16.383Z"/><path fill="#222" d="M335.55 128.602c-.3 0-.6-.1-.85-.3l-20.2-16.4c-.6-.5-.7-1.35-.2-1.95l4.3-5.3c.25-.3.55-.45.95-.5.4-.05.75.05 1 .3l20.2 16.4c.6.5.7 1.35.2 1.95l-4.3 5.3c-.25.3-.55.45-.95.5h-.15Zm-18.25-17.95 18.05 14.65 2.55-3.15-18.05-14.65-2.55 3.15Z"/><path fill="#FF3158" d="M351.75 107.252c1.85-2.25 1.5-5.6-.75-7.4l-12-9.75c-2.25-1.85-5.6-1.5-7.4.8l-11.9 14.65 20.2 16.4 11.85-14.7Z"/><path fill="#222" d="M339.85 123.302c-.3 0-.6-.1-.85-.3l-20.2-16.4c-.3-.25-.45-.55-.5-.95-.05-.4.05-.75.3-1l11.9-14.65c1.1-1.4 2.7-2.25 4.5-2.45 1.75-.2 3.5.35 4.9 1.45l12 9.75c2.85 2.3 3.3 6.5 1 9.35l-11.9 14.65c-.35.4-.75.55-1.15.55Zm-18.25-17.95 18.05 14.65 11.05-13.6c1.35-1.65 1.1-4.1-.55-5.45l-12-9.75c-.8-.65-1.85-.95-2.85-.85-1.05.1-1.95.6-2.6 1.4l-11.1 13.6Z"/><path fill="#222" d="M261.4 165.302c-.3 0-.6-.1-.85-.3-.6-.5-.7-1.35-.2-1.95l51.7-63.7c.5-.6 1.35-.7 1.95-.2l6.55 5.3c.6.5.7 1.35.2 1.95-.5.6-1.35.7-1.95.2l-5.5-4.45-50.8 62.6c-.25.35-.65.55-1.1.55Z"/></svg>