<svg xmlns="http://www.w3.org/2000/svg" width="400" height="401" fill="none" viewBox="0 0 400 401"><path fill="#222" d="M289.05 320.733h-178L76.735 97.063h178l34.315 223.67Z"/><path fill="#222" d="M289.05 322.119h-178c-.685 0-1.265-.5-1.365-1.175l-34.32-223.67c-.06-.4.055-.805.315-1.11.265-.305.645-.48 1.05-.48h178.005c.685 0 1.265.5 1.365 1.175l34.315 223.675c.06.4-.055.805-.315 1.11-.265.305-.645.48-1.05.48v-.005Zm-176.815-2.765H287.44L253.55 98.449H78.345l33.89 220.905Z"/><path fill="#fff" d="M294.116 313.194h-178L81.801 89.519h178l34.315 223.675Z"/><path fill="#222" d="M294.115 314.579H116.116c-.685 0-1.265-.5-1.365-1.175L80.435 89.729c-.06-.4.055-.805.316-1.11.264-.305.644-.48 1.05-.48H259.8c.685 0 1.266.5 1.366 1.175l34.315 223.675c.06.4-.055.805-.315 1.11-.265.305-.646.48-1.051.48Zm-176.814-2.765h175.205L258.615 90.909H83.411l33.89 220.905Z"/><path fill="#fff" d="M299.185 305.653h-178L86.87 81.978h178l34.315 223.675Z"/><path fill="#222" d="M299.185 307.033h-178c-.685 0-1.265-.5-1.365-1.175L85.5 82.188c-.06-.4.055-.805.315-1.11.265-.305.645-.48 1.05-.48h178c.685 0 1.265.5 1.365 1.175l34.315 223.675c.06.4-.055.805-.315 1.11-.265.305-.645.48-1.05.48l.005-.005Zm-176.815-2.765h175.205l-33.89-220.905H88.48l33.89 220.905Z"/><path fill="#444" d="M110.495 100.213a1.38 1.38 0 0 1-1.38-1.385c0-.765.62-1.385 1.38-1.385.76 0 1.325-.265 1.815-.83 1.74-2.02 2.12-7.3 1.045-14.485-1.45-9.7-4.485-15.725-7.92-15.725-.75 0-1.325.265-1.815.83-1.74 2.02-2.12 7.3-1.045 14.485a1.38 1.38 0 0 1-1.165 1.57 1.376 1.376 0 0 1-1.57-1.165c-.855-5.73-1.26-13.28 1.685-16.7 1.01-1.17 2.36-1.79 3.91-1.79 2.97 0 8.3 2.35 10.655 18.085.855 5.73 1.26 13.28-1.685 16.7-1.01 1.17-2.36 1.79-3.91 1.79v.005ZM129.866 100.213a1.38 1.38 0 0 1-1.38-1.385c0-.765.62-1.385 1.38-1.385.76 0 1.325-.265 1.815-.83 1.74-2.02 2.12-7.3 1.045-14.485-1.45-9.7-4.485-15.725-7.92-15.725-.75 0-1.325.265-1.815.83-1.74 2.02-2.12 7.3-1.045 14.485a1.38 1.38 0 0 1-1.165 1.57 1.379 1.379 0 0 1-1.57-1.165c-.855-5.73-1.26-13.28 1.685-16.7 1.01-1.17 2.36-1.79 3.91-1.79 2.97 0 8.3 2.35 10.655 18.085.855 5.73 1.26 13.28-1.685 16.7-1.01 1.17-2.36 1.79-3.91 1.79v.005ZM149.235 100.213a1.38 1.38 0 0 1-1.38-1.385c0-.765.62-1.385 1.38-1.385.76 0 1.325-.265 1.815-.83 1.74-2.02 2.12-7.3 1.045-14.485-1.45-9.7-4.485-15.725-7.92-15.725-.75 0-1.325.265-1.815.83-1.74 2.02-2.12 7.3-1.045 14.485a1.376 1.376 0 0 1-1.165 1.57 1.379 1.379 0 0 1-1.57-1.165c-.86-5.73-1.26-13.28 1.685-16.7 1.01-1.17 2.36-1.79 3.91-1.79 2.97 0 8.3 2.35 10.655 18.085.855 5.73 1.26 13.28-1.685 16.7-1.01 1.17-2.36 1.79-3.91 1.79v.005ZM168.605 100.213a1.38 1.38 0 0 1-1.38-1.385c0-.765.62-1.385 1.38-1.385.76 0 1.325-.265 1.815-.83 1.74-2.02 2.12-7.3 1.045-14.485-1.45-9.7-4.485-15.725-7.92-15.725-.75 0-1.325.265-1.815.83-1.74 2.02-2.12 7.3-1.045 14.485a1.38 1.38 0 0 1-1.165 1.57 1.379 1.379 0 0 1-1.57-1.165c-.855-5.73-1.26-13.28 1.685-16.7 1.01-1.17 2.36-1.79 3.91-1.79 2.97 0 8.3 2.35 10.65 18.085.86 5.73 1.26 13.28-1.685 16.7-1.01 1.17-2.36 1.79-3.91 1.79l.005.005ZM187.975 100.213a1.38 1.38 0 0 1-1.38-1.385c0-.765.62-1.385 1.38-1.385.76 0 1.325-.265 1.815-.83 1.74-2.02 2.12-7.3 1.045-14.485-1.45-9.7-4.485-15.725-7.92-15.725-.75 0-1.325.265-1.815.83-1.74 2.02-2.12 7.3-1.045 14.485a1.38 1.38 0 0 1-1.165 1.57 1.379 1.379 0 0 1-1.57-1.165c-.855-5.73-1.26-13.28 1.685-16.7 1.01-1.17 2.36-1.79 3.91-1.79 2.97 0 8.3 2.35 10.655 18.085.86 5.73 1.26 13.28-1.685 16.7-1.01 1.17-2.36 1.79-3.91 1.79v.005ZM207.345 100.213a1.38 1.38 0 0 1-1.38-1.385c0-.765.62-1.385 1.38-1.385.76 0 1.325-.265 1.815-.83 1.74-2.02 2.12-7.3 1.045-14.485-1.45-9.7-4.485-15.725-7.92-15.725-.75 0-1.325.265-1.815.83-1.74 2.02-2.12 7.3-1.045 14.485a1.38 1.38 0 0 1-1.165 1.57 1.376 1.376 0 0 1-1.57-1.165c-.855-5.73-1.26-13.28 1.685-16.7 1.01-1.17 2.36-1.79 3.91-1.79 2.97 0 8.3 2.35 10.655 18.085.855 5.73 1.26 13.28-1.685 16.7-1.01 1.17-2.36 1.79-3.91 1.79v.005ZM226.715 100.213a1.38 1.38 0 0 1-1.38-1.385c0-.765.62-1.385 1.38-1.385.76 0 1.325-.265 1.815-.83 1.74-2.02 2.12-7.3 1.045-14.485-1.45-9.7-4.485-15.725-7.92-15.725-.75 0-1.325.265-1.815.83-1.74 2.02-2.12 7.3-1.045 14.485a1.38 1.38 0 0 1-1.165 1.57 1.379 1.379 0 0 1-1.57-1.165c-.855-5.73-1.26-13.28 1.685-16.7 1.01-1.17 2.36-1.79 3.91-1.79 2.97 0 8.3 2.35 10.655 18.085.855 5.73 1.26 13.28-1.685 16.7-1.01 1.17-2.36 1.79-3.91 1.79v.005ZM246.085 100.213a1.38 1.38 0 0 1-1.38-1.385c0-.765.62-1.385 1.38-1.385.76 0 1.325-.265 1.815-.83 1.74-2.02 2.12-7.3 1.045-14.485-1.45-9.7-4.485-15.725-7.92-15.725-.75 0-1.325.265-1.815.83-1.74 2.02-2.12 7.3-1.045 14.485a1.376 1.376 0 0 1-1.165 1.57 1.379 1.379 0 0 1-1.57-1.165c-.86-5.73-1.26-13.28 1.685-16.7 1.01-1.17 2.36-1.79 3.91-1.79 2.97 0 8.3 2.35 10.655 18.085.855 5.73 1.26 13.28-1.685 16.7-1.01 1.17-2.36 1.79-3.91 1.79v.005Z"/><path fill="#DADADA" d="M270.405 76.443h-178l6.975 45.475 1.565 10.195L117.7 241.338l9.02 58.78h177.995l-34.31-223.675Z" style="mix-blend-mode:multiply"/><path fill="#fff" d="m212.065 237.938-12.945 36.584 33.14-20.2-20.195-16.384Z"/><path fill="#222" d="M199.12 275.903a1.382 1.382 0 0 1-1.3-1.845l12.945-36.585c.15-.425.495-.75.93-.87.43-.12.895-.025 1.245.255l20.19 16.385a1.385 1.385 0 0 1-.15 2.255l-33.135 20.2c-.22.135-.47.2-.72.2l-.005.005Zm13.595-35.66-10.995 31.075 28.145-17.155-17.15-13.915v-.005Z"/><path fill="#222" d="m205.595 256.227-6.475 18.295 16.57-10.105-10.095-8.19Z"/><path fill="#222" d="M199.12 275.902a1.382 1.382 0 0 1-1.3-1.845l6.475-18.295c.15-.425.495-.75.93-.87.43-.12.895-.025 1.245.255l10.095 8.195a1.385 1.385 0 0 1-.15 2.255l-16.57 10.1c-.22.135-.47.2-.72.2l-.005.005Zm7.125-17.37-4.52 12.785 11.58-7.06-7.055-5.725h-.005Z"/><path fill="#FF3158" d="M315.332 110.795 212.116 237.983l20.193 16.387 103.216-127.188-20.193-16.387Z"/><path fill="#222" d="M232.255 255.702c-.305 0-.615-.1-.87-.31l-20.19-16.385a1.387 1.387 0 0 1-.205-1.945l103.31-127.11c.48-.59 1.35-.685 1.945-.2l20.19 16.385a1.387 1.387 0 0 1 .205 1.945l-103.31 127.11c-.275.335-.67.51-1.075.51Zm-18.245-17.97 18.045 14.645L333.62 127.412l-18.045-14.645L214.01 237.732Z"/><path fill="#fff" d="m319.671 105.538-4.294 5.292 20.192 16.387 4.295-5.292-20.193-16.387Z"/><path fill="#222" d="M335.564 128.592c-.315 0-.625-.11-.87-.31l-20.19-16.385a1.382 1.382 0 0 1-.205-1.945l4.295-5.295a1.387 1.387 0 0 1 1.945-.205l20.19 16.385c.595.48.685 1.35.205 1.945l-4.295 5.295c-.23.285-.565.465-.93.505-.05.005-.095.01-.145.01Zm-18.25-17.97 18.045 14.645 2.555-3.145-18.045-14.645-2.555 3.145Z"/><path fill="#FF3158" d="M351.765 107.247a5.274 5.274 0 0 0-.775-7.42l-12-9.74a5.268 5.268 0 0 0-7.415.775l-11.905 14.67 20.19 16.385 11.905-14.67Z"/><path fill="#222" d="M339.859 123.297c-.305 0-.615-.1-.87-.31l-20.19-16.385a1.387 1.387 0 0 1-.205-1.945l11.905-14.67a6.614 6.614 0 0 1 4.48-2.425c1.77-.185 3.5.33 4.885 1.45l12 9.74c2.85 2.315 3.29 6.515.975 9.365l-11.905 14.67c-.275.335-.67.51-1.075.51Zm-18.245-17.97 18.045 14.645 11.03-13.595a3.9 3.9 0 0 0-.57-5.475l-12-9.74a3.859 3.859 0 0 0-2.855-.85 3.866 3.866 0 0 0-2.62 1.42l-11.03 13.595Z"/><path fill="#444" d="M261.425 165.282c-.305 0-.615-.1-.87-.31a1.377 1.377 0 0 1-.2-1.945l51.685-63.675c.48-.59 1.35-.685 1.945-.205l6.555 5.31a1.382 1.382 0 1 1-1.74 2.15l-5.48-4.44-50.81 62.6c-.275.335-.67.51-1.075.51l-.01.005Z"/></svg>