<svg xmlns="http://www.w3.org/2000/svg" width="402" height="400" fill="none" viewBox="0 0 402 400"><path fill="#DADADA" d="m206.778 260.379-49.048 84.697h98.28l-49.232-84.697Z"/><path fill="#F5F4F3" d="M344.443 65.095H38.456v227.092h305.987V65.095Z"/><path fill="#222" d="M255.453 347.48h-98.28c-.557 0-.929-.185-1.115-.739-.186-.37-.186-.925 0-1.48l49.047-84.697a1.399 1.399 0 0 1 2.416 0l49.232 84.697c.186.37.186.925 0 1.48-.185.554-.743.739-1.3.739Zm-95.865-2.774h93.45l-46.818-80.628-46.632 80.628Z"/><path fill="#fff" d="M364.324 73.971H48.676v228.572h315.648V73.971Z"/><path fill="#222" d="M364.138 303.837H48.676c-.743 0-1.486-.555-1.486-1.479V73.971c0-.74.557-1.48 1.486-1.48h315.462c.743 0 1.486.555 1.486 1.48v228.572c0 .739-.743 1.294-1.486 1.294Zm-314.162-2.774h312.676V75.266H49.976v225.797Z"/><path fill="#DADADA" d="M364.695 74.34H49.047v228.572h315.648V74.341Z"/><path fill="#fff" d="M344.443 92.095H68.367V284.05h276.076V92.095Z"/><path fill="#222" d="M344.443 285.529H68.367c-.743 0-1.486-.554-1.486-1.479V92.28c0-.74.557-1.48 1.486-1.48h276.076c.743 0 1.486.555 1.486 1.48v191.955c0 .74-.743 1.294-1.486 1.294Zm-274.775-2.774h273.289V93.574H69.667v189.181Z"/><path fill="#fff" d="M350.947 87.287H74.871v191.955h276.076V87.287Z"/><path fill="#222" d="M364.138 303.837H48.676c-.743 0-1.486-.555-1.486-1.479V73.971c0-.74.557-1.48 1.486-1.48h315.462c.743 0 1.486.555 1.486 1.48v228.572c0 .739-.743 1.294-1.486 1.294Zm-314.162-2.774h312.676V75.266H49.976v225.797Z"/><path fill="#222" d="M344.444 285.529H68.368c-.743 0-1.486-.555-1.486-1.48V92.279c0-.74.557-1.48 1.486-1.48h276.076c.743 0 1.486.555 1.486 1.48v191.955c0 .74-.743 1.295-1.486 1.295Zm-274.775-2.774h273.289V93.573H69.668v189.182Z"/><path fill="#F5F4F3" d="M326.422 183.264H175.565v80.444h150.857v-80.444Z"/><path fill="#DADADA" d="M323.451 214.702h-118.53v12.76h118.53v-12.76ZM307.101 191.586H188.57v12.76h118.531v-12.76ZM335.526 235.229H216.995v12.76h118.531v-12.76ZM323.451 256.311h-118.53v12.76h118.53v-12.76Z"/><path fill="#F5F4F3" d="M234.646 107.813H83.789v80.444h150.857v-80.444Z"/><path fill="#DADADA" d="M205.477 143.874H86.947v12.76h118.53v-12.76ZM221.642 166.99H103.297v12.76h118.345v-12.76ZM193.402 123.347H74.872v12.76h118.53v-12.76ZM205.477 102.265H86.947v12.76h118.53v-12.76Z"/><path fill="#fff" d="M341.471 334.535c25.549 0 46.261-20.616 46.261-46.047 0-25.431-20.712-46.047-46.261-46.047-25.549 0-46.26 20.616-46.26 46.047 0 25.431 20.711 46.047 46.26 46.047Z"/><path fill="#222" d="M341.471 336.015c-26.381 0-47.746-21.267-47.746-47.527s21.365-47.527 47.746-47.527c26.382 0 47.747 21.267 47.747 47.527s-21.365 47.527-47.747 47.527Zm0-92.28c-24.709 0-44.96 20.158-44.96 44.753s20.251 44.753 44.96 44.753c24.71 0 44.96-20.158 44.96-44.753s-20.065-44.753-44.96-44.753Z"/><path fill="#FF3158" d="m363.393 259.64-20.622 5.732-20.622-5.732-8.174 2.219v52.889l8.174 2.219 20.622-5.732 20.622 5.732 8.175-2.219v-52.889l-8.175-2.219Zm-8.174 39.574-12.262-3.513-12.262 3.513v-21.451l12.262 3.513 12.262-3.513v21.451Z"/><path fill="#222" d="M363.393 318.077h-.186l-20.25-5.733-20.251 5.733h-.557l-8.174-2.22c-.372-.184-.744-.554-.744-.924v-52.705c0-.37.186-.739.744-.924l8.174-2.22h.557l20.251 5.733 20.25-5.733h.558l8.36 2.22c.372.185.743.554.743.924v52.705c0 .37-.186.74-.743.924l-8.174 2.22h-.558Zm-20.622-7.582h.186l20.25 5.732 7.246-2.034v-51.41l-7.431-2.034-20.251 5.733h-.557l-20.251-5.733-7.245 2.034v51.41l7.245 2.034 20.251-5.732h.557Zm-12.262-10.541c-.185 0-.371 0-.557-.185-.186-.185-.372-.37-.372-.74v-21.452c0-.37.186-.554.372-.739.186-.185.557-.185.743-.185l12.076 3.328 12.076-3.328c.186 0 .557 0 .743.185.186.185.372.369.372.739v21.452c0 .37-.186.555-.372.74-.186.185-.557.185-.743.185l-12.076-3.329-12.076 3.329h-.186Zm.929-21.082v19.047l11.147-3.143h.558l11.147 3.143v-19.047l-11.147 3.144h-.558l-11.147-3.144Z"/><path fill="#FF3158" d="M342.771 269.995v11.096l-20.436-5.733v41.794l-8.36-2.404v-52.705l28.796 7.952Z"/><path fill="#222" d="M322.335 318.077h-.186l-8.174-2.219c-.372-.185-.744-.555-.744-.925v-52.705c0-.37.186-.554.372-.739.186-.185.557-.185.743-.185l28.797 7.952c.371.185.743.554.743.924v11.096c0 .37-.186.555-.372.74-.185.185-.557.185-.743.185l-19.321-5.363v40.499c0 .37-.186.555-.372.74-.372-.185-.557 0-.743 0Zm-7.432-3.884 6.317 1.849v-40.499c0-.37.186-.555.372-.74.186-.184.557-.184.743-.184l19.321 5.362v-9.246l-26.938-7.397v50.855h.185Z"/><path fill="#FF3158" d="m355.221 303.652-12.448-3.328v11.095l20.623 5.733v-41.794l-8.175 2.404v25.89Z"/><path fill="#222" d="M363.395 318.077h-.186l-20.622-5.733c-.372-.185-.743-.555-.743-.925v-11.095c0-.37.186-.555.371-.74.186-.185.558-.185.743-.185l11.148 3.144v-24.781c0-.369.185-.739.743-.924l8.174-2.219c.372 0 .558 0 .743.185.186.185.372.369.372.739v41.609c0 .37-.186.555-.372.74 0 0-.185.185-.371.185Zm-19.693-7.397 18.764 5.178v-39.205l-6.317 1.849v25.335c0 .37-.186.555-.371.74-.186.185-.558.185-.744.185l-11.147-3.144v9.062h-.185Z"/><path fill="#FF3158" d="m363.394 259.639 8.175 2.404-28.797 7.952-28.796-7.952 8.36-2.404 20.436 5.918 20.622-5.918Z"/><path fill="#222" d="M342.771 270.92h-.185l-28.797-7.952c-.372-.185-.743-.555-.743-.925s.186-.74.743-.924l8.175-2.22h.557l20.25 5.733 20.251-5.733h.557l8.175 2.22c.371.184.743.554.743.924s-.186.74-.743.925l-28.797 7.952h-.186Zm-25.266-8.877 25.266 7.027 25.267-7.027-4.83-1.294-20.251 5.732h-.557l-20.251-5.732-4.644 1.294Z"/><path fill="#FF3158" d="m342.772 295.7 12.447 3.514v4.438l-12.447-3.329-12.262 3.329v-4.438l12.262-3.514Z"/><path fill="#222" d="M355.219 304.577h-.186l-12.076-3.329-12.076 3.329c-.371 0-.557 0-.743-.185-.186-.185-.371-.37-.371-.74v-4.623c0-.37.185-.74.743-.925l12.262-3.513h.557l12.262 3.513c.371.185.743.555.743.925v4.623c0 .37-.186.555-.372.74-.371.185-.557.185-.743.185Zm-23.78-4.808v2.589l11.147-3.144h.557l11.147 3.144v-2.589l-11.333-3.144-11.518 3.144Z"/><path fill="#FF3158" d="M306.172 122.793H103.667v131.299h202.505V122.793Z"/><path fill="#222" d="M307.658 255.571H102.181V121.498h205.292v134.073h.185Zm-202.691-2.774h199.719V124.272H104.967v128.525Z"/><path fill="#fff" d="M204.92 232.639c24.317 0 44.031-19.622 44.031-43.828 0-24.205-19.714-43.828-44.031-43.828-24.318 0-44.031 19.623-44.031 43.828 0 24.206 19.713 43.828 44.031 43.828Z"/><path fill="#222" d="M228.514 188.627c0 .555-.186.925-.558 1.295l-32.326 22.006c-.186.185-.558.185-.743.185-.186 0-.372 0-.743-.185-.372-.185-.744-.74-.744-1.294v-44.013c0-.555.372-1.11.744-1.295.557-.185 1.114-.185 1.486 0l32.326 22.007c.186.37.558.739.558 1.294Z"/><path fill="#222" d="M204.921 144.614c-24.338 0-44.217 19.787-44.217 44.013 0 24.225 19.879 44.013 44.217 44.013 24.338 0 44.217-19.788 44.217-44.013 0-24.226-19.879-44.013-44.217-44.013Zm0 84.882c-22.666 0-41.244-18.308-41.244-41.054 0-22.746 18.392-41.054 41.244-41.054 22.851 0 41.244 18.308 41.244 41.054 0 22.746-18.578 41.054-41.244 41.054Z"/></svg>