<svg xmlns="http://www.w3.org/2000/svg" width="401" height="401" fill="none" viewBox="0 0 401 401"><path fill="#DADADA" d="m206.32 261.129-48.821 84.697h97.827l-49.006-84.697Z"/><path fill="#444" d="M343.352 65.845H38.775v227.092h304.577V65.845Z"/><path fill="#222" d="M254.772 348.23h-97.828c-.554 0-.924-.184-1.109-.739-.185-.37-.185-.925 0-1.48l48.821-84.697a1.388 1.388 0 0 1 2.404 0l49.006 84.697c.185.37.185.925 0 1.48-.185.555-.74.739-1.294.739Zm-95.423-2.773h93.019l-46.602-80.629-46.417 80.629Z"/><path fill="#fff" d="M363.14 74.721H48.946v228.572H363.14V74.721Z"/><path fill="#222" d="M362.955 304.588H48.946c-.74 0-1.48-.555-1.48-1.48V74.722c0-.74.556-1.48 1.48-1.48h314.009c.74 0 1.479.555 1.479 1.48v228.571c0 .74-.739 1.295-1.479 1.295Zm-312.714-2.774h311.234V76.016H50.241v225.798Z"/><path fill="#DADADA" d="M363.51 75.092H49.316v228.571H363.51V75.092Z"/><path fill="#fff" d="M343.352 92.845H68.549V284.8h274.803V92.845Z"/><path fill="#222" d="M343.352 286.28H68.549c-.74 0-1.48-.555-1.48-1.479V93.03c0-.74.555-1.48 1.48-1.48h274.803c.74 0 1.48.555 1.48 1.48v191.956c0 .739-.74 1.294-1.48 1.294Zm-273.509-2.774h272.03V94.324H69.843v189.182Z"/><path fill="#fff" d="M349.825 88.037H75.021v191.955h274.804V88.037Z"/><path fill="#222" d="M362.955 304.588H48.946c-.74 0-1.48-.555-1.48-1.48V74.722c0-.74.556-1.48 1.48-1.48h314.009c.74 0 1.479.555 1.479 1.48v228.571c0 .74-.739 1.295-1.479 1.295Zm-312.714-2.774h311.234V76.016H50.241v225.798Z"/><path fill="#222" d="M343.352 286.28H68.549c-.74 0-1.48-.555-1.48-1.479V93.03c0-.74.555-1.48 1.48-1.48h274.803c.74 0 1.48.555 1.48 1.48v191.956c0 .739-.74 1.294-1.48 1.294Zm-273.509-2.774h272.03V94.324H69.843v189.182Z"/><path fill="#F5F4F3" d="M325.414 184.014H175.252v80.444h150.162v-80.444Z"/><path fill="#DADADA" d="M322.456 215.452H204.471v12.76h117.985v-12.76ZM306.182 192.336H188.197v12.76h117.985v-12.76ZM334.476 235.979H216.491v12.761h117.985v-12.761ZM322.456 257.061H204.471v12.76h117.985v-12.76Z"/><path fill="#F5F4F3" d="M234.06 108.563H83.898v80.444H234.06v-80.444Z"/><path fill="#DADADA" d="M205.026 144.624H87.041v12.76h117.985v-12.76ZM221.115 167.74h-117.8v12.76h117.8v-12.76ZM193.006 124.098H75.021v12.76h117.985v-12.76ZM205.026 103.015H87.041v12.76h117.985v-12.76Z"/><path fill="#fff" d="M340.394 335.285c25.431 0 46.047-20.616 46.047-46.047 0-25.432-20.616-46.048-46.047-46.048-25.432 0-46.048 20.616-46.048 46.048 0 25.431 20.616 46.047 46.048 46.047Z"/><path fill="#222" d="M340.394 336.765c-26.26 0-47.527-21.267-47.527-47.527s21.267-47.527 47.527-47.527c26.259 0 47.526 21.267 47.526 47.527s-21.267 47.527-47.526 47.527Zm0-92.28c-24.596 0-44.753 20.158-44.753 44.753 0 24.596 20.157 44.753 44.753 44.753 24.595 0 44.752-20.157 44.752-44.753 0-24.595-19.972-44.753-44.752-44.753Z"/><path fill="#FF3158" d="m362.215 260.39-20.527 5.732-20.527-5.732-8.137 2.219v52.889l8.137 2.219 20.527-5.732 20.527 5.732 8.137-2.219v-52.889l-8.137-2.219Zm-8.137 39.574-12.205-3.513-12.205 3.513v-21.451l12.205 3.513 12.205-3.513v21.451Z"/><path fill="#222" d="M362.215 318.827h-.185l-20.157-5.733-20.157 5.733h-.555l-8.137-2.219c-.37-.185-.74-.555-.74-.925v-52.704c0-.37.185-.74.74-.925l8.137-2.219h.555l20.157 5.733 20.157-5.733h.555l8.322 2.219c.37.185.74.555.74.925v52.704c0 .37-.185.74-.74.925l-8.137 2.219h-.555Zm-20.527-7.582h.185l20.157 5.733 7.212-2.034v-51.41l-7.397-2.035-20.157 5.733h-.555l-20.157-5.733-7.212 2.035v51.41l7.212 2.034 20.157-5.733h.555Zm-12.205-10.541c-.185 0-.37 0-.555-.185-.185-.185-.37-.37-.37-.739v-21.452c0-.37.185-.555.37-.74.185-.185.555-.185.74-.185l12.02 3.329 12.02-3.329c.185 0 .555 0 .74.185.185.185.37.37.37.74v21.452c0 .369-.185.554-.37.739-.185.185-.555.185-.74.185l-12.02-3.329-12.02 3.329h-.185Zm.924-21.082v19.048l11.096-3.144h.555l11.096 3.144v-19.048l-11.096 3.144h-.555l-11.096-3.144Z"/><path fill="#FF3158" d="M341.688 270.745v11.096l-20.342-5.733v41.794l-8.322-2.404v-52.705l28.664 7.952Z"/><path fill="#222" d="M321.346 318.827h-.185l-8.137-2.219c-.37-.185-.74-.555-.74-.925v-52.705c0-.37.185-.554.37-.739.185-.185.555-.185.74-.185l28.664 7.952c.37.185.74.554.74.924v11.096c0 .37-.185.555-.37.74-.185.185-.555.185-.74.185l-19.232-5.363v40.499c0 .37-.185.555-.37.74-.37-.185-.555 0-.74 0Zm-7.397-3.884 6.287 1.85v-40.5c0-.37.185-.555.37-.74.185-.184.555-.184.74-.184l19.233 5.362v-9.246l-26.815-7.397v50.855h.185Z"/><path fill="#FF3158" d="m354.078 304.402-12.39-3.328v11.095l20.527 5.733v-41.794l-8.137 2.404v25.89Z"/><path fill="#222" d="M362.215 318.827h-.185l-20.527-5.733c-.37-.185-.74-.555-.74-.925v-11.095c0-.37.185-.555.37-.74.185-.185.555-.185.74-.185l11.096 3.144v-24.781c0-.369.185-.739.739-.924l8.137-2.219c.37 0 .555 0 .74.185.185.185.37.369.37.739v41.609c0 .37-.185.555-.37.74 0 0-.185.185-.37.185Zm-19.602-7.397 18.678 5.178v-39.205l-6.288 1.849v25.335c0 .37-.185.555-.37.74-.185.185-.555.185-.74.185l-11.095-3.144v9.062h-.185Z"/><path fill="#FF3158" d="m362.215 260.39 8.137 2.404-28.664 7.952-28.664-7.952 8.322-2.404 20.342 5.917 20.527-5.917Z"/><path fill="#222" d="M341.688 271.67h-.185l-28.664-7.952c-.37-.185-.739-.554-.739-.924s.184-.74.739-.925l8.137-2.219h.555l20.157 5.733 20.157-5.733h.555l8.137 2.219c.37.185.74.555.74.925s-.185.739-.74.924l-28.664 7.952h-.185Zm-25.15-8.876 25.15 7.027 25.15-7.027-4.808-1.295-20.157 5.733h-.555l-20.157-5.733-4.623 1.295Z"/><path fill="#FF3158" d="m341.688 296.451 12.39 3.513v4.439l-12.39-3.329-12.205 3.329v-4.439l12.205-3.513Z"/><path fill="#222" d="M354.078 305.327h-.185l-12.02-3.329-12.02 3.329c-.37 0-.555 0-.74-.185-.185-.185-.37-.37-.37-.74v-4.623c0-.37.185-.74.74-.925l12.205-3.513h.555l12.205 3.513c.37.185.74.555.74.925v4.623c0 .37-.185.555-.37.74-.37.185-.555.185-.74.185Zm-23.671-4.808v2.589l11.096-3.144h.555l11.096 3.144v-2.589l-11.281-3.144-11.466 3.144Z"/><path fill="#FF3158" d="M305.257 123.543H103.685v131.3h201.572v-131.3Z"/><path fill="#222" d="M306.737 256.322H102.206V122.249h204.346v134.073h.185Zm-201.757-2.774h198.798V125.022H104.98v128.526Z"/><path fill="#fff" d="M204.471 233.39c24.206 0 43.828-19.622 43.828-43.828 0-24.206-19.622-43.828-43.828-43.828-24.205 0-43.828 19.622-43.828 43.828 0 24.206 19.623 43.828 43.828 43.828Z"/><path fill="#222" d="M227.957 189.377c0 .555-.185.925-.555 1.295l-32.177 22.006c-.185.185-.555.185-.74.185-.185 0-.37 0-.74-.185s-.739-.74-.739-1.294v-44.013c0-.555.369-1.11.739-1.295.555-.185 1.11-.185 1.48 0l32.177 22.007c.185.37.555.739.555 1.294Z"/><path fill="#222" d="M204.471 145.364c-24.226 0-44.013 19.788-44.013 44.013 0 24.226 19.787 44.013 44.013 44.013s44.013-19.787 44.013-44.013c0-24.225-19.787-44.013-44.013-44.013Zm0 84.882c-22.561 0-41.054-18.307-41.054-41.054 0-22.746 18.308-41.054 41.054-41.054 22.746 0 41.054 18.308 41.054 41.054 0 22.747-18.493 41.054-41.054 41.054Z"/></svg>