<svg xmlns="http://www.w3.org/2000/svg" width="400" height="400" fill="none" viewBox="0 0 400 400"><path fill="#F5F4F3" d="M334.906 52.705H104.67V347.48h230.236V52.705Z"/><path fill="#444" d="M229.866 45.678c0-14.425-11.651-25.89-25.89-25.89-14.24 0-25.89 11.65-25.89 25.89h-26.26v39.944h104.3V45.678h-26.26Z"/><path fill="#222" d="M255.941 86.916H151.826c-.74 0-1.479-.554-1.479-1.479v-39.76c0-.74.554-1.479 1.479-1.479h24.78c.74-14.424 12.761-25.89 27.37-25.89 14.609 0 26.63 11.466 27.369 25.89h24.781c.739 0 1.479.555 1.479 1.48v39.944c-.185.74-.74 1.294-1.664 1.294Zm-102.82-2.773h101.525V47.157h-24.78c-.74 0-1.48-.555-1.48-1.48 0-13.5-11.095-24.595-24.595-24.595-13.5 0-24.596 11.096-24.596 24.596 0 .74-.554 1.479-1.479 1.479h-24.595v36.986Z"/><path fill="#DADADA" d="M308.09 75.45H81.368v292.742H308.09V75.451Z"/><path fill="#222" d="M308.09 369.487H81.368c-.74 0-1.48-.555-1.48-1.48V75.451c0-.74.555-1.48 1.48-1.48H308.09c.74 0 1.48.555 1.48 1.48v292.556c0 .74-.74 1.48-1.48 1.48Zm-225.427-2.774H306.61V76.745H82.663v289.968Z"/><path fill="#fff" d="M321.036 64.355H94.314v292.742h226.722V64.355Z"/><path fill="#222" d="M321.036 358.576H94.313c-.74 0-1.479-.555-1.479-1.479V64.54c0-.74.555-1.48 1.48-1.48h226.722c.739 0 1.479.555 1.479 1.48v292.742c0 .554-.74 1.294-1.479 1.294Zm-225.428-2.774h223.948V65.834H95.608v289.968Z"/><path fill="#fff" d="M233.564 42.349c0-14.425-11.65-25.89-25.89-25.89-14.239 0-25.89 11.65-25.89 25.89h-26.26v39.944h104.3V42.348h-26.26Z"/><path fill="#222" d="M259.824 83.587h-104.3c-.739 0-1.479-.554-1.479-1.479v-39.76c0-.74.555-1.479 1.479-1.479h24.781c.739-14.424 12.76-25.89 27.369-25.89s26.63 11.466 27.37 25.89h24.78c.74 0 1.479.555 1.479 1.48v39.944c-.185.74-.739 1.294-1.479 1.294Zm-102.82-2.773h101.525V43.643h-24.78c-.74 0-1.479-.555-1.479-1.48 0-13.5-11.096-24.595-24.596-24.595s-24.595 11.28-24.595 24.78c0 .74-.555 1.48-1.48 1.48h-24.595v36.986Z"/><path fill="#F5F4F3" d="M239.297 42.349c0-14.425-11.651-25.89-25.89-25.89s-25.89 11.65-25.89 25.89h-26.445v39.944h104.3V42.348h-26.075Z"/><path fill="#222" d="M259.824 83.587h-104.3c-.739 0-1.479-.554-1.479-1.479v-39.76c0-.74.555-1.479 1.479-1.479h24.781c.739-14.424 12.76-25.89 27.369-25.89s26.63 11.466 27.37 25.89h24.78c.74 0 1.479.555 1.479 1.48v39.944c-.185.74-.739 1.294-1.479 1.294Zm-102.82-2.773h101.525V43.643h-24.78c-.74 0-1.479-.555-1.479-1.48 0-13.5-11.096-24.595-24.596-24.595s-24.595 11.28-24.595 24.78c0 .74-.555 1.48-1.48 1.48h-24.595v36.986Z"/><path fill="#fff" d="M147.203 308.46h-34.027v23.116h34.027V308.46Z"/><path fill="#222" d="M148.497 332.871h-36.801v-25.89h36.801v25.89Zm-34.027-2.774h31.253v-20.342H114.47v20.342Z"/><path fill="#DADADA" d="M302.357 304.392H171.243v23.116h131.114v-23.116Z"/><path fill="#222" d="M295.515 332.871H164.031v-25.89h131.484v25.89Zm-128.71-2.774h125.936v-20.342H166.805v20.342Z"/><path fill="#fff" d="M147.203 272.214h-34.027v23.116h34.027v-23.116Z"/><path fill="#222" d="M148.497 296.81h-36.801v-25.89h36.801v25.89Zm-34.027-2.774h31.253v-20.342H114.47v20.342Z"/><path fill="#DADADA" d="M302.357 268.331H171.243v23.116h131.114v-23.116ZM154.046 304.392h-34.212v23.116h34.212v-23.116ZM154.046 268.331h-34.212v23.116h34.212v-23.116Z"/><path fill="#222" d="M295.515 296.81H164.031v-25.89h131.484v25.89Zm-128.71-2.774h125.936v-20.342H166.805v20.342ZM148.497 332.871h-36.801v-25.89h36.801v25.89Zm-34.027-2.774h31.253v-20.342H114.47v20.342ZM148.497 296.81h-36.801v-25.89h36.801v25.89Zm-34.027-2.774h31.253v-20.342H114.47v20.342Z"/><path fill="#F5F4F3" d="M200.462 263.338c47.186 0 85.437-38.251 85.437-85.437 0-47.185-38.251-85.437-85.437-85.437-47.185 0-85.437 38.252-85.437 85.437 0 47.186 38.252 85.437 85.437 85.437Z"/><path fill="#FF3158" d="M230.051 94.683c-5.363-1.294-11.096-2.034-16.644-2.219h-2.219v19.418h1.664c4.254.185 8.507.74 12.575 1.664 33.103 7.952 53.815 41.239 46.048 74.526-3.884 16.089-13.685 29.774-27.74 38.465-14.054 8.692-30.698 11.281-46.787 7.582-19.047-4.438-34.581-17.753-42.348-35.321l13.5-.74-26.445-40.684-22.007 43.273 14.61-.739c8.876 26.444 30.883 46.602 58.252 53.074 6.288 1.48 12.575 2.219 18.863 2.219 14.979 0 29.588-4.068 42.533-12.205 18.493-11.466 31.438-29.404 36.431-50.485 10.356-43.644-16.643-87.472-60.286-97.828Z"/><path fill="#222" d="M211.373 256.681c-6.473 0-12.945-.74-19.233-2.219-27.554-6.658-49.561-26.445-58.807-53.26l-13.5.74c-.555 0-.924-.185-1.294-.555-.185-.37-.37-.925 0-1.294l22.006-43.274c.185-.369.74-.739 1.11-.739.555 0 .924.185 1.294.554l26.445 40.685c.185.37.37.924 0 1.294-.185.37-.74.74-1.11.74l-11.465.555c7.952 16.273 22.931 28.479 40.499 32.732 15.719 3.699 31.993 1.11 45.677-7.397 13.685-8.507 23.301-21.822 27-37.541 3.699-15.719 1.11-31.992-7.397-45.677-8.507-13.685-21.822-23.301-37.541-27.184a68.85 68.85 0 0 0-12.39-1.665h-1.664c-.74 0-1.48-.555-1.48-1.479V92.464c0-.74.555-1.48 1.48-1.48h2.034a87.502 87.502 0 0 1 17.014 2.22h.184c21.452 5.178 39.575 18.308 51.041 36.986 11.65 18.862 15.164 41.054 10.171 62.505-4.993 21.452-18.308 39.76-36.986 51.411a80.279 80.279 0 0 1-43.088 12.575Zm-77.115-58.253c.554 0 1.109.37 1.294.925 8.877 26.26 30.328 45.862 57.328 52.15a80.654 80.654 0 0 0 60.471-9.802c18.123-11.28 30.884-28.848 35.877-49.56 4.993-20.712 1.479-42.164-9.802-60.472-11.28-18.123-28.848-30.883-49.56-35.876h-.185c-5.178-1.294-10.726-1.85-16.089-2.034h-.74v16.643h.185a77.5 77.5 0 0 1 12.945 1.665c16.459 3.883 30.328 13.869 39.205 28.294 8.876 14.424 11.65 31.438 7.767 47.711-3.884 16.459-13.87 30.328-28.294 39.205-14.425 8.877-31.253 11.651-47.712 7.767-19.232-4.623-35.321-17.938-43.273-36.061-.185-.37-.185-.925 0-1.294.185-.37.74-.555 1.11-.74l11.095-.555-24.04-36.246-19.788 39.02 12.206-.74Z"/><path fill="#FF3158" d="M214.147 172.723v-39.02h-16.088v55.109h49.745v-16.089h-33.657Z"/><path fill="#222" d="M247.804 190.106h-49.745c-.74 0-1.48-.555-1.48-1.479v-54.924c0-.74.555-1.479 1.48-1.479h16.088c.74 0 1.48.554 1.48 1.479v37.541h32.177c.74 0 1.48.554 1.48 1.479v16.089c-.185.739-.74 1.294-1.48 1.294Zm-48.266-2.774h46.972v-13.315h-32.178c-.739 0-1.479-.554-1.479-1.479v-37.54h-13.315v52.334Z"/></svg>