<svg xmlns="http://www.w3.org/2000/svg" width="401" height="400" fill="none" viewBox="0 0 401 400"><path fill="#F5F4F3" d="M335.401 52.705H105.165V347.48h230.236V52.705Z"/><path fill="#444" d="M230.361 45.678c0-14.425-11.65-25.89-25.89-25.89-14.239 0-25.89 11.65-25.89 25.89h-26.26v39.944h104.3V45.678h-26.26Z"/><path fill="#222" d="M256.436 86.916H152.321c-.739 0-1.479-.554-1.479-1.479v-39.76c0-.74.555-1.479 1.479-1.479h24.781c.74-14.424 12.76-25.89 27.369-25.89 14.61 0 26.63 11.466 27.37 25.89h24.78c.74 0 1.479.555 1.479 1.48v39.944c-.184.74-.739 1.294-1.664 1.294Zm-102.82-2.773h101.526V47.157h-24.781c-.739 0-1.479-.555-1.479-1.48 0-13.5-11.096-24.595-24.596-24.595-13.499 0-24.595 11.096-24.595 24.596 0 .74-.555 1.479-1.48 1.479h-24.595v36.986Z"/><path fill="#444" d="M308.586 75.45H81.864v292.742h226.722V75.451Z"/><path fill="#222" d="M308.586 369.487H81.864c-.74 0-1.48-.555-1.48-1.48V75.451c0-.74.555-1.48 1.48-1.48h226.722c.74 0 1.479.555 1.479 1.48v292.556c0 .74-.739 1.48-1.479 1.48Zm-225.428-2.774h223.949V76.745H83.158v289.968Z"/><path fill="#fff" d="M321.531 64.355H94.809v292.742H321.53V64.355Z"/><path fill="#222" d="M321.531 358.576H94.809c-.74 0-1.48-.555-1.48-1.479V64.54c0-.74.555-1.48 1.48-1.48H321.53c.74 0 1.479.555 1.479 1.48v292.742c0 .554-.739 1.294-1.479 1.294Zm-225.428-2.774h223.948V65.834H96.103v289.968Z"/><path fill="#fff" d="M234.06 42.349c0-14.425-11.651-25.89-25.89-25.89-14.24 0-25.89 11.65-25.89 25.89h-26.26v39.944h104.3V42.348h-26.26Z"/><path fill="#222" d="M260.32 83.587h-104.3c-.74 0-1.479-.554-1.479-1.479v-39.76c0-.74.554-1.479 1.479-1.479h24.78c.74-14.424 12.761-25.89 27.37-25.89 14.609 0 26.63 11.466 27.369 25.89h24.781c.739 0 1.479.555 1.479 1.48v39.944c-.185.74-.74 1.294-1.479 1.294ZM157.5 80.814h101.525V43.643h-24.78c-.74 0-1.48-.555-1.48-1.48 0-13.5-11.095-24.595-24.595-24.595-13.5 0-24.596 11.28-24.596 24.78 0 .74-.554 1.48-1.479 1.48H157.5v36.986Z"/><path fill="#F5F4F3" d="M239.793 42.349c0-14.425-11.651-25.89-25.89-25.89-14.24 0-25.89 11.65-25.89 25.89h-26.445v39.944h104.3V42.348h-26.075Z"/><path fill="#222" d="M260.32 83.587h-104.3c-.74 0-1.479-.554-1.479-1.479v-39.76c0-.74.554-1.479 1.479-1.479h24.78c.74-14.424 12.761-25.89 27.37-25.89 14.609 0 26.63 11.466 27.369 25.89h24.781c.739 0 1.479.555 1.479 1.48v39.944c-.185.74-.74 1.294-1.479 1.294ZM157.5 80.814h101.525V43.643h-24.78c-.74 0-1.48-.555-1.48-1.48 0-13.5-11.095-24.595-24.595-24.595-13.5 0-24.596 11.28-24.596 24.78 0 .74-.554 1.48-1.479 1.48H157.5v36.986Z"/><path fill="#fff" d="M147.698 308.46h-34.026v23.116h34.026V308.46Z"/><path fill="#222" d="M148.993 332.871h-36.801v-25.89h36.801v25.89Zm-34.027-2.774h31.253v-20.342h-31.253v20.342Z"/><path fill="#DADADA" d="M302.853 304.392H171.739v23.116h131.114v-23.116Z"/><path fill="#222" d="M296.011 332.871H164.527v-25.89h131.484v25.89Zm-128.71-2.774h125.936v-20.342H167.301v20.342Z"/><path fill="#fff" d="M147.698 272.214h-34.026v23.116h34.026v-23.116Z"/><path fill="#222" d="M148.993 296.81h-36.801v-25.89h36.801v25.89Zm-34.027-2.774h31.253v-20.342h-31.253v20.342Z"/><path fill="#DADADA" d="M302.853 268.331H171.739v23.116h131.114v-23.116ZM154.541 304.392h-34.212v23.116h34.212v-23.116ZM154.541 268.331h-34.212v23.116h34.212v-23.116Z"/><path fill="#222" d="M296.011 296.81H164.527v-25.89h131.484v25.89Zm-128.71-2.774h125.936v-20.342H167.301v20.342ZM148.993 332.871h-36.801v-25.89h36.801v25.89Zm-34.027-2.774h31.253v-20.342h-31.253v20.342ZM148.993 296.81h-36.801v-25.89h36.801v25.89Zm-34.027-2.774h31.253v-20.342h-31.253v20.342Z"/><path fill="#F5F4F3" d="M200.958 263.338c47.185 0 85.437-38.251 85.437-85.437 0-47.185-38.252-85.437-85.437-85.437-47.186 0-85.437 38.252-85.437 85.437 0 47.186 38.251 85.437 85.437 85.437Z"/><path fill="#FF3158" d="M230.546 94.683c-5.363-1.294-11.095-2.034-16.643-2.219h-2.219v19.418h1.664a71 71 0 0 1 12.575 1.664c33.102 7.952 53.814 41.239 46.047 74.526-3.883 16.089-13.684 29.774-27.739 38.465-14.055 8.692-30.698 11.281-46.787 7.582-19.048-4.438-34.582-17.753-42.348-35.321l13.499-.74-26.444-40.684-22.007 43.273 14.609-.739c8.877 26.444 30.883 46.602 58.253 53.074 6.287 1.48 12.575 2.219 18.863 2.219 14.979 0 29.588-4.068 42.533-12.205 18.493-11.466 31.438-29.404 36.431-50.485 10.356-43.644-16.644-87.472-60.287-97.828Z"/><path fill="#222" d="M211.868 256.681c-6.472 0-12.944-.74-19.232-2.219-27.554-6.658-49.561-26.445-58.807-53.26l-13.5.74c-.555 0-.925-.185-1.295-.555-.184-.37-.369-.925 0-1.294l22.007-43.274c.185-.369.74-.739 1.11-.739.554 0 .924.185 1.294.554l26.445 40.685c.185.37.37.924 0 1.294-.185.37-.74.74-1.11.74l-11.465.555c7.952 16.273 22.931 28.479 40.499 32.732 15.719 3.699 31.993 1.11 45.677-7.397 13.685-8.507 23.301-21.822 27-37.541 3.698-15.719 1.109-31.992-7.397-45.677-8.507-13.685-21.822-23.301-37.541-27.184a68.863 68.863 0 0 0-12.39-1.665h-1.664c-.74 0-1.48-.555-1.48-1.479V92.464c0-.74.555-1.48 1.48-1.48h2.034a87.492 87.492 0 0 1 17.013 2.22h.185c21.452 5.178 39.575 18.308 51.04 36.986 11.651 18.862 15.165 41.054 10.171 62.505-4.993 21.452-18.307 39.76-36.985 51.411a80.28 80.28 0 0 1-43.089 12.575Zm-77.115-58.253c.555 0 1.11.37 1.295.925 8.876 26.26 30.328 45.862 57.328 52.15a80.655 80.655 0 0 0 60.471-9.802c18.123-11.28 30.883-28.848 35.876-49.56 4.993-20.712 1.48-42.164-9.801-60.472-11.281-18.123-28.849-30.883-49.561-35.876h-.185c-5.178-1.294-10.725-1.85-16.088-2.034h-.74v16.643h.185c4.253.185 8.691.74 12.945 1.665 16.458 3.883 30.328 13.869 39.205 28.294 8.876 14.424 11.65 31.438 7.767 47.711-3.884 16.459-13.87 30.328-28.294 39.205-14.425 8.877-31.253 11.651-47.712 7.767-19.232-4.623-35.321-17.938-43.273-36.061-.185-.37-.185-.925 0-1.294.185-.37.74-.555 1.109-.74l11.096-.555-24.041-36.246-19.787 39.02 12.205-.74Z"/><path fill="#FF3158" d="M214.642 172.723v-39.02h-16.088v55.109h49.745v-16.089h-33.657Z"/><path fill="#222" d="M248.299 190.106h-49.745c-.74 0-1.48-.555-1.48-1.479v-54.924c0-.74.555-1.479 1.48-1.479h16.088c.74 0 1.48.554 1.48 1.479v37.541h32.177c.74 0 1.48.554 1.48 1.479v16.089c-.185.739-.74 1.294-1.48 1.294Zm-48.266-2.774h46.972v-13.315h-32.178c-.739 0-1.479-.554-1.479-1.479v-37.54h-13.315v52.334Z"/></svg>