<svg xmlns="http://www.w3.org/2000/svg" width="400" height="401" fill="none" viewBox="0 0 400 401"><path fill="#fff" d="M293.815 212.334H279.58c-2.76 0-4.945-2.585-4.585-5.415l7.51-58.6c.37-2.89 2.7-5.005 5.52-5.005h14.01c2.76 0 4.945 2.585 4.585 5.415l-7.54 58.835c-.355 2.755-2.58 4.775-5.265 4.775v-.005Z"/><path fill="#DADADA" d="M305.304 139.839h-14.01c-2.82 0-5.15 2.115-5.52 5.005l-7.51 58.6c-.365 2.83 1.825 5.415 4.585 5.415h14.235c2.69 0 4.915-2.015 5.265-4.775l7.54-58.835c.365-2.83-1.825-5.415-4.585-5.415v.005Zm-5.13 34.81c-1.11 9.19-4.06 14.46-8.095 14.46-1.225 0-2.31-.5-3.145-1.44-2.45-2.76-2.305-8.785-1.75-13.35 1.11-9.19 4.06-14.46 8.1-14.46 1.22 0 2.31.5 3.145 1.44 2.45 2.76 2.305 8.785 1.75 13.35h-.005Z"/><path fill="#222" d="M255.815 279.164H64.12a1.38 1.38 0 0 1-1.38-1.385c0-.765.62-1.385 1.38-1.385h191.695c.765 0 1.38.62 1.38 1.385s-.62 1.385-1.38 1.385Z"/><path fill="#444" d="M280.745 220.009h10.12l2.105-7.675h-11.855l-.37 7.675Z"/><path fill="#222" d="M290.86 221.389h-10.115c-.38 0-.74-.155-1-.43s-.4-.64-.38-1.02l.365-7.67a1.384 1.384 0 0 1 1.38-1.315h11.855c.43 0 .84.2 1.1.545.26.345.35.79.235 1.205l-2.105 7.67c-.165.6-.71 1.015-1.335 1.015Zm-8.665-2.765h7.61l1.35-4.905h-8.725l-.235 4.905Z"/><path fill="#222" d="M293.809 213.719h-14.235c-1.68 0-3.295-.745-4.44-2.045a6.255 6.255 0 0 1-1.515-4.925l7.51-58.605c.46-3.6 3.36-6.21 6.89-6.21h14.01c1.68 0 3.295.745 4.44 2.045a6.255 6.255 0 0 1 1.515 4.925l-7.54 58.835c-.445 3.465-3.235 5.98-6.635 5.98Zm-5.785-69.02c-2.125 0-3.87 1.595-4.15 3.8l-7.51 58.6c-.125.99.185 1.99.85 2.75.625.715 1.465 1.105 2.365 1.105h14.235c1.99 0 3.63-1.5 3.895-3.565l7.54-58.835a3.511 3.511 0 0 0-.85-2.75c-.625-.715-1.465-1.105-2.365-1.105h-14.01Z"/><path fill="#444" d="M294.09 226.889h-7.13l.925-5.545h-4.48l-.93 5.545h-7.495l-39.62 97.31h4.48l37.105-92.935h4.8l-15.57 92.935h4.485l15.565-92.935h4.49l35.23 92.935h4.48l-36.335-97.31Z"/><path fill="#444" d="M330.425 325.579h-4.48c-.575 0-1.09-.355-1.29-.895l-34.895-92.04h-2.365l-15.375 91.78a1.385 1.385 0 0 1-1.365 1.155h-4.48c-.405 0-.79-.18-1.055-.49a1.38 1.38 0 0 1-.31-1.12l15.295-91.32h-2.23l-36.76 92.065c-.21.525-.72.87-1.285.87h-4.48c-.46 0-.89-.23-1.145-.61a1.4 1.4 0 0 1-.135-1.295l39.62-97.31c.21-.52.72-.86 1.28-.86h6.33l.735-4.39c.11-.665.69-1.155 1.365-1.155h4.48c.405 0 .79.18 1.055.49.265.31.375.72.31 1.12l-.66 3.93h5.5c.575 0 1.095.36 1.295.9l36.335 97.31c.16.425.1.9-.16 1.27s-.685.595-1.135.595h.005Zm-3.525-2.765h1.535l-35.305-94.545h-6.175c-.405 0-.79-.18-1.055-.49a1.38 1.38 0 0 1-.31-1.12l.66-3.93h-1.675l-.735 4.39a1.385 1.385 0 0 1-1.365 1.155h-6.57l-38.495 94.545h1.49l36.76-92.065c.21-.525.72-.87 1.285-.87h4.8c.405 0 .79.18 1.055.49.265.31.375.72.31 1.12l-15.295 91.32h1.675l15.375-91.78c.11-.665.69-1.155 1.365-1.155h4.49c.575 0 1.09.355 1.29.895l34.895 92.04h-.005Z"/><path fill="#222" d="M295.419 178.651c1.035-7.303-.377-13.542-3.155-13.936-2.778-.394-5.869 5.207-6.905 12.51-1.035 7.302.377 13.542 3.155 13.935 2.778.394 5.869-5.206 6.905-12.509Z"/><path fill="#222" d="M288.806 192.584c-1.225 0-2.31-.5-3.145-1.44-2.45-2.76-2.305-8.785-1.75-13.35 1.11-9.19 4.065-14.46 8.1-14.46 1.225 0 2.31.5 3.145 1.44 2.45 2.76 2.305 8.785 1.75 13.35-1.11 9.19-4.065 14.46-8.1 14.46Zm3.205-26.485c-2.33 0-4.485 4.835-5.355 12.025-.78 6.47.04 10.02 1.075 11.185.31.35.645.51 1.075.51 2.33 0 4.485-4.835 5.355-12.025.785-6.47-.04-10.02-1.075-11.185-.31-.35-.645-.51-1.075-.51Z"/><path fill="#fff" d="M202.14 86.429H89.67v191.355h112.47V86.429Z"/><path fill="#222" d="M202.135 279.164H89.67a1.38 1.38 0 0 1-1.38-1.385V86.429c0-.765.62-1.385 1.38-1.385h112.47c.765 0 1.38.62 1.38 1.385v191.355c0 .765-.62 1.385-1.38 1.385l-.005-.005ZM91.05 276.399h109.705V87.809H91.05v188.59Z"/><path fill="#222" d="M202.135 94.88H89.67a1.38 1.38 0 0 1-1.38-1.386c0-.765.62-1.385 1.38-1.385h112.47c.765 0 1.38.62 1.38 1.385s-.62 1.385-1.38 1.385h-.005ZM202.135 217.679H89.67a1.38 1.38 0 0 1-1.38-1.385c0-.765.62-1.385 1.38-1.385h112.47c.765 0 1.38.62 1.38 1.385s-.62 1.385-1.38 1.385h-.005Z"/><path fill="#FF3158" d="M210.295 97.193v172.875h19.44l60.695-88.7.875-7.22-81.01-76.955Z"/><path fill="#222" d="M229.735 271.449h-19.44a1.38 1.38 0 0 1-1.38-1.385V97.194c0-.555.33-1.05.835-1.27.51-.22 1.095-.11 1.5.27l81.01 76.96c.315.3.475.735.42 1.17l-.875 7.215c-.025.22-.105.43-.23.615l-60.695 88.7c-.26.375-.685.6-1.14.6l-.005-.005Zm-18.06-2.765h17.33l60.095-87.82.75-6.19-78.175-74.26v168.275-.005Z"/><path fill="#DADADA" d="M89.665 117.804H78.17v4.595h11.495v-4.595Z"/><path fill="#222" d="M89.67 123.784h-11.5a1.38 1.38 0 0 1-1.38-1.385v-4.595c0-.765.62-1.385 1.38-1.385h11.5c.765 0 1.38.62 1.38 1.385v4.595c0 .765-.62 1.385-1.38 1.385Zm-10.115-2.765h8.735v-1.83h-8.735v1.83Z"/><path fill="#FF3158" d="M64.12 135.434c8.13 0 14.72-6.59 14.72-14.72 0-8.129-6.59-14.72-14.72-14.72s-14.72 6.591-14.72 14.72c0 8.13 6.59 14.72 14.72 14.72Z"/><path fill="#222" d="M64.12 136.814c-8.88 0-16.1-7.225-16.1-16.1 0-8.875 7.225-16.1 16.1-16.1 8.876 0 16.1 7.225 16.1 16.1 0 8.875-7.22 16.1-16.1 16.1Zm0-29.435c-7.355 0-13.335 5.98-13.335 13.335s5.98 13.335 13.336 13.335c7.355 0 13.335-5.98 13.335-13.335s-5.98-13.335-13.335-13.335ZM164.65 242.104h-18.745a1.38 1.38 0 0 1-1.38-1.385c0-.765.62-1.385 1.38-1.385h18.745c.765 0 1.38.62 1.38 1.385s-.62 1.385-1.38 1.385Z"/><path fill="#222" d="M145.905 279.164a1.38 1.38 0 0 1-1.38-1.385v-35.68h-15.98v35.68c0 .765-.62 1.385-1.38 1.385-.76 0-1.38-.62-1.38-1.385v-37.06c0-.765.62-1.385 1.38-1.385h18.745c.765 0 1.38.62 1.38 1.385v37.06c0 .765-.62 1.385-1.38 1.385h-.005Z"/><path fill="#222" d="M164.65 279.164a1.38 1.38 0 0 1-1.38-1.385v-35.68h-15.98v35.68c0 .765-.62 1.385-1.38 1.385-.76 0-1.38-.62-1.38-1.385v-37.06c0-.765.62-1.385 1.38-1.385h18.745c.765 0 1.38.62 1.38 1.385v37.06c0 .765-.62 1.385-1.38 1.385h-.005ZM109.794 93.499h-2.765v122.8h2.765v-122.8ZM128.54 93.499h-2.765v122.8h2.765v-122.8ZM147.285 93.499h-2.765v122.8h2.765v-122.8ZM184.775 93.499h-2.765v122.8h2.765v-122.8ZM166.031 93.499h-2.765v122.8h2.765v-122.8Z"/><path fill="#444" d="M345.974 143.314h-44.575.635c2.76 0 4.945 2.585 4.585 5.415l-7.54 58.835c-.355 2.755-2.58 4.775-5.265 4.775h44.835c2.17 0 3.965-1.63 4.25-3.855l7.655-59.755c.365-2.83-1.825-5.415-4.585-5.415h.005Z"/><path fill="#222" d="M338.65 213.72h-44.835a1.38 1.38 0 0 1-1.38-1.385c0-.765.62-1.385 1.38-1.385 1.99 0 3.63-1.5 3.895-3.565l7.54-58.835a3.511 3.511 0 0 0-.85-2.75c-.625-.715-1.465-1.105-2.365-1.105h-.635a1.38 1.38 0 0 1-1.38-1.385c0-.765.62-1.385 1.38-1.385h44.575c1.68 0 3.295.745 4.44 2.045a6.255 6.255 0 0 1 1.515 4.925l-7.655 59.755c-.375 2.935-2.74 5.06-5.625 5.06v.01Zm-39.45-2.765h39.45c1.47 0 2.685-1.115 2.88-2.65l7.655-59.755a3.511 3.511 0 0 0-.85-2.75c-.625-.715-1.465-1.105-2.365-1.105h-38.955a6.26 6.26 0 0 1 .965 4.205l-7.54 58.835a7.006 7.006 0 0 1-1.25 3.215l.01.005Z"/></svg>