<svg xmlns="http://www.w3.org/2000/svg" width="401" height="400" fill="none" viewBox="0 0 401 400"><path fill="#fff" d="M278.851 194.71h-14.235c-2.76 0-4.945-2.585-4.585-5.415l7.51-58.6c.37-2.89 2.7-5.005 5.52-5.005h14.01c2.76 0 4.945 2.585 4.585 5.415l-7.54 58.835c-.355 2.755-2.58 4.775-5.265 4.775v-.005Z"/><path fill="#DADADA" d="m321.236 289.275 4.75 12.72c.16.425.1.9-.16 1.275-.26.375-.685.595-1.135.595h-4.48c-.575 0-1.09-.355-1.29-.895l-5.19-13.69h-45.19l-2.25 13.43a1.385 1.385 0 0 1-1.365 1.155h-4.48a1.382 1.382 0 0 1-1.365-1.61l2.175-12.975h-20.39l-5.475 13.715c-.21.525-.72.87-1.285.87h-4.48c-.46 0-.89-.23-1.145-.61a1.404 1.404 0 0 1-.135-1.295l5.165-12.68h-37.875l-28.72 35.63h171.635l28.715-35.63h-46.025l-.005-.005ZM290.342 122.215h-14.01c-2.82 0-5.15 2.115-5.52 5.005l-7.51 58.6c-.365 2.83 1.825 5.415 4.585 5.415h14.235c2.69 0 4.915-2.015 5.265-4.775l7.54-58.835c.365-2.83-1.825-5.415-4.585-5.415v.005Zm-5.13 34.81c-1.11 9.19-4.06 14.46-8.095 14.46-1.225 0-2.31-.5-3.145-1.44-2.45-2.76-2.305-8.785-1.75-13.35 1.11-9.19 4.06-14.46 8.1-14.46 1.22 0 2.31.5 3.145 1.44 2.45 2.76 2.305 8.785 1.75 13.35h-.005Z"/><path fill="#444" d="M265.786 202.385h10.115l2.105-7.675h-11.855l-.365 7.675Z"/><path fill="#222" d="M275.901 203.765h-10.115c-.38 0-.74-.155-1-.43s-.4-.64-.38-1.02l.365-7.67a1.384 1.384 0 0 1 1.38-1.315h11.855c.43 0 .84.2 1.1.545.26.345.35.79.235 1.205l-2.105 7.67c-.165.6-.71 1.015-1.335 1.015ZM267.236 201h7.615l1.35-4.905h-8.725l-.235 4.905h-.005Z"/><path fill="#222" d="M278.851 196.095h-14.235c-1.68 0-3.295-.745-4.44-2.045a6.255 6.255 0 0 1-1.515-4.925l7.51-58.6c.46-3.6 3.36-6.21 6.89-6.21h14.01c1.68 0 3.295.745 4.44 2.045a6.255 6.255 0 0 1 1.515 4.925l-7.54 58.835c-.445 3.465-3.235 5.98-6.635 5.98v-.005Zm-5.79-69.02c-2.12 0-3.865 1.595-4.15 3.8l-7.51 58.6c-.125.99.18 1.99.85 2.75.625.715 1.465 1.105 2.365 1.105h14.235c1.99 0 3.63-1.5 3.895-3.565l7.54-58.835c.125-.99-.18-1.99-.85-2.75-.625-.715-1.465-1.105-2.365-1.105h-14.01Z"/><path fill="#444" d="M279.131 209.265h-7.135l.93-5.545h-4.48l-.93 5.545h-7.5l-39.62 97.31h4.48l37.105-92.935h4.8l-15.565 92.935h4.48l15.565-92.935h4.49l35.23 92.935h4.485l-36.335-97.31Z"/><path fill="#444" d="M315.467 307.955h-4.48c-.575 0-1.09-.355-1.295-.895l-34.895-92.04h-2.365l-15.375 91.78a1.385 1.385 0 0 1-1.365 1.155h-4.48c-.405 0-.79-.18-1.055-.49a1.38 1.38 0 0 1-.31-1.12l15.295-91.32h-2.23l-36.76 92.065c-.21.525-.72.87-1.285.87h-4.48c-.46 0-.89-.23-1.145-.61a1.4 1.4 0 0 1-.135-1.295l39.62-97.31c.21-.52.72-.86 1.28-.86h6.33l.735-4.39c.11-.665.69-1.155 1.365-1.155h4.48c.405 0 .79.18 1.055.49.265.31.375.72.31 1.12l-.66 3.93h5.5c.575 0 1.095.36 1.295.9l36.335 97.31c.16.425.1.9-.16 1.27s-.685.595-1.135.595h.01Zm-3.525-2.765h1.535l-35.305-94.545h-6.175c-.405 0-.79-.18-1.055-.49a1.38 1.38 0 0 1-.31-1.12l.66-3.93h-1.675l-.735 4.39a1.385 1.385 0 0 1-1.365 1.155h-6.57l-38.495 94.545h1.49l36.76-92.065c.21-.525.72-.87 1.285-.87h4.8c.405 0 .79.18 1.055.49.265.31.375.72.31 1.12l-15.295 91.32h1.675l15.375-91.78c.11-.665.69-1.155 1.365-1.155h4.49c.575 0 1.09.355 1.295.895l34.895 92.04h-.01Z"/><path fill="#222" d="M280.457 161.031c1.035-7.303-.377-13.542-3.155-13.936-2.778-.394-5.869 5.207-6.905 12.509-1.035 7.303.377 13.542 3.155 13.936 2.778.394 5.869-5.207 6.905-12.509Z"/><path fill="#222" d="M273.847 174.96c-1.225 0-2.31-.5-3.145-1.44-2.45-2.76-2.305-8.785-1.75-13.35 1.11-9.19 4.065-14.46 8.1-14.46 1.225 0 2.31.5 3.145 1.44 2.45 2.76 2.305 8.785 1.75 13.35-1.11 9.19-4.065 14.46-8.1 14.46Zm3.205-26.485c-2.33 0-4.485 4.835-5.355 12.025-.785 6.47.04 10.02 1.075 11.185.31.35.645.51 1.075.51 2.33 0 4.485-4.835 5.355-12.025.785-6.47-.04-10.02-1.075-11.185-.31-.35-.645-.51-1.075-.51Z"/><path fill="#fff" d="M187.176 68.805H74.706V260.16h112.47V68.805Z"/><path fill="#222" d="M187.176 261.54H74.706c-.765 0-1.385-.62-1.385-1.385V68.805c0-.765.62-1.385 1.385-1.385h112.47c.765 0 1.385.62 1.385 1.385V260.16c0 .765-.62 1.385-1.385 1.385v-.005Zm-111.085-2.765h109.705V70.185H76.091v188.59Z"/><path fill="#222" d="M187.176 77.255H74.706a1.385 1.385 0 1 1 0-2.77h112.47a1.385 1.385 0 1 1 0 2.77ZM187.176 200.055H74.706a1.385 1.385 0 1 1 0-2.77h112.47a1.385 1.385 0 1 1 0 2.77Z"/><path fill="#FF3158" d="M195.331 79.57v172.875h19.44l60.7-88.7.87-7.22-81.01-76.955Z"/><path fill="#222" d="M214.771 253.825h-19.44c-.765 0-1.385-.62-1.385-1.385V79.57c0-.555.33-1.05.835-1.27a1.376 1.376 0 0 1 1.5.27l81.01 76.96c.315.3.475.735.42 1.17l-.875 7.215c-.025.22-.105.43-.23.615l-60.695 88.7c-.26.375-.685.6-1.14.6v-.005Zm-18.06-2.765h17.33l60.095-87.82.75-6.19-78.175-74.26v168.27Z"/><path fill="#DADADA" d="M74.706 100.18H63.21v4.595h11.495v-4.595Z"/><path fill="#222" d="M74.706 106.16H63.211c-.765 0-1.385-.62-1.385-1.385v-4.595c0-.765.62-1.385 1.385-1.385h11.495c.765 0 1.385.62 1.385 1.385v4.595c0 .765-.62 1.385-1.385 1.385Zm-10.115-2.765h8.73v-1.83h-8.73v1.83Z"/><path fill="#FF3158" d="M49.161 117.81c8.13 0 14.72-6.59 14.72-14.72s-6.59-14.72-14.72-14.72-14.72 6.59-14.72 14.72 6.59 14.72 14.72 14.72Z"/><path fill="#222" d="M49.161 119.19c-8.88 0-16.1-7.225-16.1-16.1 0-8.875 7.225-16.1 16.1-16.1 8.875 0 16.1 7.225 16.1 16.1 0 8.875-7.224 16.1-16.1 16.1Zm0-29.435c-7.355 0-13.334 5.98-13.334 13.335s5.98 13.335 13.334 13.335c7.355 0 13.335-5.98 13.335-13.335s-5.98-13.335-13.335-13.335ZM149.687 224.48h-18.745a1.385 1.385 0 1 1 0-2.77h18.745a1.385 1.385 0 1 1 0 2.77Z"/><path fill="#222" d="M130.942 261.54c-.765 0-1.385-.62-1.385-1.385v-35.68h-15.98v35.68a1.385 1.385 0 1 1-2.77 0v-37.06c0-.765.62-1.385 1.385-1.385h18.745c.765 0 1.385.62 1.385 1.385v37.06c0 .765-.62 1.385-1.385 1.385h.005Z"/><path fill="#222" d="M149.687 261.54c-.765 0-1.385-.62-1.385-1.385v-35.68h-15.98v35.68a1.385 1.385 0 1 1-2.77 0v-37.06c0-.765.62-1.385 1.385-1.385h18.745c.765 0 1.385.62 1.385 1.385v37.06c0 .765-.62 1.385-1.385 1.385h.005ZM94.831 75.875h-2.765v122.8h2.765v-122.8ZM113.577 75.875h-2.765v122.8h2.765v-122.8ZM132.322 75.875h-2.765v122.8h2.765v-122.8ZM169.812 75.875h-2.765v122.8h2.765v-122.8ZM151.067 75.875h-2.765v122.8h2.765v-122.8Z"/><path fill="#222" d="M328.976 330.71h-171.63a1.382 1.382 0 0 1-1.075-2.25l28.72-35.63c.26-.325.66-.515 1.075-.515h171.635a1.382 1.382 0 0 1 1.075 2.25l-28.72 35.63c-.26.325-.66.515-1.075.515h-.005Zm-168.745-2.765h168.085l26.49-32.865H186.721l-26.49 32.865Z" style="mix-blend-mode:multiply"/><path fill="#444" d="M331.012 125.689h-44.575.635c2.76 0 4.945 2.585 4.585 5.415l-7.54 58.835c-.355 2.755-2.58 4.775-5.265 4.775h44.835c2.17 0 3.965-1.63 4.25-3.855l7.655-59.755c.365-2.83-1.825-5.415-4.585-5.415h.005Z"/><path fill="#222" d="M323.687 196.095h-44.835a1.385 1.385 0 1 1 0-2.77c1.99 0 3.63-1.5 3.895-3.565l7.54-58.835c.125-.99-.18-1.99-.85-2.75-.625-.715-1.465-1.105-2.365-1.105h-.635a1.385 1.385 0 1 1 0-2.77h44.575c1.68 0 3.295.745 4.44 2.045a6.255 6.255 0 0 1 1.515 4.925l-7.655 59.755c-.375 2.935-2.74 5.06-5.625 5.06v.01Zm-39.45-2.765h39.45c1.47 0 2.685-1.115 2.88-2.65l7.655-59.755c.125-.99-.18-1.99-.85-2.75-.625-.715-1.465-1.105-2.365-1.105h-38.955a6.292 6.292 0 0 1 .97 4.205l-7.54 58.835a7.006 7.006 0 0 1-1.25 3.215l.005.005Z"/><path fill="#DADADA" d="M229.936 261.5H49.161a1.345 1.345 0 0 1 0-2.69h180.775a1.345 1.345 0 0 1 0 2.69Z"/></svg>