<svg xmlns="http://www.w3.org/2000/svg" width="400" height="401" fill="none" viewBox="0 0 400 401"><path fill="#F5F4F3" d="M297.92 84.522H197.134l24.965 67.129h100.786L297.92 84.522Z"/><path fill="#222" d="M313.638 159.049H212.852a1.39 1.39 0 0 1-1.294-.925L186.593 91.18c-.185-.37-.185-.925.185-1.295.369-.37.739-.554 1.109-.554h100.786c.555 0 1.11.37 1.295.924l24.965 66.944c.185.37.185.925-.185 1.295-.185.185-.74.555-1.11.555Zm-99.861-2.774h97.827l-24.04-64.17h-97.828l24.041 64.17Z"/><path fill="#DADADA" d="M136.847 211.014H36.061l24.965 66.944h100.786l-24.965-66.944Z"/><path fill="#222" d="M152.566 285.355H51.78c-.555 0-1.11-.37-1.294-.924L25.52 217.486c-.185-.369-.185-.924.185-1.294s.74-.555 1.11-.555H127.6c.554 0 1.109.37 1.294.925l24.965 66.944c.185.37.185.925-.185 1.294-.369.37-.739.555-1.109.555Zm-99.861-2.774h97.827l-24.041-64.355H28.849l23.856 64.355Z"/><path fill="#DADADA" d="M259.824 265.197H360.61l-25.15 66.944H234.859l24.965-66.944Z"/><path fill="#222" d="M344.891 339.539H244.105c-.37 0-.924-.185-1.109-.555-.185-.37-.37-.925-.185-1.295l24.965-66.944c.185-.554.74-.924 1.295-.924h100.785c.37 0 .925.185 1.11.555.185.369.37.924.185 1.294l-24.965 66.944c-.37.555-.74.925-1.295.925Zm-98.936-2.774h97.827l24.04-64.355h-97.827l-24.04 64.355ZM199.353 162.748h-2.774v54.368h2.774v-54.368Z"/><path fill="#222" d="m198.616 215.848-1.388 2.402 47.084 27.19 1.387-2.402-47.083-27.19Z"/><path fill="#222" d="m197.294 215.92-47.084 27.19 1.388 2.402 47.083-27.19-1.387-2.402Z"/><path fill="#444" d="M198.243 226.178a8.877 8.877 0 1 0-8.877-8.876 8.877 8.877 0 0 0 8.877 8.876Z"/><path fill="#222" d="M198.243 227.472c-5.548 0-10.171-4.623-10.171-10.171 0-5.547 4.623-10.171 10.171-10.171 5.548 0 10.171 4.624 10.171 10.171 0 5.548-4.623 10.171-10.171 10.171Zm0-17.753c-4.068 0-7.397 3.329-7.397 7.398 0 4.068 3.329 7.397 7.397 7.397 4.069 0 7.397-3.329 7.397-7.397 0-4.069-3.328-7.398-7.397-7.398Z"/><path fill="#fff" d="M182.709 323.08H60.287c0-31.252 16.643-50.67 39.944-57.697a36.473 36.473 0 0 0 42.534 0c23.301 7.027 39.944 26.445 39.944 57.697Z"/><path fill="#222" d="m184.004 326.409-2.034-2.034H58.992v-1.48c0-29.773 14.98-51.225 40.87-59.177l.739-.185.555.37c6.102 4.253 13.13 6.657 20.527 6.657s14.424-2.219 20.527-6.472l.555-.37.739.185c25.89 7.952 40.87 29.404 40.87 58.992v3.514h-.37Zm-122.238-4.808H181.23c-.37-27.37-14.24-47.342-38.28-54.739-6.288 4.438-13.685 6.657-21.452 6.657-7.767 0-15.164-2.404-21.637-6.657-23.855 7.397-37.725 27.369-38.095 54.739Z"/><path fill="#fff" d="M158.113 235.609c0 12.205-5.917 23.116-15.164 29.773a36.468 36.468 0 0 1-42.533 0c-9.247-6.657-15.164-17.383-15.164-29.588 0-20.158 16.273-36.616 36.431-36.616 20.157 0 36.43 16.088 36.43 36.431Z"/><path fill="#222" d="M121.498 273.519c-7.952 0-15.719-2.404-22.192-7.212-9.8-7.027-15.719-18.678-15.719-30.698 0-20.897 17.014-37.91 37.911-37.91 20.897 0 37.91 17.013 37.91 37.91 0 12.205-5.918 23.671-15.904 30.883-6.287 4.438-13.869 7.027-22.006 7.027Zm0-73.046c-19.418 0-35.137 15.719-35.137 35.136 0 11.281 5.548 22.006 14.61 28.479 6.102 4.253 13.13 6.657 20.527 6.657s14.424-2.219 20.527-6.472c9.246-6.657 14.609-17.198 14.609-28.664 0-19.417-15.719-35.136-35.136-35.136Z"/><path fill="#fff" d="M143.32 265.198c9.246-6.658 15.349-17.383 15.349-29.774 0-20.157-16.274-36.615-36.616-36.615s-36.616 16.273-36.616 36.615c0 12.206 6.103 23.116 15.349 29.589-23.3 7.027-39.944 26.445-39.944 57.883h122.422c0-31.253-16.643-50.671-39.944-57.698Z"/><path fill="#444" d="M182.709 323.08H60.287c0-31.252 16.643-50.67 39.944-57.697a36.473 36.473 0 0 0 42.534 0c23.301 7.027 39.944 26.445 39.944 57.697Z"/><path fill="#222" d="m184.004 326.409-2.034-2.034H58.992v-1.48c0-29.773 14.98-51.225 40.87-59.177l.739-.185.555.37c6.102 4.253 13.13 6.657 20.527 6.657s14.424-2.219 20.527-6.472l.555-.37.739.185c25.89 7.952 40.87 29.404 40.87 58.992v3.514h-.37Zm-122.238-4.808H181.23c-.37-27.37-14.24-47.342-38.28-54.739-6.288 4.438-13.685 6.657-21.452 6.657-7.767 0-15.164-2.404-21.637-6.657-23.855 7.397-37.725 27.369-38.095 54.739Z"/><path fill="#222" d="M121.498 273.519c-7.952 0-15.719-2.404-22.192-7.212-9.8-7.027-15.719-18.678-15.719-30.698 0-20.897 17.014-37.91 37.911-37.91 20.897 0 37.91 17.013 37.91 37.91 0 12.205-5.918 23.671-15.904 30.883-6.287 4.438-13.869 7.027-22.006 7.027Zm0-73.046c-19.418 0-35.137 15.719-35.137 35.136 0 11.281 5.548 22.006 14.61 28.479 6.102 4.253 13.13 6.657 20.527 6.657s14.424-2.219 20.527-6.472c9.246-6.657 14.609-17.198 14.609-28.664 0-19.417-15.719-35.136-35.136-35.136Z"/><path fill="#fff" d="M336.384 323.08H213.962c0-31.252 16.643-50.67 39.944-57.697a36.473 36.473 0 0 0 42.534 0c23.301 7.027 39.944 26.445 39.944 57.697Z"/><path fill="#222" d="m337.864 326.224-2.034-1.849H212.667v-1.48c0-29.773 14.98-51.225 40.87-59.177l.739-.185.555.37c6.103 4.253 13.13 6.657 20.527 6.657s14.425-2.219 20.527-6.472l.555-.37.74.185c25.89 7.952 40.869 29.404 40.869 58.992v3.329h-.185Zm-122.423-4.623H335.09c-.37-27.37-14.239-47.342-38.28-54.739-6.288 4.438-13.685 6.657-21.452 6.657-7.767 0-15.164-2.404-21.636-6.657-24.041 7.397-37.911 27.369-38.281 54.739Z"/><path fill="#fff" d="M311.789 235.609c0 12.205-5.917 23.116-15.164 29.773a36.473 36.473 0 0 1-42.533 0c-9.247-6.657-15.165-17.383-15.165-29.588 0-20.158 16.274-36.616 36.431-36.616 20.158 0 36.431 16.088 36.431 36.431Z"/><path fill="#222" d="M275.173 273.519c-7.951 0-15.718-2.404-22.191-7.212-9.801-7.027-15.719-18.678-15.719-30.698 0-20.897 17.014-37.91 37.91-37.91 20.897 0 37.911 17.013 37.911 37.91 0 12.205-5.918 23.671-15.904 30.883-6.288 4.438-13.87 7.027-22.007 7.027Zm0-73.046c-19.417 0-35.136 15.719-35.136 35.136 0 11.281 5.548 22.006 14.609 28.479 6.103 4.253 13.13 6.657 20.527 6.657 7.398 0 14.425-2.219 20.528-6.472 9.246-6.657 14.609-17.198 14.609-28.664 0-19.417-15.719-35.136-35.137-35.136Z"/><path fill="#444" d="M296.995 265.198c9.246-6.658 15.349-17.383 15.349-29.774 0-20.157-16.274-36.615-36.616-36.615s-36.616 16.273-36.616 36.615c0 12.206 6.103 23.116 15.349 29.589-23.301 7.027-39.944 26.445-39.944 57.883h122.422c0-31.253-16.643-50.671-39.944-57.698Z"/><path fill="#F5F4F3" d="M336.384 323.08H213.962c0-31.252 16.643-50.67 39.944-57.697a36.473 36.473 0 0 0 42.534 0c23.301 7.027 39.944 26.445 39.944 57.697Z"/><path fill="#222" d="m337.864 326.224-2.034-1.849H212.667v-1.48c0-29.773 14.98-51.225 40.87-59.177l.739-.185.555.37c6.103 4.253 13.13 6.657 20.527 6.657s14.425-2.219 20.527-6.472l.555-.37.74.185c25.89 7.952 40.869 29.404 40.869 58.992v3.329h-.185Zm-122.423-4.623H335.09c-.37-27.37-14.239-47.342-38.28-54.739-6.288 4.438-13.685 6.657-21.452 6.657-7.767 0-15.164-2.404-21.636-6.657-24.041 7.397-37.911 27.369-38.281 54.739Z"/><path fill="#222" d="M275.173 273.519c-7.951 0-15.718-2.404-22.191-7.212-9.801-7.027-15.719-18.678-15.719-30.698 0-20.897 17.014-37.91 37.91-37.91 20.897 0 37.911 17.013 37.911 37.91 0 12.205-5.918 23.671-15.904 30.883-6.288 4.438-13.87 7.027-22.007 7.027Zm0-73.046c-19.417 0-35.136 15.719-35.136 35.136 0 11.281 5.548 22.006 14.609 28.479 6.103 4.253 13.13 6.657 20.527 6.657 7.398 0 14.425-2.219 20.528-6.472 9.246-6.657 14.609-17.198 14.609-28.664 0-19.417-15.719-35.136-35.137-35.136Z"/><path fill="#fff" d="M259.455 171.623H137.032c0-31.252 16.644-50.67 39.945-57.697a36.468 36.468 0 0 0 42.533 0c23.301 7.027 39.945 26.629 39.945 57.697Z"/><path fill="#222" d="m260.749 174.952-2.034-1.849H135.738v-1.48c0-29.773 14.979-51.225 40.869-59.177l.739-.185.555.37c6.103 4.253 13.13 6.658 20.527 6.658s14.425-2.22 20.527-6.473l.555-.37.74.185c25.89 7.952 40.869 29.404 40.869 58.992v3.329h-.37Zm-122.238-4.623H258.16c-.37-27.37-14.239-47.342-38.28-54.739-6.288 4.438-13.685 6.657-21.452 6.657-7.767 0-15.164-2.404-21.636-6.657-24.041 7.397-37.911 27.369-38.281 54.739Z"/><path fill="#fff" d="M234.859 84.338c0 12.205-5.918 23.116-15.164 29.773a36.473 36.473 0 0 1-42.534 0c-9.246-6.657-15.164-17.383-15.164-29.589 0-20.157 16.274-36.615 36.431-36.615 20.157 0 36.431 16.089 36.431 36.43Z"/><path fill="#222" d="M198.243 122.063c-7.952 0-15.719-2.404-22.191-7.212-9.802-7.027-15.719-18.678-15.719-30.698 0-20.897 17.013-37.91 37.91-37.91 20.897 0 37.91 17.013 37.91 37.91 0 12.205-5.917 23.671-15.903 30.883-6.288 4.623-14.055 7.027-22.007 7.027Zm0-73.046c-19.417 0-35.136 15.718-35.136 35.136 0 11.28 5.548 22.006 14.609 28.479 6.103 4.253 13.13 6.657 20.527 6.657s14.424-2.219 20.527-6.472c9.247-6.658 14.609-17.198 14.609-28.664 0-19.233-15.718-35.136-35.136-35.136Z"/><path fill="#DADADA" d="M220.065 113.926c9.246-6.658 15.349-17.383 15.349-29.774 0-20.157-16.274-36.615-36.616-36.615s-36.616 16.273-36.616 36.615c0 12.206 6.103 23.116 15.349 29.589-23.301 7.212-39.944 26.63-39.944 57.883h122.422c0-31.253-16.643-50.671-39.944-57.698Z"/><path fill="#FF3158" d="M259.455 171.623H137.032c0-31.252 16.644-50.67 39.945-57.697a36.468 36.468 0 0 0 42.533 0c23.301 7.027 39.945 26.629 39.945 57.697Z"/><path fill="#222" d="m260.749 174.952-2.034-1.849H135.738v-1.48c0-29.773 14.979-51.225 40.869-59.177l.739-.185.555.37c6.103 4.253 13.13 6.658 20.527 6.658s14.425-2.22 20.527-6.473l.555-.37.74.185c25.89 7.952 40.869 29.404 40.869 58.992v3.329h-.37Zm-122.238-4.623H258.16c-.37-27.37-14.239-47.342-38.28-54.739-6.288 4.438-13.685 6.657-21.452 6.657-7.767 0-15.164-2.404-21.636-6.657-24.041 7.397-37.911 27.369-38.281 54.739Z"/><path fill="#222" d="M198.243 122.063c-7.952 0-15.719-2.404-22.191-7.212-9.802-7.027-15.719-18.678-15.719-30.698 0-20.897 17.013-37.91 37.91-37.91 20.897 0 37.91 17.013 37.91 37.91 0 12.205-5.917 23.671-15.903 30.883-6.288 4.623-14.055 7.027-22.007 7.027Zm0-73.046c-19.417 0-35.136 15.718-35.136 35.136 0 11.28 5.548 22.006 14.609 28.479 6.103 4.253 13.13 6.657 20.527 6.657s14.424-2.219 20.527-6.472c9.247-6.658 14.609-17.198 14.609-28.664 0-19.233-15.718-35.136-35.136-35.136Z"/></svg>