<svg xmlns="http://www.w3.org/2000/svg" width="401" height="400" fill="none" viewBox="0 0 401 400"><path fill="#F5F4F3" d="M298.771 83.772H197.985l24.966 67.129h100.786l-24.966-67.129Z"/><path fill="#222" d="M314.49 158.299H213.704c-.555 0-1.11-.37-1.294-.925L187.444 90.43c-.185-.37-.185-.925.185-1.295.37-.37.74-.554 1.11-.554h100.786c.554 0 1.109.37 1.294.924l24.966 66.944c.184.37.184.925-.185 1.295-.185.185-.74.555-1.11.555Zm-99.861-2.774h97.827l-24.041-64.17h-97.827l24.041 64.17Z"/><path fill="#DADADA" d="M137.699 210.264H36.913l24.965 66.944h100.786l-24.965-66.944Z"/><path fill="#222" d="M153.417 284.605H52.631a1.39 1.39 0 0 1-1.294-.925L26.37 216.736c-.184-.37-.184-.925.185-1.294.37-.37.74-.555 1.11-.555h100.786c.555 0 1.109.37 1.294.924l24.966 66.944c.185.37.185.925-.185 1.295-.37.37-.74.555-1.11.555Zm-99.861-2.774h97.827l-24.041-64.355H29.7l23.856 64.355Z"/><path fill="#DADADA" d="M260.676 264.447h100.786l-25.151 66.944H235.71l24.966-66.944Z"/><path fill="#222" d="M345.743 338.789H244.957c-.37 0-.925-.185-1.11-.555-.184-.37-.369-.925-.184-1.295l24.965-66.944c.185-.554.74-.924 1.294-.924h100.786c.37 0 .925.185 1.11.555.185.369.37.924.185 1.294l-24.966 66.944c-.369.555-.739.925-1.294.925Zm-98.937-2.774h97.827l24.041-64.355h-97.827l-24.041 64.355Z"/><path fill="#F5F4F3" d="M200.204 161.997h-2.774v54.369h2.774v-54.369Z"/><path fill="#F5F4F3" d="m199.467 215.098-1.387 2.402 47.084 27.19 1.387-2.402-47.084-27.19Z"/><path fill="#F5F4F3" d="m198.146 215.169-47.084 27.19 1.387 2.403 47.084-27.19-1.387-2.403Z"/><path fill="#F5F4F3" d="M199.095 225.427a8.876 8.876 0 0 0 8.876-8.876 8.877 8.877 0 1 0-8.876 8.876Z"/><path fill="#F5F4F3" d="M199.095 226.722c-5.548 0-10.171-4.623-10.171-10.171 0-5.548 4.623-10.171 10.171-10.171 5.548 0 10.171 4.623 10.171 10.171 0 5.548-4.623 10.171-10.171 10.171Zm0-17.753c-4.069 0-7.397 3.329-7.397 7.397s3.328 7.397 7.397 7.397c4.068 0 7.397-3.329 7.397-7.397s-3.329-7.397-7.397-7.397Z"/><path fill="#fff" d="M183.561 322.33H61.138c0-31.253 16.644-50.67 39.945-57.698a36.464 36.464 0 0 0 42.533 0c23.301 7.028 39.945 26.445 39.945 57.698Z"/><path fill="#222" d="m184.855 325.659-2.034-2.034H59.844v-1.48c0-29.773 14.979-51.225 40.869-59.177l.74-.185.554.37c6.103 4.253 13.13 6.657 20.527 6.657 7.398 0 14.425-2.219 20.528-6.472l.554-.37.74.185c25.89 7.952 40.869 29.404 40.869 58.992v3.514h-.37Zm-122.237-4.808H182.08c-.369-27.37-14.239-47.342-38.28-54.739-6.287 4.438-13.684 6.657-21.451 6.657-7.767 0-15.165-2.404-21.637-6.657-23.856 7.397-37.725 27.369-38.095 54.739Z"/><path fill="#fff" d="M158.965 234.859c0 12.205-5.917 23.116-15.164 29.774a36.473 36.473 0 0 1-42.533 0c-9.247-6.658-15.165-17.384-15.165-29.589 0-20.157 16.274-36.616 36.431-36.616 20.158 0 36.431 16.089 36.431 36.431Z"/><path fill="#222" d="M122.349 272.769c-7.952 0-15.719-2.404-22.191-7.212-9.801-7.027-15.719-18.678-15.719-30.698 0-20.897 17.013-37.91 37.91-37.91 20.897 0 37.911 17.013 37.911 37.91 0 12.205-5.918 23.671-15.904 30.883-6.288 4.438-13.87 7.027-22.007 7.027Zm0-73.046c-19.417 0-35.136 15.719-35.136 35.136 0 11.281 5.548 22.006 14.609 28.479 6.103 4.253 13.13 6.657 20.527 6.657s14.425-2.219 20.527-6.472c9.247-6.657 14.61-17.198 14.61-28.664 0-19.417-15.719-35.136-35.137-35.136Z"/><path fill="#fff" d="M144.171 264.447c9.246-6.657 15.349-17.383 15.349-29.773 0-20.157-16.274-36.616-36.616-36.616s-36.616 16.274-36.616 36.616c0 12.205 6.103 23.116 15.349 29.588-23.3 7.028-39.944 26.445-39.944 57.883h122.422c0-31.253-16.643-50.67-39.944-57.698Z"/><path fill="#444" d="M183.561 322.33H61.138c0-31.253 16.644-50.67 39.945-57.698a36.464 36.464 0 0 0 42.533 0c23.301 7.028 39.945 26.445 39.945 57.698Z"/><path fill="#222" d="m184.855 325.659-2.034-2.034H59.844v-1.48c0-29.773 14.979-51.225 40.869-59.177l.74-.185.554.37c6.103 4.253 13.13 6.657 20.527 6.657 7.398 0 14.425-2.219 20.528-6.472l.554-.37.74.185c25.89 7.952 40.869 29.404 40.869 58.992v3.514h-.37Zm-122.237-4.808H182.08c-.369-27.37-14.239-47.342-38.28-54.739-6.287 4.438-13.684 6.657-21.451 6.657-7.767 0-15.165-2.404-21.637-6.657-23.856 7.397-37.725 27.369-38.095 54.739Z"/><path fill="#222" d="M122.349 272.769c-7.952 0-15.719-2.404-22.191-7.212-9.801-7.027-15.719-18.678-15.719-30.698 0-20.897 17.013-37.91 37.91-37.91 20.897 0 37.911 17.013 37.911 37.91 0 12.205-5.918 23.671-15.904 30.883-6.288 4.438-13.87 7.027-22.007 7.027Zm0-73.046c-19.417 0-35.136 15.719-35.136 35.136 0 11.281 5.548 22.006 14.609 28.479 6.103 4.253 13.13 6.657 20.527 6.657s14.425-2.219 20.527-6.472c9.247-6.657 14.61-17.198 14.61-28.664 0-19.417-15.719-35.136-35.137-35.136Z"/><path fill="#fff" d="M337.236 322.33H214.813c0-31.253 16.644-50.67 39.945-57.698a36.467 36.467 0 0 0 42.534 0c23.3 7.028 39.944 26.445 39.944 57.698Z"/><path fill="#222" d="m338.716 325.474-2.035-1.849H213.519v-1.48c0-29.773 14.979-51.225 40.869-59.177l.74-.185.555.37c6.102 4.253 13.13 6.657 20.527 6.657s14.424-2.219 20.527-6.472l.555-.37.739.185c25.89 7.952 40.869 29.404 40.869 58.992v3.329h-.184Zm-122.423-4.623h119.649c-.37-27.37-14.24-47.342-38.281-54.739-6.287 4.438-13.684 6.657-21.451 6.657-7.767 0-15.164-2.404-21.637-6.657-24.041 7.397-37.91 27.369-38.28 54.739Z"/><path fill="#fff" d="M312.641 234.859c0 12.205-5.918 23.116-15.164 29.774a36.473 36.473 0 0 1-42.534 0c-9.246-6.658-15.164-17.384-15.164-29.589 0-20.157 16.274-36.616 36.431-36.616 20.157 0 36.431 16.089 36.431 36.431Z"/><path fill="#222" d="M276.025 272.769c-7.952 0-15.719-2.404-22.191-7.212-9.802-7.027-15.719-18.678-15.719-30.698 0-20.897 17.013-37.91 37.91-37.91 20.897 0 37.91 17.013 37.91 37.91 0 12.205-5.917 23.671-15.903 30.883-6.288 4.438-13.87 7.027-22.007 7.027Zm0-73.046c-19.417 0-35.136 15.719-35.136 35.136 0 11.281 5.548 22.006 14.609 28.479 6.103 4.253 13.13 6.657 20.527 6.657s14.424-2.219 20.527-6.472c9.247-6.657 14.609-17.198 14.609-28.664 0-19.417-15.718-35.136-35.136-35.136Z"/><path fill="#444" d="M297.847 264.447c9.246-6.657 15.349-17.383 15.349-29.773 0-20.157-16.274-36.616-36.616-36.616s-36.616 16.274-36.616 36.616c0 12.205 6.103 23.116 15.349 29.588-23.301 7.028-39.944 26.445-39.944 57.883h122.422c0-31.253-16.643-50.67-39.944-57.698Z"/><path fill="#F5F4F3" d="M337.236 322.33H214.813c0-31.253 16.644-50.67 39.945-57.698a36.467 36.467 0 0 0 42.534 0c23.3 7.028 39.944 26.445 39.944 57.698Z"/><path fill="#222" d="m338.716 325.474-2.035-1.849H213.519v-1.48c0-29.773 14.979-51.225 40.869-59.177l.74-.185.555.37c6.102 4.253 13.13 6.657 20.527 6.657s14.424-2.219 20.527-6.472l.555-.37.739.185c25.89 7.952 40.869 29.404 40.869 58.992v3.329h-.184Zm-122.423-4.623h119.649c-.37-27.37-14.24-47.342-38.281-54.739-6.287 4.438-13.684 6.657-21.451 6.657-7.767 0-15.164-2.404-21.637-6.657-24.041 7.397-37.91 27.369-38.28 54.739Z"/><path fill="#222" d="M276.025 272.769c-7.952 0-15.719-2.404-22.191-7.212-9.802-7.027-15.719-18.678-15.719-30.698 0-20.897 17.013-37.91 37.91-37.91 20.897 0 37.91 17.013 37.91 37.91 0 12.205-5.917 23.671-15.903 30.883-6.288 4.438-13.87 7.027-22.007 7.027Zm0-73.046c-19.417 0-35.136 15.719-35.136 35.136 0 11.281 5.548 22.006 14.609 28.479 6.103 4.253 13.13 6.657 20.527 6.657s14.424-2.219 20.527-6.472c9.247-6.657 14.609-17.198 14.609-28.664 0-19.417-15.718-35.136-35.136-35.136Z"/><path fill="#fff" d="M260.306 170.874H137.883c0-31.253 16.644-50.67 39.945-57.698a36.467 36.467 0 0 0 42.533 0c23.301 7.028 39.945 26.63 39.945 57.698Z"/><path fill="#222" d="m261.6 174.202-2.034-1.849H136.589v-1.479c0-29.774 14.979-51.225 40.869-59.177l.74-.185.555.37c6.102 4.253 13.129 6.657 20.527 6.657 7.397 0 14.424-2.219 20.527-6.472l.554-.37.74.185c25.89 7.951 40.869 29.403 40.869 58.992v3.328h-.37Zm-122.237-4.623h119.648c-.369-27.369-14.239-47.341-38.28-54.739-6.287 4.439-13.684 6.658-21.451 6.658-7.767 0-15.165-2.404-21.637-6.658-24.041 7.398-37.91 27.37-38.28 54.739Z"/><path fill="#fff" d="M235.711 83.588c0 12.205-5.918 23.116-15.164 29.773a36.473 36.473 0 0 1-42.534 0c-9.246-6.657-15.164-17.383-15.164-29.589 0-20.157 16.274-36.615 36.431-36.615 20.157 0 36.431 16.089 36.431 36.43Z"/><path fill="#222" d="M199.095 121.313c-7.952 0-15.719-2.404-22.192-7.212-9.801-7.028-15.718-18.678-15.718-30.698 0-20.897 17.013-37.91 37.91-37.91 20.897 0 37.91 17.013 37.91 37.91 0 12.205-5.918 23.67-15.904 30.883-6.287 4.623-14.054 7.027-22.006 7.027Zm0-73.047c-19.418 0-35.137 15.719-35.137 35.137 0 11.28 5.548 22.006 14.61 28.478 6.102 4.254 13.13 6.658 20.527 6.658s14.424-2.219 20.527-6.473c9.246-6.657 14.609-17.198 14.609-28.663 0-19.233-15.719-35.137-35.136-35.137Z"/><path fill="#DADADA" d="M220.917 113.176c9.246-6.657 15.349-17.383 15.349-29.773 0-20.157-16.274-36.616-36.616-36.616s-36.616 16.274-36.616 36.616c0 12.205 6.103 23.116 15.349 29.588-23.301 7.213-39.945 26.63-39.945 57.883h122.423c0-31.253-16.644-50.67-39.944-57.698Z"/><path fill="#FF3158" d="M260.306 170.874H137.883c0-31.253 16.644-50.67 39.945-57.698a36.467 36.467 0 0 0 42.533 0c23.301 7.028 39.945 26.63 39.945 57.698Z"/><path fill="#222" d="m261.6 174.202-2.034-1.849H136.589v-1.479c0-29.774 14.979-51.225 40.869-59.177l.74-.185.555.37c6.102 4.253 13.129 6.657 20.527 6.657 7.397 0 14.424-2.219 20.527-6.472l.554-.37.74.185c25.89 7.951 40.869 29.403 40.869 58.992v3.328h-.37Zm-122.237-4.623h119.648c-.369-27.369-14.239-47.341-38.28-54.739-6.287 4.439-13.684 6.658-21.451 6.658-7.767 0-15.165-2.404-21.637-6.658-24.041 7.398-37.91 27.37-38.28 54.739Z"/><path fill="#222" d="M199.095 121.313c-7.952 0-15.719-2.404-22.192-7.212-9.801-7.028-15.718-18.678-15.718-30.698 0-20.897 17.013-37.91 37.91-37.91 20.897 0 37.91 17.013 37.91 37.91 0 12.205-5.918 23.67-15.904 30.883-6.287 4.623-14.054 7.027-22.006 7.027Zm0-73.047c-19.418 0-35.137 15.719-35.137 35.137 0 11.28 5.548 22.006 14.61 28.478 6.102 4.254 13.13 6.658 20.527 6.658s14.424-2.219 20.527-6.473c9.246-6.657 14.609-17.198 14.609-28.663 0-19.233-15.719-35.137-35.136-35.137Z"/></svg>