<svg xmlns="http://www.w3.org/2000/svg" width="400" height="401" fill="none" viewBox="0 0 400 401"><path fill="#fff" d="M126.043 305.662c53.334 0 96.57-43.236 96.57-96.571 0-53.334-43.236-96.57-96.57-96.57-53.335 0-96.571 43.236-96.571 96.57 0 53.335 43.236 96.571 96.571 96.571Z"/><path fill="#222" d="M126.043 307.145c-53.939 0-98.054-43.93-98.054-97.869 0-53.938 43.93-98.053 98.054-98.053s97.868 43.929 97.868 98.053c.186 53.939-43.744 97.869-97.868 97.869Zm0-193.142c-52.456 0-95.273 42.632-95.273 95.273 0 52.456 42.632 95.088 95.273 95.088s95.088-42.632 95.088-95.088c.185-52.641-42.447-95.273-95.088-95.273Z"/><path fill="#444" d="M279.704 305.662c53.334 0 96.571-43.236 96.571-96.571 0-53.334-43.237-96.57-96.571-96.57-53.335 0-96.571 43.236-96.571 96.57 0 53.335 43.236 96.571 96.571 96.571Z"/><path fill="#222" d="M279.703 307.145c-53.938 0-97.868-43.93-97.868-97.869 0-53.938 43.93-98.053 97.868-98.053 53.939 0 98.054 43.929 98.054 98.053 0 53.939-43.929 97.869-98.054 97.869Zm0-193.142c-52.456 0-95.088 42.632-95.088 95.273 0 52.456 42.632 95.088 95.088 95.088 52.456 0 95.274-42.632 95.274-95.088 0-52.641-42.818-95.273-95.274-95.273Z"/><path fill="#DADADA" d="M301.946 195.746c8.155-5.932 13.531-15.385 13.531-26.321 0-17.794-14.458-32.252-32.252-32.252-17.794 0-32.252 14.458-32.252 32.252 0 10.751 5.375 20.389 13.531 26.135"/><path fill="#fff" d="M263.948 195.745c5.376 3.893 11.863 6.117 18.907 6.117 7.043 0 13.531-2.224 18.721-5.932"/><path fill="#222" d="M282.669 203.159c-7.043 0-13.901-2.224-19.648-6.302l1.669-2.224c5.375 3.707 11.492 5.746 17.979 5.746 6.488 0 12.79-2.039 17.98-5.746l1.668 2.224c-5.746 4.263-12.419 6.302-19.648 6.302Z"/><path fill="#F5F4F3" d="M315.107 169.61c0 10.75-5.376 20.389-13.531 26.32-5.376 3.893-11.863 5.932-18.721 5.932a32.424 32.424 0 0 1-18.907-6.117c-8.155-5.932-13.345-15.385-13.345-26.135 0-17.795 14.457-32.253 32.252-32.253 17.794 0 32.252 14.458 32.252 32.253Z"/><path fill="#222" d="M282.67 203.16c-7.044 0-13.902-2.225-19.648-6.303-8.712-6.302-14.087-16.496-14.087-27.247 0-18.536 15.013-33.735 33.549-33.735s33.735 15.199 33.735 33.735c0 10.751-5.19 21.131-14.087 27.433-5.561 4.078-12.234 6.117-19.462 6.117Zm0-64.505c-17.053 0-30.77 13.902-30.77 30.955a30.824 30.824 0 0 0 12.79 25.023c5.375 3.707 11.492 5.746 17.98 5.746a30.984 30.984 0 0 0 17.979-5.746c8.156-5.746 12.975-15.199 12.975-25.208 0-16.868-13.902-30.77-30.954-30.77Z"/><path fill="#222" d="M282.67 203.16c-7.044 0-13.902-2.225-19.648-6.303-8.712-6.302-14.087-16.496-14.087-27.247 0-18.536 15.013-33.735 33.549-33.735s33.735 15.199 33.735 33.735c0 10.751-5.19 21.131-14.087 27.433-5.561 4.078-12.234 6.117-19.462 6.117Zm0-64.505c-17.053 0-30.77 13.902-30.77 30.955a30.824 30.824 0 0 0 12.79 25.023c5.375 3.707 11.492 5.746 17.98 5.746a30.984 30.984 0 0 0 17.979-5.746c8.156-5.746 12.975-15.199 12.975-25.208 0-16.868-13.902-30.77-30.954-30.77Z"/><path fill="#FF3158" d="M336.793 268.034H228.729c0-27.618 0-59.499 35.218-72.289 5.376 3.893 11.863 6.117 18.907 6.117 7.043 0 13.531-2.224 18.721-5.932 32.066 10.38 35.218 44.486 35.218 72.104Z"/><path fill="#222" d="M338.09 269.518H227.247v-1.483c0-28.36 0-60.427 36.145-73.587l.741-.185.556.37c5.376 3.708 11.492 5.746 17.98 5.746a30.977 30.977 0 0 0 17.979-5.746l.556-.37.742.185c31.881 10.565 36.144 43.003 36.144 73.587v1.483Zm-108.063-2.781H335.31c-.185-28.915-4.448-59.314-33.549-69.323-5.561 3.892-12.234 5.931-19.092 5.931-6.858 0-13.346-2.039-19.092-5.931-32.994 12.419-33.55 42.446-33.55 69.323Z"/><path fill="#DADADA" d="M145.505 196.672c8.156-5.931 13.531-15.384 13.531-26.32 0-17.795-14.457-32.252-32.252-32.252-17.794 0-32.252 14.457-32.252 32.252 0 10.75 5.376 20.389 13.531 26.135"/><path fill="#fff" d="M107.321 196.672c5.376 3.892 11.863 6.117 18.907 6.117 7.043 0 13.531-2.225 18.721-5.932"/><path fill="#222" d="M126.228 204.086c-7.044 0-13.902-2.224-19.648-6.302l1.668-2.224c5.376 3.707 11.492 5.746 17.98 5.746 6.487 0 12.79-2.039 17.98-5.746l1.668 2.224c-5.932 4.078-12.605 6.302-19.648 6.302Z"/><path fill="#DADADA" d="M158.48 170.352c0 10.75-5.376 20.389-13.531 26.32-5.376 3.893-11.863 5.932-18.721 5.932a32.424 32.424 0 0 1-18.907-6.117c-8.155-5.931-13.345-15.385-13.345-26.135 0-17.795 14.457-32.252 32.252-32.252 17.794 0 32.252 14.457 32.252 32.252Z"/><path fill="#222" d="M126.228 204.086c-7.043 0-13.902-2.224-19.648-6.302-8.712-6.302-14.087-16.497-14.087-27.247 0-18.536 15.014-33.735 33.55-33.735 18.535 0 33.735 15.199 33.735 33.735 0 10.75-5.19 21.13-14.087 27.433-5.561 3.892-12.419 6.116-19.463 6.116Zm0-64.689c-17.053 0-30.77 13.902-30.77 30.954 0 10.01 4.82 19.277 12.79 25.024 5.376 3.707 11.493 5.746 17.98 5.746 6.488 0 12.79-2.039 17.98-5.746 8.155-5.747 12.975-15.2 12.975-25.209-.186-16.867-13.902-30.769-30.955-30.769Z"/><path fill="#222" d="M126.228 204.086c-7.043 0-13.902-2.224-19.648-6.302-8.712-6.302-14.087-16.497-14.087-27.247 0-18.536 15.014-33.735 33.55-33.735 18.535 0 33.735 15.199 33.735 33.735 0 10.75-5.19 21.13-14.087 27.433-5.561 3.892-12.419 6.116-19.463 6.116Zm0-64.689c-17.053 0-30.77 13.902-30.77 30.954 0 10.01 4.82 19.277 12.79 25.024 5.376 3.707 11.493 5.746 17.98 5.746 6.488 0 12.79-2.039 17.98-5.746 8.155-5.747 12.975-15.2 12.975-25.209-.186-16.867-13.902-30.769-30.955-30.769Z"/><path fill="#444" d="M180.167 268.775H72.103c0-27.618 0-59.499 35.218-72.289 5.376 3.893 11.863 6.117 18.907 6.117 7.043 0 13.531-2.224 18.721-5.931 32.066 10.565 35.218 44.671 35.218 72.103Z"/><path fill="#222" d="M181.65 270.259H70.621v-1.483c0-28.36 0-60.426 36.145-73.587l.741-.185.556.371c5.376 3.707 11.492 5.746 17.98 5.746a30.984 30.984 0 0 0 17.979-5.746l.556-.371.742.185c31.881 10.566 36.144 43.003 36.144 73.587v1.483h.186Zm-108.249-2.781h105.283c-.185-28.915-4.448-59.314-33.549-69.323-5.561 3.892-12.234 5.931-19.092 5.931-6.858 0-13.346-2.039-19.092-5.931-32.993 12.419-33.55 42.447-33.55 69.323Z"/><path fill="#222" d="M126.043 307.145c-53.939 0-98.054-43.93-98.054-97.869 0-53.938 43.93-98.053 98.054-98.053s97.868 43.929 97.868 98.053c.186 53.939-43.744 97.869-97.868 97.869Zm0-193.142c-52.456 0-95.273 42.632-95.273 95.273 0 52.456 42.632 95.088 95.273 95.088s95.088-42.632 95.088-95.088c.185-52.641-42.447-95.273-95.088-95.273Z"/><path fill="#DADADA" d="M183.133 209.091c0 22.058 7.414 42.262 19.833 58.573 12.419-16.311 19.833-36.515 19.833-58.573 0-22.057-7.414-42.261-19.833-58.572-12.419 16.311-19.833 36.7-19.833 58.572Z"/><path fill="#222" d="m202.966 269.888-1.112-1.483c-13.161-17.238-20.019-37.813-20.019-59.314 0-21.687 6.858-42.076 20.019-59.314l1.112-1.483 1.112 1.483c13.16 17.238 20.018 37.813 20.018 59.314 0 21.687-6.858 42.076-20.018 59.314l-1.112 1.483Zm0-116.96c-12.049 16.311-18.351 35.774-18.351 56.163 0 20.389 6.302 39.852 18.351 56.163 12.048-16.311 18.35-35.774 18.35-56.163 0-20.389-6.302-39.666-18.35-56.163Z"/></svg>