<svg xmlns="http://www.w3.org/2000/svg" width="400" height="400" fill="none" viewBox="0 0 400 400"><path fill="#DADADA" d="M211.743 337.679c75.068 0 135.922-60.854 135.922-135.922S286.811 65.834 211.743 65.834 75.821 126.69 75.821 201.757c0 75.068 60.854 135.922 135.922 135.922Z"/><path fill="#222" d="M200.462 347.48c-75.635 0-137.401-61.581-137.401-137.401 0-75.821 61.581-137.402 137.401-137.402 75.821 0 137.402 61.581 137.402 137.402 0 75.82-61.766 137.401-137.402 137.401Zm0-271.844c-74.156 0-134.627 60.286-134.627 134.627 0 74.342 60.286 134.628 134.627 134.628 74.157 0 134.628-60.286 134.628-134.628 0-74.341-60.471-134.627-134.628-134.627Z"/><path fill="#222" d="M200.462 347.48c-.739 0-1.479-.554-1.479-1.479s.555-1.479 1.479-1.479c19.048 0 35.137-61.581 35.137-134.628 0-72.862-16.089-134.628-35.137-134.628-.739 0-1.479-.555-1.479-1.48 0-.924.555-1.479 1.479-1.479 21.267 0 37.911 60.287 37.911 137.402 0 77.485-16.644 137.771-37.911 137.771Z"/><path fill="#222" d="M200.462 247.989c-76.93 0-137.401-16.644-137.401-37.91 0-.74.554-1.48 1.479-1.48s1.48.555 1.48 1.48c0 19.047 61.581 35.136 134.627 35.136 73.047 0 134.628-16.089 134.628-35.136 0-.74.555-1.48 1.479-1.48.925 0 1.48.555 1.48 1.48-.37 21.266-60.842 37.91-137.772 37.91ZM200.462 347.481c-2.589 0-5.178-.925-7.767-2.589-.555-.37-.74-1.295-.37-1.85.37-.555 1.295-.739 1.85-.37 2.034 1.48 4.068 2.22 6.102 2.22.74 0 1.295.554 1.295 1.479s-.37 1.11-1.11 1.11Z"/><path fill="#222" d="M184.374 333.611c-.555 0-.925-.185-1.295-.74a97.646 97.646 0 0 1-5.917-13.685c-.185-.739.185-1.479.924-1.849.74-.185 1.48.185 1.85.925 1.849 5.178 3.698 9.616 5.732 13.314.185.185.185.37.185.74 0 .555-.185.925-.74 1.295h-.739Zm-10.171-27.37c-.555 0-1.11-.37-1.295-1.109a439.172 439.172 0 0 1-3.328-14.425c-.185-.739.369-1.479 1.109-1.664.74-.185 1.48.37 1.664 1.109.925 4.994 2.035 9.802 3.329 14.24v.37c0 .555-.37 1.109-1.109 1.294 0 .185-.185.185-.37.185Zm-5.733-28.849c-.74 0-1.295-.554-1.295-1.109-.739-4.623-1.294-9.616-1.849-14.609 0-.74.555-1.48 1.295-1.48.739 0 1.479.555 1.479 1.295.555 4.993 1.11 9.801 1.849 14.424v.185c0 .74-.554 1.294-1.109 1.294h-.37Zm-3.144-29.218c-.74 0-1.294-.555-1.479-1.295-.37-4.808-.74-9.801-.925-14.794 0-.74.555-1.479 1.295-1.479.739 0 1.479.554 1.479 1.294.185 4.993.555 9.986.925 14.609 0 1.11-.555 1.665-1.295 1.665Zm-1.294-29.219c-.74 0-1.48-.555-1.48-1.294v-14.61c0-.739.555-1.294 1.48-1.294.37 0 .739.185.924.37.185.369.37.554.37.924v14.61c0 .554-.555 1.294-1.294 1.294Zm.37-29.404c-.74 0-1.48-.739-1.48-1.479.185-4.993.555-9.801.925-14.609 0-.74.739-1.295 1.479-1.295.37 0 .74.185.925.555.185.185.37.74.37.925-.37 4.623-.555 9.616-.925 14.609 0 .74-.555 1.294-1.294 1.294Zm2.219-29.403c-.925-.185-1.48-.74-1.48-1.48v-.185c.555-4.993 1.11-9.986 1.85-14.609.184-.74.739-1.294 1.664-1.109.74.185 1.294.924 1.109 1.664-.739 4.623-1.294 9.616-1.849 14.424 0 .925-.555 1.295-1.294 1.295Zm4.438-29.034h-.185c-.74-.185-1.11-.74-1.11-1.294v-.37a165.135 165.135 0 0 1 3.329-14.425c.185-.739.925-1.109 1.665-.924.369 0 .739.37.924.554.185.37.185.74.185 1.11-1.109 4.438-2.219 9.246-3.329 14.24-.369.739-.924 1.109-1.479 1.109Zm7.397-28.294h-.37c-.555-.185-.924-.74-.924-1.294v-.555c1.849-5.178 3.883-9.801 5.917-13.685.37-.74 1.295-.924 1.85-.555.739.37.924 1.295.554 1.85-2.034 3.698-3.883 8.136-5.732 13.314-.185.555-.74.925-1.295.925ZM193.62 77.855c-.37 0-.925-.185-1.109-.555-.37-.555-.37-1.48.369-1.85 2.404-1.849 4.993-2.588 7.767-2.588.74 0 1.48.555 1.48 1.48 0 .924-.555 1.479-1.48 1.479-2.034 0-4.068.74-6.102 2.219-.37-.185-.74-.185-.925-.185ZM63.06 210.079c0-.74.555-1.48 1.48-1.48.74 0 1.48.555 1.48 1.48 0 .739-.555 1.479-1.48 1.479-.74 0-1.48-.74-1.48-1.479Zm266.297-9.802c-.554-.554-.739-1.479-.185-2.034.555-.555 1.295-.739 2.035-.185.554.555.739 1.48.185 2.035-.185.369-.74.554-1.11.554-.37 0-.555-.185-.925-.37Zm-258.345-1.294c-.37-.555-.37-1.479.185-2.034.555-.555 1.48-.37 2.035.185.37.554.37 1.479-.185 1.849-.185.185-.555.185-.925.185-.37.185-.925.185-1.11-.185Zm246.14-6.103c-.74-.37-.925-1.109-.74-1.849.37-.74 1.11-1.11 1.85-.74.739.37.924 1.11.739 1.85-.185.554-.739.739-1.294.739h-.555Zm-233.564-1.479c-.37-.74 0-1.48.74-1.849.739-.37 1.479 0 1.849.739.37.74 0 1.48-.74 1.85-.185 0-.37.185-.555.185-.555-.185-.925-.37-1.294-.925Zm219.879-3.699c-.739-.185-1.109-.924-.924-1.664.185-.74.924-1.11 1.664-.925.74.185 1.11.925.925 1.665-.185.554-.74.924-1.295.924h-.37Zm-205.825-1.479c-.185-.74.185-1.48.925-1.664.74-.185 1.479.184 1.664.924.185.74-.185 1.48-.924 1.665h-.37c-.74 0-1.295-.37-1.295-.925Zm191.586-2.404c-.74-.185-1.295-.925-1.11-1.665.185-.739.925-1.109 1.665-1.109.739.185 1.294.925 1.109 1.664-.185.555-.739 1.11-1.294 1.11h-.37Zm-177.346-1.48c-.185-.739.369-1.479 1.109-1.664.74-.185 1.48.37 1.665 1.11.184.739-.37 1.479-1.11 1.664h-.37c-.555 0-1.294-.37-1.294-1.11Zm162.922-1.479c-.74-.185-1.295-.925-1.11-1.664.185-.74.925-1.295 1.664-1.11.74.185 1.295.925 1.11 1.664-.185.74-.74 1.11-1.295 1.11h-.369Zm-148.498-1.479c-.185-.74.37-1.48 1.11-1.665.739-.185 1.479.37 1.664 1.11.185.739-.37 1.479-1.11 1.664h-.185c-.739.185-1.294-.37-1.479-1.109Zm133.888-.74c-.74 0-1.294-.74-1.109-1.48 0-.739.739-1.294 1.479-1.109.74 0 1.295.74 1.11 1.479 0 .74-.74 1.11-1.295 1.11h-.185Zm-119.279-1.48c-.185-.739.37-1.479 1.11-1.479.74-.185 1.479.37 1.479 1.11.185.739-.369 1.479-1.109 1.479h-.185c-.555.185-1.11-.37-1.295-1.11Zm104.67-.185c-.74 0-1.295-.739-1.295-1.479 0-.74.74-1.294 1.48-1.294.739 0 1.294.739 1.294 1.479 0 .74-.555 1.294-1.479 1.294Zm-89.875-1.479c0-.74.554-1.479 1.294-1.479s1.48.554 1.48 1.294-.555 1.48-1.295 1.48h-.185c-.74 0-1.294-.555-1.294-1.295Zm75.081.37c-.74 0-1.295-.74-1.295-1.48 0-.739.74-1.294 1.479-1.294.74 0 1.295.74 1.295 1.479 0 .74-.555 1.295-1.479 1.295.184 0 .184 0 0 0Zm-60.287-1.48c0-.739.555-1.479 1.294-1.479.74 0 1.48.555 1.48 1.295 0 .739-.555 1.479-1.295 1.479-.924 0-1.479-.555-1.479-1.295Zm44.383-.554c0-.74.739-1.295 1.479-1.295.74 0 1.295.74 1.295 1.48 0 .739-.74 1.294-1.48 1.294-.739-.185-1.479-.74-1.294-1.479Zm-28.294 1.294c-.74 0-1.48-.555-1.48-1.294 0-.74.555-1.48 1.295-1.48.739 0 1.479.555 1.479 1.295.185.739-.555 1.479-1.294 1.479Zm13.499-1.664c0-.74.555-1.48 1.48-1.48.74 0 1.479.555 1.479 1.48 0 .74-.554 1.479-1.479 1.479s-1.48-.555-1.48-1.479Z"/><path fill="#444" d="m152.566 220.435-7.767-14.794H96.348l-7.952 14.794H40.315v95.053h160.517v-95.053h-48.266Z"/><path fill="#222" d="M200.832 316.967H40.314c-.74 0-1.479-.554-1.479-1.479v-95.053c0-.74.555-1.48 1.48-1.48h47.341l7.397-14.239c.185-.37.74-.74 1.295-.74h48.451c.555 0 .925.37 1.294.74l7.398 14.239h47.341c.74 0 1.48.555 1.48 1.48v95.053c0 .925-.74 1.479-1.48 1.479Zm-159.223-2.774h157.929v-92.279h-46.972c-.555 0-.925-.37-1.295-.74l-7.397-14.239H97.087l-7.397 14.239c-.185.37-.74.74-1.294.74H41.609v92.279Z"/><path fill="#FF3158" d="m147.573 216.736-7.767-14.979H91.169l-7.766 14.979H35.136v95.053H195.84v-95.053h-48.266Z"/><path fill="#222" d="M195.839 313.084H35.136c-.74 0-1.48-.555-1.48-1.48v-95.053c0-.74.556-1.48 1.48-1.48h47.342l7.397-14.239c.185-.37.74-.74 1.294-.74h48.452c.554 0 .924.37 1.294.74l7.397 14.239h47.342c.74 0 1.479.555 1.479 1.48v95.053c0 .925-.554 1.48-1.294 1.48ZM36.616 310.31h157.928v-92.28h-46.971c-.555 0-.925-.37-1.295-.739l-7.397-14.24H92.094l-7.397 14.24c-.185.369-.74.739-1.294.739H36.616v92.28Z"/><path fill="#222" d="M115.58 298.474c-19.047 0-34.396-15.533-34.396-34.396s15.534-34.397 34.396-34.397c19.048 0 34.397 15.534 34.397 34.397s-15.534 34.396-34.397 34.396Zm0-66.204c-17.383 0-31.623 14.24-31.623 31.623 0 17.383 14.24 31.623 31.623 31.623 17.384 0 31.623-14.24 31.623-31.623 0-17.383-14.239-31.623-31.623-31.623Z"/><path fill="#F5F4F3" d="M118.354 298.659c18.282 0 33.102-14.82 33.102-33.102 0-18.282-14.82-33.102-33.102-33.102-18.282 0-33.102 14.82-33.102 33.102 0 18.282 14.82 33.102 33.102 33.102Z"/><path fill="#222" d="M115.58 286.269c12.256 0 22.191-9.935 22.191-22.191 0-12.256-9.935-22.192-22.191-22.192-12.256 0-22.191 9.936-22.191 22.192s9.935 22.191 22.191 22.191Z"/><path fill="#222" d="M115.58 287.563c-12.945 0-23.67-10.54-23.67-23.67 0-13.13 10.54-23.486 23.67-23.486a23.599 23.599 0 0 1 23.671 23.671c0 13.129-10.726 23.485-23.671 23.485Zm0-44.382c-11.466 0-20.712 9.246-20.712 20.712 0 11.465 9.246 20.712 20.712 20.712s20.712-9.247 20.712-20.712c0-11.466-9.246-20.712-20.712-20.712Z"/><path fill="#fff" d="M188.257 224.318h-31.992v13.13h31.992v-13.13Z"/><path fill="#222" d="M188.257 238.928h-31.992c-.74 0-1.48-.555-1.48-1.48v-13.13c0-.739.555-1.479 1.48-1.479h31.992c.74 0 1.48.555 1.48 1.479v13.13c-.185.74-.74 1.48-1.48 1.48Zm-30.698-2.774h29.219v-10.356h-29.219v10.356Z"/><path fill="#fff" d="M51.595 239.113a7.028 7.028 0 1 0-.001-14.056 7.028 7.028 0 0 0 .001 14.056Z"/><path fill="#222" d="M51.595 240.407c-4.623 0-8.507-3.699-8.507-8.507s3.884-8.506 8.507-8.506c4.623 0 8.507 3.698 8.507 8.506s-3.884 8.507-8.507 8.507Zm0-14.055c-3.144 0-5.733 2.589-5.733 5.733 0 3.144 2.59 5.733 5.733 5.733 3.144 0 5.733-2.589 5.733-5.733 0-3.144-2.59-5.733-5.733-5.733ZM115.58 298.474c-19.047 0-34.396-15.533-34.396-34.396s15.534-34.397 34.396-34.397c19.048 0 34.397 15.534 34.397 34.397s-15.534 34.396-34.397 34.396Zm0-66.204c-17.383 0-31.623 14.24-31.623 31.623 0 17.383 14.24 31.623 31.623 31.623 17.384 0 31.623-14.24 31.623-31.623 0-17.383-14.239-31.623-31.623-31.623Z"/><path fill="#fff" d="M370.966 132.963c0-14.239-41.054-17.938-65.464-17.938-24.411 0-65.465 3.699-65.465 17.938 0 8.322 14.055 12.76 27.37 14.98l-5.363 4.068 6.287.925 8.507-6.473-6.473-8.507-6.287-.924 4.068 5.363c-16.273-2.959-22.376-7.212-22.376-9.432 0-5.178 22.746-12.39 59.917-12.39 37.17 0 59.916 7.212 59.916 12.39 0 2.22-6.102 6.658-22.376 9.432l3.884-5.363-6.288.924-6.472 8.507 8.506 6.473 6.288-.925-5.363-4.068c13.315-2.404 27.184-6.843 27.184-14.98Z"/><path fill="#F5F4F3" d="M273.509 71.012h63.985c9.246 0 16.828 7.582 16.828 16.829v30.883c0 9.246-7.582 16.828-16.828 16.828h-63.985c-9.247 0-16.829-7.582-16.829-16.828V87.841c.185-9.247 7.582-16.829 16.829-16.829Z"/><path fill="#222" d="M337.679 136.847h-63.985c-9.986 0-18.123-8.137-18.123-18.123V87.841c0-9.986 8.137-18.123 18.123-18.123h63.985c9.986 0 18.123 8.137 18.123 18.123v30.883c0 9.986-8.137 18.123-18.123 18.123Zm-63.985-64.355a15.311 15.311 0 0 0-15.349 15.349v30.883a15.311 15.311 0 0 0 15.349 15.349h63.985a15.311 15.311 0 0 0 15.349-15.349V87.841a15.311 15.311 0 0 0-15.349-15.35h-63.985Z"/><path fill="#000" d="M277.578 100.046c1.664 0 2.958-.37 3.883-1.11.925-.739 1.295-1.664 1.295-2.773v-.37c0-1.294-.37-2.22-1.11-2.959-.74-.74-1.849-1.11-3.329-1.11-1.479 0-2.589.37-3.513.925-1.11.555-1.85 1.48-2.589 2.774l-3.699-3.329c.555-.74 1.11-1.294 1.664-2.034.555-.74 1.295-1.11 2.22-1.664.739-.37 1.664-.74 2.774-1.11 1.109-.185 2.219-.37 3.513-.37 1.48 0 2.959.185 4.253.555 1.295.37 2.405.925 3.329 1.665.925.74 1.665 1.48 2.034 2.404.555.924.74 2.034.74 3.328 0 .925-.185 1.85-.37 2.59-.37.74-.739 1.479-1.294 2.034-.555.554-1.11 1.109-1.85 1.479-.739.37-1.479.555-2.219.74v.185c.925.185 1.665.37 2.404.924.74.37 1.48.925 2.035 1.48.554.555 1.109 1.294 1.294 2.219.37.925.555 1.849.555 2.774 0 1.294-.185 2.589-.74 3.698a8.175 8.175 0 0 1-2.219 2.774c-.925.74-2.219 1.48-3.514 1.85-1.294.369-2.958.554-4.623.554-1.479 0-2.774-.185-3.883-.369-1.11-.37-2.035-.74-2.959-1.295-.925-.555-1.665-1.11-2.219-1.849-.74-.74-1.11-1.48-1.665-2.219l4.254-3.144 1.109 1.664c.37.555.925.925 1.48 1.295.554.37 1.109.739 1.849.924.74.185 1.479.37 2.219.37 1.664 0 2.959-.37 3.884-1.294.924-.74 1.294-1.85 1.294-3.329v.185c0-1.48-.555-2.404-1.479-3.144-.925-.74-2.404-1.109-4.254-1.109h-2.958v-4.809h2.404ZM305.501 118.724c-1.664 0-3.328-.37-4.623-.925-1.294-.555-2.589-1.294-3.513-2.404-.925-1.109-1.665-2.219-2.22-3.698-.554-1.48-.739-3.144-.739-4.993 0-2.22.37-4.254.924-6.103.555-1.85 1.48-3.699 2.589-5.363 1.11-1.664 2.22-2.959 3.514-4.253 1.295-1.295 2.589-2.404 3.884-3.144h7.767c-1.85 1.294-3.329 2.589-4.809 3.698-1.479 1.11-2.589 2.404-3.698 3.699-1.11 1.294-1.849 2.404-2.589 3.883-.74 1.295-1.11 2.774-1.48 4.254h.37c.37-.555.555-1.11 1.11-1.665l1.479-1.479c.555-.555 1.11-.74 1.85-.925.739-.184 1.664-.37 2.589-.37 1.294 0 2.404.185 3.513.555 1.11.37 2.034 1.11 2.774 1.85.74.739 1.48 1.849 1.849 2.958.37 1.11.74 2.405.74 3.884s-.185 2.959-.74 4.253c-.554 1.295-1.294 2.404-2.219 3.329-.924.925-2.034 1.664-3.513 2.219-1.665.37-3.144.74-4.809.74Zm0-4.438c1.665 0 2.774-.37 3.699-1.295.925-.925 1.295-2.219 1.295-3.698v-.555c0-1.665-.37-2.959-1.295-3.699-.925-.924-2.219-1.294-3.699-1.294-1.479 0-2.958.37-3.698 1.294-.925.925-1.295 2.219-1.295 3.699v.37c0 1.664.37 2.958 1.295 3.698.74.925 2.034 1.48 3.698 1.48ZM331.391 118.724c-2.034 0-3.698-.37-4.993-1.109-1.479-.74-2.589-1.665-3.513-3.144-.925-1.48-1.665-2.959-2.034-4.993-.37-1.85-.74-4.069-.74-6.658 0-2.589.185-4.623.74-6.657.554-2.034 1.109-3.514 2.034-4.993.924-1.48 2.034-2.404 3.513-3.144 1.48-.74 3.144-1.11 4.993-1.11 3.884 0 6.658 1.295 8.507 4.069 1.849 2.774 2.774 6.657 2.774 11.465 0 4.809-.925 8.877-2.774 11.466-1.849 3.514-4.623 4.808-8.507 4.808Zm0-4.808c2.035 0 3.329-.74 4.069-2.219.74-1.48 1.109-3.514 1.109-5.918v-5.548c0-2.404-.369-4.438-1.109-5.917-.74-1.48-2.034-2.22-4.069-2.22-2.034 0-3.328.74-4.068 2.22-.74 1.48-1.11 3.513-1.11 5.917v5.548c0 2.404.37 4.438 1.11 5.918.74 1.479 2.034 2.219 4.068 2.219Z"/></svg>