<svg xmlns="http://www.w3.org/2000/svg" width="400" height="400" fill="none" viewBox="0 0 400 400"><path fill="#444" d="M195.099 351.364c30.028 0 54.369-65.326 54.369-145.909S225.127 59.547 195.099 59.547c-30.027 0-54.369 65.325-54.369 145.908 0 80.583 24.342 145.909 54.369 145.909Z"/><path fill="#444" d="M226.434 249.924c65.86-46.424 105.228-103.952 87.929-128.494-17.299-24.54-84.712-6.801-150.573 39.622-65.86 46.424-105.228 103.953-87.929 128.494 17.299 24.541 84.712 6.802 150.573-39.622Z"/><path fill="#444" d="M314.358 289.567c17.298-24.541-22.069-82.07-87.929-128.493C160.568 114.65 93.154 96.91 75.856 121.451c-17.299 24.542 22.068 82.07 87.929 128.494 65.86 46.424 133.274 64.163 150.573 39.622Z"/><path fill="#fff" d="M200.832 345.816c30.027 0 54.369-65.326 54.369-145.909S230.859 53.999 200.832 53.999s-54.369 65.325-54.369 145.908c0 80.583 24.342 145.909 54.369 145.909Z"/><path fill="#fff" d="M232.139 244.388c65.861-46.424 105.228-103.952 87.93-128.493-17.299-24.541-84.713-6.802-150.573 39.622-65.861 46.424-105.228 103.952-87.93 128.493 17.3 24.542 84.713 6.802 150.573-39.622Z"/><path fill="#fff" d="M320.059 284.053c17.298-24.542-22.069-82.07-87.929-128.494-65.861-46.424-133.275-64.163-150.573-39.622-17.299 24.541 22.068 82.07 87.929 128.493 65.86 46.424 133.274 64.164 150.573 39.623Z"/><path fill="#DADADA" d="M204.716 340.453c30.027 0 54.369-65.325 54.369-145.908 0-80.583-24.342-145.909-54.369-145.909-30.028 0-54.369 65.326-54.369 145.909s24.341 145.908 54.369 145.908Z"/><path fill="#DADADA" d="M236.069 238.988c65.861-46.423 105.228-103.952 87.929-128.493-17.298-24.541-84.712-6.802-150.573 39.622-65.86 46.424-105.227 103.952-87.929 128.494 17.299 24.541 84.713 6.801 150.573-39.623Z"/><path fill="#DADADA" d="M324 278.617c17.298-24.542-22.069-82.07-87.929-128.494-65.861-46.424-133.275-64.163-150.573-39.622-17.299 24.541 22.068 82.069 87.929 128.493 65.86 46.424 133.274 64.164 150.573 39.623Z"/><path fill="#fff" d="M253.352 199.908c0 9.431-.37 18.677-.925 27.739-7.027 5.733-14.424 11.28-22.006 16.643-10.541 7.397-20.897 14.055-31.253 19.973-10.356-5.918-20.897-12.576-31.253-19.973-7.767-5.363-15.164-11.095-22.006-16.828-.555-8.877-.925-18.123-.925-27.739 0-9.617.37-18.678.925-27.74 7.027-5.732 14.424-11.28 22.006-16.828 10.541-7.397 20.897-14.055 31.253-19.972 10.356 5.917 20.897 12.575 31.253 19.972 7.767 5.363 15.164 11.096 22.006 16.828.74 9.247.925 18.493.925 27.925Z"/><path fill="#F5F4F3" d="M167.73 244.29c10.541 7.398 20.897 14.055 31.253 19.973-15.349 8.691-30.328 15.719-44.198 20.712-4.438-16.829-7.767-36.246-9.246-57.513 7.027 5.918 14.424 11.465 22.191 16.828ZM243.181 114.84c4.438 16.829 7.767 36.246 9.246 57.513-7.027-5.733-14.424-11.281-22.006-16.828-10.541-7.398-20.897-14.055-31.253-19.973 15.164-8.691 30.143-15.534 44.013-20.712Z"/><path fill="#F5F4F3" d="M145.724 172.353c-.555 8.877-.925 18.123-.925 27.739 0 9.617.37 18.678.925 27.74-11.096-9.062-21.267-18.493-29.959-27.74 8.692-9.431 18.863-18.677 29.959-27.739ZM198.983 135.552c-10.356 5.918-20.897 12.575-31.253 19.973-7.767 5.362-15.164 11.095-22.006 16.828 1.479-21.082 4.808-40.684 9.246-57.513 13.87 4.993 28.849 12.021 44.013 20.712ZM230.421 244.29c7.767-5.363 15.164-11.095 22.006-16.828-1.479 21.082-4.808 40.684-9.246 57.513-13.87-5.178-28.849-12.021-44.198-20.712a402.173 402.173 0 0 0 31.438-19.973ZM282.571 199.908c-8.877 9.246-18.863 18.493-29.959 27.739.74-8.877.925-18.123.925-27.739 0-9.617-.37-18.678-.925-27.74 10.911 9.247 21.082 18.493 29.959 27.74Z"/><path fill="#222" d="M198.983 347.295c-15.164 0-29.219-15.534-39.759-43.643-10.356-27.739-16.089-64.54-16.089-103.745 0-39.204 5.733-76.005 16.089-103.744 10.54-28.11 24.595-43.643 39.759-43.643 15.164 0 29.219 15.533 39.76 43.643 10.356 27.739 16.088 64.54 16.088 103.744 0 39.205-5.732 76.006-16.088 103.745-10.356 28.109-24.596 43.643-39.76 43.643Zm0-291.817c-29.219 0-52.889 64.725-52.889 144.429 0 79.705 23.67 144.429 52.889 144.429s52.89-64.909 52.89-144.429c0-79.519-23.671-144.429-52.89-144.429Z"/><path fill="#222" d="M289.968 296.44c-8.322 0-18.123-1.479-29.034-4.253-28.664-7.582-61.951-24.041-93.944-46.602-31.992-22.561-58.807-48.451-75.45-72.862-17.014-24.78-21.637-45.307-12.945-57.697 8.691-12.391 29.588-14.98 58.622-7.397 28.664 7.582 61.951 24.04 93.943 46.601 31.993 22.562 58.808 48.452 75.451 72.862 17.014 24.781 21.452 45.308 12.76 57.698-5.363 7.767-15.534 11.65-29.403 11.65ZM80.998 116.69c-16.828 23.856 22.562 80.629 87.657 126.491 31.807 22.376 64.725 38.835 93.019 46.232 27.924 7.397 47.526 5.178 55.663-6.287 7.952-11.281 3.514-30.699-12.76-54.369-16.459-24.226-43.088-49.746-74.896-72.122-65.28-45.863-131.854-63.8-148.682-39.945Z"/><path fill="#222" d="M108.183 296.44c-13.87 0-24.04-3.883-29.404-11.65-8.691-12.39-4.253-32.917 12.76-57.698 16.644-24.41 43.459-50.3 75.451-72.862 31.993-22.561 65.28-39.019 93.944-46.601 29.034-7.583 49.746-4.994 58.622 7.397 8.692 12.39 4.253 32.917-12.76 57.697-16.644 24.411-43.458 50.301-75.451 72.862-31.992 22.561-65.279 39.02-93.943 46.602-11.096 2.774-20.897 4.253-29.219 4.253Zm60.287-139.805C103.375 202.497 63.985 259.27 80.814 283.126c16.828 23.855 83.587 5.917 148.682-39.945 65.095-45.862 104.484-102.635 87.656-126.491-7.952-11.281-27.739-13.5-55.663-6.288-28.294 7.398-61.397 23.856-93.019 46.233Z"/><path fill="#FF3158" d="M200.832 234.859c18.792 0 34.027-15.235 34.027-34.027s-15.235-34.027-34.027-34.027-34.027 15.235-34.027 34.027 15.235 34.027 34.027 34.027Z"/><path fill="#222" d="M200.832 236.153c-19.417 0-35.321-15.903-35.321-35.321 0-19.417 15.904-35.321 35.321-35.321 19.418 0 35.321 15.904 35.321 35.321.185 19.602-15.719 35.321-35.321 35.321Zm0-67.868c-17.938 0-32.547 14.609-32.547 32.547 0 17.938 14.609 32.547 32.547 32.547 17.938 0 32.547-14.609 32.547-32.547 0-17.938-14.424-32.547-32.547-32.547Z"/></svg>