<svg xmlns="http://www.w3.org/2000/svg" width="400" height="401" fill="none" viewBox="0 0 400 401"><path fill="#DADADA" d="M204.161 362.96 39.945 269.941l164.401-78.595 164.216 78.595-164.401 93.019Z"/><path fill="#222" d="m204.346 372.946-167.36-94.683 167.36-79.889.555.369 166.62 79.705-2.404 1.294-164.771 93.204ZM42.903 278.448l161.258 91.354 161.442-91.354-161.257-77.116-161.443 77.116Z"/><path fill="#DADADA" d="m204.346 181.545-128.71-72.862 128.71-61.396 128.71 61.396-128.71 72.862Z"/><path fill="#F5F4F3" d="m204.346 336.7-128.71-72.677v-155.34l128.71 72.862V336.7Z"/><path fill="#FF3158" d="m204.346 336.7 128.71-72.677v-155.34l-128.71 72.862V336.7Z"/><path fill="#222" d="M208.229 188.942c0 3.699 3.144 6.842 6.843 6.842 3.698 0 6.842-3.143 6.842-6.842s-3.144-6.842-6.842-6.842c-3.699 0-6.843 2.958-6.843 6.842ZM208.229 207.62c0 3.698 3.144 6.842 6.843 6.842 3.698 0 6.842-3.144 6.842-6.842 0-3.699-3.144-6.843-6.842-6.843-3.699 0-6.843 3.144-6.843 6.843ZM208.229 226.482c0 3.699 3.144 6.843 6.843 6.843 3.698 0 6.842-3.144 6.842-6.843 0-3.698-3.144-6.842-6.842-6.842-3.699 0-6.843 2.959-6.843 6.842ZM208.229 245.16c0 3.699 3.144 6.843 6.843 6.843 3.698 0 6.842-2.959 6.842-6.843 0-3.883-3.144-6.842-6.842-6.842-3.699 0-6.843 3.144-6.843 6.842ZM208.229 263.838c0 3.699 3.144 6.842 6.843 6.842 3.698 0 6.842-2.959 6.842-6.842 0-3.884-3.144-6.842-6.842-6.842-3.699 0-6.843 3.143-6.843 6.842ZM208.229 282.701c0 3.698 3.144 6.842 6.843 6.842 3.698 0 6.842-2.959 6.842-6.842 0-3.884-3.144-6.843-6.842-6.843-3.699 0-6.843 3.144-6.843 6.843ZM208.229 301.378c0 3.699 3.144 6.843 6.843 6.843 3.698 0 6.842-2.959 6.842-6.843 0-3.883-3.144-6.842-6.842-6.842-3.699 0-6.843 3.144-6.843 6.842ZM208.229 320.241c0 3.699 3.144 6.843 6.843 6.843 3.698 0 6.842-2.959 6.842-6.843 0-3.883-3.144-6.842-6.842-6.842-3.699 0-6.843 3.144-6.843 6.842ZM225.243 179.141c0 3.698 3.143 6.842 6.842 6.842s6.842-3.144 6.842-6.842c0-3.699-3.143-6.843-6.842-6.843s-6.842 3.144-6.842 6.843ZM225.243 198.003c0 3.699 3.143 6.843 6.842 6.843s6.842-3.144 6.842-6.843c0-3.698-3.143-6.842-6.842-6.842s-6.842 2.959-6.842 6.842ZM225.243 216.681c0 3.699 3.143 6.843 6.842 6.843s6.842-3.144 6.842-6.843c0-3.698-3.143-6.842-6.842-6.842s-6.842 3.144-6.842 6.842ZM225.243 235.544c0 3.699 3.143 6.842 6.842 6.842s6.842-2.959 6.842-6.842c0-3.883-3.143-6.842-6.842-6.842s-6.842 2.959-6.842 6.842ZM225.243 254.222c0 3.698 3.143 6.842 6.842 6.842s6.842-2.959 6.842-6.842c0-3.884-3.143-6.843-6.842-6.843s-6.842 3.144-6.842 6.843ZM225.243 273.085c0 3.698 3.143 6.842 6.842 6.842s6.842-2.959 6.842-6.842c0-3.884-3.143-6.843-6.842-6.843s-6.842 2.959-6.842 6.843ZM225.243 291.762c0 3.699 3.143 6.843 6.842 6.843s6.842-2.959 6.842-6.843c0-3.883-3.143-6.842-6.842-6.842s-6.842 3.144-6.842 6.842ZM225.243 310.44c0 3.699 3.143 6.842 6.842 6.842s6.842-2.958 6.842-6.842c0-3.883-3.143-6.842-6.842-6.842s-6.842 3.143-6.842 6.842ZM243.551 167.675a5.367 5.367 0 0 0 5.363 5.363 5.367 5.367 0 0 0 5.363-5.363 5.368 5.368 0 0 0-5.363-5.363 5.367 5.367 0 0 0-5.363 5.363ZM243.551 182.654a5.367 5.367 0 0 0 5.363 5.363 5.367 5.367 0 0 0 5.363-5.363 5.367 5.367 0 0 0-5.363-5.362 5.367 5.367 0 0 0-5.363 5.362ZM243.551 197.633a5.367 5.367 0 0 0 5.363 5.363 5.367 5.367 0 0 0 5.363-5.363 5.367 5.367 0 0 0-5.363-5.362 5.367 5.367 0 0 0-5.363 5.362ZM243.551 212.613a5.367 5.367 0 0 0 5.363 5.363 5.367 5.367 0 0 0 5.363-5.363 5.367 5.367 0 0 0-5.363-5.363c-2.959 0-5.363 2.219-5.363 5.363ZM243.551 227.592a5.367 5.367 0 0 0 5.363 5.363 5.367 5.367 0 0 0 5.363-5.363 5.367 5.367 0 0 0-5.363-5.363c-2.959 0-5.363 2.219-5.363 5.363ZM243.551 242.386a5.367 5.367 0 0 0 5.363 5.363 5.367 5.367 0 0 0 5.363-5.363 5.368 5.368 0 0 0-5.363-5.363 5.367 5.367 0 0 0-5.363 5.363ZM243.551 257.365a5.367 5.367 0 0 0 5.363 5.363 5.367 5.367 0 0 0 5.363-5.363 5.367 5.367 0 0 0-5.363-5.363 5.367 5.367 0 0 0-5.363 5.363ZM243.551 272.345a5.367 5.367 0 0 0 5.363 5.363 5.367 5.367 0 0 0 5.363-5.363 5.367 5.367 0 0 0-5.363-5.363 5.367 5.367 0 0 0-5.363 5.363ZM243.551 287.324a5.367 5.367 0 0 0 5.363 5.363 5.367 5.367 0 0 0 5.363-5.363 5.367 5.367 0 0 0-5.363-5.363 5.367 5.367 0 0 0-5.363 5.363ZM243.551 301.194a5.367 5.367 0 0 0 5.363 5.362 5.367 5.367 0 0 0 5.363-5.362 5.367 5.367 0 0 0-5.363-5.363c-2.959 0-5.363 2.219-5.363 5.363ZM259.639 158.244a5.367 5.367 0 0 0 5.363 5.363 5.367 5.367 0 0 0 5.363-5.363 5.367 5.367 0 0 0-5.363-5.363 5.367 5.367 0 0 0-5.363 5.363ZM259.639 173.223a5.367 5.367 0 0 0 5.363 5.363 5.367 5.367 0 0 0 5.363-5.363 5.367 5.367 0 0 0-5.363-5.363 5.367 5.367 0 0 0-5.363 5.363ZM259.639 188.017a5.367 5.367 0 0 0 5.363 5.363 5.367 5.367 0 0 0 5.363-5.363 5.367 5.367 0 0 0-5.363-5.363 5.367 5.367 0 0 0-5.363 5.363ZM259.639 202.997a5.367 5.367 0 0 0 5.363 5.363 5.367 5.367 0 0 0 5.363-5.363 5.367 5.367 0 0 0-5.363-5.363 5.367 5.367 0 0 0-5.363 5.363ZM259.639 217.976a5.367 5.367 0 0 0 5.363 5.363 5.367 5.367 0 0 0 5.363-5.363 5.367 5.367 0 0 0-5.363-5.363 5.367 5.367 0 0 0-5.363 5.363ZM259.639 232.955a5.367 5.367 0 0 0 5.363 5.363 5.367 5.367 0 0 0 5.363-5.363 5.367 5.367 0 0 0-5.363-5.363 5.367 5.367 0 0 0-5.363 5.363ZM259.639 247.934a5.367 5.367 0 0 0 5.363 5.363 5.367 5.367 0 0 0 5.363-5.363 5.367 5.367 0 0 0-5.363-5.363 5.367 5.367 0 0 0-5.363 5.363ZM259.639 262.913a5.367 5.367 0 0 0 5.363 5.363 5.367 5.367 0 0 0 5.363-5.363 5.367 5.367 0 0 0-5.363-5.363c-2.959 0-5.363 2.219-5.363 5.363ZM259.639 277.708a5.367 5.367 0 0 0 5.363 5.363 5.367 5.367 0 0 0 5.363-5.363 5.367 5.367 0 0 0-5.363-5.363 5.367 5.367 0 0 0-5.363 5.363ZM259.639 291.577a5.367 5.367 0 0 0 5.363 5.363 5.367 5.367 0 0 0 5.363-5.363 5.367 5.367 0 0 0-5.363-5.363 5.367 5.367 0 0 0-5.363 5.363ZM276.098 147.333c0 2.404 1.849 4.253 4.253 4.253s4.254-1.849 4.254-4.253-1.85-4.253-4.254-4.253c-2.404 0-4.253 1.849-4.253 4.253ZM276.098 162.682c0 2.404 1.849 4.253 4.253 4.253s4.254-1.849 4.254-4.253-1.85-4.253-4.254-4.253c-2.404 0-4.253 1.849-4.253 4.253ZM276.098 177.846c0 2.404 1.849 4.253 4.253 4.253s4.254-1.849 4.254-4.253-1.85-4.253-4.254-4.253c-2.404 0-4.253 2.034-4.253 4.253ZM276.098 193.195c0 2.404 1.849 4.254 4.253 4.254s4.254-1.85 4.254-4.254c0-2.404-1.85-4.253-4.254-4.253-2.404 0-4.253 2.034-4.253 4.253ZM276.098 208.544c0 2.404 1.849 4.254 4.253 4.254s4.254-1.85 4.254-4.254c0-2.404-1.85-4.253-4.254-4.253-2.404 0-4.253 2.034-4.253 4.253ZM276.098 223.893c0 2.405 1.849 4.254 4.253 4.254s4.254-1.849 4.254-4.254c0-2.404-1.85-4.253-4.254-4.253-2.404 0-4.253 1.849-4.253 4.253ZM276.098 239.243c0 2.404 1.849 4.253 4.253 4.253s4.254-1.849 4.254-4.253-1.85-4.254-4.254-4.254c-2.404 0-4.253 1.85-4.253 4.254ZM276.098 254.592c0 2.404 1.849 4.253 4.253 4.253s4.254-1.849 4.254-4.253-1.85-4.254-4.254-4.254c-2.404 0-4.253 1.85-4.253 4.254ZM276.098 269.94c0 2.404 1.849 4.254 4.253 4.254s4.254-1.85 4.254-4.254c0-2.404-1.85-4.253-4.254-4.253-2.404 0-4.253 1.849-4.253 4.253ZM276.098 285.105c0 2.404 1.849 4.253 4.253 4.253s4.254-1.849 4.254-4.253-1.85-4.253-4.254-4.253c-2.404 0-4.253 2.034-4.253 4.253ZM291.817 138.271c0 2.404 1.849 4.254 4.253 4.254s4.254-1.85 4.254-4.254c0-2.404-1.85-4.253-4.254-4.253-2.404 0-4.253 1.849-4.253 4.253ZM291.817 153.621c0 2.404 1.849 4.253 4.253 4.253s4.254-1.849 4.254-4.253c0-2.405-1.85-4.254-4.254-4.254-2.404 0-4.253 1.849-4.253 4.254ZM291.817 168.97c0 2.404 1.849 4.253 4.253 4.253s4.254-1.849 4.254-4.253-1.85-4.254-4.254-4.254c-2.404 0-4.253 1.85-4.253 4.254ZM291.817 184.134c0 2.404 1.849 4.253 4.253 4.253s4.254-1.849 4.254-4.253-1.85-4.254-4.254-4.254c-2.404 0-4.253 2.035-4.253 4.254ZM291.817 199.483c0 2.404 1.849 4.253 4.253 4.253s4.254-1.849 4.254-4.253-1.85-4.254-4.254-4.254c-2.404 0-4.253 2.035-4.253 4.254ZM291.817 214.832c0 2.404 1.849 4.253 4.253 4.253s4.254-1.849 4.254-4.253-1.85-4.253-4.254-4.253c-2.404 0-4.253 2.034-4.253 4.253ZM291.817 230.181c0 2.404 1.849 4.253 4.253 4.253s4.254-1.849 4.254-4.253-1.85-4.253-4.254-4.253c-2.404 0-4.253 1.849-4.253 4.253ZM291.817 245.53c0 2.404 1.849 4.254 4.253 4.254s4.254-1.85 4.254-4.254c0-2.404-1.85-4.253-4.254-4.253-2.404 0-4.253 1.849-4.253 4.253ZM291.817 260.879c0 2.404 1.849 4.254 4.253 4.254s4.254-1.85 4.254-4.254c0-2.404-1.85-4.253-4.254-4.253-2.404 0-4.253 1.849-4.253 4.253ZM291.817 276.043c0 2.404 1.849 4.254 4.253 4.254s4.254-1.85 4.254-4.254c0-2.404-1.85-4.253-4.254-4.253-2.404 0-4.253 2.034-4.253 4.253ZM307.906 129.21a3.315 3.315 0 0 0 3.328 3.329c1.85 0 3.329-1.48 3.329-3.329a3.315 3.315 0 0 0-3.329-3.329 3.315 3.315 0 0 0-3.328 3.329ZM307.906 143.08a3.314 3.314 0 0 0 3.328 3.328 3.314 3.314 0 0 0 3.329-3.328 3.314 3.314 0 0 0-3.329-3.329 3.314 3.314 0 0 0-3.328 3.329ZM307.906 156.949a3.314 3.314 0 0 0 3.328 3.329 3.314 3.314 0 0 0 3.329-3.329 3.314 3.314 0 0 0-3.329-3.328c-1.849 0-3.328 1.664-3.328 3.328ZM307.906 171.004a3.315 3.315 0 0 0 3.328 3.329c1.85 0 3.329-1.48 3.329-3.329a3.315 3.315 0 0 0-3.329-3.329 3.315 3.315 0 0 0-3.328 3.329ZM307.906 184.874a3.314 3.314 0 0 0 3.328 3.328 3.314 3.314 0 0 0 3.329-3.328 3.314 3.314 0 0 0-3.329-3.329 3.314 3.314 0 0 0-3.328 3.329ZM307.906 198.743a3.314 3.314 0 0 0 3.328 3.329 3.314 3.314 0 0 0 3.329-3.329 3.314 3.314 0 0 0-3.329-3.328 3.314 3.314 0 0 0-3.328 3.328ZM307.906 212.613a3.315 3.315 0 0 0 3.328 3.329c1.85 0 3.329-1.48 3.329-3.329a3.315 3.315 0 0 0-3.329-3.329 3.315 3.315 0 0 0-3.328 3.329ZM307.906 226.483a3.314 3.314 0 0 0 3.328 3.328 3.314 3.314 0 0 0 3.329-3.328 3.314 3.314 0 0 0-3.329-3.329 3.314 3.314 0 0 0-3.328 3.329ZM307.906 240.352a3.315 3.315 0 0 0 3.328 3.329c1.85 0 3.329-1.48 3.329-3.329a3.315 3.315 0 0 0-3.329-3.329 3.315 3.315 0 0 0-3.328 3.329ZM307.906 254.222a3.314 3.314 0 0 0 3.328 3.328 3.314 3.314 0 0 0 3.329-3.328 3.314 3.314 0 0 0-3.329-3.329c-1.849 0-3.328 1.664-3.328 3.329ZM307.906 268.276a3.315 3.315 0 0 0 3.328 3.329c1.85 0 3.329-1.48 3.329-3.329a3.315 3.315 0 0 0-3.329-3.329 3.315 3.315 0 0 0-3.328 3.329ZM322.515 120.149a3.314 3.314 0 0 0 3.329 3.328 3.314 3.314 0 0 0 3.328-3.328 3.314 3.314 0 0 0-3.328-3.329 3.314 3.314 0 0 0-3.329 3.329ZM322.515 134.203a3.314 3.314 0 0 0 3.329 3.329 3.314 3.314 0 0 0 3.328-3.329 3.314 3.314 0 0 0-3.328-3.328 3.314 3.314 0 0 0-3.329 3.328ZM322.515 148.073a3.315 3.315 0 0 0 3.329 3.329 3.315 3.315 0 0 0 3.328-3.329 3.315 3.315 0 0 0-3.328-3.329 3.315 3.315 0 0 0-3.329 3.329ZM322.515 162.128a3.314 3.314 0 0 0 3.329 3.328 3.314 3.314 0 0 0 3.328-3.328 3.314 3.314 0 0 0-3.328-3.329 3.314 3.314 0 0 0-3.329 3.329ZM322.515 175.997a3.315 3.315 0 0 0 3.329 3.329 3.315 3.315 0 0 0 3.328-3.329 3.315 3.315 0 0 0-3.328-3.329 3.315 3.315 0 0 0-3.329 3.329ZM322.515 189.867a3.315 3.315 0 0 0 3.329 3.329 3.315 3.315 0 0 0 3.328-3.329 3.315 3.315 0 0 0-3.328-3.329c-1.85 0-3.329 1.664-3.329 3.329ZM322.515 203.921a3.315 3.315 0 0 0 3.329 3.329 3.315 3.315 0 0 0 3.328-3.329 3.315 3.315 0 0 0-3.328-3.329 3.315 3.315 0 0 0-3.329 3.329ZM322.515 217.791a3.314 3.314 0 0 0 3.329 3.328 3.314 3.314 0 0 0 3.328-3.328 3.314 3.314 0 0 0-3.328-3.329 3.314 3.314 0 0 0-3.329 3.329ZM322.515 231.845a3.314 3.314 0 0 0 3.329 3.329 3.314 3.314 0 0 0 3.328-3.329 3.314 3.314 0 0 0-3.328-3.328 3.314 3.314 0 0 0-3.329 3.328ZM322.515 245.715a3.315 3.315 0 0 0 3.329 3.329 3.315 3.315 0 0 0 3.328-3.329 3.315 3.315 0 0 0-3.328-3.329 3.315 3.315 0 0 0-3.329 3.329ZM322.515 259.585a3.314 3.314 0 0 0 3.329 3.328 3.314 3.314 0 0 0 3.328-3.328 3.314 3.314 0 0 0-3.328-3.329c-1.85 0-3.329 1.664-3.329 3.329ZM199.353 53.944c-1.85 3.33-.74 7.398 2.404 9.247 3.144 1.85 7.397.74 9.246-2.404 1.849-3.144.74-7.397-2.404-9.247-3.144-1.849-7.212-.74-9.246 2.404ZM217.106 62.821c-1.849 3.329-.74 7.397 2.404 9.246 3.144 1.85 7.397.74 9.246-2.404 1.85-3.143.74-7.397-2.404-9.246-3.144-2.034-7.397-.925-9.246 2.404ZM234.674 71.512c-1.849 3.33-.74 7.397 2.404 9.247 3.329 1.85 7.397.74 9.247-2.404 1.849-3.144.739-7.397-2.404-9.247-3.144-1.849-7.398-.74-9.247 2.404ZM252.242 80.204c-1.849 3.329-.739 7.397 2.404 9.247 3.329 1.849 7.397.74 9.247-2.404 1.849-3.144.739-7.397-2.404-9.247-3.144-1.85-7.213-.74-9.247 2.404ZM269.995 89.08c-1.849 3.33-.739 7.398 2.404 9.247 3.144 1.85 7.398.74 9.247-2.404 1.849-3.144.74-7.397-2.404-9.246-3.144-2.035-7.397-.925-9.247 2.404ZM287.564 97.772c-1.85 3.329-.74 7.397 2.404 9.247 3.328 1.849 7.397.739 9.246-2.405 1.849-3.143.74-7.397-2.404-9.246-3.144-1.85-7.397-.925-9.246 2.404ZM305.132 106.464c-1.85 3.329-.74 7.397 2.404 9.246 3.144 1.85 7.397.74 9.246-2.404 1.85-3.143.74-7.397-2.404-9.246-3.144-1.849-7.212-.74-9.246 2.404ZM180.49 62.82c-1.849 3.33-.74 7.398 2.404 9.247 3.144 1.85 7.397.74 9.247-2.404 1.849-3.144.739-7.397-2.405-9.246-3.143-1.85-7.397-.925-9.246 2.404ZM198.058 71.512c-1.849 3.33-.739 7.397 2.404 9.247 3.144 1.85 7.397.74 9.247-2.404 1.849-3.144.739-7.397-2.404-9.247-3.144-1.849-7.213-.74-9.247 2.404ZM215.811 80.204c-1.849 3.329-.739 7.397 2.404 9.247 3.144 1.849 7.398.74 9.247-2.404 1.849-3.144.74-7.397-2.404-9.247-3.144-1.85-7.397-.74-9.247 2.404ZM233.38 89.08c-1.85 3.33-.74 7.398 2.404 9.247 3.143 1.85 7.397.74 9.246-2.404 1.849-3.144.74-7.397-2.404-9.246-3.144-2.035-7.397-.925-9.246 2.404ZM250.948 97.772c-1.85 3.329-.74 7.397 2.404 9.247 3.329 1.849 7.397.739 9.246-2.405 1.85-3.143.74-7.397-2.404-9.246-3.144-1.85-7.212-.925-9.246 2.404ZM268.701 106.464c-1.849 3.329-.74 7.397 2.404 9.246 3.144 1.85 7.397.74 9.246-2.404 1.85-3.143.74-7.397-2.404-9.246-3.328-1.849-7.397-.74-9.246 2.404ZM286.269 115.155c-1.849 3.329-.74 7.398 2.404 9.247 3.144 1.849 7.397.74 9.247-2.404 1.849-3.144.739-7.397-2.405-9.247-3.143-1.849-7.397-.739-9.246 2.404ZM167.175 79.65c2.589 1.294 5.918.369 7.212-2.405 1.295-2.774.37-5.918-2.404-7.212-2.589-1.295-5.917-.37-7.212 2.404-1.294 2.774-.37 5.733 2.404 7.212ZM180.86 86.492c2.589 1.294 5.918.37 7.212-2.405 1.295-2.773.37-5.917-2.404-7.212-2.774-1.294-5.918-.37-7.212 2.404-1.295 2.59-.37 5.918 2.404 7.213ZM194.545 93.519c2.589 1.294 5.917.37 7.212-2.404 1.294-2.774.37-5.918-2.404-7.212-2.589-1.295-5.918-.37-7.212 2.404-1.295 2.773-.185 5.732 2.404 7.212ZM208.229 100.361c2.589 1.295 5.918.37 7.212-2.404 1.295-2.774.37-5.918-2.404-7.212-2.774-1.295-5.917-.37-7.212 2.404-1.294 2.589-.185 5.918 2.404 7.212ZM221.914 107.388c2.589 1.295 5.918.37 7.212-2.404 1.295-2.774.37-5.917-2.404-7.212-2.589-1.294-5.918-.37-7.212 2.404-1.295 2.774-.185 5.733 2.404 7.212ZM235.599 114.231c2.589 1.294 5.917.37 7.212-2.404 1.294-2.774.185-5.918-2.404-7.213-2.589-1.294-5.918-.369-7.212 2.405-1.295 2.773-.185 5.917 2.404 7.212ZM249.468 121.258c2.589 1.295 5.918.37 7.213-2.404 1.294-2.774.184-5.918-2.405-7.212-2.589-1.295-5.917-.37-7.212 2.404-1.294 2.774-.37 5.918 2.404 7.212ZM263.153 128.1c2.589 1.295 5.918.37 7.212-2.404 1.295-2.589.185-5.917-2.404-7.212-2.589-1.294-5.918-.37-7.212 2.404-1.479 2.589-.37 5.918 2.404 7.212ZM276.838 135.128c2.589 1.294 5.917.37 7.212-2.404 1.294-2.774.185-5.918-2.404-7.213-2.589-1.294-5.918-.369-7.212 2.404-1.295 2.589-.37 5.918 2.404 7.213ZM150.902 87.971c2.589 1.294 5.917.37 7.212-2.404 1.294-2.774.37-5.918-2.404-7.212-2.774-1.295-5.918-.37-7.213 2.404-1.294 2.774-.184 5.918 2.405 7.212ZM164.586 94.998c2.589 1.295 5.918.37 7.212-2.404 1.295-2.774.37-5.917-2.404-7.212-2.774-1.294-5.917-.37-7.212 2.404-1.294 2.59-.185 5.918 2.404 7.212ZM178.271 101.841c2.589 1.294 5.918.369 7.212-2.404 1.295-2.774.37-5.918-2.404-7.213-2.774-1.294-5.918-.37-7.212 2.404-1.295 2.774-.185 5.918 2.404 7.213ZM191.956 108.868c2.589 1.294 5.917.37 7.212-2.404 1.294-2.774.37-5.918-2.404-7.212-2.774-1.295-5.918-.37-7.212 2.404-1.295 2.589-.185 5.917 2.404 7.212ZM205.64 115.895c2.589 1.295 5.918.37 7.213-2.404 1.294-2.774.369-5.918-2.405-7.212-2.589-1.295-5.917-.37-7.212 2.404-1.294 2.774-.185 5.733 2.404 7.212ZM219.51 122.738c2.589 1.294 5.918.369 7.212-2.405 1.295-2.773.37-5.917-2.404-7.212-2.774-1.294-5.918-.37-7.212 2.404-1.295 2.774-.37 5.918 2.404 7.213ZM233.195 129.765c2.589 1.294 5.917.37 7.212-2.404 1.294-2.774.185-5.918-2.404-7.212-2.589-1.295-5.918-.37-7.212 2.404-1.48 2.589-.37 5.732 2.404 7.212ZM246.879 136.607c2.589 1.295 5.918.37 7.213-2.404 1.294-2.589.184-5.918-2.405-7.212-2.589-1.295-5.917-.37-7.212 2.404-1.294 2.774-.185 5.918 2.404 7.212ZM260.564 143.635c2.589 1.294 5.918.369 7.212-2.405 1.295-2.589.185-5.917-2.404-7.212-2.589-1.294-5.918-.37-7.212 2.404-1.295 2.589-.185 5.733 2.404 7.213ZM250.948 144.374c-2.034-1.109-4.623-.185-5.733 1.849-1.11 2.035-.185 4.624 1.849 5.733 2.035 1.11 4.624.185 5.733-1.849 1.11-2.034.185-4.623-1.849-5.733ZM236.523 137.162c-2.034-1.109-4.623-.185-5.732 1.849-1.11 2.035-.185 4.624 1.849 5.733 2.034 1.11 4.623.185 5.733-1.849 1.109-2.034.185-4.623-1.85-5.733ZM222.284 130.135c-2.034-1.11-4.623-.185-5.733 1.849-1.109 2.034-.185 4.623 1.849 5.733 2.035 1.109 4.624.185 5.733-1.849 1.11-2.035.185-4.809-1.849-5.733ZM207.859 122.922c-2.034-1.109-4.623-.185-5.732 1.85-1.11 2.034-.185 4.623 1.849 5.732 2.034 1.11 4.623.185 5.733-1.849 1.109-2.034.185-4.808-1.85-5.733ZM193.435 115.711c-2.034-1.11-4.623-.185-5.733 1.849-1.109 2.034-.185 4.623 1.849 5.733 2.035 1.109 4.624.185 5.733-1.85 1.11-2.034.37-4.808-1.849-5.732ZM179.196 108.498c-2.035-1.109-4.624-.185-5.733 1.849-1.11 2.035-.185 4.624 1.849 5.733 2.034 1.11 4.623.185 5.733-1.849 1.109-2.034.185-4.808-1.849-5.733ZM164.771 101.286c-2.034-1.109-4.623-.185-5.733 1.849-1.109 2.035-.185 4.624 1.85 5.733 2.034 1.11 4.623.185 5.732-1.849 1.11-2.034.185-4.808-1.849-5.733ZM150.347 94.074c-2.034-1.11-4.623-.185-5.733 1.85-1.11 2.033-.185 4.622 1.849 5.732 2.034 1.109 4.623.185 5.733-1.85 1.11-2.034.185-4.623-1.849-5.732ZM136.107 86.861c-2.034-1.11-4.623-.184-5.733 1.85-1.109 2.034-.184 4.623 1.85 5.732 2.034 1.11 4.623.185 5.733-1.849 1.109-2.034.184-4.808-1.85-5.733ZM236.523 150.477c-2.034-1.109-4.623-.185-5.732 1.849-1.11 2.035-.185 4.624 1.849 5.733 2.034 1.11 4.623.185 5.733-1.849 1.109-2.034.185-4.623-1.85-5.733ZM222.284 143.265c-2.034-1.11-4.623-.185-5.733 1.849-1.109 2.034-.185 4.623 1.849 5.733 2.035 1.109 4.624.185 5.733-1.85 1.11-2.034.185-4.623-1.849-5.732ZM207.859 136.052c-2.034-1.109-4.623-.185-5.732 1.85-1.11 2.034-.185 4.623 1.849 5.732 2.034 1.11 4.623.185 5.733-1.849 1.109-2.034.185-4.623-1.85-5.733ZM193.435 128.84c-2.034-1.109-4.623-.185-5.733 1.85-1.109 2.034-.185 4.623 1.849 5.732 2.035 1.11 4.624.185 5.733-1.849 1.11-2.034.37-4.623-1.849-5.733ZM179.196 121.628c-2.035-1.11-4.624-.185-5.733 1.849-1.11 2.034-.185 4.623 1.849 5.733 2.034 1.11 4.623.185 5.733-1.849 1.109-2.034.185-4.623-1.849-5.733ZM164.771 114.601c-2.034-1.11-4.623-.185-5.733 1.849-1.109 2.034-.185 4.623 1.85 5.733 2.034 1.109 4.623.185 5.732-1.85 1.11-2.034.185-4.808-1.849-5.732ZM150.347 107.389c-2.034-1.11-4.623-.185-5.733 1.849-1.11 2.034-.185 4.623 1.849 5.733 2.034 1.109 4.623.185 5.733-1.849 1.11-2.035.185-4.809-1.849-5.733ZM136.107 100.176c-2.034-1.11-4.623-.185-5.733 1.85-1.109 2.034-.184 4.623 1.85 5.732 2.034 1.11 4.623.185 5.733-1.849 1.109-2.034.184-4.808-1.85-5.733ZM121.683 92.964c-2.034-1.11-4.623-.185-5.733 1.85-1.11 2.033-.185 4.622 1.849 5.732 2.035 1.11 4.624.185 5.733-1.85 1.11-2.034.185-4.807-1.849-5.732ZM90.06 112.751a3.17 3.17 0 0 0 4.438-1.479c.74-1.664.185-3.699-1.479-4.438-1.664-.74-3.699-.185-4.438 1.479-.74 1.664 0 3.699 1.48 4.438ZM102.82 119.409a3.169 3.169 0 0 0 4.438-1.479c.74-1.665.185-3.699-1.479-4.439-1.664-.739-3.699-.185-4.438 1.48-.74 1.664 0 3.698 1.479 4.438ZM115.58 126.066a3.169 3.169 0 0 0 4.438-1.479c.74-1.665.185-3.514-1.479-4.439a3.17 3.17 0 0 0-4.438 1.48c-.74 1.664-.185 3.698 1.479 4.438ZM128.34 132.909c1.665.925 3.514.185 4.438-1.48.925-1.664.185-3.513-1.479-4.438-1.664-.924-3.514-.185-4.438 1.48-.74 1.479-.185 3.513 1.479 4.438ZM141.1 139.566c1.665.925 3.514.185 4.439-1.479.924-1.665.185-3.514-1.48-4.439-1.664-.924-3.513-.185-4.438 1.48-.74 1.479-.185 3.513 1.479 4.438ZM153.86 146.223c1.665.925 3.514.185 4.439-1.479.924-1.664.185-3.514-1.48-4.438-1.664-.925-3.513-.185-4.438 1.479-.925 1.664-.185 3.514 1.479 4.438ZM166.62 152.881c1.665.925 3.514.185 4.439-1.479.924-1.665.185-3.514-1.48-4.439-1.664-.924-3.513-.185-4.438 1.48-.925 1.664-.185 3.513 1.479 4.438ZM179.196 159.538c1.664.925 3.513.185 4.438-1.479.925-1.665.185-3.514-1.48-4.438-1.664-.925-3.513-.185-4.438 1.479-.924 1.664 0 3.514 1.48 4.438ZM191.956 166.196c1.664.925 3.513.185 4.438-1.479.925-1.665.185-3.514-1.479-4.439-1.665-.924-3.514-.185-4.439 1.48-.739 1.664 0 3.513 1.48 4.438ZM204.716 172.853c1.664.925 3.513.185 4.438-1.479.925-1.665.185-3.514-1.479-4.438-1.665-.925-3.514-.185-4.439 1.479-.924 1.664-.185 3.514 1.48 4.438ZM103.93 105.539a3.17 3.17 0 0 0 4.438-1.479c.74-1.664.185-3.699-1.479-4.438-1.665-.74-3.699-.185-4.439 1.479-.739 1.665 0 3.699 1.48 4.438ZM116.69 112.197a3.17 3.17 0 0 0 4.438-1.48c.74-1.664.185-3.698-1.479-4.438-1.665-.74-3.699-.185-4.439 1.479-.739 1.665 0 3.699 1.48 4.439ZM129.45 118.854c1.664.925 3.514.185 4.438-1.479a3.17 3.17 0 0 0-1.479-4.439c-1.665-.739-3.514-.185-4.439 1.48a3.17 3.17 0 0 0 1.48 4.438ZM142.21 125.696c1.664.925 3.514.185 4.438-1.479.925-1.664.185-3.514-1.479-4.438-1.665-.925-3.514-.185-4.439 1.479-.924 1.665-.184 3.514 1.48 4.438ZM154.97 132.354c1.664.924 3.514.185 4.438-1.48.925-1.664.185-3.513-1.479-4.438-1.665-.925-3.514-.185-4.438 1.295-.925 1.479-.185 3.698 1.479 4.623ZM167.73 139.011c1.664.925 3.514.185 4.438-1.479.925-1.664.185-3.514-1.479-4.438-1.664-.925-3.514-.185-4.438 1.479-.925 1.665-.185 3.514 1.479 4.438ZM180.49 145.669c1.664.924 3.514.185 4.438-1.48.925-1.664.185-3.513-1.479-4.438-1.664-.925-3.514-.185-4.438 1.479-.925 1.665-.185 3.514 1.479 4.439ZM193.065 152.326c1.665.925 3.514.185 4.438-1.479.925-1.664.185-3.514-1.479-4.438-1.664-.925-3.514-.185-4.438 1.479-.74 1.664 0 3.514 1.479 4.438ZM205.825 158.984c1.665.924 3.514.185 4.438-1.48.925-1.664.185-3.513-1.479-4.438-1.664-.925-3.514-.185-4.438 1.479-.925 1.665 0 3.514 1.479 4.439ZM218.585 165.641c1.665.924 3.514.185 4.439-1.48.924-1.664.185-3.513-1.48-4.438-1.664-.925-3.513-.185-4.438 1.48-.74 1.664-.185 3.698 1.479 4.438ZM85.622 263.838c3.698 0 6.842-2.959 6.842-6.842 0-3.884-3.144-6.843-6.842-6.843-3.699 0-6.843 2.959-6.843 6.843 0 3.883 3.144 6.842 6.843 6.842ZM85.622 245.16c3.698 0 6.842-2.959 6.842-6.842 0-3.884-3.144-6.842-6.842-6.842-3.699 0-6.843 3.143-6.843 6.842s3.144 6.842 6.843 6.842ZM85.622 226.297c3.698 0 6.842-3.143 6.842-6.842 0-3.698-3.144-6.842-6.842-6.842-3.699 0-6.843 3.144-6.843 6.842 0 3.699 3.144 6.842 6.843 6.842ZM85.622 207.62c3.698 0 6.842-3.144 6.842-6.843 0-3.698-3.144-6.842-6.842-6.842-3.699 0-6.843 3.144-6.843 6.842 0 3.699 3.144 6.843 6.843 6.843ZM85.622 188.757c3.698 0 6.842-3.144 6.842-6.842 0-3.699-3.144-6.843-6.842-6.843-3.699 0-6.843 3.144-6.843 6.843 0 3.698 3.144 6.842 6.843 6.842ZM85.622 170.079c3.698 0 6.842-3.144 6.842-6.842 0-3.699-3.144-6.842-6.842-6.842-3.699 0-6.843 3.143-6.843 6.842 0 3.698 3.144 6.842 6.843 6.842ZM85.622 151.216c3.698 0 6.842-3.143 6.842-6.842 0-3.698-3.144-6.842-6.842-6.842-3.699 0-6.843 3.144-6.843 6.842 0 3.699 3.144 6.842 6.843 6.842ZM85.622 132.539c3.698 0 6.842-3.144 6.842-6.843 0-3.698-3.144-6.842-6.842-6.842-3.699 0-6.843 3.144-6.843 6.842 0 3.699 3.144 6.843 6.843 6.843ZM102.82 273.454c3.699 0 6.842-2.959 6.842-6.842 0-3.884-3.143-6.842-6.842-6.842-3.698 0-6.842 2.958-6.842 6.842 0 3.883 2.959 6.842 6.842 6.842ZM102.82 254.776c3.699 0 6.842-2.958 6.842-6.842 0-3.883-3.143-6.842-6.842-6.842-3.698 0-6.842 2.959-6.842 6.842 0 3.884 2.959 6.842 6.842 6.842ZM102.82 235.914c3.699 0 6.842-3.144 6.842-6.843 0-3.698-3.143-6.842-6.842-6.842-3.698 0-6.842 3.144-6.842 6.842 0 3.699 2.959 6.843 6.842 6.843ZM102.82 217.236c3.699 0 6.842-3.144 6.842-6.842 0-3.699-3.143-6.843-6.842-6.843-3.698 0-6.842 3.144-6.842 6.843 0 3.698 2.959 6.842 6.842 6.842ZM102.82 198.558c3.699 0 6.842-3.144 6.842-6.842 0-3.699-3.143-6.842-6.842-6.842-3.698 0-6.842 3.143-6.842 6.842 0 3.698 2.959 6.842 6.842 6.842ZM102.82 179.695c3.699 0 6.842-3.143 6.842-6.842 0-3.698-3.143-6.842-6.842-6.842-3.698 0-6.842 3.144-6.842 6.842 0 3.699 2.959 6.842 6.842 6.842ZM102.82 161.018c3.699 0 6.842-3.144 6.842-6.843 0-3.698-3.143-6.842-6.842-6.842-3.698 0-6.842 3.144-6.842 6.842 0 3.699 2.959 6.843 6.842 6.843ZM102.82 142.155c3.699 0 6.842-3.144 6.842-6.842 0-3.699-3.143-6.843-6.842-6.843-3.698 0-6.842 3.144-6.842 6.843 0 3.698 2.959 6.842 6.842 6.842ZM119.649 283.625a5.367 5.367 0 0 0 5.363-5.363 5.367 5.367 0 0 0-5.363-5.363 5.367 5.367 0 0 0-5.363 5.363 5.367 5.367 0 0 0 5.363 5.363ZM119.649 268.646a5.367 5.367 0 0 0 5.363-5.363 5.367 5.367 0 0 0-5.363-5.363 5.367 5.367 0 0 0-5.363 5.363 5.367 5.367 0 0 0 5.363 5.363ZM119.649 253.667a5.367 5.367 0 0 0 5.363-5.363 5.367 5.367 0 0 0-5.363-5.363 5.367 5.367 0 0 0-5.363 5.363 5.367 5.367 0 0 0 5.363 5.363ZM119.649 238.873a5.367 5.367 0 0 0 5.363-5.363 5.367 5.367 0 0 0-5.363-5.363 5.367 5.367 0 0 0-5.363 5.363 5.367 5.367 0 0 0 5.363 5.363ZM119.649 223.893a5.367 5.367 0 0 0 5.363-5.363 5.367 5.367 0 0 0-5.363-5.363 5.367 5.367 0 0 0-5.363 5.363 5.367 5.367 0 0 0 5.363 5.363ZM119.649 208.914a5.367 5.367 0 0 0 5.363-5.363 5.367 5.367 0 0 0-5.363-5.363 5.367 5.367 0 0 0-5.363 5.363 5.367 5.367 0 0 0 5.363 5.363ZM119.649 193.935a5.367 5.367 0 0 0 5.363-5.363 5.367 5.367 0 0 0-5.363-5.363 5.367 5.367 0 0 0-5.363 5.363 5.367 5.367 0 0 0 5.363 5.363ZM119.649 178.956a5.367 5.367 0 0 0 5.363-5.363 5.367 5.367 0 0 0-5.363-5.363 5.367 5.367 0 0 0-5.363 5.363 5.367 5.367 0 0 0 5.363 5.363ZM119.649 163.977a5.367 5.367 0 0 0 5.363-5.363 5.367 5.367 0 0 0-5.363-5.363 5.367 5.367 0 0 0-5.363 5.363 5.367 5.367 0 0 0 5.363 5.363ZM119.649 150.292a5.367 5.367 0 0 0 5.363-5.363 5.367 5.367 0 0 0-5.363-5.363 5.367 5.367 0 0 0-5.363 5.363 5.367 5.367 0 0 0 5.363 5.363ZM135.737 293.056a5.367 5.367 0 0 0 5.363-5.362 5.367 5.367 0 0 0-5.363-5.363 5.367 5.367 0 0 0-5.362 5.363 5.366 5.366 0 0 0 5.362 5.362ZM135.737 278.077a5.367 5.367 0 0 0 5.363-5.363 5.367 5.367 0 0 0-5.363-5.362 5.366 5.366 0 0 0-5.362 5.362 5.367 5.367 0 0 0 5.362 5.363ZM135.737 263.283a5.367 5.367 0 0 0 5.363-5.363 5.367 5.367 0 0 0-5.363-5.363 5.367 5.367 0 0 0-5.362 5.363 5.367 5.367 0 0 0 5.362 5.363ZM135.737 248.304a5.367 5.367 0 0 0 5.363-5.363 5.367 5.367 0 0 0-5.363-5.363 5.367 5.367 0 0 0-5.362 5.363 5.367 5.367 0 0 0 5.362 5.363ZM135.737 233.325a5.367 5.367 0 0 0 5.363-5.363 5.367 5.367 0 0 0-5.363-5.363 5.367 5.367 0 0 0-5.362 5.363 5.367 5.367 0 0 0 5.362 5.363ZM135.737 218.345a5.367 5.367 0 0 0 5.363-5.362 5.367 5.367 0 0 0-5.363-5.363 5.367 5.367 0 0 0-5.362 5.363 5.366 5.366 0 0 0 5.362 5.362ZM135.737 203.366a5.367 5.367 0 0 0 5.363-5.362 5.367 5.367 0 0 0-5.363-5.363 5.367 5.367 0 0 0-5.362 5.363 5.366 5.366 0 0 0 5.362 5.362ZM135.737 188.572a5.367 5.367 0 0 0 5.363-5.363 5.367 5.367 0 0 0-5.363-5.363 5.367 5.367 0 0 0-5.362 5.363 5.367 5.367 0 0 0 5.362 5.363ZM135.737 173.593a5.367 5.367 0 0 0 5.363-5.363 5.367 5.367 0 0 0-5.363-5.363 5.367 5.367 0 0 0-5.362 5.363 5.367 5.367 0 0 0 5.362 5.363ZM135.737 159.723a5.367 5.367 0 0 0 5.363-5.363 5.367 5.367 0 0 0-5.363-5.362 5.366 5.366 0 0 0-5.362 5.362 5.367 5.367 0 0 0 5.362 5.363ZM151.086 302.858c2.405 0 4.254-1.85 4.254-4.254 0-2.404-1.849-4.253-4.254-4.253-2.404 0-4.253 1.849-4.253 4.253s1.849 4.254 4.253 4.254ZM151.086 287.509c2.405 0 4.254-1.85 4.254-4.254 0-2.404-1.849-4.253-4.254-4.253-2.404 0-4.253 1.849-4.253 4.253s1.849 4.254 4.253 4.254ZM151.086 272.16c2.405 0 4.254-1.85 4.254-4.254 0-2.404-1.849-4.253-4.254-4.253-2.404 0-4.253 1.849-4.253 4.253s1.849 4.254 4.253 4.254ZM151.086 256.811c2.405 0 4.254-1.849 4.254-4.253 0-2.405-1.849-4.254-4.254-4.254-2.404 0-4.253 1.849-4.253 4.254 0 2.404 1.849 4.253 4.253 4.253ZM151.086 241.646c2.405 0 4.254-1.849 4.254-4.253s-1.849-4.253-4.254-4.253c-2.404 0-4.253 1.849-4.253 4.253 0 2.219 1.849 4.253 4.253 4.253ZM151.086 226.298c2.405 0 4.254-1.85 4.254-4.254 0-2.404-1.849-4.253-4.254-4.253-2.404 0-4.253 1.849-4.253 4.253s1.849 4.254 4.253 4.254ZM151.086 210.949c2.405 0 4.254-1.85 4.254-4.254 0-2.404-1.849-4.253-4.254-4.253-2.404 0-4.253 1.849-4.253 4.253s1.849 4.254 4.253 4.254ZM151.086 195.599c2.405 0 4.254-1.849 4.254-4.253s-1.849-4.253-4.254-4.253c-2.404 0-4.253 1.849-4.253 4.253s1.849 4.253 4.253 4.253ZM151.086 180.25c2.405 0 4.254-1.849 4.254-4.253s-1.849-4.253-4.254-4.253c-2.404 0-4.253 1.849-4.253 4.253s1.849 4.253 4.253 4.253ZM151.086 164.901c2.405 0 4.254-1.849 4.254-4.253s-1.849-4.253-4.254-4.253c-2.404 0-4.253 1.849-4.253 4.253s1.849 4.253 4.253 4.253ZM166.62 311.919c2.404 0 4.254-1.849 4.254-4.253s-1.85-4.253-4.254-4.253c-2.404 0-4.253 1.849-4.253 4.253s2.034 4.253 4.253 4.253ZM166.62 296.57c2.404 0 4.254-1.849 4.254-4.253s-1.85-4.254-4.254-4.254c-2.404 0-4.253 1.85-4.253 4.254 0 2.404 2.034 4.253 4.253 4.253ZM166.62 281.221c2.404 0 4.254-1.849 4.254-4.253s-1.85-4.254-4.254-4.254c-2.404 0-4.253 1.85-4.253 4.254 0 2.404 2.034 4.253 4.253 4.253ZM166.62 265.872c2.404 0 4.254-1.849 4.254-4.253s-1.85-4.254-4.254-4.254c-2.404 0-4.253 1.85-4.253 4.254 0 2.404 2.034 4.253 4.253 4.253ZM166.62 250.708c2.404 0 4.254-1.849 4.254-4.253 0-2.405-1.85-4.254-4.254-4.254-2.404 0-4.253 1.849-4.253 4.254 0 2.404 2.034 4.253 4.253 4.253ZM166.62 235.359c2.404 0 4.254-1.849 4.254-4.253s-1.85-4.253-4.254-4.253c-2.404 0-4.253 1.849-4.253 4.253s2.034 4.253 4.253 4.253ZM166.62 220.01c2.404 0 4.254-1.849 4.254-4.253s-1.85-4.254-4.254-4.254c-2.404 0-4.253 1.85-4.253 4.254 0 2.404 2.034 4.253 4.253 4.253ZM166.62 204.661c2.404 0 4.254-1.849 4.254-4.253s-1.85-4.254-4.254-4.254c-2.404 0-4.253 1.85-4.253 4.254 0 2.404 2.034 4.253 4.253 4.253ZM166.62 189.312c2.404 0 4.254-1.849 4.254-4.253 0-2.405-1.85-4.254-4.254-4.254-2.404 0-4.253 1.849-4.253 4.254 0 2.404 2.034 4.253 4.253 4.253ZM166.62 173.963c2.404 0 4.254-1.85 4.254-4.254 0-2.404-1.85-4.253-4.254-4.253-2.404 0-4.253 1.849-4.253 4.253s2.034 4.254 4.253 4.254ZM181.785 320.056a3.314 3.314 0 0 0 3.328-3.328 3.314 3.314 0 0 0-3.328-3.329 3.314 3.314 0 0 0-3.329 3.329 3.314 3.314 0 0 0 3.329 3.328ZM181.785 306.002a3.315 3.315 0 0 0 3.328-3.329 3.315 3.315 0 0 0-3.328-3.329 3.315 3.315 0 0 0-3.329 3.329 3.315 3.315 0 0 0 3.329 3.329ZM181.785 292.132a3.314 3.314 0 0 0 3.328-3.329 3.314 3.314 0 0 0-3.328-3.328 3.314 3.314 0 0 0-3.329 3.328 3.314 3.314 0 0 0 3.329 3.329ZM181.785 278.262a3.314 3.314 0 0 0 3.328-3.328 3.314 3.314 0 0 0-3.328-3.329 3.314 3.314 0 0 0-3.329 3.329 3.314 3.314 0 0 0 3.329 3.328ZM181.785 264.393a3.315 3.315 0 0 0 3.328-3.329 3.315 3.315 0 0 0-3.328-3.329 3.315 3.315 0 0 0-3.329 3.329 3.315 3.315 0 0 0 3.329 3.329ZM181.785 250.523a3.314 3.314 0 0 0 3.328-3.329 3.314 3.314 0 0 0-3.328-3.328 3.314 3.314 0 0 0-3.329 3.328 3.314 3.314 0 0 0 3.329 3.329ZM181.785 236.654a3.315 3.315 0 0 0 3.328-3.329 3.315 3.315 0 0 0-3.328-3.329 3.315 3.315 0 0 0-3.329 3.329 3.315 3.315 0 0 0 3.329 3.329ZM181.785 222.784a3.315 3.315 0 0 0 3.328-3.329 3.315 3.315 0 0 0-3.328-3.329 3.315 3.315 0 0 0-3.329 3.329 3.315 3.315 0 0 0 3.329 3.329ZM181.785 208.729a3.314 3.314 0 0 0 3.328-3.329 3.314 3.314 0 0 0-3.328-3.328 3.314 3.314 0 0 0-3.329 3.328 3.314 3.314 0 0 0 3.329 3.329ZM181.785 194.86a3.315 3.315 0 0 0 3.328-3.329 3.315 3.315 0 0 0-3.328-3.329 3.315 3.315 0 0 0-3.329 3.329 3.315 3.315 0 0 0 3.329 3.329ZM181.785 180.99a3.314 3.314 0 0 0 3.328-3.329 3.314 3.314 0 0 0-3.328-3.328 3.314 3.314 0 0 0-3.329 3.328 3.314 3.314 0 0 0 3.329 3.329ZM196.394 328.933a3.316 3.316 0 0 0 3.329-3.329 3.316 3.316 0 0 0-3.329-3.329 3.316 3.316 0 0 0-3.329 3.329 3.316 3.316 0 0 0 3.329 3.329ZM196.394 315.063a3.315 3.315 0 0 0 3.329-3.329 3.315 3.315 0 0 0-3.329-3.328 3.315 3.315 0 0 0-3.329 3.328c0 1.85 1.48 3.329 3.329 3.329ZM196.394 301.194a3.316 3.316 0 0 0 3.329-3.329 3.316 3.316 0 0 0-3.329-3.329 3.316 3.316 0 0 0-3.329 3.329 3.316 3.316 0 0 0 3.329 3.329ZM196.394 287.139a3.316 3.316 0 0 0 3.329-3.329 3.316 3.316 0 0 0-3.329-3.329 3.316 3.316 0 0 0-3.329 3.329 3.316 3.316 0 0 0 3.329 3.329ZM196.394 273.269a3.315 3.315 0 0 0 3.329-3.328c0-1.85-1.48-3.329-3.329-3.329a3.315 3.315 0 0 0-3.329 3.329 3.315 3.315 0 0 0 3.329 3.328ZM196.394 259.215a3.316 3.316 0 0 0 3.329-3.329 3.316 3.316 0 0 0-3.329-3.329 3.316 3.316 0 0 0-3.329 3.329 3.316 3.316 0 0 0 3.329 3.329ZM196.394 245.345a3.316 3.316 0 0 0 3.329-3.329 3.315 3.315 0 0 0-3.329-3.328 3.315 3.315 0 0 0-3.329 3.328 3.316 3.316 0 0 0 3.329 3.329ZM196.394 231.291a3.316 3.316 0 0 0 3.329-3.329 3.316 3.316 0 0 0-3.329-3.329 3.316 3.316 0 0 0-3.329 3.329 3.316 3.316 0 0 0 3.329 3.329ZM196.394 217.421a3.315 3.315 0 0 0 3.329-3.329 3.315 3.315 0 0 0-3.329-3.328 3.315 3.315 0 0 0-3.329 3.328c0 1.85 1.48 3.329 3.329 3.329ZM196.394 203.551a3.315 3.315 0 0 0 3.329-3.328c0-1.85-1.48-3.329-3.329-3.329a3.315 3.315 0 0 0-3.329 3.329 3.315 3.315 0 0 0 3.329 3.328ZM196.394 189.497a3.316 3.316 0 0 0 3.329-3.329 3.316 3.316 0 0 0-3.329-3.329 3.316 3.316 0 0 0-3.329 3.329 3.316 3.316 0 0 0 3.329 3.329Z"/></svg>