<svg xmlns="http://www.w3.org/2000/svg" width="400" height="400" fill="none" viewBox="0 0 400 400"><path fill="#DADADA" d="M204.161 362.46 39.944 269.441l164.402-78.595 164.216 78.595-164.401 93.019Z"/><path fill="#222" d="m204.346 372.446-167.36-94.683 167.36-79.889.555.369 166.62 79.705-2.404 1.294-164.771 93.204ZM42.904 277.948l161.257 91.354 161.442-91.354-161.257-77.116-161.442 77.116Z"/><path fill="#DADADA" d="m204.346 181.045-128.71-72.862 128.71-61.396 128.71 61.396-128.71 72.862Z"/><path fill="#F5F4F3" d="m204.346 336.2-128.71-72.677v-155.34l128.71 72.862V336.2Z"/><path fill="#FF3158" d="m204.346 336.2 128.71-72.677v-155.34l-128.71 72.862V336.2Z"/><path fill="#222" d="M208.229 188.442c0 3.699 3.144 6.842 6.843 6.842 3.698 0 6.842-3.143 6.842-6.842s-3.144-6.842-6.842-6.842c-3.699 0-6.843 2.958-6.843 6.842ZM208.229 207.12c0 3.698 3.144 6.842 6.843 6.842 3.698 0 6.842-3.144 6.842-6.842 0-3.699-3.144-6.843-6.842-6.843-3.699 0-6.843 3.144-6.843 6.843ZM208.229 225.982c0 3.699 3.144 6.843 6.843 6.843 3.698 0 6.842-3.144 6.842-6.843 0-3.698-3.144-6.842-6.842-6.842-3.699 0-6.843 2.959-6.843 6.842ZM208.229 244.66c0 3.699 3.144 6.843 6.843 6.843 3.698 0 6.842-2.959 6.842-6.843 0-3.883-3.144-6.842-6.842-6.842-3.699 0-6.843 3.144-6.843 6.842ZM208.229 263.338c0 3.699 3.144 6.842 6.843 6.842 3.698 0 6.842-2.959 6.842-6.842 0-3.884-3.144-6.842-6.842-6.842-3.699 0-6.843 3.143-6.843 6.842ZM208.229 282.201c0 3.698 3.144 6.842 6.843 6.842 3.698 0 6.842-2.959 6.842-6.842 0-3.884-3.144-6.843-6.842-6.843-3.699 0-6.843 3.144-6.843 6.843ZM208.229 300.878c0 3.699 3.144 6.843 6.843 6.843 3.698 0 6.842-2.959 6.842-6.843 0-3.883-3.144-6.842-6.842-6.842-3.699 0-6.843 3.144-6.843 6.842ZM208.229 319.741c0 3.699 3.144 6.843 6.843 6.843 3.698 0 6.842-2.959 6.842-6.843 0-3.883-3.144-6.842-6.842-6.842-3.699 0-6.843 3.144-6.843 6.842ZM225.243 178.641c0 3.698 3.143 6.842 6.842 6.842s6.842-3.144 6.842-6.842c0-3.699-3.143-6.843-6.842-6.843s-6.842 3.144-6.842 6.843ZM225.243 197.503c0 3.699 3.143 6.843 6.842 6.843s6.842-3.144 6.842-6.843c0-3.698-3.143-6.842-6.842-6.842s-6.842 2.959-6.842 6.842ZM225.243 216.181c0 3.699 3.143 6.843 6.842 6.843s6.842-3.144 6.842-6.843c0-3.698-3.143-6.842-6.842-6.842s-6.842 3.144-6.842 6.842ZM225.243 235.044c0 3.699 3.143 6.842 6.842 6.842s6.842-2.959 6.842-6.842c0-3.883-3.143-6.842-6.842-6.842s-6.842 2.959-6.842 6.842ZM225.243 253.722c0 3.698 3.143 6.842 6.842 6.842s6.842-2.959 6.842-6.842c0-3.884-3.143-6.843-6.842-6.843s-6.842 3.144-6.842 6.843ZM225.243 272.585c0 3.698 3.143 6.842 6.842 6.842s6.842-2.959 6.842-6.842c0-3.884-3.143-6.843-6.842-6.843s-6.842 2.959-6.842 6.843ZM225.243 291.262c0 3.699 3.143 6.843 6.842 6.843s6.842-2.959 6.842-6.843c0-3.883-3.143-6.842-6.842-6.842s-6.842 3.144-6.842 6.842ZM225.243 309.94c0 3.699 3.143 6.842 6.842 6.842s6.842-2.958 6.842-6.842c0-3.883-3.143-6.842-6.842-6.842s-6.842 3.143-6.842 6.842ZM243.551 167.175a5.367 5.367 0 0 0 5.363 5.363 5.367 5.367 0 0 0 5.363-5.363 5.367 5.367 0 0 0-5.363-5.363 5.367 5.367 0 0 0-5.363 5.363ZM243.551 182.154a5.367 5.367 0 0 0 5.363 5.363 5.367 5.367 0 0 0 5.363-5.363 5.367 5.367 0 0 0-5.363-5.362 5.367 5.367 0 0 0-5.363 5.362ZM243.551 197.133a5.367 5.367 0 0 0 5.363 5.363 5.367 5.367 0 0 0 5.363-5.363 5.367 5.367 0 0 0-5.363-5.362 5.367 5.367 0 0 0-5.363 5.362ZM243.551 212.113a5.367 5.367 0 0 0 5.363 5.363 5.367 5.367 0 0 0 5.363-5.363 5.367 5.367 0 0 0-5.363-5.363c-2.959 0-5.363 2.219-5.363 5.363ZM243.551 227.092a5.367 5.367 0 0 0 5.363 5.363 5.367 5.367 0 0 0 5.363-5.363 5.367 5.367 0 0 0-5.363-5.363c-2.959 0-5.363 2.219-5.363 5.363ZM243.551 241.886a5.367 5.367 0 0 0 5.363 5.363 5.367 5.367 0 0 0 5.363-5.363 5.367 5.367 0 0 0-5.363-5.363 5.367 5.367 0 0 0-5.363 5.363ZM243.551 256.865a5.367 5.367 0 0 0 5.363 5.363 5.367 5.367 0 0 0 5.363-5.363 5.367 5.367 0 0 0-5.363-5.363 5.367 5.367 0 0 0-5.363 5.363ZM243.551 271.845a5.367 5.367 0 0 0 5.363 5.363 5.367 5.367 0 0 0 5.363-5.363 5.367 5.367 0 0 0-5.363-5.363 5.367 5.367 0 0 0-5.363 5.363ZM243.551 286.824a5.367 5.367 0 0 0 5.363 5.363 5.367 5.367 0 0 0 5.363-5.363 5.367 5.367 0 0 0-5.363-5.363 5.367 5.367 0 0 0-5.363 5.363ZM243.551 300.694a5.367 5.367 0 0 0 5.363 5.362 5.367 5.367 0 0 0 5.363-5.362 5.367 5.367 0 0 0-5.363-5.363c-2.959 0-5.363 2.219-5.363 5.363ZM259.639 157.744a5.367 5.367 0 0 0 5.363 5.363 5.367 5.367 0 0 0 5.363-5.363 5.367 5.367 0 0 0-5.363-5.363 5.367 5.367 0 0 0-5.363 5.363ZM259.639 172.723a5.367 5.367 0 0 0 5.363 5.363 5.367 5.367 0 0 0 5.363-5.363 5.367 5.367 0 0 0-5.363-5.363 5.367 5.367 0 0 0-5.363 5.363ZM259.639 187.517a5.367 5.367 0 0 0 5.363 5.363 5.367 5.367 0 0 0 5.363-5.363 5.367 5.367 0 0 0-5.363-5.363 5.367 5.367 0 0 0-5.363 5.363ZM259.639 202.497a5.367 5.367 0 0 0 5.363 5.363 5.367 5.367 0 0 0 5.363-5.363 5.367 5.367 0 0 0-5.363-5.363 5.367 5.367 0 0 0-5.363 5.363ZM259.639 217.476a5.367 5.367 0 0 0 5.363 5.363 5.367 5.367 0 0 0 5.363-5.363 5.367 5.367 0 0 0-5.363-5.363 5.367 5.367 0 0 0-5.363 5.363ZM259.639 232.455a5.367 5.367 0 0 0 5.363 5.363 5.367 5.367 0 0 0 5.363-5.363 5.367 5.367 0 0 0-5.363-5.363 5.367 5.367 0 0 0-5.363 5.363ZM259.639 247.434a5.367 5.367 0 0 0 5.363 5.363 5.367 5.367 0 0 0 5.363-5.363 5.367 5.367 0 0 0-5.363-5.363 5.367 5.367 0 0 0-5.363 5.363ZM259.639 262.413a5.367 5.367 0 0 0 5.363 5.363 5.367 5.367 0 0 0 5.363-5.363 5.367 5.367 0 0 0-5.363-5.363c-2.959 0-5.363 2.219-5.363 5.363ZM259.639 277.208a5.367 5.367 0 0 0 5.363 5.363 5.367 5.367 0 0 0 5.363-5.363 5.367 5.367 0 0 0-5.363-5.363 5.367 5.367 0 0 0-5.363 5.363ZM259.639 291.077a5.367 5.367 0 0 0 5.363 5.363 5.367 5.367 0 0 0 5.363-5.363 5.367 5.367 0 0 0-5.363-5.363 5.367 5.367 0 0 0-5.363 5.363ZM276.098 146.833c0 2.404 1.849 4.253 4.254 4.253 2.404 0 4.253-1.849 4.253-4.253s-1.849-4.253-4.253-4.253c-2.405 0-4.254 1.849-4.254 4.253ZM276.098 162.182c0 2.404 1.849 4.253 4.254 4.253 2.404 0 4.253-1.849 4.253-4.253s-1.849-4.253-4.253-4.253c-2.405 0-4.254 1.849-4.254 4.253ZM276.098 177.346c0 2.404 1.849 4.253 4.254 4.253 2.404 0 4.253-1.849 4.253-4.253s-1.849-4.253-4.253-4.253c-2.405 0-4.254 2.034-4.254 4.253ZM276.098 192.695c0 2.404 1.849 4.254 4.254 4.254 2.404 0 4.253-1.85 4.253-4.254 0-2.404-1.849-4.253-4.253-4.253-2.405 0-4.254 2.034-4.254 4.253ZM276.098 208.044c0 2.404 1.849 4.254 4.254 4.254 2.404 0 4.253-1.85 4.253-4.254 0-2.404-1.849-4.253-4.253-4.253-2.405 0-4.254 2.034-4.254 4.253ZM276.098 223.393c0 2.405 1.849 4.254 4.254 4.254 2.404 0 4.253-1.849 4.253-4.254 0-2.404-1.849-4.253-4.253-4.253-2.405 0-4.254 1.849-4.254 4.253ZM276.098 238.743c0 2.404 1.849 4.253 4.254 4.253 2.404 0 4.253-1.849 4.253-4.253s-1.849-4.254-4.253-4.254c-2.405 0-4.254 1.85-4.254 4.254ZM276.098 254.092c0 2.404 1.849 4.253 4.254 4.253 2.404 0 4.253-1.849 4.253-4.253s-1.849-4.254-4.253-4.254c-2.405 0-4.254 1.85-4.254 4.254ZM276.098 269.44c0 2.404 1.849 4.254 4.254 4.254 2.404 0 4.253-1.85 4.253-4.254 0-2.404-1.849-4.253-4.253-4.253-2.405 0-4.254 1.849-4.254 4.253ZM276.098 284.605c0 2.404 1.849 4.253 4.254 4.253 2.404 0 4.253-1.849 4.253-4.253s-1.849-4.253-4.253-4.253c-2.405 0-4.254 2.034-4.254 4.253ZM291.817 137.771c0 2.404 1.849 4.254 4.253 4.254s4.254-1.85 4.254-4.254c0-2.404-1.85-4.253-4.254-4.253-2.404 0-4.253 1.849-4.253 4.253ZM291.817 153.121c0 2.404 1.849 4.253 4.253 4.253s4.254-1.849 4.254-4.253c0-2.405-1.85-4.254-4.254-4.254-2.404 0-4.253 1.849-4.253 4.254ZM291.817 168.47c0 2.404 1.849 4.253 4.253 4.253s4.254-1.849 4.254-4.253-1.85-4.254-4.254-4.254c-2.404 0-4.253 1.85-4.253 4.254ZM291.817 183.634c0 2.404 1.849 4.253 4.253 4.253s4.254-1.849 4.254-4.253-1.85-4.254-4.254-4.254c-2.404 0-4.253 2.035-4.253 4.254ZM291.817 198.983c0 2.404 1.849 4.253 4.253 4.253s4.254-1.849 4.254-4.253-1.85-4.254-4.254-4.254c-2.404 0-4.253 2.035-4.253 4.254ZM291.817 214.332c0 2.404 1.849 4.253 4.253 4.253s4.254-1.849 4.254-4.253-1.85-4.253-4.254-4.253c-2.404 0-4.253 2.034-4.253 4.253ZM291.817 229.681c0 2.404 1.849 4.253 4.253 4.253s4.254-1.849 4.254-4.253-1.85-4.253-4.254-4.253c-2.404 0-4.253 1.849-4.253 4.253ZM291.817 245.03c0 2.404 1.849 4.254 4.253 4.254s4.254-1.85 4.254-4.254c0-2.404-1.85-4.253-4.254-4.253-2.404 0-4.253 1.849-4.253 4.253ZM291.817 260.379c0 2.404 1.849 4.254 4.253 4.254s4.254-1.85 4.254-4.254c0-2.404-1.85-4.253-4.254-4.253-2.404 0-4.253 1.849-4.253 4.253ZM291.817 275.543c0 2.404 1.849 4.254 4.253 4.254s4.254-1.85 4.254-4.254c0-2.404-1.85-4.253-4.254-4.253-2.404 0-4.253 2.034-4.253 4.253ZM307.906 128.71a3.315 3.315 0 0 0 3.328 3.329c1.85 0 3.329-1.48 3.329-3.329a3.315 3.315 0 0 0-3.329-3.329 3.315 3.315 0 0 0-3.328 3.329ZM307.906 142.58a3.314 3.314 0 0 0 3.328 3.328 3.314 3.314 0 0 0 3.329-3.328 3.314 3.314 0 0 0-3.329-3.329 3.314 3.314 0 0 0-3.328 3.329ZM307.906 156.449a3.314 3.314 0 0 0 3.328 3.329 3.314 3.314 0 0 0 3.329-3.329 3.314 3.314 0 0 0-3.329-3.328c-1.849 0-3.328 1.664-3.328 3.328ZM307.906 170.504a3.315 3.315 0 0 0 3.328 3.329c1.85 0 3.329-1.48 3.329-3.329a3.315 3.315 0 0 0-3.329-3.329 3.315 3.315 0 0 0-3.328 3.329ZM307.906 184.374a3.314 3.314 0 0 0 3.328 3.328 3.314 3.314 0 0 0 3.329-3.328 3.314 3.314 0 0 0-3.329-3.329 3.314 3.314 0 0 0-3.328 3.329ZM307.906 198.243a3.314 3.314 0 0 0 3.328 3.329 3.314 3.314 0 0 0 3.329-3.329 3.314 3.314 0 0 0-3.329-3.328 3.314 3.314 0 0 0-3.328 3.328ZM307.906 212.113a3.315 3.315 0 0 0 3.328 3.329c1.85 0 3.329-1.48 3.329-3.329a3.315 3.315 0 0 0-3.329-3.329 3.315 3.315 0 0 0-3.328 3.329ZM307.906 225.983a3.314 3.314 0 0 0 3.328 3.328 3.314 3.314 0 0 0 3.329-3.328 3.314 3.314 0 0 0-3.329-3.329 3.314 3.314 0 0 0-3.328 3.329ZM307.906 239.852a3.315 3.315 0 0 0 3.328 3.329c1.85 0 3.329-1.48 3.329-3.329a3.315 3.315 0 0 0-3.329-3.329 3.315 3.315 0 0 0-3.328 3.329ZM307.906 253.722a3.314 3.314 0 0 0 3.328 3.328 3.314 3.314 0 0 0 3.329-3.328 3.314 3.314 0 0 0-3.329-3.329c-1.849 0-3.328 1.664-3.328 3.329ZM307.906 267.776a3.315 3.315 0 0 0 3.328 3.329c1.85 0 3.329-1.48 3.329-3.329a3.315 3.315 0 0 0-3.329-3.329 3.315 3.315 0 0 0-3.328 3.329ZM322.515 119.649a3.315 3.315 0 0 0 3.329 3.328 3.315 3.315 0 0 0 3.329-3.328c0-1.85-1.48-3.329-3.329-3.329a3.315 3.315 0 0 0-3.329 3.329ZM322.515 133.703c0 1.85 1.48 3.329 3.329 3.329a3.315 3.315 0 0 0 3.329-3.329 3.315 3.315 0 0 0-3.329-3.328 3.315 3.315 0 0 0-3.329 3.328ZM322.515 147.573a3.316 3.316 0 0 0 3.329 3.329 3.316 3.316 0 0 0 3.329-3.329 3.316 3.316 0 0 0-3.329-3.329 3.316 3.316 0 0 0-3.329 3.329ZM322.515 161.628a3.315 3.315 0 0 0 3.329 3.328 3.315 3.315 0 0 0 3.329-3.328c0-1.85-1.48-3.329-3.329-3.329a3.315 3.315 0 0 0-3.329 3.329ZM322.515 175.497a3.316 3.316 0 0 0 3.329 3.329 3.316 3.316 0 0 0 3.329-3.329 3.316 3.316 0 0 0-3.329-3.329 3.316 3.316 0 0 0-3.329 3.329ZM322.515 189.367a3.316 3.316 0 0 0 3.329 3.329 3.316 3.316 0 0 0 3.329-3.329 3.316 3.316 0 0 0-3.329-3.329c-1.849 0-3.329 1.664-3.329 3.329ZM322.515 203.421a3.316 3.316 0 0 0 3.329 3.329 3.316 3.316 0 0 0 3.329-3.329 3.316 3.316 0 0 0-3.329-3.329 3.316 3.316 0 0 0-3.329 3.329ZM322.515 217.291a3.315 3.315 0 0 0 3.329 3.328 3.315 3.315 0 0 0 3.329-3.328c0-1.85-1.48-3.329-3.329-3.329a3.315 3.315 0 0 0-3.329 3.329ZM322.515 231.345c0 1.85 1.48 3.329 3.329 3.329a3.315 3.315 0 0 0 3.329-3.329 3.315 3.315 0 0 0-3.329-3.328 3.315 3.315 0 0 0-3.329 3.328ZM322.515 245.215a3.316 3.316 0 0 0 3.329 3.329 3.316 3.316 0 0 0 3.329-3.329 3.316 3.316 0 0 0-3.329-3.329 3.316 3.316 0 0 0-3.329 3.329ZM322.515 259.085a3.315 3.315 0 0 0 3.329 3.328 3.315 3.315 0 0 0 3.329-3.328c0-1.85-1.48-3.329-3.329-3.329-1.849 0-3.329 1.664-3.329 3.329ZM199.353 53.444c-1.849 3.33-.74 7.398 2.404 9.247 3.144 1.85 7.397.74 9.246-2.404 1.85-3.144.74-7.397-2.404-9.247-3.143-1.849-7.212-.74-9.246 2.404ZM217.106 62.321c-1.849 3.329-.74 7.397 2.404 9.246 3.144 1.85 7.397.74 9.246-2.404 1.85-3.143.74-7.397-2.404-9.246-3.144-2.034-7.397-.925-9.246 2.404ZM234.674 71.012c-1.849 3.33-.739 7.397 2.404 9.247 3.329 1.85 7.397.74 9.247-2.404 1.849-3.144.739-7.397-2.404-9.247-3.144-1.849-7.397-.74-9.247 2.404ZM252.242 79.704c-1.849 3.329-.74 7.397 2.404 9.247 3.329 1.849 7.397.74 9.247-2.404 1.849-3.144.739-7.397-2.404-9.247-3.144-1.85-7.213-.74-9.247 2.404ZM269.996 88.58c-1.85 3.33-.74 7.398 2.404 9.247 3.143 1.85 7.397.74 9.246-2.404 1.849-3.144.74-7.397-2.404-9.246-3.144-2.035-7.397-.925-9.246 2.404ZM287.563 97.272c-1.849 3.329-.739 7.397 2.404 9.247 3.329 1.849 7.398.739 9.247-2.405 1.849-3.143.74-7.397-2.404-9.246-3.144-1.85-7.397-.925-9.247 2.404ZM305.132 105.964c-1.85 3.329-.74 7.397 2.404 9.246 3.144 1.85 7.397.74 9.246-2.404 1.85-3.143.74-7.397-2.404-9.246-3.144-1.849-7.212-.74-9.246 2.404ZM180.49 62.321c-1.849 3.329-.74 7.397 2.404 9.246 3.144 1.85 7.397.74 9.247-2.404 1.849-3.143.739-7.397-2.404-9.246-3.144-2.034-7.398-.925-9.247 2.404ZM198.058 71.012c-1.849 3.33-.74 7.397 2.404 9.247 3.144 1.85 7.397.74 9.246-2.404 1.85-3.144.74-7.397-2.404-9.247-3.143-1.849-7.212-.74-9.246 2.404ZM215.811 79.704c-1.849 3.329-.739 7.397 2.404 9.247 3.329 1.849 7.398.74 9.247-2.404 1.849-3.144.74-7.397-2.404-9.247-3.144-1.85-7.397-.74-9.247 2.404ZM233.38 88.58c-1.849 3.33-.74 7.398 2.404 9.247 3.144 1.85 7.397.74 9.246-2.404 1.85-3.144.74-7.397-2.404-9.246-3.144-2.035-7.397-.925-9.246 2.404ZM250.948 97.272c-1.85 3.329-.74 7.397 2.404 9.247 3.328 1.849 7.397.739 9.246-2.405 1.849-3.143.74-7.397-2.404-9.246-3.144-1.85-7.212-.925-9.246 2.404ZM268.701 105.964c-1.849 3.329-.74 7.397 2.404 9.246 3.144 1.85 7.397.74 9.247-2.404 1.849-3.143.739-7.397-2.405-9.246-3.328-1.849-7.397-.74-9.246 2.404ZM286.269 114.655c-1.849 3.329-.74 7.398 2.404 9.247 3.144 1.849 7.397.74 9.246-2.404 1.85-3.144.74-7.397-2.404-9.247-3.143-1.849-7.397-.739-9.246 2.404ZM167.175 79.15c2.589 1.294 5.918.369 7.212-2.405 1.295-2.774.37-5.918-2.404-7.212-2.774-1.295-5.917-.37-7.212 2.404-1.294 2.774-.37 5.733 2.404 7.212ZM180.86 85.992c2.589 1.294 5.918.37 7.212-2.405 1.295-2.773.37-5.917-2.404-7.212-2.589-1.294-5.918-.37-7.212 2.404-1.295 2.59-.37 5.918 2.404 7.213ZM194.545 93.019c2.589 1.294 5.917.37 7.212-2.404 1.294-2.774.37-5.918-2.404-7.212-2.589-1.295-5.918-.37-7.212 2.404-1.295 2.773-.185 5.732 2.404 7.212ZM208.229 99.861c2.589 1.295 5.918.37 7.212-2.404 1.295-2.774.37-5.918-2.404-7.212-2.774-1.295-5.917-.37-7.212 2.404-1.294 2.589-.185 5.918 2.404 7.212ZM221.914 106.888c2.589 1.295 5.918.37 7.212-2.404 1.295-2.774.37-5.917-2.404-7.212-2.589-1.294-5.917-.37-7.212 2.404-1.294 2.589-.185 5.733 2.404 7.212ZM235.599 113.731c2.589 1.294 5.918.37 7.212-2.404 1.295-2.774.185-5.918-2.404-7.213-2.589-1.294-5.918-.369-7.212 2.405-1.295 2.773-.185 5.917 2.404 7.212ZM249.468 120.758c2.589 1.295 5.918.37 7.212-2.404 1.295-2.774.185-5.918-2.404-7.212-2.589-1.295-5.917-.37-7.212 2.404-1.294 2.774-.37 5.918 2.404 7.212ZM263.153 127.6c2.589 1.295 5.918.37 7.212-2.404 1.295-2.589.185-5.917-2.404-7.212-2.589-1.294-5.918-.37-7.212 2.404-1.48 2.589-.37 5.918 2.404 7.212ZM276.838 134.628c2.589 1.294 5.918.37 7.212-2.404 1.295-2.589.185-5.918-2.404-7.213-2.589-1.294-5.918-.369-7.212 2.404-1.295 2.589-.37 5.918 2.404 7.213ZM150.902 87.471c2.589 1.294 5.917.37 7.212-2.404 1.294-2.774.37-5.918-2.404-7.212-2.774-1.295-5.918-.37-7.213 2.404-1.294 2.774-.184 5.918 2.405 7.212ZM164.586 94.498c2.589 1.295 5.918.37 7.212-2.404 1.295-2.774.37-5.917-2.404-7.212-2.774-1.294-5.917-.37-7.212 2.404-1.294 2.59-.185 5.918 2.404 7.212ZM178.271 101.341c2.589 1.294 5.917.369 7.212-2.404 1.294-2.774.37-5.918-2.404-7.213-2.774-1.294-5.918-.37-7.212 2.404-1.295 2.774-.185 5.918 2.404 7.213ZM191.956 108.368c2.589 1.294 5.917.37 7.212-2.404 1.294-2.774.37-5.918-2.404-7.212-2.774-1.295-5.918-.37-7.212 2.404-1.295 2.589-.185 5.917 2.404 7.212ZM205.64 115.395c2.589 1.295 5.918.37 7.213-2.404 1.294-2.774.369-5.918-2.405-7.212-2.589-1.295-5.917-.37-7.212 2.404-1.294 2.774-.185 5.733 2.404 7.212ZM219.51 122.238c2.589 1.294 5.917.369 7.212-2.405 1.294-2.773.37-5.917-2.404-7.212-2.774-1.294-5.918-.37-7.212 2.404-1.48 2.589-.37 5.918 2.404 7.213ZM233.195 129.265c2.589 1.294 5.918.37 7.212-2.404 1.295-2.774.185-5.918-2.404-7.212-2.589-1.295-5.918-.37-7.212 2.404-1.48 2.589-.37 5.732 2.404 7.212ZM246.88 136.107c2.589 1.295 5.917.37 7.212-2.404 1.294-2.589.185-5.918-2.404-7.212-2.589-1.295-5.918-.37-7.213 2.404-1.294 2.774-.184 5.918 2.405 7.212ZM260.564 143.135c2.589 1.294 5.918.369 7.212-2.405 1.295-2.773.185-5.917-2.404-7.212-2.589-1.294-5.917-.37-7.212 2.404-1.294 2.589-.185 5.733 2.404 7.213ZM250.948 143.874c-2.035-1.109-4.624-.185-5.733 1.849-1.11 2.035-.185 4.624 1.849 5.733 2.034 1.11 4.623.185 5.733-1.849 1.11-2.034.185-4.623-1.849-5.733ZM236.523 136.662c-2.034-1.109-4.623-.185-5.732 1.849-1.11 2.035-.185 4.624 1.849 5.733 2.034 1.11 4.623.185 5.733-1.849 1.109-2.034.185-4.623-1.85-5.733ZM222.284 129.635c-2.035-1.11-4.624-.185-5.733 1.849-1.11 2.034-.185 4.623 1.849 5.733 2.034 1.109 4.623.185 5.733-1.849 1.109-2.035.185-4.809-1.849-5.733ZM207.859 122.422c-2.034-1.109-4.623-.185-5.732 1.85-1.11 2.034-.185 4.623 1.849 5.732 2.034 1.11 4.623.185 5.733-1.849 1.109-2.034.185-4.808-1.85-5.733ZM193.435 115.211c-2.034-1.11-4.623-.185-5.733 1.849-1.109 2.034-.185 4.623 1.849 5.733 2.035 1.109 4.624.185 5.733-1.85 1.11-2.034.37-4.808-1.849-5.732ZM179.196 107.998c-2.034-1.109-4.623-.185-5.733 1.849-1.11 2.035-.185 4.624 1.849 5.733 2.034 1.11 4.623.185 5.733-1.849 1.11-2.034.185-4.808-1.849-5.733ZM164.771 100.786c-2.034-1.11-4.623-.185-5.733 1.849-1.109 2.035-.185 4.624 1.849 5.733 2.035 1.11 4.624.185 5.733-1.849 1.11-2.034.185-4.808-1.849-5.733ZM150.347 93.574c-2.035-1.11-4.624-.185-5.733 1.85-1.11 2.033-.185 4.622 1.849 5.732 2.034 1.109 4.623.185 5.733-1.85 1.109-2.034.185-4.623-1.849-5.732ZM136.107 86.361c-2.034-1.11-4.623-.184-5.732 1.85-1.11 2.034-.185 4.623 1.849 5.732 2.034 1.11 4.623.185 5.733-1.849 1.109-2.034.185-4.808-1.85-5.733ZM236.523 149.977c-2.034-1.109-4.623-.185-5.732 1.849-1.11 2.035-.185 4.624 1.849 5.733 2.034 1.11 4.623.185 5.733-1.849 1.109-2.034.185-4.623-1.85-5.733ZM222.284 142.765c-2.035-1.11-4.624-.185-5.733 1.849-1.11 2.034-.185 4.623 1.849 5.733 2.034 1.109 4.623.185 5.733-1.85 1.109-2.034.185-4.623-1.849-5.732ZM207.859 135.552c-2.034-1.109-4.623-.185-5.732 1.85-1.11 2.034-.185 4.623 1.849 5.732 2.034 1.11 4.623.185 5.733-1.849 1.109-2.034.185-4.623-1.85-5.733ZM193.435 128.34c-2.034-1.109-4.623-.185-5.733 1.85-1.109 2.034-.185 4.623 1.849 5.732 2.035 1.11 4.624.185 5.733-1.849 1.11-2.034.37-4.623-1.849-5.733ZM179.196 121.128c-2.034-1.11-4.623-.185-5.733 1.849-1.11 2.034-.185 4.623 1.849 5.733 2.034 1.11 4.623.185 5.733-1.849 1.11-2.034.185-4.623-1.849-5.733ZM164.771 114.101c-2.034-1.11-4.623-.185-5.733 1.849-1.109 2.034-.185 4.623 1.849 5.733 2.035 1.109 4.624.185 5.733-1.85 1.11-2.034.185-4.808-1.849-5.732ZM150.347 106.889c-2.035-1.11-4.624-.185-5.733 1.849-1.11 2.034-.185 4.623 1.849 5.733 2.034 1.109 4.623.185 5.733-1.849 1.109-2.035.185-4.809-1.849-5.733ZM136.107 99.676c-2.034-1.11-4.623-.185-5.732 1.85-1.11 2.034-.185 4.623 1.849 5.732 2.034 1.11 4.623.185 5.733-1.849 1.109-2.034.185-4.808-1.85-5.733ZM121.683 92.464c-2.034-1.11-4.623-.185-5.733 1.85-1.109 2.033-.185 4.622 1.85 5.732 2.034 1.11 4.623.185 5.732-1.85 1.11-2.034.185-4.807-1.849-5.732ZM90.06 112.251a3.17 3.17 0 0 0 4.438-1.479c.74-1.664.185-3.699-1.479-4.438-1.664-.74-3.699-.185-4.438 1.479-.74 1.664 0 3.699 1.48 4.438ZM102.82 118.909a3.17 3.17 0 0 0 4.439-1.479c.739-1.665.185-3.699-1.48-4.439-1.664-.739-3.698-.185-4.438 1.48-.74 1.664 0 3.698 1.479 4.438ZM115.58 125.566a3.169 3.169 0 0 0 4.438-1.479c.74-1.665.185-3.514-1.479-4.439a3.17 3.17 0 0 0-4.438 1.48c-.74 1.664-.185 3.698 1.479 4.438ZM128.34 132.409c1.665.925 3.514.185 4.439-1.48.924-1.664.184-3.513-1.48-4.438-1.664-.924-3.514-.185-4.438 1.48-.925 1.664-.185 3.513 1.479 4.438ZM141.1 139.066c1.665.925 3.514.185 4.438-1.479.925-1.665.185-3.514-1.479-4.439-1.664-.924-3.514-.185-4.438 1.48-.74 1.479-.185 3.513 1.479 4.438ZM153.86 145.723c1.665.925 3.514.185 4.439-1.479.924-1.664.184-3.514-1.48-4.438-1.664-.925-3.514-.185-4.438 1.479-.925 1.664-.185 3.514 1.479 4.438ZM166.621 152.381c1.664.925 3.513.185 4.438-1.479.924-1.665.185-3.514-1.48-4.439-1.664-.924-3.513-.185-4.438 1.48-.925 1.479-.185 3.513 1.48 4.438ZM179.195 159.038c1.665.925 3.514.185 4.439-1.479.924-1.665.185-3.514-1.48-4.438-1.664-.925-3.513-.185-4.438 1.479-.925 1.664 0 3.514 1.479 4.438ZM191.956 165.696c1.664.925 3.513.185 4.438-1.479.925-1.665.185-3.514-1.479-4.439-1.665-.924-3.514-.185-4.439 1.48-.739 1.664 0 3.513 1.48 4.438ZM204.716 172.353c1.664.925 3.513.185 4.438-1.479.925-1.665.185-3.514-1.479-4.438-1.665-.925-3.514-.185-4.439 1.479-.924 1.664-.185 3.514 1.48 4.438ZM103.93 105.039a3.17 3.17 0 0 0 4.438-1.479c.74-1.664.185-3.698-1.479-4.438-1.665-.74-3.699-.185-4.439 1.479-.739 1.665 0 3.699 1.48 4.438ZM116.69 111.697a3.17 3.17 0 0 0 4.438-1.48c.74-1.664.185-3.698-1.48-4.438-1.664-.74-3.698-.185-4.438 1.479-.74 1.665 0 3.699 1.48 4.439ZM129.45 118.354c1.664.925 3.513.185 4.438-1.479a3.17 3.17 0 0 0-1.48-4.439c-1.664-.739-3.513-.185-4.438 1.48a3.17 3.17 0 0 0 1.48 4.438ZM142.21 125.196c1.664.925 3.514.185 4.438-1.479.925-1.664.185-3.514-1.479-4.438-1.665-.925-3.514-.185-4.439 1.479-.924 1.665-.184 3.514 1.48 4.438ZM154.97 131.854c1.664.924 3.513.185 4.438-1.48.925-1.664.185-3.513-1.479-4.438-1.665-.925-3.514-.185-4.439 1.479-.739 1.48-.185 3.514 1.48 4.439ZM167.73 138.511c1.664.925 3.514.185 4.438-1.479.925-1.664.185-3.514-1.479-4.438-1.665-.925-3.514-.185-4.439 1.479-.924 1.665-.184 3.514 1.48 4.438ZM180.49 145.169c1.664.924 3.514.185 4.438-1.48.925-1.664.185-3.513-1.479-4.438-1.664-.925-3.514-.185-4.438 1.479-.925 1.48-.185 3.514 1.479 4.439ZM193.065 151.826c1.664.925 3.514.185 4.438-1.479.925-1.664.185-3.514-1.479-4.438-1.664-.925-3.514-.185-4.438 1.479-.74 1.664 0 3.514 1.479 4.438ZM205.825 158.484c1.665.924 3.514.185 4.439-1.48.924-1.664.184-3.513-1.48-4.438-1.664-.925-3.514-.185-4.438 1.479-.74 1.665 0 3.514 1.479 4.439ZM218.585 165.141c1.664.924 3.514.185 4.438-1.48.925-1.664.185-3.513-1.479-4.438-1.664-.925-3.514-.185-4.438 1.48-.74 1.664-.185 3.698 1.479 4.438ZM85.622 263.338c3.698 0 6.842-2.959 6.842-6.842 0-3.884-3.144-6.843-6.842-6.843-3.699 0-6.843 2.959-6.843 6.843 0 3.883 3.144 6.842 6.843 6.842ZM85.622 244.66c3.698 0 6.842-2.959 6.842-6.842 0-3.884-3.144-6.842-6.842-6.842-3.699 0-6.843 3.143-6.843 6.842s3.144 6.842 6.843 6.842ZM85.622 225.797c3.698 0 6.842-3.143 6.842-6.842 0-3.698-3.144-6.842-6.842-6.842-3.699 0-6.843 3.144-6.843 6.842 0 3.699 3.144 6.842 6.843 6.842ZM85.622 207.12c3.698 0 6.842-3.144 6.842-6.843 0-3.698-3.144-6.842-6.842-6.842-3.699 0-6.843 3.144-6.843 6.842 0 3.699 3.144 6.843 6.843 6.843ZM85.622 188.257c3.698 0 6.842-3.144 6.842-6.842 0-3.699-3.144-6.843-6.842-6.843-3.699 0-6.843 3.144-6.843 6.843 0 3.698 3.144 6.842 6.843 6.842ZM85.622 169.579c3.698 0 6.842-3.144 6.842-6.842 0-3.699-3.144-6.842-6.842-6.842-3.699 0-6.843 3.143-6.843 6.842 0 3.698 3.144 6.842 6.843 6.842ZM85.622 150.716c3.698 0 6.842-3.143 6.842-6.842 0-3.698-3.144-6.842-6.842-6.842-3.699 0-6.843 3.144-6.843 6.842 0 3.699 3.144 6.842 6.843 6.842ZM85.622 132.039c3.698 0 6.842-3.144 6.842-6.843 0-3.698-3.144-6.842-6.842-6.842-3.699 0-6.843 3.144-6.843 6.842 0 3.699 3.144 6.843 6.843 6.843ZM102.82 272.954c3.699 0 6.843-2.959 6.843-6.842 0-3.884-3.144-6.842-6.843-6.842-3.698 0-6.842 2.958-6.842 6.842 0 3.883 2.959 6.842 6.842 6.842ZM102.82 254.276c3.699 0 6.843-2.958 6.843-6.842 0-3.883-3.144-6.842-6.843-6.842-3.698 0-6.842 2.959-6.842 6.842 0 3.884 2.959 6.842 6.842 6.842ZM102.82 235.414c3.699 0 6.843-3.144 6.843-6.843 0-3.698-3.144-6.842-6.843-6.842-3.698 0-6.842 3.144-6.842 6.842 0 3.699 2.959 6.843 6.842 6.843ZM102.82 216.736c3.699 0 6.843-3.144 6.843-6.842 0-3.699-3.144-6.843-6.843-6.843-3.698 0-6.842 3.144-6.842 6.843 0 3.698 2.959 6.842 6.842 6.842ZM102.82 198.058c3.699 0 6.843-3.144 6.843-6.842 0-3.699-3.144-6.842-6.843-6.842-3.698 0-6.842 3.143-6.842 6.842 0 3.698 2.959 6.842 6.842 6.842ZM102.82 179.195c3.699 0 6.843-3.143 6.843-6.842 0-3.698-3.144-6.842-6.843-6.842-3.698 0-6.842 3.144-6.842 6.842 0 3.699 2.959 6.842 6.842 6.842ZM102.82 160.518c3.699 0 6.843-3.144 6.843-6.843 0-3.698-3.144-6.842-6.843-6.842-3.698 0-6.842 3.144-6.842 6.842 0 3.699 2.959 6.843 6.842 6.843ZM102.82 141.655c3.699 0 6.843-3.144 6.843-6.842 0-3.699-3.144-6.843-6.843-6.843-3.698 0-6.842 3.144-6.842 6.843 0 3.698 2.959 6.842 6.842 6.842ZM119.649 283.125a5.367 5.367 0 0 0 5.362-5.363 5.367 5.367 0 0 0-5.362-5.363 5.367 5.367 0 0 0-5.363 5.363 5.367 5.367 0 0 0 5.363 5.363ZM119.649 268.146a5.367 5.367 0 0 0 5.362-5.363 5.367 5.367 0 0 0-5.362-5.363 5.367 5.367 0 0 0-5.363 5.363 5.367 5.367 0 0 0 5.363 5.363ZM119.649 253.167a5.367 5.367 0 0 0 5.362-5.363 5.367 5.367 0 0 0-5.362-5.363 5.367 5.367 0 0 0-5.363 5.363 5.367 5.367 0 0 0 5.363 5.363ZM119.649 238.373a5.367 5.367 0 0 0 5.362-5.363 5.367 5.367 0 0 0-5.362-5.363 5.367 5.367 0 0 0-5.363 5.363 5.367 5.367 0 0 0 5.363 5.363ZM119.649 223.393a5.367 5.367 0 0 0 5.362-5.363 5.367 5.367 0 0 0-5.362-5.363 5.367 5.367 0 0 0-5.363 5.363 5.367 5.367 0 0 0 5.363 5.363ZM119.649 208.414a5.367 5.367 0 0 0 5.362-5.363 5.367 5.367 0 0 0-5.362-5.363 5.367 5.367 0 0 0-5.363 5.363 5.367 5.367 0 0 0 5.363 5.363ZM119.649 193.435a5.367 5.367 0 0 0 5.362-5.363 5.367 5.367 0 0 0-5.362-5.363 5.367 5.367 0 0 0-5.363 5.363 5.367 5.367 0 0 0 5.363 5.363ZM119.649 178.456a5.367 5.367 0 0 0 5.362-5.363 5.367 5.367 0 0 0-5.362-5.363 5.367 5.367 0 0 0-5.363 5.363 5.367 5.367 0 0 0 5.363 5.363ZM119.649 163.477a5.367 5.367 0 0 0 5.362-5.363 5.367 5.367 0 0 0-5.362-5.363 5.367 5.367 0 0 0-5.363 5.363 5.367 5.367 0 0 0 5.363 5.363ZM119.649 149.792a5.367 5.367 0 0 0 5.362-5.363 5.367 5.367 0 0 0-5.362-5.363 5.367 5.367 0 0 0-5.363 5.363 5.367 5.367 0 0 0 5.363 5.363ZM135.737 292.556a5.367 5.367 0 0 0 5.363-5.362 5.367 5.367 0 0 0-5.363-5.363 5.367 5.367 0 0 0-5.362 5.363 5.366 5.366 0 0 0 5.362 5.362ZM135.737 277.577a5.367 5.367 0 0 0 5.363-5.363 5.367 5.367 0 0 0-5.363-5.362 5.366 5.366 0 0 0-5.362 5.362 5.367 5.367 0 0 0 5.362 5.363ZM135.737 262.783a5.367 5.367 0 0 0 5.363-5.363 5.367 5.367 0 0 0-5.363-5.363 5.367 5.367 0 0 0-5.362 5.363 5.367 5.367 0 0 0 5.362 5.363ZM135.737 247.804a5.367 5.367 0 0 0 5.363-5.363 5.367 5.367 0 0 0-5.363-5.363 5.367 5.367 0 0 0-5.362 5.363 5.367 5.367 0 0 0 5.362 5.363ZM135.737 232.825a5.367 5.367 0 0 0 5.363-5.363 5.367 5.367 0 0 0-5.363-5.363 5.367 5.367 0 0 0-5.362 5.363 5.367 5.367 0 0 0 5.362 5.363ZM135.737 217.845a5.367 5.367 0 0 0 5.363-5.362 5.367 5.367 0 0 0-5.363-5.363 5.367 5.367 0 0 0-5.362 5.363 5.366 5.366 0 0 0 5.362 5.362ZM135.737 202.866a5.367 5.367 0 0 0 5.363-5.362 5.367 5.367 0 0 0-5.363-5.363 5.367 5.367 0 0 0-5.362 5.363 5.366 5.366 0 0 0 5.362 5.362ZM135.737 188.072a5.367 5.367 0 0 0 5.363-5.363 5.367 5.367 0 0 0-5.363-5.363 5.367 5.367 0 0 0-5.362 5.363 5.367 5.367 0 0 0 5.362 5.363ZM135.737 173.093a5.367 5.367 0 0 0 5.363-5.363 5.367 5.367 0 0 0-5.363-5.363 5.367 5.367 0 0 0-5.362 5.363 5.367 5.367 0 0 0 5.362 5.363ZM135.737 159.223a5.367 5.367 0 0 0 5.363-5.363 5.367 5.367 0 0 0-5.363-5.362 5.366 5.366 0 0 0-5.362 5.362 5.367 5.367 0 0 0 5.362 5.363ZM151.086 302.358c2.404 0 4.254-1.85 4.254-4.254 0-2.404-1.85-4.253-4.254-4.253-2.404 0-4.253 1.849-4.253 4.253s1.849 4.254 4.253 4.254ZM151.086 287.009c2.404 0 4.254-1.85 4.254-4.254 0-2.404-1.85-4.253-4.254-4.253-2.404 0-4.253 1.849-4.253 4.253s1.849 4.254 4.253 4.254ZM151.086 271.66c2.404 0 4.254-1.85 4.254-4.254 0-2.404-1.85-4.253-4.254-4.253-2.404 0-4.253 1.849-4.253 4.253s1.849 4.254 4.253 4.254ZM151.086 256.311c2.404 0 4.254-1.849 4.254-4.253 0-2.405-1.85-4.254-4.254-4.254-2.404 0-4.253 1.849-4.253 4.254 0 2.404 1.849 4.253 4.253 4.253ZM151.086 241.146c2.404 0 4.254-1.849 4.254-4.253s-1.85-4.253-4.254-4.253c-2.404 0-4.253 1.849-4.253 4.253 0 2.219 1.849 4.253 4.253 4.253ZM151.086 225.798c2.404 0 4.254-1.85 4.254-4.254 0-2.404-1.85-4.253-4.254-4.253-2.404 0-4.253 1.849-4.253 4.253s1.849 4.254 4.253 4.254ZM151.086 210.449c2.404 0 4.254-1.85 4.254-4.254 0-2.404-1.85-4.253-4.254-4.253-2.404 0-4.253 1.849-4.253 4.253s1.849 4.254 4.253 4.254ZM151.086 195.099c2.404 0 4.254-1.849 4.254-4.253s-1.85-4.253-4.254-4.253c-2.404 0-4.253 1.849-4.253 4.253s1.849 4.253 4.253 4.253ZM151.086 179.75c2.404 0 4.254-1.849 4.254-4.253s-1.85-4.253-4.254-4.253c-2.404 0-4.253 1.849-4.253 4.253s1.849 4.253 4.253 4.253ZM151.086 164.401c2.404 0 4.254-1.849 4.254-4.253s-1.85-4.253-4.254-4.253c-2.404 0-4.253 1.849-4.253 4.253s1.849 4.253 4.253 4.253ZM166.621 311.419c2.404 0 4.253-1.849 4.253-4.253s-1.849-4.253-4.253-4.253c-2.405 0-4.254 1.849-4.254 4.253s2.034 4.253 4.254 4.253ZM166.621 296.07c2.404 0 4.253-1.849 4.253-4.253s-1.849-4.254-4.253-4.254c-2.405 0-4.254 1.85-4.254 4.254 0 2.404 2.034 4.253 4.254 4.253ZM166.621 280.721c2.404 0 4.253-1.849 4.253-4.253s-1.849-4.254-4.253-4.254c-2.405 0-4.254 1.85-4.254 4.254 0 2.404 2.034 4.253 4.254 4.253ZM166.621 265.372c2.404 0 4.253-1.849 4.253-4.253s-1.849-4.254-4.253-4.254c-2.405 0-4.254 1.85-4.254 4.254 0 2.404 2.034 4.253 4.254 4.253ZM166.621 250.208c2.404 0 4.253-1.849 4.253-4.253 0-2.405-1.849-4.254-4.253-4.254-2.405 0-4.254 1.849-4.254 4.254 0 2.404 2.034 4.253 4.254 4.253ZM166.621 234.859c2.404 0 4.253-1.849 4.253-4.253s-1.849-4.253-4.253-4.253c-2.405 0-4.254 1.849-4.254 4.253s2.034 4.253 4.254 4.253ZM166.621 219.51c2.404 0 4.253-1.849 4.253-4.253s-1.849-4.254-4.253-4.254c-2.405 0-4.254 1.85-4.254 4.254 0 2.404 2.034 4.253 4.254 4.253ZM166.621 204.161c2.404 0 4.253-1.849 4.253-4.253s-1.849-4.254-4.253-4.254c-2.405 0-4.254 1.85-4.254 4.254 0 2.404 2.034 4.253 4.254 4.253ZM166.621 188.812c2.404 0 4.253-1.849 4.253-4.253 0-2.405-1.849-4.254-4.253-4.254-2.405 0-4.254 1.849-4.254 4.254 0 2.404 2.034 4.253 4.254 4.253ZM166.621 173.463c2.404 0 4.253-1.85 4.253-4.254 0-2.404-1.849-4.253-4.253-4.253-2.405 0-4.254 1.849-4.254 4.253s2.034 4.254 4.254 4.254ZM181.785 319.556a3.314 3.314 0 0 0 3.328-3.328 3.314 3.314 0 0 0-3.328-3.329 3.314 3.314 0 0 0-3.329 3.329 3.314 3.314 0 0 0 3.329 3.328ZM181.785 305.502a3.315 3.315 0 0 0 3.328-3.329 3.315 3.315 0 0 0-3.328-3.329 3.315 3.315 0 0 0-3.329 3.329 3.315 3.315 0 0 0 3.329 3.329ZM181.785 291.632a3.314 3.314 0 0 0 3.328-3.329 3.314 3.314 0 0 0-3.328-3.328 3.314 3.314 0 0 0-3.329 3.328 3.314 3.314 0 0 0 3.329 3.329ZM181.785 277.762a3.314 3.314 0 0 0 3.328-3.328 3.314 3.314 0 0 0-3.328-3.329 3.314 3.314 0 0 0-3.329 3.329 3.314 3.314 0 0 0 3.329 3.328ZM181.785 263.893a3.315 3.315 0 0 0 3.328-3.329 3.315 3.315 0 0 0-3.328-3.329 3.315 3.315 0 0 0-3.329 3.329 3.315 3.315 0 0 0 3.329 3.329ZM181.785 250.023a3.314 3.314 0 0 0 3.328-3.329 3.314 3.314 0 0 0-3.328-3.328 3.314 3.314 0 0 0-3.329 3.328 3.314 3.314 0 0 0 3.329 3.329ZM181.785 236.154a3.315 3.315 0 0 0 3.328-3.329 3.315 3.315 0 0 0-3.328-3.329 3.315 3.315 0 0 0-3.329 3.329 3.315 3.315 0 0 0 3.329 3.329ZM181.785 222.284a3.315 3.315 0 0 0 3.328-3.329 3.315 3.315 0 0 0-3.328-3.329 3.315 3.315 0 0 0-3.329 3.329 3.315 3.315 0 0 0 3.329 3.329ZM181.785 208.229a3.314 3.314 0 0 0 3.328-3.329 3.314 3.314 0 0 0-3.328-3.328 3.314 3.314 0 0 0-3.329 3.328 3.314 3.314 0 0 0 3.329 3.329ZM181.785 194.36a3.315 3.315 0 0 0 3.328-3.329 3.315 3.315 0 0 0-3.328-3.329 3.315 3.315 0 0 0-3.329 3.329 3.315 3.315 0 0 0 3.329 3.329ZM181.785 180.49a3.314 3.314 0 0 0 3.328-3.329 3.314 3.314 0 0 0-3.328-3.328 3.314 3.314 0 0 0-3.329 3.328 3.314 3.314 0 0 0 3.329 3.329ZM196.394 328.433a3.316 3.316 0 0 0 3.329-3.329 3.316 3.316 0 0 0-3.329-3.329 3.316 3.316 0 0 0-3.329 3.329 3.316 3.316 0 0 0 3.329 3.329ZM196.394 314.563a3.315 3.315 0 0 0 3.329-3.329 3.315 3.315 0 0 0-3.329-3.328 3.315 3.315 0 0 0-3.329 3.328c0 1.85 1.48 3.329 3.329 3.329ZM196.394 300.694a3.316 3.316 0 0 0 3.329-3.329 3.316 3.316 0 0 0-3.329-3.329 3.316 3.316 0 0 0-3.329 3.329 3.316 3.316 0 0 0 3.329 3.329ZM196.394 286.639a3.316 3.316 0 0 0 3.329-3.329 3.316 3.316 0 0 0-3.329-3.329 3.316 3.316 0 0 0-3.329 3.329 3.316 3.316 0 0 0 3.329 3.329ZM196.394 272.769a3.315 3.315 0 0 0 3.329-3.328c0-1.85-1.48-3.329-3.329-3.329a3.315 3.315 0 0 0-3.329 3.329 3.315 3.315 0 0 0 3.329 3.328ZM196.394 258.715a3.316 3.316 0 0 0 3.329-3.329 3.316 3.316 0 0 0-3.329-3.329 3.316 3.316 0 0 0-3.329 3.329 3.316 3.316 0 0 0 3.329 3.329ZM196.394 244.845a3.316 3.316 0 0 0 3.329-3.329 3.315 3.315 0 0 0-3.329-3.328 3.315 3.315 0 0 0-3.329 3.328 3.316 3.316 0 0 0 3.329 3.329ZM196.394 230.791a3.316 3.316 0 0 0 3.329-3.329 3.316 3.316 0 0 0-3.329-3.329 3.316 3.316 0 0 0-3.329 3.329 3.316 3.316 0 0 0 3.329 3.329ZM196.394 216.921a3.315 3.315 0 0 0 3.329-3.329 3.315 3.315 0 0 0-3.329-3.328 3.315 3.315 0 0 0-3.329 3.328c0 1.85 1.48 3.329 3.329 3.329ZM196.394 203.051a3.315 3.315 0 0 0 3.329-3.328c0-1.85-1.48-3.329-3.329-3.329a3.315 3.315 0 0 0-3.329 3.329 3.315 3.315 0 0 0 3.329 3.328ZM196.394 188.997a3.316 3.316 0 0 0 3.329-3.329 3.316 3.316 0 0 0-3.329-3.329 3.316 3.316 0 0 0-3.329 3.329 3.316 3.316 0 0 0 3.329 3.329Z"/></svg>