<svg xmlns="http://www.w3.org/2000/svg" width="401" height="401" fill="none" viewBox="0 0 401 401"><path fill="#DADADA" d="M344.935 327.48H42.19l-9.355-5.395V82.62h298.32l13.78 8.85v236.01Z"/><path fill="#222" d="M344.935 328.87H42.19c-.245 0-.485-.065-.695-.185l-9.35-5.395a1.39 1.39 0 0 1-.695-1.205V82.62c0-.765.62-1.39 1.39-1.39h298.315c.265 0 .525.075.75.22l13.78 8.845c.4.255.64.695.64 1.17v236.01c0 .765-.62 1.39-1.39 1.39v.005ZM42.56 326.09h300.985V92.23l-12.8-8.215H34.225v237.27l8.335 4.81v-.005Z"/><path fill="#fff" d="M344.94 91.47H42.19v236.01h302.75V91.47Z"/><path fill="#222" d="M344.935 328.87H42.19a1.39 1.39 0 0 1-1.39-1.39V91.47c0-.765.62-1.39 1.39-1.39h302.745c.765 0 1.39.62 1.39 1.39v236.01c0 .765-.62 1.39-1.39 1.39Zm-301.36-2.78h299.97V92.86H43.575v233.23Z"/><path fill="#444" d="M236.315 172.545H60.4V305.03h175.915V172.545Z"/><path fill="#222" d="M236.31 306.42H60.4a1.39 1.39 0 0 1-1.39-1.39V172.545c0-.765.62-1.39 1.39-1.39h175.91c.765 0 1.39.62 1.39 1.39V305.03c0 .765-.62 1.39-1.39 1.39Zm-174.525-2.78H234.92V173.935H61.785V303.64Z"/><path fill="#FF3158" d="M169.93 189.919h-49.945v106.45h49.945v-106.45Z"/><path fill="#222" d="M169.935 297.759H119.99a1.39 1.39 0 0 1-1.39-1.39v-106.45c0-.765.62-1.39 1.39-1.39h49.945c.765 0 1.39.62 1.39 1.39v106.45c0 .765-.62 1.39-1.39 1.39Zm-48.56-2.78h47.17V191.304h-47.17v103.675Z"/><path fill="#222" d="M126.45 297.759a1.39 1.39 0 0 1-1.39-1.39v-106.45a1.39 1.39 0 0 1 2.78 0v106.45c0 .765-.62 1.39-1.39 1.39ZM135.705 297.759a1.39 1.39 0 0 1-1.39-1.39v-106.45a1.39 1.39 0 0 1 2.78 0v106.45c0 .765-.62 1.39-1.39 1.39ZM144.96 297.759a1.39 1.39 0 0 1-1.39-1.39v-106.45a1.39 1.39 0 0 1 2.78 0v106.45c0 .765-.62 1.39-1.39 1.39ZM154.215 297.759a1.39 1.39 0 0 1-1.39-1.39v-106.45a1.39 1.39 0 0 1 2.78 0v106.45c0 .765-.62 1.39-1.39 1.39ZM163.475 297.759a1.39 1.39 0 0 1-1.39-1.39v-106.45a1.39 1.39 0 0 1 2.78 0v106.45c0 .765-.62 1.39-1.39 1.39Z"/><path fill="#DADADA" d="M214.07 296.375h-44.135V203.01l44.135 25.535v67.83Z"/><path fill="#222" d="M214.07 297.76h-44.135a1.39 1.39 0 0 1-1.39-1.39v-93.365c0-.495.265-.955.695-1.205.43-.25.96-.25 1.39 0l44.135 25.535c.43.25.695.705.695 1.2v67.83c0 .765-.62 1.39-1.39 1.39v.005Zm-42.745-2.78h41.36v-65.64l-41.36-23.93v89.57Z"/><path fill="#fff" d="M182.24 229.885h-6.23v9.82h6.23v-9.82Z"/><path fill="#222" d="M182.24 241.095h-6.23a1.39 1.39 0 0 1-1.39-1.39v-9.82c0-.765.62-1.39 1.39-1.39h6.23c.765 0 1.39.62 1.39 1.39v9.82c0 .765-.62 1.39-1.39 1.39Zm-4.84-2.78h3.455v-7.045H177.4v7.045Z"/><path fill="#fff" d="M194.715 229.885h-6.23v9.82h6.23v-9.82Z"/><path fill="#222" d="M194.72 241.095h-6.23a1.39 1.39 0 0 1-1.39-1.39v-9.82c0-.765.62-1.39 1.39-1.39h6.23c.765 0 1.39.62 1.39 1.39v9.82c0 .765-.62 1.39-1.39 1.39Zm-4.84-2.78h3.455v-7.045h-3.455v7.045Z"/><path fill="#fff" d="M207.195 229.885h-6.23v9.82h6.23v-9.82Z"/><path fill="#222" d="M207.195 241.095h-6.23a1.39 1.39 0 0 1-1.39-1.39v-9.82c0-.765.62-1.39 1.39-1.39h6.23c.765 0 1.39.62 1.39 1.39v9.82c0 .765-.62 1.39-1.39 1.39Zm-4.84-2.78h3.455v-7.045h-3.455v7.045Z"/><path fill="#fff" d="M182.24 244.779h-6.23v9.82h6.23v-9.82Z"/><path fill="#222" d="M182.24 255.99h-6.23a1.39 1.39 0 0 1-1.39-1.39v-9.82c0-.765.62-1.39 1.39-1.39h6.23c.765 0 1.39.62 1.39 1.39v9.82c0 .765-.62 1.39-1.39 1.39Zm-4.84-2.78h3.455v-7.045H177.4v7.045Z"/><path fill="#fff" d="M194.715 244.779h-6.23v9.82h6.23v-9.82Z"/><path fill="#222" d="M194.72 255.99h-6.23a1.39 1.39 0 0 1-1.39-1.39v-9.82c0-.765.62-1.39 1.39-1.39h6.23c.765 0 1.39.62 1.39 1.39v9.82c0 .765-.62 1.39-1.39 1.39Zm-4.84-2.78h3.455v-7.045h-3.455v7.045Z"/><path fill="#fff" d="M207.195 244.779h-6.23v9.82h6.23v-9.82Z"/><path fill="#222" d="M207.195 255.99h-6.23a1.39 1.39 0 0 1-1.39-1.39v-9.82c0-.765.62-1.39 1.39-1.39h6.23c.765 0 1.39.62 1.39 1.39v9.82c0 .765-.62 1.39-1.39 1.39Zm-4.84-2.78h3.455v-7.045h-3.455v7.045Z"/><path fill="#fff" d="M182.24 260.055h-6.23v9.82h6.23v-9.82Z"/><path fill="#222" d="M182.24 271.26h-6.23a1.39 1.39 0 0 1-1.39-1.39v-9.82c0-.765.62-1.39 1.39-1.39h6.23c.765 0 1.39.62 1.39 1.39v9.82c0 .765-.62 1.39-1.39 1.39Zm-4.84-2.78h3.455v-7.045H177.4v7.045Z"/><path fill="#fff" d="M194.715 260.055h-6.23v9.82h6.23v-9.82Z"/><path fill="#222" d="M194.72 271.26h-6.23a1.39 1.39 0 0 1-1.39-1.39v-9.82c0-.765.62-1.39 1.39-1.39h6.23c.765 0 1.39.62 1.39 1.39v9.82c0 .765-.62 1.39-1.39 1.39Zm-4.84-2.78h3.455v-7.045h-3.455v7.045Z"/><path fill="#fff" d="M207.195 260.055h-6.23v9.82h6.23v-9.82Z"/><path fill="#222" d="M207.195 271.26h-6.23a1.39 1.39 0 0 1-1.39-1.39v-9.82c0-.765.62-1.39 1.39-1.39h6.23c.765 0 1.39.62 1.39 1.39v9.82c0 .765-.62 1.39-1.39 1.39Zm-4.84-2.78h3.455v-7.045h-3.455v7.045Z"/><path fill="#fff" d="M182.24 275.325h-6.23v9.82h6.23v-9.82Z"/><path fill="#222" d="M182.24 286.535h-6.23a1.39 1.39 0 0 1-1.39-1.39v-9.82c0-.765.62-1.39 1.39-1.39h6.23c.765 0 1.39.62 1.39 1.39v9.82c0 .765-.62 1.39-1.39 1.39Zm-4.84-2.78h3.455v-7.045H177.4v7.045Z"/><path fill="#fff" d="M194.715 275.325h-6.23v9.82h6.23v-9.82Z"/><path fill="#222" d="M194.72 286.535h-6.23a1.39 1.39 0 0 1-1.39-1.39v-9.82c0-.765.62-1.39 1.39-1.39h6.23c.765 0 1.39.62 1.39 1.39v9.82c0 .765-.62 1.39-1.39 1.39Zm-4.84-2.78h3.455v-7.045h-3.455v7.045Z"/><path fill="#fff" d="M207.195 275.325h-6.23v9.82h6.23v-9.82Z"/><path fill="#222" d="M207.195 286.535h-6.23a1.39 1.39 0 0 1-1.39-1.39v-9.82c0-.765.62-1.39 1.39-1.39h6.23c.765 0 1.39.62 1.39 1.39v9.82c0 .765-.62 1.39-1.39 1.39Zm-4.84-2.78h3.455v-7.045h-3.455v7.045Z"/><path fill="#F5F4F3" d="M126.69 216.455H83.795v79.92h42.895v-79.92Z"/><path fill="#222" d="M126.69 297.76H83.795a1.39 1.39 0 0 1-1.39-1.39v-79.92c0-.765.62-1.39 1.39-1.39h42.895c.765 0 1.39.62 1.39 1.39v79.92c0 .765-.62 1.39-1.39 1.39Zm-41.505-2.78H125.3v-77.14H85.185v77.14Z"/><path fill="#444" d="M102.475 221.369h-11.85v9.82h11.85v-9.82Z"/><path fill="#222" d="M102.475 232.579H90.62a1.39 1.39 0 0 1-1.39-1.39v-9.82c0-.765.62-1.39 1.39-1.39h11.855c.765 0 1.39.62 1.39 1.39v9.82c0 .765-.62 1.39-1.39 1.39Zm-10.465-2.78h9.075v-7.044H92.01v7.044Z"/><path fill="#444" d="M119.855 221.369h-11.85v9.82h11.85v-9.82Z"/><path fill="#222" d="M119.86 232.579h-11.85a1.39 1.39 0 0 1-1.39-1.39v-9.82c0-.765.62-1.39 1.39-1.39h11.85c.765 0 1.39.62 1.39 1.39v9.82c0 .765-.62 1.39-1.39 1.39Zm-10.465-2.78h9.075v-7.044h-9.075v7.044Z"/><path fill="#444" d="M102.475 236.265h-11.85v9.82h11.85v-9.82Z"/><path fill="#222" d="M102.475 247.475H90.62a1.39 1.39 0 0 1-1.39-1.39v-9.82c0-.765.62-1.39 1.39-1.39h11.855c.765 0 1.39.62 1.39 1.39v9.82c0 .765-.62 1.39-1.39 1.39Zm-10.465-2.78h9.075v-7.04H92.01v7.04Z"/><path fill="#444" d="M119.855 236.265h-11.85v9.82h11.85v-9.82Z"/><path fill="#222" d="M119.86 247.475h-11.85a1.39 1.39 0 0 1-1.39-1.39v-9.82c0-.765.62-1.39 1.39-1.39h11.85c.765 0 1.39.62 1.39 1.39v9.82c0 .765-.62 1.39-1.39 1.39Zm-10.465-2.78h9.075v-7.04h-9.075v7.04Z"/><path fill="#444" d="M102.475 251.164h-11.85v9.82h11.85v-9.82Z"/><path fill="#222" d="M102.475 262.374H90.62a1.39 1.39 0 0 1-1.39-1.39v-9.82c0-.765.62-1.39 1.39-1.39h11.855c.765 0 1.39.62 1.39 1.39v9.82c0 .765-.62 1.39-1.39 1.39Zm-10.465-2.78h9.075v-7.045H92.01v7.045Z"/><path fill="#444" d="M119.855 251.164h-11.85v9.82h11.85v-9.82Z"/><path fill="#222" d="M119.86 262.374h-11.85a1.39 1.39 0 0 1-1.39-1.39v-9.82c0-.765.62-1.39 1.39-1.39h11.85c.765 0 1.39.62 1.39 1.39v9.82c0 .765-.62 1.39-1.39 1.39Zm-10.465-2.78h9.075v-7.045h-9.075v7.045Z"/><path fill="#444" d="M102.475 266.06h-11.85v9.82h11.85v-9.82Z"/><path fill="#222" d="M102.475 277.27H90.62a1.39 1.39 0 0 1-1.39-1.39v-9.82c0-.765.62-1.39 1.39-1.39h11.855c.765 0 1.39.62 1.39 1.39v9.82c0 .765-.62 1.39-1.39 1.39Zm-10.465-2.78h9.075v-7.045H92.01v7.045Z"/><path fill="#444" d="M119.855 266.06h-11.85v9.82h11.85v-9.82Z"/><path fill="#222" d="M119.86 277.27h-11.85a1.39 1.39 0 0 1-1.39-1.39v-9.82c0-.765.62-1.39 1.39-1.39h11.85c.765 0 1.39.62 1.39 1.39v9.82c0 .765-.62 1.39-1.39 1.39Zm-10.465-2.78h9.075v-7.045h-9.075v7.045Z"/><path fill="#444" d="M102.475 280.959h-11.85v9.82h11.85v-9.82Z"/><path fill="#222" d="M102.475 292.169H90.62a1.39 1.39 0 0 1-1.39-1.39v-9.82c0-.765.62-1.39 1.39-1.39h11.855c.765 0 1.39.62 1.39 1.39v9.82c0 .765-.62 1.39-1.39 1.39Zm-10.465-2.78h9.075v-7.045H92.01v7.045Z"/><path fill="#444" d="M119.855 280.959h-11.85v9.82h11.85v-9.82Z"/><path fill="#222" d="M119.86 292.169h-11.85a1.39 1.39 0 0 1-1.39-1.39v-9.82c0-.765.62-1.39 1.39-1.39h11.85c.765 0 1.39.62 1.39 1.39v9.82c0 .765-.62 1.39-1.39 1.39Zm-10.465-2.78h9.075v-7.045h-9.075v7.045Z"/><path fill="#DADADA" d="M278.025 105.985H67.785v17.35h210.24v-17.35ZM231.115 132.74H67.785v17.35h163.33v-17.35Z"/><path fill="#222" d="M274.235 129.425H61.215V109.3h213.02v20.125Zm-210.24-2.78h207.46v-14.57H63.995v14.57ZM227.325 156.18H61.215v-20.125h166.11v20.125Zm-163.33-2.78H224.55v-14.57H63.995v14.57Z"/><path fill="#444" d="M310.185 296.375h-60.31v8.905h60.31v-8.905ZM331.54 281.42h-81.665v8.905h81.665v-8.905Z"/><path fill="#FF3158" d="M313.75 255.72c35.277 0 63.875-28.598 63.875-63.875s-28.598-63.875-63.875-63.875-63.875 28.598-63.875 63.875 28.598 63.875 63.875 63.875Z"/><path fill="#222" d="M313.75 257.105c-35.985 0-65.265-29.275-65.265-65.265s29.275-65.265 65.265-65.265 65.265 29.275 65.265 65.265-29.275 65.265-65.265 65.265Zm0-127.75c-34.455 0-62.485 28.03-62.485 62.485s28.03 62.485 62.485 62.485 62.485-28.03 62.485-62.485-28.03-62.485-62.485-62.485Z"/><path fill="#fff" d="M261.41 193.615v-7.335l33.225-21.84v12.565l-20.07 12.65v.59l20.07 12.65v12.65L261.41 193.62v-.005Z"/><path fill="#000" d="M294.635 216.93c-.265 0-.535-.075-.765-.23l-33.225-21.925a1.383 1.383 0 0 1-.625-1.16v-7.335c0-.47.235-.905.625-1.16l33.225-21.84a1.38 1.38 0 0 1 1.42-.06c.45.24.73.71.73 1.22v12.565c0 .475-.245.92-.65 1.175l-18.675 11.77 18.675 11.77c.405.255.65.7.65 1.175v12.65c0 .51-.28.98-.73 1.225a1.39 1.39 0 0 1-.66.165l.005-.005ZM262.8 192.87l30.445 20.09v-9.3l-19.42-12.24a1.39 1.39 0 0 1-.65-1.175v-.59c0-.475.245-.92.65-1.175l19.42-12.24v-9.225L262.8 187.03v5.84Z"/><path fill="#fff" d="m300.33 230.715 15.515-77.745h11.545l-15.51 77.745h-11.55Z"/><path fill="#000" d="M311.875 232.105H300.33a1.393 1.393 0 0 1-1.365-1.665l15.515-77.745c.13-.65.7-1.115 1.36-1.115h11.545a1.393 1.393 0 0 1 1.365 1.665l-15.51 77.745c-.13.65-.7 1.115-1.36 1.115h-.005Zm-9.855-2.78h8.715l14.96-74.965h-8.715l-14.96 74.965Z"/><path fill="#fff" d="m332.86 202.89 20.07-12.65v-.59L332.86 177v-12.565l33.225 21.755v7.335l-33.225 22.01v-12.65.005Z"/><path fill="#000" d="M332.86 216.93a1.384 1.384 0 0 1-1.385-1.39v-12.65c0-.475.245-.92.65-1.175l18.675-11.77-18.675-11.77a1.39 1.39 0 0 1-.65-1.175v-12.565a1.391 1.391 0 0 1 2.15-1.16l33.225 21.755c.39.255.63.695.63 1.16v7.335c0 .465-.235.9-.62 1.16l-33.225 22.01c-.23.155-.5.23-.765.23l-.01.005Zm1.39-13.27v9.295l30.445-20.17v-5.84L334.25 167.01v9.23l19.42 12.24c.405.255.65.7.65 1.175v.59c0 .475-.245.92-.65 1.175l-19.42 12.24Z"/><path fill="#fff" d="M264.02 191.765v-7.335l33.225-21.84v12.565l-20.07 12.65v.59l20.07 12.65v12.65L264.02 191.77v-.005ZM302.935 228.86l15.515-77.745h11.545l-15.51 77.745h-11.55ZM335.47 201.04l20.07-12.65v-.59l-20.07-12.65v-12.565l33.225 21.755v7.335l-33.225 22.01v-12.65.005Z"/><path fill="#000" d="M294.635 216.93c-.265 0-.535-.075-.765-.23l-33.225-21.925a1.383 1.383 0 0 1-.625-1.16v-7.335c0-.47.235-.905.625-1.16l33.225-21.84a1.38 1.38 0 0 1 1.42-.06c.45.24.73.71.73 1.22v12.565c0 .475-.245.92-.65 1.175l-18.675 11.77 18.675 11.77c.405.255.65.7.65 1.175v12.65c0 .51-.28.98-.73 1.225a1.39 1.39 0 0 1-.66.165l.005-.005ZM262.8 192.87l30.445 20.09v-9.3l-19.42-12.24a1.39 1.39 0 0 1-.65-1.175v-.59c0-.475.245-.92.65-1.175l19.42-12.24v-9.225L262.8 187.03v5.84ZM311.875 232.105H300.33a1.393 1.393 0 0 1-1.365-1.665l15.515-77.745c.13-.65.7-1.115 1.36-1.115h11.545a1.393 1.393 0 0 1 1.365 1.665l-15.51 77.745c-.13.65-.7 1.115-1.36 1.115h-.005Zm-9.855-2.78h8.715l14.96-74.965h-8.715l-14.96 74.965ZM332.86 216.93a1.384 1.384 0 0 1-1.385-1.39v-12.65c0-.475.245-.92.65-1.175l18.675-11.77-18.675-11.77a1.39 1.39 0 0 1-.65-1.175v-12.565a1.391 1.391 0 0 1 2.15-1.16l33.225 21.755c.39.255.63.695.63 1.16v7.335c0 .465-.235.9-.62 1.16l-33.225 22.01c-.23.155-.5.23-.765.23l-.01.005Zm1.39-13.27v9.295l30.445-20.17v-5.84L334.25 167.01v9.23l19.42 12.24c.405.255.65.7.65 1.175v.59c0 .475-.245.92-.65 1.175l-19.42 12.24Z"/></svg>