<svg xmlns="http://www.w3.org/2000/svg" width="400" height="400" fill="none" viewBox="0 0 400 400"><path fill="#DADADA" d="M344.435 326.73H41.69l-9.355-5.395V81.87h298.32l13.78 8.85v236.01Z"/><path fill="#222" d="M344.435 328.12H41.69c-.245 0-.485-.065-.695-.185l-9.35-5.395a1.39 1.39 0 0 1-.695-1.205V81.87c0-.765.62-1.39 1.39-1.39h298.315c.265 0 .525.075.75.22l13.78 8.845c.4.255.64.695.64 1.17v236.01c0 .765-.62 1.39-1.39 1.39v.005ZM42.06 325.34h300.985V91.48l-12.8-8.215H33.725v237.27l8.335 4.81v-.005Z"/><path fill="#fff" d="M344.44 90.72H41.69v236.01h302.75V90.72Z"/><path fill="#222" d="M344.435 328.12H41.69a1.39 1.39 0 0 1-1.39-1.39V90.72c0-.765.62-1.39 1.39-1.39h302.745c.765 0 1.39.62 1.39 1.39v236.01c0 .765-.62 1.39-1.39 1.39Zm-301.36-2.78h299.97V92.11H43.075v233.23Z"/><path fill="#444" d="M235.815 171.795H59.9V304.28h175.915V171.795Z"/><path fill="#222" d="M235.81 305.67H59.9a1.39 1.39 0 0 1-1.39-1.39V171.795c0-.765.62-1.39 1.39-1.39h175.91c.765 0 1.39.62 1.39 1.39V304.28c0 .765-.62 1.39-1.39 1.39Zm-174.525-2.78H234.42V173.185H61.285V302.89Z"/><path fill="#FF3158" d="M169.429 189.169h-49.945v106.45h49.945v-106.45Z"/><path fill="#222" d="M169.435 297.009H119.49a1.39 1.39 0 0 1-1.39-1.39v-106.45c0-.765.62-1.39 1.39-1.39h49.945c.765 0 1.39.62 1.39 1.39v106.45c0 .765-.62 1.39-1.39 1.39Zm-48.56-2.78h47.17V190.554h-47.17v103.675Z"/><path fill="#222" d="M125.95 297.009a1.39 1.39 0 0 1-1.39-1.39v-106.45a1.39 1.39 0 0 1 2.78 0v106.45c0 .765-.62 1.39-1.39 1.39ZM135.205 297.009a1.39 1.39 0 0 1-1.39-1.39v-106.45a1.39 1.39 0 0 1 2.78 0v106.45c0 .765-.62 1.39-1.39 1.39ZM144.46 297.009a1.39 1.39 0 0 1-1.39-1.39v-106.45a1.39 1.39 0 0 1 2.78 0v106.45c0 .765-.62 1.39-1.39 1.39ZM153.715 297.009a1.39 1.39 0 0 1-1.39-1.39v-106.45a1.39 1.39 0 0 1 2.78 0v106.45c0 .765-.62 1.39-1.39 1.39ZM162.975 297.009a1.39 1.39 0 0 1-1.39-1.39v-106.45a1.39 1.39 0 0 1 2.78 0v106.45c0 .765-.62 1.39-1.39 1.39Z"/><path fill="#DADADA" d="M213.57 295.625h-44.135V202.26l44.135 25.535v67.83Z"/><path fill="#222" d="M213.57 297.01h-44.135a1.39 1.39 0 0 1-1.39-1.39v-93.365c0-.495.265-.955.695-1.205.43-.25.96-.25 1.39 0l44.135 25.535c.43.25.695.705.695 1.2v67.83c0 .765-.62 1.39-1.39 1.39v.005Zm-42.745-2.78h41.36v-65.64l-41.36-23.93v89.57Z"/><path fill="#fff" d="M181.74 229.135h-6.23v9.82h6.23v-9.82Z"/><path fill="#222" d="M181.74 240.345h-6.23a1.39 1.39 0 0 1-1.39-1.39v-9.82c0-.765.62-1.39 1.39-1.39h6.23c.765 0 1.39.62 1.39 1.39v9.82c0 .765-.62 1.39-1.39 1.39Zm-4.84-2.78h3.455v-7.045H176.9v7.045Z"/><path fill="#fff" d="M194.214 229.135h-6.23v9.82h6.23v-9.82Z"/><path fill="#222" d="M194.22 240.345h-6.23a1.39 1.39 0 0 1-1.39-1.39v-9.82c0-.765.62-1.39 1.39-1.39h6.23c.765 0 1.39.62 1.39 1.39v9.82c0 .765-.62 1.39-1.39 1.39Zm-4.84-2.78h3.455v-7.045h-3.455v7.045Z"/><path fill="#fff" d="M206.695 229.135h-6.23v9.82h6.23v-9.82Z"/><path fill="#222" d="M206.695 240.345h-6.23a1.39 1.39 0 0 1-1.39-1.39v-9.82c0-.765.62-1.39 1.39-1.39h6.23c.765 0 1.39.62 1.39 1.39v9.82c0 .765-.62 1.39-1.39 1.39Zm-4.84-2.78h3.455v-7.045h-3.455v7.045Z"/><path fill="#fff" d="M181.74 244.029h-6.23v9.82h6.23v-9.82Z"/><path fill="#222" d="M181.74 255.24h-6.23a1.39 1.39 0 0 1-1.39-1.39v-9.82c0-.765.62-1.39 1.39-1.39h6.23c.765 0 1.39.62 1.39 1.39v9.82c0 .765-.62 1.39-1.39 1.39Zm-4.84-2.78h3.455v-7.045H176.9v7.045Z"/><path fill="#fff" d="M194.214 244.029h-6.23v9.82h6.23v-9.82Z"/><path fill="#222" d="M194.22 255.24h-6.23a1.39 1.39 0 0 1-1.39-1.39v-9.82c0-.765.62-1.39 1.39-1.39h6.23c.765 0 1.39.62 1.39 1.39v9.82c0 .765-.62 1.39-1.39 1.39Zm-4.84-2.78h3.455v-7.045h-3.455v7.045Z"/><path fill="#fff" d="M206.695 244.029h-6.23v9.82h6.23v-9.82Z"/><path fill="#222" d="M206.695 255.24h-6.23a1.39 1.39 0 0 1-1.39-1.39v-9.82c0-.765.62-1.39 1.39-1.39h6.23c.765 0 1.39.62 1.39 1.39v9.82c0 .765-.62 1.39-1.39 1.39Zm-4.84-2.78h3.455v-7.045h-3.455v7.045Z"/><path fill="#fff" d="M181.74 259.305h-6.23v9.82h6.23v-9.82Z"/><path fill="#222" d="M181.74 270.51h-6.23a1.39 1.39 0 0 1-1.39-1.39v-9.82c0-.765.62-1.39 1.39-1.39h6.23c.765 0 1.39.62 1.39 1.39v9.82c0 .765-.62 1.39-1.39 1.39Zm-4.84-2.78h3.455v-7.045H176.9v7.045Z"/><path fill="#fff" d="M194.214 259.305h-6.23v9.82h6.23v-9.82Z"/><path fill="#222" d="M194.22 270.51h-6.23a1.39 1.39 0 0 1-1.39-1.39v-9.82c0-.765.62-1.39 1.39-1.39h6.23c.765 0 1.39.62 1.39 1.39v9.82c0 .765-.62 1.39-1.39 1.39Zm-4.84-2.78h3.455v-7.045h-3.455v7.045Z"/><path fill="#fff" d="M206.695 259.305h-6.23v9.82h6.23v-9.82Z"/><path fill="#222" d="M206.695 270.51h-6.23a1.39 1.39 0 0 1-1.39-1.39v-9.82c0-.765.62-1.39 1.39-1.39h6.23c.765 0 1.39.62 1.39 1.39v9.82c0 .765-.62 1.39-1.39 1.39Zm-4.84-2.78h3.455v-7.045h-3.455v7.045Z"/><path fill="#fff" d="M181.74 274.575h-6.23v9.82h6.23v-9.82Z"/><path fill="#222" d="M181.74 285.785h-6.23a1.39 1.39 0 0 1-1.39-1.39v-9.82c0-.765.62-1.39 1.39-1.39h6.23c.765 0 1.39.62 1.39 1.39v9.82c0 .765-.62 1.39-1.39 1.39Zm-4.84-2.78h3.455v-7.045H176.9v7.045Z"/><path fill="#fff" d="M194.214 274.575h-6.23v9.82h6.23v-9.82Z"/><path fill="#222" d="M194.22 285.785h-6.23a1.39 1.39 0 0 1-1.39-1.39v-9.82c0-.765.62-1.39 1.39-1.39h6.23c.765 0 1.39.62 1.39 1.39v9.82c0 .765-.62 1.39-1.39 1.39Zm-4.84-2.78h3.455v-7.045h-3.455v7.045Z"/><path fill="#fff" d="M206.695 274.575h-6.23v9.82h6.23v-9.82Z"/><path fill="#222" d="M206.695 285.785h-6.23a1.39 1.39 0 0 1-1.39-1.39v-9.82c0-.765.62-1.39 1.39-1.39h6.23c.765 0 1.39.62 1.39 1.39v9.82c0 .765-.62 1.39-1.39 1.39Zm-4.84-2.78h3.455v-7.045h-3.455v7.045Z"/><path fill="#F5F4F3" d="M126.19 215.705H83.295v79.92h42.895v-79.92Z"/><path fill="#222" d="M126.19 297.01H83.295a1.39 1.39 0 0 1-1.39-1.39V215.7c0-.765.62-1.39 1.39-1.39h42.895c.765 0 1.39.62 1.39 1.39v79.92c0 .765-.62 1.39-1.39 1.39Zm-41.505-2.78H124.8v-77.14H84.685v77.14Z"/><path fill="#444" d="M101.975 220.62h-11.85v9.82h11.85v-9.82Z"/><path fill="#222" d="M101.975 231.829H90.12a1.39 1.39 0 0 1-1.39-1.39v-9.82c0-.765.62-1.39 1.39-1.39h11.855c.765 0 1.39.62 1.39 1.39v9.82c0 .765-.62 1.39-1.39 1.39Zm-10.465-2.78h9.075v-7.044H91.51v7.044Z"/><path fill="#444" d="M119.354 220.619h-11.85v9.82h11.85v-9.82Z"/><path fill="#222" d="M119.36 231.829h-11.85a1.39 1.39 0 0 1-1.39-1.39v-9.82c0-.765.62-1.39 1.39-1.39h11.85c.765 0 1.39.62 1.39 1.39v9.82c0 .765-.62 1.39-1.39 1.39Zm-10.465-2.78h9.075v-7.044h-9.075v7.044Z"/><path fill="#444" d="M101.975 235.515h-11.85v9.82h11.85v-9.82Z"/><path fill="#222" d="M101.975 246.725H90.12a1.39 1.39 0 0 1-1.39-1.39v-9.82c0-.765.62-1.39 1.39-1.39h11.855c.765 0 1.39.62 1.39 1.39v9.82c0 .765-.62 1.39-1.39 1.39Zm-10.465-2.78h9.075v-7.04H91.51v7.04Z"/><path fill="#444" d="M119.354 235.515h-11.85v9.82h11.85v-9.82Z"/><path fill="#222" d="M119.36 246.725h-11.85a1.39 1.39 0 0 1-1.39-1.39v-9.82c0-.765.62-1.39 1.39-1.39h11.85c.765 0 1.39.62 1.39 1.39v9.82c0 .765-.62 1.39-1.39 1.39Zm-10.465-2.78h9.075v-7.04h-9.075v7.04Z"/><path fill="#444" d="M101.975 250.415h-11.85v9.82h11.85v-9.82Z"/><path fill="#222" d="M101.975 261.624H90.12a1.39 1.39 0 0 1-1.39-1.39v-9.82c0-.765.62-1.39 1.39-1.39h11.855c.765 0 1.39.62 1.39 1.39v9.82c0 .765-.62 1.39-1.39 1.39Zm-10.465-2.78h9.075v-7.045H91.51v7.045Z"/><path fill="#444" d="M119.354 250.414h-11.85v9.82h11.85v-9.82Z"/><path fill="#222" d="M119.36 261.624h-11.85a1.39 1.39 0 0 1-1.39-1.39v-9.82c0-.765.62-1.39 1.39-1.39h11.85c.765 0 1.39.62 1.39 1.39v9.82c0 .765-.62 1.39-1.39 1.39Zm-10.465-2.78h9.075v-7.045h-9.075v7.045Z"/><path fill="#444" d="M101.975 265.31h-11.85v9.82h11.85v-9.82Z"/><path fill="#222" d="M101.975 276.52H90.12a1.39 1.39 0 0 1-1.39-1.39v-9.82c0-.765.62-1.39 1.39-1.39h11.855c.765 0 1.39.62 1.39 1.39v9.82c0 .765-.62 1.39-1.39 1.39Zm-10.465-2.78h9.075v-7.045H91.51v7.045Z"/><path fill="#444" d="M119.354 265.31h-11.85v9.82h11.85v-9.82Z"/><path fill="#222" d="M119.36 276.52h-11.85a1.39 1.39 0 0 1-1.39-1.39v-9.82c0-.765.62-1.39 1.39-1.39h11.85c.765 0 1.39.62 1.39 1.39v9.82c0 .765-.62 1.39-1.39 1.39Zm-10.465-2.78h9.075v-7.045h-9.075v7.045Z"/><path fill="#444" d="M101.975 280.209h-11.85v9.82h11.85v-9.82Z"/><path fill="#222" d="M101.975 291.419H90.12a1.39 1.39 0 0 1-1.39-1.39v-9.82c0-.765.62-1.39 1.39-1.39h11.855c.765 0 1.39.62 1.39 1.39v9.82c0 .765-.62 1.39-1.39 1.39Zm-10.465-2.78h9.075v-7.045H91.51v7.045Z"/><path fill="#444" d="M119.354 280.209h-11.85v9.82h11.85v-9.82Z"/><path fill="#222" d="M119.36 291.419h-11.85a1.39 1.39 0 0 1-1.39-1.39v-9.82c0-.765.62-1.39 1.39-1.39h11.85c.765 0 1.39.62 1.39 1.39v9.82c0 .765-.62 1.39-1.39 1.39Zm-10.465-2.78h9.075v-7.045h-9.075v7.045Z"/><path fill="#DADADA" d="M277.525 105.235H67.285v17.35h210.24v-17.35ZM230.615 131.99H67.285v17.35h163.33v-17.35Z"/><path fill="#222" d="M273.735 128.675H60.715V108.55h213.02v20.125Zm-210.24-2.78h207.46v-14.57H63.495v14.57ZM226.825 155.43H60.715v-20.125h166.11v20.125Zm-163.33-2.78H224.05v-14.57H63.495v14.57Z"/><path fill="#444" d="M309.685 295.625h-60.31v8.905h60.31v-8.905ZM331.04 280.67h-81.665v8.905h81.665v-8.905Z"/><path fill="#FF3158" d="M313.25 254.97c35.277 0 63.875-28.598 63.875-63.875s-28.598-63.875-63.875-63.875-63.875 28.598-63.875 63.875 28.598 63.875 63.875 63.875Z"/><path fill="#222" d="M313.25 256.355c-35.985 0-65.265-29.275-65.265-65.265s29.275-65.265 65.265-65.265 65.265 29.275 65.265 65.265-29.275 65.265-65.265 65.265Zm0-127.75c-34.455 0-62.485 28.03-62.485 62.485s28.03 62.485 62.485 62.485 62.485-28.03 62.485-62.485-28.03-62.485-62.485-62.485Z"/><path fill="#fff" d="M260.91 192.865v-7.335l33.225-21.84v12.565l-20.07 12.65v.59l20.07 12.65v12.65L260.91 192.87v-.005Z"/><path fill="#000" d="M294.135 216.18c-.265 0-.535-.075-.765-.23l-33.225-21.925a1.383 1.383 0 0 1-.625-1.16v-7.335c0-.47.235-.905.625-1.16l33.225-21.84a1.38 1.38 0 0 1 1.42-.06c.45.24.73.71.73 1.22v12.565c0 .475-.245.92-.65 1.175l-18.675 11.77 18.675 11.77c.405.255.65.7.65 1.175v12.65c0 .51-.28.98-.73 1.225a1.39 1.39 0 0 1-.66.165l.005-.005ZM262.3 192.12l30.445 20.09v-9.3l-19.42-12.24a1.39 1.39 0 0 1-.65-1.175v-.59c0-.475.245-.92.65-1.175l19.42-12.24v-9.225L262.3 186.28v5.84Z"/><path fill="#fff" d="m299.83 229.965 15.515-77.745h11.545l-15.51 77.745h-11.55Z"/><path fill="#000" d="M311.375 231.355H299.83a1.393 1.393 0 0 1-1.365-1.665l15.515-77.745c.13-.65.7-1.115 1.36-1.115h11.545a1.393 1.393 0 0 1 1.365 1.665l-15.51 77.745c-.13.65-.7 1.115-1.36 1.115h-.005Zm-9.855-2.78h8.715l14.96-74.965h-8.715l-14.96 74.965Z"/><path fill="#fff" d="m332.36 202.14 20.07-12.65v-.59l-20.07-12.65v-12.565l33.225 21.755v7.335l-33.225 22.01v-12.65.005Z"/><path fill="#000" d="M332.36 216.18a1.384 1.384 0 0 1-1.385-1.39v-12.65c0-.475.245-.92.65-1.175l18.675-11.77-18.675-11.77a1.39 1.39 0 0 1-.65-1.175v-12.565a1.391 1.391 0 0 1 2.15-1.16l33.225 21.755c.39.255.63.695.63 1.16v7.335c0 .465-.235.9-.62 1.16l-33.225 22.01c-.23.155-.5.23-.765.23l-.01.005Zm1.39-13.27v9.295l30.445-20.17v-5.84L333.75 166.26v9.23l19.42 12.24c.405.255.65.7.65 1.175v.59c0 .475-.245.92-.65 1.175l-19.42 12.24Z"/><path fill="#fff" d="M263.52 191.015v-7.335l33.225-21.84v12.565l-20.07 12.65v.59l20.07 12.65v12.65L263.52 191.02v-.005ZM302.435 228.11l15.515-77.745h11.545l-15.51 77.745h-11.55ZM334.97 200.29l20.07-12.65v-.59l-20.07-12.65v-12.565l33.225 21.755v7.335l-33.225 22.01v-12.65.005Z"/><path fill="#000" d="M294.135 216.18c-.265 0-.535-.075-.765-.23l-33.225-21.925a1.383 1.383 0 0 1-.625-1.16v-7.335c0-.47.235-.905.625-1.16l33.225-21.84a1.38 1.38 0 0 1 1.42-.06c.45.24.73.71.73 1.22v12.565c0 .475-.245.92-.65 1.175l-18.675 11.77 18.675 11.77c.405.255.65.7.65 1.175v12.65c0 .51-.28.98-.73 1.225a1.39 1.39 0 0 1-.66.165l.005-.005ZM262.3 192.12l30.445 20.09v-9.3l-19.42-12.24a1.39 1.39 0 0 1-.65-1.175v-.59c0-.475.245-.92.65-1.175l19.42-12.24v-9.225L262.3 186.28v5.84ZM311.375 231.355H299.83a1.393 1.393 0 0 1-1.365-1.665l15.515-77.745c.13-.65.7-1.115 1.36-1.115h11.545a1.393 1.393 0 0 1 1.365 1.665l-15.51 77.745c-.13.65-.7 1.115-1.36 1.115h-.005Zm-9.855-2.78h8.715l14.96-74.965h-8.715l-14.96 74.965ZM332.36 216.18a1.384 1.384 0 0 1-1.385-1.39v-12.65c0-.475.245-.92.65-1.175l18.675-11.77-18.675-11.77a1.39 1.39 0 0 1-.65-1.175v-12.565a1.391 1.391 0 0 1 2.15-1.16l33.225 21.755c.39.255.63.695.63 1.16v7.335c0 .465-.235.9-.62 1.16l-33.225 22.01c-.23.155-.5.23-.765.23l-.01.005Zm1.39-13.27v9.295l30.445-20.17v-5.84L333.75 166.26v9.23l19.42 12.24c.405.255.65.7.65 1.175v.59c0 .475-.245.92-.65 1.175l-19.42 12.24Z"/></svg>