<svg xmlns="http://www.w3.org/2000/svg" width="400" height="401" fill="none" viewBox="0 0 400 401"><path fill="#DADADA" d="M340.195 322.825H58.46l-8.705-5.02V94.965H327.37l12.825 8.23v219.63Z"/><path fill="#222" d="M340.195 324.215H58.46c-.245 0-.485-.065-.695-.185l-8.7-5.02a1.39 1.39 0 0 1-.695-1.205V94.965c0-.765.62-1.39 1.39-1.39h277.61c.265 0 .525.075.75.22l12.825 8.235c.4.255.64.695.64 1.17v219.63c0 .765-.62 1.39-1.39 1.39v-.005Zm-281.365-2.78h279.975v-217.48L326.96 96.35H51.145V317l7.685 4.435Z"/><path fill="#fff" d="M340.195 103.195H58.46v219.63h281.735v-219.63Z"/><path fill="#222" d="M340.195 324.216H58.46a1.39 1.39 0 0 1-1.39-1.39v-219.63c0-.765.62-1.39 1.39-1.39h281.735c.765 0 1.39.62 1.39 1.39v219.63c0 .765-.62 1.39-1.39 1.39Zm-280.35-2.78h278.96v-216.85H59.845v216.855-.005Z"/><path fill="#444" d="M329.905 114.525H68.745V311.21h261.16V114.525Z"/><path fill="#222" d="M329.91 312.6H68.745a1.39 1.39 0 0 1-1.39-1.39V114.525c0-.765.62-1.39 1.39-1.39H329.91c.765 0 1.39.62 1.39 1.39v196.69c0 .765-.62 1.39-1.39 1.39v-.005Zm-259.775-2.78H328.52V115.915H70.135v193.91-.005Z"/><path fill="#FF3158" d="M231.365 140.324h-74.15v158.04h74.15v-158.04Z"/><path fill="#222" d="M231.365 299.749h-74.15a1.39 1.39 0 0 1-1.39-1.39V140.324c0-.765.62-1.39 1.39-1.39h74.15c.765 0 1.39.62 1.39 1.39v158.04c0 .765-.62 1.39-1.39 1.39v-.005Zm-72.765-2.78h71.375V141.714H158.6v155.26-.005Z"/><path fill="#222" d="M166.805 299.749a1.39 1.39 0 0 1-1.39-1.39V140.324a1.39 1.39 0 0 1 2.78 0v158.04c0 .765-.62 1.39-1.39 1.39v-.005ZM180.545 299.749a1.39 1.39 0 0 1-1.39-1.39V140.324a1.39 1.39 0 0 1 2.78 0v158.04c0 .765-.62 1.39-1.39 1.39v-.005ZM194.29 299.749a1.39 1.39 0 0 1-1.39-1.39V140.324a1.39 1.39 0 0 1 2.78 0v158.04c0 .765-.62 1.39-1.39 1.39v-.005ZM208.031 299.749a1.39 1.39 0 0 1-1.39-1.39V140.324a1.39 1.39 0 0 1 2.78 0v158.04c0 .765-.62 1.39-1.39 1.39v-.005ZM221.77 299.749a1.39 1.39 0 0 1-1.39-1.39V140.324a1.39 1.39 0 0 1 2.78 0v158.04c0 .765-.62 1.39-1.39 1.39v-.005Z"/><path fill="#DADADA" d="M296.891 298.359h-65.525V159.754l65.525 37.91v100.695Z"/><path fill="#222" d="M296.891 299.749h-65.525a1.39 1.39 0 0 1-1.39-1.39V159.754c0-.495.265-.955.695-1.205.43-.25.96-.25 1.39 0l65.525 37.91c.43.25.695.705.695 1.2v100.7c0 .765-.62 1.39-1.39 1.39Zm-64.135-2.78h62.75v-98.51l-62.75-36.305v134.815Z"/><path fill="#fff" d="M249.63 199.654h-9.25v14.58h9.25v-14.58Z"/><path fill="#222" d="M249.635 215.624h-9.25a1.39 1.39 0 0 1-1.39-1.39v-14.58c0-.765.62-1.39 1.39-1.39h9.25c.765 0 1.39.62 1.39 1.39v14.58c0 .765-.62 1.39-1.39 1.39Zm-7.86-2.78h6.475v-11.8h-6.475v11.8Z"/><path fill="#fff" d="M268.155 199.654h-9.25v14.58h9.25v-14.58Z"/><path fill="#222" d="M268.161 215.624h-9.25a1.39 1.39 0 0 1-1.39-1.39v-14.58c0-.765.62-1.39 1.39-1.39h9.25c.765 0 1.39.62 1.39 1.39v14.58c0 .765-.62 1.39-1.39 1.39Zm-7.86-2.78h6.475v-11.8h-6.475v11.8Z"/><path fill="#fff" d="M286.686 199.654h-9.25v14.58h9.25v-14.58Z"/><path fill="#222" d="M286.686 215.624h-9.25a1.39 1.39 0 0 1-1.39-1.39v-14.58c0-.765.62-1.39 1.39-1.39h9.25c.765 0 1.39.62 1.39 1.39v14.58c0 .765-.62 1.39-1.39 1.39Zm-7.86-2.78h6.475v-11.8h-6.475v11.8Z"/><path fill="#fff" d="M249.63 221.77h-9.25v14.58h9.25v-14.58Z"/><path fill="#222" d="M249.635 237.734h-9.25a1.39 1.39 0 0 1-1.39-1.39v-14.58c0-.765.62-1.39 1.39-1.39h9.25c.765 0 1.39.62 1.39 1.39v14.58c0 .765-.62 1.39-1.39 1.39Zm-7.86-2.78h6.475v-11.8h-6.475v11.8Z"/><path fill="#fff" d="M268.155 221.77h-9.25v14.58h9.25v-14.58Z"/><path fill="#222" d="M268.161 237.734h-9.25a1.39 1.39 0 0 1-1.39-1.39v-14.58c0-.765.62-1.39 1.39-1.39h9.25c.765 0 1.39.62 1.39 1.39v14.58c0 .765-.62 1.39-1.39 1.39Zm-7.86-2.78h6.475v-11.8h-6.475v11.8Z"/><path fill="#fff" d="M286.686 221.77h-9.25v14.58h9.25v-14.58Z"/><path fill="#222" d="M286.686 237.734h-9.25a1.39 1.39 0 0 1-1.39-1.39v-14.58c0-.765.62-1.39 1.39-1.39h9.25c.765 0 1.39.62 1.39 1.39v14.58c0 .765-.62 1.39-1.39 1.39Zm-7.86-2.78h6.475v-11.8h-6.475v11.8Z"/><path fill="#fff" d="M249.63 244.439h-9.25v14.58h9.25v-14.58Z"/><path fill="#222" d="M249.635 260.409h-9.25a1.39 1.39 0 0 1-1.39-1.39v-14.58c0-.765.62-1.39 1.39-1.39h9.25c.765 0 1.39.62 1.39 1.39v14.58c0 .765-.62 1.39-1.39 1.39Zm-7.86-2.78h6.475v-11.8h-6.475v11.8Z"/><path fill="#fff" d="M268.155 244.439h-9.25v14.58h9.25v-14.58Z"/><path fill="#222" d="M268.161 260.409h-9.25a1.39 1.39 0 0 1-1.39-1.39v-14.58c0-.765.62-1.39 1.39-1.39h9.25c.765 0 1.39.62 1.39 1.39v14.58c0 .765-.62 1.39-1.39 1.39Zm-7.86-2.78h6.475v-11.8h-6.475v11.8Z"/><path fill="#fff" d="M286.686 244.439h-9.25v14.58h9.25v-14.58Z"/><path fill="#222" d="M286.686 260.409h-9.25a1.39 1.39 0 0 1-1.39-1.39v-14.58c0-.765.62-1.39 1.39-1.39h9.25c.765 0 1.39.62 1.39 1.39v14.58c0 .765-.62 1.39-1.39 1.39Zm-7.86-2.78h6.475v-11.8h-6.475v11.8Z"/><path fill="#fff" d="M249.63 267.113h-9.25v14.58h9.25v-14.58Z"/><path fill="#222" d="M249.635 283.079h-9.25a1.39 1.39 0 0 1-1.39-1.39v-14.58c0-.765.62-1.39 1.39-1.39h9.25c.765 0 1.39.62 1.39 1.39v14.58c0 .765-.62 1.39-1.39 1.39Zm-7.86-2.78h6.475v-11.8h-6.475v11.8Z"/><path fill="#fff" d="M268.155 267.113h-9.25v14.58h9.25v-14.58Z"/><path fill="#222" d="M268.161 283.079h-9.25a1.39 1.39 0 0 1-1.39-1.39v-14.58c0-.765.62-1.39 1.39-1.39h9.25c.765 0 1.39.62 1.39 1.39v14.58c0 .765-.62 1.39-1.39 1.39Zm-7.86-2.78h6.475v-11.8h-6.475v11.8Z"/><path fill="#fff" d="M286.686 267.113h-9.25v14.58h9.25v-14.58Z"/><path fill="#222" d="M286.686 283.079h-9.25a1.39 1.39 0 0 1-1.39-1.39v-14.58c0-.765.62-1.39 1.39-1.39h9.25c.765 0 1.39.62 1.39 1.39v14.58c0 .765-.62 1.39-1.39 1.39Zm-7.86-2.78h6.475v-11.8h-6.475v11.8Z"/><path fill="#F5F4F3" d="M167.16 179.715h-63.68v118.65h63.68v-118.65Z"/><path fill="#222" d="M167.161 299.749h-63.68a1.39 1.39 0 0 1-1.39-1.39v-118.65c0-.765.62-1.39 1.39-1.39h63.68c.765 0 1.39.62 1.39 1.39v118.65c0 .765-.62 1.39-1.39 1.39Zm-62.29-2.78h60.905v-115.87h-60.905v115.87Z"/><path fill="#444" d="M131.215 187.01H113.62v14.58h17.595v-14.58Z"/><path fill="#222" d="M131.215 202.979H113.62a1.39 1.39 0 0 1-1.39-1.39v-14.58c0-.765.62-1.39 1.39-1.39h17.595c.765 0 1.39.62 1.39 1.39v14.58c0 .765-.62 1.39-1.39 1.39Zm-16.21-2.78h14.82v-11.8h-14.82v11.8Z"/><path fill="#444" d="M157.021 187.01h-17.595v14.58h17.595v-14.58Z"/><path fill="#222" d="M157.026 202.979h-17.595a1.39 1.39 0 0 1-1.39-1.39v-14.58c0-.765.62-1.39 1.39-1.39h17.595c.765 0 1.39.62 1.39 1.39v14.58c0 .765-.62 1.39-1.39 1.39Zm-16.21-2.78h14.82v-11.8h-14.82v11.8Z"/><path fill="#444" d="M131.216 209.129h-17.595v14.58h17.595v-14.58Z"/><path fill="#222" d="M131.215 225.094H113.62a1.39 1.39 0 0 1-1.39-1.39v-14.58c0-.765.62-1.39 1.39-1.39h17.595c.765 0 1.39.62 1.39 1.39v14.58c0 .765-.62 1.39-1.39 1.39Zm-16.21-2.78h14.82v-11.8h-14.82v11.8Z"/><path fill="#444" d="M157.021 209.129h-17.595v14.58h17.595v-14.58Z"/><path fill="#222" d="M157.026 225.094h-17.595a1.39 1.39 0 0 1-1.39-1.39v-14.58c0-.765.62-1.39 1.39-1.39h17.595c.765 0 1.39.62 1.39 1.39v14.58c0 .765-.62 1.39-1.39 1.39Zm-16.21-2.78h14.82v-11.8h-14.82v11.8Z"/><path fill="#444" d="M131.215 231.244H113.62v14.58h17.595v-14.58Z"/><path fill="#222" d="M131.215 247.214H113.62a1.39 1.39 0 0 1-1.39-1.39v-14.58c0-.765.62-1.39 1.39-1.39h17.595c.765 0 1.39.62 1.39 1.39v14.58c0 .765-.62 1.39-1.39 1.39Zm-16.21-2.78h14.82v-11.8h-14.82v11.8Z"/><path fill="#444" d="M157.021 231.244h-17.595v14.58h17.595v-14.58Z"/><path fill="#222" d="M157.026 247.214h-17.595a1.39 1.39 0 0 1-1.39-1.39v-14.58c0-.765.62-1.39 1.39-1.39h17.595c.765 0 1.39.62 1.39 1.39v14.58c0 .765-.62 1.39-1.39 1.39Zm-16.21-2.78h14.82v-11.8h-14.82v11.8Z"/><path fill="#444" d="M131.215 253.359H113.62v14.58h17.595v-14.58Z"/><path fill="#222" d="M131.215 269.329H113.62a1.39 1.39 0 0 1-1.39-1.39v-14.58c0-.765.62-1.39 1.39-1.39h17.595c.765 0 1.39.62 1.39 1.39v14.58c0 .765-.62 1.39-1.39 1.39Zm-16.21-2.78h14.82v-11.8h-14.82v11.8Z"/><path fill="#444" d="M157.021 253.359h-17.595v14.58h17.595v-14.58Z"/><path fill="#222" d="M157.026 269.329h-17.595a1.39 1.39 0 0 1-1.39-1.39v-14.58c0-.765.62-1.39 1.39-1.39h17.595c.765 0 1.39.62 1.39 1.39v14.58c0 .765-.62 1.39-1.39 1.39Zm-16.21-2.78h14.82v-11.8h-14.82v11.8Z"/><path fill="#444" d="M131.215 275.48H113.62v14.58h17.595v-14.58Z"/><path fill="#222" d="M131.215 291.45H113.62a1.39 1.39 0 0 1-1.39-1.39v-14.58c0-.765.62-1.39 1.39-1.39h17.595c.765 0 1.39.62 1.39 1.39v14.58c0 .765-.62 1.39-1.39 1.39Zm-16.21-2.78h14.82v-11.8h-14.82v11.8Z"/><path fill="#444" d="M157.021 275.48h-17.595v14.58h17.595v-14.58Z"/><path fill="#222" d="M157.026 291.45h-17.595a1.39 1.39 0 0 1-1.39-1.39v-14.58c0-.765.62-1.39 1.39-1.39h17.595c.765 0 1.39.62 1.39 1.39v14.58c0 .765-.62 1.39-1.39 1.39Zm-16.21-2.78h14.82v-11.8h-14.82v11.8Z"/><path fill="#FF3158" d="M315.279 179.098c29.865 0 54.075-24.21 54.075-54.075 0-29.865-24.21-54.075-54.075-54.075-29.865 0-54.075 24.21-54.075 54.075 0 29.865 24.21 54.075 54.075 54.075Z"/><path fill="#222" d="M315.279 180.488c-30.58 0-55.46-24.88-55.46-55.46 0-30.58 24.88-55.46 55.46-55.46 30.58 0 55.46 24.88 55.46 55.46 0 30.58-24.88 55.46-55.46 55.46Zm0-108.145c-29.05 0-52.685 23.635-52.685 52.685s23.635 52.685 52.685 52.685 52.685-23.635 52.685-52.685-23.635-52.685-52.685-52.685Z"/><path fill="#fff" d="M270.975 126.528v-6.21l28.125-18.49v10.635l-16.99 10.705v.5l16.99 10.705v10.71l-28.125-18.56v.005Z"/><path fill="#000" d="M299.099 146.474c-.265 0-.535-.075-.765-.23l-28.125-18.56a1.383 1.383 0 0 1-.625-1.16v-6.21c0-.47.235-.905.625-1.16l28.125-18.49a1.38 1.38 0 0 1 1.42-.06c.45.24.73.71.73 1.22v10.635c0 .475-.245.92-.65 1.175l-15.52 9.78 15.52 9.78c.405.255.65.7.65 1.175v10.71c0 .51-.28.98-.73 1.225a1.39 1.39 0 0 1-.66.165l.005.005Zm-26.735-20.695 25.35 16.725v-7.36l-16.34-10.3a1.39 1.39 0 0 1-.65-1.175v-.5c0-.475.245-.92.65-1.175l16.34-10.3v-7.295l-25.35 16.66v4.72Z"/><path fill="#fff" d="m303.919 157.934 13.135-65.815h9.775l-13.13 65.815H303.919Z"/><path fill="#000" d="M313.695 159.324h-9.775a1.393 1.393 0 0 1-1.365-1.665l13.135-65.815c.13-.65.7-1.115 1.36-1.115h9.775a1.393 1.393 0 0 1 1.365 1.665l-13.13 65.815c-.13.65-.7 1.115-1.36 1.115h-.005Zm-8.08-2.78h6.94l12.575-63.036h-6.94l-12.58 63.036h.005Z"/><path fill="#fff" d="m331.459 134.379 16.99-10.705v-.5l-16.99-10.705v-10.635l28.125 18.415v6.21l-28.125 18.63v-10.71Z"/><path fill="#000" d="M331.459 146.475a1.384 1.384 0 0 1-1.385-1.39v-10.71c0-.475.245-.92.65-1.175l15.525-9.78-15.525-9.78a1.39 1.39 0 0 1-.65-1.175V101.83a1.391 1.391 0 0 1 2.15-1.16l28.125 18.415c.39.255.63.695.63 1.16v6.21c0 .465-.235.9-.62 1.16l-28.125 18.63c-.23.155-.5.23-.765.23h-.01Zm1.39-11.33v7.355l25.35-16.79v-4.715l-25.35-16.6v7.3l16.34 10.3c.405.255.65.7.65 1.175v.5c0 .475-.245.92-.65 1.175l-16.34 10.3Z"/><path fill="#fff" d="M273.18 124.959v-6.21l28.125-18.49v10.635l-16.99 10.705v.5l16.99 10.705v10.71l-28.125-18.56v.005ZM306.125 156.364l13.135-65.815h9.775l-13.13 65.815H306.125ZM333.665 132.809l16.99-10.705v-.5l-16.99-10.705v-10.635l28.125 18.415v6.21l-28.125 18.63v-10.71Z"/><path fill="#000" d="M299.099 146.474c-.265 0-.535-.075-.765-.23l-28.125-18.56a1.383 1.383 0 0 1-.625-1.16v-6.21c0-.47.235-.905.625-1.16l28.125-18.49a1.38 1.38 0 0 1 1.42-.06c.45.24.73.71.73 1.22v10.635c0 .475-.245.92-.65 1.175l-15.52 9.78 15.52 9.78c.405.255.65.7.65 1.175v10.71c0 .51-.28.98-.73 1.225a1.39 1.39 0 0 1-.66.165l.005.005Zm-26.735-20.695 25.35 16.725v-7.36l-16.34-10.3a1.39 1.39 0 0 1-.65-1.175v-.5c0-.475.245-.92.65-1.175l16.34-10.3v-7.295l-25.35 16.66v4.72ZM313.695 159.324h-9.775a1.393 1.393 0 0 1-1.365-1.665l13.135-65.815c.13-.65.7-1.115 1.36-1.115h9.775a1.393 1.393 0 0 1 1.365 1.665l-13.13 65.815c-.13.65-.7 1.115-1.36 1.115h-.005Zm-8.08-2.78h6.94l12.575-63.036h-6.94l-12.58 63.036h.005ZM331.46 146.474a1.384 1.384 0 0 1-1.385-1.39v-10.71c0-.475.245-.92.65-1.175l15.525-9.78-15.525-9.78a1.39 1.39 0 0 1-.65-1.175v-10.635a1.391 1.391 0 0 1 2.15-1.16l28.125 18.415c.39.255.63.695.63 1.16v6.21c0 .465-.235.9-.62 1.16l-28.125 18.63c-.23.155-.5.23-.765.23h-.01Zm1.39-11.33v7.355l25.35-16.79v-4.715l-25.35-16.6v7.3l16.34 10.3c.405.255.65.7.65 1.175v.5c0 .475-.245.92-.65 1.175l-16.34 10.3Z"/></svg>