<svg xmlns="http://www.w3.org/2000/svg" width="400" height="400" fill="none" viewBox="0 0 400 400"><path fill="#fff" d="M128.18 189.865H29.095a5.31 5.31 0 0 0-5.31 5.31v70.81a5.31 5.31 0 0 0 5.31 5.31h99.085a5.31 5.31 0 0 0 5.31-5.31v-70.81a5.31 5.31 0 0 0-5.31-5.31Z"/><path fill="#fff" d="M241.63 211.09H98.38l-6.535-6.75V66.635H235.09l6.54 6.75V211.09Z"/><path fill="#DADADA" d="M163.12 129.525v14.345l12.42 7.175 12.42-7.175v-14.345l-12.42-7.165-12.42 7.165Z"/><path fill="#DADADA" d="M103.915 67.85v137.705h143.25V67.85h-143.25Zm71.625 115.775c-25.915 0-46.925-21.01-46.925-46.925 0-25.915 21.01-46.925 46.925-46.925 25.915 0 46.925 21.01 46.925 46.925 0 25.915-21.01 46.925-46.925 46.925ZM47.665 248.065l43.895 77.89h284.655l-43.9-77.89H47.665Z"/><path fill="#222" d="M370.68 332.875H86.025c-.5 0-.96-.27-1.205-.705l-43.9-77.895a1.381 1.381 0 0 1 1.205-2.06H326.78c.5 0 .96.27 1.205.705l43.9 77.895a1.381 1.381 0 0 1-1.205 2.06ZM86.835 330.11h281.48l-42.34-75.13H44.495l42.34 75.13Z" style="mix-blend-mode:multiply"/><path fill="#444" d="M278.725 175.59h11.32l2.36-8.79h-13.27l-.41 8.79Z"/><path fill="#222" d="M290.045 176.97H278.72c-.38 0-.74-.155-1-.43s-.4-.64-.38-1.02l.41-8.79c.035-.74.645-1.32 1.38-1.32h13.27c.43 0 .835.2 1.095.54s.35.785.24 1.2l-2.36 8.79a1.38 1.38 0 0 1-1.335 1.025l.005.005Zm-9.875-2.765h8.815l1.615-6.025h-10.15l-.28 6.025Z"/><path fill="#444" d="m301.84 87.725-9.9 79.075h51.595c2.43 0 4.44-1.865 4.76-4.415l8.57-68.455c.405-3.24-2.04-6.2-5.13-6.2H301.84v-.005Z"/><path fill="#222" d="M343.535 168.18H291.94a1.386 1.386 0 0 1-1.37-1.555l9.9-79.075c.085-.69.675-1.21 1.37-1.21h49.895c1.805 0 3.55.81 4.795 2.22a7.056 7.056 0 0 1 1.705 5.54l-8.57 68.455c-.41 3.26-2.985 5.625-6.13 5.625Zm-50.03-2.765h50.03c1.73 0 3.155-1.35 3.385-3.205l8.57-68.455a4.278 4.278 0 0 0-1.035-3.365c-.73-.825-1.695-1.28-2.725-1.28h-48.675l-9.555 76.31.005-.005Z"/><path fill="#FF3158" d="M293.349 166.8h-15.935c-3.085 0-5.535-2.96-5.13-6.2l8.405-67.14c.415-3.31 3.025-5.735 6.18-5.735h15.68c3.085 0 5.535 2.96 5.13 6.2l-8.44 67.405c-.395 3.16-2.885 5.47-5.895 5.47h.005Z"/><path fill="#222" d="M293.35 168.18h-15.935c-1.805 0-3.55-.81-4.795-2.215a7.056 7.056 0 0 1-1.705-5.54l8.405-67.14c.505-4.025 3.68-6.945 7.55-6.945h15.68c1.805 0 3.55.81 4.795 2.215a7.056 7.056 0 0 1 1.705 5.54l-8.44 67.405c-.485 3.87-3.54 6.68-7.265 6.68h.005Zm-6.48-79.075c-2.455 0-4.48 1.9-4.805 4.525l-8.405 67.14a4.278 4.278 0 0 0 1.035 3.365c.73.825 1.695 1.28 2.725 1.28h15.935c2.31 0 4.215-1.79 4.52-4.26l8.44-67.405a4.278 4.278 0 0 0-1.035-3.365c-.73-.825-1.695-1.28-2.725-1.28H286.87Z"/><path fill="#444" d="M293.66 183.47h-7.945l1-6.35H281.7l-1 6.35h-8.43l-51.79 127.71h5.015l48.975-122.695h5.44L260.585 311.18h5.015l19.325-122.695h4.955l39.435 122.695h5.015l-40.67-127.71Z"/><path fill="#444" d="M334.33 312.565h-5.015c-.6 0-1.13-.39-1.315-.96L288.875 189.87h-2.765L266.97 311.4a1.381 1.381 0 0 1-1.365 1.165h-5.015c-.405 0-.79-.175-1.05-.485a1.367 1.367 0 0 1-.315-1.115l19.075-121.1h-2.89L226.785 311.69c-.21.525-.72.87-1.285.87h-5.015a1.38 1.38 0 0 1-1.28-1.9l51.785-127.71c.21-.52.72-.865 1.28-.865h7.25l.815-5.185a1.381 1.381 0 0 1 1.365-1.165h5.015c.405 0 .79.175 1.05.485.265.305.38.715.315 1.115l-.75 4.755h6.325c.6 0 1.135.39 1.315.965l40.67 127.71a1.378 1.378 0 0 1-1.315 1.8h.005Zm-4.01-2.765h2.115l-39.79-124.945h-6.935c-.405 0-.79-.175-1.05-.485a1.367 1.367 0 0 1-.315-1.115l.75-4.755h-2.215l-.815 5.185a1.381 1.381 0 0 1-1.365 1.165h-7.5l-50.665 124.945h2.025l48.625-121.825c.21-.525.72-.87 1.285-.87h5.44c.405 0 .79.175 1.05.485.265.305.38.715.315 1.115L262.2 309.8h2.215l19.14-121.53a1.381 1.381 0 0 1 1.365-1.165h4.955c.6 0 1.13.39 1.315.96L330.315 309.8h.005Z"/><path fill="#222" d="M295.169 128.187c1.151-8.368-.44-15.499-3.553-15.927-3.113-.428-6.57 6.009-7.721 14.377-1.151 8.369.44 15.5 3.553 15.928 3.114.428 6.57-6.009 7.721-14.378Z"/><path fill="#222" d="M287.745 143.97c-1.305 0-2.465-.53-3.36-1.54-2.735-3.075-2.575-9.95-1.955-15.175.585-4.93 2.615-16.39 8.9-16.39 1.305 0 2.465.53 3.36 1.54 2.735 3.075 2.575 9.95 1.955 15.175l-1.375-.16 1.375.16c-.585 4.93-2.615 16.39-8.9 16.39Zm3.585-30.345c-2.695 0-5.17 5.605-6.155 13.95-.755 6.4-.28 11.265 1.275 13.015.375.425.775.61 1.295.61 2.695 0 5.17-5.605 6.155-13.95.755-6.4.28-11.265-1.275-13.015-.375-.425-.775-.61-1.295-.61ZM241.63 212.475H98.38c-.765 0-1.385-.62-1.385-1.385V73.385c0-.765.62-1.385 1.385-1.385h143.25c.765 0 1.385.62 1.385 1.385V211.09c0 .765-.62 1.385-1.385 1.385ZM99.765 209.71h140.48V74.77H99.765v134.94Z"/><path fill="#222" d="M98.385 212.475c-.365 0-.73-.145-.995-.42l-6.54-6.75c-.25-.26-.39-.605-.39-.96V66.635a1.381 1.381 0 0 1 2.375-.96l6.54 6.75c.25.26.39.605.39.96V211.09a1.374 1.374 0 0 1-1.385 1.38l.005.005Zm-5.155-8.69 3.775 3.895V73.945L93.23 70.05V203.785Z"/><path fill="#222" d="M241.63 74.77H98.385c-.375 0-.73-.15-.995-.42l-6.54-6.75c-.385-.4-.495-.99-.28-1.5.215-.51.72-.845 1.275-.845H235.09c.375 0 .73.15.995.42l6.54 6.75c.385.4.495.99.28 1.5-.215.51-.72.845-1.275.845ZM98.97 72.005h139.395l-3.86-3.985H95.11l3.86 3.985Z"/><path fill="#FF3158" d="M170.005 95.315c-25.915 0-46.925 21.01-46.925 46.925 0 25.915 21.01 46.925 46.925 46.925 25.915 0 46.925-21.01 46.925-46.925 0-25.915-21.01-46.925-46.925-46.925Zm12.42 54.09-12.42 7.18-12.42-7.18V135.06l12.42-7.165 12.42 7.165v14.345Z"/><path fill="#222" d="M170.005 190.546c-26.635 0-48.305-21.67-48.305-48.305 0-26.635 21.67-48.306 48.305-48.306 26.635 0 48.305 21.671 48.305 48.306 0 26.635-21.67 48.305-48.305 48.305Zm0-93.85c-25.11 0-45.54 20.43-45.54 45.54s20.43 45.54 45.54 45.54 45.54-20.43 45.54-45.54-20.43-45.54-45.54-45.54Z"/><path fill="#222" d="M170.005 157.965c-.24 0-.475-.06-.69-.185l-12.42-7.17a1.375 1.375 0 0 1-.69-1.195V135.07c0-.495.265-.95.69-1.195l12.42-7.17c.43-.245.955-.245 1.38 0l12.42 7.17c.43.245.69.705.69 1.195v14.345c0 .495-.265.95-.69 1.195l-12.42 7.17c-.215.125-.45.185-.69.185Zm-11.04-9.35 11.04 6.375 11.04-6.375V135.87l-11.04-6.375-11.04 6.375v12.745Z"/><path fill="#222" d="M157.585 150.791c-.765 0-1.385-.62-1.385-1.385V97.03a1.385 1.385 0 1 1 2.77 0v52.376c0 .765-.62 1.385-1.385 1.385Z"/><path fill="#222" d="M170.005 157.965c-.235 0-.47-.06-.69-.185l-44.945-25.95a1.38 1.38 0 0 1-.505-1.89c.38-.66 1.23-.89 1.89-.505l44.945 25.95c.66.38.89 1.225.505 1.89-.255.445-.72.69-1.2.69Z"/><path fill="#222" d="M137.145 176.936c-.48 0-.94-.25-1.2-.69a1.388 1.388 0 0 1 .505-1.89l45.285-26.145a1.388 1.388 0 0 1 1.89.505c.38.66.155 1.505-.505 1.89l-45.285 26.145c-.22.125-.455.185-.69.185Z"/><path fill="#222" d="M182.425 188.521c-.765 0-1.385-.62-1.385-1.385v-52.07a1.385 1.385 0 1 1 2.77 0v52.07c0 .765-.62 1.385-1.385 1.385Z"/><path fill="#222" d="M215.375 155.471c-.235 0-.47-.06-.69-.185l-45.37-26.195a1.38 1.38 0 0 1-.505-1.89 1.38 1.38 0 0 1 1.89-.505l45.37 26.195c.66.38.89 1.225.505 1.89-.255.445-.72.69-1.2.69Z"/><path fill="#222" d="M157.585 136.451c-.48 0-.94-.25-1.2-.69a1.388 1.388 0 0 1 .505-1.89l45.31-26.16a1.388 1.388 0 0 1 1.89.505c.38.66.155 1.505-.505 1.89l-45.31 26.16c-.22.125-.455.185-.69.185ZM128.185 272.68h-99.09c-3.69 0-6.69-3-6.69-6.69v-70.815c0-3.69 3-6.69 6.69-6.69h99.09c3.69 0 6.69 3 6.69 6.69v70.815c0 3.69-3 6.69-6.69 6.69Zm-99.09-81.435a3.928 3.928 0 0 0-3.925 3.925v70.815a3.928 3.928 0 0 0 3.925 3.925h99.09a3.928 3.928 0 0 0 3.925-3.925V195.17a3.928 3.928 0 0 0-3.925-3.925h-99.09Z"/></svg>