<svg xmlns="http://www.w3.org/2000/svg" width="400" height="400" fill="none" viewBox="0 0 400 400"><path fill="#FF3158" d="M248.914 276.283c-1.11-.555-2.404-.925-3.514-1.479-4.808-2.774-9.431-5.733-14.239-8.507-.555-.37-1.665-.37-2.404-.185-3.329 1.294-6.473 2.774-9.617 4.068-1.109.37-1.479 1.11-1.664 2.035-1.479 6.287-3.144 12.76-4.623 19.047-.925 3.699-2.774 5.178-6.658 5.178h-19.972c-3.883 0-5.733-1.479-6.657-5.178-1.665-6.287-3.144-12.76-4.624-19.047-.184-1.11-.739-1.665-1.664-2.035-3.144-1.294-6.287-2.589-9.246-3.883-1.11-.555-1.665-.37-2.589.185-4.439 2.774-9.062 5.363-13.5 8.137-3.699 2.219-5.918 2.034-8.877-1.11l-13.869-13.87c-2.959-2.958-3.329-5.178-1.11-8.876 2.774-4.438 5.363-9.062 8.137-13.5.555-.925.555-1.664.185-2.589-1.479-3.144-2.589-6.103-3.884-9.246-.369-1.11-.924-1.48-2.034-1.85-6.472-1.479-12.945-3.143-19.232-4.808-3.514-.924-4.993-2.774-4.993-6.472v-20.527c0-3.699 1.479-5.548 5.178-6.288 6.287-1.664 12.76-3.144 19.047-4.808 1.11-.37 1.85-.74 2.219-1.849.925-2.589 2.035-5.178 3.144-7.767.37-1.11.37-1.665-.185-2.589l-9.431-15.534c-2.034-3.514-1.849-5.733 1.109-8.692l13.87-13.869c2.959-2.959 4.993-3.144 8.507-1.11 4.993 2.959 10.171 6.103 15.164 9.061.925.555 1.664.555 2.774.185 3.329-1.479 6.472-2.959 9.801-4.068 1.11-.37 1.479-.925 1.664-2.034 1.48-6.288 3.144-12.76 4.624-19.048.924-3.698 2.774-5.178 6.657-5.178h19.972c4.069 0 5.733 1.48 6.843 5.363 1.479 6.288 3.143 12.575 4.623 18.863.37 1.109.74 1.664 1.849 2.219 2.959 1.109 5.918 2.404 8.877 3.698 1.109.555 1.849.555 2.959-.185 4.808-2.958 9.616-5.732 14.424-8.691 3.699-2.219 5.733-1.849 8.692 1.109l13.869 13.87c2.959 2.959 3.144 4.993 1.11 8.507-2.959 4.808-5.733 9.616-8.692 14.424-.555.925-.555 1.665-.185 2.774 1.295 2.959 2.589 6.103 3.884 9.062.37 1.109 1.109 1.479 2.034 1.664 6.287 1.479 12.76 3.144 19.048 4.623 3.698.925 5.178 2.774 5.178 6.658v19.972c0 3.883-1.48 5.733-5.178 6.657-6.288 1.665-12.761 3.144-19.048 4.623-1.11.37-1.664.74-2.219 1.85-1.11 2.959-2.589 5.917-3.699 8.876-.185.74-.185 1.85.185 2.404 2.774 4.809 5.733 9.617 8.507 14.425 2.034 3.513 1.849 5.733-1.11 8.506l-14.054 14.055c-1.665 1.479-3.144 2.589-5.363 2.774Zm-14.24-73.971c0-21.267-17.383-38.65-38.65-38.65-21.266 0-38.65 17.383-38.65 38.65 0 21.266 17.384 38.65 38.65 38.65 21.267 0 38.65-17.384 38.65-38.65Z"/><path fill="#000" d="M205.826 297.92h-19.788c-4.623 0-7.027-1.85-7.952-6.288-1.664-6.287-3.144-12.76-4.623-19.047-.185-.74-.37-.925-.925-1.11a246.649 246.649 0 0 1-9.431-3.884c-.555-.184-.74-.184-1.479.185-3.144 2.035-6.473 3.884-9.617 5.733l-3.883 2.404c-4.253 2.589-7.027 2.219-10.541-1.294l-9.246-9.247-4.624-4.623c-3.513-3.513-3.698-6.287-1.294-10.541 2.774-4.438 5.363-9.061 8.137-13.5.37-.554.37-.739 0-1.294-1.295-2.774-2.404-5.548-3.884-9.431-.185-.74-.555-.925-1.109-.925-6.473-1.479-12.945-3.144-19.233-4.808-4.253-1.11-6.103-3.514-6.103-7.767v-20.527c0-4.254 2.035-6.658 6.103-7.767l1.295-.37 17.753-4.438c.739-.185.924-.37 1.109-.925.925-2.774 2.034-5.363 3.144-7.952.37-.555.185-.925 0-1.294-3.144-5.178-6.288-10.356-9.431-15.719-2.404-4.069-2.035-7.028 1.294-10.356l4.623-4.623 9.247-9.247c3.329-3.329 6.102-3.698 10.171-1.294l1.664.924a521.03 521.03 0 0 1 13.5 8.137c.555.37.74.37 1.479 0 3.699-1.664 6.843-2.959 9.802-4.253.554-.185.739-.37.924-1.11 1.48-6.287 3.144-12.76 4.623-19.047 1.11-4.439 3.514-6.288 7.952-6.288h19.973c4.623 0 7.027 1.849 8.137 6.472l.369 1.295c1.48 5.918 2.959 11.65 4.254 17.568.185.74.37.925 1.109 1.11 2.774 1.109 5.733 2.219 8.877 3.698.74.37.924.37 1.479 0 4.808-2.959 9.617-5.732 14.425-8.691 4.068-2.404 7.027-2.219 10.356 1.294l13.869 13.87c3.329 3.329 3.699 6.287 1.295 10.171-2.959 4.808-5.733 9.616-8.692 14.424-.37.555-.37.74 0 1.48 1.295 2.959 2.589 6.102 3.884 9.246.185.555.37.74 1.109.925 4.808 1.109 9.617 2.404 14.425 3.513l4.808 1.11c4.438 1.11 6.287 3.514 6.287 7.952v19.972c0 4.623-1.849 7.027-6.287 7.952l-.925.185-18.308 4.438c-.739.185-.924.37-1.109 1.11-.555 1.479-1.11 2.774-1.665 4.253-.739 1.48-1.294 3.144-1.849 4.623-.185.37 0 1.11 0 1.295 2.034 3.514 4.068 7.027 6.288 10.541l2.404 3.883c2.404 4.069 2.034 6.843-1.295 10.171l-14.054 14.055c-1.295 1.294-2.959 2.589-5.548 2.774l-.37.185-.74-.185c-.37-.185-.74-.37-1.109-.37-.925-.37-1.665-.74-2.589-1.11l-5.548-3.328c-2.959-1.665-5.733-3.514-8.692-5.178-.185-.185-.925-.185-1.294 0-1.665.739-3.329 1.294-4.993 2.034-1.48.74-3.144 1.294-4.624 1.849-.554.185-.739.37-.924 1.11-1.48 6.472-3.144 12.76-4.623 19.047-.74 4.993-3.144 6.843-7.767 6.843Zm-43.459-33.287c.555 0 1.11.185 1.85.37 2.774 1.294 5.917 2.588 9.246 3.883 1.479.555 2.219 1.479 2.589 2.959 1.479 6.287 3.144 12.76 4.623 19.047.74 3.144 2.034 4.069 5.363 4.069h19.788c3.328 0 4.623-.925 5.362-4.069 1.665-6.287 3.144-12.76 4.624-19.047.37-1.48 1.109-2.404 2.589-2.959 1.479-.555 2.958-1.295 4.623-1.849 1.664-.74 3.329-1.48 5.178-2.034 1.109-.37 2.589-.37 3.698.184a215.87 215.87 0 0 1 8.692 5.178l5.548 3.329c.555.37 1.294.555 2.034.925.37.185.555.185.925.37 1.294-.185 2.589-.74 3.883-2.035l14.055-14.054c2.404-2.404 2.589-3.884.924-6.842l-2.404-3.884c-2.034-3.514-4.253-7.027-6.287-10.541-.555-.925-.74-2.589-.185-3.698.555-1.665 1.294-3.144 1.849-4.809.555-1.294 1.11-2.774 1.665-4.068.554-1.479 1.479-2.404 3.143-2.774a2622.925 2622.925 0 0 0 18.123-4.438l.925-.185c3.144-.74 4.068-2.034 4.068-5.363v-19.972c0-3.329-.924-4.624-4.068-5.363l-4.808-1.11c-4.808-1.109-9.616-2.404-14.425-3.513-1.479-.37-2.404-1.11-2.958-2.589-1.11-3.144-2.405-6.103-3.884-9.062-.74-1.479-.555-2.589.185-4.068 2.959-4.809 5.733-9.617 8.692-14.425 1.664-2.959 1.479-4.438-.925-6.842l-13.87-13.87c-2.589-2.404-3.883-2.589-7.027-.739-4.808 2.773-9.616 5.732-14.239 8.691-1.295.925-2.589.925-4.254.185-2.959-1.294-5.918-2.589-8.691-3.698-1.48-.555-2.404-1.48-2.774-3.144-1.48-5.918-2.774-11.651-4.254-17.568l-.37-1.295c-.739-3.329-2.034-4.253-5.362-4.253h-19.788c-3.329 0-4.623.924-5.363 4.068-1.664 6.288-3.144 12.76-4.623 19.048-.37 1.479-1.11 2.404-2.589 2.959-2.959 1.109-6.103 2.589-9.801 4.068-1.48.74-2.774.555-4.069-.185-4.438-2.774-8.876-5.363-13.314-8.137l-1.665-.924c-2.959-1.85-4.438-1.665-6.842.924-3.144 3.144-6.288 6.103-9.247 9.247l-4.623 4.438c-2.404 2.404-2.589 4.068-.924 7.027l9.431 15.534c.74 1.295.925 2.589.185 4.069-1.11 2.404-2.219 4.993-3.144 7.767-.74 1.849-2.034 2.404-3.144 2.774l-17.753 4.438-1.294.37c-2.959.739-4.069 2.034-4.069 4.993v20.342c0 2.959 1.11 4.253 4.069 4.993 6.472 1.664 12.76 3.144 19.232 4.808 1.48.37 2.404 1.11 2.959 2.589 1.48 3.699 2.589 6.657 3.884 9.246.739 1.48.554 2.589-.185 4.069-2.774 4.438-5.363 9.061-8.137 13.5-1.849 3.143-1.665 4.623.74 7.212l4.623 4.623 9.246 9.246c2.589 2.589 4.069 2.774 7.212.74l3.884-2.404c3.144-1.849 6.472-3.883 9.616-5.733.555-.554 1.295-.739 2.034-.739Zm33.657-22.377c-22.006 0-39.944-17.938-39.944-39.944 0-22.007 17.938-39.945 40.129-39.945 22.007 0 39.945 17.938 39.945 39.945-.185 22.006-18.123 39.944-40.13 39.944Zm0-77.3c-20.527 0-37.355 16.644-37.355 37.171s16.643 37.17 37.17 37.17 37.356-16.643 37.356-37.17c0-20.342-16.644-37.171-37.171-37.171Z"/><path fill="#444" d="M211.558 336.57c-53.444 9.061-107.813-16.274-135.367-63.616-18.863-32.362-22.931-71.382-11.466-106.888l-17.753-5.733c-13.13 40.684-8.507 85.067 12.945 122.053 28.479 49.006 82.478 77.3 137.772 74.526 7.027-.37 13.869-1.11 20.897-2.589l6.657 17.568 35.506-43.273-55.108-9.247 5.917 17.199Z"/><path fill="#000" d="M225.243 373.186h-.185c-.555 0-.925-.37-1.109-.925l-6.103-16.459c-6.473 1.295-13.13 2.035-19.972 2.404-56.219 2.774-110.957-26.814-139.066-75.265-21.637-37.171-26.445-82.109-13.13-123.163.184-.37.37-.554.74-.739.37-.185.739-.185 1.109 0l17.753 5.732c.37.185.555.37.74.74.185.37.185.74 0 1.11-11.466 35.136-7.397 73.786 11.28 105.779 26.815 46.232 79.889 71.382 132.224 63.245l-5.363-15.534c-.185-.37 0-.924.185-1.294s.74-.555 1.295-.555l55.108 9.246c.555 0 .925.37 1.11.925.185.555 0 .925-.185 1.294l-35.506 43.274c-.185 0-.555.185-.925.185Zm-6.657-20.158c.554 0 1.109.37 1.294.925l5.733 15.349 32.547-39.575-50.485-8.321 5.178 14.794c.185.37.185.555 0 .925-.185.554-.555.924-1.11.924-54.184 9.062-109.107-16.643-136.847-64.355-18.678-32.362-23.116-71.012-11.835-106.703l-15.164-4.994C35.322 201.942 40.13 245.4 61.212 281.646c27.739 47.712 81.183 76.745 136.477 73.971 7.027-.369 13.869-1.109 20.712-2.589h.185Z"/><path fill="#444" d="M319.741 131.299c-31.993-55.109-96.533-84.142-158.669-72.122l-6.657-17.568-35.321 43.273 55.108 9.246-6.472-17.013c53.444-9.061 108.183 16.274 135.737 63.615 17.753 30.329 22.377 65.835 13.5 99.862l18.123 4.808c10.356-38.835 4.993-79.334-15.349-114.101Z"/><path fill="#000" d="M335.09 246.694h-.37l-18.123-4.808c-.37-.185-.74-.37-.925-.554-.185-.185-.185-.74-.185-1.11 8.877-33.657 4.254-68.608-13.314-98.752-26.815-46.232-79.889-71.382-132.594-63.245l5.733 15.534c.185.555 0 .924-.185 1.294-.37.37-.74.555-1.295.555l-55.293-9.246c-.555 0-.925-.37-1.11-.925-.185-.555 0-.925.185-1.294l35.876-43.274c.37-.37.74-.554 1.295-.554.554 0 .924.37 1.109.924l6.103 16.459c62.876-11.65 126.676 17.383 158.853 72.677 0 0 0 .184.185.184 20.342 34.952 25.89 75.821 15.534 115.026-.185.74-.739 1.109-1.479 1.109Zm-16.274-7.212 15.349 4.069c9.616-37.911 4.254-77.485-15.534-111.512 0 0 0-.185-.185-.185-31.807-54.739-95.053-83.403-157.189-71.382-.74.185-1.294-.185-1.479-.925l-5.548-15.164-32.548 39.574 50.486 8.322-5.548-14.794c-.185-.37-.185-.74.185-1.11.185-.37.555-.554.925-.74 54.369-9.246 109.477 16.644 137.216 64.356 17.569 30.328 22.377 65.649 13.87 99.491Z"/><path fill="#DADADA" d="M217.476 332.131c-53.444 9.062-107.813-16.273-135.368-63.615-18.862-32.363-22.93-71.382-11.28-106.889l-17.753-5.732c-13.13 40.684-8.507 85.067 12.945 122.052 28.479 49.006 82.478 77.3 137.771 74.526 7.027-.369 13.87-1.109 20.897-2.589l6.658 17.569 35.506-43.274-55.109-9.246 5.733 17.198Z"/><path fill="#000" d="M231.16 368.747h-.185c-.555 0-.924-.37-1.109-.925l-6.103-16.458c-6.472 1.294-13.13 2.034-19.972 2.404-56.218 2.774-110.957-26.815-139.066-75.266-21.637-37.355-26.26-82.108-12.945-123.162.185-.37.37-.555.74-.74.37-.185.74-.185 1.109 0l17.753 5.733c.74.185 1.11 1.109.925 1.664-11.466 35.137-7.397 73.787 11.28 105.779 26.815 46.232 79.889 71.383 132.224 63.246l-5.363-15.534c-.185-.37 0-.925.185-1.295.185-.37.74-.554 1.295-.554l55.293 9.246c.555 0 .925.37 1.11.925.185.554 0 .924-.185 1.294l-35.506 43.273c-.555.185-1.11.37-1.48.37Zm-6.472-20.342c.554 0 1.109.37 1.294.925l5.733 15.349 32.547-39.575-50.485-8.322 5.178 14.795c.185.369.185.739 0 .924-.185.555-.555.925-1.11.925-54.184 9.061-109.107-16.644-136.847-64.355-18.677-32.363-23.116-71.013-11.835-106.704l-15.164-4.993c-12.575 39.945-7.767 83.403 13.315 119.649 27.739 47.711 81.183 76.745 136.477 73.971 7.027-.37 13.869-1.11 20.712-2.589h.185Z"/><path fill="#DADADA" d="M325.844 126.861c-31.993-55.109-96.533-84.142-158.669-72.122l-6.657-17.568-35.322 43.273 55.109 9.246-6.473-17.013c53.445-9.061 108.184 16.274 135.738 63.615 17.753 30.329 22.376 65.835 13.5 99.862l18.123 4.808c10.356-39.02 4.808-79.519-15.349-114.101Z"/><path fill="#000" d="M341.193 242.071h-.37l-18.123-4.808c-.37-.185-.74-.37-.925-.555-.184-.184-.184-.739-.184-1.109 8.876-33.657 4.253-68.608-13.315-98.752-26.815-46.232-79.889-71.382-132.594-63.245l5.733 15.534c.185.555 0 .924-.185 1.294-.37.37-.74.555-1.295.555l-55.108-9.246c-.555 0-.925-.37-1.11-.925-.185-.555 0-.925.185-1.295l35.506-43.273c.37-.37.74-.555 1.295-.555.555 0 .925.37 1.109.925l6.103 16.459c62.876-11.65 126.676 17.383 158.854 72.677 0 0 0 .184.184.184 20.343 34.952 25.89 75.821 15.534 115.026-.184.74-.739 1.109-1.294 1.109Zm-16.459-7.027 15.349 4.069c9.617-37.911 4.254-77.485-15.534-111.512 0 0 0-.185-.185-.185-31.807-54.739-95.053-83.403-157.189-71.382-.739.184-1.294-.185-1.479-.925l-5.733-15.35-32.177 39.76 50.485 8.322-5.548-14.794c-.185-.37-.185-.74.185-1.11.185-.37.555-.554.925-.74 54.369-9.246 109.477 16.644 137.217 64.356 17.383 30.143 22.376 65.464 13.684 99.491Z"/><path fill="#fff" d="M239.667 199.168c0-21.267-17.383-38.65-38.65-38.65s-38.65 17.383-38.65 38.65c0 21.266 17.383 38.65 38.65 38.65s38.65-17.569 38.65-38.65Z"/><path fill="#000" d="M196.024 242.256c-22.007 0-39.945-17.938-39.945-39.944 0-22.007 17.938-39.945 39.945-39.945 22.006 0 39.944 17.938 39.944 39.945 0 22.006-17.938 39.944-39.944 39.944Zm0-77.3c-20.527 0-37.171 16.644-37.171 37.171s16.644 37.17 37.171 37.17 37.17-16.643 37.17-37.17c0-20.342-16.643-37.171-37.17-37.171Z"/></svg>