<svg xmlns="http://www.w3.org/2000/svg" width="400" height="401" fill="none" viewBox="0 0 400 401"><path fill="#FF3158" d="M282.94 125.137v2.589l24.966 24.966-97.273 97.272-57.697-57.513-15.534-15.534-23.486 23.671-52.705 52.705-23.486 23.485 26.815 27 23.67-23.486 49.192-49.376 73.416 72.862 124.087-124.087 24.966 24.78h2.404v-79.334H282.94Z"/><path fill="#222" d="M209.339 307.106v-2.774l-71.937-71.567-72.862 72.862-28.849-28.849 101.711-101.71 16.458 16.458 56.773 56.588 95.238-95.238-24.41-24.41v-4.439h82.108v82.109h-4.438l-24.226-24.411-123.532 123.532-.555.555-1.479 1.294Zm-71.937-78.224 73.416 73.046 1.48-1.479v.185L335.09 177.841l25.52 25.521h.555v-76.746h-76.56v.555l25.52 25.52-99.307 99.307-73.416-73.047-97.827 97.827 24.965 24.965 72.862-72.861Z"/><path fill="#444" d="M147.388 113.856c-32.363 0-58.438 26.26-58.438 58.438 0 20.712 10.726 38.65 26.815 49.191v21.266a7.025 7.025 0 0 0 7.027 7.028h5.178c-3.698 0-6.842 3.144-6.842 6.842 0 3.699 3.144 6.842 6.842 6.842-3.698 0-6.842 3.144-6.842 6.843 0 3.698 3.144 6.842 6.842 6.842-3.698 0-6.842 3.144-6.842 6.843 0 3.698 3.144 6.842 6.842 6.842h5.363c.555 8.137 7.397 14.609 15.719 14.609s15.164-6.472 15.719-14.609h2.959c3.699 0 6.842-3.144 6.842-6.842 0-3.699-3.143-6.843-6.842-6.843 3.699 0 6.842-3.144 6.842-6.842 0-3.699-3.143-6.843-6.842-6.843 3.699 0 6.842-3.143 6.842-6.842 0-3.698-3.143-6.842-6.842-6.842h3.884a7.025 7.025 0 0 0 7.027-7.028V221.3c16.089-10.356 26.814-28.479 26.814-49.191.37-32.178-25.705-58.253-58.067-58.253Z"/><path fill="#444" d="M155.895 305.627c8.691 0 15.718-7.028 15.718-15.719h-31.622c0 8.691 7.027 15.719 15.904 15.719Z"/><path fill="#222" d="M155.895 306.921c-9.432 0-17.199-7.767-17.199-17.198 0-.74.555-1.479 1.48-1.479h31.622c.74 0 1.48.554 1.48 1.479-.185 9.616-7.952 17.198-17.383 17.198Zm-14.425-15.719c.74 7.213 6.843 12.945 14.425 12.945 7.582 0 13.684-5.732 14.424-12.945H141.47Z"/><path fill="#fff" d="M135.922 249.963h39.76c3.698 0 6.842 3.144 6.842 6.843 0 3.698-3.144 6.842-6.842 6.842h-39.76c-3.698 0-6.842-3.144-6.842-6.842 0-3.884 3.144-6.843 6.842-6.843Z"/><path fill="#222" d="M175.867 264.943h-39.945c-4.623 0-8.137-3.699-8.137-8.322 0-4.623 3.699-8.322 8.137-8.322h39.76a8.288 8.288 0 0 1 8.322 8.322c0 4.623-3.699 8.322-8.137 8.322Zm-39.945-13.685c-2.959 0-5.363 2.404-5.363 5.548s2.404 5.548 5.363 5.548h39.76c2.959 0 5.548-2.404 5.548-5.548s-2.404-5.548-5.548-5.548h-39.76Z"/><path fill="#fff" d="M135.922 263.648h39.76c3.698 0 6.842 3.144 6.842 6.843 0 3.698-3.144 6.842-6.842 6.842h-39.76c-3.698 0-6.842-3.144-6.842-6.842 0-3.884 3.144-6.843 6.842-6.843Z"/><path fill="#222" d="M175.867 278.628h-39.945c-4.623 0-8.137-3.699-8.137-8.137 0-4.623 3.699-8.322 8.137-8.322h39.76a8.288 8.288 0 0 1 8.322 8.322c0 4.438-3.699 8.137-8.137 8.137Zm-39.945-13.685c-2.959 0-5.363 2.404-5.363 5.548a5.367 5.367 0 0 0 5.363 5.363h39.76c2.959 0 5.548-2.404 5.548-5.363 0-2.959-2.404-5.548-5.548-5.548h-39.76Z"/><path fill="#fff" d="M135.922 277.333h39.76c3.698 0 6.842 3.143 6.842 6.842 0 3.698-3.144 6.842-6.842 6.842h-39.76c-3.698 0-6.842-3.144-6.842-6.842 0-3.884 3.144-6.842 6.842-6.842Z"/><path fill="#222" d="M175.867 292.312h-39.945c-4.623 0-8.137-3.699-8.137-8.322 0-4.623 3.699-8.137 8.137-8.137h39.76c4.623 0 8.322 3.699 8.322 8.137 0 4.623-3.699 8.322-8.137 8.322Zm-39.945-13.685a5.367 5.367 0 0 0-5.363 5.363c0 2.959 2.404 5.548 5.363 5.548h39.76c2.959 0 5.548-2.404 5.548-5.548 0-2.959-2.404-5.363-5.548-5.363h-39.76Z"/><path fill="#F5F4F3" d="M140.915 249.779h39.76c3.699 0 6.842 3.144 6.842 6.842 0 3.699-3.143 6.842-6.842 6.842h-39.76c-3.698 0-6.842-3.143-6.842-6.842 0-3.698 3.144-6.842 6.842-6.842ZM140.915 263.463h39.76c3.699 0 6.842 3.144 6.842 6.842 0 3.699-3.143 6.843-6.842 6.843h-39.76c-3.698 0-6.842-3.144-6.842-6.843 0-3.698 3.144-6.842 6.842-6.842ZM140.915 277.148h39.76c3.699 0 6.842 3.144 6.842 6.842 0 3.699-3.143 6.843-6.842 6.843h-39.76c-3.698 0-6.842-3.144-6.842-6.843 0-3.698 3.144-6.842 6.842-6.842Z"/><path fill="#fff" d="M213.777 172.293c0-32.178-26.26-58.438-58.437-58.438-32.178 0-58.438 26.075-58.438 58.438 0 20.712 10.726 38.65 26.815 49.191v21.267a7.024 7.024 0 0 0 7.027 7.027h48.821a7.025 7.025 0 0 0 7.028-7.027v-21.452c16.458-10.356 27.184-28.294 27.184-49.006Z"/><path fill="#222" d="M179.75 251.258h-48.821c-4.623 0-8.506-3.884-8.506-8.507v-20.712c-16.829-11.096-26.815-29.774-26.815-49.931 0-32.917 26.815-59.917 59.917-59.917 32.917 0 59.732 26.815 59.732 59.917v1.48c-.37 19.602-10.356 37.54-26.815 48.451v20.712c-.185 4.808-4.068 8.507-8.692 8.507ZM155.34 115.15c-31.438 0-57.143 25.52-57.143 57.143 0 19.418 9.801 37.356 26.26 47.897l.555.369v22.192c0 3.144 2.589 5.733 5.732 5.733h48.821c3.144 0 5.733-2.589 5.733-5.733v-22.192l.555-.369c16.459-10.541 26.26-28.479 26.26-47.897v-1.479c-.555-30.698-25.705-55.664-56.773-55.664Z"/><path fill="#FF3158" d="M155.895 133.089c0 2.774 2.219 5.178 4.993 5.548 13.499 2.034 24.225 12.575 26.629 25.705.74 3.513 3.884 6.102 7.397 6.102 2.959 0 5.363-2.589 4.994-5.362-2.405-19.418-17.384-35.137-36.616-38.281-3.884-.554-7.397 2.404-7.397 6.288Z"/><path fill="#222" d="M195.099 171.924c-4.253 0-7.952-2.959-8.691-7.213-2.404-12.76-12.76-22.746-25.52-24.595-3.514-.555-5.918-3.329-6.103-6.657v-.185c0-2.404.925-4.439 2.774-5.918 1.664-1.48 4.068-2.034 6.287-1.664 19.788 3.328 35.322 19.602 37.726 39.389.185 1.665-.37 3.514-1.48 4.808-1.479 1.295-3.328 2.035-4.993 2.035Zm-37.725-39.02v.185c0 2.034 1.664 3.883 3.699 4.253 14.054 2.219 25.15 12.945 27.924 27 .555 2.773 3.144 4.993 6.102 4.993 1.11 0 2.035-.37 2.774-1.295.74-.74.925-1.664.74-2.589-2.219-18.678-16.828-34.027-35.506-37.17-1.48-.185-2.959.184-4.069 1.109-1.109.74-1.664 2.034-1.664 3.514ZM155.895 101.281c-2.589 0-4.624-2.034-4.624-4.623v-40.87c0-2.588 2.035-4.622 4.624-4.622 2.589 0 4.623 2.034 4.623 4.623v40.869c0 2.589-2.034 4.623-4.623 4.623ZM273.139 157.869h-38.465c-2.589 0-4.623-2.034-4.623-4.623 0-2.589 2.034-4.623 4.623-4.623h38.465c2.589 0 4.623 2.034 4.623 4.623 0 2.589-2.034 4.623-4.623 4.623ZM77.3 157.869H38.835c-2.59 0-4.623-2.034-4.623-4.623 0-2.589 2.034-4.808 4.623-4.808H77.3c2.589 0 4.623 2.034 4.623 4.623 0 2.589-2.034 4.808-4.623 4.808ZM208.969 120.698c-1.294 0-2.404-.37-3.329-1.294a4.69 4.69 0 0 1 0-6.658l29.034-29.033a4.688 4.688 0 0 1 6.657 0 4.687 4.687 0 0 1 0 6.657l-29.033 29.034c-.925.74-2.219 1.294-3.329 1.294ZM103.56 119.774c-1.295 0-2.404-.37-3.329-1.295L71.197 89.446a4.688 4.688 0 0 1 0-6.658 4.688 4.688 0 0 1 6.658 0l29.034 29.034a4.688 4.688 0 0 1 0 6.657c-.925.74-2.22 1.295-3.329 1.295ZM167.36 249.963h-2.774v-48.451h-17.198v48.451h-2.774v-48.451h-8.322c-6.102 0-11.096-4.993-11.096-11.095 0-6.103 4.994-11.096 11.096-11.096 6.103 0 11.096 4.993 11.096 11.096v8.321h17.198v-8.321c0-6.103 4.993-11.096 11.096-11.096s11.096 4.993 11.096 11.096c0 6.102-4.993 11.095-11.096 11.095h-8.322v48.451Zm0-51.225h8.322a8.287 8.287 0 0 0 8.322-8.321 8.287 8.287 0 0 0-8.322-8.322 8.287 8.287 0 0 0-8.322 8.322v8.321Zm-31.068-16.643a8.287 8.287 0 0 0-8.322 8.322 8.287 8.287 0 0 0 8.322 8.321h8.322v-8.321a8.287 8.287 0 0 0-8.322-8.322Z"/><path fill="#222" d="M175.867 264.943h-39.945c-4.623 0-8.137-3.699-8.137-8.322 0-4.623 3.699-8.322 8.137-8.322h39.76a8.288 8.288 0 0 1 8.322 8.322c0 4.623-3.699 8.322-8.137 8.322Zm-39.945-13.685c-2.959 0-5.363 2.404-5.363 5.548s2.404 5.548 5.363 5.548h39.76c2.959 0 5.548-2.404 5.548-5.548s-2.404-5.548-5.548-5.548h-39.76Z"/><path fill="#222" d="M175.867 278.628h-39.945c-4.623 0-8.137-3.699-8.137-8.137 0-4.623 3.699-8.322 8.137-8.322h39.76a8.288 8.288 0 0 1 8.322 8.322c0 4.438-3.699 8.137-8.137 8.137Zm-39.945-13.685c-2.959 0-5.363 2.404-5.363 5.548a5.367 5.367 0 0 0 5.363 5.363h39.76c2.959 0 5.548-2.404 5.548-5.363 0-2.959-2.404-5.548-5.548-5.548h-39.76Z"/><path fill="#222" d="M175.867 292.312h-39.945c-4.623 0-8.137-3.699-8.137-8.322 0-4.623 3.699-8.137 8.137-8.137h39.76c4.623 0 8.322 3.699 8.322 8.137 0 4.623-3.699 8.322-8.137 8.322Zm-39.945-13.685a5.367 5.367 0 0 0-5.363 5.363c0 2.959 2.404 5.548 5.363 5.548h39.76c2.959 0 5.548-2.404 5.548-5.548 0-2.959-2.404-5.363-5.548-5.363h-39.76Z"/></svg>