<svg xmlns="http://www.w3.org/2000/svg" width="400" height="400" fill="none" viewBox="0 0 400 400"><path fill="#FF3158" d="m282.974 124.572.074 3.2 24.23 24.545-96.421 97.16-74.558-72.745-97.697 100.083 26.412 26.893 70.23-71.136 75.928 71.173 123.98-124.313 24.378 24.545 2.793.092v-79.108l-79.349-.389Z"/><path fill="#222" d="m210.728 305.484-.888-1.073-72.32-72.024-72.912 72.912-28.91-28.909 101.804-101.804 16.535 16.517 56.747 56.506 95.311-95.311-24.434-24.433v-4.495h82.105v82.105h-4.494l-24.267-24.267-124.258 124.276h-.019Zm-73.208-77.018 73.319 73.005.13-.13 124.036-124.036 25.413 25.414h.574v-76.556h-76.556v.573l25.58 25.581-99.232 99.232-57.672-57.431-15.61-15.592-97.883 97.882 24.989 24.989 72.912-72.913v-.018Z"/><path fill="#DADADA" d="M147.489 113.364c-32.276 0-58.448 26.172-58.448 58.448 0 20.642 10.728 38.75 26.894 49.144v21.401a7.104 7.104 0 0 0 7.102 7.102h5.105a6.853 6.853 0 0 0-6.844 6.844c0 3.773 3.071 6.843 6.844 6.843a6.853 6.853 0 0 0-6.844 6.844 6.853 6.853 0 0 0 6.844 6.844c-3.773 0-6.844 3.07-6.844 6.843a6.852 6.852 0 0 0 6.844 6.844h5.456c.629 8.157 7.417 14.575 15.741 14.575 8.323 0 15.111-6.418 15.74-14.575h2.904a6.852 6.852 0 0 0 6.844-6.844c0-3.773-3.071-6.843-6.844-6.843a6.853 6.853 0 0 0 6.844-6.844 6.853 6.853 0 0 0-6.844-6.844c3.773 0 6.844-3.07 6.844-6.843a6.853 6.853 0 0 0-6.844-6.844h3.94a7.104 7.104 0 0 0 7.102-7.102v-21.401c16.166-10.394 26.894-28.502 26.894-49.144 0-32.276-26.172-58.448-58.448-58.448h.018Z"/><path fill="#DADADA" d="M155.868 305.133c8.73 0 15.796-7.066 15.796-15.796h-31.592c0 8.73 7.066 15.796 15.796 15.796Z"/><path fill="#222" d="M155.868 306.52c-9.471 0-17.183-7.713-17.183-17.183 0-.758.628-1.387 1.387-1.387h31.591c.759 0 1.388.629 1.388 1.387 0 9.47-7.713 17.183-17.183 17.183Zm-14.354-15.796c.703 7.306 6.863 13.022 14.354 13.022 7.491 0 13.65-5.734 14.353-13.022H141.514Z"/><path fill="#fff" d="M175.881 249.477H136.04a6.844 6.844 0 1 0 0 13.687h39.841a6.843 6.843 0 0 0 0-13.687Z"/><path fill="#222" d="M175.863 264.551h-39.841c-4.532 0-8.231-3.699-8.231-8.23 0-4.532 3.699-8.231 8.231-8.231h39.841c4.55 0 8.231 3.699 8.231 8.231 0 4.531-3.7 8.23-8.231 8.23Zm-39.841-13.687a5.455 5.455 0 0 0-5.457 5.457 5.455 5.455 0 0 0 5.457 5.456h39.841a5.454 5.454 0 0 0 5.456-5.456 5.455 5.455 0 0 0-5.456-5.457h-39.841Z"/><path fill="#fff" d="M175.881 263.165H136.04a6.844 6.844 0 1 0 0 13.687h39.841a6.844 6.844 0 0 0 0-13.687Z"/><path fill="#222" d="M175.863 278.258h-39.841c-4.532 0-8.231-3.7-8.231-8.231 0-4.532 3.699-8.231 8.231-8.231h39.841c4.55 0 8.231 3.699 8.231 8.231 0 4.531-3.7 8.231-8.231 8.231Zm-39.841-13.688a5.455 5.455 0 0 0-5.457 5.457 5.455 5.455 0 0 0 5.457 5.456h39.841a5.454 5.454 0 0 0 5.456-5.456 5.455 5.455 0 0 0-5.456-5.457h-39.841Z"/><path fill="#fff" d="M175.881 276.87H136.04a6.844 6.844 0 1 0 0 13.687h39.841a6.843 6.843 0 0 0 0-13.687Z"/><path fill="#222" d="M175.863 291.945h-39.841c-4.532 0-8.231-3.7-8.231-8.231 0-4.532 3.699-8.231 8.231-8.231h39.841c4.55 0 8.231 3.699 8.231 8.231 0 4.531-3.7 8.231-8.231 8.231Zm-39.841-13.688a5.455 5.455 0 0 0-5.457 5.457 5.455 5.455 0 0 0 5.457 5.456h39.841a5.454 5.454 0 0 0 5.456-5.456 5.455 5.455 0 0 0-5.456-5.457h-39.841Z"/><path fill="#F5F4F3" d="M180.856 249.385h-39.841a6.844 6.844 0 0 0 0 13.687h39.841a6.844 6.844 0 1 0 0-13.687Z"/><path fill="#F5F4F3" d="M180.856 263.072h-39.841a6.844 6.844 0 0 0 0 13.688h39.841a6.844 6.844 0 0 0 0-13.688ZM180.856 276.778h-39.841a6.843 6.843 0 0 0 0 13.687h39.841a6.844 6.844 0 1 0 0-13.687Z"/><path fill="#fff" d="M213.816 171.812c0-32.276-26.172-58.448-58.448-58.448-32.276 0-58.448 26.172-58.448 58.448 0 20.642 10.728 38.75 26.893 49.144v21.401a7.105 7.105 0 0 0 7.103 7.102h48.886a7.104 7.104 0 0 0 7.102-7.102v-21.401c16.166-10.394 26.894-28.502 26.894-49.144h.018Z"/><path fill="#222" d="M179.802 250.865h-48.885c-4.68 0-8.49-3.81-8.49-8.49v-20.642c-16.85-11.134-26.894-29.742-26.894-49.902 0-32.998 26.838-59.836 59.836-59.836 32.997 0 59.835 26.838 59.835 59.836 0 20.16-10.044 38.768-26.894 49.902v20.642c0 4.68-3.81 8.49-8.489 8.49h-.019Zm-24.433-136.114c-31.463 0-57.061 25.599-57.061 57.061 0 19.477 9.821 37.418 26.264 47.979l.629.407v22.159a5.719 5.719 0 0 0 5.716 5.715h48.885a5.719 5.719 0 0 0 5.715-5.715v-22.159l.629-.407c16.444-10.58 26.265-28.521 26.265-47.979 0-31.462-25.599-57.061-57.061-57.061h.019Z"/><path fill="#FF3158" d="M155.961 132.636c0 2.849 2.145 5.142 4.957 5.586 13.465 2.072 24.193 12.485 26.727 25.802.666 3.533 3.81 6.067 7.398 6.067 2.923 0 5.29-2.534 4.92-5.438-2.386-19.495-17.404-35.069-36.641-38.287-3.865-.647-7.38 2.331-7.38 6.252v.037l.019-.019Z"/><path fill="#222" d="M195.043 171.479c-4.291 0-7.972-3.034-8.767-7.195-2.442-12.781-12.707-22.714-25.581-24.693-3.551-.555-6.122-3.477-6.122-6.954v-.037c0-2.275.999-4.421 2.738-5.901a7.635 7.635 0 0 1 6.27-1.72c19.809 3.311 35.346 19.551 37.788 39.49a6.149 6.149 0 0 1-1.517 4.846 6.43 6.43 0 0 1-4.79 2.164h-.019Zm-32.757-43.818a4.979 4.979 0 0 0-3.2 1.165 4.949 4.949 0 0 0-1.757 3.774v.037c0 2.108 1.591 3.865 3.773 4.198 14.021 2.164 25.229 12.985 27.874 26.912.537 2.867 3.089 4.939 6.049 4.939a3.593 3.593 0 0 0 2.7-1.221c.666-.758.962-1.702.851-2.663-2.294-18.719-16.887-33.978-35.476-37.085-.277-.037-.536-.074-.814-.074v.018Z"/><path fill="#fff" d="M155.868 100.786a4.665 4.665 0 0 1-4.661-4.66v-40.84a4.665 4.665 0 0 1 4.661-4.662 4.665 4.665 0 0 1 4.661 4.662v40.84c0 2.57-2.09 4.66-4.661 4.66ZM273.134 157.348h-38.416a4.666 4.666 0 0 1-4.661-4.662 4.665 4.665 0 0 1 4.661-4.661h38.416a4.665 4.665 0 0 1 4.661 4.661 4.666 4.666 0 0 1-4.661 4.662ZM77.258 157.348H38.842a4.666 4.666 0 0 1-4.661-4.662 4.665 4.665 0 0 1 4.66-4.661h38.417a4.665 4.665 0 0 1 4.662 4.661 4.666 4.666 0 0 1-4.662 4.662ZM208.989 120.17a4.638 4.638 0 0 1-3.293-1.368 4.668 4.668 0 0 1 0-6.585l29.021-29.02a4.667 4.667 0 0 1 6.585 0 4.668 4.668 0 0 1 0 6.584l-29.021 29.021a4.668 4.668 0 0 1-3.292 1.368ZM103.542 119.282a4.634 4.634 0 0 1-3.293-1.369l-29.02-29.02a4.666 4.666 0 0 1 0-6.585 4.666 4.666 0 0 1 6.584 0l29.021 29.021a4.665 4.665 0 0 1 0 6.584 4.665 4.665 0 0 1-3.292 1.369Z"/><path fill="#222" d="M167.336 249.477h-2.775V200.98h-17.238v48.497h-2.775V200.98h-8.267c-6.086 0-11.043-4.957-11.043-11.042s4.957-11.042 11.043-11.042c6.085 0 11.042 4.957 11.042 11.042v8.268h17.238v-8.268c0-6.085 4.957-11.042 11.043-11.042 6.085 0 11.042 4.957 11.042 11.042s-4.957 11.042-11.042 11.042h-8.268v48.497Zm0-51.271h8.268c4.55 0 8.267-3.7 8.267-8.268a8.264 8.264 0 0 0-8.267-8.268 8.265 8.265 0 0 0-8.268 8.268v8.268Zm-31.037-16.536c-4.55 0-8.268 3.699-8.268 8.268a8.265 8.265 0 0 0 8.268 8.268h8.268v-8.268c0-4.55-3.699-8.268-8.268-8.268Z"/><path fill="#222" d="M175.863 264.551h-39.841c-4.532 0-8.231-3.699-8.231-8.23 0-4.532 3.699-8.231 8.231-8.231h39.841c4.55 0 8.231 3.699 8.231 8.231 0 4.531-3.7 8.23-8.231 8.23Zm-39.841-13.687a5.455 5.455 0 0 0-5.457 5.457 5.455 5.455 0 0 0 5.457 5.456h39.841a5.454 5.454 0 0 0 5.456-5.456 5.455 5.455 0 0 0-5.456-5.457h-39.841Z"/><path fill="#222" d="M175.863 278.258h-39.841c-4.532 0-8.231-3.7-8.231-8.231 0-4.532 3.699-8.231 8.231-8.231h39.841c4.55 0 8.231 3.699 8.231 8.231 0 4.531-3.7 8.231-8.231 8.231Zm-39.841-13.688a5.455 5.455 0 0 0-5.457 5.457 5.455 5.455 0 0 0 5.457 5.456h39.841a5.454 5.454 0 0 0 5.456-5.456 5.455 5.455 0 0 0-5.456-5.457h-39.841Z"/><path fill="#222" d="M175.863 291.945h-39.841c-4.532 0-8.231-3.7-8.231-8.231 0-4.532 3.699-8.231 8.231-8.231h39.841c4.55 0 8.231 3.699 8.231 8.231 0 4.531-3.7 8.231-8.231 8.231Zm-39.841-13.688a5.455 5.455 0 0 0-5.457 5.457 5.455 5.455 0 0 0 5.457 5.456h39.841a5.454 5.454 0 0 0 5.456-5.456 5.455 5.455 0 0 0-5.456-5.457h-39.841Z"/></svg>