<svg xmlns="http://www.w3.org/2000/svg" width="400" height="401" fill="none" viewBox="0 0 400 401"><path fill="#444" d="M187.635 118.07c-40.33 0-73.03 32.695-73.03 73.03 0 25.8 13.415 48.425 33.61 61.415v26.735c0 4.905 3.975 8.885 8.88 8.885h6.385a8.555 8.555 0 0 0-8.555 8.555 8.555 8.555 0 0 0 8.555 8.555 8.555 8.555 0 0 0-8.555 8.555 8.555 8.555 0 0 0 8.555 8.555 8.555 8.555 0 0 0-8.555 8.555 8.555 8.555 0 0 0 8.555 8.555h6.81c.785 10.185 9.28 18.205 19.665 18.205s18.88-8.025 19.665-18.205h3.635a8.555 8.555 0 0 0 8.555-8.555 8.555 8.555 0 0 0-8.555-8.555 8.555 8.555 0 0 0 8.555-8.555 8.555 8.555 0 0 0-8.555-8.555 8.555 8.555 0 0 0 8.555-8.555 8.555 8.555 0 0 0-8.555-8.555h4.92a8.884 8.884 0 0 0 8.885-8.885v-26.735c20.195-12.99 33.61-35.615 33.61-61.415 0-40.335-32.695-73.03-73.03-73.03h-.005Z"/><path fill="#444" d="M198.11 357.67c10.9 0 19.74-8.835 19.74-19.74h-39.48c0 10.905 8.835 19.74 19.74 19.74Z"/><path fill="#222" d="M198.11 359.07c-11.655 0-21.14-9.485-21.14-21.14 0-.77.625-1.4 1.4-1.4h39.48c.77 0 1.4.625 1.4 1.4 0 11.655-9.485 21.14-21.14 21.14Zm-18.29-19.74c.715 9.465 8.645 16.945 18.29 16.945s17.575-7.48 18.29-16.945h-36.58Z"/><path fill="#fff" d="M223.1 288.129h-49.77a8.555 8.555 0 0 0-8.555 8.555 8.555 8.555 0 0 0 8.555 8.555h49.77a8.555 8.555 0 0 0 8.555-8.555 8.555 8.555 0 0 0-8.555-8.555Z"/><path fill="#222" d="M223.1 306.639h-49.77c-5.49 0-9.955-4.465-9.955-9.955s4.465-9.955 9.955-9.955h49.77c5.49 0 9.955 4.465 9.955 9.955s-4.465 9.955-9.955 9.955Zm-49.77-17.11c-3.945 0-7.155 3.21-7.155 7.155 0 3.945 3.21 7.155 7.155 7.155h49.77c3.945 0 7.155-3.21 7.155-7.155 0-3.945-3.21-7.155-7.155-7.155h-49.77Z"/><path fill="#fff" d="M223.1 305.24h-49.77a8.555 8.555 0 0 0-8.555 8.555 8.555 8.555 0 0 0 8.555 8.555h49.77a8.555 8.555 0 0 0 8.555-8.555 8.555 8.555 0 0 0-8.555-8.555Z"/><path fill="#222" d="M223.1 323.75h-49.77c-5.49 0-9.955-4.465-9.955-9.955s4.465-9.955 9.955-9.955h49.77c5.49 0 9.955 4.465 9.955 9.955s-4.465 9.955-9.955 9.955Zm-49.77-17.11c-3.945 0-7.155 3.21-7.155 7.155 0 3.945 3.21 7.155 7.155 7.155h49.77c3.945 0 7.155-3.21 7.155-7.155 0-3.945-3.21-7.155-7.155-7.155h-49.77Z"/><path fill="#fff" d="M223.1 322.35h-49.77a8.555 8.555 0 0 0 0 17.11h49.77a8.555 8.555 0 0 0 0-17.11Z"/><path fill="#222" d="M223.1 340.86h-49.77c-5.49 0-9.955-4.465-9.955-9.955s4.465-9.955 9.955-9.955h49.77c5.49 0 9.955 4.465 9.955 9.955s-4.465 9.955-9.955 9.955Zm-49.77-17.11c-3.945 0-7.155 3.21-7.155 7.155 0 3.945 3.21 7.155 7.155 7.155h49.77c3.945 0 7.155-3.21 7.155-7.155 0-3.945-3.21-7.155-7.155-7.155h-49.77Z"/><path fill="#F5F4F3" d="M229.325 288.02h-49.77a8.555 8.555 0 0 0 0 17.11h49.77a8.555 8.555 0 0 0 0-17.11ZM229.325 305.135h-49.77A8.555 8.555 0 0 0 171 313.69a8.555 8.555 0 0 0 8.555 8.555h49.77a8.555 8.555 0 0 0 8.555-8.555 8.555 8.555 0 0 0-8.555-8.555ZM229.325 322.245h-49.77A8.555 8.555 0 0 0 171 330.8a8.555 8.555 0 0 0 8.555 8.555h49.77a8.555 8.555 0 0 0 8.555-8.555 8.555 8.555 0 0 0-8.555-8.555Z"/><path fill="#fff" d="M270.515 191.1c0-40.335-32.695-73.03-73.03-73.03s-73.03 32.695-73.03 73.03c0 25.8 13.415 48.425 33.61 61.415v26.735a8.88 8.88 0 0 0 8.88 8.88h61.075a8.88 8.88 0 0 0 8.88-8.88v-26.735c20.195-12.99 33.61-35.615 33.61-61.415h.005Z"/><path fill="#222" d="M228.02 289.525h-61.075c-5.67 0-10.28-4.61-10.28-10.28V253.27c-21.06-13.845-33.61-37.03-33.61-62.17 0-41.04 33.39-74.425 74.43-74.425 41.04 0 74.43 33.39 74.43 74.425 0 25.145-12.55 48.325-33.61 62.17v25.975c0 5.67-4.61 10.28-10.28 10.28h-.005Zm-30.54-170.06c-39.495 0-71.63 32.135-71.63 71.63 0 24.44 12.325 46.96 32.97 60.235l.64.415v27.495c0 4.125 3.355 7.485 7.485 7.485h61.075c4.125 0 7.485-3.355 7.485-7.485v-27.495l.64-.415c20.645-13.275 32.965-35.795 32.965-60.235 0-39.495-32.135-71.63-71.63-71.63Z"/><path fill="#FF3158" d="M198.22 142.15c0 3.555 2.67 6.425 6.185 6.97 16.83 2.595 30.23 15.605 33.395 32.24.84 4.42 4.755 7.585 9.255 7.585 3.655 0 6.6-3.17 6.155-6.8-2.98-24.35-21.755-43.82-45.77-47.845-4.82-.805-9.22 2.925-9.22 7.81v.04Z"/><path fill="#222" d="M247.055 190.34c-5.195 0-9.665-3.665-10.625-8.72-3.07-16.115-16.025-28.62-32.235-31.12-4.27-.66-7.37-4.17-7.37-8.35v-.04a9.312 9.312 0 0 1 3.3-7.11 9.28 9.28 0 0 1 7.55-2.08c12.105 2.03 23.015 7.805 31.55 16.71 8.565 8.93 13.88 20.115 15.375 32.34a7.39 7.39 0 0 1-1.82 5.785 7.664 7.664 0 0 1-5.725 2.585Zm-40.92-54.75c-1.53 0-3.02.54-4.205 1.545a6.503 6.503 0 0 0-2.31 4.975v.04c0 2.79 2.105 5.14 5 5.585 17.38 2.675 31.27 16.085 34.56 33.36.71 3.735 4.025 6.445 7.88 6.445 1.385 0 2.71-.6 3.63-1.64.895-1.01 1.295-2.285 1.135-3.59-2.88-23.54-21.225-42.715-44.61-46.635-.36-.06-.72-.09-1.075-.09l-.005.005ZM198.11 101.195a4.662 4.662 0 0 1-4.665-4.66v-51.02c0-2.575 2.09-4.66 4.665-4.66a4.663 4.663 0 0 1 4.665 4.66v51.02c0 2.576-2.09 4.66-4.665 4.66ZM344.64 171.87h-47.995a4.66 4.66 0 1 1 0-9.32h47.995a4.66 4.66 0 1 1 0 9.32ZM99.885 171.87h-47.99a4.663 4.663 0 0 1-4.665-4.66c0-2.575 2.09-4.66 4.665-4.66H99.89a4.66 4.66 0 1 1 0 9.32h-.005ZM264.495 125.399a4.641 4.641 0 0 1-3.295-1.365 4.665 4.665 0 0 1 0-6.595l36.26-36.26a4.665 4.665 0 0 1 6.595 0 4.665 4.665 0 0 1 0 6.596l-36.26 36.259a4.65 4.65 0 0 1-3.295 1.365h-.005ZM132.735 124.315a4.641 4.641 0 0 1-3.295-1.365L93.18 86.69a4.665 4.665 0 0 1 0-6.594 4.665 4.665 0 0 1 6.595 0l36.26 36.259a4.665 4.665 0 0 1 0 6.595 4.65 4.65 0 0 1-3.295 1.365h-.005ZM212.115 288.13h-2.8v-60.935h-22.2v60.935h-2.8v-60.935h-10.66c-7.42 0-13.46-6.035-13.46-13.455s6.035-13.455 13.46-13.455c7.425 0 13.455 6.035 13.455 13.455v10.66h22.2v-10.66c0-7.42 6.035-13.455 13.455-13.455s13.46 6.035 13.46 13.455-6.035 13.455-13.46 13.455h-10.66v60.935h.01Zm0-63.735h10.66c5.88 0 10.66-4.78 10.66-10.66s-4.78-10.66-10.66-10.66-10.66 4.78-10.66 10.66v10.66Zm-38.455-21.32c-5.88 0-10.66 4.78-10.66 10.66s4.78 10.66 10.66 10.66h10.66v-10.66c0-5.88-4.78-10.66-10.66-10.66Z"/><path fill="#222" d="M223.1 306.64h-49.77c-5.49 0-9.955-4.465-9.955-9.955s4.465-9.955 9.955-9.955h49.77c5.49 0 9.955 4.465 9.955 9.955s-4.465 9.955-9.955 9.955Zm-49.77-17.11c-3.945 0-7.155 3.21-7.155 7.155 0 3.945 3.21 7.155 7.155 7.155h49.77c3.945 0 7.155-3.21 7.155-7.155 0-3.945-3.21-7.155-7.155-7.155h-49.77Z"/><path fill="#222" d="M223.1 323.75h-49.77c-5.49 0-9.955-4.465-9.955-9.955s4.465-9.955 9.955-9.955h49.77c5.49 0 9.955 4.465 9.955 9.955s-4.465 9.955-9.955 9.955Zm-49.77-17.11c-3.945 0-7.155 3.21-7.155 7.155 0 3.945 3.21 7.155 7.155 7.155h49.77c3.945 0 7.155-3.21 7.155-7.155 0-3.945-3.21-7.155-7.155-7.155h-49.77Z"/><path fill="#222" d="M223.1 340.86h-49.77c-5.49 0-9.955-4.465-9.955-9.955s4.465-9.955 9.955-9.955h49.77c5.49 0 9.955 4.465 9.955 9.955s-4.465 9.955-9.955 9.955Zm-49.77-17.11c-3.945 0-7.155 3.21-7.155 7.155 0 3.945 3.21 7.155 7.155 7.155h49.77c3.945 0 7.155-3.21 7.155-7.155 0-3.945-3.21-7.155-7.155-7.155h-49.77Z"/></svg>