<svg xmlns="http://www.w3.org/2000/svg" width="400" height="400" fill="none" viewBox="0 0 400 400"><path fill="#444" d="M92.28 99.307v175.497c-2.404-.74-4.993-1.11-7.582-1.11-15.72 0-28.48 12.76-28.48 28.479s12.76 28.479 28.48 28.479h264.817V99.307H92.28Z"/><path fill="#222" d="M349.515 332.132H84.698c-16.459 0-29.959-13.5-29.959-29.959s13.5-29.958 29.959-29.958c2.034 0 4.253.185 6.287.739V99.307c0-.74.555-1.295 1.295-1.295h257.235c.74 0 1.295.555 1.295 1.295v231.345c0 .74-.555 1.48-1.295 1.48ZM84.698 274.989c-14.98 0-27.185 12.205-27.185 27.184 0 14.979 12.205 27.185 27.185 27.185H348.22V100.786H93.574v174.018c0 .37-.185.924-.555 1.109-.37.185-.74.37-1.294.185-2.22-.74-4.623-1.109-7.027-1.109Z"/><path fill="#DADADA" d="M84.883 76.19v217.107H48.637V103.56c0-15.719 12.76-28.479 28.479-28.479 2.774 0 5.363.37 7.767 1.11Z"/><path fill="#222" d="M84.882 294.591H48.636c-.74 0-1.294-.555-1.294-1.295V103.56c0-16.459 13.5-29.958 29.958-29.958 2.774 0 5.548.37 7.952 1.11.555.184.925.739.925 1.294V293.11c0 .925-.555 1.48-1.295 1.48Zm-34.766-2.774h33.472V77.3c-2.034-.555-4.069-.74-6.288-.74-14.979 0-27.184 12.206-27.184 27.185v188.072Z"/><path fill="#F5F4F3" d="M84.881 90.43v175.497c-2.404-.74-4.993-1.11-7.582-1.11-15.719 0-28.479 12.76-28.479 28.479s12.575 28.479 28.294 28.479h265.003V90.43H84.881Z"/><path fill="#222" d="M342.117 323.255H77.115c-16.459 0-29.959-13.5-29.959-29.959 0-16.458 13.5-29.958 29.959-29.958 2.034 0 4.253.185 6.287.739V90.43c0-.74.555-1.295 1.295-1.295h257.42c.74 0 1.294.555 1.294 1.295v231.345c0 .74-.554 1.48-1.294 1.48ZM77.115 266.112c-14.98 0-27.185 12.205-27.185 27.184 0 14.979 12.205 27.185 27.185 27.185h263.523V91.724H86.176v174.018c0 .37-.185.924-.555 1.109-.37.185-.74.37-1.294.185-2.22-.554-4.808-.924-7.212-.924Z"/><path fill="#FF3158" d="m329.121 163.232-93.104 87.52 21.911 23.31 93.105-87.52-21.912-23.31Z"/><path fill="#222" d="M257.975 275.543c-.369 0-.739-.185-.924-.37l-21.822-23.301a1.413 1.413 0 0 1-.37-.924c0-.37.185-.74.37-.925l93.019-87.471a1.45 1.45 0 0 1 2.034 0l21.822 23.301c.185.185.37.555.37.924 0 .37-.185.74-.37.925L258.9 275.173c-.37.185-.74.37-.925.37Zm-19.972-24.595 19.972 21.266 91.17-85.621-19.972-21.267-91.17 85.622Z"/><path fill="#fff" d="m338.541 154.514-9.431 8.869 21.918 23.306 9.431-8.868-21.918-23.307Z"/><path fill="#222" d="M350.994 187.887c-.37 0-.74-.185-.925-.37l-21.821-23.301a1.413 1.413 0 0 1-.37-.924c0-.37.185-.74.37-.925l9.431-8.877a1.452 1.452 0 0 1 2.034 0l21.822 23.301c.185.185.37.555.37.925s-.185.74-.37.925l-9.431 8.876c-.37.37-.74.37-1.11.37Zm-19.972-24.595 19.972 21.266 7.397-7.027-19.972-21.082-7.397 6.843Z"/><path fill="#FF3158" d="M377.254 161.812c2.589-2.404 2.773-6.472.184-9.061l-12.945-13.87c-2.404-2.589-6.472-2.774-9.061-.37l-16.828 15.904 21.821 23.301 16.829-15.904Z"/><path fill="#222" d="M360.425 179.011a1.41 1.41 0 0 1-.924-.37l-22.007-23.301a1.45 1.45 0 0 1 0-2.034l16.829-15.904c1.479-1.48 3.513-2.219 5.548-2.219 2.034 0 4.068.924 5.547 2.404l12.945 13.869c1.48 1.48 2.22 3.514 2.22 5.548 0 2.034-.925 4.069-2.405 5.548l-.184.185-16.829 15.719c-.185.555-.37.555-.74.555ZM340.453 154.6l19.972 21.082 15.904-14.979.185-.185c.925-.925 1.48-2.219 1.48-3.514 0-1.294-.37-2.589-1.48-3.698l-12.945-13.87c-.925-.925-2.219-1.479-3.514-1.664-1.294 0-2.589.369-3.698 1.479L340.453 154.6Z"/><path fill="#fff" d="m235.969 250.763-21.637 42.533 43.458-19.232-21.821-23.301Z"/><path fill="#222" d="M214.332 294.591c-.37 0-.74-.185-.925-.37-.37-.37-.555-1.11-.185-1.664l21.822-42.349c.185-.37.554-.74 1.109-.74.37 0 .925.185 1.11.37l21.821 23.301c.37.37.37.74.37 1.295 0 .369-.37.739-.74.924l-43.643 19.048c-.369.185-.554.185-.739.185Zm22.006-41.424-19.047 37.17 38.28-16.828-19.233-20.342Z"/><path fill="#222" d="m225.058 272.03-10.726 21.267 21.822-9.617-11.096-11.65Z"/><path fill="#222" d="M214.332 294.591c-.37 0-.74-.185-.925-.37-.37-.37-.555-1.109-.185-1.664l10.911-21.267c.185-.37.555-.74 1.109-.74.37 0 .925.185 1.11.37l10.911 11.651c.37.369.37.739.37 1.294 0 .37-.37.74-.74.925l-21.822 9.616c-.369.185-.554.185-.739.185Zm11.095-20.157-8.136 15.904 16.458-7.213-8.322-8.691Z"/><path fill="#444" d="M166.805 47.526c-32.547 0-58.807 26.26-58.807 58.808 0 20.712 10.726 39.019 27 49.375v21.637c0 3.884 3.143 7.212 7.212 7.212h5.178c-3.884 0-6.843 3.144-6.843 6.843 0 3.698 3.144 6.842 6.843 6.842-3.884 0-6.843 3.144-6.843 6.842 0 3.699 3.144 6.843 6.843 6.843-3.884 0-6.843 3.143-6.843 6.842s3.144 6.842 6.843 6.842h5.548c.554 8.137 7.397 14.61 15.903 14.61 8.507 0 15.165-6.473 15.904-14.61h2.959c3.884 0 6.843-3.143 6.843-6.842s-3.144-6.842-6.843-6.842c3.884 0 6.843-3.144 6.843-6.843 0-3.698-3.144-6.842-6.843-6.842 3.884 0 6.843-3.144 6.843-6.842 0-3.699-3.144-6.843-6.843-6.843h3.884c3.883 0 7.212-3.144 7.212-7.212v-21.637c16.274-10.54 26.999-28.663 26.999-49.56 0-32.363-26.444-58.623-58.992-58.623Z"/><path fill="#444" d="M175.312 240.407c8.877 0 15.904-7.028 15.904-15.904h-31.808c0 8.876 7.027 15.904 15.904 15.904Z"/><path fill="#222" d="M175.312 241.886c-9.617 0-17.199-7.767-17.199-17.198 0-.74.555-1.48 1.48-1.48H191.4c.74 0 1.48.555 1.48 1.48-.37 9.431-7.952 17.198-17.568 17.198Zm-14.425-15.904c.74 7.398 6.843 13.13 14.425 13.13 7.582 0 13.684-5.732 14.424-13.13h-28.849Z"/><path fill="#fff" d="M155.339 184.559h40.13c3.883 0 6.842 3.143 6.842 6.842 0 3.883-3.144 6.842-6.842 6.842h-40.13c-3.883 0-6.842-3.143-6.842-6.842 0-3.884 2.959-6.842 6.842-6.842Z"/><path fill="#222" d="M195.469 199.723h-40.13a8.287 8.287 0 0 1-8.321-8.322 8.287 8.287 0 0 1 8.321-8.322h40.13a8.288 8.288 0 0 1 8.322 8.322 8.288 8.288 0 0 1-8.322 8.322Zm-40.13-13.87c-2.958 0-5.547 2.404-5.547 5.548s2.404 5.548 5.547 5.548h40.13c2.959 0 5.548-2.404 5.548-5.548s-2.404-5.548-5.548-5.548h-40.13Z"/><path fill="#fff" d="M155.339 198.243h40.13c3.883 0 6.842 3.144 6.842 6.843 0 3.883-3.144 6.842-6.842 6.842h-40.13c-3.883 0-6.842-3.144-6.842-6.842 0-3.699 2.959-6.843 6.842-6.843Z"/><path fill="#222" d="M195.469 213.407h-40.13a8.286 8.286 0 0 1-8.321-8.322 8.286 8.286 0 0 1 8.321-8.321h40.13a8.287 8.287 0 0 1 8.322 8.321 8.287 8.287 0 0 1-8.322 8.322Zm-40.13-13.684c-2.958 0-5.547 2.404-5.547 5.547 0 3.144 2.404 5.548 5.547 5.548h40.13c2.959 0 5.548-2.404 5.548-5.548 0-3.143-2.404-5.547-5.548-5.547h-40.13Z"/><path fill="#fff" d="M155.339 212.113h40.13c3.883 0 6.842 3.144 6.842 6.842 0 3.884-3.144 6.842-6.842 6.842h-40.13c-3.883 0-6.842-3.143-6.842-6.842 0-3.883 2.959-6.842 6.842-6.842Z"/><path fill="#222" d="M195.469 227.277h-40.13a8.287 8.287 0 0 1-8.321-8.322 8.287 8.287 0 0 1 8.321-8.322h40.13a8.288 8.288 0 0 1 8.322 8.322 8.288 8.288 0 0 1-8.322 8.322Zm-40.13-13.87c-2.958 0-5.547 2.404-5.547 5.548s2.404 5.548 5.547 5.548h40.13c2.959 0 5.548-2.404 5.548-5.548s-2.404-5.548-5.548-5.548h-40.13Z"/><path fill="#F5F4F3" d="M160.333 184.374h40.129c3.884 0 6.842 3.143 6.842 6.842 0 3.883-3.143 6.842-6.842 6.842h-40.129c-3.884 0-6.843-3.144-6.843-6.842 0-3.699 3.144-6.842 6.843-6.842ZM160.333 198.243h40.129c3.884 0 6.842 3.144 6.842 6.843 0 3.883-3.143 6.842-6.842 6.842h-40.129c-3.884 0-6.843-3.144-6.843-6.842 0-3.884 3.144-6.843 6.843-6.843ZM160.333 211.928h40.129c3.884 0 6.842 3.144 6.842 6.842 0 3.884-3.143 6.842-6.842 6.842h-40.129c-3.884 0-6.843-3.143-6.843-6.842 0-3.698 3.144-6.842 6.843-6.842Z"/><path fill="#fff" d="M233.565 106.334c0-32.547-26.26-58.807-58.808-58.807-32.547 0-58.807 26.26-58.807 58.807 0 20.712 10.726 39.02 27 49.376v21.637c0 3.883 3.144 7.212 7.212 7.212h49.191c3.883 0 7.212-3.144 7.212-7.212V155.71c16.274-10.356 27-28.664 27-49.376Z"/><path fill="#222" d="M199.352 185.853h-49.19c-4.624 0-8.507-3.883-8.507-8.507V156.45c-17.014-11.096-27-29.774-27-50.116 0-33.287 27-60.287 60.287-60.287s60.287 27 60.287 60.287c0 20.342-10.172 39.02-27 50.3v20.712c-.185 4.624-4.068 8.507-8.877 8.507ZM174.757 48.821c-31.623 0-57.513 25.705-57.513 57.513 0 19.602 9.801 37.725 26.445 48.266l.555.37v22.376c0 3.144 2.589 5.733 5.733 5.733h49.191c3.143 0 5.732-2.589 5.732-5.733V154.97l.555-.37c16.644-10.726 26.445-28.664 26.445-48.266.37-31.623-25.335-57.513-57.143-57.513Z"/><path fill="#FF3158" d="M175.312 66.944c0 2.774 2.22 5.178 4.994 5.548 13.499 2.034 24.41 12.575 26.999 25.89.74 3.514 3.884 6.103 7.397 6.103 2.959 0 5.363-2.589 4.993-5.548-2.404-19.603-17.568-35.322-36.8-38.465-3.884-.555-7.583 2.404-7.583 6.472Z"/><path fill="#222" d="M214.702 105.964c-4.254 0-7.952-2.959-8.877-7.212-2.404-12.945-12.76-22.931-25.705-24.78-3.513-.555-6.102-3.33-6.102-6.658v-.185c0-2.404.924-4.438 2.774-5.918 1.664-1.48 4.068-2.034 6.287-1.664 19.972 3.329 35.506 19.602 38.095 39.76.185 1.664-.37 3.513-1.479 4.808-1.295 1.109-3.144 1.849-4.993 1.849Zm-37.91-39.39v.185c0 2.034 1.664 3.884 3.883 4.254 14.055 2.219 25.335 13.13 28.109 27 .555 2.958 3.144 4.992 6.103 4.992 1.109 0 2.034-.37 2.774-1.294.739-.74.924-1.665.924-2.59-2.219-18.862-17.013-34.211-35.691-37.355-1.479-.185-2.959.185-4.068 1.11-1.295 1.11-2.034 2.404-2.034 3.698ZM186.777 184.558h-2.774v-49.006H166.62v48.821h-2.774v-48.821h-8.322c-6.102 0-11.095-4.993-11.095-11.095 0-6.103 4.993-11.096 11.095-11.096 6.103 0 11.096 4.993 11.096 11.096v8.321h17.383v-8.321c0-6.103 4.993-11.096 11.096-11.096s11.096 4.993 11.096 11.096c0 6.102-4.993 11.095-11.096 11.095h-8.322v49.006Zm0-51.78h8.322a8.287 8.287 0 0 0 8.322-8.321 8.287 8.287 0 0 0-8.322-8.322 8.287 8.287 0 0 0-8.322 8.322v8.321Zm-31.253-16.643a8.286 8.286 0 0 0-8.321 8.322 8.286 8.286 0 0 0 8.321 8.321h8.322v-8.321c0-4.439-3.698-8.322-8.322-8.322Z"/><path fill="#222" d="M195.469 199.723h-40.13a8.287 8.287 0 0 1-8.321-8.322 8.287 8.287 0 0 1 8.321-8.322h40.13a8.288 8.288 0 0 1 8.322 8.322 8.288 8.288 0 0 1-8.322 8.322Zm-40.13-13.87c-2.958 0-5.547 2.404-5.547 5.548s2.404 5.548 5.547 5.548h40.13c2.959 0 5.548-2.404 5.548-5.548s-2.404-5.548-5.548-5.548h-40.13Z"/><path fill="#222" d="M195.469 213.407h-40.13a8.286 8.286 0 0 1-8.321-8.322 8.286 8.286 0 0 1 8.321-8.321h40.13a8.287 8.287 0 0 1 8.322 8.321 8.287 8.287 0 0 1-8.322 8.322Zm-40.13-13.684c-2.958 0-5.547 2.404-5.547 5.547 0 3.144 2.404 5.548 5.547 5.548h40.13c2.959 0 5.548-2.404 5.548-5.548 0-3.143-2.404-5.547-5.548-5.547h-40.13Z"/><path fill="#222" d="M195.469 227.277h-40.13a8.287 8.287 0 0 1-8.321-8.322 8.287 8.287 0 0 1 8.321-8.322h40.13a8.288 8.288 0 0 1 8.322 8.322 8.288 8.288 0 0 1-8.322 8.322Zm-40.13-13.87c-2.958 0-5.547 2.404-5.547 5.548s2.404 5.548 5.547 5.548h40.13c2.959 0 5.548-2.404 5.548-5.548s-2.404-5.548-5.548-5.548h-40.13Z"/></svg>