<svg xmlns="http://www.w3.org/2000/svg" width="401" height="401" fill="none" viewBox="0 0 401 401"><path fill="#444" d="M92.774 100.057v175.497c-2.404-.74-4.993-1.109-7.582-1.109-15.719 0-28.479 12.76-28.479 28.479 0 15.718 12.76 28.478 28.48 28.478H350.01V100.057H92.774Z"/><path fill="#222" d="M350.01 332.882H85.192c-16.458 0-29.958-13.5-29.958-29.958 0-16.459 13.5-29.959 29.958-29.959 2.034 0 4.254.185 6.288.74V100.057c0-.74.554-1.294 1.294-1.294H350.01c.739 0 1.294.554 1.294 1.294v231.346c0 .739-.555 1.479-1.294 1.479ZM85.192 275.739c-14.979 0-27.184 12.205-27.184 27.185 0 14.979 12.205 27.184 27.184 27.184h263.523V101.537H94.069v174.017c0 .37-.185.925-.555 1.11-.37.185-.74.37-1.295.185-2.219-.74-4.623-1.11-7.027-1.11Z"/><path fill="#DADADA" d="M85.377 76.941v217.106H49.131V104.311c0-15.72 12.76-28.48 28.48-28.48 2.773 0 5.362.37 7.766 1.11Z"/><path fill="#222" d="M85.377 295.341H49.131c-.74 0-1.294-.554-1.294-1.294V104.31c0-16.458 13.5-29.958 29.958-29.958 2.774 0 5.548.37 7.952 1.11.555.185.925.74.925 1.294v217.106c0 .925-.555 1.479-1.295 1.479Zm-34.766-2.774h33.472V78.051c-2.035-.555-4.069-.74-6.288-.74-14.98 0-27.184 12.205-27.184 27.184v188.072Z"/><path fill="#F5F4F3" d="M85.377 91.18v175.497c-2.404-.74-4.993-1.109-7.582-1.109-15.719 0-28.479 12.76-28.479 28.479 0 15.718 12.575 28.479 28.294 28.479h265.002V91.18H85.377Z"/><path fill="#222" d="M342.612 324.005H77.61c-16.459 0-29.958-13.5-29.958-29.958 0-16.459 13.5-29.959 29.958-29.959 2.034 0 4.254.185 6.288.74V91.18c0-.74.555-1.294 1.294-1.294h257.42c.74 0 1.295.555 1.295 1.294v231.346c0 .739-.555 1.479-1.295 1.479ZM77.61 266.862c-14.98 0-27.184 12.205-27.184 27.185 0 14.979 12.205 27.184 27.184 27.184h263.523V92.475H86.672v174.017c0 .37-.185.925-.555 1.11-.37.185-.74.37-1.295.185-2.219-.555-4.808-.925-7.212-.925Z"/><path fill="#FF3158" d="m329.615 163.983-93.104 87.52 21.912 23.31 93.104-87.521-21.912-23.309Z"/><path fill="#222" d="M258.47 276.294c-.37 0-.74-.185-.925-.37l-21.821-23.301a1.413 1.413 0 0 1-.37-.925c0-.37.185-.74.37-.925l93.019-87.471a1.452 1.452 0 0 1 2.034 0l21.822 23.301c.184.185.369.555.369.925s-.185.74-.369.925l-93.204 87.471c-.37.185-.74.37-.925.37Zm-19.972-24.596 19.972 21.267 91.17-85.622-19.973-21.267-91.169 85.622Z"/><path fill="#fff" d="m339.036 155.265-9.431 8.868 21.919 23.307 9.43-8.869-21.918-23.306Z"/><path fill="#222" d="M351.489 188.637c-.37 0-.74-.184-.925-.369l-21.821-23.301a1.413 1.413 0 0 1-.37-.925c0-.37.185-.74.37-.925l9.431-8.876a1.45 1.45 0 0 1 2.034 0l21.822 23.301c.185.185.37.555.37.924 0 .37-.185.74-.37.925l-9.431 8.877c-.37.369-.74.369-1.11.369Zm-19.972-24.595 19.972 21.267 7.397-7.028-19.972-21.081-7.397 6.842Z"/><path fill="#FF3158" d="M377.749 162.563c2.589-2.404 2.774-6.473.185-9.062l-12.945-13.87c-2.404-2.589-6.473-2.773-9.062-.369l-16.828 15.903 21.821 23.301 16.829-15.903Z"/><path fill="#222" d="M360.92 179.761a1.41 1.41 0 0 1-.924-.37l-22.007-23.301a1.45 1.45 0 0 1 0-2.034l16.829-15.904c1.479-1.479 3.513-2.219 5.548-2.219 2.034 0 4.068.925 5.547 2.404l12.945 13.87c1.48 1.479 2.22 3.513 2.22 5.548 0 2.034-.925 4.068-2.405 5.548l-.184.184-16.829 15.719c-.185.555-.37.555-.74.555Zm-19.972-24.41 19.972 21.081 15.904-14.979.185-.185c.925-.924 1.48-2.219 1.48-3.513 0-1.295-.37-2.589-1.48-3.699l-12.945-13.87c-.925-.924-2.219-1.479-3.514-1.664-1.294 0-2.589.37-3.698 1.48l-15.904 15.349Z"/><path fill="#fff" d="m236.464 251.513-21.637 42.534 43.458-19.233-21.821-23.301Z"/><path fill="#222" d="M214.827 295.341c-.37 0-.74-.185-.925-.37-.37-.369-.555-1.109-.185-1.664l21.822-42.349c.185-.369.555-.739 1.109-.739.37 0 .925.185 1.11.37l21.822 23.301c.369.369.369.739.369 1.294 0 .37-.369.74-.739.925l-43.643 19.047c-.37.185-.555.185-.74.185Zm22.006-41.424-19.047 37.171 38.28-16.829-19.233-20.342Z"/><path fill="#222" d="m225.553 272.78-10.726 21.267 21.821-9.616-11.095-11.651Z"/><path fill="#222" d="M214.827 295.341c-.37 0-.74-.184-.925-.369-.37-.37-.555-1.11-.185-1.665l10.911-21.267c.185-.369.555-.739 1.11-.739.37 0 .924.185 1.109.37l10.911 11.65c.37.37.37.74.37 1.295 0 .369-.37.739-.74.924l-21.821 9.617c-.37.184-.555.184-.74.184Zm11.096-20.157-8.137 15.904 16.458-7.212-8.321-8.692Z"/><path fill="#444" d="M167.3 48.277c-32.547 0-58.807 26.26-58.807 58.807 0 20.712 10.726 39.02 27 49.376v21.637c0 3.883 3.143 7.212 7.212 7.212h5.178c-3.884 0-6.842 3.144-6.842 6.842 0 3.699 3.143 6.842 6.842 6.842-3.884 0-6.842 3.144-6.842 6.843 0 3.698 3.143 6.842 6.842 6.842-3.884 0-6.842 3.144-6.842 6.843 0 3.698 3.143 6.842 6.842 6.842h5.548c.555 8.137 7.397 14.609 15.904 14.609 8.506 0 15.164-6.472 15.903-14.609h2.959c3.884 0 6.843-3.144 6.843-6.842 0-3.699-3.144-6.843-6.843-6.843 3.884 0 6.843-3.144 6.843-6.842 0-3.699-3.144-6.843-6.843-6.843 3.884 0 6.843-3.143 6.843-6.842 0-3.698-3.144-6.842-6.843-6.842h3.884c3.883 0 7.212-3.144 7.212-7.212V156.46c16.274-10.541 27-28.664 27-49.561 0-32.362-26.445-58.622-58.993-58.622Z"/><path fill="#444" d="M175.807 241.157c8.877 0 15.904-7.027 15.904-15.904h-31.808c0 8.877 7.027 15.904 15.904 15.904Z"/><path fill="#222" d="M175.807 242.637c-9.616 0-17.198-7.767-17.198-17.199 0-.739.554-1.479 1.479-1.479h31.808c.74 0 1.479.555 1.479 1.479-.37 9.432-7.952 17.199-17.568 17.199Zm-14.424-15.904c.739 7.397 6.842 13.13 14.424 13.13s13.685-5.733 14.424-13.13h-28.848Z"/><path fill="#fff" d="M155.835 185.309h40.129c3.884 0 6.843 3.144 6.843 6.842 0 3.884-3.144 6.843-6.843 6.843h-40.129c-3.884 0-6.843-3.144-6.843-6.843 0-3.883 2.959-6.842 6.843-6.842Z"/><path fill="#222" d="M195.964 200.473h-40.129a8.287 8.287 0 0 1-8.322-8.322 8.287 8.287 0 0 1 8.322-8.321h40.129a8.287 8.287 0 0 1 8.322 8.321 8.287 8.287 0 0 1-8.322 8.322Zm-40.129-13.869c-2.959 0-5.548 2.404-5.548 5.547 0 3.144 2.404 5.548 5.548 5.548h40.129c2.959 0 5.548-2.404 5.548-5.548 0-3.143-2.404-5.547-5.548-5.547h-40.129Z"/><path fill="#fff" d="M155.835 198.994h40.129c3.884 0 6.843 3.143 6.843 6.842 0 3.884-3.144 6.842-6.843 6.842h-40.129c-3.884 0-6.843-3.143-6.843-6.842s2.959-6.842 6.843-6.842Z"/><path fill="#222" d="M195.964 214.158h-40.129a8.288 8.288 0 0 1-8.322-8.322 8.288 8.288 0 0 1 8.322-8.322h40.129a8.288 8.288 0 0 1 8.322 8.322 8.288 8.288 0 0 1-8.322 8.322Zm-40.129-13.685c-2.959 0-5.548 2.404-5.548 5.548s2.404 5.548 5.548 5.548h40.129c2.959 0 5.548-2.404 5.548-5.548s-2.404-5.548-5.548-5.548h-40.129Z"/><path fill="#fff" d="M155.835 212.863h40.129c3.884 0 6.843 3.144 6.843 6.843 0 3.883-3.144 6.842-6.843 6.842h-40.129c-3.884 0-6.843-3.144-6.843-6.842 0-3.884 2.959-6.843 6.843-6.843Z"/><path fill="#222" d="M195.964 228.027h-40.129a8.287 8.287 0 0 1-8.322-8.321 8.287 8.287 0 0 1 8.322-8.322h40.129a8.287 8.287 0 0 1 8.322 8.322 8.287 8.287 0 0 1-8.322 8.321Zm-40.129-13.869c-2.959 0-5.548 2.404-5.548 5.548 0 3.143 2.404 5.547 5.548 5.547h40.129c2.959 0 5.548-2.404 5.548-5.547 0-3.144-2.404-5.548-5.548-5.548h-40.129Z"/><path fill="#F5F4F3" d="M160.828 185.124h40.129c3.884 0 6.843 3.144 6.843 6.842 0 3.884-3.144 6.843-6.843 6.843h-40.129c-3.884 0-6.842-3.144-6.842-6.843 0-3.698 3.143-6.842 6.842-6.842ZM160.828 198.994h40.129c3.884 0 6.843 3.143 6.843 6.842 0 3.884-3.144 6.842-6.843 6.842h-40.129c-3.884 0-6.842-3.143-6.842-6.842 0-3.883 3.143-6.842 6.842-6.842Z"/><path fill="#F5F4F3" d="M160.828 212.678h40.129c3.884 0 6.843 3.144 6.843 6.843 0 3.883-3.144 6.842-6.843 6.842h-40.129c-3.884 0-6.842-3.144-6.842-6.842 0-3.699 3.143-6.843 6.842-6.843Z"/><path fill="#fff" d="M234.059 107.085c0-32.548-26.259-58.808-58.807-58.808-32.547 0-58.807 26.26-58.807 58.808 0 20.712 10.726 39.019 27 49.375v21.637c0 3.884 3.143 7.212 7.212 7.212h49.191c3.883 0 7.212-3.144 7.212-7.212V156.46c16.274-10.356 26.999-28.663 26.999-49.375Z"/><path fill="#222" d="M199.848 186.604h-49.191c-4.623 0-8.507-3.884-8.507-8.507V157.2c-17.013-11.096-26.999-29.773-26.999-50.116 0-33.287 26.999-60.286 60.286-60.286 33.287 0 60.287 27 60.287 60.286 0 20.343-10.171 39.02-27 50.301v20.712c-.185 4.623-4.068 8.507-8.876 8.507ZM175.252 49.572c-31.622 0-57.512 25.705-57.512 57.512 0 19.603 9.801 37.726 26.444 48.267l.555.37v22.376c0 3.144 2.589 5.733 5.733 5.733h49.191c3.144 0 5.733-2.589 5.733-5.733v-22.376l.554-.37c16.644-10.726 26.445-28.664 26.445-48.267.37-31.622-25.335-57.512-57.143-57.512Z"/><path fill="#FF3158" d="M175.807 67.695c0 2.774 2.219 5.178 4.993 5.548 13.5 2.034 24.411 12.575 27 25.89.739 3.513 3.883 6.102 7.397 6.102 2.959 0 5.363-2.589 4.993-5.548-2.404-19.602-17.568-35.321-36.801-38.465-3.883-.555-7.582 2.404-7.582 6.473Z"/><path fill="#222" d="M215.197 106.714c-4.254 0-7.952-2.958-8.877-7.212-2.404-12.945-12.76-22.93-25.705-24.78-3.513-.555-6.102-3.329-6.102-6.657v-.186c0-2.404.924-4.438 2.773-5.917 1.665-1.48 4.069-2.034 6.288-1.665 19.972 3.33 35.506 19.603 38.095 39.76.185 1.664-.37 3.514-1.479 4.808-1.295 1.11-3.144 1.849-4.993 1.849Zm-37.911-39.39v.186c0 2.034 1.665 3.883 3.884 4.253 14.055 2.22 25.335 13.13 28.109 27 .555 2.958 3.144 4.993 6.103 4.993 1.109 0 2.034-.37 2.774-1.295.739-.74.924-1.664.924-2.589-2.219-18.863-17.013-34.212-35.691-37.355-1.479-.185-2.959.184-4.068 1.11-1.295 1.109-2.035 2.403-2.035 3.698ZM187.273 185.309h-2.774v-49.006h-17.384v48.821h-2.774v-48.821h-8.321c-6.103 0-11.096-4.993-11.096-11.096s4.993-11.096 11.096-11.096c6.102 0 11.095 4.993 11.095 11.096v8.322h17.384v-8.322c0-6.103 4.993-11.096 11.095-11.096 6.103 0 11.096 4.993 11.096 11.096s-4.993 11.096-11.096 11.096h-8.321v49.006Zm0-51.78h8.321a8.287 8.287 0 0 0 8.322-8.322 8.287 8.287 0 0 0-8.322-8.322 8.287 8.287 0 0 0-8.321 8.322v8.322Zm-31.253-16.644a8.288 8.288 0 0 0-8.322 8.322 8.288 8.288 0 0 0 8.322 8.322h8.321v-8.322c0-4.438-3.698-8.322-8.321-8.322Z"/><path fill="#222" d="M195.964 200.473h-40.129a8.287 8.287 0 0 1-8.322-8.322 8.287 8.287 0 0 1 8.322-8.321h40.129a8.287 8.287 0 0 1 8.322 8.321 8.287 8.287 0 0 1-8.322 8.322Zm-40.129-13.869c-2.959 0-5.548 2.404-5.548 5.547 0 3.144 2.404 5.548 5.548 5.548h40.129c2.959 0 5.548-2.404 5.548-5.548 0-3.143-2.404-5.547-5.548-5.547h-40.129Z"/><path fill="#222" d="M195.964 214.158h-40.129a8.288 8.288 0 0 1-8.322-8.322 8.288 8.288 0 0 1 8.322-8.322h40.129a8.288 8.288 0 0 1 8.322 8.322 8.288 8.288 0 0 1-8.322 8.322Zm-40.129-13.685c-2.959 0-5.548 2.404-5.548 5.548s2.404 5.548 5.548 5.548h40.129c2.959 0 5.548-2.404 5.548-5.548s-2.404-5.548-5.548-5.548h-40.129Z"/><path fill="#222" d="M195.964 228.027h-40.129a8.287 8.287 0 0 1-8.322-8.321 8.287 8.287 0 0 1 8.322-8.322h40.129a8.287 8.287 0 0 1 8.322 8.322 8.287 8.287 0 0 1-8.322 8.321Zm-40.129-13.869c-2.959 0-5.548 2.404-5.548 5.548 0 3.143 2.404 5.547 5.548 5.547h40.129c2.959 0 5.548-2.404 5.548-5.547 0-3.144-2.404-5.548-5.548-5.548h-40.129Z"/></svg>