<svg xmlns="http://www.w3.org/2000/svg" width="401" height="401" fill="none" viewBox="0 0 401 401"><path fill="#DADADA" d="M159.846 313.99c3.07 3.08.89 8.335-3.46 8.335H81.041a3.494 3.494 0 0 1-3.03-1.75l-7.36-12.735-28.04-48.59h113.775c4.37 0 6.56 5.285 3.47 8.375l-23.16 23.16 23.15 23.21v-.005Z"/><path fill="#FF3158" d="m153.886 222.45-20.505-11.89-30.435 52.605-28.135 48.59-28.04-48.59-8.235-14.24a5.179 5.179 0 0 1 0-5.185l38.185-65.965-20.455-11.89c-3.08-1.76-2.445-6.315.93-7.195l77.12-20.55c2.055-.59 4.26.685 4.795 2.79l20.55 77.07c.93 3.425-2.74 6.215-5.775 4.455v-.005Z"/><path fill="#DADADA" d="M302.996 177.8c1.18-4.185 6.83-4.86 8.96-1.07l36.93 65.695a3.457 3.457 0 0 1-.04 3.47l-7.505 12.67-28.62 48.255-55.75-99.18c-2.14-3.81 1.39-8.305 5.6-7.125l31.54 8.84 8.89-31.55-.005-.005Z"/><path fill="#FF3158" d="m228.896 238.025-.32 23.7 60.77.755 56.145.715-28.62 48.255-8.38 14.16a5.17 5.17 0 0 1-4.52 2.54l-76.215-.965-.34 23.66c-.025 3.55-4.305 5.225-6.725 2.715l-55.705-57.16c-1.52-1.505-1.49-4.045.08-5.545l57.115-55.68c2.53-2.49 6.76-.66 6.71 2.85h.005Z"/><path fill="#DADADA" d="M111.736 125.06c-4.2 1.135-7.675-3.37-5.515-7.14l37.435-65.385a3.513 3.513 0 0 1 3.03-1.765l14.705-.055 56.1-.19-56.53 98.735c-2.17 3.79-7.845 3.065-8.99-1.15l-8.595-31.605-31.645 8.56.005-.005Z"/><path fill="#FF3158" d="m203.761 168.35 20.51-11.885-30.53-52.55-28.19-48.56 56.1-.19 16.45-.075a5.18 5.18 0 0 1 4.5 2.575l38.275 65.915 20.485-11.845c3.06-1.8 6.695 1.015 5.78 4.38l-20.48 77.14c-.51 2.075-2.71 3.355-4.805 2.775l-77.095-20.46c-3.435-.895-4.03-5.465-.995-7.22h-.005Z"/><path fill="#222" d="M160.541 328.36H85.206a4.92 4.92 0 0 1-4.245-2.46l-7.35-12.73c-.25-.43-.25-.96 0-1.39l28.125-48.58a1.39 1.39 0 0 1 1.205-.695h57.6c2.595 0 4.825 1.485 5.82 3.87.995 2.39.475 5.025-1.355 6.87l-22.185 22.165 22.16 22.225c1.83 1.83 2.355 4.455 1.365 6.845-.99 2.39-3.215 3.875-5.805 3.875v.005Zm-84.12-15.88 6.95 12.035a2.12 2.12 0 0 0 1.835 1.065h75.335c1.725 0 2.8-1.115 3.235-2.16.43-1.045.46-2.595-.76-3.815l-23.14-23.21a1.394 1.394 0 0 1 0-1.965l23.165-23.14c1.22-1.23 1.195-2.79.76-3.84-.435-1.045-1.515-2.16-3.255-2.16h-56.795l-27.32 47.19h-.01Z"/><path fill="#222" d="M74.816 313.865c-.495 0-.955-.265-1.205-.695l-28.035-48.58-8.255-14.26a6.554 6.554 0 0 1 0-6.565l37.495-64.77-19.25-11.195c-1.915-1.095-2.93-3.135-2.64-5.315.29-2.175 1.79-3.87 3.92-4.425l77.115-20.54a5.136 5.136 0 0 1 4.005.5 5.311 5.311 0 0 1 2.505 3.285l20.54 77.06c.58 2.125-.15 4.28-1.895 5.625-1.745 1.345-4.015 1.49-5.92.385l-19.295-11.195-29.75 51.41-28.125 48.58a1.39 1.39 0 0 1-1.205.695h-.005Zm60.55-173.76c-.22 0-.445.03-.66.095l-77.155 20.555c-1.035.27-1.73 1.055-1.87 2.1-.14 1.05.335 2 1.275 2.535l20.46 11.9a1.39 1.39 0 0 1 .505 1.9l-38.19 65.97a3.772 3.772 0 0 0 0 3.775l8.255 14.26L74.82 309.69l26.92-46.495 30.445-52.615a1.389 1.389 0 0 1 1.9-.505l20.5 11.895c.925.535 1.98.465 2.83-.185.85-.655 1.19-1.66.905-2.7L137.776 142a2.492 2.492 0 0 0-1.19-1.57c-.38-.22-.8-.33-1.215-.33l-.005.005ZM345.491 264.595h-.02l-56.14-.72a1.388 1.388 0 0 1-1.195-.71l-28.22-50.2c-1.265-2.275-1.06-4.945.54-6.985 1.595-2.035 4.135-2.87 6.63-2.18l30.225 8.485 8.505-30.22c.705-2.495 2.735-4.235 5.295-4.54 2.56-.305 4.94.91 6.205 3.165l36.94 65.69a4.922 4.922 0 0 1-.06 4.865l-7.51 12.665c-.25.425-.705.68-1.195.68v.005Zm-55.32-3.49 54.535.7 7.1-11.965a2.129 2.129 0 0 0 .025-2.095l-36.935-65.685c-.845-1.505-2.335-1.9-3.455-1.765-1.115.135-2.48.865-2.945 2.53l-8.88 31.56c-.21.74-.975 1.17-1.715.96l-31.56-8.86c-1.66-.46-2.995.33-3.695 1.22-.7.89-1.15 2.385-.3 3.905l27.825 49.5v-.005Z"/><path fill="#222" d="M223.471 356.16c-1.395 0-2.74-.56-3.78-1.625l-55.695-57.155c-.985-.97-1.53-2.305-1.515-3.745a5.278 5.278 0 0 1 1.65-3.78l57.095-55.68c1.575-1.545 3.81-1.965 5.83-1.1 2.025.865 3.26 2.77 3.235 4.97l-.305 22.305 59.385.75 56.14.72a1.394 1.394 0 0 1 1.18 2.1l-28.615 48.255-8.37 14.165c-1.215 2.015-3.41 3.25-5.735 3.21l-74.83-.935-.33 22.265c-.015 2.195-1.285 4.075-3.315 4.89a5.432 5.432 0 0 1-2.015.395l-.01-.005Zm1.47-120.75c-.645 0-1.265.255-1.765.75l-57.115 55.7a2.516 2.516 0 0 0-.79 1.805c-.01.675.24 1.295.705 1.75l55.715 57.18c.875.9 2 .895 2.765.59.98-.395 1.565-1.27 1.575-2.34l.35-23.665c.01-.765.65-1.365 1.41-1.37l76.22.95c1.35.02 2.61-.695 3.31-1.855l8.365-14.155 27.39-46.185-53.735-.69-60.775-.765c-.37 0-.72-.155-.98-.42s-.4-.62-.395-.99l.325-23.7c.015-1.255-.785-2.05-1.545-2.375a2.602 2.602 0 0 0-1.025-.215h-.005ZM160.911 157.76c-.275 0-.555-.015-.835-.055-2.585-.33-4.61-2.095-5.285-4.61l-8.235-30.26-30.31 8.215c-2.51.665-5.04-.2-6.615-2.255-1.57-2.05-1.74-4.71-.45-6.95l37.425-65.365a4.91 4.91 0 0 1 4.245-2.46l14.695-.07c.495.005.96.26 1.21.695l28.175 48.555c.25.43.25.96 0 1.39l-28.615 49.995c-1.135 2.005-3.16 3.175-5.405 3.175Zm-13.38-38.02c.61 0 1.175.405 1.34 1.025l8.605 31.605c.45 1.68 1.82 2.43 2.95 2.575 1.12.145 2.62-.24 3.47-1.735l28.22-49.3-27.365-47.165-13.895.065c-.76 0-1.46.41-1.84 1.065l-37.425 65.365c-.73 1.27-.64 2.715.245 3.87.69.9 2.02 1.7 3.685 1.26l31.645-8.575c.12-.035.245-.05.365-.05v-.005Z"/><path fill="#222" d="M282.881 197.555c-.47 0-.935-.06-1.39-.19l-77.085-20.45c-2.14-.565-3.655-2.27-3.945-4.455-.295-2.18.705-4.22 2.61-5.325l19.295-11.175-29.84-51.36-28.175-48.555a1.397 1.397 0 0 1 1.2-2.09l56.09-.185 16.465-.07c2.34-.035 4.525 1.225 5.71 3.265l37.565 64.7 19.295-11.135c1.89-1.115 4.155-.99 5.895.33 1.75 1.33 2.485 3.48 1.915 5.615L288.011 193.6c-.33 1.345-1.195 2.5-2.435 3.225-.82.48-1.755.73-2.69.73h-.005ZM167.961 56.73l26.965 46.475 30.54 52.565a1.39 1.39 0 0 1-.505 1.9l-20.5 11.875c-.925.535-1.39 1.49-1.245 2.545.145 1.065.855 1.865 1.9 2.14l77.1 20.455a2.5 2.5 0 0 0 1.945-.255c.585-.34.99-.88 1.145-1.51l20.48-77.15c.325-1.22-.255-2.185-.91-2.68-.84-.635-1.89-.69-2.81-.145l-20.51 11.835a1.394 1.394 0 0 1-1.9-.505l-38.26-65.9a3.742 3.742 0 0 0-3.28-1.88l-16.475.07-53.685.175.005-.01Z"/></svg>