<svg xmlns="http://www.w3.org/2000/svg" width="400" height="401" fill="none" viewBox="0 0 400 401"><path fill="#DADADA" d="m56.14 246.32 129.16 74.57a29.584 29.584 0 0 0 29.585 0l129.16-74.57"/><path fill="#FF3158" d="M200.365 43.795V167.8c-5.1 0-10.2 1.315-14.785 3.97L56.415 246.335v-124.23L186.65 46.9a27.516 27.516 0 0 1 13.715-3.68v.575Z"/><path fill="#fff" d="M199.715 43.22c4.73 0 9.46 1.235 13.715 3.68l130.235 75.205v124.23L214.5 171.77a29.46 29.46 0 0 0-14.785-3.97V43.22Z"/><path fill="#444" d="m73.035 269.936 112.17 64.76a29.594 29.594 0 0 0 29.59 0l112.165-64.76 16.99 9.81-129.16 74.57a29.594 29.594 0 0 1-29.59 0l-129.155-74.57 16.99-9.81Z"/><path fill="#DADADA" d="M185.2 320.895a29.594 29.594 0 0 0 29.59 0l129.16-74.57v13.83l-129.16 74.57a29.594 29.594 0 0 1-29.59 0L56.045 260.15v-13.83l129.16 74.57-.005.005Z"/><path fill="#222" d="M199.995 340.055c-5.355 0-10.71-1.38-15.485-4.135L55.35 261.35a1.375 1.375 0 0 1-.69-1.195v-13.83a1.38 1.38 0 0 1 2.07-1.195l129.16 74.57c8.7 5.02 19.505 5.02 28.205 0l129.16-74.57c.43-.245.955-.245 1.38 0 .43.245.69.705.69 1.195v13.83c0 .495-.265.95-.69 1.195l-129.16 74.57a30.983 30.983 0 0 1-15.485 4.135h.005Zm-142.57-80.7 128.465 74.17c8.7 5.02 19.505 5.02 28.205 0l128.465-74.17V248.72l-127.085 73.37c-9.55 5.515-21.42 5.515-30.97 0l-127.08-73.37v10.635Z"/><path fill="#222" d="M343.945 247.835c-.765 0-1.385-.62-1.385-1.38V122.89L213.02 48.095c-8.035-4.64-18.015-4.64-26.05 0L57.425 122.89v123.435c0 .765-.62 1.38-1.385 1.38s-1.385-.62-1.385-1.38V122.09c0-.495.265-.95.69-1.195L185.59 45.7c8.885-5.13 19.925-5.13 28.815 0l130.235 75.19c.43.245.69.705.69 1.195v124.36c0 .765-.62 1.38-1.385 1.38v.01Z"/><path fill="#222" d="M199.995 168.19c-.765 0-1.385-.62-1.385-1.38V43.785c0-.765.62-1.38 1.385-1.38s1.385.62 1.385 1.38v123.02c0 .765-.62 1.38-1.385 1.38v.005Z"/><path fill="#fff" d="m343.945 246.325-129.16-74.57a29.584 29.584 0 0 0-29.585 0l-129.155 74.57"/><path fill="#222" d="M343.945 247.704c-.235 0-.47-.06-.69-.185l-129.16-74.57c-8.7-5.02-19.505-5.02-28.205 0l-129.155 74.57a1.383 1.383 0 1 1-1.385-2.395l129.16-74.57c9.55-5.515 21.42-5.515 30.97 0l129.16 74.57c.66.38.89 1.225.505 1.89-.255.445-.72.69-1.2.69Z"/><path fill="#fff" d="M220.62 72.766v83.375l27.865 15.82V88.756l-27.865-15.99Z"/><path fill="#222" d="M248.485 173.34c-.235 0-.47-.06-.685-.18l-27.865-15.82a1.376 1.376 0 0 1-.7-1.2V72.765c0-.495.265-.95.69-1.195.425-.25.955-.25 1.38 0l27.865 15.99c.43.245.695.705.695 1.2v83.205a1.387 1.387 0 0 1-1.38 1.385v-.01ZM222 155.33l25.1 14.25V89.555l-25.1-14.4v80.18-.005ZM200.37 306.56h-1.315a3.037 3.037 0 0 1-3.035-3.035v-31.6c0-.765.62-1.38 1.385-1.38h4.615c.765 0 1.385.62 1.385 1.38v31.6a3.037 3.037 0 0 1-3.035 3.035Zm-1.58-33.25v30.22c0 .15.12.27.27.27h1.315c.15 0 .27-.12.27-.27v-30.22h-1.855Z"/><path fill="#fff" d="M178.505 290.065v-31.6h-4.615v31.6c0 .91.74 1.65 1.65 1.65h1.315c.91 0 1.65-.74 1.65-1.65Z"/><path fill="#222" d="M176.85 293.095h-1.315a3.037 3.037 0 0 1-3.035-3.035v-31.6c0-.765.62-1.38 1.385-1.38h4.615c.765 0 1.385.62 1.385 1.38v31.6a3.037 3.037 0 0 1-3.035 3.035Zm-1.58-33.25v30.22c0 .15.12.27.27.27h1.315c.15 0 .27-.12.27-.27v-30.22h-1.855Z"/><path fill="#fff" d="M284.1 256.124v-31.6h-4.615v31.6c0 .91.74 1.65 1.65 1.65h1.315c.91 0 1.65-.74 1.65-1.65Z"/><path fill="#222" d="M282.45 259.16h-1.315a3.037 3.037 0 0 1-3.035-3.035v-31.6c0-.765.62-1.38 1.385-1.38h4.615c.765 0 1.385.62 1.385 1.38v31.6a3.037 3.037 0 0 1-3.035 3.035Zm-1.58-33.25v30.22c0 .15.12.27.27.27h1.315c.15 0 .27-.12.27-.27v-30.22h-1.855Z"/><path fill="#fff" d="m284.1 219.546-25.825-14.91-84.39 48.725 25.83 14.91 84.385-48.725Z"/><path fill="#222" d="M199.715 269.65c-.24 0-.475-.06-.69-.185l-25.825-14.91a1.375 1.375 0 0 1-.69-1.195c0-.49.265-.95.69-1.195l84.39-48.72c.43-.245.955-.245 1.38 0l25.825 14.91c.43.245.69.705.69 1.195 0 .49-.265.95-.69 1.195l-84.39 48.72c-.215.125-.45.185-.69.185Zm-23.06-16.295 23.06 13.315 81.625-47.125-23.06-13.315-81.625 47.125Z"/><path fill="#fff" d="M173.885 253.36v5.02l25.83 14.91v-5.02l-25.83-14.91Z"/><path fill="#222" d="M199.715 274.675c-.24 0-.475-.06-.69-.185L173.2 259.58a1.375 1.375 0 0 1-.69-1.195v-5.02a1.38 1.38 0 0 1 2.07-1.195l25.825 14.91c.43.245.69.705.69 1.195v5.02a1.38 1.38 0 0 1-1.38 1.38Zm-24.445-17.09 23.06 13.315v-1.83l-23.06-13.315v1.83Z"/><path fill="#fff" d="M199.715 268.27v5.02l84.385-48.72v-5.025l-84.385 48.725Z"/><path fill="#222" d="M199.715 274.675a1.375 1.375 0 0 1-1.38-1.38v-5.02c0-.495.265-.95.69-1.195l84.39-48.72c.43-.245.955-.245 1.38 0 .43.245.69.705.69 1.195v5.02c0 .495-.265.95-.69 1.195l-84.39 48.72c-.215.125-.45.185-.69.185Zm1.385-5.605v1.83l81.625-47.125v-1.83L201.1 269.07Z"/><path fill="#222" d="M131.975 255.456c-.765 0-1.385-.62-1.385-1.38v-6.795l-25.715-14.845v5.2c0 .765-.62 1.38-1.385 1.38s-1.385-.62-1.385-1.38v-7.595a1.38 1.38 0 0 1 2.07-1.195l28.48 16.445c.43.245.69.705.69 1.195v7.595c0 .765-.62 1.38-1.385 1.38l.015-.005Z" style="mix-blend-mode:multiply"/><path fill="#222" d="M118.42 239.99c-.765 0-1.385-.62-1.385-1.38v-94.5c0-.765.62-1.38 1.385-1.38s1.385.62 1.385 1.38v94.5c0 .765-.62 1.38-1.385 1.38Z"/><path fill="#fff" d="M117.335 137.595 188.2 96.84c.335-.155.705-.24 1.09-.24 1.61 0 2.915 1.5 2.915 3.355 0 1.275-.62 2.385-1.535 2.955l-70.595 40.67"/><path fill="#222" d="M120.07 144.96a1.385 1.385 0 0 1-.69-2.585l70.595-40.67c.495-.31.84-1.005.84-1.755 0-1.07-.7-1.97-1.53-1.97-.16 0-.315.03-.46.095l-70.8 40.72a1.385 1.385 0 0 1-1.38-2.4L187.51 95.64c.035-.02.07-.04.105-.055.53-.245 1.09-.37 1.67-.37 2.37 0 4.295 2.125 4.295 4.735 0 1.71-.84 3.29-2.185 4.13l-70.635 40.695c-.22.125-.455.185-.69.185Z"/><path fill="#fff" d="M118.395 144.109c1.61 0 2.915-1.502 2.915-3.355 0-1.852-1.305-3.355-2.915-3.355s-2.915 1.503-2.915 3.355c0 1.853 1.305 3.355 2.915 3.355Z"/><path fill="#222" d="M118.395 145.49c-2.37 0-4.295-2.125-4.295-4.735 0-2.61 1.925-4.735 4.295-4.735s4.295 2.125 4.295 4.735c0 2.61-1.925 4.735-4.295 4.735Zm0-6.705c-.83 0-1.53.905-1.53 1.97s.7 1.97 1.53 1.97c.83 0 1.53-.905 1.53-1.97s-.7-1.97-1.53-1.97Z"/><path fill="#222" d="M202.78 215.12c-.765 0-1.385-.62-1.385-1.38v-6.795L175.68 192.1v5.2c0 .765-.62 1.38-1.385 1.38s-1.385-.62-1.385-1.38v-7.595a1.38 1.38 0 0 1 2.07-1.195l28.48 16.445c.43.245.69.705.69 1.195v7.595c0 .765-.62 1.38-1.385 1.38l.015-.005Z" style="mix-blend-mode:multiply"/><path fill="#222" d="M189.22 199.655c-.765 0-1.385-.62-1.385-1.38v-94.5c0-.765.62-1.38 1.385-1.38s1.385.62 1.385 1.38v94.5c0 .765-.62 1.38-1.385 1.38ZM170.52 125.161c-.765 0-1.385-.62-1.385-1.38v-6.52c.05-1.885.89-2.565 1.79-3.02.36-.18.575-.29.565-1.785-.015-2.145-.92-4.005-1.6-4.48-.04.065-.085.155-.13.28a1.387 1.387 0 0 1-1.775.825 1.387 1.387 0 0 1-.825-1.775c.47-1.29 1.25-1.81 1.815-2.015.715-.26 1.505-.17 2.23.245 1.98 1.14 3.03 4.335 3.045 6.895.015 2.67-.78 3.615-2.08 4.27a2.67 2.67 0 0 0-.215.115c-.015.05-.055.19-.06.475v6.485c0 .765-.62 1.38-1.38 1.38l.005.005Z"/><path fill="#222" d="M177.035 140.786c-.705 0-1.425-.19-2.095-.575l-15.35-8.86a4.077 4.077 0 0 1-1.985-4.355 4.06 4.06 0 0 1 3.475-3.29l9.245-1.285c.49-.07.98.13 1.285.525l8.645 11.185c1.24 1.605 1.175 3.705-.155 5.23-.825.94-1.93 1.435-3.065 1.435v-.01Zm-7.12-15.525-8.455 1.175c-.89.125-1.1.86-1.145 1.08-.045.225-.125.985.65 1.43l15.35 8.86c.895.515 1.525-.085 1.695-.28.17-.195.685-.9.05-1.72l-8.155-10.55.01.005Z"/><path fill="#fff" d="M158.825 172.965v-29.58l-5.52.73-4.635-10.595 6.78-8.525c1.035-1.3 2.325-2.07 3.78-2.25l4.415-.56c1.07 4.795 3.815 9.455 6.88 11.225 3.065 1.77 5.815.28 6.88-3.28l4.415 5.655c1.455 1.865 2.745 4.125 3.78 6.615l6.78 14.295-4.635 7.3-5.52-7.105v29.58l-23.395-13.505h-.005Z"/><path fill="#222" d="M182.22 187.855c-.24 0-.475-.06-.69-.185l-23.395-13.505a1.375 1.375 0 0 1-.69-1.195v-28l-3.955.525c-.61.08-1.2-.25-1.45-.815l-4.635-10.595a1.381 1.381 0 0 1 .185-1.415l6.78-8.525c1.255-1.58 2.875-2.535 4.69-2.765l4.415-.56c.71-.09 1.37.375 1.525 1.07 1.015 4.55 3.575 8.795 6.22 10.325.69.4 1.72.79 2.705.4.95-.375 1.715-1.4 2.16-2.875a1.38 1.38 0 0 1 2.415-.45l4.415 5.655c1.515 1.94 2.88 4.33 3.955 6.905l6.765 14.265c.205.43.175.935-.08 1.335l-4.635 7.3a1.376 1.376 0 0 1-2.255.105l-3.045-3.92v25.545a1.38 1.38 0 0 1-1.38 1.38l-.02-.005Zm-22.015-15.69 20.63 11.91V156.89c0-.59.375-1.115.935-1.31a1.388 1.388 0 0 1 1.54.46l4.315 5.55 3.175-4.995-6.45-13.605s-.02-.04-.03-.065c-.98-2.36-2.22-4.54-3.59-6.295l-3.01-3.855c-.72 1.13-1.665 1.96-2.78 2.4-1.115.44-2.905.7-5.11-.575-3.065-1.77-5.88-6.055-7.23-10.895l-3.2.405c-1.095.14-2.06.725-2.87 1.74l-6.26 7.87 3.885 8.88 4.49-.595c.395-.055.795.07 1.095.33.3.26.47.64.47 1.04v28.78l-.005.01Z"/><path fill="#222" d="M156.995 132.876c-.765 0-1.385-.62-1.385-1.38v-6.52c.05-1.885.89-2.565 1.79-3.02.355-.18.575-.29.565-1.785-.015-2.145-.92-4.005-1.6-4.48-.04.065-.085.155-.13.28a1.387 1.387 0 0 1-1.775.825 1.387 1.387 0 0 1-.825-1.775c.47-1.29 1.25-1.81 1.815-2.015.715-.26 1.505-.17 2.23.245 1.98 1.14 3.03 4.335 3.045 6.895.015 2.67-.78 3.615-2.075 4.27a2.02 2.02 0 0 0-.215.115c-.015.05-.055.19-.06.475v6.485c0 .765-.62 1.38-1.38 1.38v.005Z"/><path fill="#222" d="M163.51 148.496c-.705 0-1.425-.19-2.095-.575l-15.35-8.86a4.077 4.077 0 0 1-1.985-4.355 4.06 4.06 0 0 1 3.475-3.29l9.245-1.285c.49-.07.98.13 1.285.525l8.645 11.185c1.24 1.605 1.175 3.705-.155 5.23-.825.94-1.93 1.435-3.065 1.435v-.01Zm-7.12-15.525-8.455 1.175c-.89.125-1.1.86-1.145 1.08-.045.225-.125.985.65 1.43l15.35 8.86c.895.515 1.525-.085 1.7-.28.17-.195.685-.9.05-1.72l-8.155-10.55.005.005Z"/><path fill="#444" d="M145.295 180.676v-29.58l-5.52.73-4.635-10.596 6.78-8.524c1.035-1.3 2.325-2.07 3.78-2.25l4.415-.56c1.07 4.795 3.815 9.454 6.88 11.224 3.065 1.77 5.815.28 6.88-3.28l4.415 5.655c1.455 1.865 2.745 4.126 3.78 6.616l6.78 14.295-4.635 7.3-5.52-7.105v29.579L145.3 180.676h-.005Z"/><path fill="#222" d="M168.69 195.566c-.24 0-.475-.06-.69-.185l-23.395-13.505a1.375 1.375 0 0 1-.69-1.195v-28l-3.955.525a1.38 1.38 0 0 1-1.45-.815l-4.635-10.595a1.381 1.381 0 0 1 .185-1.415l6.78-8.525c1.255-1.58 2.875-2.535 4.69-2.765l4.415-.56c.71-.09 1.37.375 1.525 1.07 1.015 4.55 3.575 8.795 6.22 10.325.69.4 1.72.79 2.705.4.95-.375 1.715-1.4 2.16-2.875a1.38 1.38 0 0 1 2.415-.45l4.415 5.655c1.515 1.94 2.88 4.33 3.955 6.905l6.765 14.265c.205.43.175.935-.08 1.335l-4.635 7.3a1.376 1.376 0 0 1-2.255.105l-3.045-3.92v25.545a1.38 1.38 0 0 1-1.38 1.38l-.02-.005Zm-22.015-15.69 20.63 11.91v-27.185c0-.59.375-1.115.935-1.31a1.388 1.388 0 0 1 1.54.46l4.315 5.55 3.175-4.995-6.45-13.605s-.02-.04-.03-.065c-.98-2.36-2.22-4.54-3.59-6.295l-3.01-3.855c-.72 1.13-1.665 1.96-2.775 2.4-1.115.44-2.9.7-5.11-.575-3.065-1.77-5.88-6.055-7.23-10.895l-3.2.405c-1.095.14-2.06.725-2.87 1.74l-6.26 7.87 3.885 8.88 4.49-.595c.395-.055.795.07 1.095.33.3.26.47.64.47 1.04v28.78l-.01.01Z"/><path fill="#222" d="M143.47 140.585c-.765 0-1.385-.62-1.385-1.38v-6.52c.05-1.885.89-2.565 1.79-3.02.355-.18.575-.29.565-1.785-.015-2.145-.92-4.005-1.6-4.48-.04.065-.085.155-.13.28a1.387 1.387 0 0 1-1.775.825 1.387 1.387 0 0 1-.825-1.775c.47-1.29 1.25-1.81 1.815-2.015.715-.26 1.505-.17 2.23.245 1.98 1.14 3.03 4.335 3.045 6.895.015 2.67-.78 3.615-2.075 4.27a2.02 2.02 0 0 0-.215.115c-.015.05-.055.19-.06.475v6.485c0 .765-.62 1.38-1.38 1.38v.005Z"/><path fill="#222" d="M149.985 156.205c-.705 0-1.425-.19-2.095-.575l-15.35-8.86a4.077 4.077 0 0 1-1.985-4.355 4.066 4.066 0 0 1 3.475-3.29l9.245-1.285c.49-.07.98.13 1.285.525l8.645 11.185c1.24 1.605 1.175 3.705-.155 5.23-.825.94-1.93 1.435-3.065 1.435v-.01Zm-7.12-15.525-8.455 1.175c-.89.125-1.1.86-1.145 1.08-.045.225-.125.985.65 1.43l15.35 8.86c.895.515 1.525-.085 1.695-.28.17-.195.685-.9.05-1.72l-8.155-10.55.01.005Z"/><path fill="#fff" d="M131.77 188.384v-29.58l-5.52.731-4.635-10.596 6.78-8.525c1.035-1.3 2.325-2.07 3.78-2.25l4.415-.56c1.07 4.795 3.815 9.455 6.88 11.225 3.065 1.77 5.815.28 6.88-3.28l4.415 5.655c1.455 1.865 2.745 4.126 3.78 6.616l6.78 14.295-4.635 7.299-5.52-7.105v29.58l-23.395-13.505h-.005Z"/><path fill="#222" d="M155.165 203.275c-.24 0-.475-.06-.69-.185l-23.395-13.505a1.375 1.375 0 0 1-.69-1.195v-28l-3.955.525c-.61.08-1.2-.25-1.45-.815l-4.635-10.595a1.381 1.381 0 0 1 .185-1.415l6.78-8.525c1.255-1.58 2.875-2.535 4.69-2.765l4.415-.56c.71-.09 1.37.375 1.525 1.07 1.015 4.55 3.575 8.795 6.22 10.325.69.4 1.72.79 2.705.4.95-.375 1.715-1.4 2.16-2.875a1.38 1.38 0 0 1 2.415-.45l4.415 5.655c1.515 1.94 2.88 4.33 3.955 6.905l6.765 14.265c.205.43.175.935-.08 1.335l-4.635 7.3a1.376 1.376 0 0 1-2.255.105l-3.045-3.92V201.9a1.38 1.38 0 0 1-1.38 1.38l-.02-.005Zm-22.015-15.69 20.63 11.91V172.31c0-.59.375-1.115.935-1.31a1.388 1.388 0 0 1 1.54.46l4.315 5.55 3.175-4.995-6.45-13.605s-.02-.04-.03-.065c-.98-2.36-2.22-4.54-3.59-6.295l-3.01-3.855c-.72 1.13-1.665 1.96-2.78 2.4-1.115.44-2.9.7-5.11-.575-3.065-1.77-5.88-6.055-7.23-10.895l-3.2.405c-1.095.14-2.06.725-2.87 1.74l-6.26 7.87 3.885 8.88 4.49-.595c.395-.055.795.07 1.095.33.3.26.47.64.47 1.04v28.78l-.005.01Z"/><path fill="#fff" d="M310.13 188.44v6.055l-52.075-29.985v-6.055l52.075 29.985Z"/><path fill="#222" d="M310.13 195.875c-.24 0-.475-.06-.69-.185l-52.075-29.985a1.382 1.382 0 0 1-.695-1.2v-6.055a1.38 1.38 0 0 1 2.07-1.195l52.075 29.985c.43.245.695.705.695 1.2v6.055a1.38 1.38 0 0 1-1.38 1.38Zm-50.69-32.165 49.31 28.395v-2.865l-49.31-28.395v2.865Z"/><path fill="#FF3158" d="m276.62 147.576 52.075 29.985-18.565 10.88-52.075-29.985 18.565-10.88Z"/><path fill="#222" d="M310.13 189.821c-.24 0-.475-.06-.69-.185l-52.075-29.985c-.425-.245-.69-.7-.695-1.195 0-.495.26-.95.685-1.2l18.565-10.88c.43-.25.96-.255 1.39-.005l52.075 29.985c.425.245.69.7.695 1.195 0 .495-.26.95-.685 1.2l-18.565 10.88c-.215.125-.455.19-.7.19Zm-49.32-31.38 49.315 28.395 15.82-9.27-49.315-28.395-15.82 9.27Z"/><path fill="#fff" d="M328.695 177.561v6.055l-18.565 10.88v-6.055l18.565-10.88Z"/><path fill="#222" d="M310.13 195.875c-.235 0-.475-.06-.685-.185a1.382 1.382 0 0 1-.695-1.2v-6.055c0-.49.26-.945.685-1.195L328 176.36a1.382 1.382 0 0 1 2.08 1.195v6.055c0 .49-.26.945-.685 1.195l-18.565 10.88c-.215.125-.455.19-.7.19Zm1.385-6.645v2.85l15.8-9.26v-2.85l-15.8 9.26Z"/><path fill="#fff" d="M310.13 167.07v6.05l-52.075-29.985v-6.05l52.075 29.985Z"/><path fill="#222" d="M310.13 174.505c-.24 0-.475-.06-.69-.185l-52.075-29.985a1.382 1.382 0 0 1-.695-1.2v-6.055a1.38 1.38 0 0 1 2.07-1.195l52.075 29.985c.43.245.695.705.695 1.2v6.055a1.38 1.38 0 0 1-1.38 1.38Zm-50.69-32.165 49.31 28.395v-2.865l-49.31-28.395v2.865Z"/><path fill="#FF3158" d="m276.62 126.199 52.075 29.985-18.565 10.885-52.075-29.985 18.565-10.885Z"/><path fill="#222" d="M310.13 168.449c-.24 0-.475-.06-.69-.185l-52.075-29.985c-.425-.245-.69-.7-.695-1.195 0-.495.26-.95.685-1.2l18.565-10.88c.43-.25.96-.255 1.39-.005l52.075 29.985c.425.245.69.7.695 1.195 0 .495-.26.95-.685 1.2l-18.565 10.88c-.215.125-.455.19-.7.19Zm-49.32-31.38 49.315 28.395 15.82-9.27-49.315-28.395-15.82 9.27Z"/><path fill="#fff" d="M328.695 156.186v6.055l-18.565 10.88v-6.05l18.565-10.885Z"/><path fill="#222" d="M310.13 174.506c-.235 0-.475-.06-.685-.185a1.382 1.382 0 0 1-.695-1.2v-6.055c0-.49.26-.945.685-1.195L328 154.991a1.382 1.382 0 0 1 2.08 1.195v6.055c0 .49-.26.945-.685 1.195l-18.565 10.88c-.215.125-.455.19-.7.19Zm1.385-6.645v2.85l15.8-9.26v-2.85l-15.8 9.26Z"/><path fill="#fff" d="M310.13 145.696v6.055l-52.075-29.985v-6.055l52.075 29.985Z"/><path fill="#222" d="M310.13 153.136c-.24 0-.475-.06-.69-.185l-52.075-29.985a1.382 1.382 0 0 1-.695-1.2v-6.055a1.38 1.38 0 0 1 2.07-1.195l52.075 29.985c.43.245.695.705.695 1.2v6.055a1.38 1.38 0 0 1-1.38 1.38Zm-50.69-32.165 49.31 28.395v-2.865l-49.31-28.395v2.865Z"/><path fill="#FF3158" d="m276.62 104.83 52.075 29.985-18.565 10.88-52.075-29.985 18.565-10.88Z"/><path fill="#222" d="M310.13 147.08c-.24 0-.475-.06-.69-.185l-52.075-29.985c-.425-.245-.69-.7-.695-1.195 0-.495.26-.95.685-1.2l18.565-10.88c.43-.25.96-.255 1.39-.005l52.075 29.985c.425.245.69.7.695 1.195 0 .495-.26.95-.685 1.2l-18.565 10.88c-.215.125-.455.19-.7.19Zm-49.32-31.38 49.315 28.395 15.82-9.27-49.315-28.395-15.82 9.27Z"/><path fill="#fff" d="M328.695 134.814v6.055l-18.565 10.88v-6.055l18.565-10.88Z"/><path fill="#222" d="M310.13 153.135c-.235 0-.475-.06-.685-.185a1.382 1.382 0 0 1-.695-1.2v-6.055c0-.49.26-.945.685-1.195L328 133.62a1.382 1.382 0 0 1 2.08 1.195v6.055c0 .49-.26.945-.685 1.195l-18.565 10.88c-.215.125-.455.19-.7.19Zm1.385-6.645v2.85l15.8-9.26v-2.85l-15.8 9.26Z"/><path fill="#DADADA" d="m241.86 227.41-15.775-9.11 22.58-13.04 14.195 8.195c1.465.845 2.585 2.235 2.935 3.895.235 1.125.245 2.085.055 2.97-.35 1.62-1.51 2.945-2.945 3.775l-21.045 12.15"/><path fill="#222" d="M241.86 237.625c-.48 0-.94-.25-1.2-.69a1.388 1.388 0 0 1 .505-1.89l21.045-12.15c1.21-.7 2.045-1.745 2.285-2.87.155-.715.135-1.475-.06-2.39-.255-1.205-1.08-2.295-2.275-2.98l-13.5-7.795-19.815 11.44 13.7 7.91c.66.38.89 1.225.505 1.89-.38.66-1.225.885-1.89.505l-15.775-9.11a1.375 1.375 0 0 1-.69-1.195c0-.49.265-.95.69-1.195l22.58-13.04c.43-.245.955-.245 1.38 0l14.195 8.195c1.87 1.08 3.18 2.83 3.595 4.805.27 1.295.29 2.45.055 3.545-.405 1.885-1.72 3.59-3.605 4.68l-21.045 12.15c-.22.125-.455.185-.69.185h.01Z"/><path fill="#222" d="M241.86 228.79c-.48 0-.94-.25-1.2-.69a1.388 1.388 0 0 1 .505-1.89l15.565-8.99a1.383 1.383 0 1 1 1.385 2.395l-15.565 8.99c-.22.125-.455.185-.69.185Z"/><path fill="#DADADA" d="m226.08 218.3 15.775 9.11c1.58 1.995 1.885 4.925 1.195 7.385-.39 1.39-1.96 2.06-3.21 1.34l-13.755-7.945"/><path fill="#222" d="M240.92 237.805a3.52 3.52 0 0 1-1.775-.48l-13.755-7.945a1.38 1.38 0 0 1-.505-1.89 1.38 1.38 0 0 1 1.89-.505l13.755 7.945c.29.17.56.1.69.05a.838.838 0 0 0 .495-.565c.6-2.125.285-4.43-.795-5.95l-15.53-8.965a1.38 1.38 0 0 1-.505-1.89c.38-.66 1.23-.89 1.89-.505l15.775 9.11c.15.085.285.205.395.34 1.755 2.22 2.31 5.52 1.44 8.615a3.6 3.6 0 0 1-3.46 2.64l-.005-.005Z"/><path fill="#222" d="M237.515 231.3c-.235 0-.47-.06-.69-.185l-12-6.93a1.38 1.38 0 0 1-.505-1.89 1.38 1.38 0 0 1 1.89-.505l12 6.93c.66.38.89 1.225.505 1.89-.255.445-.72.69-1.2.69Z"/><path fill="#DADADA" d="M225.93 218.49c-1.165 1.39-.98 3.615-.175 4.705-1.025 1.135-.965 3.53.115 4.7"/><path fill="#222" d="M225.875 229.275c-.37 0-.74-.15-1.015-.445-1.335-1.44-1.585-3.95-.71-5.705-.685-1.64-.595-3.96.72-5.53a1.386 1.386 0 0 1 1.95-.17c.585.49.66 1.365.17 1.95-.72.86-.57 2.385-.12 2.995.39.53.355 1.26-.085 1.745-.545.605-.49 2.195.105 2.835a1.383 1.383 0 0 1-1.015 2.325Z"/><path fill="#DADADA" d="m206.81 247.64-15.775-9.11 22.58-13.04 14.195 8.195c1.465.845 2.585 2.235 2.935 3.895.235 1.125.245 2.085.055 2.97-.35 1.62-1.51 2.945-2.945 3.775l-21.045 12.15"/><path fill="#222" d="M206.81 257.855c-.48 0-.94-.25-1.2-.69a1.388 1.388 0 0 1 .505-1.89l21.045-12.15c1.21-.7 2.045-1.745 2.285-2.87.155-.715.135-1.475-.06-2.39-.255-1.205-1.08-2.295-2.275-2.98l-13.5-7.795-19.82 11.44 13.7 7.91c.66.38.89 1.225.505 1.89-.38.66-1.23.89-1.89.505l-15.775-9.11a1.375 1.375 0 0 1-.69-1.195c0-.49.265-.95.69-1.195l22.585-13.04c.43-.245.955-.245 1.38 0l14.195 8.195c1.87 1.08 3.18 2.83 3.595 4.805.27 1.295.29 2.45.055 3.545-.405 1.885-1.72 3.59-3.605 4.68l-21.045 12.15c-.22.125-.455.185-.69.185h.01Z"/><path fill="#222" d="M206.81 249.02c-.48 0-.94-.25-1.2-.69a1.388 1.388 0 0 1 .505-1.89l15.565-8.99a1.383 1.383 0 1 1 1.385 2.395l-15.565 8.99c-.22.125-.455.185-.69.185Z"/><path fill="#DADADA" d="m191.035 238.53 15.775 9.11c1.58 1.995 1.885 4.925 1.195 7.385-.39 1.39-1.96 2.06-3.21 1.34l-13.755-7.945"/><path fill="#222" d="M205.875 258.035a3.52 3.52 0 0 1-1.775-.48l-13.755-7.945a1.38 1.38 0 0 1-.505-1.89 1.378 1.378 0 0 1 1.89-.505l13.755 7.945c.29.17.56.1.69.05a.838.838 0 0 0 .495-.565c.6-2.125.285-4.43-.795-5.95l-15.53-8.965a1.38 1.38 0 0 1-.505-1.89 1.38 1.38 0 0 1 1.89-.505l15.775 9.11c.15.085.285.205.395.34 1.755 2.22 2.31 5.52 1.44 8.615a3.587 3.587 0 0 1-2.115 2.375c-.435.175-.89.265-1.34.265l-.01-.005Z"/><path fill="#222" d="M202.465 251.535c-.235 0-.47-.06-.69-.185l-12-6.93a1.38 1.38 0 0 1-.505-1.89 1.38 1.38 0 0 1 1.89-.505l12 6.93c.66.38.89 1.225.505 1.89-.255.445-.72.69-1.2.69Z"/><path fill="#DADADA" d="M190.88 238.721c-1.165 1.39-.98 3.615-.175 4.705-1.025 1.135-.965 3.53.115 4.7"/><path fill="#222" d="M190.825 249.505c-.37 0-.74-.15-1.015-.445-1.335-1.44-1.585-3.95-.71-5.705-.685-1.64-.595-3.96.72-5.53a1.386 1.386 0 0 1 1.95-.17c.585.49.66 1.365.17 1.95-.72.86-.57 2.385-.12 2.995.39.53.355 1.26-.085 1.745-.545.605-.49 2.195.105 2.835a1.383 1.383 0 0 1-1.015 2.325Z"/></svg>