<svg xmlns="http://www.w3.org/2000/svg" width="400" height="400" fill="none" viewBox="0 0 400 400"><path fill="#fff" d="M211.755 83.984c-3.66-2.105-7.675-3.254-11.735-3.544v-.126c-.325 0-.645.05-.97.065-.325-.01-.645-.065-.97-.065v.126c-4.06.29-8.075 1.44-11.735 3.544l-129.9 72.505v44.705l128.825-74.37a29.384 29.384 0 0 1 13.775-3.925c4.76.155 9.495 1.45 13.775 3.925l130.715 75.59-.235-46.04-131.545-72.39Z"/><path fill="#F5F4F3" d="M213.41 47.19a27.383 27.383 0 0 0-13.39-3.65v-.02c-.05 0-.095.01-.145.01-.05 0-.095-.01-.145-.01v.02c-4.62.05-9.235 1.26-13.39 3.65L56.445 122.195v35.915L185.27 83.74a29.416 29.416 0 0 1 14.6-3.956 29.402 29.402 0 0 1 14.6 3.956l128.825 74.37v-35.915L213.41 47.19Z"/><path fill="#F5F4F3" d="m175.52 114.04 24.525-13.675V62.59L175.52 77.575v36.465ZM77.42 171.505l98.1-57.465V77.575l-98.1 56.565v37.365ZM247.635 127.815l-24.525-13.67V76.37l24.525 14.985v36.46Z"/><path fill="#F5F4F3" d="m223.82 114.04-24.525-13.675V62.59l24.525 14.985v36.465ZM273.615 143.035l-24.52-13.67V91.59l24.52 14.985v36.46Z"/><path fill="#F5F4F3" d="m322.655 154.754-49.04-26.665v-21.9l49.04 27.975v20.59ZM77.38 170.645l24.52-13.675v-37.775L77.38 134.18v36.465ZM214.715 125.23c-3.94-3.68-9.66-5.4-14.745-5.4-5.085 0-10.81 1.72-14.745 5.4l-128.83 75.29v43.18l129.89 75.005a27.443 27.443 0 0 0 13.68 3.67c4.715 0 9.435-1.23 13.68-3.67l129.89-75.005v-43.18l-128.82-75.29Z"/><path fill="#FF3158" d="m55.825 245.451 128.815 74.375a29.517 29.517 0 0 0 29.51 0l128.815-74.375h-82.4l-61.055-35.265-61.2 35.265H55.825Z"/><path fill="#fff" d="m342.76 245.454-128.815-74.375a29.517 29.517 0 0 0-29.51 0l-128.82 74.375 41.76 23.69 56.075-31.12 46.065-27.835 53.165 30.775 49.345 28.59 40.735-24.1Z"/><path fill="#444" d="m258.455 149.905-44.73-25.825a27.372 27.372 0 0 0-27.36 0L56.47 199.075l41.65 24.06 101.845-58.91 58.985 34.07-.5-48.39h.005Z"/><path fill="#222" d="M98.12 224.52c-.24 0-.48-.06-.69-.185l-41.65-24.06a1.38 1.38 0 0 1 0-2.39l129.895-75c8.865-5.12 19.875-5.12 28.74 0l44.73 25.825c.425.245.685.695.69 1.185l.5 48.39a1.382 1.382 0 0 1-2.075 1.21l-58.295-33.67-101.155 58.51a1.374 1.374 0 0 1-.69.185Zm-38.885-25.445L98.12 221.54l101.155-58.51c.43-.25.955-.25 1.385 0l56.885 32.86-.465-45.175-44.05-25.43c-8.01-4.625-17.965-4.625-25.975 0l-127.82 73.79Z"/><path fill="#F5F4F3" d="M302.37 167.64v101.915l41.245-23.95V143.9l-41.245 23.74Z"/><path fill="#222" d="M302.37 270.935a1.382 1.382 0 0 1-1.385-1.385V167.635c0-.495.265-.95.695-1.2l41.245-23.74c.43-.245.955-.245 1.38 0 .425.245.69.705.69 1.195V245.6c0 .495-.26.95-.69 1.195L303.06 270.74a1.379 1.379 0 0 1-.695.185l.005.01Zm1.385-102.495v98.715l38.48-22.34v-98.52l-38.48 22.15v-.005Z"/><path fill="#444" d="m326.67 269.005-111.875 64.59a29.517 29.517 0 0 1-29.51 0l-111.87-64.59-16.945 9.785 128.815 74.375a29.517 29.517 0 0 0 29.51 0L343.61 278.79l-16.945-9.785h.005Z"/><path fill="#222" d="M200.045 325.15c-5.34 0-10.68-1.375-15.445-4.125L55.78 246.65a1.38 1.38 0 0 1-.505-1.89 1.378 1.378 0 0 1 1.89-.505L185.98 318.63c8.675 5.01 19.455 5.01 28.125 0l128.815-74.375a1.383 1.383 0 1 1 1.385 2.395L215.49 321.025a30.892 30.892 0 0 1-15.445 4.125Z"/><path fill="#222" d="M343.615 246.835c-.765 0-1.385-.62-1.385-1.38v-123.11L213.03 47.75c-8.01-4.625-17.965-4.625-25.975 0l-129.2 74.595v123.11c0 .765-.62 1.38-1.385 1.38s-1.385-.62-1.385-1.38v-123.91c0-.495.265-.95.69-1.195l129.9-74.995c8.865-5.12 19.875-5.12 28.74 0L344.31 120.35c.43.245.69.705.69 1.195V245.45c0 .765-.62 1.38-1.385 1.38v.005Z"/><path fill="#222" d="M199.965 121.21a1.38 1.38 0 0 1-1.38-1.385l.08-56.435c0-.765.62-1.38 1.385-1.38s1.38.62 1.38 1.385l-.08 56.435c0 .765-.62 1.38-1.385 1.38ZM199.965 211.565c-.765 0-1.385-.62-1.385-1.38v-45.96c0-.765.62-1.38 1.385-1.38s1.385.62 1.385 1.38v45.96c0 .765-.62 1.38-1.385 1.38ZM228.49 227.81c-.765 0-1.385-.62-1.385-1.38V186.1c0-.765.62-1.38 1.385-1.38s1.385.62 1.385 1.38v40.33c0 .765-.62 1.38-1.385 1.38Z"/><path fill="#F5F4F3" d="M258.354 143.42v100.42l44.015 25.715V167.64l-44.015-24.22Z"/><path fill="#222" d="M302.37 270.935c-.24 0-.48-.065-.695-.19l-44.015-25.71c-.425-.25-.685-.7-.685-1.195V143.415a1.38 1.38 0 0 1 2.05-1.21l44.015 24.22c.44.245.715.705.715 1.21V269.55a1.382 1.382 0 0 1-1.385 1.385Zm-42.635-27.89 41.25 24.095v-98.69l-41.25-22.7v97.295Z"/><path fill="#222" d="M274.305 226.17c-.765 0-1.385-.62-1.385-1.38v-48.085c0-.765.62-1.38 1.385-1.38s1.385.62 1.385 1.38v48.085c0 .765-.62 1.38-1.385 1.38ZM286.17 232.765c-.765 0-1.385-.62-1.385-1.38V183.3c0-.765.62-1.38 1.385-1.38s1.385.62 1.385 1.38v48.085c0 .765-.62 1.38-1.385 1.38Z"/><path fill="#F5F4F3" d="m150.791 151.95-42.88 25.525 34.48 20.19 43.825-25.34-35.425-20.375Z"/><path fill="#222" d="M142.391 199.045c-.24 0-.485-.065-.7-.19l-34.485-20.19c-.42-.245-.68-.7-.685-1.19 0-.49.255-.945.675-1.195l42.885-25.525a1.38 1.38 0 0 1 1.395-.01l35.42 20.375a1.38 1.38 0 0 1 .005 2.395l-43.82 25.34a1.374 1.374 0 0 1-.69.185v.005Zm-31.765-21.58 31.77 18.6 41.05-23.735-32.64-18.775-40.175 23.915-.005-.005ZM113.065 261.58c-.765 0-1.385-.62-1.385-1.38v-44.35c0-.765.62-1.38 1.385-1.38s1.385.62 1.385 1.38v44.35c0 .765-.62 1.38-1.385 1.38ZM280.36 257.13c-.765 0-1.385-.62-1.385-1.38V155.66c0-.765.62-1.38 1.385-1.38s1.385.62 1.385 1.38v100.09c0 .765-.62 1.38-1.385 1.38Z"/><path fill="#222" d="M98.466 229.545c-.475 0-.94-.25-1.2-.69a1.388 1.388 0 0 1 .505-1.89l101.5-58.71a1.388 1.388 0 0 1 1.89.505c.38.66.155 1.505-.505 1.89l-101.5 58.71c-.22.125-.455.185-.69.185ZM160.79 176.625c2.645 0 4.79-1.296 4.79-2.895s-2.145-2.895-4.79-2.895-4.79 1.296-4.79 2.895 2.145 2.895 4.79 2.895ZM149.005 169.75c2.645 0 4.79-1.296 4.79-2.895s-2.145-2.895-4.79-2.895c-2.646 0-4.79 1.296-4.79 2.895s2.144 2.895 4.79 2.895ZM143.335 186.75c2.645 0 4.79-1.296 4.79-2.895s-2.145-2.895-4.79-2.895c-2.646 0-4.79 1.296-4.79 2.895s2.144 2.895 4.79 2.895ZM131.55 179.875c2.645 0 4.79-1.296 4.79-2.895s-2.145-2.895-4.79-2.895c-2.646 0-4.79 1.296-4.79 2.895s2.144 2.895 4.79 2.895Z"/><path fill="#F5F4F3" d="m144.324 138.955-42.885 24.97 4.235 2.47 42.885-24.975-4.235-2.465Z"/><path fill="#222" d="M105.675 167.775c-.24 0-.48-.06-.695-.19l-4.235-2.465a1.387 1.387 0 0 1 0-2.39l42.885-24.975c.43-.25.96-.25 1.39 0l4.235 2.465a1.387 1.387 0 0 1 0 2.39l-42.885 24.975c-.215.125-.455.19-.695.19Zm-1.485-3.85 1.485.865 40.135-23.375-1.49-.865-40.135 23.375h.005Z"/><path fill="#F5F4F3" d="m148.56 141.42-42.885 24.975 2.235 11.08 42.88-25.525-2.23-10.53Z"/><path fill="#222" d="M107.911 178.86a1.38 1.38 0 0 1-1.355-1.11l-2.235-11.085c-.115-.58.15-1.17.66-1.47l42.885-24.975a1.38 1.38 0 0 1 2.045.905l2.235 10.535c.125.58-.135 1.17-.645 1.475l-42.885 25.525c-.215.13-.46.195-.705.195v.005Zm-.685-11.77 1.655 8.2 40.355-24.02-1.63-7.695-40.38 23.515Z"/><path fill="#F5F4F3" d="m105.675 166.396-4.235-2.47v9.8l6.47 3.75-2.235-11.08Z"/><path fill="#222" d="M107.911 178.861c-.24 0-.48-.06-.695-.185l-6.47-3.75a1.386 1.386 0 0 1-.69-1.195v-9.8a1.388 1.388 0 0 1 2.08-1.2l4.235 2.465c.34.2.58.535.66.92l2.235 11.085a1.385 1.385 0 0 1-1.355 1.655v.005Zm-5.085-5.93 3.125 1.81-1.505-7.465-1.62-.945v6.6Z"/><path fill="#fff" d="M56.47 199.075v46.38l41.815 23.985v-46.21L56.47 199.075Z"/><path fill="#222" d="M98.285 270.82c-.24 0-.475-.06-.69-.185L55.78 246.65a1.382 1.382 0 0 1-.695-1.2v-46.38c0-.495.265-.95.69-1.195a1.397 1.397 0 0 1 1.385 0l41.815 24.155c.425.245.69.705.69 1.195v46.21a1.38 1.38 0 0 1-1.385 1.38l.005.005Zm-40.43-26.17 39.05 22.4v-43.025l-39.05-22.56v43.185ZM322.665 157.475c-.24 0-.48-.06-.69-.185L275 130.115v12.31a1.38 1.38 0 0 1-2.07 1.195l-73.575-42.325a1.382 1.382 0 0 1-.695-1.2v-36.7a1.38 1.38 0 0 1 2.07-1.195l122.625 70.47c.43.245.695.705.695 1.2v22.23c0 .495-.265.95-.69 1.2-.215.125-.45.185-.69.185l-.005-.01ZM275 126.92l46.285 26.775V134.66L275 108.06v18.86Zm-73.575-27.625 70.81 40.735v-33.56l-70.81-40.695v33.52Z"/><path fill="#222" d="M77.42 172.61a1.377 1.377 0 0 1-1.38-1.385V133.86c0-.495.265-.95.695-1.2l122.62-70.464c.43-.245.955-.245 1.38 0 .425.245.69.705.69 1.195v36.854c0 .495-.265.95-.69 1.195L78.11 172.42a1.379 1.379 0 0 1-.695.185l.005.005Zm1.385-37.945v34.165l119.86-69.38V65.78l-119.86 68.88v.005Z"/><path fill="#F5F4F3" d="M56.47 121.545v37.49l20.95 12.195v-37.365l-20.95-12.32Z"/><path fill="#222" d="M77.42 172.61c-.24 0-.48-.06-.695-.19l-20.95-12.195a1.387 1.387 0 0 1-.685-1.195v-37.485c0-.495.265-.955.695-1.2.43-.245.96-.245 1.385.01l20.95 12.32c.42.25.68.7.68 1.19v37.365a1.388 1.388 0 0 1-1.385 1.385l.005-.005Zm-19.565-14.375L76.04 168.82v-34.17l-18.185-10.695v34.28ZM101.945 157.87c-.765 0-1.385-.62-1.385-1.38v-36.4c0-.765.62-1.38 1.385-1.38s1.385.62 1.385 1.38v36.4c0 .765-.62 1.38-1.385 1.38ZM126.47 143.955c-.765 0-1.385-.62-1.385-1.38V106.11c0-.765.62-1.38 1.385-1.38s1.385.62 1.385 1.38v36.465c0 .765-.62 1.38-1.385 1.38ZM175.52 115.42c-.765 0-1.385-.62-1.385-1.38V77.575c0-.765.62-1.38 1.385-1.38s1.385.62 1.385 1.38v36.465c0 .765-.62 1.38-1.385 1.38ZM150.995 129.745c-.765 0-1.385-.62-1.385-1.38V91.899c0-.764.62-1.38 1.385-1.38s1.385.62 1.385 1.38v36.466c0 .765-.62 1.38-1.385 1.38Z"/><path fill="#F5F4F3" d="M343.615 121.546v22.355l-20.95 12.195v-22.23l20.95-12.32Z"/><path fill="#222" d="M322.665 157.476a1.382 1.382 0 0 1-1.385-1.385v-22.23c0-.49.26-.945.68-1.19l20.95-12.32c.425-.25.955-.255 1.385-.01.43.245.695.705.695 1.2v22.35c0 .49-.26.945-.685 1.195l-20.95 12.195c-.215.125-.455.19-.695.19l.005.005Zm1.385-22.82v19.035l18.185-10.585v-19.14l-18.185 10.695v-.005ZM274.305 107.215c-.475 0-.935-.245-1.195-.68a1.383 1.383 0 0 1 .49-1.89l20.49-12.05a1.384 1.384 0 0 1 1.89.49c.385.66.165 1.505-.49 1.89L275 107.025c-.22.13-.46.19-.7.19h.005ZM249.095 93.28c-.475 0-.935-.244-1.195-.68a1.383 1.383 0 0 1 .49-1.89l20.95-12.32a1.384 1.384 0 0 1 1.89.49c.385.66.165 1.506-.49 1.89l-20.95 12.32c-.22.13-.46.19-.7.19h.005ZM200.045 64.78c-.475 0-.935-.245-1.195-.68a1.383 1.383 0 0 1 .49-1.89l20.95-12.32a1.38 1.38 0 1 1 1.4 2.38l-20.95 12.32c-.22.13-.46.19-.7.19h.005ZM174.795 78.96c-.24 0-.48-.06-.7-.19l-20.95-12.32a1.38 1.38 0 0 1 1.4-2.38l20.95 12.32a1.38 1.38 0 0 1-.705 2.57h.005ZM125.62 107.645c-.24 0-.48-.06-.7-.19l-20.95-12.32a1.375 1.375 0 0 1-.49-1.89 1.375 1.375 0 0 1 1.89-.49l20.95 12.32a1.38 1.38 0 0 1-.705 2.57h.005Z"/><path fill="#222" d="M200.045 101.486c-.765 0-1.385-.62-1.385-1.38v-36.71c0-.765.62-1.38 1.385-1.38s1.385.62 1.385 1.38V100.1c0 .765-.62 1.38-1.385 1.38v.005ZM224.57 115.42c-.765 0-1.385-.62-1.385-1.38V77.575c0-.765.62-1.38 1.385-1.38s1.385.62 1.385 1.38v36.465c0 .765-.62 1.38-1.385 1.38ZM249.095 129.745c-.765 0-1.385-.62-1.385-1.38V91.899c0-.764.62-1.38 1.385-1.38s1.385.62 1.385 1.38v36.466c0 .765-.62 1.38-1.385 1.38ZM298.185 143.145c-.765 0-1.385-.62-1.385-1.38V120.09c0-.765.62-1.38 1.385-1.38s1.385.62 1.385 1.38v21.675c0 .765-.62 1.38-1.385 1.38ZM96.205 155.23c-.765 0-1.385-.62-1.385-1.38v-4.835c0-.765.62-1.38 1.385-1.38s1.385.62 1.385 1.38v4.835c0 .765-.62 1.38-1.385 1.38ZM107.575 148.72c-.765 0-1.385-.62-1.385-1.38v-4.835c0-.765.62-1.38 1.385-1.38s1.385.62 1.385 1.38v4.835c0 .765-.62 1.38-1.385 1.38ZM145.31 126.84c-.765 0-1.385-.62-1.385-1.38v-4.835c0-.765.62-1.38 1.385-1.38s1.385.62 1.385 1.38v4.835c0 .765-.62 1.38-1.385 1.38ZM156.685 120.33c-.765 0-1.385-.62-1.385-1.38v-4.835c0-.765.62-1.38 1.385-1.38s1.385.62 1.385 1.38v4.835c0 .765-.62 1.38-1.385 1.38ZM230.345 112.4c-.765 0-1.385-.62-1.385-1.38v-4.835c0-.765.62-1.38 1.385-1.38s1.385.62 1.385 1.38v4.835c0 .765-.62 1.38-1.385 1.38ZM218.975 105.896c-.765 0-1.385-.62-1.385-1.38v-4.835c0-.765.62-1.38 1.385-1.38s1.385.62 1.385 1.38v4.835c0 .765-.62 1.38-1.385 1.38ZM304.01 140.385c-.765 0-1.385-.62-1.385-1.38v-4.835c0-.765.62-1.38 1.385-1.38s1.385.62 1.385 1.38v4.835c0 .765-.62 1.38-1.385 1.38ZM292.635 133.874c-.765 0-1.385-.62-1.385-1.38v-4.835c0-.765.62-1.38 1.385-1.38s1.385.62 1.385 1.38v4.835c0 .765-.62 1.38-1.385 1.38ZM254.785 126.611c-.765 0-1.385-.62-1.385-1.38v-4.835c0-.765.62-1.38 1.385-1.38s1.385.62 1.385 1.38v4.835c0 .765-.62 1.38-1.385 1.38ZM181.07 106.175c-.765 0-1.385-.62-1.385-1.38V99.96c0-.765.62-1.38 1.385-1.38s1.385.62 1.385 1.38v4.835c0 .765-.62 1.38-1.385 1.38ZM301.795 270.515c-.235 0-.47-.06-.69-.185L199.05 211.385a1.38 1.38 0 0 1-.505-1.89 1.38 1.38 0 0 1 1.89-.505l102.055 58.945c.66.38.89 1.225.505 1.89-.255.445-.72.69-1.2.69Z"/><path fill="#222" d="M97.72 270.525c-.48 0-.94-.25-1.2-.69a1.388 1.388 0 0 1 .505-1.89l102.075-58.96a1.388 1.388 0 0 1 1.89.505c.38.66.155 1.505-.505 1.89L98.41 270.34c-.22.125-.455.185-.69.185Z"/><path fill="#DADADA" d="M214.8 319.825a29.517 29.517 0 0 1-29.51 0l-128.82-74.37v13.79l128.815 74.375a29.517 29.517 0 0 0 29.51 0l128.815-74.375v-13.79L214.795 319.83l.005-.005Z"/><path fill="#222" d="M200.045 338.94c-5.34 0-10.68-1.375-15.445-4.125L55.78 260.44a1.375 1.375 0 0 1-.69-1.195v-13.79a1.38 1.38 0 0 1 2.07-1.195l128.815 74.375c8.675 5.01 19.455 5.01 28.125 0l128.815-74.375c.43-.245.955-.245 1.38 0 .43.245.69.705.69 1.195v13.79c0 .495-.265.95-.69 1.195L215.48 334.815a30.892 30.892 0 0 1-15.445 4.125h.01Zm-142.19-80.495L185.98 332.42c8.675 5.01 19.455 5.01 28.125 0l128.125-73.975v-10.6L215.485 321.02c-9.525 5.5-21.365 5.5-30.89 0l-126.74-73.175v10.6Z"/><path fill="#F5F4F3" d="M142.39 197.665V243.3l43.865-25.295V172.27l-43.865 25.395Z"/><path fill="#222" d="M142.39 244.679a1.386 1.386 0 0 1-1.38-1.38v-45.635c0-.495.265-.95.69-1.195l43.865-25.395a1.385 1.385 0 0 1 2.075 1.2v45.73c0 .495-.265.95-.69 1.2l-43.865 25.295c-.215.125-.45.185-.69.185l-.005-.005Zm1.385-46.22v42.445l41.1-23.7v-42.535l-41.1 23.79Z"/><path fill="#222" d="M149.1 200.6v31.465l31.2-18.145v-31.38l-31.2 18.06Z"/><path fill="#222" d="M149.1 233.445a1.382 1.382 0 0 1-1.385-1.385v-31.465c0-.495.265-.95.69-1.195l31.2-18.06a1.385 1.385 0 0 1 2.075 1.2v31.38c0 .49-.26.95-.69 1.195l-31.2 18.14a1.379 1.379 0 0 1-.695.185l.005.005Zm1.385-32.05v28.265l28.435-16.535v-28.19l-28.435 16.46ZM258.345 204.555c-.235 0-.47-.06-.69-.185l-58.38-33.72a1.38 1.38 0 0 1-.505-1.89 1.38 1.38 0 0 1 1.89-.505l58.38 33.72c.66.38.89 1.225.505 1.89-.255.445-.72.69-1.2.69Z"/><path fill="#F5F4F3" d="m279.589 131.335-21.235 12.085 44.015 24.22 20.285-11.675-43.065-24.63Z"/><path fill="#222" d="M302.37 169.02c-.23 0-.46-.055-.665-.17l-44.015-24.22a1.378 1.378 0 0 1-.015-2.41l21.235-12.08c.425-.24.945-.24 1.37 0l43.06 24.625a1.382 1.382 0 0 1 0 2.4l-20.285 11.675c-.215.125-.45.185-.69.185l.005-.005Zm-41.185-25.625 41.17 22.655 17.52-10.085-40.285-23.04-18.405 10.47Z"/></svg>