<svg xmlns="http://www.w3.org/2000/svg" width="400" height="400" fill="none" viewBox="0 0 400 400"><path fill="#F5F4F3" d="M273.324 210.263H96.163c-8.137 0-14.055 9.431-12.02 19.232l19.047 96.163c1.295 7.027 6.288 11.835 12.02 11.835h177.347c8.137 0 14.054-9.431 12.02-19.232l-19.048-96.163c-1.479-6.842-6.472-11.835-12.205-11.835Z"/><path fill="#222" d="M292.372 338.789H115.026c-6.473 0-11.836-5.363-13.5-12.945l-19.048-96.163c-1.11-5.733.185-11.835 3.699-16.089 2.589-3.143 6.102-4.808 9.801-4.808h177.346c6.473 0 11.836 5.363 13.5 12.945l19.048 96.163c1.109 5.733-.185 11.835-3.699 16.089-2.589 3.143-6.103 4.808-9.801 4.808ZM96.162 211.743c-2.773 0-5.547 1.295-7.581 3.884-2.959 3.513-4.069 8.876-3.144 13.684l19.048 96.163c1.294 6.288 5.548 10.726 10.725 10.726h177.347c2.774 0 5.548-1.295 7.582-3.884 2.959-3.513 4.068-8.876 3.144-13.684l-19.048-96.163c-1.295-6.288-5.548-10.726-10.726-10.726H96.163Z"/><path fill="#DADADA" d="M265.742 89.505v-7.952c0-4.623-3.514-8.322-7.767-8.322h-19.972c-2.404 0-4.438 1.11-5.918 2.96-.555-.186-1.294-.37-1.849-.37v-9.062c0-5.363-5.548-9.616-12.39-9.616h-31.623c-6.842 0-12.39 4.253-12.39 9.616v9.061c-.555.185-1.295.37-1.85.37-1.479-1.85-3.513-2.959-5.917-2.959h-19.973c-4.253 0-7.767 3.699-7.767 8.322v7.952c-39.204 22.191-65.464 64.17-65.464 112.436h258.53c0-48.081-26.445-90.245-65.65-112.436Z"/><path fill="#222" d="M324.919 202.867H63.616v-1.295c0-46.232 24.78-89.505 64.909-112.806l1.295-.74 1.479 2.404-1.294.74c-38.835 22.561-63.06 64.355-63.43 109.108H322.33c-.555-45.492-25.15-87.471-64.725-109.848l1.295-2.404c40.869 23.116 66.204 66.759 66.204 113.731v1.11h-.185Z"/><path fill="#fff" d="M59.177 193.066h269.071a8.288 8.288 0 0 1 8.322 8.322v14.794a8.287 8.287 0 0 1-8.322 8.322H59.177a8.287 8.287 0 0 1-8.322-8.322v-14.794a8.288 8.288 0 0 1 8.322-8.322Z"/><path fill="#222" d="M328.248 225.798H59.178c-5.364 0-9.617-4.253-9.617-9.616v-14.794c0-5.363 4.253-9.617 9.616-9.617h269.071c5.363 0 9.616 4.254 9.616 9.617v14.794c0 5.178-4.253 9.616-9.616 9.616ZM59.178 194.36c-3.7 0-6.843 3.144-6.843 6.843v14.794c0 3.699 3.143 6.842 6.842 6.842h269.071c3.698 0 6.842-3.143 6.842-6.842v-14.794c0-3.699-3.144-6.843-6.842-6.843H59.178ZM223.763 179.011h-2.774V66.389c0-4.623-4.993-8.137-10.91-8.137h-31.623c-6.103 0-10.911 3.699-10.911 8.137v112.622h-2.959V66.389c0-6.102 6.103-10.91 13.685-10.91h31.623c7.582 0 13.684 4.993 13.684 10.91v112.622h.185Z"/><path fill="#222" d="M223.763 179.011h-2.774V81.184c0-5.363 4.069-9.801 9.247-9.801h19.972c4.993 0 9.246 4.438 9.246 9.801v67.129h-2.774V81.184c0-3.883-2.958-7.027-6.472-7.027h-19.972c-3.514 0-6.473 3.144-6.473 7.027v97.827ZM167.36 179.011h-2.774V81.184c0-3.883-2.959-7.027-6.472-7.027h-19.788c-3.513 0-6.472 3.144-6.472 7.027v67.129h-2.774V81.184c0-5.363 4.069-9.801 9.246-9.801h19.973c4.993 0 9.246 4.438 9.246 9.801v97.827h-.185Z"/><path fill="#FF3158" d="M59.177 193.066h269.071a8.288 8.288 0 0 1 8.322 8.322v14.794a8.287 8.287 0 0 1-8.322 8.322H59.177a8.287 8.287 0 0 1-8.322-8.322v-14.794a8.288 8.288 0 0 1 8.322-8.322Z"/><path fill="#222" d="M328.248 225.798H59.178c-5.364 0-9.617-4.253-9.617-9.616v-14.794c0-5.363 4.253-9.617 9.616-9.617h269.071c5.363 0 9.616 4.254 9.616 9.617v14.794c0 5.178-4.253 9.616-9.616 9.616ZM59.178 194.36c-3.7 0-6.843 3.144-6.843 6.843v14.794c0 3.699 3.143 6.842 6.842 6.842h269.071c3.698 0 6.842-3.143 6.842-6.842v-14.794c0-3.699-3.144-6.843-6.842-6.843H59.178Z"/><path fill="#444" d="M193.805 170.874c8.988 0 16.274-7.286 16.274-16.274 0-8.988-7.286-16.274-16.274-16.274-8.988 0-16.274 7.286-16.274 16.274 0 8.988 7.286 16.274 16.274 16.274Z"/><path fill="#222" d="M193.805 172.353c-9.801 0-17.753-7.952-17.753-17.753s7.952-17.753 17.753-17.753 17.753 7.952 17.753 17.753-7.952 17.753-17.753 17.753Zm0-32.732a14.916 14.916 0 0 0-14.979 14.979 14.916 14.916 0 0 0 14.979 14.979 14.916 14.916 0 0 0 14.979-14.979c0-8.322-6.842-14.979-14.979-14.979Z"/><path fill="#fff" d="M193.805 165.511c6.026 0 10.911-4.885 10.911-10.911s-4.885-10.911-10.911-10.911-10.911 4.885-10.911 10.911 4.885 10.911 10.911 10.911Z"/><path fill="#222" d="M193.805 166.805c-6.658 0-12.205-5.548-12.205-12.205 0-6.658 5.547-12.205 12.205-12.205 6.657 0 12.205 5.547 12.205 12.205 0 6.842-5.548 12.205-12.205 12.205Zm0-21.637c-5.178 0-9.431 4.254-9.431 9.432 0 5.178 4.253 9.431 9.431 9.431 5.178 0 9.431-4.253 9.431-9.431 0-5.178-4.253-9.432-9.431-9.432Z"/><path fill="#444" d="M305.871 283.495c-33.102-12.205-55.293-44.198-55.293-79.519V167.73l58.622-26.815 58.622 26.815v36.246c0 35.321-22.191 67.314-55.293 79.519l-3.329 1.294-3.329-1.294Z"/><path fill="#222" d="M309.2 286.083h-.555l-3.328-1.294c-33.657-12.39-56.219-44.938-56.219-80.814v-36.246c0-.555.37-1.109.74-1.294l58.622-26.815a1.18 1.18 0 0 1 1.11 0l58.807 26.815c.555.185.74.739.74 1.294v36.246c0 36.061-22.561 68.424-56.218 80.814l-3.329 1.294h-.37Zm-2.774-3.883 2.774 1.109 2.774-1.109c32.547-12.02 54.369-43.458 54.369-78.225v-35.321l-57.328-26.075-57.328 26.075v35.321c.185 34.767 22.192 66.205 54.739 78.225Z"/><path fill="#fff" d="M358.206 173.833 309.2 151.642l-49.006 22.191v29.958c0 32.363 20.342 59.917 49.006 70.643 28.664-10.541 49.006-38.095 49.006-70.643v-29.958Z"/><path fill="#222" d="M309.2 275.728h-.555c-29.958-10.91-49.93-39.944-49.93-71.937v-29.958c0-.555.37-1.11.74-1.295l49.006-22.376a1.177 1.177 0 0 1 1.109 0l49.191 22.376c.555.185.925.74.925 1.295v29.958c0 31.993-20.157 60.842-49.931 71.937h-.555Zm-47.526-100.97v29.033c0 30.698 19.047 58.253 47.711 68.979 28.479-10.726 47.712-38.465 47.712-68.979v-29.033l-47.712-21.637-47.711 21.637Z"/><path fill="#FF3158" d="m272.399 206.011 10.541-9.986 20.527 22.007 38.281-40.13 9.246 11.096-47.527 49.746-31.068-32.733Z"/><path fill="#222" d="M303.467 240.222c-.369 0-.739-.185-.924-.369l-31.068-32.918a1.41 1.41 0 0 1-.37-.924c0-.37.185-.74.37-.925l10.541-9.801c.185-.185.555-.37.924-.37.37 0 .74.185.925.37l19.602 20.897 37.356-39.02c.185-.37.74-.37 1.11-.37.369 0 .739.185 1.109.555l9.062 11.095a1.684 1.684 0 0 1 0 1.85l-47.342 49.93c-.555-.185-.925 0-1.295 0Zm-29.033-34.211 29.218 30.698 45.493-47.897-7.397-8.876-37.171 39.02c-.185.185-.555.554-.925.37a1.41 1.41 0 0 1-.924-.37l-19.788-20.897-8.506 7.952Z"/><path fill="#444" d="M251.502 265.373h10.726c2.959 0 5.548 2.404 5.548 5.548v26.815c0 2.958-2.404 5.547-5.548 5.547h-10.726v-37.91Z"/><path fill="#222" d="M262.228 304.578h-12.205v-40.684h12.205c3.884 0 6.843 3.143 6.843 6.842v26.999c.185 3.884-2.959 6.843-6.843 6.843Zm-9.246-2.774h9.431c2.219 0 4.069-1.849 4.069-4.069v-26.814c0-2.219-1.85-4.069-4.069-4.069h-9.431v34.952Z"/><path fill="#444" d="M48.081 265.373h10.911v37.91h-10.91a5.367 5.367 0 0 1-5.364-5.363v-26.999c0-3.144 2.405-5.548 5.363-5.548Z"/><path fill="#222" d="M60.287 304.578H48.08c-3.698 0-6.842-3.144-6.842-6.843v-26.999c0-3.329 2.404-6.103 5.363-6.658v-.184h13.685v40.684ZM48.08 266.852c-2.219 0-4.068 1.85-4.068 4.069v26.814c0 2.22 1.85 4.069 4.068 4.069h9.432v-35.137l-9.432.185Z"/><path fill="#FF3158" d="M225.058 327.139h-24.411c-13.5 0-26.26-6.657-34.212-17.568l-5.917-8.507c-3.514-5.732-6.473-5.917-10.541 0l-6.103 8.507c-7.952 10.911-20.527 17.383-34.212 17.383H85.437c-14.61 0-26.445-11.835-26.445-26.444v-34.582c0-7.767 6.288-14.24 14.24-14.24h164.216c7.767 0 14.239 6.288 14.239 14.24v34.582c-.185 14.794-12.02 26.629-26.629 26.629Z"/><path fill="#222" d="M225.058 328.433h-24.411c-14.054 0-27.184-6.842-35.321-18.123l-6.103-8.507c-1.479-2.589-2.774-3.698-3.883-3.883-1.11 0-2.589 1.294-4.439 3.698l-6.287 8.692c-8.137 11.281-21.267 18.123-35.321 18.123H85.437c-15.35 0-27.74-12.39-27.74-27.739v-34.582c0-8.692 7.028-15.534 15.534-15.534h164.217c8.691 0 15.534 7.027 15.534 15.534v34.582c0 15.349-12.575 27.739-27.924 27.739Zm-69.718-33.102c.185 0 .185 0 0 0 2.959 0 4.993 2.959 6.287 4.993l5.918 8.322c7.582 10.725 19.972 17.013 33.102 17.013h24.411c13.869 0 24.965-11.281 24.965-24.965v-34.582c0-7.027-5.733-12.76-12.76-12.76H73.232c-7.028 0-12.76 5.733-12.76 12.76v34.582c0 13.869 11.28 24.965 24.965 24.965h24.225c13.13 0 25.336-6.288 32.918-16.828l6.287-8.692c2.219-3.329 4.254-4.808 6.473-4.808Z"/><path fill="#DADADA" d="M200.832 318.816c-10.911 0-21.082-5.363-27.554-14.054l-5.918-8.137c-1.479-2.219-5.178-8.137-12.02-8.137s-10.911 5.918-12.205 7.952l-6.103 8.507c-6.288 8.876-16.644 14.054-27.369 14.054H85.437c-9.986 0-18.123-8.137-18.123-18.123v-34.581c0-3.329 2.774-5.918 5.918-5.918h164.216c3.329 0 5.918 2.589 5.918 5.918v34.581c0 9.986-8.137 18.123-18.123 18.123l-24.411-.185Z"/><path fill="#222" d="M225.058 320.295h-24.411c-11.28 0-22.006-5.548-28.664-14.794l-5.917-8.137c-3.144-5.178-6.658-7.582-10.911-7.582-6.103 0-9.801 5.548-11.096 7.212l-6.102 8.507c-6.658 9.062-17.199 14.609-28.479 14.609H85.437c-10.726 0-19.602-8.691-19.602-19.602v-34.582c0-4.068 3.328-7.397 7.397-7.397h164.216c4.068 0 7.397 3.329 7.397 7.397v34.582c-.185 10.911-8.876 19.787-19.787 19.787Zm-69.718-33.287c5.178 0 9.616 2.959 13.13 8.692l5.732 8.137c6.103 8.506 15.904 13.5 26.445 13.5h24.411c9.246 0 16.828-7.583 16.828-16.829v-34.582c0-2.589-2.034-4.623-4.623-4.623H73.232c-2.59 0-4.624 2.034-4.624 4.623v34.582c0 9.246 7.582 16.829 16.829 16.829h24.225a32.342 32.342 0 0 0 26.26-13.5l6.103-8.507c1.479-1.849 5.733-8.322 13.315-8.322Z"/><path fill="#fff" d="M82.108 269.07h61.211c2.219 0 4.069 1.85 4.069 4.069s-1.85 4.068-4.069 4.068H82.108c-2.22 0-4.068-1.849-4.068-4.068 0-2.219 1.849-4.069 4.068-4.069ZM82.108 282.94h28.479c2.219 0 4.068 1.85 4.068 4.069s-1.849 4.068-4.068 4.068H82.108c-2.22 0-4.068-1.849-4.068-4.068 0-2.219 1.849-4.069 4.068-4.069Z"/></svg>