<svg xmlns="http://www.w3.org/2000/svg" width="400" height="401" fill="none" viewBox="0 0 400 401"><path fill="#DADADA" d="M236.33 190.185H83.225c-7.044 0-12.048 8.155-10.38 16.682l16.497 83.04c1.112 5.931 5.56 10.194 10.38 10.194h153.104c7.044 0 12.049-8.156 10.38-16.682l-16.496-83.04c-1.112-5.931-5.376-10.194-10.38-10.194Z"/><path fill="#222" d="M252.827 301.398H99.537c-5.561 0-10.38-4.634-11.863-11.307l-16.497-83.039c-.927-5.005.185-10.38 3.151-14.088 2.224-2.78 5.376-4.263 8.526-4.263h153.291c5.56 0 10.38 4.634 11.862 11.307l16.497 83.04c.927 5.004-.185 10.38-3.151 14.087-2.224 2.78-5.375 4.263-8.526 4.263ZM83.225 191.482c-2.41 0-4.634 1.112-6.487 3.336-2.41 2.966-3.522 7.414-2.595 11.677l16.496 83.04c1.113 5.376 4.82 9.083 9.083 9.083h153.105c2.409 0 4.634-1.112 6.487-3.337 2.41-2.965 3.522-7.414 2.595-11.677l-16.497-83.04c-1.112-5.375-4.819-9.082-9.082-9.082H83.225Z"/><path fill="#444" d="M243.929 182.956H90.824c-7.043 0-12.048 8.156-10.38 16.682l16.497 83.04c1.112 5.931 5.561 10.195 10.38 10.195h153.29c7.043 0 12.048-8.156 10.38-16.682l-16.497-83.04c-1.297-5.932-5.561-10.195-10.565-10.195Z"/><path fill="#222" d="M260.426 294.355h-153.29c-5.561 0-10.38-4.634-11.863-11.307l-16.497-83.039c-.927-5.005.186-10.38 3.151-14.088 2.224-2.78 5.376-4.263 8.527-4.263h153.29c5.56 0 10.38 4.634 11.863 11.307l16.496 83.04c.927 5.004-.185 10.38-3.151 14.087-2.224 2.78-5.375 4.263-8.526 4.263ZM90.824 184.439c-2.41 0-4.634 1.112-6.487 3.336-2.41 2.966-3.522 7.414-2.595 11.677l16.497 83.04c1.112 5.376 4.819 9.083 9.082 9.083h153.105c2.409 0 4.634-1.112 6.487-3.337 2.41-2.965 3.522-7.414 2.595-11.677l-16.496-83.04c-1.113-5.375-4.82-9.082-9.083-9.082H90.824Z"/><path fill="#DADADA" d="M270.621 101.77v-8.712c0-5.005-3.892-9.083-8.526-9.083h-21.687c-2.595 0-5.005 1.298-6.487 3.337-.742-.186-1.298-.371-2.039-.371v-9.824c0-5.746-6.117-10.565-13.531-10.565h-34.477c-7.414 0-13.531 4.634-13.531 10.565v9.824c-.741.185-1.297.37-2.039.37-1.483-2.038-3.892-3.336-6.487-3.336H140.13c-4.634 0-8.526 4.078-8.526 9.083v8.712c-42.633 24.281-71.363 70.064-71.363 122.52h281.743c0-52.641-28.731-98.424-71.363-122.52Z"/><path fill="#222" d="M334.94 225.217H50.418v-1.482c0-50.417 27.062-97.498 70.62-122.892l.371-.185 1.112-.556 1.298 2.409c-.371.186-.742.371-.927.556l-.556.186c-42.261 24.652-68.582 70.25-69.138 119.184H332.16c-.556-49.676-27.433-95.459-70.621-119.926l1.297-2.409c44.486 25.208 72.104 72.659 72.104 123.818v1.297Z"/><path fill="#fff" d="M45.413 214.467h293.42c5.005 0 9.083 4.078 9.083 8.897v16.126c0 5.005-4.078 9.082-9.083 9.082H45.413c-5.004 0-9.082-4.077-9.082-9.082v-16.126c0-4.819 4.078-8.897 9.082-8.897Z"/><path fill="#222" d="M338.833 250.055H45.413a10.363 10.363 0 0 1-10.38-10.38v-16.126c0-5.746 4.634-10.38 10.38-10.38h293.42c5.746 0 10.38 4.634 10.38 10.38v16.126c-.185 5.746-4.819 10.38-10.38 10.38Zm-293.42-34.106c-4.263 0-7.6 3.337-7.6 7.6v16.126c0 4.263 3.337 7.6 7.6 7.6h293.42c4.263 0 7.6-3.337 7.6-7.6v-16.126c0-4.263-3.337-7.6-7.6-7.6H45.413ZM224.837 199.082h-2.78V76.376c0-5.005-5.375-9.083-12.048-9.083h-34.662c-6.673 0-12.048 4.078-12.048 9.082v122.707h-2.78V76.376c0-6.488 6.672-11.863 14.828-11.863h34.476c8.156 0 14.829 5.375 14.829 11.862v122.707h.185Z"/><path fill="#222" d="M224.837 199.082h-2.78V92.502c0-5.746 4.449-10.566 9.824-10.566h21.687c5.375 0 9.824 4.634 9.824 10.566v73.216h-2.781V92.502c0-4.263-3.151-7.785-7.043-7.785h-21.687c-3.892 0-7.044 3.522-7.044 7.785v106.58ZM163.3 199.081h-2.781V92.686c0-4.263-3.151-7.785-7.043-7.785h-21.872c-3.893 0-7.044 3.522-7.044 7.785v73.031h-2.78v-73.03c0-5.747 4.448-10.566 9.824-10.566h21.686c5.376 0 9.824 4.634 9.824 10.565v106.395h.186Z"/><path fill="#FF3158" d="M45.413 214.467h293.42c5.005 0 9.083 4.078 9.083 8.897v16.126c0 5.005-4.078 9.082-9.083 9.082H45.413c-5.004 0-9.082-4.077-9.082-9.082v-16.126c0-4.819 4.078-8.897 9.082-8.897Z"/><path fill="#222" d="M338.833 250.055H45.413a10.363 10.363 0 0 1-10.38-10.38v-16.126c0-5.746 4.634-10.38 10.38-10.38h293.42c5.746 0 10.38 4.634 10.38 10.38v16.126c-.185 5.746-4.819 10.38-10.38 10.38Zm-293.42-34.106c-4.263 0-7.6 3.337-7.6 7.6v16.126c0 4.263 3.337 7.6 7.6 7.6h293.42c4.263 0 7.6-3.337 7.6-7.6v-16.126c0-4.263-3.337-7.6-7.6-7.6H45.413Z"/><path fill="#444" d="M192.03 190.37c9.827 0 17.794-7.967 17.794-17.794 0-9.828-7.967-17.795-17.794-17.795-9.828 0-17.795 7.967-17.795 17.795 0 9.827 7.967 17.794 17.795 17.794Z"/><path fill="#222" d="M192.03 191.853c-10.565 0-19.277-8.712-19.277-19.277 0-10.565 8.712-19.277 19.277-19.277 10.565 0 19.277 8.712 19.277 19.277 0 10.565-8.712 19.277-19.277 19.277Zm0-35.588c-9.082 0-16.497 7.414-16.497 16.496 0 9.083 7.415 16.497 16.497 16.497 9.083 0 16.497-7.414 16.497-16.497 0-9.082-7.414-16.496-16.497-16.496Z"/><path fill="#fff" d="M192.03 184.439c6.552 0 11.863-5.312 11.863-11.863 0-6.552-5.311-11.863-11.863-11.863-6.551 0-11.863 5.311-11.863 11.863 0 6.551 5.312 11.863 11.863 11.863Z"/><path fill="#222" d="M192.03 185.921c-7.229 0-13.16-5.931-13.16-13.16s5.931-13.16 13.16-13.16 13.16 5.931 13.16 13.16-5.931 13.16-13.16 13.16Zm0-23.725a10.363 10.363 0 0 0-10.38 10.38c0 5.746 4.634 10.38 10.38 10.38s10.38-4.634 10.38-10.38-4.634-10.38-10.38-10.38Z"/><path fill="#444" d="M295.274 325.866c-36.145-13.346-60.426-48.193-60.426-86.747v-39.481l63.948-29.101 63.948 29.101v39.481c0 38.554-24.282 73.401-60.241 86.747l-3.707 1.298-3.522-1.298Z"/><path fill="#222" d="M298.981 328.647h-.556l-3.707-1.298c-36.701-13.531-61.168-48.934-61.168-88.044v-39.481c0-.556.371-1.112.741-1.298l63.948-29.101a1.183 1.183 0 0 1 1.112 0l63.949 29.101c.556.186.741.742.741 1.298v39.481c0 39.11-24.652 74.513-61.168 88.044l-3.707 1.298h-.185Zm-3.151-4.078 3.151 1.112 3.151-1.112c35.588-13.161 59.314-47.452 59.314-85.45v-38.554l-62.651-28.545-62.65 28.545v38.554c.185 37.998 24.096 72.475 59.685 85.45Z"/><path fill="#fff" d="m352.364 206.496-53.383-24.282-53.568 24.282v32.622c0 35.404 22.243 65.431 53.383 76.923 31.14-11.492 53.383-41.519 53.383-76.923v-32.622h.185Z"/><path fill="#222" d="M298.981 317.524h-.556c-32.438-12.048-54.31-43.373-54.31-78.22v-32.808c0-.556.371-1.113.742-1.298l53.568-24.282a1.183 1.183 0 0 1 1.112 0l53.383 24.282c.556.185.741.742.741 1.298v32.622c0 34.847-21.872 66.173-54.309 78.221 0 0-.186.185-.371.185Zm-52.085-110.102v31.696c0 33.365 20.945 63.763 52.085 75.441 31.14-11.678 52.085-41.891 52.085-75.441v-31.696l-52.085-23.725-52.085 23.725Z"/><path fill="#FF3158" d="m258.758 241.528 11.492-10.936 22.428 24.097 41.705-43.745 10.01 11.863-51.715 54.495-33.92-35.774Z"/><path fill="#222" d="M292.679 278.6c-.371 0-.742-.185-.927-.371l-33.92-35.773a1.455 1.455 0 0 1 0-2.039l11.306-10.751a1.42 1.42 0 0 1 .927-.371c.371 0 .742.186.927.371l21.501 22.984 40.779-42.632c.185-.371.556-.371 1.112-.371.371 0 .741.186 1.112.557l9.824 12.048a1.682 1.682 0 0 1 0 1.853l-51.715 54.31c-.185 0-.556.185-.926.185Zm-31.882-37.071 31.882 33.735 49.861-52.456-8.156-9.824-40.593 42.632c-.186.185-.556.556-.927.371a1.42 1.42 0 0 1-.927-.371l-21.501-22.984-9.639 8.897Z"/></svg>