<svg xmlns="http://www.w3.org/2000/svg" width="400" height="401" fill="none" viewBox="0 0 400 401"><path fill="#fff" d="M164.081 65.88H60.516v82.231H164.08v-82.23Z"/><path fill="#DADADA" d="M77.77 115.66h91.88V60.33H64.525v82.225H77.77V115.66ZM344.606 286.66v23.54H82.656v-23.54H62.14l-28.72 49.69h314.86l28.72-49.69h-32.395Z"/><path fill="#222" d="M337.861 343.25H23.001a1.38 1.38 0 0 1-1.195-.69 1.397 1.397 0 0 1 0-1.385l28.715-49.69c.245-.425.705-.69 1.195-.69h20.52c.765 0 1.385.62 1.385 1.385v22.155H332.8V292.18c0-.765.62-1.385 1.38-1.385h32.395c.495 0 .95.265 1.195.69.245.43.245.955 0 1.385l-28.715 49.69c-.245.425-.705.69-1.195.69Zm-312.465-2.765h311.67l27.12-46.925h-28.615v22.155c0 .765-.62 1.385-1.38 1.385H72.236c-.765 0-1.385-.62-1.385-1.385V293.56H52.51l-27.12 46.925h.005Z" style="mix-blend-mode:multiply"/><path fill="#fff" d="M334.18 121.195H72.235v194.52H334.18v-194.52Z"/><path fill="#222" d="M334.185 317.101H72.235a1.38 1.38 0 0 1-1.38-1.385v-194.52c0-.765.62-1.385 1.38-1.385h261.95c.765 0 1.38.62 1.38 1.385v194.52c0 .765-.62 1.385-1.38 1.385ZM73.62 314.336H332.8V122.581H73.62v191.755Z"/><path fill="#DADADA" d="m271.425 140.836 9.4 16.275-78.95 51.36-30.9-53.51-76.34 49.045 5.655 9.795 66.51-43.25 30.9 53.51 88.83-57.07 9.4 16.275 17.345-38.31-41.85-4.12Z"/><path fill="#222" d="M196.21 231.411a1.397 1.397 0 0 1-1.195-.69l-30.17-52.245-65.285 42.455a1.381 1.381 0 0 1-1.95-.47l-5.655-9.795c-.37-.64-.17-1.455.45-1.855l76.34-49.045a1.38 1.38 0 0 1 1.075-.18c.365.09.68.325.87.65l30.17 52.245 76.625-49.85-8.745-15.14a1.382 1.382 0 0 1 1.33-2.065l41.855 4.12a1.379 1.379 0 0 1 1.12 1.945l-17.345 38.31c-.215.47-.675.785-1.19.81a1.39 1.39 0 0 1-1.265-.69l-8.675-15.02-87.61 56.285c-.225.145-.485.22-.745.22l-.005.005Zm-30.9-56.275a1.384 1.384 0 0 1 1.195.695l30.175 52.255 87.61-56.285a1.38 1.38 0 0 1 1.075-.18c.365.09.68.325.87.65l8.055 13.945 15.44-34.105-37.255-3.67 8.055 13.945c.37.635.175 1.45-.445 1.85l-78.95 51.36a1.382 1.382 0 0 1-1.95-.47l-30.175-52.255L95 210.421l4.27 7.39 65.285-42.455c.225-.145.49-.225.755-.225v.005Z"/><path fill="#FF3158" d="M123.825 237.676h-13.22v78.04h13.22v-78.04Z"/><path fill="#222" d="M123.826 317.101h-13.22c-.765 0-1.385-.62-1.385-1.385v-78.04c0-.765.62-1.385 1.385-1.385h13.22c.765 0 1.38.62 1.38 1.385v78.04c0 .765-.62 1.385-1.38 1.385Zm-11.84-2.765h10.455v-75.275h-10.455v75.275Z"/><path fill="#FF3158" d="M164.071 213.42h-13.22v102.295h13.22V213.42Z"/><path fill="#222" d="M164.071 317.1h-13.22a1.38 1.38 0 0 1-1.38-1.385V213.42c0-.765.62-1.385 1.38-1.385h13.22c.765 0 1.38.62 1.38 1.385v102.295c0 .765-.62 1.385-1.38 1.385Zm-11.84-2.765h10.455v-99.53h-10.455v99.53Z"/><path fill="#FF3158" d="M204.315 255.211h-13.22v60.505h13.22v-60.505Z"/><path fill="#222" d="M204.315 317.101h-13.22a1.38 1.38 0 0 1-1.38-1.385v-60.505c0-.765.62-1.385 1.38-1.385h13.22c.765 0 1.38.62 1.38 1.385v60.505c0 .765-.62 1.385-1.38 1.385Zm-11.84-2.765h10.455v-57.74h-10.455v57.74Z"/><path fill="#FF3158" d="M244.56 233.966h-13.22v81.75h13.22v-81.75Z"/><path fill="#222" d="M244.56 317.101h-13.22a1.38 1.38 0 0 1-1.38-1.385v-81.75c0-.765.62-1.385 1.38-1.385h13.22c.765 0 1.38.62 1.38 1.385v81.75c0 .765-.62 1.385-1.38 1.385Zm-11.84-2.765h10.455v-78.985H232.72v78.985Z"/><path fill="#FF3158" d="M284.805 209.441h-13.22v106.275h13.22V209.441Z"/><path fill="#222" d="M284.805 317.102h-13.22a1.38 1.38 0 0 1-1.38-1.385V209.442c0-.765.62-1.385 1.38-1.385h13.22c.765 0 1.38.62 1.38 1.385v106.275c0 .765-.62 1.385-1.38 1.385Zm-11.84-2.765h10.455v-103.51h-10.455v103.51ZM164.086 149.49H58.961c-.765 0-1.385-.62-1.385-1.385V65.88c0-.765.62-1.385 1.385-1.385h105.12c.765 0 1.38.62 1.38 1.385v82.23c0 .765-.62 1.385-1.38 1.385l.005-.005Zm-103.74-2.765h102.355v-79.46H60.346v79.46Z"/><path fill="#444" d="M52.426 59.13v82.231l6.535 6.75v-82.23l-6.535-6.75Z"/><path fill="#222" d="M58.961 149.491c-.365 0-.73-.145-.995-.42l-6.54-6.75c-.25-.26-.39-.606-.39-.961V59.13a1.381 1.381 0 0 1 2.375-.96l6.54 6.75c.25.26.39.605.39.96v82.23c0 .565-.34 1.07-.865 1.28-.17.07-.345.101-.52.101h.005Zm-5.155-8.691 3.775 3.896V66.441l-3.775-3.896V140.8Z"/><path fill="#444" d="M157.546 59.13H52.426l6.535 6.75h105.125l-6.54-6.75Z"/><path fill="#222" d="M164.086 67.265H58.961a1.38 1.38 0 0 1-.995-.42l-6.54-6.75c-.385-.4-.495-.99-.28-1.5.215-.51.72-.845 1.275-.845h105.12c.375 0 .735.15.995.42l6.54 6.75c.385.4.495.99.28 1.5-.215.51-.72.845-1.275.845h.005ZM59.551 64.5h101.27l-3.86-3.985H55.691l3.86 3.985ZM74.416 95.095c-.3 0-.605-.1-.86-.3-.6-.475-.7-1.345-.225-1.94l9.32-11.745a1.382 1.382 0 0 1 2.17 0l9.32 11.745c.475.6.375 1.47-.225 1.94-.6.475-1.47.375-1.94-.225l-8.235-10.38-8.235 10.38a1.38 1.38 0 0 1-1.085.525h-.005Z"/><path fill="#222" d="M83.736 133.405c-.765 0-1.385-.62-1.385-1.385V81.965a1.385 1.385 0 1 1 2.77 0v50.055c0 .765-.62 1.385-1.385 1.385ZM102.206 107.56c-.3 0-.605-.1-.86-.3-.6-.475-.7-1.345-.225-1.94l9.32-11.745a1.382 1.382 0 0 1 2.17 0l9.32 11.745c.475.6.375 1.47-.225 1.94-.6.475-1.47.375-1.94-.225l-8.235-10.38-8.235 10.38a1.38 1.38 0 0 1-1.085.525h-.005Z"/><path fill="#222" d="M111.526 133.405c-.765 0-1.385-.62-1.385-1.385V94.425a1.385 1.385 0 1 1 2.77 0v37.595c0 .765-.62 1.385-1.385 1.385ZM129.996 100.61c-.3 0-.605-.1-.86-.3-.6-.475-.7-1.345-.225-1.94l9.32-11.745a1.382 1.382 0 0 1 2.17 0l9.32 11.745c.475.6.375 1.47-.225 1.94-.6.475-1.47.375-1.94-.225l-8.235-10.38-8.235 10.38a1.38 1.38 0 0 1-1.085.525h-.005Z"/><path fill="#222" d="M139.311 133.405a1.38 1.38 0 0 1-1.38-1.385V87.48c0-.765.62-1.385 1.38-1.385.76 0 1.38.62 1.38 1.385v44.54c0 .765-.62 1.385-1.38 1.385Z"/></svg>