<svg xmlns="http://www.w3.org/2000/svg" width="400" height="401" fill="none" viewBox="0 0 400 401"><path fill="#fff" d="M330.555 108.595H68.61v194.52h261.945v-194.52Z"/><path fill="#222" d="M330.555 304.495H68.61a1.38 1.38 0 0 1-1.38-1.385V108.595c0-.765.62-1.385 1.38-1.385h261.945c.765 0 1.38.62 1.38 1.385v194.52c0 .765-.62 1.385-1.38 1.385v-.005ZM69.99 301.73h259.185V109.98H69.995v191.755l-.005-.005Z"/><path fill="#DADADA" d="m267.795 128.229 9.405 16.28-78.95 51.36-30.9-53.51-76.34 49.045 5.655 9.795 66.51-43.25 30.9 53.51 88.83-57.07 9.4 16.275 17.345-38.31-41.855-4.125Z"/><path fill="#222" d="M192.585 218.809a1.397 1.397 0 0 1-1.195-.69l-30.17-52.245-65.29 42.455a1.384 1.384 0 0 1-1.95-.47l-5.655-9.795c-.37-.64-.17-1.455.45-1.855l76.34-49.045c.315-.205.705-.27 1.075-.18.365.09.68.325.87.65l30.17 52.245 76.625-49.85-8.745-15.14a1.382 1.382 0 0 1 1.33-2.065l41.855 4.12a1.379 1.379 0 0 1 1.12 1.945l-17.345 38.31c-.215.47-.675.785-1.19.81a1.405 1.405 0 0 1-1.265-.69l-8.675-15.02-87.61 56.285c-.225.145-.485.22-.745.22v.005Zm-30.9-56.275a1.384 1.384 0 0 1 1.195.695l30.175 52.255 87.61-56.285a1.384 1.384 0 0 1 1.945.47l8.05 13.945 15.44-34.105-37.255-3.67 8.055 13.945c.37.635.175 1.45-.445 1.85l-78.95 51.36a1.384 1.384 0 0 1-1.95-.47l-30.175-52.255-74.01 47.55 4.27 7.39 65.285-42.455c.225-.145.49-.225.755-.225l.005.005Z"/><path fill="#FF3158" d="M120.2 225.074h-13.22v78.04h13.22v-78.04Z"/><path fill="#222" d="M120.2 304.494h-13.22a1.38 1.38 0 0 1-1.38-1.385v-78.04c0-.765.62-1.385 1.38-1.385h13.22c.765 0 1.38.62 1.38 1.385v78.04c0 .765-.62 1.385-1.38 1.385Zm-11.84-2.765h10.46v-75.275h-10.46v75.275Z"/><path fill="#FF3158" d="M160.445 200.82h-13.22v102.295h13.22V200.82Z"/><path fill="#222" d="M160.445 304.495H147.22a1.38 1.38 0 0 1-1.38-1.385V200.815c0-.765.62-1.385 1.38-1.385h13.225c.765 0 1.38.62 1.38 1.385V303.11c0 .765-.62 1.385-1.38 1.385Zm-11.84-2.765h10.46V202.2h-10.46v99.53Z"/><path fill="#FF3158" d="M200.69 242.609h-13.22v60.505h13.22v-60.505Z"/><path fill="#222" d="M200.69 304.494h-13.22a1.38 1.38 0 0 1-1.38-1.385v-60.505c0-.765.62-1.385 1.38-1.385h13.22c.765 0 1.38.62 1.38 1.385v60.505c0 .765-.62 1.385-1.38 1.385Zm-11.84-2.765h10.46v-57.74h-10.46v57.74Z"/><path fill="#FF3158" d="M240.935 221.365h-13.22v81.75h13.22v-81.75Z"/><path fill="#222" d="M240.935 304.495h-13.22a1.38 1.38 0 0 1-1.38-1.385v-81.75c0-.765.62-1.385 1.38-1.385h13.22c.765 0 1.38.62 1.38 1.385v81.75c0 .765-.62 1.385-1.38 1.385Zm-11.84-2.765h10.46v-78.985h-10.46v78.985Z"/><path fill="#FF3158" d="M281.18 196.84h-13.22v106.275h13.22V196.84Z"/><path fill="#222" d="M281.18 304.494h-13.22a1.38 1.38 0 0 1-1.38-1.385V196.834c0-.765.62-1.385 1.38-1.385h13.22c.765 0 1.38.62 1.38 1.385v106.275c0 .765-.62 1.385-1.38 1.385Zm-11.84-2.765h10.46v-103.51h-10.46v103.51Z"/></svg>