<svg xmlns="http://www.w3.org/2000/svg" width="401" height="401" fill="none" viewBox="0 0 401 401"><path fill="#FF3158" d="M45.885 277.065v-144.25l39.74 18.935v144.255l-39.74-18.94Z"/><path fill="#222" d="M85.625 297.391c-.205 0-.41-.045-.595-.135l-39.74-18.935c-.485-.23-.79-.72-.79-1.255v-144.25a1.39 1.39 0 0 1 1.99-1.255l39.74 18.935c.485.23.79.72.79 1.255v144.25a1.39 1.39 0 0 1-1.39 1.39h-.005Zm-38.35-21.205 36.965 17.615V152.626l-36.965-17.615v141.175Z"/><path fill="#FF3158" d="M337.68 151.749H85.625v144.25H337.68v-144.25Z"/><path fill="#222" d="M337.68 297.389H85.625a1.39 1.39 0 0 1-1.39-1.39v-144.25c0-.765.62-1.39 1.39-1.39H337.68c.765 0 1.39.62 1.39 1.39v144.25c0 .765-.62 1.39-1.39 1.39Zm-250.665-2.78h249.28v-141.47H87.01v141.475l.005-.005Z"/><path fill="#FF3158" d="M45.885 132.885H297.94l39.74 18.865H85.625l-39.74-18.865Z"/><path fill="#222" d="M337.68 153.14H85.625c-.205 0-.41-.045-.595-.135L45.29 134.14a1.39 1.39 0 0 1 .595-2.645H297.94c.205 0 .41.045.595.135l39.74 18.865a1.39 1.39 0 0 1-.595 2.645Zm-251.745-2.78h245.58l-33.89-16.085H52.045l33.89 16.085Z"/><path fill="#444" d="M130.715 89.535v49l6.12 3.74h11.835V109.11h85.805v29.425l6.115 3.74h12.255v-49l-6.115-3.74H130.715Z"/><path fill="#222" d="M252.845 143.666H240.59c-.255 0-.505-.07-.725-.205l-6.115-3.74a1.38 1.38 0 0 1-.665-1.185v-28.04H150.06v31.775c0 .765-.62 1.39-1.39 1.39h-11.835c-.255 0-.505-.07-.725-.205l-6.115-3.74a1.38 1.38 0 0 1-.665-1.185v-49c0-.765.62-1.39 1.39-1.39h116.01c.255 0 .505.07.725.205l6.115 3.74c.415.25.665.7.665 1.185v49c0 .765-.62 1.39-1.39 1.39v.005Zm-11.86-2.78h10.475V94.051l-5.115-3.13h-114.23v46.835l5.12 3.13h10.055v-31.775c0-.765.62-1.39 1.39-1.39h85.805c.765 0 1.39.62 1.39 1.39v28.65l5.12 3.13-.01-.005Z"/><path fill="#DADADA" d="M136.835 93.275v49h12.48v-31.28h91.275v31.28h12.255v-49h-116.01Z"/><path fill="#222" d="M252.845 143.666H240.59a1.39 1.39 0 0 1-1.39-1.39v-29.895h-88.5v29.895c0 .765-.62 1.39-1.39 1.39h-12.48a1.39 1.39 0 0 1-1.39-1.39v-49c0-.765.62-1.39 1.39-1.39h116.01c.765 0 1.39.62 1.39 1.39v49c0 .765-.62 1.39-1.39 1.39h.005Zm-10.865-2.78h9.475V94.661H138.22v46.225h9.705v-29.895c0-.765.62-1.39 1.39-1.39h91.275c.765 0 1.39.62 1.39 1.39v29.895ZM337.68 285.91H85.625a1.39 1.39 0 0 1 0-2.78H337.68a1.39 1.39 0 0 1 0 2.78ZM337.68 275.45H85.625a1.39 1.39 0 0 1 0-2.78H337.68a1.39 1.39 0 0 1 0 2.78ZM337.68 163.76H85.625a1.39 1.39 0 0 1 0-2.78H337.68a1.39 1.39 0 0 1 0 2.78Z"/><path fill="#222" d="M85.62 163.76c-.2 0-.405-.045-.595-.135l-39.74-18.935a1.385 1.385 0 0 1-.655-1.85 1.385 1.385 0 0 1 1.85-.655l39.74 18.935a1.388 1.388 0 0 1-.6 2.64ZM85.555 276.1c-.2 0-.405-.045-.595-.135L45.22 257.03a1.385 1.385 0 0 1-.655-1.85 1.385 1.385 0 0 1 1.85-.655l39.74 18.935a1.388 1.388 0 0 1-.6 2.64ZM85.555 285.91c-.2 0-.405-.045-.595-.135L45.22 266.84a1.385 1.385 0 0 1-.655-1.85 1.385 1.385 0 0 1 1.85-.655l39.74 18.935a1.388 1.388 0 0 1-.6 2.64Z"/><path fill="#fff" d="M150.165 253.406c-5.43 0-10.035-.93-13.805-2.79-3.78-1.86-6.995-4.27-9.65-7.225l8.85-8.95c4.19 4.68 9.35 7.02 15.49 7.02 3.305 0 5.75-.67 7.345-2.015 1.595-1.345 2.39-3.13 2.39-5.35 0-1.695-.475-3.11-1.415-4.255-.945-1.14-2.86-1.915-5.755-2.325l-6.105-.79c-6.55-.83-11.345-2.805-14.38-5.935-3.04-3.13-4.56-7.295-4.56-12.495 0-2.78.535-5.32 1.595-7.62a16.8 16.8 0 0 1 4.555-5.935c1.98-1.655 4.395-2.94 7.255-3.855 2.86-.915 6.12-1.37 9.78-1.37 4.66 0 8.765.74 12.3 2.215 3.54 1.48 6.58 3.635 9.115 6.47l-8.94 9.045c-1.475-1.695-3.26-3.08-5.355-4.16-2.095-1.08-4.735-1.62-7.92-1.62-3.01 0-5.255.525-6.725 1.575-1.475 1.05-2.215 2.51-2.215 4.38 0 2.105.575 3.625 1.725 4.555 1.155.935 3.025 1.605 5.62 2.015l6.105.975c6.375 1.005 11.095 2.97 14.16 5.895 3.065 2.925 4.6 7.075 4.6 12.445 0 2.955-.53 5.67-1.59 8.15a17.438 17.438 0 0 1-4.645 6.38c-2.035 1.775-4.56 3.15-7.57 4.12-3.01.975-6.43 1.46-10.265 1.46l.01-.01Z"/><path fill="#222" d="M150.165 254.79c-5.62 0-10.47-.985-14.42-2.935-3.915-1.93-7.305-4.465-10.07-7.54-.49-.545-.47-1.38.045-1.905l8.85-8.95c.27-.27.64-.415 1.02-.41.385.01.745.175 1 .46 3.95 4.41 8.68 6.555 14.455 6.555 2.95 0 5.12-.57 6.445-1.69 1.28-1.08 1.9-2.48 1.9-4.29 0-1.37-.36-2.475-1.1-3.37-.49-.59-1.735-1.385-4.875-1.83l-6.09-.785c-6.84-.865-11.955-3-15.2-6.35-3.285-3.385-4.95-7.915-4.95-13.46 0-2.965.58-5.72 1.72-8.2a18.312 18.312 0 0 1 4.925-6.42c2.11-1.765 4.71-3.145 7.725-4.115 2.99-.955 6.42-1.44 10.205-1.44 4.825 0 9.145.78 12.84 2.325a26.433 26.433 0 0 1 9.615 6.825c.49.545.47 1.38-.045 1.9l-8.94 9.045a1.392 1.392 0 0 1-2.035-.065c-1.35-1.55-3.015-2.845-4.945-3.84-1.885-.97-4.335-1.465-7.285-1.465-2.705 0-4.695.445-5.92 1.315-1.115.795-1.63 1.825-1.63 3.25 0 1.655.41 2.825 1.21 3.48.955.775 2.62 1.35 4.96 1.72l6.11.975c6.62 1.04 11.635 3.15 14.9 6.26 3.34 3.18 5.03 7.71 5.03 13.455 0 3.125-.575 6.05-1.705 8.695a18.886 18.886 0 0 1-5.01 6.88c-2.165 1.89-4.875 3.37-8.055 4.395-3.13 1.015-6.73 1.53-10.695 1.53l.015-.005Zm-21.525-11.38c2.355 2.385 5.15 4.385 8.335 5.955 3.565 1.755 8.005 2.645 13.19 2.645 3.675 0 6.985-.47 9.84-1.395 2.82-.91 5.2-2.205 7.085-3.845a16.09 16.09 0 0 0 4.28-5.88c.98-2.295 1.48-4.855 1.48-7.605 0-4.955-1.405-8.805-4.17-11.44-2.85-2.715-7.365-4.575-13.42-5.525l-6.11-.975c-2.865-.45-4.92-1.205-6.275-2.31-1.485-1.205-2.24-3.1-2.24-5.635 0-2.3.965-4.205 2.8-5.51 1.73-1.235 4.195-1.835 7.53-1.835s6.275.595 8.56 1.775c1.78.92 3.37 2.06 4.74 3.4l6.985-7.07a23.687 23.687 0 0 0-7.72-5.165c-3.35-1.4-7.31-2.11-11.765-2.11-3.495 0-6.645.44-9.355 1.305-2.67.855-4.955 2.065-6.79 3.6a15.525 15.525 0 0 0-4.185 5.455c-.975 2.115-1.465 4.48-1.465 7.04 0 4.87 1.365 8.64 4.165 11.525 2.795 2.885 7.36 4.745 13.56 5.525l6.11.79c3.29.465 5.46 1.385 6.645 2.815 1.155 1.4 1.735 3.125 1.735 5.14 0 2.64-.97 4.8-2.885 6.415-1.84 1.555-4.615 2.345-8.24 2.345-6.035 0-11.245-2.155-15.51-6.41l-6.9 6.98h-.01Z"/><path fill="#fff" d="M182.155 190.565h23.275c4.07 0 7.79.65 11.15 1.95 3.365 1.3 6.225 3.23 8.585 5.8 2.36 2.565 4.19 5.78 5.485 9.645 1.295 3.865 1.95 8.365 1.95 13.495 0 5.13-.65 9.63-1.95 13.495-1.295 3.865-3.13 7.08-5.485 9.645-2.36 2.565-5.22 4.5-8.585 5.795-3.36 1.3-7.08 1.95-11.15 1.95h-23.275v-61.775Zm23.275 49.83c4.01 0 7.17-1.12 9.47-3.365 2.3-2.24 3.45-5.84 3.45-10.795v-9.555c0-4.955-1.15-8.555-3.45-10.8-2.3-2.24-5.46-3.36-9.47-3.36h-9.825v37.88h9.825v-.005Z"/><path fill="#222" d="M205.435 253.731H182.16a1.39 1.39 0 0 1-1.39-1.39v-61.775c0-.765.62-1.39 1.39-1.39h23.275c4.22 0 8.14.685 11.65 2.04 3.555 1.375 6.615 3.445 9.11 6.155 2.485 2.705 4.43 6.115 5.78 10.145 1.34 3.99 2.02 8.68 2.02 13.94s-.68 9.945-2.02 13.94c-1.35 4.03-3.295 7.44-5.78 10.145-2.495 2.715-5.555 4.785-9.11 6.15-3.5 1.355-7.42 2.04-11.65 2.04Zm-21.89-2.78h21.89c3.885 0 7.47-.625 10.65-1.855 3.15-1.215 5.86-3.045 8.065-5.44 2.22-2.415 3.965-5.49 5.195-9.15 1.245-3.705 1.875-8.1 1.875-13.055s-.63-9.35-1.875-13.055c-1.23-3.655-2.975-6.735-5.195-9.15-2.2-2.395-4.91-4.225-8.065-5.445-3.185-1.23-6.77-1.855-10.65-1.855h-21.89v59.005Zm21.89-9.17h-9.825a1.39 1.39 0 0 1-1.39-1.39v-37.88c0-.765.62-1.39 1.39-1.39h9.825c4.37 0 7.88 1.265 10.44 3.755 2.57 2.505 3.87 6.475 3.87 11.795v9.555c0 5.32-1.3 9.29-3.87 11.79-2.56 2.495-6.07 3.76-10.44 3.76v.005Zm-8.435-2.78h8.435c3.62 0 6.475-1 8.5-2.97 2.01-1.96 3.03-5.26 3.03-9.8v-9.555c0-4.545-1.02-7.84-3.03-9.805-2.05-1.995-4.83-2.965-8.5-2.965H197v35.1-.005Z"/><path fill="#fff" d="m262.364 225.435-8.05 9.735v17.17h-13.455v-61.775h13.455v29.385h.53l8.76-11.945 13.895-17.435h15.22l-20.8 25.4 22.655 36.375h-15.84l-16.375-26.905.005-.005Z"/><path fill="#222" d="M294.58 253.731h-15.84c-.485 0-.935-.255-1.185-.665l-15.36-25.24-6.49 7.845v16.67c0 .765-.62 1.39-1.39 1.39H240.86a1.39 1.39 0 0 1-1.39-1.39v-61.775c0-.765.62-1.39 1.39-1.39h13.455c.765 0 1.39.62 1.39 1.39v25.865l6.78-9.25s.02-.03.035-.045l13.895-17.435c.265-.33.665-.525 1.085-.525h15.22a1.391 1.391 0 0 1 1.075 2.27l-20.17 24.63 22.13 35.53a1.392 1.392 0 0 1-1.18 2.125h.005Zm-15.06-2.78h12.56l-21.335-34.25a1.384 1.384 0 0 1 .105-1.615l18.94-23.135h-11.62l-13.465 16.89-8.745 11.925a1.39 1.39 0 0 1-1.12.57h-.53a1.39 1.39 0 0 1-1.39-1.39v-27.995h-10.675v59h10.675v-15.78c0-.325.115-.635.32-.885l8.05-9.735a1.38 1.38 0 0 1 1.17-.5c.45.03.855.28 1.085.665l15.97 26.24.005-.005Z"/><path fill="#fff" d="M150.165 253.406c-5.43 0-10.035-.93-13.805-2.79-3.78-1.86-6.995-4.27-9.65-7.225l8.85-8.95c4.19 4.68 9.35 7.02 15.49 7.02 3.305 0 5.75-.67 7.345-2.015 1.595-1.345 2.39-3.13 2.39-5.35 0-1.695-.475-3.11-1.415-4.255-.945-1.14-2.86-1.915-5.755-2.325l-6.105-.79c-6.55-.83-11.345-2.805-14.38-5.935-3.04-3.13-4.56-7.295-4.56-12.495 0-2.78.535-5.32 1.595-7.62a16.8 16.8 0 0 1 4.555-5.935c1.98-1.655 4.395-2.94 7.255-3.855 2.86-.915 6.12-1.37 9.78-1.37 4.66 0 8.765.74 12.3 2.215 3.54 1.48 6.58 3.635 9.115 6.47l-8.94 9.045c-1.475-1.695-3.26-3.08-5.355-4.16-2.095-1.08-4.735-1.62-7.92-1.62-3.01 0-5.255.525-6.725 1.575-1.475 1.05-2.215 2.51-2.215 4.38 0 2.105.575 3.625 1.725 4.555 1.155.935 3.025 1.605 5.62 2.015l6.105.975c6.375 1.005 11.095 2.97 14.16 5.895 3.065 2.925 4.6 7.075 4.6 12.445 0 2.955-.53 5.67-1.59 8.15a17.438 17.438 0 0 1-4.645 6.38c-2.035 1.775-4.56 3.15-7.57 4.12-3.01.975-6.43 1.46-10.265 1.46l.01-.01Z"/><path fill="#222" d="M150.165 254.79c-5.62 0-10.47-.985-14.42-2.935-3.915-1.93-7.305-4.465-10.07-7.54-.49-.545-.47-1.38.045-1.905l8.85-8.95c.27-.27.64-.415 1.02-.41.385.01.745.175 1 .46 3.95 4.41 8.68 6.555 14.455 6.555 2.95 0 5.12-.57 6.445-1.69 1.28-1.08 1.9-2.48 1.9-4.29 0-1.37-.36-2.475-1.1-3.37-.49-.59-1.735-1.385-4.875-1.83l-6.09-.785c-6.84-.865-11.955-3-15.2-6.35-3.285-3.385-4.95-7.915-4.95-13.46 0-2.965.58-5.72 1.72-8.2a18.312 18.312 0 0 1 4.925-6.42c2.11-1.765 4.71-3.145 7.725-4.115 2.99-.955 6.42-1.44 10.205-1.44 4.825 0 9.145.78 12.84 2.325a26.433 26.433 0 0 1 9.615 6.825c.49.545.47 1.38-.045 1.9l-8.94 9.045a1.392 1.392 0 0 1-2.035-.065c-1.35-1.55-3.015-2.845-4.945-3.84-1.885-.97-4.335-1.465-7.285-1.465-2.705 0-4.695.445-5.92 1.315-1.115.795-1.63 1.825-1.63 3.25 0 1.655.41 2.825 1.21 3.48.955.775 2.62 1.35 4.96 1.72l6.11.975c6.62 1.04 11.635 3.15 14.9 6.26 3.34 3.18 5.03 7.71 5.03 13.455 0 3.125-.575 6.05-1.705 8.695a18.886 18.886 0 0 1-5.01 6.88c-2.165 1.89-4.875 3.37-8.055 4.395-3.13 1.015-6.73 1.53-10.695 1.53l.015-.005Zm-21.525-11.38c2.355 2.385 5.15 4.385 8.335 5.955 3.565 1.755 8.005 2.645 13.19 2.645 3.675 0 6.985-.47 9.84-1.395 2.82-.91 5.2-2.205 7.085-3.845a16.09 16.09 0 0 0 4.28-5.88c.98-2.295 1.48-4.855 1.48-7.605 0-4.955-1.405-8.805-4.17-11.44-2.85-2.715-7.365-4.575-13.42-5.525l-6.11-.975c-2.865-.45-4.92-1.205-6.275-2.31-1.485-1.205-2.24-3.1-2.24-5.635 0-2.3.965-4.205 2.8-5.51 1.73-1.235 4.195-1.835 7.53-1.835s6.275.595 8.56 1.775c1.78.92 3.37 2.06 4.74 3.4l6.985-7.07a23.687 23.687 0 0 0-7.72-5.165c-3.35-1.4-7.31-2.11-11.765-2.11-3.495 0-6.645.44-9.355 1.305-2.67.855-4.955 2.065-6.79 3.6a15.525 15.525 0 0 0-4.185 5.455c-.975 2.115-1.465 4.48-1.465 7.04 0 4.87 1.365 8.64 4.165 11.525 2.795 2.885 7.36 4.745 13.56 5.525l6.11.79c3.29.465 5.46 1.385 6.645 2.815 1.155 1.4 1.735 3.125 1.735 5.14 0 2.64-.97 4.8-2.885 6.415-1.84 1.555-4.615 2.345-8.24 2.345-6.035 0-11.245-2.155-15.51-6.41l-6.9 6.98h-.01Z"/><path fill="#fff" d="M182.155 190.565h23.275c4.07 0 7.79.65 11.15 1.95 3.365 1.3 6.225 3.23 8.585 5.8 2.36 2.565 4.19 5.78 5.485 9.645 1.295 3.865 1.95 8.365 1.95 13.495 0 5.13-.65 9.63-1.95 13.495-1.295 3.865-3.13 7.08-5.485 9.645-2.36 2.565-5.22 4.5-8.585 5.795-3.36 1.3-7.08 1.95-11.15 1.95h-23.275v-61.775Zm23.275 49.83c4.01 0 7.17-1.12 9.47-3.365 2.3-2.24 3.45-5.84 3.45-10.795v-9.555c0-4.955-1.15-8.555-3.45-10.8-2.3-2.24-5.46-3.36-9.47-3.36h-9.825v37.88h9.825v-.005Z"/><path fill="#222" d="M205.435 253.731H182.16a1.39 1.39 0 0 1-1.39-1.39v-61.775c0-.765.62-1.39 1.39-1.39h23.275c4.22 0 8.14.685 11.65 2.04 3.555 1.375 6.615 3.445 9.11 6.155 2.485 2.705 4.43 6.115 5.78 10.145 1.34 3.99 2.02 8.68 2.02 13.94s-.68 9.945-2.02 13.94c-1.35 4.03-3.295 7.44-5.78 10.145-2.495 2.715-5.555 4.785-9.11 6.15-3.5 1.355-7.42 2.04-11.65 2.04Zm-21.89-2.78h21.89c3.885 0 7.47-.625 10.65-1.855 3.15-1.215 5.86-3.045 8.065-5.44 2.22-2.415 3.965-5.49 5.195-9.15 1.245-3.705 1.875-8.1 1.875-13.055s-.63-9.35-1.875-13.055c-1.23-3.655-2.975-6.735-5.195-9.15-2.2-2.395-4.91-4.225-8.065-5.445-3.185-1.23-6.77-1.855-10.65-1.855h-21.89v59.005Zm21.89-9.17h-9.825a1.39 1.39 0 0 1-1.39-1.39v-37.88c0-.765.62-1.39 1.39-1.39h9.825c4.37 0 7.88 1.265 10.44 3.755 2.57 2.505 3.87 6.475 3.87 11.795v9.555c0 5.32-1.3 9.29-3.87 11.79-2.56 2.495-6.07 3.76-10.44 3.76v.005Zm-8.435-2.78h8.435c3.62 0 6.475-1 8.5-2.97 2.01-1.96 3.03-5.26 3.03-9.8v-9.555c0-4.545-1.02-7.84-3.03-9.805-2.05-1.995-4.83-2.965-8.5-2.965H197v35.1-.005Z"/><path fill="#fff" d="m262.364 225.435-8.05 9.735v17.17h-13.455v-61.775h13.455v29.385h.53l8.76-11.945 13.895-17.435h15.22l-20.8 25.4 22.655 36.375h-15.84l-16.375-26.905.005-.005Z"/><path fill="#222" d="M294.58 253.731h-15.84c-.485 0-.935-.255-1.185-.665l-15.36-25.24-6.49 7.845v16.67c0 .765-.62 1.39-1.39 1.39H240.86a1.39 1.39 0 0 1-1.39-1.39v-61.775c0-.765.62-1.39 1.39-1.39h13.455c.765 0 1.39.62 1.39 1.39v25.865l6.78-9.25s.02-.03.035-.045l13.895-17.435c.265-.33.665-.525 1.085-.525h15.22a1.391 1.391 0 0 1 1.075 2.27l-20.17 24.63 22.13 35.53a1.392 1.392 0 0 1-1.18 2.125h.005Zm-15.06-2.78h12.56l-21.335-34.25a1.384 1.384 0 0 1 .105-1.615l18.94-23.135h-11.62l-13.465 16.89-8.745 11.925a1.39 1.39 0 0 1-1.12.57h-.53a1.39 1.39 0 0 1-1.39-1.39v-27.995h-10.675v59h10.675v-15.78c0-.325.115-.635.32-.885l8.05-9.735a1.38 1.38 0 0 1 1.17-.5c.45.03.855.28 1.085.665l15.97 26.24.005-.005Z"/><path fill="#fff" d="M152.175 250.981c-5.43 0-10.035-.93-13.805-2.79-3.78-1.86-6.995-4.27-9.65-7.225l8.85-8.95c4.19 4.68 9.35 7.02 15.49 7.02 3.305 0 5.75-.67 7.345-2.015 1.595-1.345 2.39-3.13 2.39-5.35 0-1.695-.475-3.11-1.415-4.255-.945-1.14-2.86-1.915-5.755-2.325l-6.105-.79c-6.55-.83-11.345-2.805-14.38-5.935-3.04-3.13-4.56-7.295-4.56-12.495 0-2.78.535-5.32 1.595-7.62a16.8 16.8 0 0 1 4.555-5.935c1.98-1.655 4.395-2.94 7.255-3.855 2.86-.915 6.12-1.37 9.78-1.37 4.66 0 8.765.74 12.3 2.215 3.54 1.48 6.58 3.635 9.115 6.47l-8.94 9.045c-1.475-1.695-3.26-3.08-5.355-4.16-2.095-1.08-4.735-1.62-7.92-1.62-3.01 0-5.255.525-6.725 1.575-1.475 1.05-2.215 2.51-2.215 4.38 0 2.105.575 3.625 1.725 4.555 1.155.935 3.025 1.605 5.62 2.015l6.105.975c6.375 1.005 11.095 2.97 14.16 5.895 3.065 2.925 4.6 7.075 4.6 12.445 0 2.955-.53 5.67-1.59 8.15a17.438 17.438 0 0 1-4.645 6.38c-2.035 1.775-4.56 3.15-7.57 4.12-3.01.975-6.43 1.46-10.265 1.46l.01-.01ZM184.17 188.141h23.275c4.07 0 7.79.65 11.15 1.95 3.365 1.3 6.225 3.23 8.585 5.8 2.36 2.565 4.19 5.78 5.485 9.645 1.295 3.865 1.95 8.365 1.95 13.495 0 5.13-.65 9.63-1.95 13.495-1.295 3.865-3.13 7.08-5.485 9.645-2.36 2.565-5.22 4.5-8.585 5.795-3.36 1.3-7.08 1.95-11.15 1.95H184.17v-61.775Zm23.275 49.83c4.01 0 7.17-1.12 9.47-3.365 2.3-2.245 3.45-5.84 3.45-10.795v-9.555c0-4.955-1.15-8.555-3.45-10.8-2.3-2.24-5.46-3.36-9.47-3.36h-9.825v37.88h9.825v-.005ZM264.375 223.011l-8.05 9.735v17.17H242.87v-61.775h13.455v29.385h.53l8.76-11.945 13.895-17.435h15.22l-20.8 25.4 22.655 36.375h-15.84l-16.375-26.905.005-.005Z"/><path fill="#222" d="M150.165 254.79c-5.62 0-10.47-.985-14.42-2.935-3.915-1.93-7.305-4.465-10.07-7.54-.49-.545-.47-1.38.045-1.905l8.85-8.95c.27-.27.64-.415 1.02-.41.385.01.745.175 1 .46 3.95 4.41 8.68 6.555 14.455 6.555 2.95 0 5.12-.57 6.445-1.69 1.28-1.08 1.9-2.48 1.9-4.29 0-1.37-.36-2.475-1.1-3.37-.49-.59-1.735-1.385-4.875-1.83l-6.09-.785c-6.84-.865-11.955-3-15.2-6.35-3.285-3.385-4.95-7.915-4.95-13.46 0-2.965.58-5.72 1.72-8.2a18.312 18.312 0 0 1 4.925-6.42c2.11-1.765 4.71-3.145 7.725-4.115 2.99-.955 6.42-1.44 10.205-1.44 4.825 0 9.145.78 12.84 2.325a26.433 26.433 0 0 1 9.615 6.825c.49.545.47 1.38-.045 1.9l-8.94 9.045a1.392 1.392 0 0 1-2.035-.065c-1.35-1.55-3.015-2.845-4.945-3.84-1.885-.97-4.335-1.465-7.285-1.465-2.705 0-4.695.445-5.92 1.315-1.115.795-1.63 1.825-1.63 3.25 0 1.655.41 2.825 1.21 3.48.955.775 2.62 1.35 4.96 1.72l6.11.975c6.62 1.04 11.635 3.15 14.9 6.26 3.34 3.18 5.03 7.71 5.03 13.455 0 3.125-.575 6.05-1.705 8.695a18.886 18.886 0 0 1-5.01 6.88c-2.165 1.89-4.875 3.37-8.055 4.395-3.13 1.015-6.73 1.53-10.695 1.53l.015-.005Zm-21.525-11.38c2.355 2.385 5.15 4.385 8.335 5.955 3.565 1.755 8.005 2.645 13.19 2.645 3.675 0 6.985-.47 9.84-1.395 2.82-.91 5.2-2.205 7.085-3.845a16.09 16.09 0 0 0 4.28-5.88c.98-2.295 1.48-4.855 1.48-7.605 0-4.955-1.405-8.805-4.17-11.44-2.85-2.715-7.365-4.575-13.42-5.525l-6.11-.975c-2.865-.45-4.92-1.205-6.275-2.31-1.485-1.205-2.24-3.1-2.24-5.635 0-2.3.965-4.205 2.8-5.51 1.73-1.235 4.195-1.835 7.53-1.835s6.275.595 8.56 1.775c1.78.92 3.37 2.06 4.74 3.4l6.985-7.07a23.687 23.687 0 0 0-7.72-5.165c-3.35-1.4-7.31-2.11-11.765-2.11-3.495 0-6.645.44-9.355 1.305-2.67.855-4.955 2.065-6.79 3.6a15.525 15.525 0 0 0-4.185 5.455c-.975 2.115-1.465 4.48-1.465 7.04 0 4.87 1.365 8.64 4.165 11.525 2.795 2.885 7.36 4.745 13.56 5.525l6.11.79c3.29.465 5.46 1.385 6.645 2.815 1.155 1.4 1.735 3.125 1.735 5.14 0 2.64-.97 4.8-2.885 6.415-1.84 1.555-4.615 2.345-8.24 2.345-6.035 0-11.245-2.155-15.51-6.41l-6.9 6.98h-.01ZM205.435 253.73H182.16a1.39 1.39 0 0 1-1.39-1.39v-61.775c0-.765.62-1.39 1.39-1.39h23.275c4.22 0 8.14.685 11.65 2.04 3.555 1.375 6.615 3.445 9.11 6.155 2.485 2.705 4.43 6.115 5.78 10.145 1.34 3.99 2.02 8.68 2.02 13.94s-.68 9.945-2.02 13.94c-1.35 4.03-3.295 7.44-5.78 10.145-2.495 2.715-5.555 4.785-9.11 6.15-3.5 1.355-7.42 2.04-11.65 2.04Zm-21.89-2.78h21.89c3.885 0 7.47-.625 10.65-1.855 3.15-1.215 5.86-3.045 8.065-5.44 2.22-2.415 3.965-5.49 5.195-9.15 1.245-3.705 1.875-8.1 1.875-13.055s-.63-9.35-1.875-13.055c-1.23-3.655-2.975-6.735-5.195-9.15-2.2-2.395-4.91-4.225-8.065-5.445-3.185-1.23-6.77-1.855-10.65-1.855h-21.89v59.005Zm21.89-9.17h-9.825a1.39 1.39 0 0 1-1.39-1.39v-37.88c0-.765.62-1.39 1.39-1.39h9.825c4.37 0 7.88 1.265 10.44 3.755 2.57 2.505 3.87 6.475 3.87 11.795v9.555c0 5.32-1.3 9.29-3.87 11.79-2.56 2.495-6.07 3.76-10.44 3.76v.005ZM197 239h8.435c3.62 0 6.475-1 8.5-2.97 2.01-1.96 3.03-5.26 3.03-9.8v-9.555c0-4.545-1.02-7.84-3.03-9.805-2.05-1.995-4.83-2.965-8.5-2.965H197v35.1V239ZM294.58 253.73h-15.84c-.485 0-.935-.255-1.185-.665l-15.36-25.24-6.49 7.845v16.67c0 .765-.62 1.39-1.39 1.39H240.86a1.39 1.39 0 0 1-1.39-1.39v-61.775c0-.765.62-1.39 1.39-1.39h13.455c.765 0 1.39.62 1.39 1.39v25.865l6.78-9.25s.02-.03.035-.045l13.895-17.435c.265-.33.665-.525 1.085-.525h15.22a1.391 1.391 0 0 1 1.075 2.27l-20.17 24.63 22.13 35.53a1.392 1.392 0 0 1-1.18 2.125h.005Zm-15.06-2.78h12.56l-21.335-34.25a1.384 1.384 0 0 1 .105-1.615l18.94-23.135h-11.62l-13.465 16.89-8.745 11.925a1.39 1.39 0 0 1-1.12.57h-.53a1.39 1.39 0 0 1-1.39-1.39V191.95h-10.675v59h10.675v-15.78c0-.325.115-.635.32-.885l8.05-9.735a1.38 1.38 0 0 1 1.17-.5c.45.03.855.28 1.085.665l15.97 26.24.005-.005Z"/><path fill="#DADADA" d="M348.05 271.574v-57.165h-27.205v57.165H301.91l32.54 35.98 32.535-35.98H348.05Z"/><path fill="#222" d="M334.45 308.945a1.39 1.39 0 0 1-1.03-.455l-32.535-35.98a1.39 1.39 0 0 1-.24-1.495c.225-.5.72-.825 1.27-.825h17.545v-55.78c0-.765.62-1.39 1.39-1.39h27.21c.765 0 1.39.62 1.39 1.39v55.78h17.545c.55 0 1.045.325 1.27.825.225.5.13 1.09-.24 1.495l-32.535 35.98c-.265.29-.64.455-1.03.455h-.01Zm-29.41-35.98 29.41 32.52 29.41-32.52h-15.805a1.39 1.39 0 0 1-1.39-1.39v-55.78h-24.43v55.78c0 .765-.62 1.39-1.39 1.39H305.04Z"/></svg>