<svg xmlns="http://www.w3.org/2000/svg" width="400" height="401" fill="none" viewBox="0 0 400 401"><path fill="#fff" d="M356.56 272.83H150.41V102.455h157.515l48.635 50.97V272.83Z"/><path fill="#FF3158" d="M59.42 272.83V102.455h90.99V272.83"/><path fill="#F5F4F3" d="M322.755 185.01h-89.98v67.345h89.98V185.01Z"/><path fill="#222" d="M322.76 253.735h-89.98a1.38 1.38 0 0 1-1.38-1.385v-67.345c0-.765.62-1.385 1.38-1.385h89.98c.765 0 1.38.62 1.38 1.385v67.345c0 .765-.62 1.385-1.38 1.385Zm-88.6-2.765h87.215v-64.58H234.16v64.58Z"/><path fill="#FF3158" d="M296.945 102.555h10.98l48.635 50.87h-22.51l-48.615-50.87h11.51ZM334.05 153.425c0 6.505-4.715 11.245-11.245 11.245-6.53 0-11.245-4.735-11.245-11.245h22.49Z"/><path fill="#FF3158" d="m262.95 102.555 48.615 50.87h-22.49l-48.635-50.87h22.51ZM289.055 153.425c0 .06 0 .14.02.205-.1 6.405-4.8 11.04-11.265 11.04-6.465 0-11.245-4.735-11.245-11.245h22.49Z"/><path fill="#FF3158" d="m217.955 102.555 48.615 50.87h-22.49l-48.635-50.87h22.51ZM244.08 153.425c0 6.505-4.735 11.245-11.245 11.245-6.51 0-11.265-4.735-11.265-11.245h22.51Z"/><path fill="#FF3158" d="m172.96 102.555 48.615 50.87h-22.49l-48.615-50.87h22.49ZM272.08 216.21h7.315v21.225h-31.29V216.21h23.975Z"/><path fill="#222" d="M356.505 274.215H59.42a1.38 1.38 0 0 1-1.38-1.385c0-.765.62-1.385 1.38-1.385h297.085c.765 0 1.38.62 1.38 1.385s-.62 1.385-1.38 1.385Z"/><path fill="#222" d="M356.505 274.215a1.38 1.38 0 0 1-1.38-1.385V153.315c0-.765.62-1.385 1.38-1.385.76 0 1.38.62 1.38 1.385V272.83c0 .765-.62 1.385-1.38 1.385ZM150.41 274.215a1.38 1.38 0 0 1-1.38-1.385V103.84H60.805v168.99c0 .765-.62 1.385-1.38 1.385-.76 0-1.38-.62-1.38-1.385V102.455c0-.765.62-1.385 1.38-1.385h90.99c.765 0 1.38.62 1.38 1.385V272.83c0 .765-.62 1.385-1.38 1.385h-.005ZM273.7 217.5c-.42 0-.835-.19-1.105-.55l-8.895-11.815-8.895 11.815a1.38 1.38 0 0 1-1.935.27 1.386 1.386 0 0 1-.275-1.935l10-13.28a1.385 1.385 0 0 1 2.21 0l10 13.28c.46.61.335 1.475-.275 1.935-.25.19-.54.28-.83.28Z"/><path fill="#222" d="M279.34 238.724h-31.285a1.38 1.38 0 0 1-1.38-1.385v-21.22c0-.765.62-1.385 1.38-1.385h31.285c.765 0 1.38.62 1.38 1.385v21.22c0 .765-.62 1.385-1.38 1.385Zm-29.9-2.765h28.52v-18.455h-28.52v18.455ZM207.81 274.215a1.38 1.38 0 0 1-1.38-1.385v-46.495c0-8.955-6.655-16.24-14.835-16.24s-14.835 7.285-14.835 16.24v46.495c0 .765-.62 1.385-1.38 1.385-.76 0-1.38-.62-1.38-1.385v-46.495c0-10.48 7.895-19.005 17.6-19.005 9.705 0 17.6 8.525 17.6 19.005v46.495c0 .765-.62 1.385-1.38 1.385h-.01Z"/><path fill="#222" d="M198.94 246.005a2.575 2.575 0 1 0 0-5.15 2.575 2.575 0 0 0 0 5.15ZM289.02 154.7a1.39 1.39 0 0 1-1-.425l-48.625-50.86a1.383 1.383 0 1 1 2-1.91l48.625 50.86a1.383 1.383 0 0 1-1 2.34v-.005ZM244.025 154.7a1.39 1.39 0 0 1-1-.425l-48.625-50.86a1.383 1.383 0 1 1 2-1.91l48.625 50.86a1.383 1.383 0 0 1-1 2.34v-.005ZM266.52 154.7a1.39 1.39 0 0 1-1-.425l-48.625-50.86a1.383 1.383 0 1 1 2-1.91l48.625 50.86a1.383 1.383 0 0 1-1 2.34v-.005ZM221.53 154.7a1.39 1.39 0 0 1-1-.425l-48.625-50.86a1.383 1.383 0 1 1 2-1.91l48.625 50.86a1.383 1.383 0 0 1-1 2.34v-.005ZM334.01 154.7a1.39 1.39 0 0 1-1-.425l-48.625-50.86a1.383 1.383 0 1 1 2-1.91l48.625 50.86a1.383 1.383 0 0 1-1 2.34v-.005ZM311.515 154.7a1.39 1.39 0 0 1-1-.425l-48.625-50.86a1.383 1.383 0 1 1 2-1.91l48.625 50.86a1.383 1.383 0 0 1-1 2.34v-.005Z"/><path fill="#222" d="M356.505 154.7h-157.47c-.375 0-.74-.155-1-.425l-48.625-50.86a1.384 1.384 0 0 1 1-2.34h157.47c.375 0 .74.155 1 .425l48.625 50.86c.38.4.49.99.27 1.5-.215.51-.715.84-1.27.84Zm-156.875-2.765h153.645l-45.98-48.095h-153.65l45.98 48.095h.005Z"/><path fill="#222" d="M210.28 165.95c-7.32 0-12.63-5.315-12.63-12.635 0-.765.62-1.385 1.38-1.385.76 0 1.38.62 1.38 1.385 0 5.72 4.15 9.87 9.87 9.87 5.72 0 9.87-4.15 9.87-9.87 0-.765.62-1.385 1.38-1.385.76 0 1.38.62 1.38 1.385 0 7.32-5.31 12.635-12.63 12.635Z"/><path fill="#222" d="M232.775 165.95c-7.32 0-12.635-5.315-12.635-12.635 0-.765.62-1.385 1.38-1.385.76 0 1.38.62 1.38 1.385 0 5.72 4.15 9.87 9.87 9.87 5.72 0 9.87-4.15 9.87-9.87 0-.765.62-1.385 1.38-1.385.76 0 1.38.62 1.38 1.385 0 7.32-5.31 12.635-12.63 12.635h.005Z"/><path fill="#222" d="M255.27 165.95c-7.32 0-12.63-5.315-12.63-12.635 0-.765.62-1.385 1.38-1.385.76 0 1.38.62 1.38 1.385 0 5.72 4.15 9.87 9.87 9.87 5.72 0 9.87-4.15 9.87-9.87 0-.765.62-1.385 1.38-1.385.76 0 1.38.62 1.38 1.385 0 7.32-5.315 12.635-12.635 12.635h.005Z"/><path fill="#222" d="M277.765 165.95c-7.32 0-12.63-5.315-12.63-12.635 0-.765.62-1.385 1.38-1.385.76 0 1.38.62 1.38 1.385 0 5.72 4.15 9.87 9.87 9.87 5.72 0 9.87-4.15 9.87-9.87 0-.765.62-1.385 1.38-1.385.76 0 1.38.62 1.38 1.385 0 7.32-5.315 12.635-12.635 12.635h.005Z"/><path fill="#222" d="M300.265 165.95c-7.32 0-12.635-5.315-12.635-12.635 0-.765.62-1.385 1.38-1.385.76 0 1.38.62 1.38 1.385 0 5.72 4.15 9.87 9.87 9.87 5.72 0 9.87-4.15 9.87-9.87 0-.765.62-1.385 1.38-1.385.76 0 1.38.62 1.38 1.385 0 7.32-5.31 12.635-12.63 12.635h.005Z"/><path fill="#222" d="M322.76 165.95c-7.32 0-12.635-5.315-12.635-12.635 0-.765.62-1.385 1.38-1.385.76 0 1.38.62 1.38 1.385 0 5.72 4.15 9.87 9.87 9.87 5.72 0 9.87-4.15 9.87-9.87 0-.765.62-1.385 1.38-1.385.76 0 1.38.62 1.38 1.385 0 7.32-5.31 12.635-12.63 12.635h.005Z"/><path fill="#222" d="M345.255 165.95c-7.32 0-12.63-5.315-12.63-12.635 0-.765.62-1.385 1.38-1.385.76 0 1.38.62 1.38 1.385 0 5.72 4.15 9.87 9.87 9.87 5.72 0 9.87-4.15 9.87-9.87 0-.765.62-1.385 1.38-1.385.76 0 1.38.62 1.38 1.385 0 7.32-5.315 12.635-12.635 12.635h.005Z"/><path fill="#fff" d="M118.96 199.845v14.86H90.87V185.01h28.09v14.835Z"/><path fill="#222" d="M118.96 216.085H90.87a1.38 1.38 0 0 1-1.38-1.385v-29.695c0-.765.62-1.385 1.38-1.385h28.09c.765 0 1.38.62 1.38 1.385V214.7c0 .765-.62 1.385-1.38 1.385Zm-26.71-2.765h25.325v-26.93H92.25v26.93Z"/><path fill="#222" d="M118.96 201.23H90.87a1.38 1.38 0 0 1-1.38-1.385c0-.765.62-1.385 1.38-1.385h28.09c.765 0 1.38.62 1.38 1.385s-.62 1.385-1.38 1.385Z"/><path fill="#222" d="M104.915 216.085a1.38 1.38 0 0 1-1.38-1.385v-29.695c0-.765.62-1.385 1.38-1.385.76 0 1.38.62 1.38 1.385V214.7c0 .765-.62 1.385-1.38 1.385Z"/><path fill="#fff" d="m127.864 243.046 9.975 54.095H92.044l-10-54.095h45.82Z"/><path fill="#444" d="M138.139 297.391H91.834l-.04-.205-10.055-54.395h46.33l.04.205 10.03 54.395Zm-45.89-.5h45.29l-9.885-53.595h-45.31l9.905 53.595Z"/><path fill="#444" d="M140.08 310.691a1.385 1.385 0 0 1-1.36-1.135l-12.005-65.135H83.71l9.695 52.465 2.24 12.17a1.384 1.384 0 0 1-2.72.5l-2.24-12.17-10-54.095c-.075-.405.035-.82.295-1.135.26-.315.65-.5 1.06-.5h45.82c.665 0 1.24.475 1.36 1.13l12.215 66.265a1.384 1.384 0 0 1-1.36 1.635l.005.005Z"/><path fill="#444" d="M137.84 298.526H92.045a1.38 1.38 0 0 1-1.38-1.385c0-.765.62-1.385 1.38-1.385h45.795c.765 0 1.38.62 1.38 1.385s-.62 1.385-1.38 1.385ZM69.81 310.692a1.387 1.387 0 0 1-1.36-1.635l12.24-66.265c.14-.75.86-1.25 1.61-1.11.75.14 1.245.86 1.11 1.61l-12.24 66.265a1.385 1.385 0 0 1-1.36 1.13v.005Z"/></svg>