<svg xmlns="http://www.w3.org/2000/svg" width="401" height="401" fill="none" viewBox="0 0 401 401"><path fill="#fff" d="M260.019 68.86v61.18h-132.81v151.98h238.83V68.86h-106.02Z"/><path fill="#DADADA" d="m386.919 290.476-28.72 35.63H89.024l28.715-35.63h269.18Z"/><path fill="#FF3158" d="M44.72 284.506V130.041h82.489v154.465"/><path fill="#F5F4F3" d="M283.464 204.885h-81.58v61.055h81.58v-61.055Z"/><path fill="#222" d="M283.459 267.32h-81.58a1.38 1.38 0 0 1-1.38-1.385V204.88c0-.765.62-1.385 1.38-1.385h81.58c.765 0 1.38.62 1.38 1.385v61.055c0 .765-.62 1.385-1.38 1.385Zm-80.195-2.765h78.815v-58.29h-78.815v58.29Z"/><path fill="#FF3158" d="M260.059 130.131h9.95l44.095 46.12h-20.405l-44.075-46.12h10.435Z"/><path fill="#FF3158" d="M293.699 176.25c0 5.9-4.275 10.195-10.195 10.195s-10.195-4.295-10.195-10.195h20.39ZM229.239 130.131l44.07 46.12h-20.385l-44.09-46.12h20.405ZM252.905 176.25c0 .055 0 .13.02.185-.09 5.805-4.35 10.01-10.21 10.01-5.86 0-10.195-4.295-10.195-10.195h20.385ZM188.444 130.131l44.075 46.12h-20.39l-44.09-46.12h20.405Z"/><path fill="#FF3158" d="M212.129 176.25c0 5.9-4.295 10.195-10.195 10.195s-10.21-4.295-10.21-10.195h20.405ZM147.654 130.131l44.07 46.12h-20.385l-44.075-46.12h20.39ZM237.514 233.17h6.635v19.245h-28.37V233.17h21.735Z"/><path fill="#222" d="M366.039 285.885a1.38 1.38 0 0 1-1.38-1.385V70.245h-103.26v60.345c0 .765-.62 1.385-1.38 1.385-.76 0-1.38-.62-1.38-1.385V68.865c0-.764.62-1.384 1.38-1.384h106.025c.765 0 1.38.62 1.38 1.385v215.639c0 .765-.62 1.385-1.38 1.385l-.005-.005Z"/><path fill="#222" d="M382.744 285.885H14.079a1.38 1.38 0 0 1-1.38-1.385c0-.765.62-1.385 1.38-1.385h368.665a1.385 1.385 0 1 1 0 2.77Z"/><path fill="#222" d="M314.054 285.886a1.38 1.38 0 0 1-1.38-1.385v-108.35c0-.765.62-1.385 1.38-1.385.76 0 1.38.62 1.38 1.385v108.35c0 .765-.62 1.385-1.38 1.385ZM127.209 285.885a1.38 1.38 0 0 1-1.38-1.385V131.425h-79.73v153.08c0 .765-.62 1.385-1.38 1.385-.76 0-1.38-.62-1.38-1.385V130.04c0-.765.62-1.385 1.38-1.385h82.49c.765 0 1.38.62 1.38 1.385V284.5c0 .765-.62 1.385-1.38 1.385ZM238.984 234.471c-.42 0-.835-.19-1.105-.55l-7.965-10.575-7.965 10.575a1.38 1.38 0 0 1-1.935.27 1.386 1.386 0 0 1-.275-1.935l9.065-12.04a1.385 1.385 0 0 1 2.21 0l9.065 12.04c.46.61.335 1.475-.275 1.935-.25.19-.54.28-.83.28h.01Z"/><path fill="#222" d="M244.1 253.71h-28.366a1.38 1.38 0 0 1-1.38-1.385v-19.24c0-.765.62-1.385 1.38-1.385H244.1c.765 0 1.379.62 1.379 1.385v19.24c0 .765-.619 1.385-1.379 1.385Zm-26.981-2.765h25.6V234.47h-25.6v16.475ZM179.25 285.885a1.38 1.38 0 0 1-1.38-1.385v-42.155c0-8.045-5.975-14.59-13.32-14.59-7.345 0-13.32 6.545-13.32 14.59V284.5c0 .765-.62 1.385-1.38 1.385-.76 0-1.38-.62-1.38-1.385v-42.155c0-9.57 7.215-17.355 16.085-17.355 8.87 0 16.085 7.785 16.085 17.355V284.5c0 .765-.62 1.385-1.38 1.385h-.01Z"/><path fill="#222" d="M171.21 260.186a2.335 2.335 0 1 0 0-4.67 2.335 2.335 0 0 0 0 4.67ZM252.874 177.535a1.39 1.39 0 0 1-1-.425L207.789 131c-.53-.55-.51-1.425.045-1.955a1.378 1.378 0 0 1 1.955.045l44.085 46.11c.53.55.51 1.425-.045 1.955-.27.255-.61.385-.955.385v-.005ZM212.084 177.535a1.39 1.39 0 0 1-1-.425L166.999 131c-.53-.55-.51-1.425.045-1.955.55-.53 1.425-.51 1.955.045l44.085 46.11c.53.55.51 1.425-.045 1.955-.27.255-.61.385-.955.385v-.005ZM232.479 177.535c-.365 0-.729-.145-1-.425L187.395 131c-.53-.55-.51-1.425.045-1.955a1.378 1.378 0 0 1 1.955.045l44.084 46.11a1.386 1.386 0 0 1-1 2.34v-.005ZM191.689 177.535a1.39 1.39 0 0 1-1-.425L146.604 131c-.53-.55-.51-1.425.045-1.955a1.378 1.378 0 0 1 1.955.045l44.085 46.11c.53.55.51 1.425-.045 1.955-.27.255-.61.385-.955.385v-.005ZM293.659 177.535a1.39 1.39 0 0 1-1-.425L248.574 131c-.53-.55-.51-1.425.045-1.955.55-.53 1.425-.51 1.955.045l44.085 46.11c.53.55.51 1.425-.045 1.955-.27.255-.61.385-.955.385v-.005ZM273.264 177.535a1.39 1.39 0 0 1-1-.425L228.179 131c-.53-.55-.51-1.425.045-1.955a1.378 1.378 0 0 1 1.955.045l44.085 46.11c.53.55.51 1.425-.045 1.955-.27.255-.61.385-.955.385v-.005Z"/><path fill="#222" d="M314.054 177.535h-142.76c-.375 0-.74-.155-1-.425L126.209 131a1.386 1.386 0 0 1 1-2.34h142.76c.375 0 .74.155 1 .425l44.085 46.11a1.386 1.386 0 0 1-1 2.34Zm-142.17-2.765h138.935l-41.44-43.345H130.444l41.44 43.345Z"/><path fill="#222" d="M181.489 187.736c-6.71 0-11.58-4.87-11.58-11.58 0-.765.62-1.385 1.38-1.385.76 0 1.38.62 1.38 1.385 0 5.11 3.71 8.815 8.815 8.815 5.105 0 8.815-3.71 8.815-8.815 0-.765.62-1.385 1.38-1.385.76 0 1.38.62 1.38 1.385 0 6.71-4.87 11.58-11.58 11.58h.01Z"/><path fill="#222" d="M201.884 187.736c-6.71 0-11.58-4.87-11.58-11.58 0-.765.62-1.385 1.38-1.385.76 0 1.38.62 1.38 1.385 0 5.11 3.71 8.815 8.815 8.815 5.105 0 8.815-3.71 8.815-8.815 0-.765.62-1.385 1.38-1.385.76 0 1.38.62 1.38 1.385 0 6.71-4.87 11.58-11.58 11.58h.01Z"/><path fill="#222" d="M222.279 187.736c-6.71 0-11.58-4.87-11.58-11.58 0-.765.62-1.385 1.38-1.385.76 0 1.38.62 1.38 1.385 0 5.11 3.71 8.815 8.815 8.815 5.105 0 8.815-3.71 8.815-8.815 0-.765.62-1.385 1.38-1.385.76 0 1.38.62 1.38 1.385 0 6.71-4.87 11.58-11.58 11.58h.01Z"/><path fill="#222" d="M242.674 187.736c-6.71 0-11.58-4.87-11.58-11.58 0-.765.62-1.385 1.38-1.385.76 0 1.38.62 1.38 1.385 0 5.11 3.71 8.815 8.815 8.815 5.105 0 8.815-3.71 8.815-8.815 0-.765.62-1.385 1.38-1.385.76 0 1.38.62 1.38 1.385 0 6.71-4.87 11.58-11.58 11.58h.01Z"/><path fill="#222" d="M263.064 187.736c-6.71 0-11.58-4.87-11.58-11.58 0-.765.62-1.385 1.38-1.385.76 0 1.38.62 1.38 1.385 0 5.11 3.71 8.815 8.815 8.815 5.105 0 8.815-3.71 8.815-8.815 0-.765.62-1.385 1.38-1.385.76 0 1.38.62 1.38 1.385 0 6.71-4.87 11.58-11.58 11.58h.01Z"/><path fill="#222" d="M283.459 187.736c-6.71 0-11.58-4.87-11.58-11.58 0-.765.62-1.385 1.38-1.385.76 0 1.38.62 1.38 1.385 0 5.11 3.71 8.815 8.815 8.815 5.105 0 8.815-3.71 8.815-8.815 0-.765.62-1.385 1.38-1.385.76 0 1.38.62 1.38 1.385 0 6.71-4.87 11.58-11.58 11.58h.01Z"/><path fill="#222" d="M303.854 187.736c-6.71 0-11.58-4.87-11.58-11.58 0-.765.62-1.385 1.38-1.385.76 0 1.38.62 1.38 1.385 0 5.11 3.71 8.815 8.815 8.815 5.105 0 8.815-3.71 8.815-8.815 0-.765.62-1.385 1.38-1.385.76 0 1.38.62 1.38 1.385 0 6.71-4.87 11.58-11.58 11.58h.01Z"/><path fill="#fff" d="M98.699 218.335v13.47h-25.47v-26.92h25.47v13.45Z"/><path fill="#222" d="M98.7 233.185H73.23a1.38 1.38 0 0 1-1.38-1.385v-26.92c0-.765.62-1.385 1.38-1.385H98.7c.764 0 1.379.62 1.379 1.385v26.92c0 .765-.62 1.385-1.38 1.385Zm-24.086-2.765H97.32v-24.155H74.614v24.155Z"/><path fill="#222" d="M98.7 219.715H73.23a1.38 1.38 0 0 1-1.38-1.385c0-.765.62-1.385 1.38-1.385H98.7c.764 0 1.379.62 1.379 1.385s-.62 1.385-1.38 1.385Z"/><path fill="#222" d="M85.964 233.185a1.38 1.38 0 0 1-1.38-1.385v-26.92c0-.765.62-1.385 1.38-1.385.76 0 1.38.62 1.38 1.385v26.92c0 .765-.62 1.385-1.38 1.385Z"/><path fill="#fff" d="M348.149 89.555h-25.47v67.25h25.47v-67.25Z"/><path fill="#222" d="M348.149 158.19h-25.47a1.38 1.38 0 0 1-1.38-1.385v-67.25c0-.765.62-1.385 1.38-1.385h25.47c.765 0 1.38.62 1.38 1.385v67.25c0 .765-.62 1.385-1.38 1.385Zm-24.085-2.765h22.705v-64.49h-22.705v64.49Z"/><path fill="#222" d="M348.149 104.385h-25.47a1.38 1.38 0 0 1-1.38-1.385c0-.765.62-1.385 1.38-1.385h25.47c.765 0 1.38.62 1.38 1.385s-.62 1.385-1.38 1.385Z"/><path fill="#222" d="M335.414 158.19a1.38 1.38 0 0 1-1.38-1.385v-67.25c0-.765.62-1.385 1.38-1.385.76 0 1.38.62 1.38 1.385v67.25c0 .765-.62 1.385-1.38 1.385Z"/><path fill="#222" d="M348.149 117.835h-25.47a1.38 1.38 0 0 1-1.38-1.385c0-.765.62-1.385 1.38-1.385h25.47c.765 0 1.38.62 1.38 1.385s-.62 1.385-1.38 1.385ZM348.149 131.286h-25.47a1.38 1.38 0 0 1-1.38-1.385c0-.765.62-1.385 1.38-1.385h25.47c.765 0 1.38.62 1.38 1.385s-.62 1.385-1.38 1.385ZM348.149 144.736h-25.47a1.38 1.38 0 0 1-1.38-1.385c0-.765.62-1.385 1.38-1.385h25.47c.765 0 1.38.62 1.38 1.385s-.62 1.385-1.38 1.385Z"/><path fill="#222" d="M347.129 333.02H77.954a1.382 1.382 0 0 1-1.075-2.25l28.72-35.63c.26-.325.66-.515 1.075-.515h269.175a1.382 1.382 0 0 1 1.075 2.25l-28.715 35.63c-.26.325-.66.515-1.075.515h-.005Zm-266.285-2.765H346.47l26.49-32.865H107.334l-26.49 32.865Z" style="mix-blend-mode:multiply"/><path fill="#fff" d="m106.774 257.5 9.04 49.045H74.299L65.234 257.5h41.54Z"/><path fill="#222" d="M117.844 318.955a1.385 1.385 0 0 1-1.36-1.135l-10.865-58.945h-38.73l8.765 47.41 2.03 11.035a1.384 1.384 0 0 1-2.72.5l-2.03-11.03-9.065-49.045c-.075-.405.035-.82.295-1.135.265-.315.65-.5 1.065-.5h41.54c.665 0 1.24.475 1.36 1.13l11.075 60.075a1.384 1.384 0 0 1-1.36 1.635v.005Z"/><path fill="#222" d="M115.814 307.925h-41.52a1.38 1.38 0 0 1-1.38-1.385c0-.765.62-1.385 1.38-1.385h41.52c.765 0 1.38.62 1.38 1.385s-.62 1.385-1.38 1.385ZM54.14 318.955a1.387 1.387 0 0 1-1.365-1.635l11.094-60.075c.14-.75.86-1.25 1.61-1.11.75.14 1.245.86 1.11 1.61L55.494 317.82a1.385 1.385 0 0 1-1.36 1.13l.005.005Z"/></svg>