<svg xmlns="http://www.w3.org/2000/svg" width="400" height="400" fill="none" viewBox="0 0 400 400"><path fill="#fff" d="M259.52 68.61v61.18H126.71v151.98h238.83V68.61H259.52Z"/><path fill="#DADADA" d="m386.42 290.226-28.72 35.63H88.525l28.715-35.63h269.18Z"/><path fill="#FF3158" d="M44.22 284.255V129.79h82.49v154.465"/><path fill="#F5F4F3" d="M282.965 204.635h-81.58v61.055h81.58v-61.055Z"/><path fill="#222" d="M282.96 267.07h-81.58a1.38 1.38 0 0 1-1.38-1.385V204.63c0-.765.62-1.385 1.38-1.385h81.58c.765 0 1.38.62 1.38 1.385v61.055c0 .765-.62 1.385-1.38 1.385Zm-80.195-2.765h78.815v-58.29h-78.815v58.29Z"/><path fill="#FF3158" d="M259.56 129.881h9.95l44.095 46.12H293.2l-44.075-46.12h10.435Z"/><path fill="#FF3158" d="M293.201 176c0 5.9-4.275 10.195-10.195 10.195S272.811 181.9 272.811 176h20.39ZM228.74 129.881l44.07 46.12h-20.385l-44.09-46.12h20.405ZM252.405 176c0 .055 0 .13.02.185-.09 5.805-4.35 10.01-10.21 10.01-5.86 0-10.195-4.295-10.195-10.195h20.385ZM187.945 129.881l44.075 46.12h-20.39l-44.09-46.12h20.405Z"/><path fill="#FF3158" d="M211.63 176c0 5.9-4.295 10.195-10.195 10.195s-10.21-4.295-10.21-10.195h20.405ZM147.155 129.881l44.07 46.12H170.84l-44.075-46.12h20.39ZM237.015 232.921h6.635v19.245h-28.37v-19.245h21.735Z"/><path fill="#222" d="M365.541 285.635a1.38 1.38 0 0 1-1.38-1.385V69.995h-103.26v60.345c0 .765-.62 1.385-1.38 1.385-.76 0-1.38-.62-1.38-1.385V68.615c0-.764.62-1.384 1.38-1.384h106.025c.765 0 1.38.62 1.38 1.385v215.639c0 .765-.62 1.385-1.38 1.385l-.005-.005Z"/><path fill="#222" d="M382.245 285.635H13.58a1.38 1.38 0 0 1-1.38-1.385c0-.765.62-1.385 1.38-1.385h368.665a1.385 1.385 0 1 1 0 2.77Z"/><path fill="#222" d="M313.556 285.636a1.38 1.38 0 0 1-1.38-1.385v-108.35c0-.765.62-1.385 1.38-1.385.76 0 1.38.62 1.38 1.385v108.35c0 .765-.62 1.385-1.38 1.385ZM126.71 285.635a1.38 1.38 0 0 1-1.38-1.385V131.175H45.6v153.08c0 .765-.62 1.385-1.38 1.385-.76 0-1.38-.62-1.38-1.385V129.79c0-.765.62-1.385 1.38-1.385h82.49c.765 0 1.38.62 1.38 1.385v154.46c0 .765-.62 1.385-1.38 1.385ZM238.485 234.221c-.42 0-.835-.19-1.105-.55l-7.965-10.575-7.965 10.575a1.38 1.38 0 0 1-1.935.27 1.386 1.386 0 0 1-.275-1.935l9.065-12.04a1.385 1.385 0 0 1 2.21 0l9.065 12.04c.46.61.335 1.475-.275 1.935-.25.19-.54.28-.83.28h.01Z"/><path fill="#222" d="M243.6 253.46h-28.365a1.38 1.38 0 0 1-1.38-1.385v-19.24c0-.765.62-1.385 1.38-1.385H243.6c.765 0 1.38.62 1.38 1.385v19.24c0 .765-.62 1.385-1.38 1.385Zm-26.98-2.765h25.6V234.22h-25.6v16.475ZM178.75 285.635a1.38 1.38 0 0 1-1.38-1.385v-42.155c0-8.045-5.975-14.59-13.32-14.59-7.345 0-13.32 6.545-13.32 14.59v42.155c0 .765-.62 1.385-1.38 1.385-.76 0-1.38-.62-1.38-1.385v-42.155c0-9.57 7.215-17.355 16.085-17.355 8.87 0 16.085 7.785 16.085 17.355v42.155c0 .765-.62 1.385-1.38 1.385h-.01Z"/><path fill="#222" d="M170.71 259.936a2.335 2.335 0 1 0 0-4.67 2.335 2.335 0 0 0 0 4.67ZM252.375 177.285a1.39 1.39 0 0 1-1-.425l-44.085-46.11c-.53-.55-.51-1.425.045-1.955a1.378 1.378 0 0 1 1.955.045l44.085 46.11c.53.55.51 1.425-.045 1.955-.27.255-.61.385-.955.385v-.005ZM211.585 177.285a1.39 1.39 0 0 1-1-.425L166.5 130.75c-.53-.55-.51-1.425.045-1.955.55-.53 1.425-.51 1.955.045l44.085 46.11c.53.55.51 1.425-.045 1.955-.27.255-.61.385-.955.385v-.005ZM231.98 177.285a1.39 1.39 0 0 1-1-.425l-44.085-46.11c-.53-.55-.51-1.425.045-1.955a1.378 1.378 0 0 1 1.955.045l44.085 46.11c.53.55.51 1.425-.045 1.955-.27.255-.61.385-.955.385v-.005ZM191.19 177.285a1.39 1.39 0 0 1-1-.425l-44.085-46.11c-.53-.55-.51-1.425.045-1.955a1.378 1.378 0 0 1 1.955.045l44.085 46.11c.53.55.51 1.425-.045 1.955-.27.255-.61.385-.955.385v-.005ZM293.16 177.286a1.39 1.39 0 0 1-1-.425l-44.085-46.11c-.53-.55-.51-1.425.045-1.955.55-.53 1.425-.51 1.955.045l44.085 46.11c.53.55.51 1.425-.045 1.955-.27.255-.61.385-.955.385v-.005ZM272.765 177.286a1.39 1.39 0 0 1-1-.425l-44.085-46.11c-.53-.55-.51-1.425.045-1.955a1.378 1.378 0 0 1 1.955.045l44.085 46.11c.53.55.51 1.425-.045 1.955-.27.255-.61.385-.955.385v-.005Z"/><path fill="#222" d="M313.555 177.285h-142.76c-.375 0-.74-.155-1-.425l-44.085-46.11a1.386 1.386 0 0 1 1-2.34h142.76c.375 0 .74.155 1 .425l44.085 46.11a1.386 1.386 0 0 1-1 2.34Zm-142.17-2.765H310.32l-41.44-43.345H129.945l41.44 43.345Z"/><path fill="#222" d="M180.99 187.486c-6.71 0-11.58-4.87-11.58-11.58 0-.765.62-1.385 1.38-1.385.76 0 1.38.62 1.38 1.385 0 5.11 3.71 8.815 8.815 8.815 5.105 0 8.815-3.71 8.815-8.815 0-.765.62-1.385 1.38-1.385.76 0 1.38.62 1.38 1.385 0 6.71-4.87 11.58-11.58 11.58h.01Z"/><path fill="#222" d="M201.385 187.486c-6.71 0-11.58-4.87-11.58-11.58 0-.765.62-1.385 1.38-1.385.76 0 1.38.62 1.38 1.385 0 5.11 3.71 8.815 8.815 8.815 5.105 0 8.815-3.71 8.815-8.815 0-.765.62-1.385 1.38-1.385.76 0 1.38.62 1.38 1.385 0 6.71-4.87 11.58-11.58 11.58h.01Z"/><path fill="#222" d="M221.78 187.486c-6.71 0-11.58-4.87-11.58-11.58 0-.765.62-1.385 1.38-1.385.76 0 1.38.62 1.38 1.385 0 5.11 3.71 8.815 8.815 8.815 5.105 0 8.815-3.71 8.815-8.815 0-.765.62-1.385 1.38-1.385.76 0 1.38.62 1.38 1.385 0 6.71-4.87 11.58-11.58 11.58h.01Z"/><path fill="#222" d="M242.176 187.486c-6.71 0-11.58-4.87-11.58-11.58 0-.765.62-1.385 1.38-1.385.76 0 1.38.62 1.38 1.385 0 5.11 3.71 8.815 8.815 8.815 5.105 0 8.815-3.71 8.815-8.815 0-.765.62-1.385 1.38-1.385.76 0 1.38.62 1.38 1.385 0 6.71-4.87 11.58-11.58 11.58h.01Z"/><path fill="#222" d="M262.565 187.486c-6.71 0-11.58-4.87-11.58-11.58 0-.765.62-1.385 1.38-1.385.76 0 1.38.62 1.38 1.385 0 5.11 3.71 8.815 8.815 8.815 5.105 0 8.815-3.71 8.815-8.815 0-.765.62-1.385 1.38-1.385.76 0 1.38.62 1.38 1.385 0 6.71-4.87 11.58-11.58 11.58h.01Z"/><path fill="#222" d="M282.961 187.486c-6.71 0-11.58-4.87-11.58-11.58 0-.765.62-1.385 1.38-1.385.76 0 1.38.62 1.38 1.385 0 5.11 3.71 8.815 8.815 8.815 5.105 0 8.815-3.71 8.815-8.815 0-.765.62-1.385 1.38-1.385.76 0 1.38.62 1.38 1.385 0 6.71-4.87 11.58-11.58 11.58h.01Z"/><path fill="#222" d="M303.355 187.486c-6.71 0-11.58-4.87-11.58-11.58 0-.765.62-1.385 1.38-1.385.76 0 1.38.62 1.38 1.385 0 5.11 3.71 8.815 8.815 8.815 5.105 0 8.815-3.71 8.815-8.815 0-.765.62-1.385 1.38-1.385.76 0 1.38.62 1.38 1.385 0 6.71-4.87 11.58-11.58 11.58h.01Z"/><path fill="#fff" d="M98.2 218.085v13.47H72.73v-26.92H98.2v13.45Z"/><path fill="#222" d="M98.2 232.935H72.73a1.38 1.38 0 0 1-1.38-1.385v-26.92c0-.765.62-1.385 1.38-1.385H98.2c.765 0 1.38.62 1.38 1.385v26.92c0 .765-.62 1.385-1.38 1.385Zm-24.085-2.765H96.82v-24.155H74.115v24.155Z"/><path fill="#222" d="M98.2 219.465H72.73a1.38 1.38 0 0 1-1.38-1.385c0-.765.62-1.385 1.38-1.385H98.2c.765 0 1.38.62 1.38 1.385s-.62 1.385-1.38 1.385Z"/><path fill="#222" d="M85.465 232.935a1.38 1.38 0 0 1-1.38-1.385v-26.92c0-.765.62-1.385 1.38-1.385.76 0 1.38.62 1.38 1.385v26.92c0 .765-.62 1.385-1.38 1.385Z"/><path fill="#fff" d="M347.651 89.305h-25.47v67.25h25.47v-67.25Z"/><path fill="#222" d="M347.651 157.94h-25.47a1.38 1.38 0 0 1-1.38-1.385v-67.25c0-.765.62-1.385 1.38-1.385h25.47c.765 0 1.38.62 1.38 1.385v67.25c0 .765-.62 1.385-1.38 1.385Zm-24.085-2.765h22.705v-64.49h-22.705v64.49Z"/><path fill="#222" d="M347.651 104.135h-25.47a1.38 1.38 0 0 1-1.38-1.385c0-.765.62-1.385 1.38-1.385h25.47c.765 0 1.38.62 1.38 1.385s-.62 1.385-1.38 1.385Z"/><path fill="#222" d="M334.915 157.941a1.38 1.38 0 0 1-1.38-1.385v-67.25c0-.765.62-1.385 1.38-1.385.76 0 1.38.62 1.38 1.385v67.25c0 .765-.62 1.385-1.38 1.385Z"/><path fill="#222" d="M347.651 117.585h-25.47a1.38 1.38 0 0 1-1.38-1.385c0-.765.62-1.385 1.38-1.385h25.47c.765 0 1.38.62 1.38 1.385s-.62 1.385-1.38 1.385ZM347.651 131.036h-25.47a1.38 1.38 0 0 1-1.38-1.385c0-.765.62-1.385 1.38-1.385h25.47c.765 0 1.38.62 1.38 1.385s-.62 1.385-1.38 1.385ZM347.651 144.486h-25.47a1.38 1.38 0 0 1-1.38-1.385c0-.765.62-1.385 1.38-1.385h25.47c.765 0 1.38.62 1.38 1.385s-.62 1.385-1.38 1.385Z"/><path fill="#222" d="M346.63 332.77H77.455a1.382 1.382 0 0 1-1.075-2.25l28.72-35.63c.26-.325.66-.515 1.075-.515H375.35a1.382 1.382 0 0 1 1.075 2.25l-28.715 35.63c-.26.325-.66.515-1.075.515h-.005Zm-266.285-2.765H345.97l26.49-32.865H106.835l-26.49 32.865Z" style="mix-blend-mode:multiply"/><path fill="#fff" d="m106.275 257.25 9.04 49.045H73.8l-9.065-49.045h41.54Z"/><path fill="#444" d="M115.615 306.545H73.59L64.435 257h42.05l9.135 49.545h-.005Zm-41.61-.5h41.01l-8.95-48.545h-41.03l8.97 48.545Z"/><path fill="#444" d="M117.345 318.705a1.385 1.385 0 0 1-1.36-1.135l-10.865-58.945H66.39l8.765 47.41 2.03 11.035a1.384 1.384 0 0 1-2.72.5l-2.03-11.03-9.065-49.045c-.075-.405.035-.82.295-1.135.265-.315.65-.5 1.065-.5h41.54c.665 0 1.24.475 1.36 1.13l11.075 60.075a1.384 1.384 0 0 1-1.36 1.635v.005Z"/><path fill="#444" d="M115.315 307.675h-41.52a1.38 1.38 0 0 1-1.38-1.385c0-.765.62-1.385 1.38-1.385h41.52c.765 0 1.38.62 1.38 1.385s-.62 1.385-1.38 1.385ZM53.64 318.705a1.387 1.387 0 0 1-1.365-1.635l11.095-60.075c.14-.75.86-1.25 1.61-1.11.75.14 1.245.86 1.11 1.61L54.995 317.57a1.385 1.385 0 0 1-1.36 1.13l.005.005Z"/></svg>