<svg xmlns="http://www.w3.org/2000/svg" width="400" height="401" fill="none" viewBox="0 0 400 401"><path fill="#DADADA" d="m19.28 111.154 56.785 149.755h283.86l-56.78-149.755H19.28Z"/><path fill="#222" d="M376.11 270.124H92.245c-.575 0-1.09-.355-1.295-.895l-56.78-149.75a1.378 1.378 0 0 1 .155-1.275c.26-.37.685-.6 1.14-.6h283.86c.575 0 1.09.355 1.295.895l56.785 149.755a1.388 1.388 0 0 1-1.295 1.875v-.005Zm-282.91-2.77h280.905L318.37 120.369H37.465L93.2 267.354Z" style="mix-blend-mode:multiply"/><path fill="#fff" d="M219.445 235.92c44.92 0 81.335-36.415 81.335-81.335 0-44.92-36.415-81.335-81.335-81.335-44.92 0-81.335 36.415-81.335 81.335 0 44.92 36.415 81.335 81.335 81.335Z"/><path fill="#fff" d="M203.465 210.239H31.585a4.08 4.08 0 0 0-4.08 4.08v28.09a4.08 4.08 0 0 0 4.08 4.08h171.88a4.08 4.08 0 0 0 4.08-4.08v-28.09a4.08 4.08 0 0 0-4.08-4.08Z"/><path fill="#222" d="M203.47 247.875H31.585a5.472 5.472 0 0 1-5.465-5.465v-28.095c0-3.01 2.45-5.465 5.465-5.465H203.47c3.01 0 5.465 2.45 5.465 5.465v28.095c0 3.01-2.45 5.465-5.465 5.465ZM31.585 211.62a2.7 2.7 0 0 0-2.695 2.695v28.095a2.7 2.7 0 0 0 2.695 2.695H203.47a2.7 2.7 0 0 0 2.695-2.695v-28.095a2.7 2.7 0 0 0-2.695-2.695H31.585Z"/><path fill="#222" d="M85.78 234.414a6.05 6.05 0 1 0 0-12.1 6.05 6.05 0 0 0 0 12.1ZM111.255 234.414a6.05 6.05 0 1 0 0-12.1 6.05 6.05 0 0 0 0 12.1ZM138.11 234.414a6.05 6.05 0 1 0 0-12.1 6.05 6.05 0 0 0 0 12.1Z"/><path fill="#FF3158" d="M274.52 97.97c-29.49-32.62-79.83-35.16-112.45-5.67-32.61 29.479-35.15 79.829-5.67 112.444 29.49 32.62 79.83 35.16 112.45 5.67 32.61-29.48 35.15-79.83 5.67-112.445Zm-22.01 94.369c-22.635 20.46-57.57 18.7-78.03-3.935-20.465-22.635-18.705-57.57 3.93-78.03 22.635-20.465 57.57-18.7 78.03 3.935 20.465 22.635 18.705 57.565-3.93 78.03Z"/><path fill="#222" d="M215.555 232.359c-1.385 0-2.775-.035-4.175-.105-21.605-1.09-41.5-10.53-56.01-26.58-29.95-33.13-27.36-84.45 5.77-114.4 33.13-29.95 84.455-27.364 114.405 5.766 14.505 16.044 21.895 36.784 20.805 58.394-1.09 21.61-10.525 41.5-26.575 56.005-15.015 13.575-34.13 20.92-54.225 20.92h.005Zm-.135-159.19c-18.715 0-37.48 6.656-52.425 20.166-31.995 28.924-34.495 78.489-5.57 110.489 14.015 15.5 33.225 24.62 54.095 25.67 20.87 1.055 40.9-6.085 56.4-20.1 15.5-14.01 24.615-33.22 25.665-54.09 1.05-20.87-6.085-40.9-20.095-56.4-15.42-17.054-36.71-25.734-58.07-25.734Zm.065 134.795c-15.465 0-30.875-6.28-42.035-18.63-10.145-11.22-15.315-25.72-14.555-40.83.76-15.11 7.36-29.015 18.58-39.155 11.22-10.145 25.72-15.31 40.83-14.55 15.105.765 29.015 7.365 39.155 18.585 20.94 23.16 19.135 59.04-4.025 79.985-10.815 9.775-24.405 14.595-37.95 14.595Zm-.1-110.47c-13.36 0-26.07 4.885-36.055 13.91-10.675 9.645-16.95 22.875-17.675 37.24-.725 14.37 4.19 28.16 13.84 38.83 9.645 10.675 22.875 16.95 37.24 17.675 14.365.72 28.16-4.19 38.835-13.835 22.03-19.92 23.75-54.045 3.83-76.075-9.645-10.675-22.875-16.95-37.245-17.675a57.47 57.47 0 0 0-2.78-.07h.01Z"/><path fill="#444" d="m274.093 205.303-10.909 9.86 19.151 21.188 10.909-9.861-19.151-21.187Z"/><path fill="#222" d="M282.335 237.249h-.045a.907.907 0 0 1-.64-.305l-19.155-21.185a.93.93 0 0 1 .065-1.305l10.91-9.86a.91.91 0 0 1 .665-.235c.245.01.475.12.64.305l19.155 21.185c.34.38.31.96-.065 1.305l-10.91 9.86a.918.918 0 0 1-.62.24v-.005Zm-17.85-22.045 17.915 19.815 9.54-8.625-17.915-19.815-9.54 8.625Z"/><path fill="#444" d="m301.632 219.207-27.738 25.072 65.734 72.725 27.738-25.072-65.734-72.725Z"/><path fill="#222" d="M339.625 318.355h-.07c-.365-.02-.71-.18-.955-.455l-65.74-72.72a1.379 1.379 0 0 1-.355-1c.02-.365.18-.71.455-.955l27.735-25.075a1.384 1.384 0 0 1 1.955.1l65.74 72.72a1.38 1.38 0 0 1-.1 1.955L340.555 318c-.255.23-.585.355-.93.355ZM275.84 244.35l63.88 70.665L365.4 291.8l-63.88-70.665-25.68 23.215Z"/></svg>