<svg xmlns="http://www.w3.org/2000/svg" width="400" height="401" fill="none" viewBox="0 0 400 401"><path fill="#fff" d="M164.25 235.695c42.311 0 76.61-34.3 76.61-76.61 0-42.311-34.299-76.61-76.61-76.61-42.31 0-76.61 34.299-76.61 76.61 0 42.31 34.3 76.61 76.61 76.61Z"/><path fill="#FF3158" d="M224.055 107.202c-29.49-32.62-79.83-35.16-112.45-5.67-32.61 29.48-35.15 79.83-5.67 112.445 29.49 32.62 79.83 35.16 112.45 5.67 32.61-29.48 35.15-79.83 5.67-112.445Zm-22.01 94.37c-22.635 20.46-57.57 18.7-78.03-3.935-20.465-22.635-18.705-57.57 3.93-78.03 22.635-20.465 57.57-18.7 78.03 3.935 20.465 22.635 18.705 57.565-3.93 78.03Z"/><path fill="#222" d="M165.03 241.547c-22.12 0-44.16-8.98-60.125-26.645C90.4 198.857 83.01 178.117 84.1 156.507c1.09-21.61 10.525-41.5 26.575-56.005 16.05-14.51 36.775-21.9 58.395-20.815 21.605 1.09 41.5 10.53 56.01 26.58 14.505 16.045 21.895 36.785 20.805 58.395-1.09 21.61-10.525 41.5-26.575 56.005-15.47 13.985-34.905 20.875-54.28 20.875v.005Zm-.075-159.15c-18.715 0-37.485 6.655-52.425 20.165-15.5 14.01-24.615 33.22-25.665 54.09-1.05 20.87 6.085 40.9 20.095 56.4 28.93 32 78.495 34.5 110.495 5.57 32-28.925 34.495-78.49 5.57-110.49-15.42-17.055-36.71-25.735-58.07-25.735Zm.065 134.795c-15.465 0-30.875-6.28-42.035-18.63-10.145-11.22-15.315-25.72-14.555-40.83.76-15.11 7.36-29.015 18.58-39.155 11.22-10.145 25.725-15.315 40.83-14.55 15.105.765 29.015 7.365 39.155 18.585 10.145 11.22 15.315 25.72 14.555 40.825-.76 15.105-7.36 29.015-18.58 39.16-10.815 9.775-24.405 14.595-37.95 14.595Zm-.1-110.47c-13.36 0-26.07 4.885-36.055 13.91-10.67 9.645-16.95 22.875-17.67 37.24-.72 14.365 4.19 28.16 13.84 38.835 19.915 22.03 54.04 23.75 76.075 3.835 22.03-19.92 23.75-54.045 3.83-76.075-9.645-10.675-22.875-16.95-37.245-17.675a57.47 57.47 0 0 0-2.78-.07h.005Z"/><path fill="#444" d="m223.622 214.532-10.909 9.861 19.151 21.187 10.909-9.86-19.151-21.188Z"/><path fill="#222" d="M231.865 246.482a.927.927 0 0 1-.685-.305l-19.155-21.185a.927.927 0 0 1 .07-1.305l10.91-9.86a.93.93 0 0 1 1.305.065l19.155 21.185a.927.927 0 0 1-.07 1.305l-10.91 9.86c-.175.16-.4.24-.62.24Zm-17.85-22.045 17.915 19.815 9.54-8.625-17.915-19.815-9.54 8.625Z"/><path fill="#444" d="m251.16 228.426-27.738 25.072 65.734 72.724 27.739-25.072-65.735-72.724Z"/><path fill="#222" d="M289.16 327.581c-.38 0-.755-.155-1.025-.455l-65.74-72.72a1.379 1.379 0 0 1-.355-1c.02-.37.18-.71.455-.955l27.735-25.075c.565-.51 1.44-.47 1.955.1l65.74 72.72c.245.27.375.63.355 1-.02.37-.18.71-.455.955l-27.735 25.075c-.265.24-.595.355-.93.355Zm-63.785-74.005 63.88 70.665 25.685-23.215-63.88-70.665-25.685 23.215Z"/></svg>