<svg xmlns="http://www.w3.org/2000/svg" width="400" height="401" fill="none" viewBox="0 0 400 401"><path fill="#222" d="m290.13 171.341-124.26 62.655 7.035 12.34 117.225-74.995Z"/><path fill="#222" d="M172.905 247.721a1.381 1.381 0 0 1-1.2-.7l-7.035-12.34c-.19-.33-.23-.72-.125-1.085.105-.365.365-.665.7-.835L289.5 170.106a1.385 1.385 0 0 1 1.37 2.4l-117.22 74.995c-.225.145-.485.22-.745.22Zm-5.115-13.145 5.595 9.815 93.21-59.635-98.805 49.82Z"/><path fill="#fff" d="M205.735 234.976c8.712 0 15.775-7.063 15.775-15.775 0-8.713-7.063-15.775-15.775-15.775s-15.775 7.062-15.775 15.775c0 8.712 7.063 15.775 15.775 15.775Z"/><path fill="#222" d="M205.71 236.355c-2.415 0-4.87-.515-7.205-1.595-8.58-3.985-12.32-14.21-8.33-22.79 3.985-8.58 14.21-12.315 22.79-8.33 8.58 3.985 12.315 14.21 8.33 22.79-2.905 6.25-9.115 9.93-15.585 9.93v-.005Zm.05-31.55c-5.43 0-10.64 3.085-13.075 8.33-3.345 7.2-.21 15.775 6.99 19.115a14.295 14.295 0 0 0 11.005.465 14.29 14.29 0 0 0 8.11-7.455c3.345-7.2.21-15.775-6.99-19.115a14.287 14.287 0 0 0-6.04-1.34Z"/><path fill="#222" d="M205.745 220.584a1.385 1.385 0 0 1-.005-2.77 1.385 1.385 0 1 1 0 2.77h.005Z"/><path fill="#222" d="M205.745 220.584a1.385 1.385 0 0 1-.005-2.77 1.385 1.385 0 1 1 0 2.77h.005Z"/><path fill="#222" d="M205.745 220.584a1.385 1.385 0 0 1-.005-2.77 1.385 1.385 0 1 1 0 2.77h.005Z"/><path fill="#222" d="M205.745 220.584a1.385 1.385 0 0 1-.005-2.77 1.385 1.385 0 1 1 0 2.77h.005Z"/><path fill="#222" d="M205.745 220.584a1.385 1.385 0 0 1-.005-2.77 1.385 1.385 0 1 1 0 2.77h.005Z"/><path fill="#222" d="M205.745 220.584a1.385 1.385 0 0 1-.005-2.77 1.385 1.385 0 1 1 0 2.77h.005Z"/><path fill="#fff" d="m93.845 249.475-7.44 1.995c5.675 21.37 17.39 39.71 31.895 55.535l5.56-5.56c-14.175-14.175-24.68-32.015-30.01-51.97h-.005Z"/><path fill="#222" d="M118.3 308.385h-.03a1.39 1.39 0 0 1-.99-.45c-16.17-17.64-27.005-36.52-32.21-56.115a1.38 1.38 0 0 1 .98-1.69l7.44-1.995c.355-.095.73-.045 1.05.14.315.185.55.485.645.84 5.18 19.37 15.43 37.125 29.655 51.35.54.54.54 1.415 0 1.955l-5.56 5.56c-.26.26-.61.405-.98.405Zm-30.195-55.94c5.11 18.29 15.28 35.955 30.245 52.555l3.56-3.56c-13.735-14.065-23.745-31.395-29.03-50.27l-4.77 1.28-.005-.005Z"/><path fill="#fff" d="M89.9 219.47c0-10.38 1.385-20.435 3.945-30.005l-8.695-2.33c-2.125 9.52-3.285 19.405-3.285 29.565 0 12.025 1.59 23.675 4.54 34.77l7.44-1.995A115.984 115.984 0 0 1 89.9 219.47Z"/><path fill="#222" d="M86.405 252.85a1.379 1.379 0 0 1-1.335-1.025 136.766 136.766 0 0 1-4.585-35.125c0-9.96 1.115-20.01 3.315-29.865.08-.37.31-.685.635-.88.32-.195.71-.25 1.075-.155l8.695 2.33c.735.2 1.175.955.98 1.695a114.85 114.85 0 0 0-3.895 29.65c0 10.005 1.31 19.98 3.895 29.65.195.74-.24 1.495-.98 1.695l-7.44 1.995c-.12.03-.24.045-.36.045v-.01Zm-.215-64.01a134.303 134.303 0 0 0-2.945 27.855c0 11.155 1.395 22.275 4.145 33.075l4.77-1.275a117.694 117.694 0 0 1-3.64-29.025c0-9.78 1.225-19.54 3.64-29.025l-5.97-1.6v-.005Z"/><path fill="#fff" d="m175.825 107.48-4.785-17.865c-21.98 7.945-41.285 21.445-56.275 38.78l9.095 9.095c14.175-14.175 32.015-24.68 51.97-30.01h-.005Z"/><path fill="#222" d="M123.855 138.875a1.39 1.39 0 0 1-.98-.405l-9.095-9.095a1.382 1.382 0 0 1-.07-1.88c15.33-17.725 34.99-31.275 56.855-39.18a1.379 1.379 0 0 1 1.805.945l4.785 17.865c.095.355.045.73-.14 1.05-.185.32-.485.55-.84.645-19.37 5.175-37.125 15.43-51.35 29.655-.26.26-.61.405-.98.405l.01-.005Zm-7.205-10.54 7.21 7.21a117.361 117.361 0 0 1 50.27-29.035l-4.04-15.075c-20.455 7.66-38.88 20.385-53.44 36.9Z"/><path fill="#fff" d="m123.855 137.49-9.095-9.095c-14.315 16.555-24.67 36.615-29.61 58.735l8.695 2.33c5.335-19.95 15.835-37.79 30.01-51.97Z"/><path fill="#222" d="M93.845 190.845c-.12 0-.24-.015-.36-.045l-8.695-2.33a1.378 1.378 0 0 1-.99-1.635c4.875-21.825 15.22-42.34 29.915-59.335.25-.29.61-.465.995-.475.385-.01.755.13 1.025.405l9.095 9.095c.54.54.54 1.415 0 1.955-14.22 14.22-24.475 31.975-29.655 51.35a1.379 1.379 0 0 1-1.335 1.025l.005-.01Zm-7.05-4.705 6.08 1.63c5.285-18.875 15.295-36.205 29.03-50.27l-7.065-7.065c-13.6 16.09-23.27 35.295-28.045 55.71v-.005Z"/><path fill="#FF3158" d="m317.82 189.46 29.6-7.93c-6.76-25.13-20.57-47.37-39.2-64.45l-20.41 20.41c14.175 14.175 24.68 32.015 30.01 51.97Z"/><path fill="#222" d="M317.82 190.845a1.379 1.379 0 0 1-1.335-1.025c-5.18-19.37-15.43-37.125-29.655-51.35a1.38 1.38 0 0 1-.405-.98c0-.37.145-.72.405-.98l20.41-20.41a1.379 1.379 0 0 1 1.91-.04c19.18 17.58 32.875 40.095 39.605 65.11a1.379 1.379 0 0 1-.975 1.695l-29.6 7.93c-.12.03-.24.045-.36.045v.005ZM289.755 137.5a117.361 117.361 0 0 1 29.035 50.27l26.93-7.215c-6.595-23.55-19.52-44.78-37.465-61.555l-18.5 18.5Z"/><path fill="#FF3158" d="m287.805 137.489 20.41-20.41c-18.16-16.645-40.885-28.36-66.08-33.11l-6.3 23.51c19.95 5.335 37.79 15.835 51.97 30.01Z"/><path fill="#222" d="M287.805 138.874c-.355 0-.71-.135-.98-.405-14.22-14.22-31.98-24.475-51.35-29.655a1.379 1.379 0 0 1-.84-.645 1.378 1.378 0 0 1-.14-1.05l6.3-23.51c.185-.7.875-1.134 1.59-1 24.925 4.7 48.01 16.266 66.76 33.45a1.38 1.38 0 0 1 .045 2l-20.41 20.41c-.27.27-.625.405-.98.405h.005Zm-50.275-32.365a117.361 117.361 0 0 1 50.27 29.035l18.415-18.41c-17.855-16.015-39.61-26.9-63.075-31.56l-5.61 20.935Z"/><path fill="#FF3158" d="M205.83 103.535c10.38 0 20.435 1.385 30.005 3.945l6.3-23.51a135.56 135.56 0 0 0-25.17-2.375c-16.13 0-31.81 2.835-46.15 8.02l5.01 17.865a115.984 115.984 0 0 1 30.005-3.945Z"/><path fill="#222" d="M235.84 108.865c-.12 0-.24-.015-.36-.045-19.345-5.17-39.955-5.17-59.3 0a1.386 1.386 0 0 1-1.69-.965l-5.01-17.865a1.388 1.388 0 0 1 .86-1.675c14.875-5.375 30.56-8.105 46.62-8.105 8.42 0 16.975.81 25.425 2.4.38.07.71.295.915.625.205.325.265.72.165 1.095l-6.3 23.51a1.387 1.387 0 0 1-1.335 1.025h.01Zm-63.345-18.38 4.295 15.315c18.98-4.835 39.09-4.84 58.07 0l5.555-20.735a134.505 134.505 0 0 0-23.445-2.085c-15.305 0-30.26 2.525-44.47 7.51l-.005-.005Z"/></svg>