<svg xmlns="http://www.w3.org/2000/svg" width="400" height="401" fill="none" viewBox="0 0 400 401"><path fill="#DADADA" d="M185.025 247.865c3.74 5.8 8.05 11.2 12.91 16.06l-4.645 4.645c-5.86-6.39-11.165-13.28-15.625-20.705H126.53L89.95 314.37h189.53l36.58-66.505H185.025ZM166.625 104.521l12.765-23.21H71.91l-12.765 23.21h107.48ZM135.36 188.9l12.765-23.21h-62.67l-12.77 23.21h62.675Z"/><path fill="#222" d="M270.08 321.065H80.55a1.38 1.38 0 0 1-1.21-2.05l36.58-66.505c.245-.44.705-.715 1.21-.715h189.53a1.38 1.38 0 0 1 1.21 2.05l-36.58 66.505c-.245.44-.705.715-1.21.715ZM82.89 318.3h186.37l35.06-63.74H117.945l-35.06 63.74h.005Z" style="mix-blend-mode:multiply"/><path fill="#222" d="M169 121.585h-47.6a1.38 1.38 0 0 1-1.38-1.385c0-.765.62-1.385 1.38-1.385H169c.765 0 1.38.62 1.38 1.385s-.62 1.385-1.38 1.385ZM148.06 234.041H87.475a1.38 1.38 0 0 1-1.38-1.385c0-.765.62-1.385 1.38-1.385h60.585c.765 0 1.38.62 1.38 1.385s-.62 1.385-1.38 1.385ZM104.845 156.831H24.68a1.38 1.38 0 0 1-1.38-1.385c0-.765.62-1.385 1.38-1.385h80.165c.765 0 1.38.62 1.38 1.385s-.62 1.385-1.38 1.385ZM141.315 211.995H31.145a1.38 1.38 0 0 1-1.38-1.385c0-.765.62-1.385 1.38-1.385h110.17c.765 0 1.38.62 1.38 1.385s-.62 1.385-1.38 1.385Z"/><path fill="#222" d="M157.4 111.436H49.92a1.38 1.38 0 0 1-1.21-2.05l12.765-23.21c.245-.44.705-.715 1.21-.715H170.17a1.38 1.38 0 0 1 1.21 2.05l-12.765 23.21c-.245.44-.705.715-1.21.715h-.005Zm-105.145-2.765h104.33l11.245-20.445H63.505L52.26 108.67h-.005ZM126.135 195.815h-62.67a1.38 1.38 0 0 1-1.21-2.05l12.765-23.21c.245-.44.705-.715 1.21-.715h62.67a1.38 1.38 0 0 1 1.21 2.05l-12.765 23.21c-.245.44-.705.715-1.21.715ZM65.8 193.05h59.515l11.245-20.445H77.045L65.8 193.05Z" style="mix-blend-mode:multiply"/><path fill="#222" d="m327.44 160.55-103.805 52.34 5.875 10.31 97.93-62.65Z"/><path fill="#222" d="M229.51 224.585a1.381 1.381 0 0 1-1.2-.7l-5.875-10.31c-.19-.33-.23-.72-.125-1.085.105-.365.365-.665.7-.835l103.805-52.34a1.383 1.383 0 0 1 1.37 2.4l-97.93 62.655c-.225.145-.485.22-.745.22v-.005Zm-3.955-11.115 4.435 7.785 73.92-47.29-78.355 39.51v-.005Z"/><path fill="#fff" d="M256.935 213.711c7.279 0 13.18-5.901 13.18-13.18 0-7.28-5.901-13.18-13.18-13.18s-13.18 5.9-13.18 13.18c0 7.279 5.901 13.18 13.18 13.18Z"/><path fill="#222" d="M256.925 215.1a14.46 14.46 0 0 1-6.125-1.365 14.482 14.482 0 0 1-7.54-8.205 14.463 14.463 0 0 1 .47-11.135c3.385-7.28 12.06-10.455 19.34-7.07a14.482 14.482 0 0 1 7.54 8.205 14.463 14.463 0 0 1-.47 11.135 14.482 14.482 0 0 1-8.205 7.54 14.59 14.59 0 0 1-5.01.895Zm.025-26.365c-4.45 0-8.72 2.53-10.715 6.825a11.693 11.693 0 0 0-.38 9.02c1.08 2.96 3.25 5.32 6.11 6.65a11.716 11.716 0 0 0 9.02.38c2.96-1.08 5.32-3.25 6.65-6.11 1.33-2.86 1.465-6.06.38-9.02a11.716 11.716 0 0 0-6.11-6.65 11.73 11.73 0 0 0-4.95-1.1l-.005.005Z"/><path fill="#222" d="M256.945 201.916a1.385 1.385 0 0 1-.005-2.77h.005c.765 0 1.38.62 1.38 1.385s-.62 1.385-1.38 1.385Z"/><path fill="#222" d="M256.945 201.916a1.385 1.385 0 0 1-.005-2.77h.005c.765 0 1.38.62 1.38 1.385s-.62 1.385-1.38 1.385Z"/><path fill="#222" d="M256.945 201.916a1.385 1.385 0 0 1-.005-2.77h.005c.765 0 1.38.62 1.38 1.385s-.62 1.385-1.38 1.385Z"/><path fill="#222" d="M256.945 201.916a1.385 1.385 0 0 1-.005-2.77h.005c.765 0 1.38.62 1.38 1.385s-.62 1.385-1.38 1.385Z"/><path fill="#222" d="M256.945 201.916a1.385 1.385 0 0 1-.005-2.77h.005c.765 0 1.38.62 1.38 1.385s-.62 1.385-1.38 1.385Z"/><path fill="#222" d="M256.945 201.916a1.385 1.385 0 0 1-.005-2.77h.005c.765 0 1.38.62 1.38 1.385s-.62 1.385-1.38 1.385Z"/><path fill="#fff" d="m163.46 225.82-6.215 1.665c4.74 17.85 14.53 33.175 26.645 46.395l4.645-4.645a96.716 96.716 0 0 1-25.07-43.415h-.005Z"/><path fill="#222" d="M183.89 275.265h-.03a1.385 1.385 0 0 1-.99-.449c-13.535-14.765-22.605-30.57-26.96-46.975a1.38 1.38 0 0 1 .98-1.69l6.215-1.665c.355-.095.73-.045 1.05.14.32.185.55.485.645.84 4.315 16.145 12.86 30.94 24.715 42.795.54.54.54 1.415 0 1.955l-4.645 4.645c-.26.259-.61.404-.98.404Zm-24.945-46.799c4.26 15.1 12.665 29.695 24.99 43.415l2.645-2.645a98.279 98.279 0 0 1-24.095-41.72l-3.545.95h.005Z"/><path fill="#fff" d="M160.165 200.754c0-8.67 1.155-17.07 3.295-25.07l-7.265-1.945a113.248 113.248 0 0 0-2.745 24.7c0 10.045 1.33 19.78 3.79 29.05l6.215-1.665a96.849 96.849 0 0 1-3.295-25.07h.005Z"/><path fill="#222" d="M157.245 228.87a1.379 1.379 0 0 1-1.34-1.025 114.676 114.676 0 0 1-3.84-29.405c0-8.34.935-16.75 2.775-25 .08-.37.31-.685.635-.88.32-.195.71-.25 1.075-.155l7.265 1.945c.735.2 1.175.955.98 1.69a95.714 95.714 0 0 0-3.25 24.71c0 8.335 1.095 16.65 3.25 24.71a1.38 1.38 0 0 1-.98 1.69l-6.215 1.665c-.12.03-.24.045-.36.045l.005.01Zm0-53.42a112.097 112.097 0 0 0-2.405 22.99c0 9.22 1.145 18.415 3.4 27.355l3.545-.95a98.346 98.346 0 0 1 0-48.18l-4.54-1.215Z"/><path fill="#fff" d="m231.95 107.196-4-14.925c-18.36 6.635-34.49 17.915-47.015 32.4l7.6 7.6c11.845-11.846 26.75-20.62 43.415-25.075Z"/><path fill="#222" d="M188.535 133.65a1.39 1.39 0 0 1-.98-.405l-7.6-7.6a1.387 1.387 0 0 1-.07-1.88c12.83-14.84 29.29-26.18 47.59-32.795a1.379 1.379 0 0 1 1.805.945l4 14.925c.095.355.045.73-.14 1.05-.185.32-.485.55-.84.645-16.145 4.315-30.94 12.86-42.795 24.715-.26.26-.61.405-.98.405l.01-.005Zm-5.705-9.045 5.715 5.715a98.279 98.279 0 0 1 41.72-24.095l-3.25-12.135c-16.895 6.37-32.12 16.885-44.18 30.515h-.005Z"/><path fill="#fff" d="m188.535 132.27-7.6-7.6c-11.96 13.83-20.61 30.59-24.74 49.07l7.265 1.945c4.455-16.67 13.23-31.57 25.07-43.415h.005Z"/><path fill="#222" d="M163.46 177.065c-.12 0-.24-.015-.36-.045l-7.265-1.945a1.378 1.378 0 0 1-.99-1.635c4.08-18.27 12.74-35.445 25.04-49.67.25-.29.61-.465.995-.475.385-.01.755.135 1.03.405l7.6 7.6c.54.54.54 1.415 0 1.955-11.855 11.855-20.4 26.65-24.715 42.795a1.379 1.379 0 0 1-1.335 1.025v-.01Zm-5.62-4.32 4.65 1.245a98.24 98.24 0 0 1 24.095-41.715l-5.57-5.57c-11.205 13.32-19.19 29.18-23.175 46.04Z"/><path fill="#FF3158" d="m350.575 175.685 24.73-6.625c-5.645-20.995-17.185-39.575-32.75-53.84l-17.05 17.05a96.716 96.716 0 0 1 25.07 43.415Z"/><path fill="#222" d="M350.575 177.065a1.379 1.379 0 0 1-1.335-1.025 95.444 95.444 0 0 0-24.715-42.795 1.38 1.38 0 0 1-.405-.98c0-.37.145-.72.405-.98l17.05-17.05a1.379 1.379 0 0 1 1.91-.04c16.055 14.715 27.52 33.56 33.15 54.5a1.379 1.379 0 0 1-.975 1.695l-24.73 6.625c-.12.03-.24.045-.36.045l.005.005Zm-23.125-44.79a98.279 98.279 0 0 1 24.095 41.72l22.055-5.91c-5.5-19.475-16.19-37.04-31.01-50.945l-15.14 15.14v-.005Z"/><path fill="#FF3158" d="m325.5 132.271 17.05-17.05c-15.17-13.905-34.155-23.696-55.205-27.66l-5.265 19.64c16.67 4.455 31.57 13.23 43.415 25.07h.005Z"/><path fill="#222" d="M325.5 133.65c-.355 0-.71-.135-.98-.405-11.855-11.855-26.65-20.4-42.795-24.715a1.379 1.379 0 0 1-.84-.645 1.378 1.378 0 0 1-.14-1.05l5.265-19.64c.185-.7.88-1.135 1.59-1 20.865 3.935 40.185 13.615 55.885 28a1.38 1.38 0 0 1 .045 2l-17.05 17.05c-.27.27-.625.405-.98.405Zm-41.725-27.425a98.287 98.287 0 0 1 41.72 24.095l15.055-15.055c-14.8-13.215-32.795-22.22-52.2-26.11l-4.575 17.07Z"/><path fill="#FF3158" d="M257.015 103.904c8.67 0 17.07 1.155 25.07 3.295l5.265-19.64a113.381 113.381 0 0 0-21.03-1.985c-13.475 0-26.575 2.37-38.555 6.7l4.185 14.925c8-2.14 16.395-3.295 25.07-3.295h-.005Z"/><path fill="#222" d="M282.085 108.579c-.12 0-.24-.015-.36-.045-16.12-4.31-33.3-4.31-49.42 0a1.387 1.387 0 0 1-1.69-.96L226.43 92.65a1.388 1.388 0 0 1 .86-1.675c12.45-4.5 25.58-6.785 39.025-6.785 7.05 0 14.21.675 21.285 2.01.38.07.71.294.915.624.205.326.265.72.165 1.096l-5.265 19.639a1.387 1.387 0 0 1-1.335 1.025l.005-.005Zm-52.64-15.44 3.47 12.375a98.74 98.74 0 0 1 48.19 0l4.52-16.864a112.217 112.217 0 0 0-19.305-1.696c-12.69 0-25.085 2.08-36.875 6.19v-.005Z"/></svg>