<svg xmlns="http://www.w3.org/2000/svg" width="400" height="400" fill="none" viewBox="0 0 400 400"><path fill="#DADADA" d="M323.475 213.396c-12.415 40.17-46.51 68.86-97.565 68.86-1.145 0-2.265-.051-3.39-.076l-14.145.076c-51.06 0-85.15-28.69-97.565-68.86H78.95l-36.58 102.36h286.09l36.58-102.36H323.475Z"/><path fill="#222" d="M321.055 322.88H34.965c-.45 0-.87-.22-1.13-.585a1.366 1.366 0 0 1-.17-1.26l36.58-102.36a1.38 1.38 0 0 1 1.3-.915h286.09c.45 0 .87.22 1.13.585.26.365.325.84.17 1.26l-36.58 102.36a1.38 1.38 0 0 1-1.3.915Zm-284.13-2.765H320.08l35.59-99.595H72.515l-35.59 99.595Z" style="mix-blend-mode:multiply"/><path fill="#fff" d="M218.53 287.785c56.775 0 102.8-46.849 102.8-104.64 0-57.791-46.025-104.64-102.8-104.64-56.774 0-102.8 46.849-102.8 104.64 0 57.791 46.026 104.64 102.8 104.64Z"/><path fill="#222" d="M218.531 289.17c-31.455 0-58.04-10.75-76.88-31.09-17.605-19-27.3-45.615-27.3-74.935s9.695-55.93 27.3-74.935c18.845-20.34 45.43-31.09 76.88-31.09 31.45 0 58.04 10.75 76.88 31.09 17.605 19 27.3 45.615 27.3 74.935s-9.695 55.93-27.3 74.935c-18.845 20.34-45.43 31.09-76.88 31.09Zm0-209.285c-30.665 0-56.545 10.445-74.855 30.205-17.13 18.49-26.56 44.435-26.56 73.055 0 28.62 9.435 54.565 26.56 73.055 18.305 19.76 44.19 30.205 74.855 30.205 30.665 0 56.545-10.445 74.855-30.205 17.13-18.49 26.56-44.435 26.56-73.055 0-28.62-9.435-54.565-26.56-73.055-18.305-19.76-44.19-30.205-74.855-30.205Z"/><path fill="#444" d="M115.729 183.145c0-57.79 37.545-104.64 102.795-104.64h-17.53c-65.25 0-102.8 46.85-102.8 104.64s37.55 104.64 102.8 104.64l14.145-.075c-63.145-1.605-99.41-47.79-99.41-104.565Z"/><path fill="#222" d="M201 289.17c-31.46 0-58.045-10.75-76.89-31.09-17.605-19-27.3-45.615-27.3-74.935s9.695-55.93 27.3-74.935c18.845-20.34 45.43-31.09 76.885-31.09h17.53a1.385 1.385 0 1 1 0 2.77c-30.66 0-56.545 10.445-74.85 30.21-17.13 18.49-26.56 44.435-26.56 73.05 0 28.615 9.115 53.655 25.67 72.05 17.65 19.615 42.685 30.38 72.39 31.135.755.02 1.355.64 1.345 1.395a1.386 1.386 0 0 1-1.375 1.37l-14.145.075v-.005ZM190.12 80.34c-25.915 2.2-47.88 12.375-63.98 29.755-17.13 18.49-26.56 44.435-26.56 73.055 0 28.62 9.435 54.565 26.56 73.055 16.155 17.44 38.21 27.62 64.24 29.775-19.74-4.675-36.635-14.465-49.65-28.93-17.01-18.9-26.38-45.145-26.38-73.9 0-28.755 9.695-55.93 27.295-74.93 12.86-13.88 29.32-23.295 48.475-27.875v-.005Z"/><path fill="#FF3158" d="M309.34 130.715c-8.43-16.545-21.155-30.225-37.78-39.42-14.735-8.15-32.51-12.79-53.03-12.79v104.64l53.03 91.85c16.625-9.195 29.35-22.875 37.78-39.42 7.855-15.42 11.985-33.32 11.985-52.43s-4.13-37.01-11.985-52.43Z"/><path fill="#222" d="m271.041 276.86-53.895-93.35V77.12h1.385c20.08 0 38.15 4.36 53.7 12.965 16.36 9.05 29.62 22.885 38.345 40.005 7.94 15.585 12.139 33.93 12.139 53.06 0 19.13-4.194 37.47-12.139 53.06-8.725 17.12-21.98 30.955-38.345 40.005l-1.19.655v-.01Zm-51.13-94.09 52.16 90.345c15.335-8.79 27.775-21.96 36.035-38.175 7.745-15.2 11.835-33.11 11.835-51.8 0-18.69-4.095-36.605-11.835-51.8-8.47-16.625-21.34-30.06-37.22-38.84-14.78-8.175-31.925-12.415-50.98-12.61v102.885l.005-.005Z"/><path fill="#222" d="m214.765 186.831 9.945-5.645 24.895 49.215-5.345 3.035-29.495-46.605Z"/><path fill="#222" d="M244.26 234.821c-.46 0-.905-.23-1.17-.645l-29.495-46.605c-.2-.32-.265-.71-.175-1.075.09-.365.33-.68.66-.865l9.95-5.645a1.383 1.383 0 0 1 1.915.58l24.895 49.22c.335.66.09 1.46-.55 1.825l-5.345 3.035c-.215.12-.45.18-.68.18l-.005-.005Zm-27.555-47.5 28.015 44.265 3.055-1.735-23.645-46.75-7.425 4.215v.005Z"/><path fill="#222" d="M176.186 228.835a1.387 1.387 0 0 1-1-2.34l62-64.875a1.387 1.387 0 0 1 1.955-.045c.55.53.57 1.405.045 1.955l-62 64.875a1.37 1.37 0 0 1-1 .425v.005ZM221.6 98.045h-6.145l-2.645 74.295h11.44l-2.65-74.295Z"/><path fill="#222" d="M224.25 173.725h-11.44a1.385 1.385 0 0 1-1.38-1.435l2.645-74.295a1.38 1.38 0 0 1 1.38-1.335h6.145c.745 0 1.355.59 1.38 1.335l2.645 74.295a1.385 1.385 0 0 1-1.38 1.435h.005Zm-10.005-2.765h8.575l-2.55-71.53h-3.48l-2.55 71.53h.005Z"/><path fill="#fff" d="M231.72 183.145c0 7.285-5.905 13.19-13.19 13.19-7.285 0-13.19-5.905-13.19-13.19 0-7.285 5.905-13.19 13.19-13.19 7.285 0 13.19 5.905 13.19 13.19Z"/><path fill="#222" d="M218.53 197.715c-8.035 0-14.57-6.535-14.57-14.57s6.535-14.57 14.57-14.57 14.57 6.535 14.57 14.57-6.535 14.57-14.57 14.57Zm0-26.38c-6.51 0-11.805 5.295-11.805 11.805s5.295 11.805 11.805 11.805 11.805-5.295 11.805-11.805-5.295-11.805-11.805-11.805Z"/></svg>