<svg xmlns="http://www.w3.org/2000/svg" width="400" height="401" fill="none" viewBox="0 0 400 401"><path fill="#fff" d="M213.94 301.45c58.399 0 105.74-48.19 105.74-107.635 0-59.445-47.341-107.635-105.74-107.635-58.398 0-105.74 48.19-105.74 107.635 0 59.445 47.342 107.635 105.74 107.635Z"/><path fill="#222" d="M213.94 302.835c-32.34 0-59.675-11.055-79.055-31.97-18.1-19.54-28.07-46.9-28.07-77.05s9.97-57.51 28.07-77.05c19.375-20.915 46.71-31.97 79.055-31.97 32.345 0 59.675 11.055 79.055 31.97 18.1 19.54 28.07 46.9 28.07 77.05s-9.97 57.51-28.07 77.05c-19.375 20.915-46.71 31.97-79.055 31.97Zm0-215.275c-31.55 0-58.185 10.75-77.025 31.085-17.625 19.025-27.335 45.72-27.335 75.17 0 29.45 9.705 56.145 27.335 75.17 18.84 20.335 45.475 31.085 77.025 31.085 31.55 0 58.185-10.75 77.025-31.085 17.625-19.025 27.335-45.72 27.335-75.17 0-29.45-9.705-56.145-27.335-75.17C272.125 98.31 245.49 87.56 213.94 87.56Z"/><path fill="#444" d="M108.2 193.815c0-59.445 38.62-107.635 105.735-107.635H195.9c-67.12 0-105.74 48.19-105.74 107.635 0 59.445 38.625 107.635 105.74 107.635l14.55-.08c-64.955-1.65-102.255-49.155-102.255-107.56l.005.005Z"/><path fill="#222" d="M195.91 302.835c-32.35 0-59.685-11.055-79.06-31.97-18.1-19.54-28.07-46.9-28.07-77.05s9.97-57.51 28.07-77.05c19.375-20.915 46.71-31.97 79.055-31.97h18.035c.765 0 1.38.62 1.38 1.385s-.62 1.385-1.38 1.385c-31.55 0-58.185 10.75-77.02 31.085-17.625 19.025-27.33 45.72-27.33 75.17 0 29.45 9.38 55.21 26.415 74.135 18.165 20.185 43.925 31.265 74.49 32.04a1.383 1.383 0 0 1-.03 2.765l-14.55.08-.005-.005Zm-10.67-214.85c-26.9 2.17-49.685 12.66-66.36 30.66-17.625 19.025-27.335 45.72-27.335 75.17 0 29.45 9.705 56.145 27.335 75.17 16.73 18.06 39.615 28.56 66.63 30.68-20.52-4.76-38.07-14.87-51.565-29.865-17.49-19.435-27.125-46.42-27.125-75.985 0-29.565 9.97-57.51 28.07-77.05 13.335-14.395 30.44-24.12 50.35-28.78Z"/><path fill="#FF3158" d="M307.35 139.885c-8.67-17.015-21.76-31.09-38.86-40.55-15.155-8.385-33.44-13.155-54.55-13.155v107.635l54.55 94.48c17.1-9.46 30.19-23.53 38.86-40.55 8.08-15.86 12.33-34.27 12.33-53.93 0-19.66-4.25-38.07-12.33-53.93Z"/><path fill="#222" d="m267.97 290.16-55.41-95.975V84.795h1.38c20.65 0 39.23 4.485 55.215 13.33 16.82 9.305 30.455 23.53 39.425 41.13 8.165 16.025 12.48 34.89 12.48 54.56s-4.315 38.53-12.48 54.56c-8.97 17.605-22.6 31.825-39.425 41.13l-1.19.655h.005Zm-52.645-96.715 53.68 92.975c15.795-9.045 28.61-22.605 37.115-39.3 7.97-15.64 12.18-34.07 12.18-53.305s-4.21-37.665-12.18-53.305c-8.715-17.11-21.96-30.93-38.3-39.97-15.22-8.42-32.875-12.78-52.495-12.975v105.88Z"/><path fill="#222" d="m210.064 197.605 10.235-5.805 25.605 50.625-5.495 3.12-30.345-47.94Z"/><path fill="#222" d="M240.41 246.93c-.46 0-.905-.23-1.17-.645l-30.34-47.94a1.381 1.381 0 0 1-.175-1.075c.09-.365.33-.68.66-.865l10.23-5.81a1.383 1.383 0 0 1 1.915.58l25.605 50.625c.335.66.09 1.46-.55 1.825l-5.5 3.12c-.215.12-.45.18-.68.18l.005.005Zm-28.4-48.835 28.86 45.6 3.205-1.82-24.355-48.155-7.71 4.375Z"/><path fill="#222" d="M170.385 240.775a1.387 1.387 0 0 1-1-2.34l63.77-66.73c.53-.55 1.405-.57 1.955-.045.55.53.57 1.405.045 1.955l-63.77 66.73a1.37 1.37 0 0 1-1 .425v.005ZM217.101 106.28h-6.32l-2.725 76.425h11.77l-2.725-76.425Z"/><path fill="#222" d="M219.825 184.086H208.06a1.385 1.385 0 0 1-1.38-1.435l2.72-76.42a1.384 1.384 0 0 1 1.38-1.335h6.32c.745 0 1.355.59 1.38 1.335l2.72 76.42a1.385 1.385 0 0 1-1.38 1.435h.005Zm-10.335-2.765h8.9l-2.625-73.655h-3.655l-2.625 73.655h.005Z"/><path fill="#fff" d="M227.505 193.815c0 7.495-6.075 13.565-13.565 13.565-7.495 0-13.565-6.075-13.565-13.565 0-7.495 6.075-13.565 13.565-13.565 7.49 0 13.565 6.075 13.565 13.565Z"/><path fill="#222" d="M213.94 208.765c-8.245 0-14.95-6.705-14.95-14.95s6.705-14.95 14.95-14.95 14.95 6.705 14.95 14.95-6.705 14.95-14.95 14.95Zm0-27.135c-6.72 0-12.185 5.465-12.185 12.185 0 6.72 5.465 12.185 12.185 12.185 6.72 0 12.185-5.465 12.185-12.185 0-6.72-5.465-12.185-12.185-12.185Z"/></svg>