<svg xmlns="http://www.w3.org/2000/svg" width="401" height="400" fill="none" viewBox="0 0 401 400"><path fill="#222" d="M360.181 173.833c-.74 0-1.479-.555-1.479-1.48V104.3c0-.74.554-1.48 1.479-1.48s1.479.555 1.479 1.48v68.053c0 .925-.739 1.48-1.479 1.48Z"/><path fill="#FF3158" d="m360.181 138.327 28.109-16.644-28.109-17.013v33.657Z"/><path fill="#222" d="M360.181 139.621c-.185 0-.555 0-.74-.185-.37-.185-.739-.74-.739-1.294V104.67c0-.555.184-.925.739-1.295.37-.185.925-.185 1.48 0l28.109 17.013c.37.185.74.74.74 1.11 0 .37-.185.925-.74 1.11l-28.109 16.458c-.185.555-.555.555-.74.555Zm1.479-32.547v28.663l24.041-14.054-24.041-14.609ZM81.124 156.264c-.74 0-1.48-.555-1.48-1.479v-67.87c0-.739.555-1.479 1.48-1.479.925 0 1.48.555 1.48 1.48v68.054c0 .739-.74 1.294-1.48 1.294Z"/><path fill="#FF3158" d="m81.124 120.759 28.109-16.459-28.109-17.198v33.657Z"/><path fill="#222" d="M81.124 122.053c-.185 0-.555 0-.74-.185-.37-.185-.74-.74-.74-1.295V87.101c0-.555.186-.924.74-1.294.37-.185.925-.185 1.48 0l28.109 17.013c.37.185.74.74.74 1.11 0 .369-.185.924-.74 1.109l-28.11 16.829c-.184.185-.37.185-.739.185Zm1.48-32.548v28.849l24.04-14.055-24.04-14.794Z"/><path fill="#fff" d="m291.018 143.135-6.473-1.664v-12.575l6.473.924v13.315Z"/><path fill="#222" d="M291.018 144.429h-.37l-6.288-1.664c-.554-.185-1.109-.74-1.109-1.294v-12.576c0-.369.185-.739.555-1.109.369-.185.739-.37 1.109-.37l6.288.925c.739.185 1.109.739 1.109 1.294v13.315c0 .37-.185.74-.555 1.11-.184.369-.554.369-.739.369Zm-4.993-4.068 3.513.925V130.93l-3.513-.555v9.986Z"/><path fill="#fff" d="m259.21 138.327-6.472-1.295v-12.575l6.472.74v13.13Z"/><path fill="#222" d="M259.025 139.806h-.37l-6.287-1.479c-.555-.185-1.11-.74-1.11-1.295v-12.575c0-.37.185-.74.555-1.11.37-.369.74-.369 1.11-.369l6.472.924c.74.185 1.11.74 1.11 1.295v13.13c0 .369-.185.739-.555 1.109-.185.185-.555.37-.925.37Zm-4.808-3.883 3.514.739v-10.171l-3.514-.555v9.987Z"/><path fill="#fff" d="M50.426 289.968 27.68 174.757c0-18.677 76.005-41.609 169.764-41.609 93.759 0 169.764 22.932 169.764 39.02l-22.746 117.8c-8.691 22.931-65.834 40.129-147.018 40.129-81.183 0-142.025-22.191-147.018-40.129Z"/><path fill="#222" d="M197.444 331.577c-80.629 0-142.765-21.637-148.312-41.054v-.185L26.385 175.127v-.185c0-9.986 18.493-20.712 50.67-29.033 34.028-8.877 76.746-13.87 120.389-13.87 92.094 0 171.059 22.191 171.059 40.499v.185l-22.746 117.615v.185c-9.247 24.41-68.794 41.054-148.313 41.054ZM51.721 289.598c4.623 16.274 62.135 39.205 145.723 39.205 76.93 0 136.847-16.089 145.724-39.205l22.561-117.429c-.37-13.315-69.718-37.541-168.285-37.541-97.457 0-167.915 23.856-168.285 40.13l22.562 114.84Z"/><path fill="#DADADA" d="M197.444 216.366c93.758 0 169.764-18.629 169.764-41.609s-76.006-41.609-169.764-41.609c-93.758 0-169.764 18.629-169.764 41.609s76.006 41.609 169.764 41.609Z"/><path fill="#222" d="M197.444 217.846c-95.978 0-171.059-18.863-171.059-42.904 0-24.04 75.266-42.903 171.059-42.903 95.978 0 171.059 18.863 171.059 42.903 0 24.041-75.081 42.904-171.059 42.904Zm0-83.218c-91.355 0-168.285 18.493-168.285 40.13 0 21.821 77.115 40.129 168.285 40.129 91.355 0 168.285-18.493 168.285-40.129 0-21.822-76.93-40.13-168.285-40.13Z"/><path fill="#222" d="M197.444 194.36c-.74 0-1.479-.555-1.479-1.48v-59.732c0-.739.554-1.479 1.479-1.479s1.479.555 1.479 1.479v59.917c-.184.74-.739 1.295-1.479 1.295ZM275.854 202.127c-.185 0-.37 0-.555-.185-.74-.37-1.11-1.11-.74-1.849l24.781-58.992c.369-.74 1.109-1.11 1.849-.74.74.37 1.109 1.109.74 1.849l-24.781 58.992a1.39 1.39 0 0 1-1.294.925ZM119.034 202.127a1.39 1.39 0 0 1-1.294-.925l-24.965-58.807c-.37-.74 0-1.48.74-1.85.739-.369 1.479 0 1.849.74l24.78 58.992c.37.74 0 1.48-.74 1.85h-.37Z"/><path fill="#444" d="m316.538 133.333-22.376-3.144-64.91-8.876V77.3l87.286 8.507v47.526Z"/><path fill="#222" d="M316.538 134.628h-.185l-87.286-12.021c-.74-.185-1.11-.74-1.11-1.294V77.3c0-.37.185-.74.37-1.11.37-.185.74-.37 1.11-.37l87.286 8.692c.74 0 1.294.74 1.294 1.294v47.527c0 .37-.185.74-.554 1.11-.37.185-.555.185-.925.185Zm-85.992-14.61 84.513 11.651V87.101l-84.513-8.322v41.239Z"/><path fill="#fff" d="m306.922 103.375-68.239-7.767v-8.692l68.239 7.212v9.247Z"/><path fill="#222" d="m306.922 104.669-68.239-7.767c-.74 0-1.294-.74-1.294-1.294v-8.692c0-.37.184-.74.369-1.11.37-.184.74-.37 1.11-.37l68.054 7.213c.739 0 1.294.74 1.294 1.294v9.247c0 .369-.185.739-.555 1.109-.185.37-.37.37-.739.37Zm-66.76-10.356 65.28 7.397v-6.472l-65.28-7.028v6.103Z"/><path fill="#fff" d="m266.792 117.984-28.109-3.699V103.56l28.109 3.328v11.096Z"/><path fill="#222" d="m266.792 119.278-28.109-3.698c-.74 0-1.294-.74-1.294-1.295V103.56c0-.37.184-.74.554-1.11.37-.185.74-.37 1.11-.37l28.109 3.329c.74 0 1.294.74 1.294 1.294v11.096c0 .37-.184.74-.554 1.11-.555.369-.74.369-1.11.369Zm-26.63-6.102 25.336 3.328v-8.321l-25.336-2.959v7.952Z"/><path fill="#fff" d="m306.922 123.163-29.959-3.884v-11.095l29.959 3.513v11.466Z"/><path fill="#222" d="M306.922 124.642c-.185 0-.185 0 0 0l-30.144-3.884c-.739 0-1.294-.739-1.294-1.294v-11.096c0-.37.185-.74.555-1.109.369-.37.739-.37 1.109-.37l29.959 3.698c.739 0 1.294.74 1.294 1.295v11.465c0 .37-.185.74-.555 1.11-.37 0-.555.185-.924.185Zm-28.664-6.658 27.184 3.514v-8.692l-27.184-3.328v8.506ZM138.822 134.813c-.74 0-1.48-.555-1.48-1.48V65.465c0-.74.555-1.48 1.48-1.48.924 0 1.479.555 1.479 1.48v68.053c0 .74-.74 1.295-1.479 1.295Z"/><path fill="#FF3158" d="m138.822 99.306 28.109-16.458-28.109-17.199v33.657Z"/><path fill="#222" d="M138.822 100.601c-.185 0-.555 0-.74-.185-.37-.185-.74-.74-.74-1.294V65.65c0-.555.185-.925.74-1.295.555-.37.925-.185 1.479 0l28.11 17.013c.369.186.739.74.739 1.11 0 .555-.185.925-.739 1.11l-28.11 16.458c-.185.555-.369.555-.739.555Zm1.479-32.362v28.663l24.041-14.054-24.041-14.61ZM197.444 238.002c-70.273 0-132.963-12.945-163.477-33.842-.554-.369-.74-1.294-.37-1.849.37-.555 1.295-.74 1.85-.37 30.143 20.527 92.279 33.287 161.997 33.287 69.348 0 133.148-13.314 162.552-33.842.555-.369 1.479-.369 1.849.37.37.555.37 1.48-.369 1.85-29.774 20.897-94.129 34.396-164.032 34.396Z"/><path fill="#DADADA" d="M185.054 252.982h-10.911v26.075h10.911v-26.075Z"/><path fill="#222" d="M185.054 280.537h-10.726c-.74 0-1.479-.555-1.479-1.48v-26.075c0-.739.554-1.479 1.479-1.479h10.911c.74 0 1.479.555 1.479 1.479v26.075c-.185.74-.924 1.48-1.664 1.48Zm-9.431-2.774h8.136v-23.301h-8.136v23.301Z"/><path fill="#DADADA" d="M221.115 252.982h-10.911v26.075h10.911v-26.075Z"/><path fill="#222" d="M221.115 280.537h-10.911c-.74 0-1.479-.555-1.479-1.48v-26.075c0-.739.554-1.479 1.479-1.479h10.911c.74 0 1.479.555 1.479 1.479v26.075c-.185.74-.739 1.48-1.479 1.48Zm-9.432-2.774h8.137v-23.301h-8.137v23.301Z"/><path fill="#DADADA" d="m331.147 230.051-2.034 61.581c-3.144 2.589-6.842 2.959-10.911 5.178l2.034-62.321c3.699-1.479 7.398-2.959 10.911-4.438Z"/><path fill="#222" d="M318.202 298.289c-.185 0-.555 0-.74-.185-.369-.185-.739-.74-.739-1.294l2.034-62.321c0-.555.37-1.11.925-1.295a211.426 211.426 0 0 0 10.725-4.438c.37-.185.925-.185 1.295 0 .37.185.555.74.555 1.109l-1.85 61.582c0 .369-.184.739-.554 1.109-2.035 1.48-4.069 2.404-6.103 3.144-1.479.555-3.144 1.11-4.808 2.219-.185.185-.37.37-.74.37Zm3.329-62.876-1.849 58.992a22.66 22.66 0 0 1 3.143-1.294c1.85-.74 3.514-1.295 4.993-2.404l1.85-58.807c-2.589 1.294-5.363 2.589-8.137 3.513Z"/><path fill="#DADADA" d="M257.176 248.914v60.287c-3.514.739-7.212 1.294-10.911 1.849v-60.657h.555c1.109-.184 2.404-.369 3.513-.369 2.22-.555 4.624-.925 6.843-1.11Z"/><path fill="#222" d="M246.265 312.344c-.37 0-.74-.185-.925-.37-.369-.185-.554-.555-.554-1.109v-60.657c0-.74.554-1.294 1.294-1.294H246.635c.555 0 1.109-.185 1.664-.185.555 0 1.295-.185 1.85-.185 2.219-.37 4.438-.555 6.657-.925.37 0 .74 0 1.11.37.369.185.554.555.554 1.11v60.286c0 .74-.554 1.295-1.109 1.295-3.699.739-7.397 1.294-10.911 1.849 0-.185-.185-.185-.185-.185Zm1.479-60.841V309.2c2.589-.37 5.363-.924 8.137-1.479v-57.513c-1.664.185-3.328.555-5.178.74-.554 0-1.294.185-1.849.185-.555.37-.925.37-1.11.37Z"/><path fill="#DADADA" d="M293.052 242.626v58.252c-3.514 1.295-7.027 2.404-10.911 3.514V245.4c3.514-.74 6.843-1.664 10.171-2.404.37-.185.555-.185.74-.37Z"/><path fill="#222" d="M282.326 305.687c-.37 0-.555-.185-.74-.185-.369-.185-.554-.74-.554-1.11V245.4c0-.739.369-1.294 1.109-1.294 3.329-.74 6.658-1.48 10.171-2.404H292.867c.925-.37 1.849.37 1.849 1.294v58.253c0 .554-.37 1.109-.924 1.294-3.329 1.295-6.843 2.404-10.911 3.514-.37-.37-.37-.37-.555-.37Zm1.295-59.362v56.033c2.958-.924 5.547-1.664 8.136-2.589v-55.478c-2.773.924-5.547 1.479-8.136 2.034Z"/><path fill="#DADADA" d="M148.993 250.763v60.472c-3.699-.555-7.397-1.295-10.911-2.035v-60.101c3.699.554 7.212 1.109 10.911 1.664Z"/><path fill="#222" d="M148.993 312.714h-.185c-3.514-.555-7.027-1.295-10.911-2.035-.555-.185-1.109-.739-1.109-1.294v-60.102c0-.37.185-.74.554-1.109.37-.37.74-.37 1.11-.37 3.329.554 7.027 1.109 10.726 1.664.74.185 1.109.74 1.109 1.295v60.471c0 .37-.185.74-.554 1.11 0 .185-.37.37-.74.37Zm-9.431-4.624c2.773.555 5.547 1.11 8.136 1.48v-57.698c-2.774-.37-5.547-.74-8.136-1.294v57.512Z"/><path fill="#DADADA" d="M113.117 245.585v60.656c-3.699-1.109-7.397-2.589-10.911-3.883v-59.732c.37.185.74.185 1.295.37h.184c.555.185.925.185 1.48.37.925.185 1.849.554 2.959.739a39.296 39.296 0 0 0 4.993 1.48Z"/><path fill="#222" d="M113.117 307.72h-.37c-3.514-1.109-7.027-2.404-10.911-3.883a1.391 1.391 0 0 1-.925-1.295v-59.731c0-.37.185-.925.555-1.11.37-.185.74-.37 1.295-.185l.37.185c.185 0 .554.185.739.185.185 0 .185 0 .37.185.37.185.925.185 1.295.37 1.109.37 2.034.554 2.959.739 1.664.37 3.328.925 4.993 1.295.739.185 1.109.74 1.109 1.479v60.472c0 .37-.185.925-.555 1.109-.369 0-.739.185-.924.185Zm-9.432-6.287c2.774 1.109 5.548 2.034 8.137 2.959v-57.698c-1.294-.37-2.589-.74-3.883-.925-.925-.185-2.034-.554-2.959-.739-.37 0-.74-.185-1.11-.37v56.773h-.185Z"/><path fill="#DADADA" d="m74.652 233.38 2.404 64.91c-4.069-2.774-7.767-3.514-10.911-6.658l-2.404-63.245c3.514 1.664 7.027 3.328 10.91 4.993Z"/><path fill="#222" d="M77.056 299.584c-.185 0-.555 0-.74-.185-1.664-1.11-3.144-1.849-4.623-2.589-2.22-1.11-4.439-2.219-6.473-4.254a1.409 1.409 0 0 1-.37-.924l-2.404-63.246c0-.554.185-.924.555-1.294a.894.894 0 0 1 1.295 0c3.328 1.664 7.027 3.329 10.725 4.993.555.185.925.74.925 1.294l2.404 64.91c0 .555-.185.925-.74 1.295h-.554Zm-9.432-8.507c1.665 1.479 3.33 2.404 5.363 3.329.925.37 1.665.924 2.59 1.294l-2.22-61.396c-2.774-1.11-5.363-2.404-7.952-3.699l2.22 60.472Z"/><path fill="#FF3158" d="M226.663 291.633H168.04v37.17c17.569 1.665 44.198 1.295 58.623 0v-37.17Z"/><path fill="#222" d="M196.889 331.392c-9.986 0-20.342-.37-28.849-1.11-.739 0-1.294-.739-1.294-1.294v-37.171c0-.739.555-1.479 1.479-1.479h58.623c.739 0 1.479.555 1.479 1.479v37.171c0 .74-.555 1.294-1.294 1.294-7.767.74-18.678 1.11-30.144 1.11Zm-27.369-3.884c16.828 1.48 41.794 1.11 55.848 0v-34.581H169.52v34.581Z"/><path fill="#222" d="M197.444 331.576c-.74 0-1.479-.554-1.479-1.479v-38.465c0-.74.554-1.48 1.479-1.48s1.479.555 1.479 1.48v38.465c-.184.925-.739 1.479-1.479 1.479Z"/><path fill="#444" d="M197.444 218.031c39.205 0 69.348-2.589 98.012-9.062-21.082-10.541-57.513-15.904-98.012-15.904s-81.368 5.363-98.197 14.61c28.664 6.472 58.992 10.356 98.197 10.356Z"/><path fill="#222" d="M197.444 219.51c-36.246 0-66.574-3.144-98.382-10.356a1.668 1.668 0 0 1-1.11-1.11c0-.555.186-1.109.74-1.479 15.904-8.877 55.479-14.794 98.752-14.794 42.534 0 78.41 5.917 98.752 16.088.555.185.74.74.74 1.48 0 .739-.555 1.109-1.11 1.109-27.924 6.103-58.252 9.062-98.382 9.062ZM103.5 207.304c30.329 6.473 59.362 9.432 93.944 9.432 37.91 0 67.129-2.589 93.759-8.137-20.342-9.061-54.184-14.055-93.759-14.055-39.944-.184-76.745 4.994-93.944 12.76ZM356.852 190.661c-.739 0-1.479-.555-1.479-1.479 0-22.192-72.307-41.055-157.929-41.055S39.515 166.99 39.515 189.182c0 .739-.554 1.479-1.48 1.479-.924 0-1.479-.555-1.479-1.479 0-24.596 70.643-43.828 160.703-43.828s160.703 19.232 160.703 43.828c.185.924-.37 1.479-1.11 1.479Z"/><path fill="#222" d="M57.638 199.723h-.185c-.74-.185-1.294-.74-1.11-1.664 3.33-20.712 65.28-36.801 141.286-36.801 76.56 0 137.217 15.719 141.1 36.431.185.739-.37 1.479-1.109 1.664-.74.185-1.48-.37-1.665-1.11-3.513-18.862-65.649-34.211-138.511-34.211-73.417 0-135.552 15.534-138.511 34.581 0 .555-.74 1.11-1.295 1.11Z"/><path fill="#222" d="M78.165 205.825c-.185 0-.555 0-.74-.184-.554-.37-.74-1.295-.37-1.85 10.172-15.904 60.842-27.369 120.389-27.369s110.032 11.465 120.388 27.369c.37.555.185 1.48-.369 1.85-.74.369-1.48.184-1.85-.37-9.616-14.795-60.471-26.075-118.169-26.075s-108.553 11.28-118.17 26.075c-.184.185-.739.554-1.109.554Z"/></svg>