<svg xmlns="http://www.w3.org/2000/svg" width="400" height="400" fill="none" viewBox="0 0 400 400"><path fill="#fff" d="M359.685 173.833c-.739 0-1.479-.555-1.479-1.48V104.3c0-.74.555-1.48 1.479-1.48.925 0 1.48.555 1.48 1.48v68.053c0 .925-.74 1.48-1.48 1.48Z"/><path fill="#FF3158" d="m359.686 138.327 28.109-16.644-28.109-17.013v33.657Z"/><path fill="#fff" d="M359.685 139.621c-.184 0-.554 0-.739-.185-.37-.185-.74-.74-.74-1.294V104.67c0-.555.185-.925.74-1.295.37-.185.924-.185 1.479 0l28.109 17.013c.37.185.74.74.74 1.11 0 .37-.185.925-.74 1.11l-28.109 16.458c-.185.555-.555.555-.74.555Zm1.48-32.547v28.663l24.041-14.054-24.041-14.609ZM80.629 156.264c-.74 0-1.48-.555-1.48-1.479v-67.87c0-.739.555-1.479 1.48-1.479.924 0 1.48.555 1.48 1.48v68.054c0 .739-.74 1.294-1.48 1.294Z"/><path fill="#FF3158" d="m80.629 120.759 28.109-16.459-28.11-17.198v33.657Z"/><path fill="#fff" d="M80.629 122.053c-.185 0-.555 0-.74-.185-.37-.185-.74-.74-.74-1.295V87.101c0-.555.185-.924.74-1.294.37-.185.925-.185 1.48 0l28.109 17.013c.37.185.739.74.739 1.11 0 .369-.185.924-.739 1.109l-28.11 16.829c-.184.185-.37.185-.74.185Zm1.48-32.548v28.849l24.04-14.055-24.04-14.794ZM290.523 143.135l-6.472-1.664v-12.575l6.472.924v13.315Z"/><path fill="#222" d="M290.523 144.429h-.37l-6.288-1.664c-.554-.185-1.109-.74-1.109-1.294v-12.576c0-.369.185-.739.555-1.109.37-.185.739-.37 1.109-.37l6.288.925c.739.185 1.109.739 1.109 1.294v13.315c0 .37-.185.74-.554 1.11-.185.369-.555.369-.74.369Zm-4.993-4.068 3.513.925V130.93l-3.513-.555v9.986Z"/><path fill="#fff" d="m258.715 138.327-6.473-1.295v-12.575l6.473.74v13.13Z"/><path fill="#222" d="M258.53 139.806h-.37l-6.288-1.479c-.555-.185-1.109-.74-1.109-1.295v-12.575c0-.37.185-.74.554-1.11.37-.369.74-.369 1.11-.369l6.473.924c.739.185 1.109.74 1.109 1.295v13.13c0 .369-.185.739-.555 1.109a1.41 1.41 0 0 1-.924.37Zm-4.808-3.883 3.513.739v-10.171l-3.513-.555v9.987Z"/><path fill="#fff" d="M49.93 289.968 27.186 174.757c0-18.677 76.005-41.609 169.764-41.609 93.758 0 169.764 22.932 169.764 39.02l-22.746 117.8c-8.692 22.931-65.835 40.129-147.018 40.129-81.184 0-142.025-22.191-147.018-40.129Z"/><path fill="#222" d="M196.948 331.577c-80.628 0-142.764-21.637-148.312-41.054v-.185L25.89 175.127v-.185c0-9.986 18.492-20.712 50.67-29.033 34.027-8.877 76.745-13.87 120.388-13.87 92.095 0 171.059 22.191 171.059 40.499v.185l-22.746 117.615v.185c-9.247 24.41-68.793 41.054-148.313 41.054ZM51.225 289.598c4.623 16.274 62.136 39.205 145.723 39.205 76.931 0 136.847-16.089 145.724-39.205l22.561-117.429c-.37-13.315-69.718-37.541-168.285-37.541-97.457 0-167.915 23.856-168.284 40.13l22.56 114.84Z"/><path fill="#DADADA" d="M196.949 216.366c93.758 0 169.764-18.629 169.764-41.609s-76.006-41.609-169.764-41.609c-93.758 0-169.764 18.629-169.764 41.609s76.006 41.609 169.764 41.609Z"/><path fill="#222" d="M196.948 217.846c-95.977 0-171.058-18.863-171.058-42.904 0-24.04 75.265-42.903 171.058-42.903 95.978 0 171.059 18.863 171.059 42.903 0 24.041-75.081 42.904-171.059 42.904Zm0-83.218c-91.354 0-168.284 18.493-168.284 40.13 0 21.821 77.115 40.129 168.284 40.129 91.355 0 168.285-18.493 168.285-40.129 0-21.822-76.93-40.13-168.285-40.13Z"/><path fill="#222" d="M196.949 194.36c-.74 0-1.479-.555-1.479-1.48v-59.732c0-.739.555-1.479 1.479-1.479.925 0 1.48.555 1.48 1.479v59.917c-.185.74-.74 1.295-1.48 1.295ZM275.359 202.127c-.185 0-.37 0-.555-.185-.74-.37-1.11-1.11-.74-1.849l24.78-58.992c.37-.74 1.11-1.11 1.85-.74.739.37 1.109 1.109.739 1.849l-24.78 58.992a1.39 1.39 0 0 1-1.294.925ZM118.539 202.127c-.555 0-1.11-.37-1.295-.925l-24.965-58.807c-.37-.74 0-1.48.74-1.85.74-.369 1.479 0 1.849.74l24.78 58.992c.37.74 0 1.48-.739 1.85h-.37Z"/><path fill="#DADADA" d="m316.043 133.333-22.376-3.144-64.91-8.876V77.3l87.286 8.507v47.526Z"/><path fill="#222" d="M316.043 134.628h-.185l-87.287-12.021c-.739-.185-1.109-.74-1.109-1.294V77.3c0-.37.185-.74.37-1.11.37-.185.739-.37 1.109-.37l87.287 8.692c.739 0 1.294.74 1.294 1.294v47.527c0 .37-.185.74-.555 1.11-.37.185-.555.185-.924.185Zm-85.992-14.61 84.512 11.651V87.101l-84.512-8.322v41.239Z"/><path fill="#fff" d="m306.427 103.375-68.239-7.767v-8.692l68.239 7.212v9.247Z"/><path fill="#222" d="m306.427 104.669-68.239-7.767c-.74 0-1.294-.74-1.294-1.294v-8.692c0-.37.184-.74.369-1.11.37-.184.74-.37 1.11-.37l68.054 7.213c.739 0 1.294.74 1.294 1.294v9.247c0 .369-.185.739-.555 1.109-.185.37-.37.37-.739.37Zm-66.76-10.356 65.28 7.397v-6.472l-65.28-7.028v6.103Z"/><path fill="#fff" d="m266.298 117.984-28.11-3.699V103.56l28.11 3.328v11.096Z"/><path fill="#222" d="m266.297 119.278-28.109-3.698c-.74 0-1.294-.74-1.294-1.295V103.56c0-.37.184-.74.554-1.11.37-.185.74-.37 1.11-.37l28.109 3.329c.74 0 1.294.74 1.294 1.294v11.096c0 .37-.184.74-.554 1.11-.555.369-.74.369-1.11.369Zm-26.63-6.102 25.336 3.328v-8.321l-25.336-2.959v7.952Z"/><path fill="#fff" d="m306.426 123.163-29.958-3.884v-11.095l29.958 3.513v11.466Z"/><path fill="#222" d="M306.426 124.642c-.185 0-.185 0 0 0l-30.143-3.884c-.74 0-1.295-.739-1.295-1.294v-11.096c0-.37.185-.74.555-1.109.37-.37.74-.37 1.11-.37l29.958 3.698c.74 0 1.295.74 1.295 1.295v11.465c0 .37-.185.74-.555 1.11-.37 0-.555.185-.925.185Zm-28.664-6.658 27.185 3.514v-8.692l-27.185-3.328v8.506Z"/><path fill="#fff" d="M138.326 134.813c-.74 0-1.479-.555-1.479-1.48V65.465c0-.74.554-1.48 1.479-1.48s1.48.555 1.48 1.48v68.053c0 .74-.74 1.295-1.48 1.295Z"/><path fill="#FF3158" d="m138.326 99.306 28.109-16.458-28.109-17.199v33.657Z"/><path fill="#fff" d="M138.326 100.601c-.185 0-.555 0-.74-.185-.369-.185-.739-.74-.739-1.294V65.65c0-.555.185-.925.739-1.295.555-.37.925-.185 1.48 0l28.109 17.013c.37.186.74.74.74 1.11 0 .555-.185.925-.74 1.11l-28.109 16.458c-.185.555-.37.555-.74.555Zm1.48-32.362v28.663l24.04-14.054-24.04-14.61Z"/><path fill="#222" d="M196.949 238.002c-70.273 0-132.963-12.945-163.477-33.842-.554-.369-.74-1.294-.37-1.849.37-.555 1.295-.74 1.85-.37 30.143 20.527 92.279 33.287 161.997 33.287 69.348 0 133.148-13.314 162.552-33.842.555-.369 1.479-.369 1.849.37.37.555.37 1.48-.369 1.85-29.774 20.897-94.129 34.396-164.032 34.396Z"/><path fill="#DADADA" d="M184.559 252.982h-10.911v26.075h10.911v-26.075Z"/><path fill="#222" d="M184.559 280.537h-10.726c-.74 0-1.479-.555-1.479-1.48v-26.075c0-.739.554-1.479 1.479-1.479h10.911c.739 0 1.479.555 1.479 1.479v26.075c-.185.74-.924 1.48-1.664 1.48Zm-9.432-2.774h8.137v-23.301h-8.137v23.301Z"/><path fill="#DADADA" d="M220.62 252.982h-10.911v26.075h10.911v-26.075Z"/><path fill="#222" d="M220.62 280.537h-10.911c-.74 0-1.48-.555-1.48-1.48v-26.075c0-.739.555-1.479 1.48-1.479h10.911c.739 0 1.479.555 1.479 1.479v26.075c-.185.74-.74 1.48-1.479 1.48Zm-9.432-2.774h8.137v-23.301h-8.137v23.301Z"/><path fill="#DADADA" d="m330.652 230.051-2.034 61.581c-3.144 2.589-6.843 2.959-10.911 5.178l2.034-62.321c3.699-1.479 7.397-2.959 10.911-4.438Z"/><path fill="#222" d="M317.707 298.289c-.185 0-.555 0-.74-.185-.37-.185-.739-.74-.739-1.294l2.034-62.321c0-.555.37-1.11.924-1.295a211.095 211.095 0 0 0 10.726-4.438c.37-.185.925-.185 1.295 0 .37.185.555.74.555 1.109l-1.85 61.582c0 .369-.185.739-.555 1.109-2.034 1.48-4.068 2.404-6.102 3.144-1.48.555-3.144 1.11-4.808 2.219-.185.185-.37.37-.74.37Zm3.329-62.876-1.85 58.992a22.722 22.722 0 0 1 3.144-1.294c1.849-.74 3.514-1.295 4.993-2.404l1.85-58.807c-2.589 1.294-5.363 2.589-8.137 3.513Z"/><path fill="#DADADA" d="M256.68 248.914v60.287c-3.513.739-7.212 1.294-10.91 1.849v-60.657h.554c1.11-.184 2.404-.369 3.514-.369 2.219-.555 4.623-.925 6.842-1.11Z"/><path fill="#222" d="M245.769 312.344c-.369 0-.739-.185-.924-.37-.37-.185-.555-.555-.555-1.109v-60.657c0-.74.555-1.294 1.295-1.294h.554c.555 0 1.11-.185 1.665-.185.554 0 1.294-.185 1.849-.185 2.219-.37 4.438-.555 6.657-.925.37 0 .74 0 1.11.37.37.185.555.555.555 1.11v60.286c0 .74-.555 1.295-1.11 1.295-3.698.739-7.397 1.294-10.911 1.849 0-.185-.185-.185-.185-.185Zm1.48-60.841V309.2c2.589-.37 5.363-.924 8.137-1.479v-57.513c-1.665.185-3.329.555-5.178.74-.555 0-1.295.185-1.85.185-.554.37-.924.37-1.109.37Z"/><path fill="#DADADA" d="M292.556 242.626v58.252c-3.513 1.295-7.027 2.404-10.91 3.514V245.4c3.513-.74 6.842-1.664 10.171-2.404.369-.185.554-.185.739-.37Z"/><path fill="#222" d="M281.831 305.687c-.37 0-.555-.185-.74-.185-.37-.185-.555-.74-.555-1.11V245.4c0-.739.37-1.294 1.11-1.294 3.328-.74 6.657-1.48 10.171-2.404H292.372c.924-.37 1.849.37 1.849 1.294v58.253a1.39 1.39 0 0 1-.925 1.294c-3.329 1.295-6.842 2.404-10.911 3.514-.369-.37-.369-.37-.554-.37Zm1.294-59.362v56.033c2.959-.924 5.548-1.664 8.137-2.589v-55.478c-2.774.924-5.548 1.479-8.137 2.034Z"/><path fill="#DADADA" d="M148.498 250.763v60.472c-3.699-.555-7.397-1.295-10.911-2.035v-60.101c3.698.554 7.212 1.109 10.911 1.664Z"/><path fill="#222" d="M148.497 312.714h-.185c-3.513-.555-7.027-1.295-10.91-2.035-.555-.185-1.11-.739-1.11-1.294v-60.102c0-.37.185-.74.555-1.109.37-.37.739-.37 1.109-.37 3.329.554 7.028 1.109 10.726 1.664.74.185 1.11.74 1.11 1.295v60.471c0 .37-.185.74-.555 1.11 0 .185-.37.37-.74.37Zm-9.431-4.624c2.774.555 5.548 1.11 8.137 1.48v-57.698c-2.774-.37-5.548-.74-8.137-1.294v57.512Z"/><path fill="#DADADA" d="M112.622 245.585v60.656c-3.699-1.109-7.397-2.589-10.911-3.883v-59.732c.37.185.74.185 1.294.37h.185c.555.185.925.185 1.48.37.924.185 1.849.554 2.959.739a39.296 39.296 0 0 0 4.993 1.48Z"/><path fill="#222" d="M112.621 307.72h-.37c-3.513-1.109-7.027-2.404-10.91-3.883a1.391 1.391 0 0 1-.925-1.295v-59.731c0-.37.185-.925.555-1.11.37-.185.74-.37 1.294-.185l.37.185c.185 0 .555.185.74.185.185 0 .185 0 .37.185.37.185.924.185 1.294.37 1.11.37 2.034.554 2.959.739 1.664.37 3.329.925 4.993 1.295.74.185 1.11.74 1.11 1.479v60.472c0 .37-.185.925-.555 1.109-.37 0-.74.185-.925.185Zm-9.431-6.287c2.774 1.109 5.548 2.034 8.137 2.959v-57.698c-1.295-.37-2.589-.74-3.884-.925-.924-.185-2.034-.554-2.959-.739-.369 0-.739-.185-1.109-.37v56.773h-.185Z"/><path fill="#DADADA" d="m74.157 233.38 2.404 64.91c-4.069-2.774-7.767-3.514-10.91-6.658l-2.405-63.245c3.514 1.664 7.027 3.328 10.91 4.993Z"/><path fill="#222" d="M76.56 299.584c-.184 0-.554 0-.74-.185-1.664-1.11-3.143-1.849-4.622-2.589-2.22-1.11-4.439-2.219-6.473-4.254a1.409 1.409 0 0 1-.37-.924l-2.404-63.246c0-.554.185-.924.555-1.294a.894.894 0 0 1 1.294 0c3.33 1.664 7.028 3.329 10.726 4.993.555.185.925.74.925 1.294l2.404 64.91c0 .555-.185.925-.74 1.295h-.554Zm-9.43-8.507c1.663 1.479 3.328 2.404 5.362 3.329.925.37 1.664.924 2.59 1.294l-2.22-61.396c-2.774-1.11-5.363-2.404-7.952-3.699l2.22 60.472Z"/><path fill="#FF3158" d="M226.168 291.633h-58.622v37.17c17.568 1.665 44.198 1.295 58.622 0v-37.17Z"/><path fill="#222" d="M196.394 331.392c-9.986 0-20.342-.37-28.849-1.11-.739 0-1.294-.739-1.294-1.294v-37.171c0-.739.555-1.479 1.479-1.479h58.623c.739 0 1.479.555 1.479 1.479v37.171c0 .74-.555 1.294-1.294 1.294-7.767.74-18.678 1.11-30.144 1.11Zm-27.369-3.884c16.828 1.48 41.794 1.11 55.848 0v-34.581h-55.848v34.581Z"/><path fill="#222" d="M196.949 331.576c-.74 0-1.479-.554-1.479-1.479v-38.465c0-.74.555-1.48 1.479-1.48.925 0 1.48.555 1.48 1.48v38.465c-.185.925-.74 1.479-1.48 1.479Z"/><path fill="#444" d="M196.949 218.031c39.205 0 69.348-2.589 98.012-9.062-21.082-10.541-57.513-15.904-98.012-15.904s-81.369 5.363-98.197 14.61c28.664 6.472 58.992 10.356 98.197 10.356Z"/><path fill="#222" d="M196.948 219.51c-36.245 0-66.574-3.144-98.381-10.356a1.668 1.668 0 0 1-1.11-1.11c0-.555.185-1.109.74-1.479 15.904-8.877 55.478-14.794 98.751-14.794 42.534 0 78.41 5.917 98.752 16.088.555.185.74.74.74 1.48 0 .739-.555 1.109-1.11 1.109-27.924 6.103-58.252 9.062-98.382 9.062Zm-93.943-12.206c30.328 6.473 59.362 9.432 93.943 9.432 37.911 0 67.129-2.589 93.759-8.137-20.342-9.061-54.184-14.055-93.759-14.055-39.944-.184-76.745 4.994-93.943 12.76ZM356.356 190.661c-.739 0-1.479-.555-1.479-1.479 0-22.192-72.307-41.055-157.929-41.055S39.019 166.99 39.019 189.182c0 .739-.554 1.479-1.479 1.479s-1.48-.555-1.48-1.479c0-24.596 70.643-43.828 160.703-43.828s160.703 19.232 160.703 43.828c.185.924-.37 1.479-1.11 1.479Z"/><path fill="#222" d="M57.143 199.723h-.185c-.74-.185-1.295-.74-1.11-1.664 3.33-20.712 65.28-36.801 141.286-36.801 76.56 0 137.216 15.719 141.1 36.431.185.739-.37 1.479-1.11 1.664-.739.185-1.479-.37-1.664-1.11-3.514-18.862-65.65-34.211-138.511-34.211-73.417 0-135.553 15.534-138.512 34.581 0 .555-.74 1.11-1.294 1.11Z"/><path fill="#222" d="M77.67 205.825c-.185 0-.555 0-.74-.184-.554-.37-.74-1.295-.37-1.85 10.172-15.904 60.842-27.369 120.389-27.369s110.032 11.465 120.388 27.369c.37.555.185 1.48-.37 1.85-.739.369-1.479.184-1.849-.37-9.616-14.795-60.471-26.075-118.169-26.075s-108.553 11.28-118.17 26.075c-.184.185-.739.554-1.109.554Z"/></svg>