<svg xmlns="http://www.w3.org/2000/svg" width="401" height="401" fill="none" viewBox="0 0 401 401"><path fill="#DADADA" d="m56.296 246.664 128.905 74.42a29.53 29.53 0 0 0 29.53 0l128.905-74.42"/><path fill="#fff" d="m343.531 246.669-128.905-74.42a29.53 29.53 0 0 0-29.53 0l-128.9 74.42"/><path fill="#fff" d="M200.531 43.954c4.72 0 9.44 1.23 13.69 3.675l129.98 75.055v123.985l-128.91-74.42a29.392 29.392 0 0 0-14.755-3.96V43.954h-.005Z"/><path fill="#444" d="M237.131 149.715c-1.23.39-2.44.945-3.57 1.64-3.88 2.32-7.06 6.18-8.725 10.445-.84 2.115-1.295 4.33-1.295 6.505l23.97 13.835c-.02-4.825 2.255-9.81 5.765-13.505l.225-.245c2.155-2.235 4.78-3.96 7.595-4.845l-23.97-13.835.005.005ZM327.241 270.234l-111.945 64.63a29.53 29.53 0 0 1-29.53 0l-111.945-64.63-16.955 9.79 128.905 74.42a29.53 29.53 0 0 0 29.53 0l128.905-74.42-16.955-9.79h-.01Z"/><path fill="#FF3158" d="M200.531 44.53v123.759c-5.09 0-10.18 1.315-14.755 3.96l-128.915 74.42V122.684l129.98-75.055a27.485 27.485 0 0 1 13.69-3.675v.575Z"/><path fill="#222" d="M200.531 326.415a30.869 30.869 0 0 1-15.455-4.13L56.196 247.88a1.384 1.384 0 0 1-.54-.54 1.375 1.375 0 0 1-.095-1.125 1.343 1.343 0 0 1 .63-.75l128.89-74.415c9.535-5.505 21.38-5.505 30.91 0l128.905 74.42c.43.245.69.705.69 1.195 0 .49-.265.95-.69 1.195l-128.905 74.42a30.92 30.92 0 0 1-15.455 4.13l-.005.005ZM59.626 246.67l126.83 73.225c8.68 5.01 19.465 5.01 28.145 0l126.83-73.225-126.83-73.225c-8.68-5.01-19.465-5.01-28.145 0L59.626 246.67Z"/><path fill="#DADADA" d="M215.296 321.09a29.53 29.53 0 0 1-29.53 0L56.861 246.67v13.8l128.905 74.42a29.53 29.53 0 0 0 29.53 0l128.905-74.42v-13.8l-128.905 74.42Z"/><path fill="#222" d="M200.531 340.215a30.869 30.869 0 0 1-15.455-4.13l-128.905-74.42a1.375 1.375 0 0 1-.69-1.195v-13.8a1.38 1.38 0 0 1 2.07-1.195l128.905 74.42c8.68 5.01 19.465 5.01 28.145 0l.69 1.195-.69-1.195 128.905-74.42c.43-.245.955-.245 1.38 0 .43.245.69.705.69 1.195v13.8c0 .495-.265.95-.69 1.195l-128.905 74.42a30.92 30.92 0 0 1-15.455 4.13h.005ZM58.246 259.67l128.21 74.025c8.68 5.01 19.465 5.01 28.145 0l128.21-74.025v-10.61l-126.83 73.225c-9.535 5.505-21.38 5.505-30.91 0l-126.825-73.22v10.61-.005Z"/><path fill="#222" d="M344.196 253.92c-.765 0-1.385-.62-1.385-1.38V123.48L213.526 48.835c-8.015-4.63-17.975-4.63-25.995 0L58.246 123.48v129.055c0 .765-.62 1.38-1.385 1.38s-1.385-.62-1.385-1.38V122.68c0-.495.265-.95.69-1.195L186.15 46.44c8.87-5.12 19.89-5.12 28.76 0l129.98 75.045c.43.245.69.705.69 1.195v129.855c0 .765-.62 1.38-1.385 1.38v.005Z"/><path fill="#222" d="M200.531 168.689c-.765 0-1.385-.62-1.385-1.38V44.529c0-.765.62-1.38 1.385-1.38s1.385.62 1.385 1.38v122.78c0 .765-.62 1.38-1.385 1.38Z"/><path fill="#fff" d="M169.991 159.075V100.87c0-6.73-3.22-10.835-8.21-11.72-.245-.04-.47-.08-.74-.105a5.656 5.656 0 0 0-.82-.06c-.185-.02-.39-.02-.575-.02-.78 0-1.56.08-2.38.205-.285.04-.555.08-.84.145-.185.04-.37.08-.555.125-.33.08-.655.185-.985.285-.31.08-.595.165-.885.265-.29.1-.575.205-.86.33-.39.145-.78.31-1.17.495-.225.105-.45.185-.7.31-.635.31-1.27.635-1.93 1.025-4.27 2.465-8.25 6.055-11.535 10.18a46.865 46.865 0 0 0-4.39 6.525c-2.955 5.255-4.72 10.855-4.72 15.845v58.205l41.295-23.83Z"/><path fill="#222" d="M128.696 184.285a1.375 1.375 0 0 1-1.38-1.38V124.7c0-5.04 1.74-10.905 4.9-16.52a47.992 47.992 0 0 1 4.52-6.715c3.5-4.395 7.62-8.03 11.92-10.51a26.84 26.84 0 0 1 2.02-1.075c.165-.08.335-.155.5-.225.075-.03.15-.065.225-.095.395-.185.815-.365 1.23-.52.305-.13.605-.235.91-.345.34-.12.675-.215.96-.295.345-.11.69-.215 1.035-.3l.59-.13c.33-.07.625-.115.945-.165 1.01-.15 1.805-.22 2.575-.22.185 0 .415 0 .645.02.305 0 .615.025.905.07.275.025.505.06.73.1l.08.015c5.87 1.04 9.365 5.93 9.365 13.085v58.205c0 .495-.265.95-.69 1.195l-41.295 23.83c-.215.125-.45.185-.69.185v-.005Zm31.07-93.94h-.12c-.63 0-1.3.06-2.175.19-.265.04-.5.075-.755.13l-.545.12c-.265.065-.57.165-.875.255l-.055.015c-.25.065-.515.14-.775.235-.26.095-.52.185-.78.295a13.556 13.556 0 0 0-1.12.47c-.12.055-.22.095-.32.14-.115.045-.23.095-.35.155-.72.35-1.3.655-1.84.98-4.015 2.32-7.87 5.72-11.16 9.85a45.337 45.337 0 0 0-4.265 6.335c-2.935 5.215-4.545 10.6-4.545 15.175v55.81l38.53-22.235V100.86c0-5.79-2.575-9.565-7.07-10.36l-.07-.01c-.175-.03-.34-.06-.535-.075-.035 0-.07-.005-.105-.01-.24-.035-.51-.025-.765-.055-.095-.01-.2-.01-.305-.01v.005Z"/><path fill="#fff" d="M161.781 89.15c-.245-.04-.47-.08-.74-.105-.045-.005-.095 0-.14-.01 1.16 1.905 1.83 4.36 1.83 7.37v58.205l7.255 4.465V100.87c0-6.73-3.225-10.835-8.21-11.72h.005Z"/><path fill="#222" d="M169.991 160.455c-.25 0-.5-.07-.725-.205l-7.255-4.465c-.41-.25-.66-.695-.66-1.175V96.405c0-2.63-.55-4.87-1.63-6.65a1.391 1.391 0 0 1 .02-1.47c.28-.435.78-.675 1.29-.625.05 0 .1.005.15.01.285.025.52.065.745.1l.08.015h.015c5.855 1.035 9.35 5.925 9.35 13.08v58.205c0 .5-.27.965-.71 1.205a1.4 1.4 0 0 1-.675.175l.005.005Zm-5.875-6.62 4.49 2.765v-55.73c0-4.975-1.905-8.46-5.29-9.85.53 1.615.8 3.415.8 5.385v57.435-.005Z"/><path fill="#fff" d="m162.736 154.609-34.04 19.64v8.65l41.295-23.825-7.255-4.465Z"/><path fill="#222" d="M128.696 184.285a1.375 1.375 0 0 1-1.38-1.38v-8.65c0-.495.265-.95.69-1.195l34.04-19.64c.44-.255.985-.245 1.415.02l7.255 4.465c.415.255.665.71.66 1.195a1.39 1.39 0 0 1-.69 1.18l-41.295 23.83c-.215.125-.45.185-.69.185l-.005-.01Zm1.385-9.235v5.46l37.21-21.47-4.58-2.815-32.635 18.83.005-.005Z"/><path fill="#fff" d="M300.151 210.7a4.421 4.421 0 0 1 0 6.22l-.185.105.04-.37-6.425-1.005.575 4.66-82.98 47.04c-.37.205-.74.39-1.13.535l.08-.78-6.425-.06.105.84c-.37-.145-.74-.33-1.11-.535l-56.42-32.53.47-3.86-6.425.08.04.37-.165-.105a4.404 4.404 0 0 1-1.295-3.12c0-1.13.43-2.235 1.295-3.1l64.835 37.395c.575.35 1.23.515 1.87.515.655.02 1.335-.165 1.95-.515l50.49-28.63 18.305-10.405 22.495-12.745h.01Z"/><path fill="#fff" d="M300.151 195.41v15.29l-22.495 12.745-.04-.08V208.24l-.06-.02 22.575-12.83.02.02Z"/><path fill="#DADADA" d="M300.151 195.39v.02l-.02-.02h.02Z"/><path fill="#fff" d="M300.151 174.27v21.12h-.02l-7.88-4.555c1.295-2.585 2.03-5.375 2.03-8.125l-23.97-13.835c-2.83.885-5.46 2.625-7.635 4.865l-3.695-2.135c1.27-2.565 1.99-5.335 1.99-8.065l-23.97-13.835c-1.23.39-2.44.945-3.57 1.64v-16.05c0-4.905 3.98-6.61 8.905-3.755l48.91 27.75c6.385 3.49 8.905 10.055 8.905 14.98Z"/><path fill="#fff" d="m292.251 190.835 7.88 4.555-7.9-4.495s.04-.04.02-.06Z"/><path fill="#fff" d="m300.131 195.39-22.575 12.825-62.27-35.98c-1.52-.86-3.08-1.6-4.7-2.195l-.105-.165 14.225-8.085c-.84 2.115-1.295 4.33-1.295 6.505l23.97 13.835.02-.02c4.825-1.5 9.05-5.48 11.43-10.24l3.655 2.075c-3.51 3.695-5.79 8.68-5.765 13.525l23.97 13.835.02-.02c4.885-1.54 9.135-5.58 11.515-10.385l7.9 4.495.005-.005ZM300.006 216.655l-.04.37-5.81 3.28-.57-4.655 6.42 1.005Z"/><path fill="#fff" d="m299.966 217.025-1.19 10.63c-.105.945-.905 1.66-1.825 1.66h-.04c-.945 0-1.705-.7-1.825-1.62l-.925-7.39 5.81-3.285-.005.005ZM294.281 182.705l-4.78 6.525-2.855-1.64c2.155-2.235 4.805-3.98 7.635-4.885ZM289.501 189.235l4.78-6.525c0 2.75-.74 5.54-2.03 8.125l-2.75-1.6Z"/><path fill="#fff" d="m289.501 189.234 2.75 1.6s0 .04-.02.06l-2.77-1.58.04-.08ZM289.456 189.314l2.77 1.58c-2.38 4.805-6.63 8.845-11.515 10.385l8.745-11.965Z"/><path fill="#fff" d="m289.501 189.235-.04.08-2.895-1.64.08-.08 2.855 1.64Z"/><path fill="#fff" d="m289.456 189.315-8.745 11.965-.02.02c-.02-4.885 2.3-9.935 5.87-13.63l2.895 1.64v.005Z"/><path fill="#444" d="M270.441 168.885c-2.83.885-5.46 2.625-7.635 4.865-.06.06-.125.145-.185.205-3.51 3.695-5.785 8.68-5.765 13.525l23.97 13.835c-.02-4.885 2.3-9.935 5.87-13.63 0-.02.04-.04.08-.08 2.155-2.235 4.805-3.98 7.635-4.885l-23.97-13.835Z"/><path fill="#fff" d="M262.676 173.74c-.06.06-.125.145-.185.205l-3.655-2.075c.06-.08.125-.165.145-.265l3.695 2.135ZM260.971 163.54l-4.74 6.485-2.855-1.64c2.155-2.235 4.78-3.96 7.595-4.845Z"/><path fill="#fff" d="m256.231 170.025 4.74-6.485c0 2.73-.72 5.5-1.99 8.065l-2.75-1.58Z"/><path fill="#DADADA" d="m259.321 218.655-66.375-38.32-.185-.31-52.4 29.74-.02 15.33 64.835 37.395c.575.35 1.23.515 1.87.515.655.02 1.335-.165 1.95-.515l50.49-28.63v-15.125l-.165-.08Z"/><path fill="#fff" d="M258.981 171.605a.6.6 0 0 1-.145.265l-2.79-1.6.185-.245 2.75 1.58ZM256.046 170.27l2.79 1.6c-2.38 4.76-6.61 8.745-11.43 10.24l8.64-11.84Z"/><path fill="#fff" d="m256.231 170.025-.185.245-2.895-1.64c.06-.08.145-.165.225-.245l2.855 1.64Z"/><path fill="#fff" d="m256.046 170.27-8.64 11.84-.02.02c-.02-4.825 2.26-9.81 5.765-13.505l2.895 1.64v.005ZM210.136 267.1l-.08.78c-1.99.8-4.23.8-6.24 0l-.105-.84 6.425.06Z"/><path fill="#fff" d="m210.051 267.88-1.15 11.165a1.885 1.885 0 0 1-1.87 1.66c-.945-.02-1.725-.7-1.825-1.62l-1.395-11.205c2.01.8 4.25.8 6.24 0ZM146.756 230.96l-.47 3.86-5.915-3.41-.04-.37 6.425-.08Z"/><path fill="#fff" d="m140.371 231.409 5.91 3.405-1.025 8.19a1.856 1.856 0 0 1-1.805 1.64c-.965 0-1.785-.72-1.87-1.685l-1.21-11.555v.005Z"/><path fill="#222" d="M207.036 282.09c-1.69-.035-3.02-1.235-3.2-2.85l-1.395-11.19a1.384 1.384 0 0 1 2.745-.345l1.395 11.205c.025.245.225.405.485.41a.5.5 0 0 0 .465-.43l1.15-11.155c.08-.76.755-1.31 1.515-1.235.76.08 1.31.755 1.235 1.515l-1.15 11.165a3.253 3.253 0 0 1-3.245 2.905v.005ZM296.951 230.699c-1.675 0-3.02-1.185-3.24-2.82l-.925-7.4a1.384 1.384 0 0 1 1.2-1.545 1.387 1.387 0 0 1 1.545 1.2l.925 7.39c.03.235.22.41.455.41a.49.49 0 0 0 .495-.43l1.19-10.635a1.383 1.383 0 1 1 2.75.31l-1.19 10.63a3.226 3.226 0 0 1-3.2 2.89h-.005ZM143.481 246.029c-1.735 0-3.13-1.265-3.275-2.95l-1.21-11.53a1.382 1.382 0 1 1 2.75-.29l1.21 11.555a.483.483 0 0 0 .495.445.46.46 0 0 0 .43-.41l1.03-8.21a1.38 1.38 0 0 1 1.545-1.2 1.38 1.38 0 0 1 1.2 1.545l-1.025 8.19c-.175 1.58-1.53 2.815-3.145 2.85l-.005.005ZM300.151 196.775c-.765 0-1.385-.62-1.385-1.38v-21.12c0-4.285-2.145-10.465-8.19-13.77l-48.925-27.76c-2.155-1.25-4.105-1.545-5.36-.82-1.225.705-1.48 2.225-1.48 3.375v16.05c0 .765-.62 1.38-1.385 1.38s-1.385-.62-1.385-1.38V135.3c0-2.655 1.02-4.705 2.865-5.77 2.135-1.23 5.095-.935 8.115.82l48.895 27.74c7.085 3.875 9.61 11.14 9.61 16.185v21.12c0 .765-.62 1.38-1.385 1.38h.01Z"/><path fill="#222" d="M206.951 269.87c-1.23 0-2.47-.235-3.65-.705-.385-.15-.79-.345-1.27-.61l-62.35-35.95-.205-.13c-.09-.055-.17-.12-.245-.195a5.757 5.757 0 0 1-1.7-4.095c0-1.545.605-2.98 1.7-4.075a1.384 1.384 0 0 1 1.67-.22l64.835 37.395c.365.22.76.33 1.175.33.44.01.86-.105 1.27-.335l50.49-28.63 18.305-10.405 22.495-12.745a1.378 1.378 0 0 1 1.665.23c2.225 2.25 2.225 5.91 0 8.16-.09.095-.2.175-.315.235l-.185.105-5.8 3.28-82.975 47.04c-.505.28-.925.48-1.335.63-1.145.46-2.36.69-3.58.69h.005Zm-65.86-39.645.02.01 62.29 35.91c.34.19.645.335.92.445 1.7.675 3.55.675 5.22.005.315-.115.6-.255.975-.46l82.965-47.035 5.815-3.285c.81-.925.965-2.23.465-3.3l-21.415 12.135-18.305 10.405-50.49 28.63c-.85.48-1.77.72-2.675.69-.88 0-1.77-.245-2.54-.715l-63.735-36.76a3.015 3.015 0 0 0 .5 3.325h-.01ZM300.131 196.775c-.235 0-.475-.06-.69-.185l-7.88-4.555a1.386 1.386 0 0 1-.505-1.89c.38-.66 1.23-.885 1.89-.505l7.88 4.555c.66.38.885 1.23.505 1.89-.255.445-.72.69-1.2.69ZM262.676 175.119c-.235 0-.475-.06-.69-.185l-3.695-2.135a1.386 1.386 0 0 1-.505-1.89c.38-.66 1.23-.885 1.89-.505l3.695 2.135c.66.38.885 1.23.505 1.89-.255.445-.72.69-1.2.69Z"/><path fill="#222" d="M140.211 226.47a1.38 1.38 0 0 1-1.38-1.385l.02-15.33c0-.495.27-.955.7-1.2l70.255-39.88 14.22-8.085a1.383 1.383 0 0 1 1.365 2.405l-32.08 18.225-51.7 29.345-.02 14.53c0 .765-.62 1.38-1.385 1.38l.005-.005Z"/><path fill="#222" d="M247.381 183.514c-.235 0-.47-.06-.69-.185l-23.97-13.835a1.375 1.375 0 0 1-.69-1.195c0-2.34.47-4.7 1.39-7.015 1.795-4.605 5.185-8.66 9.3-11.12a17.35 17.35 0 0 1 3.865-1.775c.37-.115.77-.075 1.11.12l23.97 13.835c.66.38.89 1.225.505 1.89-.38.66-1.23.89-1.89.505l-23.43-13.52c-.935.34-1.84.78-2.695 1.305-3.615 2.16-6.585 5.72-8.16 9.77-.69 1.74-1.085 3.485-1.18 5.22l23.26 13.42c.66.38.89 1.225.505 1.89-.255.445-.72.69-1.2.69Z"/><path fill="#222" d="M247.386 183.515c-.76 0-1.38-.615-1.38-1.375-.02-4.965 2.26-10.345 6.105-14.415.1-.125.205-.23.29-.315 2.37-2.46 5.195-4.26 8.16-5.19a1.382 1.382 0 0 1 1.795 1.32c0 2.825-.72 5.79-2.085 8.575-.07.205-.17.365-.25.48-2.625 5.18-7.105 9.195-12.035 10.785-.18.085-.38.135-.595.135h-.005Zm12.055-17.89c-1.815.87-3.54 2.13-5.065 3.715-.055.055-.095.09-.125.125-.03.045-.06.075-.095.11-2.85 3-4.725 6.785-5.24 10.46 3.56-1.685 6.72-4.855 8.69-8.79.03-.06.06-.115.1-.165.015-.03.025-.065.045-.095.87-1.75 1.44-3.57 1.695-5.36h-.005ZM280.696 202.685c-.235 0-.47-.06-.69-.185l-23.97-13.835c-.425-.245-.69-.7-.69-1.19-.02-4.995 2.275-10.41 6.145-14.485l.045-.05c.055-.065.11-.125.165-.18 2.415-2.485 5.255-4.29 8.2-5.205.37-.115.77-.07 1.1.125l23.97 13.835c.66.38.89 1.225.505 1.89-.38.66-1.23.89-1.89.505l-23.435-13.52c-2.31.83-4.54 2.315-6.49 4.32l-.035.04c-.055.065-.11.125-.165.18-3.165 3.33-5.135 7.68-5.345 11.76l23.26 13.425c.66.38.89 1.225.505 1.89-.255.445-.72.69-1.2.69l.015-.01Z"/><path fill="#222" d="M280.696 202.685c-.76 0-1.38-.615-1.38-1.375-.02-5.03 2.29-10.455 6.185-14.52.055-.07.12-.135.195-.2 2.365-2.445 5.195-4.25 8.165-5.195a1.378 1.378 0 0 1 1.8 1.315c0 2.81-.72 5.77-2.09 8.565-.035.115-.09.23-.155.335-2.63 5.24-7.14 9.31-12.12 10.935-.18.09-.385.135-.595.14h-.005Zm6.89-14.075-.025.025c-2.905 3.005-4.815 6.835-5.335 10.57 3.58-1.705 6.75-4.89 8.73-8.84.02-.05.04-.1.065-.15.885-1.77 1.47-3.61 1.73-5.41-1.835.885-3.57 2.155-5.105 3.745l-.06.06ZM259.351 235.235c-.765 0-1.385-.62-1.385-1.38V219.54l-65.845-38.015a1.38 1.38 0 0 1-.505-1.89 1.38 1.38 0 0 1 1.89-.505l66.34 38.295.125.065c.47.235.765.715.765 1.235v15.125c0 .765-.62 1.38-1.385 1.38v.005Z"/><path fill="#222" d="M207.136 249.56a1.383 1.383 0 0 1-.685-2.585l70.415-39.96 22.575-12.825c.21-.12.445-.18.685-.18.765 0 1.405.62 1.405 1.38v15.31c0 .765-.62 1.38-1.385 1.38s-1.385-.62-1.385-1.38v-12.945l-38.9 22.09-52.05 29.535c-.215.12-.45.18-.68.18h.005Z"/><path fill="#222" d="M277.616 224.75c-.765 0-1.385-.62-1.385-1.38v-14.315l-61.64-35.615a29.86 29.86 0 0 0-4.485-2.095 1.382 1.382 0 1 1 .955-2.595c1.63.6 3.28 1.37 4.905 2.29l62.17 35.92c.52.21.86.715.86 1.28v15.125c0 .765-.62 1.38-1.385 1.38l.005.005ZM206.931 264.05c-.765 0-1.385-.62-1.385-1.38v-13.59l-65.295-37.715a1.38 1.38 0 0 1-.505-1.89 1.385 1.385 0 0 1 1.89-.505l65.985 38.115c.43.245.69.705.69 1.195v14.385c0 .765-.62 1.38-1.385 1.38l.005.005Z"/><path fill="#fff" d="m124.976 200.7-35.635 20.575v28.72l35.635-20.57V200.7Z"/><path fill="#222" d="M89.34 251.38a1.375 1.375 0 0 1-1.38-1.38v-28.72c0-.495.266-.95.69-1.195l35.631-20.57c.43-.245.955-.245 1.38 0 .43.245.69.705.69 1.195v28.72c0 .495-.265.95-.69 1.195l-35.63 20.57c-.215.125-.45.185-.69.185Zm1.386-29.305v25.53l32.865-18.975V203.1l-32.865 18.975Z"/><path fill="#fff" d="M78.786 215.181v28.72l10.555 6.095v-28.72l-10.555-6.095Z"/><path fill="#222" d="M89.34 251.38c-.24 0-.474-.06-.69-.185L78.09 245.1a1.375 1.375 0 0 1-.69-1.195v-28.72a1.38 1.38 0 0 1 2.07-1.195l10.56 6.095c.43.245.69.705.69 1.195V250a1.38 1.38 0 0 1-1.38 1.38Zm-9.174-8.275 7.79 4.5v-25.53l-7.79-4.5v25.53Z"/><path fill="#fff" d="m114.416 194.605-35.63 20.575 10.555 6.095 35.635-20.575-10.56-6.095Z"/><path fill="#222" d="M89.34 222.655c-.24 0-.474-.06-.69-.185l-10.56-6.095a1.375 1.375 0 0 1-.69-1.195c0-.49.266-.95.69-1.195l35.631-20.57c.43-.245.955-.245 1.38 0l10.56 6.095c.43.245.69.705.69 1.195 0 .49-.265.95-.69 1.195l-35.63 20.57c-.215.125-.45.185-.69.185Zm-7.794-7.48 7.795 4.5 32.865-18.975-7.795-4.5-32.865 18.975Z"/><path fill="#222" d="M97.46 212.38a1.385 1.385 0 0 1-1.205-2.065c2.326-4.115 6.596-6.36 11.136-5.87a1.383 1.383 0 1 1-.3 2.75c-3.425-.37-6.655 1.345-8.43 4.48-.255.45-.725.7-1.205.7l.005.005Z"/><path fill="#DADADA" d="M292.436 113.355v32.755l-46-26.115v-33.03l46 26.39Z"/><path fill="#222" d="M292.436 147.495c-.235 0-.47-.06-.685-.18l-46-26.115a1.376 1.376 0 0 1-.7-1.2V86.97c0-.495.265-.95.69-1.195.425-.25.955-.25 1.38 0l46 26.395c.43.245.695.705.695 1.2v32.755a1.387 1.387 0 0 1-1.38 1.385v-.015Zm-44.615-28.305 43.235 24.545v-29.58L247.821 89.35v29.84Z"/><path fill="#fff" d="M78.786 164.596v32.755l22.87-12.985v-32.89l-22.87 13.12Z"/><path fill="#222" d="M78.786 198.736a1.384 1.384 0 0 1-1.38-1.385v-32.755c0-.495.265-.955.695-1.2l22.87-13.125a1.387 1.387 0 0 1 1.38 0c.425.245.69.705.69 1.195v32.895c0 .495-.265.955-.7 1.2l-22.87 12.985c-.21.12-.445.18-.685.18v.01Zm1.385-33.335v29.58l20.105-11.415v-29.7l-20.105 11.535Z"/><path fill="#fff" d="M91.716 121.821v22.8l16.825-9.5v-22.94l-16.825 9.64Z"/><path fill="#222" d="M91.716 146.001a1.384 1.384 0 0 1-1.38-1.385v-22.8c0-.495.265-.955.695-1.2l16.825-9.64c.43-.245.955-.245 1.38 0 .425.245.69.705.69 1.195v22.94c0 .5-.27.96-.705 1.205l-16.825 9.5c-.21.12-.445.18-.68.18v.005Zm1.385-23.385v19.63l14.055-7.94v-19.745l-14.055 8.055Z"/></svg>