<svg xmlns="http://www.w3.org/2000/svg" width="400" height="401" fill="none" viewBox="0 0 400 401"><path fill="#fff" d="m203.075 139.995-84.88 89.15h.09c5.915.23 11.99.425 18.43.59v83.71h132.72v-83.71c6.44-.165 12.515-.36 18.43-.59h.09l-84.88-89.15ZM100.56 272.69c-1.12 6.2-1.16 13.055-4.475 17.925-7.675 11.28-16.97 10.305-28.485 19.245-3.41 2.645-19.7 9.785-19.7 9.785L18.32 293.32c0-8.06 6.15-15.6 7.89-20.63 4.905-14.16 4.29-23.915 9.43-37.445 5.145-13.335 14.76-28.675 28.78-26.9 2.73.345 16.845 5.085 18.78 6.22l6.645 2.105c2.465.78 4.67 2.215 6.38 4.15l9.11 10.3 3.305 4.62a9.152 9.152 0 0 1 1.705 5.05c.05 1.635-1.595 2.81-3.175 2.39l-14.985-5.02c-4.295-1.44-11.02-2.13-13.24 1.82l-1.805 2.005c-2.735 4.855-2.33 18.25 3.11 19.475l4.685-.335a8.783 8.783 0 0 1 8.685 1.35l7.97 4.905-1.035 5.31h.005Z"/><path fill="#444" d="M318.725 291.34c4.175 4.72 7.77 10.555 13.13 12.995 12.415 5.655 19.855-.005 34.335 1.655 4.285.49 19.665 4.6 19.665 4.6l8.5-54.13c-2.03-.705-7.995-.33-12.095-3.725-11.54-9.555-16.085-18.21-27.505-27.105-11.325-8.725-27.505-16.845-38.565-8.045-2.155 1.715-11.755 13.095-12.82 15.065l-4.585 5.25a14.28 14.28 0 0 0-3.3 6.86l-2.44 13.535-.425 5.665a9.126 9.126 0 0 0 1.165 5.2c.805 1.425 2.82 1.575 3.955.395l10.2-12.07c2.925-3.46 8.31-7.54 12.26-5.32l2.585.775c4.86 2.73 11.47 14.39 7.455 18.255l-4.175 2.145a8.78 8.78 0 0 0-6.72 5.665l-4.265 8.33 3.64 4 .005.005Z"/><path fill="#DADADA" d="M254.015 146.015c2.44 5.81 3.97 12.49 8.26 16.525 9.945 9.34 18.805 6.375 31.985 12.595 3.9 1.84 17.145 10.67 17.145 10.67l25.435-48.53c-1.695-1.32-7.465-2.88-10.26-7.41-7.86-12.755-9.385-22.415-17.34-34.505-7.92-11.9-20.635-24.785-33.935-20.005-2.59.93-15.335 8.625-16.98 10.15l-6.03 3.5a14.254 14.254 0 0 0-5.325 5.435l-6.655 12.035-2.225 5.23a9.159 9.159 0 0 0-.57 5.3c.305 1.61 2.165 2.395 3.62 1.645l13.535-8.155c3.88-2.34 10.29-4.47 13.32-1.1l2.2 1.565c3.725 4.145 6.24 17.31 1.195 19.685l-4.645.69a8.777 8.777 0 0 0-8.185 3.205l-6.715 6.52 2.165 4.96.005-.005ZM208.735 136.025l-84.88 89.15h.09c5.915.23 11.99.425 18.43.59v83.71h71.535V270.58c0-8.825 6.57-15.955 14.68-15.955s14.68 7.13 14.68 15.955v38.895h31.82v-83.71c6.44-.165 12.515-.36 18.43-.59h.09l-84.88-89.15h.005Z"/><path fill="#222" d="M269.435 316.325c-.765 0-1.385-.62-1.385-1.385v-83.71c0-.75.6-1.365 1.345-1.38 5.305-.135 10.385-.295 15.44-.475l-66.225-69.56a1.383 1.383 0 1 1 2.005-1.905l68.345 71.785a1.386 1.386 0 0 1-1 2.34h-.065c-5.615.215-11.215.4-17.075.555v82.365c0 .765-.62 1.385-1.385 1.385v-.015ZM136.72 279.54c-.765 0-1.385-.62-1.385-1.385V232.58c-5.86-.155-11.46-.335-17.075-.555h-.065a1.385 1.385 0 0 1-1-2.34l84.88-89.15a1.383 1.383 0 1 1 2.005 1.905l-82.76 86.925c5.05.185 10.13.34 15.44.475.75.02 1.345.63 1.345 1.38v46.925c0 .765-.62 1.385-1.385 1.385v.01ZM237.74 316.325h-29.36c-.765 0-1.385-.62-1.385-1.385v-38.895c0-9.56 7.205-17.335 16.065-17.335 8.86 0 16.065 7.775 16.065 17.335v38.895c0 .765-.62 1.385-1.385 1.385Zm-27.98-2.765h26.595v-37.51c0-8.035-5.965-14.57-13.3-14.57-7.335 0-13.3 6.535-13.3 14.57v37.51h.005Z"/><path fill="#222" d="M218.34 288.475a2.855 2.855 0 1 0 0-5.71 2.855 2.855 0 0 0 0 5.71ZM290.99 316.325H170.31a1.385 1.385 0 1 1 0-2.77h120.68a1.385 1.385 0 1 1 0 2.77ZM300.96 179.669c-.26 0-.52-.07-.75-.225-8.015-5.205-14.54-6.605-20.29-7.84-6.265-1.345-12.185-2.615-18.39-8.405-3.48-3.25-5.25-8.01-6.96-12.615-.54-1.45-1.095-2.945-1.69-4.355-.3-.705.03-1.515.735-1.81.705-.3 1.515.03 1.81.735.62 1.465 1.185 2.99 1.735 4.47 1.67 4.5 3.25 8.755 6.25 11.555 5.645 5.27 10.945 6.405 17.085 7.72 5.985 1.285 12.775 2.74 21.22 8.225a1.38 1.38 0 0 1-.755 2.54v.005ZM267.71 132.365c-1.18 0-2.57-.32-4.07-1.28a1.382 1.382 0 1 1 1.49-2.33c1.32.845 2.62 1.055 3.865.625 1.735-.605 3.035-2.31 3.365-3.275 1.185-3.44.365-9.93-3.035-14.42-1.535-2.035-4.215-4.41-8.265-4.18-1.955.155-3.25 1.96-5.195 4.89-1.955 2.945-4.39 6.61-8.8 8.665-3.72 1.735-7.975 1.185-10.355-1.335-2.125-2.25-2.3-5.485-.475-8.875 4.18-7.765 7.255-13.36 8.1-14.89 3.18-5.77 6.03-8.36 11.295-10.275 6.45-2.34 13.265-1.045 20.265 3.85 6.62 4.635 12.01 11.57 15.36 16.57a1.384 1.384 0 0 1-2.3 1.54c-5.045-7.525-18.305-24.475-32.385-19.36-4.59 1.665-6.975 3.855-9.82 9.01-.84 1.525-3.915 7.11-8.085 14.865-1.24 2.305-1.22 4.315.05 5.665 1.545 1.635 4.565 1.94 7.175.725 3.705-1.725 5.805-4.895 7.665-7.69 1.995-3.005 3.885-5.845 7.315-6.12 4.195-.23 7.875 1.585 10.66 5.27 3.58 4.735 5.095 12.2 3.44 16.99-.505 1.47-2.275 4.01-5.07 4.985-.6.21-1.34.375-2.19.375v.005Z"/><path fill="#222" d="M296.875 103.39c-.445 0-.885-.215-1.15-.615-5.045-7.526-18.3-24.47-32.385-19.36-3.1 1.124-5.19 2.524-6.98 4.684a1.38 1.38 0 1 1-2.125-1.764c2.13-2.566 4.57-4.215 8.165-5.52 6.45-2.34 13.265-1.046 20.26 3.85 6.62 4.634 12.01 11.57 15.36 16.57a1.384 1.384 0 0 1-1.15 2.155h.005Z"/><path fill="#222" d="M303.045 99.814c-.445 0-.885-.215-1.15-.615-5.045-7.525-18.305-24.475-32.385-19.36-2.43.88-4.18 1.9-5.68 3.3-.56.52-1.43.49-1.955-.065-.52-.56-.49-1.435.065-1.955 1.76-1.645 3.865-2.875 6.625-3.88 6.45-2.34 13.265-1.045 20.26 3.85 6.62 4.635 12.01 11.57 15.36 16.57a1.384 1.384 0 0 1-1.15 2.155h.01Z"/><path fill="#222" d="M332.62 135.429c-.285 0-.575-.09-.825-.275-8.38-6.225-11.37-13.465-14.83-21.845-2.185-5.29-4.665-11.29-8.91-17.695-5.04-7.52-18.3-24.465-32.38-19.355-2.43.885-4.18 1.9-5.68 3.3-.56.52-1.435.49-1.955-.065-.52-.56-.49-1.435.065-1.955 1.76-1.645 3.865-2.875 6.625-3.88 6.45-2.34 13.265-1.045 20.265 3.85 6.62 4.635 12.01 11.57 15.36 16.57 4.4 6.635 6.93 12.765 9.165 18.17 3.305 8 6.16 14.91 13.925 20.68.615.455.74 1.32.285 1.935-.27.365-.69.56-1.11.56v.005Z"/><path fill="#fff" d="m242.249 146.13-22.415 12.51 9.48-23.855 12.935 11.345Z"/><path fill="#222" d="M219.835 160.025c-.33 0-.655-.115-.91-.345a1.384 1.384 0 0 1-.375-1.55l9.48-23.855a1.39 1.39 0 0 1 .96-.835 1.39 1.39 0 0 1 1.235.305l12.935 11.34c.34.295.51.74.465 1.185-.045.445-.31.845-.7 1.06l-22.415 12.515a1.36 1.36 0 0 1-.675.175v.005Zm10.04-22.91-7.32 18.425 17.31-9.665-9.985-8.76h-.005Z"/><path fill="#222" d="m231.044 152.385-11.21 6.255 4.74-11.925 6.47 5.67Z"/><path fill="#222" d="M219.835 160.025c-.33 0-.655-.115-.91-.345a1.384 1.384 0 0 1-.375-1.55l4.74-11.93a1.39 1.39 0 0 1 .96-.835 1.39 1.39 0 0 1 1.235.305l6.465 5.67c.34.295.51.74.465 1.185-.045.445-.31.845-.7 1.06l-11.21 6.26a1.36 1.36 0 0 1-.675.175l.005.005Zm5.3-10.98-2.58 6.495 6.105-3.41-3.52-3.09-.005.005Z"/><path fill="#fff" d="m300.726 53.293-71.444 81.466 12.932 11.341 71.443-81.466-12.931-11.34Z"/><path fill="#222" d="M242.25 147.511c-.335 0-.66-.12-.91-.345l-12.935-11.34a1.384 1.384 0 0 1-.13-1.95l71.38-81.52a1.381 1.381 0 0 1 1.95-.13l12.935 11.34c.575.505.63 1.375.13 1.95l-71.38 81.52c-.24.275-.585.445-.95.47h-.09v.005Zm-10.985-12.855 10.855 9.52 69.56-79.44-10.855-9.52-69.56 79.44Z"/><path fill="#fff" d="m303.669 49.876-2.974 3.39 12.932 11.341 2.974-3.39-12.932-11.341Z"/><path fill="#222" d="M313.63 65.99c-.335 0-.66-.12-.91-.345l-12.935-11.34a1.381 1.381 0 0 1-.13-1.95l2.975-3.39a1.384 1.384 0 0 1 1.95-.13l12.935 11.34c.575.505.63 1.375.13 1.95l-2.975 3.39c-.24.275-.585.445-.95.47h-.09v.005Zm-10.98-12.855 10.855 9.52 1.15-1.31-10.855-9.52-1.15 1.31Z"/><path fill="#FF3158" d="M311.91 40.48a3.485 3.485 0 0 1 4.925-.32l7.685 6.74a3.485 3.485 0 0 1 .32 4.925l-8.24 9.395-12.935-11.34 8.24-9.395.005-.005Z"/><path fill="#222" d="M316.605 62.6a1.37 1.37 0 0 1-.91-.344l-12.935-11.34a1.381 1.381 0 0 1-.13-1.95l8.24-9.395a4.837 4.837 0 0 1 3.345-1.65c1.3-.085 2.55.34 3.53 1.2l7.685 6.74a4.837 4.837 0 0 1 1.65 3.345c.085 1.3-.34 2.55-1.2 3.53l-8.24 9.395c-.275.31-.655.47-1.04.47h.005Zm-10.98-12.85 10.855 9.52 7.33-8.354c.37-.425.555-.965.52-1.525a2.079 2.079 0 0 0-.715-1.445l-7.685-6.74a2.114 2.114 0 0 0-1.525-.52c-.56.035-1.075.29-1.445.715l-7.33 8.355-.005-.005ZM237.94 143.731a1.37 1.37 0 0 1-.91-.345 1.38 1.38 0 0 1-.13-1.95l71.38-81.52a1.38 1.38 0 0 1 1.95-.13 1.38 1.38 0 0 1 .13 1.95l-71.38 81.52c-.275.31-.655.47-1.04.47v.005ZM233.63 139.95a1.37 1.37 0 0 1-.91-.345 1.38 1.38 0 0 1-.13-1.95l71.38-81.52a1.384 1.384 0 0 1 1.95-.13 1.38 1.38 0 0 1 .13 1.95l-71.38 81.52c-.275.31-.655.47-1.04.47v.005Z"/><path fill="#DADADA" d="M264.385 129.92c-4.685-2.725-10.16-8.655-14.945-10.62-5.01-2.055-9.3-2.12-11.355.92-2.23 3.3 1.095 7.375 4.495 10.56 4.49 4.205 8.685 8.105 11.57 14.915"/><path fill="#222" d="M252.88 146.235c-2.75-6.495-6.835-10.32-11.155-14.365l-.085-.08c-1.975-1.85-7.985-7.475-4.7-12.34 2.305-3.415 6.93-3.925 13.025-1.425 2.92 1.2 5.985 3.695 8.945 6.115 2.19 1.785 4.255 3.475 6.175 4.59l-1.39 2.39c-2.105-1.225-4.355-3.06-6.53-4.84-2.805-2.29-5.7-4.655-8.245-5.695-2.75-1.125-7.665-2.575-9.685.415-1.325 1.96.08 4.83 4.295 8.775l.085.08c4.54 4.25 8.83 8.265 11.81 15.305l-2.545 1.08v-.005ZM385.855 311.971c-.165 0-.335-.03-.5-.095-13.58-5.275-23.94-4.775-33.08-4.335-7.58.365-14.125.68-20.845-2.275-4.36-1.915-7.6-5.825-10.735-9.61-.985-1.19-2.005-2.42-3.03-3.55a1.384 1.384 0 1 1 2.05-1.86c1.07 1.175 2.11 2.43 3.115 3.645 3.065 3.695 5.96 7.19 9.72 8.84 6.125 2.695 12.37 2.39 19.6 2.045 9.415-.455 20.085-.97 34.215 4.52a1.382 1.382 0 0 1-.5 2.67l-.01.005ZM324.795 274.496a8.74 8.74 0 0 1-1.975-.24 1.383 1.383 0 0 1 .64-2.69c1.525.36 2.825.13 3.855-.69 1.435-1.14 2.1-3.18 2.095-4.2-.015-3.635-2.935-9.49-7.625-12.61-2.12-1.41-5.44-2.765-9.185-1.215-1.795.795-2.42 2.925-3.29 6.335-.875 3.425-1.96 7.69-5.44 11.085-2.94 2.865-7.135 3.755-10.215 2.16-2.75-1.425-3.98-4.42-3.38-8.22 1.375-8.69 2.435-15 2.725-16.73 1.1-6.495 2.93-9.885 7.27-13.425 5.315-4.34 12.175-5.37 20.4-3.06 7.78 2.19 15.155 6.955 19.97 10.565a1.381 1.381 0 1 1-1.66 2.21c-7.25-5.435-25.36-17.055-36.96-7.58-3.785 3.09-5.31 5.945-6.29 11.745-.29 1.725-1.35 8.025-2.72 16.7-.41 2.585.275 4.48 1.92 5.33 2 1.035 4.95.325 7.01-1.685 2.925-2.855 3.865-6.535 4.695-9.79.89-3.5 1.735-6.8 4.88-8.19 3.885-1.61 7.955-1.105 11.805 1.455 4.945 3.29 8.835 9.835 8.86 14.9.005 1.555-.825 4.54-3.14 6.38-.905.72-2.305 1.455-4.235 1.455l-.01.005Z"/><path fill="#222" d="M344.585 237.215c-.29 0-.58-.09-.83-.275-7.25-5.435-25.36-17.055-36.96-7.58-2.555 2.085-4.06 4.1-5.04 6.73a1.385 1.385 0 0 1-2.595-.965c1.16-3.12 2.92-5.485 5.88-7.905 5.315-4.34 12.175-5.37 20.4-3.06 7.78 2.19 15.155 6.955 19.97 10.565.61.46.735 1.325.275 1.935-.27.36-.685.555-1.105.555h.005Z"/><path fill="#222" d="M349.225 231.801c-.29 0-.58-.09-.83-.275-7.25-5.435-25.36-17.055-36.96-7.58-2 1.635-3.32 3.175-4.27 4.99a1.383 1.383 0 0 1-2.45-1.28c1.115-2.135 2.695-3.99 4.97-5.85 5.315-4.34 12.175-5.37 20.4-3.06 7.78 2.19 15.155 6.955 19.97 10.565.61.46.735 1.325.275 1.935-.27.36-.685.555-1.105.555Z"/><path fill="#222" d="M394.36 257.841c-.06 0-.125 0-.19-.015-10.27-1.4-18.045-9.415-26.28-17.905-4.595-4.735-9.345-9.63-14.865-13.815-7.24-5.43-25.355-17.05-36.955-7.575-2 1.635-3.32 3.175-4.27 4.99a1.383 1.383 0 0 1-2.45-1.28c1.115-2.135 2.695-3.99 4.97-5.85 5.315-4.34 12.175-5.37 20.395-3.055 7.78 2.19 15.155 6.955 19.97 10.565 5.695 4.315 10.52 9.29 15.185 14.1 8.235 8.49 15.345 15.82 24.67 17.09.755.105 1.285.8 1.185 1.555a1.383 1.383 0 0 1-1.37 1.195h.005Z"/><path fill="#fff" d="m291.91 289.141-.955 25.65 16.935-19.29-15.98-6.36Z"/><path fill="#222" d="M290.955 316.176c-.17 0-.345-.03-.51-.1a1.38 1.38 0 0 1-.87-1.335l.955-25.655c.015-.45.25-.86.625-1.105s.85-.29 1.265-.125l15.98 6.365c.415.165.73.525.835.96a1.39 1.39 0 0 1-.305 1.235l-16.94 19.29c-.27.305-.65.47-1.04.47h.005Zm2.265-25.025-.74 19.81 13.08-14.895-12.34-4.915Z"/><path fill="#222" d="m291.435 301.965-.48 12.825 8.47-9.645-7.99-3.18Z"/><path fill="#222" d="M290.955 316.175c-.17 0-.345-.03-.51-.1a1.38 1.38 0 0 1-.87-1.335l.48-12.83c.015-.45.25-.86.625-1.105s.85-.29 1.265-.125l7.99 3.18c.415.165.73.525.835.96a1.39 1.39 0 0 1-.305 1.235l-8.47 9.645c-.27.305-.65.47-1.04.47v.005Zm1.785-12.2-.26 6.985 4.615-5.255-4.35-1.735-.005.005Z"/><path fill="#FF3158" d="m332.033 188.484-40.082 100.669 15.98 6.363 40.082-100.669-15.98-6.363Z"/><path fill="#222" d="M307.89 296.885c-.17 0-.345-.03-.51-.1l-15.98-6.365a1.39 1.39 0 0 1-.775-1.8l40.16-100.635a1.378 1.378 0 0 1 1.795-.77l15.98 6.365a1.39 1.39 0 0 1 .775 1.8l-40.16 100.635c-.215.54-.735.87-1.285.87Zm-14.185-8.52 13.415 5.34 39.135-98.07-13.415-5.34-39.135 98.07Z"/><path fill="#fff" d="m333.735 184.306-1.669 4.19 15.98 6.363 1.669-4.191-15.98-6.362Z"/><path fill="#222" d="M348.05 196.245c-.175 0-.345-.035-.51-.1l-15.98-6.365a1.39 1.39 0 0 1-.775-1.8l1.67-4.19a1.383 1.383 0 0 1 1.795-.775l15.98 6.365c.71.28 1.055 1.085.775 1.795l-1.67 4.19c-.135.34-.4.615-.74.76-.175.075-.36.115-.545.115v.005Zm-14.185-8.52 13.415 5.34.645-1.62-13.415-5.34-.645 1.62Z"/><path fill="#FF3158" d="M354.34 179.065a3.484 3.484 0 0 0-1.95-4.53l-9.5-3.78a3.484 3.484 0 0 0-4.53 1.95l-4.62 11.61 15.98 6.365 4.62-11.61v-.005Z"/><path fill="#222" d="M349.72 192.055c-.17 0-.345-.03-.51-.1l-15.98-6.365a1.39 1.39 0 0 1-.775-1.8l4.625-11.61a4.874 4.874 0 0 1 6.325-2.725l9.5 3.78a4.814 4.814 0 0 1 2.67 2.6c.51 1.195.535 2.52.05 3.73L351 191.175c-.215.54-.735.87-1.285.87l.005.01Zm-14.185-8.52 13.415 5.34 4.11-10.325c.43-1.08-.1-2.305-1.18-2.735l-9.5-3.78c-1.08-.43-2.305.1-2.735 1.18l-4.11 10.325v-.005Z"/><path fill="#222" d="M317.575 211.19a1.385 1.385 0 0 1-1.285-1.895l10.975-27.55a1.383 1.383 0 0 1 1.795-.775l5.185 2.06a1.383 1.383 0 0 1-1.02 2.57l-3.9-1.55-10.46 26.265c-.215.54-.735.87-1.285.87l-.005.005Z"/><path fill="#444" d="M323.14 272.911c-5.325-1.025-12.45-4.815-17.615-5.085-5.405-.285-9.48 1.075-10.41 4.62-1.015 3.855 3.47 6.6 7.73 8.48 5.625 2.485 10.87 4.78 15.845 10.255"/><path fill="#222" d="M317.665 292.11c-4.745-5.225-9.86-7.485-15.275-9.875l-.105-.045c-2.475-1.095-10.005-4.42-8.51-10.095 1.05-3.985 5.245-5.99 11.82-5.65 3.155.165 6.87 1.515 10.46 2.815 2.655.965 5.165 1.875 7.345 2.295l-.525 2.715c-2.395-.46-5.125-1.45-7.765-2.41-3.4-1.235-6.92-2.51-9.66-2.655-2.97-.155-8.085.105-9.005 3.59-.6 2.285 1.675 4.53 6.955 6.865l.105.045c5.69 2.515 11.065 4.885 16.205 10.545l-2.045 1.86ZM18.325 294.7c-.14 0-.285-.02-.425-.07a1.383 1.383 0 0 1-.89-1.74c.21-.645 5.13-15.835 6.875-19.985 2.35-5.595 3.475-11.07 4.665-16.87 1.26-6.13 2.685-13.085 5.805-21.29 2.17-5.625 5.895-13.575 11.33-19.555 5.745-6.32 12.105-9.09 18.915-8.225 2.915.37 5.235 1.105 7.315 2.325a1.381 1.381 0 1 1-1.395 2.385c-1.77-1.035-3.7-1.64-6.265-1.965C49.4 207.83 40.2 227.285 36.94 235.735c-3.04 7.995-4.38 14.535-5.68 20.86-1.22 5.935-2.37 11.54-4.825 17.385-1.7 4.04-6.745 19.605-6.795 19.765a1.38 1.38 0 0 1-1.315.955ZM49.26 322.38c-.485 0-.955-.255-1.21-.71-.37-.665-.13-1.51.535-1.88.125-.07 12.755-7.11 16.015-9.645 4.76-3.7 9.395-5.925 13.88-8.075 6.485-3.105 12.08-5.79 16.465-12.235 2.31-3.395 2.91-7.89 3.55-12.65.21-1.56.425-3.18.71-4.745.135-.75.855-1.25 1.605-1.115s1.25.855 1.115 1.605c-.27 1.505-.485 3.085-.69 4.62-.65 4.87-1.325 9.9-4.005 13.84-4.805 7.06-11 10.025-17.555 13.17-4.355 2.085-8.855 4.245-13.38 7.765-3.42 2.665-15.84 9.585-16.365 9.88a1.37 1.37 0 0 1-.67.175ZM82.935 262.841c-.27 0-.525-.015-.76-.045-2.94-.33-5.225-2.42-6.045-3.745-2.665-4.305-2.84-11.92-.39-17.33 1.905-4.21 5.085-6.795 9.205-7.49 3.435-.495 5.905 1.86 8.515 4.35 2.425 2.315 5.175 4.94 9.17 5.81 2.815.61 5.69-.35 6.84-2.29.945-1.595.52-3.565-1.2-5.54-5.74-6.595-9.995-11.4-11.165-12.715-3.91-4.4-6.72-6.01-11.565-6.625-14.86-1.885-24.055 17.575-27.315 26.025a1.385 1.385 0 0 1-1.79.79 1.385 1.385 0 0 1-.79-1.79c2.17-5.615 5.895-13.57 11.33-19.55 5.745-6.32 12.105-9.085 18.915-8.225 5.555.705 8.91 2.605 13.285 7.53 1.17 1.32 5.435 6.13 11.185 12.735 2.525 2.905 3.07 6.095 1.49 8.76-1.765 2.98-5.795 4.455-9.805 3.585-4.75-1.03-7.935-4.07-10.49-6.51-2.545-2.43-4.21-3.905-6.18-3.62-3.965.665-6.06 3.575-7.11 5.895-2.32 5.13-1.695 11.64.22 14.735.535.865 2.18 2.245 4.005 2.45 1.31.15 2.53-.345 3.635-1.46a1.378 1.378 0 0 1 1.955-.01c.545.535.55 1.41.01 1.955-1.815 1.835-3.7 2.305-5.15 2.305l-.005.02Z"/><path fill="#222" d="M49.255 240.881a1.385 1.385 0 0 1-1.29-1.885c2.17-5.615 5.895-13.57 11.33-19.55 5.745-6.32 12.11-9.085 18.915-8.225 3.795.48 6.54 1.55 9.18 3.585.605.465.72 1.335.255 1.94a1.385 1.385 0 0 1-1.94.255c-2.225-1.71-4.57-2.615-7.84-3.03-14.86-1.88-24.055 17.575-27.315 26.025-.21.55-.735.885-1.29.885h-.005Z"/><path fill="#222" d="M42.45 238.755a1.385 1.385 0 0 1-1.29-1.885c2.17-5.615 5.895-13.57 11.33-19.55 5.745-6.32 12.11-9.09 18.915-8.225 2.915.37 5.235 1.105 7.315 2.325a1.381 1.381 0 1 1-1.395 2.385c-1.77-1.035-3.7-1.64-6.265-1.965-14.86-1.88-24.055 17.575-27.315 26.025-.21.55-.735.885-1.29.885l-.005.005Z"/><path fill="#fff" d="M122.18 256.76 136.595 278l-24.59-7.37 10.175-13.87Z"/><path fill="#222" d="M136.595 279.385c-.13 0-.265-.02-.395-.06l-24.59-7.375c-.43-.13-.77-.46-.915-.885a1.373 1.373 0 0 1 .195-1.255l10.175-13.87a1.382 1.382 0 0 1 2.26.04l14.415 21.24a1.383 1.383 0 0 1-1.145 2.16v.005Zm-22.315-9.515 18.99 5.695-11.13-16.405-7.86 10.71Z"/><path fill="#222" d="m129.39 267.38 7.205 10.62-12.295-3.685 5.09-6.935Z"/><path fill="#222" d="M136.595 279.385c-.13 0-.265-.02-.395-.06l-12.295-3.685c-.43-.13-.77-.46-.915-.885a1.373 1.373 0 0 1 .195-1.255l5.09-6.935a1.382 1.382 0 0 1 2.26.04l7.21 10.625a1.383 1.383 0 0 1-1.145 2.16l-.005-.005Zm-10.025-5.83 6.695 2.01-3.925-5.785-2.77 3.775Z"/><path fill="#444" d="m34.795 192.69-10.173 13.869 87.371 64.086 10.173-13.869-87.371-64.086Z"/><path fill="#222" d="M112.005 272.01c-.285 0-.57-.085-.815-.265L23.775 207.72a1.374 1.374 0 0 1-.55-.905 1.4 1.4 0 0 1 .25-1.03l10.175-13.87a1.377 1.377 0 0 1 1.93-.295l87.415 64.025c.295.215.495.54.55.905a1.4 1.4 0 0 1-.25 1.03l-10.175 13.87c-.27.37-.69.565-1.115.565v-.005Zm-85.48-65.705 85.185 62.39 8.54-11.64-85.185-62.39-8.54 11.64Z"/><path fill="#fff" d="m31.137 190.055-10.173 13.869 3.637 2.667 10.172-13.869-3.636-2.667Z"/><path fill="#222" d="M24.595 207.985a1.4 1.4 0 0 1-.82-.27l-3.635-2.665a1.382 1.382 0 0 1-.295-1.935l10.175-13.87c.215-.295.54-.495.905-.55a1.4 1.4 0 0 1 1.03.25l3.635 2.665c.615.45.75 1.315.295 1.935l-10.175 13.87a1.374 1.374 0 0 1-1.115.565v.005Zm-1.705-4.345 1.405 1.03 8.54-11.64L31.43 192l-8.54 11.64Z"/><path fill="#444" d="M10.88 196.545a3.486 3.486 0 0 1-.75-4.875l6.05-8.245a3.485 3.485 0 0 1 4.875-.75l10.075 7.39-10.175 13.87-10.075-7.39Z"/><path fill="#222" d="M20.955 205.321a1.34 1.34 0 0 1-.815-.27l-10.075-7.39a4.877 4.877 0 0 1-1.045-6.81l6.05-8.245a4.877 4.877 0 0 1 6.81-1.045l10.075 7.39c.295.215.495.54.55.905a1.4 1.4 0 0 1-.25 1.03l-10.175 13.87c-.27.37-.69.565-1.115.565h-.01Zm-9.255-9.89 8.96 6.575 8.54-11.64-8.96-6.575a2.108 2.108 0 0 0-2.945.45l-6.05 8.245a2.112 2.112 0 0 0 .45 2.945h.005Z"/><path fill="#222" d="M58.355 204.495a1.34 1.34 0 0 1-.815-.27l-22.8-16.72-2.485 3.385c-.45.615-1.315.75-1.935.295a1.382 1.382 0 0 1-.295-1.935l3.305-4.495a1.377 1.377 0 0 1 1.93-.295l23.91 17.535c.615.45.75 1.315.295 1.93-.27.37-.69.565-1.115.565l.005.005Z"/><path fill="#fff" d="M87.1 259.56c3.97-3.695 8-10.685 12.235-13.655 4.43-3.105 8.605-4.115 11.275-1.605 2.905 2.73.555 7.435-2.06 11.29-3.45 5.09-6.68 9.82-7.995 17.095"/><path fill="#222" d="m101.925 272.935-2.72-.49c1.355-7.52 4.655-12.38 8.145-17.53l.065-.1c3.24-4.78 3.98-7.885 2.255-9.505-2.63-2.47-7.105.025-9.535 1.73-2.25 1.575-4.555 4.525-6.785 7.375-1.73 2.215-3.52 4.5-5.305 6.16l-1.885-2.025c1.625-1.51 3.27-3.615 5.01-5.84 2.355-3.01 4.79-6.12 7.375-7.935 5.39-3.78 10.015-4.305 13.02-1.48 4.28 4.02-.345 10.835-1.86 13.075l-.065.1c-3.32 4.9-6.46 9.525-7.71 16.47l-.005-.005Z"/></svg>