<svg xmlns="http://www.w3.org/2000/svg" width="400" height="401" fill="none" viewBox="0 0 400 401"><path fill="#fff" d="m201.795 137.96-84.88 89.15h.09c5.915.23 11.99.425 18.43.59v83.71h132.72V227.7c6.44-.165 12.515-.36 18.43-.59h.09l-84.88-89.15Z"/><path fill="#444" d="M251.15 139.735c3.1 5.485 5.4 11.94 10.135 15.445 10.965 8.115 19.42 4.13 33.24 8.77 4.09 1.375 18.275 8.595 18.275 8.595l19.59-51.17c-1.84-1.11-7.75-1.985-11.055-6.16-9.3-11.75-11.94-21.165-21.255-32.24-9.26-10.89-23.395-22.2-36.045-15.9-2.46 1.225-14.225 10.36-15.675 12.065l-5.58 4.18a14.285 14.285 0 0 0-4.655 6.02l-5.205 12.73-1.595 5.455a9.17 9.17 0 0 0 .055 5.33c.49 1.56 2.43 2.125 3.785 1.21l12.49-9.68c3.58-2.775 9.7-5.645 13.1-2.65l2.37 1.3c4.185 3.685 8.22 16.46 3.49 19.41l-4.535 1.23a8.767 8.767 0 0 0-7.75 4.14l-5.905 7.26 2.73 4.67-.005-.01Z"/><path fill="#DADADA" d="m207.45 133.995-84.88 89.15h.09c5.915.23 11.99.425 18.43.59v83.71h71.535V268.55c0-8.825 6.57-15.955 14.68-15.955s14.68 7.13 14.68 15.955v38.895h31.82v-83.71c6.44-.165 12.515-.36 18.43-.59h.09l-84.88-89.15h.005Z"/><path fill="#222" d="M268.155 314.296a1.38 1.38 0 0 1-1.38-1.385v-83.71c0-.75.595-1.365 1.345-1.38 5.305-.135 10.385-.295 15.44-.475l-66.225-69.56a1.383 1.383 0 1 1 2.005-1.905l68.345 71.78c.38.4.485.99.27 1.5-.22.51-.715.84-1.27.84h-.065c-5.615.215-11.215.4-17.075.555v82.365c0 .765-.62 1.385-1.38 1.385l-.01-.01ZM135.435 277.511a1.38 1.38 0 0 1-1.38-1.385v-45.575c-5.86-.155-11.46-.335-17.075-.555h-.065a1.385 1.385 0 0 1-1-2.34l84.88-89.15a1.383 1.383 0 1 1 2.005 1.905l-82.76 86.925c5.05.185 10.13.34 15.435.475.75.02 1.345.63 1.345 1.38v46.925c0 .765-.62 1.385-1.38 1.385l-.005.01ZM236.455 314.295h-29.36a1.38 1.38 0 0 1-1.38-1.385v-38.895c0-9.56 7.205-17.335 16.065-17.335 8.86 0 16.065 7.775 16.065 17.335v38.895c0 .765-.62 1.385-1.38 1.385h-.01Zm-27.98-2.765h26.595v-37.51c0-8.035-5.965-14.57-13.3-14.57-7.335 0-13.3 6.535-13.3 14.57v37.51h.005Z"/><path fill="#222" d="M217.055 286.444a2.855 2.855 0 1 0 0-5.71 2.855 2.855 0 0 0 0 5.71ZM289.705 314.295H187.84a1.38 1.38 0 0 1-1.38-1.385c0-.765.62-1.385 1.38-1.385h101.865c.765 0 1.38.62 1.38 1.385s-.62 1.385-1.38 1.385ZM312.801 173.925c-.26 0-.525-.075-.755-.225-12.185-7.99-22.42-9.655-31.455-11.13-7.49-1.22-13.955-2.275-19.915-6.565-3.865-2.78-6.22-7.28-8.495-11.635-.715-1.37-1.46-2.785-2.225-4.105a1.382 1.382 0 1 1 2.39-1.39c.8 1.375 1.555 2.82 2.29 4.215 2.225 4.255 4.33 8.27 7.665 10.67 5.43 3.91 11.6 4.915 18.745 6.08 9.305 1.515 19.85 3.235 32.525 11.545.64.42.815 1.275.4 1.915a1.38 1.38 0 0 1-1.16.625h-.01ZM262.076 124.685c-.99 0-2.115-.22-3.36-.805a1.383 1.383 0 0 1 1.18-2.5c1.415.67 2.735.715 3.915.13 1.645-.82 2.715-2.675 2.925-3.675.74-3.56-.895-9.895-4.835-13.92-1.78-1.82-4.74-3.835-8.73-3.1-1.92.405-2.975 2.355-4.535 5.51-1.57 3.17-3.52 7.11-7.63 9.71-3.47 2.19-7.76 2.185-10.44-.015-2.395-1.965-2.975-5.15-1.595-8.745 3.16-8.23 5.505-14.17 6.15-15.795 2.425-6.125 4.925-9.055 9.905-11.62 6.1-3.14 13.03-2.715 20.585 1.26 7.155 3.76 13.375 9.955 17.335 14.495a1.38 1.38 0 1 1-2.08 1.815c-5.96-6.825-21.25-21.965-34.575-15.11-4.345 2.235-6.435 4.71-8.6 10.18-.645 1.62-2.985 7.55-6.14 15.765-.94 2.445-.665 4.44.77 5.615 1.74 1.43 4.775 1.35 7.21-.19 3.455-2.18 5.14-5.59 6.63-8.595 1.6-3.235 3.115-6.29 6.48-6.995 4.135-.765 8.015.58 11.24 3.88 4.15 4.245 6.595 11.46 5.56 16.415-.315 1.525-1.75 4.265-4.4 5.585-.75.37-1.755.7-2.965.7v.005Z"/><path fill="#222" d="M288.005 92.214c-.385 0-.77-.16-1.04-.475-5.96-6.825-21.25-21.965-34.57-15.11-2.935 1.51-4.825 3.165-6.33 5.53a1.383 1.383 0 1 1-2.335-1.485c1.785-2.81 4-4.76 7.4-6.505 6.1-3.14 13.025-2.715 20.585 1.26 7.155 3.76 13.375 9.955 17.335 14.495.5.575.445 1.45-.13 1.95-.26.23-.585.34-.91.34h-.005Z"/><path fill="#222" d="M293.67 87.885c-.385 0-.77-.16-1.04-.475-5.955-6.825-21.25-21.965-34.575-15.11-2.3 1.185-3.905 2.415-5.215 3.99a1.38 1.38 0 0 1-1.945.18c-.59-.49-.67-1.36-.18-1.945 1.535-1.855 3.47-3.34 6.08-4.685 6.1-3.14 13.025-2.715 20.585 1.26 7.155 3.76 13.375 9.955 17.335 14.495.5.575.445 1.45-.13 1.95-.26.23-.585.34-.91.34h-.005Z"/><path fill="#222" d="M332.39 122.755c-.155 0-.315-.025-.47-.08-9.75-3.51-15.69-12.97-21.975-22.985-3.505-5.59-7.135-11.365-11.66-16.61-5.95-6.82-21.25-21.96-34.57-15.105-2.3 1.185-3.905 2.415-5.215 3.99a1.38 1.38 0 1 1-2.125-1.765c1.535-1.855 3.47-3.34 6.08-4.685 6.1-3.14 13.025-2.715 20.585 1.26 7.155 3.76 13.375 9.955 17.335 14.495 4.67 5.405 8.35 11.275 11.915 16.95 6.285 10.015 11.715 18.665 20.565 21.85a1.384 1.384 0 0 1-.465 2.685Z"/><path fill="#fff" d="m225.384 132-6.28 24.89 20.585-15.34-14.305-9.55Z"/><path fill="#222" d="M219.105 158.275a1.392 1.392 0 0 1-1.345-1.725l6.28-24.89a1.386 1.386 0 0 1 2.11-.81l14.305 9.55c.375.25.605.665.615 1.115.01.45-.195.875-.555 1.145L219.93 158c-.245.18-.535.275-.825.275Zm7.14-24.035-4.85 19.225 15.895-11.845-11.05-7.375.005-.005Z"/><path fill="#222" d="m222.244 144.445-3.14 12.445 10.295-7.67-7.155-4.775Z"/><path fill="#222" d="M219.105 158.275a1.392 1.392 0 0 1-1.345-1.725l3.14-12.45a1.386 1.386 0 0 1 2.11-.81l7.155 4.775c.375.25.605.665.615 1.115.01.45-.195.875-.555 1.145l-10.295 7.67c-.245.18-.535.275-.825.275v.005Zm4-11.595-1.71 6.78 5.605-4.175-3.895-2.6v-.005Z"/><path fill="#FF3158" d="m285.579 41.903-60.167 90.115 14.305 9.55 60.167-90.115-14.305-9.55Z"/><path fill="#222" d="M239.684 142.935a1.35 1.35 0 0 1-.765-.235l-14.305-9.55a1.388 1.388 0 0 1-.385-1.92l60.235-90.065a1.378 1.378 0 0 1 1.915-.38l14.305 9.55a1.388 1.388 0 0 1 .385 1.92l-60.235 90.065c-.265.4-.705.615-1.15.615Zm-12.385-11.315 12.005 8.015 58.7-87.77-12.005-8.015-58.7 87.77Z"/><path fill="#fff" d="m288.121 38.175-2.505 3.75 14.305 9.552 2.504-3.751-14.304-9.551Z"/><path fill="#222" d="M299.925 52.864a1.35 1.35 0 0 1-.765-.235l-14.305-9.55a1.378 1.378 0 0 1-.38-1.915l2.505-3.75c.205-.305.52-.515.88-.59.36-.075.735 0 1.04.205l14.305 9.55a1.388 1.388 0 0 1 .385 1.92l-2.505 3.75c-.265.4-.705.615-1.15.615h-.01ZM287.54 41.55l12.005 8.015.97-1.45L288.51 40.1l-.97 1.45Z"/><path fill="#FF3158" d="M309.37 37.34c1.07-1.6.64-3.77-.965-4.84l-8.505-5.68a3.489 3.489 0 0 0-4.84.965l-6.94 10.39 14.305 9.55 6.94-10.39.005.005Z"/><path fill="#222" d="M302.43 49.115c-.27 0-.54-.08-.77-.235l-14.305-9.55a1.388 1.388 0 0 1-.385-1.92l6.94-10.395a4.838 4.838 0 0 1 3.1-2.07 4.82 4.82 0 0 1 3.655.725l8.505 5.675a4.87 4.87 0 0 1 1.345 6.755l-6.94 10.395c-.205.305-.52.515-.88.59-.09.02-.18.025-.27.025l.005.005ZM290.04 37.8l12.005 8.015 6.17-9.245 1.15.77-1.15-.77a2.104 2.104 0 0 0-.585-2.92l-8.505-5.675a2.104 2.104 0 0 0-2.92.58l-6.17 9.245h.005Z"/><path fill="#222" d="M267.005 61.135a1.35 1.35 0 0 1-.765-.235 1.378 1.378 0 0 1-.38-1.915l16.47-24.66a1.378 1.378 0 0 1 1.915-.38l4.64 3.095c.635.425.805 1.28.385 1.915a1.384 1.384 0 0 1-1.915.385l-3.495-2.33-15.705 23.51c-.265.4-.705.615-1.15.615Z"/><path fill="#444" d="M259.305 122.631c-4.995-2.11-11.175-7.305-16.17-8.645-5.225-1.405-9.495-.925-11.145 2.35-1.795 3.56 2.02 7.175 5.795 9.905 4.985 3.6 9.64 6.94 13.36 13.33"/><path fill="#222" d="M249.955 140.266c-3.55-6.095-8.085-9.37-12.88-12.835l-.095-.07c-2.195-1.585-8.865-6.405-6.22-11.645 1.855-3.68 6.38-4.77 12.74-3.06 3.05.82 6.4 2.91 9.645 4.935 2.395 1.495 4.66 2.91 6.705 3.775l-1.075 2.545c-2.245-.95-4.71-2.485-7.09-3.975-3.07-1.915-6.245-3.895-8.895-4.61-2.87-.77-7.93-1.585-9.555 1.635-1.065 2.11.69 4.78 5.37 8.16l.095.07c5.04 3.645 9.805 7.085 13.65 13.685l-2.39 1.39h-.005Z"/><path fill="#fff" d="M151.045 307.635c-1.12 6.2-1.16 13.055-4.475 17.925-7.675 11.28-16.97 10.305-28.485 19.245-3.41 2.645-19.7 9.785-19.7 9.785l-29.58-26.325c0-8.06 6.15-15.6 7.89-20.63 4.905-14.16 4.29-23.915 9.43-37.445 5.145-13.335 14.76-28.675 28.78-26.9 2.73.345 16.845 5.085 18.78 6.22l6.645 2.105c2.465.78 4.67 2.215 6.38 4.15l9.11 10.3 3.305 4.62a9.152 9.152 0 0 1 1.705 5.05c.05 1.635-1.595 2.81-3.175 2.39l-14.985-5.02c-4.295-1.44-11.02-2.13-13.24 1.82l-1.805 2.005c-2.735 4.855-2.33 18.25 3.11 19.475l4.685-.335a8.783 8.783 0 0 1 8.685 1.35l7.97 4.905-1.035 5.31h.005Z"/><path fill="#222" d="M68.81 329.65c-.14 0-.285-.02-.425-.07a1.383 1.383 0 0 1-.89-1.74c.21-.645 5.13-15.835 6.875-19.985 2.35-5.595 3.475-11.07 4.665-16.87 1.26-6.13 2.685-13.085 5.805-21.29 2.17-5.625 5.895-13.575 11.335-19.555 5.745-6.32 12.105-9.085 18.915-8.225 2.915.37 5.235 1.105 7.315 2.325.66.385.88 1.23.495 1.89a1.38 1.38 0 0 1-1.89.495c-1.77-1.035-3.7-1.64-6.265-1.965-14.865-1.88-24.055 17.575-27.315 26.025-3.04 7.995-4.38 14.535-5.68 20.86-1.22 5.935-2.37 11.54-4.825 17.385-1.7 4.04-6.745 19.605-6.795 19.765a1.38 1.38 0 0 1-1.315.955h-.005ZM99.745 357.325c-.485 0-.955-.255-1.21-.71-.37-.665-.13-1.51.535-1.88.125-.07 12.755-7.11 16.015-9.645 4.76-3.7 9.395-5.925 13.88-8.075 6.48-3.105 12.08-5.79 16.465-12.235 2.31-3.395 2.915-7.89 3.55-12.65.21-1.565.425-3.18.71-4.745a1.38 1.38 0 1 1 2.72.49c-.27 1.505-.485 3.085-.69 4.62-.65 4.87-1.325 9.9-4.005 13.835-4.805 7.06-11 10.025-17.56 13.17-4.355 2.085-8.855 4.245-13.375 7.765-3.42 2.665-15.84 9.585-16.365 9.88-.215.12-.445.175-.67.175v.005ZM133.42 297.785c-.27 0-.525-.015-.76-.045-2.94-.33-5.225-2.42-6.045-3.745-2.665-4.305-2.84-11.92-.39-17.33 1.905-4.21 5.085-6.795 9.205-7.49 3.435-.495 5.905 1.86 8.515 4.35 2.425 2.315 5.175 4.94 9.17 5.81 2.815.61 5.69-.35 6.84-2.29.945-1.595.52-3.565-1.2-5.54-5.75-6.615-10-11.405-11.165-12.715-3.91-4.4-6.72-6.01-11.565-6.625-14.86-1.88-24.055 17.575-27.315 26.025a1.383 1.383 0 1 1-2.58-1c2.17-5.615 5.895-13.57 11.33-19.55 5.745-6.32 12.11-9.085 18.915-8.225 5.555.705 8.91 2.605 13.285 7.53 1.165 1.315 5.42 6.115 11.185 12.735 2.525 2.905 3.07 6.095 1.49 8.76-1.765 2.98-5.795 4.455-9.805 3.585-4.75-1.03-7.935-4.07-10.49-6.51-2.545-2.43-4.205-3.905-6.18-3.62-3.965.665-6.06 3.575-7.11 5.895-2.32 5.13-1.695 11.645.22 14.735.535.865 2.18 2.245 4.005 2.45 1.315.145 2.53-.345 3.63-1.46a1.378 1.378 0 0 1 1.955-.01c.545.535.55 1.41.01 1.955-1.815 1.835-3.7 2.305-5.15 2.305v.02Z"/><path fill="#222" d="M99.74 275.83a1.385 1.385 0 0 1-1.29-1.885c2.17-5.615 5.895-13.57 11.33-19.55 5.745-6.32 12.11-9.09 18.915-8.225 3.795.48 6.54 1.55 9.18 3.585.605.465.72 1.335.255 1.94a1.385 1.385 0 0 1-1.94.255c-2.225-1.71-4.57-2.615-7.84-3.03-14.86-1.88-24.055 17.575-27.315 26.025-.21.55-.735.885-1.29.885h-.005Z"/><path fill="#222" d="M92.935 273.7a1.385 1.385 0 0 1-1.29-1.885c2.17-5.615 5.895-13.57 11.33-19.55 5.745-6.32 12.105-9.085 18.915-8.225 2.915.37 5.235 1.105 7.315 2.325.66.385.88 1.23.495 1.89a1.38 1.38 0 0 1-1.89.495c-1.77-1.035-3.7-1.64-6.265-1.965-14.86-1.88-24.055 17.575-27.315 26.025-.21.55-.735.885-1.29.885l-.005.005Z"/><path fill="#fff" d="m172.665 291.705 14.415 21.245-24.59-7.375 10.175-13.87Z"/><path fill="#222" d="M187.08 314.33c-.13 0-.265-.02-.395-.06l-24.59-7.37c-.43-.13-.77-.46-.915-.885a1.373 1.373 0 0 1 .195-1.255l10.175-13.87a1.43 1.43 0 0 1 1.14-.565c.45.01.865.235 1.12.605l14.415 21.24a1.383 1.383 0 0 1-1.145 2.16Zm-22.315-9.515 18.99 5.695-11.13-16.405-7.86 10.71Z"/><path fill="#222" d="m179.875 302.325 7.205 10.625-12.295-3.69 5.09-6.935Z"/><path fill="#222" d="M187.08 314.33c-.13 0-.265-.02-.395-.06l-12.295-3.685c-.43-.13-.77-.46-.915-.885a1.373 1.373 0 0 1 .195-1.255l5.09-6.935c.265-.36.69-.57 1.14-.565.45.01.865.235 1.12.605l7.21 10.62a1.383 1.383 0 0 1-1.145 2.16h-.005Zm-10.025-5.83 6.695 2.01-3.925-5.785-2.77 3.775Z"/><path fill="#444" d="m85.277 227.629-10.173 13.869 87.371 64.087 10.173-13.869-87.371-64.087Z"/><path fill="#222" d="M162.49 306.96c-.285 0-.57-.085-.815-.265L74.26 242.67a1.374 1.374 0 0 1-.55-.905 1.4 1.4 0 0 1 .25-1.03l10.175-13.87a1.382 1.382 0 0 1 1.93-.3l87.415 64.025c.295.215.495.54.55.905a1.4 1.4 0 0 1-.25 1.03l-10.175 13.87c-.27.37-.69.565-1.115.565Zm-85.48-65.705 85.185 62.39 8.54-11.64-85.185-62.39-8.54 11.64Z"/><path fill="#fff" d="m81.619 224.993-10.173 13.869 3.636 2.668 10.173-13.869-3.636-2.668Z"/><path fill="#222" d="M75.075 242.935a1.34 1.34 0 0 1-.815-.27L70.625 240a1.374 1.374 0 0 1-.55-.905c-.055-.36.035-.73.25-1.03l10.175-13.87c.215-.295.54-.495.905-.55a1.4 1.4 0 0 1 1.03.25l3.635 2.665c.615.45.75 1.315.295 1.93L76.19 242.36c-.27.37-.69.565-1.115.565v.01Zm-1.705-4.345 1.405 1.03 8.54-11.64-1.405-1.03-8.54 11.64Z"/><path fill="#444" d="M61.365 231.49a3.486 3.486 0 0 1-.75-4.875l6.05-8.245a3.485 3.485 0 0 1 4.875-.75l10.075 7.39-10.175 13.87-10.075-7.39Z"/><path fill="#222" d="M71.44 240.265a1.34 1.34 0 0 1-.815-.27l-10.075-7.39a4.877 4.877 0 0 1-1.045-6.81l6.05-8.245a4.877 4.877 0 0 1 6.81-1.045l10.075 7.39c.295.215.495.54.55.905.055.36-.035.73-.25 1.03L72.565 239.7c-.27.37-.69.565-1.115.565h-.01Zm-9.255-9.89 8.96 6.575 8.54-11.64-8.96-6.575a2.113 2.113 0 0 0-2.945.45l-6.05 8.245a2.112 2.112 0 0 0 .45 2.945h.005Z"/><path fill="#222" d="M108.84 239.44a1.34 1.34 0 0 1-.815-.27l-22.8-16.72-2.485 3.385a1.383 1.383 0 0 1-1.935.295 1.382 1.382 0 0 1-.295-1.935l3.305-4.495a1.382 1.382 0 0 1 1.93-.295l23.91 17.535c.615.45.75 1.315.295 1.93-.27.37-.69.565-1.115.565l.005.005Z"/><path fill="#fff" d="M137.585 294.51c3.97-3.695 8-10.685 12.235-13.655 4.43-3.105 8.605-4.115 11.275-1.605 2.905 2.73.555 7.435-2.06 11.29-3.45 5.09-6.68 9.82-7.995 17.095"/><path fill="#222" d="m152.405 307.88-2.72-.49c1.355-7.52 4.655-12.385 8.145-17.53l.065-.1c3.24-4.78 3.98-7.885 2.255-9.505-2.625-2.47-7.105.025-9.535 1.73-2.25 1.575-4.555 4.525-6.785 7.375-1.73 2.215-3.52 4.5-5.305 6.16l-1.885-2.025c1.625-1.51 3.27-3.615 5.01-5.84 2.355-3.01 4.79-6.12 7.375-7.935 5.39-3.78 10.015-4.305 13.02-1.48 4.28 4.02-.34 10.835-1.86 13.075l-.065.1c-3.32 4.9-6.46 9.525-7.71 16.47l-.005-.005Z"/></svg>