<svg xmlns="http://www.w3.org/2000/svg" width="400" height="400" fill="none" viewBox="0 0 400 400"><path fill="#fff" d="M221.185 172.195 204.73 156.39v79.975H180.49l-30.44-29.24v90.65l30.47 27.88v-.065l.02.065h165.99v-153.46H221.185Z"/><path fill="#DADADA" d="M377.02 165.464c0 14.42-11.695 26.115-26.125 26.115h-4.36v-18.82l-19.045-17.66H205.07v36.48h-59.38c-14.43 0-26.125-11.695-26.125-26.115 0-14.42 11.695-26.125 26.125-26.125 1.95 0 3.855.215 5.685.62-.805-3.9-1.22-7.94-1.22-12.08 0-33.055 26.795-59.85 59.85-59.85 28.96 0 53.115 20.565 58.655 47.88a39.69 39.69 0 0 1 25.59-9.29c21.675 0 39.315 17.29 39.875 38.82a25.978 25.978 0 0 1 16.77-6.1c14.43 0 26.125 11.695 26.125 26.125Z"/><path fill="#222" d="M107.06 112.275h-9.52c-.765 0-1.385-.62-1.385-1.385v-6.58c0-.765.62-1.385 1.385-1.385h9.52v2.77h-8.135v3.81h8.135v2.77ZM204.805 105.7H186.01v-2.77h18.795v2.77Zm-24.435 0h-18.795v-2.77h18.795v2.77Zm-24.435 0H137.14v-2.77h18.795v2.77Zm-24.435 0h-18.795v-2.77H131.5v2.77ZM219.96 112.275h-9.52v-2.77h8.135v-3.81h-8.135v-2.77h9.52c.765 0 1.385.62 1.385 1.385v6.58c0 .765-.62 1.385-1.385 1.385ZM204.805 112.275H186.01v-2.77h18.795v2.77Zm-24.435 0h-18.795v-2.77h18.795v2.77Zm-24.435 0H137.14v-2.77h18.795v2.77Zm-24.435 0h-18.795v-2.77H131.5v2.77ZM119.33 157.039h-2.77v9.52h2.77v-9.52ZM119.33 127.279h-2.77v22.895h2.77v-22.895Z"/><path fill="#222" d="M119.33 110.895h-2.77v9.52h2.77v-9.52ZM98.925 157.039h-2.77v9.52h2.77v-9.52ZM98.925 127.279h-2.77v22.895h2.77v-22.895ZM98.925 110.895h-2.77v9.52h2.77v-9.52ZM180.54 117.31h-2.77v9.52h2.77v-9.52ZM180.54 198.08h-2.77v-18.27h2.77v18.27Zm0-23.75h-2.77v-18.27h2.77v18.27Zm0-23.75h-2.77v-18.27h2.77v18.27ZM180.54 203.56h-2.77v9.52h2.77v-9.52ZM160.14 197.145h-2.77v9.52h2.77v-9.52ZM160.135 191.665h-2.77v-18.27h2.77v18.27Zm0-23.75h-2.77v-18.27h2.77v18.27Zm0-23.75h-2.77v-18.27h2.77v18.27ZM160.14 110.895h-2.77v9.52h2.77v-9.52ZM55.665 166.56h-2.77v9.52h2.77v-9.52ZM55.66 242.574h-2.77v-17.05h2.77v17.05Zm0-22.165h-2.77v-17.05h2.77v17.05Zm0-22.165h-2.77v-17.05h2.77v17.05ZM55.665 247.689h-2.77v9.52h2.77v-9.52ZM139.735 249.035h-2.78v9.565h2.78v-9.565ZM139.74 243.405h-2.78V224.64h2.78v18.765Zm0-24.39h-2.78V200.25h2.78v18.765Zm0-24.39h-2.78V175.86h2.78v18.765Zm0-24.39h-2.78V151.47h2.78v18.765Zm0-24.39h-2.78V127.08h2.78v18.765ZM139.735 111.88h-2.78v9.565h2.78v-9.565ZM221.35 110.895h-2.77v9.52h2.77v-9.52ZM221.35 125.13h-2.77v15.73h2.77v-15.73ZM221.35 145.579h-2.77v9.52h2.77v-9.52ZM78.495 136.619h-9.52v2.77h9.52v-2.77ZM62.23 136.619H39.745v2.77H62.23v-2.77ZM24.865 147.524h-2.77v-9.52c0-.765.62-1.385 1.385-1.385H33v2.77h-8.135v8.135ZM24.865 214.019h-2.77v-17.05h2.77v17.05Zm0-22.165h-2.77v-17.05h2.77v17.05Zm0-22.165h-2.77v-17.05h2.77v17.05ZM29.52 236.139l-6.98-6.475c-.28-.26-.445-.63-.445-1.015v-9.52h2.77v8.915l6.54 6.06-1.88 2.03-.005.005Z"/><path fill="#222" d="M135.295 258.594h-17.46v-2.77h17.46v2.77Zm-22.7 0h-17.46v-2.77h17.46v2.77Zm-22.7 0h-17.46v-2.77h17.46v2.77Zm-22.7 0h-12.92c-.35 0-.685-.13-.94-.37l-3.33-3.09 1.88-2.03 2.935 2.72h12.375v2.77Zm-21.03-7.02-12.805-11.87 1.88-2.03 12.805 11.87-1.88 2.03ZM150.05 255.824h-9.52v2.77h9.52v-2.77ZM24.415 136.998l-1.884 2.031 6.98 6.473 1.884-2.031-6.98-6.473ZM122.99 167.945h-19.46v-2.77h19.46v2.77Zm-25.3 0H78.23v-2.77h19.46v2.77Zm-25.3 0H54.275c-.35 0-.685-.13-.94-.37l-.985-.915 1.88-2.03.59.545h17.57v2.77Zm-24.325-5.255-14.27-13.23 1.88-2.03 14.27 13.23-1.88 2.03ZM138.35 165.18h-9.52v2.77h9.52v-2.77Z"/><path fill="#222" d="M98.925 157.04h-2.77v9.52h2.77v-9.52ZM98.925 152.57h-2.77v-14.9h2.77v14.9Zm0-19.37h-2.77v-14.9h2.77v14.9ZM98.925 113.835h-2.77v-8.915l-6.54-6.06 1.88-2.03 6.98 6.475c.28.26.445.63.445 1.015v9.52l.005-.005ZM79.435 85.643l-1.884 2.03 6.98 6.474 1.884-2.031-6.98-6.473ZM213.928 96.844l-1.883 2.031 6.981 6.473 1.883-2.031-6.981-6.473ZM207.855 94.975l-7.48-6.935h-7.735v-2.77h8.275c.35 0 .685.13.94.37l7.88 7.305-1.88 2.03Zm-20.92-6.935H167.91v-2.77h19.025v2.77Zm-24.73 0H143.18v-2.77h19.025v2.77Zm-24.73 0H118.45v-2.77h19.025v2.77Zm-24.73 0H93.72v-2.77h19.025v2.77Z"/><path fill="#222" d="M79.88 96.174h-2.77v-9.52c0-.764.62-1.385 1.385-1.385h9.52v2.77H79.88v8.135ZM79.88 134.91h-2.77v-14.9h2.77v14.9Zm0-19.37h-2.77v-14.9h2.77v14.9ZM84.535 156.39l-6.98-6.475c-.28-.26-.445-.63-.445-1.015v-9.52h2.77v8.915l6.54 6.06-1.88 2.03-.005.005ZM91.5 159.083l-1.884 2.031 6.98 6.473 1.884-2.031-6.98-6.473ZM132.308 249.737l-1.883 2.032 6.98 6.473 1.884-2.031-6.981-6.474ZM118.626 237.048l-1.884 2.031 10.522 9.757 1.884-2.031-10.522-9.757ZM108.488 227.656l-1.884 2.032 6.981 6.473 1.884-2.031-6.981-6.474ZM33 227.265h-9.52v2.77H33v-2.77ZM91.3 230.035H68.875v-2.77H91.3v2.77Zm-29.15 0H39.725v-2.77H62.15v2.77Z"/><path fill="#222" d="M107.55 230.035h-9.52v-2.77h8.135v-8.135h2.77v9.52c0 .765-.62 1.385-1.385 1.385ZM108.935 189.5h-2.77v22.795h2.77V189.5ZM108.935 173.14h-2.77v9.52h2.77v-9.52ZM24.412 144.562l-1.884 2.031 6.98 6.473 1.884-2.031-6.98-6.473Z"/><path fill="#222" d="M122.99 175.509h-19.46v-2.77h19.46v2.77Zm-25.3 0H78.23v-2.77h19.46v2.77Zm-25.3 0H54.275c-.35 0-.685-.13-.94-.37l-.985-.915 1.88-2.03.59.545h17.57v2.77Zm-24.325-5.255-14.27-13.23 1.88-2.03 14.27 13.23-1.88 2.03ZM138.35 172.739h-9.52v2.77h9.52v-2.77ZM91.463 104.426l-1.874 2.04 7.013 6.439 1.873-2.041-7.012-6.438ZM81.53 95.305l-1.873 2.04 7.012 6.44 1.874-2.041-7.012-6.439ZM200.945 117.31h-2.77v9.52h2.77v-9.52ZM200.945 198.08h-2.77v-18.27h2.77v18.27Zm0-23.75h-2.77v-18.27h2.77v18.27Zm0-23.75h-2.77v-18.27h2.77v18.27ZM200.945 203.56h-2.77v9.52h2.77v-9.52Z"/><path fill="#DADADA" d="m239.055 241.584-58.21.99-25.86-23.625v73.21l79.515.495 9.255 8.45 20.925 19.415v-78.935h-25.625ZM224.11 180.084v49.74l-15.59-14.455v-49.745l15.59 14.46Z"/><path fill="#FF3158" d="M326.13 280.329h-40.805v45.325h40.805v-45.325ZM234.12 297.094h-84.07l30.8 28.56h84.07l-30.8-28.56Z"/><path fill="#222" d="M264.92 242.969h-84.07c-.765 0-1.385-.62-1.385-1.385v-6.58c0-.765.62-1.385 1.385-1.385h84.07c.765 0 1.385.62 1.385 1.385v6.58c0 .765-.62 1.385-1.385 1.385Zm-82.685-2.77h81.3v-3.81h-81.3v3.81ZM346.535 180.719h-122.42c-.765 0-1.385-.62-1.385-1.385v-6.58c0-.765.62-1.385 1.385-1.385h122.42c.765 0 1.385.62 1.385 1.385v6.58c0 .765-.62 1.385-1.385 1.385Zm-121.035-2.77h119.655v-3.81H225.5v3.81ZM326.13 327.039h-40.805c-.765 0-1.385-.62-1.385-1.385v-45.325c0-.765.62-1.385 1.385-1.385h40.805c.765 0 1.385.62 1.385 1.385v45.325c0 .765-.62 1.385-1.385 1.385Zm-39.425-2.77h38.04v-42.555h-38.04v42.555Z"/><path fill="#222" d="M307.115 280.329h-2.77v45.325h2.77v-45.325ZM285.325 327.039H264.92c-.765 0-1.385-.62-1.385-1.385V179.339c0-.765.62-1.385 1.385-1.385h20.405c.765 0 1.385.62 1.385 1.385v146.315c0 .765-.62 1.385-1.385 1.385Zm-19.02-2.77h17.635v-143.55h-17.635v143.55Z"/><path fill="#222" d="M264.92 236.389h-20.405c-.765 0-1.385-.62-1.385-1.385v-55.67c0-.765.62-1.385 1.385-1.385h20.405c.765 0 1.385.62 1.385 1.385v55.67c0 .765-.62 1.385-1.385 1.385Zm-19.02-2.77h17.635v-52.9H245.9v52.9Z"/><path fill="#222" d="M244.515 236.389H224.11c-.765 0-1.385-.62-1.385-1.385v-55.67c0-.765.62-1.385 1.385-1.385h20.405c.765 0 1.385.62 1.385 1.385v55.67c0 .765-.62 1.385-1.385 1.385Zm-19.02-2.77h17.635v-52.9h-17.635v52.9ZM305.725 281.714H285.32c-.765 0-1.385-.62-1.385-1.385V179.334c0-.765.62-1.385 1.385-1.385h20.405c.765 0 1.385.62 1.385 1.385v100.995c0 .765-.62 1.385-1.385 1.385Zm-19.02-2.77h17.635v-98.225h-17.635v98.225Z"/><path fill="#222" d="M326.13 281.714h-20.405c-.765 0-1.385-.62-1.385-1.385V179.334c0-.765.62-1.385 1.385-1.385h20.405c.765 0 1.385.62 1.385 1.385v100.995c0 .765-.62 1.385-1.385 1.385Zm-19.02-2.77h17.635v-98.225H307.11v98.225Z"/><path fill="#222" d="M346.535 327.039H326.13c-.765 0-1.385-.62-1.385-1.385V179.339c0-.765.62-1.385 1.385-1.385h20.405c.765 0 1.385.62 1.385 1.385v146.315c0 .765-.62 1.385-1.385 1.385Zm-19.02-2.77h17.635v-143.55h-17.635v143.55ZM264.92 327.039h-84.07c-.35 0-.685-.13-.94-.37l-30.8-28.56c-.28-.26-.445-.63-.445-1.015v-90.645c0-.765.62-1.385 1.385-1.385h55.015v2.77H151.43v88.66l29.96 27.78h82.145v-81.3h-81.3v72.815h-2.77v-74.2c0-.765.62-1.385 1.385-1.385h84.07c.765 0 1.385.62 1.385 1.385v84.07c0 .765-.62 1.385-1.385 1.385v-.005Z"/><path fill="#222" d="M182.235 325.654h-2.77v-90.045l-30.355-28.145 1.88-2.03 30.8 28.56c.28.26.445.63.445 1.015v90.645ZM225.495 235.004h-2.77v-61.645l-18.605-17.25 1.88-2.03 19.045 17.66c.28.26.445.63.445 1.015v62.245l.005.005Z"/><path fill="#222" d="m223.17 236.019-19.045-17.66c-.28-.26-.445-.63-.445-1.015v-62.245c0-.765.62-1.385 1.385-1.385h122.42c.35 0 .685.13.94.37l19.045 17.66-1.88 2.03-18.65-17.29H206.445v60.26l18.605 17.25-1.88 2.03v-.005ZM346.535 327.039H234.12v-2.77h111.03v-89.265h2.77v90.645c0 .765-.62 1.385-1.385 1.385v.005Z"/><path fill="#222" d="m235.063 296.103-1.884 2.031 30.801 28.561 1.883-2.031-30.8-28.561Z"/><path fill="#222" d="M234.12 298.479h-84.07v-2.77h82.685v-54.125h2.77v55.51c0 .765-.62 1.385-1.385 1.385ZM150.991 213.014l-1.883 2.031 30.797 28.558 1.883-2.031-30.797-28.558ZM206.011 161.668l-1.883 2.031 19.046 17.662 1.884-2.031-19.047-17.662ZM327.485 155.099h-122.42l19.045 17.66h122.42l-19.045-17.66ZM205.065 217.344v-10.895H150.05l2.545 2.36 28.255 26.195h43.265l-19.05-17.66Z"/></svg>