<svg xmlns="http://www.w3.org/2000/svg" width="400" height="401" fill="none" viewBox="0 0 400 401"><path fill="#DADADA" d="m195.58 273.874 154.845 43.13 7.86-7.6v-121.77l-154.21-42.745-8.495 7.445v121.54Z"/><path fill="#222" d="M350.425 318.384a1.32 1.32 0 0 1-.37-.05l-154.845-43.13a1.382 1.382 0 0 1-1.015-1.335v-121.54c0-.4.17-.78.47-1.04l8.5-7.445c.35-.31.835-.415 1.28-.295l154.21 42.745c.6.165 1.015.71 1.015 1.335v121.77c0 .375-.15.735-.42.995l-7.865 7.595c-.26.25-.61.39-.96.39v.005Zm-153.46-45.565 153.065 42.635 6.87-6.64v-120.13l-152.475-42.265-7.465 6.54v119.86h.005Z"/><path fill="#fff" d="m195.58 273.874 154.845 43.13V194.989L195.58 152.334v121.54Z"/><path fill="#222" d="M350.425 318.385c-.125 0-.25-.016-.37-.051l-154.845-43.13a1.382 1.382 0 0 1-1.015-1.335V152.33c0-.43.2-.841.545-1.101.345-.26.79-.35 1.205-.235l154.845 42.655c.6.165 1.015.711 1.015 1.336v122.014c0 .435-.205.841-.545 1.101-.245.185-.54.28-.835.28v.005Zm-153.46-45.565 152.075 42.354V196.039l-152.075-41.89V272.82Z"/><path fill="#FF3158" d="M272.851 234.509c24.515 6.79 44.41 28.09 44.41 58.83l-88.72-24.68c0-30.67 19.825-40.93 44.31-34.15Z"/><path fill="#222" d="M317.261 294.72a1.32 1.32 0 0 1-.37-.05l-88.72-24.68a1.382 1.382 0 0 1-1.015-1.335c0-14.37 4.355-25.285 12.6-31.555 8.205-6.24 20.09-7.635 33.465-3.93 27.595 7.645 45.425 31.26 45.425 60.165 0 .435-.2.84-.545 1.1-.245.185-.54.28-.835.28l-.005.005Zm-87.33-27.115 85.92 23.9c-.735-26.79-17.595-48.525-43.37-55.665-12.525-3.47-23.55-2.24-31.05 3.465-7.33 5.58-11.3 15.35-11.5 28.3Z"/><path fill="#F5F4F3" d="M247.34 207.064c0 14.935 11.48 30.225 25.65 34.155 14.18 3.93 25.685-5.005 25.685-19.96 0-14.955-11.505-30.25-25.685-34.165-14.17-3.91-25.65 5.035-25.65 19.97Z"/><path fill="#222" d="M279.565 243.534c-2.245 0-4.575-.325-6.945-.98-14.705-4.075-26.665-19.995-26.665-35.49 0-7.75 2.915-14.24 8.205-18.27 5.18-3.945 11.995-5.02 19.195-3.035 14.725 4.06 26.7 19.985 26.7 35.495 0 7.755-2.915 14.245-8.215 18.275-3.48 2.645-7.7 4-12.28 4l.005.005Zm-13.1-55.975c-3.985 0-7.635 1.165-10.625 3.44-4.59 3.495-7.115 9.2-7.115 16.065 0 14.33 11.05 29.055 24.635 32.82 6.355 1.76 12.325.855 16.81-2.555 4.595-3.495 7.125-9.2 7.125-16.07 0-14.35-11.065-29.075-24.67-32.83-2.11-.58-4.175-.87-6.155-.87h-.005Z"/><path fill="#DADADA" d="M211.685 206.728 51.71 251.283l-9.995-7.72V117.758L201.04 73.593l10.645 7.56v125.575Z"/><path fill="#222" d="M51.71 252.668c-.305 0-.6-.1-.845-.29l-9.995-7.72c-.34-.26-.54-.665-.54-1.095v-125.81c0-.62.415-1.17 1.015-1.335L200.67 72.253c.4-.11.83-.035 1.17.205l10.65 7.565c.365.26.585.68.585 1.13v125.57a1.39 1.39 0 0 1-1.015 1.335l-159.98 44.56c-.125.035-.25.05-.37.05Zm-8.61-9.785 8.905 6.88 158.3-44.09V81.868l-9.53-6.77L43.1 118.808v124.075Z"/><path fill="#F5F4F3" d="M211.685 206.727 51.71 251.282v-126.06l159.975-44.07v125.575Z"/><path fill="#222" d="M51.71 252.668a1.38 1.38 0 0 1-1.38-1.385v-126.06c0-.625.415-1.17 1.015-1.335l159.98-44.07a1.37 1.37 0 0 1 1.205.235c.345.26.545.67.545 1.1v125.57a1.39 1.39 0 0 1-1.015 1.335l-159.98 44.56c-.125.035-.25.05-.37.05Zm1.385-126.39v123.185l157.21-43.79v-122.7l-157.21 43.305Z"/><path fill="#DADADA" d="M131.855 166.053c-25.33 7.015-45.885 29.02-45.885 60.78l91.665-25.5c0-31.685-20.485-42.29-45.78-35.28Z"/><path fill="#222" d="M85.97 228.218a1.378 1.378 0 0 1-1.38-1.38c0-29.84 18.41-54.22 46.895-62.115 13.805-3.825 26.07-2.385 34.535 4.055 8.505 6.47 13 17.73 13 32.565a1.39 1.39 0 0 1-1.015 1.335l-91.665 25.5a1.32 1.32 0 0 1-.37.05v-.01Zm59.97-62.83c-4.285 0-8.895.66-13.715 2-26.67 7.39-44.11 29.89-44.845 57.615l88.865-24.72c-.205-13.415-4.305-23.535-11.9-29.31-4.87-3.705-11.18-5.585-18.405-5.585Z"/><path fill="#444" d="M158.211 137.703c0 15.43-11.86 31.23-26.5 35.285-14.65 4.06-26.535-5.17-26.535-20.62 0-15.45 11.885-31.255 26.535-35.295 14.64-4.04 26.5 5.2 26.5 20.63Z"/><path fill="#222" d="M124.915 175.338c-4.72 0-9.07-1.395-12.66-4.125-5.46-4.155-8.47-10.845-8.47-18.845 0-16.01 12.36-32.44 27.55-36.63 7.425-2.05 14.455-.935 19.795 3.13 5.455 4.155 8.46 10.845 8.46 18.835 0 15.985-12.345 32.415-27.515 36.62-2.445.68-4.85 1.015-7.16 1.015Zm13.535-57.83c-2.055 0-4.19.3-6.375.9-14.07 3.88-25.52 19.115-25.52 33.96 0 7.115 2.62 13.025 7.375 16.64 4.645 3.53 10.825 4.47 17.405 2.645 14.055-3.895 25.485-19.125 25.485-33.955 0-7.11-2.615-13.015-7.37-16.635-3.095-2.36-6.875-3.56-11.005-3.56l.005.005ZM356.452 187.194l-7.864 7.351 1.892 2.023 7.864-7.351-1.892-2.023ZM42.543 116.649l-1.658 2.219 9.993 7.468 1.658-2.219-9.993-7.468Z"/></svg>