<svg xmlns="http://www.w3.org/2000/svg" width="400" height="400" fill="none" viewBox="0 0 400 400"><path fill="#DADADA" d="M233.92 91.66H72.495v151.715H233.92V91.66Z"/><path fill="#222" d="M319.975 312.53v-2.77h7.41l.105 1.995-.05.77h-7.46l-.005.005Zm-7.41 0h-7.41v-2.77h7.41v2.77Zm-14.815 0h-7.41v-2.77h7.41v2.77Zm-14.815 0h-7.41v-2.77h7.41v2.77Zm-14.815 0h-7.41v-2.77h7.41v2.77Zm-14.815 0h-7.41v-2.77h7.41v2.77Zm-14.815 0h-7.41v-2.77h7.41v2.77Zm-14.815 0h-7.41v-2.77h7.41v2.77Zm-14.815 0h-7.41v-2.77h7.41v2.77Zm-14.815 0h-7.41v-2.77h7.41v2.77Zm-14.815 0h-7.41v-2.77h7.41v2.77Zm-14.815 0h-7.41v-2.77h7.41v2.77Zm-14.815 0h-7.41v-2.77h7.41v2.77Zm-14.815 0h-7.41v-2.77h7.41v2.77Zm-14.815 0h-7.41v-2.77h7.41v2.77Zm-14.815 0h-6.84c-.215 0-.425 0-.635-.015l.135-2.765c.165.005.335.01.505.01h6.84v2.77h-.005Zm230.14-2.465-1.575-2.275a11.054 11.054 0 0 0 4.02-5.09l2.58 1a13.826 13.826 0 0 1-5.025 6.365Zm-245.25-.27a13.81 13.81 0 0 1-4.805-6.53l2.615-.915c.73 2.09 2.06 3.9 3.845 5.225l-1.655 2.22Zm251.21-13.895h-2.77v-7.41h2.77v7.41Zm-254.02-.425h-2.77v-7.41h2.77v7.41Zm254.02-14.395h-2.77v-7.41h2.77v7.41Zm-254.02-.425h-2.77v-7.41h2.77v7.41Zm254.02-14.395h-2.77v-7.41h2.77v7.41Zm-254.02-.425h-2.77v-7.41h2.77v7.41Zm254.02-14.395h-2.77v-7.41h2.77v7.41Zm-254.02-.425h-2.77v-7.41h2.77v7.41Zm254.02-14.395h-2.77v-7.41h2.77v7.41Zm-254.02-.425h-2.77v-7.41h2.77v7.41Zm254.02-14.395h-2.77v-7.41h2.77v7.41Zm-254.02-.425h-2.77v-7.41h2.77v7.41Zm254.02-14.395h-2.77v-7.41h2.77v7.41Zm-254.02-.425h-2.77v-7.41h2.77v7.41Zm254.02-14.395h-2.77v-7.41h2.77v7.41Zm-254.02-.425h-2.77v-7.41h2.77v7.41Zm254.02-14.395h-2.77v-7.41h2.77v7.41Zm-254.02-.425h-2.77v-7.41h2.77v7.41Zm254.02-14.395h-2.77v-7.41h2.77v7.41Zm-254.02-.425h-2.77v-7.41h2.77v7.41Zm254.02-14.395h-2.77v-7.41h2.77v7.41Zm-254.02-.425h-2.77v-7.41h2.77v7.41Zm254.02-14.395h-2.77v-7.41h2.77v7.41Zm-254.02-.425h-2.77v-7.41h2.77v7.41ZM337.85 118.61a11.08 11.08 0 0 0-3.875-5.205l1.64-2.23a13.741 13.741 0 0 1 4.84 6.505l-2.605.93Zm-249.84-.35-2.575-1.02c1.02-2.57 2.77-4.76 5.055-6.335l1.57 2.28a11.097 11.097 0 0 0-4.05 5.07v.005Zm239.855-6.995-.45-.01h-6.91v-2.77l7.455.01-.09 2.77h-.005Zm-14.77-.01h-7.41v-2.77h7.41v2.77Zm-14.815 0h-7.41v-2.77h7.41v2.77Zm-14.815 0h-7.41v-2.77h7.41v2.77Zm-14.815 0h-7.41v-2.77h7.41v2.77Zm-14.815 0h-7.41v-2.77h7.41v2.77Zm-14.815 0h-7.41v-2.77h7.41v2.77Zm-14.815 0h-7.41v-2.77h7.41v2.77Zm-14.815 0h-7.41v-2.77h7.41v2.77Zm-14.815 0h-7.41v-2.77h7.41v2.77Zm-14.815 0h-7.41v-2.77h7.41v2.77Zm-14.815 0h-7.41v-2.77h7.41v2.77Zm-14.815 0h-7.41v-2.77h7.41v2.77Zm-14.815 0h-7.41v-2.77h7.41v2.77Zm-14.815 0h-7.41v-2.77h7.41v2.77Zm-14.815 0H98.35l-.065-2.38v-.385h7.4v2.77-.005Z"/><path fill="#444" d="m190.476 312.624 147.84 41.18 7.505-7.255v-116.26l-147.23-40.81-8.115 7.106v116.039Z"/><path fill="#222" d="M338.315 355.185a1.32 1.32 0 0 1-.37-.05L190.11 313.96a1.382 1.382 0 0 1-1.015-1.335v-116.04c0-.4.17-.78.47-1.04l8.115-7.105c.35-.31.835-.415 1.28-.295l147.23 40.81c.6.165 1.015.71 1.015 1.335v116.26a1.4 1.4 0 0 1-.42.995l-7.505 7.255c-.26.25-.61.39-.96.39l-.005-.005Zm-146.45-43.61 146.06 40.68 6.515-6.295V231.34l-145.495-40.33-7.08 6.2v114.365Z"/><path fill="#fff" d="m190.476 312.625 147.84 41.18V237.31l-147.84-40.725v116.04Z"/><path fill="#222" d="M338.316 355.185a1.32 1.32 0 0 1-.37-.05L190.111 313.96a1.382 1.382 0 0 1-1.015-1.335v-116.04c0-.43.2-.84.545-1.1.345-.26.79-.345 1.205-.235l147.835 40.725c.6.165 1.015.71 1.015 1.335v116.495c0 .435-.2.84-.545 1.105-.245.185-.54.28-.835.28v-.005Zm-146.45-43.61 145.07 40.405V238.365l-145.07-39.96v113.17Z"/><path fill="#FF3158" d="M264.25 275.04c23.405 6.485 42.4 26.82 42.4 56.165l-84.705-23.56c0-29.28 18.93-39.08 42.305-32.605Z"/><path fill="#222" d="M306.651 332.59a1.32 1.32 0 0 1-.37-.05l-84.705-23.56a1.382 1.382 0 0 1-1.015-1.335c0-13.74 4.17-24.175 12.055-30.175 7.85-5.97 19.215-7.305 32.005-3.765 26.375 7.305 43.415 29.875 43.415 57.5 0 .435-.2.84-.545 1.1-.245.185-.54.28-.835.28l-.005.005Zm-83.315-25.995 81.905 22.78c-.735-25.51-16.805-46.2-41.36-53.005-11.94-3.31-22.445-2.135-29.59 3.3-6.975 5.305-10.75 14.6-10.955 26.925Z"/><path fill="#F5F4F3" d="M239.896 248.84c0 14.26 10.96 28.86 24.49 32.61 13.54 3.755 24.52-4.78 24.52-19.055 0-14.28-10.985-28.885-24.52-32.615-13.53-3.73-24.49 4.805-24.49 19.065v-.005Z"/><path fill="#222" d="M270.661 283.725c-2.15 0-4.375-.31-6.645-.94-14.065-3.9-25.505-19.125-25.505-33.94 0-7.42 2.79-13.63 7.86-17.49 4.96-3.775 11.49-4.81 18.385-2.91 14.08 3.885 25.54 19.115 25.54 33.95 0 7.425-2.795 13.64-7.87 17.5-3.335 2.535-7.375 3.835-11.76 3.835l-.005-.005Zm-12.505-53.44c-3.795 0-7.265 1.105-10.11 3.27-4.365 3.325-6.77 8.755-6.77 15.29 0 13.655 10.53 27.685 23.475 31.275 6.05 1.68 11.73.815 15.995-2.43 4.37-3.325 6.775-8.755 6.775-15.295 0-13.675-10.545-27.71-23.505-31.285-2.005-.555-3.975-.83-5.86-.83v.005Z"/><path fill="#444" d="m205.855 248.52-152.74 42.54-9.54-7.37V163.575L195.69 121.41l10.165 7.22v119.89Z"/><path fill="#222" d="M53.115 292.445c-.305 0-.6-.1-.845-.29l-9.54-7.37c-.34-.26-.54-.665-.54-1.095V163.575c0-.62.415-1.17 1.015-1.335l152.115-42.165c.4-.11.83-.035 1.17.205l10.17 7.22c.365.26.585.68.585 1.13v119.89a1.39 1.39 0 0 1-1.015 1.335l-152.74 42.54a1.32 1.32 0 0 1-.37.05h-.005Zm-8.155-9.435 8.455 6.53 151.06-42.075V129.34l-9.05-6.425-150.465 41.71V283.01Z"/><path fill="#F5F4F3" d="m205.855 248.52-152.74 42.54V170.705l152.74-42.075v119.89Z"/><path fill="#222" d="M53.115 292.445a1.38 1.38 0 0 1-1.38-1.385V170.705c0-.625.415-1.17 1.015-1.335l152.74-42.075a1.37 1.37 0 0 1 1.205.235c.345.26.545.67.545 1.1v119.89a1.39 1.39 0 0 1-1.015 1.335l-152.74 42.54a1.32 1.32 0 0 1-.37.05ZM54.5 171.76v117.48l149.97-41.77V130.45L54.5 171.76Z"/><path fill="#DADADA" d="M129.635 209.684c-24.18 6.7-43.805 27.71-43.805 58.03l87.515-24.345c0-30.255-19.555-40.375-43.71-33.685Z"/><path fill="#222" d="M85.825 269.099a1.378 1.378 0 0 1-1.38-1.38c0-28.52 17.595-51.82 44.82-59.365 13.2-3.655 24.93-2.28 33.025 3.88 8.135 6.19 12.435 16.955 12.435 31.14a1.39 1.39 0 0 1-1.015 1.335l-87.515 24.345a1.32 1.32 0 0 1-.37.05v-.005ZM130 211.019c-25.41 7.04-42.035 28.46-42.765 54.865l84.715-23.565c-.2-12.765-4.11-22.39-11.335-27.885-7.39-5.625-18.265-6.835-30.61-3.415H130Z"/><path fill="#444" d="M154.8 182.62c0 14.735-11.325 29.815-25.305 33.69-13.99 3.875-25.335-4.935-25.335-19.69 0-14.75 11.345-29.84 25.335-33.7 13.98-3.855 25.305 4.965 25.305 19.7Z"/><path fill="#222" d="M123.01 218.61c-4.52 0-8.685-1.335-12.125-3.95-5.23-3.98-8.11-10.385-8.11-18.04 0-15.31 11.82-31.025 26.35-35.035 7.11-1.96 13.84-.895 18.95 3 5.225 3.98 8.105 10.385 8.105 18.035 0 15.29-11.805 31-26.315 35.025-2.34.65-4.64.97-6.855.97v-.005Zm12.92-55.215c-1.955 0-3.99.285-6.07.855-13.41 3.7-24.32 18.215-24.32 32.365 0 6.77 2.49 12.395 7.02 15.84 4.415 3.36 10.3 4.255 16.565 2.515 13.395-3.71 24.29-18.225 24.29-32.355 0-6.765-2.49-12.39-7.01-15.83-2.945-2.24-6.54-3.39-10.47-3.39h-.005Z"/><path fill="#444" d="m173.345 164.806 142.39 39.66 9.145-7.12V85.366l-141.81-39.31-9.725 6.985v111.765Z"/><path fill="#222" d="M315.735 205.85a1.32 1.32 0 0 1-.37-.05L172.97 166.14a1.382 1.382 0 0 1-1.015-1.335V53.04c0-.445.215-.865.575-1.125l9.73-6.98c.34-.245.775-.32 1.175-.21l141.81 39.31c.6.165 1.015.71 1.015 1.335v111.98c0 .425-.195.83-.535 1.09l-9.145 7.12c-.245.19-.545.29-.85.29h.005Zm-141.01-42.095 140.71 39.19 8.06-6.275V86.42L183.34 47.57l-8.615 6.18v110.005Z"/><path fill="#FF3158" d="m173.345 164.804 142.39 39.66v-112.2L173.345 53.04v111.765Z"/><path fill="#222" d="M315.735 205.849a1.32 1.32 0 0 1-.37-.05l-142.395-39.66a1.382 1.382 0 0 1-1.015-1.335V53.04c0-.43.2-.84.545-1.1.345-.26.79-.35 1.205-.235L316.1 90.93c.6.164 1.015.71 1.015 1.334V204.47c0 .435-.2.84-.545 1.1-.245.185-.54.28-.835.28Zm-141.01-42.095 139.625 38.89V93.319L174.73 54.855v108.9h-.005Z"/><path fill="#444" d="M244.4 128.605c22.545 6.245 40.84 25.83 40.84 54.1l-81.585-22.695c0-28.205 18.23-37.64 40.75-31.405h-.005Z"/><path fill="#222" d="M285.24 184.09a1.32 1.32 0 0 1-.37-.05l-81.585-22.695a1.382 1.382 0 0 1-1.015-1.335c0-13.25 4.02-23.315 11.63-29.105 7.57-5.76 18.535-7.05 30.87-3.635 25.425 7.04 41.855 28.8 41.855 55.43 0 .435-.2.84-.545 1.1-.245.185-.54.28-.835.28l-.005.01Zm-80.195-25.13 78.78 21.915c-.735-24.515-16.19-44.395-39.795-50.935-11.485-3.18-21.59-2.055-28.455 3.17-6.7 5.095-10.33 14.02-10.53 25.85Z"/><path fill="#DADADA" d="M220.94 103.37c0 13.735 10.555 27.795 23.59 31.41 13.04 3.615 23.62-4.6 23.62-18.355s-10.58-27.82-23.62-31.415c-13.03-3.595-23.59 4.63-23.59 18.365v-.005Z"/><path fill="#222" d="M250.575 137.02c-2.075 0-4.225-.3-6.415-.905-13.565-3.76-24.605-18.45-24.605-32.74 0-7.16 2.695-13.16 7.59-16.885 4.79-3.65 11.095-4.645 17.75-2.81 13.585 3.745 24.635 18.44 24.635 32.75 0 7.17-2.7 13.165-7.6 16.895-3.22 2.45-7.125 3.7-11.36 3.7l.005-.005ZM238.53 85.545c-3.64 0-6.975 1.06-9.705 3.14-4.19 3.19-6.5 8.405-6.5 14.685 0 13.135 10.125 26.625 22.575 30.075 5.81 1.61 11.265.785 15.36-2.33 4.195-3.19 6.505-8.41 6.505-14.69 0-13.15-10.14-26.645-22.605-30.08-1.93-.53-3.82-.795-5.63-.795v-.005ZM344.031 229.817l-7.51 7.02 1.892 2.023 7.509-7.02-1.891-2.023ZM324.051 84.268l-9.146 6.897 1.668 2.212 9.146-6.897-1.668-2.212ZM44.405 162.47l-1.658 2.218 9.54 7.13 1.659-2.219-9.54-7.129Z"/></svg>