<svg xmlns="http://www.w3.org/2000/svg" width="400" height="400" fill="none" viewBox="0 0 400 400"><path fill="#444" d="M200 374.765 33.36 289.21 200 208.62l166.64 80.59L200 374.765Z"/><path fill="#222" d="M200 376.16c-.22 0-.44-.05-.64-.155l-166.64-85.55a1.401 1.401 0 0 1 .03-2.505l166.64-80.59a1.41 1.41 0 0 1 1.22 0l166.64 80.59a1.401 1.401 0 0 1 .03 2.505L200.64 376.01c-.2.105-.42.155-.64.155v-.005ZM36.495 289.245 200 373.19l163.505-83.945L200 210.17 36.495 289.245Z"/><path fill="#F5F4F3" d="m200 360.629-166.64-85.55L200 194.489l166.64 80.59L200 360.629Z"/><path fill="#222" d="M200 362.03c-.22 0-.44-.05-.64-.155l-166.64-85.55a1.401 1.401 0 0 1 .03-2.505l166.64-80.59a1.41 1.41 0 0 1 1.22 0l166.64 80.59a1.401 1.401 0 0 1 .03 2.505L200.64 361.88c-.2.105-.42.155-.64.155v-.005ZM36.495 275.115 200 359.06l163.505-83.945L200 196.04 36.495 275.115Z"/><path fill="#F5F4F3" d="m200 131.969-33.25 16.08v74.77l33.25 17.07 33.25-17.07v-74.77L200 131.969Z"/><path fill="#222" d="M200.001 241.289c-.22 0-.44-.05-.64-.155l-33.25-17.07c-.465-.24-.76-.72-.76-1.245v-74.775a1.4 1.4 0 0 1 .79-1.26l33.25-16.08a1.41 1.41 0 0 1 1.22 0l33.25 16.08a1.4 1.4 0 0 1 .79 1.26v74.775c0 .525-.295 1.005-.76 1.245l-33.25 17.07c-.2.105-.42.155-.64.155Zm-31.85-19.325 31.85 16.35 31.85-16.35v-73.04l-31.85-15.405-31.85 15.405v73.04Z"/><path fill="#fff" d="m200 165.12-33.25-17.07L200 131.97l33.25 16.08L200 165.12Z"/><path fill="#222" d="M200.001 166.52c-.22 0-.44-.05-.64-.155l-33.25-17.07c-.47-.24-.765-.73-.76-1.26.005-.53.31-1.01.79-1.24l33.25-16.08a1.41 1.41 0 0 1 1.22 0l33.25 16.08a1.397 1.397 0 0 1 .03 2.5l-33.25 17.07c-.2.105-.42.155-.64.155Zm-30.115-18.43 30.115 15.46 30.115-15.46-30.115-14.565-30.115 14.565Z"/><path fill="#222" d="M201.396 165.119h-2.795v74.775h2.795v-74.775Z"/><path fill="#DADADA" d="m200 239.89 33.25-17.07v-74.77L200 165.12v74.77Z"/><path fill="#222" d="M200.001 241.289a1.401 1.401 0 0 1-1.4-1.4v-74.775c0-.525.295-1.005.76-1.245l33.25-17.07a1.401 1.401 0 0 1 2.04 1.245v74.775c0 .525-.295 1.005-.76 1.245l-33.25 17.07c-.2.105-.42.155-.64.155Zm1.4-75.315v71.63l30.45-15.635v-71.63l-30.45 15.635Z"/><path fill="#FF3158" d="m150.705 155.35-33.25 16.08v89.43l33.25 17.07 33.25-17.07v-89.43l-33.25-16.08Z"/><path fill="#222" d="M150.705 279.33c-.22 0-.44-.05-.64-.155l-33.25-17.07c-.465-.24-.76-.72-.76-1.245v-89.43a1.4 1.4 0 0 1 .79-1.26l33.25-16.08a1.41 1.41 0 0 1 1.22 0l33.25 16.08a1.4 1.4 0 0 1 .79 1.26v89.43c0 .525-.295 1.005-.76 1.245l-33.25 17.07c-.2.105-.42.155-.64.155Zm-31.85-19.325 31.85 16.35 31.85-16.35v-87.7l-31.85-15.405-31.85 15.405v87.7Z"/><path fill="#222" d="M150.705 189.9c-.22 0-.44-.05-.64-.155l-33.25-17.07c-.47-.24-.765-.73-.76-1.26.005-.53.31-1.01.79-1.24l33.25-16.08a1.41 1.41 0 0 1 1.22 0l33.25 16.08a1.397 1.397 0 0 1 .03 2.5l-33.25 17.07c-.2.105-.42.155-.64.155Zm-30.115-18.43 30.115 15.46 30.115-15.46-30.115-14.565-30.115 14.565Z"/><path fill="#222" d="M152.1 188.5h-2.795v89.43h2.795V188.5Z"/><path fill="#DADADA" d="m248.72 264.505 32.845-17.07V92.35l-33.25 17.07.405 155.085Z"/><path fill="#222" d="M248.72 265.905c-.25 0-.5-.07-.725-.2a1.406 1.406 0 0 1-.675-1.195l-.405-155.085c0-.525.29-1.01.76-1.25l33.25-17.07c.435-.22.95-.205 1.37.05.42.255.67.705.67 1.195v155.085c0 .52-.29 1-.755 1.24l-32.845 17.07a1.409 1.409 0 0 1-.645.155v.005Zm.995-155.635.395 151.935 30.055-15.62V94.64l-30.45 15.635v-.005Z"/><path fill="#F5F4F3" d="M248.32 244.92V115.225l31.435 14.66-47.9-92.445-47.9 46.465L215.64 99.82v113.9"/><path fill="#222" d="M249.72 244.92h-2.795V115.225a1.4 1.4 0 0 1 1.99-1.27l27.715 12.925-45.145-87.125-45.14 43.785 29.93 15.035c.475.235.77.72.77 1.25v113.9h-2.795V100.68l-30.92-15.53a1.404 1.404 0 0 1-.755-1.04c-.07-.45.085-.9.41-1.215l47.9-46.465c.32-.31.76-.445 1.2-.375.435.07.815.345 1.015.735l47.9 92.445c.275.53.18 1.18-.23 1.61-.41.43-1.06.55-1.6.3l-29.45-13.73V244.92Z"/><path fill="#F5F4F3" d="m101.41 213.699-33.25 16.08v48.875l33.25 17.07 33.245-17.07v-48.875l-33.245-16.08Z"/><path fill="#222" d="M101.41 297.125c-.22 0-.44-.05-.64-.155L67.52 279.9c-.465-.24-.76-.72-.76-1.245v-48.88a1.4 1.4 0 0 1 .79-1.26l33.25-16.08a1.41 1.41 0 0 1 1.22 0l33.25 16.08a1.4 1.4 0 0 1 .79 1.26v48.88c0 .525-.295 1.005-.76 1.245l-33.25 17.07c-.2.105-.42.155-.64.155ZM69.56 277.8l31.85 16.35 31.85-16.35v-47.145l-31.85-15.405-31.85 15.405V277.8Z"/><path fill="#fff" d="m101.411 246.85-33.25-17.07 33.25-16.08 33.245 16.08-33.245 17.07Z"/><path fill="#222" d="M101.411 248.245c-.22 0-.44-.05-.64-.155l-33.25-17.07a1.401 1.401 0 0 1 .03-2.505l33.25-16.08a1.41 1.41 0 0 1 1.22 0l33.25 16.08a1.399 1.399 0 0 1 .03 2.505l-33.25 17.07c-.2.105-.42.155-.64.155Zm-30.115-18.43 30.115 15.46 30.115-15.46-30.115-14.565-30.115 14.565Z"/><path fill="#222" d="M102.805 246.85h-2.795v48.88h2.795v-48.88Z"/><path fill="#DADADA" d="m101.41 295.725 33.245-17.07V229.78l-33.245 17.07v48.875Z"/><path fill="#222" d="M101.41 297.125a1.401 1.401 0 0 1-1.4-1.4v-48.88c0-.525.295-1.005.76-1.245l33.25-17.07a1.401 1.401 0 0 1 2.04 1.245v48.88c0 .525-.295 1.005-.76 1.245l-33.25 17.07c-.2.105-.42.155-.64.155Zm1.4-49.425v45.735l30.45-15.635v-45.735L102.81 247.7Z"/><path fill="#F5F4F3" d="m200 206.154-33.25 16.08v52.385l33.25 17.07 33.25-17.07v-52.385L200 206.154Z"/><path fill="#222" d="M200.001 293.09c-.22 0-.44-.05-.64-.155l-33.25-17.07c-.465-.24-.76-.72-.76-1.245v-52.385a1.4 1.4 0 0 1 .79-1.26l33.25-16.08a1.41 1.41 0 0 1 1.22 0l33.25 16.08a1.4 1.4 0 0 1 .79 1.26v52.385c0 .525-.295 1.005-.76 1.245l-33.25 17.07c-.2.105-.42.155-.64.155Zm-31.85-19.325 31.85 16.35 31.85-16.35V223.11l-31.85-15.405-31.85 15.405v50.655Z"/><path fill="#fff" d="m200 239.304-33.25-17.07 33.25-16.08 33.25 16.08-33.25 17.07Z"/><path fill="#222" d="M200.001 240.704c-.22 0-.44-.05-.64-.155l-33.25-17.07a1.4 1.4 0 0 1-.76-1.26c.005-.53.31-1.01.79-1.24l33.25-16.08a1.41 1.41 0 0 1 1.22 0l33.25 16.08a1.397 1.397 0 0 1 .03 2.5l-33.25 17.07c-.2.105-.42.155-.64.155Zm-30.115-18.43 30.115 15.46 30.115-15.46-30.115-14.564-30.115 14.564Z"/><path fill="#222" d="M201.396 239.305h-2.795v52.385h2.795v-52.385Z"/><path fill="#DADADA" d="m200.405 291.69 32.845-17.07v-52.385L200 239.305l.405 52.385Z"/><path fill="#222" d="M200.405 293.09a1.391 1.391 0 0 1-1.395-1.39l-.405-52.385c0-.53.29-1.015.76-1.255l33.25-17.07c.435-.225.95-.205 1.37.05.42.255.67.705.67 1.195v52.385c0 .52-.29 1-.755 1.24l-32.845 17.07a1.409 1.409 0 0 1-.645.155l-.005.005Zm1-52.935.38 49.24 30.065-15.625v-49.245l-30.445 15.63Z"/><path fill="#FF3158" d="M249.295 244.92 216.045 261v43.04l33.25 17.07 33.25-17.07V261l-33.25-16.08Z"/><path fill="#222" d="M249.295 322.51c-.22 0-.44-.05-.64-.155l-33.25-17.07c-.465-.24-.76-.72-.76-1.245V261a1.4 1.4 0 0 1 .79-1.26l33.25-16.08a1.41 1.41 0 0 1 1.22 0l33.25 16.08a1.4 1.4 0 0 1 .79 1.26v43.04c0 .525-.295 1.005-.76 1.245l-33.25 17.07c-.2.105-.42.155-.64.155Zm-31.85-19.325 31.85 16.35 31.85-16.35v-41.31l-31.85-15.405-31.85 15.405v41.31Z"/><path fill="#222" d="M249.296 279.47c-.22 0-.44-.05-.64-.155l-33.25-17.07a1.401 1.401 0 0 1 .03-2.505l33.25-16.08a1.41 1.41 0 0 1 1.22 0l33.25 16.08a1.399 1.399 0 0 1 .03 2.505l-33.25 17.07c-.2.105-.42.155-.64.155Zm-30.115-18.43 30.115 15.46 30.115-15.46-30.115-14.565-30.115 14.565Z"/><path fill="#222" d="M250.69 278.07h-2.795v43.04h2.795v-43.04Z"/><path fill="#FF3158" d="M150.705 244.92 117.455 261v43.04l33.25 17.07 33.25-17.07V261l-33.25-16.08Z"/><path fill="#222" d="M150.705 322.51c-.22 0-.44-.05-.64-.155l-33.25-17.07c-.465-.24-.76-.72-.76-1.245V261a1.4 1.4 0 0 1 .79-1.26l33.25-16.08a1.41 1.41 0 0 1 1.22 0l33.25 16.08a1.4 1.4 0 0 1 .79 1.26v43.04c0 .525-.295 1.005-.76 1.245l-33.25 17.07c-.2.105-.42.155-.64.155Zm-31.85-19.325 31.85 16.35 31.85-16.35v-41.31l-31.85-15.405-31.85 15.405v41.31Z"/><path fill="#222" d="M150.705 279.47c-.22 0-.44-.05-.64-.155l-33.25-17.07a1.401 1.401 0 0 1 .03-2.505l33.25-16.08a1.41 1.41 0 0 1 1.22 0l33.25 16.08a1.399 1.399 0 0 1 .03 2.505l-33.25 17.07c-.2.105-.42.155-.64.155Zm-30.115-18.43 30.115 15.46 30.115-15.46-30.115-14.565-30.115 14.565Z"/><path fill="#222" d="M152.1 278.07h-2.795v43.04h2.795v-43.04Z"/><path fill="#F5F4F3" d="m200 272.02-33.25 16.08v41.17L200 346.34l33.25-17.07V288.1L200 272.02Z"/><path fill="#222" d="M200 347.74c-.22 0-.44-.05-.64-.155l-33.25-17.07c-.465-.24-.76-.72-.76-1.245V288.1a1.4 1.4 0 0 1 .79-1.26l33.25-16.08a1.41 1.41 0 0 1 1.22 0l33.25 16.08a1.4 1.4 0 0 1 .79 1.26v41.17c0 .525-.295 1.005-.76 1.245l-33.25 17.07c-.2.105-.42.155-.64.155Zm-31.85-19.325 31.85 16.35 31.85-16.35v-39.44L200 273.57l-31.85 15.405v39.44Z"/><path fill="#fff" d="m200 305.17-33.25-17.07L200 272.02l33.25 16.08L200 305.17Z"/><path fill="#222" d="M200 306.57c-.22 0-.44-.05-.64-.155l-33.25-17.07a1.401 1.401 0 0 1 .03-2.505l33.25-16.08a1.41 1.41 0 0 1 1.22 0l33.25 16.08a1.399 1.399 0 0 1 .03 2.505l-33.25 17.07c-.2.105-.42.155-.64.155Zm-30.115-18.43L200 303.6l30.115-15.46L200 273.575l-30.115 14.565Z"/><path fill="#222" d="M201.395 305.17H198.6v41.17h2.795v-41.17Z"/><path fill="#DADADA" d="m200 346.341 33.25-17.07v-40.675L200 305.171v41.17Z"/><path fill="#222" d="M200 347.74a1.401 1.401 0 0 1-1.4-1.4v-41.17c0-.53.3-1.015.775-1.25l33.25-16.575c.435-.215.95-.19 1.36.06.41.255.665.705.665 1.19v40.675c0 .525-.295 1.005-.76 1.245l-33.25 17.07c-.2.105-.42.155-.64.155Zm1.4-41.705v38.015l30.45-15.635V290.85l-30.45 15.18v.005Z"/><path fill="#DADADA" d="m313.1 118.005-33.345 11.88-47.9-92.445 33.085-12.18 48.16 92.745Z"/><path fill="#222" d="M279.755 131.28c-.51 0-.995-.28-1.24-.755l-47.9-92.445a1.4 1.4 0 0 1 .76-1.955l33.085-12.18a1.4 1.4 0 0 1 1.725.67l48.165 92.745c.185.36.21.78.06 1.155s-.45.67-.83.805l-33.345 11.875c-.155.055-.315.08-.47.08l-.01.005Zm-45.93-93.08 46.61 89.95 30.685-10.93-46.855-90.23-30.44 11.205v.005Z"/></svg>