<svg xmlns="http://www.w3.org/2000/svg" width="400" height="401" fill="none" viewBox="0 0 400 401"><path fill="#444" d="M200 375.265 33.36 289.71 200 209.12l166.64 80.59L200 375.265Z"/><path fill="#222" d="M200 376.66c-.22 0-.44-.05-.64-.155l-166.64-85.55a1.401 1.401 0 0 1 .03-2.505l166.64-80.59a1.41 1.41 0 0 1 1.22 0l166.64 80.59a1.401 1.401 0 0 1 .03 2.505L200.64 376.51c-.2.105-.42.155-.64.155v-.005ZM36.495 289.745 200 373.69l163.505-83.945L200 210.67 36.495 289.745Z"/><path fill="#F5F4F3" d="m200 361.129-166.64-85.55L200 194.989l166.64 80.59L200 361.129Z"/><path fill="#222" d="M200 362.53c-.22 0-.44-.05-.64-.155l-166.64-85.55a1.401 1.401 0 0 1 .03-2.505l166.64-80.59a1.41 1.41 0 0 1 1.22 0l166.64 80.59a1.401 1.401 0 0 1 .03 2.505L200.64 362.38c-.2.105-.42.155-.64.155v-.005ZM36.495 275.615 200 359.56l163.505-83.945L200 196.54 36.495 275.615Z"/><path fill="#F5F4F3" d="m200 132.47-33.25 16.08v74.77L200 240.39l33.25-17.07v-74.77L200 132.47Z"/><path fill="#222" d="M200 241.789c-.22 0-.44-.05-.64-.155l-33.25-17.07c-.465-.24-.76-.72-.76-1.245v-74.775a1.4 1.4 0 0 1 .79-1.26l33.25-16.08a1.41 1.41 0 0 1 1.22 0l33.25 16.08a1.4 1.4 0 0 1 .79 1.26v74.775c0 .525-.295 1.005-.76 1.245l-33.25 17.07c-.2.105-.42.155-.64.155Zm-31.85-19.325 31.85 16.35 31.85-16.35v-73.04L200 134.019l-31.85 15.405v73.04Z"/><path fill="#fff" d="m200 165.62-33.25-17.07L200 132.47l33.25 16.08L200 165.62Z"/><path fill="#222" d="M200 167.02c-.22 0-.44-.05-.64-.155l-33.25-17.07c-.47-.24-.765-.73-.76-1.26.005-.53.31-1.01.79-1.24l33.25-16.08a1.41 1.41 0 0 1 1.22 0l33.25 16.08a1.397 1.397 0 0 1 .03 2.5l-33.25 17.07c-.2.105-.42.155-.64.155Zm-30.115-18.43L200 164.05l30.115-15.46L200 134.025l-30.115 14.565Z"/><path fill="#222" d="M201.395 165.619H198.6v74.775h2.795v-74.775Z"/><path fill="#DADADA" d="m200 240.39 33.25-17.07v-74.77L200 165.62v74.77Z"/><path fill="#222" d="M200 241.789a1.401 1.401 0 0 1-1.4-1.4v-74.775c0-.525.295-1.005.76-1.245l33.25-17.07a1.401 1.401 0 0 1 2.04 1.245v74.775c0 .525-.295 1.005-.76 1.245l-33.25 17.07c-.2.105-.42.155-.64.155Zm1.4-75.315v71.63l30.45-15.635v-71.63l-30.45 15.635Z"/><path fill="#FF3158" d="m150.705 155.85-33.25 16.08v89.43l33.25 17.07 33.25-17.07v-89.43l-33.25-16.08Z"/><path fill="#222" d="M150.705 279.83c-.22 0-.44-.05-.64-.155l-33.25-17.07c-.465-.24-.76-.72-.76-1.245v-89.43a1.4 1.4 0 0 1 .79-1.26l33.25-16.08a1.41 1.41 0 0 1 1.22 0l33.25 16.08a1.4 1.4 0 0 1 .79 1.26v89.43c0 .525-.295 1.005-.76 1.245l-33.25 17.07c-.2.105-.42.155-.64.155Zm-31.85-19.325 31.85 16.35 31.85-16.35v-87.7l-31.85-15.405-31.85 15.405v87.7Z"/><path fill="#222" d="M150.705 190.4c-.22 0-.44-.05-.64-.155l-33.25-17.07c-.47-.24-.765-.73-.76-1.26.005-.53.31-1.01.79-1.24l33.25-16.08a1.41 1.41 0 0 1 1.22 0l33.25 16.08a1.397 1.397 0 0 1 .03 2.5l-33.25 17.07c-.2.105-.42.155-.64.155Zm-30.115-18.43 30.115 15.46 30.115-15.46-30.115-14.565-30.115 14.565Z"/><path fill="#222" d="M152.1 189h-2.795v89.43h2.795V189Z"/><path fill="#DADADA" d="m248.72 265.005 32.845-17.07V92.85l-33.25 17.07.405 155.085Z"/><path fill="#222" d="M248.72 266.405c-.25 0-.5-.07-.725-.2a1.406 1.406 0 0 1-.675-1.195l-.405-155.085c0-.525.29-1.01.76-1.25l33.25-17.07c.435-.22.95-.205 1.37.05.42.255.67.705.67 1.195v155.085c0 .52-.29 1-.755 1.24l-32.845 17.07a1.409 1.409 0 0 1-.645.155v.005Zm.995-155.635.395 151.935 30.055-15.62V95.14l-30.45 15.635v-.005Z"/><path fill="#F5F4F3" d="M248.32 245.42V115.725l31.435 14.66-47.9-92.445-47.9 46.465 31.685 15.915v113.9"/><path fill="#222" d="M249.72 245.42h-2.795V115.725a1.4 1.4 0 0 1 1.99-1.27l27.715 12.925-45.145-87.125-45.14 43.785 29.93 15.035c.475.235.77.72.77 1.25v113.9h-2.795V101.18l-30.92-15.53a1.404 1.404 0 0 1-.755-1.04c-.07-.45.085-.9.41-1.215l47.9-46.465c.32-.31.76-.445 1.2-.375.435.07.815.345 1.015.735l47.9 92.445c.275.53.18 1.18-.23 1.61-.41.43-1.06.55-1.6.3l-29.45-13.73V245.42Z"/><path fill="#F5F4F3" d="m101.41 214.201-33.25 16.08v48.875l33.25 17.07 33.245-17.07v-48.875l-33.245-16.08Z"/><path fill="#222" d="M101.41 297.626c-.22 0-.44-.05-.64-.155l-33.25-17.07c-.465-.24-.76-.72-.76-1.245v-48.88a1.4 1.4 0 0 1 .79-1.26l33.25-16.08a1.41 1.41 0 0 1 1.22 0l33.25 16.08a1.4 1.4 0 0 1 .79 1.26v48.88c0 .525-.295 1.005-.76 1.245l-33.25 17.07c-.2.105-.42.155-.64.155Zm-31.85-19.325 31.85 16.35 31.85-16.35v-47.145l-31.85-15.405-31.85 15.405v47.145Z"/><path fill="#fff" d="m101.41 247.351-33.25-17.07 33.25-16.08 33.245 16.08-33.245 17.07Z"/><path fill="#222" d="M101.41 248.746c-.22 0-.44-.05-.64-.155l-33.25-17.07a1.401 1.401 0 0 1 .03-2.505l33.25-16.08a1.41 1.41 0 0 1 1.22 0l33.25 16.08a1.399 1.399 0 0 1 .03 2.505l-33.25 17.07c-.2.105-.42.155-.64.155Zm-30.115-18.43 30.115 15.46 30.115-15.46-30.115-14.565-30.115 14.565Z"/><path fill="#222" d="M102.805 247.351h-2.795v48.88h2.795v-48.88Z"/><path fill="#DADADA" d="m101.41 296.226 33.245-17.07v-48.875l-33.245 17.07v48.875Z"/><path fill="#222" d="M101.41 297.626a1.401 1.401 0 0 1-1.4-1.4v-48.88c0-.525.295-1.005.76-1.245l33.25-17.07a1.401 1.401 0 0 1 2.04 1.245v48.88c0 .525-.295 1.005-.76 1.245l-33.25 17.07c-.2.105-.42.155-.64.155Zm1.4-49.425v45.735l30.45-15.635v-45.735l-30.45 15.635Z"/><path fill="#F5F4F3" d="m200 206.654-33.25 16.08v52.385l33.25 17.07 33.25-17.07v-52.385L200 206.654Z"/><path fill="#222" d="M200 293.59c-.22 0-.44-.05-.64-.155l-33.25-17.07c-.465-.24-.76-.72-.76-1.245v-52.385a1.4 1.4 0 0 1 .79-1.26l33.25-16.08a1.41 1.41 0 0 1 1.22 0l33.25 16.08a1.4 1.4 0 0 1 .79 1.26v52.385c0 .525-.295 1.005-.76 1.245l-33.25 17.07c-.2.105-.42.155-.64.155Zm-31.85-19.325 31.85 16.35 31.85-16.35V223.61L200 208.205l-31.85 15.405v50.655Z"/><path fill="#fff" d="m200 239.804-33.25-17.07 33.25-16.08 33.25 16.08-33.25 17.07Z"/><path fill="#222" d="M200 241.204c-.22 0-.44-.05-.64-.155l-33.25-17.07a1.4 1.4 0 0 1-.76-1.26c.005-.53.31-1.01.79-1.24l33.25-16.08a1.41 1.41 0 0 1 1.22 0l33.25 16.08a1.397 1.397 0 0 1 .03 2.5l-33.25 17.07c-.2.105-.42.155-.64.155Zm-30.115-18.43L200 238.234l30.115-15.46L200 208.21l-30.115 14.564Z"/><path fill="#222" d="M201.395 239.805H198.6v52.385h2.795v-52.385Z"/><path fill="#DADADA" d="m200.405 292.19 32.845-17.07v-52.385L200 239.805l.405 52.385Z"/><path fill="#222" d="M200.405 293.59a1.391 1.391 0 0 1-1.395-1.39l-.405-52.385c0-.53.29-1.015.76-1.255l33.25-17.07c.435-.225.95-.205 1.37.05.42.255.67.705.67 1.195v52.385c0 .52-.29 1-.755 1.24l-32.845 17.07a1.409 1.409 0 0 1-.645.155l-.005.005Zm1-52.935.38 49.24 30.065-15.625v-49.245l-30.445 15.63Z"/><path fill="#FF3158" d="m249.295 245.42-33.25 16.08v43.04l33.25 17.07 33.25-17.07V261.5l-33.25-16.08Z"/><path fill="#222" d="M249.295 323.01c-.22 0-.44-.05-.64-.155l-33.25-17.07c-.465-.24-.76-.72-.76-1.245V261.5a1.4 1.4 0 0 1 .79-1.26l33.25-16.08a1.41 1.41 0 0 1 1.22 0l33.25 16.08a1.4 1.4 0 0 1 .79 1.26v43.04c0 .525-.295 1.005-.76 1.245l-33.25 17.07c-.2.105-.42.155-.64.155Zm-31.85-19.325 31.85 16.35 31.85-16.35v-41.31l-31.85-15.405-31.85 15.405v41.31Z"/><path fill="#222" d="M249.295 279.97c-.22 0-.44-.05-.64-.155l-33.25-17.07a1.401 1.401 0 0 1 .03-2.505l33.25-16.08a1.41 1.41 0 0 1 1.22 0l33.25 16.08a1.399 1.399 0 0 1 .03 2.505l-33.25 17.07c-.2.105-.42.155-.64.155Zm-30.115-18.43L249.295 277l30.115-15.46-30.115-14.565-30.115 14.565Z"/><path fill="#222" d="M250.69 278.57h-2.795v43.04h2.795v-43.04Z"/><path fill="#FF3158" d="m150.705 245.419-33.25 16.08v43.04l33.25 17.07 33.25-17.07v-43.04l-33.25-16.08Z"/><path fill="#222" d="M150.705 323.009c-.22 0-.44-.05-.64-.155l-33.25-17.07c-.465-.24-.76-.72-.76-1.245v-43.04a1.4 1.4 0 0 1 .79-1.26l33.25-16.08a1.41 1.41 0 0 1 1.22 0l33.25 16.08a1.4 1.4 0 0 1 .79 1.26v43.04c0 .525-.295 1.005-.76 1.245l-33.25 17.07c-.2.105-.42.155-.64.155Zm-31.85-19.325 31.85 16.35 31.85-16.35v-41.31l-31.85-15.405-31.85 15.405v41.31Z"/><path fill="#222" d="M150.705 279.969c-.22 0-.44-.05-.64-.155l-33.25-17.07a1.401 1.401 0 0 1 .03-2.505l33.25-16.08a1.41 1.41 0 0 1 1.22 0l33.25 16.08a1.399 1.399 0 0 1 .03 2.505l-33.25 17.07c-.2.105-.42.155-.64.155Zm-30.115-18.43 30.115 15.46 30.115-15.46-30.115-14.565-30.115 14.565Z"/><path fill="#222" d="M152.1 278.569h-2.795v43.04h2.795v-43.04Z"/><path fill="#F5F4F3" d="m200 272.52-33.25 16.08v41.17L200 346.84l33.25-17.07V288.6L200 272.52Z"/><path fill="#222" d="M200.001 348.24c-.22 0-.44-.05-.64-.155l-33.25-17.07c-.465-.24-.76-.72-.76-1.245V288.6a1.4 1.4 0 0 1 .79-1.26l33.25-16.08a1.41 1.41 0 0 1 1.22 0l33.25 16.08a1.4 1.4 0 0 1 .79 1.26v41.17c0 .525-.295 1.005-.76 1.245l-33.25 17.07c-.2.105-.42.155-.64.155Zm-31.85-19.325 31.85 16.35 31.85-16.35v-39.44l-31.85-15.405-31.85 15.405v39.44Z"/><path fill="#fff" d="m200.001 305.67-33.25-17.07 33.25-16.08 33.25 16.08-33.25 17.07Z"/><path fill="#222" d="M200.001 307.07c-.22 0-.44-.05-.64-.155l-33.25-17.07a1.401 1.401 0 0 1 .03-2.505l33.25-16.08a1.41 1.41 0 0 1 1.22 0l33.25 16.08a1.399 1.399 0 0 1 .03 2.505l-33.25 17.07c-.2.105-.42.155-.64.155Zm-30.115-18.43 30.115 15.46 30.115-15.46-30.115-14.565-30.115 14.565Z"/><path fill="#222" d="M201.396 305.67h-2.795v41.17h2.795v-41.17Z"/><path fill="#DADADA" d="m200 346.841 33.25-17.07v-40.675L200 305.671v41.17Z"/><path fill="#222" d="M200 348.24a1.401 1.401 0 0 1-1.4-1.4v-41.17c0-.53.3-1.015.775-1.25l33.25-16.575c.435-.215.95-.19 1.36.06.41.255.665.705.665 1.19v40.675c0 .525-.295 1.005-.76 1.245l-33.25 17.07c-.2.105-.42.155-.64.155Zm1.4-41.705v38.015l30.45-15.635V291.35l-30.45 15.18v.005Z"/><path fill="#DADADA" d="m313.1 118.505-33.345 11.88-47.9-92.445 33.085-12.18 48.16 92.745Z"/><path fill="#222" d="M279.755 131.78c-.51 0-.995-.28-1.24-.755l-47.9-92.445a1.4 1.4 0 0 1 .76-1.955l33.085-12.18a1.4 1.4 0 0 1 1.725.67l48.165 92.745c.185.36.21.78.06 1.155s-.45.67-.83.805l-33.345 11.875c-.155.055-.315.08-.47.08l-.01.005Zm-45.93-93.08 46.61 89.95 30.685-10.93-46.855-90.23-30.44 11.205v.005Z"/></svg>