<svg xmlns="http://www.w3.org/2000/svg" width="401" height="401" fill="none" viewBox="0 0 401 401"><path fill="#DADADA" d="M213.168 338.43c75.067 0 135.922-60.855 135.922-135.923 0-75.068-60.855-135.922-135.922-135.922-75.068 0-135.923 60.854-135.923 135.922S138.1 338.43 213.168 338.43Z"/><path fill="#222" d="M201.887 348.23c-75.636 0-137.402-61.581-137.402-137.401 0-75.821 61.581-137.402 137.402-137.402 75.636 0 137.402 61.581 137.402 137.402 0 75.82-61.766 137.401-137.402 137.401Zm0-271.844c-74.156 0-134.628 60.286-134.628 134.627 0 74.342 60.287 134.628 134.628 134.628 74.156 0 134.628-60.286 134.628-134.628 0-74.341-60.472-134.627-134.628-134.627Z"/><path fill="#222" d="M201.887 348.23c-.74 0-1.48-.555-1.48-1.479 0-.925.555-1.48 1.48-1.48 19.048 0 35.136-61.581 35.136-134.628 0-72.861-16.088-134.627-35.136-134.627-.74 0-1.48-.555-1.48-1.48 0-.925.555-1.48 1.48-1.48 21.267 0 37.91 60.287 37.91 137.402 0 77.485-16.643 137.772-37.91 137.772Z"/><path fill="#222" d="M201.887 248.739c-76.93 0-137.402-16.643-137.402-37.91 0-.74.555-1.479 1.48-1.479.924 0 1.48.554 1.48 1.479 0 19.048 61.58 35.136 134.627 35.136 73.047 0 134.628-16.088 134.628-35.136 0-.74.555-1.479 1.479-1.479.925 0 1.48.554 1.48 1.479-.37 21.267-60.842 37.91-137.772 37.91ZM201.887 348.23c-2.589 0-5.178-.925-7.767-2.589-.555-.37-.74-1.294-.37-1.849.37-.555 1.295-.74 1.849-.37 2.035 1.479 4.069 2.219 6.103 2.219.74 0 1.295.555 1.295 1.479 0 .925-.37 1.11-1.11 1.11Z"/><path fill="#222" d="M185.798 334.36c-.555 0-.924-.184-1.294-.739a97.642 97.642 0 0 1-5.918-13.685 1.18 1.18 0 0 1 0-1.11c.185-.369.37-.554.74-.739.739-.185 1.479.185 1.849.924 1.849 5.178 3.699 9.617 5.733 13.315.185.185.185.37.185.74 0 .555-.37.925-.74 1.294h-.555Zm-10.171-27.369c-.74 0-1.109-.37-1.294-1.11a438.378 438.378 0 0 1-3.329-14.424c0-.37 0-.74.185-1.11.185-.369.555-.554.925-.554.739-.185 1.479.37 1.664 1.109.925 4.993 2.034 9.801 3.329 14.24v.37a1.39 1.39 0 0 1-.925 1.294c-.37.185-.37.185-.555.185Zm-5.733-28.849c-.739 0-1.294-.555-1.294-1.109-.74-4.809-1.295-9.617-1.849-14.61 0-.739.554-1.479 1.294-1.479s1.48.555 1.48 1.294c.554 4.808 1.109 9.802 1.849 14.425v.185c0 .739-.555 1.294-1.11 1.294h-.37Zm-3.143-29.218c-.74 0-1.295-.555-1.48-1.295-.37-4.808-.555-9.801-.924-14.794 0-.37.184-.74.369-.925.185-.37.555-.37.925-.37.74 0 1.479.555 1.479 1.295.185 4.808.555 9.801.925 14.609 0 .925-.555 1.48-1.294 1.48Zm-1.295-29.219c-.74 0-1.479-.555-1.479-1.295v-14.609c0-.74.554-1.294 1.479-1.294.74 0 1.48.554 1.48 1.479v14.609c0 .37-.185.74-.37.925-.37 0-.74.185-1.11.185Zm.37-29.404c-.74 0-1.479-.739-1.479-1.479.184-4.993.554-9.801.924-14.61 0-.739.74-1.294 1.48-1.294.369 0 .739.185.924.555.185.185.37.739.37.924-.37 4.809-.74 9.802-.925 14.61 0 .739-.554 1.294-1.294 1.294Zm2.219-29.403c-.925-.185-1.479-.74-1.479-1.48v-.185c.554-4.993 1.109-9.986 1.849-14.609.185-.74.925-1.295 1.664-1.11.74.185 1.295.925 1.11 1.665-.74 4.808-1.295 9.616-1.849 14.424 0 .925-.555 1.295-1.295 1.295Zm4.253-29.034h-.184c-.74-.185-1.11-.74-1.11-1.295v-.185c.925-4.993 2.034-9.801 3.329-14.239.185-.74.924-1.11 1.664-.925.74.185 1.11.925.925 1.665-1.11 4.438-2.219 9.246-3.329 14.239 0 .37-.555.74-1.295.74Zm7.583-28.294h-.555a1.391 1.391 0 0 1-.925-1.295v-.369c1.849-5.178 3.884-9.802 5.918-13.5.37-.74 1.294-.925 1.849-.555.37.185.555.555.74.925.185.37 0 .74-.185 1.11-2.034 3.698-3.884 8.136-5.733 13.314 0 0-.555.37-1.109.37ZM195.045 78.604c-.37 0-.925-.184-1.11-.554-.37-.555-.37-1.48.37-1.85 2.404-1.849 4.993-2.589 7.767-2.589.74 0 1.294.555 1.294 1.48 0 .924-.554 1.48-1.294 1.48-2.034 0-4.069.739-6.103 2.218-.37-.185-.739-.185-.924-.185ZM64.485 210.829c0-.74.555-1.48 1.48-1.48.74 0 1.48.555 1.48 1.48 0 .739-.556 1.479-1.48 1.479-.74 0-1.48-.74-1.48-1.479Zm266.297-9.802c-.555-.554-.555-1.479-.185-2.034.555-.555 1.295-.739 2.034-.185.555.555.555 1.48.185 2.035-.185.369-.739.554-1.109.554s-.555-.185-.925-.37Zm-258.345-1.294c-.37-.555-.37-1.479.185-2.034.555-.555 1.48-.37 2.034.185.37.554.37 1.479-.185 2.034-.185.185-.554.185-.924.185-.555 0-.925 0-1.11-.37Zm246.14-6.103c-.74-.37-.925-1.109-.74-1.849.37-.74 1.11-1.11 1.849-.74.74.37.925 1.11.74 1.85-.185.554-.74.739-1.294.739h-.555Zm-233.565-1.479c-.37-.74 0-1.48.74-1.849.74-.37 1.48 0 1.85.739.37.74 0 1.48-.74 1.85-.185 0-.37.185-.555.185-.555-.185-.925-.37-1.295-.925Zm219.88-3.699c-.74-.185-1.109-.924-.925-1.664.185-.74.925-1.11 1.665-.925.739.185 1.109.925.924 1.665a1.39 1.39 0 0 1-1.294.924h-.37Zm-206.01-1.479c-.185-.74.185-1.48.924-1.664.74-.185 1.48.184 1.665.924.185.74-.185 1.48-.925 1.665h-.37a1.39 1.39 0 0 1-1.294-.925Zm191.771-2.404c-.74-.185-1.11-.925-1.11-1.665.185-.739.925-1.109 1.664-.924.74.185 1.295.924 1.11 1.664-.185.555-.74 1.11-1.295 1.11-.184-.185-.184-.185-.369-.185Zm-177.347-1.48c-.185-.739.37-1.479 1.11-1.664.74-.185 1.479.37 1.664 1.11.185.739-.37 1.479-1.109 1.664h-.37c-.74 0-1.295-.37-1.295-1.11Zm162.922-1.479c-.74-.185-1.294-.925-1.109-1.664.185-.74.924-1.295 1.664-1.11.74.185 1.294.925 1.11 1.664-.185.74-.74 1.11-1.295 1.11h-.37Zm-148.497-1.479c-.185-.74.37-1.48 1.109-1.665.74-.185 1.48.37 1.665 1.11.185.739-.37 1.479-1.11 1.664h-.185c-.74.185-1.294-.37-1.479-1.109Zm133.888-.74c-.74-.185-1.295-.74-1.11-1.48 0-.739.74-1.294 1.48-1.109.739 0 1.294.74 1.109 1.479 0 .555-.555 1.11-1.479 1.11.185 0 .185 0 0 0Zm-119.279-1.48c0-.739.37-1.479 1.11-1.479.739-.185 1.479.37 1.479 1.11 0 .739-.37 1.479-1.11 1.479h-.184c-.555.185-1.11-.37-1.295-1.11Zm104.67-.185c-.74 0-1.295-.739-1.295-1.479 0-.74.74-1.294 1.479-1.294.74 0 1.295.739 1.295 1.479 0 .74-.555 1.294-1.479 1.294Zm-89.876-1.479c0-.74.555-1.479 1.295-1.479.74 0 1.479.554 1.479 1.294s-.555 1.48-1.294 1.48h-.185c-.74 0-1.295-.555-1.295-1.295Zm75.081.37c-.739 0-1.294-.74-1.294-1.48 0-.739.739-1.294 1.479-1.294.74 0 1.295.74 1.295 1.479 0 .74-.555 1.295-1.48 1.295.185 0 .185 0 0 0Zm-60.471-1.48c0-.739.554-1.479 1.294-1.479s1.48.555 1.48 1.295c0 .739-.555 1.479-1.295 1.479-.74 0-1.294-.555-1.479-1.295Zm45.862.74c-.74 0-1.295-.74-1.295-1.479 0-.74.74-1.295 1.48-1.295s1.294.74 1.294 1.48c-.185.739-.739 1.294-1.479 1.294Zm-31.068-1.294c0-.74.555-1.48 1.294-1.48.74 0 1.48.555 1.48 1.295 0 .739-.555 1.479-1.295 1.479-.739 0-1.294-.555-1.479-1.294Zm16.274 1.109c-.74 0-1.295-.555-1.295-1.479 0-.74.555-1.48 1.295-1.48.739 0 1.479.555 1.479 1.48-.185.924-.74 1.479-1.479 1.479ZM340.768 149.432c-1.294 0-2.589-.924-2.774-2.404-.185-1.479.74-2.959 2.404-3.144 19.418-2.958 26.445-7.766 26.445-10.171 0-5.178-22.746-12.39-59.917-12.39-37.17 0-59.916 7.212-59.916 12.39 0 2.405 7.027 7.213 26.444 10.171 1.48.185 2.589 1.665 2.404 3.144-.185 1.48-1.664 2.589-3.143 2.404-14.24-2.219-31.253-6.657-31.253-15.719 0-14.239 41.054-17.938 65.464-17.938 24.411 0 65.465 3.699 65.465 17.938 0 9.062-17.013 13.5-31.253 15.719h-.37Z"/><path fill="#222" d="m265.502 137.782 6.473 8.507-8.507 6.472 6.288.925 8.506-6.472-6.472-8.507-6.288-.925ZM348.535 137.782l-6.472 8.507 8.506 6.472-6.287.925-8.507-6.472 6.473-8.507 6.287-.925Z"/><path fill="#F5F4F3" d="M274.934 71.763h63.985c9.246 0 16.828 7.582 16.828 16.828v30.883c0 9.247-7.582 16.829-16.828 16.829h-63.985c-9.247 0-16.829-7.582-16.829-16.829V88.591c.185-9.246 7.582-16.828 16.829-16.828Z"/><path fill="#222" d="M339.104 137.597h-63.985c-9.987 0-18.123-8.137-18.123-18.123V88.591c0-9.986 8.136-18.123 18.123-18.123h63.985c9.986 0 18.123 8.137 18.123 18.123v30.883c0 9.986-8.137 18.123-18.123 18.123Zm-64.17-64.355a15.311 15.311 0 0 0-15.349 15.349v30.883a15.311 15.311 0 0 0 15.349 15.349h63.985a15.311 15.311 0 0 0 15.349-15.349V88.591a15.311 15.311 0 0 0-15.349-15.35h-63.985Z"/><path fill="#000" d="M279.002 100.796c1.664 0 2.959-.37 3.884-1.11.924-.74 1.294-1.664 1.294-2.774v-.37c0-1.294-.37-2.219-1.109-2.958-.74-.74-1.85-1.11-3.329-1.11-1.48 0-2.589.37-3.514.925-1.109.555-1.849 1.48-2.589 2.774l-3.698-3.329c.554-.74 1.109-1.294 1.664-2.034.555-.74 1.294-1.11 2.219-1.665.74-.37 1.664-.74 2.774-1.11 1.11-.184 2.219-.369 3.514-.369 1.479 0 2.959.185 4.253.555 1.295.37 2.404.924 3.329 1.664.924.74 1.664 1.48 2.034 2.404.555.925.74 2.034.74 3.329 0 .925-.185 1.85-.37 2.589-.37.74-.74 1.48-1.295 2.034-.554.555-1.109 1.11-1.849 1.48-.74.369-1.479.554-2.219.739v.185c.925.185 1.664.37 2.404.925.74.37 1.479.924 2.034 1.479.555.555 1.11 1.295 1.295 2.219.37.925.554 1.85.554 2.774 0 1.295-.184 2.589-.739 3.699a8.206 8.206 0 0 1-2.219 2.774c-.925.74-2.22 1.479-3.514 1.849-1.295.37-2.959.555-4.623.555-1.48 0-2.774-.185-3.884-.37-1.109-.37-2.034-.74-2.959-1.294-.924-.555-1.664-1.11-2.219-1.85-.739-.739-1.109-1.479-1.664-2.219l4.253-3.144 1.11 1.665c.37.554.924.924 1.479 1.294s1.11.74 1.85.925c.739.185 1.479.37 2.219.37 1.664 0 2.959-.37 3.883-1.295.925-.74 1.295-1.849 1.295-3.329v.185c0-1.479-.555-2.404-1.48-3.143-.924-.74-2.404-1.11-4.253-1.11h-3.514v-4.808h2.959ZM306.926 119.474c-1.664 0-3.328-.37-4.623-.925-1.294-.555-2.589-1.294-3.514-2.404-.924-1.109-1.664-2.219-2.219-3.698-.554-1.48-.739-3.144-.739-4.993 0-2.22.369-4.254.924-6.103.555-1.85 1.48-3.699 2.589-5.363 1.11-1.664 2.219-2.959 3.514-4.253 1.294-1.295 2.589-2.404 3.883-3.144h7.767c-1.849 1.294-3.328 2.589-4.808 3.698-1.479 1.11-2.589 2.404-3.698 3.699-1.11 1.294-1.85 2.404-2.589 3.883-.74 1.295-1.11 2.774-1.48 4.254h.37c.37-.555.555-1.11 1.11-1.665l1.479-1.479c.555-.555 1.11-.74 1.849-.925.74-.184 1.665-.37 2.589-.37 1.295 0 2.404.185 3.514.555 1.11.37 2.034 1.11 2.774 1.85.74.739 1.479 1.849 1.849 2.958.37 1.11.74 2.405.74 3.884s-.185 2.959-.74 4.253c-.555 1.295-1.294 2.404-2.219 3.329-.925.925-2.034 1.664-3.514 2.219-1.664.37-3.143.74-4.808.74Zm0-4.438c1.665 0 2.774-.37 3.699-1.295.924-.925 1.294-2.219 1.294-3.698v-.555c0-1.665-.37-2.959-1.294-3.699-.925-.924-2.219-1.294-3.699-1.294-1.479 0-2.959.37-3.698 1.294-.925.925-1.295 2.219-1.295 3.699v.37c0 1.664.37 2.958 1.295 3.698.739.925 2.034 1.48 3.698 1.48ZM332.816 119.474c-2.034 0-3.698-.37-4.993-1.11-1.479-.74-2.589-1.664-3.513-3.144-.925-1.479-1.665-2.959-2.035-4.993-.37-1.849-.739-4.068-.739-6.657 0-2.589.185-4.623.739-6.658.555-2.034 1.11-3.513 2.035-4.993.924-1.48 2.034-2.404 3.513-3.143 1.48-.74 3.144-1.11 4.993-1.11 3.884 0 6.658 1.294 8.507 4.068 1.849 2.774 2.774 6.658 2.774 11.466 0 4.808-.925 8.877-2.774 11.466-1.849 3.513-4.623 4.808-8.507 4.808Zm0-4.808c2.034 0 3.329-.74 4.069-2.22.739-1.479 1.109-3.513 1.109-5.917v-5.548c0-2.404-.37-4.438-1.109-5.918-.74-1.48-2.035-2.219-4.069-2.219s-3.328.74-4.068 2.22c-.74 1.479-1.11 3.513-1.11 5.917v5.548c0 2.404.37 4.438 1.11 5.917.74 1.48 2.034 2.22 4.068 2.22Z"/><path fill="#444" d="M53.39 319.937h157.373V210.644l-7.212-7.952H46.177v109.293l7.212 7.952Z"/><path fill="#222" d="M210.764 321.231H53.389c-.37 0-.74-.185-1.11-.37l-7.211-7.952a1.413 1.413 0 0 1-.37-.924V202.877c0-.74.555-1.48 1.48-1.48H203.55c.37 0 .74.185 1.11.37l7.212 7.952c.185.185.37.555.37.925v109.108c-.185.924-.74 1.479-1.479 1.479Zm-156.82-2.774h155.34V211.199l-6.287-7.028H47.657V311.43l6.287 7.027Z"/><path fill="#FF3158" d="M204.106 202.691H46.732v109.108h157.374V202.691Z"/><path fill="#222" d="M204.106 313.278H46.732c-.74 0-1.48-.554-1.48-1.479V202.691c0-.739.555-1.479 1.48-1.479h157.374c.74 0 1.48.555 1.48 1.479v109.108c-.185.925-.74 1.479-1.48 1.479Zm-156.08-2.773h154.601V204.171h-154.6v106.334Z"/><path fill="#fff" d="M107.019 232.65v54.184l49.006-25.335-49.006-28.849Z"/><path fill="#222" d="M104.06 285.725c-.185 0-.555 0-.74-.185-.37-.185-.74-.74-.74-1.11v-53.999c0-.555.185-.924.74-1.294.37-.185.925-.185 1.48 0l49.006 28.849c.369.185.739.739.739 1.294s-.37.925-.739 1.11l-49.191 25.15c-.185.185-.37.185-.555.185Zm1.294-52.89v49.376l44.753-23.116-44.753-26.26Z"/><path fill="#fff" d="M76.875 248.554h-27v22.376h27v-22.376ZM201.887 248.554h-24.78v22.376h24.78v-22.376ZM76.875 285.354h-27v22.377h27v-22.377ZM201.887 285.354h-24.78v22.377h24.78v-22.377ZM76.875 212.493h-27v22.376h27v-22.376Z"/><path fill="#222" d="M77.06 232.835H46.732c-.74 0-1.48-.555-1.48-1.48v-21.636c0-.74.555-1.48 1.48-1.48H77.06c.74 0 1.48.555 1.48 1.48v21.821c-.185.74-.74 1.295-1.48 1.295Zm-29.033-2.774H75.58v-19.048H48.027v19.048ZM77.06 269.636H46.732c-.74 0-1.48-.555-1.48-1.48v-21.821c0-.74.555-1.48 1.48-1.48H77.06c.74 0 1.48.555 1.48 1.48v21.821c-.185.74-.74 1.48-1.48 1.48Zm-29.033-2.774H75.58v-19.048H48.027v19.048ZM77.06 306.252H46.732c-.74 0-1.48-.555-1.48-1.479v-21.822c0-.74.555-1.479 1.48-1.479H77.06c.74 0 1.48.554 1.48 1.479v21.822c-.185.924-.74 1.479-1.48 1.479Zm-29.033-2.774H75.58v-19.047H48.027v19.047Z"/><path fill="#fff" d="M201.887 212.493h-24.78v22.376h24.78v-22.376Z"/><path fill="#222" d="M204.106 232.835h-30.328c-.74 0-1.48-.555-1.48-1.48v-21.636c0-.74.555-1.48 1.48-1.48h30.328c.74 0 1.48.555 1.48 1.48v21.821c0 .74-.74 1.295-1.48 1.295Zm-28.849-2.774h27.555v-19.048h-27.555v19.048ZM204.106 269.636h-30.328c-.74 0-1.48-.555-1.48-1.48v-21.821c0-.74.555-1.48 1.48-1.48h30.328c.74 0 1.48.555 1.48 1.48v21.821c0 .74-.74 1.48-1.48 1.48Zm-28.849-2.774h27.555v-19.048h-27.555v19.048ZM204.106 306.252h-30.328c-.74 0-1.48-.555-1.48-1.479v-21.822c0-.74.555-1.479 1.48-1.479h30.328c.74 0 1.48.554 1.48 1.479v21.822c0 .924-.74 1.479-1.48 1.479Zm-28.849-2.774h27.555v-19.047h-27.555v19.047Z"/></svg>