<svg xmlns="http://www.w3.org/2000/svg" width="400" height="401" fill="none" viewBox="0 0 400 401"><path fill="#F5F4F3" d="m346.521 279.679-38.585-16.92v-71.34l38.585-15.765v104.025Z"/><path fill="#DADADA" d="M298.73 302.005H81.015v-151.05l9.89-10.935H308.62v151.05l-9.89 10.935Z"/><path fill="#222" d="M298.73 303.39H81.015c-.765 0-1.385-.62-1.385-1.385v-151.05c0-.345.125-.675.36-.93l9.89-10.935c.26-.29.635-.455 1.025-.455h217.71c.765 0 1.385.62 1.385 1.385v151.055c0 .345-.125.675-.36.93l-9.89 10.935c-.26.29-.635.455-1.025.455l.005-.005ZM82.4 300.62h215.715l9.12-10.085V141.4H91.52l-9.12 10.085V300.62Z"/><path fill="#444" d="M138.23 156.01c14.558 0 26.36-11.802 26.36-26.36s-11.802-26.36-26.36-26.36-26.36 11.802-26.36 26.36 11.802 26.36 26.36 26.36Z"/><path fill="#222" d="M138.23 157.395c-15.3 0-27.745-12.445-27.745-27.745s12.445-27.745 27.745-27.745 27.745 12.445 27.745 27.745-12.445 27.745-27.745 27.745Zm0-52.725c-13.77 0-24.98 11.205-24.98 24.98s11.205 24.98 24.98 24.98 24.98-11.205 24.98-24.98-11.205-24.98-24.98-24.98Z"/><path fill="#444" d="M214.05 156.944c22.298 0 40.375-18.076 40.375-40.375 0-22.298-18.077-40.375-40.375-40.375-22.299 0-40.375 18.077-40.375 40.375 0 22.299 18.076 40.375 40.375 40.375Z"/><path fill="#222" d="M214.055 158.33c-23.025 0-41.76-18.735-41.76-41.76s18.735-41.76 41.76-41.76 41.76 18.735 41.76 41.76-18.735 41.76-41.76 41.76Zm0-80.75c-21.5 0-38.99 17.49-38.99 38.99 0 21.5 17.49 38.99 38.99 38.99 21.5 0 38.99-17.49 38.99-38.99 0-21.5-17.49-38.99-38.99-38.99Z"/><path fill="#FF3158" d="M308.614 140.02H90.904v151.055h217.71V140.02Z"/><path fill="#222" d="M308.619 292.455H90.909c-.765 0-1.385-.62-1.385-1.385V140.02c0-.765.62-1.385 1.385-1.385h217.71c.765 0 1.385.62 1.385 1.385v151.055c0 .765-.62 1.385-1.385 1.385v-.005Zm-216.33-2.77h214.945V141.4H92.289v148.285Z"/><path fill="#222" d="M347.199 274.941c-.19 0-.38-.04-.555-.115l-38.58-16.915c-.505-.22-.83-.72-.83-1.27v-71.34c0-.56.34-1.07.86-1.28l38.58-15.765a1.377 1.377 0 0 1 1.905 1.28v104.025c0 .465-.235.905-.625 1.16-.23.15-.49.225-.755.225v-.005Zm-37.195-19.205 35.81 15.705v-99.845l-35.81 14.635v69.505Z"/><path fill="#fff" d="M173.675 171.016v94.525l67.8-44.19-67.8-50.335Z"/><path fill="#222" d="M179.485 265.445c-.225 0-.455-.055-.66-.165a1.385 1.385 0 0 1-.725-1.215V169.54a1.382 1.382 0 0 1 2.205-1.11l67.8 50.335c.365.27.57.7.56 1.155-.015.455-.25.87-.63 1.12l-67.8 44.19c-.23.15-.49.225-.755.225l.005-.01Zm1.385-93.16v89.22l63.995-41.71-63.995-47.51Z"/><path fill="#DADADA" d="M140.4 153.685c14.558 0 26.36-11.802 26.36-26.36s-11.802-26.36-26.36-26.36-26.36 11.802-26.36 26.36 11.802 26.36 26.36 26.36Z"/><path fill="#222" d="M140.4 155.075c-15.3 0-27.745-12.445-27.745-27.745S125.1 99.585 140.4 99.585s27.745 12.445 27.745 27.745-12.445 27.745-27.745 27.745Zm0-52.725c-13.77 0-24.98 11.205-24.98 24.98s11.205 24.98 24.98 24.98 24.98-11.205 24.98-24.98-11.205-24.98-24.98-24.98Z"/><path fill="#DADADA" d="M216.575 154.245c22.299 0 40.375-18.076 40.375-40.375 0-22.298-18.076-40.375-40.375-40.375-22.298 0-40.375 18.077-40.375 40.375 0 22.299 18.077 40.375 40.375 40.375Z"/><path fill="#222" d="M216.575 155.635c-23.025 0-41.76-18.735-41.76-41.76s18.735-41.76 41.76-41.76 41.76 18.735 41.76 41.76-18.735 41.76-41.76 41.76Zm0-80.75c-21.5 0-38.99 17.49-38.99 38.99 0 21.5 17.49 38.99 38.99 38.99 21.5 0 38.99-17.49 38.99-38.99 0-21.5-17.49-38.99-38.99-38.99Z"/><path fill="#fff" d="M216.575 145.759c17.612 0 31.89-14.277 31.89-31.89 0-17.612-14.278-31.89-31.89-31.89-17.613 0-31.89 14.278-31.89 31.89 0 17.613 14.277 31.89 31.89 31.89Z"/><path fill="#222" d="M216.575 147.145c-18.345 0-33.275-14.925-33.275-33.275 0-18.35 14.925-33.275 33.275-33.275 18.35 0 33.275 14.925 33.275 33.275 0 18.35-14.925 33.275-33.275 33.275Zm0-63.78c-16.82 0-30.505 13.685-30.505 30.505s13.685 30.505 30.505 30.505 30.505-13.685 30.505-30.505-13.685-30.505-30.505-30.505Z"/><path fill="#fff" d="M140.399 146.065c10.35 0 18.74-8.39 18.74-18.74 0-10.35-8.39-18.74-18.74-18.74-10.35 0-18.74 8.39-18.74 18.74 0 10.35 8.39 18.74 18.74 18.74Z"/><path fill="#222" d="M140.399 147.45c-11.095 0-20.125-9.03-20.125-20.125s9.03-20.125 20.125-20.125 20.125 9.03 20.125 20.125-9.03 20.125-20.125 20.125Zm0-37.48c-9.57 0-17.355 7.785-17.355 17.355s7.785 17.355 17.355 17.355 17.355-7.785 17.355-17.355-7.785-17.355-17.355-17.355Z"/><path fill="#fff" d="M128.951 197.545H99.976v16.56h28.975v-16.56Z"/><path fill="#222" d="M132.246 210.955h-26.47c-.765 0-1.385-.62-1.385-1.385v-15.65c0-.765.62-1.385 1.385-1.385h26.47c.765 0 1.385.62 1.385 1.385v15.65c0 .765-.62 1.385-1.385 1.385Zm-25.085-2.77h23.705v-12.88h-23.705v12.88Z"/><path fill="#fff" d="M128.951 169.535H99.976v16.56h28.975v-16.56Z"/><path fill="#222" d="M132.246 182.495h-26.47c-.765 0-1.385-.62-1.385-1.385v-15.65c0-.765.62-1.385 1.385-1.385h26.47c.765 0 1.385.62 1.385 1.385v15.65c0 .765-.62 1.385-1.385 1.385Zm-25.085-2.77h23.705v-12.88h-23.705v12.88Z"/></svg>