<svg xmlns="http://www.w3.org/2000/svg" width="400" height="400" fill="none" viewBox="0 0 400 400"><path fill="#DADADA" d="M241.565 217.32 346 238.53c7.91 1.605 15.41-3.91 15.41-11.33v-88.3c0-6.39-4.845-11.92-11.655-13.3l-117.64-23.895c-5.58-1.135-10.875 2.755-10.875 7.995v84.42c0 11.14 8.45 20.785 20.32 23.195l.005.005Z"/><path fill="#F5F4F3" d="M354.46 235.384a15.35 15.35 0 0 1-3.045-.31l-2.77-.56.55-2.715 2.77.56c1.375.28 2.775.325 4.1.15l.37 2.745c-.645.085-1.31.13-1.975.13Zm-13.075-2.345-7.26-1.475.55-2.715 7.26 1.475-.55 2.715Zm22.46-1-1.77-2.125c1.745-1.455 2.925-3.325 3.4-5.41l2.7.62c-.615 2.68-2.115 5.075-4.33 6.915Zm-36.98-1.95-7.265-1.475.55-2.715 7.265 1.475-.55 2.715Zm-14.525-2.95-7.26-1.475.55-2.715 7.26 1.475-.55 2.715Zm-14.525-2.95-7.26-1.475.55-2.715 7.26 1.475-.55 2.715Zm-14.525-2.95-7.26-1.475.55-2.715 7.26 1.475-.55 2.715Zm-14.525-2.95-7.26-1.475.55-2.715 7.26 1.475-.55 2.715Zm99.72-.87h-2.77v-7.41h2.77v7.41Zm-114.24-2.08-7.26-1.475.185-1.375.305-1.35 7.325 1.485-.55 2.715h-.005Zm-14.68-4.065a27.328 27.328 0 0 1-6.35-4.495l1.91-2.005c1.68 1.6 3.595 2.96 5.705 4.04l-1.265 2.46Zm128.92-8.675h-2.77v-7.41h2.77v7.41Zm-140.03-2.005a23.553 23.553 0 0 1-2.575-7.395l2.73-.46c.385 2.27 1.15 4.47 2.28 6.53l-2.43 1.325h-.005Zm140.03-12.815h-2.77v-7.41h2.77v7.41Zm-140.165-2.2h-2.77v-7.41h2.77v7.41Zm140.165-12.615h-2.77v-7.41h2.77v7.41Zm-140.165-2.2h-2.77v-7.41h2.77v7.41Zm140.165-12.62h-2.77v-7.41h2.77v7.41Zm-140.165-2.2h-2.77v-7.41h2.77v7.41Zm140.165-12.62h-2.77v-7.41h2.77v7.41Zm-140.165-2.2h-2.77v-7.41h2.77v7.41Zm136.31-11.845c-.93-1.97-2.425-3.695-4.32-4.985l1.555-2.29c2.3 1.565 4.125 3.675 5.265 6.09l-2.5 1.18v.005Zm-136.31-2.975h-2.77v-7.41h2.77v7.41Zm125.625-4.4-7.26-1.475.55-2.715 7.26 1.475-.55 2.715Zm-14.525-2.95-7.26-1.475.55-2.715 7.26 1.475-.55 2.715Zm-14.525-2.95-7.26-1.475.55-2.715 7.26 1.475-.55 2.715Zm-14.525-2.95-7.26-1.475.55-2.715 7.26 1.475-.55 2.715Zm-82.055-1.57h-2.77v-6.59c0-.33.02-.65.05-.965l2.755.295c-.025.22-.035.445-.035.67v6.59Zm67.53-1.38-7.26-1.475.55-2.715 7.26 1.475-.55 2.715Zm-14.525-2.95-7.26-1.475.55-2.715 7.26 1.475-.55 2.715Zm-14.525-2.95-7.26-1.475.55-2.715 7.26 1.475-.55 2.715Zm-14.525-2.95-7.26-1.475.55-2.715 7.26 1.475-.55 2.715Zm-20.66-1.98-1.45-2.355c2.325-1.425 5.185-1.92 7.91-1.37l.22.045-.55 2.715-.225-.045c-2.045-.415-4.185-.05-5.915 1.015l.01-.005Z"/><path fill="#F5F4F3" d="m313.16 253.264-33.47-14.675v-61.89l33.47-13.675v90.24Z"/><path fill="#444" d="M271.705 272.634H82.84v-131.04l8.58-9.485h188.865v131.04l-8.58 9.485Z"/><path fill="#222" d="M271.705 274.02H82.84c-.765 0-1.385-.62-1.385-1.385v-131.04c0-.345.125-.675.36-.93l8.58-9.485c.26-.29.635-.455 1.025-.455h188.865c.765 0 1.385.62 1.385 1.385v131.04c0 .345-.125.675-.36.93l-8.58 9.485c-.26.29-.635.455-1.025.455Zm-187.48-2.77H271.09l7.81-8.635v-129.12H92.03l-7.81 8.635v129.12h.005Z"/><path fill="#444" d="M132.47 145.984c12.63 0 22.87-10.239 22.87-22.87s-10.24-22.87-22.87-22.87c-12.631 0-22.87 10.239-22.87 22.87s10.239 22.87 22.87 22.87Z"/><path fill="#222" d="M132.47 147.369c-13.375 0-24.255-10.88-24.255-24.255 0-13.375 10.88-24.255 24.255-24.255 13.375 0 24.255 10.88 24.255 24.255 0 13.375-10.88 24.255-24.255 24.255Zm0-45.74c-11.845 0-21.485 9.64-21.485 21.485 0 11.845 9.64 21.485 21.485 21.485 11.845 0 21.485-9.64 21.485-21.485 0-11.845-9.64-21.485-21.485-21.485Z"/><path fill="#444" d="M198.245 146.789c19.343 0 35.025-15.681 35.025-35.025 0-19.343-15.682-35.025-35.025-35.025-19.344 0-35.025 15.681-35.025 35.025s15.681 35.025 35.025 35.025Z"/><path fill="#222" d="M198.245 148.179c-20.075 0-36.41-16.335-36.41-36.41 0-20.075 16.335-36.41 36.41-36.41 20.075 0 36.41 16.335 36.41 36.41 0 20.075-16.335 36.41-36.41 36.41Zm0-70.055c-18.55 0-33.64 15.09-33.64 33.64s15.09 33.64 33.64 33.64 33.64-15.09 33.64-33.64-15.09-33.64-33.64-33.64Z"/><path fill="#FF3158" d="M280.284 132.109H91.419v131.04h188.865v-131.04Z"/><path fill="#222" d="M280.285 264.53H91.42c-.765 0-1.385-.62-1.385-1.385V132.11c0-.765.62-1.385 1.385-1.385h188.865c.765 0 1.385.62 1.385 1.385v131.04c0 .765-.62 1.385-1.385 1.385v-.005Zm-187.48-2.77H278.9V133.495H92.8v128.27l.005-.005Z"/><path fill="#222" d="M313.755 249.339c-.19 0-.38-.04-.555-.115l-33.47-14.675c-.505-.22-.83-.72-.83-1.27v-61.885c0-.56.34-1.07.86-1.28l33.47-13.68a1.387 1.387 0 0 1 1.91 1.28v90.24c0 .465-.235.905-.625 1.16-.23.15-.49.225-.755.225h-.005Zm-32.085-16.965 30.7 13.46v-86.06l-30.7 12.545v60.055Z"/><path fill="#fff" d="M163.22 159v82l58.82-38.335L163.22 159Z"/><path fill="#222" d="M168.26 241.099c-.225 0-.455-.055-.66-.165a1.385 1.385 0 0 1-.725-1.215v-82a1.382 1.382 0 0 1 2.205-1.11l58.815 43.665c.365.27.57.7.56 1.155-.015.455-.25.87-.63 1.115l-58.815 38.335c-.23.15-.49.225-.755.225l.005-.005Zm1.385-80.635v76.695l55.01-35.855-55.01-40.84Z"/><path fill="#DADADA" d="M134.355 143.969c12.631 0 22.87-10.239 22.87-22.87 0-12.63-10.239-22.87-22.87-22.87s-22.87 10.24-22.87 22.87c0 12.631 10.239 22.87 22.87 22.87Z"/><path fill="#222" d="M134.355 145.355c-13.375 0-24.255-10.88-24.255-24.255 0-13.375 10.88-24.255 24.255-24.255 13.375 0 24.255 10.88 24.255 24.255 0 13.375-10.88 24.255-24.255 24.255Zm0-45.74c-11.845 0-21.485 9.64-21.485 21.485 0 11.845 9.64 21.485 21.485 21.485 11.845 0 21.485-9.64 21.485-21.485 0-11.845-9.64-21.485-21.485-21.485Z"/><path fill="#DADADA" d="M200.435 144.454c19.344 0 35.025-15.681 35.025-35.025s-15.681-35.025-35.025-35.025-35.025 15.681-35.025 35.025 15.681 35.025 35.025 35.025Z"/><path fill="#222" d="M200.435 145.84c-20.075 0-36.41-16.335-36.41-36.41 0-20.076 16.335-36.41 36.41-36.41 20.075 0 36.41 16.335 36.41 36.41 0 20.075-16.335 36.41-36.41 36.41Zm0-70.056c-18.55 0-33.64 15.09-33.64 33.641 0 18.55 15.09 33.64 33.64 33.64s33.64-15.09 33.64-33.64-15.09-33.64-33.64-33.64Z"/><path fill="#fff" d="M200.435 137.095c15.278 0 27.665-12.386 27.665-27.665 0-15.28-12.387-27.665-27.665-27.665-15.279 0-27.665 12.386-27.665 27.665s12.386 27.665 27.665 27.665Z"/><path fill="#222" d="M200.435 138.475c-16.015 0-29.05-13.03-29.05-29.05 0-16.02 13.03-29.05 29.05-29.05 16.02 0 29.05 13.03 29.05 29.05 0 16.02-13.03 29.05-29.05 29.05Zm0-55.33c-14.49 0-26.28 11.79-26.28 26.28 0 14.49 11.79 26.28 26.28 26.28 14.49 0 26.28-11.79 26.28-26.28 0-14.49-11.79-26.28-26.28-26.28Z"/><path fill="#fff" d="M134.355 137.359c8.98 0 16.26-7.28 16.26-16.26s-7.28-16.26-16.26-16.26-16.26 7.28-16.26 16.26 7.28 16.26 16.26 16.26Z"/><path fill="#222" d="M134.355 138.739c-9.73 0-17.64-7.915-17.64-17.64 0-9.725 7.915-17.64 17.64-17.64 9.725 0 17.64 7.915 17.64 17.64 0 9.725-7.915 17.64-17.64 17.64Zm0-32.515c-8.2 0-14.875 6.67-14.875 14.875s6.67 14.875 14.875 14.875 14.875-6.67 14.875-14.875-6.67-14.875-14.875-14.875Z"/><path fill="#fff" d="M124.42 182.015H99.285v14.365h25.135v-14.365Z"/><path fill="#222" d="M127.275 193.829H104.31c-.765 0-1.385-.62-1.385-1.385v-13.575c0-.765.62-1.385 1.385-1.385h22.965c.765 0 1.385.62 1.385 1.385v13.575c0 .765-.62 1.385-1.385 1.385Zm-21.58-2.77h20.195v-10.81h-20.195v10.81Z"/><path fill="#fff" d="M124.42 157.715H99.285v14.365h25.135v-14.365Z"/><path fill="#222" d="M127.275 169.14H104.31c-.765 0-1.385-.62-1.385-1.385V154.18c0-.765.62-1.385 1.385-1.385h22.965c.765 0 1.385.62 1.385 1.385v13.575c0 .765-.62 1.385-1.385 1.385Zm-21.58-2.77h20.195v-10.81h-20.195v10.81Z"/><path fill="#DADADA" d="m32.9 273.621 97.435 27.14 4.665-3.275v-63.96l-97.04-26.895-5.06 3.18v63.81Z"/><path fill="#222" d="M130.336 302.146a1.32 1.32 0 0 1-.37-.05l-97.435-27.14a1.382 1.382 0 0 1-1.015-1.335v-63.81c0-.475.245-.92.65-1.17l5.06-3.18c.33-.205.73-.265 1.105-.16l97.035 26.9c.6.165 1.015.71 1.015 1.335v63.955c0 .45-.22.875-.59 1.13l-4.66 3.275c-.235.165-.515.25-.795.25Zm-96.05-29.575 95.79 26.68 3.54-2.485v-62.185l-95.435-26.455-3.895 2.45v61.995Z"/><path fill="#fff" d="m32.9 273.621 97.435 27.14v-64.11L32.9 209.811v63.81Z"/><path fill="#222" d="M130.336 302.146a1.32 1.32 0 0 1-.37-.05l-97.435-27.14a1.382 1.382 0 0 1-1.015-1.335v-63.81c0-.43.2-.84.545-1.1.345-.26.79-.35 1.205-.235l97.435 26.84c.6.165 1.015.71 1.015 1.335v64.11c0 .435-.2.84-.545 1.1-.245.185-.54.28-.835.28v.005Zm-96.05-29.575 94.67 26.37v-61.235l-94.67-26.08v60.945Z"/><path fill="#FF3158" d="M71.27 235.166v36.215l22.305-14.545-22.306-21.67Z"/><path fill="#222" d="M71.27 272.766c-.225 0-.455-.055-.66-.165a1.385 1.385 0 0 1-.725-1.215v-36.215a1.387 1.387 0 0 1 2.35-.995l22.305 21.67c.3.295.455.71.415 1.125-.04.42-.27.795-.62 1.025L72.03 272.541c-.23.15-.49.225-.755.225h-.005Zm1.385-34.325v30.385l18.71-12.205-18.71-18.18ZM134.214 232.399l-4.661 3.122 1.542 2.302 4.661-3.123-1.542-2.301Z"/></svg>