<svg xmlns="http://www.w3.org/2000/svg" width="400" height="401" fill="none" viewBox="0 0 400 401"><path fill="#444" d="M367.3 293.555 149.545 226.86v-164L367.3 129.695v163.86Z"/><path fill="#222" d="M367.3 294.946c-.135 0-.275-.02-.405-.06l-217.755-66.7a1.39 1.39 0 0 1-.98-1.33V62.866c0-.44.21-.855.565-1.115s.81-.34 1.235-.21l217.755 66.83c.585.18.98.72.98 1.33v163.865a1.383 1.383 0 0 1-1.39 1.385l-.005-.005Zm-216.365-69.115 214.975 65.85v-160.96l-214.975-65.98v161.09Z"/><path fill="#fff" d="m363.38 295.816-217.75-66.7V65.121l217.75 66.83v163.865Z"/><path fill="#222" d="M363.38 297.206c-.135 0-.275-.02-.405-.06l-217.755-66.7a1.39 1.39 0 0 1-.98-1.33V65.121c0-.44.21-.855.565-1.115s.81-.34 1.235-.21l217.755 66.83c.585.18.98.72.98 1.33v163.865a1.383 1.383 0 0 1-1.39 1.385h-.005Zm-216.365-69.115 214.975 65.85v-160.96l-214.97-65.98v161.09h-.005Z"/><path fill="#444" d="m145.63 229.115 217.75 66.7V256.08l-159.945-65.8-57.805 1.79v37.045Z"/><path fill="#222" d="m364.77 297.696-220.53-67.55v-39.415l59.45-1.84 161.085 66.27v42.54l-.005-.005Zm-217.755-69.605 214.975 65.85v-36.925l-158.815-65.335-56.165 1.74v34.67h.005Z"/><path fill="#DADADA" d="m326.865 221.516-71.885-29.47v-71.87l71.885 29.245v72.095Z"/><path fill="#222" d="M321.965 213.956c-.18 0-.355-.035-.525-.105l-71.885-29.47c-.52-.215-.86-.72-.86-1.285v-71.87c0-.46.23-.895.615-1.15.385-.26.87-.31 1.3-.135l71.885 29.245c.525.215.865.72.865 1.285v72.095a1.39 1.39 0 0 1-1.39 1.39h-.005Zm-70.495-31.79 69.105 28.33v-69.09l-69.105-28.115v68.875Z"/><path fill="#222" d="M287.36 125.826h-2.78v71.985h2.78v-71.985Z"/><path fill="#222" d="m250.63 145.898-1.051 2.574 71.884 29.364 1.051-2.573-71.884-29.365ZM204.825 82.86h-2.78v107.42h2.78V82.86Z"/><path fill="#DADADA" d="M359.945 194.595c0 11.765-9.54 18.38-21.305 14.77-11.765-3.605-21.305-16.07-21.305-27.835s9.54-18.38 21.305-14.77c11.765 3.61 21.305 16.07 21.305 27.835Z"/><path fill="#222" d="M344.935 211.75c-2.145 0-4.395-.35-6.7-1.055-12.29-3.77-22.29-16.85-22.29-29.165 0-5.96 2.295-10.945 6.465-14.025 4.425-3.27 10.33-4.005 16.635-2.07 12.29 3.77 22.285 16.85 22.285 29.165 0 5.96-2.295 10.94-6.465 14.025-2.805 2.075-6.21 3.13-9.935 3.13l.005-.005Zm-12.575-44.595c-3.135 0-5.98.87-8.295 2.58-3.445 2.545-5.34 6.735-5.34 11.79 0 11.18 9.12 23.075 20.325 26.51 5.44 1.67 10.475 1.08 14.17-1.65 3.445-2.545 5.34-6.735 5.34-11.79 0-11.18-9.115-23.07-20.32-26.51-2.03-.625-4.005-.93-5.875-.93h-.005Z"/><path fill="#222" d="M340.03 208.45h-2.78v48.37h2.78v-48.37Z"/><path fill="#fff" d="M349.43 191.371c0 5.96-4.83 9.31-10.79 7.48-5.96-1.83-10.79-8.14-10.79-14.1 0-5.96 4.83-9.31 10.79-7.48 5.96 1.83 10.79 8.14 10.79 14.1Z"/><path fill="#222" d="M341.79 200.735c-1.15 0-2.35-.185-3.56-.555-6.49-1.99-11.775-8.91-11.775-15.43 0-3.245 1.26-5.96 3.555-7.655 2.385-1.765 5.675-2.185 9.035-1.155 6.49 1.99 11.775 8.91 11.775 15.43 0 3.24-1.26 5.96-3.555 7.655-1.525 1.13-3.425 1.705-5.475 1.705v.005Zm-6.33-22.575c-1.445 0-2.745.395-3.795 1.175-1.565 1.155-2.425 3.085-2.425 5.42 0 5.385 4.4 11.115 9.81 12.77 2.545.78 4.875.52 6.57-.73 1.565-1.155 2.425-3.085 2.425-5.42 0-5.385-4.4-11.115-9.81-12.77a9.48 9.48 0 0 0-2.775-.44v-.005Z"/><path fill="#444" d="m311.52 314.345-217.755-66.7V83.65l217.755 66.83v163.865Z"/><path fill="#222" d="M311.52 315.73c-.135 0-.275-.02-.405-.06L93.36 248.97a1.39 1.39 0 0 1-.98-1.33V83.65c0-.44.21-.855.565-1.115s.81-.34 1.235-.21l217.755 66.83c.585.18.98.72.98 1.33V314.35a1.383 1.383 0 0 1-1.39 1.385l-.005-.005ZM95.155 246.615l214.975 65.85v-160.96L95.155 85.525v161.09Z"/><path fill="#fff" d="m308.845 316.83-217.75-66.7V86.135l217.75 66.83V316.83Z"/><path fill="#222" d="M308.845 318.219c-.135 0-.275-.02-.405-.06l-217.755-66.7a1.39 1.39 0 0 1-.98-1.33V86.134c0-.44.21-.855.565-1.115s.81-.34 1.235-.21l217.755 66.83c.585.18.98.72.98 1.33v163.865a1.383 1.383 0 0 1-1.39 1.385h-.005ZM92.48 249.104l214.975 65.85v-160.96L92.48 88.014v161.09Z"/><path fill="#DADADA" d="m91.095 250.129 217.75 66.7v-39.73L148.9 211.294l-57.805 1.79v37.045Z"/><path fill="#222" d="m310.235 318.709-220.53-67.55v-39.415l59.45-1.84 161.085 66.27v42.54l-.005-.005ZM92.48 249.104l214.975 65.85v-36.925L148.64 212.694l-56.16 1.74v34.67Z"/><path fill="#DADADA" d="m272.324 242.529-71.88-29.465v-71.875l71.88 29.245v72.095Z"/><path fill="#222" d="M267.429 234.975c-.18 0-.355-.035-.525-.105l-71.885-29.47c-.52-.215-.86-.72-.86-1.285V132.24c0-.46.23-.895.615-1.15.385-.26.87-.31 1.3-.135l71.885 29.245c.525.215.865.72.865 1.285v72.095a1.39 1.39 0 0 1-1.39 1.39l-.005.005Zm-70.495-31.79 69.105 28.33v-69.09l-69.105-28.115v68.875Z"/><path fill="#222" d="M232.824 146.845h-2.78v71.985h2.78v-71.985Z"/><path fill="#222" d="m196.085 166.909-1.051 2.573 71.884 29.365 1.051-2.574-71.884-29.364ZM150.29 103.875h-2.78v107.42h2.78v-107.42Z"/><path fill="#F5F4F3" d="M279.8 307.935c4.39-10.495-3.14-22.79-19.45-29.95l-78.645-34.515c-19.49-8.555-45.455-6.995-58.255 3.67-3.895 3.245-6.125 6.965-6.815 10.82l163.16 49.975h.005Z"/><path fill="#222" d="M279.8 309.32c-.135 0-.27-.02-.405-.06l-163.16-49.975a1.39 1.39 0 0 1-.96-1.575c.765-4.28 3.29-8.305 7.29-11.64 6.405-5.335 16.145-8.66 27.42-9.36 11.175-.695 22.64 1.255 32.28 5.485l78.645 34.515c16.645 7.305 24.94 20.365 20.17 31.755-.22.53-.735.855-1.28.855ZM118.275 257l160.675 49.215c3.095-9.635-4.585-20.565-19.16-26.965l-78.645-34.515c-19.01-8.345-44.495-6.79-56.805 3.465-3.155 2.63-5.195 5.585-6.065 8.8Z"/><path fill="#FF3158" d="M303.739 221.259c0 11.765-9.54 18.38-21.305 14.77-11.765-3.605-21.305-16.07-21.305-27.835s9.54-18.38 21.305-14.77c11.765 3.61 21.305 16.07 21.305 27.835Z"/><path fill="#222" d="M288.729 238.414c-2.145 0-4.395-.35-6.7-1.055-12.29-3.77-22.29-16.85-22.29-29.165 0-5.96 2.295-10.945 6.465-14.025 4.425-3.27 10.33-4.005 16.635-2.07 12.29 3.77 22.285 16.85 22.285 29.165 0 5.96-2.295 10.94-6.465 14.025-2.805 2.075-6.21 3.13-9.935 3.13l.005-.005Zm-12.575-44.595c-3.135 0-5.98.87-8.295 2.58-3.445 2.545-5.34 6.735-5.34 11.79 0 11.18 9.12 23.075 20.325 26.51 5.44 1.67 10.475 1.08 14.17-1.65 3.445-2.545 5.34-6.735 5.34-11.79 0-11.18-9.115-23.07-20.32-26.51-2.03-.625-4.005-.93-5.875-.93h-.005Z"/><path fill="#222" d="M283.83 235.119h-2.78v48.37h2.78v-48.37Z"/><path fill="#fff" d="M293.23 218.04c0 5.96-4.83 9.31-10.79 7.48-5.96-1.83-10.79-8.14-10.79-14.1 0-5.96 4.83-9.31 10.79-7.48 5.96 1.83 10.79 8.14 10.79 14.1Z"/><path fill="#222" d="M285.59 227.399c-1.15 0-2.35-.185-3.56-.555-6.49-1.99-11.775-8.91-11.775-15.43 0-3.245 1.26-5.96 3.555-7.655 2.385-1.765 5.675-2.185 9.035-1.155 6.49 1.99 11.775 8.91 11.775 15.43 0 3.24-1.26 5.96-3.555 7.655-1.525 1.13-3.425 1.705-5.475 1.705v.005Zm-6.33-22.575c-1.445 0-2.745.395-3.795 1.175-1.565 1.155-2.425 3.085-2.425 5.42 0 5.385 4.4 11.115 9.81 12.77 2.545.78 4.875.52 6.57-.73 1.565-1.155 2.425-3.085 2.425-5.42 0-5.385-4.4-11.115-9.81-12.77a9.48 9.48 0 0 0-2.775-.44v-.005Z"/><path fill="#444" d="M256.465 336.541 38.71 269.846v-164l217.755 66.835v163.86Z"/><path fill="#222" d="M256.465 337.93c-.135 0-.275-.02-.405-.06l-217.755-66.7a1.39 1.39 0 0 1-.98-1.33V105.845c0-.44.21-.855.565-1.115s.81-.34 1.235-.21l217.755 66.83c.585.18.98.72.98 1.33v163.865a1.383 1.383 0 0 1-1.39 1.385h-.005ZM40.1 268.815l214.975 65.85v-160.96L40.1 107.725v161.09Z"/><path fill="#fff" d="m253.66 338.64-217.75-66.7V107.945l217.75 66.83V338.64Z"/><path fill="#222" d="M253.66 340.025c-.135 0-.275-.02-.405-.06L35.5 273.265a1.39 1.39 0 0 1-.98-1.33v-163.99c0-.44.21-.855.565-1.115s.81-.34 1.235-.21l217.755 66.83c.585.18.98.72.98 1.33v163.865a1.383 1.383 0 0 1-1.39 1.385l-.005-.005ZM37.3 270.91l214.975 65.85V175.8L37.3 109.82v161.09Z"/><path fill="#FF3158" d="m35.91 271.939 217.75 66.701v-39.736l-159.945-65.8-57.805 1.791v37.044Z"/><path fill="#222" d="m255.05 340.515-220.53-67.55V233.55l59.45-1.84.275.115 160.81 66.155v42.54l-.005-.005ZM37.3 270.91l214.975 65.85v-36.925L93.46 234.5l-56.165 1.74v34.67h.005Z"/><path fill="#DADADA" d="M217.145 264.335 145.26 234.87V163l71.885 29.24v72.095Z"/><path fill="#222" d="M212.245 256.78c-.18 0-.355-.035-.525-.105l-71.885-29.47c-.52-.215-.86-.72-.86-1.285v-71.875c0-.46.23-.895.615-1.15.385-.26.87-.31 1.3-.135l71.885 29.245c.525.215.865.72.865 1.285v72.095a1.39 1.39 0 0 1-1.39 1.39l-.005.005Zm-70.495-31.79 69.105 28.33v-69.09l-69.105-28.115v68.875Z"/><path fill="#222" d="M177.64 168.65h-2.78v71.985h2.78V168.65Z"/><path fill="#222" d="m140.898 188.717-1.051 2.574 71.883 29.364 1.052-2.573-71.884-29.365ZM95.105 125.685h-2.78v107.42h2.78v-107.42Z"/><path fill="#444" d="M101.715 168.154c0 12.16-9.865 18.995-22.035 15.26-12.17-3.73-22.035-16.62-22.035-28.78s9.865-18.995 22.035-15.26c12.17 3.735 22.035 16.62 22.035 28.78Z"/><path fill="#222" d="M86.195 185.835c-2.215 0-4.54-.36-6.92-1.09-12.69-3.895-23.02-17.4-23.02-30.11 0-6.145 2.365-11.28 6.665-14.455 4.565-3.375 10.66-4.13 17.17-2.135 12.69 3.895 23.015 17.4 23.015 30.11 0 6.145-2.365 11.28-6.665 14.455-2.895 2.14-6.405 3.225-10.245 3.225Zm-13.02-46.1c-3.255 0-6.2.9-8.605 2.68-3.57 2.64-5.54 6.98-5.54 12.22 0 11.575 9.445 23.895 21.055 27.455 5.645 1.73 10.865 1.125 14.7-1.715 3.57-2.64 5.535-6.98 5.535-12.22 0-11.575-9.445-23.89-21.05-27.45-2.11-.645-4.16-.97-6.1-.97h.005Z"/><path fill="#F5F4F3" d="M247.155 243.201c0 11.765-9.54 18.38-21.305 14.77-11.765-3.605-21.305-16.07-21.305-27.835s9.54-18.38 21.305-14.77c11.765 3.61 21.305 16.07 21.305 27.835Z"/><path fill="#222" d="M232.145 260.356c-2.145 0-4.395-.35-6.7-1.055-12.29-3.77-22.29-16.85-22.29-29.165 0-5.96 2.295-10.945 6.465-14.025 4.425-3.27 10.33-4.005 16.635-2.07 12.29 3.77 22.285 16.85 22.285 29.165 0 5.96-2.295 10.94-6.465 14.025-2.805 2.075-6.21 3.13-9.935 3.13l.005-.005Zm-12.575-44.595c-3.135 0-5.98.87-8.295 2.58-3.445 2.545-5.34 6.735-5.34 11.79 0 11.18 9.12 23.075 20.325 26.51 5.44 1.67 10.47 1.08 14.17-1.65 3.445-2.545 5.34-6.735 5.34-11.79 0-11.18-9.115-23.07-20.32-26.51-2.03-.625-4.005-.93-5.875-.93h-.005Z"/><path fill="#F5F4F3" d="M224.615 329.74c4.39-10.495-3.14-22.79-19.45-29.95l-78.645-34.515c-19.49-8.555-45.455-6.995-58.255 3.67-3.895 3.245-6.125 6.965-6.815 10.82l163.16 49.975h.005Z"/><path fill="#222" d="M224.615 331.131c-.135 0-.27-.02-.405-.06L61.05 281.096a1.39 1.39 0 0 1-.96-1.575c.765-4.28 3.29-8.305 7.29-11.64 6.405-5.335 16.145-8.66 27.42-9.36 11.175-.695 22.64 1.255 32.28 5.485l78.645 34.515c16.645 7.305 24.94 20.365 20.17 31.755-.22.53-.735.855-1.28.855ZM63.09 278.811l160.675 49.215c3.095-9.635-4.585-20.565-19.16-26.965l-78.645-34.515c-19.01-8.345-44.495-6.79-56.805 3.465-3.155 2.63-5.195 5.585-6.065 8.8ZM227.24 257.055h-2.78v48.37h2.78v-48.37ZM81.07 183.995h-2.78v64.315h2.78v-64.315Z"/><path fill="#fff" d="M236.64 239.976c0 5.96-4.83 9.31-10.79 7.48-5.96-1.83-10.79-8.14-10.79-14.1 0-5.96 4.83-9.31 10.79-7.48 5.96 1.83 10.79 8.14 10.79 14.1Z"/><path fill="#222" d="M229 249.341c-1.15 0-2.35-.185-3.56-.555-6.49-1.99-11.775-8.91-11.775-15.43 0-3.245 1.26-5.96 3.555-7.655 2.385-1.765 5.68-2.185 9.035-1.155 6.49 1.99 11.775 8.91 11.775 15.43 0 3.24-1.26 5.96-3.555 7.655-1.525 1.13-3.425 1.705-5.475 1.705v.005Zm-6.33-22.575c-1.445 0-2.745.395-3.795 1.175-1.565 1.155-2.425 3.085-2.425 5.42 0 5.385 4.4 11.115 9.81 12.77 2.545.78 4.875.52 6.57-.73 1.565-1.155 2.425-3.085 2.425-5.42 0-5.385-4.4-11.115-9.81-12.77a9.48 9.48 0 0 0-2.775-.44v-.005Z"/><path fill="#fff" d="M91.565 165.039c0 6.56-5.32 10.245-11.885 8.235-6.565-2.015-11.885-8.965-11.885-15.525 0-6.56 5.32-10.245 11.885-8.235 6.565 2.015 11.885 8.965 11.885 15.525Z"/><path fill="#222" d="M83.155 175.205c-1.255 0-2.565-.2-3.88-.605-7.095-2.175-12.87-9.735-12.87-16.855 0-3.525 1.37-6.475 3.855-8.31 2.59-1.915 6.175-2.37 9.83-1.25 7.095 2.175 12.87 9.74 12.87 16.855 0 3.525-1.37 6.475-3.855 8.31-1.655 1.225-3.72 1.85-5.945 1.85l-.005.005Zm-6.98-24.855c-1.62 0-3.08.445-4.265 1.32-1.76 1.3-2.73 3.46-2.73 6.08 0 5.985 4.89 12.355 10.905 14.2 2.845.875 5.46.58 7.36-.825 1.76-1.3 2.73-3.46 2.73-6.08 0-5.985-4.89-12.355-10.905-14.2-1.075-.33-2.115-.495-3.1-.495h.005Z"/></svg>