<svg xmlns="http://www.w3.org/2000/svg" width="400" height="401" fill="none" viewBox="0 0 400 401"><path fill="#FF3158" d="M315.8 210.42c.045-5.535-4.265-10.26-10.04-10.92-32.54-3.715-70.985-5.58-109.32-5.58-38.335 0-76.77 1.855-109.305 5.57-5.775.66-10.085 5.385-10.04 10.92.245 30.115 5.035 50.985 11.525 69.32 1.355 3.825 4.84 6.6 9.03 7.23 28.805 4.33 64.815-19.3 98.795-19.44 33.98.14 69.99 23.77 98.795 19.44 4.19-.63 7.675-3.405 9.03-7.23 6.49-18.335 11.285-39.195 11.535-69.31h-.005Z"/><path fill="#222" d="M105.09 288.875a51.7 51.7 0 0 1-7.65-.55c-4.72-.71-8.6-3.825-10.125-8.135-5.26-14.855-11.33-36.21-11.605-69.77-.05-6.275 4.79-11.565 11.265-12.305 31.98-3.65 69.835-5.58 109.46-5.58s77.44 1.935 109.475 5.59c6.475.74 11.32 6.03 11.265 12.305-.275 33.54-6.355 54.9-11.615 69.76-1.525 4.305-5.405 7.425-10.125 8.135-15.555 2.34-32.78-3.185-51.02-9.035-15.825-5.075-32.195-10.325-47.985-10.39-15.78.065-32.145 5.315-47.975 10.39-15.295 4.905-29.885 9.585-43.37 9.585h.005Zm91.345-22.735c16.23.065 32.805 5.38 48.83 10.52 17.92 5.745 34.85 11.175 49.765 8.93 3.71-.56 6.75-2.98 7.93-6.32 5.19-14.655 11.185-35.73 11.455-68.86.04-4.86-3.75-8.96-8.815-9.535-31.935-3.645-69.68-5.575-109.16-5.575-39.48 0-77.27 1.925-109.15 5.56-5.065.58-8.855 4.675-8.815 9.535.27 33.155 6.26 54.22 11.445 68.87 1.185 3.345 4.22 5.765 7.93 6.325 14.915 2.245 31.845-3.185 49.765-8.93 16.025-5.14 32.6-10.455 48.82-10.52Z"/><path fill="#444" d="M300.77 189.83c-8.155-8.925-16.4-17.78-20.915-22.085-55.465 11.265-111.345 11.265-166.815 0-4.52 4.3-12.76 13.16-20.915 22.08 62.675-6.22 145.975-6.22 208.65 0l-.005.005Z"/><path fill="#222" d="M300.77 191.21c-.045 0-.09 0-.135-.005-62.315-6.185-146.055-6.185-208.375 0a1.394 1.394 0 0 1-1.375-.755c-.255-.51-.17-1.13.215-1.55 10.315-11.285 17.18-18.53 20.985-22.15.325-.31.785-.445 1.23-.355 55.165 11.205 111.105 11.2 166.265 0 .445-.09.9.04 1.23.355 3.805 3.62 10.67 10.865 20.985 22.15a1.385 1.385 0 0 1-1.02 2.315l-.005-.005Zm-104.325-7.41c35.22 0 70.435 1.435 100.875 4.3-8.495-9.255-14.375-15.45-17.9-18.86-55.06 11.085-110.885 11.085-165.945 0-3.525 3.41-9.405 9.605-17.9 18.86 30.435-2.865 65.66-4.3 100.87-4.3Z"/><path fill="#fff" d="M92.09 189.824c-4.02 4.395-8.02 8.81-11.54 12.7a11.49 11.49 0 0 1 6.555-3.04c32.54-3.715 70.975-5.57 109.305-5.57 38.33 0 76.78 1.865 109.32 5.58 2.605.3 4.875 1.45 6.62 3.1-3.54-3.91-7.565-8.35-11.605-12.775-62.67-6.22-145.975-6.22-208.65 0l-.005.005Z"/><path fill="#222" d="M312.345 203.985c-.34 0-.685-.125-.95-.38a10.078 10.078 0 0 0-5.825-2.73c-31.935-3.645-69.68-5.575-109.16-5.575-39.48 0-77.27 1.925-109.15 5.56a10.057 10.057 0 0 0-5.77 2.68 1.385 1.385 0 0 1-1.915-.025 1.385 1.385 0 0 1-.055-1.915c3.675-4.06 7.615-8.405 11.545-12.705a1.4 1.4 0 0 1 .885-.445c62.48-6.2 146.44-6.2 208.92 0 .34.035.655.19.885.445 3.97 4.34 7.925 8.71 11.61 12.78.5.55.475 1.395-.06 1.915-.27.26-.615.395-.965.395h.005Zm-115.94-11.445c39.58 0 77.435 1.935 109.475 5.59.21.025.415.05.62.085-2.11-2.325-4.265-4.695-6.43-7.06-62.085-6.115-145.235-6.115-207.32 0-2.155 2.355-4.305 4.725-6.415 7.05.2-.035.405-.06.61-.085 31.98-3.65 69.835-5.58 109.46-5.58Z"/><path fill="#fff" d="M196.445 98.23c-53.76.585-71.14 44.08-83.165 69.515l17.34 3.125c9.61-20.905 23.885-56.435 65.825-56.9 41.99.46 56.25 36.075 65.86 56.97 5.45-.87 11.86-2.11 17.305-3.195-12.03-25.435-29.405-68.93-83.165-69.514Z"/><path fill="#222" d="M262.305 172.326c-.535 0-1.025-.31-1.255-.805-.435-.94-.875-1.91-1.33-2.905-9.585-21.04-24.065-52.83-63.29-53.26-39.195.43-53.68 32.225-63.26 53.265-.44.97-.87 1.915-1.295 2.83a1.38 1.38 0 0 1-1.5.785l-17.34-3.125a1.388 1.388 0 0 1-1.005-1.955c.62-1.315 1.26-2.68 1.915-4.08 12.2-26.145 30.64-65.66 82.49-66.225h.03c51.845.56 70.285 40.075 82.49 66.225.655 1.405 1.29 2.765 1.915 4.08a1.381 1.381 0 0 1-.98 1.945c-4.685.935-11.575 2.285-17.36 3.205-.075.01-.145.015-.22.015l-.005.005Zm-65.875-59.735c18.125.2 32.75 6.65 44.73 19.725 10.065 10.985 16.17 24.385 21.075 35.15l.885 1.94c4.82-.79 10.265-1.84 14.485-2.675-.38-.815-.77-1.645-1.165-2.49-11.905-25.515-29.905-64.075-80-64.63-50.095.55-68.09 39.11-80 64.625-.39.835-.775 1.655-1.15 2.465l14.515 2.615c.275-.605.56-1.22.845-1.85 4.905-10.77 11.01-24.17 21.075-35.155 11.985-13.075 26.605-19.53 44.705-19.73v.01Z"/></svg>