<svg xmlns="http://www.w3.org/2000/svg" width="400" height="400" fill="none" viewBox="0 0 400 400"><path fill="#fff" d="m88.63 115.54-3.295 211.69c-32.63-6.41-52.815-15.46-52.815-26.01l.95-195.21c19.904-18.675 20.69-1.325 55.16 9.53ZM314.165 133.54v193.685c29.855-5.865 48.32-14.145 48.32-23.795V109.745c0 9.655-18.465 17.93-48.32 23.795Z"/><path fill="#DADADA" d="M203.319 102.545c-35.08.385-47.005 30.085-55.04 47.575v.035c36.645 5.88 73.455 5.88 110.1 0-8.035-17.475-19.965-47.225-55.06-47.615v.005Z"/><path fill="#DADADA" d="M202.5 72.775c-91.115 0-164.995 13.805-164.995 33.105 0 3.355 2.21 6.545 6.38 9.495 2.615 1.9 5.99 3.685 10.065 5.38 8.075 3.375 18.91 6.38 31.89 8.92v146.1c29.86-5.88 71.095-9.325 116.665-9.325 45.57 0 86.8 3.445 116.665 9.325V129.68c12.975-2.545 23.8-5.55 31.89-8.92 4.055-1.695 7.445-3.5 10.045-5.38 4.165-2.97 6.38-6.14 6.38-9.495 0-19.3-73.86-33.105-164.975-33.105l-.01-.005Zm90.155 170.41c-1.145 3.19-4.055 5.51-7.56 6.045-24.09 3.615-54.195-16.145-82.615-16.26-28.405.11-58.505 19.87-82.6 16.26-3.5-.535-6.415-2.855-7.56-6.045-5.42-15.335-9.42-32.775-9.62-57.97a8.836 8.836 0 0 1 2.875-6.58l.11-.11c2.91-3.225 6.23-6.875 9.55-10.505h.02c6.82-7.465 13.715-14.875 17.495-18.47h.205c10.065-21.27 24.59-57.64 69.55-58.12 44.94.48 59.485 36.85 69.53 58.12h.205c3.78 3.595 10.675 11.005 17.495 18.47h-.02c3.245 3.555 6.49 7.135 9.365 10.305 2.01 1.695 3.245 4.185 3.225 6.91-.205 25.18-4.22 42.62-9.64 57.955l-.01-.005Z"/><path fill="#222" d="M314.164 328.609a1.385 1.385 0 0 1-1.385-1.385V133.539c0-.66.47-1.23 1.115-1.355 30-5.895 47.205-14.07 47.205-22.44a1.385 1.385 0 1 1 2.77 0v193.685c0 12.765-26.885 20.725-49.44 25.155-.09.02-.18.025-.265.025Zm1.385-193.93v190.865c28.98-5.865 45.555-13.9 45.555-22.11V116.589c-7.27 8.67-27.61 14.49-45.555 18.09Z"/><path fill="#222" d="M314.16 307.089a1.383 1.383 0 0 1-.265-2.74c30-5.895 47.205-14.07 47.205-22.44a1.385 1.385 0 1 1 2.77 0c0 12.765-26.885 20.725-49.44 25.155-.09.02-.18.025-.27.025ZM314.16 285.569a1.383 1.383 0 0 1-.265-2.74c30-5.895 47.205-14.075 47.205-22.44a1.385 1.385 0 1 1 2.77 0c0 12.765-26.885 20.725-49.44 25.155-.09.02-.18.025-.27.025ZM314.16 264.045a1.384 1.384 0 0 1-.265-2.741c30-5.895 47.205-14.069 47.205-22.439a1.386 1.386 0 1 1 2.77 0c0 12.765-26.885 20.724-49.44 25.154-.09.02-.18.026-.27.026ZM314.16 242.524a1.383 1.383 0 0 1-.265-2.74c30-5.895 47.205-14.075 47.205-22.44a1.385 1.385 0 1 1 2.77 0c0 12.765-26.885 20.725-49.44 25.155-.09.02-.18.025-.27.025ZM314.16 221.004a1.383 1.383 0 0 1-.265-2.74c30-5.895 47.205-14.07 47.205-22.44a1.385 1.385 0 1 1 2.77 0c0 12.765-26.885 20.725-49.44 25.155-.09.02-.18.025-.27.025ZM314.16 199.484a1.383 1.383 0 0 1-.265-2.74c30-5.895 47.205-14.075 47.205-22.44a1.385 1.385 0 1 1 2.77 0c0 12.765-26.885 20.725-49.44 25.155-.09.02-.18.025-.27.025ZM314.16 177.964a1.383 1.383 0 0 1-.265-2.74c30-5.895 47.205-14.075 47.205-22.44a1.385 1.385 0 1 1 2.77 0c0 12.765-26.885 20.725-49.44 25.155-.09.02-.18.025-.27.025ZM314.16 156.444a1.383 1.383 0 0 1-.265-2.74c30-5.895 47.205-14.07 47.205-22.44a1.385 1.385 0 1 1 2.77 0c0 12.765-26.885 20.725-49.44 25.155-.09.02-.18.025-.27.025Z"/><path fill="#222" d="M357.51 119.27h-2.765v193.685h2.765V119.27ZM347.47 124.709h-2.765v193.685h2.765V124.709ZM334.165 129.84H331.4v193.685h2.765V129.84Z"/><path fill="#222" d="M80.845 281.015a1.385 1.385 0 0 1-1.385-1.385V134.675c-22.315-4.47-48.32-12.38-48.32-24.93 0-12.55 26.885-20.725 49.44-25.155 30.67-6.025 72.195-9.34 116.925-9.34 44.73 0 86.26 3.32 116.925 9.34 22.555 4.43 49.44 12.39 49.44 25.155s-26.01 20.46-48.325 24.93V279.63a1.387 1.387 0 0 1-1.65 1.36c-30.5-5.99-71.835-9.29-116.395-9.29s-85.895 3.3-116.395 9.29c-.09.02-.18.025-.265.025h.005Zm116.66-203c-44.56 0-85.895 3.3-116.395 9.29-30 5.895-47.205 14.075-47.205 22.44 0 8.365 17.205 16.545 47.205 22.44.65.125 1.115.695 1.115 1.355v144.415c30.5-5.825 71.34-9.025 115.28-9.025s84.775 3.2 115.275 9.025V133.54c0-.66.47-1.23 1.115-1.355 30-5.895 47.205-14.075 47.205-22.44 0-8.365-17.205-16.545-47.205-22.44-30.5-5.99-71.835-9.29-116.395-9.29h.005Z"/><path fill="#222" d="M80.845 328.61c-.09 0-.18-.01-.265-.025-22.555-4.43-49.44-12.39-49.44-25.155V109.745a1.385 1.385 0 1 1 2.77 0c0 8.37 17.205 16.545 47.205 22.44.65.125 1.115.695 1.115 1.355v193.685a1.387 1.387 0 0 1-1.385 1.385Zm-46.94-212.02v186.84c0 8.215 16.58 16.245 45.555 22.11V134.675c-17.95-3.595-38.285-9.415-45.555-18.09v.005Z"/><path fill="#222" d="M80.845 307.09c-.09 0-.18-.01-.27-.025-22.555-4.43-49.44-12.39-49.44-25.155a1.385 1.385 0 1 1 2.77 0c0 8.37 17.205 16.545 47.205 22.44a1.384 1.384 0 0 1-.265 2.74ZM80.845 285.571c-.09 0-.18-.01-.27-.025-22.555-4.43-49.44-12.39-49.44-25.155a1.385 1.385 0 1 1 2.77 0c0 8.37 17.205 16.545 47.205 22.44a1.384 1.384 0 0 1-.265 2.74ZM80.845 264.045c-.09 0-.18-.01-.27-.025-22.555-4.43-49.44-12.39-49.44-25.155a1.385 1.385 0 1 1 2.77 0c0 8.37 17.205 16.545 47.205 22.44a1.384 1.384 0 0 1-.265 2.74ZM80.845 242.526c-.09 0-.18-.01-.27-.025-22.555-4.43-49.44-12.39-49.44-25.155a1.385 1.385 0 1 1 2.77 0c0 8.37 17.205 16.545 47.205 22.44a1.384 1.384 0 0 1-.265 2.74ZM80.845 221.005c-.09 0-.18-.01-.27-.025-22.555-4.43-49.44-12.39-49.44-25.155a1.385 1.385 0 1 1 2.77 0c0 8.37 17.205 16.545 47.205 22.44a1.384 1.384 0 0 1-.265 2.74ZM80.845 199.486c-.09 0-.18-.01-.27-.025-22.555-4.43-49.44-12.39-49.44-25.155a1.385 1.385 0 1 1 2.77 0c0 8.37 17.205 16.545 47.205 22.44a1.384 1.384 0 0 1-.265 2.74ZM80.845 177.965c-.09 0-.18-.01-.27-.025-22.555-4.43-49.44-12.39-49.44-25.155a1.385 1.385 0 1 1 2.77 0c0 8.37 17.205 16.545 47.205 22.44a1.384 1.384 0 0 1-.265 2.74ZM80.845 156.446c-.09 0-.18-.01-.27-.025-22.555-4.43-49.44-12.39-49.44-25.155a1.385 1.385 0 1 1 2.77 0c0 8.37 17.205 16.545 47.205 22.44a1.384 1.384 0 0 1-.265 2.74Z"/><path fill="#222" d="M40.265 119.271H37.5v193.685h2.765V119.271ZM50.3 124.711h-2.765v193.685H50.3V124.711ZM63.605 129.841H60.84v193.685h2.765V129.841Z"/><path fill="#FF3158" d="M297.305 189.09c.04-4.63-3.565-8.58-8.395-9.13-27.21-3.105-59.355-4.665-91.41-4.665s-64.19 1.55-91.4 4.655c-4.83.55-8.435 4.505-8.395 9.13.205 25.185 4.21 42.635 9.635 57.965 1.13 3.195 4.05 5.52 7.55 6.045 24.085 3.62 54.195-16.135 82.61-16.255 28.415.115 58.525 19.875 82.61 16.255 3.5-.525 6.415-2.845 7.55-6.045 5.43-15.33 9.44-32.775 9.645-57.955Z"/><path fill="#222" d="M273.88 254.92c-11.31 0-23.525-3.915-36.335-8.025-13.22-4.24-26.885-8.62-40.055-8.675-13.16.055-26.825 4.435-40.045 8.675-15.275 4.9-29.705 9.525-42.765 7.56-4.03-.605-7.345-3.27-8.645-6.95-4.4-12.435-9.485-30.315-9.715-58.415-.045-5.365 4.09-9.885 9.62-10.515 26.75-3.05 58.41-4.665 91.555-4.665 33.145 0 64.77 1.615 91.565 4.675 5.53.63 9.665 5.15 9.62 10.515-.23 28.08-5.32 45.96-9.725 58.405-1.305 3.68-4.615 6.345-8.645 6.95-2.11.315-4.255.46-6.43.46v.005Zm-76.385-78.245c-33.04 0-64.595 1.605-91.24 4.65-4.12.47-7.205 3.8-7.17 7.745.225 27.69 5.225 45.28 9.555 57.515.96 2.715 3.435 4.685 6.45 5.14 12.42 1.87 26.55-2.665 41.51-7.46 13.42-4.305 27.29-8.75 40.89-8.81 13.61.055 27.485 4.505 40.9 8.81 14.96 4.795 29.09 9.33 41.51 7.46 3.02-.455 5.49-2.42 6.45-5.14 4.335-12.24 9.34-29.84 9.565-57.505.03-3.945-3.05-7.275-7.17-7.745-26.695-3.05-58.25-4.66-91.25-4.66Z"/><path fill="#444" d="M284.735 171.87c-6.82-7.46-13.71-14.87-17.49-18.465-46.38 9.42-93.105 9.42-139.485 0-3.78 3.595-10.67 11.005-17.49 18.465 52.405-5.2 122.06-5.2 174.465 0Z"/><path fill="#222" d="M284.739 173.255c-.045 0-.09 0-.135-.005-52.095-5.17-122.095-5.17-174.195 0a1.386 1.386 0 0 1-1.375-.755c-.255-.51-.17-1.13.215-1.55 8.625-9.435 14.37-15.5 17.56-18.535.325-.31.785-.445 1.23-.355 46.095 9.36 92.84 9.36 138.935 0 .445-.09.9.04 1.23.355 3.185 3.03 8.93 9.095 17.56 18.535a1.385 1.385 0 0 1-1.02 2.315l-.005-.005Zm-87.235-6.645c29.235 0 58.46 1.18 83.785 3.545-6.82-7.425-11.575-12.435-14.475-15.245-45.99 9.245-92.625 9.245-138.615 0-2.9 2.81-7.655 7.825-14.475 15.245 25.32-2.36 54.555-3.545 83.78-3.545Z"/><path fill="#fff" d="M110.246 171.87c-3.36 3.675-6.705 7.365-9.65 10.62a9.584 9.584 0 0 1 5.48-2.54c27.205-3.105 59.345-4.655 91.4-4.655 32.055 0 64.2 1.56 91.41 4.665a9.614 9.614 0 0 1 5.535 2.59c-2.96-3.27-6.325-6.98-9.705-10.68-52.405-5.2-122.06-5.2-174.465 0h-.005Z"/><path fill="#222" d="M294.415 183.935c-.34 0-.685-.125-.95-.38a8.22 8.22 0 0 0-4.74-2.225c-26.695-3.045-58.25-4.66-91.25-4.66s-64.595 1.605-91.24 4.65a8.22 8.22 0 0 0-4.695 2.18 1.385 1.385 0 0 1-1.915-.025 1.38 1.38 0 0 1-.055-1.91c3.06-3.38 6.35-7.005 9.655-10.625a1.4 1.4 0 0 1 .885-.445c52.26-5.185 122.48-5.185 174.74 0 .34.035.655.19.885.445 3.365 3.68 6.655 7.31 9.71 10.685.5.55.475 1.395-.06 1.915-.27.26-.615.395-.965.395h-.005ZM197.47 173.91c33.07 0 64.695 1.615 91.475 4.665-1.6-1.765-3.24-3.565-4.9-5.38-51.865-5.1-121.275-5.1-173.14 0-1.645 1.8-3.285 3.6-4.89 5.37 26.73-3.045 58.35-4.655 91.455-4.655Z"/><path fill="#fff" d="M197.505 95.28c-44.955.49-59.485 36.86-69.54 58.125l14.5 2.61c8.035-17.48 19.97-47.19 55.04-47.575 35.11.385 47.035 30.165 55.07 47.64 4.56-.725 9.92-1.765 14.47-2.675-10.06-21.265-24.59-57.64-69.54-58.125Z"/><path fill="#222" d="M252.575 157.46c-.535 0-1.025-.31-1.255-.805-.36-.785-.73-1.6-1.11-2.43-7.99-17.54-20.065-44.045-52.72-44.4-32.625.36-44.7 26.865-52.69 44.405l-1.08 2.365c-.265.575-.88.895-1.5.785l-14.5-2.61a1.388 1.388 0 0 1-1.005-1.955c.52-1.1 1.05-2.24 1.6-3.41C138.54 127.49 153.995 94.37 197.49 93.9h.03c43.495.47 58.95 33.59 69.175 55.505.545 1.175 1.08 2.315 1.6 3.41a1.381 1.381 0 0 1-.98 1.945c-3.915.78-9.68 1.91-14.525 2.68-.075.01-.145.015-.22.015l.005.005Zm-55.085-50.405c15.23.165 27.51 5.585 37.575 16.57 8.44 9.21 13.555 20.435 17.66 29.45.225.495.45.985.67 1.465 3.88-.64 8.215-1.475 11.65-2.15-.28-.6-.565-1.205-.85-1.825-9.935-21.285-24.94-53.45-66.685-53.91-41.745.46-56.755 32.625-66.685 53.91-.285.605-.56 1.205-.84 1.795l11.67 2.1c.21-.455.42-.915.63-1.385 4.11-9.02 9.22-20.245 17.66-29.455 10.065-10.985 22.345-16.405 37.545-16.57v.005Z"/></svg>