<svg xmlns="http://www.w3.org/2000/svg" width="343" height="64" viewBox="0 0 343 64" fill="none"><path d="M342.873 0.000500042H21.7078C18.8641 -0.0188669 16.0447 0.524513 13.4118 1.59935C10.779 2.67419 8.38477 4.25924 6.36707 6.26324C4.34938 8.26725 2.74805 10.6506 1.65531 13.2761C0.562569 15.9015 0 18.7172 0 21.561C0 24.4048 0.562569 27.2205 1.65531 29.8459C2.74805 32.4714 4.34938 34.8548 6.36707 36.8588C8.38477 38.8628 10.779 40.4478 13.4118 41.5227C16.0447 42.5975 18.8641 43.1409 21.7078 43.1215H38.3458C39.3067 43.1215 40.2282 43.5032 40.9077 44.1827C41.5871 44.8621 41.9688 45.7836 41.9688 46.7445C41.9688 47.7054 41.5871 48.6269 40.9077 49.3063C40.2282 49.9858 39.3067 50.3675 38.3458 50.3675H21.6398V62.3065H38.3458C42.4731 62.3065 46.4314 60.6669 49.3498 57.7485C52.2683 54.8301 53.9078 50.8718 53.9078 46.7445C53.9078 42.6172 52.2683 38.6589 49.3498 35.7405C46.4314 32.8221 42.4731 31.1825 38.3458 31.1825H21.7078C20.4361 31.1955 19.1743 30.9562 17.9956 30.4785C16.8169 30.0008 15.7446 29.2941 14.8407 28.3994C13.9368 27.5046 13.2193 26.4396 12.7296 25.2658C12.2399 24.092 11.9877 22.8328 11.9877 21.561C11.9877 20.2892 12.2399 19.03 12.7296 17.8562C13.2193 16.6824 13.9368 15.6174 14.8407 14.7226C15.7446 13.8279 16.8169 13.1212 17.9956 12.6435C19.1743 12.1658 20.4361 11.9265 21.7078 11.9395H321.246L289.54 62.3085H327.854V50.4005H311.134L342.873 0.000500042Z" fill="#39363E"></path><path d="M83.2223 18.9404V44.3884C83.3112 46.0935 82.9127 47.7886 82.0733 49.2754C81.1053 50.7754 79.5473 51.5054 77.3113 51.5054C75.8561 51.5624 74.429 51.0935 73.2913 50.1844C71.9913 49.0394 71.3343 47.0904 71.3343 44.3844V18.9404H59.3633V44.1934C59.3633 50.7604 61.2863 55.7874 65.0813 59.1384C68.5052 61.9849 72.8575 63.4708 77.3073 63.3124C81.7354 63.4441 86.0598 61.9577 89.4713 59.1314C93.2643 55.7774 95.1863 50.7494 95.1863 44.1904V18.9404H83.2223Z" fill="#39363E"></path><path d="M282.525 18.9404H270.586V62.3084H282.525V18.9404Z" fill="#39363E"></path><path d="M196.54 62.3084V52.6704H202.563L207.884 62.3084H222.221L221.289 60.7804C220.889 60.1284 220.489 59.4744 220.089 58.8174L219.961 58.6084C218.193 55.7204 216.369 52.7424 214.847 50.0664C216.899 48.9211 218.592 47.2295 219.74 45.1794C221.249 42.2691 221.973 39.0158 221.84 35.7404C221.84 30.3094 220.425 26.3044 217.516 23.4974C214.339 20.4314 209.516 18.9404 202.771 18.9404H184.618V62.3084H196.54ZM196.54 30.7454H203.676C206.097 30.7454 207.684 31.1774 208.393 32.0304C208.944 32.6944 209.193 33.8394 209.193 35.7404C209.193 37.7124 208.944 38.8964 208.387 39.5754C207.687 40.4304 206.101 40.8644 203.68 40.8644H196.544L196.54 30.7454Z" fill="#39363E"></path><path d="M135.33 24.3544C131.936 20.7614 126.899 18.9404 120.359 18.9404H102.515V62.3084H114.456V54.4214H120.356C126.901 54.4214 131.938 52.5964 135.33 48.9964C138.223 45.9264 139.751 41.6564 139.751 36.6494C139.75 31.6694 138.223 27.4174 135.33 24.3544ZM120.55 42.6174H114.45V30.7454H120.55C125.158 30.7454 127.038 32.4554 127.038 36.6454C127.04 40.8884 125.16 42.6174 120.55 42.6174Z" fill="#39363E"></path><path d="M176.352 62.3075V50.3395H158.362V45.5695H170.307V35.6365H158.362V30.9435H176.352V18.9435H146.452V62.3075H176.352Z" fill="#39363E"></path><path d="M251.081 18.9395L244.512 39.5605L237.794 18.9395H224.709L240.268 62.3075H248.768L263.887 18.9395H251.081Z" fill="#39363E"></path></svg>